<?xml version="1.0" encoding="utf-8"?>
<!-- Generator: Adobe Illustrator 25.4.0, SVG Export Plug-In . SVG Version: 6.00 Build 0)  -->
<svg version="1.1" id="Layer_1" xmlns="http://www.w3.org/2000/svg" xmlns:xlink="http://www.w3.org/1999/xlink" x="0px" y="0px"
	 viewBox="0 0 50.5 50.4" style="enable-background:new 0 0 50.5 50.4;" xml:space="preserve">
<style type="text/css">
	.st0{fill:#FECD2C;}
	.st1{fill:#36FEDE;}
	.st2{fill:#FE9431;}
	.st3{fill:#3854FE;}
	.st4{fill:#231400;}
</style>
<g>
	<g>
		<path class="st0" d="M47.3,28.5c0,2.1,0,4.2,0,6.3c-1,0-2.1,0-3.1,0c0-1,0-2,0-3.1c0-0.1,0-0.1-0.1-0.1c-1,0-2,0-3.1,0
			c0-1.1,0-2.1,0-3.2c1.1,0,2.1,0,3.2,0c0,0,0.1,0,0.1,0C45.4,28.5,46.3,28.5,47.3,28.5z"/>
		<path class="st0" d="M3.2,34.8c0-2.1,0-4.2,0-6.3c1,0,2,0,3,0c1.1,0,2.1,0,3.2,0c0,1.1,0,2.1,0,3.2c-1,0-2,0-3.1,0
			c-0.1,0-0.1,0-0.1,0.1c0,1,0,2,0,3.1C5.2,34.8,4.2,34.8,3.2,34.8z"/>
		<path class="st1" d="M22,3.1c2.1,0,4.2,0,6.4,0c0,1.1,0,2.1,0,3.2c-2.1,0-4.2,0-6.4,0C22,5.2,22,4.2,22,3.1z"/>
		<path class="st1" d="M37.9,3.1c0,1.1,0,2.1,0,3.2c-0.2,0-0.4,0-0.6,0c-0.9,0-1.7,0-2.6,0c-1.1,0-2.1,0-3.2,0c0-1.1,0-2.1,0-3.2
			C33.7,3.1,35.8,3.1,37.9,3.1z"/>
		<path class="st1" d="M12.5,6.3c0-1.1,0-2.1,0-3.2c2.1,0,4.2,0,6.3,0c0,1.1,0,2.1,0,3.2c-1.1,0-2.1,0-3.2,0c-0.1,0-0.2,0-0.2,0
			C14.5,6.3,13.5,6.3,12.5,6.3z"/>
		<path class="st2" d="M18.9,6.3c0-1.1,0-2.1,0-3.2c1.1,0,2.1,0,3.2,0c0,1.1,0,2.1,0,3.2l0,0C21,6.3,19.9,6.3,18.9,6.3L18.9,6.3z"/>
		<path class="st2" d="M31.5,3.1c0,1.1,0,2.1,0,3.2l0,0c-1.1,0-2.1,0-3.2,0l0,0c0-1.1,0-2.1,0-3.2C29.4,3.1,30.5,3.1,31.5,3.1z"/>
		<path class="st3" d="M47.3,18.9c0,1.1,0,2.1,0,3.2c-0.1,0-0.3,0-0.4,0c-0.9,0-1.8,0-2.7,0c0-1.1,0-2.1,0-3.2
			C45.3,18.9,46.3,18.9,47.3,18.9z"/>
		<path class="st2" d="M44.2,12.6c1,0,2.1,0,3.1,0c0,1.1,0,2.1,0,3.2c-1,0-2.1,0-3.1,0C44.2,14.7,44.2,13.7,44.2,12.6L44.2,12.6z"/>
		<path class="st3" d="M44.2,34.8c1,0,2.1,0,3.1,0c0,1.1,0,2.1,0,3.2c-1,0-2.1,0-3.1,0l0,0C44.2,36.9,44.2,35.8,44.2,34.8L44.2,34.8
			z"/>
		<path class="st1" d="M44.2,15.8c1,0,2.1,0,3.1,0c0,1.1,0,2.1,0,3.2c-1,0-2.1,0-3.1,0l0,0C44.2,17.9,44.2,16.8,44.2,15.8L44.2,15.8
			z"/>
		<path class="st3" d="M47.3,28.5c-1,0-2,0-2.9,0c0,0-0.1,0-0.1,0c0-1.1,0-2.1,0-3.2c1,0,2.1,0,3.1,0C47.3,26.3,47.3,27.4,47.3,28.5
			z"/>
		<path class="st2" d="M47.3,25.3c-1,0-2.1,0-3.1,0l0,0c0-0.5,0-1,0-1.5c0-0.5,0-1.1,0-1.6l0,0c0.9,0,1.8,0,2.7,0c0.1,0,0.3,0,0.4,0
			C47.3,23.2,47.3,24.2,47.3,25.3z"/>
		<path class="st3" d="M3.2,22.1c0-1.1,0-2.1,0-3.2c1,0,2,0,3,0c0,1.1,0,2.1,0,3.2C5.2,22.1,4.2,22.1,3.2,22.1z"/>
		<path class="st1" d="M6.2,18.9c-1,0-2,0-3,0c0-1.1,0-2.1,0-3.2c1,0,2,0,3,0C6.2,16.8,6.2,17.9,6.2,18.9L6.2,18.9z"/>
		<path class="st3" d="M3.2,34.8c1,0,2,0,3,0l0,0c0,1.1,0,2.1,0,3.2l0,0c-1,0-2,0-3,0C3.2,36.9,3.2,35.8,3.2,34.8z"/>
		<path class="st3" d="M6.2,28.5c-1,0-2,0-3,0c0-1.1,0-2.1,0-3.2c1,0,2,0,3,0C6.2,26.3,6.2,27.4,6.2,28.5z"/>
		<path class="st2" d="M6.2,25.3c-1,0-2,0-3,0c0-1.1,0-2.1,0-3.2c1,0,2,0,3,0l0,0c0,0.3,0,0.6,0,0.9C6.2,23.8,6.2,24.5,6.2,25.3
			L6.2,25.3z"/>
		<path class="st2" d="M6.2,15.8c-1,0-2,0-3,0c0-1.1,0-2.1,0-3.2c1,0,2,0,3,0l0,0C6.2,13.7,6.2,14.7,6.2,15.8L6.2,15.8z"/>
		<path class="st3" d="M34.7,47.4c-1.1,0-2.1,0-3.2,0c-5.2,0-10.5,0-15.7,0c0,0-0.1,0-0.1,0c0-1,0-2.1,0-3.1l0,0c0.1,0,0.1,0,0.2,0
			c1,0,2,0,3,0c1.1,0,2.1,0,3.2,0c0,0,0.1,0,0.1,0c2.1,0,4.1,0,6.2,0c0,0,0.1,0,0.1,0c0.8,0,1.5,0,2.3,0c0.3,0,0.6,0,0.9,0
			c0.2,0,0.3,0,0.5,0c0.9,0,1.8,0,2.7,0l0,0C34.7,45.3,34.7,46.4,34.7,47.4z"/>
		<path class="st3" d="M44.2,38c0,1,0,2,0,3.1c0,0.1,0,0.1-0.1,0.1c-1,0-1.9,0-2.9,0c0,0-0.1,0-0.1,0c-1.1,0-2.1,0-3.2,0l0,0
			c0-1.1,0-2.1,0-3.2c0.2,0,0.5,0,0.7,0c0.8,0,1.7,0,2.5,0C42.1,37.9,43.2,38,44.2,38L44.2,38z"/>
		<path class="st2" d="M37.9,41.1c1.1,0,2.1,0,3.2,0c0,1,0,2,0,3c0,0.1,0,0.1-0.1,0.1c-1,0-2,0-3,0C37.9,43.3,37.9,42.2,37.9,41.1z"
			/>
		<path class="st3" d="M37.9,41.1c0,1.1,0,2.1,0,3.2c-0.9,0-1.7,0-2.6,0c-0.2,0-0.4,0-0.6,0l0,0c0-1.1,0-2.1,0-3.2
			C35.8,41.1,36.8,41.1,37.9,41.1L37.9,41.1z"/>
		<path class="st3" d="M9.4,41.1c-1,0-2,0-3,0c-0.2,0-0.2,0-0.2-0.2c0-1,0-2,0-3l0,0c0.2,0,0.4,0,0.6,0c0.9,0,1.7,0,2.6,0
			c0.1,0,0.1,0,0.2,0c1,0,2,0,3,0c0,1.1,0,2.1,0,3.2l0,0c-0.2,0-0.4,0-0.6,0C11.1,41.1,10.2,41.1,9.4,41.1z"/>
		<path class="st3" d="M15.7,44.3c-1.1,0-2.1,0-3.2,0c0-1.1,0-2.1,0-3.2l0,0c1.1,0,2.1,0,3.2,0C15.7,42.2,15.7,43.3,15.7,44.3
			L15.7,44.3z"/>
		<path class="st2" d="M12.5,41.1c0,1.1,0,2.1,0,3.2c-1,0-2.1,0-3.1,0c-0.1,0-0.1-0.1-0.1-0.1c0-1,0-2,0-3c0.9,0,1.7,0,2.6,0
			C12.2,41.1,12.3,41.1,12.5,41.1z"/>
		<path class="st3" d="M34.7,6.3c0.9,0,1.7,0,2.6,0c0.2,0,0.4,0,0.6,0c1,0,2,0,3,0c0.2,0,0.2,0,0.2,0.2c0,1,0,2,0,3l0,0
			c-0.2,0-0.4,0-0.5,0c-0.9,0-1.8,0-2.6,0c-0.1,0-0.1,0-0.2,0c-1,0-2,0-3,0C34.7,8.4,34.7,7.3,34.7,6.3z"/>
		<path class="st0" d="M41.1,9.4c1,0,2,0,3,0c0.1,0,0.1,0,0.1,0.1c0,1,0,2,0,3c0,0,0,0,0,0c-1.1,0-2.1,0-3.2,0
			C41.1,11.6,41.1,10.5,41.1,9.4L41.1,9.4z"/>
		<path class="st3" d="M12.5,6.3c1,0,2,0,2.9,0c0.1,0,0.2,0,0.2,0c0,1.1,0,2.1,0,3.2c-0.1,0-0.3,0-0.4,0c-0.9,0-1.8,0-2.7,0
			c-0.2,0-0.4,0-0.5,0c-0.9,0-1.7,0-2.6,0l0,0c0-1,0-2,0-3c0-0.1,0-0.2,0.2-0.2C10.5,6.3,11.5,6.3,12.5,6.3z"/>
		<path class="st0" d="M6.2,12.6c0-1,0-2,0-3c0-0.1,0-0.1,0.1-0.1c1,0,2,0,3,0l0,0c0,1.1,0,2.1,0,3.2C8.3,12.6,7.3,12.6,6.2,12.6
			L6.2,12.6z"/>
		<path class="st2" d="M41.1,28.5c0,1.1,0,2.1,0,3.2l0,0c-1.1,0-2.1,0-3.2,0c0-1.1,0-2.1,0-3.2C38.9,28.5,40,28.5,41.1,28.5
			L41.1,28.5z"/>
		<path class="st1" d="M44.2,25.3c0,1.1,0,2.1,0,3.2c-1.1,0-2.1,0-3.2,0c0,0,0,0,0,0c0-1.1,0-2.1,0-3.2c0.2,0,0.4,0,0.6,0
			C42.5,25.3,43.4,25.3,44.2,25.3L44.2,25.3z"/>
		<path class="st4" d="M41.1,31.6c1,0,2,0,3.1,0c0.1,0,0.1,0,0.1,0.1c0,1,0,2,0,3.1l0,0c-1.1,0-2.1,0-3.2,0l0,0
			C41.1,33.7,41.1,32.7,41.1,31.6C41.1,31.6,41.1,31.6,41.1,31.6z"/>
		<path class="st2" d="M9.4,31.6c0-1.1,0-2.1,0-3.2l0,0c1.1,0,2.1,0,3.2,0c0,1.1,0,2.1,0,3.2C11.5,31.6,10.4,31.6,9.4,31.6L9.4,31.6
			z"/>
		<path class="st1" d="M6.2,28.5c0-1.1,0-2.1,0-3.2c0,0,0,0,0,0c0.1,0,0.1,0,0.2,0c1,0,2,0,3,0c0,1.1,0,2.1,0,3.2l0,0
			C8.3,28.5,7.3,28.5,6.2,28.5z"/>
		<path class="st4" d="M6.2,34.8c0-1,0-2,0-3.1c0-0.1,0-0.1,0.1-0.1c1,0,2,0,3.1,0l0,0c0,1.1,0,2.1,0,3.2l0,0
			C8.3,34.8,7.3,34.8,6.2,34.8L6.2,34.8z"/>
		<path class="st2" d="M22,6.3c2.1,0,4.2,0,6.4,0l0,0c0,1.1,0,2.1,0,3.2c-2.1,0-4.2,0-6.4,0C22,8.4,22,7.3,22,6.3L22,6.3z"/>
		<path class="st2" d="M34.7,6.3c0,1.1,0,2.1,0,3.2c0,0,0,0,0,0c-1.1,0-2.1,0-3.2,0c0-1.1,0-2.1,0-3.2l0,0
			C32.6,6.3,33.7,6.3,34.7,6.3z"/>
		<path class="st2" d="M15.7,9.4c0-1.1,0-2.1,0-3.2c1.1,0,2.1,0,3.2,0l0,0c0,1.1,0,2.1,0,3.2C17.8,9.4,16.8,9.4,15.7,9.4L15.7,9.4z"
			/>
		<path class="st1" d="M18.9,9.4c0-1.1,0-2.1,0-3.2c1.1,0,2.1,0,3.2,0c0,1.1,0,2.1,0,3.2l0,0C21,9.4,19.9,9.4,18.9,9.4L18.9,9.4z"/>
		<path class="st1" d="M31.6,6.3c0,1.1,0,2.1,0,3.2l0,0c-1.1,0-2.1,0-3.2,0l0,0c0-1.1,0-2.1,0-3.2C29.4,6.3,30.5,6.3,31.6,6.3z"/>
		<path class="st1" d="M44.2,18.9c0,1.1,0,2.1,0,3.2l0,0c-0.1,0-0.1,0-0.2,0c-1,0-2,0-3,0c0-1.1,0-2.1,0-3.2
			C42.1,18.9,43.2,18.9,44.2,18.9L44.2,18.9z"/>
		<path class="st1" d="M41.1,12.6c1.1,0,2.1,0,3.2,0c0,1.1,0,2.1,0,3.2l0,0c-1.1,0-2.1,0-3.2,0C41.1,14.7,41.1,13.7,41.1,12.6
			L41.1,12.6z"/>
		<path class="st0" d="M41.1,34.8c1.1,0,2.1,0,3.2,0c0,1.1,0,2.1,0,3.2c-1.1,0-2.1,0-3.2,0C41.1,36.9,41.1,35.8,41.1,34.8z"/>
		<path class="st3" d="M41.1,15.8c1.1,0,2.1,0,3.2,0c0,1.1,0,2.1,0,3.2c-1.1,0-2.1,0-3.2,0l0,0C41.1,17.9,41.1,16.8,41.1,15.8
			L41.1,15.8z"/>
		<path class="st0" d="M41.1,22.1c1,0,2,0,3,0c0.1,0,0.1,0,0.2,0c0,0.5,0,1.1,0,1.6c0,0.5,0,1,0,1.5c-0.9,0-1.7,0-2.6,0
			c-0.2,0-0.4,0-0.6,0c0,0,0,0,0,0C41.1,24.2,41.1,23.2,41.1,22.1L41.1,22.1z"/>
		<path class="st1" d="M6.2,22.1c0-1.1,0-2.1,0-3.2l0,0c1.1,0,2.1,0,3.2,0c0,1.1,0,2.1,0,3.2c-0.2,0-0.4,0-0.6,0
			C7.9,22.1,7.1,22.1,6.2,22.1L6.2,22.1z"/>
		<path class="st3" d="M9.4,18.9c-1.1,0-2.1,0-3.2,0c0-1.1,0-2.1,0-3.2l0,0c1.1,0,2.1,0,3.2,0C9.4,16.8,9.4,17.9,9.4,18.9
			C9.4,18.9,9.4,18.9,9.4,18.9z"/>
		<path class="st0" d="M6.2,34.8c1.1,0,2.1,0,3.2,0c0,1.1,0,2.1,0,3.2c-0.9,0-1.7,0-2.6,0c-0.2,0-0.4,0-0.6,0
			C6.2,36.9,6.2,35.8,6.2,34.8z"/>
		<path class="st0" d="M6.2,22.1c0.9,0,1.7,0,2.6,0c0.2,0,0.4,0,0.6,0l0,0c0,1.1,0,2.1,0,3.2l0,0c-1,0-2,0-3,0c-0.1,0-0.1,0-0.2,0
			c0-0.8,0-1.5,0-2.3C6.2,22.7,6.2,22.4,6.2,22.1z"/>
		<path class="st1" d="M9.4,15.8c-1.1,0-2.1,0-3.2,0c0-1.1,0-2.1,0-3.2c1.1,0,2.1,0,3.2,0l0,0C9.4,13.7,9.4,14.7,9.4,15.8L9.4,15.8z
			"/>
		<path d="M28.4,44.3C28.4,44.3,28.3,44.3,28.4,44.3c-2.1,0-4.2,0-6.3,0c0,0-0.1,0-0.1,0c0-1.1,0-2.1,0-3.2c2.1,0,4.2,0,6.4,0
			C28.4,42.2,28.4,43.2,28.4,44.3z"/>
		<path d="M34.7,41.1c0,1.1,0,2.1,0,3.2c-0.9,0-1.8,0-2.7,0c-0.2,0-0.3,0-0.5,0c0-1.1,0-2.1,0-3.2C32.6,41.1,33.7,41.1,34.7,41.1
			L34.7,41.1z"/>
		<path class="st2" d="M31.5,41.1c0,1.1,0,2.1,0,3.2c-0.3,0-0.6,0-0.9,0c-0.8,0-1.5,0-2.3,0c0-1.1,0-2.1,0-3.2l0,0
			C29.4,41.1,30.5,41.1,31.5,41.1L31.5,41.1z"/>
		<path class="st2" d="M22,41.1c0,1.1,0,2.1,0,3.2c-1.1,0-2.1,0-3.2,0c0-1.1,0-2.1,0-3.2C19.9,41.1,21,41.1,22,41.1L22,41.1z"/>
		<path d="M18.9,41.1c0,1.1,0,2.1,0,3.2c-1,0-2,0-3,0c-0.1,0-0.1,0-0.2,0c0-1.1,0-2.1,0-3.2l0,0C16.8,41.1,17.8,41.1,18.9,41.1
			L18.9,41.1z"/>
		<path d="M37.9,41.1c-1.1,0-2.1,0-3.2,0l0,0c0-1.1,0-2.1,0-3.2c1.1,0,2.1,0,3.2,0l0,0C37.9,39,37.9,40.1,37.9,41.1z"/>
		<path class="st4" d="M41.1,34.8c0,1.1,0,2.1,0,3.2c-0.8,0-1.7,0-2.5,0c-0.2,0-0.5,0-0.7,0l0,0c0-1.1,0-2.1,0-3.2
			C38.9,34.8,40,34.8,41.1,34.8L41.1,34.8z"/>
		<path d="M15.7,41.1c-1.1,0-2.1,0-3.2,0c0-1.1,0-2.1,0-3.2l0,0c1.1,0,2.1,0,3.2,0C15.7,39,15.7,40.1,15.7,41.1L15.7,41.1z"/>
		<path class="st4" d="M9.4,37.9c0-1.1,0-2.1,0-3.2l0,0c1.1,0,2.1,0,3.2,0c0,1.1,0,2.1,0,3.2l0,0c-1,0-2,0-3,0
			C9.5,38,9.4,37.9,9.4,37.9z"/>
		<path class="st1" d="M41.1,9.4c0,1.1,0,2.1,0,3.2l0,0c-1.1,0-2.1,0-3.2,0c0-1.1,0-2.1,0-3.2c0.9,0,1.8,0,2.6,0
			C40.7,9.4,40.9,9.4,41.1,9.4z"/>
		<path class="st0" d="M37.9,9.4c0,1.1,0,2.1,0,3.2l0,0c-1.1,0-2.1,0-3.2,0c0-1.1,0-2.1,0-3.2c0,0,0,0,0,0c1,0,2,0,3,0
			C37.8,9.4,37.8,9.4,37.9,9.4z"/>
		<path class="st0" d="M12.5,9.4c0.9,0,1.8,0,2.7,0c0.1,0,0.3,0,0.4,0c0,0,0,0,0,0c0,1.1,0,2.1,0,3.2c-1.1,0-2.1,0-3.2,0l0,0
			C12.5,11.6,12.5,10.5,12.5,9.4z"/>
		<path class="st1" d="M12.5,9.4c0,1.1,0,2.1,0,3.2c-1.1,0-2.1,0-3.2,0l0,0c0-1.1,0-2.1,0-3.2c0.9,0,1.7,0,2.6,0
			C12.2,9.4,12.4,9.4,12.5,9.4z"/>
		<path class="st0" d="M37.9,28.5c0,1.1,0,2.1,0,3.2l0,0c-1.1,0-2.1,0-3.2,0c-1.1,0-2.1,0-3.2,0c0-1.1,0-2.1,0-3.2
			c1.1,0,2.1,0,3.2,0C35.8,28.5,36.8,28.5,37.9,28.5L37.9,28.5z"/>
		<path class="st0" d="M41.1,34.8c-1.1,0-2.1,0-3.2,0l0,0c0-1.1,0-2.1,0-3.2l0,0c1.1,0,2.1,0,3.2,0C41.1,32.7,41.1,33.7,41.1,34.8z"
			/>
		<path class="st0" d="M41.1,25.3c0,1.1,0,2.1,0,3.2c-1.1,0-2.1,0-3.2,0c0,0,0,0,0,0c0-0.1,0-0.2,0-0.3c0-0.9,0-1.9,0-2.8
			c0.1,0,0.1,0,0.2,0C39.1,25.3,40.1,25.3,41.1,25.3L41.1,25.3z"/>
		<path class="st0" d="M12.5,31.6c0-1.1,0-2.1,0-3.2c0,0,0,0,0,0c1.1,0,2.1,0,3.2,0c1.1,0,2.1,0,3.2,0c0,1.1,0,2.1,0,3.2
			c-1.1,0-2.1,0-3.2,0C14.6,31.6,13.6,31.6,12.5,31.6L12.5,31.6z"/>
		<path class="st0" d="M9.4,28.5c0-1.1,0-2.1,0-3.2c0,0,0,0,0,0c0.8,0,1.6,0,2.5,0c0.2,0,0.5,0,0.7,0c0,0.1,0,0.1,0,0.2c0,1,0,2,0,3
			c0,0,0,0,0,0C11.5,28.5,10.4,28.5,9.4,28.5z"/>
		<path class="st0" d="M12.5,34.8c-1.1,0-2.1,0-3.2,0c0-1.1,0-2.1,0-3.2c1.1,0,2.1,0,3.2,0l0,0C12.5,32.7,12.5,33.7,12.5,34.8
			L12.5,34.8z"/>
		<path class="st1" d="M22,9.4c2.1,0,4.2,0,6.4,0l0,0c0,1.1,0,2.1,0,3.2c-2.1,0-4.2,0-6.4,0C22,11.6,22,10.5,22,9.4L22,9.4z"/>
		<path class="st1" d="M34.7,9.4c0,1.1,0,2.1,0,3.2l0,0c-1.1,0-2.1,0-3.2,0c0-1.1,0-2.1,0-3.2l0,0C32.6,9.4,33.7,9.4,34.7,9.4z"/>
		<path class="st1" d="M15.7,12.6c0-1.1,0-2.1,0-3.2c1.1,0,2.1,0,3.2,0l0,0c0,1.1,0,2.1,0,3.2C17.8,12.6,16.8,12.6,15.7,12.6
			L15.7,12.6z"/>
		<path class="st2" d="M18.9,12.6c0-1.1,0-2.1,0-3.2c1.1,0,2.1,0,3.2,0c0,1.1,0,2.1,0,3.2l0,0C21,12.6,19.9,12.6,18.9,12.6
			L18.9,12.6z"/>
		<path class="st2" d="M31.6,9.4c0,1.1,0,2.1,0,3.2c0,0,0,0,0,0c-1.1,0-2.1,0-3.2,0l0,0c0-1.1,0-2.1,0-3.2
			C29.4,9.4,30.5,9.4,31.6,9.4z"/>
		<path class="st0" d="M41.1,18.9c0,1.1,0,2.1,0,3.2c0,0,0,0,0,0c-0.9,0-1.7,0-2.6,0c-0.2,0-0.4,0-0.6,0c0-0.1,0-0.1,0-0.2
			c0-1,0-2,0-3C38.9,18.9,40,18.9,41.1,18.9L41.1,18.9z"/>
		<path class="st0" d="M37.9,12.6c1.1,0,2.1,0,3.2,0c0,1.1,0,2.1,0,3.2l0,0c-1.1,0-2.1,0-3.2,0C37.9,14.7,37.9,13.7,37.9,12.6
			L37.9,12.6z"/>
		<path class="st1" d="M37.9,15.8c1.1,0,2.1,0,3.2,0c0,1.1,0,2.1,0,3.2c-1.1,0-2.1,0-3.2,0l0,0C37.9,17.9,37.9,16.8,37.9,15.8
			L37.9,15.8z"/>
		<path class="st2" d="M37.9,22.1c0.2,0,0.4,0,0.6,0c0.9,0,1.7,0,2.6,0c0,1.1,0,2.1,0,3.2c-1,0-2,0-3,0c-0.1,0-0.1,0-0.2,0
			c0,0,0,0,0,0c0-0.1,0-0.2,0-0.3C37.9,24,37.9,23.1,37.9,22.1L37.9,22.1z"/>
		<path class="st0" d="M9.4,22.1c0-1.1,0-2.1,0-3.2l0,0c1.1,0,2.1,0,3.2,0c0,0.1,0,0.2,0,0.3c0,1,0,1.9,0,2.9c-0.1,0-0.1,0-0.2,0
			C11.3,22.1,10.4,22.1,9.4,22.1L9.4,22.1z"/>
		<path class="st1" d="M12.5,18.9c-1.1,0-2.1,0-3.2,0c0-1.1,0-2.1,0-3.2l0,0c1.1,0,2.1,0,3.2,0l0,0C12.5,16.8,12.5,17.9,12.5,18.9
			L12.5,18.9z"/>
		<path class="st2" d="M9.4,22.1c1,0,2,0,3,0c0.1,0,0.1,0,0.2,0l0,0c0,0.2,0,0.5,0,0.7c0,0.8,0,1.6,0,2.4l0,0c-0.2,0-0.5,0-0.7,0
			c-0.8,0-1.6,0-2.5,0C9.4,24.2,9.4,23.2,9.4,22.1z"/>
		<path class="st0" d="M12.5,15.8c-1.1,0-2.1,0-3.2,0c0-1.1,0-2.1,0-3.2c1.1,0,2.1,0,3.2,0l0,0C12.5,13.7,12.5,14.7,12.5,15.8z"/>
		<path class="st3" d="M28.4,41.1c-2.1,0-4.2,0-6.4,0l0,0c0-1.1,0-2.1,0-3.2c0.1,0,0.1,0,0.2,0c2,0,4,0,6,0c0.1,0,0.1,0,0.2,0
			C28.4,39,28.4,40.1,28.4,41.1L28.4,41.1z"/>
		<path class="st2" d="M34.7,38c0,1.1,0,2.1,0,3.2c-1.1,0-2.1,0-3.2,0l0,0c0-1.1,0-2.1,0-3.2C32.6,38,33.7,38,34.7,38L34.7,38z"/>
		<path d="M31.5,38c0,1.1,0,2.1,0,3.2c-1.1,0-2.1,0-3.2,0c0-1.1,0-2.1,0-3.2l0,0c0.1,0,0.1,0,0.2,0C29.5,38,30.5,38,31.5,38L31.5,38
			z"/>
		<path d="M22,38c0,1.1,0,2.1,0,3.2c-1.1,0-2.1,0-3.2,0l0,0c0-1.1,0-2.1,0-3.2C19.9,38,21,38,22,38L22,38z"/>
		<path class="st2" d="M18.9,38c0,1.1,0,2.1,0,3.2c-1.1,0-2.1,0-3.2,0c0-1.1,0-2.1,0-3.2c0,0,0,0,0,0C16.8,38,17.8,38,18.9,38
			L18.9,38z"/>
		<path class="st0" d="M37.9,34.8c0,1.1,0,2.1,0,3.2c-1.1,0-2.1,0-3.2,0c0,0,0,0,0,0c0-1.1,0-2.1,0-3.2l0,0
			C35.8,34.8,36.8,34.8,37.9,34.8L37.9,34.8z"/>
		<path class="st0" d="M12.5,38c0-1.1,0-2.1,0-3.2l0,0c1.1,0,2.1,0,3.2,0l0,0c0,1.1,0,2.1,0,3.2c0,0,0,0,0,0
			C14.6,38,13.6,38,12.5,38z"/>
		<path class="st1" d="M37.9,12.6c0,1.1,0,2.1,0,3.2l0,0c-1.1,0-2.1,0-3.2,0c0-1.1,0-2.1,0-3.2l0,0C35.8,12.6,36.8,12.6,37.9,12.6z"
			/>
		<path class="st1" d="M12.5,15.8c0-1.1,0-2.1,0-3.2c1.1,0,2.1,0,3.2,0l0,0c0,1.1,0,2.1,0,3.2C14.6,15.8,13.6,15.8,12.5,15.8
			L12.5,15.8z"/>
		<path class="st2" d="M34.7,28.5c-1.1,0-2.1,0-3.2,0l0,0c0-0.7,0-1.4,0-2c0-0.4,0-0.8,0-1.1c1.1,0,2.1,0,3.2,0
			C34.7,26.3,34.7,27.4,34.7,28.5z"/>
		<path class="st1" d="M34.7,28.5c0-1.1,0-2.1,0-3.2c0,0,0.1,0,0.1,0c1,0,2,0,3,0c0,0,0,0,0,0c0,0.9,0,1.9,0,2.8c0,0.1,0,0.2,0,0.3
			C36.8,28.5,35.8,28.5,34.7,28.5z"/>
		<path class="st2" d="M31.5,28.5c0,1.1,0,2.1,0,3.2l0,0c-1.1,0-2.1,0-3.2,0c0-1.1,0-2.1,0-3.2C29.4,28.5,30.5,28.5,31.5,28.5
			L31.5,28.5z"/>
		<path class="st1" d="M31.6,31.6c1.1,0,2.1,0,3.2,0c0,1.1,0,2.1,0,3.2l0,0c-1.1,0-2.1,0-3.2,0l0,0c0-0.1,0-0.1,0-0.2
			C31.5,33.6,31.6,32.6,31.6,31.6L31.6,31.6z"/>
		<path d="M34.7,34.8c0-1.1,0-2.1,0-3.2c1.1,0,2.1,0,3.2,0c0,1.1,0,2.1,0,3.2C36.8,34.8,35.8,34.8,34.7,34.8z"/>
		<path class="st1" d="M15.7,31.6c1.1,0,2.1,0,3.2,0c0,0,0,0,0,0c0,0.1,0,0.3,0,0.4c0,0.9,0,1.9,0,2.8l0,0c-1.1,0-2.1,0-3.2,0l0,0
			C15.7,33.7,15.7,32.7,15.7,31.6z"/>
		<path class="st1" d="M12.5,28.5c0-1,0-2,0-3c0-0.1,0-0.1,0-0.2c0,0,0,0,0,0c0.2,0,0.4,0,0.6,0c0.9,0,1.7,0,2.6,0
			c0,1.1,0,2.1,0,3.2C14.6,28.5,13.6,28.5,12.5,28.5z"/>
		<path class="st2" d="M15.7,28.5c0-1.1,0-2.1,0-3.2c1.1,0,2.1,0,3.2,0c0,0,0,0.1,0,0.1c0,1,0,2,0,3l0,0
			C17.8,28.5,16.8,28.5,15.7,28.5z"/>
		<path class="st2" d="M18.9,31.6c0-1.1,0-2.1,0-3.2c0,0,0,0,0,0c1.1,0,2.1,0,3.2,0c0,1.1,0,2.1,0,3.2C21,31.6,19.9,31.6,18.9,31.6
			L18.9,31.6z"/>
		<path d="M15.7,31.6c0,1.1,0,2.1,0,3.2c-1.1,0-2.1,0-3.2,0c0-1.1,0-2.1,0-3.2C13.6,31.6,14.6,31.6,15.7,31.6z"/>
		<path class="st2" d="M22,12.6c2.1,0,4.2,0,6.4,0l0,0c0,1.1,0,2.1,0,3.2c-2.1,0-4.2,0-6.4,0C22,14.7,22,13.7,22,12.6L22,12.6z"/>
		<path class="st0" d="M34.7,12.6c0,1.1,0,2.1,0,3.2l0,0c-1.1,0-2.1,0-3.2,0c0-1.1,0-2.1,0-3.2c0,0,0,0,0,0
			C32.6,12.6,33.7,12.6,34.7,12.6z"/>
		<path class="st0" d="M15.7,15.8c0-1.1,0-2.1,0-3.2c1.1,0,2.1,0,3.2,0l0,0c0,1.1,0,2.1,0,3.2C17.8,15.8,16.8,15.8,15.7,15.8
			L15.7,15.8z"/>
		<path class="st1" d="M18.9,15.8c0-1.1,0-2.1,0-3.2c1.1,0,2.1,0,3.2,0c0,1.1,0,2.1,0,3.2l0,0C21,15.8,19.9,15.8,18.9,15.8
			L18.9,15.8z"/>
		<path class="st1" d="M31.6,12.6c0,1.1,0,2.1,0,3.2l0,0c-1.1,0-2.1,0-3.2,0l0,0c0-1.1,0-2.1,0-3.2C29.4,12.6,30.5,12.6,31.6,12.6z"
			/>
		<path class="st1" d="M37.9,18.9c0,1,0,2,0,3c0,0.1,0,0.1,0,0.2c0,0,0,0,0,0c-0.2,0-0.4,0-0.6,0c-0.9,0-1.7,0-2.6,0
			c0-1.1,0-2.1,0-3.2l0,0C35.8,18.9,36.8,18.9,37.9,18.9L37.9,18.9z"/>
		<path class="st0" d="M37.9,18.9c-1.1,0-2.1,0-3.2,0c0-1.1,0-2.1,0-3.2l0,0c1.1,0,2.1,0,3.2,0C37.9,16.8,37.9,17.9,37.9,18.9z"/>
		<path class="st4" d="M34.7,22.1c0.9,0,1.7,0,2.6,0c0.2,0,0.4,0,0.6,0c0,0.9,0,1.9,0,2.8c0,0.1,0,0.2,0,0.3c-1,0-2,0-3,0
			c0,0-0.1,0-0.1,0c-1.1,0-2.1,0-3.2,0c0,0,0,0,0,0c0-0.2,0-0.4,0-0.6c0-0.9,0-1.7,0-2.6c0.2,0,0.4,0,0.6,0
			C33,22.1,33.8,22.1,34.7,22.1z"/>
		<path class="st1" d="M12.5,22.1c0-1,0-1.9,0-2.9c0-0.1,0-0.2,0-0.3l0,0c1.1,0,2.1,0,3.2,0l0,0c0,1.1,0,2.1,0,3.2c0,0-0.1,0-0.1,0
			C14.5,22.1,13.5,22.1,12.5,22.1L12.5,22.1z"/>
		<path class="st0" d="M15.7,18.9c-1.1,0-2.1,0-3.2,0c0-1.1,0-2.1,0-3.2c1.1,0,2.1,0,3.2,0c0,0,0,0,0,0
			C15.7,16.8,15.7,17.9,15.7,18.9z"/>
		<path class="st4" d="M12.5,22.1c1,0,2,0,3,0c0,0,0.1,0,0.1,0c0,0,0.1,0,0.1,0c1,0,2,0,3,0c0,0,0,0.1,0,0.1c0,1,0,2,0,3l0,0
			c-1.1,0-2.1,0-3.2,0c-0.9,0-1.7,0-2.6,0c-0.2,0-0.4,0-0.6,0c0-0.8,0-1.6,0-2.4C12.5,22.6,12.5,22.4,12.5,22.1z"/>
		<path class="st0" d="M28.4,38c-0.1,0-0.1,0-0.2,0c-2,0-4,0-6,0c-0.1,0-0.1,0-0.2,0l0,0c0-1.1,0-2.1,0-3.2l0,0c2.1,0,4.2,0,6.4,0
			l0,0C28.4,35.8,28.4,36.9,28.4,38L28.4,38z"/>
		<path d="M31.6,34.8c1.1,0,2.1,0,3.2,0c0,1.1,0,2.1,0,3.2c-1.1,0-2.1,0-3.2,0l0,0c0-0.2,0-0.4,0-0.6C31.6,36.5,31.6,35.6,31.6,34.8
			z"/>
		<path class="st2" d="M31.6,34.8c0,0.8,0,1.7,0,2.5c0,0.2,0,0.4,0,0.6c-1,0-2,0-3,0c-0.1,0-0.1,0-0.2,0c0-1.1,0-2.1,0-3.2
			c1,0,1.9,0,2.9,0C31.4,34.8,31.5,34.8,31.6,34.8L31.6,34.8z"/>
		<path class="st2" d="M22,34.8c0,1.1,0,2.1,0,3.2c-1.1,0-2.1,0-3.2,0l0,0c0-0.2,0-0.4,0-0.7c0-0.8,0-1.7,0-2.5c0,0,0,0,0,0
			c0,0,0.1,0,0.1,0C20,34.8,21,34.8,22,34.8z"/>
		<path d="M18.9,34.8c0,0.8,0,1.7,0,2.5c0,0.2,0,0.4,0,0.7c-1.1,0-2.1,0-3.2,0c0-1.1,0-2.1,0-3.2C16.7,34.8,17.8,34.8,18.9,34.8z"/>
		<path class="st0" d="M31.5,28.5c-1.1,0-2.1,0-3.2,0l0,0c0-1.1,0-2.1,0-3.2c1.1,0,2.1,0,3.2,0c0,0,0,0,0,0c0,0.4,0,0.8,0,1.1
			C31.5,27.1,31.5,27.8,31.5,28.5z"/>
		<path d="M22,31.6c0-1.1,0-2.1,0-3.2c0,0,0,0,0,0c0.3,0,0.7,0,1,0c1.8,0,3.6,0,5.3,0l0,0c0,1.1,0,2.1,0,3.2c0,0,0,0,0,0
			c-0.5,0-1,0-1.5,0C25.2,31.6,23.6,31.6,22,31.6L22,31.6z"/>
		<path class="st0" d="M31.5,34.8c-0.1,0-0.2,0-0.3,0c-1,0-1.9,0-2.9,0l0,0c0-1.1,0-2.1,0-3.2c0,0,0,0,0,0c1.1,0,2.1,0,3.2,0
			c0,1,0,2,0,3C31.5,34.7,31.5,34.7,31.5,34.8z"/>
		<path class="st0" d="M22,34.8c-1,0-2,0-3,0c0,0-0.1,0-0.1,0c0-0.9,0-1.9,0-2.8c0-0.1,0-0.3,0-0.4c1.1,0,2.1,0,3.2,0c0,0,0,0,0,0
			C22,32.7,22,33.7,22,34.8L22,34.8z"/>
		<path class="st0" d="M22,28.5c-1.1,0-2.1,0-3.2,0c0-1,0-2,0-3c0,0,0-0.1,0-0.1c0,0,0,0,0,0c1.1,0,2.1,0,3.2,0
			C22,26.3,22,27.4,22,28.5L22,28.5z"/>
		<path class="st1" d="M22,15.8c2.1,0,4.2,0,6.4,0l0,0c0,1.1,0,2.1,0,3.2l0,0c-2.1,0-4.2,0-6.4,0l0,0C22,17.9,22,16.8,22,15.8
			L22,15.8z"/>
		<path class="st1" d="M34.7,15.8c0,1.1,0,2.1,0,3.2l0,0c-1.1,0-2.1,0-3.2,0c0-1.1,0-2.1,0-3.2l0,0C32.6,15.8,33.7,15.8,34.7,15.8z"
			/>
		<path class="st1" d="M15.7,18.9c0-1.1,0-2.1,0-3.2c1.1,0,2.1,0,3.2,0l0,0c0,1.1,0,2.1,0,3.2C17.8,18.9,16.8,18.9,15.7,18.9
			L15.7,18.9z"/>
		<path class="st0" d="M18.9,18.9c0-1.1,0-2.1,0-3.2c1.1,0,2.1,0,3.2,0c0,1.1,0,2.1,0,3.2C21,18.9,19.9,18.9,18.9,18.9L18.9,18.9z"
			/>
		<path class="st0" d="M31.6,15.8c0,1.1,0,2.1,0,3.2l0,0c-1.1,0-2.1,0-3.2,0c0-1.1,0-2.1,0-3.2C29.4,15.8,30.5,15.8,31.6,15.8z"/>
		<path class="st2" d="M31.5,18.9c1.1,0,2.1,0,3.2,0c0,1.1,0,2.1,0,3.2c-0.9,0-1.7,0-2.6,0c-0.2,0-0.4,0-0.6,0
			C31.6,21.1,31.6,20,31.5,18.9L31.5,18.9z"/>
		<path class="st1" d="M31.6,18.9c0,1.1,0,2.1,0,3.2c0,0.9,0,1.7,0,2.6c0,0.2,0,0.4,0,0.6c-1.1,0-2.1,0-3.2,0c0-2.1,0-4.2,0-6.4l0,0
			C29.4,18.9,30.5,18.9,31.6,18.9z"/>
		<path class="st2" d="M15.7,18.9c1.1,0,2.1,0,3.2,0c0,0,0,0,0,0c0,0.2,0,0.4,0,0.6c0,0.9,0,1.7,0,2.6c-1,0-2,0-3,0c0,0-0.1,0-0.1,0
			C15.7,21.1,15.7,20,15.7,18.9z"/>
		<path class="st1" d="M18.9,22.1c0-0.9,0-1.7,0-2.6c0-0.2,0-0.4,0-0.6c1.1,0,2.1,0,3.2,0l0,0c0,0.9,0,1.7,0,2.6c0,1.2,0,2.5,0,3.7
			c-1.1,0-2.1,0-3.2,0c0-1,0-2,0-3C18.9,22.2,18.9,22.2,18.9,22.1z"/>
		<path class="st2" d="M22,34.8c0-1.1,0-2.1,0-3.2c1.6,0,3.2,0,4.8,0c0.5,0,1,0,1.5,0c0,1.1,0,2.1,0,3.2
			C26.3,34.8,24.1,34.8,22,34.8z"/>
		<path class="st2" d="M22,25.3c0-1.2,0-2.5,0-3.7c0-0.9,0-1.7,0-2.6c2.1,0,4.2,0,6.4,0c0,2.1,0,4.2,0,6.4c0,1.1,0,2.1,0,3.2
			c-1.8,0-3.6,0-5.3,0c-0.3,0-0.7,0-1,0C22,27.4,22,26.3,22,25.3z"/>
	</g>
	<g>
		<polygon class="st4" points="9.4,6.4 12.7,6.4 12.7,3 9.4,3 9.4,6.1 6.2,6.1 6.2,9.4 9.4,9.4 		"/>
		<polygon class="st4" points="0,12.4 0,12.4 0,38.2 0,38.2 0,41.2 6.2,41.2 6.2,38 3.1,38 3.1,12.5 6.2,12.5 6.2,9.3 0,9.3 		"/>
		<polygon class="st4" points="50.5,12.5 50.5,9.3 44.4,9.3 44.4,6.1 41.3,6.1 41.3,3 38,3 38,6.4 41.2,6.4 41.2,9.4 44.3,9.4 
			44.3,12.5 47.4,12.5 47.4,38 44.3,38 44.3,41.1 40.9,41.1 40.9,44.4 34.8,44.4 34.8,47.3 15.7,47.3 15.7,44.4 9.4,44.4 9.4,41.1 
			6.2,41.1 6.2,44.4 9.4,44.4 9.4,47.4 12.4,47.4 12.4,50.4 38.2,50.4 38.2,47.4 41.2,47.4 41.2,44.4 44.6,44.4 44.6,41.2 
			50.5,41.2 50.5,38 50.5,38 50.5,12.5 		"/>
		<rect x="12.4" y="-0.1" class="st4" width="25.8" height="3.1"/>
	</g>
</g>
</svg>
