<?xml version="1.0" encoding="utf-8"?>
<!-- Generator: Adobe Illustrator 25.4.0, SVG Export Plug-In . SVG Version: 6.00 Build 0)  -->
<svg version="1.1" id="Layer_1" xmlns="http://www.w3.org/2000/svg" xmlns:xlink="http://www.w3.org/1999/xlink" x="0px" y="0px"
	 viewBox="0 0 57.2 57" style="enable-background:new 0 0 57.2 57;" xml:space="preserve">
<style type="text/css">
	.st0{fill:#FED30B;}
	.st1{fill:#3854FE;}
	.st2{fill:#FE9431;}
	.st3{fill:#BAC3FE;}
</style>
<g>
	<g>
		<path d="M17.8,53.4c-1.2,0-2.4,0-3.6,0c0-0.2,0-0.3,0-0.5c0-1,0-1.9,0-2.9c0-0.1,0-0.1,0-0.2c0-1.1,0-2.3,0-3.4c1.1,0,2.1,0,3.2,0
			c0.1,0,0.3,0,0.4,0c0.1-0.1,0-0.3,0-0.4c0-1.1,0-2.1,0-3.2c1.2,0,2.4,0,3.6,0c0,1,0,2.1,0,3.1c0,0.1,0,0.3,0,0.4
			c0.1,0.1,0.3,0,0.4,0c1,0,2.1,0,3.1,0c0,0,0.1,0,0.1,0c2.3,0,4.6,0,6.9,0c0,0,0.1,0,0.1,0c0,0,0.1,0,0.1,0c1.1,0,2.2,0,3.3,0
			c0.1,0,0.2,0,0.2-0.2c0-1.1,0-2.3,0-3.4c1.2,0,2.4,0,3.6,0c0,0.1,0,0.1,0,0.2c0,1.1,0,2.2,0,3.3c0,0.1,0,0.1,0.1,0.1
			c1.1,0,2.3,0,3.4,0c0,0.3,0,0.6,0,0.9c0,0.9,0,1.8,0,2.7c0,0.1,0,0.1,0,0.2c0,1.1,0,2.2,0,3.2c-1.2,0-2.4,0-3.6,0
			c0-1.1,0-2.2,0-3.3c0-0.1,0-0.1-0.1-0.1c-1.1,0-2.2,0-3.3,0c-0.1,0-0.1,0-0.1,0.1c0,1.1,0,2.2,0,3.3c-1.2,0-2.4,0-3.6,0
			c0-1.1,0-2.2,0-3.3c0-0.1,0-0.1-0.1-0.1c-2.3,0-4.6,0-6.8,0c-0.1,0-0.1,0-0.1,0.1c0,1.1,0,2.2,0,3.3c-1.2,0-2.4,0-3.6,0
			c0-1.1,0-2.2,0-3.3c0-0.1,0-0.1-0.1-0.1c-1.1,0-2.2,0-3.3,0c-0.1,0-0.1,0-0.1,0.1C17.8,51.3,17.8,52.4,17.8,53.4z"/>
		<path d="M39.3,3.8c1.2,0,2.4,0,3.6,0c0,0.2,0,0.4,0,0.6c0,0.9,0,1.9,0,2.8c0,0.1,0,0.1,0,0.2c0,2.3,0,4.5,0,6.8c0,0.1,0,0.1,0,0.2
			c-0.4,0-0.7,0-1.1,0c-0.8,0-1.6,0-2.4,0c0-1.2,0-2.3,0-3.5c0-0.1,0-0.1-0.1-0.1c-0.1,0-0.3,0-0.4,0c-1,0-2,0-3.1,0
			c-0.1,0-0.1,0-0.2,0c-1.1,0-2.3,0-3.4,0c0-1.1,0-2.3,0-3.4c0-0.1,0-0.2-0.2-0.2c-2.3,0-4.5,0-6.8,0c-0.1,0-0.2,0-0.2,0.2
			c0,1.1,0,2.3,0,3.4c-0.3,0-0.6,0-0.9,0c-0.9,0-1.8,0-2.7,0c-1.2,0-2.3,0-3.5,0c-0.1,0-0.1,0-0.1,0.1c0,0.2,0,0.4,0,0.6
			c0,0.9,0,1.9,0,2.8c0,0-0.1,0-0.1,0c-1.1,0-2.3,0-3.4,0c0-0.1,0-0.1,0-0.2c0-2.3,0-4.5,0-6.8c0-0.1,0-0.1,0-0.2c0-0.1,0-0.1,0-0.2
			c0-1.1,0-2.2,0-3.3c1.2,0,2.4,0,3.6,0c0,1.1,0,2.2,0,3.3c0,0.1,0,0.1,0.1,0.1c1.1,0,2.2,0,3.3,0c0.1,0,0.1,0,0.1-0.1
			c0-1.1,0-2.2,0-3.3c4.8,0,9.5,0,14.3,0c0,1.1,0,2.2,0,3.3c0,0.1,0,0.1,0.1,0.1c1.1,0,2.2,0,3.3,0c0.1,0,0.1,0,0.1-0.1
			C39.3,6,39.3,4.9,39.3,3.8z"/>
		<path d="M3.8,35.8c0-1.2,0-2.4,0-3.6c0.2,0,0.3,0,0.5,0c1,0,1.9,0,2.9,0c0.3,0,0.7,0,1,0c0.9,0,1.7,0,2.6,0c0.1,0,0.1,0,0.2,0
			c1.1,0,2.3,0,3.4,0c0,1.2,0,2.4,0,3.6c-1,0-2.1,0-3.1,0c-0.1,0-0.3-0.1-0.4,0c-0.1,0.1,0,0.3,0,0.4c0,1,0,2.1,0,3.1
			c0,0,0,0.1,0,0.1c0,3.5,0,7,0,10.5c0,0,0,0.1,0,0.1c0,0.1,0,0.1,0,0.2c0,1.1,0,2.2,0,3.2c-1.2,0-2.4,0-3.6,0c0-5.8,0-11.7,0-17.5
			c0-0.1,0-0.2-0.2-0.2C5.9,35.8,4.8,35.8,3.8,35.8z"/>
		<path d="M53.5,32.2c0,1.2,0,2.4,0,3.6c-1.1,0-2.2,0-3.3,0c-0.1,0-0.2,0-0.2,0.2c0,5.8,0,11.7,0,17.5c-1.2,0-2.4,0-3.6,0
			c0-0.2,0-0.3,0-0.5c0-1,0-1.9,0-2.9c0,0,0-0.1,0-0.1c0-3.5,0-7,0-10.5c0,0,0-0.1,0-0.1c0-1.2,0-2.3,0-3.5c0-0.1-0.1-0.1-0.1-0.1
			c-1.2,0-2.3,0-3.5,0c0-1.2,0-2.4,0-3.6c0.3,0,0.6,0,0.9,0c0.9,0,1.8,0,2.7,0c0.2,0,0.5,0,0.7,0c1,0,1.9,0,2.9,0c0.1,0,0.1,0,0.2,0
			C51.2,32.2,52.3,32.2,53.5,32.2z"/>
		<path d="M7.1,3.8c1.2,0,2.4,0,3.6,0c0,0.2,0,0.4,0,0.6c0,0.9,0,1.9,0,2.8c0,0.1,0,0.1,0,0.2c0,3.4,0,6.9,0,10.3c0,0.1,0,0.1,0,0.2
			c-1.2,0-2.4,0-3.6,0l0,0C7.1,13.2,7.1,8.5,7.1,3.8z"/>
		<path d="M46.4,3.8c1.2,0,2.4,0,3.6,0c0,4.7,0,9.4,0,14.1l0,0c-1.2,0-2.4,0-3.6,0c0-0.1,0-0.1,0-0.2c0-3.4,0-6.9,0-10.3
			c0-0.1,0-0.1,0-0.2c0-0.1,0-0.1,0-0.2C46.4,6,46.4,4.9,46.4,3.8z"/>
		<path class="st0" d="M25,53.4c0-1.1,0-2.2,0-3.3c0-0.1,0-0.1,0.1-0.1c2.3,0,4.6,0,6.8,0c0.1,0,0.1,0,0.1,0.1c0,1.1,0,2.2,0,3.3
			C29.7,53.4,27.3,53.4,25,53.4z"/>
		<path d="M49.9,17.9c1.2,0,2.3,0,3.5,0c0,1.2,0,2.4,0,3.6c-1.2,0-2.3,0-3.5,0C49.9,20.3,49.9,19.1,49.9,17.9L49.9,17.9z"/>
		<path class="st1" d="M49.9,21.5c1.2,0,2.3,0,3.5,0c0,1.2,0,2.4,0,3.6c-1.2,0-2.3,0-3.5,0C49.9,23.9,49.9,22.7,49.9,21.5L49.9,21.5
			z"/>
		<path class="st2" d="M53.5,32.2c-1.1,0-2.2,0-3.4,0c-0.1,0-0.1,0-0.2,0c0-1.2,0-2.4,0-3.6c1.2,0,2.3,0,3.5,0
			C53.5,29.8,53.5,31,53.5,32.2z"/>
		<path d="M53.5,28.6c-1.2,0-2.3,0-3.5,0c0,0,0,0,0,0c0-1.2,0-2.4,0-3.6l0,0c1.2,0,2.3,0,3.5,0C53.5,26.3,53.5,27.4,53.5,28.6z"/>
		<path class="st3" d="M46.4,3.8c0,1.1,0,2.2,0,3.3c0,0.1,0,0.1,0,0.2c-1.2,0-2.4,0-3.6,0c0-0.9,0-1.9,0-2.8c0-0.2,0-0.4,0-0.6
			C44,3.8,45.2,3.8,46.4,3.8z"/>
		<path class="st3" d="M10.7,7.2c0-0.9,0-1.9,0-2.8c0-0.2,0-0.4,0-0.6c1.2,0,2.4,0,3.6,0c0,1.1,0,2.2,0,3.3c0,0.1,0,0.1,0,0.2
			C13.1,7.2,11.9,7.2,10.7,7.2z"/>
		<path class="st0" d="M35.7,53.4c0-1.1,0-2.2,0-3.3c0-0.1,0-0.1,0.1-0.1c1.1,0,2.2,0,3.3,0c0.1,0,0.1,0,0.1,0.1c0,1.1,0,2.2,0,3.3
			C38.1,53.4,36.9,53.4,35.7,53.4z"/>
		<path class="st3" d="M10.7,53.4c0-1.1,0-2.2,0-3.2c0-0.1,0-0.1,0-0.2c1.2,0,2.4,0,3.6,0c0,1,0,1.9,0,2.9c0,0.2,0,0.3,0,0.5
			C13.1,53.4,11.9,53.4,10.7,53.4z"/>
		<path class="st0" d="M17.8,53.4c0-1.1,0-2.2,0-3.3c0-0.1,0-0.1,0.1-0.1c1.1,0,2.2,0,3.3,0c0.1,0,0.1,0,0.1,0.1c0,1.1,0,2.2,0,3.3
			C20.2,53.4,19,53.4,17.8,53.4z"/>
		<path class="st3" d="M46.4,50.1c0,1,0,1.9,0,2.9c0,0.2,0,0.3,0,0.5c-1.2,0-2.4,0-3.6,0c0-1.1,0-2.2,0-3.2c0-0.1,0-0.1,0-0.2
			C44,50.1,45.2,50.1,46.4,50.1z"/>
		<path d="M3.8,17.9c1.1,0,2.2,0,3.4,0l0,0c0,1.2,0,2.4,0,3.6c-1.1,0-2.2,0-3.4,0C3.8,20.3,3.8,19.1,3.8,17.9z"/>
		<path class="st1" d="M3.8,21.5c1.1,0,2.2,0,3.4,0l0,0c0,1.2,0,2.4,0,3.6c-1.1,0-2.2,0-3.4,0C3.8,23.9,3.8,22.7,3.8,21.5z"/>
		<path d="M3.8,25.1c1.1,0,2.2,0,3.4,0l0,0c0,1.2,0,2.4,0,3.6l0,0c-1.1,0-2.2,0-3.4,0C3.8,27.4,3.8,26.3,3.8,25.1z"/>
		<path class="st2" d="M3.8,28.6c1.1,0,2.2,0,3.4,0c0,1.2,0,2.4,0,3.6c-1,0-1.9,0-2.9,0c-0.2,0-0.3,0-0.5,0
			C3.8,31,3.8,29.8,3.8,28.6z"/>
		<path class="st1" d="M46.4,50.1c-1.2,0-2.4,0-3.6,0c0-0.9,0-1.8,0-2.7c0-0.3,0-0.6,0-0.9c0-0.1,0-0.1,0-0.2c0-2.3,0-4.6,0-6.9
			c1.2,0,2.4,0,3.6,0c0,0,0,0.1,0,0.1c0,3.5,0,7,0,10.5C46.4,50,46.4,50,46.4,50.1z"/>
		<path class="st1" d="M14.3,50.1c-1.2,0-2.4,0-3.6,0c0,0,0-0.1,0-0.1c0-3.5,0-7,0-10.5c0,0,0-0.1,0-0.1c1.2,0,2.4,0,3.6,0
			c0,2.3,0,4.6,0,6.9c0,0.1,0,0.1,0,0.2c0,1.1,0,2.3,0,3.4C14.3,49.9,14.3,50,14.3,50.1z"/>
		<path class="st2" d="M39.3,42.9c-1.2,0-2.4,0-3.6,0c0,0,0,0,0,0c0-1.2,0-2.4,0-3.6c0-1.2,0-2.4,0-3.6c0.4,0,0.8,0,1.2,0
			c0.8,0,1.6,0,2.4,0l0,0c0,0.3,0,0.6,0,0.9c0,0.9,0,1.8,0,2.7c0,0.2,0,0.4,0,0.5C39.3,40.9,39.3,41.9,39.3,42.9z"/>
		<path class="st0" d="M32.1,46.5C32.1,46.5,32,46.5,32.1,46.5c-2.4,0-4.7,0-7,0c0,0-0.1,0-0.1,0c0-1.2,0-2.4,0-3.6
			c2.4,0,4.8,0,7.1,0l0,0C32.1,44.1,32.1,45.3,32.1,46.5z"/>
		<path class="st3" d="M39.3,42.9c0-1,0-2,0-3c0-0.2,0-0.4,0-0.5c1.2,0,2.4,0,3.6,0l0,0c0,2.3,0,4.6,0,6.9c0,0.1,0,0.1,0,0.2
			c-1.1,0-2.3,0-3.4,0c-0.1,0-0.1,0-0.1-0.1c0-1.1,0-2.2,0-3.3C39.3,43,39.3,42.9,39.3,42.9z"/>
		<path class="st3" d="M14.3,46.5c0-0.1,0-0.1,0-0.2c0-2.3,0-4.6,0-6.9l0,0c1.2,0,2.4,0,3.6,0c0,0.2,0,0.4,0,0.6c0,1,0,2,0,2.9
			c0,1.1,0,2.1,0,3.2c0,0.1,0.1,0.3,0,0.4c-0.1,0.1-0.2,0-0.4,0C16.4,46.5,15.3,46.5,14.3,46.5z"/>
		<path class="st2" d="M17.8,42.9c0-1,0-2,0-2.9c0-0.2,0-0.4,0-0.6c0-1.2,0-2.4,0-3.6l0,0c0.1,0,0.1,0,0.2,0c1.1,0,2.3,0,3.4,0
			c0,1.2,0,2.4,0,3.6c0,0.4,0,0.8,0,1.1c0,0.8,0,1.6,0,2.4l0,0C20.2,42.9,19,42.9,17.8,42.9z"/>
		<path class="st2" d="M32.1,46.5c0-1.2,0-2.4,0-3.6c0.4,0,0.8,0,1.1,0c0.8,0,1.6,0,2.4,0l0,0c0,1.1,0,2.3,0,3.4
			c0,0.1,0,0.2-0.2,0.2c-1.1,0-2.2,0-3.3,0C32.2,46.5,32.1,46.5,32.1,46.5z"/>
		<path class="st2" d="M25,42.9c0,1.2,0,2.4,0,3.6c-1,0-2.1,0-3.1,0c-0.1,0-0.3,0.1-0.4,0c-0.1-0.1,0-0.3,0-0.4c0-1,0-2.1,0-3.1
			c0,0,0,0,0,0c0.1,0,0.1,0,0.2,0C22.7,42.9,23.8,42.9,25,42.9L25,42.9z"/>
		<path class="st1" d="M10.7,7.2c1.2,0,2.4,0,3.6,0c0,0.1,0,0.1,0,0.2c0,2.3,0,4.5,0,6.8c0,0.1,0,0.1,0,0.2c0,0.2,0,0.5,0,0.7
			c0,1,0,1.9,0,2.9c0,0.1,0,0.1,0,0.2c0,1.1,0,2.3,0,3.4c-1.2,0-2.4,0-3.6,0l0,0c0-1.2,0-2.4,0-3.6c0-0.1,0-0.1,0-0.2
			c0-3.4,0-6.9,0-10.3C10.7,7.3,10.7,7.3,10.7,7.2z"/>
		<path class="st1" d="M42.8,7.2c1.2,0,2.4,0,3.6,0c0,0.1,0,0.1,0,0.2c0,3.4,0,6.9,0,10.3c0,0.1,0,0.1,0,0.2c0,1.2,0,2.4,0,3.6l0,0
			c-1.2,0-2.4,0-3.6,0c0-0.3,0-0.5,0-0.8c0-0.9,0-1.9,0-2.8c0-1.2,0-2.4,0-3.6c0-0.1,0-0.1,0-0.2c0-2.3,0-4.5,0-6.8
			C42.8,7.3,42.8,7.3,42.8,7.2z"/>
		<path class="st2" d="M25,10.8c0-1.1,0-2.3,0-3.4c0-0.1,0-0.2,0.2-0.2c2.3,0,4.5,0,6.8,0c0.1,0,0.2,0,0.2,0.2c0,1.1,0,2.3,0,3.4
			l0,0c0,0-0.1,0-0.1,0c-2.3,0-4.6,0-6.9,0C25.1,10.8,25,10.8,25,10.8L25,10.8z"/>
		<path class="st0" d="M35.7,10.8c1,0,2,0,3.1,0c0.1,0,0.3,0,0.4,0c0.1,0,0.1,0,0.1,0.1c0,1.2,0,2.3,0,3.5l0,0c-1.2,0-2.4,0-3.6,0
			C35.7,13.2,35.7,12,35.7,10.8z"/>
		<path class="st3" d="M42.8,14.4c0,1.2,0,2.4,0,3.6c-0.5,0-0.9,0-1.4,0c-0.7,0-1.5,0-2.2,0c0-1.2,0-2.4,0-3.6c0,0,0,0,0,0
			c0.8,0,1.6,0,2.4,0C42.1,14.4,42.4,14.4,42.8,14.4z"/>
		<path class="st0" d="M17.8,14.3c0-0.9,0-1.9,0-2.8c0-0.2,0-0.4,0-0.6c0-0.1,0-0.1,0.1-0.1c1.2,0,2.3,0,3.5,0c0,1.2,0,2.4,0,3.6
			C20.2,14.4,19,14.4,17.8,14.3L17.8,14.3z"/>
		<path class="st2" d="M21.4,14.4c0-1.2,0-2.4,0-3.6c0.9,0,1.8,0,2.7,0c0.3,0,0.6,0,0.9,0c0,0,0,0,0,0c0,1.2,0,2.4,0,3.6
			C23.8,14.4,22.6,14.4,21.4,14.4L21.4,14.4z"/>
		<path class="st2" d="M35.7,10.8c0,1.2,0,2.4,0,3.6l0,0c-1.2,0-2.4,0-3.6,0c0-0.4,0-0.8,0-1.1c0-0.8,0-1.6,0-2.4l0,0
			c1.1,0,2.3,0,3.4,0C35.6,10.8,35.6,10.8,35.7,10.8z"/>
		<path class="st3" d="M14.3,17.9c0-1,0-1.9,0-2.9c0-0.2,0-0.5,0-0.7c1.1,0,2.3,0,3.4,0c0,0,0.1,0,0.1,0l0,0c0,1.2,0,2.4,0,3.6
			c-0.1,0-0.1,0-0.2,0C16.5,17.9,15.4,17.9,14.3,17.9z"/>
		<path class="st0" d="M7.1,32.2c0-1.2,0-2.4,0-3.6c0,0,0,0,0,0c1.2,0,2.4,0,3.6,0c0,1.2,0,2.4,0,3.6c-0.9,0-1.7,0-2.6,0
			C7.8,32.2,7.4,32.2,7.1,32.2z"/>
		<path class="st2" d="M10.7,32.2c0-1.2,0-2.4,0-3.6c0,0,0,0,0,0c1.2,0,2.4,0,3.6,0c0,0.4,0,0.8,0,1.1c0,0.8,0,1.6,0,2.4l0,0
			c-1.1,0-2.3,0-3.4,0C10.8,32.2,10.8,32.2,10.7,32.2z"/>
		<path class="st2" d="M14.3,35.8c0-1.2,0-2.4,0-3.6c0,0,0,0,0,0c1.2,0,2.4,0,3.6,0c0,0.4,0,0.8,0,1.1c0,0.8,0,1.6,0,2.4l0,0
			C16.7,35.8,15.5,35.8,14.3,35.8L14.3,35.8z"/>
		<path class="st3" d="M14.3,39.3c-1.2,0-2.4,0-3.6,0c0-1,0-2.1,0-3.1c0-0.1,0-0.3,0-0.4c0.1-0.1,0.3,0,0.4,0c1,0,2.1,0,3.1,0l0,0
			C14.3,37,14.3,38.1,14.3,39.3L14.3,39.3z"/>
		<path class="st2" d="M46.4,32.2c-0.9,0-1.8,0-2.7,0c-0.3,0-0.6,0-0.9,0l0,0c0-0.1,0-0.1,0-0.2c0-1.1,0-2.3,0-3.4
			c1.2,0,2.4,0,3.6,0l0,0C46.4,29.8,46.4,31,46.4,32.2z"/>
		<path class="st0" d="M46.4,32.2c0-1.2,0-2.4,0-3.6c1.2,0,2.4,0,3.6,0l0,0c0,1.2,0,2.4,0,3.6c-1,0-1.9,0-2.9,0
			C46.9,32.2,46.6,32.2,46.4,32.2z"/>
		<path class="st2" d="M42.8,32.2c0,1.2,0,2.4,0,3.6c0,0,0,0,0,0c-1.2,0-2.4,0-3.6,0c0,0,0,0,0,0c0-1.2,0-2.4,0-3.6
			c0.4,0,0.7,0,1.1,0C41.2,32.2,42,32.2,42.8,32.2L42.8,32.2z"/>
		<path class="st3" d="M46.4,39.3c-1.2,0-2.4,0-3.6,0l0,0c0-1.2,0-2.4,0-3.6c0,0,0,0,0,0c1.2,0,2.3,0,3.5,0c0.1,0,0.1,0,0.1,0.1
			C46.4,37,46.4,38.2,46.4,39.3z"/>
		<path class="st3" d="M10.7,17.9c0,1.2,0,2.4,0,3.6c-1.2,0-2.4,0-3.6,0l0,0c0-1.2,0-2.4,0-3.6C8.3,17.9,9.5,17.9,10.7,17.9z"/>
		<path class="st3" d="M46.4,21.5c0-1.2,0-2.4,0-3.6c1.2,0,2.4,0,3.6,0c0,1.2,0,2.4,0,3.6l0,0C48.8,21.5,47.6,21.5,46.4,21.5z"/>
		<path d="M46.4,21.5c1.2,0,2.4,0,3.6,0c0,1.2,0,2.4,0,3.6l0,0c-1.2,0-2.4,0-3.6,0c0-0.7,0-1.4,0-2.1C46.4,22.5,46.4,22,46.4,21.5
			C46.4,21.5,46.4,21.5,46.4,21.5z"/>
		<path class="st2" d="M46.4,25.1c1.2,0,2.4,0,3.6,0c0,1.2,0,2.4,0,3.6c-1.2,0-2.4,0-3.6,0c0,0,0,0,0,0c0-0.4,0-0.8,0-1.1
			C46.4,26.7,46.4,25.9,46.4,25.1L46.4,25.1z"/>
		<path d="M7.1,21.5c1.2,0,2.4,0,3.6,0l0,0c0,1.2,0,2.4,0,3.6c-1.2,0-2.4,0-3.6,0l0,0C7.1,23.9,7.1,22.7,7.1,21.5z"/>
		<path class="st2" d="M7.1,25.1c1.2,0,2.4,0,3.6,0l0,0c0,0.1,0,0.1,0,0.2c0,1.1,0,2.3,0,3.4l0,0c-1.2,0-2.4,0-3.6,0
			C7.1,27.4,7.1,26.3,7.1,25.1z"/>
		<path class="st0" d="M39.3,32.2c0,1.2,0,2.4,0,3.6c-0.8,0-1.6,0-2.4,0c-0.4,0-0.8,0-1.2,0c0,0,0,0,0,0c0-1.1,0-2.3,0-3.4
			c0-0.1,0-0.2,0.1-0.2C37,32.2,38.1,32.2,39.3,32.2L39.3,32.2z"/>
		<path class="st0" d="M35.7,42.9c-0.8,0-1.6,0-2.4,0c-0.4,0-0.8,0-1.1,0c0,0,0,0,0,0c0-1.2,0-2.4,0-3.6c1.2,0,2.4,0,3.6,0
			C35.7,40.5,35.7,41.7,35.7,42.9z"/>
		<path d="M35.7,39.3c-1.2,0-2.4,0-3.6,0c0-1.2,0-2.4,0-3.6c1.2,0,2.4,0,3.6,0c0,0,0,0,0,0C35.7,37,35.7,38.1,35.7,39.3z"/>
		<path d="M42.8,35.8c0,1.2,0,2.4,0,3.6c-1.2,0-2.4,0-3.6,0c0-0.9,0-1.8,0-2.7c0-0.3,0-0.6,0-0.9C40.4,35.8,41.6,35.8,42.8,35.8z"/>
		<path class="st2" d="M32.1,35.8c0,1.2,0,2.4,0,3.6c0,1.2,0,2.4,0,3.6c-2.4,0-4.8,0-7.1,0c0,0,0,0,0,0c0-1.2,0-2.4,0-3.6
			c0-1.2,0-2.4,0-3.6l0,0C27.3,35.8,29.7,35.8,32.1,35.8L32.1,35.8z"/>
		<path d="M14.3,39.3c0-1.2,0-2.4,0-3.6c1.2,0,2.4,0,3.6,0c0,1.2,0,2.4,0,3.6C16.7,39.3,15.5,39.3,14.3,39.3z"/>
		<path class="st0" d="M17.8,35.8c0-0.8,0-1.6,0-2.4c0-0.4,0-0.8,0-1.1l0,0c1.1,0,2.3,0,3.4,0c0.1,0,0.2,0,0.2,0.2
			c0,1.1,0,2.3,0,3.4l0,0c-1.1,0-2.3,0-3.4,0C18,35.8,17.9,35.8,17.8,35.8z"/>
		<path class="st0" d="M25,39.3c0,1.2,0,2.4,0,3.6c-1.1,0-2.3,0-3.4,0c-0.1,0-0.1,0-0.2,0c0-0.8,0-1.6,0-2.4c0-0.4,0-0.8,0-1.1
			C22.6,39.3,23.8,39.3,25,39.3z"/>
		<path d="M25,39.3c-1.2,0-2.4,0-3.6,0c0-1.2,0-2.4,0-3.6c0,0,0,0,0,0c1.2,0,2.4,0,3.6,0C25,37,25,38.1,25,39.3z"/>
		<path class="st2" d="M14.3,17.9c1.1,0,2.3,0,3.4,0c0.1,0,0.1,0,0.2,0l0,0c0,1.2,0,2.4,0,3.6c-0.1,0-0.1,0-0.2,0
			c-1.1,0-2.3,0-3.4,0l0,0c0-1.1,0-2.3,0-3.4C14.3,18,14.3,18,14.3,17.9z"/>
		<path class="st2" d="M10.7,25.1c0-1.2,0-2.4,0-3.6c1.2,0,2.4,0,3.6,0l0,0c0,0.3,0,0.6,0,0.9c0,0.9,0,1.8,0,2.7c-0.4,0-0.7,0-1.1,0
			C12.3,25.1,11.5,25.1,10.7,25.1L10.7,25.1z"/>
		<path class="st2" d="M39.3,17.9c0.7,0,1.5,0,2.2,0c0.5,0,0.9,0,1.4,0c0,0.9,0,1.9,0,2.8c0,0.3,0,0.5,0,0.8l0,0c-0.3,0-0.6,0-0.9,0
			c-0.9,0-1.8,0-2.7,0C39.3,20.3,39.3,19.1,39.3,17.9L39.3,17.9z"/>
		<path class="st2" d="M46.4,21.5c0,0.5,0,1,0,1.5c0,0.7,0,1.4,0,2.1c0,0,0,0,0,0c0,0-0.1,0-0.1,0c-1.1,0-2.3,0-3.4,0
			c0-0.1,0-0.1,0-0.2c0-1.1,0-2.3,0-3.4l0,0C44,21.5,45.2,21.5,46.4,21.5z"/>
		<path class="st0" d="M32.1,10.8c0,0.8,0,1.6,0,2.4c0,0.4,0,0.8,0,1.1l0,0c-2.4,0-4.8,0-7.1,0l0,0c0-1.2,0-2.4,0-3.6
			c0,0,0.1,0,0.1,0c2.3,0,4.6,0,6.9,0C32,10.8,32.1,10.8,32.1,10.8z"/>
		<path class="st1" d="M39.3,14.4c0,1.2,0,2.4,0,3.6l0,0c-0.1,0-0.3,0-0.4,0c-1.1,0-2.1,0-3.2,0l0,0c0-1.2,0-2.4,0-3.6l0,0
			C36.9,14.4,38.1,14.4,39.3,14.4z"/>
		<path class="st1" d="M17.8,17.9c0-1.2,0-2.4,0-3.6c1.2,0,2.4,0,3.6,0c0,0,0,0,0,0c0,1.2,0,2.4,0,3.6c0,0,0,0,0,0
			c-0.1,0-0.1,0-0.2,0C20.1,17.9,19,17.9,17.8,17.9L17.8,17.9z"/>
		<path class="st0" d="M21.4,17.9c0-1.2,0-2.4,0-3.6c1.2,0,2.4,0,3.6,0c0,0,0,0,0,0c0,1.1,0,2.3,0,3.4c0,0.1,0,0.1-0.1,0.1
			C23.7,17.9,22.5,17.9,21.4,17.9z"/>
		<path class="st0" d="M35.7,14.4c0,1.2,0,2.4,0,3.6c-1.1,0-2.3,0-3.4,0c-0.1,0-0.1,0-0.1-0.1c0-1.1,0-2.3,0-3.4l0,0
			C33.3,14.4,34.5,14.4,35.7,14.4z"/>
		<path class="st0" d="M10.7,25.1c0.8,0,1.6,0,2.4,0c0.4,0,0.7,0,1.1,0c0,0.1,0,0.1,0,0.2c0,1.1,0,2.3,0,3.4l0,0c-1.2,0-2.4,0-3.6,0
			c0-1.1,0-2.3,0-3.4C10.7,25.2,10.7,25.1,10.7,25.1z"/>
		<path class="st0" d="M17.8,32.2c-1.2,0-2.4,0-3.6,0c0-0.8,0-1.6,0-2.4c0-0.4,0-0.8,0-1.1l0,0c0.1,0,0.2,0,0.4,0c1.1,0,2.1,0,3.2,0
			c0,0,0,0.1,0,0.1C17.8,29.9,17.8,31.1,17.8,32.2L17.8,32.2z"/>
		<path class="st0" d="M42.8,25.1c1.1,0,2.3,0,3.4,0c0,0,0.1,0,0.1,0c0,0.8,0,1.6,0,2.4c0,0.4,0,0.8,0,1.1c-1.2,0-2.4,0-3.6,0l0,0
			c0-0.3,0-0.6,0-0.9C42.8,26.9,42.8,26,42.8,25.1z"/>
		<path class="st0" d="M42.8,32.2c-0.8,0-1.6,0-2.4,0c-0.4,0-0.7,0-1.1,0c0,0,0,0,0,0c0-0.6,0-1.3,0-1.9c0-0.6,0-1.1,0-1.7
			c0.1,0,0.1,0,0.2,0c1.1,0,2.3,0,3.4,0l0,0c0,1.1,0,2.3,0,3.4C42.8,32.1,42.8,32.1,42.8,32.2z"/>
		<path class="st2" d="M39.3,28.6c0,0.6,0,1.1,0,1.7c0,0.6,0,1.3,0,1.9c-1.1,0-2.3,0-3.4,0c-0.1,0-0.1,0-0.1,0.2c0,1.1,0,2.3,0,3.4
			c-1.2,0-2.4,0-3.6,0l0,0c0-1.1,0-2.3,0-3.4c0-0.1,0-0.1-0.1-0.1c-2.3,0-4.6,0-6.8,0c-0.1,0-0.1,0-0.1,0.1c0,1.1,0,2.3,0,3.4l0,0
			c-1.2,0-2.4,0-3.6,0c0-1.1,0-2.3,0-3.4c0-0.1,0-0.2-0.2-0.2c-1.1,0-2.3,0-3.4,0c0-1.1,0-2.3,0-3.4c0,0,0-0.1,0-0.1l0,0
			c1.2,0,2.4,0,3.6,0c0,0,0.1,0,0.1,0c1.1,0,2.2,0,3.3,0c0.1,0,0.2,0,0.2-0.2c0-2.2,0-4.4,0-6.6c0-0.1,0-0.3,0-0.4
			c-0.1-0.1-0.2,0-0.4,0c-1.1,0-2.1,0-3.2,0c0-1.2,0-2.4,0-3.6l0,0c1.1,0,2.3,0,3.4,0c0.1,0,0.1,0,0.1-0.1c0-1.1,0-2.3,0-3.4
			c2.4,0,4.8,0,7.1,0c0,1.1,0,2.3,0,3.4c0,0.1,0,0.1,0.1,0.1c1.1,0,2.3,0,3.4,0l0,0c0,1.2,0,2.4,0,3.6c-0.1,0-0.1,0-0.2,0
			c-1.1,0-2.2,0-3.3,0c-0.1,0-0.2,0-0.2,0.2c0,2.2,0,4.3,0,6.5c0,0.1-0.1,0.3,0,0.4c0.1,0.1,0.3,0,0.4,0c1,0,2.1,0,3.1,0
			c0.6,0,1.1,0,1.7,0C38,28.6,38.6,28.6,39.3,28.6L39.3,28.6z"/>
		<path d="M25,35.8c0-1.1,0-2.3,0-3.4c0-0.1,0-0.1,0.1-0.1c2.3,0,4.6,0,6.8,0c0.1,0,0.1,0,0.1,0.1c0,1.1,0,2.3,0,3.4
			C29.7,35.8,27.3,35.8,25,35.8z"/>
		<path d="M21.4,21.5c1.1,0,2.1,0,3.2,0c0.1,0,0.3-0.1,0.4,0c0.1,0.1,0,0.2,0,0.4c0,2.2,0,4.4,0,6.6c0,0.1,0,0.2-0.2,0.2
			c-1.1,0-2.2,0-3.3,0c0,0-0.1,0-0.1,0c0-1.1,0-2.3,0-3.4c0-0.1,0-0.1-0.1-0.1c-1.1,0-2.2,0-3.3,0c-0.1,0-0.1,0-0.1,0.1
			c0,1.1,0,2.3,0,3.4l0,0c-1.1,0-2.1,0-3.2,0c-0.1,0-0.2,0-0.4,0c0-1.1,0-2.3,0-3.4c0-0.1,0-0.1,0-0.2c0-0.9,0-1.8,0-2.7
			c0-0.3,0-0.6,0-0.9c1.1,0,2.3,0,3.4,0c0.1,0,0.1,0,0.2,0c0.2,0,0.4,0,0.6,0C19.4,21.5,20.4,21.5,21.4,21.5z"/>
		<path class="st0" d="M21.4,21.5c-1,0-2,0-3,0c-0.2,0-0.4,0-0.6,0c0-1.2,0-2.4,0-3.6c1.1,0,2.3,0,3.4,0c0.1,0,0.1,0,0.2,0
			C21.4,19.1,21.4,20.3,21.4,21.5z"/>
		<path d="M35.7,28.6c-1,0-2.1,0-3.1,0c-0.1,0-0.3,0.1-0.4,0c-0.1-0.1,0-0.3,0-0.4c0-2.2,0-4.3,0-6.5c0-0.1,0-0.2,0.2-0.2
			c1.1,0,2.2,0,3.3,0c0.1,0,0.1,0,0.2,0c0.2,0,0.4,0,0.6,0c1,0,2,0,3,0c0.9,0,1.8,0,2.7,0c0.3,0,0.6,0,0.9,0c0,1.1,0,2.3,0,3.4
			c0,0.1,0,0.1,0,0.2c0,0.9,0,1.8,0,2.7c0,0.3,0,0.6,0,0.9c-1.1,0-2.3,0-3.4,0c-0.1,0-0.1,0-0.2,0c0,0,0,0,0,0c0-1.1,0-2.3,0-3.4
			c0-0.1,0-0.1-0.1-0.1c-1.1,0-2.2,0-3.3,0c-0.1,0-0.1,0-0.1,0.1C35.7,26.4,35.7,27.5,35.7,28.6z"/>
		<path class="st0" d="M39.3,21.5c-1,0-2,0-3,0c-0.2,0-0.4,0-0.6,0c0-1.2,0-2.4,0-3.6c1.1,0,2.1,0,3.2,0c0.1,0,0.3,0,0.4,0
			C39.3,19.1,39.3,20.3,39.3,21.5z"/>
		<path class="st1" d="M35.7,28.6c0-1.1,0-2.3,0-3.4c0-0.1,0-0.1,0.1-0.1c1.1,0,2.2,0,3.3,0c0.1,0,0.1,0,0.1,0.1c0,1.1,0,2.3,0,3.4
			c-0.6,0-1.3,0-1.9,0C36.8,28.6,36.2,28.6,35.7,28.6z"/>
		<path class="st1" d="M17.8,28.6c0-1.1,0-2.3,0-3.4c0-0.1,0-0.1,0.1-0.1c1.1,0,2.2,0,3.3,0c0.1,0,0.1,0,0.1,0.1c0,1.1,0,2.3,0,3.4
			C20.2,28.6,19,28.6,17.8,28.6z"/>
	</g>
	<rect x="10.6" y="53.2" width="3.8" height="3.8"/>
	<rect x="35.7" y="53.2" width="3.8" height="3.8"/>
	<rect x="42.7" width="3.8" height="3.8"/>
	<rect x="53.4" y="21.5" width="3.8" height="3.8"/>
	<rect x="53.4" y="28.7" width="3.8" height="3.8"/>
	<rect y="21.5" width="3.8" height="3.8"/>
	<rect y="28.7" width="3.8" height="3.8"/>
	<rect x="10.7" y="0" width="3.8" height="3.8"/>
	<rect x="42.7" y="53.2" width="3.8" height="3.8"/>
	<rect x="17.8" y="53.2" width="3.8" height="3.8"/>
</g>
</svg>
