<?xml version="1.0" encoding="utf-8"?>
<!-- Generator: Adobe Illustrator 25.4.0, SVG Export Plug-In . SVG Version: 6.00 Build 0)  -->
<svg version="1.1" id="Layer_1" xmlns="http://www.w3.org/2000/svg" xmlns:xlink="http://www.w3.org/1999/xlink" x="0px" y="0px"
	 viewBox="0 0 60 60" style="enable-background:new 0 0 60 60;" xml:space="preserve">
<style type="text/css">
	.st0{fill:#3854FE;}
	.st1{fill:#B8C2FE;}
	.st2{fill:#FED30B;}
	.st3{fill:#FE9431;}
	.st4{fill:#36FEDE;}
</style>
<g>
	<path d="M0,55.8C0,42.9,0,30,0,17.1c1.4,0,2.7,0,4.1,0c0,0.3,0,0.7,0,1c0,1.1,0,2.2,0,3.3c0,0.2,0,0.4,0,0.6c0,1.2,0,2.5,0,3.7
		c0,0.2,0,0.4,0,0.6c0,1.2,0,2.5,0,3.7c0,0.2,0,0.4,0,0.6c0,1.2,0,2.4,0,3.7c0,0.2,0,0.4,0,0.6c0,1.2,0,2.5,0,3.7c0,0.2,0,0.4,0,0.7
		c0,1.2,0,2.4,0,3.6c0,0.2,0,0.4,0,0.6c0,1.2,0,2.4,0,3.7c0,1.4,0,2.7,0,4.1c0,0.1,0,0.2,0.2,0.2c1.4,0,2.7,0,4.1,0
		c0,0.1,0,0.1,0,0.2c0,1.2,0,2.5,0,3.7c0,0.1,0,0.3,0,0.4c0.1,0.1,0.3,0,0.4,0c1.3,0,2.6,0,3.9,0c1.4,0,2.8,0,4.2,0
		c0.1,0,0.1-0.1,0.1-0.2c0-1.4,0-2.8,0-4.2c1.4,0,2.9,0,4.3,0c0,1.4,0,2.8,0,4.1c0,0.1,0,0.2,0.2,0.2c5.6,0,11.2,0,16.9,0
		c0.1,0,0.2,0,0.2-0.2c0-1.4,0-2.8,0-4.1c1.4,0,2.9,0,4.3,0c0,1.3,0,2.6,0,3.9c0,0.1-0.1,0.3,0,0.4c0.1,0.1,0.3,0,0.4,0
		c1.3,0,2.6,0,3.9,0c1.4,0,2.8,0,4.2,0c0.1,0,0.1-0.1,0.1-0.1c0-0.5,0-1.1,0-1.6c0-0.9,0-1.7,0-2.6c1.3,0,2.6,0,3.9,0
		c0.1,0,0.3,0,0.4,0c0.1-0.1,0-0.3,0-0.4c0-1.3,0-2.6,0-3.8c0-0.3,0-0.5,0-0.8c0-1.2,0-2.4,0-3.5c0-0.2,0-0.4,0-0.6
		c0-1.2,0-2.5,0-3.7c0-0.2,0-0.4,0-0.5c0-1.2,0-2.5,0-3.7c0-0.2,0-0.4,0-0.6c0-1.2,0-2.5,0-3.7c0-0.2,0-0.5,0-0.7c0-1.2,0-2.4,0-3.6
		c0-0.2,0-0.4,0-0.6c0-1.2,0-2.5,0-3.7c0-1.4,0-2.9,0-4.3c1.4,0,2.9,0,4.3,0c0,12.9,0,25.8,0,38.7c-1.4,0-2.7,0-4.1,0
		c-0.1,0-0.2,0-0.2,0.2c0,1.3,0,2.7,0,4c-17.2,0-34.4,0-51.6,0c0-1.3,0-2.7,0-4c0-0.1,0-0.2-0.2-0.2C2.6,55.8,1.3,55.8,0,55.8z"/>
	<path d="M47.1,0c0,1.4,0,2.8,0,4.2l0,0c-0.3,0-0.7,0-1,0c-1.1,0-2.2,0-3.3,0c-0.1,0-0.2,0-0.4,0c-1.3,0-2.6,0-4,0
		c-0.1,0-0.1,0-0.2,0c-5.6,0-11.3,0-16.9,0c-0.1,0-0.1,0-0.2,0c-0.2,0-0.3,0-0.5,0c-1.3,0-2.6,0-3.8,0c-1.4,0-2.9,0-4.3,0
		c0-1.4,0-2.8,0-4.2C24.2,0,35.6,0,47.1,0z"/>
	<path class="st0" d="M21.3,51.5c-1.4,0-2.9,0-4.3,0l0,0c0-4.3,0-8.6,0-12.9c0.2,0,0.4,0,0.5,0c1.3,0,2.5,0,3.8,0c0.1,0,0.1,0,0.2,0
		c5.6,0,11.2,0,16.9,0c0.1,0,0.1,0,0.2,0c0.1,0,0.1,0,0.2,0c1.4,0,2.7,0,4.1,0c0,4.3,0,8.6,0,12.9l0,0c-1.4,0-2.9,0-4.3,0l0,0
		c0,0,0,0,0-0.1c0-1.4,0-2.7,0-4.1c0-0.1-0.1-0.1-0.2-0.1c-5.6,0-11.3,0-16.9,0c-0.1,0-0.2,0-0.2,0.2c0,0.6,0,1.2,0,1.9
		C21.3,50,21.3,50.7,21.3,51.5L21.3,51.5z"/>
	<path class="st1" d="M38.5,51.5c0,1.4,0,2.8,0,4.1c0,0.1,0,0.2-0.2,0.2c-5.6,0-11.2,0-16.9,0c-0.1,0-0.2,0-0.2-0.2
		c0-1.4,0-2.8,0-4.1c0,0,0,0,0,0C27,51.5,32.7,51.5,38.5,51.5L38.5,51.5z"/>
	<path class="st2" d="M47.1,55.8c-1.3,0-2.6,0-3.9,0c-0.1,0-0.3,0-0.4,0c-0.1-0.1,0-0.3,0-0.4c0-1.3,0-2.6,0-3.9l0,0
		c0.1,0,0.3,0,0.4,0c1.3,0,2.6,0,3.9,0C47.1,52.9,47.1,54.4,47.1,55.8z"/>
	<path class="st3" d="M12.7,55.8c-1.3,0-2.6,0-3.9,0c-0.1,0-0.3,0.1-0.4,0c-0.1-0.1,0-0.3,0-0.4c0-1.2,0-2.5,0-3.7
		c0-0.1,0-0.1,0-0.2c0,0,0,0,0,0c0,0,0.1,0,0.1,0c1.4,0,2.8,0,4.2,0l0,0C12.7,52.9,12.7,54.4,12.7,55.8z"/>
	<path class="st3" d="M55.7,42.9c0,1.2,0,2.4,0,3.5c0,0.3,0,0.5,0,0.8c-1.4,0-2.9,0-4.3,0c0-1.4,0-2.9,0-4.3
		C52.8,42.9,54.2,42.9,55.7,42.9z"/>
	<path class="st3" d="M4.1,47.2c0-1.2,0-2.4,0-3.7c0-0.2,0-0.4,0-0.6c1.4,0,2.9,0,4.3,0c0,1.4,0,2.9,0,4.3l0,0
		C6.9,47.2,5.5,47.2,4.1,47.2z"/>
	<path class="st4" d="M55.7,42.9c-1.4,0-2.9,0-4.3,0l0,0c0-1.4,0-2.9,0-4.3c1.4,0,2.9,0,4.3,0c0,1.2,0,2.5,0,3.7
		C55.7,42.5,55.7,42.7,55.7,42.9z"/>
	<path class="st4" d="M4.1,25.7c0-1.2,0-2.5,0-3.7c0-0.2,0-0.4,0-0.6c1.4,0,2.9,0,4.3,0c0,1.4,0,2.9,0,4.3
		C6.9,25.7,5.5,25.7,4.1,25.7z"/>
	<path class="st4" d="M55.7,21.4c0,1.2,0,2.5,0,3.7c0,0.2,0,0.4,0,0.6c-1.4,0-2.9,0-4.3,0c0-1.4,0-2.9,0-4.3
		C52.8,21.4,54.2,21.4,55.7,21.4z"/>
	<path class="st3" d="M4.1,25.7c1.4,0,2.9,0,4.3,0l0,0c0,1.4,0,2.9,0,4.3c-1.4,0-2.9,0-4.3,0c0-1.2,0-2.5,0-3.7
		C4.1,26.1,4.1,25.9,4.1,25.7z"/>
	<path class="st3" d="M51.4,25.7c1.4,0,2.9,0,4.3,0c0,1.2,0,2.4,0,3.6c0,0.2,0,0.5,0,0.7c-1.4,0-2.9,0-4.3,0
		C51.4,28.6,51.4,27.1,51.4,25.7L51.4,25.7z"/>
	<path class="st4" d="M4.1,30c1.4,0,2.9,0,4.3,0l0,0c0,1.4,0,2.9,0,4.3c-1.4,0-2.9,0-4.3,0c0-1.2,0-2.4,0-3.7
		C4.1,30.4,4.1,30.2,4.1,30z"/>
	<path class="st4" d="M8.4,42.9c-1.4,0-2.9,0-4.3,0c0-1.2,0-2.4,0-3.6c0-0.2,0-0.4,0-0.7c1.4,0,2.9,0,4.3,0
		C8.4,40,8.4,41.5,8.4,42.9L8.4,42.9z"/>
	<path class="st4" d="M51.4,30c1.4,0,2.9,0,4.3,0c0,1.2,0,2.5,0,3.7c0,0.2,0,0.4,0,0.6c-1.4,0-2.9,0-4.3,0
		C51.4,32.9,51.4,31.4,51.4,30L51.4,30z"/>
	<path class="st3" d="M8.4,38.6c-1.4,0-2.9,0-4.3,0c0-1.2,0-2.5,0-3.7c0-0.2,0-0.4,0-0.6c1.4,0,2.9,0,4.3,0l0,0
		C8.4,35.7,8.4,37.2,8.4,38.6L8.4,38.6z"/>
	<path class="st3" d="M47.1,55.8c0-1.4,0-2.9,0-4.3l0,0c0.9,0,1.9,0,2.8,0c0.5,0,1,0,1.5,0l0,0c0,0.9,0,1.7,0,2.6c0,0.5,0,1.1,0,1.6
		c0,0.1,0,0.1-0.1,0.1C49.9,55.8,48.5,55.8,47.1,55.8z"/>
	<path class="st3" d="M51.4,34.3c1.4,0,2.9,0,4.3,0c0,1.2,0,2.5,0,3.7c0,0.2,0,0.4,0,0.5c-1.4,0-2.9,0-4.3,0l0,0
		C51.4,37.2,51.4,35.7,51.4,34.3L51.4,34.3z"/>
	<path class="st2" d="M55.7,21.4c-1.4,0-2.9,0-4.3,0l0,0c0-1.4,0-2.9,0-4.3c0.1,0,0.1,0,0.2,0c1.4,0,2.7,0,4.1,0l0,0
		C55.7,18.5,55.7,20,55.7,21.4z"/>
	<path class="st4" d="M4.1,47.2c1.4,0,2.9,0,4.3,0c0,1.4,0,2.8,0,4.3l0,0c-1.4,0-2.7,0-4.1,0c-0.2,0-0.2,0-0.2-0.2
		C4.1,49.9,4.1,48.6,4.1,47.2z"/>
	<path class="st2" d="M12.7,55.8c0-1.4,0-2.9,0-4.3c0.1,0,0.1,0,0.2,0c1.4,0,2.7,0,4.1,0l0,0c0,1.4,0,2.8,0,4.2c0,0.1,0,0.2-0.1,0.2
		C15.5,55.8,14.1,55.8,12.7,55.8z"/>
	<path class="st4" d="M51.4,47.2c1.4,0,2.9,0,4.3,0c0,1.3,0,2.6,0,3.8c0,0.1,0.1,0.3,0,0.4c-0.1,0.1-0.3,0-0.4,0c-1.3,0-2.6,0-3.9,0
		c0,0,0,0,0,0C51.4,50.1,51.4,48.6,51.4,47.2L51.4,47.2z"/>
	<path class="st2" d="M8.4,21.4c-1.4,0-2.9,0-4.3,0c0-1.1,0-2.2,0-3.3c0-0.3,0-0.7,0-1l0,0c0.1,0,0.3,0,0.4,0c1.3,0,2.6,0,3.9,0
		C8.4,18.5,8.4,20,8.4,21.4L8.4,21.4z"/>
	<path d="M47.1,4.2c1.4,0,2.8,0,4.2,0c0.1,0,0.1,0,0.1,0.1c0,2.8,0,5.7,0,8.5l0,0c-1.4,0-2.9,0-4.3,0c0-0.3,0-0.7,0-1
		c0-1.1,0-2.2,0-3.3c0-0.1,0-0.1,0-0.2C47.1,6.9,47.1,5.5,47.1,4.2L47.1,4.2z"/>
	<path d="M55.7,17.1c-1.4,0-2.7,0-4.1,0c-0.1,0-0.1,0-0.2,0c0,0,0,0,0,0c0-1.4,0-2.9,0-4.3l0,0c1.4,0,2.8,0,4.2,0
		c0.1,0,0.1,0.1,0.1,0.1C55.7,14.3,55.7,15.7,55.7,17.1z"/>
	<path class="st3" d="M21.3,4.2c0.1,0,0.1,0,0.2,0c5.6,0,11.3,0,16.9,0c0.1,0,0.1,0,0.2,0c0,1.4,0,2.9,0,4.3c-5.7,0-11.5,0-17.2,0
		C21.3,7,21.3,5.6,21.3,4.2z"/>
	<path class="st2" d="M21.3,4.2c0,1.4,0,2.9,0,4.3l0,0c-1.4,0-2.9,0-4.3,0c0-1.4,0-2.9,0-4.3c1.3,0,2.6,0,3.8,0
		C21,4.2,21.1,4.2,21.3,4.2z"/>
	<path class="st2" d="M38.5,8.5c0-1.4,0-2.9,0-4.3c1.3,0,2.6,0,4,0c0.1,0,0.2,0,0.4,0c0,1.4,0,2.9,0,4.3c0,0,0,0,0,0
		C41.4,8.5,39.9,8.5,38.5,8.5L38.5,8.5z"/>
	<path class="st3" d="M42.8,8.5c0-1.4,0-2.9,0-4.3c1.1,0,2.2,0,3.3,0c0.3,0,0.7,0,1,0c0,1.4,0,2.7,0,4.1c0,0.1,0,0.1,0,0.2
		C45.7,8.5,44.2,8.5,42.8,8.5z"/>
	<path class="st3" d="M17,4.2c0,1.4,0,2.9,0,4.3c0,0,0,0,0,0c-1.4,0-2.8,0-4.3,0c0-1.4,0-2.9,0-4.3c0,0,0,0,0,0
		C14.1,4.2,15.5,4.2,17,4.2z"/>
	<path d="M12.7,4.2c0,1.4,0,2.9,0,4.3c0,1.4,0,2.9,0,4.3c-1.4,0-2.9,0-4.3,0l0,0c0-2.8,0-5.7,0-8.5c0-0.1,0.1-0.1,0.2-0.1
		C9.9,4.2,11.3,4.2,12.7,4.2z"/>
	<path d="M8.4,17.1c-1.3,0-2.6,0-3.9,0c-0.1,0-0.3,0-0.4,0c0-1.4,0-2.8,0-4.1c0-0.2,0-0.2,0.2-0.2c1.4,0,2.8,0,4.1,0l0,0
		C8.4,14.2,8.4,15.7,8.4,17.1L8.4,17.1z"/>
	<path class="st4" d="M38.5,51.5c-5.7,0-11.5,0-17.2,0c0-0.7,0-1.5,0-2.2c0-0.6,0-1.2,0-1.9c0-0.1,0-0.2,0.2-0.2
		c5.6,0,11.3,0,16.9,0c0.1,0,0.2,0,0.2,0.1C38.5,48.7,38.5,50.1,38.5,51.5C38.5,51.4,38.5,51.5,38.5,51.5z"/>
	<path class="st1" d="M38.5,38.6c-0.1,0-0.1,0-0.2,0c-5.6,0-11.2,0-16.9,0c-0.1,0-0.1,0-0.2,0c0-1.4,0-2.8,0-4.3
		c5.7,0,11.5,0,17.2,0C38.5,35.7,38.5,37.2,38.5,38.6z"/>
	<path d="M47.1,51.5c-1.3,0-2.6,0-3.9,0c-0.1,0-0.3,0-0.4,0c0-4.3,0-8.6,0-12.9l0,0c1.4,0,2.9,0,4.3,0l0,0c0,0.4,0,0.7,0,1.1
		c0,1.1,0,2.2,0,3.3c0,0.2,0,0.4,0,0.6c0,1.2,0,2.5,0,3.7c0,0.1,0,0.1,0,0.2C47.1,48.8,47.1,50.1,47.1,51.5L47.1,51.5z"/>
	<path d="M17,51.5c-1.4,0-2.7,0-4.1,0c-0.1,0-0.1,0-0.2,0c0,0,0,0,0,0c0-0.3,0-0.6,0-1c0-1.1,0-2.2,0-3.3c0-0.2,0-0.4,0-0.6
		c0-1.2,0-2.5,0-3.7c0-0.1,0-0.1,0-0.2c0-1.4,0-2.7,0-4.1l0,0c1.4,0,2.9,0,4.3,0l0,0C17,42.9,17,47.2,17,51.5z"/>
	<path d="M21.3,34.3c0,1.4,0,2.8,0,4.3c-1.3,0-2.5,0-3.8,0c-0.2,0-0.4,0-0.5,0l0,0c0-1.4,0-2.8,0-4.3C18.4,34.3,19.8,34.3,21.3,34.3
		L21.3,34.3z"/>
	<path d="M38.5,38.6c0-1.4,0-2.8,0-4.3l0,0c1.4,0,2.9,0,4.3,0c0,1.4,0,2.8,0,4.3l0,0c-1.4,0-2.7,0-4.1,0
		C38.6,38.6,38.5,38.6,38.5,38.6z"/>
	<path class="st2" d="M12.7,47.2c0,1.1,0,2.2,0,3.3c0,0.3,0,0.6,0,1c-1.4,0-2.8,0-4.2,0c0,0-0.1,0-0.1,0c0-1.4,0-2.8,0-4.3l0,0
		C9.8,47.2,11.2,47.2,12.7,47.2z"/>
	<path class="st4" d="M47.1,47.2c0-1.2,0-2.5,0-3.7c0-0.2,0-0.4,0-0.6c1.4,0,2.8,0,4.3,0l0,0c0,1.4,0,2.9,0,4.3l0,0
		C50,47.2,48.5,47.2,47.1,47.2z"/>
	<path class="st4" d="M12.7,47.2c-1.4,0-2.9,0-4.3,0c0-1.4,0-2.9,0-4.3l0,0c1.4,0,2.9,0,4.3,0c0,1.2,0,2.5,0,3.7
		C12.7,46.8,12.7,47,12.7,47.2z"/>
	<path class="st2" d="M51.4,42.9c-1.4,0-2.8,0-4.3,0c0-1.1,0-2.2,0-3.3c0-0.4,0-0.7,0-1.1c1.4,0,2.9,0,4.3,0l0,0
		C51.4,40,51.4,41.5,51.4,42.9z"/>
	<path class="st2" d="M8.4,25.7c0-1.4,0-2.9,0-4.3l0,0c1.4,0,2.9,0,4.3,0c0,0.1,0,0.1,0,0.2c0,1.4,0,2.7,0,4.1
		C11.2,25.7,9.8,25.7,8.4,25.7L8.4,25.7z"/>
	<path class="st2" d="M51.4,21.4c0,1.4,0,2.9,0,4.3l0,0c-1.4,0-2.9,0-4.3,0c0-0.3,0-0.7,0-1c0-1.1,0-2.2,0-3.3
		C48.5,21.4,49.9,21.4,51.4,21.4L51.4,21.4z"/>
	<path class="st4" d="M8.4,25.7c1.4,0,2.9,0,4.3,0l0,0c0,1.4,0,2.9,0,4.3c-1.4,0-2.9,0-4.3,0l0,0C8.4,28.6,8.4,27.1,8.4,25.7z"/>
	<path class="st4" d="M47.1,25.7c1.4,0,2.9,0,4.3,0c0,1.4,0,2.9,0,4.3l0,0c-1.4,0-2.9,0-4.3,0C47.1,28.6,47.1,27.1,47.1,25.7
		L47.1,25.7z"/>
	<path class="st2" d="M8.4,30c1.4,0,2.9,0,4.3,0l0,0c0,1.4,0,2.9,0,4.3l0,0c-1.4,0-2.9,0-4.3,0l0,0C8.4,32.9,8.4,31.4,8.4,30z"/>
	<path class="st2" d="M12.7,42.9c-1.4,0-2.9,0-4.3,0c0-1.4,0-2.9,0-4.3l0,0c1.4,0,2.9,0,4.3,0c0,1.4,0,2.7,0,4.1
		C12.7,42.8,12.7,42.8,12.7,42.9z"/>
	<path class="st2" d="M47.1,30c1.4,0,2.9,0,4.3,0c0,1.4,0,2.9,0,4.3l0,0c-1.4,0-2.9,0-4.3,0l0,0C47.1,32.9,47.1,31.4,47.1,30
		L47.1,30z"/>
	<path class="st4" d="M12.7,38.6c-1.4,0-2.9,0-4.3,0c0-1.4,0-2.9,0-4.3c1.4,0,2.9,0,4.3,0C12.7,35.7,12.7,37.2,12.7,38.6L12.7,38.6z
		"/>
	<path class="st2" d="M47.1,47.2c1.4,0,2.8,0,4.3,0c0,1.4,0,2.8,0,4.3c-0.5,0-1,0-1.5,0c-0.9,0-1.9,0-2.8,0c0-1.4,0-2.7,0-4.1
		C47.1,47.3,47.1,47.3,47.1,47.2z"/>
	<path class="st4" d="M47.1,34.3c1.4,0,2.9,0,4.3,0c0,1.4,0,2.9,0,4.3c-1.4,0-2.9,0-4.3,0l0,0C47.1,37.2,47.1,35.7,47.1,34.3z"/>
	<path class="st3" d="M51.4,21.4c-1.4,0-2.8,0-4.3,0c0-0.1,0-0.3,0-0.4c0-1.3,0-2.6,0-3.8c1.4,0,2.8,0,4.3,0c0,0,0,0,0,0
		C51.4,18.5,51.4,20,51.4,21.4z"/>
	<path class="st3" d="M12.7,21.4c-1.4,0-2.9,0-4.3,0c0-1.4,0-2.9,0-4.3c0,0,0,0,0,0c1.4,0,2.9,0,4.3,0c0,0.2,0,0.3,0,0.5
		C12.7,18.8,12.7,20.1,12.7,21.4z"/>
	<path class="st2" d="M42.8,8.5c1.4,0,2.9,0,4.3,0c0,1.1,0,2.2,0,3.3c0,0.3,0,0.7,0,1l0,0c-0.4,0-0.7,0-1.1,0c-1.1,0-2.2,0-3.3,0
		C42.8,11.4,42.8,9.9,42.8,8.5L42.8,8.5z"/>
	<path class="st2" d="M51.4,17.1c-1.4,0-2.8,0-4.3,0c0-1.4,0-2.9,0-4.3l0,0c1.4,0,2.9,0,4.3,0C51.4,14.2,51.4,15.7,51.4,17.1z"/>
	<path class="st2" d="M21.3,8.5c5.7,0,11.5,0,17.2,0c0,0,0,0,0,0c0,1.4,0,2.9,0,4.3c-0.1,0-0.1,0-0.2,0c-1.3,0-2.6,0-3.9,0
		c-0.2,0-0.2,0-0.2,0.2c0,4.1,0,8.2,0,12.3c0,0.1-0.1,0.3,0,0.4c0.1,0.1,0.3,0,0.4,0c1.3,0,2.6,0,3.9,0c0,1.4,0,2.9,0,4.3l0,0
		c-3.2,0-6.3,0-9.5,0c-2.6,0-5.2,0-7.7,0l0,0c0-1.4,0-2.9,0-4.3c0.1,0,0.1,0,0.2,0c1.3,0,2.6,0,3.9,0c0.2,0,0.2,0,0.2-0.2
		c0-4.1,0-8.2,0-12.3c0-0.1,0.1-0.3,0-0.4c-0.1-0.1-0.3,0-0.4,0c-1.3,0-2.6,0-3.9,0C21.3,11.4,21.3,9.9,21.3,8.5L21.3,8.5z"/>
	<path class="st3" d="M21.3,8.5c0,1.4,0,2.9,0,4.3c-0.3,0-0.7,0-1,0c-1.1,0-2.2,0-3.3,0c0-1.4,0-2.9,0-4.3c0,0,0,0,0,0
		C18.4,8.5,19.8,8.5,21.3,8.5z"/>
	<path class="st3" d="M38.5,12.8c0-1.4,0-2.9,0-4.3c1.4,0,2.9,0,4.3,0c0,1.4,0,2.9,0,4.3c-0.3,0-0.7,0-1,0
		C40.7,12.8,39.6,12.8,38.5,12.8z"/>
	<path class="st2" d="M17,8.5c0,1.4,0,2.9,0,4.3c-1.4,0-2.9,0-4.3,0l0,0c0-1.4,0-2.9,0-4.3C14.1,8.5,15.5,8.5,17,8.5z"/>
	<path class="st2" d="M12.7,17.1c-1.4,0-2.9,0-4.3,0c0-1.4,0-2.9,0-4.3c1.4,0,2.9,0,4.3,0l0,0c0,0.4,0,0.7,0,1.1
		C12.7,14.9,12.7,16,12.7,17.1z"/>
	<path d="M21.3,30c2.6,0,5.2,0,7.7,0c3.2,0,6.3,0,9.5,0c0,1.4,0,2.9,0,4.3l0,0c-5.7,0-11.5,0-17.2,0l0,0
		C21.3,32.9,21.3,31.4,21.3,30z"/>
	<path class="st2" d="M47.1,34.3c0,1.4,0,2.9,0,4.3c-1.4,0-2.9,0-4.3,0c0-1.4,0-2.8,0-4.3l0,0C44.2,34.3,45.7,34.3,47.1,34.3
		L47.1,34.3z"/>
	<path class="st2" d="M12.7,38.6c0-1.4,0-2.9,0-4.3l0,0c1.4,0,2.9,0,4.3,0l0,0c0,1.4,0,2.8,0,4.3C15.5,38.6,14.1,38.6,12.7,38.6z"/>
	<path class="st2" d="M21.3,30c0,1.4,0,2.9,0,4.3c-1.4,0-2.9,0-4.3,0l0,0c0-1.4,0-2.9,0-4.3l0,0C18.4,30,19.8,30,21.3,30L21.3,30z"
		/>
	<path class="st2" d="M38.5,34.3c0-1.4,0-2.9,0-4.3l0,0c1.4,0,2.9,0,4.3,0l0,0c0,1.4,0,2.9,0,4.3l0,0C41.3,34.3,39.9,34.3,38.5,34.3
		z"/>
	<path d="M12.7,17.1c0-1.1,0-2.2,0-3.3c0-0.4,0-0.7,0-1.1c1.4,0,2.9,0,4.3,0c1.1,0,2.2,0,3.3,0c0.3,0,0.7,0,1,0c1.3,0,2.6,0,3.9,0
		c0.1,0,0.3,0,0.4,0c0.1,0.1,0,0.3,0,0.4c0,4.1,0,8.2,0,12.3c0,0.2,0,0.2-0.2,0.2c-1.3,0-2.6,0-3.9,0c-0.1,0-0.1,0-0.2,0
		c-0.3,0-0.7,0-1,0c-1.1,0-2.2,0-3.3,0c-0.1,0-0.1,0-0.2,0c-1.4,0-2.7,0-4.1,0l0,0c0-1.4,0-2.7,0-4.1c0-0.1,0-0.1,0-0.2
		c0-1.3,0-2.5,0-3.8C12.7,17.4,12.7,17.3,12.7,17.1z M19.1,17.1c-0.7,0-1.3,0-2,0c-0.1,0-0.1,0-0.1,0.1c0,1.3,0,2.7,0,4
		c0,0.1,0,0.1,0.1,0.1c1.3,0,2.7,0,4,0c0.1,0,0.1,0,0.1-0.1c0-1.3,0-2.7,0-4c0-0.1,0-0.1-0.1-0.1C20.5,17.1,19.8,17.1,19.1,17.1z"/>
	<path d="M38.5,12.8c1.1,0,2.2,0,3.3,0c0.3,0,0.7,0,1,0c1.1,0,2.2,0,3.3,0c0.4,0,0.7,0,1.1,0c0,1.4,0,2.9,0,4.3c0,1.3,0,2.6,0,3.8
		c0,0.1,0,0.3,0,0.4c0,1.1,0,2.2,0,3.3c0,0.3,0,0.7,0,1l0,0c-0.3,0-0.7,0-1,0c-1.1,0-2.2,0-3.3,0c-0.2,0-0.4,0-0.6,0
		c-1.2,0-2.5,0-3.7,0c-1.3,0-2.6,0-3.9,0c-0.1,0-0.3,0-0.4,0c-0.1-0.1,0-0.3,0-0.4c0-4.1,0-8.2,0-12.3c0-0.2,0-0.2,0.2-0.2
		c1.3,0,2.6,0,3.9,0C38.4,12.8,38.4,12.8,38.5,12.8z M40.6,17.1c-0.7,0-1.3,0-2,0c-0.1,0-0.1,0-0.1,0.1c0,1.3,0,2.7,0,4
		c0,0.1,0,0.1,0.1,0.1c1.3,0,2.7,0,4,0c0.1,0,0.1,0,0.1-0.1c0-1.3,0-2.7,0-4c0-0.1,0-0.1-0.1-0.1C42,17.1,41.3,17.1,40.6,17.1z"/>
	<path class="st2" d="M12.7,25.7c1.4,0,2.7,0,4.1,0c0.1,0,0.1,0,0.2,0c0,1.4,0,2.9,0,4.3l0,0c-1.4,0-2.9,0-4.3,0l0,0
		C12.7,28.6,12.7,27.1,12.7,25.7z"/>
	<path class="st2" d="M42.8,25.7c1.1,0,2.2,0,3.3,0c0.3,0,0.7,0,1,0c0,1.4,0,2.9,0,4.3l0,0c-1.4,0-2.9,0-4.3,0l0,0
		C42.8,28.6,42.8,27.1,42.8,25.7z"/>
	<path class="st4" d="M12.7,30c1.4,0,2.9,0,4.3,0c0,1.4,0,2.9,0,4.3c-1.4,0-2.9,0-4.3,0C12.7,32.9,12.7,31.4,12.7,30z"/>
	<path class="st4" d="M42.8,30c1.4,0,2.9,0,4.3,0c0,1.4,0,2.9,0,4.3c-1.4,0-2.9,0-4.3,0C42.8,32.9,42.8,31.4,42.8,30z"/>
	<path class="st3" d="M17,30c0-1.4,0-2.9,0-4.3c1.1,0,2.2,0,3.3,0c0.3,0,0.7,0,1,0c0,1.4,0,2.9,0,4.3C19.8,30,18.4,30,17,30z"/>
	<path class="st3" d="M42.8,25.7c0,1.4,0,2.9,0,4.3c-1.4,0-2.9,0-4.3,0c0-1.4,0-2.9,0-4.3c1.2,0,2.5,0,3.7,0
		C42.4,25.7,42.6,25.7,42.8,25.7z"/>
	<path class="st4" d="M19.1,17.1c0.7,0,1.3,0,2,0c0.1,0,0.1,0,0.1,0.1c0,1.3,0,2.7,0,4c0,0.1,0,0.1-0.1,0.1c-1.3,0-2.7,0-4,0
		c-0.1,0-0.1,0-0.1-0.1c0-1.3,0-2.7,0-4c0-0.1,0-0.1,0.1-0.1C17.8,17.1,18.4,17.1,19.1,17.1z"/>
	<path class="st4" d="M40.6,17.1c0.7,0,1.3,0,2,0c0.1,0,0.1,0,0.1,0.1c0,1.3,0,2.7,0,4c0,0.1,0,0.1-0.1,0.1c-1.3,0-2.7,0-4,0
		c-0.1,0-0.1,0-0.1-0.1c0-1.3,0-2.7,0-4c0-0.1,0-0.1,0.1-0.1C39.3,17.1,40,17.1,40.6,17.1z"/>
</g>
</svg>
