<?xml version="1.0" encoding="utf-8"?>
<!-- Generator: Adobe Illustrator 25.4.0, SVG Export Plug-In . SVG Version: 6.00 Build 0)  -->
<svg version="1.1" id="Layer_1" xmlns="http://www.w3.org/2000/svg" xmlns:xlink="http://www.w3.org/1999/xlink" x="0px" y="0px"
	 viewBox="0 0 30 30" style="enable-background:new 0 0 30 30;" xml:space="preserve">
<style type="text/css">
	.st0{fill:#7FFEC9;}
	.st1{fill:#001B10;}
	.st2{fill:#FE9431;}
	.st3{fill:#36FEDE;}
</style>
<g>
	<path class="st0" d="M15,27.8c4.2,0,8.3,0,12.5,0c0.3,0,0.3-0.1,0.3-0.3c0-7.2,0-14.5,0-21.7c0-0.3-0.1-0.3-0.3-0.3
		c-1.9,0-3.8,0-5.7,0c-0.3,0-0.4-0.1-0.4-0.4c0-0.8,0-1.7,0-2.5c0-0.2-0.1-0.3-0.3-0.3c-4,0-8.1,0-12.1,0c-0.2,0-0.3,0.1-0.3,0.3
		c0,0.8,0,1.6,0,2.4c0,0.4-0.1,0.4-0.4,0.4c-1.9,0-3.7,0-5.6,0c-0.3,0-0.4,0.1-0.4,0.4c0,7.2,0,14.4,0,21.6c0,0.3,0.1,0.4,0.4,0.4
		C6.7,27.8,10.9,27.8,15,27.8z"/>
	<path class="st1" d="M15,27.8c-4.1,0-8.3,0-12.4,0c-0.3,0-0.4-0.1-0.4-0.4c0-7.2,0-14.4,0-21.6c0-0.3,0-0.4,0.4-0.4
		c1.9,0,3.7,0,5.6,0c0.4,0,0.4-0.1,0.4-0.4c0-0.8,0-1.6,0-2.4c0-0.2,0.1-0.3,0.3-0.3c4,0,8.1,0,12.1,0c0.2,0,0.3,0.1,0.3,0.3
		c0,0.8,0,1.7,0,2.5c0,0.3,0.1,0.4,0.4,0.4c1.9,0,3.8,0,5.7,0c0.3,0,0.3,0.1,0.3,0.3c0,7.2,0,14.5,0,21.7c0,0.3-0.1,0.3-0.3,0.3
		C23.3,27.8,19.2,27.8,15,27.8z M8.7,11.8c1,0,2,0,3,0c0.1,0,0.1,0,0.1,0.1c0,0.9,0,1.9,0,2.8c0,0.1-0.1,0.2-0.2,0.2
		c-1.1,0-2.2,0-3.3,0.1c-0.8,0.1-1.7,0-2.5,0c-0.2,0-0.3,0.1-0.3,0.3c0,0.9,0,1.8,0,2.7c0,0.1,0.1,0.2,0.2,0.2c0.1,0,0.2,0,0.3,0
		c0.8,0,1.6,0,2.3,0c0.2,0,0.3,0.1,0.3,0.3c0,0.9,0,1.7,0,2.6c0,0.2-0.1,0.3-0.3,0.3c-0.8,0-1.7,0-2.5,0c-0.2,0-0.3,0.1-0.3,0.3
		c0,0.8,0,1.7,0,2.5c0,0.2,0.1,0.3,0.4,0.3c1.9,0,3.8,0,5.7,0c0.2,0,0.3-0.1,0.3-0.4c0-0.8,0-1.7,0-2.5c0-0.2,0.1-0.3,0.3-0.3
		c1.9,0,3.8,0,5.7,0c0.2,0,0.4,0.1,0.4,0.4c0,0.8,0,1.7,0,2.5c0,0.3,0.1,0.4,0.4,0.4c1.9,0,3.8,0,5.7,0c0.2,0,0.4-0.1,0.4-0.4
		c0-0.8,0-1.7,0-2.5c0-0.2-0.1-0.3-0.3-0.3c-0.8,0-1.7,0-2.5,0c-0.3,0-0.3-0.1-0.3-0.3c0-0.8,0-1.7,0-2.5c0-0.3,0.1-0.3,0.3-0.3
		c0.8,0,1.7,0,2.5,0c0.2,0,0.3-0.1,0.3-0.3c0-0.9,0-1.8,0-2.7c0-0.2-0.1-0.3-0.3-0.3c-0.1,0-0.2,0-0.3,0c-1.8,0-3.6-0.1-5.4,0
		c-0.2,0-0.3-0.1-0.3-0.3c0-0.9,0-1.7,0-2.6c0-0.3,0-0.3,0.3-0.3c1.9,0,3.8,0,5.7,0c0.3,0,0.4-0.1,0.4-0.4c0-0.8,0-1.6,0-2.4
		c0-0.3-0.1-0.4-0.4-0.4c-1.9,0-3.8,0-5.7,0c-0.3,0-0.3,0-0.3-0.3c0-0.9,0-1.7,0-2.6c0-0.2-0.1-0.3-0.3-0.3c-1.9,0-3.8,0-5.7,0
		c-0.2,0-0.4,0.1-0.4,0.4c0,0.9,0,1.7,0,2.6c0,0.3,0,0.3-0.3,0.3c-1.9,0-3.8,0-5.7,0C5.5,8.6,5.4,8.7,5.4,9c0,0.8,0,1.6,0,2.4
		c0,0.3,0.1,0.4,0.4,0.4C6.7,11.8,7.7,11.8,8.7,11.8z"/>
	<path class="st2" d="M8.7,11.8c-1,0-1.9,0-2.9,0c-0.3,0-0.4-0.1-0.4-0.4c0-0.8,0-1.6,0-2.4c0-0.3,0.1-0.4,0.4-0.4
		c1.9,0,3.8,0,5.7,0c0.3,0,0.3,0,0.3-0.3c0-0.9,0-1.7,0-2.6c0-0.2,0.1-0.4,0.4-0.4c1.9,0,3.8,0,5.7,0c0.2,0,0.3,0.1,0.3,0.3
		c0,0.9,0,1.7,0,2.6c0,0.3,0,0.3,0.3,0.3c1.9,0,3.8,0,5.7,0c0.3,0,0.4,0.1,0.4,0.4c0,0.8,0,1.6,0,2.4c0,0.3-0.1,0.4-0.4,0.4
		c-1.9,0-3.8,0-5.7,0c-0.3,0-0.3,0-0.3,0.3c0,0.9,0,1.7,0,2.6c0,0.2,0.1,0.3,0.3,0.3c1.8,0,3.6,0.1,5.4,0c0.1,0,0.2,0,0.3,0
		c0.2,0,0.3,0.1,0.3,0.3c0,0.9,0,1.8,0,2.7c0,0.2-0.1,0.3-0.3,0.3c-0.8,0-1.7,0-2.5,0c-0.3,0-0.3,0.1-0.3,0.3c0,0.8,0,1.7,0,2.5
		c0,0.3,0.1,0.3,0.3,0.3c0.8,0,1.7,0,2.5,0c0.2,0,0.3,0.1,0.3,0.3c0,0.8,0,1.7,0,2.5c0,0.2-0.1,0.4-0.4,0.4c-1.9,0-3.8,0-5.7,0
		c-0.3,0-0.4-0.1-0.4-0.4c0-0.8,0-1.7,0-2.5c0-0.2-0.1-0.4-0.4-0.4c-1.9,0-3.8,0-5.7,0c-0.2,0-0.3,0.1-0.3,0.3c0,0.8,0,1.7,0,2.5
		c0,0.2-0.1,0.4-0.3,0.4c-1.9,0-3.8,0-5.7,0c-0.2,0-0.4-0.1-0.4-0.3c0-0.8,0-1.7,0-2.5c0-0.2,0.1-0.3,0.3-0.3c0.8,0,1.7,0,2.5,0
		c0.2,0,0.3-0.1,0.3-0.3c0-0.9,0-1.7,0-2.6c0-0.2-0.1-0.3-0.3-0.3c-0.8,0-1.6,0-2.3,0c-0.1,0-0.2,0-0.3,0c-0.1,0-0.2-0.1-0.2-0.2
		c0-0.9,0-1.8,0-2.7c0-0.2,0.1-0.3,0.3-0.3c0.8,0,1.7,0.1,2.5,0c1.1-0.1,2.2-0.1,3.3-0.1c0.1,0,0.2-0.1,0.2-0.2c0-0.9,0-1.9,0-2.8
		c0-0.1,0-0.1-0.1-0.1C10.6,11.8,9.6,11.8,8.7,11.8z M15,18.2c1,0,1.9,0,2.9,0c0.3,0,0.4,0.1,0.4,0.4c0,0.8,0,1.7,0,2.5
		c0,0.2,0.1,0.3,0.3,0.3c0.8,0,1.7,0,2.5,0c0.2,0,0.2-0.1,0.2-0.2c0-1.1,0-2.2,0.1-3.3c0.1-0.8,0-1.6,0-2.5c0-0.2-0.1-0.3-0.3-0.3
		c-0.8,0-1.7,0-2.5,0c-0.3,0-0.4-0.1-0.4-0.4c0-0.8,0-1.7,0-2.5c0-0.3,0-0.3-0.3-0.3c-1.9,0-3.8,0-5.7,0c-0.3,0-0.3,0.1-0.3,0.3
		c0,0.8,0,1.7,0,2.5c0,0.3-0.1,0.3-0.3,0.3c-0.8,0-1.7,0-2.5,0c-0.3,0-0.3,0.1-0.3,0.3c0,1.1,0,2.1,0.1,3.2c0.1,0.8,0,1.7,0,2.6
		c0,0.2,0,0.3,0.3,0.3c0.8,0,1.6,0,2.4,0c0.3,0,0.3-0.1,0.3-0.3c0-0.8,0-1.6,0-2.5c0-0.3,0.1-0.4,0.4-0.4
		C13.1,18.2,14.1,18.2,15,18.2z M14.9,11.7C14.9,11.7,14.9,11.7,14.9,11.7c1,0,2,0,3,0c0.2,0,0.3,0,0.3-0.3c0-0.9,0-1.8,0-2.6
		c0-0.2,0-0.2-0.2-0.2c-2,0-3.9,0-5.9,0c-0.2,0-0.3,0-0.3,0.3c0,0.9,0,1.8,0,2.8c0,0.1,0,0.1,0.1,0.1C12.9,11.7,13.9,11.7,14.9,11.7
		z"/>
	<path class="st3" d="M15,18.2c-0.9,0-1.9,0-2.8,0c-0.3,0-0.4,0.1-0.4,0.4c0,0.8,0,1.6,0,2.5c0,0.3-0.1,0.3-0.3,0.3
		c-0.8,0-1.6,0-2.4,0c-0.2,0-0.3,0-0.3-0.3c0-0.9,0.1-1.7,0-2.6c-0.1-1.1,0-2.1-0.1-3.2c0-0.3,0.1-0.3,0.3-0.3c0.8,0,1.7,0,2.5,0
		c0.3,0,0.3-0.1,0.3-0.3c0-0.8,0-1.7,0-2.5c0-0.3,0.1-0.3,0.3-0.3c1.9,0,3.8,0,5.7,0c0.3,0,0.3,0,0.3,0.3c0,0.8,0,1.7,0,2.5
		c0,0.3,0.1,0.4,0.4,0.4c0.8,0,1.7,0,2.5,0c0.2,0,0.3,0.1,0.3,0.3c0,0.8,0.1,1.6,0,2.5c-0.1,1.1,0,2.2-0.1,3.3
		c0,0.2-0.1,0.2-0.2,0.2c-0.8,0-1.7,0-2.5,0c-0.2,0-0.3-0.1-0.3-0.3c0-0.8,0-1.7,0-2.5c0-0.3-0.1-0.4-0.4-0.4
		C16.9,18.2,15.9,18.2,15,18.2z"/>
	<path class="st1" d="M14.9,11.7c-1,0-2,0-3,0c-0.1,0-0.1,0-0.1-0.1c0-0.9,0-1.8,0-2.8c0-0.2,0-0.3,0.3-0.3c2,0,3.9,0,5.9,0
		c0.2,0,0.2,0,0.2,0.2c0,0.9,0,1.8,0,2.6c0,0.2,0,0.3-0.3,0.3C16.9,11.7,15.9,11.7,14.9,11.7C14.9,11.7,14.9,11.7,14.9,11.7z"/>
</g>
</svg>
