<svg xmlns="http://www.w3.org/2000/svg" viewBox="0 0 88.45 102.98"><defs><style>.cls-1{fill:#f99001;}.cls-2{fill:#fed30b;}.cls-3{fill:#5e93fe;}.cls-4{fill:#36fede;}.cls-5{fill:#0058f7;}</style></defs><g id="Layer_2" data-name="Layer 2"><g id="Layer_1-2" data-name="Layer 1"><path class="cls-1" d="M59,103H29.46V95.72H59Z"/><path class="cls-2" d="M36.86,0H51.59V7.2H36.86Z"/><path d="M59,103V95.72h7.32q0,3.65,0,7.27Z"/><path d="M29.46,95.72V103H22.13V95.71h7.32Z"/><path d="M51.59,7.2V0H59V7.2H51.59Z"/><path d="M36.86,0V7.2H29.47V0Z"/><path d="M81.11,36.73h7.1c.18,0,.26.05.23.24v.17q0,18,0,36.05c0,.33-.07.42-.41.42-2.31,0-4.62,0-6.93,0h0V44.39a2.17,2.17,0,0,0,0-.26c0-.13,0-.25,0-.37,0-2.34,0-4.69,0-7Z"/><path d="M73.71,22h7.1c.21,0,.31,0,.31.28q0,7.23,0,14.46H73.73c0-.1,0-.2,0-.3V22Z"/><path d="M81.11,73.59q0,7.17,0,14.36c0,.3-.07.38-.38.38-2.34,0-4.68,0-7,0h0c0-2.45,0-4.89,0-7.33l0-7.39Z"/><path d="M66.31,14.6h7.13c.26,0,.28.1.28.31,0,2.36,0,4.73,0,7.1H66.32v-7.4Z"/><path d="M73.71,88.32q0,3.54,0,7.1c0,.2,0,.3-.28.3H66.32v-.83q0-3.28,0-6.56h7.4Z"/><path d="M59,7.2h7.09c.2,0,.25.06.25.26,0,2.38,0,4.77,0,7.15H59V7.19Z"/><path d="M7.34,73.59c-2.34,0-4.67,0-7,0-.28,0-.34-.07-.34-.34Q0,55.16,0,37.06c0-.28.07-.34.35-.34h7c0,.35,0,.69,0,1,0,2.13,0,4.25,0,6.38,0,.08,0,.17,0,.26v29.2Z"/><path d="M14.74,88.32H7.67c-.27,0-.34-.06-.34-.34q0-7.2,0-14.39h7.4V81l0,7.33Z"/><path d="M7.34,36.73q0-7.23,0-14.46c0-.26.1-.28.31-.28h7.09c0,4.81,0,9.62,0,14.43,0,.1,0,.2,0,.3H7.34Z"/><path d="M14.74,22q0-3.55,0-7.1c0-.21,0-.31.28-.31h7.12V22H14.74Z"/><path d="M22.14,95.71H15c-.26,0-.28-.1-.28-.3q0-3.56,0-7.1h7.4c0,.12,0,.24,0,.36v7Z"/><path d="M22.14,14.6c0-2.38,0-4.77,0-7.15,0-.2.05-.26.25-.26h7.08v7.4H22.14Z"/><path class="cls-3" d="M51.59,95.71H36.86c0-2.46,0-4.93,0-7.39H51.6Z"/><path class="cls-2" d="M51.59,95.71V88.32H59v7.39h-7.4Z"/><path class="cls-2" d="M36.85,88.32c0,2.46,0,4.93,0,7.39h-7.4V88.33h7.39Z"/><path class="cls-4" d="M36.86,7.2H51.59v7.4H36.87c0-2.46,0-4.93,0-7.4Z"/><path class="cls-1" d="M59,95.72V88.33h7.32q0,3.27,0,6.56v.83Z"/><path class="cls-1" d="M29.46,88.33v7.39H22.13v-7c0-.12,0-.24,0-.36h7.32Z"/><path class="cls-2" d="M51.58,14.59V7.19H59v7.4H51.6Z"/><path class="cls-2" d="M36.86,7.19c0,2.47,0,4.94,0,7.4l0,0H29.46V7.19Z"/><path class="cls-3" d="M81.11,73.59H66.32V66.26c2.36,0,4.71,0,7.06,0,.21,0,.35,0,.35-.29q0-7.11,0-14.22c0-.21,0-.3-.28-.3l-7.12,0H59V44.12H81.1a2.17,2.17,0,0,1,0,.26Z"/><path class="cls-2" d="M81.1,44.13H73.72q0-3.7,0-7.39h7.39c0,2.35,0,4.7,0,7C81.11,43.88,81.11,44,81.1,44.13Z"/><path class="cls-4" d="M73.73,36.73q0,3.69,0,7.39h-7.4q0-3.7,0-7.39c0-2.38,0-4.75,0-7.13,0-.22-.08-.28-.29-.28H51.88c-.21,0-.3.06-.29.28,0,2.38,0,4.75,0,7.13v7.4c0,.12,0,.24,0,.36v7H36.86v-.9c0-2.14,0-4.28,0-6.42v-7.4c0-2.38,0-4.75,0-7.13,0-.22-.08-.28-.29-.28H22.42c-.21,0-.29.06-.29.28,0,2.38,0,4.75,0,7.13s0,4.92,0,7.39h-7.4V36.73c0-.1,0-.2,0-.3,0-4.81,0-9.62,0-14.43h59V36.43C73.72,36.53,73.72,36.63,73.73,36.73Z"/><path class="cls-1" d="M66.32,73.58h7.4l0,7.39H66.33Q66.32,77.29,66.32,73.58Z"/><path class="cls-4" d="M66.33,81H73.7c0,2.44,0,4.88,0,7.33h-7.4Z"/><path class="cls-2" d="M66.32,22H59q0-3.7,0-7.39h7.34Z"/><path class="cls-3" d="M14.73,44.12H29.46v7.33H22.13c-2.34,0-4.68,0-7,0-.32,0-.38.11-.38.4q0,7,0,14c0,.3.07.39.38.39,2.34,0,4.69,0,7,0,0,2.44,0,4.89,0,7.33H7.34V44.39c0-.09,0-.18,0-.26Z"/><path class="cls-2" d="M14.73,44.12H7.35c0-2.13,0-4.25,0-6.38,0-.34,0-.68,0-1h7.39Z"/><path class="cls-1" d="M14.74,73.6h7.39q0,3.7,0,7.41H14.75Z"/><path class="cls-4" d="M14.75,81h7.37v7.33h-7.4Z"/><path class="cls-2" d="M29.46,22H22.13v-7.4h7.34Z"/><path class="cls-4" d="M51.6,88.32H36.86V66.72c0-.15,0-.31,0-.46H51.58c0,.15,0,.31,0,.46v21.6Z"/><path class="cls-5" d="M51.59,88.32V66.72c0-.15,0-.31,0-.46,0-2.47,0-4.93,0-7.39H59q0,3.69,0,7.39c0,2.33,0,4.66,0,7,0,.29.07.35.34.34,2.34,0,4.67,0,7,0h0q0,3.7,0,7.41c0,2.44,0,4.88,0,7.33H51.59Z"/><path class="cls-5" d="M36.87,66.26c0,.15,0,.31,0,.46v21.6H22.13V81q0-3.7,0-7.41h7c.16,0,.31,0,.31-.24,0-2.36,0-4.73,0-7.09V58.87h7.4Z"/><path class="cls-2" d="M51.59,22H36.86V14.61l0,0H51.58l0,0C51.6,17.07,51.59,19.53,51.59,22Z"/><path class="cls-1" d="M51.59,22c0-2.46,0-4.92,0-7.38H59q0,3.69,0,7.39Z"/><path class="cls-1" d="M36.85,14.61V22h-7.4c0-2.47,0-4.93,0-7.39Z"/><path class="cls-2" d="M36.86,58.87H22.14V51.47H66.32q0,3.69,0,7.39H36.86Z"/><path class="cls-4" d="M66.31,58.86q0-3.7,0-7.39l7.12,0c.23,0,.28.09.28.3q0,7.11,0,14.22c0,.29-.14.29-.35.29-2.35,0-4.7,0-7.06,0h0Z"/><path class="cls-2" d="M66.31,36.73q0,3.69,0,7.39H59v-7.4Z"/><path class="cls-1" d="M59,51.45h-7.4v-7c0-.12,0-.24,0-.36H59C59,46.57,59,49,59,51.45Z"/><path class="cls-1" d="M66.32,73.59c-2.33,0-4.66,0-7,0-.27,0-.34,0-.34-.34,0-2.33,0-4.66,0-7h7.31C66.31,68.7,66.32,71.15,66.32,73.59Z"/><path class="cls-3" d="M22.14,36.73c0-2.38,0-4.75,0-7.13,0-.22.08-.28.29-.28H36.57c.21,0,.3.06.29.28,0,2.38,0,4.75,0,7.13H22.14Z"/><path class="cls-3" d="M66.31,36.73H51.6c0-2.38,0-4.75,0-7.13,0-.22.08-.28.29-.28H66c.21,0,.29.06.29.28C66.31,32,66.31,34.35,66.31,36.73Z"/><path class="cls-5" d="M29.46,36.73h7.39v7.4H29.47Z"/><path class="cls-5" d="M51.6,36.73H59v7.4H51.6Z"/><path class="cls-1" d="M29.46,44.12h7.39c0,2.14,0,4.28,0,6.42v.9h-7.4Z"/><path class="cls-2" d="M29.46,36.73v7.4H22.13q0-3.7,0-7.39Z"/><path class="cls-4" d="M22.13,51.47q0,3.69,0,7.39t0,7.4h0c-2.34,0-4.69,0-7,0-.31,0-.38-.09-.38-.39q0-7,0-14c0-.29.06-.4.38-.4C17.45,51.47,19.79,51.46,22.13,51.47Z"/><path class="cls-1" d="M29.45,66.26c0,2.36,0,4.73,0,7.09,0,.29-.15.24-.31.24h-7c0-2.44,0-4.89,0-7.33h7.31Z"/><path class="cls-3" d="M36.86,58.87H51.59c0,2.46,0,4.92,0,7.39H36.87C36.87,63.79,36.86,61.33,36.86,58.87Z"/><path class="cls-3" d="M66.32,66.26H59q0-3.71,0-7.39h7.32Q66.31,62.55,66.32,66.26Z"/><path class="cls-3" d="M29.45,66.26H22.13q0-3.71,0-7.4h7.32Q29.46,62.56,29.45,66.26Z"/></g></g></svg>