<svg width="3443" height="3443" viewBox="0 0 3443 3443" fill="none" xmlns="http://www.w3.org/2000/svg">
<path d="M1113 3357H2321V2815H1113V3357Z" fill="#C468F9"/>
<path d="M1288 3270.85H1460.25V3098.7H1288V3270.85Z" fill="#01522C"/>
<path d="M1026 3185.15H1198.25V3013H1026V3185.15Z" fill="#C468F9"/>
<path d="M1979 3271.15H2151.25V3099H1979V3271.15Z" fill="#01522C"/>
<path d="M2238 3181.15H2410.25V3009H2238V3181.15Z" fill="#C468F9"/>
<path d="M1718 3185H2065V3013H1718V3185Z" fill="#01522C"/>
<path d="M1460 3185.15H1632.25V3013H1460V3185.15Z" fill="#01522C"/>
<path d="M1287.49 2926.55V3098.7H1976.51H2148.76V2926.55H1287.49Z" fill="#01522C"/>
<path d="M1979 3096H2321V2754H1979V3096Z" fill="#DB7144"/>
<path d="M1115 2926.55V3098.7H1459.51V2926.55H1115Z" fill="#E69157"/>
<path d="M2321 2927V2582H1460V2927H2321Z" fill="#57D9DE"/>
<path d="M1465.5 2926.55V2582.25H1285.26V2410.1H1113.01V2926.55H1465.5Z" fill="#57D9DE"/>
<path d="M1115.26 2410.1V2582.25H1196.5V2926.55H1368.75V2582.25H2058.77V2926.55H2231.03V2582.25H2321.03V2410.1H1115.26Z" fill="#2D999D"/>
<path d="M1546 3013V3185.15H1718.25V3013H1546Z" fill="#E69157"/>
<path d="M1115.25 2237.95H942.998V2410.1H1115.25V2237.95Z" fill="#DB7144"/>
<path d="M1459.75 1893.65H1632V2065.8H1976.51V1893.65H2148.76V1549.35H1459.75V1893.65ZM2321.01 1377.2V1721.5H2493.27V1377.2H2321.01ZM942.992 1377.2H1115.24V1721.5H1287.5V1377.2H1115.24V1205.05H2665.52V2237.95H2493.27V2410.1H1115.24V2237.95H942.992V1377.2Z" fill="#E69157"/>
<path d="M770.742 2237.95H942.993V1721.5H598.488V1893.65H770.742V2237.95Z" fill="#DB7144"/>
<path d="M770.742 1893.65H598.492V2065.8H770.742V1893.65Z" fill="#7F2F1A"/>
<path d="M1632 1893.65V2065.8H1976.51V1893.65H2148.76V1549.35H1459.75V1893.65H1632Z" fill="#F4F1EB"/>
<path d="M2321.02 1721.5H2493.27V1377.2H2321.02V1721.5Z" fill="#E1FF00"/>
<path d="M1115.26 1721.5H1287.51V1377.2H1115.26V1721.5Z" fill="#00C864"/>
<path d="M770.742 1549.35H598.492V1721.5H770.742V1549.35Z" fill="#E69157"/>
<path d="M1115.25 1205.05H942.998V1377.2H1115.25V1205.05Z" fill="#DB7144"/>
<path d="M2665.52 1205.05V1032.9H1115.24V1205.05H2665.52Z" fill="#DB7144"/>
<path d="M2665.53 688.6H1459.77V860.75H770.755V1032.9H598.5V1549.35H770.755V1721.5H943.006V1205.05H1115.26V1032.9H2665.53V860.75H2837.79V516.45H2665.53V688.6Z" fill="#6D0F61"/>
<path d="M2665.53 0H1976.52V172.15H1287.51V344.3H943.006V516.45H770.755V688.6H598.5V1032.9H770.755V860.75H1459.77V688.6H2665.53V516.45H2837.79V172.15H2665.53V0Z" fill="#7F1A72"/>
</svg>
