<?xml version="1.0" encoding="utf-8"?>
<!-- Generator: Adobe Illustrator 25.4.0, SVG Export Plug-In . SVG Version: 6.00 Build 0)  -->
<svg version="1.1" id="Layer_1" xmlns="http://www.w3.org/2000/svg" xmlns:xlink="http://www.w3.org/1999/xlink" x="0px" y="0px"
	 viewBox="0 0 60 60" style="enable-background:new 0 0 60 60;" xml:space="preserve">
<style type="text/css">
	.st0{fill:#FE9431;}
	.st1{fill:#36FEDE;}
	.st2{fill:#B8C2FE;}
	.st3{fill:#3854FE;}
	.st4{fill:#FED30B;}
</style>
<g>
	<path d="M47.2,60c-11.5,0-23,0-34.5,0c0-4.2,0-8.4,0-12.6c0-0.2,0-0.2-0.2-0.2c-4.1,0-8.3,0-12.4,0c0-7.2,0-14.3,0-21.5
		c1.3,0,2.5,0,3.8,0c0.2,0,0.2,0,0.2-0.2c0-2.7,0-5.5,0-8.2c0-0.1,0-0.2,0.2-0.2c1.4,0,2.8,0,4.1,0c0,0.4,0,0.8,0,1.1
		c0,1.1,0,2.1,0,3.2c0,0.3,0,0.5,0,0.8c0,1.2,0,2.4,0,3.5c0,0.1,0,0.1,0,0.2c0,1.4,0,2.7,0,4.1l0,0c-1.4,0-2.8,0-4.1,0
		C4,30,4,30.1,4,30.2c0,4.2,0,8.4,0,12.5c0,0,0,0,0,0.1c0,0.1,0,0.1,0.1,0.1c0.3,0,0.6,0,0.9,0c1.1,0,2.2,0,3.3,0c0.1,0,0.1,0,0.2,0
		c1.3,0,2.6,0,3.9,0c0.2,0,0.2,0,0.2-0.2c0-4.2,0-8.3,0-12.5c0-0.1,0-0.1,0-0.2c0-0.1,0-0.1,0-0.2c0-1.4,0-2.7,0-4.1l0,0
		c0.2,0,0.5,0,0.7,0c1.1,0,2.3,0,3.4,0c0.1,0,0.2,0,0.2,0.2c0,0.2,0,0.3,0,0.5c0,1.2,0,2.5,0,3.7c0,0.1,0,0.2,0,0.3c0,1.3,0,2.7,0,4
		c0,0.1,0,0.1,0,0.2c0,1.3,0,2.6,0,3.9c0,0.2,0,0.2,0.2,0.2c8.5,0,17,0,25.5,0c0,0,0.1,0,0.1,0c0.1,0,0.1,0,0.1-0.1
		c0-0.1,0-0.2,0-0.3c0-1.3,0-2.6,0-3.9c0-0.4,0-0.8,0-1.2c0-1,0-2.1,0-3.1c0-0.1,0-0.1,0-0.2c0-1.3,0-2.6,0-4c0-0.1,0-0.2,0.1-0.2
		c1.4,0,2.8,0,4.2,0l0,0c0,0.4,0,0.8,0,1.2c0,1,0,2.1,0,3.1c0,0,0,0.1,0,0.1c0,4.2,0,8.4,0,12.6c0,0,0,0,0,0.1c0,0.1,0,0.1,0.1,0.1
		c0.1,0,0.2,0,0.4,0c1.3,0,2.6,0,3.8,0c0.1,0,0.1,0,0.2,0c1.3,0,2.7,0,4,0c0.1,0,0.2,0,0.2-0.2c0-4.2,0-8.4,0-12.6
		c0-0.1,0-0.2-0.2-0.2c-1.4,0-2.8,0-4.1,0l0,0c0-0.4,0-0.8,0-1.2c0-1,0-2.1,0-3.1c0-0.2,0-0.4,0-0.7c0-1.2,0-2.4,0-3.6
		c0-1.4,0-2.9,0-4.3c1.4,0,2.8,0,4.1,0c0.2,0,0.2,0,0.2,0.2c0,2.7,0,5.5,0,8.2c0,0.1,0,0.2,0.2,0.2c1.3,0,2.7,0,4,0
		c0,7.2,0,14.3,0,21.5c-4.2,0-8.4,0-12.7,0c-0.2,0-0.2,0-0.2,0.2C47.2,51.6,47.2,55.8,47.2,60z M38.5,55.8c1.3,0,2.5,0,3.8,0
		c0.2,0,0.4,0.1,0.5,0c0.1-0.1,0-0.3,0-0.5c0-1.3,0-2.5,0-3.8c0-0.2,0-0.5,0-0.7c0-1.2,0-2.4,0-3.6c0-1.3,0-2.5,0-3.8
		c0-0.2,0.1-0.4,0-0.5c-0.1-0.1-0.3,0-0.5,0c-1.3,0-2.5,0-3.8,0c-0.2,0-0.3,0-0.5,0c-1.2,0-2.5,0-3.7,0c-0.1,0-0.2,0-0.2,0.2
		c0,0.2,0,0.4,0,0.6c0,1.2,0,2.4,0,3.6c0,0.2,0,0.5,0,0.7c0,1.2,0,2.4,0,3.6c0,0.1,0,0.1,0,0.2c0,1.3,0,2.5,0,3.8
		c0,0.3,0,0.3,0.3,0.3C35.9,55.8,37.2,55.8,38.5,55.8z M21.2,55.8c0.2,0,0.3,0,0.5,0c1.2,0,2.4,0,3.7,0c0.1,0,0.2,0,0.2-0.2
		c0-0.2,0-0.3,0-0.5c0-1.2,0-2.4,0-3.6c0-0.2,0-0.3,0-0.5c0-1.3,0-2.5,0-3.8c0-0.1,0-0.3,0-0.4c0-1.2,0-2.5,0-3.7
		c0-0.1,0-0.2-0.2-0.2c-0.2,0-0.3,0-0.5,0c-1.2,0-2.4,0-3.6,0c-1.3,0-2.5,0-3.8,0c-0.2,0-0.4-0.1-0.5,0c-0.1,0.1,0,0.3,0,0.5
		c0,1.3,0,2.5,0,3.8c0,0.3,0,0.5,0,0.8c0,1.2,0,2.4,0,3.5c0,1.4,0,2.8,0,4.2c0,0.1,0.1,0.1,0.1,0.1c0.5,0,1.1,0,1.6,0
		C19.6,55.8,20.4,55.8,21.2,55.8z"/>
	<path d="M12.6-0.1c11.5,0,23,0,34.5,0c0,4.3,0,8.6,0,12.9c-0.4,0-0.8,0-1.1,0c-1.1,0-2.1,0-3.2,0c-0.1,0-0.1,0-0.2,0
		c-1.4,0-2.7,0-4.1,0c0-1.4,0-2.9,0-4.3c0,0,0.1,0,0.1,0c1.3,0,2.7,0,4,0c0.1,0,0.2,0,0.2-0.2c0-0.2,0-0.4,0-0.6c0-1.1,0-2.3,0-3.4
		c0-0.1,0-0.2-0.2-0.2c-0.2,0-0.3,0-0.5,0c-1.2,0-2.5,0-3.7,0c-0.4,0-0.8,0-1.1,0c-1.1,0-2.1,0-3.2,0c0,0-0.1,0-0.1,0
		c-2.8,0-5.6,0-8.4,0c0,0-0.1,0-0.1,0c-0.4,0-0.8,0-1.1,0c-1.1,0-2.1,0-3.2,0c-1.4,0-2.8,0-4.2,0c-0.1,0-0.1,0.1-0.1,0.1
		c0,1.3,0,2.7,0,4c0,0.1,0,0.1,0.1,0.1c1.4,0,2.8,0,4.2,0l0,0c0,1.4,0,2.9,0,4.3c-0.4,0-0.8,0-1.2,0c-1,0-2.1,0-3.1,0
		c-1.4,0-2.9,0-4.3,0C12.6,8.5,12.6,4.2,12.6-0.1z"/>
	<path class="st0" d="M42.8,34.3c0,1.3,0,2.6,0,3.9c0,0.1,0,0.2,0,0.3c0,0.1,0,0.1-0.1,0.1c0,0-0.1,0-0.1,0c-8.5,0-17,0-25.5,0
		c-0.2,0-0.2,0-0.2-0.2c0-1.3,0-2.6,0-3.9c0-0.1,0-0.1,0-0.2c1.4,0,2.7,0,4.1,0c0.2,0,0.2,0,0.2-0.2c0-0.7,0-1.5,0-2.2
		c0-0.6,0-1.3,0-1.9l0,0c1.4,0,2.8,0,4.2,0c0.1,0,0.1-0.1,0.1-0.1c0-0.6,0-1.2,0-1.7c0-0.8,0-1.6,0-2.4l0,0c0.1,0,0.1,0,0.2,0
		c2.8,0,5.5,0,8.3,0c0.1,0,0.1,0,0.2,0l0,0c0,1.4,0,2.8,0,4.2c0,0.1,0.1,0.1,0.1,0.1c0.6,0,1.1,0,1.7,0c0.8,0,1.7,0,2.5,0l0,0
		c0,0.1,0,0.1,0,0.2c0,1.3,0,2.6,0,3.9c0,0.2,0,0.2,0.2,0.2C40.1,34.3,41.5,34.3,42.8,34.3z"/>
	<path class="st1" d="M47.2,25.7c-1.4,0-2.8,0-4.2,0c-0.1,0-0.1,0.1-0.1,0.2c0,1.3,0,2.6,0,4c0,0.1,0,0.1,0,0.2c-1.4,0-2.9,0-4.3,0
		l0,0c0-1.4,0-2.8,0-4.1c0-0.1,0-0.2-0.2-0.2c-1.4,0-2.8,0-4.2,0c0,0,0,0,0,0c0-1.4,0-2.9,0-4.3c0.1,0,0.1,0,0.2,0c1.3,0,2.6,0,4,0
		c0.1,0,0.2,0,0.2-0.2c0-1.4,0-2.8,0-4.1c0.1,0,0.1,0,0.2,0c1.4,0,2.7,0,4.1,0l0,0c0,1.4,0,2.8,0,4.1c0,0.1,0,0.2,0.2,0.2
		c1.4,0,2.8,0,4.2,0l0,0C47.2,22.9,47.2,24.3,47.2,25.7z"/>
	<path class="st1" d="M16.9,30c0-1.2,0-2.5,0-3.7c0-0.2,0-0.3,0-0.5c0-0.1,0-0.2-0.2-0.2c-1.1,0-2.3,0-3.4,0c-0.2,0-0.5,0-0.7,0
		c0-1.4,0-2.9,0-4.3l0,0c1.4,0,2.8,0,4.2,0c0.1,0,0.2,0,0.2-0.2c0-1.4,0-2.8,0-4.1l0,0c0.2,0,0.4,0,0.6,0c1.2,0,2.5,0,3.7,0
		c0,0.5,0,1,0,1.4c0,0.9,0,1.8,0,2.7c0,0.1,0,0.2,0.2,0.2c0.2,0,0.4,0,0.6,0c1.2,0,2.4,0,3.6,0c0,1.4,0,2.9,0,4.3l0,0
		c-1.4,0-2.8,0-4.2,0c-0.1,0-0.2,0-0.2,0.2c0,1.4,0,2.8,0,4.1l0,0C19.8,30,18.4,30,16.9,30z"/>
	<path class="st2" d="M51.5,30c1.4,0,2.8,0,4.1,0c0.1,0,0.2,0,0.2,0.2c0,4.2,0,8.4,0,12.6c0,0.1,0,0.2-0.2,0.2c-1.3,0-2.7,0-4,0
		c-0.1,0-0.1,0-0.2,0C51.5,38.6,51.5,34.3,51.5,30z"/>
	<path class="st3" d="M51.5,30c0,4.3,0,8.6,0,12.9c-1.3,0-2.6,0-3.8,0c-0.1,0-0.2,0-0.4,0c-0.1,0-0.1,0-0.1-0.1c0,0,0,0,0-0.1
		c0-4.2,0-8.4,0-12.6c0,0,0-0.1,0-0.1C48.6,30,50,30,51.5,30L51.5,30z"/>
	<path class="st3" d="M12.6,30c0,0.1,0,0.1,0,0.2c0,4.2,0,8.3,0,12.5c0,0.2,0,0.2-0.2,0.2c-1.3,0-2.6,0-3.9,0c-0.1,0-0.1,0-0.2,0
		c0-4.3,0-8.6,0-12.9l0,0C9.7,30,11.2,30,12.6,30z"/>
	<path class="st2" d="M8.3,30c0,4.3,0,8.6,0,12.9c-1.1,0-2.2,0-3.3,0c-0.3,0-0.6,0-0.9,0c-0.1,0-0.1,0-0.1-0.1c0,0,0,0,0-0.1
		c0-4.2,0-8.4,0-12.5C4,30.1,4,30,4.2,30C5.5,30,6.9,30,8.3,30z"/>
	<path class="st0" d="M8.3,21.4c0-1.1,0-2.1,0-3.2c0-0.4,0-0.8,0-1.1c0,0,0,0,0,0c1.4,0,2.9,0,4.3,0l0,0c0,0.5,0,1,0,1.5
		c0,0.9,0,1.8,0,2.8c0,0,0,0,0,0c-0.1,0-0.1,0-0.2,0C11.1,21.4,9.7,21.4,8.3,21.4z"/>
	<path class="st0" d="M51.5,17.1c0,1.4,0,2.9,0,4.3c-1,0-1.9,0-2.9,0c-0.5,0-0.9,0-1.4,0l0,0c0-0.1,0-0.1,0-0.2c0-1.4,0-2.7,0-4.1
		l0,0C48.6,17.1,50,17.1,51.5,17.1L51.5,17.1z"/>
	<path class="st4" d="M8.3,21.4c1.4,0,2.8,0,4.1,0c0.1,0,0.1,0,0.2,0c0,1.4,0,2.9,0,4.3c0,0,0,0,0,0c-1.4,0-2.9,0-4.3,0
		c0-1.2,0-2.4,0-3.5C8.3,21.9,8.3,21.7,8.3,21.4z"/>
	<path class="st4" d="M47.2,21.4c0.5,0,0.9,0,1.4,0c1,0,1.9,0,2.9,0c0,1.2,0,2.4,0,3.6c0,0.2,0,0.4,0,0.7c-1.4,0-2.9,0-4.3,0l0,0
		C47.2,24.3,47.2,22.9,47.2,21.4z"/>
	<path class="st2" d="M8.3,25.7c1.4,0,2.9,0,4.3,0c0,1.4,0,2.7,0,4.1c0,0.1,0,0.1,0,0.2c-1.4,0-2.9,0-4.3,0c0-1.4,0-2.7,0-4.1
		C8.3,25.8,8.3,25.8,8.3,25.7z"/>
	<path class="st2" d="M47.1,25.7c1.4,0,2.9,0,4.3,0c0,1,0,2.1,0,3.1c0,0.4,0,0.8,0,1.2c-1.4,0-2.9,0-4.3,0c0-1,0-2.1,0-3.1
		C47.1,26.5,47.1,26.1,47.1,25.7z"/>
	<path class="st4" d="M16.9,30c1.4,0,2.9,0,4.3,0c0,0.6,0,1.3,0,1.9c0,0.7,0,1.5,0,2.2c0,0.2,0,0.2-0.2,0.2c-1.4,0-2.7,0-4.1,0
		c0-1.3,0-2.7,0-4C16.9,30.2,16.9,30.1,16.9,30z"/>
	<path class="st4" d="M38.5,30c1.4,0,2.9,0,4.3,0c0,1,0,2.1,0,3.1c0,0.4,0,0.8,0,1.2c-1.4,0-2.7,0-4.1,0c-0.2,0-0.2,0-0.2-0.2
		c0-1.3,0-2.6,0-3.9C38.5,30.1,38.5,30.1,38.5,30z"/>
	<path class="st3" d="M16.9,47.2c0-1.3,0-2.5,0-3.8c0-0.2-0.1-0.4,0-0.5c0.1-0.1,0.3,0,0.5,0c1.3,0,2.5,0,3.8,0c0,1.4,0,2.9,0,4.3
		C19.8,47.2,18.4,47.2,16.9,47.2z"/>
	<path class="st2" d="M21.2,47.2c0-1.4,0-2.9,0-4.3c1.2,0,2.4,0,3.6,0c0.2,0,0.3,0,0.5,0c0.1,0,0.2,0,0.2,0.2c0,1.2,0,2.5,0,3.7
		c0,0.1,0,0.3,0,0.4C24.1,47.2,22.7,47.2,21.2,47.2L21.2,47.2z"/>
	<path class="st2" d="M34.2,47.2c0-1.2,0-2.4,0-3.6c0-0.2,0-0.4,0-0.6c0-0.1,0-0.2,0.2-0.2c1.2,0,2.5,0,3.7,0c0.2,0,0.3,0,0.5,0
		c0,1.4,0,2.9,0,4.3C37.1,47.2,35.6,47.2,34.2,47.2z"/>
	<path class="st3" d="M38.5,47.2c0-1.4,0-2.9,0-4.3c1.3,0,2.5,0,3.8,0c0.2,0,0.4-0.1,0.5,0c0.1,0.1,0,0.3,0,0.5c0,1.3,0,2.5,0,3.8
		C41.4,47.2,40,47.2,38.5,47.2L38.5,47.2z"/>
	<path class="st2" d="M16.9,47.2c1.4,0,2.9,0,4.3,0l0,0c0,1.4,0,2.9,0,4.3c-1.4,0-2.9,0-4.3,0c0-1.2,0-2.4,0-3.5
		C16.9,47.7,16.9,47.5,16.9,47.2z"/>
	<path class="st3" d="M21.2,51.5c0-1.4,0-2.9,0-4.3c1.4,0,2.9,0,4.3,0c0,1.3,0,2.5,0,3.8c0,0.2,0,0.3,0,0.5
		C24.1,51.5,22.7,51.5,21.2,51.5L21.2,51.5z"/>
	<path class="st3" d="M34.2,47.2c1.4,0,2.9,0,4.3,0c0,0,0,0,0,0c0,1.4,0,2.9,0,4.3c-1.4,0-2.9,0-4.3,0c0-1.2,0-2.4,0-3.6
		C34.2,47.7,34.2,47.5,34.2,47.2z"/>
	<path class="st2" d="M38.5,51.5c0-1.4,0-2.9,0-4.3c1.4,0,2.9,0,4.3,0c0,1.2,0,2.4,0,3.6c0,0.2,0,0.5,0,0.7
		C41.4,51.5,40,51.5,38.5,51.5L38.5,51.5z"/>
	<path class="st3" d="M16.9,51.5c1.4,0,2.9,0,4.3,0l0,0c0,1.4,0,2.9,0,4.3c-0.8,0-1.7,0-2.5,0c-0.5,0-1.1,0-1.6,0
		c-0.1,0-0.1,0-0.1-0.1C16.9,54.3,16.9,52.9,16.9,51.5z"/>
	<path class="st2" d="M21.2,55.8c0-1.4,0-2.9,0-4.3c1.4,0,2.9,0,4.3,0c0,1.2,0,2.4,0,3.6c0,0.2,0,0.3,0,0.5c0,0.1,0,0.2-0.2,0.2
		c-1.2,0-2.4,0-3.7,0C21.6,55.8,21.4,55.8,21.2,55.8z"/>
	<path class="st2" d="M34.2,51.5c1.4,0,2.9,0,4.3,0l0,0c0,1.4,0,2.9,0,4.3c-1.3,0-2.7,0-4,0c-0.3,0-0.3,0-0.3-0.3c0-1.3,0-2.5,0-3.8
		C34.2,51.7,34.2,51.6,34.2,51.5z"/>
	<path class="st3" d="M38.5,55.8c0-1.4,0-2.9,0-4.3c1.4,0,2.9,0,4.3,0c0,1.3,0,2.5,0,3.8c0,0.2,0.1,0.4,0,0.5c-0.1,0.1-0.3,0-0.5,0
		C41,55.8,39.8,55.8,38.5,55.8z"/>
	<path class="st4" d="M25.6,4.2c0,0,0.1,0,0.1,0c2.8,0,5.6,0,8.4,0c0,0,0.1,0,0.1,0c0,1.4,0,2.9,0,4.3l0,0c-0.1,0-0.1,0-0.2,0
		c-2.7,0-5.5,0-8.2,0c-0.1,0-0.1,0-0.2,0l0,0C25.6,7.1,25.6,5.7,25.6,4.2z"/>
	<path class="st0" d="M42.8,12.8c1.1,0,2.1,0,3.2,0c0.4,0,0.8,0,1.1,0c0,0,0,0,0,0c0,1.4,0,2.9,0,4.3l0,0c-0.5,0-1.1,0-1.6,0
		c-0.9,0-1.8,0-2.7,0l0,0c0-0.1,0-0.1,0-0.2C42.8,15.6,42.8,14.2,42.8,12.8z"/>
	<path class="st4" d="M42.8,12.8c0,1.4,0,2.8,0,4.1c0,0.1,0,0.1,0,0.2c-1.4,0-2.7,0-4.1,0c-0.1,0-0.1,0-0.2,0l0,0c0-1.4,0-2.9,0-4.3
		l0,0c1.4,0,2.7,0,4.1,0C42.7,12.8,42.8,12.8,42.8,12.8z"/>
	<path class="st4" d="M21.2,17.1c-1.2,0-2.5,0-3.7,0c-0.2,0-0.4,0-0.6,0c0-0.1,0-0.1,0-0.2c0-1.4,0-2.8,0-4.1c1,0,2.1,0,3.1,0
		c0.4,0,0.8,0,1.2,0l0,0C21.2,14.3,21.3,15.7,21.2,17.1L21.2,17.1z"/>
	<path class="st0" d="M16.9,12.8c0,1.4,0,2.8,0,4.1c0,0.1,0,0.1,0,0.2l0,0c-0.1,0-0.1,0-0.2,0c-1.4,0-2.7,0-4.1,0l0,0
		c0-1.4,0-2.9,0-4.3c0,0,0,0,0,0C14.1,12.8,15.5,12.8,16.9,12.8z"/>
	<path class="st1" d="M38.5,8.5c0,1.4,0,2.9,0,4.3l0,0c-0.5,0-1.1,0-1.6,0c-0.9,0-1.8,0-2.7,0c0-1.4,0-2.9,0-4.3l0,0
		C35.6,8.5,37.1,8.5,38.5,8.5L38.5,8.5z"/>
	<path class="st1" d="M21.2,12.8c0-1.4,0-2.9,0-4.3c0.1,0,0.1,0,0.2,0c1.4,0,2.7,0,4.1,0l0,0c0,1.4,0,2.9,0,4.3c-0.1,0-0.1,0-0.2,0
		C24,12.8,22.6,12.8,21.2,12.8L21.2,12.8z"/>
	<path class="st4" d="M38.5,4.2c1.2,0,2.5,0,3.7,0c0.2,0,0.3,0,0.5,0c0.1,0,0.2,0,0.2,0.2c0,1.1,0,2.3,0,3.4c0,0.2,0,0.4,0,0.6
		c0,0.1,0,0.2-0.2,0.2c-1.3,0-2.7,0-4,0c0,0-0.1,0-0.1,0l0,0C38.5,7.1,38.5,5.7,38.5,4.2z"/>
	<path class="st0" d="M38.5,4.2c0,1.4,0,2.9,0,4.3c-1.4,0-2.9,0-4.3,0c0-1.4,0-2.9,0-4.3c1.1,0,2.1,0,3.2,0
		C37.8,4.2,38.1,4.2,38.5,4.2z"/>
	<path class="st0" d="M25.6,8.5c-1.4,0-2.7,0-4.1,0c-0.1,0-0.1,0-0.2,0l0,0c0-1.4,0-2.9,0-4.3c1.1,0,2.1,0,3.2,0c0.4,0,0.8,0,1.1,0
		C25.6,5.7,25.6,7.1,25.6,8.5z"/>
	<path class="st4" d="M21.2,4.2c0,1.4,0,2.9,0,4.3c-1.4,0-2.8,0-4.2,0c-0.1,0-0.1,0-0.1-0.1c0-1.3,0-2.7,0-4c0-0.1,0-0.1,0.1-0.1
		C18.4,4.2,19.8,4.2,21.2,4.2z"/>
	<path d="M47.1,17.1c0-1.4,0-2.9,0-4.3c1.4,0,2.8,0,4.1,0c0.1,0,0.2,0,0.2,0.2c0,1.4,0,2.8,0,4.1C50,17.1,48.6,17.1,47.1,17.1z"/>
	<path d="M12.6,12.8c0,1.4,0,2.9,0,4.3c-1.4,0-2.9,0-4.3,0c0-1.4,0-2.8,0-4.1c0-0.1,0-0.2,0.2-0.2C9.9,12.8,11.2,12.8,12.6,12.8z"/>
	<path class="st4" d="M25.6,25.7c0-1.4,0-2.9,0-4.3c0,0,0.1,0,0.1,0c2.8,0,5.6,0,8.4,0c0,0,0.1,0,0.1,0c0,1.4,0,2.9,0,4.3
		c-0.1,0-0.1,0-0.2,0c-2.8,0-5.5,0-8.3,0C25.7,25.7,25.6,25.7,25.6,25.7z"/>
	<path d="M21.2,30c0-1.4,0-2.8,0-4.1c0-0.1,0-0.2,0.2-0.2c1.4,0,2.8,0,4.2,0c0,0.8,0,1.6,0,2.4c0,0.6,0,1.2,0,1.7
		c0,0.1,0,0.1-0.1,0.1C24.1,30,22.7,30,21.2,30z"/>
	<path d="M34.2,25.7c1.4,0,2.8,0,4.2,0c0.1,0,0.2,0,0.2,0.2c0,1.4,0,2.8,0,4.1c-0.8,0-1.7,0-2.5,0c-0.6,0-1.1,0-1.7,0
		c-0.1,0-0.1,0-0.1-0.1C34.2,28.5,34.2,27.1,34.2,25.7z"/>
	<path d="M34.2,21.4c0,0-0.1,0-0.1,0c-2.8,0-5.6,0-8.4,0c0,0-0.1,0-0.1,0c-1.2,0-2.4,0-3.6,0c-0.2,0-0.4,0-0.6,0
		c-0.1,0-0.2,0-0.2-0.2c0-0.9,0-1.8,0-2.7c0-0.5,0-1,0-1.4l0,0c0.4,0,0.7,0,1.1,0c1.1,0,2.1,0,3.2,0c0,0,0.1,0,0.1,0
		c2.8,0,5.6,0,8.4,0c0,0,0.1,0,0.1,0c1.4,0,2.9,0,4.3,0l0,0c0,1.4,0,2.8,0,4.1c0,0.1,0,0.2-0.2,0.2c-1.3,0-2.6,0-4,0
		C34.3,21.4,34.3,21.4,34.2,21.4z"/>
	<path d="M42.8,17.1c0.9,0,1.8,0,2.7,0c0.5,0,1.1,0,1.6,0c0,1.4,0,2.7,0,4.1c0,0.1,0,0.1,0,0.2c-1.4,0-2.8,0-4.2,0
		c-0.1,0-0.2,0-0.2-0.2C42.8,19.9,42.8,18.5,42.8,17.1z"/>
	<path d="M12.6,17.1c1.4,0,2.7,0,4.1,0c0.1,0,0.1,0,0.2,0c0,1.4,0,2.8,0,4.1c0,0.1,0,0.2-0.2,0.2c-1.4,0-2.8,0-4.2,0
		c0-0.9,0-1.8,0-2.8C12.6,18.1,12.6,17.6,12.6,17.1z"/>
	<path d="M25.6,12.8c0-1.4,0-2.9,0-4.3c0.1,0,0.1,0,0.2,0c2.7,0,5.5,0,8.2,0c0.1,0,0.1,0,0.2,0c0,1.4,0,2.9,0,4.3l0,0
		C31.3,12.8,28.4,12.8,25.6,12.8L25.6,12.8z"/>
	<path class="st0" d="M38.5,17.1c-1.4,0-2.9,0-4.3,0c0-1.4,0-2.9,0-4.3l0,0c0.9,0,1.8,0,2.7,0c0.5,0,1.1,0,1.6,0
		C38.5,14.3,38.5,15.7,38.5,17.1z"/>
	<path class="st0" d="M25.6,17.1c-1.1,0-2.1,0-3.2,0c-0.4,0-0.7,0-1.1,0c0-1.4,0-2.9,0-4.3c1.4,0,2.7,0,4.1,0c0.1,0,0.1,0,0.2,0l0,0
		C25.6,14.3,25.6,15.7,25.6,17.1z"/>
	<path class="st4" d="M25.6,17.1c0-1.4,0-2.9,0-4.3c2.9,0,5.8,0,8.6,0c0,1.4,0,2.9,0,4.3c0,0-0.1,0-0.1,0c-2.8,0-5.6,0-8.4,0
		C25.6,17.1,25.6,17.1,25.6,17.1z"/>
</g>
</svg>
