<svg width="32" height="32" viewBox="0 0 32 32" fill="none" xmlns="http://www.w3.org/2000/svg">
<mask id="mask0_109_2597" style="mask-type:luminance" maskUnits="userSpaceOnUse" x="0" y="0" width="32" height="32">
<path d="M0 32H32V0H0V32Z" fill="white"/>
</mask>
<g mask="url(#mask0_109_2597)">
<g filter="url(#filter0_d_109_2597)">
<path d="M32 31.5H0M32 30.5H0M32 29.5H30M27 29.5H23M21 29.5H18M14 29.5H11M9 29.5H5M2 29.5H0M32 28.5H30M27 28.5H23M21 28.5H18M14 28.5H11M9 28.5H5M2 28.5H0M32 27.5H30M27 27.5H23M21 27.5H18M14 27.5H11M9 27.5H5M2 27.5H0M32 26.5H30M27 26.5H25M7 26.5H5M2 26.5H0M32 25.5H30M27 25.5H25M7 25.5H5M2 25.5H0M32 24.5H30M27 24.5H25M18 24.5H14M7 24.5H5M2 24.5H0M32 23.5H30M27 23.5H25M18 23.5H14M7 23.5H5M2 23.5H0M32 22.5H30M2 22.5H0M32 21.5H30M2 21.5H0M32 20.5H30M25 20.5H23M18 20.5H14M9 20.5H7M2 20.5H0M32 19.5H30M25 19.5H23M18 19.5H14M9 19.5H7M2 19.5H0M32 18.5H30M25 18.5H23M18 18.5H14M9 18.5H7M2 18.5H0M32 17.5H27M23 17.5H18M14 17.5H9M5 17.5H0M32 16.5H27M23 16.5H18M14 16.5H9M5 16.5H0M32 15.5H27M5 15.5H0M32 14.5H27M5 14.5H0M32 13.5H30M18 13.5H14M2 13.5H0M32 12.5H30M18 12.5H14M2 12.5H0M32 11.5H30M18 11.5H14M2 11.5H0M32 10.5H27M25 10.5H23M9 10.5H7M5 10.5H0M32 9.5H27M25 9.5H23M9 9.5H7M5 9.5H0M32 8.5H30M2 8.5H0M32 7.5H30M2 7.5H0M32 6.5H27M5 6.5H0M32 5.5H27M5 5.5H0M30 4.5H27M25 4.5H21M11 4.5H7M5 4.5H2M30 3.5H27M25 3.5H21M11 3.5H7M5 3.5H2M30 2.5H27M25 2.5H21M11 2.5H7M5 2.5H2M30 1.5H2M30 0.5H2" stroke="#161A00"/>
<path d="M30 29.5H27M23 29.5H21M18 29.5H14M11 29.5H9M5 29.5H2M30 28.5H27M23 28.5H21M18 28.5H14M11 28.5H9M5 28.5H2M30 27.5H27M23 27.5H21M18 27.5H14M11 27.5H9M5 27.5H2M30 26.5H27M25 26.5H18M14 26.5H7M5 26.5H2M30 25.5H27M25 25.5H18M14 25.5H7M5 25.5H2M30 24.5H27M25 24.5H18M14 24.5H7M5 24.5H2M30 23.5H27M25 23.5H18M14 23.5H7M5 23.5H2M30 22.5H25M23 22.5H18M14 22.5H9M7 22.5H2M30 21.5H25M23 21.5H18M14 21.5H9M7 21.5H2M27 20.5H25M7 20.5H5M27 19.5H25M7 19.5H5M27 18.5H25M7 18.5H5M27 17.5H23M18 17.5H14M9 17.5H5M27 16.5H23M18 16.5H14M9 16.5H5M27 15.5H18M14 15.5H5M27 14.5H18M14 14.5H5M27 13.5H25M23 13.5H18M14 13.5H9M7 13.5H5M27 12.5H25M23 12.5H18M14 12.5H9M7 12.5H5M27 11.5H25M23 11.5H18M14 11.5H9M7 11.5H5M27 10.5H25M23 10.5H9M7 10.5H5M27 9.5H25M23 9.5H9M7 9.5H5M27 8.5H5M27 7.5H5M27 6.5H25M21 6.5H11M7 6.5H5M27 5.5H25M21 5.5H11M7 5.5H5" stroke="#ECFF80"/>
<path d="M18 26.5H14M18 25.5H14M25 22.5H23M18 22.5H14M9 22.5H7M25 21.5H23M18 21.5H14M9 21.5H7M30 20.5H27M23 20.5H18M14 20.5H9M5 20.5H2M30 19.5H27M23 19.5H18M14 19.5H9M5 19.5H2M30 18.5H27M23 18.5H18M14 18.5H9M5 18.5H2M18 15.5H14M18 14.5H14M30 13.5H27M25 13.5H23M9 13.5H7M5 13.5H2M30 12.5H27M25 12.5H23M9 12.5H7M5 12.5H2M30 11.5H27M25 11.5H23M9 11.5H7M5 11.5H2M30 8.5H27M5 8.5H2M30 7.5H27M5 7.5H2M25 6.5H21M11 6.5H7M25 5.5H21M11 5.5H7M27 4.5H25M21 4.5H11M7 4.5H5M27 3.5H25M21 3.5H11M7 3.5H5M27 2.5H25M21 2.5H11M7 2.5H5" stroke="#C3E600"/>
</g>
</g>
<defs>
<filter id="filter0_d_109_2597" x="-4" y="0" width="40" height="40" filterUnits="userSpaceOnUse" color-interpolation-filters="sRGB">
<feFlood flood-opacity="0" result="BackgroundImageFix"/>
<feColorMatrix in="SourceAlpha" type="matrix" values="0 0 0 0 0 0 0 0 0 0 0 0 0 0 0 0 0 0 127 0" result="hardAlpha"/>
<feOffset dy="4"/>
<feGaussianBlur stdDeviation="2"/>
<feComposite in2="hardAlpha" operator="out"/>
<feColorMatrix type="matrix" values="0 0 0 0 0 0 0 0 0 0 0 0 0 0 0 0 0 0 0.25 0"/>
<feBlend mode="normal" in2="BackgroundImageFix" result="effect1_dropShadow_109_2597"/>
<feBlend mode="normal" in="SourceGraphic" in2="effect1_dropShadow_109_2597" result="shape"/>
</filter>
</defs>
</svg>
