<svg xmlns="http://www.w3.org/2000/svg" viewBox="0 -0.5 32 32" shape-rendering="crispEdges">
<metadata>Made with Pixels to Svg https://codepen.io/shshaw/pen/XbxvNj</metadata>
<path stroke="#00191a" d="M0 0h32M0 1h32M0 2h32M0 3h3M5 3h3M24 3h3M29 3h3M0 4h3M5 4h3M24 4h3M29 4h3M0 5h5M8 5h3M21 5h3M27 5h5M0 6h5M8 6h3M21 6h3M27 6h5M0 7h5M8 7h3M21 7h3M27 7h5M0 8h3M8 8h5M19 8h5M29 8h3M0 9h3M8 9h5M19 9h5M29 9h3M0 10h3M8 10h5M19 10h5M29 10h3M0 11h5M8 11h3M21 11h3M27 11h5M0 12h5M8 12h3M21 12h3M27 12h5M0 13h8M11 13h2M19 13h2M24 13h8M0 14h8M11 14h2M19 14h2M24 14h8M0 15h8M11 15h2M19 15h2M24 15h8M0 16h3M8 16h5M19 16h5M29 16h3M0 17h3M8 17h5M19 17h5M29 17h3M0 18h3M8 18h5M19 18h5M29 18h3M0 19h3M8 19h3M13 19h6M21 19h3M29 19h3M0 20h3M8 20h3M13 20h6M21 20h3M29 20h3M0 21h3M29 21h3M0 22h3M29 22h3M0 23h3M29 23h3M0 24h3M11 24h10M29 24h3M0 25h3M11 25h10M29 25h3M0 26h3M11 26h10M29 26h3M0 27h3M11 27h2M19 27h2M29 27h3M0 28h3M11 28h2M19 28h2M29 28h3M0 29h32M0 30h32M0 31h32" />
<path stroke="#00dee6" d="M3 3h2M8 3h16M27 3h2M3 4h2M8 4h16M27 4h2M5 5h3M24 5h3M5 6h3M24 6h3M5 7h3M24 7h3M3 8h2M27 8h2M3 9h2M27 9h2M3 10h2M27 10h2M11 11h2M19 11h2M11 12h2M19 12h2M8 13h3M21 13h3M8 14h3M21 14h3M8 15h3M21 15h3M3 16h5M24 16h5M3 17h5M24 17h5M3 18h5M24 18h5M11 19h2M19 19h2M11 20h2M19 20h2M8 21h3M13 21h6M21 21h3M8 22h3M13 22h6M21 22h3M8 23h3M13 23h6M21 23h3M13 27h6M13 28h6" />
<path stroke="#80fbff" d="M11 5h10M11 6h10M11 7h10M5 8h3M13 8h6M24 8h3M5 9h3M13 9h6M24 9h3M5 10h3M13 10h6M24 10h3M5 11h3M13 11h6M24 11h3M5 12h3M13 12h6M24 12h3M13 13h6M13 14h6M13 15h6M13 16h6M13 17h6M13 18h6M3 19h5M24 19h5M3 20h5M24 20h5M3 21h5M11 21h2M19 21h2M24 21h5M3 22h5M11 22h2M19 22h2M24 22h5M3 23h5M11 23h2M19 23h2M24 23h5M3 24h8M21 24h8M3 25h8M21 25h8M3 26h8M21 26h8M3 27h8M21 27h8M3 28h8M21 28h8" />
</svg>