<?xml version="1.0" encoding="utf-8"?>
<!-- Generator: Adobe Illustrator 25.4.0, SVG Export Plug-In . SVG Version: 6.00 Build 0)  -->
<svg version="1.1" id="Layer_1" xmlns="http://www.w3.org/2000/svg" xmlns:xlink="http://www.w3.org/1999/xlink" x="0px" y="0px"
	 viewBox="0 0 30 30" style="enable-background:new 0 0 30 30;" xml:space="preserve">
<style type="text/css">
	.st0{fill:#141A00;}
	.st1{fill:#B8C2FE;}
	.st2{fill:#36FEDE;}
</style>
<g>
	<path class="st0" d="M30,4c0,8.6,0,17.2,0,25.8c0,0-0.1,0-0.1,0C29.8,30,29.7,30,29.5,30c-9.7,0-19.5,0-29.2,0
		c-0.1,0-0.2,0-0.3-0.1C0,29.8,0,29.7,0,29.6c0-8.5,0-17,0-25.5c0-0.2,0.1-0.3,0.3-0.3c2.3,0,4.5,0,6.8,0c0.3,0,0.4-0.1,0.4-0.4
		c0-1,0-2,0-3C7.5,0.1,7.6,0,7.8,0c4.8,0,9.5,0,14.3,0c0.2,0,0.3,0.1,0.3,0.3c0,1,0,2,0,3c0,0.1,0,0.1,0,0.2
		c0.1,0.2,0.2,0.2,0.4,0.2c2.2,0,4.4,0,6.5,0C29.7,3.8,29.9,3.7,30,4C30,4,30,4,30,4z M15,26.3c3.6,0,7.3,0,10.9,0
		c0.2,0,0.4-0.1,0.4-0.4c0-1,0-2,0-3c0-0.3-0.1-0.4-0.4-0.4c-2.2,0-4.5,0-6.7,0c-0.2,0-0.3-0.1-0.3-0.3c0-1,0-2,0-3.1
		c0-0.3,0.1-0.4,0.4-0.4c2.3,0,4.5,0,6.8,0c0.2,0,0.3-0.1,0.3-0.3c0-1,0-2,0-3.1c0-0.2-0.2-0.3-0.3-0.3c-1,0-2,0-3.1,0
		c-0.2,0-0.3-0.1-0.3-0.3c0-1,0-2.1,0-3.1c0-0.2,0.1-0.3,0.3-0.3c1,0,2,0,3,0c0.2,0,0.4-0.1,0.4-0.4c0-1,0-2,0-3
		c0-0.3-0.1-0.4-0.4-0.4c-1.2,0-2.5,0-3.7,0c-1,0-2,0-3.1,0c-0.2,0-0.3-0.1-0.3-0.3c0-1,0-2,0-3.1c0-0.2-0.1-0.4-0.4-0.4
		c-0.8,0-1.6,0-2.4,0c-1.5,0-2.9,0-4.4,0c-0.1,0-0.1,0-0.2,0c-0.1,0.1-0.2,0.2-0.2,0.3c0,1,0,2,0,3.1c0,0.2-0.1,0.3-0.3,0.3
		c-1.3,0-2.6,0-3.9,0.1c-1,0.1-1.9,0-2.9,0c-0.2,0-0.3,0.1-0.3,0.3c0,1,0,2,0,3.1c0,0.2,0.1,0.3,0.3,0.3c1,0,2,0,3,0
		c0.2,0,0.4,0.1,0.4,0.4c0,1,0,2,0,3.1c0,0.2-0.1,0.3-0.3,0.3c-1,0-2,0-3,0c-0.2,0-0.4,0.1-0.4,0.4c0,1,0,2,0,3
		c0,0.3,0.1,0.4,0.4,0.4c2.3,0,4.5,0,6.8,0c0.2,0,0.3,0.1,0.3,0.3c0,1,0,2.1,0,3.1c0,0.2-0.1,0.3-0.3,0.3c-2.3,0-4.5,0-6.8,0
		c-0.2,0-0.4,0.1-0.4,0.4c0,1,0,2,0,3c0,0.3,0.1,0.4,0.4,0.4C7.7,26.3,11.4,26.3,15,26.3z"/>
	<path class="st1" d="M15,26.3c-3.6,0-7.2,0-10.9,0c-0.3,0-0.4-0.1-0.4-0.4c0-1,0-2,0-3c0-0.2,0.1-0.4,0.4-0.4c2.3,0,4.5,0,6.8,0
		c0.2,0,0.3-0.1,0.3-0.3c0-1,0-2.1,0-3.1c0-0.2-0.1-0.3-0.3-0.3c-2.3,0-4.5,0-6.8,0c-0.3,0-0.4-0.1-0.4-0.4c0-1,0-2,0-3
		c0-0.2,0.1-0.4,0.4-0.4c1,0,2,0,3,0c0.2,0,0.3-0.1,0.3-0.3c0-1,0-2,0-3.1c0-0.2-0.1-0.4-0.4-0.4c-1,0-2,0-3,0
		c-0.2,0-0.3-0.1-0.3-0.3c0-1,0-2,0-3.1c0-0.2,0.1-0.3,0.3-0.3c1,0,1.9,0,2.9,0c1.3-0.1,2.6,0,3.9-0.1c0.2,0,0.3-0.1,0.3-0.3
		c0-1,0-2,0-3.1c0-0.1,0.1-0.3,0.2-0.3c0.1,0,0.1,0,0.2,0c1.5,0,2.9,0,4.4,0c0.8,0,1.6,0,2.4,0c0.2,0,0.4,0.1,0.4,0.4c0,1,0,2,0,3.1
		c0,0.2,0.1,0.3,0.3,0.3c1,0,2,0,3.1,0c1.2,0,2.5,0,3.7,0c0.3,0,0.4,0.1,0.4,0.4c0,1,0,2,0,3c0,0.2-0.1,0.4-0.4,0.4c-1,0-2,0-3,0
		c-0.2,0-0.3,0.1-0.3,0.3c0,1,0,2.1,0,3.1c0,0.2,0.1,0.3,0.3,0.3c1,0,2,0,3.1,0c0.2,0,0.3,0.2,0.3,0.3c0,1,0,2,0,3.1
		c0,0.2-0.1,0.3-0.3,0.3c-2.3,0-4.5,0-6.8,0c-0.3,0-0.4,0.1-0.4,0.4c0,1,0,2,0,3.1c0,0.2,0.1,0.3,0.3,0.3c2.2,0,4.5,0,6.7,0
		c0.3,0,0.4,0.1,0.4,0.4c0,1,0,2,0,3c0,0.2-0.1,0.4-0.4,0.4C22.3,26.3,18.6,26.3,15,26.3z M15,3.8c-1.1,0-2.3,0-3.4,0
		c-0.2,0-0.3,0-0.3,0.3c0,1,0,2,0,3c0,0.3-0.2,0.5-0.5,0.5c-1,0-2.1,0-3.1,0c-0.2,0-0.3,0.1-0.3,0.3c0,1,0,2,0,3
		c0,0.1,0,0.2,0.1,0.3c0.1,0.1,0.1,0.3,0.1,0.4c0,1,0,2.1,0,3.1c0,0.1,0,0.1,0,0.2c0,0.2,0,0.2,0.3,0.2c1,0,2,0,3,0
		c0.2,0,0.3,0.1,0.3,0.3c0,0.9,0,1.7,0,2.6c0,0.2-0.1,0.5,0.1,0.7c0,0,0,0.1,0,0.1c-0.1,0,0,0.1,0,0.1c0,0.1,0,0.1,0,0.2
		c0,1,0,2.1,0,3.1c0,0.3,0.1,0.3,0.3,0.3c2.2,0,4.5,0,6.7,0c0.2,0,0.3,0,0.3-0.3c0-1,0-2.1,0-3.1c0-0.1,0-0.2,0.1-0.3
		c0-0.1,0.1-0.2,0.1-0.4c0-1,0-2,0-3c0-0.2,0.1-0.4,0.4-0.4c1,0,2,0,2.9,0c0.3,0,0.4-0.1,0.4-0.4c0-1,0-2,0-2.9c0-0.1,0-0.3,0-0.4
		c0-0.1,0-0.3,0-0.4c0-1,0-2.1,0-3.1c0-0.1,0-0.2-0.1-0.2c-0.1,0-0.1,0-0.2,0c-1,0-2,0-3.1,0c-0.3,0-0.5-0.2-0.5-0.5c0-1,0-2,0-3
		c0-0.2-0.1-0.2-0.2-0.2C17.3,3.8,16.1,3.8,15,3.8z"/>
	<path class="st2" d="M15,3.8c1.1,0,2.3,0,3.4,0c0.2,0,0.2,0.1,0.2,0.2c0,1,0,2,0,3c0,0.3,0.2,0.5,0.5,0.5c1,0,2,0,3.1,0
		c0.1,0,0.1,0,0.2,0c0.1,0,0.1,0.1,0.1,0.2c0,1,0,2.1,0,3.1c0,0.1,0,0.3,0,0.4c0,0.1,0,0.3,0,0.4c0,1,0,2,0,2.9
		c0,0.3-0.1,0.4-0.4,0.4c-1,0-2,0-2.9,0c-0.2,0-0.4,0.1-0.4,0.4c0,1,0,2,0,3c0,0.1,0,0.2-0.1,0.4c0,0.1-0.1,0.2-0.1,0.3
		c0,1,0,2.1,0,3.1c0,0.2,0,0.3-0.3,0.3c-2.2,0-4.5,0-6.7,0c-0.3,0-0.3-0.1-0.3-0.3c0-1,0-2.1,0-3.1c0-0.1,0-0.1,0-0.2
		c0,0-0.1-0.1,0-0.1c0,0,0-0.1,0-0.1c-0.2-0.2-0.1-0.5-0.1-0.7c0-0.9,0-1.7,0-2.6c0-0.2-0.1-0.3-0.3-0.3c-1,0-2,0-3,0
		c-0.2,0-0.2,0-0.3-0.2c0-0.1,0-0.1,0-0.2c0-1,0-2.1,0-3.1c0-0.1,0-0.3-0.1-0.4c0-0.1-0.1-0.2-0.1-0.3c0-1,0-2,0-3
		c0-0.2,0.1-0.3,0.3-0.3c1,0,2.1,0,3.1,0c0.2,0,0.5-0.2,0.5-0.5c0-1,0-2,0-3c0-0.2,0-0.3,0.3-0.3C12.7,3.8,13.9,3.8,15,3.8z"/>
</g>
</svg>
