<svg width="3443" height="3443" viewBox="0 0 3443 3443" fill="none" xmlns="http://www.w3.org/2000/svg">
<g clip-path="url(#clip0_19_2)">
<path d="M2087.02 3261.79V3443H2268.1V3261.79H2087.02Z" fill="#B2B2B2"/>
<path d="M1181.62 3261.79V3443H1362.7V3261.79H1181.62Z" fill="#B2B2B2"/>
<path d="M1181.62 3261.79H1362.7V3080.58H1181.62V3261.79Z" fill="#3E4AA2"/>
<path d="M1362.7 2899.37V3080.58H2087.02V3261.79H2268.11V2899.37H1362.7Z" fill="#3E4AA2"/>
<path d="M2268.12 3080.58H2449.2V2718.15H2268.12V3080.58Z" fill="#DB7144"/>
<path d="M2268.1 2899.37V2536.95H1543.77V2899.37H2268.1Z" fill="#A595CC"/>
<path d="M1362.69 2718.15H1000.52V3080.58H1362.69V2718.15Z" fill="#E69157"/>
<path d="M1362.69 2718.15V2536.95H1181.61V2355.74H1000.52V2718.15H1362.69Z" fill="#A595CC"/>
<path d="M1181.62 2355.74V2536.95H1362.7V2899.37H1543.78V2536.95H2268.11V2718.16H2449.2V2355.74H1181.62Z" fill="#907CBF"/>
<path d="M1181.61 2174.53H1000.52V2355.74H1181.61V2174.53Z" fill="#DB7144"/>
<path d="M1000.53 1630.89H638.365V1812.1H819.448V2174.52H1000.53V1630.89Z" fill="#DB7144"/>
<path d="M638.365 1812.11V1993.32H819.448V1812.11H638.365Z" fill="#3C2722"/>
<path d="M1724.86 1812.11V1993.32H2087.02V1812.11H2268.1V1449.68H1543.77V1812.11H1724.86Z" fill="#F4F1EB"/>
<path d="M638.356 1449.68H819.441V1630.9H1000.52V1087.26H1181.61V906.054H1724.86V724.846H2268.1V906.054H2811.36V724.846H2449.19V543.634H2268.1V362.424H1000.52V543.634H819.441V724.846H638.356V1087.26H457.273V1812.11H638.356V1449.68Z" fill="#3C2722"/>
<path d="M1181.62 1630.89H1362.7V1268.47H1181.62V1630.89Z" fill="#1F1518"/>
<path d="M819.448 1449.68H638.365V1630.89H819.448V1449.68Z" fill="#E69157"/>
<path d="M2449.19 1630.89H2630.27V1268.47H2449.19V1630.89Z" fill="#1F1518"/>
<path d="M1181.61 1087.26H1000.52V1268.48H1181.61V1087.26Z" fill="#DB7144"/>
<path d="M2811.37 1087.26H2992.46V906.054H2811.37V1087.26Z" fill="#3C2722"/>
<path d="M2630.27 1087.26H2811.35V906.054H2630.27V1087.26Z" fill="#DB7144"/>
<path d="M2630.27 1630.9H2449.19V1268.48H2630.27V1630.9ZM1543.77 1449.68H2268.1V1812.11H2087.02V1993.32H1724.86V1812.11H1543.77V1449.68ZM2630.27 906.054H1724.86V1087.26H1181.61V1268.48H1362.69V1630.9H1181.61V1268.48H1000.52V2174.53H1181.61V2355.74H2630.27V2174.53H2811.36V1087.26H2630.27V906.054Z" fill="#E69157"/>
<path d="M2449 1087.26H2630.08V906.054H2449V1087.26Z" fill="#DB7144"/>
<path d="M1670 1087H2449V906H1670V1087Z" fill="#DB7144"/>
<path d="M1724.86 1087.26V906.054H1181.62V1087.26H1724.86Z" fill="#DB7144"/>
<path d="M638.357 724.839H457.273V1087.26H638.357V724.839Z" fill="#3F2419"/>
<path d="M2268.12 906.054V724.839H1724.88V906.054H2268.12Z" fill="#DB7144"/>
<path d="M2811.36 362.42H2630.28V181.21H2268.12V0H1181.61V181.21H819.448V362.42H638.365V724.839H819.448V543.631H1000.53V362.42H2268.12V543.631H2449.2V724.839H2811.36V906.054H2992.44V543.631H2811.36V362.42Z" fill="#3F2419"/>
<path d="M1721 2174V2355.21H1902.08V2174H1721Z" fill="#65463E"/>
<path d="M1725 1449V1630.21H1906.08V1449H1725Z" fill="#65463E"/>
<path d="M1725 725V906.208H1906.08V725H1725Z" fill="#3E4A65"/>
<path d="M1725 723V904.208H1906.08V723H1725Z" fill="black"/>
<path d="M1725 542V723.208H1906.08V542H1725Z" fill="#D54D3A"/>
<path d="M2450 723V904.208H2631.08V723H2450Z" fill="black"/>
<path d="M2450 542V723.208H2631.08V542H2450Z" fill="#D54D3A"/>
<path d="M2268 362V543.208H2449.08V362H2268Z" fill="#D54D3A"/>
<path d="M2268 180V361.208H2449.08V180H2268Z" fill="#D54D3A"/>
<path d="M1001 723V904.208H1182.08V723H1001Z" fill="#D54D3A"/>
<path d="M1001 542V723.208H1182.08V542H1001Z" fill="#D54D3A"/>
<path d="M1001 362V543.208H1182.08V362H1001Z" fill="#D54D3A"/>
<path d="M1001 180V361.208H1182.08V180H1001Z" fill="#D54D3A"/>
<path d="M639 723V904.208H820.082V723H639Z" fill="#D54D3A"/>
<path d="M639 542V723.208H820.082V542H639Z" fill="#D54D3A"/>
<path d="M639 362V543.208H820.082V362H639Z" fill="#D54D3A"/>
<path d="M1544 2174V2355.21H1725.08V2174H1544Z" fill="#65463E"/>
<path d="M1363 2174V2355.21H1544.08V2174H1363Z" fill="#65463E"/>
<path d="M1182 2174V2355.21H1363.08V2174H1182Z" fill="#65463E"/>
<path d="M1544 1449V1630.21H1725.08V1449H1544Z" fill="#65463E"/>
<path d="M1544 725V906.208H1725.08V725H1544Z" fill="#3E4A65"/>
<path d="M1544 723V904.208H1725.08V723H1544Z" fill="black"/>
<path d="M1544 542V723.208H1725.08V542H1544Z" fill="#D54D3A"/>
<path d="M1544 362V543.208H1725.08V362H1544Z" fill="#D54D3A"/>
<path d="M1544 180V361.208H1725.08V180H1544Z" fill="#D54D3A"/>
<path d="M1544 -2V179.208H1725.08V-2H1544Z" fill="#D54D3A"/>
<path d="M2269 723V904.208H2450.08V723H2269Z" fill="black"/>
<path d="M2269 542V723.208H2450.08V542H2269Z" fill="#D54D3A"/>
<path d="M2087 362V543.208H2268.08V362H2087Z" fill="#D54D3A"/>
<path d="M2087 180V361.208H2268.08V180H2087Z" fill="#D54D3A"/>
<path d="M2087 -2V179.208H2268.08V-2H2087Z" fill="#D54D3A"/>
<path d="M820 723V904.208H1001.08V723H820Z" fill="#D54D3A"/>
<path d="M820 542V723.208H1001.08V542H820Z" fill="#D54D3A"/>
<path d="M820 362V543.208H1001.08V362H820Z" fill="#D54D3A"/>
<path d="M820 180V361.208H1001.08V180H820Z" fill="#D54D3A"/>
<path d="M458 723V904.208H639.082V723H458Z" fill="#D54D3A"/>
<path d="M1544 1994V2175.21H1725.08V1994H1544Z" fill="#65463E"/>
<path d="M1363 1994V2175.21H1544.08V1994H1363Z" fill="#65463E"/>
<path d="M1182 1994V2175.21H1363.08V1994H1182Z" fill="#65463E"/>
<path d="M1001 1994V2175.21H1182.08V1994H1001Z" fill="#65463E"/>
<path d="M1001 1814V1995.21H1182.08V1814H1001Z" fill="#65463E"/>
<path d="M1363 1812V1993.21H1544.08V1812H1363Z" fill="#65463E"/>
<path d="M1363 1630V1811.21H1544.08V1630H1363Z" fill="#65463E"/>
<path d="M1902 2174V2355.21H2083.08V2174H1902Z" fill="#65463E"/>
<path d="M1906 1449V1630.21H2087.08V1449H1906Z" fill="#65463E"/>
<path d="M1906 725V906.208H2087.08V725H1906Z" fill="#3E4A65"/>
<path d="M1906 723V904.208H2087.08V723H1906Z" fill="black"/>
<path d="M1906 542V723.208H2087.08V542H1906Z" fill="#D54D3A"/>
<path d="M1725 362V543.208H1906.08V362H1725Z" fill="#D54D3A"/>
<path d="M1725 180V361.208H1906.08V180H1725Z" fill="#D54D3A"/>
<path d="M1725 -2V179.208H1906.08V-2H1725Z" fill="#D54D3A"/>
<path d="M2631 723V904.208H2812.08V723H2631Z" fill="black"/>
<path d="M2631 542V723.208H2812.08V542H2631Z" fill="#D54D3A"/>
<path d="M2449 362V543.208H2630.08V362H2449Z" fill="#D54D3A"/>
<path d="M2449 180V361.208H2630.08V180H2449Z" fill="#D54D3A"/>
<path d="M1182 723V904.208H1363.08V723H1182Z" fill="#D54D3A"/>
<path d="M1182 542V723.208H1363.08V542H1182Z" fill="#D54D3A"/>
<path d="M1182 362V543.208H1363.08V362H1182Z" fill="#D54D3A"/>
<path d="M1182 180V361.208H1363.08V180H1182Z" fill="#D54D3A"/>
<path d="M1182 -2V179.208H1363.08V-2H1182Z" fill="#D54D3A"/>
<path d="M2087 1994V2175.21H2268.08V1994H2087Z" fill="#65463E"/>
<path d="M2268 1994V2175.21H2449.08V1994H2268Z" fill="#65463E"/>
<path d="M2083 2174V2355.21H2264.08V2174H2083Z" fill="#65463E"/>
<path d="M2264 2174V2355.21H2445.08V2174H2264Z" fill="#65463E"/>
<path d="M2445 2174V2355.21H2626.08V2174H2445Z" fill="#65463E"/>
<path d="M2449 2174V2355.21H2630.08V2174H2449Z" fill="#65463E"/>
<path d="M2449 1994V2175.21H2630.08V1994H2449Z" fill="#65463E"/>
<path d="M2630 1994V2175.21H2811.08V1994H2630Z" fill="#65463E"/>
<path d="M2630 1813V1994.21H2811.08V1813H2630Z" fill="#65463E"/>
<path d="M2087 1449V1630.21H2268.08V1449H2087Z" fill="#65463E"/>
<path d="M2087 725V906.208H2268.08V725H2087Z" fill="#3E4A65"/>
<path d="M2087 723V904.208H2268.08V723H2087Z" fill="black"/>
<path d="M2087 542V723.208H2268.08V542H2087Z" fill="#D54D3A"/>
<path d="M1906 362V543.208H2087.08V362H1906Z" fill="#D54D3A"/>
<path d="M1906 180V361.208H2087.08V180H1906Z" fill="#D54D3A"/>
<path d="M1906 -2V179.208H2087.08V-2H1906Z" fill="#D54D3A"/>
<path d="M2812 723V904.208H2993.08V723H2812Z" fill="black"/>
<path d="M2992 723V904.208H3173.08V723H2992Z" fill="black"/>
<path d="M2812 542V723.208H2993.08V542H2812Z" fill="#D54D3A"/>
<path d="M2630 362V543.208H2811.08V362H2630Z" fill="#D54D3A"/>
<path d="M1363 723V904.208H1544.08V723H1363Z" fill="black"/>
<path d="M1363 542V723.208H1544.08V542H1363Z" fill="#D54D3A"/>
<path d="M1363 362V543.208H1544.08V362H1363Z" fill="#D54D3A"/>
<path d="M1363 180V361.208H1544.08V180H1363Z" fill="#D54D3A"/>
<path d="M1363 -2V179.208H1544.08V-2H1363Z" fill="#D54D3A"/>
<path d="M2268 1812V1993.21H2449.08V1812H2268Z" fill="#65463E"/>
<path d="M2268 1630V1811.21H2449.08V1630H2268Z" fill="#65463E"/>
</g>
<defs>
<clipPath id="clip0_19_2">
<rect width="3443" height="3443" fill="white"/>
</clipPath>
</defs>
</svg>
