<?xml version="1.0" encoding="utf-8"?>
<!-- Generator: Adobe Illustrator 25.4.0, SVG Export Plug-In . SVG Version: 6.00 Build 0)  -->
<svg version="1.1" id="Layer_1" xmlns="http://www.w3.org/2000/svg" xmlns:xlink="http://www.w3.org/1999/xlink" x="0px" y="0px"
	 viewBox="0 0 30 30" style="enable-background:new 0 0 30 30;" xml:space="preserve">
<style type="text/css">
	.st0{fill:#1A1200;}
	.st1{fill:#FED87F;}
	.st2{fill:#E5A000;}
</style>
<g>
	<path class="st0" d="M0,29.8c0-9.9,0-19.7,0-29.6c0.1,0,0.2-0.1,0.2-0.2C10.1,0,20,0,29.8,0c0,0.1,0,0.1,0.1,0.1
		C30,0.2,30,0.2,30,0.4c0,9.8,0,19.5,0,29.3c0,0.2-0.1,0.3-0.3,0.3c-3.5,0-7,0-10.6,0c-0.2,0-0.3-0.1-0.3-0.3c0-1,0-2,0-3
		c0-0.2-0.1-0.4-0.4-0.4c-2.3,0-4.5,0-6.8,0c-0.2,0-0.4,0.2-0.4,0.4c0,1,0,2,0,3c0,0.2-0.1,0.4-0.4,0.4c-3.5,0-7,0-10.5,0
		C0.3,30,0.2,30,0,29.8C0.1,29.8,0,29.8,0,29.8z M15,22.5c2.4,0,4.9,0,7.3,0c0.2,0,0.2,0,0.2-0.2c0-1.1,0-2.2,0-3.3
		c0-0.2,0-0.2-0.2-0.2c-1,0-2.1,0-3.1,0c-0.2,0-0.2,0-0.3-0.2c0,0,0-0.1,0-0.1c0-1,0-2.1,0-3.1c0,0,0-0.1,0-0.1c0-0.2,0-0.2,0.2-0.2
		c1,0,2.1,0,3.1,0c0.2,0,0.3,0.2,0.3,0.3c0,1.1,0,2.1,0,3.2c0,0.2,0,0.2,0.2,0.2c1.1,0,2.1,0,3.2,0c0.2,0,0.3-0.2,0.3-0.3
		c0-0.9,0-1.8,0-2.7c0-0.3,0-0.5,0.1-0.8c0-0.1,0-0.2,0-0.3c0-3.5,0-7.1,0-10.6c0-0.2-0.2-0.4-0.4-0.4c-1,0-2.1,0-3.1,0
		c-0.2,0-0.4,0.2-0.4,0.4c0,0.7,0,1.3,0,2c0,1.6,0,3.2,0,4.9c0,0.2-0.1,0.3-0.3,0.3c-1,0-2,0-3,0c-0.2,0-0.4,0.1-0.4,0.4
		c0,1,0,2,0,3c0,0.2,0,0.3-0.3,0.3c0,0-0.1,0-0.1,0c-0.4,0-0.8,0-1.2,0c-1.9,0-3.7,0-5.6,0c-0.2,0-0.3-0.1-0.3-0.3c0-1,0-2,0-3
		c0-0.2-0.1-0.4-0.4-0.4c-1,0-2,0-3,0c-0.3,0-0.4-0.1-0.4-0.4c0-2.3,0-4.5,0-6.8c0-0.3-0.2-0.4-0.4-0.4c-1,0-2,0-3,0
		c-0.3,0-0.5,0.2-0.5,0.5c0,3.7,0,7.4,0,11.2c0,1,0,2,0,3.1c0,0.2,0.1,0.4,0.4,0.4c1.1,0,2.1,0,3.2,0c0.2,0,0.2,0,0.2,0.2
		c0,1.1,0,2.3,0,3.4c0,0.2,0,0.2-0.2,0.2c-1.1,0-2.1,0-3.2,0c-0.2,0-0.4,0.1-0.4,0.4c0,1,0,2,0,3c0,0.2,0.2,0.4,0.4,0.4c1,0,2,0,3,0
		c0.2,0,0.4-0.1,0.4-0.4c0-1.1,0-2.2,0-3.2c0-0.2,0-0.2,0.2-0.2C10.1,22.5,12.6,22.5,15,22.5z M15,7.5c1.1,0,2.3,0,3.4,0
		c0.2,0,0.3-0.1,0.3-0.4c0-1,0-2,0-3c0-0.2-0.1-0.4-0.3-0.4c-2.3,0-4.5,0-6.8,0c-0.2,0-0.4,0.2-0.4,0.4c0,1,0,2,0,3
		c0,0.2,0.2,0.4,0.4,0.4C12.8,7.5,13.9,7.5,15,7.5z M22.5,24.3c0,0.5,0,1.1,0,1.6c0,0.2,0.2,0.3,0.3,0.3c1,0,2,0,3,0
		c0.2,0,0.4-0.1,0.4-0.4c0-1,0-2,0-3c0-0.2-0.2-0.3-0.4-0.3c-0.8,0-1.7,0-2.5,0c-0.2,0-0.4,0-0.6,0c-0.2,0-0.2,0-0.2,0.2
		C22.5,23.3,22.5,23.8,22.5,24.3z"/>
	<path class="st1" d="M0.2,0c0,0.1-0.1,0.2-0.2,0.2C0,0.2,0,0.1,0,0S0.2,0,0.2,0z"/>
	<path class="st2" d="M15,22.5c-2.4,0-4.9,0-7.3,0c-0.2,0-0.2,0-0.2,0.2c0,1.1,0,2.2,0,3.2c0,0.2-0.1,0.4-0.4,0.4c-1,0-2,0-3,0
		c-0.2,0-0.4-0.1-0.4-0.4c0-1,0-2,0-3c0-0.2,0.1-0.4,0.4-0.4c1.1,0,2.1,0,3.2,0c0.2,0,0.2,0,0.2-0.2c0-1.1,0-2.3,0-3.4
		c0-0.2,0-0.2-0.2-0.2c-1.1,0-2.1,0-3.2,0c-0.2,0-0.4-0.1-0.4-0.4c0-1,0-2,0-3.1c-0.1-3.7,0-7.4,0-11.2c0-0.3,0.2-0.5,0.5-0.5
		c1,0,2,0,3,0c0.3,0,0.4,0.2,0.4,0.4c0,2.3,0,4.5,0,6.8c0,0.2,0.1,0.4,0.4,0.4c1,0,2,0,3,0c0.2,0,0.4,0.1,0.4,0.4c0,1,0,2,0,3
		c0,0.2,0.1,0.3,0.3,0.3c1.9,0,3.7,0,5.6,0c0.4,0,0.8,0,1.2,0c0,0,0.1,0,0.1,0c0.3,0,0.3,0,0.3-0.3c0-1,0-2,0-3
		c0-0.2,0.1-0.4,0.4-0.4c1,0,2,0,3,0c0.2,0,0.3-0.1,0.3-0.3c0-1.6,0-3.2,0-4.9c0-0.7,0-1.3,0-2c0-0.2,0.2-0.4,0.4-0.4
		c1,0,2.1,0,3.1,0c0.2,0,0.4,0.2,0.4,0.4c0,3.5,0,7.1,0,10.6c0,0.1,0,0.2,0,0.3c-0.1,0.3-0.1,0.5-0.1,0.8c0,0.9,0,1.8,0,2.7
		c0,0.2-0.2,0.3-0.3,0.3c-1.1,0-2.1,0-3.2,0c-0.2,0-0.2,0-0.2-0.2c0-1.1,0-2.1,0-3.2c0-0.2-0.1-0.3-0.3-0.3c-1,0-2.1,0-3.1,0
		c-0.2,0-0.2,0-0.2,0.2c0,0,0,0.1,0,0.1c0,1,0,2.1,0,3.1c0,0,0,0.1,0,0.1c0.1,0.2,0.1,0.2,0.3,0.2c1,0,2.1,0,3.1,0
		c0.2,0,0.2,0,0.2,0.2c0,1.1,0,2.2,0,3.3c0,0.2,0,0.2-0.2,0.2C19.9,22.5,17.5,22.5,15,22.5z M26.2,9.4c0-1.8,0-3.5,0-5.3
		c0-0.2-0.1-0.3-0.3-0.3c-1,0-2,0-3,0c-0.2,0-0.3,0.1-0.3,0.3c0,2.3,0,4.5,0,6.8c0,0.1,0,0.3-0.1,0.4c0,0,0,0.1,0,0.1
		c0.1,0.1,0.1,0.1,0.1,0.2c0,1,0,2.1,0,3.1c0,0.2,0.1,0.3,0.3,0.3c1,0,2,0,3,0c0.3,0,0.3,0,0.3-0.3C26.2,12.9,26.2,11.2,26.2,9.4z
		 M3.9,9.4c0,1.7,0,3.5,0,5.2c0,0,0,0.1,0,0.1C3.9,14.9,4,15,4.1,15c1,0,2,0,3,0c0.2,0,0.4-0.1,0.4-0.4c0-1,0-2,0-3
		c0-0.1,0-0.1,0-0.2c0-0.2-0.1-0.4-0.1-0.6c0-2.3,0-4.5,0-6.8c0-0.2,0-0.2-0.2-0.2c-1,0-2,0-3,0c-0.2,0-0.3,0-0.3,0.3
		C3.9,5.9,3.9,7.6,3.9,9.4z M15,15.1c-1.1,0-2.3,0-3.4,0c-0.2,0-0.2,0.1-0.2,0.2c0,1,0,2.1,0,3.1c0,0.2,0.1,0.3,0.3,0.3
		c2.2,0,4.5,0,6.7,0c0.2,0,0.3-0.1,0.3-0.3c0-1,0-2.1,0-3.1c0-0.2-0.1-0.2-0.2-0.2C17.3,15.1,16.2,15.1,15,15.1z M7.5,16.9
		c0,0.5,0,1,0,1.6c0,0.2,0,0.3,0.3,0.3c1,0,2.1,0,3.1,0c0.2,0,0.4-0.1,0.4-0.4c0-1,0-2,0-3c0-0.1,0-0.1,0-0.2c0-0.1-0.1-0.2-0.3-0.2
		c-1,0-2.1,0-3.1,0c-0.2,0-0.3,0.2-0.3,0.3C7.5,15.9,7.5,16.4,7.5,16.9z"/>
	<path class="st2" d="M15,7.5c-1.1,0-2.3,0-3.4,0c-0.2,0-0.4-0.2-0.4-0.4c0-1,0-2,0-3c0-0.2,0.2-0.4,0.4-0.4c2.3,0,4.5,0,6.8,0
		c0.2,0,0.3,0.1,0.3,0.4c0,1,0,2,0,3c0,0.2-0.1,0.4-0.3,0.4C17.3,7.5,16.1,7.5,15,7.5z"/>
	<path class="st2" d="M22.5,24.3c0-0.5,0-1.1,0-1.6c0-0.2,0-0.2,0.2-0.2c0.2,0,0.4,0,0.6,0c0.8,0,1.7,0,2.5,0c0.2,0,0.4,0.2,0.4,0.3
		c0,1,0,2,0,3c0,0.2-0.1,0.4-0.4,0.4c-1,0-2,0-3,0c-0.2,0-0.3-0.2-0.3-0.3C22.5,25.4,22.5,24.9,22.5,24.3z"/>
	<path class="st1" d="M26.2,9.4c0,1.7,0,3.5,0,5.2c0,0.3,0,0.3-0.3,0.3c-1,0-2,0-3,0c-0.2,0-0.3-0.1-0.3-0.3c0-1,0-2.1,0-3.1
		c0-0.1,0-0.1-0.1-0.2c0,0,0-0.1,0-0.1c0.1-0.1,0.1-0.2,0.1-0.4c0-2.3,0-4.5,0-6.8c0-0.2,0.1-0.3,0.3-0.3c1,0,2,0,3,0
		c0.2,0,0.3,0.1,0.3,0.3C26.2,5.9,26.2,7.7,26.2,9.4z"/>
	<path class="st1" d="M3.9,9.4c0-1.8,0-3.5,0-5.3c0-0.2,0-0.3,0.3-0.3c1,0,2,0,3,0c0.2,0,0.2,0,0.2,0.2c0,2.3,0,4.5,0,6.8
		c0,0.2,0.1,0.4,0.1,0.6c0,0.1,0,0.1,0,0.2c0,1,0,2,0,3c0,0.2-0.1,0.4-0.4,0.4c-1,0-2,0-3,0c-0.2,0-0.3-0.1-0.3-0.3c0,0,0-0.1,0-0.1
		C3.9,12.9,3.9,11.1,3.9,9.4z"/>
	<path class="st1" d="M15,15.1c1.1,0,2.3,0,3.4,0c0.2,0,0.2,0.1,0.2,0.2c0,1,0,2.1,0,3.1c0,0.2-0.1,0.3-0.3,0.3c-2.2,0-4.5,0-6.7,0
		c-0.2,0-0.3-0.1-0.3-0.3c0-1,0-2.1,0-3.1c0-0.2,0.1-0.2,0.2-0.2C12.8,15.1,13.9,15.1,15,15.1z"/>
	<path class="st0" d="M7.5,16.9c0-0.5,0-1.1,0-1.6c0-0.2,0.1-0.3,0.3-0.3c1,0,2.1,0,3.1,0c0.1,0,0.2,0.1,0.3,0.2c0,0,0,0.1,0,0.2
		c0,1,0,2,0,3c0,0.2-0.1,0.4-0.4,0.4c-1,0-2.1,0-3.1,0c-0.2,0-0.3,0-0.3-0.3C7.5,18,7.5,17.5,7.5,16.9z"/>
</g>
</svg>
