<?xml version="1.0" encoding="utf-8"?>
<!-- Generator: Adobe Illustrator 25.4.0, SVG Export Plug-In . SVG Version: 6.00 Build 0)  -->
<svg version="1.1" id="Layer_1" xmlns="http://www.w3.org/2000/svg" xmlns:xlink="http://www.w3.org/1999/xlink" x="0px" y="0px"
	 viewBox="0 0 60 60" style="enable-background:new 0 0 60 60;" xml:space="preserve">
<style type="text/css">
	.st0{fill:#36FEDE;}
	.st1{fill:#3854FE;}
	.st2{fill:#FED30B;}
	.st3{fill:#FB9330;}
	.st4{fill:#FE9431;}
</style>
<g>
	<path d="M51.5,51.5c1.4,0,2.8,0,4.1,0c0.1,0,0.2,0,0.2,0.2c0,2.8,0,5.6,0,8.3c-7.2,0-14.3,0-21.5,0c0-1.4,0-2.8,0-4.2
		c5.7,0,11.4,0,17,0c0.1,0,0.2,0,0.2-0.2C51.5,54.2,51.5,52.9,51.5,51.5L51.5,51.5z"/>
	<path d="M4.2,60c0-2.8,0-5.6,0-8.3c0-0.1,0-0.2,0.2-0.2c1.4,0,2.7,0,4.1,0l0,0c0,1.4,0,2.8,0,4.1c0,0.1,0,0.2,0.2,0.2
		c5.7,0,11.4,0,17,0c0,1.4,0,2.8,0,4.2C18.5,60,11.3,60,4.2,60z"/>
	<path d="M17.1,0.1c8.6,0,17.2,0,25.8,0c0,1.4,0,2.8,0,4.2l0,0c-0.4,0-0.8,0-1.2,0c-1,0-2.1,0-3.1,0c-0.4,0-0.8,0-1.2,0
		c-1,0-2.1,0-3.1,0c0,0-0.1,0-0.1,0c-2.8,0-5.6,0-8.4,0c0,0-0.1,0-0.1,0c-0.1,0-0.2,0-0.3,0c-1.3,0-2.7,0-4,0c-0.1,0-0.1,0-0.2,0
		c-1.4,0-2.7,0-4.1,0l0,0C17.1,2.9,17.1,1.5,17.1,0.1z"/>
	<path d="M60,42.9c-2.8,0-5.6,0-8.3,0c-0.2,0-0.2,0-0.2-0.2c0-1.4,0-2.7,0-4.1l0,0c1.4,0,2.7,0,4.1,0c0.1,0,0.2,0,0.2-0.2
		c0-1.4,0-2.7,0-4.1l0,0c1.4,0,2.8,0,4.2,0C60,37.2,60,40,60,42.9z"/>
	<path d="M8.5,38.6c0,1.4,0,2.8,0,4.2c0,0.1,0,0.1-0.2,0.1c-1.6,0-3.3,0-4.9,0c-1.1,0-2.3,0-3.4,0c0-2.9,0-5.7,0-8.6
		c1.4,0,2.8,0,4.2,0l0,0c0,1.4,0,2.7,0,4.1c0,0.1,0,0.2,0.2,0.2C5.7,38.6,7.1,38.6,8.5,38.6L8.5,38.6z"/>
	<path class="st0" d="M42.9,4.3c0-1.4,0-2.8,0-4.2c1.4,0,2.9,0,4.3,0c0,1.3,0,2.7,0,4c0,0.1,0,0.1,0,0.2C45.7,4.3,44.3,4.3,42.9,4.3
		z"/>
	<path class="st0" d="M17.1,0.1c0,1.4,0,2.8,0,4.2c-1.4,0-2.9,0-4.3,0c0-1.1,0-2.1,0-3.2c0-0.3,0-0.6,0-1
		C14.2,0.1,15.6,0.1,17.1,0.1z"/>
	<path d="M12.8,4.3c1.4,0,2.9,0,4.3,0l0,0c0,0.4,0,0.8,0,1.2c0,1,0,2.1,0,3.1c0,0.1,0,0.1,0,0.2c0,1.3,0,2.6,0,3.9
		c0,0.2,0,0.2,0.2,0.2c2.7,0,5.5,0,8.2,0c0.1,0,0.1,0,0.2,0c0,0,0.1,0,0.1,0c2.8,0,5.6,0,8.4,0c0,0,0.1,0,0.1,0c0,0,0.1,0,0.1,0
		c2.8,0,5.6,0,8.3,0c0,0,0,0,0.1,0c0.1,0,0.1,0,0.1-0.1c0-0.1,0-0.3,0-0.4c0-1.3,0-2.5,0-3.8c0-0.1,0-0.1,0-0.2c0-1.4,0-2.7,0-4.1
		l0,0c1.4,0,2.9,0,4.3,0c0,0.1,0,0.1,0,0.2c0,4.2,0,8.3,0,12.5c0,0.2,0,0.2,0.2,0.2c2.7,0,5.5,0,8.2,0c0.1,0,0.2,0,0.2,0.2
		c0,5.7,0,11.3,0,17c0,0,0,0,0,0.1l0,0c-1.4,0-2.9,0-4.3,0l0,0c0-0.4,0-0.8,0-1.2c0-1,0-2.1,0-3.1c0-0.2,0-0.5,0-0.7
		c0-1.2,0-2.4,0-3.6c0-0.4,0-0.8,0-1.2c0-1,0-2,0-2.9c0-0.1,0-0.2-0.2-0.2c-0.2,0-0.3,0-0.5,0c-1.2,0-2.5,0-3.7,0
		c-0.1,0-0.1,0-0.2,0c-1.4,0-2.7,0-4.1,0c0-1.4,0-2.7,0-4.1c0-0.2,0-0.2-0.2-0.2c-2.7,0-5.5,0-8.2,0c-0.1,0-0.2,0-0.2,0.2
		c0,1.4,0,2.7,0,4.1c-0.6,0-1.3,0-1.9,0c-2.2,0-4.4,0-6.7,0c0-1.4,0-2.7,0-4.1c0-0.2,0-0.2-0.2-0.2c-2.7,0-5.5,0-8.2,0
		c-0.1,0-0.2,0-0.2,0.2c0,1.4,0,2.7,0,4.1c-0.4,0-0.8,0-1.2,0c-1,0-2.1,0-3.1,0c-0.4,0-0.8,0-1.2,0c-1,0-2,0-2.9,0
		c-0.1,0-0.2,0-0.2,0.2c0,0.2,0,0.3,0,0.5c0,1.2,0,2.4,0,3.6c0,0.1,0,0.1,0,0.2c0,1.4,0,2.7,0,4.1c0,0.1,0,0.1,0,0.2
		c0,1.4,0,2.7,0,4.1l0,0c-1.4,0-2.9,0-4.3,0l0,0c0-0.9,0-1.8,0-2.7c0-4.7,0-9.5,0-14.2c0-0.1,0-0.2,0.2-0.2c2.7,0,5.5,0,8.2,0
		c0.2,0,0.2,0,0.2-0.2c0-4.2,0-8.3,0-12.5C12.8,4.4,12.8,4.3,12.8,4.3z"/>
	<path d="M51.5,38.6c-2.8,0-5.6,0-8.4,0c-0.2,0-0.2,0.1-0.2,0.2c0,1.3,0,2.6,0,3.9c0,0.1,0,0.2,0.2,0.2c1.3,0,2.6,0,3.9,0
		c0.1,0,0.2,0,0.2,0.2c0,1.3,0,2.6,0,4c0,0.1,0,0.2,0.2,0.2c1.3,0,2.6,0,4,0c0.1,0,0.2,0,0.2,0.2c0,1.4,0,2.7,0,4.1l0,0
		c-2.8,0-5.6,0-8.4,0c-0.1,0-0.1,0-0.2,0c0-1.4,0-2.7,0-4.1c0-0.1,0-0.2-0.2-0.2c-1.3,0-2.6,0-3.9,0c-0.2,0-0.2,0-0.2-0.2
		c0-4.2,0-8.3,0-12.5c0-0.1,0-0.1,0-0.2c0-0.1,0-0.1,0-0.2c0-1.3,0-2.6,0-3.9c0-0.1,0-0.2,0.2-0.2c1.4,0,2.8,0,4.1,0
		c0,0.1,0,0.1,0,0.2c0,1.3,0,2.6,0,3.9c0,0.2,0,0.2,0.2,0.2c2.8,0,5.6,0,8.4,0l0,0C51.5,35.7,51.5,37.2,51.5,38.6
		C51.5,38.6,51.5,38.6,51.5,38.6z"/>
	<path d="M8.5,51.5c0-1.4,0-2.7,0-4.1c0-0.1,0-0.2,0.2-0.2c1.3,0,2.6,0,4,0c0.1,0,0.2,0,0.2-0.2c0-1.3,0-2.6,0-4
		c0-0.1,0-0.2,0.2-0.2c1.3,0,2.6,0,3.9,0c0.2,0,0.2,0,0.2-0.2c0-1.3,0-2.6,0-3.9c0-0.2,0-0.2-0.2-0.2c-2.7,0-5.5,0-8.2,0
		c-0.1,0-0.1,0-0.2,0l0,0c0-1.4,0-2.9,0-4.3l0,0c2.8,0,5.6,0,8.3,0c0.3,0,0.3,0,0.3-0.3c0-1.3,0-2.7,0-4c1.4,0,2.8,0,4.1,0
		c0.1,0,0.2,0,0.2,0.2c0,0.2,0,0.4,0,0.5c0,1.2,0,2.4,0,3.6c0,0.1,0,0.1,0,0.2c0,4.2,0,8.3,0,12.5c0,0.2,0,0.2-0.2,0.2
		c-1.3,0-2.6,0-3.9,0c-0.2,0-0.2,0-0.2,0.2c0,1.4,0,2.7,0,4.1c-0.1,0-0.1,0-0.2,0C14.1,51.5,11.3,51.5,8.5,51.5L8.5,51.5z"/>
	<path class="st1" d="M42.9,51.5c0.1,0,0.1,0,0.2,0c2.8,0,5.6,0,8.4,0c0,1.4,0,2.8,0,4.1c0,0.1,0,0.2-0.2,0.2c-5.7,0-11.4,0-17,0
		l0,0c0-1.4,0-2.9,0-4.3c0.1,0,0.1,0,0.2,0c2.7,0,5.5,0,8.2,0C42.7,51.5,42.8,51.5,42.9,51.5z"/>
	<path class="st1" d="M8.5,51.5c2.8,0,5.6,0,8.4,0c0.1,0,0.1,0,0.2,0c0.1,0,0.1,0,0.2,0c2.7,0,5.5,0,8.2,0c0.1,0,0.1,0,0.2,0
		c0,1.4,0,2.9,0,4.3l0,0c-5.7,0-11.4,0-17,0c-0.1,0-0.2,0-0.2-0.2C8.5,54.2,8.5,52.9,8.5,51.5z"/>
	<path class="st0" d="M34.3,12.8c0,0-0.1,0-0.1,0c-2.8,0-5.6,0-8.4,0c0,0-0.1,0-0.1,0c0-2.9,0-5.7,0-8.6c0,0,0.1,0,0.1,0
		c2.8,0,5.6,0,8.4,0c0,0,0.1,0,0.1,0C34.3,7.1,34.3,10,34.3,12.8z"/>
	<path class="st1" d="M34.3,12.8c0-2.9,0-5.7,0-8.6c1,0,2.1,0,3.1,0c0.4,0,0.8,0,1.2,0c0,1.4,0,2.7,0,4.1c0,0.1,0,0.2,0.2,0.2
		c1.4,0,2.8,0,4.1,0c0,1.3,0,2.5,0,3.8c0,0.1,0,0.3,0,0.4c0,0.1,0,0.1-0.1,0.1c0,0,0,0-0.1,0c-2.8,0-5.6,0-8.3,0
		C34.3,12.8,34.3,12.8,34.3,12.8z"/>
	<path class="st1" d="M25.7,4.3c0,2.9,0,5.7,0,8.6c-0.1,0-0.1,0-0.2,0c-2.7,0-5.5,0-8.2,0c-0.2,0-0.2,0-0.2-0.2c0-1.3,0-2.6,0-3.9
		c0-0.1,0-0.1,0-0.2c1.4,0,2.8,0,4.1,0c0.1,0,0.2,0,0.2-0.2c0-1.4,0-2.7,0-4.1c1.3,0,2.7,0,4,0C25.5,4.3,25.6,4.3,25.7,4.3z"/>
	<path class="st2" d="M42.9,8.6c-1.4,0-2.8,0-4.1,0c-0.1,0-0.2,0-0.2-0.2c0-1.4,0-2.7,0-4.1c1,0,2.1,0,3.1,0c0.4,0,0.8,0,1.2,0
		c0,1.4,0,2.7,0,4.1C42.9,8.4,42.9,8.5,42.9,8.6z"/>
	<path class="st2" d="M21.4,4.3c0,1.4,0,2.7,0,4.1c0,0.1,0,0.2-0.2,0.2c-1.4,0-2.8,0-4.1,0c0-1,0-2.1,0-3.1c0-0.4,0-0.8,0-1.2
		c1.4,0,2.7,0,4.1,0C21.2,4.3,21.3,4.3,21.4,4.3z"/>
	<path class="st2" d="M51.5,38.6c0-1.4,0-2.9,0-4.3c1.4,0,2.9,0,4.3,0c0,1.4,0,2.7,0,4.1c0,0.1,0,0.2-0.2,0.2
		C54.2,38.6,52.8,38.6,51.5,38.6z"/>
	<path class="st2" d="M8.5,34.3c0,1.4,0,2.9,0,4.3c-1.4,0-2.7,0-4.1,0c-0.1,0-0.2,0-0.2-0.2c0-1.4,0-2.7,0-4.1
		C5.6,34.3,7,34.3,8.5,34.3z"/>
	<path d="M25.7,55.8c0-1.4,0-2.9,0-4.3l0,0c1.9,0,3.7,0,5.6,0c1,0,2,0,3,0l0,0c0,1.4,0,2.9,0,4.3C31.4,55.8,28.5,55.8,25.7,55.8z"/>
	<path class="st3" d="M17.1,30c0,1.3,0,2.7,0,4c0,0.3,0,0.3-0.3,0.3c-2.8,0-5.6,0-8.3,0c0-1.4,0-2.7,0-4.1c0-0.1,0-0.1,0-0.2
		c1.4,0,2.8,0,4.1,0c0.1,0,0.2,0,0.2-0.1c0-1.4,0-2.8,0-4.2c1.4,0,2.9,0,4.3,0c0,0.4,0,0.8,0,1.2C17.1,28,17.1,29,17.1,30z"/>
	<path class="st1" d="M25.7,21.4c2.2,0,4.4,0,6.7,0c0.6,0,1.3,0,1.9,0l0,0c0,1.4,0,2.7,0,4.1c0,0.2,0,0.2-0.2,0.2
		c-2.7,0-5.4,0-8.2,0c-0.2,0-0.2,0-0.2-0.2C25.7,24.1,25.7,22.8,25.7,21.4L25.7,21.4z"/>
	<path class="st4" d="M51.5,34.3c-2.8,0-5.6,0-8.4,0c-0.2,0-0.2,0-0.2-0.2c0-1.3,0-2.6,0-3.9c0-0.1,0-0.1,0-0.2l0,0
		c1.4,0,2.9,0,4.3,0c1.4,0,2.9,0,4.3,0c0,1,0,2.1,0,3.1C51.5,33.5,51.5,33.9,51.5,34.3z"/>
	<path class="st1" d="M34.3,21.4c0-1.4,0-2.7,0-4.1c0-0.2,0-0.2,0.2-0.2c2.7,0,5.5,0,8.2,0c0.1,0,0.2,0,0.2,0.2c0,1.4,0,2.7,0,4.1
		l0,0c-1.4,0-2.9,0-4.3,0C37.1,21.4,35.7,21.4,34.3,21.4L34.3,21.4z"/>
	<path class="st1" d="M17.1,21.4c0-1.4,0-2.7,0-4.1c0-0.2,0-0.2,0.2-0.2c2.7,0,5.5,0,8.2,0c0.1,0,0.2,0,0.2,0.2c0,1.4,0,2.7,0,4.1
		l0,0c-1.4,0-2.9,0-4.3,0C19.9,21.4,18.5,21.4,17.1,21.4L17.1,21.4z"/>
	<path class="st4" d="M47.2,21.4c1.2,0,2.5,0,3.7,0c0.2,0,0.3,0,0.5,0c0.1,0,0.2,0,0.2,0.2c0,1,0,2,0,2.9c0,0.4,0,0.8,0,1.2
		c-1.4,0-2.9,0-4.3,0C47.2,24.3,47.2,22.9,47.2,21.4z"/>
	<path class="st1" d="M12.8,25.7c0,1.4,0,2.8,0,4.2c0,0.1,0,0.1-0.2,0.1c-1.4,0-2.8,0-4.1,0c0-1.4,0-2.7,0-4.1c0-0.1,0-0.1,0-0.2
		C9.9,25.7,11.3,25.7,12.8,25.7L12.8,25.7z"/>
	<path class="st1" d="M47.2,21.4c0,1.4,0,2.9,0,4.3l0,0c-1.4,0-2.9,0-4.3,0c0-0.1,0-0.2,0-0.2c0-1.4,0-2.7,0-4.1l0,0
		c1.4,0,2.7,0,4.1,0C47,21.4,47.1,21.4,47.2,21.4z"/>
	<path class="st1" d="M47.2,25.7c1.4,0,2.9,0,4.3,0c0,1.2,0,2.4,0,3.6c0,0.2,0,0.5,0,0.7c-1.4,0-2.9,0-4.3,0
		C47.2,28.6,47.2,27.2,47.2,25.7L47.2,25.7z"/>
	<path class="st1" d="M17.1,25.7c-1.4,0-2.9,0-4.3,0l0,0c0-1.4,0-2.9,0-4.3c1,0,2.1,0,3.1,0c0.4,0,0.8,0,1.2,0l0,0
		c0,0.3,0,0.6,0,0.9C17.1,23.4,17.1,24.6,17.1,25.7z"/>
	<path class="st4" d="M12.8,21.4c0,1.4,0,2.9,0,4.3c-1.4,0-2.9,0-4.3,0c0-1.2,0-2.4,0-3.6c0-0.2,0-0.3,0-0.5c0-0.1,0-0.2,0.2-0.2
		c1,0,2,0,2.9,0C12,21.4,12.4,21.4,12.8,21.4z"/>
	<path class="st0" d="M17.1,25.7c0-1.1,0-2.3,0-3.4c0-0.3,0-0.6,0-0.9c1.4,0,2.8,0,4.2,0c1.4,0,2.9,0,4.3,0c0,1.4,0,2.7,0,4.1
		c0,0.2,0,0.2,0.2,0.2c2.7,0,5.4,0,8.2,0c0.2,0,0.2,0,0.2-0.2c0-1.4,0-2.7,0-4.1c1.4,0,2.8,0,4.2,0c1.4,0,2.9,0,4.3,0
		c0,1.4,0,2.7,0,4.1c0,0.1,0,0.2,0,0.2c0,1.4,0,2.9,0,4.3l0,0c-1.4,0-2.8,0-4.1,0c-0.1,0-0.2,0-0.2,0.2c0,1.3,0,2.6,0,3.9
		c0,0.1,0,0.1,0,0.2c-1.4,0-2.7,0-4.1,0c-0.2,0-0.2,0-0.2,0.2c0,1.4,0,2.7,0,4.1c-2.9,0-5.7,0-8.6,0c0-1.4,0-2.7,0-4.1
		c0-0.1,0-0.2-0.2-0.2c-1.4,0-2.8,0-4.1,0c0-1.2,0-2.4,0-3.6c0-0.2,0-0.4,0-0.5c0-0.1,0-0.2-0.2-0.2c-1.4,0-2.8,0-4.1,0
		c0-1,0-2.1,0-3.1C17.1,26.5,17.1,26.1,17.1,25.7z"/>
	<path class="st4" d="M34.3,38.6c0-1.4,0-2.7,0-4.1c0-0.1,0-0.2,0.2-0.2c1.4,0,2.7,0,4.1,0c0,0.1,0,0.1,0,0.2c0,4.2,0,8.3,0,12.5
		c0,0.2,0,0.2,0.2,0.2c1.3,0,2.6,0,3.9,0c0.2,0,0.2,0,0.2,0.2c0,1.4,0,2.7,0,4.1c-0.1,0-0.1,0-0.2,0c-2.7,0-5.5,0-8.2,0
		c-0.1,0-0.1,0-0.2,0c0,0,0,0,0,0c0-0.1,0-0.1,0-0.2c0-4.2,0-8.3,0-12.5C34.3,38.7,34.3,38.7,34.3,38.6z"/>
	<path class="st4" d="M21.4,34.3c1.4,0,2.8,0,4.1,0c0.1,0,0.2,0,0.2,0.2c0,1.4,0,2.7,0,4.1c0,0,0,0.1,0,0.1c0,4.2,0,8.4,0,12.6
		c0,0.1,0,0.1,0,0.2l0,0c-0.1,0-0.1,0-0.2,0c-2.7,0-5.5,0-8.2,0c-0.1,0-0.1,0-0.2,0c0-1.4,0-2.7,0-4.1c0-0.2,0-0.2,0.2-0.2
		c1.3,0,2.6,0,3.9,0c0.2,0,0.2,0,0.2-0.2c0-4.2,0-8.3,0-12.5C21.4,34.4,21.4,34.4,21.4,34.3z"/>
	<path class="st2" d="M25.7,51.5c0-0.1,0-0.1,0-0.2c0-4.2,0-8.4,0-12.6c0,0,0-0.1,0-0.1c2.9,0,5.7,0,8.6,0c0,0.1,0,0.1,0,0.2
		c0,4.2,0,8.3,0,12.5c0,0.1,0,0.1,0,0.2c-1,0-2,0-3,0C29.4,51.5,27.5,51.5,25.7,51.5z"/>
	<path class="st3" d="M42.9,30c0-1.4,0-2.9,0-4.3c1.4,0,2.9,0,4.3,0c0,1.4,0,2.9,0,4.3C45.7,30,44.3,30,42.9,30z"/>
</g>
</svg>
