<svg width="3443" height="3443" viewBox="0 0 3443 3443" fill="none" xmlns="http://www.w3.org/2000/svg">
<g clip-path="url(#clip0_21_2)">
<path d="M2087.02 3261.79V3443H2268.1V3261.79H2087.02Z" fill="#B2B2B2"/>
<path d="M1181.62 3261.79V3443H1362.7V3261.79H1181.62Z" fill="#B2B2B2"/>
<path d="M1181.62 3261.79H1362.7V3080.58H1181.62V3261.79Z" fill="#403E3E"/>
<path d="M1362.7 2899.37V3080.58H2087.02V3261.79H2268.11V2899.37H1362.7Z" fill="#403E3E"/>
<path d="M2268.12 3080.58H2449.2V2718.15H2268.12V3080.58Z" fill="#DB7144"/>
<path d="M2268.1 2899.37V2536.95H1543.77V2899.37H2268.1Z" fill="#2B2B2B"/>
<path d="M1362.69 2718.15H1000.52V3080.58H1362.69V2718.15Z" fill="#E69157"/>
<path d="M1362.69 2718.15V2536.95H1181.61V2355.74H1000.52V2718.15H1362.69Z" fill="#2B2B2B"/>
<path d="M1181.62 2355.74V2536.95H1362.7V2899.37H1543.78V2536.95H2268.11V2718.16H2449.2V2355.74H1181.62Z" fill="#403E3E"/>
<path d="M1181.61 2174.53H1000.52V2355.74H1181.61V2174.53Z" fill="#DB7144"/>
<path d="M1000.53 1630.89H638.365V1812.1H819.448V2174.52H1000.53V1630.89Z" fill="#DB7144"/>
<path d="M638.365 1812.11V1993.32H819.448V1812.11H638.365Z" fill="#3C2722"/>
<path d="M638.365 2174V2355.21H819.448V2174H638.365Z" fill="#3C2722"/>
<path d="M820 2174V2355.21H1001.08V2174H820Z" fill="#3C2722"/>
<path d="M820 2355V2536.21H1001.08V2355H820Z" fill="#3C2722"/>
<path d="M820 2536V2717.21H1001.08V2536H820Z" fill="#3C2722"/>
<path d="M638.365 1995V2176.21H819.448V1995H638.365Z" fill="#3C2722"/>
<path d="M1724.86 1812.11V1993.31H2087.02V1812.11H2268.1V1449.68H1543.77V1812.11H1724.86Z" fill="#F4F1EB"/>
<path d="M638.356 1449.68H819.441V1630.9H1000.52V1087.26H1181.61V906.054H1724.86V724.846H2268.1V906.054H2811.36V724.846H2449.19V543.634H2268.1V362.424H1000.52V543.634H819.441V724.846H638.356V1087.26H457.273V1812.11H638.356V1449.68Z" fill="#45241C"/>
<path d="M1181.62 1630.89H1362.7V1268.47H1181.62V1630.89Z" fill="white"/>
<path d="M819.448 1449.68H638.365V1630.89H819.448V1449.68Z" fill="#E69157"/>
<path d="M2449.19 1630.89H2630.27V1268.47H2449.19V1630.89Z" fill="white"/>
<path d="M1181.61 1087.26H1000.52V1268.48H1181.61V1087.26Z" fill="#DB7144"/>
<path d="M2811.37 1087.26H2992.46V906.055H2811.37V1087.26Z" fill="#3F2419"/>
<path d="M2811.37 1268.21H2992.46V1087H2811.37V1268.21Z" fill="#3F2419"/>
<path d="M2811.37 1450.21H2992.46V1269H2811.37V1450.21Z" fill="#3F2419"/>
<path d="M2811.37 1632.21H2992.46V1451H2811.37V1632.21Z" fill="#3F2419"/>
<path d="M2811.37 1814.21H2992.46V1633H2811.37V1814.21Z" fill="#3F2419"/>
<path d="M2811.37 1996.21H2992.46V1815H2811.37V1996.21Z" fill="#3F2419"/>
<path d="M2632 2356.21H2813.09V2175H2632V2356.21Z" fill="#3F2419"/>
<path d="M2632 2536.21H2813.09V2355H2632V2536.21Z" fill="#3F2419"/>
<path d="M2451 2536.21H2632.09V2355H2451V2536.21Z" fill="#3C2722"/>
<path d="M2451 2717.21H2632.09V2536H2451V2717.21Z" fill="#3C2722"/>
<path d="M820 1813.21H1001.09V1632H820V1813.21Z" fill="#45241C"/>
<path d="M820 1995.21H1001.09V1814H820V1995.21Z" fill="#45241C"/>
<path d="M820 2173.21H1001.09V1992H820V2173.21Z" fill="#45241C"/>
<path d="M2630.27 1087.26H2811.35V906.055H2630.27V1087.26Z" fill="#DB7144"/>
<path d="M2630.27 1630.9H2449.19V1268.48H2630.27V1630.9ZM1543.77 1449.69H2268.1V1812.11H2087.02V1993.32H1724.86V1812.11H1543.77V1449.69ZM2630.27 906.055H1724.86V1087.26H1181.61V1268.48H1362.69V1630.9H1181.61V1268.48H1000.52V2174.53H1181.61V2355.74H2630.27V2174.53H2811.36V1087.26H2630.27V906.055Z" fill="#E69157"/>
<path d="M2449 1087.26H2630.08V906.055H2449V1087.26Z" fill="#DB7144"/>
<path d="M1724.86 1087.26V906.055H1181.62V1087.26H1724.86Z" fill="#DB7144"/>
<path d="M638.357 724.84H457.273V1087.26H638.357V724.84Z" fill="#3C2722"/>
<path d="M2268.12 906.055V724.84H1724.88V906.055H2268.12Z" fill="#DB7144"/>
<path d="M2811.36 364.42H2630.28V183.21H2268.12V2H1181.61V183.21H819.448V364.42H638.365V726.839H819.448V545.631H1000.53V364.42H2268.12V545.631H2449.2V726.839H2811.36V908.054H2992.44V545.631H2811.36V364.42Z" fill="#3C2722"/>
<path d="M1721 2174V2355.21H1902.08V2174H1721Z" fill="#8B675D"/>
<path d="M1544 2174V2355.21H1725.08V2174H1544Z" fill="#8B675D"/>
<path d="M1363 2174V2355.21H1544.08V2174H1363Z" fill="#8B675D"/>
<path d="M1182 2174V2355.21H1363.08V2174H1182Z" fill="#8B675D"/>
<path d="M1544 1994V2175.21H1725.08V1994H1544Z" fill="#8B675D"/>
<path d="M1363 1994V2175.21H1544.08V1994H1363Z" fill="#8B675D"/>
<path d="M1182 1994V2175.21H1363.08V1994H1182Z" fill="#8B675D"/>
<path d="M1001 1994V2175.21H1182.08V1994H1001Z" fill="#8B675D"/>
<path d="M1001 1814V1995.21H1182.08V1814H1001Z" fill="#8B675D"/>
<path d="M1363 1812V1993.21H1544.08V1812H1363Z" fill="#8B675D"/>
<path d="M1363 1630V1811.21H1544.08V1630H1363Z" fill="#8B675D"/>
<path d="M1903 2174V2355.21H2084.08V2174H1903Z" fill="#8B675D"/>
<path d="M2085 1994V2175.21H2266.08V1994H2085Z" fill="#8B675D"/>
<path d="M2266 1994V2175.21H2447.08V1994H2266Z" fill="#8B675D"/>
<path d="M2085 2174V2355.21H2266.08V2174H2085Z" fill="#8B675D"/>
<path d="M2266 2174V2355.21H2447.08V2174H2266Z" fill="#8B675D"/>
<path d="M2445 2174V2355.21H2626.08V2174H2445Z" fill="#65463E"/>
<path d="M2447 2174V2355.21H2628.08V2174H2447Z" fill="#8B675D"/>
<path d="M2447 1994V2175.21H2628.08V1994H2447Z" fill="#8B675D"/>
<path d="M2629 1994V2175.21H2810.08V1994H2629Z" fill="#8B675D"/>
<path d="M2629 1813V1994.21H2810.08V1813H2629Z" fill="#8B675D"/>
<path d="M2268 1812V1993.21H2449.08V1812H2268Z" fill="#8B675D"/>
<path d="M2268 1630V1811.21H2449.08V1630H2268Z" fill="#8B675D"/>
</g>
<defs>
<clipPath id="clip0_21_2">
<rect width="3443" height="3443" fill="white"/>
</clipPath>
</defs>
</svg>
