<?xml version="1.0" encoding="utf-8"?>
<!-- Generator: Adobe Illustrator 25.4.0, SVG Export Plug-In . SVG Version: 6.00 Build 0)  -->
<svg version="1.1" id="Layer_1" xmlns="http://www.w3.org/2000/svg" xmlns:xlink="http://www.w3.org/1999/xlink" x="0px" y="0px"
	 viewBox="0 0 30 30" style="enable-background:new 0 0 30 30;" xml:space="preserve">
<style type="text/css">
	.st0{fill:#011B0E;}
	.st1{fill:#7FFEC0;}
	.st2{fill:#3854FE;}
</style>
<g>
	<path class="st0" d="M0,29.8c0-9.9,0-19.7,0-29.6c0.1,0,0.1,0,0.1-0.1c0.1-0.1,0.1-0.1,0.2-0.1c9.8,0,19.5,0,29.3,0
		c0.2,0,0.3,0.1,0.3,0.3c0,9.8,0,19.5,0,29.3c0,0.1,0,0.2-0.1,0.2c0,0-0.1,0-0.1,0.1c-9.9,0-19.7,0-29.6,0C0.2,29.9,0.1,29.8,0,29.8
		z M15,26.3c3.2,0,6.3,0,9.5,0c0.5,0,1,0,1.5,0c0.2,0,0.3-0.1,0.3-0.3c0-1.2,0-2.5,0-3.7c0-6,0-12,0-18.1c0-0.2-0.1-0.4-0.4-0.4
		c-2.3,0-4.5,0-6.8,0c-0.2,0-0.4,0.1-0.4,0.4c0,1,0,2,0,3c0,0.2-0.1,0.3-0.3,0.3c-2.2,0-4.5,0-6.7,0c-0.3,0-0.3-0.1-0.3-0.3
		c0-1,0-2,0-3c0-0.2-0.2-0.4-0.4-0.4c-2.3,0-4.6,0-6.8,0c-0.1,0-0.2,0-0.2,0.1C3.7,3.9,3.7,4,3.7,4.2c0,3.1,0,6.2,0,9.3
		c0,3.1-0.1,6.2,0,9.3c0,1,0,2.1,0,3.1c0,0.3,0.1,0.4,0.4,0.4C7.8,26.3,11.4,26.3,15,26.3z"/>
	<path class="st1" d="M29.8,30C29.8,29.9,29.8,29.9,29.8,30c0.1-0.2,0.2-0.2,0.2-0.3c0-9.8,0-19.5,0-29.3c0-0.2-0.1-0.3-0.3-0.3
		c-9.8,0-19.5,0-29.3,0c-0.1,0-0.2,0-0.2,0.1c0,0,0,0.1-0.1,0.1C0,0.2,0,0.1,0,0c0,0,0.1,0,0.2,0C10.1,0,20,0,29.9,0
		C30,0,30,0,30,0.1c0,9.9,0,19.8,0,29.7C30,30,30,30,29.8,30C29.8,30,29.8,30,29.8,30z"/>
	<path class="st1" d="M0,29.8c0.1,0,0.2,0.1,0.2,0.2C0,30,0,30,0,29.8z"/>
	<path class="st2" d="M15,26.3c-3.6,0-7.2,0-10.8,0c-0.3,0-0.4-0.1-0.4-0.4c0-1,0-2.1,0-3.1c-0.1-3.1,0-6.2,0-9.3c0-3.1,0-6.2,0-9.3
		c0-0.1,0-0.2,0.1-0.3C3.9,3.8,4,3.7,4.1,3.7c2.3,0,4.6,0,6.8,0c0.2,0,0.4,0.2,0.4,0.4c0,1,0,2,0,3c0,0.2,0.1,0.3,0.3,0.3
		c2.2,0,4.5,0,6.7,0c0.2,0,0.3-0.1,0.3-0.3c0-1,0-2,0-3c0-0.2,0.1-0.4,0.4-0.4c2.3,0,4.5,0,6.8,0c0.2,0,0.4,0.1,0.4,0.4
		c0,6,0,12,0,18.1c0,1.2,0,2.5,0,3.7c0,0.2-0.1,0.3-0.3,0.3c-0.5,0-1,0-1.5,0C21.3,26.3,18.1,26.3,15,26.3z M15,7.6
		c-1.1,0-2.2,0-3.3,0c-0.1,0-0.3-0.1-0.4,0.1c-0.1,0.1-0.1,0.1-0.1,0.2c0,1,0,2,0,3.1c0,0.1,0,0.3,0,0.4c0,0.1,0,0.2,0,0.3
		c0,0.7,0,1.4,0,2.1c0,0.4,0,0.9,0,1.3c0,0,0,0.1,0,0.1c0,0.1,0,0.1,0,0.2c0,1,0,2,0,3.1c0,0.1,0,0.1,0,0.2c0,0.2,0.1,0.4,0.1,0.5
		c0,1,0,2,0,3.1c0,0.1,0,0.1,0,0.2c0,0,0,0.1,0,0c0.1,0,0.2,0,0.3,0c2.2,0,4.5,0,6.7,0c0,0,0.1,0,0.1,0c0.2,0,0.2-0.1,0.2-0.2
		c0-1,0-2,0-3.1c0-0.1,0-0.2,0-0.4c0-0.1,0.1-0.3,0.1-0.4c0-1,0-2,0-3.1c0,0,0-0.1,0-0.1c-0.1-0.2-0.1-0.4-0.1-0.5
		c0-1.2,0-2.5,0.1-3.7c0.1-1,0-2.1,0-3.2c0,0,0-0.1-0.1-0.1c-0.1-0.1-0.2-0.1-0.3-0.1C17.3,7.6,16.1,7.6,15,7.6z M3.8,13.1
		c0,3,0,6,0,9c0,0.1,0,0.1,0,0.2c0,0.1,0.1,0.2,0.3,0.2c1,0,2.1,0,3.1,0c0,0,0.1,0,0.1,0c0.1-0.1,0.1-0.2,0.1-0.3c0-1,0-2.1,0-3.1
		c0-0.1,0-0.1,0-0.2c0.1-0.2,0.1-0.3,0.1-0.5c0-1,0-2,0-3.1c0-0.1,0-0.1,0-0.2c-0.1-0.2-0.1-0.4-0.1-0.6c0-1,0-1.9,0-2.9
		c0-0.1,0-0.1,0-0.2c0-0.2,0.1-0.4,0.1-0.6c0-1,0-2,0-3c0-0.2,0.1-0.4,0.4-0.4c1,0,2,0,3,0c0.1,0,0.2,0,0.2-0.1c0,0,0,0,0,0
		c0.1,0,0.1-0.1,0.1-0.1c0-1,0-2.1,0-3.1c0-0.2-0.1-0.3-0.3-0.3c-2.2,0-4.5,0-6.7,0c-0.2,0-0.3,0.1-0.3,0.3
		C3.8,7.2,3.8,10.2,3.8,13.1z M26.1,13.2c0-3,0-6,0-9c0-0.2-0.1-0.3-0.3-0.3c-2.2,0-4.3,0-6.5,0c-0.1,0-0.2,0-0.3,0
		c-0.1,0-0.2,0.1-0.2,0.2c0,0.3,0,0.6,0,0.9c0,0.7,0,1.5,0,2.2c0,0.2,0.1,0.3,0.3,0.3c1,0,2,0,3,0c0.2,0,0.3,0.1,0.3,0.3
		c0,1,0,2,0,3c0,0.1,0,0.1,0,0.2c0.1,0.1,0.1,0.3,0.1,0.4c0,1,0,2.1,0,3.1c0,0.1,0,0.1,0,0.2c0,0.2-0.1,0.3-0.1,0.5
		c0,0.8,0,1.7,0,2.5c0,0.3,0,0.7,0.1,1c0.1,0.2,0,0.4,0,0.5c0,0.9,0,1.9,0,2.8c0,0.2,0.1,0.3,0.3,0.3c1,0,2,0,3,0
		c0.2,0,0.3-0.1,0.3-0.3c0-0.1,0-0.1,0-0.2C26.1,19.1,26.1,16.1,26.1,13.2z M7.5,13.1c0,0.5,0,1,0,1.6c0,0.2,0.2,0.3,0.3,0.3
		c1,0,2,0,3,0c0.1,0,0.2,0,0.2-0.1c0-0.1,0.1-0.1,0.1-0.2c0-0.8,0-1.6,0-2.3c0-0.3,0-0.5,0-0.8c0-0.2-0.1-0.3-0.3-0.3
		c-1,0-2.1,0-3.1,0c-0.2,0-0.3,0.1-0.3,0.3C7.5,12.1,7.5,12.6,7.5,13.1z M7.5,20.7c0,0.5,0,1.1,0,1.6c0,0.1,0,0.1,0,0.2
		c0.1,0.1,0.2,0.1,0.3,0.1c1,0,2,0,3,0c0.2,0,0.3-0.1,0.3-0.3c0-0.8,0-1.6,0-2.4c0-0.2,0-0.5,0-0.7c0-0.2-0.1-0.3-0.3-0.3
		c-1,0-2,0-3,0c-0.2,0-0.3,0.1-0.3,0.3C7.5,19.6,7.5,20.1,7.5,20.7z M18.8,20.6c0,0.5,0,1,0,1.6c0,0.2,0.1,0.3,0.3,0.3c1,0,2,0,3,0
		c0.2,0,0.3-0.1,0.3-0.3c0-1,0-2.1,0-3.1c0-0.2-0.1-0.3-0.3-0.3c-1,0-2,0-3,0c-0.2,0-0.3,0.1-0.3,0.3C18.8,19.6,18.8,20.1,18.8,20.6
		z M18.8,13.1c0,0.5,0,1,0,1.6c0,0.2,0.1,0.3,0.3,0.3c1,0,2,0,3,0c0.2,0,0.3-0.1,0.3-0.3c0-1,0-2.1,0-3.1c0-0.2-0.1-0.3-0.3-0.3
		c-1,0-2,0-3,0c-0.2,0-0.3,0.1-0.3,0.3C18.8,12.1,18.8,12.6,18.8,13.1z"/>
	<path class="st1" d="M15,7.6c1.1,0,2.3,0,3.4,0c0.1,0,0.2,0,0.3,0.1c0,0,0.1,0.1,0.1,0.1c0,1.1,0.1,2.1,0,3.2
		c-0.1,1.2,0,2.5-0.1,3.7c0,0.2,0,0.4,0.1,0.5c0,0,0,0.1,0,0.1c0,1,0,2,0,3.1c0,0.1,0,0.3-0.1,0.4c0,0.1,0,0.2,0,0.4c0,1,0,2,0,3.1
		c0,0.2,0,0.2-0.2,0.2c0,0-0.1,0-0.1,0c-2.2,0-4.5,0-6.7,0c-0.1,0-0.2-0.1-0.3,0c0,0,0,0,0,0c0-0.1,0-0.1,0-0.2c0-1,0-2,0-3.1
		c0-0.2,0-0.4-0.1-0.5c0-0.1,0-0.1,0-0.2c0-1,0-2,0-3.1c0-0.1,0-0.2,0-0.2c0,0,0-0.1,0-0.1c0-0.4,0-0.9,0-1.3c0-0.7,0-1.4,0-2.1
		c0-0.1,0-0.2,0-0.3c0-0.1,0-0.3,0-0.4c0-1,0-2,0-3.1c0-0.1,0-0.1,0.1-0.2c0.1-0.1,0.3-0.1,0.4-0.1C12.8,7.6,13.9,7.6,15,7.6z"/>
	<path class="st1" d="M3.8,13.1c0-3,0-6,0-9c0-0.3,0.1-0.3,0.3-0.3c2.2,0,4.5,0,6.7,0c0.2,0,0.3,0.1,0.3,0.3c0,1,0,2.1,0,3.1
		c0,0.1,0,0.1-0.1,0.1c0,0,0,0,0,0c0,0.1-0.1,0.1-0.2,0.1c-1,0-2,0-3,0c-0.2,0-0.4,0.1-0.4,0.4c0,1,0,2,0,3c0,0.2-0.1,0.4-0.1,0.6
		c0,0.1,0,0.1,0,0.2c0,1,0,1.9,0,2.9c0,0.2,0,0.4,0.1,0.6c0,0.1,0,0.1,0,0.2c0,1,0,2,0,3.1c0,0.2,0,0.4-0.1,0.5c0,0,0,0.1,0,0.2
		c0,1,0,2.1,0,3.1c0,0.1,0,0.2-0.1,0.3c0,0-0.1,0-0.1,0c-1,0-2.1,0-3.1,0c-0.1,0-0.2-0.1-0.3-0.2c0-0.1,0-0.1,0-0.2
		C3.8,19.1,3.8,16.1,3.8,13.1z"/>
	<path class="st1" d="M26.1,13.2c0,3,0,6,0,8.9c0,0.1,0,0.1,0,0.2c0,0.2-0.1,0.3-0.3,0.3c-1,0-2,0-3,0c-0.2,0-0.3,0-0.3-0.3
		c0-0.9,0-1.9,0-2.8c0-0.2,0-0.4,0-0.5c-0.1-0.3-0.1-0.7-0.1-1c0-0.8,0-1.7,0-2.5c0-0.2,0.1-0.3,0.1-0.5c0-0.1,0-0.1,0-0.2
		c0-1,0-2.1,0-3.1c0-0.2,0-0.3-0.1-0.4c0-0.1,0-0.1,0-0.2c0-1,0-2,0-3c0-0.2-0.1-0.3-0.3-0.3c-1,0-2,0-3,0c-0.2,0-0.3-0.1-0.3-0.3
		c0-0.7,0-1.5,0-2.2c0-0.3,0-0.6,0-0.9c0-0.1,0.1-0.2,0.2-0.2c0.1,0,0.2,0,0.3,0c2.2,0,4.3,0,6.5,0c0.2,0,0.3,0.1,0.3,0.3
		C26.1,7.2,26.1,10.2,26.1,13.2z"/>
	<path class="st0" d="M7.5,13.1c0-0.5,0-1,0-1.5c0-0.2,0.1-0.3,0.3-0.3c1,0,2.1,0,3.1,0c0.2,0,0.3,0.1,0.3,0.3c0,0.3,0,0.5,0,0.8
		c0,0.8,0,1.6,0,2.3c0,0.1,0,0.2-0.1,0.2C11.1,15,11,15,10.9,15c-1,0-2,0-3,0c-0.2,0-0.3-0.2-0.3-0.3C7.5,14.2,7.5,13.7,7.5,13.1z"
		/>
	<path class="st0" d="M7.5,20.7c0-0.5,0-1,0-1.6c0-0.2,0.1-0.3,0.3-0.3c1,0,2,0,3,0c0.2,0,0.3,0.1,0.3,0.3c0,0.2,0,0.5,0,0.7
		c0,0.8,0,1.6,0,2.4c0,0.2-0.1,0.3-0.3,0.3c-1,0-2,0-3,0c-0.1,0-0.2-0.1-0.3-0.1c-0.1,0,0-0.1,0-0.2C7.5,21.7,7.5,21.2,7.5,20.7z"/>
	<path class="st0" d="M18.8,20.6c0-0.5,0-1,0-1.5c0-0.2,0.1-0.3,0.3-0.3c1,0,2,0,3,0c0.2,0,0.3,0.1,0.3,0.3c0,1,0,2.1,0,3.1
		c0,0.2-0.1,0.3-0.3,0.3c-1,0-2,0-3,0c-0.2,0-0.3-0.1-0.3-0.3C18.8,21.7,18.8,21.2,18.8,20.6z"/>
	<path class="st0" d="M18.8,13.1c0-0.5,0-1,0-1.5c0-0.2,0.1-0.3,0.3-0.3c1,0,2,0,3,0c0.2,0,0.3,0.1,0.3,0.3c0,1,0,2.1,0,3.1
		c0,0.2-0.1,0.3-0.3,0.3c-1,0-2,0-3,0c-0.2,0-0.3-0.1-0.3-0.3C18.8,14.2,18.8,13.7,18.8,13.1z"/>
</g>
</svg>
