<?xml version="1.0" encoding="utf-8"?>
<!-- Generator: Adobe Illustrator 25.4.0, SVG Export Plug-In . SVG Version: 6.00 Build 0)  -->
<svg version="1.1" id="Layer_1" xmlns="http://www.w3.org/2000/svg" xmlns:xlink="http://www.w3.org/1999/xlink" x="0px" y="0px"
	 viewBox="0 0 30 30" style="enable-background:new 0 0 30 30;" xml:space="preserve">
<style type="text/css">
	.st0{fill:#FEFEFE;}
	.st1{fill:#FED30B;}
	.st2{fill:#1A0007;}
	.st3{fill:#7FFEC0;}
</style>
<g>
	<g>
		<path class="st0" d="M30,30.2c0-0.1,0-0.2,0-0.3c0-3.5,0-7,0-10.6c0-0.1,0-0.2,0-0.3c0,0,0-0.1,0-0.1c0,3.7,0,7.5,0,11.2
			C30,30.1,30,30.2,30,30.2z"/>
		<path class="st1" d="M7.5,19.1c0-1.2,0-2.4,0-3.5c0-0.2,0.1-0.3,0.3-0.3c1,0,2,0,3.1,0c0.2,0,0.3-0.1,0.3-0.3c0-2.3,0-4.5,0-6.8
			c0-0.1,0-0.2-0.1-0.3c0,0-0.1-0.1-0.1-0.1c0-0.1-0.1-0.1-0.2-0.1c-1,0-2,0-3,0c-0.2,0-0.2,0-0.2-0.2c0-1,0-2,0-3
			c0-0.2,0-0.2,0.2-0.2c1,0,1.9,0,2.9,0c0.2,0,0.4-0.1,0.5-0.1c0.1,0,0.1,0,0.2,0c2.3,0,4.6,0,6.9,0c0.1,0,0.2,0,0.3,0
			c0,0,0.1,0,0.1,0.1c0,0.1,0.1,0.1,0.2,0.1c1,0,2.1,0,3.1,0c0.2,0,0.2,0,0.2,0.2c0,1,0,2,0,3c0,0.2,0,0.2-0.2,0.2c-1,0-2,0-3,0
			c-0.2,0-0.2,0-0.3,0.2c-0.1,0.1-0.1,0.3-0.1,0.5c0,2.2,0,4.4,0,6.6c0,0.2,0.1,0.4,0.4,0.4c0.9,0,1.9,0,2.8,0c0.1,0,0.2,0,0.3,0
			c0.2,0,0.3,0.1,0.3,0.3c0,2.2,0,4.5,0,6.7c0,0.1,0,0.2,0,0.2c0,0.2,0.1,0.3,0.3,0.3c1,0,2.1,0,3.1,0c0.2,0,0.2,0,0.2,0.2
			c0,1,0,2,0,3c0,0.2,0,0.2-0.2,0.2c-2.3,0-4.5,0-6.8,0c-0.2,0-0.2,0-0.2-0.2c0-1,0-2.1,0-3.1c0-0.1,0-0.2-0.1-0.2c0,0,0,0,0,0
			c-0.1-0.2-0.3-0.2-0.6-0.2c-2.2,0-4.4,0-6.6,0c-0.1,0-0.2,0-0.3,0.1c0,0.1-0.1,0.1-0.2,0.1c-0.1,0.1-0.1,0.1-0.1,0.3c0,1,0,2,0,3
			c0,0.2,0,0.2-0.2,0.2c-2.2,0-4.5,0-6.7,0c-0.2,0-0.2,0-0.2-0.2c0-1,0-2,0-3c0-0.1,0-0.2,0.2-0.2c1,0,2,0,3,0c0.1,0,0.2,0,0.3,0
			c0.1,0,0.1-0.1,0.1-0.1c0-0.4,0-0.8,0-1.2C7.5,20.8,7.5,20,7.5,19.1z"/>
		<path class="st2" d="M15,30.1c-4.9,0-9.8,0-14.6,0c-0.2,0-0.3-0.1-0.3-0.3c0-3.5,0-7,0-10.5c0-0.2,0.1-0.3,0.3-0.3c1,0,2,0,3.1,0
			c0.2,0,0.4-0.1,0.4-0.4c0-6,0-12,0-18c0-0.2,0.1-0.3,0.3-0.3c7.2,0,14.5,0,21.7,0c0.2,0,0.3,0.1,0.3,0.3c0,6,0,12,0,17.9
			c0,0.1,0,0.2,0.1,0.3c0.1,0.1,0.1,0.1,0.2,0.1c1,0,2.1,0,3.1,0c0.2,0,0.3,0.1,0.3,0.3c0,3.5,0,7,0,10.5c0,0.2-0.1,0.3-0.3,0.3
			C24.7,30.1,19.9,30.1,15,30.1z M7.5,19.1c0,0.8,0,1.6,0,2.4c0,0.4,0,0.8,0,1.2c0,0.1,0,0.1-0.1,0.1c-0.1,0-0.2,0-0.3,0
			c-1,0-2,0-3,0c-0.1,0-0.2,0-0.2,0.2c0,1,0,2,0,3c0,0.2,0,0.2,0.2,0.2c2.2,0,4.5,0,6.7,0c0.2,0,0.2,0,0.2-0.2c0-1,0-2,0-3
			c0-0.1,0-0.2,0.1-0.3c0.1,0,0.1-0.1,0.2-0.1c0.1-0.1,0.1-0.1,0.3-0.1c2.2,0,4.4,0,6.6,0c0.2,0,0.4,0,0.6,0.2c0,0,0,0,0,0
			c0.1,0,0.1,0.1,0.1,0.2c0,1,0,2.1,0,3.1c0,0.2,0,0.2,0.2,0.2c2.3,0,4.5,0,6.8,0c0.2,0,0.2,0,0.2-0.2c0-1,0-2,0-3
			c0-0.2,0-0.2-0.2-0.2c-1,0-2.1,0-3.1,0c-0.2,0-0.3-0.1-0.3-0.3c0-0.1,0-0.2,0-0.2c0-2.2,0-4.5,0-6.7c0-0.2-0.1-0.3-0.3-0.3
			c-0.1,0-0.2,0-0.3,0c-0.9,0-1.9,0-2.8,0c-0.2,0-0.4-0.1-0.4-0.4c0-2.2,0-4.4,0-6.6c0-0.2,0-0.3,0.1-0.5c0.1-0.2,0.1-0.2,0.3-0.2
			c1,0,2,0,3,0c0.2,0,0.2,0,0.2-0.2c0-1,0-2,0-3c0-0.2,0-0.2-0.2-0.2c-1,0-2.1,0-3.1,0c-0.1,0-0.2,0-0.2-0.1c0-0.1-0.1-0.1-0.1-0.1
			c-0.1,0-0.2,0-0.3,0c-2.3,0-4.6,0-6.9,0c-0.1,0-0.1,0-0.2,0c-0.2,0.1-0.3,0.1-0.5,0.1c-1,0-1.9,0-2.9,0c-0.2,0-0.2,0-0.2,0.2
			c0,1,0,2,0,3c0,0.2,0,0.2,0.2,0.2c1,0,2,0,3,0c0.1,0,0.2,0,0.2,0.1c0,0,0,0.1,0.1,0.1c0.1,0.1,0.1,0.2,0.1,0.3c0,2.3,0,4.5,0,6.8
			c0,0.2-0.1,0.3-0.3,0.3c-1,0-2,0-3.1,0c-0.2,0-0.3,0.1-0.3,0.3C7.5,16.8,7.5,18,7.5,19.1z"/>
	</g>
	<rect x="18.4" y="15" class="st3" width="4.2" height="7.6"/>
	<rect x="7.5" y="3.7" class="st3" width="14.8" height="4.2"/>
	<rect x="7.5" y="15" class="st3" width="4.2" height="7.6"/>
</g>
</svg>
