<?xml version="1.0" encoding="utf-8"?>
<!-- Generator: Adobe Illustrator 25.4.0, SVG Export Plug-In . SVG Version: 6.00 Build 0)  -->
<svg version="1.1" id="Layer_1" xmlns="http://www.w3.org/2000/svg" xmlns:xlink="http://www.w3.org/1999/xlink" x="0px" y="0px"
	 viewBox="0 0 60 60" style="enable-background:new 0 0 60 60;" xml:space="preserve">
<style type="text/css">
	.st0{fill:#B8C2FE;}
	.st1{fill:#36FEDE;}
	.st2{fill:#FE9431;}
	.st3{fill:#FED30B;}
	.st4{fill:#3854FE;}
</style>
<g>
	<path d="M34.1,0.1c2.9,0,5.8,0,8.6,0c0,1.3,0,2.7,0,4c-1.4,0-2.8,0-4.2,0c-0.1,0-0.2,0-0.2,0.2c0,2.8,0,5.5,0,8.3
		c0,0.1,0,0.2,0.2,0.2c4.2,0,8.4,0,12.6,0c0.1,0,0.2,0,0.2-0.2c0-1.4,0-2.8,0-4.2c2.9,0,5.8,0,8.6,0c0,2.9,0,5.8,0,8.6
		c-4.2,0-8.5,0-12.7,0c-0.1,0-0.2,0-0.2,0.2c0,1.3,0,2.6,0,4c0,0.1,0,0.2,0.2,0.2c1.3,0,2.6,0,3.9,0c0.2,0,0.2,0,0.2,0.2
		c0,1.4,0,2.7,0,4.1c-1.4,0-2.9,0-4.3,0c-0.1,0-0.1,0-0.2,0c-1.4,0-2.7,0-4.1,0c0-0.2,0-0.4,0-0.6c0-1.2,0-2.3,0-3.5
		c0-0.1,0-0.2-0.1-0.2c-1.4,0-2.8,0-4.2,0c-0.1,0-0.1,0-0.2,0c-5.6,0-11.3,0-16.9,0c-0.1,0-0.1,0-0.2,0c-1.4,0-2.7,0-4.1,0
		c-0.2,0-0.2,0-0.2,0.2c0,1.3,0,2.7,0,4c-0.2,0-0.4,0-0.6,0c-1.2,0-2.5,0-3.7,0c-1.4,0-2.9,0-4.3,0c0-1.4,0-2.7,0-4.1
		c0-0.1,0-0.2,0.2-0.2c1.3,0,2.6,0,3.9,0c0.2,0,0.2,0,0.2-0.2c0-1.3,0-2.6,0-3.9c0-0.2-0.1-0.2-0.2-0.2C8.2,17,4.1,17,0,17
		c0-2.9,0-5.8,0-8.6c2.8,0,5.5,0,8.3,0c0,1.4,0,2.8,0,4.2c0,0.1,0,0.2,0.2,0.2c4.2,0,8.4,0,12.6,0c0.1,0,0.2,0,0.2-0.2
		c0-2.8,0-5.5,0-8.3c0-0.1,0-0.2-0.2-0.2c-1.4,0-2.8,0-4.2,0c0-1.3,0-2.7,0-4c2.9,0,5.8,0,8.6,0c0,1.3,0,2.5,0,3.8
		c0,0.1,0,0.2,0.2,0.2c2.7,0,5.5,0,8.2,0c0.1,0,0.2,0,0.2-0.2C34.1,2.6,34.1,1.3,34.1,0.1z M34.1,12.7c0-1.4,0-2.8,0-4.2
		c0-0.1,0-0.2-0.2-0.2c-2.8,0-5.5,0-8.3,0c-0.1,0-0.2,0-0.2,0.2c0,2.8,0,5.5,0,8.3c0,0.1,0,0.2,0.2,0.2c2.8,0,5.5,0,8.3,0
		c0.1,0,0.2,0,0.2-0.2C34.1,15.5,34.1,14.1,34.1,12.7z"/>
	<path d="M47.1,60c0-1.4,0-2.8,0-4.2l0,0c2.8,0,5.6,0,8.4,0c0,0,0.1,0,0.1,0c0.1,0,0.1,0,0.1-0.1c0-1.4,0-2.8,0-4.2
		c0-1.4,0-2.9,0-4.3c0-1.4,0-2.9,0-4.3c0,0,0,0,0-0.1c0-4.3,0-8.6,0-12.9c1.4,0,2.9,0,4.3,0c0,10,0,19.9,0,29.9c0,0.1,0,0.2-0.2,0.2
		C55.6,60,51.3,60,47.1,60z"/>
	<path d="M12.6,55.8c0,1.4,0,2.8,0,4.2c-4.1,0-8.3,0-12.4,0C0,60,0,60,0,59.8c0-10,0-19.9,0-29.9c1.3,0,2.6,0,4,0
		c0,4.3,0,8.6,0,12.9c0,0,0,0,0,0.1c0,1.4,0,2.9,0,4.3c0,1.4,0,2.9,0,4.3c0,1.4,0,2.7,0,4.1c0,0.2,0,0.2,0.2,0.2
		C7,55.8,9.8,55.8,12.6,55.8L12.6,55.8z"/>
	<path class="st0" d="M8.3,25.6c1.4,0,2.9,0,4.3,0c0,2.8,0,5.6,0,8.4c0,0.2,0,0.2,0.2,0.2c11.3,0,22.7,0,34,0c0.2,0,0.2,0,0.2-0.2
		c0-2.8,0-5.6,0-8.4c1.4,0,2.9,0,4.3,0c0,0,0,0,0,0c0,0.2,0,0.4,0,0.6c0,1.2,0,2.5,0,3.7c0,0.1,0,0.2,0,0.2c0,2.7,0,5.5,0,8.2
		c0,0.2,0,0.2-0.2,0.2c-14.2,0-28.4,0-42.7,0c-0.2,0-0.2-0.1-0.2-0.2c0-2.7,0-5.5,0-8.2c0-0.1,0-0.2,0-0.2c0-0.1,0-0.1,0-0.2
		C8.3,28.4,8.3,27,8.3,25.6L8.3,25.6z"/>
	<path class="st1" d="M47.1,25.6c0,2.8,0,5.6,0,8.4c0,0.2,0,0.2-0.2,0.2c-11.3,0-22.7,0-34,0c-0.2,0-0.2,0-0.2-0.2
		c0-2.8,0-5.6,0-8.4c1.2,0,2.5,0,3.7,0c0.2,0,0.4,0,0.6,0c0,1.4,0,2.7,0,4.1c0,0.2,0,0.2,0.2,0.2c8.5,0,16.9,0,25.4,0
		c0.2,0,0.2,0,0.2-0.2c0-1.4,0-2.7,0-4.1c1.4,0,2.7,0,4.1,0C46.9,25.6,47,25.6,47.1,25.6z"/>
	<path class="st2" d="M42.8,25.6c0,1.4,0,2.7,0,4.1c0,0.2,0,0.2-0.2,0.2c-8.5,0-16.9,0-25.4,0c-0.2,0-0.2,0-0.2-0.2
		c0-1.4,0-2.7,0-4.1c0-1.3,0-2.7,0-4c0-0.2,0-0.2,0.2-0.2c1.4,0,2.7,0,4.1,0c0,1.4,0,2.7,0,4.1c0,0.1,0,0.2,0.2,0.2
		c5.6,0,11.3,0,16.9,0c0.1,0,0.2,0,0.2-0.2c0-1.4,0-2.7,0-4.1c1.4,0,2.8,0,4.2,0c0.1,0,0.1,0.1,0.1,0.2c0,1.2,0,2.3,0,3.5
		C42.8,25.2,42.8,25.4,42.8,25.6z"/>
	<path class="st3" d="M16.9,4.1c1.4,0,2.8,0,4.2,0c0.1,0,0.2,0,0.2,0.2c0,2.8,0,5.5,0,8.3c0,0.1,0,0.2-0.2,0.2c-4.2,0-8.4,0-12.6,0
		c-0.1,0-0.2,0-0.2-0.2c0-1.4,0-2.8,0-4.2c0,0,0,0,0,0c2.8,0,5.6,0,8.4,0c0.1,0,0.2,0,0.2-0.2C16.9,6.8,16.9,5.4,16.9,4.1L16.9,4.1z
		"/>
	<path class="st3" d="M51.4,8.4c0,1.4,0,2.8,0,4.2c0,0.1,0,0.2-0.2,0.2c-4.2,0-8.4,0-12.6,0c-0.1,0-0.2,0-0.2-0.2c0-2.8,0-5.5,0-8.3
		c0-0.1,0-0.2,0.2-0.2c1.4,0,2.8,0,4.2,0l0,0c0,1.4,0,2.7,0,4.1c0,0.2,0,0.2,0.2,0.2C45.8,8.4,48.6,8.4,51.4,8.4L51.4,8.4z"/>
	<path class="st1" d="M34.1,12.7c0,1.4,0,2.8,0,4.1c0,0.1,0,0.2-0.2,0.2c-2.8,0-5.5,0-8.3,0c-0.1,0-0.2,0-0.2-0.2c0-2.8,0-5.5,0-8.3
		c0-0.1,0-0.2,0.2-0.2c2.8,0,5.5,0,8.3,0c0.1,0,0.2,0,0.2,0.2C34.1,9.9,34.1,11.3,34.1,12.7z"/>
	<path class="st1" d="M38.4,21.3c0,1.4,0,2.7,0,4.1c0,0.1,0,0.2-0.2,0.2c-5.6,0-11.3,0-16.9,0c-0.1,0-0.2,0-0.2-0.2
		c0-1.4,0-2.7,0-4.1c0.1,0,0.1,0,0.2,0c5.6,0,11.3,0,16.9,0C38.3,21.3,38.4,21.3,38.4,21.3z"/>
	<path d="M38.4,51.5c-1.4,0-2.8,0-4.2,0c-0.1,0-0.2,0-0.2,0.2c0,1.3,0,2.7,0,4c0,0.1,0,0.2-0.2,0.2c-2.8,0-5.5,0-8.3,0
		c-0.1,0-0.2,0-0.2-0.2c0-1.3,0-2.6,0-4c0-0.1,0-0.2-0.2-0.2c-1.4,0-2.8,0-4.1,0l0,0c0-1.4,0-2.9,0-4.3c0,0,0.1,0,0.1,0
		c5.7,0,11.3,0,17,0c0,0,0.1,0,0.1,0C38.4,48.6,38.4,50.1,38.4,51.5L38.4,51.5z"/>
	<path d="M21.2,51.5c0,1.4,0,2.8,0,4.2c0,0.1,0,0.2-0.2,0.2c-2.8,0-5.7,0-8.5,0l0,0c0-1.4,0-2.9,0-4.3c0.1,0,0.1,0,0.2,0
		C15.6,51.5,18.4,51.5,21.2,51.5L21.2,51.5z"/>
	<path d="M47.1,55.8c-2.8,0-5.7,0-8.5,0c-0.1,0-0.2-0.1-0.2-0.2c0-1.4,0-2.8,0-4.2l0,0c2.8,0,5.6,0,8.4,0c0.1,0,0.1,0,0.2,0
		C47.1,52.9,47.1,54.4,47.1,55.8L47.1,55.8z"/>
	<path class="st4" d="M8.3,29.9c0,0.1,0,0.2,0,0.2c0,2.7,0,5.5,0,8.2c0,0.2,0,0.2,0.2,0.2c14.2,0,28.4,0,42.7,0
		c0.2,0,0.2-0.1,0.2-0.2c0-2.7,0-5.5,0-8.2c0-0.1,0-0.2,0-0.2c1.4,0,2.9,0,4.3,0l0,0c0,4.3,0,8.6,0,12.9c0,0,0,0,0,0.1
		c-17.2,0-34.5,0-51.7,0c0,0,0,0,0-0.1c0-4.3,0-8.6,0-12.9l0,0C5.4,29.9,6.8,29.9,8.3,29.9z"/>
	<path class="st3" d="M4,42.9c17.2,0,34.5,0,51.7,0c0,1.4,0,2.9,0,4.3c-5.7,0-11.3,0-17,0c-0.1,0-0.2,0-0.3,0c0,0-0.1,0-0.1,0
		c-5.7,0-11.3,0-17,0c0,0-0.1,0-0.1,0c-0.1,0-0.2,0-0.3,0c-5.7,0-11.3,0-17,0C4,45.8,4,44.3,4,42.9z"/>
	<path class="st2" d="M38.4,47.2c0.1,0,0.2,0,0.3,0c5.7,0,11.3,0,17,0c0,1.4,0,2.9,0,4.3c-2.8,0-5.6,0-8.4,0c-0.1,0-0.1,0-0.2,0
		c-0.1,0-0.1,0-0.2,0c-2.8,0-5.6,0-8.4,0C38.4,50.1,38.4,48.6,38.4,47.2z"/>
	<path class="st1" d="M47.1,51.5c0.1,0,0.1,0,0.2,0c2.8,0,5.6,0,8.4,0c0,1.4,0,2.8,0,4.2c0,0.1,0,0.1-0.1,0.1c0,0-0.1,0-0.1,0
		c-2.8,0-5.6,0-8.4,0C47.1,54.4,47.1,52.9,47.1,51.5z"/>
	<path class="st2" d="M4,47.2c5.7,0,11.3,0,17,0c0.1,0,0.2,0,0.3,0c0,1.4,0,2.9,0,4.3c-2.8,0-5.6,0-8.4,0c-0.1,0-0.1,0-0.2,0
		c-0.1,0-0.1,0-0.2,0c-2.8,0-5.6,0-8.4,0C4,50.1,4,48.6,4,47.2z"/>
	<path class="st1" d="M4,51.5c2.8,0,5.6,0,8.4,0c0.1,0,0.1,0,0.2,0c0,1.4,0,2.9,0,4.3c-2.8,0-5.6,0-8.4,0c-0.2,0-0.2,0-0.2-0.2
		C4,54.2,4,52.9,4,51.5z"/>
	<path d="M55.7,29.9c-1.4,0-2.9,0-4.3,0c0-1.2,0-2.5,0-3.7c0-0.2,0-0.4,0-0.6c1.4,0,2.8,0,4.1,0c0.1,0,0.2,0,0.2,0.2
		C55.7,27.2,55.7,28.6,55.7,29.9z"/>
	<path d="M8.3,29.9c-1.4,0-2.9,0-4.3,0c0-1.4,0-2.8,0-4.1c0-0.2,0-0.2,0.2-0.2c1.4,0,2.8,0,4.1,0c0,1.4,0,2.7,0,4.1
		C8.3,29.8,8.3,29.9,8.3,29.9z"/>
	<path d="M51.4,8.4c-2.8,0-5.6,0-8.4,0c-0.2,0-0.2,0-0.2-0.2c0-1.4,0-2.7,0-4.1c2.8,0,5.6,0,8.4,0c0.2,0,0.2,0,0.2,0.2
		C51.4,5.7,51.4,7,51.4,8.4z"/>
	<path d="M16.9,4.1c0,1.4,0,2.8,0,4.1c0,0.1,0,0.2-0.2,0.2c-2.8,0-5.6,0-8.4,0c0-1.4,0-2.8,0-4.1c0-0.2,0-0.2,0.2-0.2
		C11.3,4.1,14.1,4.1,16.9,4.1z"/>
</g>
</svg>
