<svg xmlns="http://www.w3.org/2000/svg" viewBox="0 -0.5 32 32" shape-rendering="crispEdges">
<metadata>Made with Pixels to Svg https://codepen.io/shshaw/pen/XbxvNj</metadata>
<path stroke="#0b001a" d="M0 0h13M19 0h13M0 1h13M19 1h13M0 2h13M19 2h13M0 3h3M11 3h10M29 3h3M0 4h3M11 4h10M29 4h3M0 5h3M11 5h2M19 5h2M29 5h3M0 6h3M11 6h2M19 6h2M29 6h3M0 7h3M11 7h2M19 7h2M29 7h3M0 8h3M13 8h6M29 8h3M0 9h3M13 9h6M29 9h3M0 10h3M13 10h6M29 10h3M0 11h3M5 11h3M24 11h3M29 11h3M0 12h3M5 12h3M24 12h3M29 12h3M0 13h3M11 13h2M19 13h2M29 13h3M0 14h3M11 14h2M19 14h2M29 14h3M0 15h3M11 15h2M19 15h2M29 15h3M0 16h5M27 16h5M0 17h5M27 17h5M0 18h5M27 18h5M3 19h2M27 19h2M3 20h2M27 20h2M0 21h8M13 21h6M24 21h8M0 22h8M13 22h6M24 22h8M0 23h8M13 23h6M24 23h8M0 24h3M8 24h5M19 24h5M29 24h3M0 25h3M8 25h5M19 25h5M29 25h3M0 26h3M8 26h5M19 26h5M29 26h3M0 27h3M5 27h3M13 27h6M24 27h3M29 27h3M0 28h3M5 28h3M13 28h6M24 28h3M29 28h3M0 29h32M0 30h32M0 31h32" />
<path stroke="#6700e6" d="M3 3h8M21 3h8M3 4h8M21 4h8M13 5h6M13 6h6M13 7h6M11 8h2M19 8h2M11 9h2M19 9h2M11 10h2M19 10h2M13 11h6M13 12h6M5 13h3M24 13h3M5 14h3M24 14h3M5 15h3M24 15h3M11 16h2M19 16h2M11 17h2M19 17h2M11 18h2M19 18h2M3 24h5M13 24h6M24 24h5M3 25h5M13 25h6M24 25h5M3 26h5M13 26h6M24 26h5M8 27h5M19 27h5M8 28h5M19 28h5" />
<path stroke="#b980ff" d="M3 5h8M21 5h8M3 6h8M21 6h8M3 7h8M21 7h8M3 8h8M21 8h8M3 9h8M21 9h8M3 10h8M21 10h8M3 11h2M8 11h5M19 11h5M27 11h2M3 12h2M8 12h5M19 12h5M27 12h2M3 13h2M8 13h3M13 13h6M21 13h3M27 13h2M3 14h2M8 14h3M13 14h6M21 14h3M27 14h2M3 15h2M8 15h3M13 15h6M21 15h3M27 15h2M5 16h6M13 16h6M21 16h6M5 17h6M13 17h6M21 17h6M5 18h6M13 18h6M21 18h6M5 19h22M5 20h22M8 21h5M19 21h5M8 22h5M19 22h5M8 23h5M19 23h5M3 27h2M27 27h2M3 28h2M27 28h2" />
</svg>