<?xml version="1.0" encoding="utf-8"?>
<!-- Generator: Adobe Illustrator 25.4.0, SVG Export Plug-In . SVG Version: 6.00 Build 0)  -->
<svg version="1.1" id="Layer_1" xmlns="http://www.w3.org/2000/svg" xmlns:xlink="http://www.w3.org/1999/xlink" x="0px" y="0px"
	 viewBox="0 0 34 34" style="enable-background:new 0 0 34 34;" xml:space="preserve">
<style type="text/css">
	.st0{fill:#001A08;}
	.st1{fill:#00E549;}
	.st2{fill:#005FF7;}
	.st3{fill:#FED10B;}
</style>
<g>
	<path class="st0" d="M4.2,21.4c-0.1-0.2-0.3-0.2-0.5-0.2c-1.1,0-2.2,0-3.3,0c-0.2,0-0.3-0.1-0.3-0.3c0-0.1,0-0.1,0-0.2
		C0,15.4,0,10,0,4.6c0-0.2,0.1-0.4,0.4-0.4c1.1,0,2.3,0,3.4,0c0.3,0,0.5-0.2,0.5-0.5c0-1.2,0-2.3,0-3.5C4.3,0.1,4.4,0,4.6,0
		c8.2,0,16.5,0,24.7,0c0.3,0,0.4,0.1,0.4,0.4c0,1.2,0,2.3,0,3.5c0,0.3,0.2,0.4,0.4,0.4c1.2,0,2.3,0,3.5,0c0.2,0,0.3,0.1,0.3,0.3
		c0,5.4,0,10.8,0,16.2c0,0.2-0.1,0.3-0.3,0.3c-1.2,0-2.3,0-3.5,0c-0.2,0-0.3,0.1-0.4,0.2c-0.1,0.1-0.1,0.1-0.1,0.2
		c0,0.1,0,0.1,0,0.2c0,4,0,7.9,0,11.9c0,0.2-0.2,0.4-0.4,0.4c-8.2,0-16.4,0-24.7,0c-0.3,0-0.4-0.1-0.4-0.4c0-0.4,0-0.8,0-1.2
		c0-3.6,0-7.1,0-10.7C4.3,21.6,4.3,21.5,4.2,21.4C4.3,21.4,4.3,21.4,4.2,21.4z M17,16.9C17,16.9,17,16.9,17,16.9c-1.3,0-2.6,0-3.9,0
		c-0.1,0-0.1,0-0.2,0c-0.1,0-0.1,0-0.1-0.1c-0.1-0.1-0.1-0.2-0.1-0.4c0-1.1,0-2.3,0-3.4c0-0.3-0.1-0.4-0.4-0.4c-1.1,0-2.3,0-3.4,0
		c-0.3,0-0.4-0.1-0.4-0.4c0-1.2,0-2.4,0-3.6c0-0.3-0.1-0.3-0.3-0.3c-1.2,0-2.4,0-3.6,0c-0.3,0-0.4,0.1-0.4,0.4c0,1.4,0,2.8,0,4.1
		c0,1.2,0,2.4,0,3.6c0,0.3,0.1,0.4,0.4,0.4c2.6,0,5.1,0,7.7,0c0,0,0.1,0,0.1,0c0.1,0,0.2,0.1,0.2,0.3c0,1.2,0,2.4,0,3.6
		c0,0.2-0.1,0.4-0.4,0.4c-1.1,0-2.2,0-3.3,0c-0.1,0-0.2,0-0.3,0c-0.2,0.1-0.3,0.2-0.3,0.5c0,1.4,0,2.7,0.1,4.1c0.1,1.2,0,2.4,0,3.6
		c0,0.3,0.1,0.4,0.4,0.4c1.2,0,2.3,0,3.5,0c0.3,0,0.4-0.2,0.4-0.4c0-1.1,0-2.3,0-3.4c0-0.2,0.2-0.4,0.4-0.4c2.6,0,5.1,0,7.7,0
		c0.2,0,0.4,0.2,0.4,0.4c0,1.2,0,2.3,0,3.5c0,0.2,0.2,0.4,0.3,0.4c1.2,0,2.4,0,3.6,0c0.1,0,0.3-0.2,0.3-0.3c0-1.4,0-2.9,0-4.3
		c0.1-1.2,0-2.3,0-3.5c0-0.3-0.2-0.5-0.5-0.5c-1.1,0-2.3,0-3.4,0c-0.2,0-0.3-0.1-0.3-0.3c0-1.2,0-2.4,0-3.6c0-0.2-0.1-0.3-0.3-0.3
		C19.7,16.9,18.4,16.9,17,16.9z M16.9,8.5C16.9,8.5,16.9,8.5,16.9,8.5c2.7,0,5.4,0,8.1,0c0.3,0,0.4,0,0.4,0.4c0,0,0,0.1,0,0.1
		c0,1.1,0,2.2,0,3.3c0,0.1,0,0.2,0,0.3c0,0.2-0.1,0.2-0.3,0.2c-1.1,0-2.3,0-3.4,0c-0.3,0-0.4,0.1-0.4,0.4c0,1.1,0,2.2,0,3.3
		c0,0.1,0,0.2,0,0.3c0,0.1,0.1,0.2,0.2,0.2c0.1,0,0.1,0,0.2,0c2.6,0,5.1,0,7.7,0c0.3,0,0.4-0.1,0.4-0.4c0-1.1,0-2.3,0-3.4
		c0-0.1,0-0.1,0-0.2c0.1-0.3,0.1-0.6,0.1-1c0-1,0-2.1,0-3.1c0-0.3-0.2-0.5-0.5-0.5c-1.1,0-2.3,0-3.4,0c-0.3,0-0.4-0.1-0.4-0.4
		c0-1.1,0-2.2,0-3.4c0-0.2-0.2-0.4-0.4-0.4c-5.4,0-10.8,0-16.2,0c-0.3,0-0.4,0.1-0.4,0.4c0,1.2,0,2.3,0,3.5c0,0,0,0.1,0,0.1
		c0,0.1,0,0.1,0,0.2c0.1,0.1,0.1,0.1,0.2,0.1C11.5,8.5,14.2,8.5,16.9,8.5z"/>
	<path class="st1" d="M4.2,21.4C4.3,21.4,4.3,21.4,4.2,21.4C4.2,21.4,4.2,21.4,4.2,21.4z"/>
	<path class="st2" d="M17,16.9c1.3,0,2.7,0,4,0c0.2,0,0.3,0.1,0.3,0.3c0,1.2,0,2.4,0,3.6c0,0.2,0.1,0.3,0.3,0.3c1.1,0,2.3,0,3.4,0
		c0.3,0,0.5,0.2,0.5,0.5c0,1.2,0,2.3,0,3.5c-0.1,1.4,0,2.9,0,4.3c0,0.2-0.2,0.3-0.3,0.3c-1.2,0-2.4,0-3.6,0c-0.2,0-0.3-0.2-0.3-0.4
		c0-1.2,0-2.3,0-3.5c0-0.2-0.2-0.4-0.4-0.4c-2.6,0-5.1,0-7.7,0c-0.2,0-0.4,0.2-0.4,0.4c0,1.1,0,2.3,0,3.4c0,0.3-0.1,0.4-0.4,0.4
		c-1.2,0-2.3,0-3.5,0c-0.3,0-0.4-0.1-0.4-0.4c0-1.2,0.1-2.4,0-3.6c-0.1-1.4,0-2.7-0.1-4.1c0-0.2,0.1-0.4,0.3-0.5c0.1,0,0.2,0,0.3,0
		c1.1,0,2.2,0,3.3,0c0.3,0,0.4-0.2,0.4-0.4c0-1.2,0-2.4,0-3.6c0-0.1-0.1-0.2-0.2-0.3c0,0-0.1,0-0.1,0c-2.6,0-5.1,0-7.7,0
		c-0.3,0-0.4-0.1-0.4-0.4c0-1.2,0-2.4,0-3.6c0-1.4,0-2.8,0-4.1c0-0.3,0.1-0.4,0.4-0.4c1.2,0,2.4,0,3.6,0c0.3,0,0.3,0.1,0.3,0.3
		c0,1.2,0,2.4,0,3.6c0,0.3,0.1,0.4,0.4,0.4c1.1,0,2.3,0,3.4,0c0.3,0,0.4,0.1,0.4,0.4c0,1.1,0,2.3,0,3.4c0,0.1,0,0.2,0.1,0.4
		c0,0,0.1,0.1,0.1,0.1c0.1,0,0.1,0,0.2,0C14.4,16.9,15.7,16.9,17,16.9C17,16.9,17,16.9,17,16.9z M17,17.1c-1.3,0-2.6,0-3.8,0
		c-0.2,0-0.3,0.1-0.3,0.3c0,1.2,0,2.3,0,3.5c0,0.3-0.1,0.4-0.4,0.4c-1.2,0-2.4,0-3.5,0c-0.2,0-0.3,0.1-0.3,0.3c0,1.2,0,2.3,0,3.5
		c0,0,0,0.1,0,0.1c0,0.2,0.1,0.3,0.3,0.3c1.1,0,2.3,0,3.4,0c0.2,0,0.4-0.2,0.4-0.4c0-1.1,0-2.3,0-3.4c0-0.1,0-0.1,0-0.2
		c0-0.2,0.1-0.3,0.2-0.2c0.1,0,0.2,0,0.4,0c2.3,0,4.7,0,7,0c0.2,0,0.5,0,0.7,0c0.1,0,0.2,0.1,0.2,0.2c0,0,0,0.1,0,0.1
		c0,1.2,0,2.3,0,3.5c0,0.2,0.2,0.4,0.4,0.4c1.1,0,2.2,0,3.3,0c0.3,0,0.4-0.1,0.4-0.4c0-1.2,0-2.3,0-3.5c0-0.2-0.1-0.3-0.3-0.3
		c-0.5,0-0.9,0-1.4,0c-0.7,0-1.5,0-2.2,0c-0.3,0-0.4-0.1-0.4-0.4c0,0,0-0.1,0-0.1c0-1.2,0-2.3,0-3.5c0-0.2-0.1-0.3-0.3-0.3
		C19.6,17.1,18.3,17.1,17,17.1z M8.4,10.6c0-0.6,0-1.2,0-1.8c0-0.2-0.1-0.3-0.3-0.3c-1.1,0-2.3,0-3.4,0c-0.2,0-0.3,0.1-0.3,0.3
		c0,1.2,0,2.3,0,3.5c0,0,0,0.1,0,0.1c0,0.2,0.1,0.3,0.3,0.3c1.1,0,2.3,0,3.4,0c0.2,0,0.2,0,0.3-0.2c0-0.1,0-0.1,0-0.2
		C8.4,11.8,8.4,11.2,8.4,10.6z"/>
	<path class="st2" d="M16.9,8.5c-2.7,0-5.5,0-8.2,0c-0.1,0-0.1,0-0.2-0.1c-0.1-0.1-0.1-0.1,0-0.2c0,0,0-0.1,0-0.1c0-1.2,0-2.3,0-3.5
		c0-0.3,0.1-0.4,0.4-0.4c5.4,0,10.8,0,16.2,0c0.2,0,0.4,0.2,0.4,0.4c0,1.1,0,2.2,0,3.4c0,0.3,0.1,0.4,0.4,0.4c1.1,0,2.3,0,3.4,0
		c0.3,0,0.5,0.2,0.5,0.5c0,1,0,2.1,0,3.1c0,0.3,0,0.7-0.1,1c0,0.1,0,0.1,0,0.2c0,1.1,0,2.3,0,3.4c0,0.3-0.1,0.4-0.4,0.4
		c-2.6,0-5.1,0-7.7,0c-0.1,0-0.1,0-0.2,0c-0.1,0-0.2-0.1-0.2-0.2c0-0.1,0-0.2,0-0.3c0-1.1,0-2.2,0-3.3c0-0.3,0.1-0.4,0.4-0.4
		c1.1,0,2.3,0,3.4,0c0.2,0,0.2,0,0.3-0.2c0-0.1,0-0.2,0-0.3c0-1.1,0-2.2,0-3.3c0,0,0-0.1,0-0.1c0-0.3-0.1-0.4-0.4-0.4
		C22.3,8.5,19.6,8.5,16.9,8.5C16.9,8.5,16.9,8.5,16.9,8.5z M25.6,10.6c0,0.6,0,1.2,0,1.8c0,0.2,0.1,0.4,0.4,0.4c1.1,0,2.2,0,3.4,0
		c0.3,0,0.4-0.1,0.4-0.4c0-1.2,0-2.3,0-3.5c0-0.2-0.1-0.3-0.3-0.3c-1.2,0-2.3,0-3.5,0c-0.2,0-0.3,0.1-0.3,0.3
		C25.6,9.4,25.6,10,25.6,10.6z"/>
	<path class="st3" d="M17,17.1c1.3,0,2.6,0,3.8,0c0.2,0,0.3,0.1,0.3,0.3c0,1.2,0,2.3,0,3.5c0,0,0,0.1,0,0.1c0,0.2,0.1,0.4,0.4,0.4
		c0.7,0,1.5,0,2.2,0c0.5,0,0.9,0,1.4,0c0.2,0,0.3,0.1,0.3,0.3c0,1.2,0,2.3,0,3.5c0,0.3-0.1,0.4-0.4,0.4c-1.1,0-2.2,0-3.3,0
		c-0.2,0-0.4-0.2-0.4-0.4c0-1.2,0-2.3,0-3.5c0,0,0-0.1,0-0.1c0-0.1-0.1-0.2-0.2-0.2c-0.2,0-0.5,0-0.7,0c-2.3,0-4.7,0-7,0
		c-0.1,0-0.2,0-0.4,0c-0.2,0-0.2,0.1-0.2,0.2c0,0.1,0,0.1,0,0.2c0,1.1,0,2.3,0,3.4c0,0.2-0.2,0.4-0.4,0.4c-1.1,0-2.3,0-3.4,0
		c-0.2,0-0.3-0.1-0.3-0.3c0,0,0-0.1,0-0.1c0-1.2,0-2.3,0-3.5c0-0.2,0.1-0.3,0.3-0.3c1.2,0,2.4,0,3.5,0c0.3,0,0.4-0.1,0.4-0.4
		c0-1.2,0-2.3,0-3.5c0-0.2,0.1-0.3,0.3-0.3C14.4,17.1,15.7,17.1,17,17.1z"/>
	<path class="st3" d="M8.4,10.6c0,0.6,0,1.2,0,1.7c0,0.1,0,0.1,0,0.2c0,0.2-0.1,0.2-0.3,0.2c-1.1,0-2.3,0-3.4,0
		c-0.2,0-0.3-0.1-0.3-0.3c0,0,0-0.1,0-0.1c0-1.2,0-2.3,0-3.5c0-0.2,0.1-0.3,0.3-0.3c1.1,0,2.3,0,3.4,0c0.2,0,0.3,0.1,0.3,0.3
		C8.4,9.5,8.4,10,8.4,10.6z"/>
	<path class="st3" d="M25.6,10.6c0-0.6,0-1.2,0-1.8c0-0.2,0.1-0.3,0.3-0.3c1.2,0,2.3,0,3.5,0c0.2,0,0.3,0.1,0.3,0.3
		c0,1.2,0,2.3,0,3.5c0,0.3-0.1,0.4-0.4,0.4c-1.1,0-2.2,0-3.4,0c-0.2,0-0.4-0.1-0.4-0.4C25.6,11.8,25.6,11.2,25.6,10.6z"/>
</g>
</svg>
