<svg width="32" height="32" viewBox="0 0 32 32" fill="none" xmlns="http://www.w3.org/2000/svg">
<mask id="mask0_109_2652" style="mask-type:luminance" maskUnits="userSpaceOnUse" x="0" y="0" width="32" height="32">
<path d="M0 32H32V0H0V32Z" fill="white"/>
</mask>
<g mask="url(#mask0_109_2652)">
<g filter="url(#filter0_d_109_2652)">
<path d="M32 31.5H0M32 30.5H0M32 29.5H30M23 29.5H21M11 29.5H9M2 29.5H0M32 28.5H30M23 28.5H21M11 28.5H9M2 28.5H0M32 27.5H30M23 27.5H21M11 27.5H9M2 27.5H0M32 26.5H30M27 26.5H25M23 26.5H21M11 26.5H9M7 26.5H5M2 26.5H0M32 25.5H30M27 25.5H25M23 25.5H21M11 25.5H9M7 25.5H5M2 25.5H0M32 24.5H30M21 24.5H11M2 24.5H0M32 23.5H30M21 23.5H11M2 23.5H0M32 22.5H30M27 22.5H25M21 22.5H18M14 22.5H11M7 22.5H5M2 22.5H0M32 21.5H30M27 21.5H25M21 21.5H18M14 21.5H11M7 21.5H5M2 21.5H0M32 20.5H25M7 20.5H0M32 19.5H25M7 19.5H0M32 18.5H25M7 18.5H0M32 17.5H30M23 17.5H21M11 17.5H9M2 17.5H0M32 16.5H30M23 16.5H21M11 16.5H9M2 16.5H0M32 15.5H30M18 15.5H14M2 15.5H0M32 14.5H30M18 14.5H14M2 14.5H0M32 13.5H30M27 13.5H25M7 13.5H5M2 13.5H0M32 12.5H30M27 12.5H25M7 12.5H5M2 12.5H0M32 11.5H30M27 11.5H25M7 11.5H5M2 11.5H0M32 10.5H30M18 10.5H14M2 10.5H0M32 9.5H30M18 9.5H14M2 9.5H0M32 8.5H27M5 8.5H0M32 7.5H27M5 7.5H0M32 6.5H30M23 6.5H21M11 6.5H9M2 6.5H0M32 5.5H30M23 5.5H21M11 5.5H9M2 5.5H0M32 4.5H25M23 4.5H21M11 4.5H9M7 4.5H0M32 3.5H25M23 3.5H21M11 3.5H9M7 3.5H0M32 2.5H25M23 2.5H21M11 2.5H9M7 2.5H0M27 1.5H5M27 0.5H5" stroke="#1A0300"/>
<path d="M30 29.5H27M25 29.5H23M21 29.5H11M9 29.5H7M5 29.5H2M30 28.5H27M25 28.5H23M21 28.5H11M9 28.5H7M5 28.5H2M30 27.5H27M25 27.5H23M21 27.5H11M9 27.5H7M5 27.5H2M30 26.5H27M25 26.5H23M9 26.5H7M5 26.5H2M30 25.5H27M25 25.5H23M9 25.5H7M5 25.5H2M30 24.5H27M25 24.5H21M11 24.5H7M5 24.5H2M30 23.5H27M25 23.5H21M11 23.5H7M5 23.5H2M25 22.5H21M18 22.5H14M11 22.5H7M25 21.5H21M18 21.5H14M11 21.5H7M25 20.5H23M21 20.5H11M9 20.5H7M25 19.5H23M21 19.5H11M9 19.5H7M25 18.5H23M21 18.5H11M9 18.5H7M30 17.5H23M21 17.5H18M14 17.5H11M9 17.5H2M30 16.5H23M21 16.5H18M14 16.5H11M9 16.5H2M30 15.5H27M25 15.5H18M14 15.5H7M5 15.5H2M30 14.5H27M25 14.5H18M14 14.5H7M5 14.5H2M30 13.5H27M25 13.5H18M14 13.5H7M5 13.5H2M30 12.5H27M25 12.5H18M14 12.5H7M5 12.5H2M30 11.5H27M25 11.5H18M14 11.5H7M5 11.5H2M27 10.5H18M14 10.5H5M27 9.5H18M14 9.5H5M27 8.5H23M21 8.5H11M9 8.5H5M27 7.5H23M21 7.5H11M9 7.5H5M25 6.5H23M21 6.5H11M9 6.5H7M25 5.5H23M21 5.5H11M9 5.5H7" stroke="#FF9180"/>
<path d="M27 29.5H25M7 29.5H5M27 28.5H25M7 28.5H5M27 27.5H25M7 27.5H5M21 26.5H11M21 25.5H11M27 24.5H25M7 24.5H5M27 23.5H25M7 23.5H5M30 22.5H27M5 22.5H2M30 21.5H27M5 21.5H2M23 20.5H21M11 20.5H9M23 19.5H21M11 19.5H9M23 18.5H21M11 18.5H9M18 17.5H14M18 16.5H14M27 15.5H25M7 15.5H5M27 14.5H25M7 14.5H5M18 13.5H14M18 12.5H14M18 11.5H14M30 10.5H27M5 10.5H2M30 9.5H27M5 9.5H2M23 8.5H21M11 8.5H9M23 7.5H21M11 7.5H9M30 6.5H25M7 6.5H2M30 5.5H25M7 5.5H2M25 4.5H23M21 4.5H11M9 4.5H7M25 3.5H23M21 3.5H11M9 3.5H7M25 2.5H23M21 2.5H11M9 2.5H7" stroke="#E61F00"/>
</g>
</g>
<defs>
<filter id="filter0_d_109_2652" x="-4" y="0" width="40" height="40" filterUnits="userSpaceOnUse" color-interpolation-filters="sRGB">
<feFlood flood-opacity="0" result="BackgroundImageFix"/>
<feColorMatrix in="SourceAlpha" type="matrix" values="0 0 0 0 0 0 0 0 0 0 0 0 0 0 0 0 0 0 127 0" result="hardAlpha"/>
<feOffset dy="4"/>
<feGaussianBlur stdDeviation="2"/>
<feComposite in2="hardAlpha" operator="out"/>
<feColorMatrix type="matrix" values="0 0 0 0 0 0 0 0 0 0 0 0 0 0 0 0 0 0 0.25 0"/>
<feBlend mode="normal" in2="BackgroundImageFix" result="effect1_dropShadow_109_2652"/>
<feBlend mode="normal" in="SourceGraphic" in2="effect1_dropShadow_109_2652" result="shape"/>
</filter>
</defs>
</svg>
