<?xml version="1.0" encoding="utf-8"?>
<!-- Generator: Adobe Illustrator 25.4.0, SVG Export Plug-In . SVG Version: 6.00 Build 0)  -->
<svg version="1.1" id="Layer_1" xmlns="http://www.w3.org/2000/svg" xmlns:xlink="http://www.w3.org/1999/xlink" x="0px" y="0px"
	 viewBox="0 0 60 60" style="enable-background:new 0 0 60 60;" xml:space="preserve">
<style type="text/css">
	.st0{fill:#B7C4FE;}
	.st1{fill:#31FDDE;}
	.st2{fill:#005FF7;}
	.st3{fill:#FED10B;}
</style>
<g>
	<path class="st0" d="M45.2,3.6c2.5,0,5,0,7.5,0c0,1.2,0,2.3,0,3.5c0,0.1,0,0.1,0.1,0.1c1.1,0,2.3,0,3.4,0c0,0.1,0,0.1,0,0.2
		c0,3.7,0,7.3,0,11c0,0.1,0,0.1,0,0.2c-1.1,0-2.2,0-3.3,0c-0.1,0-0.2,0-0.2,0.2c0,2.4,0,4.8,0,7.2c0,0,0,0.1,0,0.1
		c0,1.3,0,2.5,0,3.8c-1.2,0-2.4,0-3.6,0c-0.2,0-0.2,0-0.2-0.2c0-2.4,0-4.8,0-7.2c0-0.1,0-0.2-0.2-0.2c-1.1,0-2.3,0-3.4,0
		c-0.1,0-0.2,0-0.2-0.2c0-1.1,0-2.3,0-3.4c0-0.2,0-0.2-0.2-0.2c-3.7,0-7.3,0-11,0c-0.1,0-0.2,0-0.2-0.2c0-1.2,0-2.3,0-3.5
		c0-0.1,0-0.2,0.2-0.2c1.2,0,2.3,0,3.5,0c0.1,0,0.2,0,0.2-0.2c0-1.2,0-2.3,0-3.5c0-0.1,0-0.2-0.2-0.2c-4.9,0-9.8,0-14.8,0
		c-0.1,0-0.2,0-0.2,0.2c0,1.2,0,2.3,0,3.5c0,0.1,0,0.2,0.2,0.2c1.2,0,2.3,0,3.5,0c0.1,0,0.2,0,0.2,0.2c0,1.1,0,2.3,0,3.4
		c0,0.2,0,0.2-0.2,0.2c-3.7,0-7.3,0-11,0c-0.1,0-0.2,0-0.2,0.2c0,1.1,0,2.3,0,3.4c0,0.1,0,0.2-0.2,0.2c-1.1,0-2.3,0-3.4,0
		c-0.2,0-0.2,0-0.2,0.2c0,2.4,0,4.8,0,7.2c0,0.2,0,0.2-0.2,0.2c-1.2,0-2.4,0-3.6,0l0,0c0-0.3,0-0.6,0-0.9c0-1,0-1.9,0-2.9
		c0,0,0,0,0-0.1c0-2.5,0-4.9,0-7.4c0-0.1,0-0.1-0.1-0.1c-1.2,0-2.4,0-3.6,0c0-3.8,0-7.6,0-11.3c1.2,0,2.4,0,3.6,0
		c0.1,0,0.2,0,0.2-0.2c0-1.2,0-2.3,0-3.5c2.5,0,5,0,7.5,0c0,1.2,0,2.3,0,3.5c0,0.1,0,0.2,0.2,0.2c10,0,19.9,0,29.9,0
		c0.1,0,0.2,0,0.2-0.2C45.2,5.9,45.2,4.8,45.2,3.6z M52.7,12.9c0-0.6,0-1.2,0-1.8c0-0.1,0-0.1-0.1-0.1c-1.2,0-2.3,0-3.5,0
		C49,11,49,11,49,11.1c0,1.2,0,2.4,0,3.5c0,0.1,0,0.1,0.1,0.1c1.2,0,2.3,0,3.5,0c0.1,0,0.1,0,0.1-0.2C52.7,14.1,52.7,13.5,52.7,12.9
		z M7.5,12.9c0,0.6,0,1.2,0,1.7c0,0.1,0,0.2,0.1,0.2c1.2,0,2.3,0,3.5,0c0.1,0,0.1,0,0.1-0.1c0-1.2,0-2.4,0-3.5c0-0.1,0-0.1-0.1-0.1
		c-1.2,0-2.3,0-3.5,0c-0.1,0-0.1,0-0.1,0.1C7.5,11.7,7.5,12.3,7.5,12.9z"/>
	<path d="M3.7,56.4c0-6.3,0-12.6,0-18.9c1.2,0,2.5,0,3.7,0c0,1.2,0,2.4,0,3.6c0,0.1,0,0.2,0.2,0.2c1.2,0,2.4,0,3.6,0
		c0,1.3,0,2.5,0,3.8c-1.1,0-2.2,0-3.3,0c-0.2,0-0.4-0.1-0.4,0c-0.1,0.1,0,0.3,0,0.5c0,1.1,0,2.2,0,3.3c0,0,0,0.1,0,0.1
		c0,2.4,0,4.8,0,7.2c0,0.1,0,0.2,0.2,0.2c3.6,0,7.1,0,10.7,0c0.1,0,0.3,0,0.4,0c0.1-0.1,0-0.3,0-0.4c0-1.1,0-2.2,0-3.3
		c0,0,0.1,0,0.1,0c2.4,0,4.8,0,7.2,0c0.1,0,0.2,0,0.2-0.2c0-1.2,0-2.4,0-3.6c0.7,0,1.4,0,2,0c1.8,0,3.7,0,5.5,0c0,1.2,0,2.4,0,3.6
		c0,0.1,0,0.2,0.2,0.2c2.4,0,4.8,0,7.2,0c0,0,0.1,0,0.1,0c0,0.1,0,0.1,0,0.2c0,1.2,0,2.3,0,3.5c0,0.1,0,0.2,0.2,0.2
		c3.7,0,7.3,0,11,0c0.1,0,0.2,0,0.2-0.2c0-2.4,0-4.8,0-7.2c0,0,0-0.1,0-0.1c0-0.1,0-0.1,0-0.2c0-1.1,0-2.3,0-3.4
		c0-0.2,0-0.2-0.2-0.2c-1.2,0-2.4,0-3.6,0c0-1.3,0-2.5,0-3.8c1.2,0,2.4,0,3.6,0c0.1,0,0.2,0,0.2-0.2c0-1.2,0-2.4,0-3.6
		c1.2,0,2.3,0,3.5,0c0,0.1,0,0.1,0,0.2c0,6.2,0,12.4,0,18.6c0,0.2,0,0.2-0.2,0.2c-16.2,0-32.4,0-48.6,0C6.2,56.4,5,56.4,3.7,56.4z"
		/>
	<path d="M45.2,3.6c0,1.2,0,2.3,0,3.5c0,0.1,0,0.2-0.2,0.2c-10,0-19.9,0-29.9,0c-0.1,0-0.2,0-0.2-0.2c0-1.2,0-2.3,0-3.5
		C25.1,3.6,35.1,3.6,45.2,3.6z"/>
	<path d="M15.1,0c0,1.2,0,2.3,0,3.5c0,0.1,0,0.2-0.1,0.2c-3.8,0-7.5,0-11.3,0c0,0-0.1,0-0.1-0.2c0-1.2,0-2.3,0-3.5
		C7.5,0,11.3,0,15.1,0z"/>
	<path d="M56.2,0c0,1.2,0,2.3,0,3.5c0,0.1,0,0.2-0.1,0.2c-3.7,0-7.4,0-11.1,0c0,0-0.1,0-0.1-0.2c0-1.2,0-2.3,0-3.5
		C48.8,0,52.5,0,56.2,0z"/>
	<path d="M18.8,56.4c0,1.2,0,2.3,0,3.5c0,0.1,0,0.2-0.1,0.2c-3.8,0-7.5,0-11.3,0c0,0-0.1,0-0.1-0.2c0-1.2,0-2.3,0-3.5
		C11.2,56.4,15,56.4,18.8,56.4z"/>
	<path d="M52.7,56.4c0,1.2,0,2.3,0,3.5c0,0.1,0,0.2-0.1,0.2c-3.7,0-7.4,0-11.1,0c0,0-0.1,0-0.1-0.2c0-1.2,0-2.3,0-3.5
		C45.2,56.4,49,56.4,52.7,56.4z"/>
	<path d="M3.7,18.6c1.2,0,2.4,0,3.6,0c0.1,0,0.1,0,0.1,0.1c0,2.5,0,4.9,0,7.4c0,0,0,0,0,0.1c-1.2,0-2.5,0-3.7,0
		C3.7,23.6,3.7,21.1,3.7,18.6z"/>
	<path d="M0,3.6c1.2,0,2.4,0,3.6,0c0.1,0,0.1,0,0.1,0.2c0,4.9,0,9.7,0,14.6c0,0,0,0.1,0,0.1c-1.2,0-2.5,0-3.7,0C0,13.5,0,8.6,0,3.6z
		"/>
	<path d="M0,26.1c1.2,0,2.4,0,3.6,0c0.1,0,0.1,0,0.1,0.2c0,3.7,0,7.5,0,11.2c0,0,0,0.1,0,0.1c-1.2,0-2.5,0-3.7,0
		C0,33.7,0,29.9,0,26.1z"/>
	<path d="M56.3,3.6c1.2,0,2.4,0,3.6,0c0.1,0,0.1,0,0.1,0.2c0,4.9,0,9.7,0,14.6c0,0,0,0.1,0,0.1c-1.2,0-2.5,0-3.7,0
		C56.3,13.6,56.3,8.6,56.3,3.6z"/>
	<path d="M56.3,26.1c1.2,0,2.4,0,3.6,0c0.1,0,0.1,0,0.1,0.2c0,3.7,0,7.5,0,11.2c0,0,0,0.1,0,0.1c-1.2,0-2.5,0-3.7,0
		C56.3,33.8,56.3,30,56.3,26.1z"/>
	<path class="st1" d="M7.5,37.5c-1.2,0-2.5,0-3.7,0c0-1.3,0-2.5,0-3.8c1.2,0,2.5,0,3.7,0l0,0C7.5,34.9,7.5,36.2,7.5,37.5L7.5,37.5z"
		/>
	<path class="st0" d="M7.5,33.7c-1.2,0-2.5,0-3.7,0c0-1.3,0-2.5,0-3.8c1.2,0,2.5,0,3.7,0l0,0C7.5,31.2,7.5,32.4,7.5,33.7z"/>
	<path class="st2" d="M7.5,29.9c-1.2,0-2.5,0-3.7,0c0-1.3,0-2.5,0-3.8c1.2,0,2.5,0,3.7,0c0,1,0,1.9,0,2.9
		C7.5,29.3,7.5,29.6,7.5,29.9z"/>
	<path class="st2" d="M7.5,3.6c0,1.2,0,2.3,0,3.5c0,0.1,0,0.2-0.2,0.2c-1.2,0-2.4,0-3.6,0c0-1.2,0-2.4,0-3.5c0-0.1,0-0.1,0.1-0.1
		C5,3.6,6.3,3.6,7.5,3.6z"/>
	<path class="st2" d="M56.3,7.2c-1.1,0-2.3,0-3.4,0c-0.1,0-0.1-0.1-0.1-0.1c0-1.2,0-2.3,0-3.5c1.2,0,2.3,0,3.5,0
		C56.3,4.8,56.3,6,56.3,7.2z"/>
	<path class="st1" d="M7.5,33.7c0-1.3,0-2.5,0-3.8c1.2,0,2.4,0,3.6,0c0.2,0,0.2,0,0.2-0.2c0-2.4,0-4.8,0-7.2c0-0.1,0-0.2,0.2-0.2
		c1.1,0,2.3,0,3.4,0c0.1,0,0.2,0,0.2-0.2c0-1.1,0-2.3,0-3.4c0-0.2,0-0.2,0.2-0.2c3.7,0,7.3,0,11,0c0.1,0,0.2,0,0.2-0.2
		c0-1.1,0-2.3,0-3.4c0-0.1,0-0.2-0.2-0.2c-1.2,0-2.3,0-3.5,0c-0.1,0-0.2,0-0.2-0.2c0-1.2,0-2.3,0-3.5c0-0.1,0-0.2,0.2-0.2
		c4.9,0,9.8,0,14.8,0c0.1,0,0.2,0,0.2,0.2c0,1.2,0,2.3,0,3.5c0,0.1,0,0.2-0.2,0.2c-1.2,0-2.3,0-3.5,0c-0.1,0-0.2,0-0.2,0.2
		c0,1.2,0,2.3,0,3.5c0,0.1,0,0.2,0.2,0.2c3.7,0,7.3,0,11,0c0.1,0,0.2,0,0.2,0.2c0,1.1,0,2.3,0,3.4c0,0.1,0,0.2,0.2,0.2
		c1.1,0,2.3,0,3.4,0c0.1,0,0.2,0,0.2,0.2c0,2.4,0,4.8,0,7.2c0,0.2,0,0.2,0.2,0.2c1.2,0,2.4,0,3.6,0c0,0,0,0,0,0c0,1.3,0,2.5,0,3.8
		l0,0c-1.2,0-2.4,0-3.6,0c-0.1,0-0.2,0-0.2,0.2c0,1.2,0,2.4,0,3.6l0,0c-1.2,0-2.4,0-3.6,0c-0.1,0-0.2,0-0.2-0.2c0-1.2,0-2.3,0-3.5
		c0-0.1,0-0.1-0.1-0.1c-1.2,0-2.3,0-3.5,0c-0.1,0-0.1,0-0.1,0.1c0,3.7,0,7.5,0,11.2c-1.3,0-2.5,0-3.8,0c0-1.2,0-2.4,0-3.6
		c0-0.1,0-0.2-0.2-0.2c-4.9,0-9.8,0-14.7,0c0,0-0.1,0-0.1,0c-0.1,0-0.1,0-0.1,0.1c0,1.2,0,2.5,0,3.7c-1.3,0-2.5,0-3.8,0
		c0-3.7,0-7.5,0-11.2c0-0.1,0-0.1-0.2-0.1c-1.2,0-2.3,0-3.5,0c-0.1,0-0.2,0-0.2,0.2c0,1.2,0,2.3,0,3.5c0,0.1,0,0.1-0.1,0.1
		c-1.2,0-2.4,0-3.6,0l0,0c0-1.2,0-2.4,0-3.6c0-0.1,0-0.2-0.2-0.2C9.9,33.7,8.7,33.7,7.5,33.7L7.5,33.7z M33.9,26.1c-2.5,0-5,0-7.5,0
		c0-1.2,0-2.4,0-3.7c0-0.1,0-0.1-0.1-0.1c-1.2,0-2.4,0-3.5,0c-0.1,0-0.1,0-0.1,0.1c0,1.2,0,2.4,0,3.5c0,0.1,0,0.1,0.1,0.1
		c1.2,0,2.4,0,3.7,0c0,1.3,0,2.5,0,3.8c-1.2,0-2.4,0-3.7,0c-0.1,0-0.1,0-0.1,0.1c0,1.2,0,2.4,0,3.5c0,0.1,0,0.1,0.1,0.1
		c1.2,0,2.4,0,3.5,0c0.1,0,0.1,0,0.1-0.1c0-1.2,0-2.4,0-3.7c2.5,0,5,0,7.5,0c0,1.2,0,2.4,0,3.7c0,0.1,0,0.1,0.1,0.1
		c1.2,0,2.4,0,3.5,0c0.1,0,0.1,0,0.1-0.1c0-1.2,0-2.4,0-3.5c0-0.1,0-0.1-0.1-0.1c-1.2,0-2.4,0-3.7,0C33.9,28.7,33.9,27.4,33.9,26.1
		c1.2,0,2.4,0,3.7,0c0.1,0,0.1,0,0.1-0.1c0-1.2,0-2.4,0-3.5c0-0.1,0-0.1-0.1-0.1c-1.2,0-2.4,0-3.5,0c-0.1,0-0.1,0-0.1,0.1
		C33.9,23.7,33.9,24.9,33.9,26.1z M45.2,28c0-0.6,0-1.2,0-1.8c0-0.1,0-0.1-0.1-0.1c-1.2,0-2.4,0-3.5,0c-0.1,0-0.1,0-0.1,0.1
		c0,1.2,0,2.4,0,3.5c0,0.1,0,0.1,0.1,0.1c1.2,0,2.4,0,3.5,0c0.1,0,0.1,0,0.1-0.1C45.2,29.2,45.2,28.6,45.2,28z M16.9,26.1
		c-0.6,0-1.2,0-1.8,0c-0.1,0-0.1,0-0.1,0.1c0,1.2,0,2.4,0,3.5c0,0.1,0,0.1,0.1,0.1c1.2,0,2.4,0,3.5,0c0.1,0,0.1,0,0.1-0.1
		c0-1.2,0-2.4,0-3.5c0-0.1,0-0.1-0.1-0.1C18.1,26.1,17.5,26.1,16.9,26.1z"/>
	<path d="M56.3,18.6c0,1.9,0,3.9,0,5.8c0,0.6,0,1.1,0,1.7c-1.2,0-2.3,0-3.5,0c0,0,0-0.1,0-0.1c0-2.4,0-4.8,0-7.2
		c0-0.1,0-0.2,0.2-0.2C54,18.6,55.1,18.6,56.3,18.6z"/>
	<path class="st2" d="M52.7,12.9c0,0.6,0,1.2,0,1.7c0,0.1,0,0.2-0.1,0.2c-1.2,0-2.3,0-3.5,0c-0.1,0-0.1,0-0.1-0.1c0-1.2,0-2.4,0-3.5
		c0-0.1,0-0.1,0.1-0.1c1.2,0,2.3,0,3.5,0c0.1,0,0.1,0,0.1,0.1C52.7,11.7,52.7,12.3,52.7,12.9z"/>
	<path class="st2" d="M7.5,12.9c0-0.6,0-1.2,0-1.8c0-0.1,0-0.1,0.1-0.1c1.2,0,2.3,0,3.5,0c0.1,0,0.1,0,0.1,0.1c0,1.2,0,2.4,0,3.5
		c0,0.1,0,0.1-0.1,0.1c-1.2,0-2.3,0-3.5,0c-0.1,0-0.1,0-0.1-0.2C7.5,14.1,7.5,13.5,7.5,12.9z"/>
	<path class="st2" d="M52.7,26.1c1.2,0,2.3,0,3.5,0c0,0.9,0,1.8,0,2.8c0,0.3,0,0.7,0,1c-1.2,0-2.3,0-3.5,0c0,0,0,0,0,0
		C52.7,28.6,52.7,27.4,52.7,26.1z"/>
	<path class="st0" d="M41.4,45c0-3.7,0-7.5,0-11.2c0-0.1,0-0.1,0.1-0.1c1.2,0,2.3,0,3.5,0c0.1,0,0.1,0,0.1,0.1c0,1.2,0,2.3,0,3.5
		c0,0.1,0,0.2,0.2,0.2c1.2,0,2.4,0,3.6,0c0,1.3,0,2.5,0,3.8c0,1.3,0,2.5,0,3.8c-0.2,0-0.4,0-0.6,0c-1,0-2.1,0-3.1,0
		c-0.1,0-0.1,0-0.2,0C43.8,45,42.6,45,41.4,45L41.4,45z"/>
	<path class="st0" d="M11.2,37.5c1.2,0,2.4,0,3.6,0c0.1,0,0.1,0,0.1-0.1c0-1.2,0-2.3,0-3.5c0-0.1,0-0.2,0.2-0.2c1.2,0,2.3,0,3.5,0
		c0.1,0,0.2,0,0.2,0.1c0,3.7,0,7.5,0,11.2l0,0c-0.2,0-0.4,0-0.6,0c-1.1,0-2.1,0-3.2,0c-0.2,0-0.4,0-0.6,0c-1,0-2.1,0-3.1,0
		c0-1.3,0-2.5,0-3.8C11.2,40,11.2,38.7,11.2,37.5z"/>
	<path class="st0" d="M52.7,48.8c0,0,0,0.1,0,0.1c0,2.4,0,4.8,0,7.2c0,0.1,0,0.2-0.2,0.2c-3.7,0-7.3,0-11,0c-0.1,0-0.2,0-0.2-0.2
		c0-1.2,0-2.3,0-3.5c0-0.1,0-0.1,0-0.2c0,0,0,0,0,0c0.1,0,0.1,0,0.2,0c2.4,0,4.8,0,7.2,0c0.1,0,0.2,0,0.2-0.1c0-1.2,0-2.4,0-3.6
		c0,0,0.1,0,0.1,0C50.3,48.8,51.5,48.8,52.7,48.8z"/>
	<path class="st0" d="M18.8,52.6c0,1.1,0,2.2,0,3.3c0,0.1,0.1,0.3,0,0.4c-0.1,0.1-0.3,0-0.4,0c-3.6,0-7.1,0-10.7,0
		c-0.1,0-0.2,0-0.2-0.2c0-2.4,0-4.8,0-7.2c0,0,0-0.1,0-0.1c0.3,0,0.5,0,0.8,0c1,0,2,0,3,0c0,1.2,0,2.4,0,3.6c0,0.1,0,0.1,0.2,0.1
		c1.9,0,3.7,0,5.6,0C17.6,52.6,18.2,52.6,18.8,52.6L18.8,52.6z"/>
	<path class="st2" d="M41.4,52.6c0,0-0.1,0-0.1,0c-2.4,0-4.8,0-7.2,0c-0.1,0-0.2,0-0.2-0.2c0-1.2,0-2.4,0-3.6l0,0c1.3,0,2.5,0,3.8,0
		c0.1,0,0.1,0,0.2,0c1.2,0,2.4,0,3.6,0h0C41.4,50.1,41.4,51.3,41.4,52.6L41.4,52.6z"/>
	<path class="st2" d="M26.3,48.8c0,1.2,0,2.4,0,3.6c0,0.1,0,0.2-0.2,0.2c-2.4,0-4.8,0-7.2,0c0,0-0.1,0-0.1,0c0,0,0,0,0,0
		c0-1.3,0-2.5,0-3.8l0,0c0.3,0,0.5,0,0.8,0c1,0,2,0,3,0c0.8,0,1.6,0,2.3,0C25.4,48.8,25.9,48.8,26.3,48.8L26.3,48.8z"/>
	<path class="st2" d="M52.7,48.8c-1.2,0-2.4,0-3.6,0c0,0-0.1,0-0.1,0c-0.3,0-0.7,0-1,0c-0.9,0-1.8,0-2.8,0c0-1.3,0-2.5,0-3.8
		c1,0,2.1,0,3.1,0c0.2,0,0.4,0,0.6,0c1.2,0,2.4,0,3.6,0c0.2,0,0.2,0,0.2,0.2c0,1.1,0,2.3,0,3.4C52.7,48.7,52.7,48.8,52.7,48.8z"/>
	<path class="st0" d="M33.9,48.8c-1.8,0-3.7,0-5.5,0c-0.7,0-1.4,0-2,0l0,0c0-1.3,0-2.5,0-3.8c0,0,0.1,0,0.1,0c2.4,0,4.9,0,7.3,0
		c0,0,0.1,0,0.1,0C33.9,46.3,33.9,47.5,33.9,48.8L33.9,48.8z"/>
	<path class="st2" d="M11.2,48.8c-1,0-2,0-3,0c-0.3,0-0.5,0-0.8,0c0-1.1,0-2.2,0-3.3c0-0.2-0.1-0.4,0-0.5c0.1-0.1,0.3,0,0.4,0
		c1.1,0,2.2,0,3.3,0c1,0,2.1,0,3.1,0c0.2,0,0.4,0,0.6,0c0,1.3,0,2.5,0,3.8c-0.1,0-0.1,0-0.2,0C13.6,48.8,12.4,48.8,11.2,48.8z"/>
	<path class="st1" d="M11.2,37.5c0,1.3,0,2.5,0,3.8c-1.2,0-2.4,0-3.6,0c-0.1,0-0.2,0-0.2-0.2c0-1.2,0-2.4,0-3.6l0,0
		C8.7,37.5,10,37.5,11.2,37.5L11.2,37.5z"/>
	<path class="st1" d="M49,41.2c0-1.3,0-2.5,0-3.8l0,0c1.3,0,2.5,0,3.8,0l0,0c0,1.2,0,2.4,0,3.6c0,0.1,0,0.2-0.2,0.2
		C51.4,41.2,50.2,41.2,49,41.2z"/>
	<path class="st1" d="M56.2,33.7c0,1.3,0,2.5,0,3.8c-1.2,0-2.3,0-3.5,0c0,0,0,0,0,0c0-1.3,0-2.5,0-3.8l0,0
		C53.9,33.7,55.1,33.7,56.2,33.7z"/>
	<path class="st0" d="M11.2,37.5c-1.3,0-2.5,0-3.8,0c0-1.3,0-2.5,0-3.8c1.2,0,2.4,0,3.6,0c0.1,0,0.2,0,0.2,0.2
		C11.2,35.1,11.2,36.3,11.2,37.5z"/>
	<path class="st0" d="M56.2,33.7c-1.2,0-2.3,0-3.5,0c0-1.3,0-2.5,0-3.8c1.2,0,2.3,0,3.5,0C56.3,31.2,56.2,32.4,56.2,33.7z"/>
	<path d="M33.9,45c0,0-0.1,0-0.1,0c-2.4,0-4.9,0-7.3,0c0,0-0.1,0-0.1,0c-0.1,0-0.1,0-0.2,0c-1.2,0-2.4,0-3.6,0l0,0
		c0-1.2,0-2.5,0-3.7c0-0.1,0-0.1,0.1-0.1c0,0,0.1,0,0.1,0c4.9,0,9.8,0,14.7,0c0.1,0,0.2,0,0.2,0.2c0,1.2,0,2.4,0,3.6c0,0,0,0,0,0
		c-0.3,0-0.7,0-1,0C35.7,45,34.8,45,33.9,45z"/>
	<path class="st3" d="M26.3,26.1c2.5,0,5,0,7.5,0l0,0c0,1.3,0,2.5,0,3.8l0,0c-2.5,0-5,0-7.5,0l0,0C26.3,28.7,26.3,27.4,26.3,26.1
		L26.3,26.1z"/>
	<path class="st3" d="M33.9,29.9c1.2,0,2.4,0,3.7,0c0.1,0,0.1,0,0.1,0.1c0,1.2,0,2.4,0,3.5c0,0.1,0,0.1-0.1,0.1c-1.2,0-2.4,0-3.5,0
		c-0.1,0-0.1,0-0.1-0.1C33.9,32.3,33.9,31.1,33.9,29.9C33.9,29.9,33.9,29.9,33.9,29.9z"/>
	<path class="st0" d="M52.7,33.7c0,1.3,0,2.5,0,3.8c-1.3,0-2.5,0-3.8,0c0-1.2,0-2.4,0-3.6c0-0.1,0-0.2,0.2-0.2
		C50.3,33.7,51.5,33.7,52.7,33.7z"/>
	<path class="st3" d="M26.3,29.9c0,1.2,0,2.4,0,3.7c0,0.1,0,0.1-0.1,0.1c-1.2,0-2.4,0-3.5,0c-0.1,0-0.1,0-0.1-0.1c0-1.2,0-2.4,0-3.5
		c0-0.1,0-0.1,0.1-0.1C23.9,29.9,25.1,29.9,26.3,29.9L26.3,29.9z"/>
	<path class="st0" d="M22.6,48.8c-1,0-2,0-3,0c-0.3,0-0.5,0-0.8,0c0-1.3,0-2.5,0-3.8l0,0c1.3,0,2.5,0,3.8,0c0,0,0,0,0,0
		C22.6,46.3,22.6,47.5,22.6,48.8z"/>
	<path class="st0" d="M41.4,48.8c-1.2,0-2.4,0-3.6,0c-0.1,0-0.1,0-0.2,0c0-1.3,0-2.5,0-3.8c0,0,0,0,0,0c1.3,0,2.5,0,3.8,0l0,0
		C41.4,46.3,41.4,47.5,41.4,48.8z"/>
	<path d="M45.2,28c0,0.6,0,1.2,0,1.8c0,0.1,0,0.1-0.1,0.1c-1.2,0-2.4,0-3.5,0c-0.1,0-0.1,0-0.1-0.1c0-1.2,0-2.4,0-3.5
		c0-0.1,0-0.1,0.1-0.1c1.2,0,2.4,0,3.5,0c0.1,0,0.1,0,0.1,0.1C45.2,26.8,45.2,27.4,45.2,28z"/>
	<path d="M16.9,26.1c0.6,0,1.2,0,1.8,0c0.1,0,0.1,0,0.1,0.1c0,1.2,0,2.4,0,3.5c0,0.1,0,0.1-0.1,0.1c-1.2,0-2.4,0-3.5,0
		c-0.1,0-0.1,0-0.1-0.1c0-1.2,0-2.4,0-3.5c0-0.1,0-0.1,0.1-0.1C15.7,26.1,16.3,26.1,16.9,26.1z"/>
	<path class="st3" d="M33.9,26.1c0-1.2,0-2.4,0-3.7c0-0.1,0-0.1,0.1-0.1c1.2,0,2.4,0,3.5,0c0.1,0,0.1,0,0.1,0.1c0,1.2,0,2.4,0,3.5
		c0,0.1,0,0.1-0.1,0.1C36.3,26.1,35.1,26.1,33.9,26.1L33.9,26.1z"/>
	<path class="st3" d="M26.3,26.1c-1.2,0-2.4,0-3.7,0c-0.1,0-0.1,0-0.1-0.1c0-1.2,0-2.4,0-3.5c0-0.1,0-0.1,0.1-0.1c1.2,0,2.4,0,3.5,0
		c0.1,0,0.1,0,0.1,0.1C26.3,23.7,26.3,24.9,26.3,26.1C26.3,26.1,26.3,26.1,26.3,26.1z"/>
	<path class="st1" d="M41.4,48.8c0-1.3,0-2.5,0-3.8c1.2,0,2.4,0,3.6,0c0.1,0,0.1,0,0.2,0c0,1.3,0,2.5,0,3.8c-0.1,0-0.1,0-0.2,0
		C43.8,48.8,42.6,48.8,41.4,48.8L41.4,48.8z"/>
	<path class="st1" d="M18.8,45c0,1.3,0,2.5,0,3.8c0,0,0,0,0,0c-0.3,0-0.7,0-1,0c-0.9,0-1.8,0-2.8,0c0-1.3,0-2.5,0-3.8
		c1.1,0,2.1,0,3.2,0C18.4,45,18.6,45,18.8,45z"/>
	<path class="st3" d="M41.4,48.8c1.2,0,2.4,0,3.6,0c0.1,0,0.1,0,0.2,0c0.9,0,1.8,0,2.8,0c0.3,0,0.7,0,1,0c0,1.2,0,2.4,0,3.6
		c0,0.1,0,0.1-0.2,0.1c-2.4,0-4.8,0-7.2,0c-0.1,0-0.1,0-0.2,0C41.4,51.3,41.4,50.1,41.4,48.8z"/>
	<path class="st3" d="M15,48.8c0.9,0,1.8,0,2.8,0c0.3,0,0.7,0,1,0c0,1.3,0,2.5,0,3.8c-0.6,0-1.2,0-1.8,0c-1.9,0-3.7,0-5.6,0
		c-0.1,0-0.2,0-0.2-0.1c0-1.2,0-2.4,0-3.6c1.2,0,2.4,0,3.6,0C14.9,48.8,14.9,48.8,15,48.8z"/>
	<path class="st1" d="M37.7,45c0,1.3,0,2.5,0,3.8c-1.3,0-2.5,0-3.8,0c0-1.3,0-2.5,0-3.8c0.9,0,1.8,0,2.7,0C37,45,37.3,45,37.7,45z"
		/>
	<path class="st1" d="M22.6,48.8c0-1.3,0-2.5,0-3.8c1.2,0,2.4,0,3.6,0c0.1,0,0.1,0,0.2,0c0,1.3,0,2.5,0,3.8c-0.5,0-0.9,0-1.4,0
		C24.1,48.8,23.3,48.8,22.6,48.8z"/>
</g>
</svg>
