<svg width="32" height="32" viewBox="0 0 32 32" fill="none" xmlns="http://www.w3.org/2000/svg">
<mask id="mask0_109_2663" style="mask-type:luminance" maskUnits="userSpaceOnUse" x="0" y="0" width="32" height="32">
<path d="M0 32H32V0H0V32Z" fill="white"/>
</mask>
<g mask="url(#mask0_109_2663)">
<g filter="url(#filter0_d_109_2663)">
<path d="M32 31.5H0M32 30.5H0M32 29.5H30M27 29.5H25M7 29.5H5M2 29.5H0M32 28.5H30M27 28.5H25M7 28.5H5M2 28.5H0M32 27.5H30M27 27.5H25M7 27.5H5M2 27.5H0M32 26.5H27M25 26.5H23M21 26.5H18M14 26.5H11M9 26.5H7M5 26.5H0M32 25.5H27M25 25.5H23M21 25.5H18M14 25.5H11M9 25.5H7M5 25.5H0M32 24.5H25M7 24.5H0M32 23.5H25M7 23.5H0M32 22.5H30M27 22.5H21M11 22.5H5M2 22.5H0M32 21.5H30M27 21.5H21M11 21.5H5M2 21.5H0M32 20.5H30M2 20.5H0M32 19.5H30M2 19.5H0M32 18.5H30M2 18.5H0M32 17.5H30M27 17.5H25M21 17.5H18M14 17.5H11M7 17.5H5M2 17.5H0M32 16.5H30M27 16.5H25M21 16.5H18M14 16.5H11M7 16.5H5M2 16.5H0M32 15.5H30M27 15.5H25M18 15.5H14M7 15.5H5M2 15.5H0M32 14.5H30M27 14.5H25M18 14.5H14M7 14.5H5M2 14.5H0M32 13.5H30M27 13.5H25M7 13.5H5M2 13.5H0M32 12.5H30M27 12.5H25M7 12.5H5M2 12.5H0M32 11.5H30M27 11.5H25M7 11.5H5M2 11.5H0M32 10.5H30M2 10.5H0M32 9.5H30M2 9.5H0M32 8.5H25M23 8.5H21M11 8.5H9M7 8.5H0M32 7.5H25M23 7.5H21M11 7.5H9M7 7.5H0M32 6.5H30M21 6.5H18M14 6.5H11M2 6.5H0M32 5.5H30M21 5.5H18M14 5.5H11M2 5.5H0M32 4.5H27M18 4.5H14M5 4.5H0M32 3.5H27M18 3.5H14M5 3.5H0M32 2.5H27M18 2.5H14M5 2.5H0M30 1.5H2M30 0.5H2" stroke="#001A1A"/>
<path d="M30 29.5H27M25 29.5H23M21 29.5H18M14 29.5H11M9 29.5H7M5 29.5H2M30 28.5H27M25 28.5H23M21 28.5H18M14 28.5H11M9 28.5H7M5 28.5H2M30 27.5H27M25 27.5H23M21 27.5H18M14 27.5H11M9 27.5H7M5 27.5H2M27 26.5H25M7 26.5H5M27 25.5H25M7 25.5H5M25 24.5H21M11 24.5H7M25 23.5H21M11 23.5H7M27 20.5H25M21 20.5H18M14 20.5H11M7 20.5H5M27 19.5H25M21 19.5H18M14 19.5H11M7 19.5H5M27 18.5H25M21 18.5H18M14 18.5H11M7 18.5H5M18 17.5H14M18 16.5H14M30 10.5H25M23 10.5H21M11 10.5H9M7 10.5H2M30 9.5H25M23 9.5H21M11 9.5H9M7 9.5H2M21 8.5H18M14 8.5H11M21 7.5H18M14 7.5H11M30 6.5H27M18 6.5H14M5 6.5H2M30 5.5H27M18 5.5H14M5 5.5H2M27 4.5H18M14 4.5H5M27 3.5H18M14 3.5H5M27 2.5H18M14 2.5H5" stroke="#00E6E6"/>
<path d="M23 29.5H21M18 29.5H14M11 29.5H9M23 28.5H21M18 28.5H14M11 28.5H9M23 27.5H21M18 27.5H14M11 27.5H9M23 26.5H21M18 26.5H14M11 26.5H9M23 25.5H21M18 25.5H14M11 25.5H9M21 24.5H11M21 23.5H11M30 22.5H27M21 22.5H11M5 22.5H2M30 21.5H27M21 21.5H11M5 21.5H2M30 20.5H27M25 20.5H21M18 20.5H14M11 20.5H7M5 20.5H2M30 19.5H27M25 19.5H21M18 19.5H14M11 19.5H7M5 19.5H2M30 18.5H27M25 18.5H21M18 18.5H14M11 18.5H7M5 18.5H2M30 17.5H27M25 17.5H21M11 17.5H7M5 17.5H2M30 16.5H27M25 16.5H21M11 16.5H7M5 16.5H2M30 15.5H27M25 15.5H18M14 15.5H7M5 15.5H2M30 14.5H27M25 14.5H18M14 14.5H7M5 14.5H2M30 13.5H27M25 13.5H7M5 13.5H2M30 12.5H27M25 12.5H7M5 12.5H2M30 11.5H27M25 11.5H7M5 11.5H2M25 10.5H23M21 10.5H11M9 10.5H7M25 9.5H23M21 9.5H11M9 9.5H7M25 8.5H23M18 8.5H14M9 8.5H7M25 7.5H23M18 7.5H14M9 7.5H7M27 6.5H21M11 6.5H5M27 5.5H21M11 5.5H5" stroke="#80FFFF"/>
</g>
</g>
<defs>
<filter id="filter0_d_109_2663" x="-4" y="0" width="40" height="40" filterUnits="userSpaceOnUse" color-interpolation-filters="sRGB">
<feFlood flood-opacity="0" result="BackgroundImageFix"/>
<feColorMatrix in="SourceAlpha" type="matrix" values="0 0 0 0 0 0 0 0 0 0 0 0 0 0 0 0 0 0 127 0" result="hardAlpha"/>
<feOffset dy="4"/>
<feGaussianBlur stdDeviation="2"/>
<feComposite in2="hardAlpha" operator="out"/>
<feColorMatrix type="matrix" values="0 0 0 0 0 0 0 0 0 0 0 0 0 0 0 0 0 0 0.25 0"/>
<feBlend mode="normal" in2="BackgroundImageFix" result="effect1_dropShadow_109_2663"/>
<feBlend mode="normal" in="SourceGraphic" in2="effect1_dropShadow_109_2663" result="shape"/>
</filter>
</defs>
</svg>
