<svg xmlns="http://www.w3.org/2000/svg" viewBox="0 -0.5 32 32" shape-rendering="crispEdges">
<metadata>Made with Pixels to Svg https://codepen.io/shshaw/pen/XbxvNj</metadata>
<path stroke="#1a000f" d="M0 0h32M0 1h32M0 2h32M0 3h3M5 3h3M13 3h6M24 3h3M29 3h3M0 4h3M5 4h3M13 4h6M24 4h3M29 4h3M0 5h5M27 5h5M0 6h5M27 6h5M0 7h5M27 7h5M0 8h3M8 8h3M13 8h6M21 8h3M29 8h3M0 9h3M8 9h3M13 9h6M21 9h3M29 9h3M0 10h3M8 10h3M13 10h6M21 10h3M29 10h3M0 11h3M29 11h3M0 12h3M29 12h3M0 13h3M8 13h5M19 13h5M29 13h3M0 14h3M8 14h5M19 14h5M29 14h3M0 15h3M8 15h5M19 15h5M29 15h3M0 16h3M29 16h3M0 17h3M29 17h3M0 18h3M29 18h3M0 19h3M29 19h3M0 20h3M29 20h3M0 21h3M29 21h3M0 22h3M29 22h3M0 23h3M29 23h3M0 24h3M8 24h5M19 24h5M29 24h3M0 25h3M8 25h5M19 25h5M29 25h3M0 26h3M8 26h5M19 26h5M29 26h3M0 27h3M29 27h3M0 28h3M29 28h3M0 29h32M0 30h32M0 31h32" />
<path stroke="#e60086" d="M3 3h2M8 3h5M19 3h5M27 3h2M3 4h2M8 4h5M19 4h5M27 4h2M5 5h3M13 5h6M24 5h3M5 6h3M13 6h6M24 6h3M5 7h3M13 7h6M24 7h3M3 8h2M27 8h2M3 9h2M27 9h2M3 10h2M27 10h2M8 11h3M13 11h6M21 11h3M8 12h3M13 12h6M21 12h3M8 16h5M19 16h5M8 17h5M19 17h5M8 18h5M19 18h5M8 27h5M19 27h5M8 28h5M19 28h5" />
<path stroke="#ff80ca" d="M8 5h5M19 5h5M8 6h5M19 6h5M8 7h5M19 7h5M5 8h3M11 8h2M19 8h2M24 8h3M5 9h3M11 9h2M19 9h2M24 9h3M5 10h3M11 10h2M19 10h2M24 10h3M3 11h5M11 11h2M19 11h2M24 11h5M3 12h5M11 12h2M19 12h2M24 12h5M3 13h5M13 13h6M24 13h5M3 14h5M13 14h6M24 14h5M3 15h5M13 15h6M24 15h5M3 16h5M13 16h6M24 16h5M3 17h5M13 17h6M24 17h5M3 18h5M13 18h6M24 18h5M3 19h26M3 20h26M3 21h26M3 22h26M3 23h26M3 24h5M13 24h6M24 24h5M3 25h5M13 25h6M24 25h5M3 26h5M13 26h6M24 26h5M3 27h5M13 27h6M24 27h5M3 28h5M13 28h6M24 28h5" />
</svg>