<svg width="3443" height="3443" viewBox="0 0 3443 3443" fill="none" xmlns="http://www.w3.org/2000/svg">
<g clip-path="url(#clip0_101_2)">
<path d="M2087.02 3261.79V3443H2268.1V3261.79H2087.02Z" fill="#B2B2B2"/>
<path d="M1181.62 3261.79V3443H1362.7V3261.79H1181.62Z" fill="#B2B2B2"/>
<path d="M1181.62 3261.79H1362.7V3080.58H1181.62V3261.79Z" fill="#403E3E"/>
<path d="M1362.7 2899.37V3080.58H2087.02V3261.79H2268.11V2899.37H1362.7Z" fill="#403E3E"/>
<path d="M2268.12 3080.58H2449.2V2718.15H2268.12V3080.58Z" fill="#DB7144"/>
<path d="M2268.1 2899.37V2536.95H1543.77V2899.37H2268.1Z" fill="#0F2B4C"/>
<path d="M1362.69 2718.15H1000.52V3080.58H1362.69V2718.15Z" fill="#E69157"/>
<path d="M1362.69 2718.15V2536.95H1181.61V2355.74H1000.52V2718.15H1362.69Z" fill="#0F2B4C"/>
<path d="M1181.62 2355.74V2536.95H1362.7V2899.37H1543.78V2536.95H2268.11V2718.16H2449.2V2355.74H1181.62Z" fill="#13355D"/>
<path d="M1181.61 2174.53H1000.52V2355.74H1181.61V2174.53Z" fill="#DB7144"/>
<path d="M1002.53 1630.89H640.365V1812.1H821.448V2174.52H1002.53V1630.89Z" fill="#E69157"/>
<path d="M639 1087V1268H884V1087H639Z" fill="#3C2722"/>
<path d="M639 1142V1630H820V1142H639Z" fill="#3C2722"/>
<path d="M1724.86 1812.11V1993.31H2087.02V1812.11H2268.1V1449.68H1543.77V1812.11H1724.86Z" fill="#F4F1EB"/>
<path d="M1181.62 1630.89H1362.7V1268.47H1181.62V1630.89Z" fill="#301200"/>
<path d="M2449.19 1630.89H2630.27V1268.47H2449.19V1630.89Z" fill="#301200"/>
<path d="M1181.61 1087.26H1000.52V1268.48H1181.61V1087.26Z" fill="#DB7144"/>
<path d="M820 1995.21H1001.09V1814H820V1995.21Z" fill="#3C2722"/>
<path d="M820 2173.21H1001.09V1992H820V2173.21Z" fill="#3C2722"/>
<path d="M2630.27 1087.26H2811.35V906.055H2630.27V1087.26Z" fill="#E69157"/>
<path d="M2630.27 1630.9H2449.19V1268.48H2630.27V1630.9ZM1543.77 1449.69H2268.1V1812.11H2087.02V1993.32H1724.86V1812.11H1543.77V1449.69ZM2630.27 906.055H1724.86V1087.26H1181.61V1268.48H1362.69V1630.9H1181.61V1268.48H1000.52H822V1630.9H1000.52V2174.53H1181.61V2355.74H2630.27V2174.53H2811.36V1087.26H2630.27V906.055Z" fill="#E69157"/>
<path d="M2449 1087.26H2630.08V906.055H2449V1087.26Z" fill="#E69157"/>
<path d="M1724.86 1087.26V906.055H1181.62V1087.26H1724.86Z" fill="#E69157"/>
<path d="M863 725H637V1087H863V725Z" fill="#3C2722"/>
<path d="M1906.08 183H1725V545.423H1906.08V183Z" fill="#3C2722"/>
<path d="M2083.08 183H1902V545.423H2083.08V183Z" fill="#3C2722"/>
<path d="M1533.33 0.670288L1533.33 181.754L1895.75 181.754L1895.75 0.670272L1533.33 0.670288Z" fill="#3C2722"/>
<path d="M1892.08 -7H1711V355.423H1892.08V-7Z" fill="#3C2722"/>
<path d="M2268.12 906.055V724.84H1724.88V906.055H2268.12Z" fill="#E69157"/>
<path d="M2811 545.421H2629.91V364.211H2267.75H1731H1181.25H819.082V545.421L819.082 1268.5H1001V1089.05H1181.25V907.84H1731V726.632H2267.75V907.843V907.84H2448.83H2811V1089.05V726.632V545.421Z" fill="#3C2722"/>
<path d="M1721.04 2174V2718H1902.04V2174H1721.04Z" fill="#3C2722"/>
<path d="M1544 2174V2355.21H1725.08V2174H1544Z" fill="#3C2722"/>
<path d="M1544 2355V2536.21H1725.08V2355H1544Z" fill="#3C2722"/>
<path d="M1182 2109V2355H1544V2109H1182Z" fill="#3C2722"/>
<path d="M1815 2718V2899.21H1996.08V2718H1815Z" fill="#3C2722"/>
<path d="M1182 2176V2357.21H1363.08V2176H1182Z" fill="#3C2722"/>
<path d="M1362 1811V1992.21H1543.08V1811H1362Z" fill="#3C2722"/>
<path d="M1363 1629V1811H1544V1629H1363Z" fill="#3C2722"/>
<path d="M1001 1994V2175H1363V1994H1001Z" fill="#3C2722"/>
<path d="M1001 1812V1993.21H1182.08V1812H1001Z" fill="#3C2722"/>
<path d="M1001 1630V1811.21H1182.08V1630H1001Z" fill="#3C2722"/>
<path d="M2628 1630V2173H2809V1630H2628Z" fill="#3C2722"/>
<path d="M1349 1992V2173.21H1530.08V1992H1349Z" fill="#3C2722"/>
<path d="M1530 1995V2176.21H1711.08V1995H1530Z" fill="#3C2722"/>
<path d="M1888 2174V2718H2084V2174H1888Z" fill="#3C2722"/>
<path d="M2085 1994V2175.21H2266.08V1994H2085Z" fill="#3C2722"/>
<path d="M2266 1994V2175.21H2447.08V1994H2266Z" fill="#3C2722"/>
<path d="M2023 2174V2355H2266V2174H2023Z" fill="#3C2722"/>
<path d="M2085 2355V2536.21H2266.08V2355H2085Z" fill="#3C2722"/>
<path d="M2266 2174V2355.21H2447.08V2174H2266Z" fill="#3C2722"/>
<path d="M2445 2174V2355.21H2626.08V2174H2445Z" fill="#65463E"/>
<path d="M2447 2174V2355.21H2628.08V2174H2447Z" fill="#3C2722"/>
<path d="M2447 1994V2175.21H2628.08V1994H2447Z" fill="#3C2722"/>
<path d="M2629 1994V2175.21H2810.08V1994H2629Z" fill="#3C2722"/>
<path d="M2629 1813V1994.21H2810.08V1813H2629Z" fill="#3C2722"/>
<path d="M2268 1812V1993.21H2449.08V1812H2268Z" fill="#3C2722"/>
<path d="M2268 1629V2012H2449V1629H2268Z" fill="#3C2722"/>
<path d="M1544 1448V1629H2268V1448H1544Z" fill="#3C2722"/>
<path d="M1000.09 1270H819V1451.21H1000.09V1270Z" fill="#DB7144"/>
<path d="M821.087 1629H640V1810.21H821.087V1629Z" fill="#DB7144"/>
</g>
<defs>
<clipPath id="clip0_101_2">
<rect width="3443" height="3443" fill="white"/>
</clipPath>
</defs>
</svg>
