<?xml version="1.0" encoding="utf-8"?>
<!-- Generator: Adobe Illustrator 25.4.0, SVG Export Plug-In . SVG Version: 6.00 Build 0)  -->
<svg version="1.1" id="Layer_1" xmlns="http://www.w3.org/2000/svg" xmlns:xlink="http://www.w3.org/1999/xlink" x="0px" y="0px"
	 viewBox="0 0 34 34" style="enable-background:new 0 0 34 34;" xml:space="preserve">
<style type="text/css">
	.st0{fill:#001A18;}
	.st1{fill:#00E5D9;}
	.st2{fill:#7FFEF8;}
</style>
<g>
	<path class="st0" d="M33.9,8.8c0,8.3,0,16.6,0,24.9c0,0-0.1,0-0.1,0c-0.1,0.2-0.3,0.2-0.4,0.2c-10.9,0-21.9,0-32.8,0
		c0,0-0.1,0-0.1,0c-0.2,0-0.3-0.1-0.3-0.3c0-8.2,0-16.4,0-24.6c0-0.3,0.1-0.4,0.4-0.4c1.1,0,2.3,0,3.4,0c0.3,0,0.5-0.2,0.5-0.5
		c0-2.5,0-5.1,0-7.6c0-0.3,0.1-0.4,0.4-0.4c8.2,0,16.3,0,24.5,0c0.2,0,0.4,0.1,0.4,0.4c0,2.5,0,5.1,0,7.6c0,0.3,0.1,0.4,0.4,0.4
		c1.1,0,2.3,0,3.4,0c0.1,0,0.2,0,0.3,0.1C33.8,8.7,33.8,8.8,33.9,8.8z M17,12.8c2.7,0,5.4,0,8.1,0c0.2,0,0.3,0.1,0.3,0.3
		c0,1.3,0,2.7,0,4c0,1.3,0,2.5,0,3.8c0,0.2,0,0.3-0.3,0.3c-1.2,0-2.4,0-3.5,0c-0.3,0-0.4,0.1-0.4,0.4c0,1.2,0,2.3,0,3.5
		c0,0.3,0,0.3-0.3,0.3c-2.6,0-5.2,0-7.8,0c-0.3,0-0.3,0-0.3,0.3c0,1.2,0,2.3,0,3.5c0,0.3,0.1,0.4,0.4,0.4c2.6,0,5.1,0,7.7,0
		c0.2,0,0.4-0.1,0.4-0.4c0-1.2,0-2.4,0-3.6c0-0.2,0-0.2,0.2-0.2c1.3,0,2.5,0,3.8,0c0.2,0,0.2,0,0.2,0.2c0,1.2,0,2.4,0,3.7
		c0,0.2,0.2,0.4,0.4,0.4c1.2,0,2.3,0,3.5,0c0.2,0,0.4-0.2,0.4-0.4c0-1.1,0-2.3,0-3.4c0-0.2-0.1-0.4-0.4-0.4c-1.1,0-2.3,0-3.4,0
		c-0.1,0-0.1,0-0.2,0c-0.2,0-0.3-0.1-0.3-0.3c0-1.2,0-2.4,0-3.6c0-0.3,0-0.3,0.3-0.3c1.2,0,2.3,0,3.5,0c0.2,0,0.4-0.2,0.4-0.4
		c0-2.6,0-5.1,0-7.7c0-0.3-0.1-0.4-0.4-0.4c-1.2,0-2.4,0-3.6,0c0,0,0,0,0,0c0-0.1-0.2-0.2-0.2-0.4c0-1.4,0-2.8,0-4.1
		c0-1.2,0-2.4,0-3.5c0-0.3-0.2-0.4-0.4-0.4c-5.4,0-10.7,0-16.1,0c-0.3,0-0.4,0.2-0.4,0.4c0,1.3,0,2.6,0,3.9c0,1.3,0,2.5,0,3.8
		c0,0,0,0.1,0,0.1c0,0.2-0.1,0.2-0.2,0.2c-1.2,0-2.4,0-3.5,0c-0.3,0-0.4,0.2-0.4,0.4c0,1.4,0,2.8,0,4.1c0,1.2,0,2.3,0,3.5
		c0,0.2,0.2,0.4,0.4,0.4c1.2,0,2.4,0,3.5,0c0.3,0,0.3-0.1,0.3-0.3c0-1.4,0-2.8,0-4.2c0-1.3,0-2.5,0-3.8c0,0,0-0.1,0-0.1
		c0.1,0,0.2-0.1,0.3-0.1C11.6,12.8,14.3,12.8,17,12.8z M10.6,25.4c0.6,0,1.2,0,1.8,0c0.2,0,0.3,0,0.3-0.3c0-1.2,0-2.4,0-3.5
		c0-0.3-0.2-0.4-0.4-0.4c-1.2,0-2.3,0-3.5,0c0,0-0.1,0-0.1,0c-0.2,0-0.2,0.1-0.2,0.2c0,1.3,0,2.5,0,3.8c0,0.2,0.1,0.2,0.2,0.2
		C9.4,25.5,10,25.4,10.6,25.4z M8.5,27.6c0-0.5,0-1,0-1.5c0-0.2,0-0.3,0-0.5c0-0.1-0.1-0.2-0.2-0.2c0,0-0.1,0-0.1,0
		c-1.2,0-2.3,0-3.5,0c-0.2,0-0.4,0.2-0.4,0.4c0,1,0,1.9,0,2.9c0,0.2,0,0.4,0,0.5c0,0.2,0.2,0.4,0.4,0.4c1.1,0,2.3,0,3.4,0
		c0.2,0,0.4-0.2,0.4-0.4C8.5,28.7,8.5,28.2,8.5,27.6z"/>
	<path class="st1" d="M17,12.8c-2.7,0-5.4,0-8.1,0c-0.1,0-0.2,0.1-0.3,0.1c0,0,0,0,0,0.1c0,1.3,0,2.5,0,3.8c0,1.4,0,2.8,0,4.2
		c0,0.3-0.1,0.3-0.3,0.3c-1.2,0-2.4,0-3.5,0c-0.2,0-0.4-0.2-0.4-0.4c0-1.2,0-2.3,0-3.5c0-1.4,0-2.8,0-4.1c0-0.3,0.2-0.4,0.4-0.4
		c1.2,0,2.4,0,3.5,0c0.2,0,0.2-0.1,0.2-0.2c0,0,0-0.1,0-0.1c0-1.3,0-2.5,0-3.8c0-1.3,0-2.6,0-3.9c0-0.3,0.2-0.4,0.4-0.4
		c5.4,0,10.7,0,16.1,0c0.3,0,0.4,0.2,0.4,0.4c0,1.2,0,2.4,0,3.5c0,1.4,0,2.8,0,4.1c0,0.2,0.1,0.2,0.2,0.4c0,0,0,0,0,0
		c1.2,0,2.4,0,3.6,0c0.3,0,0.4,0.1,0.4,0.4c0,2.6,0,5.1,0,7.7c0,0.2-0.2,0.4-0.4,0.4c-1.2,0-2.3,0-3.5,0c-0.3,0-0.3,0-0.3,0.3
		c0,1.2,0,2.4,0,3.6c0,0.2,0,0.3,0.3,0.3c0.1,0,0.1,0,0.2,0c1.1,0,2.3,0,3.4,0c0.2,0,0.4,0.1,0.4,0.4c0,1.1,0,2.3,0,3.4
		c0,0.2-0.2,0.4-0.4,0.4c-1.2,0-2.3,0-3.5,0c-0.2,0-0.4-0.2-0.4-0.4c0-1.2,0-2.4,0-3.7c0-0.2,0-0.2-0.2-0.2c-1.3,0-2.5,0-3.8,0
		c-0.2,0-0.2,0-0.2,0.2c0,1.2,0,2.4,0,3.6c0,0.3-0.1,0.4-0.4,0.4c-2.6,0-5.1,0-7.7,0c-0.3,0-0.4-0.1-0.4-0.4c0-1.2,0-2.3,0-3.5
		c0-0.3,0-0.3,0.3-0.3c2.6,0,5.2,0,7.8,0c0.3,0,0.3,0,0.3-0.3c0-1.2,0-2.3,0-3.5c0-0.3,0.1-0.4,0.4-0.4c1.2,0,2.4,0,3.5,0
		c0.2,0,0.3,0,0.3-0.3c0-1.3,0-2.5,0-3.8c0-1.3,0-2.7,0-4c0-0.2-0.1-0.3-0.3-0.3C22.4,12.8,19.7,12.8,17,12.8z M17,4.4
		c-2.7,0-5.4,0-8.1,0c-0.2,0-0.3,0.1-0.3,0.3c0,1.2,0,2.3,0,3.5c0,0.2,0.1,0.3,0.3,0.3c5.4,0,10.7,0,16.1,0c0.2,0,0.3-0.1,0.3-0.3
		c0-1.1,0-2.3,0-3.4c0-0.2-0.1-0.3-0.3-0.3C22.4,4.4,19.7,4.4,17,4.4z M25.6,17c0-0.1,0.1-0.1,0.1-0.1c0,0,0.1,0,0.1,0
		c1.1,0,2.3,0,3.4,0c0.2,0,0.3-0.1,0.3-0.3c0-1.2,0-2.3,0-3.5c0-0.2-0.1-0.3-0.3-0.3c-1.2,0-2.4,0-3.5,0c-0.2,0-0.3,0.1-0.3,0.3
		c0,1.2,0,2.4,0,3.6C25.5,16.8,25.5,16.9,25.6,17z M4.4,14.9c0,0.6,0,1.1,0,1.7c0,0.1,0,0.1,0,0.2C4.5,17,4.5,17,4.7,17
		c1.2,0,2.3,0,3.5,0c0,0,0.1,0,0.1,0c0.1-0.1,0.1-0.2,0.1-0.4c0-1.2,0-2.3,0-3.5c0-0.2-0.1-0.3-0.3-0.3c-1.2,0-2.3,0-3.5,0
		c-0.2,0-0.3,0.1-0.3,0.3C4.4,13.7,4.4,14.3,4.4,14.9z"/>
	<path class="st1" d="M10.6,25.4c-0.6,0-1.3,0-1.9,0c-0.2,0-0.2-0.1-0.2-0.2c0-1.3,0-2.5,0-3.8c0-0.2,0-0.2,0.2-0.2c0,0,0.1,0,0.1,0
		c1.2,0,2.3,0,3.5,0c0.3,0,0.4,0.2,0.4,0.4c0,1.2,0,2.4,0,3.5c0,0.2,0,0.3-0.3,0.3C11.9,25.4,11.3,25.4,10.6,25.4z"/>
	<path class="st1" d="M8.5,27.6c0,0.6,0,1.2,0,1.7c0,0.2-0.2,0.4-0.4,0.4c-1.1,0-2.3,0-3.4,0c-0.2,0-0.4-0.2-0.4-0.4
		c0-0.2,0-0.4,0-0.5c0-1,0-1.9,0-2.9c0-0.2,0.2-0.4,0.4-0.4c1.2,0,2.3,0,3.5,0c0,0,0.1,0,0.1,0c0.1,0,0.2,0.1,0.2,0.2
		c0,0.2,0,0.3,0,0.5C8.5,26.6,8.5,27.1,8.5,27.6z"/>
	<path class="st2" d="M17,4.4c2.7,0,5.4,0,8,0c0.2,0,0.3,0.1,0.3,0.3c0,1.1,0,2.3,0,3.4c0,0.2-0.1,0.3-0.3,0.3c-5.4,0-10.7,0-16.1,0
		c-0.2,0-0.3-0.1-0.3-0.3c0-1.2,0-2.3,0-3.5c0-0.2,0.1-0.3,0.3-0.3C11.6,4.4,14.3,4.4,17,4.4z"/>
	<path class="st2" d="M25.6,17c-0.1-0.1-0.1-0.2-0.1-0.3c0-1.2,0-2.4,0-3.6c0-0.2,0.1-0.3,0.3-0.3c1.2,0,2.4,0,3.5,0
		c0.2,0,0.3,0.1,0.3,0.3c0,1.2,0,2.3,0,3.5c0,0.2-0.1,0.3-0.3,0.3c-1.1,0-2.3,0-3.4,0c0,0-0.1,0-0.1,0C25.7,16.9,25.6,16.9,25.6,17z
		"/>
	<path class="st2" d="M4.4,14.9c0-0.6,0-1.2,0-1.8c0-0.2,0.1-0.3,0.3-0.3c1.2,0,2.3,0,3.5,0c0.2,0,0.3,0.1,0.3,0.3
		c0,1.2,0,2.3,0,3.5c0,0.2-0.1,0.2-0.1,0.4c0,0-0.1,0-0.1,0c-1.2,0-2.3,0-3.5,0c-0.2,0-0.2,0-0.2-0.2c0-0.1,0-0.1,0-0.2
		C4.4,16.1,4.4,15.5,4.4,14.9z"/>
</g>
</svg>
