<?xml version="1.0" encoding="utf-8"?>
<!-- Generator: Adobe Illustrator 25.4.0, SVG Export Plug-In . SVG Version: 6.00 Build 0)  -->
<svg version="1.1" id="Layer_1" xmlns="http://www.w3.org/2000/svg" xmlns:xlink="http://www.w3.org/1999/xlink" x="0px" y="0px"
	 viewBox="0 0 34 34" style="enable-background:new 0 0 34 34;" xml:space="preserve">
<style type="text/css">
	.st0{fill:#FE9E7F;}
	.st1{fill:#1A0600;}
	.st2{fill:#FE9E04;}
	.st3{fill:#FED10B;}
</style>
<g>
	<path class="st0" d="M0,16.1c0,5.3,0,10.5,0,15.8c0,0.2,0.1,0.3,0.4,0.3c4,0,8,0,12,0c0.2,0,0.3-0.1,0.3-0.3c0-1.1,0-2.2,0-3.3
		c0-0.3,0.2-0.4,0.4-0.4c2.6,0,5.2,0,7.8,0c0.3,0,0.5,0.2,0.5,0.4c0,1.1,0,2.2,0,3.3c0,0.1,0.1,0.3,0.3,0.3c4,0,8,0,12.1,0
		c0.1,0,0.2,0,0.3-0.1c0.1-0.1,0-0.2,0-0.2c0-10.5,0-21,0-31.5c0,0,0-0.1,0-0.1c0-0.1,0-0.1-0.1-0.1C33.9,0,33.8,0,33.6,0
		C22.5,0,11.5,0,0.4,0c0,0-0.1,0-0.1,0C0.2,0,0.2,0,0.1,0C0,0.1,0,0.2,0,0.3C0,5.6,0,10.8,0,16.1z"/>
	<path class="st1" d="M0,17C0,11.4,0,5.9,0,0.4c0-0.1,0-0.2,0.1-0.3C0.2,0,0.2,0,0.3,0c0,0,0.1,0,0.1,0c11.1,0,22.2,0,33.3,0
		c0.1,0,0.2,0,0.3,0.1c0,0,0.1,0.1,0.1,0.2c0,0,0,0.1,0,0.1c0,11.1,0,22.2,0,33.3c0,0.1,0,0.2,0,0.2C33.9,34,33.8,34,33.7,34
		c-4,0-8,0-12.1,0c-0.2,0-0.3-0.1-0.3-0.3c0-1.2,0-2.3,0-3.5c0-0.3-0.2-0.5-0.5-0.5c-2.6,0-5.2,0-7.8,0c-0.3,0-0.4,0.2-0.4,0.4
		c0,1.2,0,2.3,0,3.5c0,0.2-0.1,0.3-0.3,0.3c-4,0-8,0-12,0C0.1,34,0,33.9,0,33.7C0,28.1,0,22.5,0,17z M17,17c1.3,0,2.6,0,3.8,0
		c0.2,0,0.4,0.1,0.4,0.4c0,1.6,0,3.1,0.1,4.7c0.1,1,0,2.1,0,3.1c0,0.2,0.1,0.4,0.4,0.4c1.1,0,2.3,0,3.4,0c0.1,0,0.1,0,0.2,0
		c0.2,0,0.3,0.1,0.3,0.3c0,1.2,0,2.4,0,3.5c0,0.3,0.1,0.4,0.4,0.4c1.2,0,2.3,0,3.5,0c0.2,0,0.4-0.2,0.4-0.4c0-1.1,0-2.3,0-3.4
		c0-0.3-0.2-0.4-0.4-0.4c-1.2,0-2.5,0-3.7,0c-0.1,0-0.2,0-0.2-0.2c0-1.2,0-2.5,0-3.7c0-0.2,0.2-0.4,0.4-0.4c1.2,0,2.3,0,3.5,0
		c0.2,0,0.4-0.2,0.4-0.4c0-1.4,0-2.8,0.1-4.2c0.1-1.2,0-2.4,0-3.6c0-0.1,0-0.2-0.1-0.3c-0.1-0.1-0.3-0.2-0.4-0.2c-1.1,0-2.3,0-3.4,0
		c-0.2,0-0.3-0.1-0.3-0.3c0-1.2,0-2.3,0-3.5c0-0.2,0.1-0.4,0.3-0.4c1.2,0,2.3,0,3.5,0c0.2,0,0.4-0.2,0.4-0.4c0-1.2,0-2.4,0-3.5
		c0-0.2-0.2-0.4-0.4-0.4c-1.5,0-2.9,0-4.4,0c-1.4,0-2.8,0-4.3,0c-2.8,0-5.7,0-8.5,0c-1.4,0-2.8,0-4.2,0.1c-1.2,0.1-2.4,0-3.6,0
		c-0.2,0-0.4,0.1-0.4,0.4c0,1.1,0,2.3,0,3.4c0,0.2,0.2,0.4,0.4,0.4c1.2,0,2.3,0,3.5,0c0.1,0,0.2,0,0.3,0.1c0.1,0.1,0.1,0.2,0.1,0.3
		c0,1.2,0,2.3,0,3.5c0,0.2-0.1,0.4-0.4,0.4c-1.2,0-2.3,0-3.5,0c-0.3,0-0.4,0.2-0.4,0.4c0,1.2,0,2.4,0,3.5c0,0.1,0,0.3,0,0.4
		c0,0.1,0.1,0.2,0.1,0.3c0,1.1,0,2.3,0,3.4c0,0.2,0.1,0.4,0.4,0.4c1.1,0,2.3,0,3.4,0c0.3,0,0.5,0.2,0.5,0.5c0,1.2,0,2.3,0,3.5
		c0,0.2,0.1,0.3,0.3,0.3c0,0,0.1,0,0.1,0c1.1,0,2.3,0,3.4,0c0.2,0,0.4-0.1,0.4-0.4c0-1.1,0-2.3,0-3.4c0-0.1,0-0.1,0-0.2
		c0-0.2,0.1-0.5,0.1-0.7c0-0.9,0-1.8,0-2.7c0-0.2,0-0.5,0-0.7c0-0.3,0.1-0.4,0.4-0.4C14.5,17,15.7,17,17,17z M6.4,25.6
		c-0.6,0-1.2,0-1.8,0c-0.2,0-0.4,0.2-0.4,0.4c0,0.3,0,0.6,0,0.9c0,0.9,0,1.7,0,2.6c0,0.2,0.2,0.4,0.3,0.4c1.2,0,2.4,0,3.6,0
		c0.2,0,0.3-0.2,0.3-0.3c0-1.2,0-2.4,0-3.6c0-0.2-0.1-0.3-0.3-0.3C7.6,25.6,7,25.6,6.4,25.6z"/>
	<path class="st2" d="M17,17c-1.3,0-2.5,0-3.8,0c-0.3,0-0.4,0.1-0.4,0.4c0,0.2,0,0.5,0,0.7c0,0.9,0,1.8,0,2.7c0,0.2-0.1,0.5-0.1,0.7
		c0,0.1,0,0.1,0,0.2c0,1.1,0,2.3,0,3.4c0,0.2-0.1,0.4-0.4,0.4c-1.1,0-2.3,0-3.4,0c0,0-0.1,0-0.1,0c-0.2,0-0.3-0.1-0.3-0.3
		c0-1.2,0-2.3,0-3.5c0-0.3-0.2-0.5-0.5-0.5c-1.1,0-2.3,0-3.4,0c-0.2,0-0.4-0.1-0.4-0.4c0-1.1,0-2.3,0-3.4c0-0.1,0-0.2-0.1-0.3
		c0-0.1,0-0.3,0-0.4c0-1.2,0-2.4,0-3.5c0-0.3,0.2-0.4,0.4-0.4c1.2,0,2.3,0,3.5,0c0.2,0,0.4-0.1,0.4-0.4c0-1.2,0-2.3,0-3.5
		c0-0.1,0-0.2-0.1-0.3C8.3,8.5,8.2,8.4,8.1,8.4c-1.2,0-2.3,0-3.5,0C4.4,8.4,4.2,8.3,4.2,8c0-1.1,0-2.3,0-3.4c0-0.2,0.1-0.4,0.4-0.4
		c1.2,0,2.4,0.1,3.6,0c1.4-0.1,2.8-0.1,4.2-0.1c2.8,0,5.7,0,8.5,0c1.4,0,2.8-0.1,4.3,0c1.5,0,2.9,0,4.4,0c0.2,0,0.4,0.2,0.4,0.4
		c0,1.2,0,2.4,0,3.5c0,0.2-0.2,0.4-0.4,0.4c-1.2,0-2.3,0-3.5,0c-0.2,0-0.3,0.1-0.3,0.4c0,1.2,0,2.3,0,3.5c0,0.2,0.1,0.3,0.3,0.3
		c1.1,0,2.3,0,3.4,0c0.2,0,0.3,0,0.4,0.2c0.1,0.1,0.1,0.2,0.1,0.3c0,1.2,0.1,2.4,0,3.6c-0.1,1.4,0,2.8-0.1,4.2
		c0,0.2-0.2,0.4-0.4,0.4c-1.2,0-2.3,0-3.5,0c-0.2,0-0.4,0.2-0.4,0.4c0,1.2,0,2.5,0,3.7c0,0.1,0,0.2,0.2,0.2c1.2,0,2.5,0,3.7,0
		c0.3,0,0.4,0.2,0.4,0.4c0,1.1,0,2.3,0,3.4c0,0.2-0.2,0.4-0.4,0.4c-1.2,0-2.3,0-3.5,0c-0.3,0-0.4-0.1-0.4-0.4c0-1.2,0-2.4,0-3.5
		c0-0.3,0-0.3-0.3-0.3c-0.1,0-0.1,0-0.2,0c-1.1,0-2.3,0-3.4,0c-0.2,0-0.4-0.1-0.4-0.4c0-1,0-2.1,0-3.1c-0.1-1.6-0.1-3.1-0.1-4.7
		c0-0.2-0.1-0.4-0.4-0.4C19.6,17,18.3,17,17,17z M21.4,19.1c0,0.2,0,0.4,0,0.6c0,0.4,0,0.8,0,1.2c0,0.3,0.1,0.4,0.4,0.4
		c1.1,0,2.3,0,3.4,0c0.2,0,0.4-0.2,0.4-0.4c0-1.2,0-2.3,0-3.5c0-0.2,0.2-0.4,0.4-0.4c1.1,0,2.3,0,3.4,0c0.3,0,0.4-0.1,0.4-0.4
		c0-1.2,0-2.3,0-3.5c0-0.2-0.1-0.3-0.3-0.3c-1.2,0-2.3,0-3.5,0c-0.3,0-0.5-0.2-0.5-0.5c0-1.1,0-2.3,0-3.4c0-0.2,0-0.3,0.1-0.5
		c0,0,0-0.1,0-0.1c-0.1,0-0.1-0.1-0.1-0.2c0-1.2,0-2.4,0-3.6c0,0,0-0.1,0-0.1c0-0.2-0.1-0.3-0.3-0.3c0,0-0.1,0-0.1,0
		c-1.1,0-2.3,0-3.4,0c0,0-0.1,0-0.1,0c-0.2,0-0.3,0.2-0.3,0.4c0,1.2,0,2.3,0,3.5c0,0.1,0,0.1,0,0.2c0.1,0.2,0.1,0.4,0.1,0.5
		c0,1.2,0,2.3,0,3.5c0,0.2,0,0.3-0.1,0.5c0,0.1,0,0.2,0,0.3c0,0.7,0,1.4,0,2.1c0,0.6-0.1,1.2,0.1,1.8c0,0.1,0,0.3,0,0.5
		C21.4,18,21.4,18.5,21.4,19.1z M8.5,10.6c0,0.6,0,1.2,0,1.8c0,0.2-0.2,0.5-0.5,0.5c-1.2,0-2.3,0-3.5,0c-0.2,0-0.3,0.1-0.3,0.3
		c0,1.2,0,2.4,0,3.5c0,0.1,0,0.1,0,0.2c0,0,0,0.1,0.1,0.1c0.1,0,0.2,0,0.3,0c1.1,0,2.3,0,3.4,0c0.3,0,0.4,0.1,0.4,0.4c0,1,0,2,0,3
		c0,0.1,0,0.3,0,0.4c0,0.2,0.2,0.4,0.4,0.4c1.2,0,2.3,0,3.5,0c0.2,0,0.3-0.1,0.3-0.3c0,0,0,0,0,0c0-1.4,0-2.8,0-4.3
		c0-1.2,0-2.4,0-3.5c0-0.1,0-0.1,0-0.2c0-0.1-0.1-0.2,0-0.3c0,0,0,0,0-0.1c0-0.1,0-0.1,0-0.2c0-1.1,0-2.2,0-3.3c0-0.3,0-0.5,0.1-0.8
		c0,0,0-0.1,0-0.1c0-1.2,0-2.4,0-3.6c0,0,0-0.1,0-0.1c-0.1-0.1-0.2-0.2-0.4-0.2c-1.2,0-2.3,0-3.5,0c-0.3,0-0.4,0.1-0.4,0.4
		c0,1.4,0,2.8,0,4.2C8.6,9.4,8.5,10,8.5,10.6z M17,8.5c-1.3,0-2.6,0-3.9,0c-0.2,0-0.3,0.1-0.3,0.2c0,0.1,0,0.1,0,0.2
		c0,1.2,0,2.3,0,3.5c0,0,0,0.1,0,0.1c0,0.2,0.1,0.3,0.3,0.3c2.6,0,5.1,0,7.7,0c0.3,0,0.4-0.1,0.4-0.4c0-1.2,0-2.4,0-3.5
		c0-0.2-0.1-0.4-0.4-0.4C19.6,8.5,18.3,8.5,17,8.5z"/>
	<path class="st2" d="M6.4,25.6c0.6,0,1.2,0,1.8,0c0.2,0,0.3,0.1,0.3,0.3c0,1.2,0,2.4,0,3.6c0,0.2-0.2,0.3-0.3,0.3
		c-1.2,0-2.4,0-3.6,0c-0.2,0-0.3-0.2-0.3-0.4c0-0.9,0-1.7,0-2.6c0-0.3,0-0.6,0-0.9c0-0.2,0.2-0.4,0.4-0.4
		C5.2,25.6,5.8,25.6,6.4,25.6z"/>
	<path class="st3" d="M21.4,19.1c0-0.5,0-1.1,0-1.6c0-0.2,0-0.3,0-0.5c-0.2-0.6-0.1-1.2-0.1-1.8c0-0.7,0-1.4,0-2.1
		c0-0.1,0-0.2,0-0.3c0.1-0.2,0.1-0.3,0.1-0.5c0-1.2,0-2.3,0-3.5c0-0.2,0-0.4-0.1-0.5c0-0.1,0-0.1,0-0.2c0-1.2,0-2.3,0-3.5
		c0-0.2,0.1-0.3,0.3-0.4c0,0,0.1,0,0.1,0c1.1,0,2.3,0,3.4,0c0,0,0.1,0,0.1,0c0.2,0,0.3,0.1,0.3,0.3c0,0,0,0.1,0,0.1
		c0,1.2,0,2.4,0,3.6c0,0.1,0,0.1,0.1,0.2c0,0,0,0,0,0.1c-0.1,0.1-0.1,0.3-0.1,0.5c0,1.1,0,2.3,0,3.4c0,0.3,0.2,0.5,0.5,0.5
		c1.2,0,2.3,0,3.5,0c0.2,0,0.3,0.1,0.3,0.3c0,1.2,0,2.3,0,3.5c0,0.3-0.1,0.4-0.4,0.4c-1.1,0-2.3,0-3.4,0c-0.2,0-0.4,0.2-0.4,0.4
		c0,1.2,0,2.3,0,3.5c0,0.2-0.2,0.4-0.4,0.4c-1.1,0-2.3,0-3.4,0c-0.3,0-0.3-0.1-0.4-0.4c0-0.4,0-0.8,0-1.2
		C21.4,19.5,21.4,19.3,21.4,19.1z"/>
	<path class="st3" d="M8.5,10.6c0-0.6,0-1.2,0-1.8c-0.1-1.4,0-2.8,0-4.2c0-0.3,0.1-0.4,0.4-0.4c1.2,0,2.3,0,3.5,0
		c0.2,0,0.3,0.1,0.4,0.2c0,0,0,0.1,0,0.1c0,1.2,0,2.4,0,3.6c0,0,0,0.1,0,0.1c-0.1,0.3-0.1,0.5-0.1,0.8c0,1.1,0,2.2,0,3.3
		c0,0.1,0,0.1,0,0.2c0,0,0,0.1,0,0.1c-0.1,0.1,0,0.2,0,0.3c0,0.1,0,0.1,0,0.2c0,1.2,0,2.4,0,3.5c0,1.4,0,2.8,0,4.3c0,0,0,0,0,0
		c0,0.2-0.1,0.3-0.3,0.3c-1.2,0-2.3,0-3.5,0c-0.2,0-0.3-0.2-0.4-0.4c0-0.1,0-0.3,0-0.4c0-1,0-2,0-3C8.5,17.1,8.4,17,8,17
		c-1.1,0-2.3,0-3.4,0c-0.1,0-0.2,0-0.3,0c0,0-0.1,0-0.1-0.1c0-0.1,0-0.1,0-0.2c0-1.2,0-2.4,0-3.5c0-0.2,0.1-0.3,0.3-0.3
		c1.2,0,2.3,0,3.5,0c0.2,0,0.5-0.2,0.5-0.5C8.5,11.8,8.5,11.2,8.5,10.6z"/>
	<path class="st1" d="M17,8.5c1.3,0,2.6,0,3.9,0c0.2,0,0.4,0.1,0.4,0.4c0,1.2,0,2.4,0,3.5c0,0.3-0.1,0.4-0.4,0.4c-2.6,0-5.1,0-7.7,0
		c-0.2,0-0.3-0.2-0.3-0.3c0,0,0-0.1,0-0.1c0-1.2,0-2.3,0-3.5c0-0.1,0-0.1,0-0.2c0.1-0.1,0.2-0.2,0.3-0.2C14.4,8.5,15.7,8.5,17,8.5z"
		/>
</g>
</svg>
