<svg width="32" height="32" viewBox="0 0 32 32" fill="none" xmlns="http://www.w3.org/2000/svg">
<mask id="mask0_109_2674" style="mask-type:luminance" maskUnits="userSpaceOnUse" x="0" y="0" width="32" height="32">
<path d="M0 32H32V0H0V32Z" fill="white"/>
</mask>
<g mask="url(#mask0_109_2674)">
<g filter="url(#filter0_d_109_2674)">
<path d="M23 31.5H9M23 30.5H9M32 29.5H21M18 29.5H14M11 29.5H0M32 28.5H21M18 28.5H14M11 28.5H0M32 27.5H21M18 27.5H14M11 27.5H0M32 26.5H30M2 26.5H0M32 25.5H30M2 25.5H0M32 24.5H30M27 24.5H25M23 24.5H21M11 24.5H9M7 24.5H5M2 24.5H0M32 23.5H30M27 23.5H25M23 23.5H21M11 23.5H9M7 23.5H5M2 23.5H0M32 22.5H30M2 22.5H0M32 21.5H30M2 21.5H0M32 20.5H30M18 20.5H14M2 20.5H0M32 19.5H30M18 19.5H14M2 19.5H0M32 18.5H30M18 18.5H14M2 18.5H0M32 17.5H30M27 17.5H25M23 17.5H21M11 17.5H9M7 17.5H5M2 17.5H0M32 16.5H30M27 16.5H25M23 16.5H21M11 16.5H9M7 16.5H5M2 16.5H0M32 15.5H27M23 15.5H21M11 15.5H9M5 15.5H0M32 14.5H27M23 14.5H21M11 14.5H9M5 14.5H0M32 13.5H30M21 13.5H11M2 13.5H0M32 12.5H30M21 12.5H11M2 12.5H0M32 11.5H30M21 11.5H11M2 11.5H0M32 10.5H30M25 10.5H23M9 10.5H7M2 10.5H0M32 9.5H30M25 9.5H23M9 9.5H7M2 9.5H0M32 8.5H27M5 8.5H0M32 7.5H27M5 7.5H0M30 6.5H27M5 6.5H2M30 5.5H27M5 5.5H2M30 4.5H25M7 4.5H2M30 3.5H25M7 3.5H2M30 2.5H25M7 2.5H2M27 1.5H5M27 0.5H5" stroke="#051A00"/>
<path d="M21 29.5H18M14 29.5H11M21 28.5H18M14 28.5H11M21 27.5H18M14 27.5H11M30 26.5H27M25 26.5H23M21 26.5H11M9 26.5H7M5 26.5H2M30 25.5H27M25 25.5H23M21 25.5H11M9 25.5H7M5 25.5H2M30 24.5H27M25 24.5H23M21 24.5H11M9 24.5H7M5 24.5H2M30 23.5H27M25 23.5H23M21 23.5H11M9 23.5H7M5 23.5H2M30 22.5H18M14 22.5H2M30 21.5H18M14 21.5H2M30 20.5H27M25 20.5H23M21 20.5H18M14 20.5H11M9 20.5H7M5 20.5H2M30 19.5H27M25 19.5H23M21 19.5H18M14 19.5H11M9 19.5H7M5 19.5H2M30 18.5H27M25 18.5H23M21 18.5H18M14 18.5H11M9 18.5H7M5 18.5H2M25 17.5H23M21 17.5H11M9 17.5H7M25 16.5H23M21 16.5H11M9 16.5H7M27 15.5H23M9 15.5H5M27 14.5H23M9 14.5H5M30 13.5H25M23 13.5H21M11 13.5H9M7 13.5H2M30 12.5H25M23 12.5H21M11 12.5H9M7 12.5H2M30 11.5H25M23 11.5H21M11 11.5H9M7 11.5H2M27 10.5H25M23 10.5H9M7 10.5H5M27 9.5H25M23 9.5H9M7 9.5H5M27 8.5H5M27 7.5H5M25 6.5H7M25 5.5H7" stroke="#99FF80"/>
<path d="M27 26.5H25M23 26.5H21M11 26.5H9M7 26.5H5M27 25.5H25M23 25.5H21M11 25.5H9M7 25.5H5M18 22.5H14M18 21.5H14M27 20.5H25M23 20.5H21M11 20.5H9M7 20.5H5M27 19.5H25M23 19.5H21M11 19.5H9M7 19.5H5M27 18.5H25M23 18.5H21M11 18.5H9M7 18.5H5M30 17.5H27M5 17.5H2M30 16.5H27M5 16.5H2M21 15.5H11M21 14.5H11M25 13.5H23M9 13.5H7M25 12.5H23M9 12.5H7M25 11.5H23M9 11.5H7M30 10.5H27M5 10.5H2M30 9.5H27M5 9.5H2M27 6.5H25M7 6.5H5M27 5.5H25M7 5.5H5M25 4.5H7M25 3.5H7M25 2.5H7" stroke="#2EE600"/>
</g>
</g>
<defs>
<filter id="filter0_d_109_2674" x="-4" y="0" width="40" height="40" filterUnits="userSpaceOnUse" color-interpolation-filters="sRGB">
<feFlood flood-opacity="0" result="BackgroundImageFix"/>
<feColorMatrix in="SourceAlpha" type="matrix" values="0 0 0 0 0 0 0 0 0 0 0 0 0 0 0 0 0 0 127 0" result="hardAlpha"/>
<feOffset dy="4"/>
<feGaussianBlur stdDeviation="2"/>
<feComposite in2="hardAlpha" operator="out"/>
<feColorMatrix type="matrix" values="0 0 0 0 0 0 0 0 0 0 0 0 0 0 0 0 0 0 0.25 0"/>
<feBlend mode="normal" in2="BackgroundImageFix" result="effect1_dropShadow_109_2674"/>
<feBlend mode="normal" in="SourceGraphic" in2="effect1_dropShadow_109_2674" result="shape"/>
</filter>
</defs>
</svg>
