<?xml version="1.0" encoding="utf-8"?>
<!-- Generator: Adobe Illustrator 25.4.0, SVG Export Plug-In . SVG Version: 6.00 Build 0)  -->
<svg version="1.1" id="Layer_1" xmlns="http://www.w3.org/2000/svg" xmlns:xlink="http://www.w3.org/1999/xlink" x="0px" y="0px"
	 viewBox="0 0 60 60" style="enable-background:new 0 0 60 60;" xml:space="preserve">
<style type="text/css">
	.st0{fill:#FE9E04;}
	.st1{fill:#FED10B;}
	.st2{fill:#005FF7;}
	.st3{fill:#B7C4FE;}
	.st4{fill:#31FDDE;}
</style>
<g>
	<path class="st0" d="M26.2,3.7c2.5,0,5,0,7.5,0c0,1.2,0,2.4,0,3.5c0,0.1,0,0.2,0.2,0.2c3.7,0,7.3,0,11,0c0.1,0,0.2,0,0.2-0.2
		c0-1.2,0-2.4,0-3.5c2.5,0,5,0,7.5,0c0,1.2,0,2.4,0,3.7c-1.2,0-2.4,0-3.6,0c-0.1,0-0.1,0-0.1,0.1c0,1.2,0,2.4,0,3.7
		c-1.3,0-2.5,0-3.8,0c-1.3,0-2.5,0-3.8,0c-1.2,0-2.4,0-3.6,0c-0.1,0-0.1,0-0.1,0.1c0,1.2,0,2.4,0,3.6c-1.3,0-2.5,0-3.8,0
		c-0.2,0-0.4,0-0.6,0c-2.3,0-4.6,0-6.9,0c-1.3,0-2.5,0-3.8,0c0-1.2,0-2.4,0-3.6c0-0.1,0-0.1-0.1-0.1c-1.2,0-2.4,0-3.6,0
		c-1.3,0-2.5,0-3.8,0c-1.3,0-2.5,0-3.8,0c0-1.2,0-2.4,0-3.7c0-0.1,0-0.1-0.1-0.1c-1.2,0-2.4,0-3.6,0c0-1.2,0-2.4,0-3.7
		c2.5,0,5,0,7.5,0c0,1.2,0,2.4,0,3.5c0,0.1,0,0.2,0.2,0.2c3.7,0,7.3,0,11,0c0.1,0,0.2,0,0.2-0.2C26.2,6,26.2,4.8,26.2,3.7z"/>
	<path d="M52.5,7.3c0-1.2,0-2.4,0-3.7c1.2,0,2.5,0,3.7,0c0.1,0,0.1,0,0.1,0.1c0,7.8,0,15.7,0,23.5c0,9.7,0,19.3,0,29
		c-0.1,0-0.1,0-0.2,0c-14.1,0-28.2,0-42.2,0c-3.4,0-6.7,0-10.1,0c-0.1,0-0.1,0-0.1-0.1c0-1.2,0-2.5,0-3.7c1.2,0,2.4,0,3.6,0
		c0,1.2,0,2.4,0,3.6c0,0.1,0,0.2,0.2,0.2c4.9,0,9.8,0,14.7,0c0.1,0,0.2,0,0.2-0.1c0-1.2,0-2.3,0-3.5c0,0,0-0.1,0-0.1
		c0.3,0,0.7,0,1,0c0.9,0,1.8,0,2.7,0c0,0,0.1,0,0.1,0c2.4,0,4.9,0,7.3,0c0,0,0.1,0,0.1,0c0.1,0,0.1,0,0.2,0c1.2,0,2.4,0,3.6,0
		c0,0,0,0.1,0,0.1c0,1.2,0,2.3,0,3.5c0,0.1,0,0.2,0.2,0.2c4.9,0,9.8,0,14.7,0c0.1,0,0.2,0,0.2-0.2c0-1.2,0-2.4,0-3.6
		c1.2,0,2.4,0,3.6,0c0.1,0,0.2,0,0.2-0.2c0-2.4,0-4.8,0-7.2c0-0.1,0-0.2-0.2-0.2c-1.1,0-2.3,0-3.4,0c-0.2,0-0.2,0-0.2-0.2
		c0-3.6,0-7.3,0-10.9c0-0.1,0-0.2-0.2-0.2c-1.2,0-2.4,0-3.6,0c0-1.2,0-2.4,0-3.6c0-0.1,0-0.2,0.2-0.2c1.2,0,2.3,0,3.5,0
		c0.1,0,0.2,0,0.2-0.2c0-2.4,0-4.8,0-7.2c0-0.1,0-0.2,0.2-0.2c1.1,0,2.3,0,3.4,0c0.1,0,0.2,0,0.2-0.2c0-4.9,0-9.8,0-14.7
		c0-0.1,0-0.2-0.2-0.2C54.9,7.3,53.7,7.3,52.5,7.3L52.5,7.3z"/>
	<path d="M26.2,3.7c0,1.2,0,2.4,0,3.5c0,0.1,0,0.2-0.2,0.2c-3.7,0-7.3,0-11,0c-0.1,0-0.2,0-0.2-0.2c0-1.2,0-2.4,0-3.5
		C18.6,3.7,22.4,3.7,26.2,3.7z"/>
	<path d="M14.9,0c0,1.2,0,2.4,0,3.5c0,0.1,0,0.2-0.1,0.2c-2.5,0-4.9,0-7.4,0c-0.1,0-0.1,0-0.1-0.2c0-1.2,0-2.4,0-3.5
		C9.8,0,12.4,0,14.9,0z"/>
	<path d="M3.7,22.5c-1.2,0-2.4,0-3.5,0c-0.1,0-0.2,0-0.2-0.2c0-4.9,0-9.8,0-14.7c0-0.2,0-0.2,0.2-0.2c1.2,0,2.4,0,3.5,0
		C3.7,12.4,3.7,17.4,3.7,22.5z"/>
	<path d="M3.7,52.6c-1.2,0-2.4,0-3.5,0c-0.1,0-0.2,0-0.2-0.1c0-2.5,0-5,0-7.4c0-0.1,0-0.1,0.2-0.1c1.2,0,2.4,0,3.5,0
		C3.7,47.5,3.7,50,3.7,52.6z"/>
	<path d="M60,22.5c-1.2,0-2.4,0-3.5,0c-0.1,0-0.2,0-0.2-0.2c0-4.9,0-9.8,0-14.7c0-0.2,0-0.2,0.2-0.2c1.2,0,2.4,0,3.5,0
		C60,12.4,60,17.4,60,22.5z"/>
	<path d="M60,52.6c-1.2,0-2.4,0-3.5,0c-0.1,0-0.2,0-0.2-0.1c0-2.5,0-5,0-7.4c0-0.1,0-0.1,0.2-0.1c1.2,0,2.4,0,3.5,0
		C60,47.5,60,50,60,52.6z"/>
	<path d="M33.7,0c0,1.2,0,2.4,0,3.5c0,0.1,0,0.2-0.1,0.2c-2.5,0-4.9,0-7.4,0c-0.1,0-0.1,0-0.1-0.2c0-1.2,0-2.4,0-3.5
		C28.7,0,31.2,0,33.7,0z"/>
	<path d="M52.5,0c0,1.2,0,2.4,0,3.5c0,0.1,0,0.2-0.1,0.2c-2.5,0-4.9,0-7.4,0c-0.1,0-0.1,0-0.1-0.2c0-1.2,0-2.4,0-3.5
		C47.5,0,50,0,52.5,0z"/>
	<path d="M52.5,56.3c0,1.2,0,2.4,0,3.5c0,0.1,0,0.2-0.2,0.2c-4.9,0-9.8,0-14.7,0c-0.2,0-0.2,0-0.2-0.2c0-1.2,0-2.4,0-3.5
		C42.4,56.3,47.5,56.3,52.5,56.3z"/>
	<path d="M22.4,56.3c0,1.2,0,2.4,0,3.5c0,0.1,0,0.2-0.2,0.2c-4.9,0-9.8,0-14.7,0c-0.2,0-0.2,0-0.2-0.2c0-1.2,0-2.4,0-3.5
		C12.3,56.3,17.4,56.3,22.4,56.3z"/>
	<path d="M45,3.7c0,1.2,0,2.4,0,3.5c0,0.1,0,0.2-0.2,0.2c-3.7,0-7.3,0-11,0c-0.1,0-0.2,0-0.2-0.2c0-1.2,0-2.4,0-3.5
		C37.5,3.7,41.2,3.7,45,3.7z"/>
	<path d="M7.4,3.7c0,1.2,0,2.4,0,3.7l0,0c-1.2,0-2.4,0-3.6,0c0-0.1,0-0.1,0-0.2c0-1.2,0-2.3,0-3.5C4.9,3.7,6.1,3.7,7.4,3.7z"/>
	<path class="st1" d="M26.2,14.9c2.3,0,4.6,0,6.9,0c0.2,0,0.4,0,0.6,0c0,1.3,0,2.5,0,3.8c-2.5,0-5,0-7.5,0
		C26.2,17.4,26.2,16.1,26.2,14.9z"/>
	<path class="st2" d="M7.4,7.3c1.2,0,2.4,0,3.6,0c0.1,0,0.1,0,0.1,0.1c0,1.2,0,2.4,0,3.7l0,0c-1.2,0-2.4,0-3.7,0
		c-0.1,0-0.1,0-0.1-0.1C7.4,9.8,7.4,8.6,7.4,7.3L7.4,7.3z"/>
	<path class="st2" d="M48.7,11.1c0-1.2,0-2.4,0-3.7c0-0.1,0-0.1,0.1-0.1c1.2,0,2.4,0,3.6,0l0,0c0,1.2,0,2.4,0,3.7
		c0,0.1,0,0.1-0.1,0.1C51.2,11.1,50,11.1,48.7,11.1L48.7,11.1z"/>
	<path class="st3" d="M33.7,18.6c0-1.3,0-2.5,0-3.8c1.3,0,2.5,0,3.8,0l0,0c0,1.3,0,2.5,0,3.8C36.2,18.6,34.9,18.6,33.7,18.6
		L33.7,18.6z"/>
	<path class="st2" d="M11.1,11.1c1.3,0,2.5,0,3.8,0c0,1.3,0,2.5,0,3.8c-1.3,0-2.5,0-3.8,0C11.1,13.6,11.1,12.4,11.1,11.1L11.1,11.1z
		"/>
	<path class="st3" d="M26.2,14.9c0,1.3,0,2.5,0,3.8l0,0c-1.3,0-2.5,0-3.8,0c0-1.3,0-2.5,0-3.8l0,0C23.7,14.9,24.9,14.9,26.2,14.9z"
		/>
	<path class="st1" d="M14.9,14.9c0-1.3,0-2.5,0-3.8c1.3,0,2.5,0,3.8,0c0,1.3,0,2.5,0,3.8l0,0C17.4,14.9,16.1,14.9,14.9,14.9
		L14.9,14.9z"/>
	<path class="st2" d="M45,11.1c1.3,0,2.5,0,3.8,0l0,0c0,1.3,0,2.5,0,3.8c-1.3,0-2.5,0-3.8,0C45,13.6,45,12.4,45,11.1z"/>
	<path class="st1" d="M45,11.1c0,1.3,0,2.5,0,3.8l0,0c-1.3,0-2.5,0-3.8,0l0,0c0-1.3,0-2.5,0-3.8C42.5,11.1,43.7,11.1,45,11.1z"/>
	<path class="st2" d="M41.2,11.1c0,1.3,0,2.5,0,3.8c-1.3,0-2.5,0-3.8,0l0,0c0-1.2,0-2.4,0-3.6c0-0.1,0-0.1,0.1-0.1
		C38.8,11.1,40,11.1,41.2,11.1z"/>
	<path class="st2" d="M18.6,14.9c0-1.3,0-2.5,0-3.8c1.2,0,2.4,0,3.6,0c0.1,0,0.1,0,0.1,0.1c0,1.2,0,2.4,0,3.6c0,0,0,0,0,0
		C21.2,14.9,19.9,14.9,18.6,14.9z"/>
	<path class="st0" d="M48.7,14.9c0-1.3,0-2.5,0-3.8c1.2,0,2.4,0,3.7,0c0.1,0,0.1,0,0.1-0.1c0-1.2,0-2.4,0-3.7c1.2,0,2.4,0,3.5,0
		c0.1,0,0.2,0,0.2,0.2c0,4.9,0,9.8,0,14.7c0,0.1,0,0.2-0.2,0.2c-1.1,0-2.3,0-3.4,0c-0.1,0-0.2,0-0.2,0.2c0,2.4,0,4.8,0,7.2
		c0,0.1,0,0.2-0.2,0.2c-1.2,0-2.3,0-3.5,0c-0.1,0-0.2,0-0.2,0.2c0,1.2,0,2.4,0,3.6l0,0c-1.3,0-2.5,0-3.8,0c0-1.3,0-2.5,0-3.8
		c0-0.1,0-0.1,0-0.2c0-1.2,0-2.4,0-3.6c1.2,0,2.4,0,3.6,0c0.1,0,0.2,0,0.2-0.1c0-1.2,0-2.4,0-3.6c0-1.3,0-2.5,0-3.8l0,0
		c1.2,0,2.4,0,3.6,0c0.1,0,0.2,0,0.2-0.2c0-1.2,0-2.3,0-3.5c0-0.1,0-0.2-0.2-0.2C51.1,14.9,49.9,14.9,48.7,14.9L48.7,14.9z"/>
	<path class="st0" d="M48.7,33.7c1.2,0,2.4,0,3.6,0c0.1,0,0.2,0,0.2,0.2c0,3.6,0,7.3,0,10.9c0,0.1,0,0.2,0.2,0.2c1.1,0,2.3,0,3.4,0
		c0.1,0,0.2,0,0.2,0.2c0,2.4,0,4.8,0,7.2c0,0.1,0,0.2-0.2,0.2c-1.2,0-2.4,0-3.6,0l0,0c0-1.2,0-2.4,0-3.6c0-0.1,0-0.1-0.1-0.1
		c-1.2,0-2.4,0-3.6,0c0-1.3,0-2.5,0-3.8c0-1.3,0-2.5,0-3.8c0-0.3,0-0.6,0-0.9c0-0.9,0-1.9,0-2.8c0-0.1,0-0.1,0-0.2
		C48.7,36.1,48.7,34.9,48.7,33.7L48.7,33.7z"/>
	<path class="st0" d="M3.7,52.5c0,0,0-0.1,0-0.1c0-2.4,0-4.9,0-7.3c0,0,0-0.1,0-0.1c1.2,0,2.3,0,3.5,0c0.1,0,0.2,0,0.2-0.2
		c0-3.6,0-7.3,0-10.9c0-0.1,0-0.2,0.2-0.2c1.2,0,2.4,0,3.6,0l0,0c0,0.3,0,0.7,0,1c0,0.9,0,1.8,0,2.8c0,1.3,0,2.5,0,3.8
		c0,1.3,0,2.5,0,3.8c0,1.3,0,2.5,0,3.8c-1.2,0-2.4,0-3.6,0c-0.1,0-0.1,0-0.1,0.1c0,1.2,0,2.4,0,3.6l0,0C6.1,52.5,4.9,52.5,3.7,52.5z
		"/>
	<path class="st0" d="M52.5,52.5c0,1.2,0,2.4,0,3.6c0,0.1,0,0.2-0.2,0.2c-4.9,0-9.8,0-14.7,0c-0.1,0-0.2,0-0.2-0.2
		c0-1.2,0-2.3,0-3.5c0,0,0-0.1,0-0.1c0,0,0,0,0,0c1.3,0,2.5,0,3.8,0c0.5,0,1,0,1.5,0c2,0,4,0,6,0C50,52.5,51.3,52.5,52.5,52.5
		L52.5,52.5z"/>
	<path class="st0" d="M22.4,52.5c0,0,0,0.1,0,0.1c0,1.2,0,2.3,0,3.5c0,0.1,0,0.1-0.2,0.1c-4.9,0-9.8,0-14.7,0c-0.1,0-0.2,0-0.2-0.2
		c0-1.2,0-2.4,0-3.6l0,0c1.3,0,2.5,0,3.8,0c2.5,0,5,0,7.5,0C19.9,52.5,21.2,52.5,22.4,52.5L22.4,52.5z"/>
	<path class="st0" d="M33.7,52.5c0,0-0.1,0-0.1,0c-2.4,0-4.9,0-7.3,0c0,0-0.1,0-0.1,0c0-1.3,0-2.5,0-3.8c2.5,0,5,0,7.5,0
		C33.7,50,33.7,51.2,33.7,52.5z"/>
	<path class="st3" d="M26.2,48.7c0,1.3,0,2.5,0,3.8c-0.9,0-1.8,0-2.7,0c-0.3,0-0.7,0-1,0c0,0,0,0,0,0c0-1.3,0-2.5,0-3.8
		C23.7,48.7,24.9,48.7,26.2,48.7C26.2,48.7,26.2,48.7,26.2,48.7z"/>
	<path class="st3" d="M33.7,52.5c0-1.3,0-2.5,0-3.8l0,0c1.3,0,2.5,0,3.8,0c0,1.3,0,2.5,0,3.8c0,0,0,0,0,0c-1.2,0-2.4,0-3.6,0
		C33.8,52.5,33.8,52.5,33.7,52.5z"/>
	<path class="st0" d="M11.1,11.1c0,1.3,0,2.5,0,3.8l0,0c-1.2,0-2.4,0-3.6,0c-0.1,0-0.2,0-0.2,0.2c0,1.2,0,2.3,0,3.5
		c0,0.1,0,0.2,0.2,0.2c1.2,0,2.4,0,3.6,0l0,0c0,1.3,0,2.5,0,3.8c0,1.2,0,2.4,0,3.6c0,0.2,0.1,0.2,0.2,0.2c1.2,0,2.4,0,3.6,0
		c0,0.3,0,0.6,0,1c0,0.9,0,1.9,0,2.8c0,1.2,0,2.3,0,3.5c0,0.1,0,0.2,0,0.3c-1.3,0-2.5,0-3.8,0l0,0c0-1.2,0-2.4,0-3.6
		c0-0.1,0-0.2-0.2-0.2c-1.2,0-2.3,0-3.5,0c-0.1,0-0.1,0-0.1-0.1c0-0.3,0-0.6,0-0.9c0-2.1,0-4.3,0-6.4c0-0.1,0-0.1-0.1-0.1
		c-1.2,0-2.4,0-3.5,0c0,0,0-0.1,0-0.1c0-4.9,0-9.8,0-14.8c0,0,0-0.1,0-0.1c1.2,0,2.4,0,3.6,0c0,1.2,0,2.4,0,3.7c0,0.1,0,0.1,0.1,0.1
		C8.7,11.1,9.9,11.1,11.1,11.1z"/>
	<path d="M3.7,22.4c1.2,0,2.4,0,3.5,0c0.1,0,0.1,0.1,0.1,0.1c0,2.1,0,4.3,0,6.4c0,0.3,0,0.6,0,0.9c0,0.1,0,0.1,0.1,0.1
		c1.2,0,2.3,0,3.5,0c0.1,0,0.2,0,0.2,0.2c0,1.2,0,2.4,0,3.6c-1.2,0-2.4,0-3.6,0c-0.1,0-0.2,0-0.2,0.2c0,3.6,0,7.3,0,10.9
		c0,0.2,0,0.2-0.2,0.2c-1.2,0-2.3,0-3.5,0c0,0,0-0.1,0-0.1c0-7.4,0-14.9,0-22.3C3.7,22.5,3.7,22.4,3.7,22.4z"/>
	<path class="st4" d="M26.2,18.6c2.5,0,5,0,7.5,0c0,0,0,0,0,0c0,1.3,0,2.5,0,3.8c-2.5,0-5,0-7.5,0C26.2,21.1,26.2,19.9,26.2,18.6
		L26.2,18.6z"/>
	<path class="st1" d="M33.7,22.4c0-1.3,0-2.5,0-3.8c1.3,0,2.5,0,3.8,0l0,0c0,1.3,0,2.5,0,3.8C36.2,22.4,34.9,22.4,33.7,22.4
		L33.7,22.4z"/>
	<path class="st0" d="M37.5,14.9c1.3,0,2.5,0,3.8,0l0,0c0,1.3,0,2.5,0,3.8c-1.3,0-2.5,0-3.8,0l0,0C37.5,17.4,37.5,16.1,37.5,14.9z"
		/>
	<path class="st1" d="M11.1,14.9c1.3,0,2.5,0,3.8,0l0,0c0,1.3,0,2.5,0,3.8c-1.3,0-2.5,0-3.8,0l0,0C11.1,17.4,11.1,16.1,11.1,14.9
		L11.1,14.9z"/>
	<path class="st1" d="M26.2,18.6c0,1.3,0,2.5,0,3.8l0,0c-1.3,0-2.5,0-3.8,0c0-1.3,0-2.5,0-3.8l0,0C23.7,18.6,24.9,18.6,26.2,18.6z"
		/>
	<path class="st0" d="M18.6,14.9c1.3,0,2.5,0,3.8,0c0,1.3,0,2.5,0,3.8c0,0,0,0,0,0c-1.3,0-2.5,0-3.8,0
		C18.6,17.4,18.6,16.1,18.6,14.9L18.6,14.9z"/>
	<path class="st3" d="M18.6,14.9c0,1.3,0,2.5,0,3.8l0,0c-1.3,0-2.5,0-3.8,0l0,0c0-1.3,0-2.5,0-3.8C16.1,14.9,17.4,14.9,18.6,14.9z"
		/>
	<path class="st1" d="M45,14.9c1.3,0,2.5,0,3.8,0l0,0c0,1.3,0,2.5,0,3.8l0,0c-1.3,0-2.5,0-3.8,0C45,17.4,45,16.1,45,14.9L45,14.9z"
		/>
	<path class="st3" d="M45,14.9c0,1.3,0,2.5,0,3.8l0,0c-1.3,0-2.5,0-3.8,0l0,0c0-1.3,0-2.5,0-3.8C42.5,14.9,43.7,14.9,45,14.9z"/>
	<path class="st3" d="M45,29.9c0,1.3,0,2.5,0,3.8c0,0,0,0,0,0c-0.3,0-0.5,0-0.8,0c-1,0-2,0-3,0c-1.3,0-2.5,0-3.8,0
		c0-1.3,0-2.5,0-3.8c0.2,0,0.5,0,0.7,0c1,0,2,0,3.1,0c0.1,0,0.1,0,0.2,0C42.6,29.9,43.8,29.9,45,29.9z"/>
	<path class="st3" d="M48.7,18.6c0-1.3,0-2.5,0-3.8c1.2,0,2.4,0,3.6,0c0.1,0,0.2,0,0.2,0.2c0,1.2,0,2.3,0,3.5c0,0.1,0,0.2-0.2,0.2
		C51.1,18.6,49.9,18.6,48.7,18.6z"/>
	<path class="st3" d="M45,18.6c1.3,0,2.5,0,3.8,0c0,1.3,0,2.5,0,3.8c-1.3,0-2.5,0-3.8,0C45,21.1,45,19.9,45,18.6L45,18.6z"/>
	<path class="st1" d="M45,22.4c1.3,0,2.5,0,3.8,0c0,1.2,0,2.4,0,3.6c0,0.1-0.1,0.1-0.2,0.1c-1.2,0-2.4,0-3.6,0c0,0,0,0,0,0
		c0-0.1,0-0.1,0-0.2C45,24.8,45,23.6,45,22.4L45,22.4z"/>
	<path class="st4" d="M45,29.9c-1.2,0-2.4,0-3.6,0c-0.1,0-0.1,0-0.2,0c0-1.3,0-2.5,0-3.8c1.3,0,2.5,0,3.8,0c0,0,0,0,0,0
		c0,1.2,0,2.4,0,3.6C45,29.8,45,29.9,45,29.9z"/>
	<path class="st2" d="M48.7,33.7c0,1.2,0,2.4,0,3.6c0,0.1,0,0.1,0,0.2c-1.3,0-2.5,0-3.8,0c0-1.3,0-2.5,0-3.8c0,0,0,0,0,0
		C46.2,33.7,47.5,33.7,48.7,33.7z"/>
	<path class="st3" d="M45,37.4c1.3,0,2.5,0,3.8,0c0,0.9,0,1.9,0,2.8c0,0.3,0,0.6,0,0.9c-1.3,0-2.5,0-3.8,0C45,39.9,45,38.7,45,37.4
		L45,37.4z"/>
	<path class="st1" d="M45,41.2c1.3,0,2.5,0,3.8,0c0,1.3,0,2.5,0,3.8c-1.3,0-2.5,0-3.8,0l0,0C45,43.7,45,42.5,45,41.2L45,41.2z"/>
	<path class="st3" d="M45,45c1.3,0,2.5,0,3.8,0c0,1.3,0,2.5,0,3.8l0,0c-1.2,0-2.4,0-3.6,0c-0.1,0-0.2,0-0.2-0.2
		C45,47.4,45,46.2,45,45z"/>
	<path class="st3" d="M52.5,52.5c-1.3,0-2.5,0-3.8,0c0-1.3,0-2.5,0-3.8l0,0c1.2,0,2.4,0,3.6,0c0.1,0,0.1,0,0.1,0.1
		C52.5,50.1,52.5,51.3,52.5,52.5z"/>
	<path class="st2" d="M11.1,33.7c1.3,0,2.5,0,3.8,0l0,0c0,1.3,0,2.5,0,3.8c-1.3,0-2.5,0-3.8,0c0-0.9,0-1.8,0-2.8
		C11.1,34.3,11.1,34,11.1,33.7z"/>
	<path class="st3" d="M11.1,37.4c1.3,0,2.5,0,3.8,0l0,0c0,1.3,0,2.5,0,3.8c-1.3,0-2.5,0-3.8,0C11.1,39.9,11.1,38.7,11.1,37.4z"/>
	<path class="st1" d="M11.1,41.2c1.3,0,2.5,0,3.8,0c0,0,0,0,0,0c0,0.8,0,1.5,0,2.3c0,0.5,0,1,0,1.5l0,0c-1.3,0-2.5,0-3.8,0
		C11.1,43.7,11.1,42.5,11.1,41.2z"/>
	<path class="st3" d="M11.1,45c1.3,0,2.5,0,3.8,0c0,1.2,0,2.4,0,3.6c0,0.1,0,0.1-0.1,0.1c-1.2,0-2.4,0-3.6,0l0,0
		C11.1,47.5,11.1,46.2,11.1,45z"/>
	<path class="st3" d="M11.1,52.5c-1.3,0-2.5,0-3.8,0c0-1.2,0-2.4,0-3.6c0-0.1,0-0.1,0.1-0.1c1.2,0,2.4,0,3.6,0l0,0
		C11.1,50,11.1,51.2,11.1,52.5z"/>
	<path class="st1" d="M48.7,48.7c0,1.3,0,2.5,0,3.8c-2,0-4,0-6,0c-0.5,0-1,0-1.5,0c0-0.3,0-0.6,0-1c0-0.9,0-1.9,0-2.8
		c0-1.3,0-2.5,0-3.8c0.7,0,1.5,0,2.2,0c0.5,0,1,0,1.5,0l0,0c0,1.2,0,2.4,0,3.6c0,0.1,0,0.2,0.2,0.2C46.3,48.7,47.5,48.7,48.7,48.7z"
		/>
	<path class="st2" d="M41.2,48.7c0,0.9,0,1.9,0,2.8c0,0.3,0,0.6,0,1c-1.3,0-2.5,0-3.8,0c0-1.3,0-2.5,0-3.8l0,0
		C38.7,48.7,40,48.7,41.2,48.7z"/>
	<path class="st1" d="M11.1,52.5c0-1.3,0-2.5,0-3.8c1.2,0,2.4,0,3.6,0c0.1,0,0.1,0,0.1-0.1c0-1.2,0-2.4,0-3.6l0,0c1.3,0,2.5,0,3.8,0
		c0,0.3,0,0.7,0,1c0,0.9,0,1.8,0,2.8c0,1.3,0,2.5,0,3.8C16.1,52.5,13.6,52.5,11.1,52.5z"/>
	<path class="st2" d="M18.6,52.5c0-1.3,0-2.5,0-3.8c1.3,0,2.5,0,3.8,0l0,0c0,1.3,0,2.5,0,3.8C21.2,52.5,19.9,52.5,18.6,52.5z"/>
	<path class="st4" d="M33.7,48.7c-2.5,0-5,0-7.5,0c0,0,0,0,0,0c0-1.3,0-2.5,0-3.8c0,0,0.1,0,0.1,0c2.4,0,4.9,0,7.3,0
		c0,0,0.1,0,0.1,0C33.7,46.2,33.7,47.5,33.7,48.7L33.7,48.7z"/>
	<path class="st1" d="M26.2,45c0,1.3,0,2.5,0,3.8c-1.3,0-2.5,0-3.8,0l0,0c0-1.3,0-2.5,0-3.8c0.3,0,0.7,0,1,0
		C24.3,45,25.3,45,26.2,45z"/>
	<path class="st1" d="M33.7,48.7c0-1.3,0-2.5,0-3.8c0.1,0,0.1,0,0.2,0c1.2,0,2.4,0,3.6,0c0,1.3,0,2.5,0,3.8l0,0
		C36.2,48.7,34.9,48.7,33.7,48.7z"/>
	<path class="st3" d="M14.9,33.7c0-0.1,0-0.2,0-0.3c0-1.2,0-2.3,0-3.5c0.2,0,0.5,0,0.7,0c1,0,2.1,0,3.1,0c0.1,0,0.1,0,0.2,0
		c1.2,0,2.4,0,3.6,0c0,1.3,0,2.5,0,3.8c-0.3,0-0.5,0-0.8,0c-1,0-2,0-3,0C17.4,33.7,16.1,33.7,14.9,33.7L14.9,33.7z"/>
	<path class="st3" d="M11.1,18.6c1.3,0,2.5,0,3.8,0l0,0c0,1.3,0,2.5,0,3.8c-1.3,0-2.5,0-3.8,0C11.1,21.1,11.1,19.9,11.1,18.6z"/>
	<path class="st1" d="M11.1,22.4c1.3,0,2.5,0,3.8,0l0,0c0,0.4,0,0.7,0,1.1c0,0.9,0,1.8,0,2.7l0,0c-1.2,0-2.4,0-3.6,0
		c-0.1,0-0.2,0-0.2-0.2C11.1,24.8,11.1,23.6,11.1,22.4z"/>
	<path class="st4" d="M18.6,29.9c-1,0-2.1,0-3.1,0c-0.2,0-0.5,0-0.7,0c0-0.9,0-1.9,0-2.8c0-0.3,0-0.6,0-1c0,0,0,0,0,0
		c0.2,0,0.5,0,0.7,0c1,0,2.1,0,3.1,0C18.6,27.4,18.6,28.7,18.6,29.9z"/>
	<path class="st3" d="M11.1,14.9c0,1.3,0,2.5,0,3.8c-1.2,0-2.4,0-3.6,0c-0.1,0-0.2,0-0.2-0.2c0-1.2,0-2.3,0-3.5c0-0.1,0-0.2,0.2-0.2
		C8.7,14.9,9.9,14.9,11.1,14.9z"/>
	<path class="st1" d="M26.2,22.4c2.5,0,5,0,7.5,0l0,0c0,1.3,0,2.5,0,3.8c-2.5,0-5,0-7.5,0C26.2,24.9,26.2,23.6,26.2,22.4L26.2,22.4z
		"/>
	<path class="st4" d="M37.5,18.6c1.3,0,2.5,0,3.8,0l0,0c0,1.3,0,2.5,0,3.8c-0.1,0-0.1,0-0.2,0c-1.2,0-2.4,0-3.6,0l0,0
		C37.5,21.1,37.5,19.9,37.5,18.6z"/>
	<path class="st4" d="M33.7,26.2c0-1.3,0-2.5,0-3.8c1.3,0,2.5,0,3.8,0l0,0c0,1.3,0,2.5,0,3.8l0,0c-0.1,0-0.1,0-0.2,0
		C36.1,26.2,34.9,26.2,33.7,26.2L33.7,26.2z"/>
	<path class="st4" d="M18.6,18.6c1.3,0,2.5,0,3.8,0c0,1.3,0,2.5,0,3.8l0,0c-0.2,0-0.4,0-0.6,0c-1.1,0-2.1,0-3.2,0
		C18.6,21.1,18.6,19.9,18.6,18.6L18.6,18.6z"/>
	<path class="st4" d="M26.2,22.4c0,1.3,0,2.5,0,3.8l0,0c-0.1,0-0.3,0-0.4,0c-1.1,0-2.2,0-3.4,0l0,0c0-1.3,0-2.5,0-3.8l0,0
		C23.7,22.4,24.9,22.4,26.2,22.4z"/>
	<path class="st1" d="M18.6,18.6c0,1.3,0,2.5,0,3.8c-1.3,0-2.5,0-3.8,0l0,0c0-1.3,0-2.5,0-3.8C16.1,18.6,17.4,18.6,18.6,18.6z"/>
	<path class="st1" d="M41.2,22.4c0-1.3,0-2.5,0-3.8c1.3,0,2.5,0,3.8,0c0,1.3,0,2.5,0,3.8l0,0C43.7,22.4,42.5,22.4,41.2,22.4z"/>
	<path d="M41.2,26.2c0,1.3,0,2.5,0,3.8c-1,0-2,0-3.1,0c-0.2,0-0.5,0-0.7,0l0,0c0-1.3,0-2.5,0-3.8l0,0c0.3,0,0.5,0,0.8,0
		C39.2,26.2,40.2,26.2,41.2,26.2z"/>
	<path class="st4" d="M37.5,29.9c0,1.3,0,2.5,0,3.8l0,0c-1.2,0-2.4,0-3.6,0c-0.1,0-0.2,0-0.2-0.2c0-1.2,0-2.4,0-3.6l0,0
		C34.9,29.9,36.2,29.9,37.5,29.9L37.5,29.9z"/>
	<path class="st4" d="M37.5,33.7c1.3,0,2.5,0,3.8,0c0,1.3,0,2.5,0,3.8c-0.3,0-0.6,0-0.9,0c-1,0-1.9,0-2.9,0
		C37.5,36.2,37.5,34.9,37.5,33.7L37.5,33.7z"/>
	<path d="M41.2,37.4c0-1.3,0-2.5,0-3.8c1,0,2,0,3,0c0.3,0,0.5,0,0.8,0c0,1.3,0,2.5,0,3.8l0,0C43.7,37.4,42.5,37.4,41.2,37.4z"/>
	<path class="st3" d="M41.2,26.2c-1,0-2,0-3,0c-0.3,0-0.5,0-0.8,0c0-1.3,0-2.5,0-3.8c1.2,0,2.4,0,3.6,0c0.1,0,0.1,0,0.2,0
		c1.3,0,2.5,0,3.8,0c0,1.2,0,2.4,0,3.6c0,0.1,0,0.1,0,0.2C43.7,26.2,42.5,26.2,41.2,26.2z"/>
	<path class="st2" d="M41.2,37.4c1.3,0,2.5,0,3.8,0c0,1.3,0,2.5,0,3.8c0,0,0,0,0,0c-0.6,0-1.2,0-1.7,0c-0.7,0-1.3,0-2,0
		c-0.4,0-0.7,0-1.1,0c-0.9,0-1.8,0-2.7,0c-0.1,0-0.1,0-0.2,0c-1.1,0-2.3,0-3.4,0c-0.1,0-0.2,0-0.2-0.2c0-1.2,0-2.4,0-3.6
		c0.2,0,0.3,0,0.5,0c1.1,0,2.2,0,3.3,0c1,0,1.9,0,2.9,0C40.6,37.4,40.9,37.4,41.2,37.4z"/>
	<path class="st4" d="M41.2,41.2c0.7,0,1.3,0,2,0c0.6,0,1.2,0,1.7,0c0,1.3,0,2.5,0,3.8c-0.5,0-1,0-1.5,0c-0.7,0-1.5,0-2.2,0l0,0
		C41.2,43.7,41.2,42.5,41.2,41.2z"/>
	<path d="M14.9,33.7c1.3,0,2.5,0,3.8,0c0,1.3,0,2.5,0,3.8c-1.3,0-2.5,0-3.8,0l0,0C14.9,36.2,14.9,34.9,14.9,33.7z"/>
	<path class="st2" d="M14.9,37.4c1.3,0,2.5,0,3.8,0c0.3,0,0.6,0,0.9,0c1,0,1.9,0,2.9,0c0.3,0,0.6,0,0.9,0c1,0,1.9,0,2.9,0
		c0,1.1,0,2.2,0,3.3c0,0.2,0.1,0.4,0,0.5c-0.1,0.1-0.3,0-0.5,0c-1.1,0-2.2,0-3.3,0c-1.3,0-2.5,0-3.8,0c-1.3,0-2.5,0-3.8,0
		c0,0,0,0,0,0C14.9,39.9,14.9,38.7,14.9,37.4z"/>
	<path class="st4" d="M14.9,41.2c1.3,0,2.5,0,3.8,0c0,1.3,0,2.5,0,3.8l0,0c-1.3,0-2.5,0-3.8,0c0-0.5,0-1,0-1.5
		C14.9,42.7,14.9,42,14.9,41.2z"/>
	<path class="st4" d="M37.5,48.7c0-1.3,0-2.5,0-3.8c0,0,0,0,0,0c1.3,0,2.5,0,3.8,0l0,0c0,1.3,0,2.5,0,3.8
		C40,48.7,38.7,48.7,37.5,48.7z"/>
	<path class="st4" d="M22.4,45c0,1.3,0,2.5,0,3.8c-1.3,0-2.5,0-3.8,0c0-0.9,0-1.8,0-2.8c0-0.3,0-0.7,0-1l0,0
		C19.9,45,21.2,45,22.4,45L22.4,45z"/>
	<path d="M22.4,41.2c1.1,0,2.2,0,3.3,0c0.2,0,0.4,0.1,0.5,0c0.1-0.1,0-0.3,0-0.5c0-1.1,0-2.2,0-3.3c0,0,0.1,0,0.1,0
		c2.4,0,4.9,0,7.3,0c0,0,0.1,0,0.1,0c0,1.2,0,2.4,0,3.6c0,0.1,0,0.2,0.2,0.2c1.1,0,2.3,0,3.4,0c0.1,0,0.1,0,0.2,0c0,1.3,0,2.5,0,3.8
		c0,0,0,0,0,0c-1.2,0-2.4,0-3.6,0c-0.1,0-0.1,0-0.2,0c0,0-0.1,0-0.1,0c-2.4,0-4.9,0-7.3,0c0,0-0.1,0-0.1,0c-0.9,0-1.8,0-2.7,0
		c-0.3,0-0.7,0-1,0c0,0,0,0,0,0C22.4,43.7,22.4,42.5,22.4,41.2z"/>
	<path d="M18.6,29.9c0-1.3,0-2.5,0-3.8c0.1,0,0.1,0,0.2,0c1.2,0,2.4,0,3.6,0l0,0c0,1.3,0,2.5,0,3.8l0,0c-1.2,0-2.4,0-3.6,0
		C18.8,29.9,18.7,29.9,18.6,29.9z"/>
	<path class="st4" d="M22.4,33.7c0-1.3,0-2.5,0-3.8l0,0c1.3,0,2.5,0,3.8,0l0,0c0,1.2,0,2.4,0,3.6c0,0.1,0,0.2-0.2,0.2
		C24.8,33.7,23.6,33.7,22.4,33.7L22.4,33.7z"/>
	<path class="st4" d="M22.4,37.4c-1,0-1.9,0-2.9,0c-0.3,0-0.6,0-0.9,0c0-1.3,0-2.5,0-3.8c1,0,2,0,3,0c0.3,0,0.5,0,0.8,0c0,0,0,0,0,0
		C22.4,34.9,22.4,36.2,22.4,37.4z"/>
	<path class="st3" d="M22.4,26.2c-1.2,0-2.4,0-3.6,0c-0.1,0-0.1,0-0.2,0c-1,0-2.1,0-3.1,0c-0.2,0-0.5,0-0.7,0c0-0.9,0-1.8,0-2.7
		c0-0.4,0-0.7,0-1.1c1.3,0,2.5,0,3.8,0c1.1,0,2.1,0,3.2,0c0.2,0,0.4,0,0.6,0C22.4,23.6,22.4,24.9,22.4,26.2z"/>
	<path class="st4" d="M26.2,26.2c2.5,0,5,0,7.5,0l0,0c0,1.3,0,2.5,0,3.8l0,0c-2.5,0-5,0-7.5,0l0,0C26.2,28.7,26.2,27.4,26.2,26.2
		L26.2,26.2z"/>
	<path class="st1" d="M33.7,29.9c0-1.3,0-2.5,0-3.8c1.2,0,2.4,0,3.6,0c0.1,0,0.1,0,0.2,0c0,1.3,0,2.5,0,3.8
		C36.2,29.9,34.9,29.9,33.7,29.9z"/>
	<path class="st1" d="M26.2,26.2c0,1.3,0,2.5,0,3.8c-1.3,0-2.5,0-3.8,0c0-1.3,0-2.5,0-3.8c1.1,0,2.2,0,3.4,0
		C25.9,26.2,26,26.2,26.2,26.2z"/>
	<path class="st3" d="M26.2,29.9c2.5,0,5,0,7.5,0c0,1.2,0,2.4,0,3.6c0,0.1,0,0.2,0.2,0.2c1.2,0,2.4,0,3.6,0c0,1.3,0,2.5,0,3.8
		c-1.1,0-2.2,0-3.3,0c-0.2,0-0.3,0-0.5,0c0,0-0.1,0-0.1,0c-2.4,0-4.9,0-7.3,0c0,0-0.1,0-0.1,0c-1,0-1.9,0-2.9,0c-0.3,0-0.6,0-0.9,0
		c0-1.3,0-2.5,0-3.8c1.2,0,2.4,0,3.6,0c0.1,0,0.2,0,0.2-0.2C26.2,32.3,26.2,31.1,26.2,29.9z"/>
	<path class="st1" d="M37.5,45c0-1.3,0-2.5,0-3.8c0.9,0,1.8,0,2.7,0c0.4,0,0.7,0,1.1,0c0,1.3,0,2.5,0,3.8C40,45,38.7,45,37.5,45z"/>
	<path class="st1" d="M22.4,41.2c0,1.3,0,2.5,0,3.8c-1.3,0-2.5,0-3.8,0c0-1.3,0-2.5,0-3.8C19.9,41.2,21.2,41.2,22.4,41.2z"/>
</g>
</svg>
