<?xml version="1.0" encoding="utf-8"?>
<!-- Generator: Adobe Illustrator 25.4.0, SVG Export Plug-In . SVG Version: 6.00 Build 0)  -->
<svg version="1.1" id="Layer_1" xmlns="http://www.w3.org/2000/svg" xmlns:xlink="http://www.w3.org/1999/xlink" x="0px" y="0px"
	 viewBox="0 0 60 60" style="enable-background:new 0 0 60 60;" xml:space="preserve">
<style type="text/css">
	.st0{fill:#005FF7;}
	.st1{fill:#FE9E04;}
	.st2{fill:#B7C4FE;}
	.st3{fill:#FED10B;}
	.st4{fill:#31FDDE;}
</style>
<g>
	<path d="M60,47.3c0-0.2,0-0.2-0.2-0.2c-1.3,0-2.6,0-3.9,0c-0.1,0-0.2,0-0.2,0.2c0,1.3,0,2.6,0,4c0,0.1,0,0.2-0.2,0.2
		c-1.4,0-2.7,0-4.1,0c0-1.4,0-2.9,0-4.3c0-0.4,0-0.8,0-1.2c0-1,0-2.1,0-3.1c1.4,0,2.7,0,4.1,0c0.1,0,0.2,0,0.2-0.2
		c0-1.4,0-2.7,0-4.1c1.4,0,2.7,0,4.1,0c0.1,0,0.2,0,0.2-0.2"/>
	<path d="M47.2,60c-11.4,0-22.9,0-34.3,0c0-1.4,0-2.8,0-4.3c1.4,0,2.9,0,4.3,0c1.4,0,2.9,0,4.3,0c1.4,0,2.8,0,4.3,0c0,0,0.1,0,0.1,0
		c2.8,0,5.6,0,8.4,0c0,0,0.1,0,0.1,0c1.4,0,2.9,0,4.3,0c1.4,0,2.8,0,4.3,0c1.4,0,2.9,0,4.3,0C47.2,57.2,47.2,58.6,47.2,60z"/>
	<path d="M8.6,51.5c-1.4,0-2.7,0-4.1,0c-0.1,0-0.2,0-0.2-0.2c0-1.3,0-2.6,0-4c0-0.2,0-0.2-0.2-0.2c-1.4,0-2.7,0-4.1,0
		c0-2.9,0-5.7,0-8.6c1.4,0,2.8,0,4.3,0c0,1.4,0,2.7,0,4.1c0,0.2,0.1,0.2,0.2,0.2c1.4,0,2.7,0,4.1,0c0,0.1,0,0.2,0,0.2
		c0,1.4,0,2.7,0,4.1C8.6,48.6,8.6,50,8.6,51.5L8.6,51.5z"/>
	<path d="M0,34.3c0-1.4,0-2.9,0-4.3c1.4,0,2.8,0,4.3,0c0,1.4,0,2.9,0,4.3C2.8,34.3,1.4,34.3,0,34.3z"/>
	<path class="st0" d="M0,17.1c1.4,0,2.8,0,4.3,0l0,0c0,0.2,0,0.5,0,0.7c0,1.2,0,2.4,0,3.6c-1.4,0-2.8,0-4.3,0C0,19.9,0,18.5,0,17.1z
		"/>
	<path d="M0,21.4c1.4,0,2.8,0,4.3,0c0,1.4,0,2.9,0,4.3l0,0c-1.4,0-2.8,0-4.3,0C0,24.2,0,22.8,0,21.4z"/>
	<path class="st1" d="M55.7,21.4c0,1.2,0,2.4,0,3.5c0,0.2,0,0.5,0,0.7l0,0c-1.4,0-2.8,0-4.3,0c0-1.4,0-2.7,0-4.1
		c0-0.2,0-0.2-0.2-0.2c-1.4,0-2.7,0-4.1,0c0-1.4,0-2.9,0-4.3c0.2,0,0.4,0,0.7,0c1.2,0,2.4,0,3.6,0c0.1,0,0.1,0,0.2,0
		c1.4,0,2.7,0,4.1,0l0,0c0,0.3,0,0.5,0,0.8C55.7,19,55.7,20.2,55.7,21.4z"/>
	<path class="st0" d="M25.7,8.4c0-1.4,0-2.7,0-4.1c0-0.1,0-0.2,0.2-0.2c2.8,0,5.5,0,8.3,0c0.1,0,0.2,0,0.2,0.2c0,1.4,0,2.7,0,4.1
		l0,0C31.4,8.4,28.6,8.4,25.7,8.4L25.7,8.4z"/>
	<path class="st0" d="M51.4,47.1c0,1.4,0,2.9,0,4.3l0,0c-1.4,0-2.9,0-4.3,0l0,0c0-1.4,0-2.9,0-4.3C48.6,47.1,50,47.1,51.4,47.1z"/>
	<path class="st0" d="M4.3,17.1c0-1.4,0-2.8,0-4.1c0-0.1,0-0.2,0.2-0.2c1.4,0,2.7,0,4.1,0l0,0c0,1.4,0,2.9,0,4.3c-0.1,0-0.1,0-0.2,0
		C7,17.1,5.6,17.1,4.3,17.1L4.3,17.1z"/>
	<path class="st0" d="M47.2,8.4c1.4,0,2.7,0,4.1,0c0.2,0,0.2,0,0.2,0.2c0,1.4,0,2.7,0,4.1c0,0,0,0,0,0c-1.4,0-2.9,0-4.3,0l0,0
		C47.2,11.3,47.2,9.9,47.2,8.4L47.2,8.4z"/>
	<path class="st1" d="M51.4,47.1c-1.4,0-2.9,0-4.3,0l0,0c0-1.4,0-2.9,0-4.3c0.7,0,1.3,0,2,0c0.8,0,1.5,0,2.3,0l0,0c0,1,0,2.1,0,3.1
		C51.5,46.3,51.5,46.7,51.4,47.1z"/>
	<path class="st1" d="M34.3,8.4c1.4,0,2.9,0,4.3,0l0,0c0,1.4,0,2.9,0,4.3c-1.4,0-2.9,0-4.3,0C34.3,11.3,34.3,9.9,34.3,8.4L34.3,8.4z
		"/>
	<path class="st1" d="M21.4,8.4c1.4,0,2.8,0,4.3,0c0,0,0,0,0,0c0,1.4,0,2.9,0,4.3c-1.4,0-2.8,0-4.3,0C21.4,11.3,21.4,9.9,21.4,8.4
		L21.4,8.4z"/>
	<path class="st0" d="M55.7,29.9c0,1.4,0,2.9,0,4.3l0,0c-1.4,0-2.8,0-4.3,0c0-0.1,0-0.1,0-0.2c0-1.4,0-2.7,0-4.1
		C52.9,29.9,54.3,29.9,55.7,29.9L55.7,29.9z"/>
	<path class="st1" d="M17.1,4.2c1.4,0,2.8,0,4.2,0c0.1,0,0.1,0.1,0.1,0.2c0,1.1,0,2.2,0,3.4c0,0.2,0,0.5,0,0.7l0,0
		c-1.4,0-2.9,0-4.3,0C17.1,7,17.1,5.6,17.1,4.2z"/>
	<path class="st0" d="M8.6,12.7c0-1.4,0-2.7,0-4.1c0-0.2,0-0.2,0.2-0.2c1.4,0,2.7,0,4.1,0l0,0c0,1.4,0,2.9,0,4.3
		C11.4,12.7,10,12.7,8.6,12.7L8.6,12.7z"/>
	<path class="st0" d="M17.1,4.2c0,1.4,0,2.8,0,4.3c0,0,0,0,0,0c-1.4,0-2.9,0-4.3,0l0,0c0-1.4,0-2.7,0-4.1c0-0.2,0-0.2,0.2-0.2
		C14.4,4.2,15.8,4.2,17.1,4.2z"/>
	<path class="st0" d="M55.7,21.4c0-1.2,0-2.4,0-3.5c0-0.3,0-0.5,0-0.8c1.4,0,2.7,0,4.1,0c0.2,0,0.2,0,0.2,0.2c0,1.3,0,2.6,0,3.9
		c0,0.1,0,0.2-0.2,0.2C58.4,21.4,57.1,21.4,55.7,21.4z"/>
	<path class="st0" d="M42.9,4.2c1.4,0,2.8,0,4.2,0c0.1,0,0.1,0.1,0.1,0.2c0,0.8,0,1.7,0,2.5c0,0.5,0,1.1,0,1.6l0,0
		c-1.4,0-2.9,0-4.3,0C42.9,7,42.9,5.6,42.9,4.2z"/>
	<path class="st0" d="M55.7,17.1c-1.4,0-2.7,0-4.1,0c-0.1,0-0.1,0-0.2,0c0-1.4,0-2.9,0-4.3c0,0,0,0,0,0c1.4,0,2.7,0,4.1,0
		c0.2,0,0.2,0,0.2,0.2C55.7,14.3,55.7,15.7,55.7,17.1z"/>
	<path class="st0" d="M55.7,38.6c0,1.4,0,2.7,0,4.1c0,0.1-0.1,0.2-0.2,0.2c-1.4,0-2.7,0-4.1,0c0,0,0,0,0,0c0-0.3,0-0.7,0-1
		c0-1.1,0-2.2,0-3.2c0,0,0,0,0,0C52.9,38.6,54.3,38.6,55.7,38.6C55.7,38.6,55.7,38.6,55.7,38.6z"/>
	<path class="st1" d="M42.9,4.2c0,1.4,0,2.8,0,4.3l0,0c-1.4,0-2.8,0-4.3,0l0,0c0-1.4,0-2.7,0-4.1c0-0.1,0-0.2,0.1-0.2
		C40.1,4.2,41.5,4.2,42.9,4.2z"/>
	<path class="st1" d="M34.3,55.7c0,0-0.1,0-0.1,0c-2.8,0-5.6,0-8.4,0c0,0-0.1,0-0.1,0c0-1.4,0-2.8,0-4.3c2.9,0,5.7,0,8.6,0
		C34.3,52.9,34.3,54.3,34.3,55.7z"/>
	<path class="st0" d="M47.2,55.7c-1.4,0-2.9,0-4.3,0c0-1.4,0-2.8,0-4.3c1.4,0,2.9,0,4.3,0l0,0C47.2,52.9,47.2,54.3,47.2,55.7
		L47.2,55.7z"/>
	<path class="st0" d="M34.3,55.7c0-1.4,0-2.8,0-4.3l0,0c1.4,0,2.9,0,4.3,0l0,0c0,1.4,0,2.8,0,4.3C37.2,55.7,35.7,55.7,34.3,55.7z"/>
	<path class="st1" d="M21.4,55.7c-1.4,0-2.9,0-4.3,0c0-1.4,0-2.8,0-4.3c1.4,0,2.9,0,4.3,0C21.4,52.9,21.4,54.3,21.4,55.7z"/>
	<path class="st0" d="M17.1,51.5c0,1.4,0,2.8,0,4.3c-1.4,0-2.9,0-4.3,0l0,0c0-1.4,0-2.8,0-4.3l0,0C14.3,51.5,15.7,51.5,17.1,51.5
		L17.1,51.5z"/>
	<path class="st0" d="M21.4,55.7c0-1.4,0-2.8,0-4.3l0,0c1.4,0,2.8,0,4.3,0l0,0c0,1.4,0,2.8,0,4.3C24.3,55.7,22.8,55.7,21.4,55.7z"/>
	<path class="st1" d="M38.6,55.7c0-1.4,0-2.8,0-4.3c1.4,0,2.8,0,4.3,0c0,0,0,0,0,0c0,1.4,0,2.8,0,4.3C41.4,55.7,40,55.7,38.6,55.7z"
		/>
	<path d="M12.8,51.5c0,1.4,0,2.8,0,4.3c-1.4,0-2.7,0-4.1,0c-0.1,0-0.2,0-0.2-0.2c0-1.4,0-2.7,0-4.1l0,0C10,51.5,11.4,51.5,12.8,51.5
		z"/>
	<path d="M47.2,55.7c0-1.4,0-2.8,0-4.3c1.4,0,2.9,0,4.3,0c0,1.4,0,2.7,0,4.1c0,0.1,0,0.2-0.2,0.2C49.9,55.7,48.5,55.7,47.2,55.7z"/>
	<path class="st0" d="M8.6,42.8c-1.4,0-2.7,0-4.1,0c-0.1,0-0.2,0-0.2-0.2c0-1.4,0-2.7,0-4.1c0,0,0,0,0,0c0.2,0,0.3,0,0.5,0
		c1.3,0,2.6,0,3.8,0C8.6,40,8.6,41.4,8.6,42.8L8.6,42.8z"/>
	<path class="st1" d="M8.6,47.1c0-1.4,0-2.7,0-4.1c0-0.1,0-0.2,0-0.2c0,0,0,0,0,0c0.6,0,1.3,0,1.9,0c0.8,0,1.6,0,2.3,0
		c0,1.4,0,2.9,0,4.3C11.4,47.1,10,47.1,8.6,47.1z"/>
	<path class="st0" d="M8.6,47.1c1.4,0,2.8,0,4.3,0c0,0,0,0,0,0c0,1.4,0,2.9,0,4.3l0,0c-1.4,0-2.8,0-4.3,0C8.6,50,8.6,48.6,8.6,47.1z
		"/>
	<path class="st0" d="M4.3,34.3c0-1.4,0-2.9,0-4.3c0,0,0,0,0,0c1.4,0,2.9,0,4.3,0c0,0.2,0,0.4,0,0.7c0,1.2,0,2.4,0,3.6
		C7.1,34.3,5.7,34.3,4.3,34.3L4.3,34.3z"/>
	<path d="M8.6,30c-1.4,0-2.9,0-4.3,0c0-1.4,0-2.9,0-4.3l0,0c0.3,0,0.5,0,0.8,0c1.2,0,2.4,0,3.5,0c1.4,0,2.8,0,4.3,0
		c0,1.4,0,2.9,0,4.3c-0.2,0-0.5,0-0.7,0C10.9,29.9,9.7,29.9,8.6,30z"/>
	<path d="M4.3,34.3c1.4,0,2.9,0,4.3,0c0,0.1,0,0.1,0,0.2c0,1.4,0,2.7,0,4.1l0,0c-1.3,0-2.6,0-3.8,0c-0.2,0-0.3,0-0.5,0
		C4.3,37.1,4.3,35.7,4.3,34.3z"/>
	<path class="st1" d="M8.6,25.6c-1.2,0-2.4,0-3.5,0c-0.3,0-0.5,0-0.8,0c0-1.4,0-2.9,0-4.3c0-1.2,0-2.4,0-3.6c0-0.2,0-0.5,0-0.7
		c1.4,0,2.7,0,4.1,0c0.1,0,0.1,0,0.2,0c0.1,0,0.1,0,0.2,0c1.4,0,2.7,0,4.1,0c0,1.4,0,2.9,0,4.3c-1.4,0-2.7,0-4.1,0
		c-0.1,0-0.2,0-0.2,0.2C8.6,22.9,8.6,24.3,8.6,25.6z"/>
	<path class="st0" d="M47.2,17.1c0,1.4,0,2.9,0,4.3l0,0c-1.4,0-2.9,0-4.3,0c-1.4,0-2.8,0-4.3,0c0-1.4,0-2.9,0-4.3l0,0
		c1.4,0,2.7,0,4.1,0c0.2,0,0.2,0,0.2-0.2c0-1.4,0-2.7,0-4.1l0,0c1.4,0,2.9,0,4.3,0l0,0c0,0.2,0,0.5,0,0.7
		C47.2,14.7,47.2,15.9,47.2,17.1z"/>
	<path d="M55.7,29.9c-1.4,0-2.8,0-4.3,0c-0.1,0-0.2,0-0.3,0c-1.3,0-2.7,0-4,0c0-1.4,0-2.9,0-4.3l0,0c0.3,0,0.5,0,0.8,0
		c1.2,0,2.4,0,3.5,0c1.4,0,2.8,0,4.3,0C55.7,27.1,55.7,28.5,55.7,29.9z"/>
	<path class="st2" d="M47.2,17.1c0-1.2,0-2.4,0-3.6c0-0.2,0-0.5,0-0.7c1.4,0,2.9,0,4.3,0c0,1.4,0,2.9,0,4.3c-1.2,0-2.4,0-3.6,0
		C47.6,17.1,47.4,17.1,47.2,17.1z"/>
	<path class="st0" d="M51.5,25.6c-1.2,0-2.4,0-3.5,0c-0.3,0-0.5,0-0.8,0c0-1.4,0-2.8,0-4.3l0,0c1.4,0,2.7,0,4.1,0
		c0.1,0,0.2,0,0.2,0.2C51.5,22.9,51.5,24.3,51.5,25.6z"/>
	<path d="M25.7,12.7c0-1.4,0-2.9,0-4.3c2.9,0,5.7,0,8.6,0c0,1.4,0,2.9,0,4.3l0,0C31.4,12.7,28.6,12.7,25.7,12.7L25.7,12.7z"/>
	<path class="st1" d="M47.2,51.5c-1.4,0-2.9,0-4.3,0l0,0c0-1.4,0-2.8,0-4.1c0-0.1,0-0.2,0.2-0.2c1.4,0,2.8,0,4.1,0l0,0
		C47.2,48.6,47.2,50,47.2,51.5z"/>
	<path class="st2" d="M12.8,17.1c-1.4,0-2.7,0-4.1,0c-0.1,0-0.1,0-0.2,0c0-1.4,0-2.9,0-4.3c1.4,0,2.8,0,4.3,0l0,0
		C12.8,14.2,12.8,15.6,12.8,17.1z"/>
	<path class="st2" d="M47.2,12.7c-1.4,0-2.9,0-4.3,0c0-1.4,0-2.9,0-4.3l0,0c1.4,0,2.9,0,4.3,0C47.2,9.9,47.2,11.3,47.2,12.7z"/>
	<path d="M47.2,47.1c-1.4,0-2.8,0-4.1,0c-0.1,0-0.2,0-0.2,0.2c0,1.4,0,2.8,0,4.1c-1.4,0-2.8,0-4.3,0c0,0,0,0,0,0c0-1.4,0-2.8,0-4.1
		c0-0.1,0-0.2-0.2-0.2c-1.3,0-2.6,0-3.9,0c-0.2,0-0.2,0-0.2,0.2c0,1.4,0,2.8,0,4.1l0,0c-2.9,0-5.7,0-8.6,0c0,0,0,0,0,0
		c0-1.4,0-2.8,0-4.1c0-0.1,0-0.2-0.2-0.2c-1.3,0-2.6,0-3.9,0c-0.2,0-0.2,0-0.2,0.2c0,1.4,0,2.8,0,4.1l0,0c-1.4,0-2.9,0-4.3,0
		c0,0,0,0,0,0c0-1.4,0-2.7,0-4.1c0-0.2,0-0.2-0.2-0.2c-1.4,0-2.7,0-4.1,0c0,0,0,0,0,0c0-1.4,0-2.9,0-4.3l0,0c1.2,0,2.3,0,3.5,0
		c0.2,0,0.4,0,0.7,0c0.1,0,0.1,0,0.1-0.1c0,0,0-0.1,0-0.1c0-1.4,0-2.7,0-4.1c0.6,0,1.3,0,1.9,0c0.8,0,1.6,0,2.4,0c0,0.1,0,0.1,0,0.2
		c0,1.3,0,2.6,0,3.9c0,0.1,0,0.2,0.2,0.2c1.3,0,2.6,0,4,0c0.1,0,0.2,0,0.2-0.2c0-1.4,0-2.7,0-4.1c2.9,0,5.7,0,8.6,0
		c0,1.4,0,2.7,0,4.1c0,0.2,0,0.2,0.2,0.2c1.3,0,2.5,0,3.8,0c0.3,0,0.3,0,0.3-0.3c0-1.3,0-2.6,0-4c0.9,0,1.8,0,2.7,0c0.5,0,1,0,1.5,0
		c0,0.1,0,0.1,0,0.2c0,1.3,0,2.6,0,3.9c0,0.2,0,0.2,0.2,0.2c1.4,0,2.7,0,4.1,0l0,0C47.2,44.3,47.2,45.7,47.2,47.1z"/>
	<path class="st3" d="M51.4,38.6c0,1.1,0,2.2,0,3.2c0,0.3,0,0.7,0,1c-0.8,0-1.5,0-2.3,0c-0.7,0-1.3,0-2,0c0,0,0,0,0,0
		c0-0.1,0-0.2,0-0.2c0-1.3,0-2.7,0-4c1,0,2,0,3,0C50.6,38.6,51,38.6,51.4,38.6z"/>
	<path class="st0" d="M34.3,12.7c1.4,0,2.9,0,4.3,0l0,0c0,1.4,0,2.9,0,4.3l0,0c-1.4,0-2.9,0-4.3,0C34.3,15.6,34.3,14.2,34.3,12.7
		L34.3,12.7z"/>
	<path class="st0" d="M42.9,8.4c0,1.4,0,2.9,0,4.3l0,0c-1.4,0-2.8,0-4.3,0l0,0c0-1.4,0-2.9,0-4.3C40,8.4,41.4,8.4,42.9,8.4z"/>
	<path class="st0" d="M17.1,8.4c1.4,0,2.9,0,4.3,0c0,1.4,0,2.9,0,4.3l0,0c-1.4,0-2.9,0-4.3,0l0,0C17.1,11.3,17.1,9.9,17.1,8.4
		L17.1,8.4z"/>
	<path class="st0" d="M21.4,12.7c1.4,0,2.8,0,4.3,0c0,0,0,0,0,0c0,1.4,0,2.9,0,4.3c-1.4,0-2.8,0-4.3,0l0,0
		C21.4,15.6,21.4,14.2,21.4,12.7L21.4,12.7z"/>
	<path class="st2" d="M51.4,38.6c-0.4,0-0.9,0-1.3,0c-1,0-2,0-3,0l0,0c0-1.4,0-2.8,0-4.2c0-0.1-0.1-0.1-0.2-0.1c-1.4,0-2.8,0-4.1,0
		l0,0c0-1.4,0-2.9,0-4.3c0.2,0,0.5,0,0.7,0c1.2,0,2.4,0,3.6,0c1.3,0,2.7,0,4,0c0.1,0,0.2,0,0.3,0c0,1.4,0,2.7,0,4.1
		c0,0.1,0,0.1,0,0.2C51.5,35.7,51.5,37.1,51.4,38.6C51.5,38.6,51.5,38.6,51.4,38.6z"/>
	<path d="M51.5,38.6c0-1.4,0-2.9,0-4.3c1.4,0,2.8,0,4.3,0c0,1.4,0,2.9,0,4.3C54.3,38.6,52.9,38.6,51.5,38.6z"/>
	<path class="st2" d="M17.1,8.4c0,1.4,0,2.9,0,4.3c-1.4,0-2.9,0-4.3,0l0,0c0-1.4,0-2.9,0-4.3C14.3,8.4,15.7,8.4,17.1,8.4z"/>
	<path class="st3" d="M34.3,51.5c0-1.4,0-2.8,0-4.1c0-0.1,0-0.2,0.2-0.2c1.3,0,2.6,0,3.9,0c0.2,0,0.2,0,0.2,0.2c0,1.4,0,2.8,0,4.1
		C37.2,51.5,35.7,51.5,34.3,51.5z"/>
	<path class="st1" d="M12.8,47.1c1.4,0,2.7,0,4.1,0c0.2,0,0.2,0,0.2,0.2c0,1.4,0,2.7,0,4.1c-1.4,0-2.9,0-4.3,0
		C12.8,50,12.8,48.6,12.8,47.1z"/>
	<path class="st3" d="M21.4,51.5c0-1.4,0-2.8,0-4.1c0-0.1,0-0.2,0.2-0.2c1.3,0,2.6,0,3.9,0c0.2,0,0.2,0,0.2,0.2c0,1.4,0,2.8,0,4.1
		C24.3,51.5,22.8,51.5,21.4,51.5z"/>
	<path class="st3" d="M12.8,42.8c-0.8,0-1.6,0-2.3,0c-0.6,0-1.3,0-1.9,0c0-1.4,0-2.8,0-4.3c0,0,0,0,0,0c1.4,0,2.8,0,4.3,0
		c0,0.2,0,0.4,0,0.7C12.8,40.4,12.8,41.6,12.8,42.8L12.8,42.8z"/>
	<path class="st2" d="M12.8,38.6c-1.4,0-2.8,0-4.3,0c0-1.4,0-2.7,0-4.1c0-0.1,0-0.1,0-0.2c0-1.2,0-2.4,0-3.6c0-0.2,0-0.4,0-0.7
		c1.2,0,2.4,0,3.5,0c0.2,0,0.5,0,0.7,0c0.1,0,0.2,0,0.2,0c1.4,0,2.7,0,4.1,0c0,1.4,0,2.9,0,4.3l0,0c-1.4,0-2.8,0-4.1,0
		c-0.1,0-0.2,0-0.2,0.1C12.8,35.8,12.8,37.2,12.8,38.6L12.8,38.6z"/>
	<path class="st0" d="M17.1,29.9c-1.4,0-2.7,0-4.1,0c-0.1,0-0.2,0-0.2,0c0-1.4,0-2.9,0-4.3l0,0c1.4,0,2.9,0,4.3,0
		C17.1,27.1,17.1,28.5,17.1,29.9L17.1,29.9z"/>
	<path class="st0" d="M8.6,25.6c0-1.4,0-2.7,0-4.1c0-0.2,0-0.2,0.2-0.2c1.4,0,2.7,0,4.1,0l0,0c0,1.4,0,2.8,0,4.3l0,0
		C11.4,25.6,10,25.6,8.6,25.6z"/>
	<path class="st0" d="M12.8,12.7c1.4,0,2.9,0,4.3,0l0,0c0,1.4,0,2.7,0,4.1c0,0.2,0,0.2,0.2,0.2c1.4,0,2.7,0,4.1,0l0,0
		c0,1.4,0,2.9,0,4.3c-1.4,0-2.9,0-4.3,0c-1.4,0-2.9,0-4.3,0l0,0c0-1.4,0-2.9,0-4.3C12.8,15.6,12.8,14.2,12.8,12.7z"/>
	<path class="st2" d="M21.4,21.4c0-1.4,0-2.9,0-4.3c1.4,0,2.8,0,4.3,0c0,0,0.1,0,0.1,0c2.8,0,5.6,0,8.4,0c0,0,0.1,0,0.1,0
		c1.4,0,2.9,0,4.3,0c0,1.4,0,2.9,0,4.3l0,0c0,0,0,0-0.1,0c-1.4,0-2.7,0-4.1,0c-0.1,0-0.2,0-0.2,0.1c0,1.4,0,2.8,0,4.1
		c0,1.4,0,2.9,0,4.3c-2.9,0-5.7,0-8.6,0c0-1.4,0-2.9,0-4.3c0-1.4,0-2.7,0-4.1c0-0.2,0-0.2-0.2-0.2C24.1,21.4,22.8,21.4,21.4,21.4
		L21.4,21.4z"/>
	<path d="M47.2,21.4c0,1.4,0,2.8,0,4.3l0,0c-1.4,0-2.9,0-4.3,0c0-1.4,0-2.8,0-4.3C44.3,21.4,45.7,21.4,47.2,21.4z"/>
	<path class="st2" d="M38.6,12.7c1.4,0,2.8,0,4.3,0c0,1.4,0,2.7,0,4.1c0,0.2,0,0.2-0.2,0.2c-1.4,0-2.7,0-4.1,0
		C38.6,15.6,38.6,14.2,38.6,12.7z"/>
	<path class="st4" d="M42.9,21.4c0,1.4,0,2.8,0,4.3l0,0c-0.2,0-0.3,0-0.5,0c-1.3,0-2.5,0-3.8,0l0,0c0-1.4,0-2.8,0-4.3l0,0
		C40,21.4,41.4,21.4,42.9,21.4z"/>
	<path class="st0" d="M42.9,25.6c1.4,0,2.9,0,4.3,0c0,1.4,0,2.9,0,4.3c-1.2,0-2.4,0-3.6,0c-0.2,0-0.5,0-0.7,0l0,0
		C42.9,28.5,42.9,27.1,42.9,25.6L42.9,25.6z"/>
	<path class="st1" d="M34.3,17c0,0-0.1,0-0.1,0c-2.8,0-5.6,0-8.4,0c0,0-0.1,0-0.1,0c0-1.4,0-2.9,0-4.3c2.9,0,5.7,0,8.6,0
		C34.3,14.2,34.3,15.6,34.3,17z"/>
	<path class="st2" d="M34.3,38.6c-2.9,0-5.7,0-8.6,0l0,0c0-1.4,0-2.9,0-4.3c2.9,0,5.7,0,8.6,0C34.3,35.7,34.3,37.1,34.3,38.6
		L34.3,38.6z"/>
	<path class="st3" d="M21.4,38.6c-0.8,0-1.6,0-2.4,0c-0.6,0-1.3,0-1.9,0l0,0c0-1.4,0-2.9,0-4.3l0,0c1.4,0,2.9,0,4.3,0
		C21.4,35.7,21.4,37.1,21.4,38.6L21.4,38.6z"/>
	<path class="st3" d="M42.8,38.6c-0.5,0-1,0-1.5,0c-0.9,0-1.8,0-2.7,0l0,0c0-1.4,0-2.9,0-4.3c1.4,0,2.8,0,4.3,0l0,0
		C42.9,35.7,42.9,37.1,42.8,38.6L42.8,38.6z"/>
	<path class="st2" d="M12.8,42.8c0-1.2,0-2.4,0-3.6c0-0.2,0-0.4,0-0.7l0,0c0.1,0,0.2,0,0.2,0c1.4,0,2.7,0,4.1,0l0,0
		c0,1.4,0,2.7,0,4.1c0,0,0,0.1,0,0.1c0,0.1,0,0.1-0.1,0.1c-0.2,0-0.4,0-0.7,0C15.2,42.8,14,42.8,12.8,42.8z"/>
	<path class="st2" d="M38.6,38.6c0,1.3,0,2.6,0,4c0,0.3,0,0.3-0.3,0.3c-1.3,0-2.5,0-3.8,0c-0.2,0-0.2-0.1-0.2-0.2c0-1.4,0-2.7,0-4.1
		l0,0C35.7,38.6,37.2,38.6,38.6,38.6C38.6,38.6,38.6,38.6,38.6,38.6z"/>
	<path class="st2" d="M47.2,38.6c0,1.3,0,2.7,0,4c0,0.1,0,0.2,0,0.2c-1.4,0-2.7,0-4.1,0c-0.1,0-0.2,0-0.2-0.2c0-1.3,0-2.6,0-3.9
		c0-0.1,0-0.1,0-0.2c0,0,0,0,0,0c0.1,0,0.3,0,0.4,0C44.6,38.6,45.9,38.6,47.2,38.6L47.2,38.6z"/>
	<path class="st2" d="M25.7,38.6c0,1.4,0,2.7,0,4.1c0,0.1,0,0.2-0.2,0.2c-1.3,0-2.6,0-4,0c-0.1,0-0.2,0-0.2-0.2c0-1.3,0-2.6,0-3.9
		c0-0.1,0-0.1,0-0.2c0,0,0,0,0,0C22.9,38.6,24.3,38.6,25.7,38.6L25.7,38.6z"/>
	<path class="st2" d="M21.4,17.1c-1.4,0-2.7,0-4.1,0c-0.2,0-0.2,0-0.2-0.2c0-1.4,0-2.7,0-4.1c1.4,0,2.9,0,4.3,0
		C21.4,14.2,21.4,15.6,21.4,17.1z"/>
	<path class="st0" d="M47.2,38.6c-1.3,0-2.6,0-3.9,0c-0.1,0-0.3,0-0.4,0c0-1.4,0-2.9,0-4.3c1.4,0,2.8,0,4.1,0c0.1,0,0.2,0,0.2,0.1
		C47.2,35.8,47.2,37.2,47.2,38.6z"/>
	<path class="st0" d="M42.9,34.3c-1.4,0-2.8,0-4.3,0l0,0c0-0.9,0-1.7,0-2.6c0-0.6,0-1.1,0-1.7l0,0c1.4,0,2.8,0,4.3,0l0,0
		C42.9,31.4,42.9,32.8,42.9,34.3z"/>
	<path class="st0" d="M17.1,38.6c-1.4,0-2.7,0-4.1,0c-0.1,0-0.2,0-0.2,0c0-1.4,0-2.8,0-4.2c0-0.1,0.1-0.1,0.2-0.1c1.4,0,2.8,0,4.1,0
		C17.1,35.7,17.1,37.1,17.1,38.6z"/>
	<path class="st0" d="M21.4,34.3c-1.4,0-2.9,0-4.3,0c0-1.4,0-2.9,0-4.3l0,0c1.4,0,2.9,0,4.3,0l0,0c0,0.1,0,0.1,0,0.2
		C21.4,31.5,21.4,32.9,21.4,34.3L21.4,34.3z"/>
	<path d="M21.4,29.9c-1.4,0-2.9,0-4.3,0c0-1.4,0-2.9,0-4.3l0,0c1.4,0,2.9,0,4.3,0c0,0.1,0,0.1,0,0.2C21.4,27.2,21.4,28.6,21.4,29.9z
		"/>
	<path d="M12.8,21.4c1.4,0,2.9,0,4.3,0c0,1.4,0,2.8,0,4.3l0,0c-1.4,0-2.9,0-4.3,0C12.8,24.2,12.8,22.8,12.8,21.4z"/>
	<path class="st4" d="M17.1,25.6c0-1.4,0-2.8,0-4.3c1.4,0,2.9,0,4.3,0c0,0,0,0,0,0c0,1.4,0,2.8,0,4.3l0,0
		C20,25.6,18.6,25.6,17.1,25.6z"/>
	<path class="st3" d="M34.3,34.3c-2.9,0-5.7,0-8.6,0c0,0,0,0,0,0c0-1.4,0-2.9,0-4.3l0,0c2.9,0,5.7,0,8.6,0l0,0
		C34.3,31.4,34.3,32.8,34.3,34.3L34.3,34.3z"/>
	<path class="st3" d="M34.3,29.9c0-1.4,0-2.9,0-4.3c1.4,0,2.9,0,4.3,0l0,0c0,0.1,0,0.2,0,0.2c0,1.3,0,2.7,0,4l0,0
		c-0.1,0-0.1,0-0.2,0C37,29.9,35.7,29.9,34.3,29.9L34.3,29.9z"/>
	<path class="st3" d="M21.4,29.9c0-1.4,0-2.7,0-4.1c0-0.1,0-0.1,0-0.2l0,0c1.4,0,2.8,0,4.3,0c0,1.4,0,2.9,0,4.3l0,0
		c-0.2,0-0.5,0-0.7,0C23.8,29.9,22.6,29.9,21.4,29.9L21.4,29.9z"/>
	<path class="st0" d="M38.6,25.6c-1.4,0-2.9,0-4.3,0c0-1.4,0-2.8,0-4.1c0-0.1,0.1-0.1,0.2-0.1c1.4,0,2.7,0,4.1,0c0,0,0,0,0.1,0
		C38.6,22.8,38.6,24.2,38.6,25.6z"/>
	<path class="st0" d="M25.7,25.6c-1.4,0-2.8,0-4.3,0c0-1.4,0-2.8,0-4.3c1.4,0,2.7,0,4.1,0c0.2,0,0.2,0,0.2,0.2
		C25.7,22.9,25.7,24.3,25.7,25.6z"/>
	<path d="M38.6,29.9c0-1.3,0-2.7,0-4c0-0.1,0-0.2,0-0.2c1.3,0,2.5,0,3.8,0c0.2,0,0.3,0,0.5,0c0,1.4,0,2.9,0,4.3
		C41.4,29.9,40,29.9,38.6,29.9z"/>
	<path class="st0" d="M38.6,38.6c-1.4,0-2.9,0-4.3,0c0-1.4,0-2.9,0-4.3l0,0c1.4,0,2.9,0,4.3,0l0,0C38.6,35.7,38.6,37.1,38.6,38.6z"
		/>
	<path class="st0" d="M25.7,38.6c-1.4,0-2.8,0-4.3,0c0-1.4,0-2.9,0-4.3l0,0c1.4,0,2.8,0,4.3,0c0,0,0,0,0,0
		C25.7,35.7,25.7,37.1,25.7,38.6z"/>
	<path class="st2" d="M38.6,34.3c-1.4,0-2.9,0-4.3,0c0-1.4,0-2.9,0-4.3c1.4,0,2.7,0,4.1,0c0.1,0,0.1,0,0.2,0c0,0.6,0,1.1,0,1.7
		C38.6,32.5,38.6,33.4,38.6,34.3z"/>
	<path class="st2" d="M25.7,34.3c-1.4,0-2.8,0-4.3,0c0-1.4,0-2.7,0-4.1c0-0.1,0-0.1,0-0.2c1.2,0,2.4,0,3.5,0c0.2,0,0.5,0,0.7,0
		C25.7,31.4,25.7,32.8,25.7,34.3z"/>
	<g>
		<path d="M55.9,8.4c-0.1,0-0.2,0-0.2-0.2c0-1.3,0-2.6,0-3.9c0-0.1,0-0.2-0.2-0.2c-1.3,0-2.6,0-3.9,0c-0.2,0-0.2,0-0.2-0.2
			c0-1.3,0-2.6,0-4c-0.1,0-0.1,0-0.2,0C37.1,0,22.9,0,8.7,0C8.7,0,8.6,0,8.6,0c0,1.3,0,2.6,0,4c0,0.2-0.1,0.2-0.2,0.2
			c-1.3,0-2.6,0-3.9,0c-0.2,0-0.2,0-0.2,0.2c0,1.3,0,2.6,0,3.9c0,0.2,0,0.2-0.2,0.2c-1.4,0-2.7,0-4.1,0c0,2.9,0,5.7,0,8.6
			c1.4,0,2.8,0,4.3,0c0-1.4,0-2.8,0-4.1c0-0.1,0-0.2,0.2-0.2c1.4,0,2.7,0,4.1,0c0-1.4,0-2.7,0-4.1c0-0.2,0-0.2,0.2-0.2
			c1.4,0,2.7,0,4.1,0c0-1.4,0-2.7,0-4.1c0-0.2,0-0.2,0.2-0.2c1.4,0,2.7,0,4.1,0c1.4,0,2.8,0,4.2,0c0.1,0,0.1,0.1,0.1,0.2
			c0,1.1,0,2.2,0,3.4c0,0.2,0,0.5,0,0.7c1.4,0,2.8,0,4.3,0c0-1.4,0-2.7,0-4.1c0-0.1,0-0.2,0.2-0.2c2.8,0,5.5,0,8.3,0
			c0.1,0,0.2,0,0.2,0.2c0,1.4,0,2.7,0,4.1c1.4,0,2.9,0,4.3,0c0-1.4,0-2.7,0-4.1c0-0.1,0-0.2,0.1-0.2c1.4,0,2.8,0,4.2,0
			c1.4,0,2.8,0,4.2,0c0.1,0,0.1,0.1,0.1,0.2c0,0.8,0,1.7,0,2.5c0,0.5,0,1.1,0,1.6c1.4,0,2.7,0,4.1,0c0.2,0,0.2,0,0.2,0.2
			c0,1.4,0,2.7,0,4.1c1.4,0,2.7,0,4.1,0c0.2,0,0.2,0,0.2,0.2c0,1.4,0,2.7,0,4.1c1.4,0,2.7,0,4.1,0c0,0,0.2,0,0.2,0V8.4
			C58.7,8.4,57.2,8.4,55.9,8.4z"/>
		<polygon points="55.7,17.1 55.7,17.1 55.7,17.1 		"/>
		<path d="M55.7,21.4c0,1.2,0,2.4,0,3.5c0,0.2,0,0.5,0,0.7c1.4,0,2.7,0,4.1,0c0,0,0,0,0.1,0v0H60v-4.3c0,0-0.2,0-0.2,0
			C58.4,21.4,57.1,21.4,55.7,21.4z"/>
		<path d="M59.8,30L59.8,30C59.8,29.9,59.8,29.9,59.8,30c-1.4,0-2.8,0-4.1,0c0,1.4,0,2.9,0,4.3c1.4,0,2.7,0,4.1,0
			c0.1,0,0.2,0,0.2,0.2L59.8,30L59.8,30z"/>
	</g>
</g>
</svg>
