<svg xmlns="http://www.w3.org/2000/svg" viewBox="0 -0.5 32 32" shape-rendering="crispEdges">
<metadata>Made with Pixels to Svg https://codepen.io/shshaw/pen/XbxvNj</metadata>
<path stroke="#0a001a" d="M0 0h32M0 1h32M0 2h32M0 3h3M29 3h3M0 4h3M29 4h3M0 5h5M27 5h5M0 6h5M27 6h5M0 7h5M27 7h5M0 8h3M5 8h3M24 8h3M29 8h3M0 9h3M5 9h3M24 9h3M29 9h3M0 10h3M5 10h3M24 10h3M29 10h3M0 11h3M8 11h3M21 11h3M29 11h3M0 12h3M8 12h3M21 12h3M29 12h3M0 13h3M5 13h3M24 13h3M29 13h3M0 14h3M5 14h3M24 14h3M29 14h3M0 15h3M5 15h3M24 15h3M29 15h3M0 16h5M27 16h5M0 17h5M27 17h5M0 18h5M27 18h5M0 19h3M29 19h3M0 20h3M29 20h3M0 21h3M29 21h3M0 22h3M29 22h3M0 23h3M29 23h3M0 24h3M11 24h2M19 24h2M29 24h3M0 25h3M11 25h2M19 25h2M29 25h3M0 26h3M11 26h2M19 26h2M29 26h3M0 27h3M5 27h3M11 27h10M24 27h3M29 27h3M0 28h3M5 28h3M11 28h10M24 28h3M29 28h3M0 29h13M19 29h13M0 30h13M19 30h13M0 31h13M19 31h13" />
<path stroke="#5800e6" d="M3 3h26M3 4h26M3 8h2M27 8h2M3 9h2M27 9h2M3 10h2M27 10h2M5 11h3M24 11h3M5 12h3M24 12h3M8 13h3M21 13h3M8 14h3M21 14h3M8 15h3M21 15h3M5 16h3M24 16h3M5 17h3M24 17h3M5 18h3M24 18h3M3 19h2M27 19h2M3 20h2M27 20h2" />
<path stroke="#b080ff" d="M5 5h22M5 6h22M5 7h22M8 8h16M8 9h16M8 10h16M3 11h2M11 11h10M27 11h2M3 12h2M11 12h10M27 12h2M3 13h2M11 13h10M27 13h2M3 14h2M11 14h10M27 14h2M3 15h2M11 15h10M27 15h2M8 16h16M8 17h16M8 18h16M5 19h22M5 20h22M3 21h26M3 22h26M3 23h26M3 24h8M13 24h6M21 24h8M3 25h8M13 25h6M21 25h8M3 26h8M13 26h6M21 26h8M3 27h2M8 27h3M21 27h3M27 27h2M3 28h2M8 28h3M21 28h3M27 28h2" />
</svg>