<?xml version="1.0" encoding="utf-8"?>
<!-- Generator: Adobe Illustrator 25.4.0, SVG Export Plug-In . SVG Version: 6.00 Build 0)  -->
<svg version="1.1" id="Layer_1" xmlns="http://www.w3.org/2000/svg" xmlns:xlink="http://www.w3.org/1999/xlink" x="0px" y="0px"
	 viewBox="0 0 60 60" style="enable-background:new 0 0 60 60;" xml:space="preserve">
<style type="text/css">
	.st0{fill:#B8C2FE;}
	.st1{fill:#0058F7;}
	.st2{fill:#FEA004;}
	.st3{fill:#36FEDE;}
	.st4{fill:#FED30B;}
</style>
<g>
	<path d="M56.5,29.5c0,1.3,0,2.6,0,3.9c-1.2,0-2.3,0-3.5,0c-0.1,0-0.2,0-0.2,0.2c0,1.2,0,2.4,0,3.7l0,0c-1.3,0-2.6,0-3.9,0
		c0-0.1,0-0.3,0-0.4c0-1.1,0-2.3,0-3.4c0-1.3,0-2.6,0-3.9c0-1.3,0-2.6,0-3.9c0-0.1,0-0.1,0-0.2c0-2.5,0-4.9,0-7.4c0,0,0,0,0-0.1
		c0-0.1,0-0.1-0.1-0.1c-1.2,0-2.5,0-3.7,0c-1.3,0-2.6,0-3.9,0c0-1.3,0-2.5,0-3.8c0.2,0,0.3,0,0.5,0c1.1,0,2.3,0,3.4,0
		c1.2,0,2.4,0,3.7,0c0.1,0,0.2,0,0.2-0.2c0-1.2,0-2.5,0-3.7l0,0c1.2,0,2.4,0,3.6,0c0.2,0,0.2,0,0.2,0.2c0,6.3,0,12.5,0,18.8
		c0,0.2,0,0.2,0.2,0.2C54.1,29.5,55.3,29.5,56.5,29.5z"/>
	<path d="M3.2,33.4c0-1.3,0-2.6,0-3.9c1.1,0,2.2,0,3.3,0c0.2,0,0.2,0,0.2-0.2c0-6.3,0-12.5,0-18.8c0-0.2,0-0.2,0.2-0.2
		c1.2,0,2.4,0,3.6,0l0,0c0,0,0,0.1,0,0.1c0,1.2,0,2.4,0,3.6c0,0.1,0,0.2,0.1,0.2c1.3,0,2.5,0,3.8,0c0.1,0,0.1,0,0.2,0
		c1.2,0,2.4,0,3.6,0c0,1.3,0,2.5,0,3.8c-1.3,0-2.5,0-3.8,0c-1.2,0-2.5,0-3.7,0c-0.1,0-0.2,0-0.2,0.2c0,2.5,0,4.9,0,7.4
		c0,0.1,0,0.1,0,0.2c0,1.3,0,2.6,0,3.9c0,1.3,0,2.6,0,3.9c0,0.1,0,0.1,0,0.2c0,1.2,0,2.4,0,3.6c-1.3,0-2.6,0-3.8,0l0,0
		c0-1.2,0-2.4,0-3.7c0-0.1,0-0.2-0.2-0.2C5.4,33.4,4.3,33.4,3.2,33.4z"/>
	<path d="M10.5,6.6c12.8,0,25.6,0,38.4,0c0,1.2,0,2.5,0,3.7l0,0c-1.3,0-2.5,0-3.8,0c-1.3,0-2.6,0-3.9,0c-1.3,0-2.5,0-3.8,0
		c0,0-0.1,0-0.1,0c-5,0-10.1,0-15.1,0c0,0-0.1,0-0.1,0c-1.3,0-2.6,0-3.9,0c-1.3,0-2.5,0-3.8,0c-0.1,0-0.1,0-0.2,0
		c-1.2,0-2.4,0-3.7,0l0,0C10.5,9.1,10.5,7.8,10.5,6.6z"/>
	<path d="M56.5,48.7c-1.2,0-2.4,0-3.7,0l0,0c0-1.3,0-2.6,0-3.9c1.2,0,2.4,0,3.7,0C56.5,46.2,56.5,47.5,56.5,48.7z"/>
	<path d="M56.5,37.2c0,1.3,0,2.6,0,3.9c-1.2,0-2.4,0-3.7,0c0-1.3,0-2.6,0-3.9l0,0C54,37.2,55.2,37.2,56.5,37.2z"/>
	<path class="st0" d="M52.8,41.1c1.2,0,2.4,0,3.7,0c0,1.3,0,2.5,0,3.8c-1.2,0-2.4,0-3.7,0l0,0C52.8,43.6,52.8,42.3,52.8,41.1
		L52.8,41.1z"/>
	<path class="st0" d="M56.5,37.2c-1.2,0-2.4,0-3.7,0c0-1.2,0-2.4,0-3.7c0-0.1,0-0.2,0.2-0.2c1.2,0,2.3,0,3.5,0
		C56.5,34.7,56.5,35.9,56.5,37.2z"/>
	<path d="M3.2,41.1c0-1.3,0-2.6,0-3.9c1.2,0,2.3,0,3.5,0l0,0c0,1.3,0,2.6,0,3.9C5.5,41.1,4.4,41.1,3.2,41.1z"/>
	<path d="M-0.3,37.2c0-1.3,0-2.6,0-3.9c1.2,0,2.3,0,3.5,0l0,0c0,1.3,0,2.6,0,3.9C2.1,37.2,0.9,37.2-0.3,37.2z"/>
	<path d="M-0.3,44.9c0-1.3,0-2.6,0-3.9c1.2,0,2.3,0,3.5,0l0,0c0,1.3,0,2.6,0,3.9C2.1,44.9,0.9,44.9-0.3,44.9z"/>
	<path d="M56.4,37.2c0-1.3,0-2.6,0-3.9c1.2,0,2.3,0,3.5,0l0,0c0,1.3,0,2.6,0,3.9C58.8,37.2,57.6,37.2,56.4,37.2z"/>
	<path d="M56.4,44.9c0-1.3,0-2.6,0-3.9c1.2,0,2.3,0,3.5,0l0,0c0,1.3,0,2.6,0,3.9C58.8,44.9,57.6,44.9,56.4,44.9z"/>
	<path d="M6.7,48.7c-1.2,0-2.3,0-3.5,0c0-1.3,0-2.6,0-3.9c1.2,0,2.3,0,3.5,0C6.7,46.2,6.7,47.5,6.7,48.7L6.7,48.7z"/>
	<path class="st0" d="M6.7,44.9c-1.2,0-2.3,0-3.5,0c0-1.3,0-2.5,0-3.8c1.2,0,2.3,0,3.5,0l0,0C6.7,42.3,6.7,43.6,6.7,44.9L6.7,44.9z"
		/>
	<path class="st0" d="M6.7,37.2c-1.2,0-2.3,0-3.5,0c0-1.3,0-2.5,0-3.8c1.1,0,2.2,0,3.4,0c0.1,0,0.2,0,0.2,0.2
		C6.7,34.8,6.7,36,6.7,37.2z"/>
	<path class="st1" d="M10.6,52.6c0-1.1,0-2.1,0-3.2c0-0.2,0-0.4,0-0.6c0-0.1,0-0.1,0-0.2c0-1.2,0-2.4,0-3.7l0,0c0.2,0,0.3,0,0.5,0
		c1.1,0,2.3,0,3.4,0c1.3,0,2.5,0,3.8,0c0,1.2,0,2.5,0,3.7c0,0.1,0,0.2-0.2,0.2c-1.2,0-2.3,0-3.5,0c-0.1,0-0.2,0-0.2,0.2
		c0,1.2,0,2.4,0,3.7l0,0C13.1,52.6,11.8,52.6,10.6,52.6z"/>
	<path class="st1" d="M49,48.7c0,1.2,0,2.4,0,3.6c0,0.1,0,0.2,0,0.2c-1.3,0-2.5,0-3.8,0l0,0c0-1.2,0-2.4,0-3.7c0-0.1,0-0.2-0.2-0.2
		c-1.2,0-2.3,0-3.5,0c-0.1,0-0.2,0-0.2-0.2c0-1.2,0-2.5,0-3.7c1.3,0,2.6,0,3.9,0c0.1,0,0.1,0,0.2,0c1.2,0,2.4,0,3.6,0c0,0,0,0,0,0
		c0,0.2,0,0.3,0,0.5C49,46.5,49,47.6,49,48.7z"/>
	<path class="st1" d="M33.6,52.6c-2.6,0-5.1,0-7.7,0l0,0c0-1.3,0-2.5,0-3.8c0.1,0,0.1,0,0.2,0c2.4,0,4.9,0,7.3,0c0.1,0,0.1,0,0.2,0
		C33.6,50,33.6,51.3,33.6,52.6L33.6,52.6z"/>
	<path class="st0" d="M49,48.7c0-1.1,0-2.3,0-3.4c0-0.2,0-0.3,0-0.5c1.3,0,2.6,0,3.9,0l0,0c0,1.3,0,2.6,0,3.9
		C51.5,48.7,50.2,48.7,49,48.7z"/>
	<path class="st1" d="M45.1,56.4c-1.3,0-2.6,0-3.9,0l0,0c0-1.3,0-2.6,0-3.9c1.3,0,2.6,0,3.9,0c0,0,0,0,0,0
		C45.1,53.8,45.1,55.1,45.1,56.4z"/>
	<path class="st1" d="M37.4,56.4c-1.2,0-2.5,0-3.7,0c-0.1,0-0.2,0-0.2-0.2c0-1.2,0-2.5,0-3.7l0,0c0.1,0,0.3,0,0.4,0
		c1.1,0,2.3,0,3.4,0C37.4,53.9,37.4,55.1,37.4,56.4L37.4,56.4z"/>
	<path class="st2" d="M10.6,52.6c1.3,0,2.6,0,3.9,0c0,1.3,0,2.6,0,3.9c-1.3,0-2.5,0-3.8,0c-0.1,0-0.1,0-0.1-0.1
		C10.5,55.1,10.5,53.8,10.6,52.6z"/>
	<path class="st1" d="M14.4,56.4c0-1.3,0-2.6,0-3.9l0,0c1.3,0,2.6,0,3.8,0c0,1.3,0,2.6,0,3.9l0,0C17,56.4,15.7,56.4,14.4,56.4z"/>
	<path class="st1" d="M25.9,52.6c0,1.2,0,2.5,0,3.7c0,0.1,0,0.2-0.2,0.2c-1.2,0-2.4,0-3.7,0l0,0c0-1.3,0-2.6,0-3.9
		c0.1,0,0.1,0,0.2,0C23.5,52.6,24.7,52.6,25.9,52.6L25.9,52.6z"/>
	<path class="st2" d="M45.1,56.4c0-1.3,0-2.6,0-3.9c1.3,0,2.5,0,3.8,0c0,1.3,0,2.5,0,3.8c0,0.1,0,0.1-0.1,0.1
		C47.6,56.4,46.4,56.4,45.1,56.4z"/>
	<path class="st0" d="M10.5,44.9c0,1.2,0,2.4,0,3.7c0,0.1,0,0.1,0,0.2c-1.3,0-2.5,0-3.8,0c0-1.3,0-2.6,0-3.9l0,0
		C8,44.9,9.3,44.9,10.5,44.9z"/>
	<path class="st1" d="M41.3,14.2c0,1.3,0,2.5,0,3.8c0,1.3,0,2.6,0,3.9c-1.3,0-2.5,0-3.8,0c0-0.1,0-0.1,0-0.2c0-1.2,0-2.3,0-3.5
		c0-0.1,0-0.2-0.2-0.2c-1.2,0-2.5,0-3.7,0c0-1.2,0-2.4,0-3.6c0-0.3,0-0.2,0.2-0.2c1.2,0,2.4,0,3.6,0C38.7,14.2,40,14.2,41.3,14.2
		L41.3,14.2z"/>
	<path class="st3" d="M45.1,18c1.2,0,2.5,0,3.7,0c0.1,0,0.1,0,0.1,0.1c0,0,0,0,0,0.1c0,2.5,0,4.9,0,7.4c0,0.1,0,0.1,0,0.2
		c-1.3,0-2.5,0-3.8,0c0-0.1,0-0.2,0-0.2c0-1.2,0-2.4,0-3.6C45.1,20.6,45.1,19.3,45.1,18z"/>
	<path class="st2" d="M45.1,18c0,1.3,0,2.6,0,3.9c-1.3,0-2.6,0-3.9,0c0,0,0,0,0,0c0-1.3,0-2.6,0-3.9C42.6,18,43.8,18,45.1,18z"/>
	<path class="st0" d="M52.8,37.2c0,1.3,0,2.6,0,3.9l0,0c-1.3,0-2.6,0-3.9,0l0,0c0-1.3,0-2.6,0-3.9l0,0
		C50.2,37.2,51.5,37.2,52.8,37.2z"/>
	<path class="st1" d="M41.3,10.3c1.3,0,2.6,0,3.9,0c0,1.3,0,2.6,0,3.8c-1.1,0-2.3,0-3.4,0c-0.2,0-0.3,0-0.5,0l0,0
		C41.3,12.9,41.3,11.6,41.3,10.3z"/>
	<path class="st3" d="M45.1,14.2c0-1.3,0-2.6,0-3.8c1.3,0,2.5,0,3.8,0c0,1.2,0,2.5,0,3.7c0,0.1,0,0.2-0.2,0.2
		C47.6,14.2,46.3,14.2,45.1,14.2z"/>
	<path class="st0" d="M45.1,25.7c1.3,0,2.5,0,3.8,0c0,1.3,0,2.6,0,3.9c-1.3,0-2.5,0-3.8,0c0-0.2,0-0.4,0-0.5
		C45.1,27.9,45.1,26.8,45.1,25.7z"/>
	<path class="st2" d="M45.1,29.5c1.3,0,2.5,0,3.8,0c0,1.3,0,2.6,0,3.9c-1.3,0-2.5,0-3.8,0C45.1,32.1,45.1,30.8,45.1,29.5L45.1,29.5z
		"/>
	<path class="st0" d="M45.1,33.4c1.3,0,2.5,0,3.8,0c0,1.1,0,2.3,0,3.4c0,0.1,0,0.3,0,0.4l0,0c-1.3,0-2.5,0-3.8,0
		C45.1,35.9,45.1,34.7,45.1,33.4L45.1,33.4z"/>
	<path class="st1" d="M18.2,18c0-1.3,0-2.5,0-3.8l0,0c1.3,0,2.6,0,3.9,0c1.2,0,2.4,0,3.7,0c0.1,0,0.2,0,0.2,0.2c0,1.2,0,2.4,0,3.6
		c-1.2,0-2.4,0-3.6,0c-0.3,0-0.3,0-0.3,0.3c0,1.2,0,2.4,0,3.6c-1.3,0-2.6,0-3.9,0C18.2,20.6,18.2,19.3,18.2,18z"/>
	<path class="st3" d="M10.6,25.7c0-0.1,0-0.1,0-0.2c0-2.5,0-4.9,0-7.4c0-0.1,0-0.2,0.2-0.2c1.2,0,2.5,0,3.7,0c0,1.3,0,2.6,0,3.9
		c0,0.1,0,0.2,0,0.4c0,1.2,0,2.3,0,3.5C13.1,25.7,11.8,25.7,10.6,25.7z"/>
	<path class="st0" d="M10.6,25.7c1.3,0,2.6,0,3.8,0c0,0.1,0,0.1,0,0.2c0,1.2,0,2.4,0,3.7c-1.3,0-2.6,0-3.9,0
		C10.6,28.2,10.6,27,10.6,25.7z"/>
	<path class="st2" d="M10.6,29.5c1.3,0,2.6,0,3.9,0c0,0,0,0,0,0c0,1.3,0,2.6,0,3.9c-1.3,0-2.6,0-3.9,0
		C10.6,32.1,10.6,30.8,10.6,29.5z"/>
	<path class="st3" d="M10.5,10.3c1.2,0,2.4,0,3.7,0c0.1,0,0.1,0,0.2,0c0,1.3,0,2.6,0,3.8c-1.3,0-2.5,0-3.8,0c-0.1,0-0.1-0.1-0.1-0.2
		C10.5,12.8,10.5,11.6,10.5,10.3C10.5,10.4,10.5,10.3,10.5,10.3z"/>
	<path class="st0" d="M6.7,41.1c0-1.3,0-2.6,0-3.9c1.3,0,2.6,0,3.8,0l0,0c0,1.3,0,2.6,0,3.9l0,0C9.3,41.1,8,41.1,6.7,41.1L6.7,41.1z
		"/>
	<path class="st0" d="M10.6,33.4c1.3,0,2.6,0,3.9,0l0,0c0,1.3,0,2.6,0,3.8c-1.3,0-2.6,0-3.9,0l0,0c0-1.2,0-2.4,0-3.6
		C10.5,33.5,10.5,33.4,10.6,33.4z"/>
	<path class="st1" d="M14.4,14.2c0-1.3,0-2.6,0-3.8c1.3,0,2.5,0,3.8,0c0,1.3,0,2.6,0,3.8l0,0c-1.2,0-2.4,0-3.6,0
		C14.5,14.2,14.5,14.2,14.4,14.2z"/>
	<path class="st2" d="M14.4,21.9c0-1.3,0-2.6,0-3.9c1.3,0,2.5,0,3.8,0c0,1.3,0,2.6,0,3.9l0,0C17,21.9,15.7,21.9,14.4,21.9z"/>
	<path class="st0" d="M25.9,18c0-1.2,0-2.4,0-3.6c0-0.1,0-0.2-0.2-0.2c-1.2,0-2.4,0-3.7,0c0-1.3,0-2.6,0-3.8c0,0,0.1,0,0.1,0
		c5,0,10.1,0,15.1,0c0,0,0.1,0,0.1,0c0,1.3,0,2.6,0,3.8c-1.2,0-2.4,0-3.6,0c-0.3,0-0.2,0-0.2,0.2c0,1.2,0,2.4,0,3.6l0,0
		C31,18,28.5,18,25.9,18L25.9,18z"/>
	<path class="st4" d="M22.1,10.3c0,1.3,0,2.6,0,3.8c-1.3,0-2.6,0-3.9,0c0-1.3,0-2.6,0-3.8C19.5,10.3,20.8,10.3,22.1,10.3z"/>
	<path class="st4" d="M37.4,14.2c0-1.3,0-2.6,0-3.8c1.3,0,2.5,0,3.8,0c0,1.3,0,2.6,0,3.8C40,14.2,38.7,14.2,37.4,14.2z"/>
	<path class="st2" d="M48.9,41.1c1.3,0,2.6,0,3.9,0c0,1.3,0,2.5,0,3.8c-1.3,0-2.6,0-3.9,0c0,0,0,0,0,0
		C48.9,43.6,48.9,42.3,48.9,41.1z"/>
	<path class="st2" d="M6.7,41.1c1.3,0,2.5,0,3.8,0c0,1.3,0,2.5,0,3.8l0,0c-1.3,0-2.5,0-3.8,0C6.7,43.6,6.7,42.3,6.7,41.1z"/>
	<path class="st2" d="M25.9,52.6c-1.2,0-2.4,0-3.6,0c-0.1,0-0.1,0-0.2,0c-1.3,0-2.6,0-3.9,0c-1.3,0-2.6,0-3.8,0c0-1.2,0-2.4,0-3.7
		c0-0.1,0-0.2,0.2-0.2c1.2,0,2.3,0,3.5,0c0.1,0,0.2,0,0.2-0.2c0-1.2,0-2.5,0-3.7l0,0c1.3,0,2.6,0,3.9,0c0,1.2,0,2.4,0,3.7
		c0,0.2,0,0.2,0.2,0.2c1.2,0,2.4,0,3.6,0C25.9,50,25.9,51.3,25.9,52.6z"/>
	<path class="st0" d="M10.5,44.9c0-1.3,0-2.5,0-3.8l0,0c1.3,0,2.6,0,3.9,0c0,1.3,0,2.5,0,3.8c-1.1,0-2.3,0-3.4,0
		C10.9,44.9,10.7,44.9,10.5,44.9z"/>
	<path class="st2" d="M14.4,44.9c0-1.3,0-2.5,0-3.8l0,0c1.3,0,2.6,0,3.8,0c0,1.3,0,2.5,0,3.8l0,0C17,44.9,15.7,44.9,14.4,44.9z"/>
	<path class="st2" d="M37.4,52.6c-1.1,0-2.3,0-3.4,0c-0.1,0-0.3,0-0.4,0c0-1.3,0-2.5,0-3.8c0.1,0,0.1,0,0.2,0c1.2,0,2.3,0,3.5,0
		c0.1,0,0.2,0,0.2-0.1c0-1.2,0-2.5,0-3.7c1.3,0,2.6,0,3.8,0l0,0c0,1.2,0,2.5,0,3.7c0,0.1,0,0.2,0.2,0.2c1.2,0,2.3,0,3.5,0
		c0.1,0,0.2,0,0.2,0.2c0,1.2,0,2.4,0,3.7c-1.3,0-2.6,0-3.9,0C40,52.6,38.7,52.6,37.4,52.6z"/>
	<path class="st2" d="M45.1,44.9c-1.3,0-2.6,0-3.9,0l0,0c0-1.3,0-2.5,0-3.8c1.3,0,2.6,0,3.9,0l0,0C45.1,42.3,45.1,43.6,45.1,44.9z"
		/>
	<path class="st0" d="M45.1,44.9c0-1.3,0-2.5,0-3.8c1.3,0,2.6,0,3.8,0l0,0c0,1.3,0,2.5,0,3.8c-1.2,0-2.4,0-3.6,0
		C45.3,44.9,45.2,44.9,45.1,44.9z"/>
	<path class="st3" d="M37.4,44.9c0,1.2,0,2.5,0,3.7c0,0.1-0.1,0.1-0.2,0.1c-1.2,0-2.3,0-3.5,0c-0.1,0-0.1,0-0.2,0
		c-0.1,0-0.1,0-0.2,0c-2.4,0-4.9,0-7.3,0c-0.1,0-0.1,0-0.2,0c-1.2,0-2.4,0-3.6,0c-0.2,0-0.2,0-0.2-0.2c0-1.2,0-2.4,0-3.7
		c0,0,0,0,0,0c0.2,0,0.3,0,0.5,0c1.1,0,2.2,0,3.3,0c0.1,0,0.1,0,0.2,0c2.4,0,4.9,0,7.3,0c0.1,0,0.1,0,0.2,0c0.1,0,0.1,0,0.2,0
		C35,44.9,36.2,44.9,37.4,44.9L37.4,44.9z"/>
	<path d="M37.4,52.6c1.3,0,2.5,0,3.8,0c0,1.3,0,2.6,0,3.9c-1.3,0-2.6,0-3.8,0C37.4,55.1,37.4,53.9,37.4,52.6z"/>
	<path d="M18.2,52.6c1.3,0,2.6,0,3.9,0c0,1.3,0,2.6,0,3.9c-1.3,0-2.6,0-3.9,0C18.2,55.1,18.2,53.9,18.2,52.6z"/>
	<path class="st0" d="M33.6,18c1.2,0,2.5,0,3.7,0c0.1,0,0.2,0,0.2,0.2c0,1.2,0,2.3,0,3.5c0,0.1,0,0.1,0,0.2c0,0,0,0,0,0
		c-0.2,0-0.4,0-0.6,0c-1.1,0-2.1,0-3.2,0C33.6,20.6,33.6,19.3,33.6,18C33.6,18,33.6,18,33.6,18z"/>
	<path class="st4" d="M37.5,21.9c1.3,0,2.5,0,3.8,0c0,0,0,0,0,0c0,1.2,0,2.4,0,3.7c0,0.1,0,0.2-0.2,0.2c-1.2,0-2.4,0-3.7,0
		c0-0.7,0-1.3,0-2C37.4,23.1,37.5,22.5,37.5,21.9L37.5,21.9z"/>
	<path d="M37.4,25.7c1.2,0,2.4,0,3.7,0c0.1,0,0.2,0,0.2-0.2c0-1.2,0-2.4,0-3.7c1.3,0,2.6,0,3.9,0c0,1.2,0,2.4,0,3.6
		c0,0.1,0,0.2,0,0.2c0,1.1,0,2.2,0,3.3c0,0.2,0,0.4,0,0.5c0,0,0,0,0,0c-0.2,0-0.4,0-0.6,0c-1.1,0-2.2,0-3.3,0c-1.3,0-2.5,0-3.8,0
		C37.4,28.2,37.4,27,37.4,25.7L37.4,25.7z"/>
	<path class="st2" d="M49,41.1c-1.3,0-2.6,0-3.8,0l0,0c0-1.3,0-2.6,0-3.9l0,0c1.3,0,2.5,0,3.8,0C48.9,38.5,49,39.8,49,41.1z"/>
	<path class="st0" d="M41.3,29.5c1.1,0,2.2,0,3.3,0c0.2,0,0.4,0,0.6,0c0,1.3,0,2.6,0,3.9l0,0c-1.3,0-2.6,0-3.9,0
		C41.3,32.1,41.3,30.8,41.3,29.5z"/>
	<path class="st2" d="M41.3,33.4c1.3,0,2.6,0,3.9,0c0,1.3,0,2.6,0,3.8l0,0c-1.3,0-2.6,0-3.9,0C41.3,35.9,41.3,34.7,41.3,33.4
		L41.3,33.4z"/>
	<path class="st4" d="M18.2,21.9c1.3,0,2.6,0,3.9,0c0,0,0,0,0,0c0,0.1,0,0.1,0,0.2c0,1.2,0,2.4,0,3.6c-1.2,0-2.5,0-3.7,0
		c-0.1,0-0.2,0-0.2-0.2C18.2,24.3,18.2,23.1,18.2,21.9L18.2,21.9z"/>
	<path class="st0" d="M22.1,21.9c0-1.2,0-2.4,0-3.6c0-0.3,0-0.3,0.3-0.3c1.2,0,2.4,0,3.6,0l0,0c0,1.3,0,2.6,0,3.9
		c-0.1,0-0.2,0-0.2,0C24.5,21.9,23.3,21.9,22.1,21.9L22.1,21.9z"/>
	<path d="M18.2,21.9c0,1.2,0,2.4,0,3.7c0,0.1,0,0.2,0.2,0.2c1.2,0,2.5,0,3.7,0l0,0c0,1.3,0,2.6,0,3.9c-1.3,0-2.6,0-3.9,0
		c-0.1,0-0.1,0-0.2,0c-1.2,0-2.4,0-3.6,0c0,0,0,0,0,0c0-1.2,0-2.4,0-3.7c0-0.1,0-0.1,0-0.2c0-1.2,0-2.3,0-3.5c0-0.1,0-0.2,0-0.4
		C15.7,21.9,17,21.9,18.2,21.9z"/>
	<path class="st0" d="M14.4,29.5c1.2,0,2.4,0,3.6,0c0.1,0,0.1,0,0.2,0c0,1.3,0,2.6,0,3.9c-1.3,0-2.6,0-3.8,0l0,0
		C14.4,32.1,14.4,30.8,14.4,29.5z"/>
	<path class="st2" d="M14.4,41.1c-1.3,0-2.6,0-3.9,0c0-1.3,0-2.6,0-3.9c1.3,0,2.6,0,3.9,0l0,0C14.4,38.5,14.4,39.8,14.4,41.1
		L14.4,41.1z"/>
	<path class="st2" d="M14.4,33.4c1.3,0,2.6,0,3.8,0l0,0c0,1.3,0,2.6,0,3.8c-1.3,0-2.6,0-3.8,0l0,0C14.4,35.9,14.4,34.7,14.4,33.4z"
		/>
	<path class="st1" d="M25.9,21.8c0-1.3,0-2.6,0-3.9c2.6,0,5.1,0,7.7,0c0,1.3,0,2.6,0,3.9c-0.1,0-0.1,0-0.2,0c-2.4,0-4.9,0-7.3,0
		C26,21.9,26,21.8,25.9,21.8z"/>
	<path d="M18.2,44.9c0-1.3,0-2.5,0-3.8c0,0,0,0,0,0c1.3,0,2.6,0,3.9,0c0,1.3,0,2.6,0,3.8c0,0,0,0,0,0C20.8,44.9,19.5,44.9,18.2,44.9
		z"/>
	<path class="st3" d="M14.4,37.2c1.3,0,2.6,0,3.8,0l0,0c0,1.3,0,2.6,0,3.9c0,0,0,0,0,0c-1.3,0-2.6,0-3.8,0
		C14.4,39.8,14.4,38.5,14.4,37.2z"/>
	<path d="M41.3,41.1c0,1.3,0,2.5,0,3.8c-1.3,0-2.6,0-3.8,0c0,0,0,0,0,0c0-1.3,0-2.6,0-3.8C38.7,41.1,40,41.1,41.3,41.1L41.3,41.1z"
		/>
	<path class="st3" d="M41.3,37.2c1.3,0,2.6,0,3.9,0c0,1.3,0,2.6,0,3.9c-1.3,0-2.6,0-3.9,0l0,0C41.3,39.8,41.3,38.5,41.3,37.2
		L41.3,37.2z"/>
	<path class="st1" d="M33.6,44.9c-0.1,0-0.1,0-0.2,0c-2.4,0-4.9,0-7.3,0c-0.1,0-0.1,0-0.2,0c0-1.3,0-2.5,0-3.8c0.1,0,0.1,0,0.2,0
		c2.4,0,4.9,0,7.3,0c0.1,0,0.1,0,0.2,0C33.6,42.3,33.6,43.6,33.6,44.9z"/>
	<path class="st4" d="M33.6,44.9c0-1.3,0-2.5,0-3.8c1.3,0,2.6,0,3.9,0l0,0c0,1.3,0,2.6,0,3.8c-1.2,0-2.4,0-3.7,0
		C33.7,44.9,33.7,44.9,33.6,44.9z"/>
	<path class="st4" d="M25.9,41.1c0,1.3,0,2.5,0,3.8c-1.1,0-2.2,0-3.3,0c-0.2,0-0.3,0-0.5,0c0-1.3,0-2.6,0-3.8l0,0
		C23.4,41.1,24.6,41.1,25.9,41.1z"/>
	<path d="M25.9,21.8c0.1,0,0.1,0,0.2,0c2.4,0,4.9,0,7.3,0c0.1,0,0.1,0,0.2,0c1.1,0,2.1,0,3.2,0c0.2,0,0.4,0,0.6,0c0,0.6,0,1.2,0,1.8
		c0,0.7,0,1.3,0,2l0,0c-0.1,0-0.3,0-0.4,0c-1.1,0-2.3,0-3.4,0c-0.1,0-0.1,0-0.2,0c-2.5,0-4.9,0-7.4,0c-0.1,0-0.1,0-0.2,0
		c-0.1,0-0.1,0-0.2,0c-1.2,0-2.4,0-3.6,0l0,0c0-1.2,0-2.4,0-3.6c0-0.1,0-0.1,0-0.2c1.2,0,2.4,0,3.6,0C25.7,21.9,25.8,21.8,25.9,21.8
		z"/>
	<path class="st3" d="M33.6,25.7c1.1,0,2.3,0,3.4,0c0.1,0,0.3,0,0.4,0c0,1.3,0,2.6,0,3.9c0,0,0,0,0,0c-0.3,0-0.7,0-1,0
		c-0.9,0-1.9,0-2.8,0C33.6,28.2,33.6,27,33.6,25.7z"/>
	<path class="st4" d="M41.3,29.5c0,1.3,0,2.6,0,3.9c0,0,0,0,0,0c-1.3,0-2.6,0-3.8,0c0-1.3,0-2.6,0-3.9c0,0,0,0,0,0
		C38.7,29.5,40,29.5,41.3,29.5z"/>
	<path class="st3" d="M37.4,33.4c1.3,0,2.6,0,3.8,0c0,1.3,0,2.6,0,3.8l0,0c-1.3,0-2.6,0-3.8,0c0,0,0,0,0,0
		C37.4,35.9,37.4,34.7,37.4,33.4L37.4,33.4z"/>
	<path class="st4" d="M18.2,33.4c0-1.3,0-2.6,0-3.9c1.3,0,2.6,0,3.9,0c0,0,0,0,0,0c0,1.3,0,2.6,0,3.9C20.8,33.4,19.5,33.4,18.2,33.4
		L18.2,33.4z"/>
	<path class="st3" d="M22.1,25.7c1.2,0,2.4,0,3.6,0c0.1,0,0.1,0,0.2,0c0,1.3,0,2.6,0,3.8c-1.3,0-2.6,0-3.8,0c0,0,0,0,0,0
		C22.1,28.2,22.1,27,22.1,25.7z"/>
	<path class="st3" d="M18.2,33.4c1.3,0,2.6,0,3.9,0l0,0c0,1.3,0,2.6,0,3.8l0,0c-1.3,0-2.6,0-3.9,0l0,0
		C18.2,35.9,18.2,34.7,18.2,33.4z"/>
	<path class="st4" d="M18.2,37.2c1.3,0,2.6,0,3.9,0c0,1.3,0,2.6,0,3.9l0,0c-1.3,0-2.6,0-3.9,0C18.2,39.8,18.2,38.5,18.2,37.2z"/>
	<path class="st4" d="M37.4,37.2c1.3,0,2.6,0,3.8,0c0,1.3,0,2.6,0,3.9c-1.3,0-2.6,0-3.8,0l0,0C37.4,39.8,37.4,38.5,37.4,37.2z"/>
	<path d="M37.4,37.2c0,1.3,0,2.6,0,3.9c-1.3,0-2.6,0-3.9,0c-0.1,0-0.1,0-0.2,0c-2.4,0-4.9,0-7.3,0c-0.1,0-0.1,0-0.2,0
		c-1.3,0-2.6,0-3.8,0c0-1.3,0-2.6,0-3.9c0,0,0,0,0,0c0.2,0,0.3,0,0.5,0c1.1,0,2.2,0,3.3,0c0.1,0,0.1,0,0.2,0c2.5,0,4.9,0,7.4,0
		c0.1,0,0.1,0,0.2,0c0.1,0,0.1,0,0.2,0C35,37.2,36.2,37.2,37.4,37.2L37.4,37.2z"/>
	<path class="st4" d="M25.9,29.5c0-1.3,0-2.6,0-3.8c0.1,0,0.1,0,0.2,0c2.5,0,4.9,0,7.4,0c0.1,0,0.1,0,0.2,0c0,1.3,0,2.6,0,3.8
		c-0.1,0-0.1,0-0.2,0c-2.4,0-4.8,0-7.3,0C26,29.5,26,29.5,25.9,29.5z"/>
	<path d="M25.9,29.5c0.1,0,0.1,0,0.2,0c2.4,0,4.8,0,7.3,0c0.1,0,0.1,0,0.2,0c0.9,0,1.9,0,2.8,0c0.3,0,0.7,0,1,0c0,1.3,0,2.6,0,3.9
		l0,0c-0.2,0-0.4,0-0.6,0c-1.1,0-2.2,0-3.3,0c-0.1,0-0.1,0-0.2,0c-2.4,0-4.9,0-7.3,0c-0.1,0-0.1,0-0.2,0c-0.1,0-0.1,0-0.2,0
		c-1.2,0-2.4,0-3.6,0l0,0c0-1.3,0-2.6,0-3.9C23.4,29.5,24.6,29.5,25.9,29.5z"/>
	<path class="st4" d="M33.6,33.4c1.1,0,2.2,0,3.3,0c0.2,0,0.4,0,0.6,0c0,1.3,0,2.6,0,3.8c-1.2,0-2.4,0-3.7,0c-0.1,0-0.1,0-0.2,0
		C33.6,35.9,33.6,34.7,33.6,33.4z"/>
	<path class="st4" d="M22.1,33.4c1.2,0,2.4,0,3.6,0c0.1,0,0.1,0,0.2,0c0,1.3,0,2.5,0,3.8c-1.1,0-2.2,0-3.3,0c-0.2,0-0.3,0-0.5,0
		C22.1,35.9,22.1,34.7,22.1,33.4z"/>
	<path class="st3" d="M25.9,37.2c0-1.3,0-2.5,0-3.8c0.1,0,0.1,0,0.2,0c2.4,0,4.9,0,7.3,0c0.1,0,0.1,0,0.2,0c0,1.3,0,2.5,0,3.8
		c-0.1,0-0.1,0-0.2,0c-2.5,0-4.9,0-7.4,0C26,37.2,26,37.2,25.9,37.2z"/>
	<g>
		<polygon points="6.7,48.7 6.7,48.7 6.7,48.7 		"/>
		<path d="M14.4,56.4c-1.3,0-2.5,0-3.8,0c-0.1,0-0.1,0-0.1-0.1c0-1.3,0-2.5,0-3.8c0-1.1,0-2.1,0-3.2c0-0.2,0-0.4,0-0.6
			c-1.3,0-2.5,0-3.8,0c0,3.7,0,7.5,0,11.2l11.5,0c0-1.2,0-2.4,0-3.6C17,56.4,15.7,56.4,14.4,56.4z"/>
		<path d="M49,48.7c0,1.2,0,2.4,0,3.6c0,0.1,0,0.2,0,0.2c0,1.3,0,2.5,0,3.8c0,0.1,0,0.1-0.1,0.1c-1.2,0-2.5,0-3.7,0
			c-1.3,0-2.6,0-3.9,0c0,1.2,0,2.4,0,3.6l11.5,0c0-3.8,0-7.5,0-11.3C51.5,48.7,50.2,48.7,49,48.7z"/>
		<polygon points="52.8,48.7 52.8,48.7 52.8,48.7 		"/>
		<path d="M33.7,56.4c-0.1,0-0.2,0-0.2-0.2c0-1.2,0-2.5,0-3.7c-2.6,0-5.1,0-7.7,0c0,1.2,0,2.5,0,3.7c0,0.1,0,0.2-0.2,0.2
			c-1.2,0-2.4,0-3.7,0c0,1.2,0,2.4,0,3.6l15.4,0c0-1.2,0-2.4,0-3.6C36.2,56.4,35,56.4,33.7,56.4z"/>
	</g>
</g>
</svg>
