<svg xmlns="http://www.w3.org/2000/svg" viewBox="0 -0.5 32 32" shape-rendering="crispEdges">
<metadata>Made with Pixels to Svg https://codepen.io/shshaw/pen/XbxvNj</metadata>
<path stroke="#061a00" d="M0 0h8M11 0h10M24 0h8M0 1h8M11 1h10M24 1h8M0 2h8M11 2h10M24 2h8M0 3h3M5 3h8M19 3h8M29 3h3M0 4h3M5 4h8M19 4h8M29 4h3M0 5h3M11 5h2M19 5h2M29 5h3M0 6h3M11 6h2M19 6h2M29 6h3M0 7h3M11 7h2M19 7h2M29 7h3M0 8h3M8 8h3M13 8h6M21 8h3M29 8h3M0 9h3M8 9h3M13 9h6M21 9h3M29 9h3M0 10h3M8 10h3M13 10h6M21 10h3M29 10h3M0 11h8M24 11h8M0 12h8M24 12h8M0 13h3M5 13h6M21 13h6M29 13h3M0 14h3M5 14h6M21 14h6M29 14h3M0 15h3M5 15h6M21 15h6M29 15h3M0 16h3M8 16h3M21 16h3M29 16h3M0 17h3M8 17h3M21 17h3M29 17h3M0 18h3M8 18h3M21 18h3M29 18h3M0 19h3M11 19h2M19 19h2M29 19h3M0 20h3M11 20h2M19 20h2M29 20h3M0 21h3M29 21h3M0 22h3M29 22h3M0 23h3M29 23h3M0 24h3M5 24h6M13 24h6M21 24h6M29 24h3M0 25h3M5 25h6M13 25h6M21 25h6M29 25h3M0 26h3M5 26h6M13 26h6M21 26h6M29 26h3M0 27h3M5 27h3M13 27h6M24 27h3M29 27h3M0 28h3M5 28h3M13 28h6M24 28h3M29 28h3M0 29h32M0 30h32M0 31h32" />
<path stroke="#39e600" d="M3 3h2M13 3h6M27 3h2M3 4h2M13 4h6M27 4h2M5 5h6M21 5h6M5 6h6M21 6h6M5 7h6M21 7h6M11 8h2M19 8h2M11 9h2M19 9h2M11 10h2M19 10h2M8 11h3M13 11h6M21 11h3M8 12h3M13 12h6M21 12h3M3 13h2M27 13h2M3 14h2M27 14h2M3 15h2M27 15h2M5 16h3M24 16h3M5 17h3M24 17h3M5 18h3M24 18h3M8 19h3M21 19h3M8 20h3M21 20h3M11 21h2M19 21h2M11 22h2M19 22h2M11 23h2M19 23h2M8 27h3M21 27h3M8 28h3M21 28h3" />
<path stroke="#9fff80" d="M3 5h2M13 5h6M27 5h2M3 6h2M13 6h6M27 6h2M3 7h2M13 7h6M27 7h2M3 8h5M24 8h5M3 9h5M24 9h5M3 10h5M24 10h5M11 11h2M19 11h2M11 12h2M19 12h2M11 13h10M11 14h10M11 15h10M3 16h2M11 16h10M27 16h2M3 17h2M11 17h10M27 17h2M3 18h2M11 18h10M27 18h2M3 19h5M13 19h6M24 19h5M3 20h5M13 20h6M24 20h5M3 21h8M13 21h6M21 21h8M3 22h8M13 22h6M21 22h8M3 23h8M13 23h6M21 23h8M3 24h2M11 24h2M19 24h2M27 24h2M3 25h2M11 25h2M19 25h2M27 25h2M3 26h2M11 26h2M19 26h2M27 26h2M3 27h2M11 27h2M19 27h2M27 27h2M3 28h2M11 28h2M19 28h2M27 28h2" />
</svg>