<?xml version="1.0" encoding="utf-8"?>
<!-- Generator: Adobe Illustrator 25.4.0, SVG Export Plug-In . SVG Version: 6.00 Build 0)  -->
<svg version="1.1" id="Layer_1" xmlns="http://www.w3.org/2000/svg" xmlns:xlink="http://www.w3.org/1999/xlink" x="0px" y="0px"
	 viewBox="0 0 34 34" style="enable-background:new 0 0 34 34;" xml:space="preserve">
<style type="text/css">
	.st0{fill:#0A001A;}
	.st1{fill:#5800E5;}
	.st2{fill:#AF7FFE;}
</style>
<g>
	<path class="st0" d="M17,34c-3.9,0-7.8,0-11.7,0c-0.3,0-0.4-0.1-0.4-0.4c0-1.1,0-2.2,0-3.3c0-0.2-0.2-0.4-0.4-0.4
		c-1.1,0-2.2,0-3.3,0c-0.2,0-0.3-0.1-0.3-0.3c0-5.2,0-10.3,0-15.5c0-0.2,0.1-0.3,0.3-0.3c1.1,0,2.2,0,3.3,0c0.3,0,0.4-0.2,0.4-0.4
		c0-3.8,0-7.6,0-11.4c0-0.3,0.1-0.4,0.4-0.4c7.8,0,15.6,0,23.4,0c0.1,0,0.1,0,0.2,0c0.2,0,0.3,0.1,0.3,0.3c0,3.8,0,7.6,0,11.4
		c0,0.3,0.2,0.5,0.5,0.5c1.1,0,2.2,0,3.3,0c0.2,0,0.3,0.1,0.3,0.3c0,5.1,0,10.3,0,15.4c0,0.2-0.1,0.3-0.3,0.3c-1.1,0-2.2,0-3.3,0
		c-0.3,0-0.4,0.2-0.4,0.4c0,1.1,0,2.2,0,3.3c0,0.2-0.1,0.3-0.3,0.3C24.8,34,20.9,34,17,34z M25.2,9.8c0-1.2,0-2.5,0-3.7
		c0-0.2-0.2-0.4-0.4-0.4c-1.1,0-2.2,0-3.3,0c-0.3,0-0.5,0.2-0.5,0.5c0,1,0,2,0,3c0,0.1,0,0.2,0,0.3c0,0.2-0.1,0.3-0.3,0.3
		c-2.5,0-4.9,0-7.4,0c-0.1,0-0.2-0.1-0.3-0.1c0-0.1,0-0.1,0-0.2c0-1.1,0-2.2,0-3.3c0-0.2-0.2-0.4-0.4-0.4c-1.1,0-2.2,0-3.4,0
		c-0.1,0-0.2,0-0.3,0.1C8.9,5.8,8.8,5.9,8.8,6.1c0,1.3,0,2.7,0,4c0,1.3,0,2.6,0.1,4c0.1,1.2,0,2.3,0,3.5c0,0.2-0.1,0.2-0.2,0.3
		c0,0-0.1,0-0.1,0c-1.1,0-2.2,0-3.3,0c-0.3,0-0.5,0.2-0.5,0.5c0,1.4,0,2.8,0,4.2c0,1,0,2.1,0,3.1c0,0.2,0.2,0.4,0.4,0.4
		c1.2,0,2.3,0,3.5,0c0.2,0,0.2,0,0.2-0.2c0-1.5,0-2.9,0.1-4.4c0.1-0.8,0-1.6,0-2.3c0-0.3,0-0.6,0-0.9c0-0.2,0.1-0.3,0.3-0.3
		c1.1,0,2.2,0,3.2,0c0.4,0,0.5,0,0.5-0.5c0-1.1,0-2.1,0-3.2c0-0.2,0.1-0.4,0.4-0.4c2.5,0,4.9,0,7.4,0c0.2,0,0.4,0.2,0.4,0.4
		c0,1.1,0,2.2,0,3.4c0,0.3,0,0.3,0.3,0.3c1.1,0,2.2,0,3.3,0c0.1,0,0.1,0,0.2,0c0.1,0,0.2,0.1,0.2,0.2c0,1.4,0,2.8,0.1,4.3
		c0.1,1,0,1.9,0,2.9c0,0.2,0,0.3,0,0.5c0,0.1,0.1,0.2,0.2,0.2c1.2,0,2.3,0,3.5,0c0.1,0,0.3-0.1,0.3-0.3c0-1.4,0-2.7,0.1-4.1
		c0.1-1.1,0-2.2,0-3.3c0-0.3-0.2-0.4-0.4-0.4c-1.1,0-2.3,0-3.4,0c-0.2,0-0.2-0.1-0.3-0.2c0,0,0-0.1,0-0.1c0-1.3,0-2.7,0.1-4
		C25.2,12.2,25.2,11,25.2,9.8z M17,25.9c-2.6,0-5.1,0-7.7,0c-0.1,0-0.1,0-0.2,0c-0.1,0-0.2,0.1-0.2,0.2c0,0,0,0.1,0,0.1
		c0,1.1,0,2.2,0,3.3c0,0.2,0.2,0.4,0.4,0.4c5.1,0,10.3,0,15.4,0c0.2,0,0.4-0.1,0.4-0.4c0-1.1,0-2.3,0-3.4c0-0.2-0.1-0.3-0.3-0.3
		c0,0-0.1,0-0.1,0C22.2,25.9,19.6,25.9,17,25.9z M17,17.9c-1.2,0-2.5,0-3.7,0c-0.3,0-0.3,0.1-0.3,0.3c0,1.1,0,2.2,0,3.3
		c0,0.2,0.1,0.4,0.4,0.4c2.4,0,4.9,0,7.3,0c0.2,0,0.4-0.1,0.4-0.4c0-1.1,0-2.2,0-3.3c0-0.3-0.1-0.3-0.4-0.3
		C19.5,17.9,18.2,17.9,17,17.9z"/>
	<path class="st1" d="M25.2,9.8c0,1.2,0.1,2.4,0,3.7c-0.1,1.3,0,2.7-0.1,4c0,0,0,0.1,0,0.1c0,0.2,0.1,0.2,0.3,0.2c1.1,0,2.3,0,3.4,0
		c0.3,0,0.4,0.2,0.4,0.4c0,1.1,0.1,2.2,0,3.3c-0.1,1.4,0,2.7-0.1,4.1c0,0.1-0.1,0.3-0.3,0.3c-1.2,0-2.3,0-3.5,0
		c-0.1,0-0.2-0.1-0.2-0.2c0-0.2,0-0.3,0-0.5c0-1,0.1-2,0-2.9c-0.1-1.4,0-2.9-0.1-4.3c0-0.1-0.1-0.2-0.2-0.2c-0.1,0-0.1,0-0.2,0
		c-1.1,0-2.2,0-3.3,0c-0.3,0-0.3,0-0.3-0.3c0-1.1,0-2.2,0-3.4c0-0.2-0.2-0.4-0.4-0.4c-2.5,0-4.9,0-7.4,0c-0.2,0-0.4,0.1-0.4,0.4
		c0,1.1,0,2.1,0,3.2c0,0.4,0,0.5-0.5,0.5c-1.1,0-2.2,0-3.2,0C9,17.8,9,17.9,9,18.1c0,0.3,0,0.6,0,0.9c0,0.8,0,1.6,0,2.3
		c-0.1,1.5,0,2.9-0.1,4.4c0,0.2,0,0.2-0.2,0.2c-1.2,0-2.3,0-3.5,0c-0.2,0-0.4-0.2-0.4-0.4c0-1,0-2.1,0-3.1c-0.1-1.4,0-2.8,0-4.2
		c0-0.3,0.2-0.5,0.5-0.5c1.1,0,2.2,0,3.3,0c0,0,0.1,0,0.1,0c0.2,0,0.2-0.1,0.2-0.3c0-1.2,0.1-2.3,0-3.5c-0.1-1.3,0-2.6-0.1-4
		c0-1.3,0-2.7,0-4c0-0.2,0-0.3,0.2-0.4c0.1-0.1,0.2-0.1,0.3-0.1c1.1,0,2.2,0,3.4,0C12.8,5.6,13,5.8,13,6c0,1.1,0,2.2,0,3.3
		c0,0.1,0,0.2,0,0.2c0.1,0.1,0.1,0.1,0.3,0.1c2.5,0,4.9,0,7.4,0c0.2,0,0.3-0.1,0.3-0.3c0-0.1,0-0.2,0-0.3c0-1,0-2,0-3
		c0-0.3,0.2-0.5,0.5-0.5c1.1,0,2.2,0,3.3,0c0.2,0,0.4,0.2,0.4,0.4C25.2,7.3,25.2,8.5,25.2,9.8z M9,9.7c0,1.2,0,2.4,0,3.6
		c0,0,0,0.1,0,0.1c0,0.2,0.2,0.3,0.3,0.3c1.1,0,2.2,0,3.3,0c0.2,0,0.4-0.2,0.4-0.4c0-1.1,0-2.2,0-3.3c0-0.1,0-0.1,0-0.2
		c-0.1-0.2-0.1-0.4-0.1-0.6c0-1.1,0-2.2,0-3.3c0-0.2-0.1-0.3-0.3-0.3c-1.1,0-2.2,0-3.3,0C9.1,5.7,9,5.9,9,6.1C9,7.3,9,8.5,9,9.7z
		 M25,9.7c0-1.2,0-2.5,0-3.7c0-0.2-0.1-0.3-0.3-0.3c-1.1,0-2.2,0-3.3,0c-0.2,0-0.3,0.1-0.3,0.3c0,1.1,0,2.1,0,3.2c0,0.1,0,0.1,0,0.2
		c0,0.2-0.1,0.4-0.1,0.6c0,1.1,0,2.2,0,3.3c0,0.2,0.2,0.4,0.4,0.4c1.1,0,2.2,0,3.3,0c0,0,0.1,0,0.1,0c0.1-0.1,0.2-0.2,0.2-0.3
		C25,12.2,25,11,25,9.7z M25.2,19.9c0,0.6,0,1.1,0,1.7c0,0.2,0.1,0.3,0.3,0.3c1.1,0,2.1,0,3.2,0c0.3,0,0.4-0.1,0.4-0.4
		c0-1.1,0-2.2,0-3.3c0-0.2-0.1-0.3-0.3-0.3c-0.1,0-0.2,0-0.3,0c-1,0-2,0-3,0c-0.2,0-0.3,0.1-0.3,0.3C25.2,18.8,25.2,19.3,25.2,19.9z
		 M8.8,19.9c0-0.6,0-1.1,0-1.7c0-0.2-0.1-0.3-0.3-0.3c-1.1,0-2.2,0-3.3,0c-0.2,0-0.3,0.1-0.3,0.3c0,1.1,0,2.2,0,3.4
		c0,0.2,0.1,0.3,0.3,0.3c1.1,0,2.2,0,3.3,0c0.2,0,0.3-0.1,0.3-0.3C8.8,21,8.8,20.4,8.8,19.9z"/>
	<path class="st1" d="M17,25.9c2.6,0,5.1,0,7.7,0c0,0,0.1,0,0.1,0c0.2,0,0.3,0.1,0.3,0.3c0,1.1,0,2.3,0,3.4c0,0.2-0.2,0.4-0.4,0.4
		c-5.1,0-10.3,0-15.4,0c-0.2,0-0.4-0.2-0.4-0.4c0-1.1,0-2.2,0-3.3c0,0,0-0.1,0-0.1c0-0.1,0-0.2,0.2-0.2c0.1,0,0.1,0,0.2,0
		C11.9,25.9,14.4,25.9,17,25.9z"/>
	<path class="st1" d="M17,17.9c1.2,0,2.4,0,3.7,0c0.3,0,0.4,0.1,0.4,0.3c0,1.1,0,2.2,0,3.3c0,0.2-0.1,0.4-0.4,0.4
		c-2.4,0-4.9,0-7.3,0c-0.2,0-0.4-0.1-0.4-0.4c0-1.1,0-2.2,0-3.3c0-0.3,0.1-0.3,0.3-0.3C14.5,17.9,15.8,17.9,17,17.9z"/>
	<path class="st2" d="M9,9.7c0-1.2,0-2.4,0-3.7c0-0.2,0.1-0.3,0.3-0.3c1.1,0,2.2,0,3.3,0c0.2,0,0.3,0.1,0.3,0.3c0,1.1,0,2.2,0,3.3
		c0,0.2,0,0.4,0.1,0.6c0,0,0,0.1,0,0.2c0,1.1,0,2.2,0,3.3c0,0.2-0.2,0.4-0.4,0.4c-1.1,0-2.2,0-3.3,0c-0.2,0-0.3-0.1-0.3-0.3
		c0,0,0-0.1,0-0.1C9,12.2,9,10.9,9,9.7z"/>
	<path class="st2" d="M25,9.7c0,1.2,0,2.4,0,3.7c0,0.1,0,0.3-0.2,0.3c0,0-0.1,0-0.1,0c-1.1,0-2.2,0-3.3,0c-0.2,0-0.4-0.2-0.4-0.4
		c0-1.1,0-2.2,0-3.3c0-0.2,0-0.4,0.1-0.6c0-0.1,0-0.1,0-0.2c0-1.1,0-2.1,0-3.2c0-0.2,0.1-0.3,0.3-0.3c1.1,0,2.2,0,3.3,0
		c0.2,0,0.3,0.1,0.3,0.3C25,7.3,25,8.5,25,9.7z"/>
	<path class="st2" d="M25.2,19.9c0-0.6,0-1.1,0-1.7c0-0.2,0.1-0.3,0.3-0.3c1,0,2,0,3,0c0.1,0,0.2,0,0.3,0c0.2,0,0.3,0.1,0.3,0.3
		c0,1.1,0,2.2,0,3.3c0,0.2-0.1,0.4-0.4,0.4c-1.1,0-2.1,0-3.2,0c-0.2,0-0.3-0.1-0.3-0.3C25.2,21,25.2,20.4,25.2,19.9z"/>
	<path class="st2" d="M8.8,19.9c0,0.6,0,1.1,0,1.7c0,0.2-0.1,0.3-0.3,0.3c-1.1,0-2.2,0-3.3,0c-0.2,0-0.3-0.1-0.3-0.3
		c0-1.1,0-2.2,0-3.4c0-0.2,0.1-0.3,0.3-0.3c1.1,0,2.2,0,3.3,0c0.2,0,0.3,0.1,0.3,0.3C8.8,18.8,8.8,19.3,8.8,19.9z"/>
</g>
</svg>
