<?xml version="1.0" encoding="utf-8"?>
<!-- Generator: Adobe Illustrator 25.4.0, SVG Export Plug-In . SVG Version: 6.00 Build 0)  -->
<svg version="1.1" id="Layer_1" xmlns="http://www.w3.org/2000/svg" xmlns:xlink="http://www.w3.org/1999/xlink" x="0px" y="0px"
	 viewBox="0 0 34 34" style="enable-background:new 0 0 34 34;" xml:space="preserve">
<style type="text/css">
	.st0{fill:#FE857F;}
	.st1{fill:#1A0100;}
	.st2{fill:#B8C2FE;}
	.st3{fill:#36FEDE;}
	.st4{fill:#E50B00;}
</style>
<g>
	<path class="st0" d="M-0.1,34.1c0,0,0-0.1,0-0.1c0-11.3,0-22.7,0-34c0-0.1,0-0.1,0.1-0.1c11.3,0,22.7,0,34,0c0.1,0,0.1,0,0.1,0.1
		c0,11.3,0,22.7,0,34c0,0.1,0,0.1-0.2,0.1C22.6,34.1,11.2,34.1-0.1,34.1z M-0.1,17c0,0.8,0,1.5,0,2.3c0,4.8,0,9.6,0,14.4
		c0,0.1,0,0.2,0.1,0.3c0.1,0.1,0.2,0.1,0.3,0.1c11.1,0,22.3,0,33.4,0c0,0,0.1,0,0.1,0c0.1,0,0.1,0,0.2-0.1c0.1-0.1,0.1-0.2,0.1-0.3
		c0-8.5,0-17,0-25.6c0-2.6,0-5.2,0-7.9c0-0.1,0-0.2-0.1-0.3c-0.1-0.1-0.2-0.1-0.3-0.1c-11.1,0-22.2,0-33.4,0c0,0-0.1,0-0.1,0
		C0.1-0.1,0.1,0,0,0C0,0.1-0.1,0.2-0.1,0.3C-0.1,5.9-0.1,11.4-0.1,17z"/>
	<path class="st1" d="M-0.1,17c0-5.6,0-11.1,0-16.7C-0.1,0.2,0,0.1,0,0c0.1,0,0.1-0.1,0.2-0.1c0,0,0.1,0,0.1,0c11.1,0,22.2,0,33.4,0
		c0.1,0,0.2,0,0.3,0.1c0.1,0.1,0.1,0.2,0.1,0.3c0,2.6,0,5.2,0,7.9c0,8.5,0,17,0,25.6c0,0.1,0,0.2-0.1,0.3c0,0-0.1,0.1-0.2,0.1
		c0,0-0.1,0-0.1,0c-11.1,0-22.3,0-33.4,0c-0.1,0-0.2,0-0.3-0.1c-0.1-0.1-0.1-0.2-0.1-0.3c0-4.8,0-9.6,0-14.4
		C-0.1,18.6-0.1,17.8-0.1,17z M25.7,17.1C25.7,17.1,25.7,17,25.7,17.1C25.7,17.1,25.7,17.1,25.7,17.1c-0.1,0.1-0.1,0.1-0.2,0.2
		c-0.1,0,0,0.1,0,0.2c0,1.1,0,2.3,0,3.4c0,0.1,0,0.1,0,0.2c0,0-0.1,0.1-0.1,0.1c0,0,0,0,0,0c0,0,0,0,0,0c-0.1,0-0.1,0.1-0.2,0.1
		c0-0.1-0.1,0-0.2,0c-1.2,0-2.3,0-3.5,0c-0.4,0-0.4,0.1-0.4,0.4c0,1.5,0,3,0,4.4c0,1.1,0,2.2,0,3.3c0,0.2,0.2,0.4,0.4,0.4
		c2.6,0,5.2,0,7.7,0c0.3,0,0.4-0.2,0.4-0.4c0-1.4,0-2.8,0-4.3c0-2.6,0-5.2,0-7.7c0-0.1,0-0.1,0-0.2c0,0,0-0.1-0.1-0.1c0,0,0,0,0-0.1
		c0-0.1,0-0.1-0.1-0.1c0,0,0,0-0.1,0c0-0.1-0.1-0.1-0.1-0.1c-1.2,0-2.4,0-3.6,0C25.9,17,25.8,17,25.7,17.1
		C25.8,17,25.8,17.1,25.7,17.1z M4.2,8.3c-0.1,0-0.1,0.1-0.1,0.2c0,0.1,0,0.3,0,0.4c0,1.1,0,2.2,0,3.4c0,0.3,0.1,0.4,0.4,0.4
		c2.6,0,5.1,0,7.7,0c0.2,0,0.4,0.1,0.4,0.4c0,2.6,0,5.2,0,7.8c0,0,0,0.1,0,0.1c0,0.2,0.1,0.3,0.3,0.3c2.7,0,5.3,0,8,0
		c0.2,0,0.3-0.1,0.3-0.3c0-1.2,0-2.4,0-3.6c0,0,0-0.1,0-0.1c-0.1-0.1,0-0.2,0-0.3c0-0.1,0.1-0.2,0.1-0.3c0-1.2,0-2.3,0-3.5
		c0-0.3,0.1-0.4,0.4-0.4c2.6,0,5.1,0,7.7,0c0.3,0,0.4-0.2,0.4-0.4c0-1.3,0-2.6,0-3.9c0-0.1,0-0.1-0.1-0.1c0-0.1,0-0.2,0-0.2
		c0-1.2,0-2.4,0-3.5c0-0.2-0.2-0.4-0.4-0.4c-8.3,0-16.6,0-24.9,0c-0.2,0-0.4,0.2-0.4,0.4c0,1.2,0,2.3,0,3.5C4.1,8.2,4.2,8.2,4.2,8.3
		z M8.4,29.9c1.3,0,2.6,0,3.9,0c0.2,0,0.4-0.2,0.4-0.4c0-1.2,0-2.4,0-3.6c0-0.2-0.1-0.3,0-0.5c0-0.1,0-0.2,0-0.3c0-1,0-2,0-3
		c0-0.2,0-0.3,0-0.5c0-0.3-0.1-0.4-0.4-0.4c-1.2,0-2.3,0-3.5,0c-0.2,0-0.4-0.2-0.4-0.4c0-1.2,0-2.3,0-3.5c0-0.2-0.2-0.4-0.4-0.4
		c-1.2,0-2.4,0-3.5,0c-0.1,0-0.2,0-0.2,0.1c-0.1,0.1-0.2,0.2-0.2,0.4c0,2.7,0,5.5,0,8.2c0,1.3,0,2.5,0,3.8c0,0.3,0.2,0.4,0.4,0.4
		C5.8,29.9,7.1,29.9,8.4,29.9z"/>
	<path class="st2" d="M4.2,8.3c0-0.1,0-0.2,0-0.2c0-1.2,0-2.3,0-3.5c0-0.2,0.2-0.4,0.4-0.4c8.3,0,16.6,0,24.9,0
		c0.2,0,0.4,0.2,0.4,0.4c0,1.2,0,2.4,0,3.5c0,0.1,0,0.2,0,0.2c-0.1,0.1-0.3,0.1-0.4,0.1c-2.6,0-5.1,0-7.7,0c-0.3,0-0.5,0.2-0.5,0.5
		c0,0.7,0,1.4,0,2.1c0,0.7,0,1.4,0,2.1c0,1.2,0,2.3,0,3.5c0,0.2-0.1,0.3-0.3,0.3c-1.6,0-3.2,0-4.8,0c-1,0-2,0-3,0
		c-0.2,0-0.3-0.1-0.3-0.3c0-0.5,0-1,0-1.4c0-0.5,0-1,0-1.4c0-0.5-0.1-1-0.1-1.4c0-1.2,0-2.3,0-3.5c0-0.3-0.1-0.5-0.4-0.5
		c-2.5,0-5,0-7.5,0C4.5,8.4,4.3,8.5,4.2,8.3z"/>
	<path class="st3" d="M4.2,8.3c0.2,0.2,0.3,0.1,0.5,0.1c2.5,0,5,0,7.5,0c0.3,0,0.4,0.1,0.4,0.5c0,1.2,0,2.3,0,3.5
		c0,0.5,0.1,0.9,0.1,1.4c0,0.5,0,1,0,1.4c0,0.5,0,1,0,1.4c0,0.2,0.1,0.3,0.3,0.3c1,0,2,0,3,0c1.6,0,3.2,0,4.8,0
		c0.2,0,0.3-0.1,0.3-0.3c0-1.2,0-2.3,0-3.5c0-0.7,0-1.4,0-2.1c0-0.7,0-1.4,0-2.1c0-0.3,0.2-0.5,0.5-0.5c2.6,0,5.1,0,7.7,0
		c0.1,0,0.3,0,0.4-0.1c0.1,0,0.1,0.1,0.1,0.1c-0.1,1.3,0,2.6,0,3.9c0,0.3-0.2,0.4-0.4,0.4c-2.6,0-5.1,0-7.7,0
		c-0.3,0-0.4,0.1-0.4,0.4c0,1.2,0,2.3,0,3.5c0,0.1,0,0.2-0.1,0.3c0,0.1-0.1,0.2,0,0.3c0,0,0,0.1,0,0.1c0,1.2,0,2.4,0,3.6
		c0,0.2-0.1,0.3-0.3,0.3c-2.7,0-5.3,0-8,0c-0.2,0-0.3-0.1-0.3-0.3c0,0,0-0.1,0-0.1c0-2.6,0-5.2,0-7.8c0-0.3-0.1-0.4-0.4-0.4
		c-2.6,0-5.1,0-7.7,0c-0.3,0-0.4-0.2-0.4-0.4c0-1.1,0-2.2,0-3.4c0-0.1,0-0.3,0-0.4C4.1,8.4,4.1,8.4,4.2,8.3z"/>
	<path class="st3" d="M25.5,21.2C25.5,21.2,25.5,21.1,25.5,21.2c0.2-0.1,0.1-0.2,0.1-0.3c0-1.2,0-2.3,0-3.5c0,0,0-0.1,0-0.1
		c0.1-0.1,0.1-0.2,0.2-0.2c0,0,0,0,0,0c0,0,0,0,0.1,0c0,0,0.1,0,0.2,0c1,0,2,0,3.1,0c0.2,0,0.4,0,0.6,0c0,0,0,0,0.1,0
		c0,0,0,0.1,0.1,0.1c0,0,0,0,0,0.1c0,0.1,0,0.1,0,0.2c0,2.6,0,5.2,0,7.8c0,0.3-0.1,0.4-0.4,0.4c-2.6,0-5.1,0-7.7,0
		c-0.3,0-0.4-0.1-0.4-0.4c0-1.2,0-2.3,0-3.5c0-0.3,0.1-0.4,0.4-0.4c1.2,0,2.3,0,3.5,0c0,0,0.1,0,0.2,0
		C25.3,21.3,25.4,21.2,25.5,21.2C25.5,21.2,25.5,21.2,25.5,21.2z"/>
	<path class="st3" d="M8.4,29.9c-1.3,0-2.6,0-3.9,0c-0.2,0-0.4-0.2-0.4-0.4c0-1.3,0-2.5,0-3.8c0-2.7,0-5.5,0-8.2
		c0-0.2,0-0.3,0.2-0.4C4.3,17,4.4,17,4.5,17c1.2,0,2.4,0,3.5,0c0.2,0,0.4,0.2,0.4,0.4c0,1.2,0,2.3,0,3.5c0,0.2,0.2,0.4,0.4,0.4
		c1.2,0,2.3,0,3.5,0c0.3,0,0.4,0.1,0.4,0.4c0,0.2,0,0.3,0,0.5c0,1,0,2,0,3c0,0.1,0,0.2,0,0.3c0,0.2,0,0.3,0,0.5c0,1.2,0,2.4,0,3.6
		c0,0.2-0.2,0.4-0.4,0.4C11,29.9,9.7,29.9,8.4,29.9z M4.2,21.3c0,1.3,0,2.6,0,3.9c0,0.2,0.1,0.4,0.4,0.4c2.6,0,5.1,0,7.7,0
		c0.3,0,0.4-0.1,0.4-0.4c0-1.2,0-2.3,0-3.5c0-0.3-0.1-0.4-0.4-0.4c-1.2,0-2.3,0-3.5,0c-0.3,0-0.4-0.2-0.4-0.4c0-1.2,0-2.3,0-3.5
		c0-0.2-0.1-0.4-0.4-0.4c-1.2,0-2.3,0-3.5,0c-0.2,0-0.4,0.1-0.4,0.4C4.2,18.7,4.2,20,4.2,21.3z"/>
	<path class="st2" d="M25.3,21.3c0,0-0.1,0-0.2,0c-1.2,0-2.3,0-3.5,0c-0.3,0-0.4,0.1-0.4,0.4c0,1.2,0,2.3,0,3.5
		c0,0.3,0.1,0.4,0.4,0.4c2.6,0,5.1,0,7.7,0c0.3,0,0.4-0.1,0.4-0.4c0-2.6,0-5.2,0-7.8c0-0.1,0-0.1,0-0.2c0.1,0,0.1,0,0.1,0.1
		c0,0.1,0,0.1,0,0.2c0,2.6,0,5.2,0,7.7c0,1.4,0,2.8,0,4.3c0,0.3-0.2,0.4-0.4,0.4c-2.6,0-5.2,0-7.7,0c-0.2,0-0.4-0.2-0.4-0.4
		c0-1.1,0-2.2,0-3.3c0-1.5,0-3,0-4.4c0-0.3,0.1-0.4,0.4-0.4c1.2,0,2.3,0,3.5,0C25.2,21.3,25.2,21.2,25.3,21.3z"/>
	<path class="st4" d="M29.6,17.1c-0.2,0-0.4,0-0.6,0c-1,0-2,0-3.1,0c-0.1,0-0.1,0-0.2,0c0-0.1,0.1,0,0.1,0c1.2,0,2.4,0,3.6,0
		C29.5,17,29.6,17,29.6,17.1z"/>
	<path class="st4" d="M25.6,17.3c0,0,0,0.1,0,0.1c0,1.2,0,2.3,0,3.5c0,0.1,0,0.1-0.1,0.2c0-0.1,0-0.1,0-0.2c0-1.1,0-2.3,0-3.4
		C25.5,17.4,25.5,17.3,25.6,17.3z"/>
	<path class="st4" d="M29.7,17.2C29.7,17.2,29.7,17.1,29.7,17.2C29.7,17.1,29.8,17.1,29.7,17.2z"/>
	<path class="st4" d="M25.7,17.1C25.8,17.1,25.7,17.1,25.7,17.1C25.7,17.1,25.7,17.1,25.7,17.1C25.7,17,25.7,17.1,25.7,17.1z"/>
	<path class="st4" d="M25.5,21.2C25.5,21.2,25.5,21.2,25.5,21.2C25.4,21.2,25.4,21.2,25.5,21.2C25.4,21.2,25.4,21.2,25.5,21.2z"/>
	<path class="st2" d="M4.2,21.3c0-1.3,0-2.6,0-3.9c0-0.2,0.1-0.4,0.4-0.4c1.2,0,2.3,0,3.5,0c0.2,0,0.4,0.1,0.4,0.4
		c0,1.2,0,2.3,0,3.5c0,0.3,0.2,0.4,0.4,0.4c1.2,0,2.3,0,3.5,0c0.3,0,0.4,0.1,0.4,0.4c0,1.2,0,2.3,0,3.5c0,0.3-0.1,0.4-0.4,0.4
		c-2.6,0-5.1,0-7.7,0c-0.2,0-0.4-0.1-0.4-0.4C4.2,23.9,4.2,22.6,4.2,21.3z"/>
</g>
</svg>
