<svg xmlns="http://www.w3.org/2000/svg" viewBox="0 -0.5 32 32" shape-rendering="crispEdges">
<metadata>Made with Pixels to Svg https://codepen.io/shshaw/pen/XbxvNj</metadata>
<path stroke="#001a10" d="M0 0h32M0 1h32M0 2h32M0 3h3M8 3h3M21 3h3M29 3h3M0 4h3M8 4h3M21 4h3M29 4h3M0 5h5M8 5h3M13 5h6M21 5h3M27 5h5M0 6h5M8 6h3M13 6h6M21 6h3M27 6h5M0 7h5M8 7h3M13 7h6M21 7h3M27 7h5M3 8h8M21 8h8M3 9h8M21 9h8M3 10h8M21 10h8M3 11h2M27 11h2M3 12h2M27 12h2M0 13h5M27 13h5M0 14h5M27 14h5M0 15h5M27 15h5M0 16h3M5 16h3M13 16h6M24 16h3M29 16h3M0 17h3M5 17h3M13 17h6M24 17h3M29 17h3M0 18h3M5 18h3M13 18h6M24 18h3M29 18h3M0 19h3M11 19h2M19 19h2M29 19h3M0 20h3M11 20h2M19 20h2M29 20h3M0 21h3M13 21h6M29 21h3M0 22h3M13 22h6M29 22h3M0 23h3M13 23h6M29 23h3M0 24h3M8 24h3M21 24h3M29 24h3M0 25h3M8 25h3M21 25h3M29 25h3M0 26h3M8 26h3M21 26h3M29 26h3M0 27h3M5 27h6M13 27h6M21 27h6M29 27h3M0 28h3M5 28h6M13 28h6M21 28h6M29 28h3M0 29h32M0 30h32M0 31h32" />
<path stroke="#00e691" d="M3 3h5M11 3h10M24 3h5M3 4h5M11 4h10M24 4h5M13 8h6M13 9h6M13 10h6M5 11h6M21 11h6M5 12h6M21 12h6M3 16h2M27 16h2M3 17h2M27 17h2M3 18h2M27 18h2M5 19h3M13 19h6M24 19h3M5 20h3M13 20h6M24 20h3M11 21h2M19 21h2M11 22h2M19 22h2M11 23h2M19 23h2M13 24h6M13 25h6M13 26h6" />
<path stroke="#80ffd0" d="M5 5h3M11 5h2M19 5h2M24 5h3M5 6h3M11 6h2M19 6h2M24 6h3M5 7h3M11 7h2M19 7h2M24 7h3M11 8h2M19 8h2M11 9h2M19 9h2M11 10h2M19 10h2M11 11h10M11 12h10M5 13h22M5 14h22M5 15h22M8 16h5M19 16h5M8 17h5M19 17h5M8 18h5M19 18h5M3 19h2M8 19h3M21 19h3M27 19h2M3 20h2M8 20h3M21 20h3M27 20h2M3 21h8M21 21h8M3 22h8M21 22h8M3 23h8M21 23h8M3 24h5M11 24h2M19 24h2M24 24h5M3 25h5M11 25h2M19 25h2M24 25h5M3 26h5M11 26h2M19 26h2M24 26h5M3 27h2M11 27h2M19 27h2M27 27h2M3 28h2M11 28h2M19 28h2M27 28h2" />
</svg>