<?xml version="1.0" encoding="utf-8"?>
<!-- Generator: Adobe Illustrator 25.4.0, SVG Export Plug-In . SVG Version: 6.00 Build 0)  -->
<svg version="1.1" id="Layer_1" xmlns="http://www.w3.org/2000/svg" xmlns:xlink="http://www.w3.org/1999/xlink" x="0px" y="0px"
	 viewBox="0 0 60 60" style="enable-background:new 0 0 60 60;" xml:space="preserve">
<style type="text/css">
	.st0{fill:#B8C2FE;}
	.st1{fill:#FED30B;}
	.st2{fill:#0058F7;}
	.st3{fill:#36FEDE;}
	.st4{fill:#FEA004;}
</style>
<g>
	<path d="M58.2,24.2c0-0.1,0-0.2-0.2-0.2c-1.2,0-2.4,0-3.7,0c-0.1,0-0.2,0-0.2,0.2c0,2.7,0,5.3,0,8c0,1.3,0,2.6,0,3.9l0,0
		c-1.3,0-2.7,0-4,0c0-1.3,0-2.6,0-3.9c0-0.1,0-0.2-0.2-0.2c-1.2,0-2.5,0-3.7,0c-0.1,0-0.2,0-0.2,0.2c0,1.3,0,2.6,0,3.9
		c-0.2,0-0.4,0-0.7,0c-1.1,0-2.3,0-3.4,0c0-1.3,0-2.6,0-3.9c0-0.1-0.1-0.1-0.2-0.1c-1.2,0-2.5,0-3.7,0c-0.1,0-0.2,0-0.2,0.2
		c0,1.2,0,2.5,0,3.7c0,0.2,0,0.2,0.2,0.2c1.2,0,2.4,0,3.6,0c0.1,0,0.2,0,0.2,0c0,1.3,0,2.7,0,4c-0.4,0-0.7,0-1.1,0c-1,0-2,0-3,0
		c-0.1,0-0.1,0-0.2,0c-1.3,0-2.6,0-3.8,0c0-1.3,0-2.6,0-3.9c0-0.1,0-0.2-0.2-0.2c-2.6,0-5.1,0-7.7,0c-0.1,0-0.2,0-0.2,0.2
		c0,1.3,0,2.6,0,3.9c-0.4,0-0.7,0-1.1,0c-1,0-2,0-3,0c0,0-0.1,0-0.1,0c-1.3,0-2.6,0-3.9,0c0-0.2,0-0.4,0-0.5c0-1.2,0-2.3,0-3.5
		c1.3,0,2.6,0,3.9,0c0.1,0,0.1-0.1,0.1-0.1c0-1.2,0-2.5,0-3.7c0-0.1,0-0.2-0.2-0.2c-1.2,0-2.5,0-3.7,0c-0.1,0-0.2,0-0.2,0.2
		c0,1.2,0,2.4,0,3.6c0,0.1,0,0.2,0,0.3c-1.3,0-2.7,0-4,0c0-1.3,0-2.6,0-3.9c0-0.1,0-0.2-0.2-0.2c-1.2,0-2.5,0-3.7,0
		c-0.1,0-0.2,0-0.2,0.2c0,1.3,0,2.6,0,3.9c-1.3,0-2.7,0-4,0l0,0c0-1.4,0-2.8,0-4.1c0-2.6,0-5.2,0-7.8c0-0.1,0-0.2-0.2-0.2
		c-1.3,0-2.5,0-3.8,0c0-2.7,0-5.4,0-8.1c1.3,0,2.6,0,4,0c0,1.3,0,2.6,0,3.9c0,0.1,0,0.1,0.1,0.1c0.8,0,1.6,0,2.4,0c0.5,0,1,0,1.4,0
		c0,0.1,0,0.2,0,0.3c0,1.2,0,2.5,0,3.7c0,0.5,0,1,0,1.6c0,0.8,0,1.6,0,2.3c0,0.1,0,0.1,0.1,0.1c0.2,0,0.3,0,0.5,0c1.1,0,2.3,0,3.4,0
		c0.2,0,0.5,0,0.7,0c1.1,0,2.2,0,3.3,0c0.3,0,0.5,0,0.8,0c1.1,0,2.2,0,3.3,0c0,0,0.1,0,0.1,0c5.3,0,10.6,0,15.9,0c0,0,0.1,0,0.1,0
		c0.3,0,0.5,0,0.8,0c1.1,0,2.2,0,3.3,0c0.2,0,0.5,0,0.7,0c1.1,0,2.2,0,3.3,0c0.5,0,1.1,0,1.6,0c0.8,0,1.5,0,2.3,0
		c0.1,0,0.1,0,0.1-0.1c0-0.1,0-0.3,0-0.4c0-1.2,0-2.3,0-3.5c0-0.4,0-0.8,0-1.3c0-0.9,0-1.9,0-2.8c0,0,0,0,0,0c1.3,0,2.6,0,3.9,0
		c0.1,0,0.1,0,0.1-0.1c0-1.3,0-2.6,0-3.9c1.3,0,2.5,0,3.8,0"/>
	<path d="M58,44.2c-1.2,0-2.5,0-3.7,0c-0.1,0-0.1,0-0.1,0.1c0,1.2,0,2.5,0,3.7c0,0.1,0,0.2-0.1,0.2c-2.6,0-5.3,0-7.9,0l0,0
		c0-1.3,0-2.7,0-4c1.3,0,2.6,0,3.9,0c0.1,0,0.2,0,0.2-0.2c0-1.3,0-2.6,0-3.9c1.3,0,2.6,0,3.9,0c0.1,0,0.2,0,0.2-0.2
		c0-1.3,0-2.6,0-3.9l0,0c0.6,0,1.2,0,1.8,0c0.7,0,1.5,0,2.2,0"/>
	<path d="M13.8,48.3c-2.6,0-5.3,0-7.9,0c-0.1,0-0.1,0-0.1-0.1c0-1.2,0-2.5,0-3.7c0-0.1,0-0.2-0.2-0.2c-1.3,0-2.5,0-3.8,0
		c0-2.7,0-5.4,0-8.1c1.3,0,2.6,0,4,0l0,0c0,1.3,0,2.6,0,3.9c0,0.1,0,0.2,0.2,0.2c1.3,0,2.6,0,3.9,0c0,1.3,0,2.6,0,3.9
		c0,0.1,0,0.2,0.2,0.2c1.3,0,2.6,0,3.9,0C13.8,45.6,13.8,46.9,13.8,48.3L13.8,48.3z"/>
	<path d="M46.1,48.3c0,1.3,0,2.6,0,3.9c0,0.1,0,0.1-0.1,0.1c-1.2,0-2.5,0-3.7,0c-0.1,0-0.2,0-0.2,0.2c0,1.2,0,2.5,0,3.7
		c-2.7,0-5.4,0-8.1,0c0-1.3,0-2.6,0-3.8c0.1,0,0.1,0,0.2,0c1.2,0,2.5,0,3.7,0c0.1,0,0.2,0,0.2-0.2c0-1.3,0-2.6,0-3.9
		c0.4,0,0.7,0,1.1,0c1,0,2,0,2.9,0c0.1,0,0.1,0,0.2,0C43.5,48.3,44.8,48.3,46.1,48.3L46.1,48.3z"/>
	<path d="M17.9,56.1c0-1.2,0-2.5,0-3.7c0-0.1,0-0.2-0.2-0.2c-1.2,0-2.5,0-3.7,0c-0.1,0-0.2,0-0.2-0.2c0-1.3,0-2.6,0-3.9c0,0,0,0,0,0
		c0.4,0,0.7,0,1.1,0c1,0,2,0,3,0c0.1,0,0.1,0,0.2,0c1.3,0,2.6,0,3.8,0c0,1.2,0,2.5,0,3.7c0,0.3,0,0.3,0.3,0.3c1.2,0,2.5,0,3.7,0
		c0,1.3,0,2.6,0,3.8C23.3,56.1,20.6,56.1,17.9,56.1z"/>
	<path d="M38.1,0c0,1.3,0,2.6,0,3.9l0,0c-0.4,0-0.7,0-1.1,0c-1,0-2,0-3,0c0,0-0.1,0-0.1,0c-2.6,0-5.2,0-7.8,0c0,0-0.1,0-0.1,0
		c-0.1,0-0.1,0-0.2,0c-1.3,0-2.6,0-3.8,0l0,0c0-1.3,0-2.6,0-3.9C27.3,0,32.7,0,38.1,0z"/>
	<path d="M34.1,56.1c0,1.3,0,2.6,0,3.9l0,0c-0.2,0-0.4,0-0.5,0c-0.5,0-1,0-1.5,0c0,0,0,0-0.1,0c-1.3,0-2.6,0-4,0c0,0,0,0-0.1,0
		c0,0-0.1,0-0.1,0c-0.6,0-1.3,0-1.9,0l0,0c0-1.3,0-2.6,0-3.9C28.6,56.1,31.3,56.1,34.1,56.1z"/>
	<path class="st0" d="M26,56.1c0-1.3,0-2.6,0-3.8c0,0,0.1,0,0.1,0c2.6,0,5.2,0,7.8,0c0,0,0.1,0,0.1,0c0,1.3,0,2.6,0,3.8
		C31.3,56.1,28.6,56.1,26,56.1z"/>
	<path class="st0" d="M38.1,28.1c0,0-0.1,0-0.1,0c-5.3,0-10.6,0-15.9,0c0,0-0.1,0-0.1,0c0-1.3,0-2.7,0-4c0.3,0,0.7,0,1,0
		c1,0,2,0,3,0c0,0,0.1,0,0.1,0c2.6,0,5.2,0,7.8,0c0,0,0.1,0,0.1,0c1.3,0,2.7,0,4,0C38.1,25.4,38.1,26.7,38.1,28.1z"/>
	<path class="st1" d="M25.9,40.2c0-1.3,0-2.6,0-3.9c0-0.1,0-0.2,0.2-0.2c2.6,0,5.1,0,7.7,0c0.1,0,0.2,0,0.2,0.2c0,1.3,0,2.6,0,3.9
		l0,0c0,0-0.1,0-0.1,0c-2.6,0-5.2,0-7.8,0C26,40.2,26,40.2,25.9,40.2L25.9,40.2z"/>
	<path class="st1" d="M54.2,16c0,1.3,0,2.6,0,3.9c0,0.1,0,0.1-0.1,0.1c-1.3,0-2.6,0-3.9,0c0,0,0,0,0,0l0,0c0-1.3,0-2.7,0-4
		C51.5,16,52.8,16,54.2,16L54.2,16z"/>
	<path class="st0" d="M9.8,24c0-1.2,0-2.5,0-3.7c0-0.1,0-0.2,0-0.3l0,0c1.3,0,2.7,0,4,0c0,1.3,0,2.7,0,4l0,0C12.5,24,11.2,24,9.8,24
		z"/>
	<path class="st0" d="M50.2,20c0,0.9,0,1.9,0,2.8c0,0.4,0,0.8,0,1.3c-1.3,0-2.7,0-4,0l0,0c0-1.3,0-2.7,0-4C47.5,20,48.8,20,50.2,20
		L50.2,20z"/>
	<path class="st1" d="M9.8,20c-0.5,0-1,0-1.4,0c-0.8,0-1.6,0-2.4,0c-0.1,0-0.1,0-0.1-0.1c0-1.3,0-2.6,0-3.9l0,0c1.3,0,2.7,0,4,0
		C9.8,17.3,9.8,18.7,9.8,20L9.8,20z"/>
	<path class="st0" d="M17.9,28.1c-1.1,0-2.2,0-3.3,0c-0.2,0-0.5,0-0.7,0c0-1.3,0-2.7,0-4l0,0c1.3,0,2.7,0,4,0
		C17.9,25.4,17.9,26.7,17.9,28.1z"/>
	<path class="st2" d="M17.9,28.1c0-1.3,0-2.7,0-4l0,0c1.3,0,2.7,0,4,0l0,0c0,1.3,0,2.7,0,4c-1.1,0-2.2,0-3.3,0
		C18.4,28.1,18.1,28.1,17.9,28.1z"/>
	<path class="st2" d="M38.1,28.1c0-1.3,0-2.7,0-4c0,0,0,0,0,0c1.3,0,2.7,0,4,0l0,0c0,1.3,0,2.7,0,4c-1.1,0-2.2,0-3.3,0
		C38.6,28.1,38.3,28.1,38.1,28.1z"/>
	<path class="st0" d="M42.1,28.1c0-1.3,0-2.7,0-4c1.3,0,2.7,0,4,0l0,0c0,1.3,0,2.7,0,4c-1.1,0-2.2,0-3.3,0
		C42.6,28.1,42.3,28.1,42.1,28.1z"/>
	<path class="st2" d="M46.1,28.1c0-1.3,0-2.7,0-4c1.3,0,2.7,0,4,0c0,1.2,0,2.3,0,3.5c0,0.1,0,0.3,0,0.4c0,0.1,0,0.1-0.1,0.1
		c-0.8,0-1.5,0-2.3,0C47.2,28.1,46.7,28.1,46.1,28.1z"/>
	<path class="st0" d="M9.8,36.2c0-1.3,0-2.6,0-3.9c0-0.1,0-0.2,0.2-0.2c1.2,0,2.5,0,3.7,0c0.1,0,0.2,0,0.2,0.2c0,1.3,0,2.6,0,3.9
		l0,0C12.5,36.2,11.2,36.2,9.8,36.2L9.8,36.2z"/>
	<path class="st3" d="M17.9,36.2c0-0.1,0-0.2,0-0.3c0-1.2,0-2.4,0-3.6c0-0.1,0-0.2,0.2-0.2c1.2,0,2.5,0,3.7,0c0.1,0,0.2,0,0.2,0.2
		c0,1.2,0,2.5,0,3.7c0,0.1,0,0.2-0.1,0.1C20.5,36.2,19.2,36.2,17.9,36.2C17.9,36.2,17.9,36.2,17.9,36.2z"/>
	<path class="st3" d="M42.1,36.1c-0.1,0-0.2,0-0.2,0c-1.2,0-2.4,0-3.6,0c-0.1,0-0.2,0-0.2-0.2c0-1.2,0-2.5,0-3.7
		c0-0.1,0-0.2,0.2-0.2c1.2,0,2.5,0,3.7,0c0.1,0,0.2,0,0.2,0.1C42.1,33.5,42.1,34.8,42.1,36.1C42.1,36.1,42.1,36.1,42.1,36.1z"/>
	<path class="st0" d="M46.1,36.2c0-1.3,0-2.6,0-3.9c0-0.1,0-0.2,0.2-0.2c1.2,0,2.5,0,3.7,0c0.1,0,0.2,0,0.2,0.2c0,1.3,0,2.6,0,3.9
		l0,0C48.8,36.2,47.5,36.2,46.1,36.2L46.1,36.2z"/>
	<path class="st0" d="M9.8,40.2c-1.3,0-2.6,0-3.9,0c-0.1,0-0.2,0-0.2-0.2c0-1.3,0-2.6,0-3.9c1.3,0,2.7,0,4,0l0,0
		C9.8,37.5,9.8,38.8,9.8,40.2L9.8,40.2z"/>
	<path class="st0" d="M13.8,36.2c1.3,0,2.7,0,4,0c0,0,0,0,0,0c0,1.2,0,2.3,0,3.5c0,0.2,0,0.4,0,0.5l0,0c-1.3,0-2.7,0-4,0l0,0
		C13.8,38.8,13.8,37.5,13.8,36.2L13.8,36.2z"/>
	<path class="st0" d="M42.1,40.2c0-1.3,0-2.7,0-4c0,0,0,0,0,0c1.1,0,2.3,0,3.4,0c0.2,0,0.4,0,0.7,0l0,0c0,1.3,0,2.7,0,4l0,0
		C44.8,40.2,43.4,40.2,42.1,40.2L42.1,40.2z"/>
	<path class="st0" d="M54.2,36.2c0,1.3,0,2.6,0,3.9c0,0.1,0,0.2-0.2,0.2c-1.3,0-2.6,0-3.9,0l0,0c0-1.3,0-2.7,0-4l0,0
		C51.5,36.2,52.8,36.2,54.2,36.2z"/>
	<path class="st0" d="M17.9,40.2c1.3,0,2.6,0,3.9,0c0,0,0.1,0,0.1,0c0,1.3,0,2.7,0,4c-1.3,0-2.7,0-4,0l0,0
		C17.9,42.9,17.9,41.5,17.9,40.2L17.9,40.2z"/>
	<path class="st2" d="M21.9,44.2c0-1.3,0-2.7,0-4c1,0,2,0,3,0c0.4,0,0.7,0,1.1,0c0,0,0,0,0,0c0,0,0,0.1,0,0.1c0,1.3,0,2.6,0,3.9
		C24.6,44.2,23.3,44.2,21.9,44.2L21.9,44.2z"/>
	<path class="st2" d="M34,40.2c1.3,0,2.6,0,3.8,0c0.1,0,0.1,0,0.2,0c0,1.3,0,2.7,0,4l0,0c-1.3,0-2.7,0-4,0c0-0.9,0-1.8,0-2.7
		C34,41.1,34,40.6,34,40.2L34,40.2z"/>
	<path class="st0" d="M38.1,44.2c0-1.3,0-2.7,0-4c1,0,2,0,3,0c0.4,0,0.7,0,1.1,0l0,0c0,1.3,0,2.7,0,4l0,0
		C40.7,44.2,39.4,44.2,38.1,44.2z"/>
	<path class="st2" d="M13.8,24c0,1.3,0,2.7,0,4c-1.1,0-2.3,0-3.4,0c-0.2,0-0.3,0-0.5,0c-0.1,0-0.1,0-0.1-0.1c0-0.8,0-1.6,0-2.3
		c0-0.5,0-1,0-1.6C11.2,24,12.5,24,13.8,24z"/>
	<path d="M13.8,11.9c1.3,0,2.6,0,3.9,0c0.1,0,0.2,0,0.2-0.2c0-2.6,0-5.2,0-7.7c0-0.1,0-0.2,0.2-0.2c1.3,0,2.6,0,3.9,0l0,0
		c0,0.4,0,0.7,0,1.1c0,1,0,2,0,3c0,0.2,0,0.5,0,0.7c0,1.1,0,2.2,0,3.3c0,0.1,0,0.1,0,0.2c0,1.3,0,2.6,0,3.9c-0.1,0-0.2,0-0.3,0
		c-1.3,0-2.5,0-3.8,0c-0.1,0-0.1,0-0.2,0c-1.3,0-2.6,0-3.9,0l0,0C13.8,14.6,13.8,13.3,13.8,11.9L13.8,11.9z"/>
	<path d="M9.8,16c-1.3,0-2.7,0-4,0c0-1.3,0-2.6,0-3.9c0-0.1,0-0.2,0.2-0.2c1.3,0,2.6,0,3.9,0l0,0C9.8,13.3,9.8,14.6,9.8,16L9.8,16z"
		/>
	<path d="M9.8,11.9c0-1.3,0-2.6,0-3.9c0-0.1,0-0.1,0.1-0.1c1.3,0,2.5,0,3.8,0c0.1,0,0.1,0,0.1,0.1c0,1.3,0,2.6,0,3.9l0,0
		C12.5,11.9,11.2,11.9,9.8,11.9L9.8,11.9z"/>
	<path d="M38.1,3.9c1.3,0,2.6,0,3.9,0c0.1,0,0.1,0.1,0.1,0.2c0,2.6,0,5.2,0,7.7c0,0.1,0,0.2,0.2,0.2c1.3,0,2.6,0,3.9,0l0,0
		c0,1.3,0,2.7,0,4l0,0c-0.4,0-0.7,0-1.1,0c-1,0-2,0-3,0c-0.4,0-0.9,0-1.3,0c-0.9,0-1.8,0-2.7,0c0-0.4,0-0.7,0-1.1c0-1,0-2,0-3
		c0-0.1,0-0.2,0-0.2c0-1.3,0-2.5,0-3.8c0-0.1,0-0.1,0-0.2C38.1,6.5,38.1,5.2,38.1,3.9L38.1,3.9z"/>
	<path d="M54.2,16c-1.3,0-2.7,0-4,0l0,0c0-1.3,0-2.7,0-4l0,0c1.3,0,2.6,0,3.9,0c0.1,0,0.1,0,0.1,0.1C54.2,13.4,54.2,14.7,54.2,16z"
		/>
	<path d="M46.1,11.9c0-1.3,0-2.6,0-3.9c0-0.1,0-0.1,0.1-0.1c1.3,0,2.5,0,3.8,0c0.1,0,0.1,0,0.1,0.1c0,1.3,0,2.6,0,3.9l0,0
		C48.8,11.9,47.5,11.9,46.1,11.9L46.1,11.9z"/>
	<path class="st0" d="M50.2,40.2c0,1.3,0,2.6,0,3.9c0,0.1,0,0.2-0.2,0.2c-1.3,0-2.6,0-3.9,0l0,0c0-1.3,0-2.7,0-4l0,0
		C47.5,40.2,48.8,40.2,50.2,40.2L50.2,40.2z"/>
	<path class="st0" d="M46.1,48.3c-1.3,0-2.6,0-3.9,0c-0.1,0-0.1,0-0.2,0c0-1.3,0-2.7,0-4l0,0c1.3,0,2.7,0,4,0l0,0
		C46.1,45.6,46.1,46.9,46.1,48.3z"/>
	<path class="st0" d="M13.8,44.2c-1.3,0-2.6,0-3.9,0c-0.1,0-0.2,0-0.2-0.2c0-1.3,0-2.6,0-3.9l0,0c1.3,0,2.7,0,4,0l0,0
		C13.8,41.5,13.8,42.9,13.8,44.2L13.8,44.2z"/>
	<path class="st0" d="M17.9,48.3c-1,0-2,0-3,0c-0.4,0-0.7,0-1.1,0c0-1.3,0-2.7,0-4l0,0c1.3,0,2.7,0,4,0l0,0
		C17.9,45.6,17.9,46.9,17.9,48.3z"/>
	<path class="st2" d="M34,52.3c0,0-0.1,0-0.1,0c-2.6,0-5.2,0-7.8,0c0,0-0.1,0-0.1,0c-1.2,0-2.5,0-3.7,0c-0.3,0-0.3,0-0.3-0.3
		c0-1.2,0-2.5,0-3.7l0,0c0.3,0,0.6,0,0.9,0c1,0,2.1,0,3.1,0c0,0,0.1,0,0.1,0c2.6,0,5.2,0,7.8,0c0,0,0.1,0,0.1,0c1.3,0,2.7,0,4,0l0,0
		c0,1.3,0,2.6,0,3.9c0,0.1,0,0.2-0.2,0.2c-1.2,0-2.5,0-3.7,0C34.1,52.3,34.1,52.3,34,52.3z"/>
	<path class="st2" d="M42.1,44.2c0,1.3,0,2.7,0,4c-1,0-2,0-2.9,0c-0.4,0-0.7,0-1.1,0l0,0c0-1.3,0-2.7,0-4l0,0
		C39.4,44.2,40.7,44.2,42.1,44.2z"/>
	<path class="st2" d="M17.9,48.3c0-1.3,0-2.7,0-4c1.3,0,2.7,0,4,0l0,0c0,1.3,0,2.7,0,4l0,0c-1.3,0-2.6,0-3.8,0
		C18,48.3,17.9,48.3,17.9,48.3z"/>
	<path class="st4" d="M25.9,3.9c0,0,0.1,0,0.1,0c2.6,0,5.2,0,7.8,0c0,0,0.1,0,0.1,0c0,1.3,0,2.7,0,4l0,0c-2.7,0-5.4,0-8.1,0l0,0
		C26,6.6,25.9,5.2,25.9,3.9z"/>
	<path class="st1" d="M34,7.9c0-1.3,0-2.7,0-4c1,0,2,0,3,0c0.4,0,0.7,0,1.1,0c0,1.3,0,2.6,0,3.9c0,0.1,0,0.1,0,0.2
		C36.7,7.9,35.4,7.9,34,7.9z"/>
	<path class="st1" d="M25.9,3.9c0,1.3,0,2.7,0,4c-1.3,0-2.7,0-4,0c0-1,0-2,0-3c0-0.4,0-0.7,0-1.1c1.3,0,2.6,0,3.8,0
		C25.8,3.9,25.9,3.9,25.9,3.9z"/>
	<path d="M34,24c0,0-0.1,0-0.1,0c-2.6,0-5.2,0-7.8,0c0,0-0.1,0-0.1,0c0-0.3,0-0.7,0-1c0-1,0-2,0-3c0-0.1,0-0.1,0-0.2
		c0-1.3,0-2.6,0-3.9l0,0c2.7,0,5.4,0,8.1,0l0,0c0,0.4,0,0.7,0,1.1c0,1,0,2,0,3c0,0.1,0,0.1,0,0.2C34,21.5,34,22.8,34,24z"/>
	<path class="st2" d="M25.9,20c0,1,0,2,0,3c0,0.3,0,0.7,0,1c-1,0-2,0-3,0c-0.3,0-0.7,0-1,0l0,0c0-1.3,0-2.7,0-4l0,0
		C23.3,20,24.6,20,25.9,20z"/>
	<path class="st2" d="M34,24c0-1.3,0-2.6,0-3.9c0-0.1,0-0.1,0-0.2c1.3,0,2.7,0,4,0l0,0c0,1.3,0,2.7,0,4l0,0C36.7,24,35.4,24,34,24z"
		/>
	<path class="st0" d="M34,40.2c0,0.4,0,0.9,0,1.3c0,0.9,0,1.8,0,2.7l0,0c-2.7,0-5.4,0-8.1,0l0,0c0-1.3,0-2.6,0-3.9c0,0,0-0.1,0-0.1
		c0,0,0.1,0,0.1,0c2.6,0,5.2,0,7.8,0C33.9,40.2,34,40.2,34,40.2z"/>
	<path class="st2" d="M50.2,20c-1.3,0-2.7,0-4,0l0,0c0-1.3,0-2.7,0-4l0,0c1.3,0,2.7,0,4,0l0,0C50.2,17.3,50.2,18.7,50.2,20z"/>
	<path class="st2" d="M9.8,20c0-1.3,0-2.7,0-4l0,0c1.3,0,2.7,0,4,0l0,0c0,1.3,0,2.7,0,4l0,0C12.5,20,11.2,20,9.8,20z"/>
	<path class="st2" d="M17.9,24c-1.3,0-2.7,0-4,0c0-1.3,0-2.7,0-4l0,0c1.3,0,2.7,0,4,0l0,0C17.9,21.4,17.9,22.7,17.9,24L17.9,24z"/>
	<path class="st2" d="M46.1,24.1c-1.3,0-2.7,0-4,0l0,0c0-1.3,0-2.7,0-4l0,0c1.3,0,2.7,0,4,0l0,0C46.1,21.4,46.1,22.7,46.1,24.1z"/>
	<path class="st0" d="M17.9,24.1c0-1.3,0-2.7,0-4c1.3,0,2.7,0,4,0c0,1.3,0,2.7,0,4C20.6,24.1,19.2,24.1,17.9,24.1z"/>
	<path class="st0" d="M42.1,20c0,1.3,0,2.7,0,4c-1.3,0-2.7,0-4,0c0-1.3,0-2.7,0-4C39.4,20,40.7,20,42.1,20z"/>
	<path class="st2" d="M13.8,40.2c-1.3,0-2.7,0-4,0c0-1.3,0-2.7,0-4c1.3,0,2.7,0,4,0C13.8,37.5,13.8,38.8,13.8,40.2z"/>
	<path class="st2" d="M50.2,40.2c-1.3,0-2.7,0-4,0c0-1.3,0-2.7,0-4c1.3,0,2.7,0,4,0C50.2,37.5,50.2,38.8,50.2,40.2z"/>
	<ellipse transform="matrix(0.7718 -0.6358 0.6358 0.7718 -23.2156 19.7178)" class="st2" cx="15.9" cy="42.2" rx="2.9" ry="2.9"/>
	<ellipse transform="matrix(0.6348 -0.7727 0.7727 0.6348 -16.5039 49.4925)" class="st2" cx="44.1" cy="42.2" rx="2.9" ry="2.9"/>
	<path class="st0" d="M21.9,48.3c0-1.3,0-2.7,0-4c1.3,0,2.7,0,4,0l0,0c0,1.3,0,2.7,0,4c-1,0-2.1,0-3.1,0
		C22.5,48.3,22.2,48.3,21.9,48.3z"/>
	<path class="st0" d="M38.1,44.2c0,1.3,0,2.7,0,4c-1.3,0-2.7,0-4,0c0-1.3,0-2.7,0-4c0,0,0,0,0,0C35.4,44.2,36.7,44.2,38.1,44.2z"/>
	<path class="st4" d="M21.9,20c-1.3,0-2.7,0-4,0c0,0,0,0,0,0c0-1.3,0-2.7,0-4c1.3,0,2.5,0,3.8,0c0.1,0,0.2,0,0.3,0l0,0
		c0,0.1,0,0.1,0,0.2C21.9,17.5,21.9,18.7,21.9,20L21.9,20z"/>
	<path class="st1" d="M17.9,16c0,1.3,0,2.7,0,4c-1.3,0-2.7,0-4,0c0-1.3,0-2.7,0-4c1.3,0,2.6,0,3.9,0C17.8,16,17.8,16,17.9,16z"/>
	<path class="st0" d="M21.9,16c0-1.3,0-2.6,0-3.9c0-0.1,0-0.1,0-0.2c1.3,0,2.7,0,4,0c0,0,0,0,0,0c0,1.3,0,2.7,0,4l0,0
		C24.6,16,23.3,16,21.9,16L21.9,16z"/>
	<path class="st1" d="M13.8,16c-1.3,0-2.7,0-4,0c0-1.3,0-2.7,0-4c1.3,0,2.7,0,4,0C13.8,13.3,13.8,14.6,13.8,16z"/>
	<path class="st4" d="M25.9,11.9c-1.3,0-2.7,0-4,0c0-1.1,0-2.2,0-3.3c0-0.2,0-0.5,0-0.7c1.3,0,2.7,0,4,0c0,0,0,0,0,0
		C25.9,9.3,25.9,10.6,25.9,11.9z"/>
	<path class="st4" d="M42.1,20c-1.3,0-2.7,0-4,0c0,0,0,0,0,0c0-1.2,0-2.5,0-3.7c0-0.1,0-0.2,0-0.3l0,0c0.9,0,1.8,0,2.7,0
		c0.4,0,0.9,0,1.3,0C42.1,17.3,42.1,18.7,42.1,20L42.1,20z"/>
	<path class="st1" d="M42.1,20c0-1.3,0-2.7,0-4c1,0,2,0,3,0c0.4,0,0.7,0,1.1,0c0,1.3,0,2.7,0,4C44.8,20,43.4,20,42.1,20z"/>
	<path class="st1" d="M50.2,16c-1.3,0-2.7,0-4,0c0-1.3,0-2.7,0-4c1.3,0,2.7,0,4,0C50.2,13.3,50.2,14.6,50.2,16z"/>
	<path class="st0" d="M38,11.9c0,1,0,2,0,3c0,0.4,0,0.7,0,1.1c0,0,0,0,0,0c-1.3,0-2.7,0-4,0l0,0c0-1.3,0-2.7,0-4l0,0
		C35.4,11.9,36.7,11.9,38,11.9z"/>
	<path class="st4" d="M38,11.9c-1.3,0-2.7,0-4,0c0-1.3,0-2.7,0-4l0,0c1.3,0,2.7,0,4,0c0,1.3,0,2.5,0,3.8C38.1,11.8,38,11.9,38,11.9z
		"/>
	<path d="M34,44.2c0,1.3,0,2.7,0,4c0,0-0.1,0-0.1,0c-2.6,0-5.2,0-7.8,0c0,0-0.1,0-0.1,0c0-1.3,0-2.7,0-4
		C28.6,44.2,31.3,44.2,34,44.2z"/>
	<path class="st1" d="M34,7.9c0,1.3,0,2.7,0,4c0,0,0,0,0,0c-2.7,0-5.4,0-8.1,0c0,0,0,0,0,0c0-1.3,0-2.7,0-4
		C28.6,7.9,31.3,7.9,34,7.9z"/>
	<path class="st4" d="M25.9,11.9c2.7,0,5.4,0,8.1,0c0,1.3,0,2.7,0,4c-2.7,0-5.4,0-8.1,0C25.9,14.6,25.9,13.3,25.9,11.9z"/>
	<path class="st1" d="M21.9,16c1.3,0,2.7,0,4,0c0,1.3,0,2.6,0,3.9c0,0.1,0,0.1,0,0.2c-1.3,0-2.7,0-4,0c0-1.3,0-2.5,0-3.8
		C21.9,16.1,21.9,16.1,21.9,16z"/>
	<path class="st1" d="M34,16c1.3,0,2.7,0,4,0c0,0.1,0,0.2,0,0.3c0,1.2,0,2.5,0,3.7c-1.3,0-2.7,0-4,0c0-1,0-2,0-3
		C34,16.7,34,16.3,34,16z"/>
</g>
</svg>
