<svg xmlns="http://www.w3.org/2000/svg" viewBox="0 -0.5 32 32" shape-rendering="crispEdges">
<metadata>Made with Pixels to Svg https://codepen.io/shshaw/pen/XbxvNj</metadata>
<path stroke="#11001a" d="M0 0h8M11 0h10M24 0h8M0 1h8M11 1h10M24 1h8M0 2h8M11 2h10M24 2h8M0 3h3M5 3h8M19 3h8M29 3h3M0 4h3M5 4h8M19 4h8M29 4h3M0 5h3M8 5h3M13 5h6M21 5h3M29 5h3M0 6h3M8 6h3M13 6h6M21 6h3M29 6h3M0 7h3M8 7h3M13 7h6M21 7h3M29 7h3M0 8h3M8 8h5M19 8h5M29 8h3M0 9h3M8 9h5M19 9h5M29 9h3M0 10h3M8 10h5M19 10h5M29 10h3M0 11h5M13 11h6M27 11h5M0 12h5M13 12h6M27 12h5M0 13h3M8 13h3M21 13h3M29 13h3M0 14h3M8 14h3M21 14h3M29 14h3M0 15h3M8 15h3M21 15h3M29 15h3M0 16h3M13 16h6M29 16h3M0 17h3M13 17h6M29 17h3M0 18h3M13 18h6M29 18h3M0 19h5M11 19h2M19 19h2M27 19h5M0 20h5M11 20h2M19 20h2M27 20h5M0 21h11M21 21h11M0 22h11M21 22h11M0 23h11M21 23h11M0 24h3M8 24h3M21 24h3M29 24h3M0 25h3M8 25h3M21 25h3M29 25h3M0 26h3M8 26h3M21 26h3M29 26h3M0 27h3M8 27h3M21 27h3M29 27h3M0 28h3M8 28h3M21 28h3M29 28h3M0 29h32M0 30h32M0 31h32" />
<path stroke="#9900e6" d="M3 3h2M13 3h6M27 3h2M3 4h2M13 4h6M27 4h2M5 5h3M11 5h2M19 5h2M24 5h3M5 6h3M11 6h2M19 6h2M24 6h3M5 7h3M11 7h2M19 7h2M24 7h3M13 8h6M13 9h6M13 10h6M8 11h5M19 11h5M8 12h5M19 12h5M3 13h2M13 13h6M27 13h2M3 14h2M13 14h6M27 14h2M3 15h2M13 15h6M27 15h2M8 16h3M21 16h3M8 17h3M21 17h3M8 18h3M21 18h3M13 19h6M13 20h6M11 21h2M19 21h2M11 22h2M19 22h2M11 23h2M19 23h2M3 24h5M24 24h5M3 25h5M24 25h5M3 26h5M24 26h5" />
<path stroke="#d580ff" d="M3 5h2M27 5h2M3 6h2M27 6h2M3 7h2M27 7h2M3 8h5M24 8h5M3 9h5M24 9h5M3 10h5M24 10h5M5 11h3M24 11h3M5 12h3M24 12h3M5 13h3M11 13h2M19 13h2M24 13h3M5 14h3M11 14h2M19 14h2M24 14h3M5 15h3M11 15h2M19 15h2M24 15h3M3 16h5M11 16h2M19 16h2M24 16h5M3 17h5M11 17h2M19 17h2M24 17h5M3 18h5M11 18h2M19 18h2M24 18h5M5 19h6M21 19h6M5 20h6M21 20h6M13 21h6M13 22h6M13 23h6M11 24h10M11 25h10M11 26h10M3 27h5M11 27h10M24 27h5M3 28h5M11 28h10M24 28h5" />
</svg>