<?xml version="1.0" encoding="utf-8"?>
<!-- Generator: Adobe Illustrator 25.4.0, SVG Export Plug-In . SVG Version: 6.00 Build 0)  -->
<svg version="1.1" id="Layer_1" xmlns="http://www.w3.org/2000/svg" xmlns:xlink="http://www.w3.org/1999/xlink" x="0px" y="0px"
	 viewBox="0 0 60 60" style="enable-background:new 0 0 60 60;" xml:space="preserve">
<style type="text/css">
	.st0{fill:#B8C2FE;}
	.st1{fill:#FEA004;}
	.st2{fill:#36FEDE;}
	.st3{fill:#FED30B;}
	.st4{fill:#0058F7;}
</style>
<g>
	<path d="M8.4,60.1c0.1,0,0.2,0,0.2-0.1c0-1.4,0-2.8,0-4.1c0.4,0,0.8,0,1.1,0c1.1,0,2.1,0,3.2,0c0.2,0,0.4,0,0.7,0
		c1.2,0,2.4,0,3.6,0c0.2,0,0.4,0,0.7,0c1.2,0,2.4,0,3.6,0c0.4,0,0.8,0,1.2,0c1,0,2.1,0,3.1,0c0,0,0.1,0,0.1,0c2.8,0,5.6,0,8.4,0
		c0,0,0.1,0,0.1,0c0.2,0,0.4,0,0.6,0c1.2,0,2.5,0,3.7,0c0.2,0,0.4,0,0.7,0c1.2,0,2.4,0,3.6,0c0.2,0,0.4,0,0.7,0c1.2,0,2.4,0,3.6,0
		c1.4,0,2.9,0,4.3,0c0,1.4,0,2.7,0,4.1c0,0.2,0.1,0.2,0.2,0.2"/>
	<path d="M17.2,0.1c8.6,0,17.2,0,25.8,0c0,0.3,0,0.5,0,0.8c0,1.1,0,2.1,0,3.2c-1.4,0-2.9,0-4.3,0c-0.1,0-0.1,0-0.2,0
		c-5.6,0-11.3,0-16.9,0c-0.1,0-0.1,0-0.2,0c-1.1,0-2.1,0-3.2,0c-0.4,0-0.7,0-1.1,0c0-0.1,0-0.1,0-0.2C17.2,2.7,17.2,1.4,17.2,0.1z"
		/>
	<path d="M47.2,0.1c2.9,0,5.7,0,8.6,0c0,1.3,0,2.7,0,4l0,0c-1.4,0-2.8,0-4.2,0c-0.1,0-0.1,0-0.1,0.1c0,1.4,0,2.8,0,4.2
		c-1,0-1.9,0-2.9,0c-0.5,0-0.9,0-1.4,0c0-0.1,0-0.2,0-0.2c0-1.4,0-2.7,0-4.1c0-0.1,0-0.1,0-0.2C47.2,2.7,47.2,1.4,47.2,0.1z"/>
	<path d="M4.3,0.1c2.9,0,5.7,0,8.6,0c0,0.2,0,0.3,0,0.5c0,1.2,0,2.3,0,3.5c0,1.3,0,2.6,0,3.9c0,0.1,0,0.3,0,0.4c-0.1,0-0.1,0-0.2,0
		c-1.4,0-2.7,0-4.1,0c0-1.4,0-2.8,0-4.2c0-0.1,0-0.1-0.1-0.1c-1.4,0-2.8,0-4.2,0l0,0C4.3,2.8,4.3,1.4,4.3,0.1z"/>
	<path d="M4.3,51.5c-1.4,0-2.7,0-4.1,0c-0.1,0-0.1,0-0.2,0c0,0,0,0,0,0c0-2.9,0-5.7,0-8.6c1.4,0,2.9,0,4.3,0l0,0c0,0.4,0,0.7,0,1.1
		c0,1.1,0,2.1,0,3.2c0,0.1,0,0.1,0,0.2C4.3,48.8,4.3,50.2,4.3,51.5C4.3,51.5,4.3,51.5,4.3,51.5z"/>
	<path d="M60,51.5c-1.4,0-2.8,0-4.2,0l0,0c0-0.4,0-0.8,0-1.1c0-1.1,0-2.1,0-3.2c0-0.1,0-0.1,0-0.2c0-1.4,0-2.7,0-4.1l0,0
		c1.4,0,2.8,0,4.2,0C60,45.8,60,48.6,60,51.5z"/>
	<path d="M4.3,17c-1.4,0-2.9,0-4.3,0c0-1.4,0-2.9,0-4.3c1.4,0,2.9,0,4.3,0C4.3,14.2,4.3,15.6,4.3,17L4.3,17z"/>
	<path d="M4.3,8.4c-1.4,0-2.9,0-4.3,0C0,7,0,5.5,0,4.1c0,0,0,0,0,0c0.1,0,0.1,0,0.2,0c1.4,0,2.7,0,4.1,0l0,0C4.3,5.5,4.3,7,4.3,8.4z
		"/>
	<path d="M60,4.1c0,1.4,0,2.9,0,4.3c-1.4,0-2.8,0-4.2,0c0-1.4,0-2.9,0-4.3l0,0C57.2,4.1,58.6,4.1,60,4.1z"/>
	<path d="M60,17c-1.4,0-2.8,0-4.2,0l0,0c0-1.4,0-2.9,0-4.3c1.4,0,2.8,0,4.2,0C60,14.2,60,15.6,60,17z"/>
	<path class="st0" d="M47.2,0.1c0,1.3,0,2.5,0,3.8c0,0.1,0,0.1,0,0.2c-1.4,0-2.9,0-4.3,0l0,0c0-1.1,0-2.1,0-3.2c0-0.3,0-0.5,0-0.8
		C44.4,0.1,45.8,0.1,47.2,0.1z"/>
	<path class="st0" d="M12.9,4.1c0-1.2,0-2.3,0-3.5c0-0.2,0-0.3,0-0.5c1.4,0,2.9,0,4.3,0c0,1.3,0,2.6,0,3.8c0,0.1,0,0.1,0,0.2
		c0,0,0,0,0,0C15.8,4.1,14.3,4.1,12.9,4.1z"/>
	<path class="st1" d="M0,4.1C0,4.1,0,4.1,0,4.1C0,4.1,0,4.1,0,4.1C0,4.1,0,4.1,0,4.1z"/>
	<path class="st1" d="M0,51.5C0,51.5,0,51.5,0,51.5C0,51.5,0,51.5,0,51.5C0,51.5,0,51.5,0,51.5z"/>
	<path class="st1" d="M0,0.1C0,0.1,0,0.1,0,0.1C0,0.1,0,0.1,0,0.1z"/>
	<path d="M12.9,34.3c0-2.9,0-5.7,0-8.6l0,0c1.4,0,2.8,0,4.2,0c0.1,0,0.1,0,0.1-0.1c0-1.4,0-2.8,0-4.2c1.4,0,2.9,0,4.3,0
		c0,1.4,0,2.8,0,4.2c0,0.1,0,0.2,0.1,0.2c1.4,0,2.8,0,4.2,0c0,0.4,0,0.8,0,1.1c0,1.1,0,2.1,0,3.2c-0.4,0-0.8,0-1.1,0
		c-1.1,0-2.1,0-3.2,0c-0.1,0-0.1,0-0.2,0c-1.3,0-2.6,0-4,0c-0.1,0-0.2,0-0.2,0.2c0,1.4,0,2.8,0,4.1C15.7,34.3,14.3,34.3,12.9,34.3
		L12.9,34.3z"/>
	<path d="M8.6,21.4c-1.4,0-2.8,0-4.1,0c-0.1,0-0.2,0-0.2-0.2c0-1.4,0-2.8,0-4.1l0,0c0.9,0,1.8,0,2.7,0c0.5,0,1,0,1.5,0
		C8.6,18.5,8.6,19.9,8.6,21.4L8.6,21.4z"/>
	<path d="M12.9,25.7c-1.4,0-2.8,0-4.2,0c-0.1,0-0.1,0-0.1-0.1c0-1.4,0-2.8,0-4.2l0,0c1.4,0,2.9,0,4.3,0
		C12.9,22.8,12.9,24.2,12.9,25.7L12.9,25.7z"/>
	<path d="M8.6,38.6c0-1.4,0-2.8,0-4.2c0-0.1,0-0.1,0.1-0.1c1.4,0,2.8,0,4.2,0l0,0c0,1.4,0,2.9,0,4.3C11.5,38.6,10,38.6,8.6,38.6
		L8.6,38.6z"/>
	<path d="M4.3,42.9c0-1.4,0-2.8,0-4.2c0-0.1,0-0.1,0.1-0.1c1.4,0,2.8,0,4.2,0l0,0c0,1.4,0,2.9,0,4.3C7.2,42.9,5.7,42.9,4.3,42.9
		L4.3,42.9z"/>
	<path d="M47.2,25.7c0,2.9,0,5.7,0,8.6l0,0c-1.4,0-2.9,0-4.3,0c0-0.5,0-0.9,0-1.4c0-0.9,0-1.8,0-2.7c0-0.1,0-0.2-0.2-0.2
		c-0.2,0-0.3,0-0.5,0c-1.2,0-2.4,0-3.7,0c-0.1,0-0.1,0-0.2,0c-1.4,0-2.7,0-4.1,0c0-1.4,0-2.9,0-4.3c1.4,0,2.8,0,4.2,0
		c0.1,0,0.1-0.1,0.1-0.2c0-1.4,0-2.8,0-4.2c1.4,0,2.9,0,4.3,0c0,1.4,0,2.8,0,4.2c0,0.1,0,0.2,0.2,0.2C44.5,25.7,45.9,25.7,47.2,25.7
		L47.2,25.7z"/>
	<path d="M55.8,17c0,1.4,0,2.8,0,4.1c0,0.1,0,0.2-0.2,0.2c-1.4,0-2.8,0-4.1,0l0,0c0-0.5,0-1,0-1.4c0-1,0-1.9,0-2.9c0,0,0.1,0,0.1,0
		C53,17,54.4,17,55.8,17L55.8,17z"/>
	<path d="M51.5,21.4c0,1.4,0,2.8,0,4.2c0,0.1,0,0.1-0.1,0.1c-1.4,0-2.8,0-4.2,0l0,0c0-1.4,0-2.9,0-4.3
		C48.7,21.4,50.1,21.4,51.5,21.4L51.5,21.4z"/>
	<path d="M47.2,34.3c1.4,0,2.8,0,4.2,0c0.1,0,0.1,0,0.1,0.1c0,1.4,0,2.8,0,4.2l0,0c-1.4,0-2.9,0-4.3,0
		C47.3,37.2,47.3,35.7,47.2,34.3L47.2,34.3z"/>
	<path d="M51.5,38.6c1.4,0,2.8,0,4.2,0c0.1,0,0.1,0,0.1,0.1c0,1.4,0,2.8,0,4.2l0,0c-1.4,0-2.9,0-4.3,0C51.5,41.5,51.5,40,51.5,38.6
		L51.5,38.6z"/>
	<path class="st2" d="M34.4,55.8c0,0-0.1,0-0.1,0c-2.8,0-5.6,0-8.4,0c0,0-0.1,0-0.1,0c0-1.4,0-2.9,0-4.3c2.9,0,5.7,0,8.6,0
		C34.4,53,34.4,54.4,34.4,55.8z"/>
	<path class="st3" d="M51.5,55.8c-1.4,0-2.9,0-4.3,0c0-1.4,0-2.9,0-4.3c1.4,0,2.9,0,4.3,0l0,0C51.5,53,51.5,54.4,51.5,55.8
		L51.5,55.8z"/>
	<path class="st1" d="M47.2,51.5c0,1.4,0,2.9,0,4.3c-1.2,0-2.4,0-3.6,0c-0.2,0-0.4,0-0.7,0c0-1.4,0-2.9,0-4.3
		C44.4,51.5,45.8,51.5,47.2,51.5L47.2,51.5z"/>
	<path class="st3" d="M43,51.5c0,1.4,0,2.9,0,4.3c-1.2,0-2.4,0-3.6,0c-0.2,0-0.4,0-0.7,0c0-1.4,0-2.9,0-4.3
		C40.1,51.5,41.5,51.5,43,51.5L43,51.5z"/>
	<path class="st1" d="M38.7,51.5c0,1.4,0,2.9,0,4.3c-1.2,0-2.5,0-3.7,0c-0.2,0-0.4,0-0.6,0c0-1.4,0-2.9,0-4.3l0,0
		C35.8,51.5,37.2,51.5,38.7,51.5L38.7,51.5z"/>
	<path class="st1" d="M25.8,51.5c0,1.4,0,2.9,0,4.3c-1,0-2.1,0-3.1,0c-0.4,0-0.8,0-1.2,0c0-1.4,0-2.9,0-4.3
		C22.9,51.5,24.3,51.5,25.8,51.5L25.8,51.5z"/>
	<path class="st3" d="M21.5,51.5c0,1.4,0,2.9,0,4.3c-1.2,0-2.4,0-3.6,0c-0.2,0-0.4,0-0.7,0c0-1.4,0-2.9,0-4.3
		C18.6,51.5,20,51.5,21.5,51.5L21.5,51.5z"/>
	<path class="st3" d="M12.9,55.8c-1.1,0-2.1,0-3.2,0c-0.4,0-0.8,0-1.1,0l0,0c0-1.4,0-2.9,0-4.3l0,0c1.4,0,2.9,0,4.3,0
		C12.9,53,12.9,54.4,12.9,55.8z"/>
	<path class="st1" d="M12.9,55.8c0-1.4,0-2.9,0-4.3c0,0,0,0,0,0c1.4,0,2.9,0,4.3,0l0,0c0,1.4,0,2.9,0,4.3c-1.2,0-2.4,0-3.6,0
		C13.3,55.8,13.1,55.8,12.9,55.8z"/>
	<path class="st4" d="M21.5,4.1c0.1,0,0.1,0,0.2,0c5.6,0,11.3,0,16.9,0c0.1,0,0.1,0,0.2,0c0,1.4,0,2.9,0,4.3c-0.4,0-0.7,0-1.1,0
		c-1.1,0-2.2,0-3.2,0c0,0-0.1,0-0.1,0c-2.8,0-5.5,0-8.3,0c0,0-0.1,0-0.1,0c-1.4,0-2.9,0-4.3,0C21.5,7,21.5,5.6,21.5,4.1z"/>
	<path class="st3" d="M38.7,8.4c0-1.4,0-2.9,0-4.3c1.4,0,2.9,0,4.3,0l0,0c0,1.4,0,2.9,0,4.3C41.5,8.4,40.1,8.4,38.7,8.4L38.7,8.4z"
		/>
	<path class="st3" d="M21.5,4.1c0,1.4,0,2.9,0,4.3l0,0c-1.4,0-2.9,0-4.3,0c0-1.4,0-2.9,0-4.3c0,0,0,0,0,0c0.4,0,0.7,0,1.1,0
		C19.4,4.1,20.4,4.1,21.5,4.1z"/>
	<path d="M8.6,51.5c0,1.4,0,2.9,0,4.3c-1.4,0-2.7,0-4.1,0c-0.1,0-0.2,0-0.2-0.2c0-1.4,0-2.8,0-4.1l0,0C5.7,51.5,7.2,51.5,8.6,51.5z"
		/>
	<path d="M51.5,55.8c0-1.4,0-2.9,0-4.3c1.4,0,2.9,0,4.3,0l0,0c0,1.4,0,2.8,0,4.2c0,0.1-0.1,0.1-0.1,0.1
		C54.3,55.8,52.9,55.8,51.5,55.8z"/>
	<path class="st0" d="M47.2,8.4c0.5,0,0.9,0,1.4,0c1,0,1.9,0,2.9,0l0,0c0,0.4,0,0.8,0,1.2c0,1,0,2.1,0,3.1c0,0,0,0,0,0
		c-1.4,0-2.9,0-4.3,0C47.3,11.3,47.3,9.9,47.2,8.4C47.2,8.4,47.2,8.4,47.2,8.4z"/>
	<path class="st0" d="M55.8,4.1c0,1.4,0,2.9,0,4.3c0,0,0,0,0,0c-1.4,0-2.9,0-4.3,0l0,0c0-1.4,0-2.8,0-4.2c0-0.1,0-0.1,0.1-0.1
		C53.1,4.1,54.5,4.1,55.8,4.1z"/>
	<path class="st4" d="M43,8.4c0-1.4,0-2.9,0-4.3c1.4,0,2.9,0,4.3,0c0,1.4,0,2.7,0,4.1c0,0.1,0,0.2,0,0.2c0,0,0,0,0,0
		c-0.1,0-0.1,0-0.2,0C45.7,8.4,44.3,8.4,43,8.4L43,8.4z"/>
	<path class="st0" d="M8.6,8.4c1.4,0,2.7,0,4.1,0c0.1,0,0.1,0,0.2,0c0,0,0,0,0,0c0,1.4,0,2.9,0,4.3c-1.4,0-2.9,0-4.3,0l0,0
		c0-0.1,0-0.1,0-0.2C8.6,11.2,8.6,9.8,8.6,8.4L8.6,8.4z"/>
	<path class="st4" d="M17.2,4.1c0,1.4,0,2.9,0,4.3c0,0,0,0,0,0c-0.2,0-0.3,0-0.5,0c-1.3,0-2.5,0-3.8,0c0,0,0,0,0,0
		c0-0.1,0-0.3,0-0.4c0-1.3,0-2.6,0-3.9C14.3,4.1,15.8,4.1,17.2,4.1z"/>
	<path class="st0" d="M4.3,8.4c0-1.4,0-2.9,0-4.3c1.4,0,2.8,0,4.2,0c0.1,0,0.1,0,0.1,0.1c0,1.4,0,2.8,0,4.2l0,0
		C7.2,8.4,5.7,8.4,4.3,8.4L4.3,8.4z"/>
	<path class="st1" d="M4.3,42.9c1.4,0,2.9,0,4.3,0c0,0,0,0,0,0c0,0.1,0,0.1,0,0.2c0,1.4,0,2.7,0,4.1l0,0c-1.4,0-2.9,0-4.3,0
		c0-1.1,0-2.1,0-3.2C4.3,43.6,4.3,43.3,4.3,42.9z"/>
	<path class="st3" d="M4.3,47.2c1.4,0,2.9,0,4.3,0c0,1.4,0,2.9,0,4.3l0,0c-1.4,0-2.9,0-4.3,0c0-1.4,0-2.7,0-4.1
		C4.3,47.3,4.3,47.3,4.3,47.2z"/>
	<path class="st1" d="M51.5,42.9c1.4,0,2.9,0,4.3,0c0,1.4,0,2.7,0,4.1c0,0.1,0,0.1,0,0.2c-1.4,0-2.9,0-4.3,0l0,0c0-0.8,0-1.6,0-2.4
		C51.5,44.2,51.5,43.5,51.5,42.9L51.5,42.9z"/>
	<path class="st3" d="M51.5,47.2c1.4,0,2.9,0,4.3,0c0,1.1,0,2.1,0,3.2c0,0.4,0,0.8,0,1.1c-1.4,0-2.9,0-4.3,0l0,0
		C51.5,50.1,51.5,48.6,51.5,47.2z"/>
	<path class="st4" d="M8.6,17c-0.5,0-1,0-1.5,0c-0.9,0-1.8,0-2.7,0c0-1.4,0-2.9,0-4.3l0,0c0.5,0,1,0,1.5,0c0.9,0,1.9,0,2.8,0
		c0,0,0,0,0,0C8.6,14.2,8.6,15.6,8.6,17C8.6,17,8.6,17,8.6,17z"/>
	<path d="M8.6,12.7c-0.9,0-1.9,0-2.8,0c-0.5,0-1,0-1.5,0c0-1.4,0-2.9,0-4.3c1.4,0,2.9,0,4.3,0c0,1.4,0,2.7,0,4.1
		C8.6,12.6,8.6,12.7,8.6,12.7z"/>
	<path class="st4" d="M55.8,17c-1.4,0-2.8,0-4.2,0c0,0-0.1,0-0.1,0c0,0,0,0,0,0l0,0c0-1.4,0-2.9,0-4.3c0,0,0,0,0,0
		c1.4,0,2.9,0,4.3,0c0,0,0,0,0,0C55.8,14.2,55.8,15.6,55.8,17z"/>
	<path d="M55.8,12.7c-1.4,0-2.9,0-4.3,0c0-1,0-2.1,0-3.1c0-0.4,0-0.8,0-1.2c1.4,0,2.9,0,4.3,0C55.8,9.9,55.8,11.3,55.8,12.7z"/>
	<path class="st3" d="M34.4,25.7c0,1.4,0,2.9,0,4.3c0,1.4,0,2.9,0,4.3c-2.9,0-5.7,0-8.6,0c0-0.4,0-0.8,0-1.2c0-1,0-2.1,0-3.1
		c0-1.1,0-2.1,0-3.2c0-0.4,0-0.8,0-1.1l0,0C28.6,25.7,31.5,25.7,34.4,25.7L34.4,25.7z"/>
	<path class="st4" d="M21.5,21.4c-1.4,0-2.9,0-4.3,0l0,0c0-0.4,0-0.8,0-1.1c0-1.1,0-2.1,0-3.2c1.4,0,2.9,0,4.3,0
		C21.5,18.5,21.5,19.9,21.5,21.4L21.5,21.4z"/>
	<path class="st0" d="M12.9,25.7c0-1.4,0-2.9,0-4.3l0,0c1.4,0,2.9,0,4.3,0l0,0c0,1.4,0,2.8,0,4.2c0,0.1,0,0.1-0.1,0.1
		C15.7,25.7,14.3,25.7,12.9,25.7z"/>
	<path class="st1" d="M25.8,25.7c-1.4,0-2.8,0-4.2,0c-0.1,0-0.1-0.1-0.1-0.2c0-1.4,0-2.8,0-4.2c0,0,0,0,0,0c1.4,0,2.9,0,4.3,0
		C25.8,22.8,25.8,24.2,25.8,25.7L25.8,25.7z"/>
	<path class="st1" d="M17.2,34.3c0-1.4,0-2.8,0-4.1c0-0.1,0-0.2,0.2-0.2c1.3,0,2.6,0,4,0c0.1,0,0.1,0,0.2,0c0,1.4,0,2.9,0,4.3
		C20,34.3,18.6,34.3,17.2,34.3L17.2,34.3z"/>
	<path class="st2" d="M21.5,34.3c0-1.4,0-2.9,0-4.3c1.1,0,2.1,0,3.2,0c0.4,0,0.8,0,1.1,0c0,1,0,2.1,0,3.1c0,0.4,0,0.8,0,1.2l0,0
		C24.3,34.3,22.9,34.3,21.5,34.3L21.5,34.3z"/>
	<path class="st1" d="M12.9,38.6c0-1.4,0-2.9,0-4.3c1.4,0,2.9,0,4.3,0l0,0c0,1.4,0,2.9,0,4.3c-0.8,0-1.6,0-2.3,0
		C14.2,38.6,13.5,38.6,12.9,38.6L12.9,38.6z"/>
	<path class="st0" d="M12.9,21.3c-1.4,0-2.9,0-4.3,0c0-1.4,0-2.9,0-4.3c0,0,0,0,0,0c1.4,0,2.9,0,4.3,0
		C12.9,18.5,12.9,19.9,12.9,21.3L12.9,21.3z"/>
	<path class="st1" d="M8.6,42.9c0-1.4,0-2.9,0-4.3c1.4,0,2.9,0,4.3,0c0,0,0,0,0,0c0,0.1,0,0.1,0,0.2c0,1.4,0,2.8,0,4.2
		c-0.8,0-1.6,0-2.3,0C9.9,42.9,9.2,42.9,8.6,42.9L8.6,42.9z"/>
	<path class="st4" d="M43,21.4c-1.4,0-2.9,0-4.3,0l0,0c0-0.4,0-0.8,0-1.1c0-1.1,0-2.1,0-3.2c1.4,0,2.9,0,4.3,0
		C42.9,18.5,43,19.9,43,21.4L43,21.4z"/>
	<path class="st1" d="M38.7,21.4c0,1.4,0,2.8,0,4.2c0,0.1,0,0.2-0.1,0.2c-1.4,0-2.8,0-4.2,0c0,0,0,0,0,0c0-1.4,0-2.9,0-4.3
		C35.8,21.4,37.2,21.4,38.7,21.4L38.7,21.4z"/>
	<path class="st0" d="M47.2,21.3c0,1.4,0,2.9,0,4.3c-1.4,0-2.8,0-4.1,0c-0.1,0-0.2,0-0.2-0.2c0-1.4,0-2.8,0-4.2c0,0,0,0,0,0
		C44.4,21.4,45.8,21.4,47.2,21.3L47.2,21.3z"/>
	<path class="st2" d="M34.4,34.3c0-1.4,0-2.9,0-4.3c1.4,0,2.7,0,4.1,0c0.1,0,0.1,0,0.2,0c0,1.4,0,2.9,0,4.3
		C37.2,34.3,35.8,34.3,34.4,34.3L34.4,34.3z"/>
	<path class="st1" d="M38.7,34.3c0-1.4,0-2.9,0-4.3c1.2,0,2.4,0,3.7,0c0.2,0,0.3,0,0.5,0c0.1,0,0.2,0,0.2,0.2c0,0.9,0,1.8,0,2.7
		c0,0.5,0,0.9,0,1.4l0,0C41.5,34.3,40.1,34.3,38.7,34.3L38.7,34.3z"/>
	<path class="st1" d="M47.3,34.3c0,1.4,0,2.9,0,4.3l0,0c-0.1,0-0.1,0-0.2,0c-1.4,0-2.7,0-4.1,0c0-1.4,0-2.9,0-4.3l0,0
		C44.4,34.3,45.8,34.3,47.3,34.3z"/>
	<path class="st0" d="M51.5,21.4c-1.4,0-2.9,0-4.3,0l0,0c0-0.4,0-0.8,0-1.2c0-1,0-2.1,0-3.1c1.4,0,2.9,0,4.3,0l0,0c0,0,0,0,0,0
		c0,1,0,1.9,0,2.9C51.5,20.4,51.5,20.9,51.5,21.4z"/>
	<path class="st1" d="M51.5,38.6c0,1.4,0,2.9,0,4.3c0,0,0,0,0,0c-0.1,0-0.1,0-0.2,0c-1.4,0-2.8,0-4.1,0c0-0.8,0-1.6,0-2.4
		c0-0.6,0-1.3,0-1.9l0,0C48.7,38.6,50.1,38.6,51.5,38.6z"/>
	<path class="st1" d="M34.4,51.5c-2.9,0-5.7,0-8.6,0l0,0c0-1.4,0-2.9,0-4.3c0,0,0,0,0,0c2.9,0,5.7,0,8.6,0l0,0
		C34.4,48.6,34.4,50.1,34.4,51.5L34.4,51.5z"/>
	<path class="st1" d="M51.5,47.2c0,1.4,0,2.9,0,4.3c-1.4,0-2.9,0-4.3,0c0,0,0,0,0,0c0-1.4,0-2.9,0-4.3
		C48.7,47.2,50.1,47.2,51.5,47.2L51.5,47.2z"/>
	<path class="st3" d="M47.2,47.2c0,1.4,0,2.9,0,4.3c-1.4,0-2.9,0-4.3,0c0,0,0,0,0,0c0-1.4,0-2.9,0-4.3
		C44.4,47.2,45.8,47.2,47.2,47.2L47.2,47.2z"/>
	<path class="st1" d="M43,47.2c0,1.4,0,2.9,0,4.3c-1.4,0-2.9,0-4.3,0l0,0c0-1.4,0-2.9,0-4.3l0,0C40.1,47.2,41.5,47.2,43,47.2
		L43,47.2z"/>
	<path class="st2" d="M38.7,47.2c0,1.4,0,2.9,0,4.3c-1.4,0-2.9,0-4.3,0c0-1.4,0-2.9,0-4.3C35.8,47.2,37.2,47.2,38.7,47.2z"/>
	<path class="st2" d="M25.8,47.2c0,1.4,0,2.9,0,4.3c-1.4,0-2.9,0-4.3,0c0,0,0,0,0,0c0-1.4,0-2.9,0-4.3
		C22.9,47.2,24.3,47.2,25.8,47.2z"/>
	<path class="st1" d="M21.5,47.2c0,1.4,0,2.9,0,4.3c-1.4,0-2.9,0-4.3,0c0,0,0,0,0,0c0-1.4,0-2.9,0-4.3c0.1,0,0.1,0,0.2,0
		C18.8,47.2,20.1,47.2,21.5,47.2L21.5,47.2z"/>
	<path class="st1" d="M8.6,51.5c0-1.4,0-2.9,0-4.3l0,0c1.4,0,2.9,0,4.3,0c0,1.4,0,2.9,0,4.3c0,0,0,0,0,0C11.5,51.5,10,51.5,8.6,51.5
		z"/>
	<path class="st3" d="M12.9,51.5c0-1.4,0-2.9,0-4.3l0,0c1.4,0,2.9,0,4.3,0l0,0c0,1.4,0,2.9,0,4.3C15.8,51.5,14.3,51.5,12.9,51.5z"/>
	<path class="st0" d="M25.8,8.4c0,0,0.1,0,0.1,0c2.8,0,5.5,0,8.3,0c0,0,0.1,0,0.1,0c0,1.4,0,2.9,0,4.3l0,0c-2.9,0-5.7,0-8.6,0l0,0
		C25.8,11.3,25.8,9.9,25.8,8.4z"/>
	<path class="st3" d="M34.4,12.7c0-1.4,0-2.9,0-4.3c1.1,0,2.2,0,3.2,0c0.4,0,0.7,0,1.1,0l0,0c0,1.4,0,2.9,0,4.3
		C37.2,12.7,35.8,12.7,34.4,12.7z"/>
	<path class="st3" d="M25.8,8.4c0,1.4,0,2.9,0,4.3c-1.4,0-2.9,0-4.3,0c0-1.4,0-2.9,0-4.3l0,0C22.9,8.4,24.3,8.4,25.8,8.4z"/>
	<path d="M38.7,12.7c0-1.4,0-2.9,0-4.3c1.4,0,2.9,0,4.3,0c0,0,0,0,0,0c0,1.4,0,2.9,0,4.3l0,0C41.5,12.7,40.1,12.7,38.7,12.7
		L38.7,12.7z"/>
	<path d="M21.5,8.4c0,1.4,0,2.9,0,4.3l0,0c-1.4,0-2.9,0-4.3,0l0,0c0-1.4,0-2.9,0-4.3c0,0,0,0,0,0C18.6,8.4,20,8.4,21.5,8.4z"/>
	<path class="st3" d="M43,12.7c0-1.4,0-2.9,0-4.3c1.4,0,2.7,0,4.1,0c0.1,0,0.1,0,0.2,0c0,1.4,0,2.9,0,4.3l0,0
		C45.8,12.7,44.4,12.7,43,12.7z"/>
	<path class="st3" d="M51.5,17c-1.4,0-2.9,0-4.3,0c0-0.1,0-0.1,0-0.2c0-1.4,0-2.7,0-4.1l0,0c1.4,0,2.9,0,4.3,0
		C51.5,14.2,51.5,15.6,51.5,17z"/>
	<path class="st3" d="M12.9,17c-1.4,0-2.9,0-4.3,0c0-1.4,0-2.9,0-4.3c1.4,0,2.9,0,4.3,0c0,0,0,0,0,0c0,0.4,0,0.8,0,1.1
		C12.9,14.9,12.9,16,12.9,17z"/>
	<path class="st3" d="M17.2,8.4c0,1.4,0,2.9,0,4.3c-1.4,0-2.9,0-4.3,0c0,0,0,0,0,0c0-1.4,0-2.9,0-4.3c1.3,0,2.5,0,3.8,0
		C16.8,8.4,17,8.4,17.2,8.4z"/>
	<path class="st3" d="M12.9,47.2c-1.4,0-2.9,0-4.3,0c0-1.4,0-2.7,0-4.1c0-0.1,0-0.1,0-0.2c0.6,0,1.3,0,1.9,0c0.8,0,1.6,0,2.3,0l0,0
		C12.9,44.3,12.9,45.8,12.9,47.2L12.9,47.2z"/>
	<path class="st3" d="M51.5,47.2c-1.4,0-2.9,0-4.3,0l0,0c0-1.4,0-2.9,0-4.3l0,0c1.4,0,2.8,0,4.1,0c0.1,0,0.1,0,0.2,0
		c0,0.6,0,1.3,0,1.9C51.5,45.6,51.5,46.4,51.5,47.2z"/>
	<path class="st2" d="M25.8,34.3c2.9,0,5.7,0,8.6,0l0,0c0,1.4,0,2.8,0,4.2c0,0.1,0,0.1-0.1,0.1c-2.8,0-5.5,0-8.3,0
		c-0.1,0-0.1,0-0.1-0.1C25.8,37.1,25.8,35.7,25.8,34.3L25.8,34.3z"/>
	<path d="M34.4,21.4c0,1.4,0,2.9,0,4.3c-2.9,0-5.7,0-8.6,0c0-1.4,0-2.9,0-4.3l0,0C28.6,21.4,31.5,21.4,34.4,21.4L34.4,21.4z"/>
	<path d="M21.5,12.7c1.4,0,2.9,0,4.3,0c0,0,0,0,0,0c0,0.4,0,0.8,0,1.2c0,1,0,2.1,0,3.1c0,0.1,0,0.1,0,0.2c0,1.4,0,2.8,0,4.1l0,0
		c-1.4,0-2.9,0-4.3,0c0-1.4,0-2.9,0-4.3c0-0.1,0-0.1,0-0.2C21.5,15.5,21.5,14.1,21.5,12.7L21.5,12.7z"/>
	<path d="M12.9,12.7c1.4,0,2.9,0,4.3,0l0,0c0,0.4,0,0.7,0,1.1c0,1.1,0,2.1,0,3.2c0,1.1,0,2.1,0,3.2c0,0.4,0,0.8,0,1.1
		c-1.4,0-2.9,0-4.3,0c0-1.4,0-2.9,0-4.3c0-1.1,0-2.1,0-3.2C12.9,13.5,12.9,13.1,12.9,12.7z"/>
	<path class="st2" d="M17.2,17c0-1.1,0-2.1,0-3.2c0-0.4,0-0.7,0-1.1c1.4,0,2.9,0,4.3,0c0,1.4,0,2.8,0,4.1c0,0.1,0,0.1,0,0.2
		C20,17,18.6,17,17.2,17z"/>
	<path class="st2" d="M17.2,38.6c0-1.4,0-2.9,0-4.3c1.4,0,2.9,0,4.3,0l0,0c0,1.4,0,2.9,0,4.3C20,38.6,18.6,38.6,17.2,38.6L17.2,38.6
		z"/>
	<path class="st3" d="M21.5,38.6c0-1.4,0-2.9,0-4.3c1.4,0,2.9,0,4.3,0c0,1.4,0,2.8,0,4.2c0,0.1,0,0.1,0.1,0.1c2.8,0,5.5,0,8.3,0
		c0.1,0,0.1,0,0.1-0.1c0-1.4,0-2.8,0-4.2c1.4,0,2.9,0,4.3,0c0,0,0,0,0,0c0,1.4,0,2.9,0,4.3c0,1.4,0,2.9,0,4.3c0,1.4,0,2.9,0,4.3l0,0
		c-1.4,0-2.9,0-4.3,0c0,0,0,0,0,0c0-1.4,0-2.8,0-4.1c0-0.1,0-0.2-0.2-0.2c-2.8,0-5.5,0-8.3,0c-0.1,0-0.2,0-0.2,0.2
		c0,1.4,0,2.8,0,4.1c0,0,0,0,0,0c-1.4,0-2.9,0-4.3,0c0,0,0,0,0,0c0-1.4,0-2.9,0-4.3C21.5,41.5,21.5,40,21.5,38.6z"/>
	<path class="st3" d="M12.9,42.9c0-1.4,0-2.8,0-4.2c0-0.1,0-0.1,0-0.2c0.6,0,1.3,0,1.9,0c0.8,0,1.6,0,2.3,0c0,0,0,0,0,0
		c0,1.4,0,2.9,0,4.3l0,0C15.8,42.9,14.3,42.9,12.9,42.9L12.9,42.9z"/>
	<path d="M47.2,12.7c0,1.4,0,2.7,0,4.1c0,0.1,0,0.1,0,0.2c0,1,0,2.1,0,3.1c0,0.4,0,0.8,0,1.2c-1.4,0-2.9,0-4.3,0c0-1.4,0-2.9,0-4.3
		c0-0.1,0-0.1,0-0.2c0-1.4,0-2.8,0-4.1l0,0C44.4,12.7,45.8,12.7,47.2,12.7z"/>
	<path d="M34.4,12.7c1.4,0,2.9,0,4.3,0l0,0c0,0.4,0,0.8,0,1.1c0,1.1,0,2.1,0,3.2c0,1.1,0,2.1,0,3.2c0,0.4,0,0.8,0,1.1
		c-1.4,0-2.9,0-4.3,0l0,0c0-0.4,0-0.8,0-1.2c0-1,0-2.1,0-3.1c0-0.1,0-0.1,0-0.2C34.4,15.5,34.4,14.1,34.4,12.7L34.4,12.7z"/>
	<path class="st2" d="M38.7,17c0-1.1,0-2.1,0-3.2c0-0.4,0-0.8,0-1.1c1.4,0,2.9,0,4.3,0c0,1.4,0,2.8,0,4.1c0,0.1,0,0.1,0,0.2
		C41.5,17,40.1,17,38.7,17z"/>
	<path class="st2" d="M38.7,38.6c0-1.4,0-2.9,0-4.3c1.4,0,2.9,0,4.3,0c0,1.4,0,2.9,0,4.3c0,0,0,0,0,0C41.5,38.6,40.1,38.6,38.7,38.6
		z"/>
	<path class="st3" d="M47.2,38.6c0,0.6,0,1.3,0,1.9c0,0.8,0,1.6,0,2.4c0,0,0,0,0,0c-1.4,0-2.9,0-4.3,0l0,0c0-1.4,0-2.9,0-4.3l0,0
		c1.4,0,2.7,0,4.1,0C47.1,38.6,47.2,38.6,47.2,38.6z"/>
	<path class="st2" d="M25.8,47.2c0-1.4,0-2.8,0-4.1c0-0.1,0-0.2,0.2-0.2c2.8,0,5.5,0,8.3,0c0.1,0,0.2,0,0.2,0.2c0,1.4,0,2.8,0,4.1
		C31.5,47.2,28.6,47.2,25.8,47.2z"/>
	<path class="st1" d="M43,42.9c1.4,0,2.9,0,4.3,0c0,1.4,0,2.9,0,4.3c-1.4,0-2.9,0-4.3,0c0,0,0,0,0,0C43,45.8,43,44.3,43,42.9z"/>
	<path class="st2" d="M43,42.9c0,1.4,0,2.9,0,4.3c-1.4,0-2.9,0-4.3,0c0-1.4,0-2.9,0-4.3C40.1,42.9,41.5,42.9,43,42.9L43,42.9z"/>
	<path class="st2" d="M21.5,42.9c0,1.4,0,2.9,0,4.3c-1.4,0-2.7,0-4.1,0c-0.1,0-0.1,0-0.2,0c0,0,0,0,0,0c0-1.4,0-2.9,0-4.3
		c0,0,0,0,0,0C18.6,42.9,20,42.9,21.5,42.9z"/>
	<path class="st1" d="M17.2,42.9c0,1.4,0,2.9,0,4.3c-1.4,0-2.9,0-4.3,0c0-1.4,0-2.9,0-4.3C14.3,42.9,15.8,42.9,17.2,42.9z"/>
	<path class="st3" d="M34.4,12.7c0,1.4,0,2.7,0,4.1c0,0.1,0,0.1,0,0.2c-2.9,0-5.7,0-8.6,0c0-1,0-2.1,0-3.1c0-0.4,0-0.8,0-1.2
		C28.6,12.7,31.5,12.7,34.4,12.7z"/>
	<path class="st0" d="M25.8,17c2.9,0,5.7,0,8.6,0c0,1,0,2.1,0,3.1c0,0.4,0,0.8,0,1.2c-2.9,0-5.7,0-8.6,0c0-1.4,0-2.8,0-4.1
		C25.8,17.2,25.8,17.1,25.8,17z"/>
	<path class="st1" d="M21.5,42.9c-1.4,0-2.9,0-4.3,0c0-1.4,0-2.9,0-4.3c1.4,0,2.9,0,4.3,0C21.5,40,21.5,41.5,21.5,42.9z"/>
	<path class="st1" d="M43,42.9c-1.4,0-2.9,0-4.3,0c0-1.4,0-2.9,0-4.3c1.4,0,2.9,0,4.3,0C43,40,43,41.5,43,42.9z"/>
</g>
</svg>
