<svg xmlns="http://www.w3.org/2000/svg" viewBox="0 -0.5 32 32" shape-rendering="crispEdges">
<metadata>Made with Pixels to Svg https://codepen.io/shshaw/pen/XbxvNj</metadata>
<path stroke="#000a1a" d="M0 0h32M0 1h32M0 2h32M0 3h3M13 3h6M29 3h3M0 4h3M13 4h6M29 4h3M0 5h3M5 5h6M21 5h6M29 5h3M0 6h3M5 6h6M21 6h6M29 6h3M0 7h3M5 7h6M21 7h6M29 7h3M0 8h8M24 8h8M0 9h8M24 9h8M0 10h8M24 10h8M0 11h3M29 11h3M0 12h3M29 12h3M0 13h3M5 13h3M24 13h3M29 13h3M0 14h3M5 14h3M24 14h3M29 14h3M0 15h3M5 15h3M24 15h3M29 15h3M0 16h3M5 16h3M13 16h6M24 16h3M29 16h3M0 17h3M5 17h3M13 17h6M24 17h3M29 17h3M0 18h3M5 18h3M13 18h6M24 18h3M29 18h3M0 19h3M8 19h3M21 19h3M29 19h3M0 20h3M8 20h3M21 20h3M29 20h3M0 21h3M13 21h6M29 21h3M0 22h3M13 22h6M29 22h3M0 23h3M13 23h6M29 23h3M0 24h3M11 24h2M19 24h2M29 24h3M0 25h3M11 25h2M19 25h2M29 25h3M0 26h3M11 26h2M19 26h2M29 26h3M0 27h3M29 27h3M0 28h3M29 28h3M0 29h32M0 30h32M0 31h32" />
<path stroke="#005ce6" d="M3 3h10M19 3h10M3 4h10M19 4h10M13 5h6M13 6h6M13 7h6M8 8h3M21 8h3M8 9h3M21 9h3M8 10h3M21 10h3M3 11h5M24 11h5M3 12h5M24 12h5M5 19h3M13 19h6M24 19h3M5 20h3M13 20h6M24 20h3M8 21h3M21 21h3M8 22h3M21 22h3M8 23h3M21 23h3M13 24h6M13 25h6M13 26h6M11 27h2M19 27h2M11 28h2M19 28h2" />
<path stroke="#80b3ff" d="M3 5h2M11 5h2M19 5h2M27 5h2M3 6h2M11 6h2M19 6h2M27 6h2M3 7h2M11 7h2M19 7h2M27 7h2M11 8h10M11 9h10M11 10h10M8 11h16M8 12h16M3 13h2M8 13h16M27 13h2M3 14h2M8 14h16M27 14h2M3 15h2M8 15h16M27 15h2M3 16h2M8 16h5M19 16h5M27 16h2M3 17h2M8 17h5M19 17h5M27 17h2M3 18h2M8 18h5M19 18h5M27 18h2M3 19h2M11 19h2M19 19h2M27 19h2M3 20h2M11 20h2M19 20h2M27 20h2M3 21h5M11 21h2M19 21h2M24 21h5M3 22h5M11 22h2M19 22h2M24 22h5M3 23h5M11 23h2M19 23h2M24 23h5M3 24h8M21 24h8M3 25h8M21 25h8M3 26h8M21 26h8M3 27h8M13 27h6M21 27h8M3 28h8M13 28h6M21 28h8" />
</svg>