<?xml version="1.0" encoding="utf-8"?>
<!-- Generator: Adobe Illustrator 25.4.0, SVG Export Plug-In . SVG Version: 6.00 Build 0)  -->
<svg version="1.1" id="Layer_1" xmlns="http://www.w3.org/2000/svg" xmlns:xlink="http://www.w3.org/1999/xlink" x="0px" y="0px"
	 viewBox="0 0 34 34" style="enable-background:new 0 0 34 34;" xml:space="preserve">
<style type="text/css">
	.st0{fill:#00E56E;}
	.st1{fill:#FBFBFB;}
	.st2{fill:#001A0C;}
	.st3{fill:#B8C2FE;}
</style>
<g>
	<path class="st0" d="M0.3,21.6C0.3,21.6,0.3,21.6,0.3,21.6c0.2-0.2,0.4-0.2,0.6-0.2c1.1,0,2.1,0,3.2,0c0.2,0,0.3-0.1,0.3-0.3
		c0-1.1,0-2.3,0-3.4c0-0.2-0.1-0.3-0.3-0.3c-1.1,0-2.2,0-3.4,0c-0.2,0-0.3,0-0.4-0.1c0,0,0,0-0.1,0c0-5.5,0-11,0-16.5
		c0.1,0,0.1-0.1,0.2-0.2c11,0,22.1,0,33.1,0c0.2,0.1,0.2,0.3,0.2,0.5c0,5.3,0,10.6,0,15.9c0,0.1,0,0.2-0.1,0.2
		c0-0.1,0.1-0.1,0.1-0.2c0-5.3,0-10.7,0-16c0-0.2-0.1-0.3-0.3-0.3c-10.9,0-21.8,0-32.7,0c-0.2,0-0.3,0.1-0.3,0.3c0,5.3,0,10.7,0,16
		c0,0.2,0.1,0.3,0.3,0.3c1.2,0,2.3,0,3.5,0c0.2,0,0.4,0.2,0.4,0.4c0,1.2,0,2.3,0,3.5c0,0.2-0.2,0.4-0.4,0.4c-1.1,0-2.3,0-3.4,0
		c-0.2,0-0.3,0.1-0.3,0.3c0,3.9,0,7.9,0,11.8c0,0.2,0.1,0.3,0.3,0.3c10.9,0,21.8,0,32.7,0c0.2,0,0.3-0.1,0.3-0.3c0-3.9,0-7.9,0-11.8
		c0-0.2-0.1-0.3-0.3-0.3c-1.2,0-2.3,0-3.5,0c-0.2,0-0.4-0.2-0.4-0.4c0-1.2,0-2.3,0-3.5c0-0.2,0.2-0.4,0.4-0.4c1,0,2,0,3.1,0
		c0.2,0,0.4,0,0.6-0.1c0,0.1-0.1,0.1-0.2,0.1c-0.5,0-1,0-1.5,0c-0.7,0-1.3,0-2,0c-0.2,0-0.4,0.2-0.4,0.4c0,1.1,0,2.3,0,3.4
		c0,0.2,0.2,0.4,0.4,0.4c1.1,0,2.3,0,3.4,0c0.2,0,0.4,0.1,0.4,0.4c0,4,0,7.9,0,11.9c0,0.4,0.1,0.3-0.3,0.3c-10.9,0-21.9,0-32.8,0
		c-0.2,0-0.2-0.1-0.4-0.2C0.3,29.7,0.3,25.6,0.3,21.6z"/>
	<path class="st1" d="M0.4,0.5c0,0.1-0.1,0.1-0.2,0.2C0.3,0.5,0.3,0.5,0.4,0.5z"/>
	<path class="st2" d="M33.6,17.1c-0.2,0.1-0.4,0.1-0.6,0.1c-1,0-2,0-3.1,0c-0.2,0-0.4,0.2-0.4,0.4c0,1.2,0,2.3,0,3.5
		c0,0.2,0.2,0.4,0.4,0.4c1.2,0,2.3,0,3.5,0c0.2,0,0.3,0.1,0.3,0.3c0,3.9,0,7.9,0,11.8c0,0.2-0.1,0.3-0.3,0.3c-10.9,0-21.8,0-32.7,0
		c-0.2,0-0.3-0.1-0.3-0.3c0-3.9,0-7.9,0-11.8c0-0.2,0.1-0.3,0.3-0.3c1.1,0,2.3,0,3.4,0c0.2,0,0.4-0.2,0.4-0.4c0-1.2,0-2.3,0-3.5
		c0-0.2-0.2-0.4-0.4-0.4c-1.2,0-2.3,0-3.5,0c-0.2,0-0.3-0.1-0.3-0.3c0-5.3,0-10.7,0-16c0-0.2,0.1-0.3,0.3-0.3c10.9,0,21.8,0,32.7,0
		c0.2,0,0.3,0.1,0.3,0.3c0,5.3,0,10.7,0,16C33.7,17,33.6,17,33.6,17.1C33.6,17.1,33.6,17.1,33.6,17.1z M17,29.8c4.1,0,8.1,0,12.2,0
		c0.3,0,0.4-0.1,0.4-0.4c0-1.1,0-2.3,0-3.4c0-0.2-0.2-0.4-0.4-0.4c-8.1,0-16.2,0-24.4,0c-0.2,0-0.4,0.2-0.4,0.4c0,1.1,0,2.3,0,3.4
		c0,0.3,0.1,0.4,0.4,0.4C8.9,29.8,12.9,29.8,17,29.8z M12.8,6.9c0-0.6,0-1.2,0-1.8c0-0.2-0.2-0.4-0.4-0.4c-1.2,0-2.3,0-3.5,0
		c-0.1,0-0.1,0-0.2,0C8.6,4.6,8.4,4.6,8.2,4.6c-1.1,0-2.2,0-3.3,0c-0.3,0-0.5,0.2-0.5,0.5c0,1.2,0,2.3,0,3.5c0,0.1,0,0.1,0,0.2
		c0,0.2,0.1,0.3,0.1,0.5c0,1.1,0,2.3,0,3.4c0,0.2,0.2,0.4,0.4,0.4c1.2,0,2.4,0,3.6,0c0.2,0,0.2,0,0.2-0.2c0-1.2,0-2.4,0-3.6
		c0-0.2,0.2-0.4,0.4-0.4c1.2,0,2.4,0,3.6,0c0.2,0,0.2,0,0.2-0.2C12.8,8.1,12.8,7.5,12.8,6.9z M27.4,13.1c0.6,0,1.2,0,1.8,0
		c0.2,0,0.3-0.1,0.3-0.3c0-1.4,0-2.8,0.1-4.1c0.1-1.2,0-2.3,0-3.5c0-0.3-0.2-0.5-0.5-0.5c-1.3,0-2.7,0-4,0.1c-1.2,0.1-2.4,0-3.6,0
		c-0.2,0-0.4,0.2-0.4,0.4c0,1.2,0,2.4,0,3.6c0,0.2,0,0.2,0.2,0.2c1.2,0,2.4,0,3.6,0c0.2,0,0.4,0.2,0.4,0.4c0,1.2,0,2.4,0,3.6
		c0,0.2,0,0.2,0.2,0.2C26.2,13.1,26.8,13.1,27.4,13.1z M17,8.9c-1.3,0-2.7,0-4,0c-0.2,0-0.2,0-0.2,0.2c0,1.3,0,2.5,0,3.8
		c0,0.2,0,0.2,0.2,0.2c2.7,0,5.3,0,8,0c0.2,0,0.2,0,0.2-0.2c0-1.3,0-2.5,0-3.8c0-0.2,0-0.2-0.2-0.2C19.6,8.9,18.3,8.9,17,8.9z
		 M23.3,13.1c-0.6,0-1.3,0-1.9,0c-0.2,0-0.2,0-0.2,0.2c0,1.2,0,2.4,0,3.6c0,0.2,0.2,0.3,0.4,0.3c1.2,0,2.3,0,3.5,0
		c0.2,0,0.4-0.1,0.4-0.4c0-1.2,0-2.4,0-3.6c0-0.2,0-0.2-0.2-0.2C24.5,13.1,23.9,13.1,23.3,13.1z M10.7,13.1c-0.6,0-1.3,0-1.9,0
		c-0.2,0-0.2,0-0.2,0.2c0,1.2,0,2.4,0,3.6c0,0.2,0.2,0.4,0.4,0.4c1.1,0,2.3,0,3.4,0c0.2,0,0.4-0.2,0.4-0.4c0-1.2,0-2.4,0-3.6
		c0-0.2,0-0.2-0.2-0.2C12,13.1,11.4,13.1,10.7,13.1z"/>
	<path class="st3" d="M17,29.8c-4,0-8.1,0-12.1,0c-0.3,0-0.4-0.1-0.4-0.4c0-1.1,0-2.3,0-3.4c0-0.2,0.2-0.4,0.4-0.4
		c8.1,0,16.2,0,24.4,0c0.2,0,0.4,0.2,0.4,0.4c0,1.1,0,2.3,0,3.4c0,0.3-0.1,0.4-0.4,0.4C25.1,29.8,21,29.8,17,29.8z"/>
	<path class="st0" d="M12.8,6.9c0,0.6,0,1.2,0,1.8c0,0.2,0,0.2-0.2,0.2c-1.2,0-2.4,0-3.6,0c-0.2,0-0.4,0.2-0.4,0.4
		c0,1.2,0,2.4,0,3.6c0,0.2,0,0.2-0.2,0.2c-1.2,0-2.4,0-3.6,0c-0.2,0-0.4-0.2-0.4-0.4c0-1.1,0-2.3,0-3.4c0-0.2-0.1-0.3-0.1-0.5
		c0-0.1,0-0.1,0-0.2c0-1.2,0-2.3,0-3.5c0-0.3,0.2-0.5,0.5-0.5c1.1,0,2.2,0,3.3,0c0.2,0,0.4,0,0.5,0.1c0.1,0,0.1,0,0.2,0
		c1.2,0,2.3,0,3.5,0c0.2,0,0.4,0.2,0.4,0.4C12.8,5.7,12.8,6.3,12.8,6.9z M4.7,6.8c0,0.6,0,1.1,0,1.7c0,0.1,0,0.2,0.2,0.2
		c1.1,0,2.3,0,3.4,0c0.2,0,0.2,0,0.2-0.2c0-1.1,0-2.3,0-3.4c0-0.1,0-0.2-0.2-0.2c-1.2,0-2.3,0-3.5,0c-0.1,0-0.1,0-0.1,0.1
		C4.7,5.7,4.7,6.2,4.7,6.8z"/>
	<path class="st0" d="M27.4,13.1c-0.6,0-1.2,0-1.8,0c-0.2,0-0.2,0-0.2-0.2c0-1.2,0-2.4,0-3.6c0-0.2-0.2-0.4-0.4-0.4
		c-1.2,0-2.4,0-3.6,0c-0.2,0-0.2,0-0.2-0.2c0-1.2,0-2.4,0-3.6c0-0.2,0.2-0.4,0.4-0.4c1.2,0,2.4,0.1,3.6,0c1.3-0.1,2.7,0,4-0.1
		c0.3,0,0.5,0.2,0.5,0.5c0,1.2,0.1,2.3,0,3.5c-0.1,1.4,0,2.8-0.1,4.1c0,0.2-0.2,0.3-0.3,0.3C28.6,13.1,28,13.1,27.4,13.1z M27.5,4.9
		c-0.6,0-1.2,0-1.7,0c-0.1,0-0.2,0-0.2,0.2c0,1.1,0,2.3,0,3.4c0,0.2,0,0.2,0.2,0.2c1.1,0,2.3,0,3.4,0c0.1,0,0.2,0,0.2-0.2
		c0-1.2,0-2.3,0-3.5c0-0.1,0-0.1-0.1-0.1C28.6,4.9,28,4.9,27.5,4.9z"/>
	<path class="st3" d="M17,8.9c1.3,0,2.6,0,4,0c0.2,0,0.2,0,0.2,0.2c0,1.3,0,2.5,0,3.8c0,0.2,0,0.2-0.2,0.2c-2.7,0-5.3,0-8,0
		c-0.2,0-0.2,0-0.2-0.2c0-1.3,0-2.5,0-3.8c0-0.2,0-0.2,0.2-0.2C14.3,8.9,15.7,8.9,17,8.9z"/>
	<path class="st0" d="M23.3,13.1c0.6,0,1.3,0,1.9,0c0.2,0,0.2,0,0.2,0.2c0,1.2,0,2.4,0,3.6c0,0.2-0.1,0.4-0.4,0.4
		c-1.2,0-2.3,0-3.5,0c-0.2,0-0.4-0.2-0.4-0.3c0-1.2,0-2.4,0-3.6c0-0.2,0-0.2,0.2-0.2C22,13.1,22.6,13.1,23.3,13.1z"/>
	<path class="st0" d="M10.7,13.1c0.6,0,1.2,0,1.9,0c0.2,0,0.2,0,0.2,0.2c0,1.2,0,2.4,0,3.6c0,0.2-0.2,0.4-0.4,0.4
		c-1.1,0-2.3,0-3.4,0c-0.2,0-0.4-0.2-0.4-0.4c0-1.2,0-2.4,0-3.6c0-0.2,0-0.2,0.2-0.2C9.5,13.1,10.1,13.1,10.7,13.1z"/>
	<path class="st3" d="M4.7,6.8c0-0.6,0-1.2,0-1.7c0-0.1,0-0.1,0.1-0.1c1.2,0,2.3,0,3.5,0c0.1,0,0.2,0,0.2,0.2c0,1.1,0,2.3,0,3.4
		c0,0.2,0,0.2-0.2,0.2c-1.1,0-2.3,0-3.4,0c-0.1,0-0.2,0-0.2-0.2C4.7,8,4.7,7.4,4.7,6.8z"/>
	<path class="st3" d="M27.5,4.9c0.6,0,1.2,0,1.7,0c0.1,0,0.1,0,0.1,0.1c0,1.2,0,2.3,0,3.5c0,0.1,0,0.2-0.2,0.2c-1.1,0-2.3,0-3.4,0
		c-0.2,0-0.2,0-0.2-0.2c0-1.1,0-2.3,0-3.4c0-0.1,0-0.2,0.2-0.2C26.3,4.9,26.9,4.9,27.5,4.9z"/>
</g>
</svg>
