<svg width="32" height="32" viewBox="0 0 32 32" fill="none" xmlns="http://www.w3.org/2000/svg">
<mask id="mask0_109_2762" style="mask-type:luminance" maskUnits="userSpaceOnUse" x="0" y="0" width="32" height="32">
<path d="M0 32H32V0H0V32Z" fill="white"/>
</mask>
<g mask="url(#mask0_109_2762)">
<g filter="url(#filter0_d_109_2762)">
<path d="M32 31.5H0M32 30.5H0M32 29.5H30M27 29.5H25M18 29.5H14M7 29.5H5M2 29.5H0M32 28.5H30M27 28.5H25M18 28.5H14M7 28.5H5M2 28.5H0M32 27.5H30M27 27.5H25M18 27.5H14M7 27.5H5M2 27.5H0M32 26.5H27M5 26.5H0M32 25.5H27M5 25.5H0M30 24.5H25M7 24.5H2M30 23.5H25M7 23.5H2M32 22.5H27M25 22.5H23M9 22.5H7M5 22.5H0M32 21.5H27M25 21.5H23M9 21.5H7M5 21.5H0M32 20.5H30M23 20.5H21M11 20.5H9M2 20.5H0M32 19.5H30M23 19.5H21M11 19.5H9M2 19.5H0M32 18.5H30M23 18.5H21M11 18.5H9M2 18.5H0M32 17.5H27M23 17.5H21M11 17.5H9M5 17.5H0M32 16.5H27M23 16.5H21M11 16.5H9M5 16.5H0M32 15.5H30M27 15.5H25M7 15.5H5M2 15.5H0M32 14.5H30M27 14.5H25M7 14.5H5M2 14.5H0M32 13.5H27M5 13.5H0M32 12.5H27M5 12.5H0M32 11.5H27M5 11.5H0M32 10.5H30M18 10.5H14M2 10.5H0M32 9.5H30M18 9.5H14M2 9.5H0M32 8.5H30M25 8.5H23M21 8.5H18M14 8.5H11M9 8.5H7M2 8.5H0M32 7.5H30M25 7.5H23M21 7.5H18M14 7.5H11M9 7.5H7M2 7.5H0M32 6.5H27M25 6.5H23M9 6.5H7M5 6.5H0M32 5.5H27M25 5.5H23M9 5.5H7M5 5.5H0M32 4.5H30M21 4.5H11M2 4.5H0M32 3.5H30M21 3.5H11M2 3.5H0M32 2.5H30M21 2.5H11M2 2.5H0M32 1.5H18M14 1.5H0M32 0.5H18M14 0.5H0" stroke="#1A0000"/>
<path d="M30 29.5H27M5 29.5H2M30 28.5H27M5 28.5H2M30 27.5H27M5 27.5H2M27 26.5H25M7 26.5H5M27 25.5H25M7 25.5H5M25 24.5H23M9 24.5H7M25 23.5H23M9 23.5H7M23 22.5H21M11 22.5H9M23 21.5H21M11 21.5H9M30 20.5H27M5 20.5H2M30 19.5H27M5 19.5H2M30 18.5H27M5 18.5H2M27 17.5H25M7 17.5H5M27 16.5H25M7 16.5H5M30 15.5H27M5 15.5H2M30 14.5H27M5 14.5H2M18 13.5H14M18 12.5H14M18 11.5H14M25 10.5H23M21 10.5H18M14 10.5H11M9 10.5H7M25 9.5H23M21 9.5H18M14 9.5H11M9 9.5H7M30 8.5H27M5 8.5H2M30 7.5H27M5 7.5H2M21 6.5H11M21 5.5H11M30 4.5H21M11 4.5H2M30 3.5H21M11 3.5H2M30 2.5H21M11 2.5H2" stroke="#E60004"/>
<path d="M25 29.5H18M14 29.5H7M25 28.5H18M14 28.5H7M25 27.5H18M14 27.5H7M25 26.5H7M25 25.5H7M23 24.5H9M23 23.5H9M27 22.5H25M21 22.5H11M7 22.5H5M27 21.5H25M21 21.5H11M7 21.5H5M27 20.5H23M21 20.5H11M9 20.5H5M27 19.5H23M21 19.5H11M9 19.5H5M27 18.5H23M21 18.5H11M9 18.5H5M25 17.5H23M21 17.5H11M9 17.5H7M25 16.5H23M21 16.5H11M9 16.5H7M25 15.5H7M25 14.5H7M27 13.5H18M14 13.5H5M27 12.5H18M14 12.5H5M27 11.5H18M14 11.5H5M30 10.5H25M23 10.5H21M11 10.5H9M7 10.5H2M30 9.5H25M23 9.5H21M11 9.5H9M7 9.5H2M27 8.5H25M23 8.5H21M18 8.5H14M11 8.5H9M7 8.5H5M27 7.5H25M23 7.5H21M18 7.5H14M11 7.5H9M7 7.5H5M27 6.5H25M23 6.5H21M11 6.5H9M7 6.5H5M27 5.5H25M23 5.5H21M11 5.5H9M7 5.5H5" stroke="#FF8082"/>
</g>
</g>
<defs>
<filter id="filter0_d_109_2762" x="-4" y="0" width="40" height="40" filterUnits="userSpaceOnUse" color-interpolation-filters="sRGB">
<feFlood flood-opacity="0" result="BackgroundImageFix"/>
<feColorMatrix in="SourceAlpha" type="matrix" values="0 0 0 0 0 0 0 0 0 0 0 0 0 0 0 0 0 0 127 0" result="hardAlpha"/>
<feOffset dy="4"/>
<feGaussianBlur stdDeviation="2"/>
<feComposite in2="hardAlpha" operator="out"/>
<feColorMatrix type="matrix" values="0 0 0 0 0 0 0 0 0 0 0 0 0 0 0 0 0 0 0.25 0"/>
<feBlend mode="normal" in2="BackgroundImageFix" result="effect1_dropShadow_109_2762"/>
<feBlend mode="normal" in="SourceGraphic" in2="effect1_dropShadow_109_2762" result="shape"/>
</filter>
</defs>
</svg>
