<svg xmlns="http://www.w3.org/2000/svg" viewBox="0 -0.5 32 32" shape-rendering="crispEdges">
<metadata>Made with Pixels to Svg https://codepen.io/shshaw/pen/XbxvNj</metadata>
<path stroke="#09001a" d="M0 0h32M0 1h32M0 2h32M0 3h3M8 3h3M21 3h3M29 3h3M0 4h3M8 4h3M21 4h3M29 4h3M0 5h3M13 5h6M29 5h3M0 6h3M13 6h6M29 6h3M0 7h3M13 7h6M29 7h3M0 8h3M8 8h3M21 8h3M29 8h3M0 9h3M8 9h3M21 9h3M29 9h3M0 10h3M8 10h3M21 10h3M29 10h3M0 11h3M13 11h6M29 11h3M0 12h3M13 12h6M29 12h3M0 13h3M5 13h3M11 13h2M19 13h2M24 13h3M29 13h3M0 14h3M5 14h3M11 14h2M19 14h2M24 14h3M29 14h3M0 15h3M5 15h3M11 15h2M19 15h2M24 15h3M29 15h3M0 16h3M5 16h3M24 16h3M29 16h3M0 17h3M5 17h3M24 17h3M29 17h3M0 18h3M5 18h3M24 18h3M29 18h3M0 19h3M8 19h3M21 19h3M29 19h3M0 20h3M8 20h3M21 20h3M29 20h3M0 21h3M29 21h3M0 22h3M29 22h3M0 23h3M29 23h3M0 24h3M29 24h3M0 25h3M29 25h3M0 26h3M29 26h3M0 27h3M29 27h3M0 28h3M29 28h3M0 29h32M0 30h32M0 31h32" />
<path stroke="#5000e6" d="M3 3h5M11 3h10M24 3h5M3 4h5M11 4h10M24 4h5M8 5h3M21 5h3M8 6h3M21 6h3M8 7h3M21 7h3M13 8h6M13 9h6M13 10h6M8 11h3M21 11h3M8 12h3M21 12h3M13 13h6M13 14h6M13 15h6M11 16h2M19 16h2M11 17h2M19 17h2M11 18h2M19 18h2M5 19h3M24 19h3M5 20h3M24 20h3M8 21h3M21 21h3M8 22h3M21 22h3M8 23h3M21 23h3" />
<path stroke="#ac80ff" d="M3 5h5M11 5h2M19 5h2M24 5h5M3 6h5M11 6h2M19 6h2M24 6h5M3 7h5M11 7h2M19 7h2M24 7h5M3 8h5M11 8h2M19 8h2M24 8h5M3 9h5M11 9h2M19 9h2M24 9h5M3 10h5M11 10h2M19 10h2M24 10h5M3 11h5M11 11h2M19 11h2M24 11h5M3 12h5M11 12h2M19 12h2M24 12h5M3 13h2M8 13h3M21 13h3M27 13h2M3 14h2M8 14h3M21 14h3M27 14h2M3 15h2M8 15h3M21 15h3M27 15h2M3 16h2M8 16h3M13 16h6M21 16h3M27 16h2M3 17h2M8 17h3M13 17h6M21 17h3M27 17h2M3 18h2M8 18h3M13 18h6M21 18h3M27 18h2M3 19h2M11 19h10M27 19h2M3 20h2M11 20h10M27 20h2M3 21h5M11 21h10M24 21h5M3 22h5M11 22h10M24 22h5M3 23h5M11 23h10M24 23h5M3 24h26M3 25h26M3 26h26M3 27h26M3 28h26" />
</svg>