<svg width="32" height="32" viewBox="0 0 32 32" fill="none" xmlns="http://www.w3.org/2000/svg">
<mask id="mask0_109_2773" style="mask-type:luminance" maskUnits="userSpaceOnUse" x="0" y="0" width="32" height="32">
<path d="M0 32H32V0H0V32Z" fill="white"/>
</mask>
<g mask="url(#mask0_109_2773)">
<g filter="url(#filter0_d_109_2773)">
<path d="M32 31.5H0M32 30.5H0M32 29.5H30M23 29.5H21M11 29.5H9M2 29.5H0M32 28.5H30M23 28.5H21M11 28.5H9M2 28.5H0M32 27.5H30M23 27.5H21M11 27.5H9M2 27.5H0M32 26.5H30M21 26.5H18M14 26.5H11M2 26.5H0M32 25.5H30M21 25.5H18M14 25.5H11M2 25.5H0M32 24.5H30M18 24.5H14M2 24.5H0M32 23.5H30M18 23.5H14M2 23.5H0M32 22.5H30M2 22.5H0M32 21.5H30M2 21.5H0M32 20.5H30M21 20.5H18M14 20.5H11M2 20.5H0M32 19.5H30M21 19.5H18M14 19.5H11M2 19.5H0M32 18.5H30M21 18.5H18M14 18.5H11M2 18.5H0M32 17.5H30M27 17.5H23M18 17.5H14M9 17.5H5M2 17.5H0M32 16.5H30M27 16.5H23M18 16.5H14M9 16.5H5M2 16.5H0M32 15.5H25M23 15.5H18M14 15.5H9M7 15.5H0M32 14.5H25M23 14.5H18M14 14.5H9M7 14.5H0M32 13.5H30M18 13.5H14M2 13.5H0M32 12.5H30M18 12.5H14M2 12.5H0M32 11.5H30M18 11.5H14M2 11.5H0M32 10.5H30M21 10.5H11M2 10.5H0M32 9.5H30M21 9.5H11M2 9.5H0M32 8.5H30M21 8.5H18M14 8.5H11M2 8.5H0M32 7.5H30M21 7.5H18M14 7.5H11M2 7.5H0M32 6.5H30M27 6.5H25M7 6.5H5M2 6.5H0M32 5.5H30M27 5.5H25M7 5.5H5M2 5.5H0M32 4.5H30M23 4.5H21M11 4.5H9M2 4.5H0M32 3.5H30M23 3.5H21M11 3.5H9M2 3.5H0M32 2.5H30M23 2.5H21M11 2.5H9M2 2.5H0M32 1.5H0M32 0.5H0" stroke="#1A0006"/>
<path d="M30 29.5H23M18 29.5H14M9 29.5H2M30 28.5H23M18 28.5H14M9 28.5H2M30 27.5H23M18 27.5H14M9 27.5H2M30 26.5H21M11 26.5H2M30 25.5H21M11 25.5H2M30 24.5H18M14 24.5H2M30 23.5H18M14 23.5H2M30 22.5H21M18 22.5H14M11 22.5H2M30 21.5H21M18 21.5H14M11 21.5H2M30 20.5H27M23 20.5H21M11 20.5H9M5 20.5H2M30 19.5H27M23 19.5H21M11 19.5H9M5 19.5H2M30 18.5H27M23 18.5H21M11 18.5H9M5 18.5H2M25 15.5H23M9 15.5H7M25 14.5H23M9 14.5H7M30 13.5H21M11 13.5H2M30 12.5H21M11 12.5H2M30 11.5H21M11 11.5H2M30 10.5H21M11 10.5H2M30 9.5H21M11 9.5H2M30 8.5H27M25 8.5H21M18 8.5H14M11 8.5H7M5 8.5H2M30 7.5H27M25 7.5H21M18 7.5H14M11 7.5H7M5 7.5H2M30 6.5H27M25 6.5H23M21 6.5H11M9 6.5H7M5 6.5H2M30 5.5H27M25 5.5H23M21 5.5H11M9 5.5H7M5 5.5H2" stroke="#FF809D"/>
<path d="M21 29.5H18M14 29.5H11M21 28.5H18M14 28.5H11M21 27.5H18M14 27.5H11M18 26.5H14M18 25.5H14M21 22.5H18M14 22.5H11M21 21.5H18M14 21.5H11M27 20.5H23M18 20.5H14M9 20.5H5M27 19.5H23M18 19.5H14M9 19.5H5M27 18.5H23M18 18.5H14M9 18.5H5M30 17.5H27M23 17.5H18M14 17.5H9M5 17.5H2M30 16.5H27M23 16.5H18M14 16.5H9M5 16.5H2M18 15.5H14M18 14.5H14M21 13.5H18M14 13.5H11M21 12.5H18M14 12.5H11M21 11.5H18M14 11.5H11M27 8.5H25M7 8.5H5M27 7.5H25M7 7.5H5M23 6.5H21M11 6.5H9M23 5.5H21M11 5.5H9M30 4.5H23M21 4.5H11M9 4.5H2M30 3.5H23M21 3.5H11M9 3.5H2M30 2.5H23M21 2.5H11M9 2.5H2" stroke="#E60036"/>
</g>
</g>
<defs>
<filter id="filter0_d_109_2773" x="-4" y="0" width="40" height="40" filterUnits="userSpaceOnUse" color-interpolation-filters="sRGB">
<feFlood flood-opacity="0" result="BackgroundImageFix"/>
<feColorMatrix in="SourceAlpha" type="matrix" values="0 0 0 0 0 0 0 0 0 0 0 0 0 0 0 0 0 0 127 0" result="hardAlpha"/>
<feOffset dy="4"/>
<feGaussianBlur stdDeviation="2"/>
<feComposite in2="hardAlpha" operator="out"/>
<feColorMatrix type="matrix" values="0 0 0 0 0 0 0 0 0 0 0 0 0 0 0 0 0 0 0.25 0"/>
<feBlend mode="normal" in2="BackgroundImageFix" result="effect1_dropShadow_109_2773"/>
<feBlend mode="normal" in="SourceGraphic" in2="effect1_dropShadow_109_2773" result="shape"/>
</filter>
</defs>
</svg>
