<?xml version="1.0" encoding="utf-8"?>
<!-- Generator: Adobe Illustrator 25.4.0, SVG Export Plug-In . SVG Version: 6.00 Build 0)  -->
<svg version="1.1" id="Layer_1" xmlns="http://www.w3.org/2000/svg" xmlns:xlink="http://www.w3.org/1999/xlink" x="0px" y="0px"
	 viewBox="0 0 60 60" style="enable-background:new 0 0 60 60;" xml:space="preserve">
<style type="text/css">
	.st0{fill:#FEA004;}
	.st1{fill:#B8C2FE;}
	.st2{fill:#0058F7;}
	.st3{fill:#36FEDE;}
	.st4{fill:#FED30B;}
</style>
<g>
	<path d="M60,17.1c0,14.2,0,28.5,0,42.7c0,0.1,0,0.2-0.2,0.2c-8.5,0-17,0-25.5,0c0-1.4,0-2.8,0-4.1c0-0.1,0-0.2-0.2-0.2
		c-2.8,0-5.5,0-8.3,0c-0.1,0-0.2,0-0.2,0.2c0,1.4,0,2.8,0,4.1C17.2,60,8.6,60,0,60c0-14.3,0-28.6,0-42.9c0,0,0,0,0,0
		c0,0,0.1,0,0.1,0c1.4,0,2.8,0,4.2,0c0,0.4,0,0.8,0,1.1c0,1.1,0,2.1,0,3.2c0,0.2,0,0.4,0,0.6c0,1.2,0,2.4,0,3.6c0,0.2,0,0.5,0,0.7
		c0,1.2,0,2.4,0,3.6c0,0.2,0,0.4,0,0.7c0,1.2,0,2.4,0,3.6c0,0.2,0,0.4,0,0.7c0,1.2,0,2.4,0,3.6c0,0.2,0,0.4,0,0.7c0,1.2,0,2.4,0,3.6
		c0,0.2,0,0.5,0,0.7c0,1.2,0,2.4,0,3.6c0,0.2,0,0.4,0,0.7c0,1.2,0,2.4,0,3.6c0,0.6,0,1.1,0,1.7c0,0.8,0,1.7,0,2.5
		c0,0.1,0,0.1,0.1,0.1c0.2,0,0.3,0,0.5,0c1.2,0,2.5,0,3.7,0c0.2,0,0.5,0,0.7,0c1.2,0,2.4,0,3.6,0c0.3,0,0.5,0,0.8,0
		c1.2,0,2.3,0,3.5,0c0.1,0,0.1,0,0.2,0c1.3,0,2.7,0,4,0c0.1,0,0.2,0,0.2-0.2c0-1.4,0-2.8,0-4.1c5.7,0,11.4,0,17.1,0
		c0,0.2,0,0.4,0,0.6c0,1.2,0,2.3,0,3.5c0,0.1,0,0.2,0.2,0.2c0.2,0,0.3,0,0.5,0c1.2,0,2.4,0,3.6,0c0.3,0,0.5,0,0.8,0
		c1.2,0,2.4,0,3.5,0c0.3,0,0.5,0,0.8,0c1.2,0,2.3,0,3.5,0c0.6,0,1.1,0,1.7,0c0.8,0,1.6,0,2.5,0c0.1,0,0.1,0,0.1-0.1
		c0-0.2,0-0.3,0-0.5c0-1.2,0-2.5,0-3.7c0-0.2,0-0.5,0-0.7c0-1.2,0-2.4,0-3.6c0-0.2,0-0.4,0-0.6c0-1.2,0-2.5,0-3.7c0-0.4,0-0.8,0-1.1
		c0-1.1,0-2.1,0-3.2c0-0.2,0-0.4,0-0.6c0-1.2,0-2.5,0-3.7c0-0.2,0-0.5,0-0.7c0-1.2,0-2.4,0-3.6c0-0.2,0-0.5,0-0.7c0-1.2,0-2.4,0-3.6
		c0-0.4,0-0.7,0-1.1c0-1.1,0-2.1,0-3.2c0-1.4,0-2.9,0-4.3C57.2,17.1,58.6,17.1,60,17.1z"/>
	<path d="M0,12.8C0,10,0,7.1,0,4.2c0,0,0,0,0,0c0.1,0,0.1,0,0.2,0c1.4,0,2.7,0,4.1,0l0,0c0,0.4,0,0.8,0,1.2c0,1,0,2.1,0,3.1
		c0,1.4,0,2.9,0,4.3c-0.9,0-1.9,0-2.8,0C1,12.8,0.5,12.8,0,12.8C0,12.8,0,12.8,0,12.8z"/>
	<path d="M60,4.2c0,2.9,0,5.7,0,8.6c-1.4,0-2.8,0-4.2,0c0-0.4,0-0.8,0-1.1c0-1.1,0-2.1,0-3.2c0-0.1,0-0.1,0-0.2c0-1.4,0-2.7,0-4.1
		l0,0C57.2,4.2,58.6,4.2,60,4.2z"/>
	<path d="M51.5,4.2c0-1.4,0-2.8,0-4.2c1.4,0,2.9,0,4.3,0c0,1.4,0,2.8,0,4.2l0,0C54.3,4.2,52.9,4.2,51.5,4.2L51.5,4.2z"/>
	<path d="M8.6,0.1c0,1.4,0,2.8,0,4.2l0,0c-1.4,0-2.9,0-4.3,0l0,0c0-1.4,0-2.8,0-4.2C5.7,0.1,7.2,0.1,8.6,0.1z"/>
	<path class="st0" d="M0,0.1C0,0.1,0,0.1,0,0.1C0,0.1,0,0.1,0,0.1z"/>
	<path class="st0" d="M0,17.1C0,17.1,0,17.1,0,17.1C0,17.1,0,17.1,0,17.1C0,17.1,0,17.1,0,17.1z"/>
	<path class="st0" d="M0,4.2C0,4.2,0,4.2,0,4.2C0,4.2,0,4.2,0,4.2C0,4.2,0,4.2,0,4.2z"/>
	<path class="st0" d="M0,12.8C0,12.8,0,12.8,0,12.8C0,12.8,0,12.8,0,12.8C0,12.8,0,12.8,0,12.8z"/>
	<path class="st1" d="M38.6,51.4c-5.7,0-11.4,0-17.1,0l0,0c0-1.4,0-2.8,0-4.3c0.9,0,1.8,0,2.7,0c0.5,0,0.9,0,1.4,0
		c0.1,0,0.2,0,0.2-0.2c0-0.1,0-0.3,0-0.4c0-1.2,0-2.5,0-3.7c0-0.3,0-0.5,0-0.8c0-1.2,0-2.4,0-3.5c2.9,0,5.7,0,8.6,0
		c0,0.2,0,0.4,0,0.7c0,1.2,0,2.4,0,3.6c0,0.1,0,0.1,0,0.2c0,1.3,0,2.6,0,3.9c0,0.2,0,0.2,0.2,0.2c1.4,0,2.7,0,4.1,0
		C38.6,48.6,38.6,50,38.6,51.4L38.6,51.4z"/>
	<path class="st2" d="M55.8,51.4c0,1.2,0,2.5,0,3.7c0,0.2,0,0.3,0,0.5c0,0.1,0,0.1-0.1,0.1c-0.8,0-1.6,0-2.5,0c-0.6,0-1.1,0-1.7,0
		c0-1.4,0-2.9,0-4.3C52.9,51.4,54.3,51.4,55.8,51.4z"/>
	<path class="st1" d="M55.8,30c0,1.2,0,2.4,0,3.6c0,0.2,0,0.5,0,0.7c-1.4,0-2.9,0-4.3,0l0,0c0-1.4,0-2.9,0-4.3l0,0
		C52.9,30,54.3,30,55.8,30z"/>
	<path class="st2" d="M47.2,55.7c-1.2,0-2.4,0-3.5,0c-0.3,0-0.5,0-0.8,0c0-1.4,0-2.9,0-4.3l0,0c1.4,0,2.9,0,4.3,0
		C47.2,52.8,47.2,54.3,47.2,55.7z"/>
	<path class="st1" d="M42.9,51.4c0,1.4,0,2.9,0,4.3c-1.2,0-2.4,0-3.6,0c-0.2,0-0.3,0-0.5,0c-0.1,0-0.2,0-0.2-0.2c0-1.2,0-2.3,0-3.5
		c0-0.2,0-0.4,0-0.6l0,0C40.1,51.4,41.5,51.4,42.9,51.4z"/>
	<path class="st1" d="M21.5,51.4c0,1.4,0,2.8,0,4.1c0,0.1,0,0.2-0.2,0.2c-1.3,0-2.7,0-4,0c-0.1,0-0.1,0-0.2,0c0-1.4,0-2.9,0-4.3
		C18.6,51.4,20,51.4,21.5,51.4L21.5,51.4z"/>
	<path class="st2" d="M17.2,51.4c0,1.4,0,2.9,0,4.3c-1.2,0-2.3,0-3.5,0c-0.3,0-0.5,0-0.8,0c0-1.4,0-2.9,0-4.3
		C14.3,51.4,15.8,51.4,17.2,51.4L17.2,51.4z"/>
	<path class="st2" d="M4.3,21.4c0-1.1,0-2.1,0-3.2c0-0.4,0-0.8,0-1.1c0,0,0,0,0,0c1.4,0,2.9,0,4.3,0c0,0.1,0,0.1,0,0.2
		c0,1.4,0,2.7,0,4.1C7.2,21.4,5.7,21.4,4.3,21.4z"/>
	<path class="st1" d="M12.9,51.4c0,1.4,0,2.9,0,4.3c-1.2,0-2.4,0-3.6,0c-0.2,0-0.5,0-0.7,0c0-1.4,0-2.9,0-4.3l0,0
		C10,51.4,11.5,51.4,12.9,51.4L12.9,51.4z"/>
	<path class="st2" d="M55.8,17.1c0,1.4,0,2.9,0,4.3c-1.4,0-2.9,0-4.3,0c0-0.4,0-0.8,0-1.2c0-1,0-2.1,0-3.1
		C52.9,17.1,54.3,17.1,55.8,17.1L55.8,17.1z"/>
	<path class="st2" d="M8.6,51.4c0,1.4,0,2.9,0,4.3c-1.2,0-2.5,0-3.7,0c-0.2,0-0.3,0-0.5,0c-0.1,0-0.1,0-0.1-0.1c0-0.8,0-1.7,0-2.5
		c0-0.6,0-1.1,0-1.7C5.7,51.4,7.2,51.4,8.6,51.4z"/>
	<path class="st2" d="M55.8,42.9c0,1.2,0,2.5,0,3.7c0,0.2,0,0.4,0,0.6c-1.4,0-2.9,0-4.3,0c0-1.4,0-2.9,0-4.3l0,0c0.1,0,0.1,0,0.2,0
		C53,42.9,54.4,42.9,55.8,42.9z"/>
	<path class="st2" d="M4.3,47.1c0-1.2,0-2.4,0-3.6c0-0.2,0-0.5,0-0.7c0.2,0,0.4,0,0.6,0c1.2,0,2.5,0,3.7,0c0,0,0,0,0,0
		c0,1.4,0,2.9,0,4.3l0,0C7.2,47.1,5.7,47.1,4.3,47.1z"/>
	<path class="st1" d="M55.8,42.9c-1.4,0-2.7,0-4.1,0c-0.1,0-0.1,0-0.2,0c0-0.4,0-0.7,0-1.1c0-1.1,0-2.1,0-3.2c1.4,0,2.9,0,4.3,0
		c0,1.1,0,2.1,0,3.2C55.8,42.1,55.8,42.5,55.8,42.9z"/>
	<path class="st2" d="M4.3,30c0-1.2,0-2.4,0-3.6c0-0.2,0-0.5,0-0.7c1.4,0,2.9,0,4.3,0c0,1.4,0,2.9,0,4.3C7.2,30,5.7,30,4.3,30z"/>
	<path class="st1" d="M8.6,42.8c-1.2,0-2.5,0-3.7,0c-0.2,0-0.4,0-0.6,0c0-1.2,0-2.4,0-3.6c0-0.2,0-0.4,0-0.7c1.4,0,2.9,0,4.3,0
		C8.6,40,8.6,41.4,8.6,42.8z"/>
	<path class="st2" d="M55.8,38.6c-1.4,0-2.9,0-4.3,0c0-0.1,0-0.1,0-0.2c0-1.4,0-2.7,0-4.1c1.4,0,2.9,0,4.3,0c0,1.2,0,2.5,0,3.7
		C55.8,38.2,55.8,38.4,55.8,38.6z"/>
	<path class="st2" d="M55.8,30c-1.4,0-2.9,0-4.3,0c0-1.4,0-2.9,0-4.3c1.4,0,2.9,0,4.3,0c0,1.2,0,2.4,0,3.6
		C55.8,29.5,55.8,29.7,55.8,30z"/>
	<path class="st1" d="M4.3,30c1.4,0,2.9,0,4.3,0c0,0,0,0,0,0c0,1.4,0,2.9,0,4.3l0,0c-1.4,0-2.9,0-4.3,0c0-1.2,0-2.4,0-3.6
		C4.3,30.4,4.3,30.2,4.3,30z"/>
	<path class="st2" d="M4.3,34.3c1.4,0,2.9,0,4.3,0c0,0.4,0,0.8,0,1.1c0,1.1,0,2.1,0,3.2c-1.4,0-2.9,0-4.3,0c0-1.2,0-2.4,0-3.6
		C4.3,34.7,4.3,34.5,4.3,34.3z"/>
	<path class="st1" d="M4.3,47.1c1.4,0,2.9,0,4.3,0c0,1.4,0,2.8,0,4.3l0,0c-1.4,0-2.9,0-4.3,0c0-1.2,0-2.4,0-3.6
		C4.3,47.6,4.3,47.4,4.3,47.1z"/>
	<path class="st1" d="M47.2,55.7c0-1.4,0-2.9,0-4.3l0,0c1.4,0,2.8,0,4.3,0l0,0c0,1.4,0,2.9,0,4.3c-1.2,0-2.3,0-3.5,0
		C47.7,55.7,47.5,55.7,47.2,55.7z"/>
	<path class="st1" d="M51.5,47.1c1.4,0,2.9,0,4.3,0c0,1.2,0,2.4,0,3.6c0,0.2,0,0.5,0,0.7c-1.4,0-2.9,0-4.3,0l0,0
		C51.5,50,51.5,48.6,51.5,47.1L51.5,47.1z"/>
	<path class="st0" d="M8.6,25.7c-1.4,0-2.9,0-4.3,0c0-1.2,0-2.4,0-3.6c0-0.2,0-0.4,0-0.6c1.4,0,2.9,0,4.3,0l0,0
		C8.6,22.8,8.6,24.3,8.6,25.7L8.6,25.7z"/>
	<path class="st0" d="M55.8,25.7c-1.4,0-2.9,0-4.3,0l0,0c0-1.4,0-2.8,0-4.3l0,0c1.4,0,2.9,0,4.3,0c0,1.1,0,2.1,0,3.2
		C55.8,25,55.8,25.3,55.8,25.7z"/>
	<path d="M17.2,8.5c0-1.4,0-2.8,0-4.1c0-0.1,0-0.2,0.2-0.2c8.5,0,16.9,0,25.4,0c0.1,0,0.2,0,0.2,0.2c0,1.4,0,2.8,0,4.1l0,0
		c-0.4,0-0.8,0-1.2,0c-1,0-2.1,0-3.1,0c-0.1,0-0.1,0-0.2,0c-5.6,0-11.2,0-16.8,0c-0.1,0-0.1,0-0.2,0c-0.1,0-0.1,0-0.2,0
		C19.9,8.5,18.6,8.5,17.2,8.5L17.2,8.5z"/>
	<path d="M42.9,8.5c1.4,0,2.9,0,4.3,0l0,0c0,1.4,0,2.9,0,4.3l0,0c-1.4,0-2.9,0-4.3,0C42.9,11.4,42.9,10,42.9,8.5L42.9,8.5z"/>
	<path d="M12.9,8.5c1.4,0,2.9,0,4.3,0l0,0c0,1.4,0,2.9,0,4.3c-1.4,0-2.9,0-4.3,0l0,0C12.9,11.4,12.9,10,12.9,8.5L12.9,8.5z"/>
	<path d="M8.6,4.2c1.4,0,2.8,0,4.1,0c0.1,0,0.2,0,0.2,0.2c0,1.4,0,2.8,0,4.1l0,0c-1.4,0-2.9,0-4.3,0l0,0C8.6,7.1,8.6,5.7,8.6,4.2
		L8.6,4.2z"/>
	<path d="M47.2,8.5c0-1.4,0-2.8,0-4.1c0-0.1,0-0.2,0.2-0.2c1.4,0,2.7,0,4.1,0l0,0c0,1.4,0,2.9,0,4.3l0,0C50.1,8.5,48.6,8.5,47.2,8.5
		L47.2,8.5z"/>
	<path class="st3" d="M8.6,4.2c0,1.4,0,2.9,0,4.3c-1.4,0-2.9,0-4.3,0c0-1,0-2.1,0-3.1c0-0.4,0-0.8,0-1.2C5.7,4.2,7.2,4.2,8.6,4.2z"
		/>
	<path class="st0" d="M4.3,8.5c1.4,0,2.9,0,4.3,0l0,0c0,1.4,0,2.9,0,4.3l0,0c-1.4,0-2.9,0-4.3,0c0,0,0,0,0,0
		C4.3,11.4,4.3,10,4.3,8.5z"/>
	<path class="st0" d="M55.8,8.5c0,1.1,0,2.1,0,3.2c0,0.4,0,0.8,0,1.1c0,0,0,0,0,0c-1.4,0-2.9,0-4.3,0l0,0c0-1.4,0-2.9,0-4.3l0,0
		C52.9,8.5,54.3,8.5,55.8,8.5z"/>
	<path class="st3" d="M55.8,8.5c-1.4,0-2.9,0-4.3,0c0-1.4,0-2.9,0-4.3c1.4,0,2.9,0,4.3,0c0,1.4,0,2.7,0,4.1
		C55.8,8.4,55.8,8.5,55.8,8.5z"/>
	<path d="M4.3,12.8c1.4,0,2.9,0,4.3,0c0,0.4,0,0.8,0,1.2c0,1,0,2.1,0,3.1c-1.4,0-2.9,0-4.3,0C4.3,15.7,4.3,14.3,4.3,12.8z"/>
	<path d="M51.5,12.8c1.4,0,2.9,0,4.3,0c0,1.4,0,2.9,0,4.3c-1.4,0-2.9,0-4.3,0c0-0.1,0-0.1,0-0.2C51.5,15.6,51.5,14.2,51.5,12.8z"/>
	<path d="M8.6,38.6c0-1.1,0-2.1,0-3.2c0-0.4,0-0.8,0-1.1l0,0c1.4,0,2.7,0,4.1,0c0.1,0,0.2,0,0.2-0.2c0-1.3,0-2.6,0-4
		c0-0.1,0-0.2-0.2-0.2c-1.4,0-2.7,0-4.1,0c0,0,0,0,0,0c0-1.4,0-2.9,0-4.3l0,0c0.4,0,0.8,0,1.1,0c1.1,0,2.1,0,3.2,0
		c0.1,0,0.1,0,0.2,0c1.4,0,2.7,0,4.1,0c0,0.2,0,0.4,0,0.5c0,1.3,0,2.5,0,3.8c0,0.2,0,0.5,0,0.7c0,1.1,0,2.3,0,3.4
		c0,0.1,0,0.2,0.2,0.2c0.2,0,0.3,0,0.5,0c1.2,0,2.4,0,3.7,0c0.2,0,0.5,0,0.7,0c1.2,0,2.4,0,3.6,0c0,0.4,0,0.7,0,1.1
		c0,1.1,0,2.1,0,3.2c0,1.2,0,2.4,0,3.5c0,0.3,0,0.5,0,0.8c-1.4,0-2.8,0-4.3,0c0-1.3,0-2.5,0-3.8c0-0.2,0.1-0.4,0-0.5
		c-0.1-0.1-0.3,0-0.5,0c-1.3,0-2.5,0-3.8,0c-1.4,0-2.8,0-4.2,0c-0.1,0-0.1,0.1-0.1,0.2c0,1.4,0,2.8,0,4.1c-1.1,0-2.3,0-3.4,0
		c-0.3,0-0.6,0-0.9,0c0,0,0,0,0,0C8.6,41.4,8.6,40,8.6,38.6z"/>
	<path d="M51.5,25.7c0,1.4,0,2.9,0,4.3l0,0c-1.4,0-2.7,0-4.1,0c-0.1,0-0.2,0-0.2,0.2c0,1.3,0,2.6,0,4c0,0.1,0,0.2,0.2,0.2
		c1.4,0,2.7,0,4.1,0l0,0c0,1.4,0,2.7,0,4.1c0,0.1,0,0.1,0,0.2c0,1.1,0,2.1,0,3.2c0,0.4,0,0.7,0,1.1c0,0,0,0,0,0c-0.1,0-0.1,0-0.2,0
		c-1.4,0-2.7,0-4.1,0c0-0.6,0-1.2,0-1.8c0-0.8,0-1.6,0-2.4c0-0.1,0-0.1-0.1-0.1c-0.2,0-0.3,0-0.5,0c-1.2,0-2.5,0-3.7,0
		c-1.4,0-2.8,0-4.2,0c-0.1,0-0.1,0.1-0.1,0.1c0,1.4,0,2.8,0,4.2c-1.4,0-2.9,0-4.3,0c0-1.2,0-2.4,0-3.6c0-0.2,0-0.4,0-0.7
		c0-0.1,0-0.1,0-0.2c0-1.4,0-2.7,0-4.1c0.2,0,0.5,0,0.7,0c1.2,0,2.4,0,3.6,0c0.2,0,0.5,0,0.7,0c1.1,0,2.3,0,3.4,0
		c0.1,0,0.2,0,0.2-0.2c0-0.1,0-0.3,0-0.4c0-1.2,0-2.5,0-3.7c0-0.4,0-0.8,0-1.3c0-1,0-2,0-3c0.4,0,0.7,0,1.1,0c1.1,0,2.1,0,3.2,0
		c0.1,0,0.1,0,0.2,0C48.8,25.7,50.1,25.7,51.5,25.7L51.5,25.7z"/>
	<path class="st0" d="M34.3,34.3c0,1.4,0,2.7,0,4.1c0,0.1,0,0.1,0,0.2c-2.9,0-5.7,0-8.6,0c0-1.1,0-2.1,0-3.2c0-0.4,0-0.7,0-1.1
		c0,0,0.1,0,0.1,0c2.8,0,5.6,0,8.4,0C34.2,34.3,34.3,34.3,34.3,34.3z"/>
	<path class="st2" d="M34.3,42.9c1.4,0,2.9,0,4.3,0l0,0c0,1.4,0,2.9,0,4.3l0,0c-1.4,0-2.7,0-4.1,0c-0.2,0-0.2,0-0.2-0.2
		c0-1.3,0-2.6,0-3.9C34.3,43,34.3,42.9,34.3,42.9z"/>
	<path class="st2" d="M21.5,42.9c1.4,0,2.8,0,4.3,0c0,1.2,0,2.5,0,3.7c0,0.1,0,0.3,0,0.4c0,0.1,0,0.2-0.2,0.2c-0.5,0-0.9,0-1.4,0
		c-0.9,0-1.8,0-2.7,0l0,0C21.5,45.7,21.5,44.3,21.5,42.9L21.5,42.9z"/>
	<path class="st2" d="M21.5,51.4c-1.4,0-2.9,0-4.3,0l0,0c0-1.4,0-2.8,0-4.3c0.1,0,0.1,0,0.2,0c1.4,0,2.7,0,4.1,0l0,0
		C21.5,48.6,21.5,50,21.5,51.4z"/>
	<path class="st2" d="M42.9,51.4c-1.4,0-2.9,0-4.3,0c0-1.4,0-2.8,0-4.3l0,0c0.4,0,0.8,0,1.2,0c1,0,2.1,0,3.1,0
		C42.9,48.6,42.9,50,42.9,51.4L42.9,51.4z"/>
	<path class="st2" d="M51.5,34.3c-1.4,0-2.7,0-4.1,0c-0.1,0-0.2,0-0.2-0.2c0-1.3,0-2.6,0-4c0-0.1,0-0.2,0.2-0.2c1.4,0,2.7,0,4.1,0
		C51.5,31.4,51.5,32.8,51.5,34.3z"/>
	<path class="st1" d="M42.9,51.4c0-1.4,0-2.8,0-4.3c0.1,0,0.1,0,0.2,0c1.4,0,2.7,0,4.1,0l0,0c0,1.4,0,2.8,0,4.3l0,0
		C45.8,51.4,44.3,51.4,42.9,51.4z"/>
	<path class="st1" d="M17.2,47.2c0,1.4,0,2.8,0,4.3c-1.4,0-2.9,0-4.3,0l0,0c0-1.4,0-2.8,0-4.3c0,0,0,0,0,0c0.4,0,0.8,0,1.1,0
		C15.1,47.1,16.1,47.1,17.2,47.2z"/>
	<path class="st0" d="M8.6,17.1c0-1,0-2.1,0-3.1c0-0.4,0-0.8,0-1.2l0,0c1.4,0,2.9,0,4.3,0l0,0c0,1.4,0,2.9,0,4.3c0,1.4,0,2.9,0,4.3
		l0,0c-0.1,0-0.1,0-0.2,0c-1.4,0-2.7,0-4.1,0l0,0c0-1.4,0-2.7,0-4.1C8.6,17.2,8.6,17.2,8.6,17.1z"/>
	<path class="st2" d="M12.9,47.1c0,1.4,0,2.8,0,4.3c-1.4,0-2.9,0-4.3,0c0-1.4,0-2.8,0-4.3l0,0C10,47.1,11.5,47.1,12.9,47.1z"/>
	<path class="st0" d="M51.5,12.8c0,1.4,0,2.7,0,4.1c0,0.1,0,0.1,0,0.2c0,1,0,2.1,0,3.1c0,0.4,0,0.8,0,1.2l0,0c-0.2,0-0.5,0-0.7,0
		c-1.2,0-2.4,0-3.6,0l0,0c0-1.4,0-2.9,0-4.3c0-1.4,0-2.9,0-4.3l0,0C48.6,12.8,50.1,12.8,51.5,12.8L51.5,12.8z"/>
	<path class="st0" d="M47.2,42.9c1.4,0,2.7,0,4.1,0c0.1,0,0.1,0,0.2,0c0,1.4,0,2.9,0,4.3l0,0c-1.4,0-2.8,0-4.3,0c0,0,0,0,0,0
		c0,0,0-0.1,0-0.1C47.2,45.7,47.2,44.3,47.2,42.9L47.2,42.9z"/>
	<path class="st0" d="M12.9,47.1c-1.4,0-2.9,0-4.3,0c0-1.4,0-2.9,0-4.3c0.3,0,0.6,0,0.9,0c1.1,0,2.3,0,3.4,0c0,0,0,0,0,0
		c0,1.1,0,2.2,0,3.3C12.9,46.4,12.9,46.8,12.9,47.1L12.9,47.1z"/>
	<path class="st2" d="M8.6,30c1.4,0,2.7,0,4.1,0c0.1,0,0.2,0,0.2,0.2c0,1.3,0,2.6,0,4c0,0.1,0,0.2-0.2,0.2c-1.4,0-2.7,0-4.1,0
		C8.6,32.8,8.6,31.4,8.6,30z"/>
	<path class="st2" d="M47.2,47.1c1.4,0,2.8,0,4.3,0c0,1.4,0,2.8,0,4.3c-1.4,0-2.8,0-4.3,0C47.2,50,47.2,48.6,47.2,47.1z"/>
	<path class="st2" d="M8.6,21.4c1.4,0,2.7,0,4.1,0c0.1,0,0.1,0,0.2,0c0,1.4,0,2.8,0,4.3c-1.1,0-2.1,0-3.2,0c-0.4,0-0.8,0-1.1,0
		C8.6,24.3,8.6,22.8,8.6,21.4z"/>
	<path class="st2" d="M47.2,21.4c1.2,0,2.4,0,3.6,0c0.2,0,0.5,0,0.7,0c0,1.4,0,2.8,0,4.3c-1.4,0-2.7,0-4.1,0c-0.1,0-0.1,0-0.2,0
		C47.2,24.2,47.2,22.8,47.2,21.4z"/>
	<path class="st4" d="M21.5,8.5c0.1,0,0.1,0,0.2,0c5.6,0,11.2,0,16.8,0c0.1,0,0.1,0,0.2,0c0,1.4,0,2.9,0,4.3c-0.4,0-0.8,0-1.1,0
		c-1.1,0-2.1,0-3.2,0c0,0-0.1,0-0.1,0c-2.8,0-5.6,0-8.4,0c0,0-0.1,0-0.1,0c-1.4,0-2.8,0-4.3,0C21.5,11.4,21.5,10,21.5,8.5z"/>
	<path class="st3" d="M38.6,12.8c0-1.4,0-2.9,0-4.3c1,0,2.1,0,3.1,0c0.4,0,0.8,0,1.2,0c0,1.4,0,2.9,0,4.3c0,0,0,0,0,0
		C41.5,12.8,40.1,12.8,38.6,12.8L38.6,12.8z"/>
	<path class="st3" d="M21.5,8.5c0,1.4,0,2.9,0,4.3l0,0c-1.4,0-2.9,0-4.3,0l0,0c0-1.4,0-2.9,0-4.3c1.4,0,2.7,0,4.1,0
		C21.4,8.5,21.4,8.5,21.5,8.5z"/>
	<path class="st2" d="M47.2,12.8c0,1.4,0,2.9,0,4.3c-1.4,0-2.9,0-4.3,0c0-1.4,0-2.9,0-4.3c0,0,0,0,0,0
		C44.4,12.8,45.8,12.8,47.2,12.8z"/>
	<path class="st2" d="M51.5,12.8c-1.4,0-2.8,0-4.3,0c0-1.4,0-2.9,0-4.3c1.4,0,2.8,0,4.3,0C51.5,10,51.5,11.4,51.5,12.8z"/>
	<path class="st2" d="M12.9,17.1c0-1.4,0-2.9,0-4.3c1.4,0,2.9,0,4.3,0c0,0,0,0,0,0c0,1.4,0,2.9,0,4.3C15.8,17.1,14.3,17.1,12.9,17.1
		z"/>
	<path class="st2" d="M12.9,12.8c-1.4,0-2.9,0-4.3,0c0-1.4,0-2.9,0-4.3c1.4,0,2.9,0,4.3,0C12.9,10,12.9,11.4,12.9,12.8z"/>
	<path class="st1" d="M34.3,34.3c0,0-0.1,0-0.1,0c-2.8,0-5.6,0-8.4,0c0,0-0.1,0-0.1,0c-1.2,0-2.4,0-3.6,0c-0.2,0-0.5,0-0.7,0
		c0-0.2,0-0.4,0-0.6c0-1.2,0-2.5,0-3.7c0-0.3,0-0.5,0-0.8c0-1.2,0-2.3,0-3.5c1.4,0,2.8,0,4.3,0c0,1.4,0,2.7,0,4.1
		c0,0.1,0,0.2,0.2,0.2c2.7,0,5.5,0,8.2,0c0.2,0,0.2,0,0.2-0.2c0-1.4,0-2.7,0-4.1c1.4,0,2.9,0,4.3,0c0,0.1,0,0.1,0,0.2
		c0,1.4,0,2.7,0,4.1c0,0.1,0,0.1,0,0.2c0,1.4,0,2.7,0,4.1c-1.2,0-2.4,0-3.6,0C34.8,34.3,34.6,34.3,34.3,34.3z"/>
	<path class="st3" d="M17.2,38.6c1.3,0,2.5,0,3.8,0c0.2,0,0.4-0.1,0.5,0c0.1,0.1,0,0.3,0,0.5c0,1.3,0,2.5,0,3.8c0,0,0,0,0,0
		c-0.4,0-0.8,0-1.1,0c-1.1,0-2.1,0-3.2,0C17.2,41.4,17.2,40,17.2,38.6z"/>
	<path class="st2" d="M17.2,38.6c0,1.4,0,2.9,0,4.3c-1.4,0-2.9,0-4.3,0c0,0,0,0,0,0c0-1.4,0-2.8,0-4.1c0-0.1,0-0.2,0.1-0.2
		C14.4,38.6,15.8,38.6,17.2,38.6z"/>
	<path class="st0" d="M21.5,25.7c0,1.2,0,2.3,0,3.5c0,0.3,0,0.5,0,0.8c-1.4,0-2.9,0-4.3,0c0-1.3,0-2.5,0-3.8c0-0.2,0-0.4,0-0.5
		c0,0,0,0,0,0c0,0,0.1,0,0.1,0C18.7,25.7,20.1,25.7,21.5,25.7L21.5,25.7z"/>
	<path class="st3" d="M17.2,30c1.4,0,2.9,0,4.3,0c0,1.2,0,2.5,0,3.7c0,0.2,0,0.4,0,0.6c-1.2,0-2.4,0-3.7,0c-0.2,0-0.3,0-0.5,0
		c-0.1,0-0.2,0-0.2-0.2c0-1.1,0-2.3,0-3.4C17.2,30.4,17.2,30.2,17.2,30z"/>
	<path class="st3" d="M12.9,25.7c0-1.4,0-2.8,0-4.3c0,0,0,0,0,0c0.1,0,0.1,0,0.2,0c1.4,0,2.7,0,4.1,0c0,0.1,0,0.3,0,0.4
		c0,1.3,0,2.5,0,3.8l0,0c-1.4,0-2.7,0-4.1,0C13,25.7,12.9,25.7,12.9,25.7z"/>
	<path class="st0" d="M38.6,30c0-1.4,0-2.7,0-4.1c0-0.1,0-0.1,0-0.2c0,0,0,0,0,0c1.4,0,2.7,0,4.1,0c0.1,0,0.1,0,0.2,0l0,0
		c0,1,0,2,0,3c0,0.4,0,0.8,0,1.3C41.5,30,40.1,30,38.6,30z"/>
	<path class="st2" d="M42.9,38.6c1.2,0,2.5,0,3.7,0c0.2,0,0.3,0,0.5,0c0.1,0,0.1,0,0.1,0.1c0,0.8,0,1.6,0,2.4c0,0.6,0,1.2,0,1.8
		c0,0,0,0,0,0c-0.4,0-0.8,0-1.2,0c-1,0-2.1,0-3.1,0C42.9,41.4,42.9,40,42.9,38.6z"/>
	<path class="st3" d="M42.9,38.6c0,1.4,0,2.9,0,4.3c-1.4,0-2.9,0-4.3,0l0,0c0-1.4,0-2.8,0-4.2c0-0.1,0-0.1,0.1-0.1
		C40.1,38.6,41.5,38.6,42.9,38.6z"/>
	<path class="st3" d="M38.6,30c1.4,0,2.9,0,4.3,0c0,1.2,0,2.5,0,3.7c0,0.1,0,0.3,0,0.4c0,0.1,0,0.2-0.2,0.2c-1.1,0-2.3,0-3.4,0
		c-0.2,0-0.5,0-0.7,0c0-1.4,0-2.7,0-4.1C38.6,30.1,38.6,30,38.6,30z"/>
	<path class="st3" d="M47.2,21.4c0,1.4,0,2.8,0,4.3c-1.1,0-2.1,0-3.2,0c-0.4,0-0.7,0-1.1,0c0,0,0,0,0,0c0-0.1,0-0.1,0-0.2
		c0-1.4,0-2.7,0-4.1c0.6,0,1.1,0,1.7,0C45.5,21.4,46.3,21.4,47.2,21.4L47.2,21.4z"/>
	<path d="M38.6,42.8c1.4,0,2.9,0,4.3,0c1,0,2.1,0,3.1,0c0.4,0,0.8,0,1.2,0c0,1.4,0,2.8,0,4.2c0,0,0,0.1,0,0.1c-1.4,0-2.7,0-4.1,0
		c-0.1,0-0.1,0-0.2,0c-1,0-2.1,0-3.1,0c-0.4,0-0.8,0-1.2,0C38.6,45.7,38.6,44.3,38.6,42.8z"/>
	<path d="M12.9,42.8c1.4,0,2.9,0,4.3,0c1.1,0,2.1,0,3.2,0c0.4,0,0.8,0,1.1,0c0,1.4,0,2.9,0,4.3c-1.4,0-2.7,0-4.1,0
		c-0.1,0-0.1,0-0.2,0c-1.1,0-2.1,0-3.2,0c-0.4,0-0.8,0-1.1,0c0-0.3,0-0.7,0-1C12.9,45,12.9,43.9,12.9,42.8z"/>
	<path class="st4" d="M17.2,21.4c-1.4,0-2.7,0-4.1,0c-0.1,0-0.1,0-0.2,0c0-1.4,0-2.9,0-4.3c1.4,0,2.9,0,4.3,0l0,0
		C17.2,18.5,17.2,20,17.2,21.4L17.2,21.4z"/>
	<path class="st4" d="M47.2,21.4c-0.9,0-1.7,0-2.6,0c-0.6,0-1.1,0-1.7,0l0,0c0-1.4,0-2.9,0-4.3l0,0c1.4,0,2.9,0,4.3,0
		C47.2,18.5,47.2,20,47.2,21.4z"/>
	<path class="st1" d="M25.7,12.8c0,0,0.1,0,0.1,0c2.8,0,5.6,0,8.4,0c0,0,0.1,0,0.1,0c0,1.4,0,2.9,0,4.3c-2.9,0-5.7,0-8.6,0
		C25.7,15.7,25.7,14.3,25.7,12.8z"/>
	<path class="st3" d="M34.3,17.1c0-1.4,0-2.9,0-4.3c1.1,0,2.1,0,3.2,0c0.4,0,0.8,0,1.1,0l0,0c0,1.4,0,2.9,0,4.3c0,0,0,0,0,0
		C37.2,17.1,35.8,17.1,34.3,17.1L34.3,17.1z"/>
	<path class="st3" d="M25.7,12.8c0,1.4,0,2.9,0,4.3l0,0c-1.4,0-2.8,0-4.3,0l0,0c0-1.4,0-2.9,0-4.3l0,0
		C22.9,12.8,24.3,12.8,25.7,12.8z"/>
	<path class="st4" d="M38.6,17.1c0-1.4,0-2.9,0-4.3c1.4,0,2.9,0,4.3,0c0,1.4,0,2.9,0,4.3l0,0C41.5,17.1,40.1,17.1,38.6,17.1z"/>
	<path class="st4" d="M21.5,12.8c0,1.4,0,2.9,0,4.3c-1.4,0-2.9,0-4.3,0l0,0c0-1.4,0-2.9,0-4.3C18.6,12.8,20,12.8,21.5,12.8z"/>
	<path class="st3" d="M34.3,25.7c0,1.4,0,2.7,0,4.1c0,0.1,0,0.2-0.2,0.2c-2.7,0-5.5,0-8.2,0c-0.2,0-0.2,0-0.2-0.2c0-1.4,0-2.7,0-4.1
		l0,0C28.6,25.7,31.5,25.7,34.3,25.7L34.3,25.7z"/>
	<path class="st3" d="M38.6,25.7c-1.4,0-2.9,0-4.3,0l0,0c0-1.4,0-2.8,0-4.3l0,0c1.4,0,2.9,0,4.3,0l0,0c0,0.2,0,0.3,0,0.5
		C38.6,23.1,38.6,24.4,38.6,25.7L38.6,25.7z"/>
	<path class="st3" d="M25.7,25.7c-1.4,0-2.8,0-4.3,0c0,0,0,0,0,0c0-0.1,0-0.1,0-0.2c0-1.4,0-2.7,0-4.1l0,0c1.4,0,2.8,0,4.3,0l0,0
		C25.7,22.8,25.7,24.2,25.7,25.7L25.7,25.7z"/>
	<path class="st4" d="M21.5,21.4c0,1.4,0,2.7,0,4.1c0,0.1,0,0.1,0,0.2c-1.4,0-2.8,0-4.2,0c0,0-0.1,0-0.1,0c0-1.3,0-2.5,0-3.8
		c0-0.1,0-0.3,0-0.4l0,0C18.6,21.4,20,21.4,21.5,21.4z"/>
	<path class="st4" d="M38.6,25.7c0-1.3,0-2.5,0-3.8c0-0.2,0-0.3,0-0.5c1.4,0,2.9,0,4.3,0l0,0c0,1.4,0,2.7,0,4.1c0,0.1,0,0.1,0,0.2
		c-0.1,0-0.1,0-0.2,0C41.4,25.7,40,25.7,38.6,25.7z"/>
	<path d="M21.5,21.4c-1.4,0-2.9,0-4.3,0c0-1.4,0-2.9,0-4.3c1.4,0,2.9,0,4.3,0c0,0,0,0,0,0C21.5,18.5,21.5,20,21.5,21.4L21.5,21.4z"
		/>
	<path d="M42.9,21.4c-1.4,0-2.9,0-4.3,0c0,0,0,0,0,0c0-1.4,0-2.9,0-4.3c0,0,0,0,0,0c1.4,0,2.9,0,4.3,0C42.9,18.5,42.9,20,42.9,21.4z
		"/>
	<path class="st3" d="M25.7,17.1c2.9,0,5.7,0,8.6,0l0,0c0,1.4,0,2.9,0,4.3l0,0c-2.9,0-5.7,0-8.6,0l0,0C25.7,20,25.7,18.5,25.7,17.1
		L25.7,17.1z"/>
	<path class="st4" d="M34.3,21.4c0-1.4,0-2.9,0-4.3c1.4,0,2.9,0,4.3,0c0,1.4,0,2.9,0,4.3C37.2,21.4,35.8,21.4,34.3,21.4z"/>
	<path class="st4" d="M25.7,17.1c0,1.4,0,2.9,0,4.3c-1.4,0-2.8,0-4.3,0c0-1.4,0-2.9,0-4.3C22.9,17.1,24.3,17.1,25.7,17.1z"/>
	<path class="st4" d="M25.7,21.4c2.9,0,5.7,0,8.6,0c0,1.4,0,2.8,0,4.3c-2.9,0-5.7,0-8.6,0C25.7,24.2,25.7,22.8,25.7,21.4z"/>
</g>
</svg>
