<?xml version="1.0" encoding="utf-8"?>
<!-- Generator: Adobe Illustrator 25.4.0, SVG Export Plug-In . SVG Version: 6.00 Build 0)  -->
<svg version="1.1" id="Layer_1" xmlns="http://www.w3.org/2000/svg" xmlns:xlink="http://www.w3.org/1999/xlink" x="0px" y="0px"
	 viewBox="0 0 34 34" style="enable-background:new 0 0 34 34;" xml:space="preserve">
<style type="text/css">
	.st0{fill:#00E554;}
	.st1{fill:#7FFEAD;}
	.st2{fill:#001A09;}
</style>
<g>
	<path class="st0" d="M17,33.9c5.4,0,10.9,0,16.3,0c0.2,0,0.3-0.1,0.3-0.3c0-10.9,0-21.7,0-32.6c0-0.2-0.1-0.3-0.3-0.3
		c-3.9,0-7.8,0-11.7,0c-0.2,0-0.3,0.1-0.3,0.3c0,1.1,0,2.3,0,3.4c0,0.3-0.2,0.5-0.5,0.5c-2.5,0-5.1,0-7.6,0c-0.2,0-0.5-0.2-0.5-0.5
		c0-1.1,0-2.3,0-3.4c0-0.2-0.1-0.3-0.3-0.3c-3.9,0-7.8,0-11.7,0c-0.2,0-0.3,0.1-0.3,0.3c0,10.8,0,21.7,0,32.5c0,0.2,0.1,0.3,0.3,0.3
		C6.2,33.9,11.6,33.9,17,33.9z"/>
	<path class="st1" d="M0.4,33.8c0.1,0,0.2,0.1,0.2,0.2C0.4,34,0.4,34,0.4,33.8z"/>
	<path class="st2" d="M17,33.9c-5.4,0-10.8,0-16.2,0c-0.2,0-0.3-0.1-0.3-0.3c0-10.8,0-21.7,0-32.5c0-0.2,0.1-0.3,0.3-0.3
		c3.9,0,7.8,0,11.7,0c0.2,0,0.3,0.1,0.3,0.3c0,1.1,0,2.3,0,3.4c0,0.3,0.2,0.5,0.5,0.5c2.5,0,5.1,0,7.6,0c0.3,0,0.5-0.2,0.5-0.5
		c0-1.1,0-2.3,0-3.4c0-0.2,0.1-0.3,0.3-0.3c3.9,0,7.8,0,11.7,0c0.2,0,0.3,0.1,0.3,0.3c0,10.9,0,21.7,0,32.6c0,0.2-0.1,0.3-0.3,0.3
		C27.9,33.9,22.5,33.9,17,33.9z M17,29.9c4,0,8,0,12.1,0c0.3,0,0.5-0.2,0.5-0.5c0-6.6,0-13.2,0-19.9c0-0.2,0-0.4,0-0.6
		c0-0.2,0-0.4,0-0.5c0-1.1,0-2.2,0-3.2c0-0.2-0.2-0.4-0.4-0.4c-1.1,0-2.3,0-3.4,0c-0.2,0-0.4,0.2-0.4,0.4c0,1.1,0,2.3,0,3.4
		C25.4,8.8,25.2,9,25,9C19.7,9,14.4,9,9.1,9C8.9,9,8.7,8.8,8.7,8.6c0-1.1,0-2.2,0-3.4c0-0.3-0.1-0.4-0.4-0.4c-1.1,0-2.2,0-3.3,0
		C4.7,4.8,4.6,5,4.6,5.2c0,1.1,0,2.3,0,3.4c0,0.1,0,0.2,0,0.3C4.5,9,4.5,9.2,4.5,9.4c0,6.7,0,13.4,0,20c0,0.3,0.2,0.5,0.5,0.5
		C9,29.9,13,29.9,17,29.9z"/>
	<path class="st0" d="M17,29.9c-4,0-8.1,0-12.1,0c-0.3,0-0.5-0.2-0.5-0.5c0-6.7,0-13.4,0-20c0-0.2,0-0.3,0.1-0.5c0-0.1,0-0.2,0-0.3
		c0-1.1,0-2.3,0-3.4c0-0.2,0.1-0.4,0.4-0.4c1.1,0,2.2,0,3.3,0c0.3,0,0.4,0.1,0.4,0.4c0,1.1,0,2.2,0,3.4C8.7,8.8,8.9,9,9.1,9
		C14.4,9,19.7,9,25,9c0.2,0,0.4-0.2,0.4-0.4c0-1.1,0-2.3,0-3.4c0-0.2,0.2-0.4,0.4-0.4c1.1,0,2.3,0,3.4,0c0.2,0,0.4,0.2,0.4,0.4
		c0,1.1,0,2.2,0,3.2c0,0.2,0,0.4,0,0.5c0,0.2,0,0.4,0,0.6c0,6.6,0,13.2,0,19.9c0,0.3-0.2,0.5-0.5,0.5C25.1,29.9,21.1,29.9,17,29.9z
		 M17.1,29.7c4,0,8,0,12.1,0c0,0,0.1,0,0.1,0c0.1,0,0.1,0,0.2-0.1c0.1-0.1,0.1-0.2,0.1-0.2c0-6.7,0-13.4,0-20.1c0,0,0-0.1,0-0.1
		c0-0.2-0.1-0.3-0.3-0.3c-1.1,0-2.2,0-3.3,0c-0.3,0-0.4,0.2-0.4,0.4c0,1.1,0,2.2,0,3.3c0,0.1,0,0.1,0,0.2c0,0.2,0.1,0.4,0.1,0.6
		c0,1.1,0,2.1,0,3.2c0,0.2,0,0.5-0.1,0.7c0,0.1,0,0.2,0,0.2c0,1.1,0,2.3,0,3.4c0,0.2-0.1,0.4-0.4,0.4c-1.1,0-2.3,0-3.4,0
		c-0.3,0-0.4-0.1-0.4-0.4c0-1.1,0-2.1,0-3.2c0-0.2,0-0.3,0-0.5c0-0.2-0.1-0.4-0.1-0.6c0-1.1,0-2.3,0-3.4c0-0.2-0.1-0.4-0.4-0.4
		c-2.5,0-5,0-7.5,0c-0.2,0-0.3,0.1-0.3,0.3c0,0.3,0,0.6,0,0.8c0,0.3,0,0.6,0,0.8c0,0.3,0,0.6,0,0.8c0,0.3,0,0.6,0,0.8
		c0,0.3-0.1,0.5-0.1,0.8c0,1.2,0,2.4,0,3.6c0,0.2-0.2,0.4-0.4,0.4c-1.1,0-2.3,0-3.4,0c-0.3,0-0.4-0.2-0.4-0.4c0-1.1,0-2.3,0-3.4
		c0-0.1,0-0.1,0-0.2c-0.1-0.2-0.1-0.4-0.1-0.7c0-1.1,0-2.1,0-3.2c0-0.2,0-0.3,0.1-0.5c0-0.1,0.1-0.2,0.1-0.4c0-1.2,0-2.3,0-3.5
		C8.7,9.2,8.5,9,8.3,9C7.2,9,6,9,4.9,9C4.9,9,4.8,9,4.8,9C4.6,9.1,4.6,9.2,4.6,9.4c0,6.7,0,13.4,0,20c0,0.2,0.1,0.3,0.3,0.3
		C9,29.7,13,29.7,17.1,29.7z M21.3,15.2c0,0.6,0,1.2,0,1.7c0,0.2,0.1,0.4,0.4,0.4c1.1,0,2.2,0,3.4,0c0.2,0,0.4-0.2,0.4-0.4
		c0-1.1,0-2.3,0-3.4c0-0.3-0.1-0.4-0.4-0.4c-1.1,0-2.2,0-3.4,0c-0.2,0-0.4,0.1-0.4,0.4C21.3,14.1,21.3,14.6,21.3,15.2z M8.8,15.2
		c0,0.6,0,1.2,0,1.7c0,0.2,0.1,0.4,0.4,0.4c1.1,0,2.2,0,3.3,0c0.2,0,0.4-0.1,0.4-0.4c0-1.1,0-2.3,0-3.4c0-0.2-0.1-0.3-0.3-0.3
		c-1.1,0-2.2,0-3.4,0c-0.2,0-0.4,0.1-0.4,0.4C8.8,14.1,8.8,14.7,8.8,15.2z"/>
	<path class="st1" d="M17.1,29.7c-4,0-8.1,0-12.1,0c-0.2,0-0.3-0.1-0.3-0.3c0-6.7,0-13.4,0-20c0-0.1,0-0.3,0.1-0.4
		c0.1,0,0.1,0,0.2,0C6,9,7.2,9,8.3,9c0.2,0,0.4,0.2,0.4,0.4c0,1.2,0,2.3,0,3.5c0,0.1,0,0.2-0.1,0.4c-0.1,0.2-0.1,0.3-0.1,0.5
		c0,1.1,0,2.1,0,3.2c0,0.2,0,0.4,0.1,0.7c0,0.1,0,0.1,0,0.2c0,1.1,0,2.3,0,3.4c0,0.3,0.2,0.4,0.4,0.4c1.1,0,2.3,0,3.4,0
		c0.2,0,0.4-0.2,0.4-0.4c0-1.2,0-2.4,0-3.6c0-0.3,0.1-0.5,0.1-0.8c0-0.3,0-0.6,0-0.8c0-0.3,0-0.6,0-0.8c0-0.3,0-0.6,0-0.8
		c0-0.3,0-0.6,0-0.8c0-0.2,0.1-0.3,0.3-0.3c2.5,0,5,0,7.5,0c0.2,0,0.4,0.1,0.4,0.4c0,1.1,0,2.3,0,3.4c0,0.2,0,0.4,0.1,0.6
		c0,0.2,0,0.3,0,0.5c0,1.1,0,2.1,0,3.2c0,0.3,0.1,0.4,0.4,0.4c1.1,0,2.3,0,3.4,0c0.2,0,0.4-0.1,0.4-0.4c0-1.1,0-2.3,0-3.4
		c0-0.1,0-0.2,0-0.2c0.1-0.2,0.1-0.5,0.1-0.7c0-1.1,0-2.1,0-3.2c0-0.2-0.1-0.4-0.1-0.6c0-0.1,0-0.1,0-0.2c0-1.1,0-2.2,0-3.3
		c0-0.3,0.2-0.4,0.4-0.4c1.1,0,2.2,0,3.3,0c0.2,0,0.3,0.1,0.3,0.3c0,0,0,0.1,0,0.1c0,6.7,0,13.4,0,20.1c0,0.1,0,0.2-0.1,0.2
		c-0.1,0-0.1,0.1-0.2,0.1c0,0-0.1,0-0.1,0C25.1,29.7,21.1,29.7,17.1,29.7z"/>
	<path class="st2" d="M21.3,15.2c0-0.6,0-1.1,0-1.7c0-0.2,0.1-0.4,0.4-0.4c1.1,0,2.2,0,3.4,0c0.3,0,0.4,0.1,0.4,0.4
		c0,1.1,0,2.3,0,3.4c0,0.2-0.2,0.4-0.4,0.4c-1.1,0-2.2,0-3.4,0c-0.2,0-0.4-0.1-0.4-0.4C21.3,16.4,21.3,15.8,21.3,15.2z"/>
	<path class="st2" d="M8.8,15.2c0-0.6,0-1.1,0-1.7c0-0.2,0.1-0.4,0.4-0.4c1.1,0,2.2,0,3.4,0c0.2,0,0.3,0.1,0.3,0.3
		c0,1.1,0,2.3,0,3.4c0,0.2-0.1,0.4-0.4,0.4c-1.1,0-2.2,0-3.3,0c-0.2,0-0.4-0.1-0.4-0.4C8.8,16.4,8.8,15.8,8.8,15.2z"/>
</g>
</svg>
