<svg xmlns="http://www.w3.org/2000/svg" viewBox="0 -0.5 32 32" shape-rendering="crispEdges">
<metadata>Made with Pixels to Svg https://codepen.io/shshaw/pen/XbxvNj</metadata>
<path stroke="#0a001a" d="M0 0h32M0 1h32M0 2h32M0 3h3M13 3h6M29 3h3M0 4h3M13 4h6M29 4h3M0 5h3M8 5h3M21 5h3M29 5h3M0 6h3M8 6h3M21 6h3M29 6h3M0 7h3M8 7h3M21 7h3M29 7h3M0 8h5M11 8h2M19 8h2M27 8h5M0 9h5M11 9h2M19 9h2M27 9h5M0 10h5M11 10h2M19 10h2M27 10h5M0 11h3M8 11h3M13 11h6M21 11h3M29 11h3M0 12h3M8 12h3M13 12h6M21 12h3M29 12h3M0 13h3M29 13h3M0 14h3M29 14h3M0 15h3M29 15h3M0 16h3M29 16h3M0 17h3M29 17h3M0 18h3M29 18h3M0 19h3M8 19h3M21 19h3M29 19h3M0 20h3M8 20h3M21 20h3M29 20h3M0 21h3M29 21h3M0 22h3M29 22h3M0 23h3M29 23h3M0 24h3M13 24h6M29 24h3M0 25h3M13 25h6M29 25h3M0 26h3M13 26h6M29 26h3M0 27h3M29 27h3M0 28h3M29 28h3M0 29h32M0 30h32M0 31h32" />
<path stroke="#5800e6" d="M3 3h10M19 3h10M3 4h10M19 4h10M13 5h6M13 6h6M13 7h6M8 8h3M21 8h3M8 9h3M21 9h3M8 10h3M21 10h3M3 11h2M11 11h2M19 11h2M27 11h2M3 12h2M11 12h2M19 12h2M27 12h2M8 13h3M13 13h6M21 13h3M8 14h3M13 14h6M21 14h3M8 15h3M13 15h6M21 15h3M8 21h3M21 21h3M8 22h3M21 22h3M8 23h3M21 23h3M13 27h6M13 28h6" />
<path stroke="#b080ff" d="M3 5h5M11 5h2M19 5h2M24 5h5M3 6h5M11 6h2M19 6h2M24 6h5M3 7h5M11 7h2M19 7h2M24 7h5M5 8h3M13 8h6M24 8h3M5 9h3M13 9h6M24 9h3M5 10h3M13 10h6M24 10h3M5 11h3M24 11h3M5 12h3M24 12h3M3 13h5M11 13h2M19 13h2M24 13h5M3 14h5M11 14h2M19 14h2M24 14h5M3 15h5M11 15h2M19 15h2M24 15h5M3 16h26M3 17h26M3 18h26M3 19h5M11 19h10M24 19h5M3 20h5M11 20h10M24 20h5M3 21h5M11 21h10M24 21h5M3 22h5M11 22h10M24 22h5M3 23h5M11 23h10M24 23h5M3 24h10M19 24h10M3 25h10M19 25h10M3 26h10M19 26h10M3 27h10M19 27h10M3 28h10M19 28h10" />
</svg>