<?xml version="1.0" encoding="utf-8"?>
<!-- Generator: Adobe Illustrator 25.4.0, SVG Export Plug-In . SVG Version: 6.00 Build 0)  -->
<svg version="1.1" id="Layer_1" xmlns="http://www.w3.org/2000/svg" xmlns:xlink="http://www.w3.org/1999/xlink" x="0px" y="0px"
	 viewBox="0 0 60 60" style="enable-background:new 0 0 60 60;" xml:space="preserve">
<style type="text/css">
	.st0{fill:#FEA004;}
	.st1{fill:#B8C2FE;}
	.st2{fill:#0058F7;}
	.st3{fill:#36FEDE;}
	.st4{fill:#FED30B;}
</style>
<g>
	<path d="M4.3,47.1c-1.4,0-2.9,0-4.3,0c0-4.3,0-8.6,0-12.9c1.4,0,2.9,0,4.3,0l0,0c0,0.4,0,0.8,0,1.2c0,1,0,2.1,0,3.1
		c0,0.3,0,0.5,0,0.8c0,1.2,0,2.3,0,3.5c0,0.1,0,0.1,0,0.2C4.3,44.4,4.3,45.8,4.3,47.1C4.3,47.1,4.3,47.1,4.3,47.1z"/>
	<path d="M47.3,55.7c0,1.4,0,2.9,0,4.3c-4.3,0-8.6,0-12.9,0c0-1.4,0-2.9,0-4.3c0.4,0,0.7,0,1.1,0c1.1,0,2.1,0,3.2,0
		c0.3,0,0.5,0,0.8,0c1.2,0,2.4,0,3.5,0c0.1,0,0.1,0,0.2,0C44.5,55.7,45.9,55.7,47.3,55.7L47.3,55.7z"/>
	<path d="M12.9,60c0-1.4,0-2.9,0-4.3l0,0c0.4,0,0.8,0,1.1,0c1.1,0,2.1,0,3.2,0c0.3,0,0.5,0,0.8,0c1.2,0,2.4,0,3.5,0
		c1.4,0,2.8,0,4.3,0c0,1.4,0,2.9,0,4.3C21.5,60,17.2,60,12.9,60z"/>
	<path d="M60,47.1c-1.4,0-2.8,0-4.2,0l0,0c0-0.4,0-0.8,0-1.2c0-1,0-2.1,0-3.1c0-0.2,0-0.5,0-0.7c0-1.2,0-2.4,0-3.6
		c0-0.1,0-0.1,0-0.2c0-1.4,0-2.7,0-4.1l0,0c1.4,0,2.8,0,4.2,0C60,38.5,60,42.8,60,47.1z"/>
	<path d="M38.7,4.1c0-1.4,0-2.7,0-4.1c1.4,0,2.9,0,4.3,0c0,1.4,0,2.7,0,4.1l0,0C41.5,4.1,40.1,4.1,38.7,4.1L38.7,4.1z"/>
	<path d="M21.5,0c0,1.4,0,2.7,0,4.1l0,0c-1.4,0-2.9,0-4.3,0l0,0c0-1.4,0-2.7,0-4.1C18.6,0,20.1,0,21.5,0z"/>
	<path d="M4.3,34.2c0-1.4,0-2.8,0-4.2c0-0.1,0-0.1,0.2-0.1c1.3,0,2.7,0,4,0c0.1,0,0.2,0,0.2-0.2c0-5.6,0-11.2,0-16.8
		c0-0.2,0-0.2,0.2-0.2c1.4,0,2.7,0,4.1,0l0,0c0,2.8,0,5.6,0,8.4c0,0.1,0,0.1,0,0.2c0,0.2,0,0.4,0,0.7c0,1.2,0,2.4,0,3.6
		c0,0.2,0,0.5,0,0.7c0,1.2,0,2.4,0,3.6c0,0.2,0,0.3,0,0.5c0,1.2,0,2.5,0,3.7c0,0.1,0,0.2-0.2,0.2c-0.2,0-0.4,0-0.6,0
		c-1.2,0-2.4,0-3.6,0c-0.1,0-0.1,0-0.2,0C7,34.2,5.7,34.2,4.3,34.2L4.3,34.2z"/>
	<path d="M12.9,12.7c0-2.8,0-5.6,0-8.4c0-0.1,0-0.2,0.2-0.2c1.4,0,2.8,0,4.1,0l0,0c0,0.4,0,0.8,0,1.1c0,1.1,0,2.1,0,3.2
		c0,0.1,0,0.1,0,0.2c0,1.4,0,2.7,0,4.1c-0.1,0-0.1,0-0.2,0C15.7,12.7,14.3,12.7,12.9,12.7L12.9,12.7z"/>
	<path d="M47.3,12.7c1.4,0,2.7,0,4.1,0c0.1,0,0.2,0,0.2,0.2c0,5.6,0,11.2,0,16.8c0,0.2,0,0.2,0.2,0.2c1.3,0,2.6,0,3.9,0
		c0.1,0,0.2,0,0.2,0.2c0,1.4,0,2.8,0,4.1l0,0c-0.4,0-0.8,0-1.2,0c-1,0-2.1,0-3.1,0c-0.1,0-0.2,0-0.4,0c-1.3,0-2.5,0-3.8,0
		c-0.1,0-0.2,0-0.2-0.2c0-0.2,0-0.4,0-0.6c0-1.2,0-2.4,0-3.6c0-0.3,0-0.5,0-0.8c0-1.2,0-2.4,0-3.5c0-0.2,0-0.5,0-0.7
		c0-1.2,0-2.4,0-3.6c0-0.1,0-0.1,0-0.2C47.3,18.3,47.3,15.5,47.3,12.7L47.3,12.7z"/>
	<path d="M43,4.1c1.4,0,2.8,0,4.1,0c0.1,0,0.2,0,0.2,0.2c0,2.8,0,5.6,0,8.4l0,0c-0.4,0-0.8,0-1.2,0c-1,0-2.1,0-3.1,0
		c0-0.4,0-0.7,0-1.1c0-1.1,0-2.1,0-3.2C43,6.9,43,5.5,43,4.1L43,4.1z"/>
	<path d="M12.9,55.7c-1.4,0-2.8,0-4.2,0c-0.1,0-0.1,0-0.1-0.2c0-1.3,0-2.7,0-4c0-0.1,0-0.2-0.2-0.2c-1.3,0-2.6,0-4,0
		c-0.1,0-0.2,0-0.2-0.2c0-1.4,0-2.7,0-4.1l0,0c0.4,0,0.8,0,1.1,0c1.1,0,2.1,0,3.2,0c0.1,0,0.1,0,0.2,0c1.4,0,2.7,0,4.1,0
		c0,0.2,0,0.5,0,0.7c0,1.2,0,2.4,0,3.6c0,0.1,0,0.1,0,0.2C12.9,53,12.9,54.4,12.9,55.7L12.9,55.7z"/>
	<path d="M55.8,47.1c0,1.4,0,2.8,0,4.1c0,0.1,0,0.1-0.2,0.1c-1.3,0-2.7,0-4,0c-0.1,0-0.2,0-0.2,0.2c0,1.3,0,2.6,0,4
		c0,0.1,0,0.2-0.2,0.2c-1.4,0-2.7,0-4.1,0l0,0c0-0.4,0-0.8,0-1.1c0-1.1,0-2.1,0-3.2c0-0.2,0-0.4,0-0.7c0-1.2,0-2.4,0-3.6
		c0.3,0,0.7,0,1,0c1.1,0,2.2,0,3.3,0c0.1,0,0.1,0,0.2,0C53.1,47.1,54.5,47.1,55.8,47.1L55.8,47.1z"/>
	<path d="M25.8,8.4c2.9,0,5.7,0,8.6,0l0,0c0,1.4,0,2.9,0,4.3l0,0c-0.8,0-1.7,0-2.5,0c-2,0-4.1,0-6.1,0l0,0
		C25.8,11.3,25.8,9.8,25.8,8.4L25.8,8.4z"/>
	<path d="M34.4,8.4c0-1.4,0-2.8,0-4.1c0-0.1,0-0.2,0.2-0.2c1.4,0,2.8,0,4.1,0l0,0c0,1.4,0,2.9,0,4.3l0,0C37.2,8.4,35.8,8.4,34.4,8.4
		L34.4,8.4z"/>
	<path d="M21.5,4.1c1.4,0,2.7,0,4.1,0c0.1,0,0.2,0,0.2,0.2c0,1.4,0,2.8,0,4.1l0,0c-1.4,0-2.8,0-4.3,0l0,0
		C21.5,6.9,21.5,5.5,21.5,4.1L21.5,4.1z"/>
	<path class="st0" d="M4.3,34.2c1.4,0,2.7,0,4.1,0c0.1,0,0.1,0,0.2,0c0,1.4,0,2.9,0,4.3c-1.4,0-2.9,0-4.3,0c0-1,0-2.1,0-3.1
		C4.3,35,4.3,34.6,4.3,34.2z"/>
	<path class="st1" d="M4.3,38.5c1.4,0,2.9,0,4.3,0l0,0c0,1.4,0,2.9,0,4.3l0,0c-0.1,0-0.1,0-0.2,0c-1.4,0-2.7,0-4.1,0
		c0-1.2,0-2.3,0-3.5C4.3,39,4.3,38.8,4.3,38.5z"/>
	<path class="st0" d="M4.3,42.8c1.4,0,2.7,0,4.1,0c0.1,0,0.1,0,0.2,0c0,1.4,0,2.9,0,4.3c-1.1,0-2.1,0-3.2,0c-0.4,0-0.8,0-1.1,0
		c0-1.4,0-2.7,0-4.1C4.3,43,4.3,42.9,4.3,42.8z"/>
	<path class="st0" d="M47.3,51.4c0,1.1,0,2.1,0,3.2c0,0.4,0,0.8,0,1.1c-1.4,0-2.7,0-4.1,0c-0.1,0-0.1,0-0.2,0c0-1.4,0-2.9,0-4.3
		C44.4,51.4,45.8,51.4,47.3,51.4z"/>
	<path class="st1" d="M43,51.4c0,1.4,0,2.9,0,4.3c-1.2,0-2.4,0-3.5,0c-0.3,0-0.5,0-0.8,0c0-1.4,0-2.9,0-4.3l0,0
		C40.1,51.4,41.5,51.4,43,51.4L43,51.4z"/>
	<path class="st0" d="M38.7,51.4c0,1.4,0,2.9,0,4.3c-1.1,0-2.1,0-3.2,0c-0.4,0-0.7,0-1.1,0c0,0,0,0,0,0c0-0.4,0-0.8,0-1.2
		c0-1,0-2.1,0-3.1C35.8,51.4,37.2,51.4,38.7,51.4z"/>
	<path class="st1" d="M21.5,55.7c-1.2,0-2.4,0-3.5,0c-0.3,0-0.5,0-0.8,0c0-1.4,0-2.9,0-4.3l0,0c1.4,0,2.9,0,4.3,0l0,0
		C21.5,52.9,21.5,54.3,21.5,55.7z"/>
	<path class="st0" d="M17.2,51.4c0,1.4,0,2.9,0,4.3c-1.1,0-2.1,0-3.2,0c-0.4,0-0.8,0-1.1,0c0-1.4,0-2.7,0-4.1c0-0.1,0-0.1,0-0.2
		C14.3,51.4,15.8,51.4,17.2,51.4z"/>
	<path class="st0" d="M21.5,55.7c0-1.4,0-2.9,0-4.3c1.4,0,2.8,0,4.3,0c0,1.4,0,2.9,0,4.3c0,0,0,0,0,0C24.3,55.7,22.9,55.7,21.5,55.7
		z"/>
	<path class="st0" d="M51.5,34.2c1,0,2.1,0,3.1,0c0.4,0,0.8,0,1.2,0c0,1.4,0,2.7,0,4.1c0,0.1,0,0.1,0,0.2c-1.4,0-2.9,0-4.3,0
		C51.5,37.1,51.5,35.6,51.5,34.2z"/>
	<path class="st1" d="M51.5,38.5c1.4,0,2.9,0,4.3,0c0,1.2,0,2.4,0,3.6c0,0.2,0,0.5,0,0.7c-0.7,0-1.4,0-2,0c-0.7,0-1.5,0-2.2,0l0,0
		C51.5,41.4,51.5,40,51.5,38.5L51.5,38.5z"/>
	<path class="st0" d="M51.5,42.8c0.7,0,1.5,0,2.2,0c0.7,0,1.4,0,2,0c0,1,0,2.1,0,3.1c0,0.4,0,0.8,0,1.2c-1.4,0-2.7,0-4.1,0
		c-0.1,0-0.1,0-0.2,0C51.5,45.7,51.5,44.3,51.5,42.8z"/>
	<path d="M25.8,55.7c0-1.4,0-2.9,0-4.3c0-0.2,0-0.4,0-0.6c0-1.2,0-2.4,0-3.7c2.9,0,5.7,0,8.6,0c0,0.3,0,0.5,0,0.8c0,1.2,0,2.3,0,3.5
		c0,1,0,2.1,0,3.1c0,0.4,0,0.8,0,1.2C31.5,55.7,28.6,55.7,25.8,55.7z"/>
	<path class="st2" d="M38.7,8.4c0-1.4,0-2.9,0-4.3c1.4,0,2.9,0,4.3,0c0,1.4,0,2.9,0,4.3C41.5,8.4,40.1,8.4,38.7,8.4z"/>
	<path class="st2" d="M21.5,4.1c0,1.4,0,2.9,0,4.3c-1.4,0-2.9,0-4.3,0c0-1.1,0-2.1,0-3.2c0-0.4,0-0.8,0-1.1
		C18.6,4.1,20.1,4.1,21.5,4.1z"/>
	<path class="st1" d="M8.6,38.5c0-1.4,0-2.9,0-4.3c1.2,0,2.4,0,3.6,0c0.2,0,0.4,0,0.6,0c0.1,0,0.2,0,0.2-0.2c0-1.2,0-2.5,0-3.7
		c0-0.2,0-0.3,0-0.5c1.4,0,2.9,0,4.3,0c0,1.4,0,2.8,0,4.2c0,0.1,0.1,0.1,0.2,0.1c1.1,0,2.1,0,3.2,0c1.7,0,3.5,0,5.2,0
		c0,1.4,0,2.7,0,4.1c0,0.3,0,0.2-0.2,0.2c-5.6,0-11.1,0-16.7,0C8.7,38.5,8.7,38.5,8.6,38.5L8.6,38.5z"/>
	<path class="st3" d="M12.9,12.7c1.4,0,2.8,0,4.2,0c0.1,0,0.1,0,0.2,0c0,0,0,0,0,0c1.4,0,2.8,0,4.3,0c0.9,0,1.9,0,2.8,0
		c0.5,0,1,0,1.4,0l0,0c0,1.4,0,2.9,0,4.3c-0.2,0-0.4,0-0.7,0c-1.2,0-2.4,0-3.6,0c-1.4,0-2.8,0-4.2,0c-0.1,0-0.1,0.1-0.1,0.2
		c0,1.4,0,2.8,0,4.2c-1.4,0-2.9,0-4.3,0c0-0.1,0-0.1,0-0.2C12.9,18.3,12.9,15.5,12.9,12.7z"/>
	<path class="st3" d="M17.2,29.9c-1.4,0-2.9,0-4.3,0c0-1.2,0-2.4,0-3.6c0-0.2,0-0.5,0-0.7c1.4,0,2.9,0,4.3,0
		C17.2,27,17.2,28.5,17.2,29.9L17.2,29.9z"/>
	<path class="st4" d="M17.2,25.6c-1.4,0-2.9,0-4.3,0c0-1.2,0-2.4,0-3.6c0-0.2,0-0.4,0-0.7c1.4,0,2.9,0,4.3,0l0,0
		C17.2,22.7,17.2,24.2,17.2,25.6L17.2,25.6z"/>
	<path class="st4" d="M21.5,12.7c-1.4,0-2.8,0-4.3,0c0,0,0,0,0,0c0-1.4,0-2.7,0-4.1c0-0.1,0-0.1,0-0.2c1.4,0,2.9,0,4.3,0l0,0
		C21.5,9.8,21.5,11.3,21.5,12.7z"/>
	<path class="st1" d="M51.5,34.2c0,1.4,0,2.9,0,4.3c0,0,0,0,0,0c-0.1,0-0.1,0-0.2,0c-5.6,0-11.2,0-16.8,0c-0.2,0-0.2,0-0.2-0.2
		c0-1.4,0-2.7,0-4.1c0.6,0,1.3,0,1.9,0c2.2,0,4.3,0,6.5,0c0.1,0,0.2,0,0.2-0.1c0-1.4,0-2.8,0-4.2c1.4,0,2.9,0,4.3,0
		c0,1.2,0,2.4,0,3.6c0,0.2,0,0.4,0,0.6c0,0.1,0,0.2,0.2,0.2c1.3,0,2.5,0,3.8,0C51.3,34.2,51.4,34.2,51.5,34.2z"/>
	<path class="st3" d="M43,12.7c1,0,2.1,0,3.1,0c0.4,0,0.8,0,1.2,0c0,2.8,0,5.6,0,8.4c0,0.1,0,0.1,0,0.2c-1.4,0-2.9,0-4.3,0
		c0-0.2,0-0.5,0-0.7c0-1.2,0-2.3,0-3.5c0-0.1,0-0.2-0.1-0.2c-1.4,0-2.8,0-4.2,0c-0.1,0-0.1,0-0.2,0c-1.4,0-2.7,0-4.1,0
		c0-1.4,0-2.9,0-4.3l0,0c1.4,0,2.9,0,4.3,0c0.4,0,0.8,0,1.2,0C40.9,12.7,41.9,12.7,43,12.7z"/>
	<path class="st3" d="M47.3,29.9c-1.4,0-2.9,0-4.3,0l0,0c0-1.4,0-2.9,0-4.3c1.4,0,2.9,0,4.3,0c0,1.2,0,2.4,0,3.5
		C47.3,29.4,47.3,29.6,47.3,29.9z"/>
	<path class="st4" d="M47.3,25.6c-1.4,0-2.9,0-4.3,0l0,0c0-1.4,0-2.9,0-4.3l0,0c1.4,0,2.9,0,4.3,0c0,1.2,0,2.4,0,3.6
		C47.3,25.1,47.3,25.4,47.3,25.6z"/>
	<path class="st4" d="M43,12.7c-1,0-2.1,0-3.1,0c-0.4,0-0.8,0-1.2,0c0-1.4,0-2.9,0-4.3l0,0c1.4,0,2.9,0,4.3,0c0,1.1,0,2.1,0,3.2
		C43,11.9,43,12.3,43,12.7z"/>
	<path class="st1" d="M25.8,47.1c0,1.2,0,2.4,0,3.7c0,0.2,0,0.4,0,0.6c-1.4,0-2.8,0-4.3,0l0,0c0-1.4,0-2.8,0-4.1
		c0-0.1,0-0.1-0.1-0.1c-1.3,0-2.7,0-4,0c-0.1,0-0.1,0-0.1,0.1c0,1.4,0,2.8,0,4.1l0,0c-1.4,0-2.9,0-4.3,0c0-1.2,0-2.4,0-3.6
		c0-0.2,0-0.5,0-0.7c0-0.1,0-0.1,0-0.2c0-1.4,0-2.8,0-4.1c0.1,0,0.1,0,0.2,0c4.2,0,8.4,0,12.5,0c0.1,0,0.1,0,0.2,0
		c0,0.4,0,0.8,0,1.1C25.8,45,25.8,46.1,25.8,47.1z"/>
	<path class="st4" d="M12.9,42.8c0,1.4,0,2.8,0,4.1c0,0.1,0,0.1,0,0.2c-1.4,0-2.7,0-4.1,0c-0.1,0-0.1,0-0.2,0c0-1.4,0-2.9,0-4.3
		c0,0,0,0,0,0c0.1,0,0.2,0,0.3,0C10.2,42.8,11.6,42.8,12.9,42.8z"/>
	<path class="st1" d="M34.4,51.4c0-1.2,0-2.3,0-3.5c0-0.3,0-0.5,0-0.8c0-0.1,0-0.1,0-0.2c0-1.4,0-2.8,0-4.1c0.1,0,0.1,0,0.2,0
		c4.2,0,8.4,0,12.6,0c0.1,0,0.1,0,0.2,0c0,0.4,0,0.7,0,1.1c0,1.1,0,2.1,0,3.2c0,1.2,0,2.4,0,3.6c0,0.2,0,0.4,0,0.7
		c-1.4,0-2.9,0-4.3,0l0,0c0-1.4,0-2.8,0-4.1c0-0.1,0-0.1-0.1-0.1c-1.3,0-2.7,0-4,0c-0.1,0-0.1,0-0.1,0.1c0,1.4,0,2.8,0,4.1l0,0
		C37.2,51.4,35.8,51.4,34.4,51.4z"/>
	<path class="st4" d="M47.3,47.1c0-1.1,0-2.1,0-3.2c0-0.4,0-0.7,0-1.1c0.4,0,0.9,0,1.3,0c1,0,2,0,2.9,0l0,0c0,1.4,0,2.9,0,4.3
		c-1.1,0-2.2,0-3.3,0C47.9,47.1,47.6,47.1,47.3,47.1z"/>
	<path class="st4" d="M34.4,12.7c0,1.4,0,2.9,0,4.3l0,0c-2.9,0-5.7,0-8.6,0l0,0c0-1.4,0-2.9,0-4.3c2,0,4.1,0,6.1,0
		C32.7,12.7,33.5,12.7,34.4,12.7z"/>
	<path class="st2" d="M38.7,8.4c0,1.4,0,2.9,0,4.3c-1.4,0-2.9,0-4.3,0c0-1.4,0-2.9,0-4.3C35.8,8.4,37.2,8.4,38.7,8.4z"/>
	<path class="st2" d="M21.5,12.7c0-1.4,0-2.9,0-4.3c1.4,0,2.8,0,4.3,0c0,1.4,0,2.9,0,4.3c-0.5,0-1,0-1.4,0
		C23.4,12.7,22.4,12.7,21.5,12.7z"/>
	<path class="st2" d="M51.5,42.8c-1,0-2,0-2.9,0c-0.4,0-0.9,0-1.3,0c-0.1,0-0.1,0-0.2,0c-4.2,0-8.4,0-12.6,0c-0.1,0-0.1,0-0.2,0
		c0,0-0.1,0-0.1,0c-2.8,0-5.6,0-8.4,0c0,0-0.1,0-0.1,0c-0.1,0-0.1,0-0.2,0c-4.2,0-8.4,0-12.5,0c-0.1,0-0.1,0-0.2,0
		c-1.4,0-2.7,0-4.1,0c-0.1,0-0.2,0-0.3,0c0-1.4,0-2.9,0-4.3c0.1,0,0.1,0,0.2,0c5.6,0,11.1,0,16.7,0c0.3,0,0.2,0,0.2-0.2
		c0-1.4,0-2.7,0-4.1l0,0c2.9,0,5.7,0,8.6,0l0,0c0,1.4,0,2.7,0,4.1c0,0.2,0,0.2,0.2,0.2c5.6,0,11.2,0,16.8,0c0.1,0,0.1,0,0.2,0
		C51.5,40,51.5,41.4,51.5,42.8z"/>
	<path class="st2" d="M38.7,51.4c0-1.4,0-2.8,0-4.1c0-0.1,0-0.1,0.1-0.1c1.3,0,2.7,0,4,0c0.1,0,0.1,0,0.1,0.1c0,1.4,0,2.8,0,4.1
		C41.5,51.4,40.1,51.4,38.7,51.4z"/>
	<path class="st2" d="M17.2,51.4c0-1.4,0-2.8,0-4.1c0-0.1,0-0.1,0.1-0.1c1.3,0,2.7,0,4,0c0.1,0,0.1,0,0.1,0.1c0,1.4,0,2.8,0,4.1
		C20.1,51.4,18.6,51.4,17.2,51.4z"/>
	<path class="st4" d="M25.8,42.8c0,0,0.1,0,0.1,0c2.8,0,5.6,0,8.4,0c0,0,0.1,0,0.1,0c0,1.4,0,2.8,0,4.1c0,0.1,0,0.1,0,0.2
		c-2.9,0-5.7,0-8.6,0c0-1.1,0-2.1,0-3.2C25.8,43.6,25.8,43.2,25.8,42.8z"/>
	<path d="M25.8,34.2c-1.7,0-3.5,0-5.2,0c-1.1,0-2.1,0-3.2,0c-0.1,0-0.2,0-0.2-0.1c0-1.4,0-2.8,0-4.2l0,0c0.4,0,0.8,0,1.2,0
		c1,0,2.1,0,3.1,0c1.4,0,2.8,0,4.3,0C25.8,31.3,25.8,32.8,25.8,34.2L25.8,34.2z"/>
	<path d="M17.2,21.3c0-1.4,0-2.8,0-4.2c0-0.1,0-0.2,0.1-0.2c1.4,0,2.8,0,4.2,0c0,1.4,0,2.9,0,4.3C20.1,21.3,18.6,21.3,17.2,21.3
		L17.2,21.3z"/>
	<path class="st1" d="M21.5,21.3c0-1.4,0-2.9,0-4.3c1.2,0,2.4,0,3.6,0c0.2,0,0.4,0,0.7,0l0,0c0,1.4,0,2.9,0,4.3
		C24.3,21.3,22.9,21.3,21.5,21.3L21.5,21.3z"/>
	<path class="st1" d="M21.5,29.9c-1,0-2.1,0-3.1,0c-0.4,0-0.8,0-1.2,0c0-1.4,0-2.9,0-4.3l0,0c1.4,0,2.9,0,4.3,0
		C21.5,27,21.5,28.5,21.5,29.9z"/>
	<path class="st3" d="M21.5,25.6c-1.4,0-2.9,0-4.3,0c0-1.4,0-2.9,0-4.3c1.4,0,2.9,0,4.3,0c0,0,0,0,0,0
		C21.5,22.7,21.5,24.2,21.5,25.6L21.5,25.6z"/>
	<path d="M43,29.9c0,1.4,0,2.8,0,4.2c0,0.1-0.1,0.1-0.2,0.1c-2.2,0-4.3,0-6.5,0c-0.6,0-1.3,0-1.9,0l0,0c0-1.4,0-2.9,0-4.3l0,0
		c0.4,0,0.8,0,1.2,0c1,0,2.1,0,3.1,0c0.1,0,0.1,0,0.2,0C40.2,29.9,41.6,29.9,43,29.9L43,29.9z"/>
	<path class="st1" d="M34.4,17c1.4,0,2.7,0,4.1,0c0.1,0,0.1,0,0.2,0c0,1.4,0,2.9,0,4.3c0,0,0,0,0,0c-0.4,0-0.8,0-1.2,0
		c-1,0-2.1,0-3.1,0C34.4,19.9,34.4,18.4,34.4,17L34.4,17z"/>
	<path d="M38.7,21.3c0-1.4,0-2.9,0-4.3c1.4,0,2.8,0,4.2,0c0.1,0,0.1,0.1,0.1,0.2c0,1.2,0,2.3,0,3.5c0,0.2,0,0.5,0,0.7l0,0
		C41.5,21.3,40.1,21.3,38.7,21.3z"/>
	<path class="st1" d="M43,29.9c-1.4,0-2.7,0-4.1,0c-0.1,0-0.1,0-0.2,0c0-1.4,0-2.9,0-4.3l0,0c1.4,0,2.9,0,4.3,0l0,0
		C43,27,43,28.5,43,29.9z"/>
	<path class="st3" d="M43,25.6c-1.4,0-2.9,0-4.3,0c0-1.4,0-2.9,0-4.3c0,0,0,0,0,0c1.4,0,2.9,0,4.3,0C43,22.7,43,24.2,43,25.6z"/>
	<path class="st3" d="M34.4,17c0,1.4,0,2.9,0,4.3c0,0-0.1,0-0.1,0c-2.8,0-5.6,0-8.4,0c0,0-0.1,0-0.1,0c0-1.4,0-2.9,0-4.3
		C28.6,17,31.5,17,34.4,17z"/>
	<path class="st3" d="M34.4,29.9c0,1.4,0,2.9,0,4.3c-2.9,0-5.7,0-8.6,0c0-1.4,0-2.9,0-4.3l0,0c0.1,0,0.2,0,0.2,0
		C28.8,29.9,31.6,29.9,34.4,29.9z"/>
	<path class="st3" d="M21.5,29.9c0-1.4,0-2.9,0-4.3l0,0c0,0,0,0,0.1,0c1.3,0,2.7,0,4,0c0.1,0,0.2,0,0.2,0.1c0,1.4,0,2.8,0,4.2l0,0
		C24.3,29.9,22.9,29.9,21.5,29.9z"/>
	<path d="M25.8,29.9c0-1.4,0-2.8,0-4.2c0-0.1,0-0.1-0.2-0.1c-1.3,0-2.7,0-4,0c0,0,0,0-0.1,0c0-1.4,0-2.9,0-4.3c1.4,0,2.8,0,4.3,0
		c0,0,0.1,0,0.1,0c2.8,0,5.6,0,8.4,0c0,0,0.1,0,0.1,0c1,0,2.1,0,3.1,0c0.4,0,0.8,0,1.2,0c0,1.4,0,2.9,0,4.3l0,0c-1.4,0-2.8,0-4.1,0
		c-0.1,0-0.2,0-0.2,0.2c0,1.4,0,2.8,0,4.1l0,0c-2.8,0-5.6,0-8.4,0C25.9,29.9,25.8,29.9,25.8,29.9z"/>
	<path class="st3" d="M34.4,29.9c0-1.4,0-2.8,0-4.1c0-0.1,0-0.2,0.2-0.2c1.4,0,2.8,0,4.1,0c0,1.4,0,2.9,0,4.3c-1,0-2.1,0-3.1,0
		C35.1,29.9,34.8,29.9,34.4,29.9z"/>
</g>
</svg>
