<?xml version="1.0" encoding="utf-8"?>
<!-- Generator: Adobe Illustrator 25.4.0, SVG Export Plug-In . SVG Version: 6.00 Build 0)  -->
<svg version="1.1" id="Layer_1" xmlns="http://www.w3.org/2000/svg" xmlns:xlink="http://www.w3.org/1999/xlink" x="0px" y="0px"
	 viewBox="0 0 34 34" style="enable-background:new 0 0 34 34;" xml:space="preserve">
<style type="text/css">
	.st0{fill:#19001A;}
	.st1{fill:#E100E5;}
	.st2{fill:#FED30B;}
</style>
<g>
	<path class="st0" d="M0.1,33.8c0-9.8,0-19.5,0-29.3c0,0,0.1,0,0.1,0c0.1-0.1,0.2-0.1,0.4-0.1c2.5,0,5.1,0,7.6,0
		c0.3,0,0.4-0.2,0.4-0.4c0-1.1,0-2.2,0-3.4c0-0.2,0-0.3,0.2-0.4c0,0,0,0,0-0.1c5.5,0,11,0,16.5,0c0,0,0,0,0,0.1
		c0.1,0.1,0.2,0.2,0.2,0.4c0,1.1,0,2.3,0,3.4c0,0.2,0.2,0.4,0.4,0.4c0.9,0,1.8,0,2.7,0c1.7,0,3.3,0,5,0c0.1,0,0.2,0,0.3,0.1
		c0.1,0.1,0.1,0.2,0.1,0.3c0,9.6,0,19.2,0,28.8c0,0,0,0.1,0,0.1c0,0.1,0,0.1-0.1,0.2C33.8,34,33.7,34,33.5,34c-10.4,0-20.8,0-31.2,0
		c-0.6,0-1.2,0-1.8,0c-0.1,0-0.2,0-0.3-0.1C0.2,33.9,0.1,33.8,0.1,33.8z M21.3,8.7c0-1.3,0-2.6,0-3.9c0-0.3-0.1-0.5-0.5-0.5
		c-2.5,0-5.1,0-7.6,0c-0.3,0-0.5,0.2-0.5,0.5c0,1.4,0,2.8,0,4.2c0,1.4,0,2.8,0,4.2c0.1,1.2,0,2.4,0,3.5c0,0.3,0.1,0.4,0.4,0.4
		c1.6,0,3.3,0,4.9,0c0.9,0,1.9,0,2.8,0c0.2,0,0.3-0.1,0.4-0.3c0-1.5,0-3,0.1-4.5C21.3,11,21.3,9.9,21.3,8.7z M17,25.6
		c-1.3,0-2.6,0-3.8,0c-0.2,0-0.4,0.2-0.4,0.4c0,1.2,0,2.3,0,3.5c0,0.2,0.2,0.4,0.4,0.4c2.6,0,5.1,0,7.7,0c0.2,0,0.4-0.2,0.4-0.4
		c0-1.1,0-2.3,0-3.4c0-0.3-0.2-0.4-0.4-0.4C19.6,25.6,18.3,25.6,17,25.6z M29.8,21.4c0-1.3,0-2.6,0-3.9c0-0.3-0.2-0.5-0.5-0.5
		c-1.1,0-2.3,0-3.4,0c-0.3,0-0.5,0.2-0.5,0.5c0,1.9,0,3.7,0,5.6c0,2.1,0.1,4.2,0.1,6.4c0,0.2,0.2,0.3,0.3,0.3c1.2,0,2.4,0,3.6,0
		c0.2,0,0.3-0.2,0.3-0.3c0-1.4,0-2.9,0.1-4.3C29.8,23.9,29.8,22.6,29.8,21.4z M8.6,21.4c0-1.3,0-2.6,0-3.9c0-0.2-0.2-0.4-0.4-0.4
		c-1.2,0-2.3,0-3.5,0c-0.1,0-0.2,0-0.3,0.1c-0.1,0.1-0.2,0.2-0.2,0.4c0,2.8,0,5.5,0,8.3c0,1.2,0,2.4,0,3.6c0,0.2,0.2,0.4,0.4,0.4
		c1.2,0,2.3,0,3.5,0c0.2,0,0.4-0.2,0.4-0.4c0-1.4,0-2.9,0-4.3C8.6,23.9,8.6,22.6,8.6,21.4z M6.4,12.9c0.6,0,1.2,0,1.7,0
		c0.2,0,0.4-0.2,0.4-0.4c0-1.2,0-2.3,0-3.5c0-0.2-0.2-0.4-0.4-0.4c-1.2,0-2.3,0-3.5,0C4.4,8.6,4.3,8.8,4.3,9c0,1.2,0,2.3,0,3.5
		c0,0.3,0.2,0.4,0.4,0.4C5.3,12.9,5.9,12.9,6.4,12.9z M27.6,8.6c-0.6,0-1.1,0-1.7,0c-0.3,0-0.4,0.2-0.4,0.4c0,1.1,0,2.3,0,3.4
		c0,0.2,0.2,0.4,0.4,0.4c1.2,0,2.3,0,3.5,0c0.2,0,0.4-0.2,0.4-0.4c0-1.2,0-2.3,0-3.5c0-0.2-0.2-0.4-0.4-0.4
		C28.7,8.6,28.2,8.6,27.6,8.6z"/>
	<path class="st1" d="M21.3,8.7c0,1.2,0,2.3,0,3.5c-0.1,1.5,0,3-0.1,4.5c0,0.2-0.2,0.3-0.4,0.3c-0.9,0-1.9,0-2.8,0
		c-1.6,0-3.3,0-4.9,0c-0.3,0-0.4-0.1-0.4-0.4c0-1.2,0.1-2.4,0-3.5c-0.1-1.4,0-2.8,0-4.2c0-1.4,0-2.8,0-4.2c0-0.3,0.2-0.5,0.5-0.5
		c2.5,0,5.1,0,7.6,0c0.3,0,0.5,0.1,0.5,0.5C21.3,6.1,21.3,7.4,21.3,8.7z M21.1,8.7c0-1.3,0-2.6,0-3.9c0-0.2-0.1-0.3-0.3-0.3
		c-2.6,0-5.1,0-7.7,0c-0.2,0-0.3,0.1-0.3,0.3c0,2.6,0,5.1,0,7.7c0,0.2,0.1,0.3,0.3,0.3c2.5,0,5.1,0,7.6,0c0.2,0,0.3-0.1,0.3-0.3
		C21.1,11.2,21.1,9.9,21.1,8.7z"/>
	<path class="st1" d="M17,25.6c1.3,0,2.5,0,3.8,0c0.3,0,0.4,0.2,0.4,0.4c0,1.1,0,2.3,0,3.4c0,0.2-0.2,0.4-0.4,0.4
		c-2.6,0-5.1,0-7.7,0c-0.2,0-0.4-0.2-0.4-0.4c0-1.2,0-2.3,0-3.5c0-0.2,0.2-0.4,0.4-0.4C14.5,25.6,15.7,25.6,17,25.6z"/>
	<path class="st1" d="M29.8,21.4c0,1.2,0,2.5,0,3.7c-0.1,1.4,0,2.9-0.1,4.3c0,0.2-0.2,0.3-0.3,0.3c-1.2,0-2.4,0-3.6,0
		c-0.2,0-0.3-0.2-0.3-0.3c0-2.1-0.1-4.2-0.1-6.4c0-1.9,0-3.7,0-5.6c0-0.3,0.2-0.5,0.5-0.5c1.1,0,2.3,0,3.4,0c0.3,0,0.5,0.2,0.5,0.5
		C29.8,18.8,29.8,20.1,29.8,21.4z M29.6,21.4c0-1.3,0-2.6,0-3.9c0-0.2-0.1-0.3-0.3-0.3c-1.1,0-2.3,0-3.4,0c-0.2,0-0.3,0.1-0.3,0.3
		c0,2.6,0,5.1,0,7.7c0,0.1,0,0.1,0,0.2c0,0.1,0.1,0.2,0.2,0.2c1.2,0,2.3,0,3.5,0c0.1,0,0.2-0.1,0.2-0.2c0-0.1,0-0.1,0-0.2
		C29.6,23.9,29.6,22.6,29.6,21.4z"/>
	<path class="st1" d="M8.6,21.4c0,1.2,0,2.5,0,3.7c0,1.4,0,2.9,0,4.3c0,0.2-0.2,0.4-0.4,0.4c-1.2,0-2.3,0-3.5,0
		c-0.2,0-0.4-0.2-0.4-0.4c0-1.2,0-2.4,0-3.6c0-2.8,0-5.5,0-8.3c0-0.1,0-0.3,0.2-0.4C4.5,17.1,4.6,17,4.7,17c1.2,0,2.3,0,3.5,0
		c0.2,0,0.4,0.2,0.4,0.4C8.6,18.8,8.6,20.1,8.6,21.4z M4.4,21.3c0,1.3,0,2.5,0,3.8c0,0,0,0.1,0,0.1c0,0.2,0.2,0.3,0.3,0.3
		c1.2,0,2.3,0,3.5,0c0,0,0.1,0,0.1,0c0.1-0.1,0.2-0.2,0.2-0.4c0-2.5,0-5.1,0-7.6c0-0.2-0.1-0.3-0.3-0.3c-1.1,0-2.3,0-3.4,0
		c-0.2,0-0.3,0.1-0.3,0.3C4.4,18.8,4.4,20,4.4,21.3z"/>
	<path class="st1" d="M6.4,12.9c-0.6,0-1.2,0-1.7,0c-0.3,0-0.4-0.2-0.4-0.4c0-1.2,0-2.3,0-3.5c0-0.2,0.2-0.4,0.4-0.4
		c1.2,0,2.3,0,3.5,0c0.2,0,0.4,0.2,0.4,0.4c0,1.2,0,2.3,0,3.5c0,0.2-0.2,0.4-0.4,0.4C7.6,12.9,7,12.9,6.4,12.9z"/>
	<path class="st1" d="M27.6,8.6c0.6,0,1.2,0,1.7,0c0.2,0,0.4,0.2,0.4,0.4c0,1.2,0,2.3,0,3.5c0,0.2-0.2,0.4-0.4,0.4
		c-1.2,0-2.3,0-3.5,0c-0.2,0-0.4-0.2-0.4-0.4c0-1.1,0-2.3,0-3.4c0-0.3,0.2-0.4,0.4-0.4C26.5,8.6,27,8.6,27.6,8.6z"/>
	<path class="st2" d="M21.1,8.7c0,1.3,0,2.6,0,3.8c0,0.3-0.1,0.3-0.3,0.3c-2.5,0-5.1,0-7.6,0c-0.2,0-0.3-0.1-0.3-0.3
		c0-2.6,0-5.1,0-7.7c0-0.2,0.1-0.3,0.3-0.3c2.6,0,5.1,0,7.7,0c0.2,0,0.3,0.1,0.3,0.3C21.1,6.1,21.1,7.4,21.1,8.7z"/>
	<path class="st2" d="M29.6,21.4c0,1.3,0,2.5,0,3.8c0,0.1,0,0.1,0,0.2c0,0.1-0.1,0.2-0.2,0.2c-1.2,0-2.3,0-3.5,0
		c-0.1,0-0.2-0.1-0.2-0.2c0-0.1,0-0.1,0-0.2c0-2.6,0-5.1,0-7.7c0-0.2,0.1-0.3,0.3-0.3c1.1,0,2.3,0,3.4,0c0.2,0,0.3,0.1,0.3,0.3
		C29.6,18.8,29.6,20.1,29.6,21.4z"/>
	<path class="st2" d="M4.4,21.3c0-1.3,0-2.6,0-3.8c0-0.2,0.1-0.3,0.3-0.3c1.1,0,2.3,0,3.4,0c0.2,0,0.3,0.1,0.3,0.3
		c0,2.5,0,5.1,0,7.6c0,0.2-0.1,0.3-0.2,0.4c0,0-0.1,0-0.1,0c-1.2,0-2.3,0-3.5,0c-0.1,0-0.3-0.2-0.3-0.3c0,0,0-0.1,0-0.1
		C4.4,23.9,4.4,22.6,4.4,21.3z"/>
</g>
</svg>
