<svg xmlns="http://www.w3.org/2000/svg" viewBox="0 -0.5 32 32" shape-rendering="crispEdges">
<metadata>Made with Pixels to Svg https://codepen.io/shshaw/pen/XbxvNj</metadata>
<path stroke="#1a0019" d="M0 0h32M0 1h32M0 2h32M0 3h3M8 3h5M19 3h5M29 3h3M0 4h3M8 4h5M19 4h5M29 4h3M0 5h3M13 5h6M29 5h3M0 6h3M13 6h6M29 6h3M0 7h3M13 7h6M29 7h3M0 8h3M29 8h3M0 9h3M29 9h3M0 10h3M29 10h3M0 11h3M8 11h3M21 11h3M29 11h3M0 12h3M8 12h3M21 12h3M29 12h3M0 13h3M29 13h3M0 14h3M29 14h3M0 15h3M29 15h3M0 16h5M13 16h6M27 16h5M0 17h5M13 17h6M27 17h5M0 18h5M13 18h6M27 18h5M0 19h3M13 19h6M29 19h3M0 20h3M13 20h6M29 20h3M0 21h5M13 21h6M27 21h5M0 22h5M13 22h6M27 22h5M0 23h5M13 23h6M27 23h5M0 24h3M8 24h3M21 24h3M29 24h3M0 25h3M8 25h3M21 25h3M29 25h3M0 26h3M8 26h3M21 26h3M29 26h3M0 27h3M29 27h3M0 28h3M29 28h3M0 29h32M0 30h32M0 31h32" />
<path stroke="#e600e2" d="M3 3h5M13 3h6M24 3h5M3 4h5M13 4h6M24 4h5M8 5h5M19 5h5M8 6h5M19 6h5M8 7h5M19 7h5M13 8h6M13 9h6M13 10h6M8 13h3M21 13h3M8 14h3M21 14h3M8 15h3M21 15h3M3 19h2M27 19h2M3 20h2M27 20h2M3 24h2M13 24h6M27 24h2M3 25h2M13 25h6M27 25h2M3 26h2M13 26h6M27 26h2M8 27h3M21 27h3M8 28h3M21 28h3" />
<path stroke="#ff80fd" d="M3 5h5M24 5h5M3 6h5M24 6h5M3 7h5M24 7h5M3 8h10M19 8h10M3 9h10M19 9h10M3 10h10M19 10h10M3 11h5M11 11h10M24 11h5M3 12h5M11 12h10M24 12h5M3 13h5M11 13h10M24 13h5M3 14h5M11 14h10M24 14h5M3 15h5M11 15h10M24 15h5M5 16h8M19 16h8M5 17h8M19 17h8M5 18h8M19 18h8M5 19h8M19 19h8M5 20h8M19 20h8M5 21h8M19 21h8M5 22h8M19 22h8M5 23h8M19 23h8M5 24h3M11 24h2M19 24h2M24 24h3M5 25h3M11 25h2M19 25h2M24 25h3M5 26h3M11 26h2M19 26h2M24 26h3M3 27h5M11 27h10M24 27h5M3 28h5M11 28h10M24 28h5" />
</svg>