<svg width="512" height="512" viewBox="0 0 512 512" fill="none" xmlns="http://www.w3.org/2000/svg">
<path d="M293.922 486.4V512H319.537V486.4H293.922Z" fill="#201D1F"/>
<path d="M165.848 486.4V512H191.463V486.4H165.848Z" fill="#201D1F"/>
<path d="M165.848 486.4H191.463V460.8H165.848V486.4Z" fill="#354676"/>
<path d="M319.539 460.8H345.154V435.2H319.539V460.8Z" fill="#DB7144"/>
<path d="M191.46 435.2V460.8H293.922V486.4H319.537V435.2H191.46Z" fill="#354676"/>
<path d="M140.232 435.2V460.8H191.463V435.2H140.232Z" fill="#E69157"/>
<path d="M319.537 435.2V384H217.076V435.2H319.537Z" fill="#2C2830"/>
<path d="M191.463 435.2V384H165.848V358.4H140.232V435.2H191.463Z" fill="#2C2830"/>
<path d="M165.847 358.4V384H191.463V435.2H217.078V384H319.539V435.2H345.154V358.4H165.847Z" fill="#201D1F"/>
<path d="M165.846 332.8H140.231V358.4H165.846V332.8Z" fill="#DB7144"/>
<path d="M217.076 281.6H242.691V307.2H293.922V281.6H319.537V230.4H217.076V281.6ZM345.152 204.8V256H370.768V204.8H345.152ZM140.23 204.8H165.845V256H191.461V204.8H165.845V179.2H396.383V332.8H370.768V358.4H165.845V332.8H140.23V204.8Z" fill="#E69157"/>
<path d="M114.615 332.8H140.23V256H88.9996V281.6H114.615V332.8Z" fill="#DB7144"/>
<path d="M114.615 281.6H89.0002V307.2H114.615V281.6Z" fill="#7F2F1A"/>
<path d="M242.691 281.6V307.2H293.922V281.6H319.537V230.4H217.076V281.6H242.691Z" fill="#F4F1EB"/>
<path d="M345.153 256H370.768V204.8H345.153V256Z" fill="#1F1518"/>
<path d="M165.848 256H191.463V204.8H165.848V256Z" fill="#1F1518"/>
<path d="M114.615 230.4H89.0002V256H114.615V230.4Z" fill="#E69157"/>
<path d="M165.846 179.2H140.231V204.8H165.846V179.2Z" fill="#DB7144"/>
<path d="M396.383 179.2V153.6H165.845V179.2H396.383Z" fill="#DB7144"/>
<path d="M396.385 102.4H217.078V128H114.617V153.6H89.0014V230.4H114.617V256H140.232V179.2H165.847V153.6H396.385V128H422V76.8H396.385V102.4Z" fill="#7F2F1A"/>
<path d="M396.385 -4.29153e-05H293.924V25.5999H191.463V51.1999H140.232V76.7999H114.617V102.4H89.0014V153.6H114.617V128H217.078V102.4H396.385V76.7999H422V25.5999H396.385V-4.29153e-05Z" fill="#8C3C1C"/>
</svg>
