<?xml version="1.0" encoding="utf-8"?>
<!-- Generator: Adobe Illustrator 25.4.0, SVG Export Plug-In . SVG Version: 6.00 Build 0)  -->
<svg version="1.1" id="Layer_1" xmlns="http://www.w3.org/2000/svg" xmlns:xlink="http://www.w3.org/1999/xlink" x="0px" y="0px"
	 viewBox="0 0 60 60" style="enable-background:new 0 0 60 60;" xml:space="preserve">
<style type="text/css">
	.st0{fill:#B8C2FE;}
	.st1{fill:#0058F7;}
	.st2{fill:#36FEDE;}
	.st3{fill:#FED30B;}
	.st4{fill:#FEA004;}
</style>
<g>
	<path d="M51.5,60c-4.3,0-8.6,0-12.9,0c0-2.8,0-5.6,0-8.4c0-0.2,0-0.2-0.2-0.2c-5.6,0-11.2,0-16.8,0c-0.2,0-0.2,0-0.2,0.2
		c0,2.8,0,5.6,0,8.4c-4.3,0-8.6,0-12.9,0c0-1.4,0-2.7,0-4.1c0-0.1,0-0.2-0.2-0.2c-1.3,0-2.6,0-3.9,0c-0.2,0-0.2-0.1-0.2-0.2
		c0-4.2,0-8.3,0-12.5c0-0.2,0-0.2-0.2-0.2c-1.3,0-2.6,0-3.9,0C0,34.2,0,25.6,0,17c1.4,0,2.7,0,4.1,0c0,7.1,0,14.2,0,21.3
		c0,0.2,0.1,0.2,0.2,0.2c1.3,0,2.6,0,3.9,0c0.2,0,0.2,0,0.2-0.2c0-1.4,0-2.7,0-4.1c1.4,0,2.9,0,4.3,0c0,1.4,0,2.9,0,4.3
		c0,0.2,0,0.4,0,0.5c0,1.2,0,2.4,0,3.6c0,0.1,0,0.2,0.1,0.2c1.4,0,2.8,0,4.2,0c1.4,0,2.8,0,4.1,0c0.1,0,0.2,0,0.2,0.2
		c0,1.3,0,2.6,0,3.9c0,0.1,0,0.2,0.2,0.2c5.6,0,11.2,0,16.8,0c0.1,0,0.2,0,0.2-0.2c0-1.3,0-2.6,0-3.9c0-0.2,0-0.2,0.2-0.2
		c1.4,0,2.7,0,4.1,0c0.2,0,0.4,0,0.6,0c1.2,0,2.4,0,3.5,0c0.1,0,0.2,0,0.2-0.1c0-1.4,0-2.8,0-4.2c0-1.4,0-2.9,0-4.3
		c1.4,0,2.9,0,4.3,0c0,0.1,0,0.2,0,0.2c0,1.3,0,2.6,0,3.9c0,0.1,0,0.2,0.2,0.2c1.3,0,2.6,0,3.9,0c0.1,0,0.2,0,0.2-0.2
		c0-7.1,0-14.2,0-21.3c1.4,0,2.8,0,4.3,0c0,8.6,0,17.2,0,25.8c-1.4,0-2.7,0-4.1,0c-0.2,0-0.2,0-0.2,0.2c0,4.2,0,8.3,0,12.5
		c0,0.2,0,0.2-0.2,0.2c-1.3,0-2.6,0-3.9,0c-0.1,0-0.2,0-0.2,0.2C51.5,57.3,51.5,58.6,51.5,60z M12.7,51.4c0,0.1,0,0.1,0,0.2
		c0,1.3,0,2.7,0,4c0,0.1,0,0.2,0.1,0.2c1.3,0,2.7,0,4,0c0.1,0,0.1,0,0.1-0.1c0-1.4,0-2.8,0-4.2c0-1.4,0-2.8,0-4.2
		c0-0.1,0-0.1-0.1-0.1c-1.4,0-2.8,0-4.2,0c-1.4,0-2.8,0-4.2,0c-0.2,0-0.1,0.1-0.1,0.2c0,1.3,0,2.6,0,3.9c0,0.2,0,0.2,0.2,0.2
		C10,51.4,11.4,51.4,12.7,51.4L12.7,51.4z M47.1,51.4L47.1,51.4C47.2,51.4,47.2,51.4,47.1,51.4c1.4,0,2.8,0,4.1,0
		c0.1,0,0.2,0,0.2-0.1c0-1.4,0-2.7,0-4.1c0-0.1,0-0.1-0.1-0.1c-1.4,0-2.8,0-4.2,0c-1.4,0-2.8,0-4.2,0c-0.1,0-0.1,0-0.1,0.1
		c0,1.4,0,2.8,0,4.2c0,1.4,0,2.8,0,4.2c0,0.2,0.1,0.1,0.2,0.1c1.3,0,2.6,0,3.9,0c0.2,0,0.2,0,0.2-0.2C47.1,54.2,47.1,52.8,47.1,51.4
		z"/>
	<path d="M47.1,0.1c0,1.3,0,2.7,0,4l0,0c-1.4,0-2.9,0-4.3,0l0,0c0-1.3,0-2.7,0-4C44.3,0.1,45.7,0.1,47.1,0.1z"/>
	<path d="M12.7,4.1c0-1.3,0-2.7,0-4c1.4,0,2.8,0,4.3,0c0,1.3,0,2.7,0,4l0,0C15.6,4.1,14.2,4.1,12.7,4.1L12.7,4.1z"/>
	<path class="st0" d="M47.1,34.2c0,1.4,0,2.9,0,4.3c-1.4,0-2.7,0-4.1,0c-0.2,0-0.2,0-0.2,0.2c0,1.4,0,2.7,0,4.1c-1.4,0-2.7,0-4.1,0
		c-0.2,0-0.2,0-0.2,0.2c0,1.3,0,2.6,0,3.9c0,0.1,0,0.2-0.2,0.2c-5.6,0-11.2,0-16.8,0c-0.1,0-0.2,0-0.2-0.2c0-1.3,0-2.6,0-3.9
		c0-0.1,0-0.2-0.2-0.2c-1.4,0-2.8,0-4.1,0c0-1.4,0-2.7,0-4.1c0-0.2,0-0.2-0.2-0.2c-1.4,0-2.7,0-4.1,0c0-1.4,0-2.9,0-4.3l0,0
		c1.4,0,2.8,0,4.3,0c1.4,0,2.9,0,4.3,0c0,1.4,0,2.7,0,4.1c0,0.2,0,0.2,0.2,0.2c1.4,0,2.7,0,4.1,0c0,1.4,0,2.7,0,4.1
		c0,0.2,0,0.2,0.2,0.2c2.7,0,5.5,0,8.2,0c0.2,0,0.2,0,0.2-0.2c0-1.4,0-2.7,0-4.1c1.4,0,2.7,0,4.1,0c0.2,0,0.2,0,0.2-0.2
		c0-1.4,0-2.7,0-4.1c1.4,0,2.9,0,4.3,0C44.3,34.2,45.7,34.2,47.1,34.2L47.1,34.2z"/>
	<path class="st1" d="M8.4,34.2c0,1.4,0,2.7,0,4.1c0,0.2-0.1,0.2-0.2,0.2c-1.3,0-2.6,0-3.9,0c-0.1,0-0.2,0-0.2-0.2
		c0-7.1,0-14.2,0-21.3l0,0c1.4,0,2.9,0,4.3,0c0,1.4,0,2.9,0,4.3c0,1.4,0,2.8,0,4.3c0,1.4,0,2.9,0,4.3C8.4,31.3,8.4,32.8,8.4,34.2z"
		/>
	<path class="st1" d="M55.7,17c0,7.1,0,14.2,0,21.3c0,0.2-0.1,0.2-0.2,0.2c-1.3,0-2.6,0-3.9,0c-0.1,0-0.2,0-0.2-0.2
		c0-1.3,0-2.6,0-3.9c0-0.1,0-0.2,0-0.2c0-1.4,0-2.9,0-4.3c0-1.4,0-2.9,0-4.3c0-1.4,0-2.8,0-4.3c0-1.4,0-2.9,0-4.3
		C52.9,17,54.3,17,55.7,17L55.7,17z"/>
	<path class="st2" d="M47.1,47.1c1.4,0,2.8,0,4.2,0c0.1,0,0.1,0,0.1,0.1c0,1.4,0,2.7,0,4.1c0,0.2-0.1,0.1-0.2,0.1
		c-1.4,0-2.7,0-4.1,0c0,0-0.1,0-0.1,0C47.1,50,47.1,48.5,47.1,47.1z"/>
	<path class="st3" d="M47.1,47.1c0,1.4,0,2.9,0,4.3l0,0c-1.4,0-2.9,0-4.3,0c0-1.4,0-2.8,0-4.2c0-0.1,0-0.1,0.1-0.1
		C44.4,47.1,45.7,47.1,47.1,47.1z"/>
	<path class="st2" d="M12.7,51.4c-1.4,0-2.7,0-4.1,0c-0.2,0-0.2,0-0.2-0.2c0-1.3,0-2.6,0-3.9c0-0.1,0-0.2,0.1-0.2c1.4,0,2.8,0,4.2,0
		C12.7,48.5,12.7,50,12.7,51.4z"/>
	<path class="st1" d="M42.8,42.8c0-1.4,0-2.7,0-4.1c0-0.2,0-0.2,0.2-0.2c1.4,0,2.7,0,4.1,0c0,1.4,0,2.8,0,4.2c0,0.2-0.1,0.1-0.2,0.1
		c-1.2,0-2.4,0-3.5,0C43.2,42.8,43,42.8,42.8,42.8z"/>
	<path class="st0" d="M51.5,29.9c0,1.4,0,2.9,0,4.3c-1.4,0-2.9,0-4.3,0l0,0c0-1.4,0-2.9,0-4.3C48.6,29.9,50,29.9,51.5,29.9z"/>
	<path class="st2" d="M42.8,51.4c1.4,0,2.9,0,4.3,0c0,1.4,0,2.7,0,4.1c0,0.2,0,0.2-0.2,0.2c-1.3,0-2.6,0-3.9,0c-0.1,0-0.2,0-0.2-0.1
		C42.8,54.2,42.8,52.8,42.8,51.4z"/>
	<path class="st0" d="M8.4,34.2c0-1.4,0-2.9,0-4.3c1.4,0,2.9,0,4.3,0c0,1.4,0,2.9,0,4.3l0,0C11.3,34.2,9.9,34.2,8.4,34.2z"/>
	<path class="st1" d="M12.7,38.5c1.4,0,2.7,0,4.1,0c0.2,0,0.2,0,0.2,0.2c0,1.4,0,2.7,0,4.1c-1.4,0-2.8,0-4.2,0
		c-0.2,0-0.1-0.1-0.1-0.2c0-1.2,0-2.4,0-3.6C12.7,38.9,12.7,38.7,12.7,38.5z"/>
	<path class="st3" d="M12.7,51.4c0-1.4,0-2.9,0-4.3c1.4,0,2.8,0,4.2,0c0.1,0,0.1,0,0.1,0.1c0,1.4,0,2.8,0,4.2
		C15.6,51.4,14.2,51.4,12.7,51.4L12.7,51.4z"/>
	<path class="st2" d="M12.7,51.4c1.4,0,2.8,0,4.3,0c0,1.4,0,2.8,0,4.2c0,0.1,0,0.1-0.1,0.1c-1.3,0-2.7,0-4,0c-0.2,0-0.1-0.1-0.1-0.2
		c0-1.3,0-2.7,0-4C12.7,51.5,12.7,51.5,12.7,51.4z"/>
	<path d="M51.5,17c0,1.4,0,2.9,0,4.3c-1.4,0-2.9,0-4.3,0c-1.4,0-2.9,0-4.3,0c-1.4,0-2.9,0-4.3,0c-0.1,0-0.2,0-0.2,0
		c-1.3,0-2.7,0-4,0c0-1.4,0-2.7,0-4.1c0-0.2,0-0.2-0.2-0.2c-2.7,0-5.5,0-8.2,0c-0.2,0-0.2,0-0.2,0.2c0,1.4,0,2.7,0,4.1
		c-0.2,0-0.4,0-0.6,0c-1.2,0-2.5,0-3.7,0c-1.4,0-2.9,0-4.3,0c-1.4,0-2.8,0-4.3,0c-1.4,0-2.9,0-4.3,0c0-1.4,0-2.9,0-4.3l0,0
		c0.2,0,0.3,0,0.5,0c1.3,0,2.5,0,3.8,0c1.4,0,2.8,0,4.3,0c1.4,0,2.8,0,4.2,0c0.1,0,0.1,0,0.1-0.1c0-1.4,0-2.8,0-4.2
		c0-0.1,0-0.2,0-0.2c0-1.4,0-2.7,0-4.1l0,0c1.4,0,2.8,0,4.2,0c0.1,0,0.2,0.1,0.2,0.2c0,1.3,0,2.6,0,3.9c0,0.2,0,0.2,0.2,0.2
		c2.7,0,5.5,0,8.2,0c0.2,0,0.2,0,0.2-0.2c0-1.3,0-2.6,0-3.9c0-0.2,0-0.2,0.2-0.2c1.4,0,2.7,0,4.1,0l0,0c0,0.2,0,0.4,0,0.6
		c0,1.2,0,2.5,0,3.7c0,1.4,0,2.8,0,4.2c0,0.1,0,0.1,0.1,0.1c1.4,0,2.8,0,4.2,0c1.4,0,2.9,0,4.3,0c0.1,0,0.1,0,0.2,0
		C48.7,17,50.1,17,51.5,17L51.5,17z"/>
	<path d="M38.5,8.4c0-1.4,0-2.8,0-4.1c0-0.1,0-0.2,0.2-0.2c1.4,0,2.8,0,4.2,0l0,0c0,1.4,0,2.9,0,4.3C41.4,8.4,40,8.4,38.5,8.4
		L38.5,8.4z"/>
	<path d="M17,4.1c1.4,0,2.8,0,4.2,0c0.1,0,0.2,0,0.2,0.2c0,1.4,0,2.8,0,4.1l0,0c-1.4,0-2.9,0-4.3,0C17,7,17,5.5,17,4.1L17,4.1z"/>
	<path d="M55.7,17c-1.4,0-2.9,0-4.3,0l0,0c0-0.2,0-0.3,0-0.5c0-1.3,0-2.5,0-3.8c0-0.1,0-0.2,0-0.2c0-1.4,0-2.7,0-4.1l0,0
		c1.4,0,2.7,0,4.1,0c0.2,0,0.2,0,0.2,0.2c0,2.7,0,5.5,0,8.2C55.7,16.9,55.7,16.9,55.7,17z"/>
	<path d="M47.1,4.1c1.4,0,2.8,0,4.2,0c0.1,0,0.2,0,0.2,0.2c0,1.4,0,2.8,0,4.1l0,0c-1.4,0-2.9,0-4.3,0C47.1,7,47.1,5.5,47.1,4.1
		L47.1,4.1z"/>
	<path d="M8.4,17c-1.4,0-2.9,0-4.3,0c0-2.8,0-5.6,0-8.4c0-0.2,0-0.2,0.2-0.2c1.4,0,2.7,0,4.1,0l0,0c0,0.2,0,0.4,0,0.6
		c0,1.2,0,2.5,0,3.7c0,0.1,0,0.1,0,0.2C8.4,14.3,8.4,15.6,8.4,17L8.4,17z"/>
	<path d="M8.4,8.4c0-1.4,0-2.8,0-4.1c0-0.1,0-0.2,0.2-0.2c1.4,0,2.8,0,4.2,0l0,0c0,1.4,0,2.9,0,4.3C11.3,8.4,9.9,8.4,8.4,8.4
		L8.4,8.4z"/>
	<path class="st4" d="M47.1,4.1c0,1.4,0,2.9,0,4.3l0,0c-1.4,0-2.9,0-4.3,0l0,0c0-1.4,0-2.9,0-4.3C44.3,4.1,45.7,4.1,47.1,4.1z"/>
	<path class="st4" d="M12.7,8.4c0-1.4,0-2.9,0-4.3c1.4,0,2.9,0,4.3,0c0,1.4,0,2.9,0,4.3l0,0C15.6,8.4,14.2,8.4,12.7,8.4L12.7,8.4z"
		/>
	<path class="st1" d="M34.3,38.5c0,1.4,0,2.7,0,4.1c0,0.2,0,0.2-0.2,0.2c-2.7,0-5.5,0-8.2,0c-0.2,0-0.2,0-0.2-0.2c0-1.4,0-2.7,0-4.1
		l0,0C28.5,38.5,31.4,38.5,34.3,38.5L34.3,38.5z"/>
	<path class="st1" d="M25.6,38.5c-1.4,0-2.7,0-4.1,0c-0.2,0-0.2,0-0.2-0.2c0-1.4,0-2.7,0-4.1l0,0c1.4,0,2.9,0,4.3,0
		C25.6,35.7,25.6,37.1,25.6,38.5L25.6,38.5z"/>
	<path class="st4" d="M47.1,29.9c0,1.4,0,2.9,0,4.3c-1.4,0-2.9,0-4.3,0c0-1.4,0-2.9,0-4.3C44.3,29.9,45.7,29.9,47.1,29.9L47.1,29.9z
		"/>
	<path class="st1" d="M42.8,29.9c0,1.4,0,2.9,0,4.3c-1.4,0-2.9,0-4.3,0l0,0c0-1.4,0-2.9,0-4.3C40,29.9,41.4,29.9,42.8,29.9
		L42.8,29.9z"/>
	<path class="st1" d="M21.3,34.2c-1.4,0-2.9,0-4.3,0c0-1.4,0-2.9,0-4.3c1.4,0,2.9,0,4.3,0C21.3,31.3,21.3,32.8,21.3,34.2L21.3,34.2z
		"/>
	<path class="st4" d="M17,29.9c0,1.4,0,2.9,0,4.3c-1.4,0-2.8,0-4.3,0c0-1.4,0-2.9,0-4.3l0,0C14.2,29.9,15.6,29.9,17,29.9L17,29.9z"
		/>
	<path class="st1" d="M38.5,34.2c0,1.4,0,2.7,0,4.1c0,0.2,0,0.2-0.2,0.2c-1.4,0-2.7,0-4.1,0l0,0c0-1.4,0-2.9,0-4.3
		C35.7,34.2,37.1,34.2,38.5,34.2L38.5,34.2z"/>
	<path class="st4" d="M12.7,29.9c-1.4,0-2.9,0-4.3,0c0-1.4,0-2.9,0-4.3c1.4,0,2.9,0,4.3,0c0,0,0,0,0,0C12.7,27,12.7,28.5,12.7,29.9
		L12.7,29.9z"/>
	<path class="st0" d="M12.7,25.6c-1.4,0-2.9,0-4.3,0c0-1.4,0-2.8,0-4.3c1.4,0,2.9,0,4.3,0C12.7,22.7,12.7,24.2,12.7,25.6z"/>
	<path class="st4" d="M51.5,29.9c-1.4,0-2.9,0-4.3,0l0,0c0-1.4,0-2.9,0-4.3l0,0c1.4,0,2.9,0,4.3,0C51.5,27,51.5,28.5,51.5,29.9z"/>
	<path class="st0" d="M51.5,25.6c-1.4,0-2.9,0-4.3,0c0-1.4,0-2.8,0-4.3c1.4,0,2.9,0,4.3,0C51.5,22.7,51.5,24.2,51.5,25.6z"/>
	<path class="st4" d="M25.6,21.3c0-1.4,0-2.7,0-4.1c0-0.2,0-0.2,0.2-0.2c2.7,0,5.5,0,8.2,0c0.2,0,0.2,0,0.2,0.2c0,1.4,0,2.7,0,4.1
		l0,0c-0.1,0-0.1,0-0.2,0c-2.8,0-5.5,0-8.3,0C25.8,21.3,25.7,21.3,25.6,21.3L25.6,21.3z"/>
	<path class="st0" d="M8.4,17c0-1.4,0-2.7,0-4.1c0-0.1,0-0.1,0-0.2c1.4,0,2.9,0,4.3,0c0,1.4,0,2.9,0,4.3c-1.3,0-2.5,0-3.8,0
		C8.7,17,8.6,17,8.4,17z"/>
	<path class="st3" d="M21.3,12.7c0,1.4,0,2.8,0,4.2c0,0.1,0,0.1-0.1,0.1c-1.4,0-2.8,0-4.2,0c0-0.4,0-0.9,0-1.3c0-1,0-2,0-3
		C18.4,12.7,19.9,12.7,21.3,12.7z"/>
	<path class="st3" d="M42.8,17c-1.4,0-2.8,0-4.2,0c-0.1,0-0.1,0-0.1-0.1c0-1.4,0-2.8,0-4.2c0.4,0,0.9,0,1.3,0c1,0,2,0,2.9,0
		C42.8,14.1,42.8,15.6,42.8,17z"/>
	<path class="st4" d="M42.8,17c0-1.4,0-2.9,0-4.3l0,0c1.4,0,2.9,0,4.3,0l0,0c0,1.4,0,2.9,0,4.3C45.7,17,44.3,17,42.8,17z"/>
	<path class="st0" d="M47.1,17c0-1.4,0-2.9,0-4.3c1.4,0,2.9,0,4.3,0c0,1.3,0,2.5,0,3.8c0,0.2,0,0.3,0,0.5c-1.4,0-2.7,0-4.1,0
		C47.3,17,47.2,17,47.1,17z"/>
	<path class="st4" d="M42.8,12.7c-1,0-2,0-2.9,0c-0.4,0-0.9,0-1.3,0c0-1.2,0-2.5,0-3.7c0-0.2,0-0.4,0-0.6c1.4,0,2.9,0,4.3,0l0,0
		C42.8,9.8,42.8,11.3,42.8,12.7L42.8,12.7z"/>
	<path class="st4" d="M21.3,12.7c-1.4,0-2.9,0-4.3,0l0,0c0-1.4,0-2.9,0-4.3l0,0c1.4,0,2.9,0,4.3,0c0,1.4,0,2.7,0,4.1
		C21.3,12.5,21.3,12.6,21.3,12.7z"/>
	<path class="st4" d="M47.1,21.3c0,1.4,0,2.8,0,4.3l0,0c-1.4,0-2.9,0-4.3,0c0-1.4,0-2.8,0-4.3C44.3,21.3,45.7,21.3,47.1,21.3z"/>
	<path class="st4" d="M21.3,21.3c1.2,0,2.5,0,3.7,0c0.2,0,0.4,0,0.6,0l0,0c0,0.1,0,0.2,0,0.3c0,1.3,0,2.7,0,4c-1.4,0-2.9,0-4.3,0
		l0,0C21.3,24.2,21.3,22.7,21.3,21.3z"/>
	<path class="st1" d="M21.3,21.3c0,1.4,0,2.8,0,4.3c-1.4,0-2.9,0-4.3,0c0-1.4,0-2.8,0-4.3C18.4,21.3,19.9,21.3,21.3,21.3z"/>
	<path class="st4" d="M17,12.7c0,1,0,2,0,3c0,0.4,0,0.9,0,1.3c-1.4,0-2.8,0-4.3,0c0-1.4,0-2.9,0-4.3l0,0
		C14.2,12.7,15.6,12.7,17,12.7L17,12.7z"/>
	<path class="st1" d="M42.8,21.3c0,1.4,0,2.8,0,4.3l0,0c-1.4,0-2.9,0-4.3,0c0-1.4,0-2.8,0-4.3C40,21.3,41.4,21.3,42.8,21.3z"/>
	<path class="st4" d="M38.5,21.3c0,1.4,0,2.8,0,4.3c0,0,0,0,0,0c-1.4,0-2.8,0-4.3,0c0-0.4,0-0.8,0-1.2c0-1,0-2.1,0-3.1l0,0
		c1.3,0,2.7,0,4,0C38.4,21.3,38.4,21.3,38.5,21.3z"/>
	<path class="st4" d="M17,21.3c0,1.4,0,2.8,0,4.3l0,0c-1.4,0-2.9,0-4.3,0l0,0c0-1.4,0-2.8,0-4.3C14.2,21.3,15.6,21.3,17,21.3z"/>
	<path class="st4" d="M51.5,12.7c-1.4,0-2.9,0-4.3,0l0,0c0-1.4,0-2.9,0-4.3l0,0c1.4,0,2.9,0,4.3,0c0,1.4,0,2.7,0,4.1
		C51.5,12.5,51.5,12.6,51.5,12.7z"/>
	<path class="st4" d="M12.7,12.7c-1.4,0-2.9,0-4.3,0c0-1.2,0-2.5,0-3.7c0-0.2,0-0.4,0-0.6c1.4,0,2.9,0,4.3,0l0,0
		C12.7,9.8,12.7,11.3,12.7,12.7L12.7,12.7z"/>
	<path d="M47.1,8.4c0,1.4,0,2.9,0,4.3c-1.4,0-2.9,0-4.3,0c0-1.4,0-2.9,0-4.3C44.3,8.4,45.7,8.4,47.1,8.4z"/>
	<path d="M12.7,12.7c0-1.4,0-2.9,0-4.3c1.4,0,2.9,0,4.3,0c0,1.4,0,2.9,0,4.3C15.6,12.7,14.2,12.7,12.7,12.7z"/>
	<path class="st4" d="M34.3,34.2c0,1.4,0,2.9,0,4.3c-2.9,0-5.7,0-8.6,0c0-1.4,0-2.9,0-4.3l0,0c0.1,0,0.2,0,0.3,0c2.4,0,4.9,0,7.3,0
		C33.5,34.2,33.9,34.2,34.3,34.2L34.3,34.2z"/>
	<path class="st4" d="M21.3,34.2c0-1.4,0-2.9,0-4.3l0,0c1.4,0,2.9,0,4.3,0c0,1.4,0,2.9,0,4.3l0,0C24.2,34.2,22.8,34.2,21.3,34.2z"/>
	<path class="st1" d="M42.8,25.6c1.4,0,2.9,0,4.3,0c0,1.4,0,2.9,0,4.3c-1.4,0-2.9,0-4.3,0l0,0C42.8,28.5,42.8,27,42.8,25.6
		L42.8,25.6z"/>
	<path class="st4" d="M42.8,25.6c0,1.4,0,2.9,0,4.3c-1.4,0-2.9,0-4.3,0l0,0c0-1.4,0-2.9,0-4.3l0,0C40,25.6,41.4,25.6,42.8,25.6z"/>
	<path class="st4" d="M38.5,34.2c-1.4,0-2.8,0-4.3,0l0,0c0-1.4,0-2.9,0-4.3c1.4,0,2.8,0,4.3,0l0,0C38.5,31.3,38.5,32.8,38.5,34.2z"
		/>
	<path class="st4" d="M17,25.6c1.4,0,2.9,0,4.3,0c0,0,0,0,0,0c0,1.4,0,2.9,0,4.3l0,0c-1.4,0-2.9,0-4.3,0l0,0C17,28.5,17,27,17,25.6
		L17,25.6z"/>
	<path class="st1" d="M17,25.6c0,1.4,0,2.9,0,4.3c-1.4,0-2.9,0-4.3,0c0-1.4,0-2.9,0-4.3C14.2,25.6,15.6,25.6,17,25.6z"/>
	<path class="st3" d="M34.2,21.3c0,1,0,2.1,0,3.1c0,0.4,0,0.8,0,1.2l0,0c-2.9,0-5.7,0-8.6,0l0,0c0-1.3,0-2.7,0-4c0-0.1,0-0.2,0-0.3
		c0.1,0,0.1,0,0.2,0c2.8,0,5.5,0,8.3,0C34.1,21.3,34.2,21.3,34.2,21.3z"/>
	<path class="st3" d="M21.3,29.9c0-1.4,0-2.9,0-4.3c1.4,0,2.9,0,4.3,0l0,0c0,1.4,0,2.9,0,4.3l0,0C24.2,29.9,22.8,29.9,21.3,29.9z"/>
	<path class="st3" d="M38.5,29.9c-1.4,0-2.8,0-4.3,0l0,0c0-1.4,0-2.9,0-4.3l0,0c1.4,0,2.8,0,4.3,0C38.5,27,38.5,28.5,38.5,29.9z"/>
	<path class="st3" d="M34.3,29.9c0,1.4,0,2.9,0,4.3c-0.4,0-0.7,0-1.1,0c-2.4,0-4.9,0-7.3,0c-0.1,0-0.2,0-0.3,0c0-1.4,0-2.9,0-4.3
		l0,0C28.5,29.9,31.4,29.9,34.3,29.9L34.3,29.9z"/>
	<ellipse cx="29.9" cy="27.7" rx="6.1" ry="3"/>
</g>
</svg>
