<svg width="32" height="32" viewBox="0 0 32 32" fill="none" xmlns="http://www.w3.org/2000/svg">
<mask id="mask0_109_2839" style="mask-type:luminance" maskUnits="userSpaceOnUse" x="0" y="0" width="32" height="32">
<path d="M0 32H32V0H0V32Z" fill="white"/>
</mask>
<g mask="url(#mask0_109_2839)">
<g filter="url(#filter0_d_109_2839)">
<path d="M30 31.5H2M30 30.5H2M32 29.5H27M25 29.5H23M21 29.5H18M14 29.5H11M9 29.5H7M5 29.5H0M32 28.5H27M25 28.5H23M21 28.5H18M14 28.5H11M9 28.5H7M5 28.5H0M32 27.5H27M25 27.5H23M21 27.5H18M14 27.5H11M9 27.5H7M5 27.5H0M32 26.5H30M2 26.5H0M32 25.5H30M2 25.5H0M32 24.5H30M25 24.5H23M21 24.5H18M14 24.5H11M9 24.5H7M2 24.5H0M32 23.5H30M25 23.5H23M21 23.5H18M14 23.5H11M9 23.5H7M2 23.5H0M32 22.5H30M25 22.5H21M18 22.5H14M11 22.5H7M2 22.5H0M32 21.5H30M25 21.5H21M18 21.5H14M11 21.5H7M2 21.5H0M32 20.5H27M18 20.5H14M5 20.5H0M32 19.5H27M18 19.5H14M5 19.5H0M32 18.5H27M18 18.5H14M5 18.5H0M32 17.5H30M27 17.5H25M18 17.5H14M7 17.5H5M2 17.5H0M32 16.5H30M27 16.5H25M18 16.5H14M7 16.5H5M2 16.5H0M32 15.5H30M25 15.5H21M11 15.5H7M2 15.5H0M32 14.5H30M25 14.5H21M11 14.5H7M2 14.5H0M32 13.5H30M21 13.5H18M14 13.5H11M2 13.5H0M32 12.5H30M21 12.5H18M14 12.5H11M2 12.5H0M32 11.5H30M21 11.5H18M14 11.5H11M2 11.5H0M32 10.5H30M25 10.5H23M9 10.5H7M2 10.5H0M32 9.5H30M25 9.5H23M9 9.5H7M2 9.5H0M32 8.5H30M27 8.5H25M7 8.5H5M2 8.5H0M32 7.5H30M27 7.5H25M7 7.5H5M2 7.5H0M32 6.5H30M2 6.5H0M32 5.5H30M2 5.5H0M32 4.5H30M2 4.5H0M32 3.5H30M2 3.5H0M32 2.5H30M2 2.5H0M32 1.5H0M32 0.5H0" stroke="#00031A"/>
<path d="M27 29.5H25M23 29.5H21M18 29.5H14M11 29.5H9M7 29.5H5M27 28.5H25M23 28.5H21M18 28.5H14M11 28.5H9M7 28.5H5M27 27.5H25M23 27.5H21M18 27.5H14M11 27.5H9M7 27.5H5M30 26.5H25M23 26.5H21M18 26.5H14M11 26.5H9M7 26.5H2M30 25.5H25M23 25.5H21M18 25.5H14M11 25.5H9M7 25.5H2M30 24.5H25M7 24.5H2M30 23.5H25M7 23.5H2M27 22.5H25M21 22.5H18M14 22.5H11M7 22.5H5M27 21.5H25M21 21.5H18M14 21.5H11M7 21.5H5M25 20.5H18M14 20.5H7M25 19.5H18M14 19.5H7M25 18.5H18M14 18.5H7M30 17.5H27M21 17.5H18M14 17.5H11M5 17.5H2M30 16.5H27M21 16.5H18M14 16.5H11M5 16.5H2M30 15.5H25M18 15.5H14M7 15.5H2M30 14.5H25M18 14.5H14M7 14.5H2M30 13.5H25M23 13.5H21M18 13.5H14M11 13.5H9M7 13.5H2M30 12.5H25M23 12.5H21M18 12.5H14M11 12.5H9M7 12.5H2M30 11.5H25M23 11.5H21M18 11.5H14M11 11.5H9M7 11.5H2M30 10.5H27M23 10.5H9M5 10.5H2M30 9.5H27M23 9.5H9M5 9.5H2M30 8.5H27M25 8.5H7M5 8.5H2M30 7.5H27M25 7.5H7M5 7.5H2M30 6.5H2M30 5.5H2" stroke="#808EFF"/>
<path d="M25 26.5H23M21 26.5H18M14 26.5H11M9 26.5H7M25 25.5H23M21 25.5H18M14 25.5H11M9 25.5H7M23 24.5H21M18 24.5H14M11 24.5H9M23 23.5H21M18 23.5H14M11 23.5H9M30 22.5H27M5 22.5H2M30 21.5H27M5 21.5H2M27 20.5H25M7 20.5H5M27 19.5H25M7 19.5H5M27 18.5H25M7 18.5H5M25 17.5H21M11 17.5H7M25 16.5H21M11 16.5H7M21 15.5H18M14 15.5H11M21 14.5H18M14 14.5H11M25 13.5H23M9 13.5H7M25 12.5H23M9 12.5H7M25 11.5H23M9 11.5H7M27 10.5H25M7 10.5H5M27 9.5H25M7 9.5H5M30 4.5H2M30 3.5H2M30 2.5H2" stroke="#001BE6"/>
</g>
</g>
<defs>
<filter id="filter0_d_109_2839" x="-4" y="0" width="40" height="40" filterUnits="userSpaceOnUse" color-interpolation-filters="sRGB">
<feFlood flood-opacity="0" result="BackgroundImageFix"/>
<feColorMatrix in="SourceAlpha" type="matrix" values="0 0 0 0 0 0 0 0 0 0 0 0 0 0 0 0 0 0 127 0" result="hardAlpha"/>
<feOffset dy="4"/>
<feGaussianBlur stdDeviation="2"/>
<feComposite in2="hardAlpha" operator="out"/>
<feColorMatrix type="matrix" values="0 0 0 0 0 0 0 0 0 0 0 0 0 0 0 0 0 0 0.25 0"/>
<feBlend mode="normal" in2="BackgroundImageFix" result="effect1_dropShadow_109_2839"/>
<feBlend mode="normal" in="SourceGraphic" in2="effect1_dropShadow_109_2839" result="shape"/>
</filter>
</defs>
</svg>
