<svg xmlns="http://www.w3.org/2000/svg" viewBox="0 -0.5 32 32" shape-rendering="crispEdges">
<metadata>Made with Pixels to Svg https://codepen.io/shshaw/pen/XbxvNj</metadata>
<path stroke="#1a0005" d="M0 0h32M0 1h32M0 2h32M0 3h3M5 3h6M13 3h6M21 3h6M29 3h3M0 4h3M5 4h6M13 4h6M21 4h6M29 4h3M0 5h3M29 5h3M0 6h3M29 6h3M0 7h3M29 7h3M0 8h3M11 8h2M19 8h2M29 8h3M0 9h3M11 9h2M19 9h2M29 9h3M0 10h3M11 10h2M19 10h2M29 10h3M0 11h3M5 11h3M24 11h3M29 11h3M0 12h3M5 12h3M24 12h3M29 12h3M0 13h3M5 13h3M13 13h6M24 13h3M29 13h3M0 14h3M5 14h3M13 14h6M24 14h3M29 14h3M0 15h3M5 15h3M13 15h6M24 15h3M29 15h3M0 16h5M27 16h5M0 17h5M27 17h5M0 18h5M27 18h5M0 19h3M5 19h3M11 19h2M19 19h2M24 19h3M29 19h3M0 20h3M5 20h3M11 20h2M19 20h2M24 20h3M29 20h3M0 21h5M27 21h5M0 22h5M27 22h5M0 23h5M27 23h5M0 24h3M8 24h5M19 24h5M29 24h3M0 25h3M8 25h5M19 25h5M29 25h3M0 26h3M8 26h5M19 26h5M29 26h3M0 27h3M5 27h8M19 27h8M29 27h3M0 28h3M5 28h8M19 28h8M29 28h3M0 29h8M11 29h10M24 29h8M0 30h8M11 30h10M24 30h8M0 31h8M11 31h10M24 31h8" />
<path stroke="#e6002a" d="M3 3h2M11 3h2M19 3h2M27 3h2M3 4h2M11 4h2M19 4h2M27 4h2M5 5h6M13 5h6M21 5h6M5 6h6M13 6h6M21 6h6M5 7h6M13 7h6M21 7h6M11 11h2M19 11h2M11 12h2M19 12h2M5 16h3M13 16h6M24 16h3M5 17h3M13 17h6M24 17h3M5 18h3M13 18h6M24 18h3M3 19h2M27 19h2M3 20h2M27 20h2M5 21h3M11 21h2M19 21h2M24 21h3M5 22h3M11 22h2M19 22h2M24 22h3M5 23h3M11 23h2M19 23h2M24 23h3M3 24h2M27 24h2M3 25h2M27 25h2M3 26h2M27 26h2" />
<path stroke="#ff8097" d="M3 5h2M11 5h2M19 5h2M27 5h2M3 6h2M11 6h2M19 6h2M27 6h2M3 7h2M11 7h2M19 7h2M27 7h2M3 8h8M13 8h6M21 8h8M3 9h8M13 9h6M21 9h8M3 10h8M13 10h6M21 10h8M3 11h2M8 11h3M13 11h6M21 11h3M27 11h2M3 12h2M8 12h3M13 12h6M21 12h3M27 12h2M3 13h2M8 13h5M19 13h5M27 13h2M3 14h2M8 14h5M19 14h5M27 14h2M3 15h2M8 15h5M19 15h5M27 15h2M8 16h5M19 16h5M8 17h5M19 17h5M8 18h5M19 18h5M8 19h3M13 19h6M21 19h3M8 20h3M13 20h6M21 20h3M8 21h3M13 21h6M21 21h3M8 22h3M13 22h6M21 22h3M8 23h3M13 23h6M21 23h3M5 24h3M13 24h6M24 24h3M5 25h3M13 25h6M24 25h3M5 26h3M13 26h6M24 26h3M3 27h2M13 27h6M27 27h2M3 28h2M13 28h6M27 28h2" />
</svg>