<?xml version="1.0" encoding="utf-8"?>
<!-- Generator: Adobe Illustrator 25.4.0, SVG Export Plug-In . SVG Version: 6.00 Build 0)  -->
<svg version="1.1" id="Layer_1" xmlns="http://www.w3.org/2000/svg" xmlns:xlink="http://www.w3.org/1999/xlink" x="0px" y="0px"
	 viewBox="0 0 60 60" style="enable-background:new 0 0 60 60;" xml:space="preserve">
<style type="text/css">
	.st0{fill:#000001;}
	.st1{fill:#0158F6;}
	.st2{fill:#FE9F06;}
	.st3{fill:#B8C2FD;}
	.st4{fill:#37FDE0;}
	.st5{fill:#FED30C;}
</style>
<g>
	<path class="st0" d="M0,16.8c0-1.5,0-2.9,0-4.4c1.4,0,2.8,0,4.1,0c0.2,0,0.2,0,0.2-0.2c0-1.3,0-2.6,0-3.9c0-0.2,0-0.2-0.2-0.2
		c-1.4,0-2.7,0-4.1,0c0-2.7,0-5.3,0-8C0,0,0,0,0.2,0C3,0,5.8,0,8.6,0c0,1.2,0,2.4,0,3.7c0,0.1,0,0.2,0.2,0.2c1.4,0,2.7,0,4.1,0
		c0,0,0,0,0,0c0,0.1,0,0.2,0,0.3c0,1.3,0,2.7,0,4c-1.4,0-2.9,0-4.3,0c0-1.4,0-2.7,0-4.1c0-0.2,0-0.2-0.2-0.2c-1.3,0-2.6,0-3.9,0
		c-0.1,0-0.2,0-0.2,0.2c0,1.3,0,2.6,0,3.9c0,0.2,0.1,0.2,0.2,0.2c1.4,0,2.7,0,4.1,0c0,1.4,0,2.9,0,4.3c-1.3,0-2.7,0-4,0
		c-0.2,0-0.3,0.1-0.3,0.3c0,1.4,0,2.7,0,4.1C2.9,16.9,1.5,16.9,0,16.8C0,16.9,0,16.8,0,16.8z"/>
	<path class="st0" d="M51.6,0c2.7,0,5.5,0,8.2,0C60,0,60,0,60,0.2c0,2.7,0,5.3,0,8c-1.3,0-2.6,0-3.9,0c-0.2,0-0.2,0-0.2,0.2
		c0,1.3,0,2.6,0,3.9c0,0.2,0,0.2,0.2,0.2c1.3,0,2.6,0,3.9,0c0,1.5,0,2.9,0,4.4c-1.4,0-2.7,0-4.1,0c0-1.4,0-2.8,0-4.1
		c0-0.2,0-0.2-0.2-0.2c-1.4,0-2.7,0-4.1,0c0-1.4,0-2.9,0-4.3c1.4,0,2.7,0,4.1,0c0.2,0,0.2,0,0.2-0.2c0-1.3,0-2.6,0-3.9
		c0-0.1,0-0.2-0.2-0.2c-1.3,0-2.6,0-3.9,0c-0.2,0-0.2,0.1-0.2,0.2c0,1.4,0,2.7,0,4.1c-1.4,0-2.9,0-4.3,0c0-1.3,0-2.7,0-4
		c0-0.1,0-0.2,0-0.3c0,0,0,0,0,0c1.4,0,2.7,0,4.1,0c0.2,0,0.2-0.1,0.2-0.2C51.6,2.4,51.6,1.2,51.6,0z"/>
	<path class="st0" d="M12.9,51.5c0,1.4,0,2.7,0,4.1c0,0.2,0,0.2-0.2,0.2c-1.3,0-2.6,0-3.9,0c-0.2,0-0.2,0-0.2,0.2c0,1.3,0,2.7,0,4
		c-1.4,0-2.9,0-4.3,0c0-1.3,0-2.7,0-4c0-0.2,0-0.2-0.2-0.2c-1.4,0-2.7,0-4.1,0c0-2.9,0-5.8,0-8.6c1.4,0,2.9,0,4.3,0
		c0,0.4,0,0.8,0,1.1c0,1,0,2.1,0,3.1c0,0.1,0.1,0.1,0.2,0.1c1.3,0,2.6,0,3.9,0c0.1,0,0.1,0,0.2,0c0.1,0,0.1,0,0.2,0
		c1.3,0,2.6,0,3.9,0C12.8,51.5,12.8,51.5,12.9,51.5C12.9,51.5,12.9,51.5,12.9,51.5z M6.5,51.5C6.5,51.5,6.5,51.5,6.5,51.5
		c-0.7,0-1.3,0-2,0c-0.1,0-0.2,0-0.2,0.2c0,1.3,0,2.6,0,3.9c0,0.1,0.1,0.2,0.2,0.2c1.3,0,2.6,0,3.9,0c0.1,0,0.2,0,0.2-0.2
		c0-1.3,0-2.6,0-3.9c0-0.2-0.1-0.2-0.2-0.2C7.7,51.5,7.1,51.5,6.5,51.5z"/>
	<path class="st0" d="M51.6,60c0-1.3,0-2.7,0-4c0-0.2,0-0.2-0.2-0.2c-1.3,0-2.6,0-3.9,0c-0.2,0-0.2,0-0.2-0.2c0-1.4,0-2.7,0-4.1
		c0,0,0,0,0,0c0.1,0,0.1,0,0.2,0c1.3,0,2.6,0,3.9,0c0.1,0,0.1,0,0.2,0c0,0,0.1,0,0.1,0c1.3,0,2.7,0,4,0c0,0,0.1,0,0.1-0.1
		c0-1.4,0-2.8,0-4.3c1.4,0,2.7,0,4.1,0c0,2.9,0,5.8,0,8.6c-1.3,0-2.6,0-3.9,0c-0.2,0-0.2,0-0.2,0.2c0,1.3,0,2.7,0,4
		C54.5,60,53,60,51.6,60z M53.7,51.5c-0.7,0-1.3,0-2,0c-0.1,0-0.2,0-0.2,0.2c0,1.3,0,2.6,0,3.9c0,0.1,0,0.2,0.2,0.2
		c1.3,0,2.6,0,3.9,0c0.1,0,0.2,0,0.2-0.2c0-1.3,0-2.6,0-3.9c0-0.2-0.1-0.2-0.2-0.2C55,51.5,54.4,51.5,53.7,51.5z"/>
	<path class="st0" d="M0,25.5c0-1.5,0-2.9,0-4.4c0,0,0,0,0,0c1.4,0,2.9,0,4.3,0c0,1.4,0,2.8,0,4.1c0,0.2,0.1,0.2,0.2,0.2
		c1.4,0,2.7,0,4.1,0c0,1.4,0,2.9,0,4.3c-1.3,0-2.7,0-4,0c-0.1,0-0.2,0-0.2,0c0,0,0,0,0,0c0-1.4,0-2.8,0-4.1c0-0.2-0.1-0.2-0.2-0.2
		C2.8,25.5,1.4,25.5,0,25.5z"/>
	<path class="st0" d="M60,21.2c0,1.5,0,2.9,0,4.4c-1.3,0-2.6,0-3.9,0c-0.1,0-0.2,0-0.2,0.2c0,1.4,0,2.8,0,4.1c0,0,0,0,0,0
		c-0.1,0-0.2,0-0.3,0c-1.3,0-2.7,0-4,0c0-1.4,0-2.9,0-4.3c1.3,0,2.7,0,4,0c0.3,0,0.3,0,0.3-0.3c0-1.4,0-2.7,0-4.1
		C57.3,21.2,58.6,21.2,60,21.2z"/>
	<path class="st0" d="M4.3,42.8c-1.4,0-2.9,0-4.3,0c0,0,0,0,0,0c0-1.4,0-2.9,0-4.3c1.4,0,2.9,0,4.3,0l0,0
		C4.3,39.9,4.3,41.4,4.3,42.8L4.3,42.8z"/>
	<path class="st0" d="M4.3,34.2c-1.4,0-2.9,0-4.3,0c0-1.4,0-2.9,0-4.3c1.4,0,2.9,0,4.3,0c0,0,0,0,0,0c0,0.1,0,0.2,0,0.3
		C4.3,31.5,4.3,32.8,4.3,34.2z"/>
	<path class="st0" d="M60,34.2c-1.4,0-2.7,0-4.1,0c0-1.3,0-2.7,0-4c0-0.1,0-0.2,0-0.3c0,0,0,0,0,0c1.4,0,2.7,0,4.1,0
		C60,31.3,60,32.7,60,34.2z"/>
	<path class="st0" d="M60,42.8c-1.4,0-2.7,0-4.1,0l0,0c0-1.4,0-2.9,0-4.3l0,0c1.4,0,2.7,0,4.1,0C60,39.9,60,41.4,60,42.8z"/>
	<path class="st0" d="M43,3.9c0-1.3,0-2.6,0-3.9c1.4,0,2.9,0,4.3,0c0,1.3,0,2.6,0,3.9c0,0,0,0,0,0c-0.1,0-0.2,0-0.2,0
		C45.7,3.9,44.3,3.9,43,3.9z"/>
	<path class="st0" d="M17.2,0c0,1.3,0,2.6,0,3.9c-1.4,0-2.7,0-4.1,0c-0.1,0-0.2,0-0.2,0c0,0,0,0,0,0c0-1.3,0-2.6,0-3.9
		C14.3,0,15.8,0,17.2,0z"/>
	<path class="st0" d="M43,51.5c0,1.4,0,2.7,0,4.1c0,0.2,0,0.2-0.2,0.2c-8.5,0-16.9,0-25.4,0c-0.2,0-0.2,0-0.2-0.2c0-1.4,0-2.7,0-4.1
		l0,0c1.3,0,2.6,0,4,0c0.1,0,0.2,0,0.3,0c0.1,0,0.2,0,0.2,0c5.5,0,11,0,16.5,0c0.1,0,0.3,0,0.4,0c0.1,0,0.1,0,0.2,0
		C40.3,51.5,41.6,51.5,43,51.5L43,51.5z"/>
	<path class="st0" d="M17.2,51.5c-1.4,0-2.9,0-4.3,0c0,0,0,0,0,0c0-0.1,0-0.2,0-0.3c0-1.3,0-2.7,0-4c1.3,0,2.7,0,4,0
		c0.1,0,0.2,0,0.3,0c0,0,0,0.1,0,0.1C17.2,48.7,17.2,50.1,17.2,51.5L17.2,51.5z"/>
	<path class="st0" d="M47.3,51.5c-1.4,0-2.9,0-4.3,0l0,0c0-0.5,0-1,0-1.5c0-0.9,0-1.9,0-2.8c0.1,0,0.2,0,0.2,0c1.4,0,2.7,0,4.1,0
		c0,1.3,0,2.7,0,4C47.3,51.3,47.3,51.4,47.3,51.5C47.3,51.5,47.3,51.5,47.3,51.5z"/>
	<path class="st1" d="M12.9,3.9c0.1,0,0.2,0,0.2,0c1.4,0,2.7,0,4.1,0l0,0c0,1.4,0,2.9,0,4.3c-1.4,0-2.9,0-4.3,0l0,0c0-1.3,0-2.7,0-4
		C12.9,4.1,12.9,4,12.9,3.9z"/>
	<path class="st1" d="M4.3,16.9c0-1.4,0-2.7,0-4.1c0-0.2,0.1-0.3,0.3-0.3c1.3,0,2.7,0,4,0l0,0c0,1.4,0,2.8,0,4.2
		c0,0.2,0,0.2-0.2,0.2C7.1,16.8,5.7,16.9,4.3,16.9L4.3,16.9z"/>
	<path class="st1" d="M8.6,8.2c1.4,0,2.9,0,4.3,0l0,0c0,1.3,0,2.6,0,3.9c0,0.1,0,0.2,0,0.3c-0.1,0-0.1,0-0.2,0c-1.4,0-2.7,0-4.1,0
		l0,0C8.6,11.1,8.6,9.6,8.6,8.2L8.6,8.2z"/>
	<path class="st1" d="M8.6,8.2c-1.4,0-2.7,0-4.1,0C4.4,8.2,4.3,8.1,4.3,8c0-1.3,0-2.6,0-3.9c0-0.1,0-0.2,0.2-0.2c1.3,0,2.6,0,3.9,0
		c0.2,0,0.2,0.1,0.2,0.2C8.6,5.5,8.6,6.8,8.6,8.2L8.6,8.2z"/>
	<path class="st1" d="M43,3.9c1.4,0,2.7,0,4.1,0c0.1,0,0.2,0,0.2,0c0,0.1,0,0.2,0,0.3c0,1.3,0,2.7,0,4l0,0c-1.4,0-2.9,0-4.3,0
		C43,6.7,43,5.3,43,3.9L43,3.9z"/>
	<path class="st1" d="M51.6,12.5c1.4,0,2.7,0,4.1,0c0.2,0,0.2,0.1,0.2,0.2c0,1.4,0,2.8,0,4.1l0,0c-1.4,0-2.7,0-4.1,0
		c-0.2,0-0.2,0-0.2-0.2C51.6,15.3,51.6,13.9,51.6,12.5L51.6,12.5z"/>
	<path class="st1" d="M47.3,8.2c1.4,0,2.9,0,4.3,0l0,0c0,1.4,0,2.9,0,4.3l0,0c-1.4,0-2.7,0-4.1,0c-0.1,0-0.1,0-0.2,0
		c0-0.1,0-0.2,0-0.2C47.3,10.9,47.3,9.5,47.3,8.2L47.3,8.2z"/>
	<path class="st1" d="M51.6,8.2c0-1.4,0-2.7,0-4.1c0-0.2,0-0.2,0.2-0.2c1.3,0,2.6,0,3.9,0c0.1,0,0.2,0,0.2,0.2c0,1.3,0,2.6,0,3.9
		c0,0.2-0.1,0.2-0.2,0.2C54.3,8.2,53,8.2,51.6,8.2L51.6,8.2z"/>
	<path class="st0" d="M43,3.9c0,1.4,0,2.9,0,4.3l0,0c0,0-0.1,0-0.1,0c-7.9,0-15.7,0-23.6,0c-0.7,0-1.4,0-2.1,0l0,0
		c0-1.4,0-2.9,0-4.3c0.2,0,0.3,0,0.5,0c8.4,0,16.7,0,25.1,0C42.9,3.9,42.9,3.9,43,3.9z"/>
	<path class="st1" d="M12.9,47.2c0,1.3,0,2.7,0,4c0,0.1,0,0.2,0,0.3c-0.1,0-0.1,0-0.2,0c-1.3,0-2.6,0-3.9,0c-0.1,0-0.1,0-0.2,0
		c0,0,0,0,0,0c0-0.1,0-0.1,0-0.2c0-1.3,0-2.6,0-3.9c0-0.1,0-0.1,0-0.2c0.1,0,0.2,0,0.3,0C10.3,47.2,11.6,47.2,12.9,47.2L12.9,47.2z"
		/>
	<path class="st1" d="M6.5,51.5c0.6,0,1.3,0,1.9,0c0.2,0,0.2,0,0.2,0.2c0,1.3,0,2.6,0,3.9c0,0.2-0.1,0.2-0.2,0.2c-1.3,0-2.6,0-3.9,0
		c-0.1,0-0.2,0-0.2-0.2c0-1.3,0-2.6,0-3.9c0-0.1,0.1-0.2,0.2-0.2C5.2,51.5,5.8,51.5,6.5,51.5C6.5,51.5,6.5,51.5,6.5,51.5z"/>
	<path class="st2" d="M4.3,51.4c0-1,0-2.1,0-3.1c0-0.4,0-0.8,0-1.1l0,0c0.6,0,1.2,0,1.8,0c0.8,0,1.6,0,2.5,0c0,1.4,0,2.8,0,4.1
		c0,0.2-0.1,0.1-0.2,0.1c-0.8,0-1.7,0-2.5,0C5.3,51.5,4.8,51.5,4.3,51.4z"/>
	<path class="st3" d="M4.3,51.4c0.5,0,1,0,1.5,0c0.8,0,1.7,0,2.5,0c0.1,0,0.2,0,0.2-0.1c0-1.4,0-2.8,0-4.1c0,0,0,0,0,0c0,0,0,0,0,0
		c0,0.1,0,0.2,0,0.2c0,1.4,0,2.7,0,4.1c0,0,0,0,0,0c-0.1,0.1-0.1,0-0.2,0c-1.3,0-2.6,0-3.9,0C4.5,51.5,4.4,51.6,4.3,51.4z"/>
	<path class="st1" d="M47.3,51.5c0-0.1,0-0.2,0-0.3c0-1.3,0-2.7,0-4l0,0c1.3,0,2.7,0,4,0c0.1,0,0.2,0,0.2,0c0,0.1,0,0.1,0,0.2
		c0,1.3,0,2.6,0,3.8c0,0.1,0,0.2,0,0.2l0,0c-0.1,0-0.1,0-0.2,0c-1.3,0-2.6,0-3.9,0C47.5,51.5,47.4,51.5,47.3,51.5z"/>
	<path class="st1" d="M53.7,51.5c0.6,0,1.3,0,1.9,0c0.2,0,0.2,0,0.2,0.2c0,1.3,0,2.6,0,3.9c0,0.1-0.1,0.2-0.2,0.2
		c-1.3,0-2.6,0-3.9,0c-0.1,0-0.2-0.1-0.2-0.2c0-1.3,0-2.6,0-3.9c0-0.2,0.1-0.2,0.2-0.2C52.4,51.5,53.1,51.5,53.7,51.5z"/>
	<path class="st2" d="M55.9,47.2c0,1.4,0,2.8,0,4.3c-0.6,0-1.2,0-1.7,0c-0.8,0-1.5,0-2.3,0c-0.2,0-0.2,0-0.2-0.2c0-0.2,0-0.4,0-0.5
		c0-1.2,0-2.4,0-3.5C53.1,47.2,54.5,47.2,55.9,47.2L55.9,47.2z"/>
	<path class="st3" d="M51.6,47.2c0,1.2,0,2.4,0,3.5c0,0.2,0,0.4,0,0.5c0,0.2,0,0.2,0.2,0.2c0.8,0,1.5,0,2.3,0c0.6,0,1.2,0,1.7,0
		c0,0.1-0.1,0.1-0.1,0.1c-1.3,0-2.7,0-4,0c0,0-0.1,0-0.1,0l0,0c0-1,0-2,0-3C51.6,48,51.6,47.6,51.6,47.2L51.6,47.2
		C51.6,47.2,51.6,47.2,51.6,47.2z"/>
	<path class="st1" d="M8.6,25.5c-1.4,0-2.7,0-4.1,0c-0.2,0-0.2-0.1-0.2-0.2c0-1.4,0-2.8,0-4.1l0,0c1.4,0,2.7,0,4.1,0
		c0.2,0,0.2,0,0.2,0.2C8.6,22.7,8.6,24.1,8.6,25.5L8.6,25.5z"/>
	<path class="st1" d="M4.3,34.2c0-1.3,0-2.7,0-4c0-0.1,0-0.2,0-0.3c0.1,0,0.2,0,0.2,0c1.3,0,2.7,0,4,0l0,0c0,1.4,0,2.9,0,4.3
		C7.2,34.2,5.8,34.2,4.3,34.2L4.3,34.2z"/>
	<path class="st1" d="M8.6,29.8c0-1.4,0-2.9,0-4.3l0,0c1.4,0,2.7,0,4.1,0c0.1,0,0.1,0,0.2,0c0,0.1,0,0.1,0,0.2c0,1.3,0,2.6,0,3.9
		c0,0.2-0.1,0.2-0.2,0.2C11.3,29.8,10,29.8,8.6,29.8L8.6,29.8z"/>
	<path class="st1" d="M55.9,21.2c0,1.4,0,2.7,0,4.1c0,0.3,0,0.3-0.3,0.3c-1.3,0-2.7,0-4,0l0,0c0-1.4,0-2.8,0-4.1
		c0-0.2,0-0.2,0.2-0.2C53.2,21.2,54.5,21.2,55.9,21.2L55.9,21.2z"/>
	<path class="st1" d="M55.9,29.9c0,0.1,0,0.2,0,0.3c0,1.3,0,2.7,0,4l0,0c-1.4,0-2.9,0-4.3,0c0-1.4,0-2.9,0-4.3l0,0c1.3,0,2.7,0,4,0
		C55.7,29.8,55.8,29.8,55.9,29.9z"/>
	<path class="st1" d="M51.6,25.5c0,1.4,0,2.9,0,4.3l0,0c-1.3,0-2.7,0-4,0c-0.2,0-0.2-0.1-0.2-0.2c0-1.2,0-2.4,0-3.6
		c0-0.2,0-0.3,0-0.5c0,0,0.1,0,0.1,0C48.8,25.5,50.2,25.5,51.6,25.5L51.6,25.5z"/>
	<path class="st0" d="M4.3,34.2c1.4,0,2.9,0,4.3,0l0,0c0,1.5,0,2.9,0,4.4l0,0c-1.4,0-2.9,0-4.3,0l0,0C4.3,37.1,4.3,35.6,4.3,34.2z"
		/>
	<path class="st0" d="M8.6,47.2C8.6,47.2,8.6,47.2,8.6,47.2c-0.9,0-1.7,0-2.5,0c-0.6,0-1.2,0-1.8,0c0-1.5,0-2.9,0-4.4c0,0,0,0,0,0
		c0.5,0,0.9,0,1.4,0c1,0,1.9,0,2.9,0c0,0.1,0,0.2,0,0.3C8.6,44.4,8.6,45.8,8.6,47.2z"/>
	<path class="st1" d="M8.6,42.8c-1,0-1.9,0-2.9,0c-0.5,0-0.9,0-1.4,0c0-1.4,0-2.9,0-4.3c1.4,0,2.9,0,4.3,0c0,0.7,0,1.4,0,2.2
		C8.6,41.4,8.6,42.1,8.6,42.8z"/>
	<path class="st0" d="M51.6,34.2c1.4,0,2.9,0,4.3,0c0,1.5,0,2.9,0,4.4l0,0c-1.4,0-2.9,0-4.3,0l0,0C51.6,37.1,51.6,35.6,51.6,34.2
		L51.6,34.2z"/>
	<path class="st0" d="M51.6,47.2C51.6,47.2,51.6,47.2,51.6,47.2c0-0.4,0-0.8,0-1.2c0-1.1,0-2.1,0-3.2c1.4,0,2.8,0,4.3,0l0,0
		c0,1.5,0,2.9,0,4.4C54.5,47.2,53.1,47.2,51.6,47.2z"/>
	<path class="st0" d="M51.6,25.5c-1.4,0-2.8,0-4.1,0c0,0-0.1,0-0.1,0c-0.1,0-0.1,0-0.2,0c-2.7,0-5.5,0-8.2,0c-0.2,0-0.2,0.1-0.2,0.2
		c0,2.8,0,5.6,0,8.4c-0.9,0-1.7,0-2.6,0c-0.6,0-1.1,0-1.7,0c-0.1-0.1,0-0.1,0-0.2c0-2.6,0-5.3,0-7.9c0-0.2,0-0.3,0-0.5
		c0-1.4,0-2.9,0-4.3c0-0.6,0-1.2,0-1.9c0-0.8,0-1.6,0-2.5c1.4,0,2.9,0,4.3,0c0,1.4,0,2.8,0,4.2c0,0.1,0,0.2,0.1,0.2
		c1.4,0,2.8,0,4.1,0c1.4,0,2.8,0,4.2,0c0.1,0,0.1,0,0.1-0.2c0-1.3,0-2.7,0-4c0-0.1,0-0.2-0.1-0.2c-1.4,0-2.8,0-4.2,0
		c-1.4,0-2.9,0-4.3,0c0-1.4,0-2.7,0-4.1c0-0.2,0-0.3,0.2-0.3c1.3,0,2.5,0,3.8,0c0.1,0,0.1,0,0.2,0c0,0,0.1,0,0.1,0
		c1.4,0,2.7,0,4.1,0c0,0,0.1,0,0.1,0c0.1,0,0.1,0,0.2,0c1.4,0,2.7,0,4.1,0c0,1.4,0,2.8,0,4.1c0,0.2,0,0.2,0.2,0.2c1.4,0,2.7,0,4.1,0
		c0,1.4,0,2.9,0,4.3c-1.4,0-2.7,0-4.1,0c-0.2,0-0.2,0-0.2,0.2C51.6,22.8,51.6,24.1,51.6,25.5z"/>
	<path class="st1" d="M55.9,42.8c-1.4,0-2.8,0-4.3,0c0-0.1,0-0.2,0-0.2c0-1.4,0-2.7,0-4.1c1.4,0,2.9,0,4.3,0
		C55.9,39.9,55.9,41.4,55.9,42.8z"/>
	<path class="st1" d="M38.7,51.5c-0.1,0-0.3,0-0.4,0c-5.5,0-11,0-16.5,0c-0.1,0-0.2,0-0.2,0c0-1.3,0-2.5,0-3.8c0-0.5,0-0.5,0.5-0.5
		c1.3,0,2.6,0,3.9,0c2.8,0,5.6,0,8.4,0c0.1,0,0.3,0,0.4,0c1.3,0,2.5,0,3.8,0c0.1,0,0.2,0,0.2,0.2C38.7,48.7,38.7,50.1,38.7,51.5z"/>
	<path class="st4" d="M38.7,51.5c0-1.4,0-2.8,0-4.1c0-0.2-0.1-0.2-0.2-0.2c-1.3,0-2.5,0-3.8,0c-0.1,0-0.3,0-0.4,0
		c0.1-0.1,0.1-0.2,0.1-0.3c0-1.4,0-2.7,0-4.1c1.4,0,2.9,0,4.3,0c0,1.4,0,2.7,0,4.1c0,0.2,0.1,0.2,0.2,0.2c1.3,0,2.7,0,4,0l0,0
		c0,0.9,0,1.9,0,2.8c0,0.5,0,1,0,1.5c-1.4,0-2.7,0-4.1,0C38.8,51.5,38.8,51.5,38.7,51.5z"/>
	<path class="st4" d="M25.9,47.2c-1.3,0-2.6,0-3.9,0c-0.5,0-0.5,0-0.5,0.5c0,1.3,0,2.5,0,3.8c-0.1,0-0.2,0-0.3,0c-1.3,0-2.6,0-4,0
		c0-1.4,0-2.8,0-4.2c0,0,0-0.1,0-0.1c0,0,0,0,0,0c1.3,0,2.7,0,4,0c0.2,0,0.2,0,0.2-0.2c0-1.4,0-2.7,0-4.1c1.4,0,2.9,0,4.3,0
		c0,1.4,0,2.7,0,4.1C25.9,47,25.8,47.1,25.9,47.2z"/>
	<path class="st1" d="M17.2,47.2L17.2,47.2c-0.1,0-0.2,0-0.3,0c-1.3,0-2.7,0-4,0l0,0c0-1.4,0-2.7,0-4.1c0-0.2,0.1-0.3,0.3-0.3
		c1.4,0,2.7,0,4.1,0l0,0C17.2,44.3,17.2,45.7,17.2,47.2z"/>
	<path class="st1" d="M43,47.2L43,47.2c0-1.5,0-2.9,0-4.4l0,0c1.4,0,2.7,0,4.1,0c0.2,0,0.2,0,0.2,0.2c0,1.4,0,2.7,0,4.1l0,0
		c-1.4,0-2.7,0-4.1,0C43.2,47.2,43.1,47.2,43,47.2z"/>
	<path class="st3" d="M12.9,12.5c0-0.1,0-0.2,0-0.3c0-1.3,0-2.6,0-3.9c1.4,0,2.9,0,4.3,0l0,0c0,0.9,0,1.7,0,2.6c0,0.6,0,1.1,0,1.7
		c0,0-0.1,0-0.1,0c-1.4,0-2.7,0-4.1,0C13,12.5,12.9,12.5,12.9,12.5z"/>
	<path class="st0" d="M12.9,12.5c0,0,0.1,0,0.1,0c1.4,0,2.7,0,4.1,0c0,0,0.1,0,0.1,0c0.1,0,0.1,0,0.2,0c1.3,0,2.5,0,3.8,0
		c0.3,0,0.3,0,0.3,0.3c0,1.4,0,2.7,0,4.1c-1.4,0-2.9,0-4.3,0c-1.4,0-2.8,0-4.2,0c-0.1,0-0.1,0-0.1,0.2c0,1.3,0,2.7,0,4
		c0,0.1,0,0.2,0.1,0.2c1.4,0,2.8,0,4.2,0c1.4,0,2.8,0,4.2,0c0.2,0,0.1-0.1,0.1-0.2c0-1.4,0-2.8,0-4.1c1.4,0,2.9,0,4.3,0
		c0,0.1,0,0.3,0,0.4c0,1.3,0,2.6,0,3.9c0,1.1,0,2.2,0,3.4c0,0.3,0,0.6,0,0.9c0,0,0,0,0,0c0,0.1,0,0.2,0,0.2c0,2.7,0,5.5,0,8.2
		c0,0.1,0,0.2,0,0.2c-0.1,0-0.1,0-0.2,0c-1.4,0-2.7,0-4.1,0l0,0c0-2.8,0-5.6,0-8.4c0-0.2,0-0.2-0.2-0.2c-2.7,0-5.5,0-8.2,0
		c-0.1,0-0.1,0-0.2,0c-0.1,0-0.1,0-0.2,0c-1.4,0-2.7,0-4.1,0c0-1.4,0-2.8,0-4.2c0-0.2,0-0.2-0.2-0.2c-1.4,0-2.7,0-4.1,0
		c0-1.4,0-2.9,0-4.3c1.4,0,2.7,0,4.1,0c0.2,0,0.2,0,0.2-0.2c0-1.4,0-2.8,0-4.2c1.4,0,2.7,0,4.1,0C12.8,12.5,12.8,12.5,12.9,12.5z"/>
	<path class="st3" d="M47.3,12.5c0,0-0.1,0-0.1,0c-1.4,0-2.7,0-4.1,0c0,0-0.1,0-0.1,0c0-0.1,0-0.2,0-0.2c0-1.4,0-2.7,0-4.1l0,0
		c1.4,0,2.9,0,4.3,0c0,1.4,0,2.7,0,4.1C47.3,12.3,47.3,12.4,47.3,12.5z"/>
	<path class="st1" d="M43,8.2c0,1.4,0,2.7,0,4.1c0,0.1,0,0.2,0,0.2c-0.1,0-0.1,0-0.2,0c-1.3,0-2.5,0-3.8,0c-0.2,0-0.2,0.1-0.2,0.3
		c0,1.4,0,2.7,0,4.1l0,0c-1.4,0-2.9,0-4.3,0c0-0.1,0-0.2,0-0.3c0-1.3,0-2.6,0-3.9c0-0.1,0-0.2-0.2-0.2c-2.7,0-5.5,0-8.2,0
		c-0.2,0-0.2,0.1-0.2,0.2c0,0.6,0,1.2,0,1.8c0,0.8,0,1.5,0,2.3c-1.4,0-2.9,0-4.3,0l0,0c0-1.4,0-2.7,0-4.1c0-0.3,0-0.3-0.3-0.3
		c-1.3,0-2.5,0-3.8,0c-0.1,0-0.1,0-0.2,0c0-0.6,0-1.1,0-1.7c0-0.9,0-1.7,0-2.6c0.7,0,1.4,0,2.1,0c7.9,0,15.7,0,23.6,0
		C42.9,8.2,43,8.2,43,8.2z"/>
	<path class="st3" d="M12.9,25.5c0.1,0,0.1,0,0.2,0c2.7,0,5.5,0,8.2,0c0.2,0,0.2,0.1,0.2,0.2c0,2.8,0,5.6,0,8.4c-1.4,0-2.7,0-4.1,0
		c-0.2,0-0.2,0-0.2,0.2c0,2.8,0,5.6,0,8.4c-1.4,0-2.7,0-4.1,0c-0.2,0-0.3,0-0.3,0.3c0,1.4,0,2.7,0,4.1c-1.3,0-2.6,0-3.9,0
		c-0.1,0-0.2,0-0.3,0c0,0,0,0,0,0c0,0,0,0,0,0c0-1.4,0-2.7,0-4.1c0-0.1,0-0.2,0-0.3c0-0.7,0-1.4,0-2.1c0-0.7,0-1.4,0-2.2l0,0
		c1.4,0,2.7,0,4.1,0c0.2,0,0.2-0.1,0.2-0.2c0-1.3,0-2.6,0-3.9c0-0.2,0-0.3-0.3-0.3c-1.3,0-2.7,0-4,0l0,0c0-1.4,0-2.9,0-4.3
		c1.3,0,2.7,0,4,0c0.2,0,0.2,0,0.2-0.2c0-1.3,0-2.6,0-3.9C12.9,25.7,12.9,25.6,12.9,25.5z"/>
	<path class="st0" d="M8.6,47.2C8.6,47.2,8.6,47.2,8.6,47.2c0,0.1,0,0.2,0,0.2c0,1.3,0,2.6,0,3.9c0,0.1,0,0.1,0,0.2
		c0-1.4,0-2.7,0-4.1C8.6,47.3,8.6,47.3,8.6,47.2z"/>
	<path class="st3" d="M47.3,47.2c0-1.4,0-2.7,0-4.1c0-0.2-0.1-0.2-0.2-0.2c-1.4,0-2.7,0-4.1,0c0-2.8,0-5.6,0-8.4
		c0-0.2-0.1-0.2-0.2-0.2c-1.4,0-2.7,0-4.1,0l0,0c0-2.8,0-5.6,0-8.4c0-0.2,0-0.2,0.2-0.2c2.7,0,5.5,0,8.2,0c0.1,0,0.1,0,0.2,0
		c0,0.2,0,0.3,0,0.5c0,1.2,0,2.4,0,3.6c0,0.2,0,0.2,0.2,0.2c1.3,0,2.7,0,4,0c0,1.4,0,2.9,0,4.3l0,0c-1.4,0-2.7,0-4.1,0
		c-0.2,0-0.2,0-0.2,0.2c0,1.3,0,2.6,0,3.9c0,0.2,0.1,0.2,0.2,0.2c1.4,0,2.7,0,4.1,0l0,0c0,1.4,0,2.7,0,4.1c0,0.1,0,0.2,0,0.2
		c0,1.1,0,2.1,0,3.2c0,0.4,0,0.8,0,1.2l0,0c0,0,0,0,0,0c-0.1,0-0.2,0-0.2,0C50,47.2,48.6,47.2,47.3,47.2z"/>
	<path class="st0" d="M51.6,47.2C51.6,47.2,51.6,47.2,51.6,47.2c0,0.4,0,0.8,0,1.2c0,1,0,2,0,3c0-0.1,0-0.2,0-0.2c0-1.3,0-2.6,0-3.8
		C51.6,47.3,51.6,47.3,51.6,47.2z"/>
	<path class="st1" d="M8.6,34.2c1.3,0,2.7,0,4,0c0.2,0,0.3,0.1,0.3,0.3c0,1.3,0,2.6,0,3.9c0,0.2,0,0.2-0.2,0.2c-1.4,0-2.7,0-4.1,0
		C8.6,37.1,8.6,35.6,8.6,34.2z"/>
	<path class="st1" d="M51.6,38.5c-1.4,0-2.7,0-4.1,0c-0.2,0-0.2,0-0.2-0.2c0-1.3,0-2.6,0-3.9c0-0.2,0.1-0.2,0.2-0.2
		c1.4,0,2.7,0,4.1,0C51.6,35.6,51.6,37.1,51.6,38.5z"/>
	<path class="st3" d="M25.8,16.8c0-0.8,0-1.5,0-2.3c0-0.6,0-1.2,0-1.8c0-0.1,0-0.2,0.2-0.2c2.7,0,5.5,0,8.2,0c0.2,0,0.2,0.1,0.2,0.2
		c0,1.3,0,2.6,0,3.9c0,0.1,0,0.2,0,0.3c0,0.8,0,1.6,0,2.5c0,0.6,0,1.2,0,1.9c0,0,0,0,0,0c-0.1,0-0.1,0-0.2,0c-2.7,0-5.3,0-8,0
		c-0.1,0-0.2,0-0.3,0c0-1.3,0-2.6,0-3.9C25.8,17.1,25.8,17,25.8,16.8z"/>
	<path class="st3" d="M25.8,34.2c0.1-0.1,0-0.1,0-0.2c0-2.7,0-5.5,0-8.2c0-0.1,0-0.2,0-0.2c0.1,0,0.1,0,0.2,0c2.7,0,5.4,0,8.1,0
		c0.1,0,0.2,0,0.2,0c0,0.2,0,0.3,0,0.5c0,2.6,0,5.3,0,7.9c0,0.1,0,0.2,0,0.2c0,1.4,0,2.9,0,4.3c0,0,0,0-0.1,0c0-1.4,0-2.7,0-4.1
		c0-0.2,0-0.2-0.2-0.2c-2.7,0-5.4,0-8.1,0c-0.2,0-0.2,0-0.2,0.2c0,1.4,0,2.7,0,4.1c0,0,0,0-0.1,0C25.8,37.1,25.8,35.6,25.8,34.2z
		 M30.1,34.1c1.3,0,2.7,0,4,0c0.2,0,0.3-0.1,0.3-0.3c0-1.3,0-2.5,0-3.8c0-0.2,0-0.2-0.2-0.2c-2.7,0-5.4,0-8.1,0
		c-0.2,0-0.2,0.1-0.2,0.2c0,1.3,0,2.5,0,3.8c0,0.2,0.1,0.2,0.2,0.2C27.4,34.1,28.8,34.1,30.1,34.1z"/>
	<path class="st1" d="M43,16.9c1.4,0,2.8,0,4.2,0c0.1,0,0.1,0,0.1,0.2c0,1.3,0,2.7,0,4c0,0.1,0,0.2-0.1,0.2c-1.4,0-2.8,0-4.2,0
		C43,19.7,43,18.3,43,16.9z"/>
	<path class="st4" d="M34.4,38.5c0-1.4,0-2.9,0-4.3c0.6,0,1.1,0,1.7,0c0.9,0,1.7,0,2.6,0c0,0,0,0,0,0c0,1.4,0,2.8,0,4.2
		c0,0.2,0,0.2-0.2,0.2c-1.2,0-2.4,0-3.6,0C34.7,38.5,34.6,38.5,34.4,38.5z"/>
	<path class="st4" d="M43,16.9c0,1.4,0,2.9,0,4.3c-1.4,0-2.8,0-4.1,0c-0.1,0-0.1-0.1-0.1-0.2c0-1.4,0-2.8,0-4.2c0,0,0,0,0,0
		C40.1,16.9,41.6,16.9,43,16.9z"/>
	<path class="st5" d="M34.4,25.5c-0.1,0-0.2,0-0.2,0c-2.7,0-5.4,0-8.1,0c-0.1,0-0.2,0-0.2,0c0,0,0,0,0,0c0,0,0.1,0,0.1,0
		c2.7,0,5.5,0,8.2,0c0.2,0,0.2-0.1,0.2-0.2c0-1.4,0-2.7,0-4.1c0,0,0,0,0,0C34.4,22.6,34.4,24.1,34.4,25.5z"/>
	<path class="st3" d="M25.9,47.2c-0.1-0.1-0.1-0.2-0.1-0.3c0-1.4,0-2.7,0-4.1c0.1,0,0.1,0,0.2,0c2.2,0,4.3,0,6.5,0
		c0.6,0,1.2,0,1.9,0c0,1.4,0,2.7,0,4.1c0,0.1,0,0.2-0.1,0.3C31.5,47.2,28.7,47.2,25.9,47.2z"/>
	<path class="st0" d="M34.4,42.8c-0.6,0-1.2,0-1.9,0c-2.2,0-4.3,0-6.5,0c-0.1,0-0.1,0-0.2,0c-1.4,0-2.9,0-4.3,0c-0.6,0-1.1,0-1.7,0
		c-0.9,0-1.7,0-2.6,0l0,0c0-2.8,0-5.6,0-8.4c0-0.2,0.1-0.2,0.2-0.2c1.4,0,2.7,0,4.1,0c0,0,0,0,0,0c0,1.4,0,2.8,0,4.1
		c0,0.2,0.1,0.2,0.2,0.2c0.9,0,1.8,0,2.8,0c0.4,0,0.9,0,1.3,0c0,0,0,0,0.1,0c0,0,0.1,0,0.1,0c2.7,0,5.5,0,8.2,0c0,0,0.1,0,0.1,0
		c0,0,0,0,0.1,0c0.2,0,0.3,0,0.5,0c1.2,0,2.4,0,3.6,0c0.1,0,0.2,0,0.2-0.2c0-1.4,0-2.8,0-4.2c1.4,0,2.7,0,4.1,0c0.2,0,0.2,0,0.2,0.2
		c0,2.8,0,5.6,0,8.4c0,0,0,0,0,0c-0.1,0-0.2,0-0.2,0c-1.3,0-2.7,0-4,0C37.3,42.8,35.8,42.8,34.4,42.8z"/>
	<path class="st5" d="M38.7,42.8c1.3,0,2.7,0,4,0c0.1,0,0.2,0,0.2,0c0,1.4,0,2.9,0,4.3c-1.3,0-2.7,0-4,0c-0.2,0-0.2,0-0.2-0.2
		C38.7,45.6,38.7,44.2,38.7,42.8z"/>
	<path class="st5" d="M17.2,42.8c0.9,0,1.7,0,2.6,0c0.6,0,1.1,0,1.7,0c0,1.4,0,2.7,0,4.1c0,0.2-0.1,0.2-0.2,0.2c-1.3,0-2.7,0-4,0
		C17.2,45.7,17.2,44.3,17.2,42.8z"/>
	<path class="st2" d="M34.4,21.2c0,1.4,0,2.7,0,4.1c0,0.1,0,0.2-0.2,0.2c-2.7,0-5.5,0-8.2,0c0,0-0.1,0-0.1,0c0-0.3,0-0.6,0-0.9
		c0-1.1,0-2.2,0-3.4c0.1,0,0.2,0,0.3,0c2.7,0,5.3,0,8,0C34.2,21.2,34.3,21.2,34.4,21.2z"/>
	<path class="st1" d="M17.2,21.2c-1.4,0-2.8,0-4.2,0c-0.1,0-0.1,0-0.1-0.2c0-1.3,0-2.7,0-4c0-0.1,0-0.2,0.1-0.2c1.4,0,2.8,0,4.2,0
		C17.2,18.3,17.2,19.7,17.2,21.2z"/>
	<path class="st4" d="M25.8,38.5c-0.4,0-0.9,0-1.3,0c-0.9,0-1.8,0-2.8,0c-0.2,0-0.2,0-0.2-0.2c0-1.4,0-2.8,0-4.1c1.4,0,2.7,0,4.1,0
		c0.1,0,0.1,0,0.2,0C25.8,35.6,25.8,37.1,25.8,38.5z"/>
	<path class="st4" d="M17.2,21.2c0-1.4,0-2.9,0-4.3c1.4,0,2.9,0,4.3,0l0,0c0,1.4,0,2.8,0,4.1c0,0.1,0,0.2-0.1,0.2
		C20,21.2,18.6,21.2,17.2,21.2z"/>
	<path class="st5" d="M34.4,38.5c0,0-0.1,0-0.1,0c-2.7,0-5.5,0-8.2,0c0,0-0.1,0-0.1,0c0-1.4,0-2.7,0-4.1c0-0.2,0-0.2,0.2-0.2
		c2.7,0,5.4,0,8.1,0c0.2,0,0.2,0.1,0.2,0.2C34.4,35.8,34.4,37.1,34.4,38.5z"/>
	<path class="st4" d="M30.1,34.1c-1.3,0-2.7,0-4,0c-0.2,0-0.2,0-0.2-0.2c0-1.3,0-2.5,0-3.8c0-0.2,0-0.2,0.2-0.2c2.7,0,5.4,0,8.1,0
		c0.2,0,0.2,0.1,0.2,0.2c0,1.3,0,2.5,0,3.8c0,0.2,0,0.3-0.3,0.3C32.8,34.1,31.4,34.1,30.1,34.1z"/>
</g>
</svg>
