<svg xmlns="http://www.w3.org/2000/svg" viewBox="0 -0.5 32 32" shape-rendering="crispEdges">
<metadata>Made with Pixels to Svg https://codepen.io/shshaw/pen/XbxvNj</metadata>
<path stroke="#1a1100" d="M0 0h32M0 1h32M0 2h32M0 3h3M5 3h3M24 3h3M29 3h3M0 4h3M5 4h3M24 4h3M29 4h3M0 5h3M5 5h3M24 5h3M29 5h3M0 6h3M5 6h3M24 6h3M29 6h3M0 7h3M5 7h3M24 7h3M29 7h3M0 8h3M29 8h3M0 9h3M29 9h3M0 10h3M29 10h3M0 11h3M11 11h2M19 11h2M29 11h3M0 12h3M11 12h2M19 12h2M29 12h3M0 13h5M27 13h5M0 14h5M27 14h5M0 15h5M27 15h5M0 16h3M8 16h16M29 16h3M0 17h3M8 17h16M29 17h3M0 18h3M8 18h16M29 18h3M0 19h3M29 19h3M0 20h3M29 20h3M0 21h3M11 21h10M29 21h3M0 22h3M11 22h10M29 22h3M0 23h3M11 23h10M29 23h3M0 24h3M29 24h3M0 25h3M29 25h3M0 26h3M29 26h3M0 27h3M29 27h3M0 28h3M29 28h3M0 29h32M0 30h32M0 31h32" />
<path stroke="#e69500" d="M3 3h2M8 3h16M27 3h2M3 4h2M8 4h16M27 4h2M5 8h3M24 8h3M5 9h3M24 9h3M5 10h3M24 10h3M11 13h2M19 13h2M11 14h2M19 14h2M11 15h2M19 15h2M3 16h2M27 16h2M3 17h2M27 17h2M3 18h2M27 18h2M8 19h16M8 20h16M11 24h10M11 25h10M11 26h10" />
<path stroke="#ffd280" d="M3 5h2M8 5h16M27 5h2M3 6h2M8 6h16M27 6h2M3 7h2M8 7h16M27 7h2M3 8h2M8 8h16M27 8h2M3 9h2M8 9h16M27 9h2M3 10h2M8 10h16M27 10h2M3 11h8M13 11h6M21 11h8M3 12h8M13 12h6M21 12h8M5 13h6M13 13h6M21 13h6M5 14h6M13 14h6M21 14h6M5 15h6M13 15h6M21 15h6M5 16h3M24 16h3M5 17h3M24 17h3M5 18h3M24 18h3M3 19h5M24 19h5M3 20h5M24 20h5M3 21h8M21 21h8M3 22h8M21 22h8M3 23h8M21 23h8M3 24h8M21 24h8M3 25h8M21 25h8M3 26h8M21 26h8M3 27h26M3 28h26" />
</svg>