<svg xmlns="http://www.w3.org/2000/svg" viewBox="0 -0.5 32 32" shape-rendering="crispEdges">
<metadata>Made with Pixels to Svg https://codepen.io/shshaw/pen/XbxvNj</metadata>
<path stroke="#1a0016" d="M0 0h32M0 1h32M0 2h32M0 3h3M5 3h3M24 3h3M29 3h3M0 4h3M5 4h3M24 4h3M29 4h3M0 5h3M5 5h3M24 5h3M29 5h3M0 6h3M5 6h3M24 6h3M29 6h3M0 7h3M5 7h3M24 7h3M29 7h3M0 8h3M11 8h2M19 8h2M29 8h3M0 9h3M11 9h2M19 9h2M29 9h3M0 10h3M11 10h2M19 10h2M29 10h3M0 11h3M5 11h3M24 11h3M29 11h3M0 12h3M5 12h3M24 12h3M29 12h3M0 13h5M8 13h5M19 13h5M27 13h5M0 14h5M8 14h5M19 14h5M27 14h5M0 15h5M8 15h5M19 15h5M27 15h5M0 16h3M5 16h3M24 16h3M29 16h3M0 17h3M5 17h3M24 17h3M29 17h3M0 18h3M5 18h3M24 18h3M29 18h3M0 19h5M27 19h5M0 20h5M27 20h5M0 21h8M24 21h8M0 22h8M24 22h8M0 23h8M24 23h8M0 24h3M5 24h3M24 24h3M29 24h3M0 25h3M5 25h3M24 25h3M29 25h3M0 26h3M5 26h3M24 26h3M29 26h3M0 27h5M27 27h5M0 28h5M27 28h5M3 29h26M3 30h26M3 31h26" />
<path stroke="#e600c3" d="M3 3h2M8 3h16M27 3h2M3 4h2M8 4h16M27 4h2M5 8h3M24 8h3M5 9h3M24 9h3M5 10h3M24 10h3M11 11h2M19 11h2M11 12h2M19 12h2M5 13h3M24 13h3M5 14h3M24 14h3M5 15h3M24 15h3M3 16h2M8 16h5M19 16h5M27 16h2M3 17h2M8 17h5M19 17h5M27 17h2M3 18h2M8 18h5M19 18h5M27 18h2M5 19h3M24 19h3M5 20h3M24 20h3M3 24h2M27 24h2M3 25h2M27 25h2M3 26h2M27 26h2M5 27h3M24 27h3M5 28h3M24 28h3" />
<path stroke="#ff80ec" d="M3 5h2M8 5h16M27 5h2M3 6h2M8 6h16M27 6h2M3 7h2M8 7h16M27 7h2M3 8h2M8 8h3M13 8h6M21 8h3M27 8h2M3 9h2M8 9h3M13 9h6M21 9h3M27 9h2M3 10h2M8 10h3M13 10h6M21 10h3M27 10h2M3 11h2M8 11h3M13 11h6M21 11h3M27 11h2M3 12h2M8 12h3M13 12h6M21 12h3M27 12h2M13 13h6M13 14h6M13 15h6M13 16h6M13 17h6M13 18h6M8 19h16M8 20h16M8 21h16M8 22h16M8 23h16M8 24h16M8 25h16M8 26h16M8 27h16M8 28h16" />
</svg>