<?xml version="1.0" encoding="utf-8"?>
<!-- Generator: Adobe Illustrator 25.4.0, SVG Export Plug-In . SVG Version: 6.00 Build 0)  -->
<svg version="1.1" id="Layer_1" xmlns="http://www.w3.org/2000/svg" xmlns:xlink="http://www.w3.org/1999/xlink" x="0px" y="0px"
	 viewBox="0 0 60 60" style="enable-background:new 0 0 60 60;" xml:space="preserve">
<style type="text/css">
	.st0{fill:#0058F7;}
	.st1{fill:#B8C2FE;}
	.st2{fill:#FED30B;}
	.st3{fill:#FEA004;}
	.st4{fill:#36FEDE;}
</style>
<g>
	<g>
		<path d="M2.3,21.3L2.3,21.3c0.7,0,1.4,0,2.1,0c0-1.4,0-2.9,0-4.3l0,0c-1.4,0-2.7,0-4.1,0c-0.2,0-0.2,0-0.2-0.2l0,4.5H2.3z"/>
		<path d="M8.7,55.8c-1.4,0-2.8,0-4.2,0c-0.1,0-0.1,0-0.1-0.1c0,0,0-0.1,0-0.1c0-2.7,0-5.5,0-8.2c0-0.2,0-0.2,0.2-0.2
			c1.4,0,2.7,0,4.1,0c0-1.4,0-2.9,0-4.3c-2.8,0-5.6,0-8.5,0c-0.1,0-0.1,0-0.2,0H0l0,17C0,60,0,60,0.2,60c4.3,0,8.6,0,12.8,0
			c0-1.4,0-2.8,0-4.2C11.5,55.8,10.1,55.8,8.7,55.8z"/>
	</g>
	<path d="M51.7,42.9c2.8,0,5.5,0,8.3,0c0,5.7,0,11.3,0,17c0,0.1,0,0.2-0.2,0.2c-4.1,0-8.3,0-12.4,0c0-1.4,0-2.8,0-4.2l0,0
		c0.2,0,0.4,0,0.6,0c1.2,0,2.5,0,3.7,0c1.4,0,2.8,0,4.2,0c0.2,0,0.2,0,0.2-0.2c0-2.8,0-5.5,0-8.3c0-0.2,0-0.2-0.2-0.2
		c-1.4,0-2.8,0-4.2,0C51.7,45.7,51.7,44.3,51.7,42.9L51.7,42.9z"/>
	<path d="M34.5,0.1c0,1.3,0,2.6,0,3.8c0,0.1,0,0.2,0.2,0.2c1.3,0,2.6,0,3.9,0c0.2,0,0.2,0,0.2,0.2c0,1.4,0,2.7,0,4.1l0,0
		c-1.3,0-2.7,0-4,0c-4.4,0-8.8,0-13.2,0l0,0c0-1.4,0-2.7,0-4.1c0-0.2,0-0.2,0.2-0.2c1.3,0,2.6,0,3.9,0c0.2,0,0.2,0,0.2-0.2
		c0-1.3,0-2.5,0-3.8C28.8,0.1,31.6,0.1,34.5,0.1z"/>
	<path d="M60,21.4c-1.3,0-2.6,0-4,0l0,0c0-1.4,0-2.9,0-4.3l0,0c1.3,0,2.6,0,4,0C60,18.5,60,19.9,60,21.4z"/>
	<path d="M4.4,17.1c0-1.4,0-2.7,0-4.1c0-0.2,0-0.2,0.2-0.2c4.2,0,8.3,0,12.5,0c0.2,0,0.2,0,0.2-0.2c0-1.3,0-2.6,0-3.9
		c0-0.1,0-0.2,0.2-0.2c1.4,0,2.8,0,4.1,0l0,0c0,2.9,0,5.7,0,8.6c-0.2,0-0.5,0-0.7,0c-1.2,0-2.4,0-3.6,0c-1.4,0-2.9,0-4.3,0
		c0,0,0,0-0.1,0C10.1,17.1,7.2,17.1,4.4,17.1L4.4,17.1z"/>
	<path d="M38.8,8.5c1.4,0,2.7,0,4.1,0c0.2,0,0.2,0,0.2,0.2c0,1.3,0,2.6,0,3.9c0,0.2,0,0.2,0.2,0.2c4.2,0,8.4,0,12.5,0
		c0.2,0,0.2,0,0.2,0.2c0,1.4,0,2.7,0,4.1l0,0c-2.9,0-5.7,0-8.6,0c0,0,0,0-0.1,0c-1.4,0-2.9,0-4.3,0c-0.1,0-0.2,0-0.2,0
		c-1.4,0-2.7,0-4.1,0C38.8,14.2,38.8,11.3,38.8,8.5L38.8,8.5z"/>
	<path class="st0" d="M8.7,55.8c-1.4,0-2.8,0-4.2,0c-0.1,0-0.1,0-0.1-0.1c0,0,0-0.1,0-0.1c0-2.7,0-5.5,0-8.2c0-0.2,0-0.2,0.2-0.2
		c1.4,0,2.7,0,4.1,0l0,0c0,1.4,0,2.9,0,4.3C8.7,52.9,8.7,54.4,8.7,55.8z"/>
	<path class="st0" d="M4.4,17.1c2.8,0,5.7,0,8.5,0c0,0,0,0,0.1,0c0,1.4,0,2.9,0,4.3c0,0-0.1,0-0.1,0c-2.8,0-5.7,0-8.5,0l0,0
		C4.4,19.9,4.4,18.5,4.4,17.1z"/>
	<path class="st1" d="M8.7,55.8c0-1.4,0-2.9,0-4.3c1.4,0,2.9,0,4.3,0c0,1.4,0,2.9,0,4.3l0,0C11.5,55.8,10.1,55.8,8.7,55.8z"/>
	<path class="st0" d="M8.7,47.2c0-1.4,0-2.9,0-4.3l0,0c1.4,0,2.9,0,4.3,0c0,1.4,0,2.9,0,4.3C11.5,47.2,10.1,47.2,8.7,47.2L8.7,47.2z
		"/>
	<path d="M13,55.8c0-1.4,0-2.9,0-4.3l0,0c0.2,0,0.4,0,0.7,0c1.2,0,2.4,0,3.6,0c1.4,0,2.9,0,4.3,0c1.4,0,2.9,0,4.3,0c0,0,0,0,0,0
		c2.8,0,5.7,0,8.5,0c0,0,0,0,0,0c1.4,0,2.9,0,4.3,0c1.4,0,2.9,0,4.3,0c0.1,0,0.1,0,0.2,0c1.4,0,2.7,0,4.1,0c0,1.4,0,2.9,0,4.3l0,0
		c-3.4,0-6.7,0-10.1,0c-8,0-16.1,0-24.1,0C13.1,55.8,13.1,55.8,13,55.8z"/>
	<path d="M4.4,21.4c2.8,0,5.7,0,8.5,0c0,0,0.1,0,0.1,0c1.4,0,2.9,0,4.3,0c1.4,0,2.9,0,4.3,0c1.4,0,2.9,0,4.3,0c2.9,0,5.7,0,8.6,0
		c1.4,0,2.9,0,4.3,0c1.4,0,2.9,0,4.3,0c1.4,0,2.9,0,4.3,0c0,0,0,0,0.1,0c2.9,0,5.7,0,8.6,0l0,0c0,1.4,0,2.7,0,4.1
		c0,0.2,0,0.2-0.2,0.2c-1.3,0-2.6,0-4,0c-0.2,0-0.2,0-0.2,0.2c0,1.4,0,2.7,0,4.1l0,0c-1.4,0-2.9,0-4.3,0c0-1.4,0-2.8,0-4.2
		c0-0.1,0-0.1-0.1-0.1c-1.4,0-2.8,0-4.2,0c-1.4,0-2.9,0-4.3,0c-1.4,0-2.9,0-4.3,0c0,0,0,0,0,0c-2.8,0-5.7,0-8.5,0c0,0,0,0,0,0
		c-1.4,0-2.9,0-4.3,0c-1.4,0-2.9,0-4.3,0c-1.4,0-2.8,0-4.2,0c-0.1,0-0.1,0.1-0.1,0.1c0,1.4,0,2.8,0,4.2c-1.4,0-2.9,0-4.3,0l0,0
		c0-1.4,0-2.7,0-4.1c0-0.2,0-0.2-0.2-0.2c-1.3,0-2.6,0-3.9,0c-0.2,0-0.2,0-0.2-0.2C4.4,24.1,4.4,22.7,4.4,21.4z"/>
	<path d="M51.7,34.3c0,2.9,0,5.7,0,8.6l0,0c-1.4,0-2.9,0-4.3,0c0-0.2,0-0.4,0-0.6c0-1.2,0-2.5,0-3.7c0-1.4,0-2.9,0-4.3
		C48.8,34.3,50.3,34.3,51.7,34.3L51.7,34.3z"/>
	<path d="M51.7,30c1.4,0,2.8,0,4.2,0c0.1,0,0.2,0,0.2,0.2c0,1.3,0,2.6,0,4c0,0.1,0,0.2-0.2,0.2c-1.4,0-2.8,0-4.2,0l0,0
		C51.7,32.8,51.7,31.4,51.7,30L51.7,30z"/>
	<path class="st0" d="M51.7,47.2c1.4,0,2.8,0,4.2,0c0.2,0,0.2,0,0.2,0.2c0,2.8,0,5.5,0,8.3c0,0.2,0,0.2-0.2,0.2c-1.4,0-2.8,0-4.2,0
		c0-1.4,0-2.9,0-4.3C51.7,50,51.7,48.6,51.7,47.2L51.7,47.2z"/>
	<path class="st1" d="M51.7,51.5c0,1.4,0,2.9,0,4.3c-1.2,0-2.5,0-3.7,0c-0.2,0-0.4,0-0.6,0c0-1.4,0-2.9,0-4.3l0,0
		C48.8,51.5,50.3,51.5,51.7,51.5z"/>
	<path class="st0" d="M47.4,42.9c1.4,0,2.9,0,4.3,0c0,1.4,0,2.9,0,4.3l0,0c-1.4,0-2.9,0-4.3,0l0,0C47.4,45.7,47.4,44.3,47.4,42.9
		L47.4,42.9z"/>
	<path class="st0" d="M38.8,8.5c0,2.9,0,5.7,0,8.6l0,0c-1.4,0-2.9,0-4.3,0l0,0c0-1.4,0-2.7,0-4.1c0-0.1,0-0.2-0.2-0.2
		c-2.7,0-5.5,0-8.2,0c-0.1,0-0.2,0-0.2,0.2c0,1.4,0,2.7,0,4.1l0,0c-1.4,0-2.9,0-4.3,0l0,0c0-2.9,0-5.7,0-8.6c4.4,0,8.8,0,13.2,0
		C36.1,8.5,37.4,8.5,38.8,8.5z"/>
	<path class="st0" d="M56,21.4c-2.9,0-5.7,0-8.6,0c0,0,0,0-0.1,0c0-1.4,0-2.9,0-4.3c0,0,0,0,0.1,0c2.9,0,5.7,0,8.6,0
		C56,18.5,56,19.9,56,21.4z"/>
	<path class="st2" d="M21.6,21.4c-1.4,0-2.9,0-4.3,0c0-1.4,0-2.9,0-4.3c1.2,0,2.4,0,3.6,0c0.2,0,0.5,0,0.7,0l0,0
		C21.6,18.5,21.6,19.9,21.6,21.4z"/>
	<ellipse class="st3" cx="15.1" cy="19.2" rx="3" ry="3"/>
	<ellipse class="st3" cx="45.2" cy="19.2" rx="3" ry="3"/>
	<path class="st2" d="M43.1,17.1c0,1.4,0,2.9,0,4.3c-1.4,0-2.9,0-4.3,0c0-1.4,0-2.9,0-4.3l0,0c1.4,0,2.7,0,4.1,0
		C42.9,17.1,43,17.1,43.1,17.1z"/>
	<path d="M13,42.9c-1.4,0-2.9,0-4.3,0c0-2.9,0-5.7,0-8.6l0,0c1.4,0,2.9,0,4.3,0c0,1.4,0,2.9,0,4.3c0,0.1,0,0.1,0,0.2
		C13,40.1,13,41.5,13,42.9L13,42.9z"/>
	<path d="M8.7,34.3c-1.4,0-2.8,0-4.1,0c-0.1,0-0.2,0-0.2-0.2c0-1.3,0-2.6,0-4c0-0.1,0-0.2,0.2-0.2c1.4,0,2.8,0,4.1,0l0,0
		C8.7,31.4,8.7,32.8,8.7,34.3L8.7,34.3z"/>
	<path class="st3" d="M8.7,47.2c1.4,0,2.9,0,4.3,0l0,0c0,1.4,0,2.9,0,4.3l0,0c-1.4,0-2.9,0-4.3,0C8.7,50,8.7,48.6,8.7,47.2z"/>
	<path class="st3" d="M13,47.2c0-1.4,0-2.9,0-4.3l0,0c1.4,0,2.9,0,4.3,0c0,1.4,0,2.9,0,4.3l0,0C15.8,47.2,14.4,47.2,13,47.2L13,47.2
		z"/>
	<path class="st0" d="M34.5,51.5C34.5,51.5,34.5,51.5,34.5,51.5c-2.9,0-5.7,0-8.6,0c0,0,0,0,0,0c0-0.2,0-0.4,0-0.6
		c0-1.2,0-2.4,0-3.7c2.9,0,5.7,0,8.6,0c0,0.1,0,0.1,0,0.2C34.5,48.7,34.5,50.1,34.5,51.5z"/>
	<path class="st1" d="M13,47.2c1.4,0,2.9,0,4.3,0c0,1.4,0,2.9,0,4.3c-1.2,0-2.4,0-3.6,0c-0.2,0-0.4,0-0.7,0C13,50,13,48.6,13,47.2z"
		/>
	<path class="st0" d="M17.3,51.5c0-1.4,0-2.9,0-4.3l0,0c1.4,0,2.9,0,4.3,0c0,1.4,0,2.9,0,4.3C20.1,51.5,18.7,51.5,17.3,51.5z"/>
	<path class="st1" d="M21.6,51.5c0-1.4,0-2.9,0-4.3l0,0c1.4,0,2.9,0,4.3,0l0,0c0,1.2,0,2.4,0,3.7c0,0.2,0,0.4,0,0.6
		C24.4,51.5,23,51.5,21.6,51.5z"/>
	<path class="st1" d="M34.5,51.5c0-1.4,0-2.7,0-4.1c0-0.1,0-0.1,0-0.2l0,0c1.4,0,2.9,0,4.3,0c0,1.4,0,2.9,0,4.3
		C37.4,51.5,35.9,51.5,34.5,51.5z"/>
	<path class="st0" d="M38.8,51.5c0-1.4,0-2.9,0-4.3l0,0c1.4,0,2.9,0,4.3,0l0,0c0,1.4,0,2.9,0,4.3C41.7,51.5,40.2,51.5,38.8,51.5z"/>
	<path class="st1" d="M43.1,51.5c0-1.4,0-2.9,0-4.3c1.4,0,2.9,0,4.3,0l0,0c0,1.4,0,2.9,0,4.3l0,0c-1.4,0-2.7,0-4.1,0
		C43.2,51.5,43.2,51.5,43.1,51.5z"/>
	<path class="st3" d="M25.9,25.7C25.9,25.7,25.9,25.7,25.9,25.7c2.9,0,5.7,0,8.6,0c0,0,0,0,0,0c0,1.4,0,2.9,0,4.3
		c-2.9,0-5.7,0-8.6,0C25.9,28.5,25.9,27.1,25.9,25.7z"/>
	<path class="st1" d="M34.5,21.4c-2.9,0-5.7,0-8.6,0c0-1.4,0-2.9,0-4.3l0,0c0.1,0,0.1,0,0.2,0c2.8,0,5.5,0,8.3,0c0.1,0,0.1,0,0.2,0
		l0,0C34.5,18.5,34.5,19.9,34.5,21.4z"/>
	<path class="st4" d="M8.7,34.3c0-1.4,0-2.9,0-4.3c1.4,0,2.9,0,4.3,0l0,0c0,1.4,0,2.9,0,4.3l0,0C11.5,34.3,10.1,34.3,8.7,34.3z"/>
	<path class="st4" d="M51.7,30c0,1.4,0,2.9,0,4.3c-1.4,0-2.9,0-4.3,0l0,0c0-1.4,0-2.9,0-4.3l0,0C48.8,30,50.3,30,51.7,30z"/>
	<path class="st3" d="M25.9,17.1c0,1.4,0,2.9,0,4.3c-1.4,0-2.9,0-4.3,0c0-1.4,0-2.9,0-4.3C23,17.1,24.4,17.1,25.9,17.1z"/>
	<path class="st4" d="M43.1,25.7c1.4,0,2.8,0,4.2,0c0.1,0,0.1,0.1,0.1,0.1c0,1.4,0,2.8,0,4.2l0,0c-1.4,0-2.9,0-4.3,0
		C43.1,28.5,43.1,27.1,43.1,25.7z"/>
	<path class="st2" d="M43.1,25.7c0,1.4,0,2.9,0,4.3l0,0c-1.4,0-2.9,0-4.3,0l0,0c0-1.4,0-2.9,0-4.3C40.2,25.7,41.7,25.7,43.1,25.7z"
		/>
	<path class="st1" d="M38.8,25.7c0,1.4,0,2.9,0,4.3c-1.4,0-2.9,0-4.3,0c0-1.4,0-2.9,0-4.3C35.9,25.7,37.4,25.7,38.8,25.7z"/>
	<path class="st1" d="M25.9,25.7c0,1.4,0,2.9,0,4.3c-1.4,0-2.9,0-4.3,0c0-1.4,0-2.9,0-4.3C23,25.7,24.4,25.7,25.9,25.7z"/>
	<path class="st2" d="M21.6,25.7c0,1.4,0,2.9,0,4.3l0,0c-1.4,0-2.9,0-4.3,0l0,0c0-1.4,0-2.9,0-4.3C18.7,25.7,20.1,25.7,21.6,25.7z"
		/>
	<path class="st4" d="M17.3,25.7c0,1.4,0,2.9,0,4.3c-1.4,0-2.9,0-4.3,0l0,0c0-1.4,0-2.8,0-4.2c0-0.1,0-0.1,0.1-0.1
		C14.5,25.7,15.9,25.7,17.3,25.7z"/>
	<path class="st3" d="M34.5,21.4c0-1.4,0-2.9,0-4.3c1.4,0,2.9,0,4.3,0c0,1.4,0,2.9,0,4.3C37.4,21.4,35.9,21.4,34.5,21.4z"/>
	<path class="st4" d="M47.4,34.3c0,1.4,0,2.9,0,4.3c-1.4,0-2.9,0-4.3,0c0-1.4,0-2.9,0-4.3l0,0C44.5,34.3,46,34.3,47.4,34.3
		L47.4,34.3z"/>
	<path class="st0" d="M43.1,38.6c1.4,0,2.9,0,4.3,0c0,1.2,0,2.5,0,3.7c0,0.2,0,0.4,0,0.6l0,0c-1.4,0-2.9,0-4.3,0l0,0
		c0-0.1,0-0.3,0-0.4C43.1,41.1,43.1,39.8,43.1,38.6L43.1,38.6z"/>
	<path class="st3" d="M47.4,51.5c0-1.4,0-2.9,0-4.3c1.4,0,2.9,0,4.3,0c0,1.4,0,2.9,0,4.3C50.3,51.5,48.8,51.5,47.4,51.5z"/>
	<path class="st3" d="M43.1,42.9c1.4,0,2.9,0,4.3,0c0,1.4,0,2.9,0,4.3c-1.4,0-2.9,0-4.3,0c0,0,0,0,0,0
		C43.1,45.7,43.1,44.3,43.1,42.9z"/>
	<path class="st4" d="M34.5,17c-0.1,0-0.1,0-0.2,0c-2.8,0-5.5,0-8.3,0c-0.1,0-0.1,0-0.2,0c0-1.4,0-2.7,0-4.1c0-0.1,0-0.2,0.2-0.2
		c2.7,0,5.5,0,8.2,0c0.1,0,0.2,0,0.2,0.2C34.5,14.3,34.5,15.7,34.5,17z"/>
	<path class="st4" d="M13,38.6c0-1.4,0-2.9,0-4.3l0,0c1.4,0,2.9,0,4.3,0l0,0c0,1.4,0,2.9,0,4.3C15.8,38.6,14.4,38.6,13,38.6z"/>
	<path class="st0" d="M13,38.6c1.4,0,2.9,0,4.3,0l0,0c0,0.1,0,0.1,0,0.2c0,1.4,0,2.7,0,4.1l0,0c-1.4,0-2.9,0-4.3,0
		c0-1.4,0-2.7,0-4.1C13,38.7,13,38.6,13,38.6z"/>
	<path class="st1" d="M21.6,47.2c-1.4,0-2.9,0-4.3,0c0-1.4,0-2.9,0-4.3l0,0c1.4,0,2.9,0,4.3,0C21.6,44.3,21.6,45.7,21.6,47.2
		L21.6,47.2z"/>
	<path class="st4" d="M34.5,47.2c-2.9,0-5.7,0-8.6,0l0,0c0-1.4,0-2.9,0-4.3c2.9,0,5.7,0,8.6,0C34.5,44.3,34.5,45.7,34.5,47.2
		L34.5,47.2z"/>
	<path class="st3" d="M25.9,42.9c0,1.4,0,2.9,0,4.3c-1.4,0-2.9,0-4.3,0c0-1.4,0-2.9,0-4.3l0,0C23,42.9,24.4,42.9,25.9,42.9
		L25.9,42.9z"/>
	<path class="st3" d="M34.5,47.2c0-1.4,0-2.9,0-4.3l0,0c1.4,0,2.9,0,4.3,0l0,0c0,1.4,0,2.9,0,4.3l0,0C37.4,47.2,35.9,47.2,34.5,47.2
		z"/>
	<path class="st1" d="M38.8,47.2c0-1.4,0-2.9,0-4.3c1.4,0,2.9,0,4.3,0l0,0c0,1.4,0,2.9,0,4.3C41.7,47.2,40.2,47.2,38.8,47.2z"/>
	<path class="st2" d="M21.6,30c1.4,0,2.9,0,4.3,0c2.9,0,5.7,0,8.6,0c1.4,0,2.9,0,4.3,0l0,0c0,1.4,0,2.9,0,4.3c0,1.4,0,2.9,0,4.3l0,0
		c-1.4,0-2.9,0-4.3,0l0,0c0-1.4,0-2.7,0-4.1c0-0.2,0-0.2-0.2-0.2c-2.7,0-5.5,0-8.2,0c-0.2,0-0.2,0-0.2,0.2c0,1.4,0,2.7,0,4.1l0,0
		c-1.4,0-2.9,0-4.3,0l0,0c0-1.4,0-2.9,0-4.3C21.6,32.8,21.6,31.4,21.6,30L21.6,30z"/>
	<path d="M17.3,34.3c-1.4,0-2.9,0-4.3,0c0-1.4,0-2.9,0-4.3c1.4,0,2.9,0,4.3,0l0,0C17.3,31.4,17.3,32.8,17.3,34.3z"/>
	<path d="M47.4,34.3c-1.4,0-2.9,0-4.3,0c0-1.4,0-2.9,0-4.3l0,0c1.4,0,2.9,0,4.3,0C47.4,31.4,47.4,32.8,47.4,34.3z"/>
	<path class="st4" d="M43.1,30c0,1.4,0,2.9,0,4.3l0,0c-1.4,0-2.9,0-4.3,0c0-1.4,0-2.9,0-4.3C40.2,30,41.7,30,43.1,30z"/>
	<path class="st4" d="M17.3,34.3c0-1.4,0-2.9,0-4.3c1.4,0,2.9,0,4.3,0c0,1.4,0,2.9,0,4.3C20.1,34.3,18.7,34.3,17.3,34.3L17.3,34.3z"
		/>
	<path class="st3" d="M38.8,34.3c1.4,0,2.9,0,4.3,0c0,1.4,0,2.9,0,4.3l0,0c-1.4,0-2.9,0-4.3,0C38.8,37.1,38.8,35.7,38.8,34.3z"/>
	<path class="st2" d="M38.8,38.6c1.4,0,2.9,0,4.3,0c0,1.3,0,2.6,0,3.9c0,0.1,0,0.3,0,0.4c-1.4,0-2.9,0-4.3,0l0,0
		C38.8,41.4,38.8,40,38.8,38.6L38.8,38.6z"/>
	<path class="st3" d="M17.3,34.3c1.4,0,2.9,0,4.3,0c0,1.4,0,2.9,0,4.3c-1.4,0-2.9,0-4.3,0l0,0C17.3,37.1,17.3,35.7,17.3,34.3z"/>
	<path class="st2" d="M17.3,38.6c1.4,0,2.9,0,4.3,0l0,0c0,1.4,0,2.9,0,4.3l0,0c-1.4,0-2.9,0-4.3,0c0-1.4,0-2.7,0-4.1
		C17.3,38.7,17.3,38.6,17.3,38.6z"/>
	<path class="st3" d="M34.5,42.9c-2.9,0-5.7,0-8.6,0l0,0c0-1.4,0-2.9,0-4.3l0,0c2.9,0,5.7,0,8.6,0l0,0C34.5,40,34.5,41.4,34.5,42.9
		L34.5,42.9z"/>
	<path class="st1" d="M25.9,38.6c0,1.4,0,2.9,0,4.3c-1.4,0-2.9,0-4.3,0c0-1.4,0-2.9,0-4.3C23,38.6,24.5,38.6,25.9,38.6z"/>
	<path class="st1" d="M34.5,42.9c0-1.4,0-2.9,0-4.3c1.4,0,2.9,0,4.3,0c0,1.4,0,2.9,0,4.3C37.4,42.9,35.9,42.9,34.5,42.9z"/>
	<path class="st1" d="M34.5,38.6c-2.9,0-5.7,0-8.6,0c0-1.4,0-2.7,0-4.1c0-0.2,0-0.2,0.2-0.2c2.7,0,5.5,0,8.2,0c0.2,0,0.2,0,0.2,0.2
		C34.5,35.8,34.5,37.2,34.5,38.6z"/>
</g>
</svg>
