<?xml version="1.0" encoding="utf-8"?>
<!-- Generator: Adobe Illustrator 25.4.0, SVG Export Plug-In . SVG Version: 6.00 Build 0)  -->
<svg version="1.1" id="Layer_1" xmlns="http://www.w3.org/2000/svg" xmlns:xlink="http://www.w3.org/1999/xlink" x="0px" y="0px"
	 viewBox="0 0 60 60" style="enable-background:new 0 0 60 60;" xml:space="preserve">
<style type="text/css">
	.st0{fill:#B8C2FE;}
	.st1{fill:#FEA004;}
	.st2{fill:#FED30B;}
	.st3{fill:#0058F7;}
	.st4{fill:#36FEDE;}
</style>
<g>
	<path d="M8.5,0c14.4,0,28.7,0,43.1,0c0,1.4,0,2.8,0,4.1c-0.4,0-0.8,0-1.1,0c-1.1,0-2.1,0-3.2,0c-0.4,0-0.7,0-1.1,0
		c-1.1,0-2.1,0-3.2,0c-0.1,0-0.3,0-0.4,0c-1.3,0-2.6,0-3.9,0c-0.1,0-0.1,0-0.2,0c-5.6,0-11.3,0-16.9,0c-0.1,0-0.1,0-0.2,0
		c-0.1,0-0.3,0-0.4,0c-1.3,0-2.6,0-3.9,0c-0.4,0-0.7,0-1.1,0c-1.1,0-2.1,0-3.2,0c-1.4,0-2.9,0-4.3,0C8.5,2.8,8.5,1.4,8.5,0z"/>
	<path d="M42.9,60c-8.6,0-17.2,0-25.8,0c0-0.4,0-0.8,0-1.2c0-1,0-2,0-3c1.4,0,2.9,0,4.3,0c0.1,0,0.1,0,0.2,0c5.6,0,11.3,0,16.9,0
		c0.1,0,0.1,0,0.2,0c1.1,0,2.1,0,3.2,0c0.4,0,0.7,0,1.1,0c0,0.1,0,0.1,0,0.2C42.9,57.3,42.9,58.7,42.9,60z"/>
	<path d="M55.9,60c-2.9,0-5.7,0-8.6,0c0-0.3,0-0.6,0-0.9c0-1.1,0-2.2,0-3.3c0-0.1,0-0.1,0-0.2c0-1.4,0-2.7,0-4.1c0.1,0,0.1,0,0.2,0
		c1.4,0,2.7,0,4.1,0c0,1.4,0,2.8,0,4.1c0,0.1,0,0.2,0.2,0.2c1.4,0,2.8,0,4.1,0l0,0C55.9,57.2,55.9,58.6,55.9,60z"/>
	<path d="M12.8,60c-2.9,0-5.7,0-8.6,0c0-1.4,0-2.8,0-4.2l0,0c1.4,0,2.8,0,4.2,0c0.1,0,0.2,0,0.2-0.2c0-1.4,0-2.8,0-4.2
		c0.6,0,1.1,0,1.7,0c0.9,0,1.8,0,2.6,0c0,0.4,0,0.7,0,1.1c0,1.1,0,2.1,0,3.2c0,0.1,0,0.1,0,0.2C12.8,57.3,12.8,58.7,12.8,60z"/>
	<path d="M0,42.9c1.4,0,2.8,0,4.2,0l0,0c0,2.8,0,5.7,0,8.5c0,0,0,0,0,0.1c0,0.1,0,0.1,0,0.2c0,1.4,0,2.7,0,4.1l0,0
		c-1.4,0-2.8,0-4.2,0C0,51.5,0,47.2,0,42.9z"/>
	<path d="M55.9,42.9c1.4,0,2.8,0,4.1,0c0,4.3,0,8.6,0,12.9c-1.4,0-2.8,0-4.1,0l0,0c0-0.4,0-0.7,0-1.1c0-1.1,0-2.1,0-3.2
		c0,0,0,0,0-0.1C55.9,48.6,55.9,45.7,55.9,42.9L55.9,42.9z"/>
	<path d="M0,8.4c1.4,0,2.8,0,4.2,0l0,0c0,0.4,0,0.8,0,1.1c0,1.1,0,2.1,0,3.2c0,0.1,0,0.1,0,0.2c0,1.4,0,2.7,0,4.1l0,0
		c-1.4,0-2.8,0-4.2,0C0,14.2,0,11.3,0,8.4z"/>
	<path d="M55.9,8.4c1.4,0,2.8,0,4.1,0c0,2.9,0,5.7,0,8.6c-1.4,0-2.8,0-4.1,0l0,0c0-0.4,0-0.8,0-1.1c0-1.1,0-2.1,0-3.2
		c0-0.1,0-0.1,0-0.2C55.9,11.2,55.9,9.8,55.9,8.4L55.9,8.4z"/>
	<path class="st0" d="M12.8,60c0-1.3,0-2.7,0-4c0-0.1,0-0.1,0-0.2c1.4,0,2.9,0,4.3,0l0,0c0,1,0,2,0,3c0,0.4,0,0.8,0,1.2
		C15.7,60,14.2,60,12.8,60z"/>
	<path class="st0" d="M47.2,55.8c0,1.1,0,2.2,0,3.3c0,0.3,0,0.6,0,0.9c-1.4,0-2.9,0-4.3,0c0-1.3,0-2.7,0-4c0-0.1,0-0.1,0-0.2l0,0
		C44.4,55.8,45.8,55.8,47.2,55.8z"/>
	<path d="M12.8,34.3c0-2.9,0-5.7,0-8.6l0,0c0.4,0,0.8,0,1.2,0c1,0,2.1,0,3.1,0c0.1,0,0.1,0,0.2,0c1.4,0,2.7,0,4.1,0
		c0,1.4,0,2.9,0,4.3c-1.4,0-2.8,0-4.1,0c-0.1,0-0.2,0-0.2,0.2c0,1.4,0,2.8,0,4.1C15.7,34.3,14.2,34.3,12.8,34.3L12.8,34.3z"/>
	<path d="M8.5,21.4c-1.4,0-2.8,0-4.2,0c-0.1,0-0.1,0-0.1-0.1c0-1.4,0-2.8,0-4.2l0,0c1.4,0,2.9,0,4.3,0C8.5,18.5,8.5,19.9,8.5,21.4
		L8.5,21.4z"/>
	<path d="M12.8,25.7c-1.4,0-2.8,0-4.2,0c-0.1,0-0.1,0-0.1-0.1c0-1.4,0-2.8,0-4.2l0,0c1.4,0,2.9,0,4.3,0
		C12.8,22.8,12.8,24.2,12.8,25.7L12.8,25.7z"/>
	<path d="M8.5,38.6c0-1.4,0-2.8,0-4.2c0-0.1,0-0.1,0.1-0.1c1.4,0,2.8,0,4.2,0l0,0c0,1.4,0,2.9,0,4.3C11.3,38.6,9.9,38.6,8.5,38.6
		L8.5,38.6z"/>
	<path d="M4.2,42.9c0-1.4,0-2.8,0-4.2c0-0.1,0-0.2,0.1-0.2c1.4,0,2.8,0,4.2,0l0,0c0,0.4,0,0.8,0,1.2c0,1,0,2.1,0,3.1
		C7,42.9,5.6,42.9,4.2,42.9L4.2,42.9z"/>
	<path d="M47.2,25.7c0,2.9,0,5.7,0,8.6l0,0c-1.4,0-2.9,0-4.3,0c0-1.4,0-2.8,0-4.1c0-0.1,0-0.2-0.2-0.2c-1.4,0-2.8,0-4.1,0
		c0-1.4,0-2.9,0-4.3c0.4,0,0.8,0,1.1,0c1.1,0,2.1,0,3.2,0c0.1,0,0.1,0,0.2,0C44.5,25.7,45.9,25.7,47.2,25.7L47.2,25.7z"/>
	<path d="M55.9,17c0,1.4,0,2.8,0,4.2c0,0.1,0,0.1-0.1,0.1c-1.4,0-2.8,0-4.2,0l0,0c0-1.4,0-2.9,0-4.3C53,17.1,54.4,17.1,55.9,17
		L55.9,17z"/>
	<path d="M51.6,21.4c0,1.4,0,2.8,0,4.2c0,0.1,0,0.1-0.1,0.1c-1.4,0-2.8,0-4.2,0l0,0c0-1.4,0-2.9,0-4.3
		C48.7,21.4,50.1,21.4,51.6,21.4L51.6,21.4z"/>
	<path d="M47.2,34.3c1.4,0,2.8,0,4.2,0c0.1,0,0.1,0,0.1,0.1c0,1.4,0,2.8,0,4.2l0,0c-1.4,0-2.9,0-4.3,0
		C47.2,37.1,47.2,35.7,47.2,34.3L47.2,34.3z"/>
	<path d="M51.6,38.6c1.4,0,2.8,0,4.2,0c0.1,0,0.1,0,0.1,0.2c0,1.4,0,2.8,0,4.2l0,0c-1.4,0-2.9,0-4.3,0C51.6,41.4,51.6,40,51.6,38.6
		L51.6,38.6z"/>
	<path class="st1" d="M21.4,4.1c0.1,0,0.1,0,0.2,0c5.6,0,11.3,0,16.9,0c0.1,0,0.1,0,0.2,0c0,1.4,0,2.9,0,4.3c0,0.4,0,0.9,0,1.3
		c0,1,0,2,0,3c-1.4,0-2.7,0-4.1,0c-0.2,0-0.2,0-0.2,0.2c0,1.3,0,2.6,0,3.9c0,0.2,0,0.2,0.2,0.2c1.4,0,2.7,0,4.1,0c0,0.1,0,0.2,0,0.3
		c0,1.4,0,2.7,0,4.1c0,0,0,0,0,0c-1.4,0-2.9,0-4.3,0c-0.4,0-0.9,0-1.3,0c-2.4,0-4.9,0-7.3,0c-1.4,0-2.9,0-4.3,0l0,0
		c0-0.4,0-0.8,0-1.2c0-1,0-2,0-3.1c1.4,0,2.7,0,4.1,0c0.2,0,0.2,0,0.2-0.2c0-1.3,0-2.6,0-3.9c0-0.2,0-0.2-0.2-0.2
		c-1.4,0-2.7,0-4.1,0c0-0.1,0-0.1,0-0.2c0-1.4,0-2.7,0-4.1C21.4,7,21.4,5.6,21.4,4.1z"/>
	<path class="st1" d="M12.8,4.1c1.1,0,2.1,0,3.2,0c0.4,0,0.7,0,1.1,0c0,1.4,0,2.9,0,4.3l0,0c-1.4,0-2.9,0-4.3,0
		C12.8,7,12.8,5.6,12.8,4.1z"/>
	<path class="st2" d="M12.8,4.1c0,1.4,0,2.9,0,4.3l0,0c-1.4,0-2.9,0-4.3,0l0,0c0-1.4,0-2.9,0-4.3l0,0C9.9,4.1,11.4,4.1,12.8,4.1z"/>
	<path class="st2" d="M17.1,8.4c0-1.4,0-2.9,0-4.3c1.3,0,2.6,0,3.9,0c0.1,0,0.3,0,0.4,0c0,1.4,0,2.9,0,4.3C20,8.4,18.5,8.4,17.1,8.4
		z"/>
	<path class="st2" d="M47.2,4.1c1.1,0,2.1,0,3.2,0c0.4,0,0.8,0,1.1,0l0,0c0,1.4,0,2.9,0,4.3l0,0c-1.4,0-2.9,0-4.3,0
		C47.2,7,47.2,5.6,47.2,4.1z"/>
	<path class="st1" d="M47.2,4.1c0,1.4,0,2.9,0,4.3l0,0c-1.4,0-2.9,0-4.3,0l0,0c0-1.4,0-2.9,0-4.3c1.1,0,2.1,0,3.2,0
		C46.5,4.1,46.9,4.1,47.2,4.1z"/>
	<path class="st2" d="M42.9,4.1c0,1.4,0,2.9,0,4.3c-1.4,0-2.9,0-4.3,0c0-1.4,0-2.9,0-4.3c1.3,0,2.6,0,3.9,0
		C42.7,4.1,42.8,4.1,42.9,4.1z"/>
	<path class="st3" d="M38.6,55.8c-0.1,0-0.1,0-0.2,0c-5.6,0-11.3,0-16.9,0c-0.1,0-0.1,0-0.2,0c0-1.4,0-2.9,0-4.3c0.3,0,0.7,0,1,0
		c1.1,0,2.2,0,3.3,0c0,0,0.1,0,0.1,0c2.8,0,5.6,0,8.4,0c0,0,0.1,0,0.1,0c1.4,0,2.9,0,4.3,0C38.6,52.9,38.6,54.4,38.6,55.8z"/>
	<path class="st2" d="M21.4,51.5c0,1.4,0,2.9,0,4.3c-1.4,0-2.9,0-4.3,0l0,0c0-1.4,0-2.9,0-4.3C18.5,51.5,20,51.5,21.4,51.5
		L21.4,51.5z"/>
	<path class="st2" d="M38.6,55.8c0-1.4,0-2.9,0-4.3l0,0c1.4,0,2.9,0,4.3,0c0,1.4,0,2.9,0,4.3l0,0c-0.4,0-0.7,0-1.1,0
		C40.8,55.8,39.7,55.8,38.6,55.8z"/>
	<path class="st1" d="M51.6,38.6c0,1.4,0,2.9,0,4.3c0,0.1,0,0.1,0,0.2c0,2.8,0,5.6,0,8.4l0,0c-1.4,0-2.7,0-4.1,0c-0.1,0-0.1,0-0.2,0
		c0,0,0,0,0,0c0-0.1,0-0.1,0-0.2c0-4.2,0-8.4,0-12.5c0-0.1,0-0.1,0-0.2l0,0C48.7,38.6,50.1,38.6,51.6,38.6z"/>
	<path class="st3" d="M42.9,55.8c0-1.4,0-2.9,0-4.3l0,0c0.2,0,0.3,0,0.5,0c1.3,0,2.6,0,3.8,0l0,0c0,1.4,0,2.7,0,4.1
		c0,0.1,0,0.1,0,0.2C45.8,55.8,44.4,55.8,42.9,55.8z"/>
	<path class="st1" d="M55.9,51.5c0,1.1,0,2.1,0,3.2c0,0.4,0,0.7,0,1.1c-1.4,0-2.8,0-4.1,0c-0.1,0-0.2,0-0.2-0.2c0-1.4,0-2.8,0-4.1
		l0,0C53,51.5,54.4,51.5,55.9,51.5z"/>
	<path class="st1" d="M8.5,42.9c0-1,0-2.1,0-3.1c0-0.4,0-0.8,0-1.2c1.4,0,2.9,0,4.3,0l0,0c0,0.1,0,0.1,0,0.2c0,4.2,0,8.4,0,12.5
		c0,0.1,0,0.1,0,0.2l0,0c-0.9,0-1.8,0-2.6,0c-0.6,0-1.1,0-1.7,0l0,0c0-2.8,0-5.6,0-8.4C8.5,43,8.5,42.9,8.5,42.9z"/>
	<path class="st1" d="M4.2,55.8c0-1.4,0-2.7,0-4.1c0-0.1,0-0.1,0-0.2c1.4,0,2.9,0,4.3,0l0,0c0,1.4,0,2.8,0,4.2c0,0.1,0,0.2-0.2,0.2
		C6.9,55.8,5.6,55.8,4.2,55.8z"/>
	<path class="st3" d="M17.1,51.5c0,1.4,0,2.9,0,4.3c-1.4,0-2.9,0-4.3,0c0-1.1,0-2.1,0-3.2c0-0.4,0-0.7,0-1.1c0,0,0,0,0,0
		c0.1,0,0.1,0,0.2,0C14.4,51.5,15.7,51.5,17.1,51.5L17.1,51.5z"/>
	<path class="st3" d="M8.5,51.5c-1.4,0-2.9,0-4.3,0c0,0,0,0,0-0.1c0-2.8,0-5.7,0-8.5c1.4,0,2.9,0,4.3,0c0,0.1,0,0.1,0,0.2
		C8.5,45.9,8.5,48.7,8.5,51.5z"/>
	<path class="st3" d="M55.9,51.5c-1.4,0-2.9,0-4.3,0c0-2.8,0-5.6,0-8.4c0-0.1,0-0.1,0-0.2c1.4,0,2.9,0,4.3,0
		C55.9,45.7,55.9,48.6,55.9,51.5C55.9,51.4,55.9,51.5,55.9,51.5z"/>
	<path d="M8.5,4.1c0,1.4,0,2.9,0,4.3c-1.4,0-2.9,0-4.3,0l0,0c0-1.4,0-2.8,0-4.2c0-0.1,0.1-0.1,0.1-0.1C5.7,4.1,7.1,4.1,8.5,4.1z"/>
	<path d="M51.6,8.4c0-1.4,0-2.9,0-4.3c1.4,0,2.8,0,4.1,0c0.1,0,0.2,0,0.2,0.2c0,1.4,0,2.8,0,4.1l0,0C54.4,8.4,53,8.4,51.6,8.4z"/>
	<path class="st1" d="M8.5,17.1c-1.4,0-2.9,0-4.3,0c0-1.4,0-2.7,0-4.1c0-0.1,0-0.1,0-0.2c1.4,0,2.9,0,4.3,0l0,0c0,0.8,0,1.6,0,2.4
		C8.5,15.7,8.5,16.4,8.5,17.1L8.5,17.1z"/>
	<path class="st2" d="M8.5,12.7c-1.4,0-2.9,0-4.3,0c0-1.1,0-2.1,0-3.2c0-0.4,0-0.8,0-1.1c1.4,0,2.9,0,4.3,0l0,0
		C8.5,9.9,8.5,11.3,8.5,12.7z"/>
	<path class="st1" d="M55.9,17.1c-1.4,0-2.9,0-4.3,0l0,0c0-0.1,0-0.1,0-0.2c0-1.4,0-2.7,0-4.1l0,0c1.4,0,2.9,0,4.3,0
		c0,1.1,0,2.1,0,3.2C55.9,16.3,55.9,16.7,55.9,17.1z"/>
	<path class="st2" d="M55.9,12.7c-1.4,0-2.9,0-4.3,0c0-1.4,0-2.9,0-4.3l0,0c1.4,0,2.9,0,4.3,0c0,1.4,0,2.7,0,4.1
		C55.9,12.6,55.9,12.7,55.9,12.7z"/>
	<path class="st1" d="M12.8,25.7c0-1.4,0-2.9,0-4.3c0,0,0,0,0,0c0.1,0,0.1,0,0.2,0c1.4,0,2.7,0,4.1,0l0,0c0,0.1,0,0.1,0,0.2
		c0,1.4,0,2.7,0,4.1c-1,0-2.1,0-3.1,0C13.6,25.7,13.2,25.7,12.8,25.7z"/>
	<path class="st4" d="M17.1,25.7c0-1.4,0-2.7,0-4.1c0-0.1,0-0.1,0-0.2c1.4,0,2.9,0,4.3,0c0,0,0,0,0,0c0,1.4,0,2.9,0,4.3l0,0
		c-1.4,0-2.7,0-4.1,0C17.2,25.7,17.2,25.7,17.1,25.7z"/>
	<path class="st4" d="M21.4,30c0-1.4,0-2.9,0-4.3l0,0c1.4,0,2.9,0,4.3,0l0,0c0,1.4,0,2.9,0,4.3c-0.1,0-0.2,0-0.3,0
		C24.1,30,22.8,30,21.4,30L21.4,30z"/>
	<path class="st2" d="M17.1,34.3c0-1.4,0-2.8,0-4.1c0-0.1,0-0.2,0.2-0.2c1.4,0,2.8,0,4.1,0l0,0c0,1.4,0,2.9,0,4.3
		C20,34.3,18.5,34.3,17.1,34.3L17.1,34.3z"/>
	<path class="st1" d="M12.8,38.6c0-1.4,0-2.9,0-4.3c1.4,0,2.9,0,4.3,0l0,0c0,0.7,0,1.4,0,2c0,0.8,0,1.5,0,2.3c-0.8,0-1.6,0-2.3,0
		C14.1,38.6,13.4,38.6,12.8,38.6L12.8,38.6z"/>
	<path class="st1" d="M12.8,21.4c-1.4,0-2.9,0-4.3,0c0-1.4,0-2.9,0-4.3c0,0,0,0,0,0c0.1,0,0.1,0,0.2,0c1.4,0,2.7,0,4.1,0
		c0,0.8,0,1.6,0,2.4C12.8,20.1,12.8,20.7,12.8,21.4L12.8,21.4z"/>
	<path class="st4" d="M42.9,25.7c-1.1,0-2.1,0-3.2,0c-0.4,0-0.8,0-1.1,0l0,0c0-1.4,0-2.9,0-4.3c0,0,0,0,0,0c1.4,0,2.9,0,4.3,0
		c0,0.1,0,0.1,0,0.2C42.9,22.9,42.9,24.3,42.9,25.7z"/>
	<path class="st1" d="M42.9,25.7c0-1.4,0-2.7,0-4.1c0-0.1,0-0.1,0-0.2l0,0c0.8,0,1.6,0,2.3,0c0.6,0,1.3,0,1.9,0l0,0
		c0,1.4,0,2.9,0,4.3c-1.4,0-2.7,0-4.1,0C43.1,25.7,43,25.7,42.9,25.7z"/>
	<path class="st4" d="M38.6,25.7c0,1.4,0,2.9,0,4.3l0,0c-0.5,0-1,0-1.4,0c-1,0-1.9,0-2.9,0c0-1.4,0-2.9,0-4.3l0,0
		C35.8,25.7,37.2,25.7,38.6,25.7L38.6,25.7z"/>
	<path class="st2" d="M38.6,30c1.4,0,2.8,0,4.1,0c0.1,0,0.2,0,0.2,0.2c0,1.4,0,2.8,0,4.1c0,0,0,0,0,0c-1.4,0-2.9,0-4.3,0
		C38.6,32.8,38.6,31.4,38.6,30L38.6,30z"/>
	<path class="st1" d="M47.2,34.3c0,1.4,0,2.9,0,4.3l0,0c-1.4,0-2.9,0-4.3,0c0-0.1,0-0.1,0-0.2c0-1.4,0-2.7,0-4.1c0,0,0,0,0,0
		C44.4,34.3,45.8,34.3,47.2,34.3z"/>
	<path class="st1" d="M51.6,21.4c-1.4,0-2.9,0-4.3,0l0,0c0-0.1,0-0.2,0-0.2c0-1.4,0-2.7,0-4.1c0.8,0,1.6,0,2.4,0c0.6,0,1.3,0,1.9,0
		l0,0C51.6,18.5,51.6,19.9,51.6,21.4z"/>
	<path class="st4" d="M25.7,21.4c2.4,0,4.9,0,7.3,0c0.4,0,0.9,0,1.3,0c0,1.4,0,2.9,0,4.3l0,0c-2.9,0-5.7,0-8.6,0l0,0
		C25.7,24.2,25.7,22.8,25.7,21.4z"/>
	<path class="st0" d="M21.4,21.4c-1.4,0-2.9,0-4.3,0l0,0c0-1.4,0-2.9,0-4.3c1.4,0,2.9,0,4.3,0l0,0c0,1,0,2,0,3.1
		C21.4,20.5,21.4,20.9,21.4,21.4z"/>
	<path class="st0" d="M42.9,21.4c-1.4,0-2.9,0-4.3,0c0-1.4,0-2.7,0-4.1c0-0.1,0-0.2,0-0.3l0,0c1.4,0,2.9,0,4.3,0c0,0.4,0,0.8,0,1.2
		C42.9,19.3,42.9,20.3,42.9,21.4L42.9,21.4z"/>
	<path class="st2" d="M25.7,21.4c0,1.4,0,2.9,0,4.3c-1.4,0-2.9,0-4.3,0c0-1.4,0-2.9,0-4.3C22.8,21.4,24.3,21.4,25.7,21.4z"/>
	<path class="st2" d="M34.3,25.7c0-1.4,0-2.9,0-4.3c1.4,0,2.9,0,4.3,0c0,1.4,0,2.9,0,4.3C37.2,25.7,35.8,25.7,34.3,25.7z"/>
	<path class="st2" d="M38.6,17.1c-1.4,0-2.7,0-4.1,0c-0.2,0-0.2,0-0.2-0.2c0-1.3,0-2.6,0-3.9c0-0.2,0-0.2,0.2-0.2c1.4,0,2.7,0,4.1,0
		l0,0c0,0.3,0,0.6,0,0.9C38.6,14.8,38.6,15.9,38.6,17.1L38.6,17.1z"/>
	<path class="st2" d="M21.4,12.7c1.4,0,2.7,0,4.1,0c0.2,0,0.2,0,0.2,0.2c0,1.3,0,2.6,0,3.9c0,0.2,0,0.2-0.2,0.2c-1.4,0-2.7,0-4.1,0
		l0,0c0-0.1,0-0.3,0-0.4C21.4,15.4,21.4,14.1,21.4,12.7L21.4,12.7z"/>
	<path class="st0" d="M38.6,8.4c1.4,0,2.9,0,4.3,0l0,0c0,1.4,0,2.9,0,4.3c-1.4,0-2.9,0-4.3,0l0,0c0-1,0-2,0-3
		C38.6,9.3,38.6,8.9,38.6,8.4z"/>
	<path class="st0" d="M17.1,8.4c1.4,0,2.9,0,4.3,0c0,1.4,0,2.7,0,4.1c0,0.1,0,0.1,0,0.2c0,0,0,0,0,0c-1.4,0-2.9,0-4.3,0
		C17.1,11.3,17.1,9.9,17.1,8.4L17.1,8.4z"/>
	<path class="st2" d="M17.1,8.4c0,1.4,0,2.9,0,4.3l0,0c-1.4,0-2.9,0-4.3,0l0,0c0-1.4,0-2.9,0-4.3l0,0C14.2,8.4,15.7,8.4,17.1,8.4z"
		/>
	<path class="st1" d="M12.8,8.4c0,1.4,0,2.9,0,4.3c-1.4,0-2.9,0-4.3,0l0,0c0-1.4,0-2.9,0-4.3C9.9,8.4,11.4,8.4,12.8,8.4z"/>
	<path class="st1" d="M51.6,8.4c0,1.4,0,2.9,0,4.3l0,0c-1.4,0-2.9,0-4.3,0c0-1.4,0-2.9,0-4.3l0,0C48.7,8.4,50.1,8.4,51.6,8.4z"/>
	<path class="st2" d="M47.2,8.4c0,1.4,0,2.9,0,4.3l0,0c-1.4,0-2.9,0-4.3,0l0,0c0-1.4,0-2.9,0-4.3C44.4,8.4,45.8,8.4,47.2,8.4z"/>
	<path class="st0" d="M34.3,51.5c0,0-0.1,0-0.1,0c-2.8,0-5.6,0-8.4,0c0,0-0.1,0-0.1,0c0-1.4,0-2.9,0-4.3c2.9,0,5.7,0,8.6,0
		C34.3,48.6,34.3,50.1,34.3,51.5z"/>
	<path class="st2" d="M25.7,47.2c0,1.4,0,2.9,0,4.3c-1.1,0-2.2,0-3.3,0c-0.3,0-0.7,0-1,0l0,0c0-1.4,0-2.9,0-4.3
		C22.8,47.2,24.3,47.2,25.7,47.2L25.7,47.2z"/>
	<path class="st2" d="M34.3,51.5c0-1.4,0-2.9,0-4.3l0,0c1.4,0,2.9,0,4.3,0c0,1.4,0,2.9,0,4.3l0,0C37.2,51.5,35.8,51.5,34.3,51.5z"/>
	<path class="st0" d="M21.4,47.2c0,1.4,0,2.9,0,4.3c-1.4,0-2.9,0-4.3,0l0,0c0-0.4,0-0.7,0-1.1c0-1.1,0-2.1,0-3.2
		C18.5,47.2,20,47.2,21.4,47.2L21.4,47.2z"/>
	<path class="st0" d="M38.6,51.5c0-1.4,0-2.9,0-4.3l0,0c1.4,0,2.9,0,4.3,0c0,1.4,0,2.9,0,4.3l0,0C41.5,51.5,40.1,51.5,38.6,51.5z"/>
	<path class="st2" d="M42.9,51.5c0-1.4,0-2.9,0-4.3c0,0,0-0.1,0-0.1c0-2.8,0-5.6,0-8.4c0,0,0-0.1,0-0.1l0,0c1.4,0,2.9,0,4.3,0
		c0,0.1,0,0.1,0,0.2c0,4.2,0,8.4,0,12.5c0,0.1,0,0.1,0,0.2c-1.3,0-2.6,0-3.8,0C43.3,51.5,43.1,51.5,42.9,51.5z"/>
	<path class="st2" d="M17.1,47.2c0,1.1,0,2.1,0,3.2c0,0.4,0,0.7,0,1.1c-1.4,0-2.7,0-4.1,0c-0.1,0-0.1,0-0.2,0c0-0.1,0-0.1,0-0.2
		c0-4.2,0-8.4,0-12.5c0-0.1,0-0.1,0-0.2c0.6,0,1.3,0,1.9,0c0.8,0,1.6,0,2.3,0l0,0c0,0,0,0.1,0,0.1c0,2.8,0,5.6,0,8.4
		C17.1,47.1,17.1,47.1,17.1,47.2z"/>
	<path class="st2" d="M8.5,12.7c1.4,0,2.9,0,4.3,0l0,0c0,1.4,0,2.9,0,4.3l0,0c-1.4,0-2.7,0-4.1,0c-0.1,0-0.1,0-0.2,0
		c0-0.6,0-1.3,0-1.9C8.5,14.3,8.5,13.5,8.5,12.7z"/>
	<path class="st2" d="M47.2,12.7c1.4,0,2.9,0,4.3,0c0,1.4,0,2.7,0,4.1c0,0.1,0,0.1,0,0.2c-0.6,0-1.3,0-1.9,0c-0.8,0-1.6,0-2.4,0
		c0,0,0,0,0,0C47.2,15.6,47.2,14.2,47.2,12.7L47.2,12.7z"/>
	<path class="st2" d="M17.1,17.1c0,1.4,0,2.9,0,4.3c-1.4,0-2.7,0-4.1,0c-0.1,0-0.1,0-0.2,0c0-0.6,0-1.3,0-1.9c0-0.8,0-1.6,0-2.4l0,0
		C14.2,17.1,15.7,17.1,17.1,17.1L17.1,17.1z"/>
	<path d="M25.7,25.7c2.9,0,5.7,0,8.6,0c0,1.4,0,2.9,0,4.3l0,0c-2.9,0-5.7,0-8.6,0l0,0C25.7,28.5,25.7,27.1,25.7,25.7z"/>
	<path class="st0" d="M21.4,34.3c0-1.4,0-2.9,0-4.3c1.3,0,2.7,0,4,0c0.1,0,0.2,0,0.3,0l0,0c0,1.4,0,2.9,0,4.3
		C24.3,34.3,22.8,34.3,21.4,34.3L21.4,34.3z"/>
	<path class="st0" d="M17.1,38.6c0-0.8,0-1.5,0-2.3c0-0.7,0-1.4,0-2c1.4,0,2.9,0,4.3,0l0,0c0,0.4,0,0.7,0,1.1c0,1.1,0,2.1,0,3.2
		C20,38.6,18.5,38.6,17.1,38.6L17.1,38.6z"/>
	<path class="st2" d="M42.9,21.4c0-1,0-2,0-3.1c0-0.4,0-0.8,0-1.2l0,0c1.4,0,2.9,0,4.3,0c0,0,0,0,0,0c0,1.4,0,2.7,0,4.1
		c0,0.1,0,0.2,0,0.2c-0.6,0-1.3,0-1.9,0C44.5,21.4,43.7,21.4,42.9,21.4z"/>
	<path class="st0" d="M38.6,30c0,1.4,0,2.9,0,4.3l0,0c-1.4,0-2.9,0-4.3,0c0-0.2,0-0.5,0-0.7c0-1.2,0-2.4,0-3.6l0,0c1,0,1.9,0,2.9,0
		C37.7,30,38.1,30,38.6,30z"/>
	<path class="st0" d="M42.9,34.3c0,1.4,0,2.7,0,4.1c0,0.1,0,0.1,0,0.2c0,0,0,0,0,0c-1.4,0-2.9,0-4.3,0c0-1.4,0-2.9,0-4.3l0,0
		C40.1,34.3,41.5,34.3,42.9,34.3z"/>
	<path class="st4" d="M17.1,12.7c1.4,0,2.9,0,4.3,0c0,1.3,0,2.6,0,3.9c0,0.1,0,0.3,0,0.4c-1.4,0-2.9,0-4.3,0l0,0
		C17.1,15.6,17.1,14.2,17.1,12.7L17.1,12.7z"/>
	<path class="st4" d="M38.6,12.7c1.4,0,2.9,0,4.3,0l0,0c0,1.4,0,2.9,0,4.3l0,0c-1.4,0-2.9,0-4.3,0c0-1.1,0-2.2,0-3.4
		C38.6,13.4,38.6,13.1,38.6,12.7z"/>
	<path class="st0" d="M17.1,12.7c0,1.4,0,2.9,0,4.3c-1.4,0-2.9,0-4.3,0c0-1.4,0-2.9,0-4.3C14.2,12.7,15.7,12.7,17.1,12.7z"/>
	<path class="st0" d="M42.9,17.1c0-1.4,0-2.9,0-4.3c1.4,0,2.9,0,4.3,0c0,1.4,0,2.9,0,4.3C45.8,17.1,44.4,17.1,42.9,17.1z"/>
	<path class="st2" d="M34.3,47.2c-2.9,0-5.7,0-8.6,0l0,0c0-1.4,0-2.9,0-4.3l0,0c2.9,0,5.7,0,8.6,0l0,0
		C34.3,44.3,34.3,45.8,34.3,47.2L34.3,47.2z"/>
	<path class="st0" d="M25.7,42.9c0,1.4,0,2.9,0,4.3c-1.4,0-2.9,0-4.3,0l0,0c0-0.3,0-0.7,0-1c0-1.1,0-2.2,0-3.3
		C22.8,42.9,24.3,42.9,25.7,42.9z"/>
	<path class="st0" d="M34.3,47.2c0-1.4,0-2.9,0-4.3c1.4,0,2.9,0,4.3,0c0,0.1,0,0.1,0,0.2c0,1.4,0,2.7,0,4.1l0,0
		C37.2,47.2,35.8,47.2,34.3,47.2z"/>
	<path class="st3" d="M21.4,42.9c0,1.1,0,2.2,0,3.3c0,0.3,0,0.7,0,1c-1.4,0-2.9,0-4.3,0c0,0,0-0.1,0-0.1c0-2.8,0-5.6,0-8.4
		c0,0,0-0.1,0-0.1c1.4,0,2.9,0,4.3,0c0,0.2,0,0.4,0,0.6C21.4,40.4,21.4,41.6,21.4,42.9z"/>
	<path class="st3" d="M38.6,47.2c0-1.4,0-2.7,0-4.1c0-0.1,0-0.1,0-0.2c0-0.4,0-0.8,0-1.1c0-1.1,0-2.1,0-3.2c1.4,0,2.9,0,4.3,0
		c0,0,0,0.1,0,0.1c0,2.8,0,5.6,0,8.4c0,0,0,0.1,0,0.1C41.5,47.2,40.1,47.2,38.6,47.2z"/>
	<path class="st2" d="M34.3,30c0,1.2,0,2.4,0,3.6c0,0.2,0,0.5,0,0.7l0,0c-2.9,0-5.7,0-8.6,0l0,0c0-1.4,0-2.9,0-4.3
		C28.6,30,31.5,30,34.3,30z"/>
	<path class="st2" d="M21.4,42.9c0-1.3,0-2.5,0-3.8c0-0.2,0-0.4,0-0.6c0-1.1,0-2.1,0-3.2c0-0.4,0-0.7,0-1.1c1.4,0,2.9,0,4.3,0l0,0
		c0,2.9,0,5.7,0,8.6l0,0C24.3,42.9,22.8,42.9,21.4,42.9z"/>
	<path class="st2" d="M38.6,38.6c0,1.1,0,2.1,0,3.2c0,0.4,0,0.8,0,1.1c-1.4,0-2.9,0-4.3,0l0,0c0-2.9,0-5.7,0-8.6l0,0
		c1.4,0,2.9,0,4.3,0C38.6,35.7,38.6,37.1,38.6,38.6z"/>
	<ellipse class="st0" cx="30" cy="38.6" rx="6.1" ry="6.1"/>
</g>
</svg>
