<svg width="32" height="32" viewBox="0 0 32 32" fill="none" xmlns="http://www.w3.org/2000/svg">
<mask id="mask0_109_2916" style="mask-type:luminance" maskUnits="userSpaceOnUse" x="0" y="0" width="32" height="32">
<path d="M0 32H32V0H0V32Z" fill="white"/>
</mask>
<g mask="url(#mask0_109_2916)">
<g filter="url(#filter0_d_109_2916)">
<path d="M32 31.5H0M32 30.5H0M32 29.5H30M2 29.5H0M32 28.5H30M2 28.5H0M32 27.5H30M2 27.5H0M32 26.5H30M2 26.5H0M32 25.5H30M2 25.5H0M32 24.5H30M2 24.5H0M32 23.5H30M2 23.5H0M32 22.5H27M5 22.5H0M32 21.5H27M5 21.5H0M32 20.5H25M21 20.5H18M14 20.5H11M7 20.5H0M32 19.5H25M21 19.5H18M14 19.5H11M7 19.5H0M32 18.5H25M21 18.5H18M14 18.5H11M7 18.5H0M32 17.5H30M21 17.5H18M14 17.5H11M2 17.5H0M32 16.5H30M21 16.5H18M14 16.5H11M2 16.5H0M32 15.5H30M2 15.5H0M32 14.5H30M2 14.5H0M32 13.5H30M27 13.5H25M23 13.5H21M11 13.5H9M7 13.5H5M2 13.5H0M32 12.5H30M27 12.5H25M23 12.5H21M11 12.5H9M7 12.5H5M2 12.5H0M32 11.5H30M27 11.5H25M23 11.5H21M11 11.5H9M7 11.5H5M2 11.5H0M32 10.5H30M23 10.5H21M11 10.5H9M2 10.5H0M32 9.5H30M23 9.5H21M11 9.5H9M2 9.5H0M32 8.5H27M23 8.5H21M11 8.5H9M5 8.5H0M32 7.5H27M23 7.5H21M11 7.5H9M5 7.5H0M32 6.5H27M25 6.5H23M9 6.5H7M5 6.5H0M32 5.5H27M25 5.5H23M9 5.5H7M5 5.5H0M32 4.5H30M23 4.5H9M2 4.5H0M32 3.5H30M23 3.5H9M2 3.5H0M32 2.5H30M23 2.5H9M2 2.5H0M32 1.5H21M11 1.5H0M32 0.5H21M11 0.5H0" stroke="#00131A"/>
<path d="M30 29.5H2M30 28.5H2M30 27.5H2M30 26.5H2M30 25.5H2M27 24.5H5M27 23.5H5M25 22.5H21M18 22.5H14M11 22.5H7M25 21.5H21M18 21.5H14M11 21.5H7M25 20.5H21M18 20.5H14M11 20.5H7M25 19.5H21M18 19.5H14M11 19.5H7M25 18.5H21M18 18.5H14M11 18.5H7M30 17.5H21M18 17.5H14M11 17.5H2M30 16.5H21M18 16.5H14M11 16.5H2M30 15.5H27M25 15.5H23M21 15.5H11M9 15.5H7M5 15.5H2M30 14.5H27M25 14.5H23M21 14.5H11M9 14.5H7M5 14.5H2M30 13.5H27M25 13.5H23M21 13.5H11M9 13.5H7M5 13.5H2M30 12.5H27M25 12.5H23M21 12.5H11M9 12.5H7M5 12.5H2M30 11.5H27M25 11.5H23M21 11.5H11M9 11.5H7M5 11.5H2M27 10.5H23M21 10.5H11M9 10.5H5M27 9.5H23M21 9.5H11M9 9.5H5M27 8.5H25M21 8.5H11M7 8.5H5M27 7.5H25M21 7.5H11M7 7.5H5M27 6.5H25M7 6.5H5M27 5.5H25M7 5.5H5" stroke="#80DDFF"/>
<path d="M30 24.5H27M5 24.5H2M30 23.5H27M5 23.5H2M27 22.5H25M21 22.5H18M14 22.5H11M7 22.5H5M27 21.5H25M21 21.5H18M14 21.5H11M7 21.5H5M27 15.5H25M23 15.5H21M11 15.5H9M7 15.5H5M27 14.5H25M23 14.5H21M11 14.5H9M7 14.5H5M30 10.5H27M5 10.5H2M30 9.5H27M5 9.5H2M25 8.5H23M9 8.5H7M25 7.5H23M9 7.5H7M23 6.5H9M23 5.5H9M30 4.5H23M9 4.5H2M30 3.5H23M9 3.5H2M30 2.5H23M9 2.5H2" stroke="#00A8E6"/>
</g>
</g>
<defs>
<filter id="filter0_d_109_2916" x="-4" y="0" width="40" height="40" filterUnits="userSpaceOnUse" color-interpolation-filters="sRGB">
<feFlood flood-opacity="0" result="BackgroundImageFix"/>
<feColorMatrix in="SourceAlpha" type="matrix" values="0 0 0 0 0 0 0 0 0 0 0 0 0 0 0 0 0 0 127 0" result="hardAlpha"/>
<feOffset dy="4"/>
<feGaussianBlur stdDeviation="2"/>
<feComposite in2="hardAlpha" operator="out"/>
<feColorMatrix type="matrix" values="0 0 0 0 0 0 0 0 0 0 0 0 0 0 0 0 0 0 0.25 0"/>
<feBlend mode="normal" in2="BackgroundImageFix" result="effect1_dropShadow_109_2916"/>
<feBlend mode="normal" in="SourceGraphic" in2="effect1_dropShadow_109_2916" result="shape"/>
</filter>
</defs>
</svg>
