<?xml version="1.0" encoding="utf-8"?>
<!-- Generator: Adobe Illustrator 25.4.0, SVG Export Plug-In . SVG Version: 6.00 Build 0)  -->
<svg version="1.1" id="Layer_1" xmlns="http://www.w3.org/2000/svg" xmlns:xlink="http://www.w3.org/1999/xlink" x="0px" y="0px"
	 viewBox="0 0 30 30" style="enable-background:new 0 0 30 30;" xml:space="preserve">
<style type="text/css">
	.st0{fill:#1B0107;}
	.st1{fill:#FED30B;}
	.st2{fill:#3853FD;}
	.st3{fill:#E40039;}
</style>
<g>
	<path class="st0" d="M15,27c-4.4,0-8.9,0-13.3,0c-0.3,0-0.4-0.1-0.4-0.4c0-7.7,0-15.4,0-23.1C1.3,3.1,1.4,3,1.7,3
		c8.9,0,17.7,0,26.6,0c0.3,0,0.4,0.1,0.4,0.4c0,7.7,0,15.4,0,23.1c0,0.4,0,0.4-0.4,0.4C23.8,27,19.4,27,15,27z M15,23.6
		c3.3,0,6.6,0,9.9,0c0.3,0,0.4-0.1,0.4-0.4c0-1.1,0-2.3,0-3.4c0-4.3,0-8.7,0-13c0-0.3-0.1-0.4-0.4-0.4c-1.1,0-2.3,0-3.4,0
		c-4.6,0-9.1,0-13.7,0c-0.9,0-1.8,0-2.7,0c-0.4,0-0.4,0.1-0.4,0.4c0,3.5,0,7,0,10.5c0,1.9,0.1,3.9,0,5.8c0,0.3,0.1,0.4,0.4,0.4
		C8.4,23.6,11.7,23.6,15,23.6z"/>
	<path class="st1" d="M15,23.6c-3.3,0-6.6,0-9.8,0c-0.4,0-0.4-0.1-0.4-0.4c0-1.9-0.1-3.9,0-5.8c0-3.5,0-7,0-10.5
		c0-0.4,0.1-0.4,0.4-0.4c0.9,0,1.8,0,2.7,0c4.6,0,9.1,0,13.7,0c1.1,0,2.3,0,3.4,0c0.3,0,0.4,0.1,0.4,0.4c0,4.3,0,8.7,0,13
		c0,1.1,0,2.3,0,3.4c0,0.3-0.1,0.4-0.4,0.4C21.6,23.6,18.3,23.6,15,23.6z M8.3,16.7c0.1,0,0.1,0,0.2,0c0.9,0,1.8,0,2.7,0
		c0.3,0,0.4-0.1,0.4-0.4c0-0.9,0-1.8,0-2.7c0-0.3,0.1-0.4,0.4-0.4c2,0,4.1,0,6.1,0c0.3,0,0.4,0.1,0.4,0.4c0,0.9,0,1.8,0,2.7
		c0,0.2,0.1,0.3,0.3,0.3c0.9,0,1.9,0,2.8,0c0.2,0,0.3-0.1,0.3-0.3c0-2,0-4.1,0-6.1c0-0.3-0.1-0.4-0.4-0.4c-3.6,0-7.1,0-10.7,0
		c-0.8,0-1.5,0-2.3,0c-0.2,0-0.3,0.1-0.3,0.3c0,2.1,0,4.2,0,6.3c0,0,0,0.1,0,0.1c-0.1,0-0.1-0.2-0.1-0.2c0-2.2,0-4.4,0-6.7
		c0-0.9,0-1.9,0-2.8c0-0.3-0.1-0.4-0.4-0.4c-0.9,0-1.7,0-2.6,0c-0.3,0-0.4,0-0.4,0.4c0,4.3,0,8.6,0,12.8c0,0.4,0,0.4,0.4,0.4
		c6.5,0,13.1,0,19.6,0c0,0,0.1,0,0.1,0c0.2,0,0.2-0.1,0.2-0.2c0-0.1,0-0.1,0-0.2c0-4.3,0-8.5,0-12.8c0,0,0-0.1,0-0.1
		c0-0.1-0.1-0.2-0.2-0.2c-1,0-1.9,0-2.9,0c-0.2,0-0.3,0.1-0.3,0.3c0,0.9,0,1.8,0,2.7c0,0.1,0,0.1,0,0.2c0.1,0.1,0.1,0.3,0.1,0.4
		c0,2.1,0,4.2,0,6.3c0,0.3-0.1,0.4-0.4,0.4c-0.9,0-1.8,0-2.8,0c-0.3,0-0.4-0.1-0.4-0.4c0-0.9,0-1.8,0-2.7c0-0.2-0.1-0.3-0.3-0.3
		c-2,0-4.1,0-6.1,0c-0.2,0-0.3,0-0.3,0.3c0,0.8,0,1.7,0,2.5c0,0.1,0,0.2,0,0.3c0,0.2-0.2,0.3-0.4,0.3c-0.9,0-1.9,0-2.8,0
		C8.4,16.8,8.3,16.8,8.3,16.7z"/>
	<path class="st2" d="M8.3,16.7c0,0.1,0.1,0.1,0.1,0.1c0.9,0,1.9,0,2.8,0c0.2,0,0.3-0.1,0.4-0.3c0-0.1,0-0.2,0-0.3
		c0-0.8,0-1.7,0-2.5c0-0.2,0-0.3,0.3-0.3c2,0,4.1,0,6.1,0c0.2,0,0.3,0.1,0.3,0.3c0,0.9,0,1.8,0,2.7c0,0.3,0.1,0.4,0.4,0.4
		c0.9,0,1.8,0,2.8,0c0.3,0,0.4-0.1,0.4-0.4c0-2.1,0-4.2,0-6.3c0-0.1,0-0.3-0.1-0.4c0-0.1,0-0.1,0-0.2c0-0.9,0-1.8,0-2.7
		c0-0.2,0.1-0.3,0.3-0.3c1,0,1.9,0,2.9,0c0.1,0,0.2,0.1,0.2,0.2c0,0,0,0.1,0,0.1c0,4.3,0,8.5,0,12.8c0,0.1,0,0.1,0,0.2
		c0,0.1-0.1,0.2-0.2,0.2c0,0-0.1,0-0.1,0c-6.5,0-13.1,0-19.6,0c-0.4,0-0.4,0-0.4-0.4c0-4.3,0-8.6,0-12.8c0-0.3,0-0.4,0.4-0.4
		c0.9,0,1.7,0,2.6,0c0.3,0,0.4,0.1,0.4,0.4c0,0.9,0,1.9,0,2.8c-0.1,2.2,0,4.4,0,6.7c0,0.1-0.1,0.2,0.1,0.2c0,0,0,0,0,0
		c0,0,0,0,0,0.1C8.2,16.7,8.2,16.7,8.3,16.7C8.3,16.7,8.3,16.7,8.3,16.7z"/>
	<path class="st0" d="M8.2,16.6c0,0,0-0.1,0-0.1c0-2.1,0-4.2,0-6.3c0-0.2,0-0.3,0.3-0.3c0.8,0,1.5,0,2.3,0c3.6,0,7.1,0,10.7,0
		c0.3,0,0.4,0.1,0.4,0.4c0,2,0,4.1,0,6.1c0,0.2-0.1,0.3-0.3,0.3c-0.9,0-1.9,0-2.8,0c-0.2,0-0.3-0.1-0.3-0.3c0-0.9,0-1.8,0-2.7
		c0-0.3-0.1-0.4-0.4-0.4c-2,0-4.1,0-6.1,0c-0.3,0-0.4,0.1-0.4,0.4c0,0.9,0,1.8,0,2.7c0,0.3-0.1,0.4-0.4,0.4c-0.9,0-1.8,0-2.7,0
		c-0.1,0-0.1,0-0.2,0c0,0,0,0-0.1,0C8.3,16.6,8.2,16.6,8.2,16.6C8.2,16.6,8.2,16.6,8.2,16.6z"/>
	<path class="st3" d="M8.2,16.6C8.2,16.6,8.3,16.6,8.2,16.6C8.2,16.7,8.2,16.7,8.2,16.6C8.2,16.7,8.2,16.6,8.2,16.6z"/>
</g>
</svg>
