<?xml version="1.0" encoding="utf-8"?>
<!-- Generator: Adobe Illustrator 25.4.0, SVG Export Plug-In . SVG Version: 6.00 Build 0)  -->
<svg version="1.1" id="Layer_1" xmlns="http://www.w3.org/2000/svg" xmlns:xlink="http://www.w3.org/1999/xlink" x="0px" y="0px"
	 viewBox="0 0 60 60" style="enable-background:new 0 0 60 60;" xml:space="preserve">
<style type="text/css">
	.st0{fill:#FE9431;}
	.st1{fill:#BAC3FE;}
	.st2{fill:#3853FD;}
	.st3{fill:#FED30B;}
	.st4{fill:#36FEDE;}
</style>
<g>
	<g>
		<path d="M7.5,56.2c-1.2,0-2.4,0-3.6,0c-0.1,0-0.1,0-0.1-0.1c0-9.9,0-19.9,0-29.8c0.3,0,0.6,0,0.8,0c1,0,1.9,0,2.9,0c0,0,0,0,0.1,0
			c1.2,0,2.4,0,3.6,0c0.1,0,0.1,0,0.1-0.1c0-1.2,0-2.4,0-3.6c0.1,0,0.1,0,0.2,0c1.2,0,2.4,0,3.6,0c0,0,0,0.1,0,0.1
			c0,2.4,0,4.9,0,7.3c0,0,0,0.1,0,0.1c-1.1,0-2.2,0-3.3,0c-0.2,0-0.4-0.1-0.5,0c-0.1,0.1,0,0.3,0,0.5c0,1.1,0,2.2,0,3.3
			c-1.2,0-2.4,0-3.6,0c-0.1,0-0.2,0-0.2,0.2c0,1,0,2.1,0,3.1c0,0.2-0.1,0.4,0,0.5c0.1,0.1,0.3,0,0.5,0c1.1,0,2.2,0,3.3,0
			c0.1,0,0.1,0,0.2,0c1.2,0,2.4,0,3.6,0c0,0.1,0,0.1,0,0.2c0,1.2,0,2.4,0,3.6c-0.3,0-0.7,0-1,0c-0.9,0-1.8,0-2.7,0
			c-0.2,0-0.4,0-0.7,0c-1,0-2,0-2.9,0c-0.1,0-0.1,0-0.1,0.1c0,0.1,0,0.3,0,0.4c0,1.1,0,2.2,0,3.2c0,0.1,0,0.1,0,0.2
			C7.5,48.9,7.5,52.5,7.5,56.2z"/>
		<path d="M56.2,26.2c0,9.9,0,19.9,0,29.8c0,0.1,0,0.1-0.1,0.1c-1.1,0-2.3,0-3.4,0c0-3.7,0-7.3,0-11c0-0.1,0-0.1,0-0.2
			c0-0.3,0-0.5,0-0.8c0-1,0-1.9,0-2.9c0-0.1,0-0.1-0.1-0.1c-0.1,0-0.3,0-0.4,0c-1.1,0-2.1,0-3.2,0c0,0-0.1,0-0.1,0
			c-1.2,0-2.4,0-3.6,0c0-0.3,0-0.7,0-1c0-0.9,0-1.8,0-2.7c0.3,0,0.7,0,1,0c0.9,0,1.8,0,2.7,0c0,0,0,0,0.1,0c1.2,0,2.4,0,3.6,0
			c0.1,0,0.1,0,0.1-0.1c0-1.2,0-2.3,0-3.5c0-0.1,0-0.2-0.2-0.2c-1.2,0-2.4,0-3.6,0c0-0.1,0-0.1,0-0.2c0-1.1,0-2.3,0-3.4
			c0-0.1,0-0.2-0.2-0.2c-1.2,0-2.4,0-3.6,0c0,0,0-0.1,0-0.1c0-2.4,0-4.9,0-7.3c0,0,0-0.1,0-0.1c0.3,0,0.6,0,1,0c0.9,0,1.9,0,2.8,0
			c0,1.2,0,2.3,0,3.5c0,0.3,0,0.3,0.3,0.3c1.2,0,2.3,0,3.5,0c0,0,0.1,0,0.1,0C53.8,26.2,55,26.2,56.2,26.2z"/>
		<path d="M33.8,56.2c-2.5,0-5,0-7.5,0c0-1.1,0-2.2,0-3.4c0-0.3,0-0.3-0.3-0.3c-1.2,0-2.3,0-3.5,0c-0.1,0-0.1,0-0.2,0
			c-1.2,0-2.4,0-3.6,0l0,0c0-0.4,0-0.7,0-1.1c0-0.9,0-1.8,0-2.7c0-1.3,0-2.5,0-3.8c0.3,0,0.6,0,1,0c0.9,0,1.9,0,2.8,0
			c0.1,0,0.1,0,0.2,0c1.2,0,2.4,0,3.6,0c0,1.2,0,2.4,0,3.6c0,0.1,0,0.2,0.2,0.2c2.4,0,4.8,0,7.2,0c0.1,0,0.2,0,0.2-0.2
			c0-1.2,0-2.4,0-3.6c0.3,0,0.6,0,0.9,0c0.9,0,1.9,0,2.8,0c1.3,0,2.5,0,3.8,0c0,0.4,0,0.7,0,1.1c0,0.9,0,1.8,0,2.7
			c0,0.1,0,0.1,0,0.2c0,1.2,0,2.4,0,3.6l0,0c-1.3,0-2.5,0-3.8,0c-1.2,0-2.4,0-3.7,0c-0.1,0-0.1,0.1-0.1,0.1
			C33.8,53.9,33.8,55,33.8,56.2z"/>
		<path d="M3.8,18.7c0-3.8,0-7.5,0-11.3c1.2,0,2.5,0,3.7,0l0,0c0,1.2,0,2.4,0,3.7c0,0.1,0.1,0.1,0.1,0.1c1.2,0,2.3,0,3.5,0
			c0.1,0,0.2,0,0.2,0.2c0,1.2,0,2.4,0,3.6c-1.2,0-2.4,0-3.6,0c-0.1,0-0.1,0-0.1,0.1c0,1.2,0,2.4,0,3.6C6.2,18.7,5,18.7,3.8,18.7z"/>
		<path d="M56.2,7.5c0,3.8,0,7.5,0,11.3c-1.2,0-2.4,0-3.6,0c0-1.2,0-2.4,0-3.6c0-0.1,0-0.2-0.1-0.1c-1.2,0-2.4,0-3.6,0
			c0-1.2,0-2.4,0-3.6c0-0.1,0-0.2,0.2-0.2c1.2,0,2.3,0,3.5,0c0.1,0,0.1,0,0.1-0.1c0-1.2,0-2.4,0-3.7l0,0C53.8,7.5,55,7.5,56.2,7.5z"
			/>
		<path d="M22.5,3.9c5,0,10,0,15,0c0,1.2,0,2.3,0,3.5c-0.3,0-0.7,0-1,0c-0.9,0-1.8,0-2.8,0c0,0-0.1,0-0.1,0c-2.4,0-4.9,0-7.3,0
			c0,0-0.1,0-0.1,0c-1.3,0-2.5,0-3.8,0C22.5,6.3,22.5,5.1,22.5,3.9z"/>
		<path class="st0" d="M3.8,18.7c1.2,0,2.5,0,3.7,0c1.3,0,2.5,0,3.8,0c1.3,0,2.5,0,3.8,0c0,0.3,0,0.6,0,1c0,0.9,0,1.9,0,2.8
			c-1.2,0-2.4,0-3.6,0c-0.1,0-0.1,0-0.2,0c-0.1,0-0.1,0-0.2,0c-1.2,0-2.4,0-3.6,0c-0.1,0-0.1,0-0.2,0c-1.2,0-2.4,0-3.5,0
			C3.8,21.2,3.8,20,3.8,18.7z"/>
		<path class="st0" d="M7.5,56.2c0-3.7,0-7.3,0-11c0-0.1,0-0.1,0-0.2c0.7,0,1.4,0,2.1,0c0.6,0,1.1,0,1.7,0l0,0c0,0,0,0,0,0
			c0,2.5,0,5,0,7.5c0,1.2,0,2.4,0,3.7C10,56.2,8.7,56.2,7.5,56.2z"/>
		<path class="st0" d="M52.6,45c0,0.1,0,0.1,0,0.2c0,3.7,0,7.3,0,11c-1.3,0-2.5,0-3.8,0c0-1.2,0-2.4,0-3.7c0-2.5,0-5,0-7.5
			c0,0,0,0,0,0l0,0c0,0,0.1,0,0.1,0C50.2,45,51.4,45,52.6,45z"/>
		<path class="st0" d="M52.6,18.7c1.2,0,2.4,0,3.6,0c0,1.3,0,2.5,0,3.8c-0.2,0-0.4,0-0.6,0c-1,0-2,0-3,0c-0.3,0-0.7,0-1,0
			c-0.9,0-1.8,0-2.8,0c-0.9,0-1.9,0-2.8,0c-0.3,0-0.6,0-1,0c0-1.3,0-2.5,0-3.8c1.3,0,2.5,0,3.8,0C50.1,18.7,51.3,18.7,52.6,18.7z"/>
		<path class="st1" d="M45.1,3.9c2.5,0,5,0,7.5,0c0,0.2,0,0.5,0,0.7c0,0.9,0,1.9,0,2.8l0,0c0,0-0.1,0-0.1,0c-2.5,0-4.9,0-7.4,0
			C45.1,6.3,45.1,5.1,45.1,3.9z"/>
		<path class="st1" d="M7.5,3.9c2.5,0,5,0,7.5,0c0,1.2,0,2.3,0,3.5c-2.5,0-4.9,0-7.4,0c0,0-0.1,0-0.1,0l0,0c0-0.1,0-0.1,0-0.2
			C7.5,6.2,7.5,5,7.5,3.9z"/>
		<path class="st2" d="M3.8,22.5c1.2,0,2.4,0,3.5,0c0.1,0,0.1,0,0.2,0c0,1.2,0,2.5,0,3.7c-1,0-1.9,0-2.9,0c-0.3,0-0.6,0-0.8,0
			C3.8,25,3.8,23.7,3.8,22.5z"/>
		<path class="st0" d="M18.8,56.2c-1.3,0-2.5,0-3.8,0c0-1.2,0-2.4,0-3.7c0.1,0,0.1,0,0.2,0c1.2,0,2.4,0,3.6,0l0,0
			C18.8,53.8,18.8,55,18.8,56.2z"/>
		<path class="st3" d="M48.8,52.5c0,1.2,0,2.4,0,3.7c-1.3,0-2.5,0-3.8,0c0-1.2,0-2.4,0-3.7c0.1,0,0.1,0,0.2,0
			C46.4,52.5,47.6,52.5,48.8,52.5z"/>
		<path class="st4" d="M18.8,56.2c0-1.2,0-2.4,0-3.7c1.2,0,2.4,0,3.6,0c0.1,0,0.1,0,0.2,0c0,1.2,0,2.4,0,3.7
			C21.3,56.2,20,56.2,18.8,56.2z"/>
		<path class="st0" d="M22.5,56.2c0-1.2,0-2.4,0-3.7c1.2,0,2.3,0,3.5,0c0.3,0,0.3,0,0.3,0.3c0,1.1,0,2.2,0,3.4
			C25,56.2,23.8,56.2,22.5,56.2z"/>
		<path class="st0" d="M33.8,56.2c0-1.2,0-2.4,0-3.5c0-0.1,0-0.1,0.1-0.1c1.2,0,2.4,0,3.7,0c0,1.2,0,2.4,0,3.7
			C36.3,56.2,35,56.2,33.8,56.2z"/>
		<path class="st4" d="M37.5,56.2c0-1.2,0-2.4,0-3.7c1.3,0,2.5,0,3.8,0c0,1.2,0,2.4,0,3.7C40,56.2,38.8,56.2,37.5,56.2z"/>
		<path class="st0" d="M41.3,56.2c0-1.2,0-2.4,0-3.7c0,0,0,0,0,0c0.3,0,0.6,0,1,0c0.9,0,1.9,0,2.8,0c0,1.2,0,2.4,0,3.7
			C43.8,56.2,42.6,56.2,41.3,56.2z"/>
		<path class="st3" d="M15,52.5c0,1.2,0,2.4,0,3.7c-1.3,0-2.5,0-3.8,0c0-1.2,0-2.4,0-3.7c0.3,0,0.6,0,0.9,0
			C13.1,52.5,14.1,52.5,15,52.5z"/>
		<path class="st2" d="M52.6,22.5c1,0,2,0,3,0c0.2,0,0.4,0,0.6,0c0,1.3,0,2.5,0,3.8c-1.2,0-2.3,0-3.5,0c0,0-0.1,0-0.1,0
			C52.6,25,52.6,23.7,52.6,22.5z"/>
		<path class="st4" d="M45.1,3.9c0,1.2,0,2.3,0,3.5l0,0c-1.3,0-2.5,0-3.8,0c0-1.2,0-2.3,0-3.5C42.6,3.9,43.8,3.9,45.1,3.9z"/>
		<path class="st1" d="M41.3,3.9c0,1.2,0,2.3,0,3.5l0,0c-0.1,0-0.1,0-0.2,0c-1.2,0-2.4,0-3.6,0l0,0c0-1.2,0-2.3,0-3.5
			C38.8,3.9,40,3.9,41.3,3.9z"/>
		<path class="st1" d="M22.5,3.9c0,1.2,0,2.3,0,3.5l0,0c-1.3,0-2.5,0-3.8,0c0-1.2,0-2.3,0-3.5C20,3.9,21.3,3.9,22.5,3.9z"/>
		<path class="st4" d="M18.8,3.9c0,1.2,0,2.3,0,3.5c0,0,0,0,0,0c-1.3,0-2.5,0-3.8,0l0,0c0-1.2,0-2.3,0-3.5
			C16.2,3.9,17.5,3.9,18.8,3.9z"/>
		<path class="st0" d="M7.5,3.9c0,1.1,0,2.2,0,3.3c0,0.1,0,0.1,0,0.2c-1.2,0-2.5,0-3.7,0c0-1.1,0-2.3,0-3.4c0-0.1,0-0.1,0.1-0.1
			C5.1,3.9,6.3,3.9,7.5,3.9z"/>
		<path class="st0" d="M52.6,7.5c0-0.9,0-1.9,0-2.8c0-0.2,0-0.5,0-0.7c1.2,0,2.3,0,3.5,0c0.1,0,0.1,0,0.1,0.1c0,1.1,0,2.3,0,3.4
			C55,7.5,53.8,7.5,52.6,7.5z"/>
		<path class="st4" d="M15,22.5c0-0.9,0-1.9,0-2.8c0-0.3,0-0.6,0-1l0,0c0,0,0.1,0,0.1,0c2.4,0,4.9,0,7.3,0c0,0,0.1,0,0.1,0
			c0.1,0,0.1,0,0.2,0c1.2,0,2.4,0,3.6,0c0,1.3,0,2.5,0,3.8c-2.4,0-4.9,0-7.3,0c0,0-0.1,0-0.1,0c-0.1,0-0.1,0-0.1,0.1
			c0,1.2,0,2.4,0,3.7c0,0.4,0,0.8,0,1.2c0,0.9,0,1.7,0,2.6c0,1.3,0,2.5,0,3.8c-1.3,0-2.5,0-3.8,0c0-0.1,0-0.2,0-0.2
			c0-1.2,0-2.3,0-3.5c0,0,0-0.1,0-0.1c0-2.4,0-4.9,0-7.3C15,22.6,15,22.5,15,22.5z"/>
		<path class="st0" d="M15,33.8c1.3,0,2.5,0,3.8,0l0,0c0,0.3,0,0.6,0,0.9c0,1,0,1.9,0,2.9c0,0.2,0,0.4,0,0.6c0,1,0,2.1,0,3.1
			c-1.3,0-2.5,0-3.8,0l0,0c0-1.2,0-2.4,0-3.6c0-0.1,0-0.1,0-0.2c0-0.1,0-0.1,0-0.2C15,36.1,15,34.9,15,33.8z"/>
		<path class="st2" d="M15,33.8c0,1.2,0,2.4,0,3.5c0,0.1,0,0.1,0,0.2c-1.2,0-2.4,0-3.6,0c-0.1,0-0.1,0-0.2,0c0-0.3,0-0.7,0-1
			c0-0.9,0-1.8,0-2.8c0-1.1,0-2.2,0-3.3c0-0.2-0.1-0.4,0-0.5c0.1-0.1,0.3,0,0.5,0c1.1,0,2.2,0,3.3,0c0,1.2,0,2.3,0,3.5
			C15,33.6,15,33.7,15,33.8z"/>
		<path class="st1" d="M7.5,26.2c0-1.2,0-2.5,0-3.7c1.2,0,2.4,0,3.6,0c0.1,0,0.1,0,0.2,0c0,1.2,0,2.4,0,3.6c0,0.1,0,0.1-0.1,0.1
			C9.9,26.2,8.7,26.2,7.5,26.2C7.5,26.2,7.5,26.2,7.5,26.2z"/>
		<path class="st3" d="M11.2,33.8c0,0.9,0,1.8,0,2.8c0,0.3,0,0.7,0,1c-1.1,0-2.2,0-3.3,0c-0.2,0-0.4,0.1-0.5,0c-0.1-0.1,0-0.3,0-0.5
			c0-1,0-2.1,0-3.1c0-0.1,0-0.2,0.2-0.2C8.8,33.8,10,33.8,11.2,33.8z"/>
		<path class="st3" d="M11.2,45c-0.6,0-1.1,0-1.7,0c-0.7,0-1.4,0-2.1,0c0-1.1,0-2.2,0-3.2c0-0.1,0-0.3,0-0.4c0-0.1,0-0.1,0.1-0.1
			c1,0,2,0,2.9,0c0.2,0,0.4,0,0.7,0c0,0.2,0,0.4,0,0.5C11.2,42.9,11.2,44,11.2,45z"/>
		<path class="st4" d="M11.2,45c0-1.1,0-2.1,0-3.2c0-0.2,0-0.4,0-0.5c0.9,0,1.8,0,2.7,0c0.3,0,0.7,0,1,0c0,0,0,0,0,0
			c0,1.3,0,2.5,0,3.8l0,0C13.7,45,12.5,45,11.2,45L11.2,45z"/>
		<path class="st4" d="M45.1,18.7c0,1.3,0,2.5,0,3.8c0,0,0,0.1,0,0.1c0,2.4,0,4.9,0,7.3c0,0,0,0.1,0,0.1c0,0.2,0,0.4,0,0.5
			c0,1.1,0,2.1,0,3.2c-1.3,0-2.5,0-3.8,0c0-0.3,0-0.6,0-0.9c0-1,0-1.9,0-2.9c0-0.1,0-0.2,0-0.2c0-1.2,0-2.3,0-3.5c0,0,0-0.1,0-0.1
			c0-1.1,0-2.3,0-3.4c0-0.1,0-0.2-0.2-0.2c-2.5,0-4.9,0-7.4,0c0-0.3,0-0.6,0-0.9c0-1,0-1.9,0-2.9c0.2,0,0.5,0,0.7,0c1,0,2,0,3,0
			c0.1,0,0.1,0,0.2,0c2,0,4,0,6.1,0C44.2,18.7,44.6,18.7,45.1,18.7L45.1,18.7z"/>
		<path class="st0" d="M41.3,33.8c1.3,0,2.5,0,3.8,0c0,0.3,0,0.7,0,1c0,0.9,0,1.8,0,2.7c0,0.9,0,1.8,0,2.7c0,0.3,0,0.7,0,1
			c0,0,0,0,0,0c-1.3,0-2.5,0-3.8,0c0-0.2,0-0.4,0-0.6c0-1.1,0-2.1,0-3.2c0-0.1,0-0.1,0-0.2C41.3,36.1,41.3,35,41.3,33.8L41.3,33.8z"
			/>
		<path class="st2" d="M45.1,37.5c0-0.9,0-1.8,0-2.7c0-0.3,0-0.7,0-1c0-1.1,0-2.1,0-3.2c0-0.2,0-0.4,0-0.5c1.2,0,2.4,0,3.6,0
			c0.1,0,0.2,0,0.2,0.2c0,1.1,0,2.3,0,3.4c0,0.1,0,0.1,0,0.2c0,0.1,0,0.1,0,0.2c0,1.2,0,2.4,0,3.6c-0.9,0-1.8,0-2.7,0
			C45.7,37.5,45.4,37.5,45.1,37.5z"/>
		<path class="st3" d="M52.6,45c-1.2,0-2.4,0-3.6,0c0,0-0.1,0-0.1,0c0-0.1,0-0.1,0-0.2c0-1.2,0-2.4,0-3.6c1.1,0,2.1,0,3.2,0
			c0.1,0,0.3,0,0.4,0c0.1,0,0.1,0,0.1,0.1c0,1,0,1.9,0,2.9C52.6,44.5,52.6,44.8,52.6,45z"/>
		<path class="st1" d="M52.6,22.5c0,1.2,0,2.5,0,3.7c-1.2,0-2.3,0-3.5,0c-0.3,0-0.3,0-0.3-0.3c0-1.2,0-2.3,0-3.5c0.9,0,1.8,0,2.8,0
			C51.9,22.5,52.2,22.5,52.6,22.5z"/>
		<path class="st3" d="M48.8,37.5c0-1.2,0-2.4,0-3.6c0-0.1,0-0.1,0-0.2c1.2,0,2.4,0,3.6,0c0.1,0,0.2,0,0.2,0.2c0,1.2,0,2.3,0,3.5
			c0,0.1,0,0.1-0.1,0.1C51.3,37.5,50.1,37.5,48.8,37.5C48.9,37.5,48.8,37.5,48.8,37.5z"/>
		<path class="st4" d="M48.8,41.3c0,1.2,0,2.4,0,3.6c0,0.1,0,0.1,0,0.2c0,0,0,0,0,0c-1.3,0-2.5,0-3.8,0l0,0c0-1.3,0-2.5,0-3.8
			c0,0,0,0,0,0c1.2,0,2.4,0,3.6,0C48.7,41.3,48.8,41.3,48.8,41.3z"/>
		<path class="st0" d="M33.8,45c0,1.2,0,2.4,0,3.6c0,0.1,0,0.2-0.2,0.2c-2.4,0-4.8,0-7.2,0c-0.1,0-0.2,0-0.2-0.2c0-1.2,0-2.4,0-3.6
			c0-1.3,0-2.5,0-3.8c2.5,0,5,0,7.5,0c0,0.6,0,1.1,0,1.7C33.8,43.6,33.8,44.3,33.8,45z"/>
		<path class="st2" d="M11.2,45c1.3,0,2.5,0,3.8,0c0,1.2,0,2.4,0,3.6c0,0.1,0,0.2,0.2,0.2c1.2,0,2.4,0,3.6,0c0,0.9,0,1.8,0,2.7
			c0,0.4,0,0.7,0,1.1c-1.2,0-2.4,0-3.6,0c-0.1,0-0.1,0-0.2,0c-0.9,0-1.9,0-2.8,0c-0.3,0-0.6,0-0.9,0C11.2,50.1,11.2,47.6,11.2,45
			C11.2,45.1,11.2,45,11.2,45z"/>
		<path class="st2" d="M45.1,45c1.3,0,2.5,0,3.8,0c0,0,0,0,0,0c0,2.5,0,5,0,7.5c-1.2,0-2.4,0-3.6,0c-0.1,0-0.1,0-0.2,0
			c-0.9,0-1.9,0-2.8,0c-0.3,0-0.6,0-1,0c0-1.2,0-2.4,0-3.6c0-0.1,0-0.1,0-0.2c1.2,0,2.4,0,3.6,0c0.1,0,0.2,0,0.2-0.2
			C45.1,47.4,45.1,46.2,45.1,45z"/>
		<path class="st2" d="M18.7,41.3c0-1,0-2.1,0-3.1c0-0.2,0-0.4,0-0.6c1.3,0,2.5,0,3.8,0c0,1.3,0,2.5,0,3.8c0,1.3,0,2.5,0,3.8
			c-0.9,0-1.9,0-2.8,0c-0.3,0-0.6,0-1,0l0,0c0-0.3,0-0.7,0-1C18.8,43.1,18.8,42.2,18.7,41.3z"/>
		<path class="st2" d="M41.3,37.5c0,1.1,0,2.1,0,3.2c0,0.2,0,0.4,0,0.6c0,0.1,0,0.1,0,0.2c0,1.2,0,2.4,0,3.6l0,0c-1.3,0-2.5,0-3.8,0
			c0-1.3,0-2.5,0-3.8c0-1.3,0-2.5,0-3.8C38.8,37.5,40,37.5,41.3,37.5z"/>
		<path class="st4" d="M18.7,48.8c-1.2,0-2.4,0-3.6,0c-0.1,0-0.2,0-0.2-0.2c0-1.2,0-2.4,0-3.6l0,0c1.3,0,2.5,0,3.8,0l0,0
			C18.8,46.3,18.8,47.5,18.7,48.8z"/>
		<path class="st1" d="M22.5,45c0-1.3,0-2.5,0-3.8c1.3,0,2.5,0,3.8,0l0,0c0,1.3,0,2.5,0,3.8c-1.2,0-2.4,0-3.6,0
			C22.6,45,22.6,45,22.5,45z"/>
		<path class="st4" d="M45.1,45c0,1.2,0,2.4,0,3.6c0,0.1,0,0.2-0.2,0.2c-1.2,0-2.4,0-3.6,0c0-0.9,0-1.8,0-2.7c0-0.4,0-0.7,0-1.1l0,0
			C42.5,45,43.8,45,45.1,45L45.1,45z"/>
		<path class="st1" d="M37.5,41.3c0,1.3,0,2.5,0,3.8c-0.9,0-1.9,0-2.8,0c-0.3,0-0.6,0-0.9,0c0-0.7,0-1.4,0-2.1c0-0.6,0-1.1,0-1.7
			l0,0C35,41.3,36.3,41.3,37.5,41.3z"/>
		<path class="st2" d="M7.5,7.5c0,0,0.1,0,0.1,0c2.5,0,4.9,0,7.4,0l0,0c0,0.3,0,0.6,0,0.9c0,0.9,0,1.9,0,2.8c0,0.1,0,0.1,0,0.2
			c0,1.2,0,2.4,0,3.6l0,0c-1.3,0-2.5,0-3.8,0l0,0c0-1.2,0-2.4,0-3.6c0-0.1,0-0.2-0.2-0.2c-1.2,0-2.3,0-3.5,0c-0.1,0-0.1,0-0.1-0.1
			C7.5,9.9,7.5,8.7,7.5,7.5z"/>
		<path class="st3" d="M11.2,18.7c-1.3,0-2.5,0-3.8,0c0-1.2,0-2.4,0-3.6c0-0.1,0-0.2,0.1-0.1c1.2,0,2.4,0,3.6,0c0,0,0,0,0,0
			C11.2,16.2,11.2,17.5,11.2,18.7z"/>
		<path class="st2" d="M45.1,7.5c2.5,0,4.9,0,7.4,0c0,0,0.1,0,0.1,0c0,1.2,0,2.4,0,3.7c0,0.1-0.1,0.1-0.1,0.1c-1.2,0-2.3,0-3.5,0
			c-0.1,0-0.2,0-0.2,0.2c0,1.2,0,2.4,0,3.6c0,0,0,0,0,0c-1.3,0-2.5,0-3.8,0l0,0c0-0.2,0-0.4,0-0.5c0-1.1,0-2.2,0-3.2
			C45.1,10,45.1,8.7,45.1,7.5L45.1,7.5z"/>
		<path class="st3" d="M52.6,18.7c-1.3,0-2.5,0-3.8,0c0-1.3,0-2.5,0-3.8c0,0,0,0,0,0c1.2,0,2.4,0,3.6,0c0.1,0,0.1,0,0.1,0.1
			C52.6,16.3,52.6,17.5,52.6,18.7z"/>
		<path class="st1" d="M26.3,7.5c0,0,0.1,0,0.1,0c2.4,0,4.9,0,7.3,0c0,0,0.1,0,0.1,0c0,1.2,0,2.5,0,3.7c0,0-0.1,0-0.1,0
			c-2.4,0-4.8,0-7.2,0c0,0-0.1,0-0.1,0C26.3,10,26.3,8.7,26.3,7.5z"/>
		<path class="st3" d="M33.8,11.2c0-1.2,0-2.5,0-3.7c0.9,0,1.8,0,2.8,0c0.3,0,0.7,0,1,0c0,0,0,0,0,0c0,1.3,0,2.5,0,3.8
			c-0.5,0-1,0-1.4,0C35.3,11.2,34.6,11.2,33.8,11.2z"/>
		<path class="st3" d="M26.3,7.5c0,1.2,0,2.5,0,3.7c0,0-0.1,0-0.1,0c-1.2,0-2.4,0-3.6,0c0-1.3,0-2.5,0-3.8l0,0
			C23.8,7.5,25,7.5,26.3,7.5z"/>
		<path d="M11.2,18.7c0-1.3,0-2.5,0-3.8c1.3,0,2.5,0,3.8,0c0,1.3,0,2.5,0,3.8l0,0C13.7,18.7,12.5,18.7,11.2,18.7z"/>
		<path d="M48.8,15c0,1.3,0,2.5,0,3.8c-1.3,0-2.5,0-3.8,0l0,0c0-1.3,0-2.5,0-3.8C46.3,15,47.6,15,48.8,15z"/>
		<path class="st3" d="M45.1,7.5c0,1.3,0,2.5,0,3.8c-1.3,0-2.5,0-3.8,0c0-1.3,0-2.5,0-3.8l0,0C42.6,7.5,43.8,7.5,45.1,7.5z"/>
		<path d="M41.3,7.5c0,1.3,0,2.5,0,3.8l0,0c-1.3,0-2.5,0-3.8,0l0,0c0-1.3,0-2.5,0-3.8c1.2,0,2.4,0,3.6,0C41.2,7.5,41.2,7.5,41.3,7.5
			z"/>
		<path d="M22.5,7.5c0,1.3,0,2.5,0,3.8l0,0c-1.3,0-2.5,0-3.8,0l0,0c0-1.3,0-2.5,0-3.8c0,0,0,0,0,0C20,7.5,21.3,7.5,22.5,7.5z"/>
		<path class="st3" d="M18.8,7.5c0,1.3,0,2.5,0,3.8c-1.3,0-2.5,0-3.8,0c0-0.9,0-1.9,0-2.8c0-0.3,0-0.6,0-0.9
			C16.3,7.5,17.5,7.5,18.8,7.5z"/>
		<path class="st2" d="M22.5,11.2c1.2,0,2.4,0,3.6,0c0,0,0.1,0,0.1,0c0,0,0.1,0,0.1,0c2.4,0,4.8,0,7.2,0c0,0,0.1,0,0.1,0
			c0.8,0,1.6,0,2.3,0c0.5,0,1,0,1.4,0c0,0,0,0,0,0c0,1.3,0,2.5,0,3.8l0,0c-1.1,0-2.2,0-3.3,0c-0.1,0-0.3-0.1-0.4,0
			c-0.1,0.1,0,0.3,0,0.4c0,1.1,0,2.2,0,3.3c0,1,0,1.9,0,2.9c0,0.3,0,0.6,0,0.9l0,0c-2.5,0-5,0-7.5,0l0,0c0-1.3,0-2.5,0-3.8
			c0-1.2,0-2.4,0-3.6c0-0.1-0.1-0.1-0.2-0.1c-1.2,0-2.4,0-3.6,0l0,0C22.5,13.7,22.5,12.5,22.5,11.2L22.5,11.2z"/>
		<path class="st3" d="M18.8,26.2c0-1.2,0-2.4,0-3.7c0-0.1,0-0.1,0.1-0.1c0,0,0.1,0,0.1,0c2.4,0,4.9,0,7.3,0l0,0c0,2.5,0,4.9,0,7.4
			c0,0.1,0,0.1-0.1,0.1c-1.2,0-2.4,0-3.6,0l0,0c0-1.2,0-2.4,0-3.6c0-0.1,0-0.2-0.2-0.2C21.2,26.2,20,26.2,18.8,26.2z"/>
		<path class="st2" d="M15,18.7c0-1.3,0-2.5,0-3.8l0,0c0.3,0,0.7,0,1,0c0.9,0,1.8,0,2.8,0c0,0,0.1,0,0.1,0c1.2,0,2.4,0,3.6,0l0,0
			c0,1.3,0,2.5,0,3.8c0,0-0.1,0-0.1,0c-2.4,0-4.9,0-7.3,0C15.1,18.7,15,18.7,15,18.7z"/>
		<path class="st1" d="M22.5,18.7c0-1.3,0-2.5,0-3.8c1.2,0,2.4,0,3.6,0c0.1,0,0.2,0,0.2,0.1c0,1.2,0,2.4,0,3.6c-1.2,0-2.4,0-3.6,0
			C22.6,18.7,22.6,18.7,22.5,18.7z"/>
		<path d="M18.8,26.2c1.2,0,2.4,0,3.6,0c0.1,0,0.2,0,0.2,0.2c0,1.2,0,2.4,0,3.6c-0.1,0-0.1,0-0.2,0c-1.2,0-2.4,0-3.6,0
			c0-0.9,0-1.7,0-2.6C18.8,27,18.8,26.6,18.8,26.2z"/>
		<path class="st0" d="M18.8,30c1.2,0,2.4,0,3.6,0c0.1,0,0.1,0,0.2,0c0,0,0,0,0,0c0,0.1,0,0.1,0,0.2c0,1.2,0,2.4,0,3.6
			c-1.3,0-2.5,0-3.8,0l0,0C18.8,32.5,18.8,31.3,18.8,30z"/>
		<path class="st1" d="M18.8,33.8c1.3,0,2.5,0,3.8,0l0,0c0,1.3,0,2.5,0,3.8l0,0c-1.3,0-2.5,0-3.8,0c0-1,0-1.9,0-2.9
			C18.8,34.4,18.8,34.1,18.8,33.8z"/>
		<path d="M18.8,45c-1.3,0-2.5,0-3.8,0c0-1.3,0-2.5,0-3.8c1.3,0,2.5,0,3.8,0c0,0.9,0,1.8,0,2.8C18.8,44.4,18.8,44.7,18.8,45z"/>
		<path class="st3" d="M33.8,22.5c2.5,0,4.9,0,7.4,0c0.1,0,0.2,0,0.2,0.2c0,1.1,0,2.3,0,3.4c0,0,0,0.1,0,0.1c-1.2,0-2.4,0-3.6,0
			c-0.1,0-0.2,0-0.2,0.2c0,1.2,0,2.4,0,3.6l0,0c-1.2,0-2.4,0-3.6,0c-0.1,0-0.1,0-0.1-0.1C33.8,27.4,33.8,24.9,33.8,22.5L33.8,22.5z"
			/>
		<path class="st2" d="M45.1,15c0,1.3,0,2.5,0,3.8c-0.4,0-0.8,0-1.3,0c-2,0-4,0-6.1,0c-0.1,0-0.1,0-0.2,0c0-1.3,0-2.5,0-3.8l0,0
			c0.4,0,0.7,0,1.1,0c0.9,0,1.8,0,2.7,0c0.1,0,0.1,0,0.2,0C42.7,15,43.9,15,45.1,15L45.1,15z"/>
		<path class="st1" d="M37.5,15c0,1.3,0,2.5,0,3.8c-1,0-2,0-3,0c-0.2,0-0.5,0-0.7,0c0-1.1,0-2.2,0-3.3c0-0.1-0.1-0.3,0-0.4
			c0.1-0.1,0.3,0,0.4,0C35.3,15,36.4,15,37.5,15z"/>
		<path d="M37.5,30c0-1.2,0-2.4,0-3.6c0-0.1,0-0.2,0.2-0.2c1.2,0,2.4,0,3.6,0c0,1.2,0,2.3,0,3.5c0,0.1,0,0.2,0,0.2
			c-0.8,0-1.5,0-2.3,0C38.5,30,38,30,37.5,30z"/>
		<path class="st0" d="M37.5,30c0.5,0,1,0,1.4,0c0.8,0,1.5,0,2.3,0c0,1,0,1.9,0,2.9c0,0.3,0,0.6,0,0.9l0,0c-1.3,0-2.5,0-3.8,0
			c0-0.1,0-0.3,0-0.4C37.5,32.2,37.5,31.1,37.5,30L37.5,30z"/>
		<path class="st1" d="M37.5,33.8c1.3,0,2.5,0,3.8,0c0,1.2,0,2.4,0,3.6c0,0.1,0,0.1,0,0.2c-1.3,0-2.5,0-3.8,0l0,0
			C37.5,36.3,37.5,35,37.5,33.8L37.5,33.8z"/>
		<path d="M45.1,45c-1.3,0-2.5,0-3.8,0c0-1.2,0-2.4,0-3.6c0-0.1,0-0.1,0-0.2c1.3,0,2.5,0,3.8,0C45.1,42.5,45.1,43.8,45.1,45z"/>
		<path class="st1" d="M33.8,41.3c-2.5,0-5,0-7.5,0l0,0c0-1.3,0-2.5,0-3.8c0.1,0,0.1,0,0.2,0c2.4,0,4.8,0,7.2,0c0.1,0,0.1,0,0.2,0
			C33.8,38.8,33.8,40,33.8,41.3L33.8,41.3z"/>
		<path class="st0" d="M26.3,37.5c0,1.3,0,2.5,0,3.8c-1.3,0-2.5,0-3.8,0c0-1.3,0-2.5,0-3.8l0,0C23.8,37.5,25,37.5,26.3,37.5z"/>
		<path class="st0" d="M33.8,41.3c0-1.3,0-2.5,0-3.8c1.3,0,2.5,0,3.8,0l0,0c0,1.3,0,2.5,0,3.8C36.3,41.3,35,41.3,33.8,41.3z"/>
		<path d="M18.8,15c-0.9,0-1.8,0-2.8,0c-0.3,0-0.7,0-1,0c0-1.2,0-2.4,0-3.6c0-0.1,0-0.1,0-0.2c1.3,0,2.5,0,3.8,0l0,0
			C18.8,12.5,18.8,13.7,18.8,15z"/>
		<path d="M45.1,15c-1.2,0-2.4,0-3.6,0c-0.1,0-0.1,0-0.2,0c0-1.3,0-2.5,0-3.8l0,0c1.3,0,2.5,0,3.8,0c0,1.1,0,2.2,0,3.2
			C45.1,14.6,45.1,14.8,45.1,15z"/>
		<path class="st3" d="M41.3,11.2c0,1.3,0,2.5,0,3.8c-0.9,0-1.8,0-2.7,0c-0.4,0-0.7,0-1.1,0c0-1.3,0-2.5,0-3.8
			C38.8,11.2,40,11.2,41.3,11.2z"/>
		<path class="st3" d="M18.8,15c0-1.3,0-2.5,0-3.8c1.3,0,2.5,0,3.8,0c0,1.3,0,2.5,0,3.8c-1.2,0-2.4,0-3.6,0C18.8,15,18.8,15,18.8,15
			z"/>
		<path class="st1" d="M37.5,30c0,1.1,0,2.2,0,3.3c0,0.1,0,0.3,0,0.4l0,0c0,0-0.1,0-0.1,0c-4.9,0-9.8,0-14.8,0c0,0-0.1,0-0.1,0l0,0
			c0-1.2,0-2.4,0-3.6c0-0.1,0-0.1,0-0.2c1.2,0,2.4,0,3.6,0c0.1,0,0.1,0,0.1-0.1c0-2.5,0-4.9,0-7.4c2.5,0,5,0,7.5,0
			c0,2.5,0,4.9,0,7.4c0,0.1,0,0.1,0.1,0.1C35.1,30,36.3,30,37.5,30z"/>
		<path class="st2" d="M22.5,33.8c0,0,0.1,0,0.1,0c4.9,0,9.8,0,14.8,0c0,0,0.1,0,0.1,0c0,1.3,0,2.5,0,3.8c-1.3,0-2.5,0-3.8,0
			c-0.1,0-0.1,0-0.2,0c-2.4,0-4.8,0-7.2,0c-0.1,0-0.1,0-0.2,0c-1.3,0-2.5,0-3.8,0C22.5,36.3,22.5,35,22.5,33.8z"/>
	</g>
	<rect x="3.6" y="0" width="19" height="4"/>
	<rect x="37.4" y="0" width="19" height="4"/>
	<rect x="7.4" y="56" width="18.9" height="4"/>
	<rect x="33.8" y="56" width="18.9" height="4"/>
</g>
</svg>
