<svg xmlns="http://www.w3.org/2000/svg" viewBox="0 -0.5 32 32" shape-rendering="crispEdges">
<metadata>Made with Pixels to Svg https://codepen.io/shshaw/pen/XbxvNj</metadata>
<path stroke="#1a000d" d="M0 0h32M0 1h32M0 2h32M0 3h3M13 3h6M29 3h3M0 4h3M13 4h6M29 4h3M0 5h3M11 5h2M19 5h2M29 5h3M0 6h3M11 6h2M19 6h2M29 6h3M0 7h3M11 7h2M19 7h2M29 7h3M0 8h3M29 8h3M0 9h3M29 9h3M0 10h3M29 10h3M0 11h3M8 11h5M19 11h5M29 11h3M0 12h3M8 12h5M19 12h5M29 12h3M0 13h13M19 13h13M0 14h13M19 14h13M0 15h13M19 15h13M0 16h3M29 16h3M0 17h3M29 17h3M0 18h3M29 18h3M0 19h3M29 19h3M0 20h3M29 20h3M0 21h5M13 21h6M27 21h5M0 22h5M13 22h6M27 22h5M0 23h5M13 23h6M27 23h5M0 24h3M29 24h3M0 25h3M29 25h3M0 26h3M29 26h3M0 27h3M29 27h3M0 28h3M29 28h3M0 29h32M0 30h32M0 31h32" />
<path stroke="#e60077" d="M3 3h10M19 3h10M3 4h10M19 4h10M13 5h6M13 6h6M13 7h6M11 8h2M19 8h2M11 9h2M19 9h2M11 10h2M19 10h2M3 16h10M19 16h10M3 17h10M19 17h10M3 18h10M19 18h10M3 24h2M13 24h6M27 24h2M3 25h2M13 25h6M27 25h2M3 26h2M13 26h6M27 26h2" />
<path stroke="#ff80c1" d="M3 5h8M21 5h8M3 6h8M21 6h8M3 7h8M21 7h8M3 8h8M13 8h6M21 8h8M3 9h8M13 9h6M21 9h8M3 10h8M13 10h6M21 10h8M3 11h5M13 11h6M24 11h5M3 12h5M13 12h6M24 12h5M13 13h6M13 14h6M13 15h6M13 16h6M13 17h6M13 18h6M3 19h26M3 20h26M5 21h8M19 21h8M5 22h8M19 22h8M5 23h8M19 23h8M5 24h8M19 24h8M5 25h8M19 25h8M5 26h8M19 26h8M3 27h26M3 28h26" />
</svg>