<svg xmlns="http://www.w3.org/2000/svg" viewBox="0 -0.5 32 32" shape-rendering="crispEdges">
<metadata>Made with Pixels to Svg https://codepen.io/shshaw/pen/XbxvNj</metadata>
<path stroke="#1a000e" d="M3 0h26M3 1h26M3 2h26M3 3h2M27 3h2M3 4h2M27 4h2M0 5h5M27 5h5M0 6h5M27 6h5M0 7h5M27 7h5M0 8h3M5 8h6M21 8h6M29 8h3M0 9h3M5 9h6M21 9h6M29 9h3M0 10h3M5 10h6M21 10h6M29 10h3M0 11h3M13 11h6M29 11h3M0 12h3M13 12h6M29 12h3M0 13h3M29 13h3M0 14h3M29 14h3M0 15h3M29 15h3M0 16h3M5 16h3M13 16h6M24 16h3M29 16h3M0 17h3M5 17h3M13 17h6M24 17h3M29 17h3M0 18h3M5 18h3M13 18h6M24 18h3M29 18h3M0 19h5M27 19h5M0 20h5M27 20h5M0 21h3M13 21h6M29 21h3M0 22h3M13 22h6M29 22h3M0 23h3M13 23h6M29 23h3M0 24h5M13 24h6M27 24h5M0 25h5M13 25h6M27 25h5M0 26h5M13 26h6M27 26h5M0 27h3M13 27h6M29 27h3M0 28h3M13 28h6M29 28h3M0 29h32M0 30h32M0 31h32" />
<path stroke="#e60082" d="M5 3h22M5 4h22M3 8h2M27 8h2M3 9h2M27 9h2M3 10h2M27 10h2M5 11h6M21 11h6M5 12h6M21 12h6M13 13h6M13 14h6M13 15h6M5 19h3M13 19h6M24 19h3M5 20h3M13 20h6M24 20h3M3 21h2M27 21h2M3 22h2M27 22h2M3 23h2M27 23h2M3 27h2M27 27h2M3 28h2M27 28h2" />
<path stroke="#ff80c8" d="M5 5h22M5 6h22M5 7h22M11 8h10M11 9h10M11 10h10M3 11h2M11 11h2M19 11h2M27 11h2M3 12h2M11 12h2M19 12h2M27 12h2M3 13h10M19 13h10M3 14h10M19 14h10M3 15h10M19 15h10M3 16h2M8 16h5M19 16h5M27 16h2M3 17h2M8 17h5M19 17h5M27 17h2M3 18h2M8 18h5M19 18h5M27 18h2M8 19h5M19 19h5M8 20h5M19 20h5M5 21h8M19 21h8M5 22h8M19 22h8M5 23h8M19 23h8M5 24h8M19 24h8M5 25h8M19 25h8M5 26h8M19 26h8M5 27h8M19 27h8M5 28h8M19 28h8" />
</svg>