<?xml version="1.0" encoding="utf-8"?>
<!-- Generator: Adobe Illustrator 25.4.0, SVG Export Plug-In . SVG Version: 6.00 Build 0)  -->
<svg version="1.1" id="Layer_1" xmlns="http://www.w3.org/2000/svg" xmlns:xlink="http://www.w3.org/1999/xlink" x="0px" y="0px"
	 viewBox="0 0 60 60" style="enable-background:new 0 0 60 60;" xml:space="preserve">
<style type="text/css">
	.st0{fill:#FED30B;}
	.st1{fill:#FE9431;}
	.st2{fill:#B8C2FE;}
	.st3{fill:#3854FE;}
	.st4{fill:#36FEDE;}
</style>
<g>
	<path d="M17.1,60c0-1.4,0-2.8,0-4.2l0,0c0.2,0,0.4,0,0.6,0c1.2,0,2.4,0,3.7,0c1.4,0,2.9,0,4.3,0c0,0,0.1,0,0.1,0c2.8,0,5.6,0,8.4,0
		c0,0,0.1,0,0.1,0c1.4,0,2.9,0,4.3,0c0.1,0,0.1,0,0.2,0c1.4,0,2.8,0,4.1,0l0,0c0,1.4,0,2.8,0,4.2C34.3,60,25.7,60,17.1,60z"/>
	<path d="M55.9,17.2c1.4,0,2.8,0,4.1,0c0,4.3,0,8.6,0,12.9c-1.4,0-2.8,0-4.1,0l0,0C55.9,25.8,55.9,21.5,55.9,17.2L55.9,17.2z"/>
	<path d="M0,17.2c1.4,0,2.7,0,4.1,0l0,0c0,4.3,0,8.6,0,12.9l0,0c-1.4,0-2.7,0-4.1,0C0,25.8,0,21.5,0,17.2z"/>
	<path d="M17.1,4.3c0-1.4,0-2.8,0-4.3c2.9,0,5.7,0,8.6,0c0,1.4,0,2.9,0,4.3c-1.4,0-2.9,0-4.3,0C19.9,4.3,18.5,4.3,17.1,4.3L17.1,4.3
		z"/>
	<path d="M34.3,4.3c0-1.4,0-2.9,0-4.3c2.9,0,5.7,0,8.6,0c0,1.4,0,2.8,0,4.3l0,0c-1.4,0-2.9,0-4.3,0c-0.1,0-0.1,0-0.2,0
		C37,4.3,35.7,4.3,34.3,4.3L34.3,4.3z"/>
	<path d="M47.2,47.2c0,2.8,0,5.6,0,8.4c0,0.1,0,0.1-0.1,0.1c-1.4,0-2.8,0-4.2,0l0,0c0-1.4,0-2.8,0-4.1c0-0.1,0-0.2-0.1-0.2
		c-1.4,0-2.8,0-4.2,0l0,0c0-1.4,0-2.8,0-4.3c0.2,0,0.5,0,0.7,0c1.2,0,2.4,0,3.6,0c0.1,0,0.1,0,0.2,0C44.5,47.2,45.9,47.3,47.2,47.2
		L47.2,47.2z"/>
	<path d="M55.9,30.1c0,4.2,0,8.5,0,12.7c0,0.1,0,0.2-0.2,0.2c-1.4,0-2.8,0-4.1,0c0,0,0,0,0,0c0-0.2,0-0.4,0-0.6c0-1.2,0-2.4,0-3.6
		c0-1.4,0-2.9,0-4.3c0-0.1,0-0.1,0-0.2c0-1.4,0-2.7,0-4.1C53,30.1,54.4,30.1,55.9,30.1L55.9,30.1z"/>
	<path d="M51.6,42.9c0,1.4,0,2.8,0,4.2c0,0.1,0,0.1-0.1,0.1c-1.4,0-2.8,0-4.2,0l0,0c0-1.4,0-2.9,0-4.3
		C48.7,42.9,50.1,42.9,51.6,42.9L51.6,42.9z"/>
	<path d="M17.1,55.8c-1.4,0-2.8,0-4.2,0c-0.1,0-0.1,0-0.1-0.1c0-2.8,0-5.6,0-8.4l0,0c0.2,0,0.4,0,0.6,0c1.2,0,2.5,0,3.7,0
		c0.1,0,0.1,0,0.2,0c1.4,0,2.7,0,4.1,0c0,1.4,0,2.8,0,4.3l0,0c-1.4,0-2.7,0-4.1,0c-0.2,0-0.2,0-0.2,0.2
		C17.1,53.1,17.1,54.5,17.1,55.8L17.1,55.8z"/>
	<path d="M8.4,42.9c-1.4,0-2.8,0-4.1,0c-0.1,0-0.2,0-0.2-0.2c0-4.2,0-8.5,0-12.7l0,0c1.4,0,2.9,0,4.3,0c0,0.2,0,0.3,0,0.5
		c0,1.3,0,2.5,0,3.8c0,1.4,0,2.9,0,4.3c0,0.1,0,0.1,0,0.2C8.4,40.2,8.4,41.6,8.4,42.9L8.4,42.9z"/>
	<path d="M12.7,47.2c-1.4,0-2.8,0-4.2,0c-0.1,0-0.1,0-0.1-0.1c0-1.4,0-2.8,0-4.2l0,0c1.4,0,2.9,0,4.3,0
		C12.7,44.4,12.7,45.8,12.7,47.2L12.7,47.2z"/>
	<path d="M42.9,4.3c1.4,0,2.7,0,4.1,0c0.2,0,0.2,0,0.2,0.2c0,2.7,0,5.5,0,8.2c0,0.2,0,0.2,0.2,0.2c2.7,0,5.5,0,8.2,0
		c0.2,0,0.2,0,0.2,0.2c0,1.4,0,2.7,0,4.1l0,0c-0.2,0-0.4,0-0.6,0c-1.2,0-2.5,0-3.7,0c-0.5,0-0.9,0-1.4,0c-1,0-2,0-3,0
		c-0.1,0-0.1,0-0.2,0c-1.4,0-2.7,0-4.1,0c0-0.2,0-0.4,0-0.7c0-1.2,0-2.4,0-3.6c0-1.4,0-2.8,0-4.3C42.9,7.2,42.9,5.7,42.9,4.3
		L42.9,4.3z"/>
	<path d="M4.1,17.2c0-1.4,0-2.7,0-4.1c0-0.2,0-0.2,0.2-0.2c2.7,0,5.5,0,8.2,0c0.2,0,0.2,0,0.2-0.2c0-2.7,0-5.5,0-8.2
		c0-0.2,0-0.2,0.2-0.2c1.4,0,2.7,0,4.1,0l0,0c0,1.4,0,2.9,0,4.3c0,1.4,0,2.8,0,4.3c0,0.1,0,0.2,0,0.2c0,1.4,0,2.7,0,4.1
		c-0.2,0-0.4,0-0.6,0c-1.2,0-2.5,0-3.7,0c-1.4,0-2.9,0-4.3,0c-0.1,0-0.1,0-0.2,0C6.8,17.2,5.5,17.2,4.1,17.2L4.1,17.2z"/>
	<path class="st0" d="M34.3,55.8c0,0-0.1,0-0.1,0c-2.8,0-5.6,0-8.4,0c0,0-0.1,0-0.1,0c0-1.4,0-2.9,0-4.3l0,0c0.1,0,0.1,0,0.2,0
		c2.6,0,5.1,0,7.7,0c0.2,0,0.5,0,0.7,0l0,0C34.3,53,34.3,54.4,34.3,55.8z"/>
	<path class="st0" d="M38.6,51.5c1.4,0,2.8,0,4.2,0c0.2,0,0.1,0.1,0.1,0.2c0,1.4,0,2.8,0,4.1c-1.4,0-2.8,0-4.1,0c-0.1,0-0.1,0-0.2,0
		C38.6,54.4,38.6,53,38.6,51.5z"/>
	<path class="st1" d="M25.7,51.5c0,1.4,0,2.9,0,4.3c-1.4,0-2.9,0-4.3,0c0-1.4,0-2.9,0-4.3l0,0c0.1,0,0.1,0,0.2,0
		C22.9,51.5,24.3,51.5,25.7,51.5z"/>
	<path class="st0" d="M21.4,51.5c0,1.4,0,2.9,0,4.3c-1.2,0-2.4,0-3.7,0c-0.2,0-0.4,0-0.6,0c0-1.4,0-2.7,0-4.1c0-0.2,0-0.2,0.2-0.2
		C18.6,51.5,20,51.5,21.4,51.5z"/>
	<path class="st1" d="M38.6,51.5c0,1.4,0,2.9,0,4.3c-1.4,0-2.9,0-4.3,0c0-1.4,0-2.9,0-4.3c0.2,0,0.5,0,0.7,0
		C36.2,51.5,37.4,51.5,38.6,51.5L38.6,51.5z"/>
	<path class="st2" d="M51.6,17.2c1.2,0,2.5,0,3.7,0c0.2,0,0.4,0,0.6,0c0,4.3,0,8.6,0,12.9c-1.4,0-2.9,0-4.3,0l0,0
		C51.6,25.8,51.6,21.5,51.6,17.2z"/>
	<path class="st2" d="M4.1,17.2c1.4,0,2.7,0,4.1,0c0.1,0,0.1,0,0.2,0c0,4.3,0,8.6,0,12.9l0,0c-1.4,0-2.9,0-4.3,0
		C4.1,25.8,4.1,21.5,4.1,17.2z"/>
	<path class="st2" d="M21.4,4.3c1.4,0,2.9,0,4.3,0c0,0,0,0,0,0c0,1.4,0,2.9,0,4.3c-1.4,0-2.9,0-4.3,0l0,0
		C21.4,7.2,21.4,5.7,21.4,4.3z"/>
	<path class="st3" d="M21.4,4.3c0,1.4,0,2.9,0,4.3c-1.4,0-2.9,0-4.3,0c0-1.4,0-2.9,0-4.3C18.5,4.3,19.9,4.3,21.4,4.3z"/>
	<path d="M25.7,8.6c0-1.4,0-2.9,0-4.3c2.9,0,5.8,0,8.6,0l0,0c0,0.2,0,0.4,0,0.6c0,1.2,0,2.5,0,3.7c0,1.4,0,2.9,0,4.3
		c0,0.5,0,0.9,0,1.4c0,1,0,2,0,2.9c0,1.4,0,2.8,0,4.3c-0.1,0-0.1,0-0.2,0c-2.8,0-5.5,0-8.3,0c-0.1,0-0.1,0-0.2,0c0-1.4,0-2.8,0-4.3
		c0-1.4,0-2.9,0-4.3C25.7,11.4,25.7,10,25.7,8.6z"/>
	<path class="st3" d="M42.9,4.3c0,1.4,0,2.9,0,4.3c-1.4,0-2.9,0-4.3,0c0-1.4,0-2.9,0-4.3C40,4.3,41.5,4.3,42.9,4.3z"/>
	<path class="st2" d="M38.6,4.3c0,1.4,0,2.9,0,4.3l0,0c-1.4,0-2.9,0-4.3,0c0-1.2,0-2.5,0-3.7c0-0.2,0-0.4,0-0.6c1.4,0,2.7,0,4.1,0
		C38.5,4.3,38.5,4.3,38.6,4.3z"/>
	<path class="st0" d="M42.9,47.2c-1.2,0-2.4,0-3.6,0c-0.2,0-0.5,0-0.7,0l0,0c0-0.9,0-1.8,0-2.7c0-0.5,0-1.1,0-1.6c1.4,0,2.9,0,4.3,0
		C42.9,44.4,42.9,45.8,42.9,47.2z"/>
	<path class="st1" d="M42.9,47.2c0-1.4,0-2.9,0-4.3c0,0,0,0,0,0c1.4,0,2.9,0,4.3,0l0,0c0,1.4,0,2.9,0,4.3c-1.4,0-2.7,0-4.1,0
		C43.1,47.2,43,47.2,42.9,47.2z"/>
	<path class="st4" d="M38.6,51.5c-1.2,0-2.4,0-3.5,0c-0.2,0-0.5,0-0.7,0l0,0c0-1.4,0-2.8,0-4.3c0.1,0,0.1,0,0.2,0c1.4,0,2.7,0,4.1,0
		l0,0C38.6,48.7,38.6,50.1,38.6,51.5z"/>
	<path class="st2" d="M51.6,30.1c0,1.4,0,2.7,0,4.1c0,0.1,0,0.1,0,0.2c-1.4,0-2.9,0-4.3,0c-1.4,0-2.7,0-4.1,0c-0.2,0-0.2,0-0.2-0.2
		c0-1.4,0-2.7,0-4.1c1.4,0,2.9,0,4.3,0C48.7,30.1,50.1,30.1,51.6,30.1L51.6,30.1z"/>
	<path class="st0" d="M47.2,34.4c1.4,0,2.9,0,4.3,0c0,1.4,0,2.9,0,4.3c-1.4,0-2.9,0-4.3,0C47.2,37.2,47.2,35.8,47.2,34.4z"/>
	<path class="st1" d="M47.2,38.7c1.4,0,2.9,0,4.3,0c0,1.2,0,2.4,0,3.6c0,0.2,0,0.4,0,0.6c-1.4,0-2.9,0-4.3,0l0,0
		C47.2,41.5,47.2,40.1,47.2,38.7L47.2,38.7z"/>
	<path class="st1" d="M12.7,47.3c0-1.4,0-2.9,0-4.3l0,0c0.6,0,1.3,0,1.9,0c0.8,0,1.6,0,2.4,0c0,1.4,0,2.9,0,4.3c-1.2,0-2.5,0-3.7,0
		C13.2,47.2,12.9,47.3,12.7,47.3z"/>
	<path class="st0" d="M17.1,47.2c0-1.4,0-2.9,0-4.3c0,0,0,0,0,0c0.1,0,0.1,0,0.2,0c1.4,0,2.7,0,4.1,0c0,0.1,0,0.2,0,0.2
		c0,1.4,0,2.7,0,4.1l0,0c-1.4,0-2.7,0-4.1,0C17.2,47.2,17.1,47.2,17.1,47.2z"/>
	<path class="st4" d="M25.7,51.5c-1.4,0-2.7,0-4.1,0c-0.1,0-0.1,0-0.2,0c0-1.4,0-2.8,0-4.3l0,0c0.3,0,0.6,0,0.9,0c1.2,0,2.3,0,3.5,0
		C25.7,48.7,25.7,50.1,25.7,51.5L25.7,51.5z"/>
	<path class="st2" d="M8.4,34.3c0-1.3,0-2.5,0-3.8c0-0.2,0-0.3,0-0.5l0,0c1.4,0,2.9,0,4.3,0c1.4,0,2.9,0,4.3,0c0,1.3,0,2.7,0,4
		c0,0.2,0,0.2-0.3,0.2c-1.4,0-2.7,0-4.1,0C11.3,34.4,9.8,34.4,8.4,34.3z"/>
	<path class="st0" d="M8.4,34.3c1.4,0,2.9,0,4.3,0c0,1.4,0,2.9,0,4.3l0,0c-1.4,0-2.9,0-4.3,0C8.4,37.2,8.4,35.8,8.4,34.3z"/>
	<path class="st1" d="M8.4,38.7c1.4,0,2.9,0,4.3,0c0,0.1,0,0.1,0,0.2c0,1.3,0,2.7,0,4l0,0c-1.4,0-2.9,0-4.3,0c0-1.4,0-2.7,0-4.1
		C8.4,38.8,8.4,38.7,8.4,38.7z"/>
	<path class="st3" d="M51.6,30.1c-1.4,0-2.9,0-4.3,0c0-0.6,0-1.1,0-1.7c0-0.9,0-1.7,0-2.6c0-0.3,0-0.6,0-0.9c0-1.1,0-2.2,0-3.4
		c0-0.1,0-0.2,0-0.2c0-1.3,0-2.7,0-4c1,0,2,0,3,0c0.5,0,0.9,0,1.4,0C51.6,21.5,51.6,25.8,51.6,30.1z"/>
	<path class="st3" d="M42.9,12.9c0,1.2,0,2.4,0,3.6c0,0.2,0,0.4,0,0.7l0,0c-0.1,0-0.2,0-0.2,0c-1.4,0-2.7,0-4.1,0l0,0
		c0-1.4,0-2.9,0-4.3C40,12.9,41.5,12.9,42.9,12.9z"/>
	<path class="st2" d="M42.9,12.9c-1.4,0-2.9,0-4.3,0l0,0c0-1.4,0-2.9,0-4.3l0,0c1.4,0,2.9,0,4.3,0C42.9,10,42.9,11.4,42.9,12.9z"/>
	<path class="st4" d="M47.2,17.2c0,1.3,0,2.7,0,4c0,0.1,0,0.2,0,0.2c-1.4,0-2.9,0-4.3,0l0,0c0-1.4,0-2.8,0-4.3l0,0
		c1.4,0,2.7,0,4.1,0C47.1,17.2,47.2,17.2,47.2,17.2z"/>
	<path class="st3" d="M12.7,30.1c-1.4,0-2.9,0-4.3,0c0-4.3,0-8.6,0-12.9c1.4,0,2.9,0,4.3,0c0,0.5,0,1.1,0,1.6c0,0.9,0,1.8,0,2.6
		c0,0.3,0,0.6,0,0.9c0,1.1,0,2.2,0,3.4c0,0.1,0,0.1,0,0.2C12.7,27.3,12.7,28.7,12.7,30.1z"/>
	<path class="st4" d="M12.7,21.5c0-0.9,0-1.8,0-2.6c0-0.5,0-1.1,0-1.6c1.2,0,2.5,0,3.7,0c0.2,0,0.4,0,0.6,0l0,0c0,1.4,0,2.8,0,4.3
		l0,0C15.6,21.4,14.2,21.5,12.7,21.5z"/>
	<path class="st3" d="M17.1,17.2c0-1.4,0-2.7,0-4.1c0-0.1,0-0.2,0-0.2c1.4,0,2.9,0,4.3,0l0,0c0,1.4,0,2.9,0,4.3l0,0
		c-0.9,0-1.7,0-2.6,0C18.2,17.2,17.6,17.2,17.1,17.2L17.1,17.2z"/>
	<path class="st2" d="M21.4,12.9c-1.4,0-2.9,0-4.3,0c0-1.4,0-2.8,0-4.3c1.4,0,2.9,0,4.3,0l0,0C21.4,10,21.4,11.4,21.4,12.9z"/>
	<path d="M25.7,51.5c0-1.4,0-2.8,0-4.3l0,0c2.9,0,5.7,0,8.6,0l0,0c0,1.4,0,2.8,0,4.3c-0.2,0-0.5,0-0.7,0c-2.6,0-5.1,0-7.7,0
		C25.8,51.5,25.8,51.5,25.7,51.5z"/>
	<path class="st3" d="M21.4,12.9c0-1.4,0-2.9,0-4.3c1.4,0,2.9,0,4.3,0c0,1.4,0,2.9,0,4.3C24.2,12.9,22.8,12.9,21.4,12.9L21.4,12.9z"
		/>
	<path class="st1" d="M25.7,21.4c0.1,0,0.1,0,0.2,0c2.8,0,5.5,0,8.3,0c0.1,0,0.1,0,0.2,0c0.5,0,1,0,1.5,0c0.9,0,1.8,0,2.8,0
		c0.1,0,0.1,0,0.2,0c1.4,0,2.7,0,4.1,0l0,0c0,0.5,0,1,0,1.5c0,0.9,0,1.9,0,2.8l0,0c-1.4,0-2.8,0-4.2,0c-0.1,0-0.2,0.1-0.2,0.2
		c0,0.5,0,1.1,0,1.6c0,0.8,0,1.7,0,2.5l0,0c-0.1,0-0.3,0-0.4,0c-1.2,0-2.5,0-3.7,0c-0.1,0-0.2,0-0.2,0.1c0,1.4,0,2.8,0,4.2
		c0,0,0,0,0,0c-0.1,0-0.1,0-0.2,0c-2.8,0-5.5,0-8.3,0c-0.1,0-0.1,0-0.2,0l0,0c0-0.1,0-0.3,0-0.4c0-1.2,0-2.5,0-3.7
		c0-0.1,0-0.2-0.1-0.2c-1.4,0-2.8,0-4.2,0l0,0c0-1.4,0-2.8,0-4.2c0-0.1-0.1-0.1-0.2-0.1c-1.4,0-2.8,0-4.1,0l0,0c0-0.1,0-0.1,0-0.2
		c0-1.4,0-2.7,0-4.1l0,0c0.3,0,0.6,0,0.9,0c1.1,0,2.3,0,3.4,0C22.8,21.4,24.2,21.4,25.7,21.4z"/>
	<path class="st2" d="M21.4,12.9c1.4,0,2.9,0,4.3,0c0,1.4,0,2.9,0,4.3c-1.4,0-2.9,0-4.3,0C21.4,15.7,21.4,14.3,21.4,12.9z"/>
	<path class="st2" d="M38.6,12.9c0,1.4,0,2.9,0,4.3c-1.4,0-2.9,0-4.3,0c0-1,0-2,0-2.9c0-0.5,0-0.9,0-1.4
		C35.7,12.9,37.2,12.9,38.6,12.9L38.6,12.9z"/>
	<path class="st4" d="M21.4,17.2c1.4,0,2.9,0,4.3,0c0,1.4,0,2.8,0,4.3c-1.4,0-2.9,0-4.3,0C21.4,20,21.4,18.6,21.4,17.2L21.4,17.2z"
		/>
	<path class="st3" d="M38.6,12.9c-1.4,0-2.9,0-4.3,0c0-1.4,0-2.9,0-4.3c1.4,0,2.9,0,4.3,0C38.6,10,38.6,11.4,38.6,12.9z"/>
	<path class="st4" d="M34.3,17.2c1.4,0,2.9,0,4.3,0c0,0,0,0,0,0c0,1.4,0,2.8,0,4.3c-0.9,0-1.8,0-2.8,0c-0.5,0-1,0-1.5,0
		C34.3,20,34.3,18.6,34.3,17.2z"/>
	<path class="st4" d="M47.2,34.4c0,1.4,0,2.9,0,4.3c0,0,0,0,0,0c-1.4,0-2.7,0-4.1,0c-0.1,0-0.2,0-0.2,0.2c0,1.4,0,2.7,0,4.1
		c0,0,0,0,0,0c-1.4,0-2.9,0-4.3,0l0,0c0-1.3,0-2.7,0-4c0-0.2-0.1-0.2-0.2-0.2c-1.4,0-2.7,0-4.1,0c0-1.4,0-2.9,0-4.3l0,0
		c1.4,0,2.7,0,4.1,0c0.1,0,0.2,0,0.2-0.2c0-1.4,0-2.7,0-4.1c0,0,0,0,0,0c1.4,0,2.9,0,4.3,0l0,0c0,1.4,0,2.7,0,4.1
		c0,0.2,0,0.2,0.2,0.2C44.5,34.3,45.9,34.4,47.2,34.4z"/>
	<path class="st1" d="M38.6,47.2c-1.4,0-2.7,0-4.1,0c-0.1,0-0.1,0-0.2,0l0,0c0-1.4,0-2.9,0-4.3c0.3,0,0.5,0,0.8,0c1.2,0,2.3,0,3.5,0
		l0,0c0,0.5,0,1.1,0,1.6C38.6,45.5,38.6,46.4,38.6,47.2z"/>
	<path class="st2" d="M42.9,42.9c0-1.4,0-2.7,0-4.1c0-0.1,0-0.2,0.2-0.2c1.4,0,2.7,0,4.1,0c0,1.4,0,2.8,0,4.3
		C45.8,42.9,44.4,42.9,42.9,42.9z"/>
	<path class="st4" d="M47.2,25.8c0,0.9,0,1.7,0,2.6c0,0.6,0,1.1,0,1.7c-1.4,0-2.9,0-4.3,0l0,0c0-1.4,0-2.9,0-4.3c0,0,0,0,0,0
		C44.4,25.8,45.8,25.8,47.2,25.8z"/>
	<path class="st2" d="M12.7,42.9c0-1.3,0-2.7,0-4c0-0.1,0-0.1,0-0.2l0,0c1.4,0,2.7,0,4.1,0c0.2,0,0.2,0,0.2,0.2c0,1.3,0,2.7,0,4
		c0,0,0,0,0,0c-0.8,0-1.6,0-2.4,0C14,42.9,13.4,42.9,12.7,42.9z"/>
	<path class="st4" d="M17.1,42.9c0-1.3,0-2.7,0-4c0-0.2,0-0.2-0.2-0.2c-1.4,0-2.7,0-4.1,0c0-1.4,0-2.9,0-4.3c1.4,0,2.7,0,4.1,0
		c0.3,0,0.3,0,0.3-0.2c0-1.3,0-2.7,0-4l0,0c1.4,0,2.9,0,4.3,0l0,0c0,1.4,0,2.7,0,4.1c0,0.1,0,0.2,0.2,0.2c1.4,0,2.8,0,4.2,0
		c0,0,0,0,0,0c0,1.4,0,2.9,0,4.3c-0.1,0-0.1,0-0.2,0c-1.3,0-2.6,0-4,0c-0.1,0-0.2,0-0.2,0.2c0,1.4,0,2.7,0,4.1l0,0
		c-1.4,0-2.7,0-4.1,0C17.2,42.9,17.1,42.9,17.1,42.9z"/>
	<path class="st1" d="M25.7,47.3c-1.2,0-2.3,0-3.5,0c-0.3,0-0.6,0-0.9,0c0-1.4,0-2.7,0-4.1c0-0.1,0-0.2,0-0.2l0,0c0.1,0,0.2,0,0.3,0
		c1.4,0,2.7,0,4.1,0C25.7,44.4,25.7,45.8,25.7,47.3L25.7,47.3z"/>
	<path class="st4" d="M12.7,30.1c0-1.4,0-2.8,0-4.1c0-0.1,0-0.1,0-0.2c1.4,0,2.9,0,4.3,0l0,0c0,1.4,0,2.9,0,4.3l0,0
		C15.6,30.1,14.2,30.1,12.7,30.1z"/>
	<path class="st2" d="M47.2,25.8c-1.4,0-2.9,0-4.3,0c0-0.9,0-1.9,0-2.8c0-0.5,0-1,0-1.5c1.4,0,2.9,0,4.3,0c0,1.1,0,2.2,0,3.4
		C47.2,25.1,47.2,25.4,47.2,25.8z"/>
	<path class="st2" d="M38.6,21.4c0-1.4,0-2.8,0-4.3c1.4,0,2.7,0,4.1,0c0.1,0,0.2,0,0.2,0c0,1.4,0,2.8,0,4.3c-1.4,0-2.7,0-4.1,0
		C38.8,21.4,38.7,21.4,38.6,21.4z"/>
	<path class="st2" d="M17.1,25.8c-1.4,0-2.9,0-4.3,0c0-1.1,0-2.2,0-3.4c0-0.3,0-0.6,0-0.9c1.4,0,2.9,0,4.3,0c0,1.4,0,2.7,0,4.1
		C17.1,25.6,17.1,25.7,17.1,25.8z"/>
	<path class="st2" d="M21.4,17.2c0,1.4,0,2.8,0,4.3c-1.1,0-2.3,0-3.4,0c-0.3,0-0.6,0-0.9,0c0-1.4,0-2.8,0-4.3c0.6,0,1.1,0,1.7,0
		C19.6,17.2,20.5,17.2,21.4,17.2z"/>
	<path class="st0" d="M25.7,47.2c0-1.4,0-2.9,0-4.3c0,0,0.1,0,0.1,0c2.8,0,5.6,0,8.4,0c0,0,0.1,0,0.1,0c0,1.4,0,2.9,0,4.3
		C31.4,47.2,28.6,47.2,25.7,47.2z"/>
	<path class="st0" d="M25.7,38.7c0-1.4,0-2.9,0-4.3c0.1,0,0.1,0,0.2,0c2.8,0,5.5,0,8.3,0c0.1,0,0.1,0,0.2,0c0,1.4,0,2.9,0,4.3
		c0,0-0.1,0-0.1,0C31.4,38.7,28.6,38.7,25.7,38.7C25.7,38.7,25.7,38.7,25.7,38.7z"/>
	<path class="st0" d="M42.9,25.8c0,1.4,0,2.9,0,4.3c-1.4,0-2.9,0-4.3,0c0-0.8,0-1.7,0-2.5c0-0.5,0-1.1,0-1.6c0-0.1,0-0.2,0.2-0.2
		C40.1,25.8,41.5,25.8,42.9,25.8z"/>
	<path d="M25.7,34.3c-1.4,0-2.8,0-4.2,0c-0.1,0-0.2,0-0.2-0.2c0-1.4,0-2.7,0-4.1c1.4,0,2.8,0,4.2,0c0.2,0,0.1,0.1,0.1,0.2
		c0,1.2,0,2.5,0,3.7C25.7,34.1,25.7,34.2,25.7,34.3z"/>
	<path class="st0" d="M17.1,30.1c0-1.4,0-2.9,0-4.3c1.4,0,2.8,0,4.1,0c0.1,0,0.2,0,0.2,0.1c0,1.4,0,2.8,0,4.2
		C19.9,30.1,18.5,30.1,17.1,30.1z"/>
	<path d="M38.6,30.1c0,1.4,0,2.7,0,4.1c0,0.1,0,0.2-0.2,0.2c-1.4,0-2.7,0-4.1,0c0-1.4,0-2.8,0-4.2c0-0.2,0.1-0.1,0.2-0.1
		c1.2,0,2.5,0,3.7,0C38.3,30.1,38.5,30.1,38.6,30.1z"/>
	<path d="M25.7,38.7C25.7,38.7,25.7,38.7,25.7,38.7c2.9,0,5.7,0,8.5,0c0,0,0.1,0,0.1,0c1.4,0,2.7,0,4.1,0c0.2,0,0.2,0,0.2,0.2
		c0,1.3,0,2.7,0,4c-1.2,0-2.3,0-3.5,0c-0.3,0-0.5,0-0.8,0c0,0-0.1,0-0.1,0c-2.8,0-5.6,0-8.4,0c0,0-0.1,0-0.1,0c-1.4,0-2.7,0-4.1,0
		c-0.1,0-0.2,0-0.3,0c0-1.4,0-2.7,0-4.1c0-0.1,0-0.2,0.2-0.2c1.3,0,2.6,0,4,0C25.6,38.7,25.6,38.7,25.7,38.7z"/>
</g>
</svg>
