<svg width="32" height="32" viewBox="0 0 32 32" fill="none" xmlns="http://www.w3.org/2000/svg">
<mask id="mask0_109_2949" style="mask-type:luminance" maskUnits="userSpaceOnUse" x="0" y="0" width="32" height="32">
<path d="M0 32H32V0H0V32Z" fill="white"/>
</mask>
<g mask="url(#mask0_109_2949)">
<g filter="url(#filter0_d_109_2949)">
<path d="M32 31.5H18M14 31.5H0M32 30.5H18M14 30.5H0M32 29.5H30M25 29.5H23M21 29.5H11M9 29.5H7M2 29.5H0M32 28.5H30M25 28.5H23M21 28.5H11M9 28.5H7M2 28.5H0M32 27.5H30M25 27.5H23M21 27.5H11M9 27.5H7M2 27.5H0M32 26.5H27M18 26.5H14M5 26.5H0M32 25.5H27M18 25.5H14M5 25.5H0M32 24.5H30M27 24.5H25M18 24.5H14M7 24.5H5M2 24.5H0M32 23.5H30M27 23.5H25M18 23.5H14M7 23.5H5M2 23.5H0M32 22.5H27M23 22.5H21M18 22.5H14M11 22.5H9M5 22.5H0M32 21.5H27M23 21.5H21M18 21.5H14M11 21.5H9M5 21.5H0M32 20.5H27M18 20.5H14M5 20.5H0M32 19.5H27M18 19.5H14M5 19.5H0M32 18.5H27M18 18.5H14M5 18.5H0M32 17.5H30M25 17.5H21M11 17.5H7M2 17.5H0M32 16.5H30M25 16.5H21M11 16.5H7M2 16.5H0M32 15.5H27M25 15.5H23M9 15.5H7M5 15.5H0M32 14.5H27M25 14.5H23M9 14.5H7M5 14.5H0M32 13.5H30M23 13.5H21M18 13.5H14M11 13.5H9M2 13.5H0M32 12.5H30M23 12.5H21M18 12.5H14M11 12.5H9M2 12.5H0M32 11.5H30M23 11.5H21M18 11.5H14M11 11.5H9M2 11.5H0M32 10.5H30M23 10.5H18M14 10.5H9M2 10.5H0M32 9.5H30M23 9.5H18M14 9.5H9M2 9.5H0M32 8.5H30M23 8.5H18M14 8.5H9M2 8.5H0M32 7.5H30M23 7.5H18M14 7.5H9M2 7.5H0M32 6.5H27M23 6.5H9M5 6.5H0M32 5.5H27M23 5.5H9M5 5.5H0M32 4.5H30M27 4.5H23M9 4.5H5M2 4.5H0M32 3.5H30M27 3.5H23M9 3.5H5M2 3.5H0M32 2.5H30M27 2.5H23M9 2.5H5M2 2.5H0M32 1.5H0M32 0.5H0" stroke="#161A00"/>
<path d="M30 29.5H27M5 29.5H2M30 28.5H27M5 28.5H2M30 27.5H27M5 27.5H2M27 26.5H25M7 26.5H5M27 25.5H25M7 25.5H5M30 24.5H27M23 24.5H21M11 24.5H9M5 24.5H2M30 23.5H27M23 23.5H21M11 23.5H9M5 23.5H2M25 20.5H21M11 20.5H7M25 19.5H21M11 19.5H7M25 18.5H21M11 18.5H7M30 17.5H27M5 17.5H2M30 16.5H27M5 16.5H2M23 15.5H21M18 15.5H14M11 15.5H9M23 14.5H21M18 14.5H14M11 14.5H9M21 13.5H18M14 13.5H11M21 12.5H18M14 12.5H11M21 11.5H18M14 11.5H11M30 8.5H27M18 8.5H14M5 8.5H2M30 7.5H27M18 7.5H14M5 7.5H2M27 6.5H23M9 6.5H5M27 5.5H23M9 5.5H5M30 4.5H27M23 4.5H9M5 4.5H2M30 3.5H27M23 3.5H9M5 3.5H2M30 2.5H27M23 2.5H9M5 2.5H2" stroke="#C3E600"/>
<path d="M27 29.5H25M23 29.5H21M11 29.5H9M7 29.5H5M27 28.5H25M23 28.5H21M11 28.5H9M7 28.5H5M27 27.5H25M23 27.5H21M11 27.5H9M7 27.5H5M25 26.5H18M14 26.5H7M25 25.5H18M14 25.5H7M25 24.5H23M21 24.5H18M14 24.5H11M9 24.5H7M25 23.5H23M21 23.5H18M14 23.5H11M9 23.5H7M27 22.5H23M21 22.5H18M14 22.5H11M9 22.5H5M27 21.5H23M21 21.5H18M14 21.5H11M9 21.5H5M27 20.5H25M21 20.5H18M14 20.5H11M7 20.5H5M27 19.5H25M21 19.5H18M14 19.5H11M7 19.5H5M27 18.5H25M21 18.5H18M14 18.5H11M7 18.5H5M27 17.5H25M21 17.5H11M7 17.5H5M27 16.5H25M21 16.5H11M7 16.5H5M27 15.5H25M21 15.5H18M14 15.5H11M7 15.5H5M27 14.5H25M21 14.5H18M14 14.5H11M7 14.5H5M30 13.5H23M9 13.5H2M30 12.5H23M9 12.5H2M30 11.5H23M9 11.5H2M30 10.5H23M18 10.5H14M9 10.5H2M30 9.5H23M18 9.5H14M9 9.5H2M27 8.5H23M9 8.5H5M27 7.5H23M9 7.5H5" stroke="#ECFF80"/>
</g>
</g>
<defs>
<filter id="filter0_d_109_2949" x="-4" y="0" width="40" height="40" filterUnits="userSpaceOnUse" color-interpolation-filters="sRGB">
<feFlood flood-opacity="0" result="BackgroundImageFix"/>
<feColorMatrix in="SourceAlpha" type="matrix" values="0 0 0 0 0 0 0 0 0 0 0 0 0 0 0 0 0 0 127 0" result="hardAlpha"/>
<feOffset dy="4"/>
<feGaussianBlur stdDeviation="2"/>
<feComposite in2="hardAlpha" operator="out"/>
<feColorMatrix type="matrix" values="0 0 0 0 0 0 0 0 0 0 0 0 0 0 0 0 0 0 0.25 0"/>
<feBlend mode="normal" in2="BackgroundImageFix" result="effect1_dropShadow_109_2949"/>
<feBlend mode="normal" in="SourceGraphic" in2="effect1_dropShadow_109_2949" result="shape"/>
</filter>
</defs>
</svg>
