<?xml version="1.0" encoding="utf-8"?>
<!-- Generator: Adobe Illustrator 25.4.0, SVG Export Plug-In . SVG Version: 6.00 Build 0)  -->
<svg version="1.1" id="Layer_1" xmlns="http://www.w3.org/2000/svg" xmlns:xlink="http://www.w3.org/1999/xlink" x="0px" y="0px"
	 viewBox="0 0 60 60" style="enable-background:new 0 0 60 60;" xml:space="preserve">
<style type="text/css">
	.st0{fill:#FEA004;}
	.st1{fill:#36FEDE;}
	.st2{fill:#0058F7;}
	.st3{fill:#B8C2FE;}
	.st4{fill:#FED30B;}
</style>
<g>
	<path d="M12.7,0c11.5,0,22.9,0,34.4,0c0,1.3,0,2.6,0,3.9c-0.2,0-0.5,0-0.7,0c-1.2,0-2.4,0-3.6,0c-1.4,0-2.9,0-4.3,0
		c-0.1,0-0.1,0-0.2,0c-5.6,0-11.3,0-16.9,0c-0.1,0-0.1,0-0.2,0c-0.4,0-0.8,0-1.2,0c-1,0-2.1,0-3.1,0c-0.1,0-0.1,0-0.2,0
		c-1.4,0-2.7,0-4.1,0C12.7,2.6,12.7,1.3,12.7,0z"/>
	<path d="M47.1,55.9c0,1.4,0,2.7,0,4.1c-2.9,0-5.7,0-8.6,0c0-1.4,0-2.7,0-4.1c1.4,0,2.9,0,4.3,0C44.3,55.9,45.7,55.9,47.1,55.9
		L47.1,55.9z"/>
	<path d="M34.2,60c-2.9,0-5.7,0-8.6,0c0-1.4,0-2.7,0-4.1c2.9,0,5.7,0,8.6,0C34.2,57.3,34.2,58.6,34.2,60z"/>
	<path d="M12.7,60c0-1.4,0-2.7,0-4.1l0,0c1.4,0,2.9,0,4.3,0c1.4,0,2.9,0,4.3,0c0,1.4,0,2.7,0,4.1C18.4,60,15.6,60,12.7,60z"/>
	<path d="M60,47.3c-0.6,0-1.1,0-1.7,0c-0.8,0-1.7,0-2.5,0l0,0c0-1.5,0-2.9,0-4.4c0.8,0,1.7,0,2.5,0c0.6,0,1.1,0,1.7,0c0,0,0,0,0,0
		C60,44.3,60,45.8,60,47.3C60,47.2,60,47.2,60,47.3z"/>
	<path d="M55.7,25.6c1.3,0,2.7,0,4,0c0.1,0,0.1,0,0.2,0c0,0,0,0,0,0c0,1.4,0,2.9,0,4.3c0,0,0,0,0,0c0,0,0,0-0.1,0
		c-1.4,0-2.8,0-4.2,0C55.7,28.5,55.7,27,55.7,25.6L55.7,25.6z"/>
	<path d="M60,21.2c-0.6,0-1.2,0-1.7,0c-0.8,0-1.7,0-2.5,0l0,0c0-1.4,0-2.9,0-4.3l0,0c1.3,0,2.7,0,4,0c0.1,0,0.1,0,0.2,0c0,0,0,0,0,0
		C60,18.3,60,19.8,60,21.2C60,21.2,60,21.2,60,21.2z"/>
	<path d="M60,34.2c0,1.4,0,2.9,0,4.3c0,0,0,0,0,0c-0.1,0-0.1,0-0.2,0c-1.3,0-2.7,0-4,0c0-1.4,0-2.9,0-4.3c0.8,0,1.6,0,2.4,0
		C58.8,34.2,59.4,34.2,60,34.2C60,34.2,60,34.2,60,34.2z"/>
	<path d="M4.1,47.2c-1.4,0-2.7,0-4.1,0c0-1.5,0-2.9,0-4.4c1.4,0,2.7,0,4.1,0C4.1,44.3,4.1,45.8,4.1,47.2L4.1,47.2z"/>
	<path d="M4.1,21.2c-1.4,0-2.7,0-4.1,0c0-1.4,0-2.9,0-4.3c1.4,0,2.7,0,4.1,0l0,0C4.1,18.3,4.1,19.8,4.1,21.2L4.1,21.2z"/>
	<path d="M0,25.6c1.4,0,2.7,0,4.1,0l0,0c0,1.4,0,2.9,0,4.3c-1.4,0-2.7,0-4.1,0C0,28.5,0,27,0,25.6z"/>
	<path d="M4.1,38.6c-1.4,0-2.7,0-4.1,0c0-1.4,0-2.9,0-4.3c1.4,0,2.7,0,4.1,0C4.1,35.7,4.1,37.1,4.1,38.6L4.1,38.6z"/>
	<path class="st0" d="M60,16.9C60,16.9,60,16.9,60,16.9C60,16.9,60,16.9,60,16.9C60,16.9,60,16.9,60,16.9z"/>
	<path class="st0" d="M60,42.9C60,42.9,60,42.9,60,42.9C60,42.9,60,42.9,60,42.9C60,42.9,60,42.9,60,42.9z"/>
	<path class="st0" d="M60,38.6C60,38.6,60,38.6,60,38.6C60,38.6,60,38.6,60,38.6C60,38.6,60,38.6,60,38.6z"/>
	<path class="st0" d="M60,47.3C60,47.2,60,47.2,60,47.3C60,47.3,60,47.3,60,47.3C60,47.3,60,47.3,60,47.3z"/>
	<path class="st0" d="M60,21.2C60,21.2,60,21.2,60,21.2C60,21.2,60,21.2,60,21.2C60,21.3,60,21.2,60,21.2z"/>
	<path class="st0" d="M60,25.6C60,25.6,60,25.6,60,25.6C60,25.6,60,25.6,60,25.6C60,25.6,60,25.6,60,25.6z"/>
	<path class="st0" d="M60,34.2C60,34.2,60,34.2,60,34.2C60,34.2,60,34.2,60,34.2C60,34.2,60,34.2,60,34.2z"/>
	<path class="st0" d="M60,29.9C60,29.9,60,29.9,60,29.9C60,29.9,60,29.9,60,29.9C60,29.9,60,29.9,60,29.9z"/>
	<path class="st0" d="M60,0C60,0,60,0,60,0C60,0,60,0,60,0z"/>
	<path class="st0" d="M60,60C60,60,60,60,60,60C60,60,60,60,60,60z"/>
	<path class="st1" d="M21.3,3.9c0.1,0,0.1,0,0.2,0c5.6,0,11.3,0,16.9,0c0.1,0,0.1,0,0.2,0c0,1.4,0,2.9,0,4.3c-0.1,0-0.1,0-0.2,0
		c-5.6,0-11.3,0-16.9,0c-0.1,0-0.1,0-0.2,0C21.3,6.8,21.3,5.4,21.3,3.9z"/>
	<path class="st1" d="M12.7,3.9c1.4,0,2.7,0,4.1,0c0.1,0,0.1,0,0.2,0c0,1.4,0,2.9,0,4.3l0,0c-1.4,0-2.9,0-4.3,0
		C12.7,6.8,12.7,5.4,12.7,3.9L12.7,3.9z"/>
	<path class="st0" d="M17,8.3c0-1.4,0-2.9,0-4.3c1,0,2.1,0,3.1,0c0.4,0,0.8,0,1.2,0c0,1.4,0,2.9,0,4.3c-0.1,0-0.1,0-0.2,0
		C19.7,8.3,18.4,8.3,17,8.3z"/>
	<path class="st0" d="M38.5,8.2c0-1.4,0-2.9,0-4.3c1.4,0,2.9,0,4.3,0c0,1.4,0,2.9,0,4.3c-0.2,0-0.5,0-0.7,0
		C40.9,8.2,39.7,8.2,38.5,8.2z"/>
	<path class="st1" d="M42.8,8.3c0-1.4,0-2.9,0-4.3c1.2,0,2.4,0,3.6,0c0.2,0,0.5,0,0.7,0c0,0,0,0,0,0c0,1.4,0,2.9,0,4.3
		C45.7,8.3,44.3,8.3,42.8,8.3L42.8,8.3z"/>
	<path d="M51.4,8.3c1.4,0,2.7,0,4.1,0c0.2,0,0.2,0,0.2,0.2c0,2.8,0,5.6,0,8.5l0,0c-1.4,0-2.9,0-4.3,0c0-0.1,0-0.2,0-0.3
		c0-1.4,0-2.7,0-4.1c0-0.1,0-0.1,0-0.2C51.4,11,51.4,9.6,51.4,8.3L51.4,8.3z"/>
	<path d="M47.1,8.3c0-1.4,0-2.9,0-4.3c1.4,0,2.7,0,4.1,0c0.1,0,0.2,0,0.2,0.2c0,1.4,0,2.8,0,4.1l0,0C50,8.3,48.6,8.2,47.1,8.3
		L47.1,8.3z"/>
	<path d="M4.1,16.9c0-2.8,0-5.6,0-8.5c0-0.2,0-0.2,0.2-0.2c1.4,0,2.7,0,4.1,0l0,0c0,0.2,0,0.4,0,0.6c0,1.2,0,2.5,0,3.7
		c0,0.2,0,0.4,0,0.6c0,1.3,0,2.5,0,3.8C6.9,16.9,5.5,16.9,4.1,16.9L4.1,16.9z"/>
	<path d="M12.7,3.9c0,1.4,0,2.9,0,4.3c0,0,0,0,0,0c-1.4,0-2.9,0-4.3,0l0,0c0-1.4,0-2.8,0-4.1c0-0.2,0-0.2,0.2-0.2
		C9.9,3.9,11.3,3.9,12.7,3.9z"/>
	<path d="M51.4,51.6c0,1.4,0,2.8,0,4.1c0,0.2,0,0.2-0.2,0.2c-1.4,0-2.7,0-4.1,0l0,0c0-1.4,0-2.9,0-4.3C48.6,51.6,50,51.6,51.4,51.6
		L51.4,51.6z"/>
	<path d="M55.7,47.2c0,1.4,0,2.8,0,4.1c0,0.2,0,0.2-0.2,0.2c-1.4,0-2.7,0-4.1,0l0,0c0-1.4,0-2.9,0-4.3
		C52.9,47.2,54.3,47.2,55.7,47.2C55.7,47.2,55.7,47.2,55.7,47.2z"/>
	<path d="M12.7,55.9c-1.4,0-2.8,0-4.2,0c-0.2,0-0.2,0-0.2-0.2c0-1.4,0-2.8,0-4.1l0,0c1.4,0,2.9,0,4.3,0C12.7,53,12.7,54.5,12.7,55.9
		L12.7,55.9z"/>
	<path d="M8.4,51.6c-1.4,0-2.7,0-4.1,0c-0.2,0-0.2,0-0.2-0.2c0-1.4,0-2.8,0-4.1l0,0c1.4,0,2.9,0,4.3,0C8.4,48.7,8.4,50.1,8.4,51.6
		L8.4,51.6z"/>
	<path class="st2" d="M47.1,51.6c0,1.4,0,2.9,0,4.3c-1.4,0-2.9,0-4.3,0c0-1.4,0-2.9,0-4.3C44.3,51.6,45.7,51.6,47.1,51.6L47.1,51.6z
		"/>
	<path class="st0" d="M42.8,51.6c0,1.4,0,2.9,0,4.3c-1.4,0-2.9,0-4.3,0l0,0c0-1.4,0-2.9,0-4.3C40,51.6,41.4,51.6,42.8,51.6
		L42.8,51.6z"/>
	<path class="st2" d="M34.2,55.9c-2.9,0-5.7,0-8.6,0l0,0c0-1.4,0-2.9,0-4.3c2.9,0,5.7,0,8.6,0C34.2,53,34.2,54.5,34.2,55.9
		L34.2,55.9z"/>
	<path class="st0" d="M21.3,55.9c-1.4,0-2.9,0-4.3,0c0-1.4,0-2.9,0-4.3c1.4,0,2.9,0,4.3,0C21.3,53,21.3,54.5,21.3,55.9L21.3,55.9z"
		/>
	<path class="st2" d="M17,51.6c0,1.4,0,2.9,0,4.3c-1.4,0-2.9,0-4.3,0c0-1.4,0-2.9,0-4.3l0,0C14.2,51.6,15.6,51.6,17,51.6L17,51.6z"
		/>
	<path class="st2" d="M55.7,47.2c-1.4,0-2.9,0-4.3,0l0,0c0-1.5,0-2.9,0-4.4l0,0c1.4,0,2.9,0,4.3,0l0,0
		C55.7,44.3,55.7,45.8,55.7,47.2z"/>
	<path d="M55.7,21.2c0,1.5,0,2.9,0,4.4l0,0c-1.4,0-2.9,0-4.3,0c0-1.5,0-2.9,0-4.4C52.9,21.2,54.3,21.2,55.7,21.2L55.7,21.2z"/>
	<path class="st1" d="M51.4,25.6c1.4,0,2.9,0,4.3,0c0,1.4,0,2.9,0,4.3l0,0c-0.2,0-0.4,0-0.6,0c-1.2,0-2.4,0-3.7,0
		c-1.4,0-2.9,0-4.3,0c0-1.4,0-2.9,0-4.3C48.6,25.6,50,25.6,51.4,25.6z"/>
	<path class="st1" d="M55.7,21.2c-1.4,0-2.9,0-4.3,0l0,0c0-1.4,0-2.9,0-4.3l0,0c1.4,0,2.9,0,4.3,0C55.7,18.3,55.7,19.8,55.7,21.2z"
		/>
	<path class="st0" d="M55.7,34.2c0,1.4,0,2.9,0,4.3l0,0c-1.4,0-2.7,0-4.1,0c-0.1,0-0.2,0-0.2,0.2c0,1.4,0,2.8,0,4.1l0,0
		c-0.5,0-0.9,0-1.4,0c-1,0-1.9,0-2.9,0c0-0.7,0-1.4,0-2.1c0-2.2,0-4.3,0-6.5c0.2,0,0.5,0,0.7,0c1.2,0,2.4,0,3.6,0c0.1,0,0.1,0,0.2,0
		C53,34.2,54.4,34.2,55.7,34.2L55.7,34.2z"/>
	<path d="M51.4,42.9c0-1.4,0-2.8,0-4.1c0-0.2,0-0.2,0.2-0.2c1.4,0,2.7,0,4.1,0c0,1.4,0,2.9,0,4.3C54.3,42.9,52.9,42.9,51.4,42.9z"/>
	<path d="M55.7,34.2c-1.4,0-2.7,0-4.1,0c-0.1,0-0.1,0-0.2,0c0-1.4,0-2.9,0-4.3c1.2,0,2.4,0,3.7,0c0.2,0,0.4,0,0.6,0
		C55.7,31.3,55.7,32.8,55.7,34.2z"/>
	<path d="M4.1,25.6c0-1.5,0-2.9,0-4.4l0,0c1.4,0,2.9,0,4.3,0c0,1.5,0,2.9,0,4.4C6.9,25.6,5.5,25.6,4.1,25.6L4.1,25.6z"/>
	<path class="st2" d="M8.4,47.2c-1.4,0-2.9,0-4.3,0c0-1.5,0-2.9,0-4.4l0,0c1.4,0,2.9,0,4.3,0l0,0C8.4,44.3,8.4,45.8,8.4,47.2
		L8.4,47.2z"/>
	<path d="M34.2,55.9c0-1.4,0-2.9,0-4.3l0,0c1.4,0,2.9,0,4.3,0l0,0c0,1.4,0,2.9,0,4.3C37.1,55.9,35.7,55.9,34.2,55.9z"/>
	<path class="st1" d="M8.4,21.2c-1.4,0-2.9,0-4.3,0c0-1.4,0-2.9,0-4.3c1.4,0,2.9,0,4.3,0c0,0,0,0,0,0C8.4,18.3,8.4,19.8,8.4,21.2
		L8.4,21.2z"/>
	<path d="M8.4,42.9c-1.4,0-2.9,0-4.3,0c0-1.4,0-2.9,0-4.3l0,0c1.4,0,2.7,0,4.1,0c0.1,0,0.2,0,0.2,0.2C8.4,40.1,8.4,41.5,8.4,42.9z"
		/>
	<path class="st1" d="M4.1,25.6c1.4,0,2.9,0,4.3,0c1.4,0,2.9,0,4.3,0c0,1.4,0,2.9,0,4.3c-1.4,0-2.9,0-4.3,0c-0.1,0-0.1,0-0.2,0
		c-1.4,0-2.7,0-4.1,0l0,0C4.1,28.5,4.1,27,4.1,25.6z"/>
	<path class="st0" d="M8.4,42.9c0-1.4,0-2.8,0-4.1c0-0.2,0-0.2-0.2-0.2c-1.4,0-2.7,0-4.1,0c0-1.4,0-2.9,0-4.3l0,0c0.2,0,0.5,0,0.7,0
		c1.2,0,2.4,0,3.6,0c0.1,0,0.1,0,0.2,0c1.4,0,2.7,0,4.1,0c0,2.9,0,5.8,0,8.6C11.3,42.9,9.8,42.9,8.4,42.9L8.4,42.9z"/>
	<path d="M21.3,55.9c0-1.4,0-2.9,0-4.3l0,0c1.4,0,2.9,0,4.3,0l0,0c0,1.4,0,2.9,0,4.3C24.2,55.9,22.7,55.9,21.3,55.9z"/>
	<path d="M8.4,34.2c-1.2,0-2.4,0-3.6,0c-0.2,0-0.5,0-0.7,0c0-1.4,0-2.9,0-4.3c1.4,0,2.7,0,4.1,0c0.1,0,0.1,0,0.2,0
		C8.4,31.4,8.4,32.8,8.4,34.2z"/>
	<path d="M38.5,8.2c1.2,0,2.4,0,3.6,0c0.2,0,0.5,0,0.7,0l0,0c0,1.4,0,2.8,0,4.1c0,0.1,0,0.2,0.2,0.2c1.4,0,2.7,0,4.1,0l0,0
		c0,1.4,0,2.9,0,4.3l0,0c-1.4,0-2.7,0-4.1,0c-0.2,0-0.2,0.1-0.2,0.2c0,1.4,0,2.7,0,4.1c-1.4,0-2.8,0-4.1,0c-0.1,0-0.1,0-0.1,0.1
		c0,1.4,0,2.8,0,4.2c-0.2,0-0.5,0-0.7,0c-1.2,0-2.4,0-3.6,0c0,0-0.1,0-0.1,0c-2.8,0-5.6,0-8.3,0c0,0-0.1,0-0.1,0c-0.1,0-0.2,0-0.2,0
		c-1.4,0-2.7,0-4.1,0c0-1.4,0-2.8,0-4.2c0-0.1,0-0.1-0.1-0.1c-1.4,0-2.8,0-4.1,0c0-1.4,0-2.8,0-4.2c0-0.1,0-0.2-0.2-0.2
		c-1.4,0-2.8,0-4.1,0l0,0c0-1.4,0-2.9,0-4.3l0,0c1.4,0,2.7,0,4.1,0c0.2,0,0.2,0,0.2-0.2c0-1.4,0-2.8,0-4.1l0,0c1.4,0,2.7,0,4.1,0
		c0.1,0,0.1,0,0.2,0c0.1,0,0.1,0,0.2,0c5.6,0,11.3,0,16.9,0C38.4,8.3,38.5,8.2,38.5,8.2z M36.4,16.9c0.7,0,1.3,0,2,0
		c0.1,0,0.1,0,0.1-0.1c0-1.3,0-2.7,0-4c0-0.1,0-0.1-0.1-0.1c-1.3,0-2.7,0-4,0c-0.1,0-0.1,0-0.1,0.1c0,1.3,0,2.7,0,4
		c0,0.1,0,0.1,0.1,0.1C35,16.9,35.7,16.9,36.4,16.9z M23.5,12.6c-0.7,0-1.3,0-2,0c-0.1,0-0.1,0-0.1,0.2c0,1.3,0,2.7,0,4
		c0,0.1,0,0.1,0.1,0.1c1.3,0,2.7,0,4,0c0.1,0,0.1,0,0.1-0.2c0-1.3,0-2.7,0-4c0-0.1,0-0.1-0.1-0.1C24.8,12.6,24.1,12.6,23.5,12.6z"/>
	<path class="st0" d="M17,8.2c0,1.4,0,2.8,0,4.1c0,0.1,0,0.2-0.2,0.2c-1.4,0-2.7,0-4.1,0c0-1.4,0-2.9,0-4.3c0,0,0,0,0,0
		C14.1,8.3,15.6,8.3,17,8.2z"/>
	<path class="st0" d="M47.1,12.6c-1.4,0-2.7,0-4.1,0c-0.2,0-0.2,0-0.2-0.2c0-1.4,0-2.8,0-4.1c1.4,0,2.9,0,4.3,0l0,0
		C47.1,9.7,47.1,11.1,47.1,12.6z"/>
	<path class="st1" d="M47.1,12.6c0-1.4,0-2.9,0-4.3c1.4,0,2.9,0,4.3,0c0,1.4,0,2.8,0,4.1c0,0.1,0,0.1,0,0.2
		C50,12.6,48.6,12.6,47.1,12.6L47.1,12.6z"/>
	<path class="st0" d="M47.1,12.6c1.4,0,2.9,0,4.3,0c0,1.4,0,2.7,0,4.1c0,0.1,0,0.2,0,0.3l0,0c-0.3,0-0.6,0-1,0c-1.1,0-2.2,0-3.3,0
		C47.1,15.5,47.1,14,47.1,12.6z"/>
	<path class="st1" d="M12.7,8.2c0,1.4,0,2.9,0,4.3l0,0c-1.4,0-2.9,0-4.3,0c0-1.2,0-2.5,0-3.7c0-0.2,0-0.4,0-0.6
		C9.8,8.3,11.3,8.2,12.7,8.2z"/>
	<path class="st0" d="M8.4,12.6c1.4,0,2.9,0,4.3,0c0,1.4,0,2.9,0,4.3c-1.3,0-2.6,0-3.8,0c-0.2,0-0.3,0-0.5,0l0,0c0-1.3,0-2.5,0-3.8
		C8.4,13,8.4,12.8,8.4,12.6z"/>
	<path class="st2" d="M51.4,47.2c0,1.4,0,2.9,0,4.3c-1.4,0-2.9,0-4.3,0l0,0c0-1.4,0-2.9,0-4.3C48.6,47.2,50,47.2,51.4,47.2
		L51.4,47.2z"/>
	<path class="st2" d="M8.4,51.6c0-1.4,0-2.9,0-4.3l0,0c0.5,0,1.1,0,1.6,0c0.9,0,1.8,0,2.7,0c0,1.4,0,2.9,0,4.3l0,0
		C11.3,51.6,9.8,51.6,8.4,51.6z"/>
	<path class="st3" d="M47.1,47.2c0,1.4,0,2.9,0,4.3c-1.4,0-2.9,0-4.3,0l0,0c0-1.4,0-2.9,0-4.3c0.2,0,0.4,0,0.6,0
		C44.7,47.2,45.9,47.2,47.1,47.2z"/>
	<path class="st2" d="M42.8,47.2c0,1.4,0,2.9,0,4.3c-1.4,0-2.9,0-4.3,0l0,0c0-1.4,0-2.9,0-4.3C40,47.2,41.4,47.2,42.8,47.2
		L42.8,47.2z"/>
	<path d="M34.2,51.6c-2.9,0-5.7,0-8.6,0l0,0c0-1.4,0-2.9,0-4.3c2.9,0,5.7,0,8.6,0C34.2,48.7,34.2,50.1,34.2,51.6L34.2,51.6z"/>
	<path class="st2" d="M21.3,51.6c-1.4,0-2.9,0-4.3,0l0,0c0-1.4,0-2.9,0-4.3l0,0c1.4,0,2.9,0,4.3,0C21.3,48.7,21.3,50.1,21.3,51.6
		L21.3,51.6z"/>
	<path class="st3" d="M17,47.2c0,1.4,0,2.9,0,4.3c-1.4,0-2.9,0-4.3,0c0-1.4,0-2.9,0-4.3c0.1,0,0.1,0,0.2,0
		C14.3,47.2,15.6,47.2,17,47.2z"/>
	<path d="M47.1,47.2c-1.2,0-2.4,0-3.7,0c-0.2,0-0.4,0-0.6,0l0,0c0-1.5,0-2.9,0-4.4c0.3,0,0.6,0,0.9,0c1.1,0,2.3,0,3.4,0
		c1,0,1.9,0,2.9,0c0.5,0,0.9,0,1.4,0c0,1.5,0,2.9,0,4.4C50,47.2,48.6,47.2,47.1,47.2z"/>
	<path class="st3" d="M51.4,25.6c-1.4,0-2.9,0-4.3,0l0,0c0-1.5,0-2.9,0-4.4l0,0c1.4,0,2.9,0,4.3,0l0,0
		C51.4,22.7,51.4,24.1,51.4,25.6z"/>
	<path class="st3" d="M47.1,25.6c0,1.4,0,2.9,0,4.3l0,0c-1.4,0-2.9,0-4.3,0c0-1.4,0-2.9,0-4.3l0,0C44.3,25.6,45.7,25.6,47.1,25.6
		L47.1,25.6z"/>
	<path class="st3" d="M51.4,29.9c0,1.4,0,2.9,0,4.3c-1.2,0-2.4,0-3.6,0c-0.2,0-0.5,0-0.7,0l0,0c0-1.4,0-2.9,0-4.3l0,0
		C48.6,29.9,50,29.9,51.4,29.9z"/>
	<path class="st4" d="M51.4,21.2c-1.4,0-2.9,0-4.3,0c0-0.2,0-0.4,0-0.6c0-1.2,0-2.5,0-3.7l0,0c1.1,0,2.2,0,3.3,0c0.3,0,0.6,0,1,0
		C51.4,18.3,51.4,19.8,51.4,21.2z"/>
	<path class="st3" d="M47.1,42.9c-1.1,0-2.3,0-3.4,0c-0.3,0-0.6,0-0.9,0l0,0c0-0.2,0-0.4,0-0.6c0-1.2,0-2.5,0-3.7c0-0.1,0-0.2,0-0.2
		c0-1.4,0-2.7,0-4.1c1.4,0,2.9,0,4.3,0l0,0c0,2.2,0,4.3,0,6.5C47.1,41.4,47.1,42.2,47.1,42.9z"/>
	<path class="st3" d="M12.7,25.6c-1.4,0-2.9,0-4.3,0c0-1.5,0-2.9,0-4.4l0,0c1.4,0,2.9,0,4.3,0l0,0C12.7,22.7,12.7,24.1,12.7,25.6
		L12.7,25.6z"/>
	<path d="M17,47.2c-1.4,0-2.7,0-4.1,0c-0.1,0-0.1,0-0.2,0c-0.9,0-1.8,0-2.7,0c-0.5,0-1.1,0-1.6,0c0-1.5,0-2.9,0-4.4
		c1.4,0,2.9,0,4.3,0c1.4,0,2.9,0,4.3,0C17,44.3,17,45.8,17,47.2L17,47.2z"/>
	<path class="st0" d="M34.2,51.6c0-1.4,0-2.9,0-4.3l0,0c1.4,0,2.9,0,4.3,0l0,0c0,1.4,0,2.9,0,4.3C37.1,51.6,35.7,51.6,34.2,51.6z"/>
	<path class="st4" d="M12.7,21.2c-1.4,0-2.9,0-4.3,0c0-1.4,0-2.9,0-4.3c0.2,0,0.3,0,0.5,0c1.3,0,2.6,0,3.8,0l0,0c0,0.1,0,0.1,0,0.2
		C12.7,18.5,12.7,19.9,12.7,21.2z"/>
	<path class="st3" d="M8.4,34.2c0-1.4,0-2.9,0-4.3c1.4,0,2.9,0,4.3,0l0,0c0,1.4,0,2.9,0,4.3l0,0c-1.4,0-2.7,0-4.1,0
		C8.5,34.2,8.5,34.2,8.4,34.2z"/>
	<path class="st3" d="M12.7,29.9c0-1.4,0-2.9,0-4.3l0,0c1.4,0,2.9,0,4.3,0l0,0c0,1.4,0,2.9,0,4.3C15.6,29.9,14.1,29.9,12.7,29.9
		L12.7,29.9z"/>
	<path class="st3" d="M17,42.9c-1.4,0-2.9,0-4.3,0c0-2.9,0-5.8,0-8.6l0,0c1.4,0,2.9,0,4.3,0c0,0.2,0,0.3,0,0.5c0,1.3,0,2.5,0,3.8
		c0,0.1,0,0.1,0,0.2C17,40.1,17,41.5,17,42.9L17,42.9z"/>
	<path class="st0" d="M21.3,51.6c0-1.4,0-2.9,0-4.3l0,0c1.4,0,2.9,0,4.3,0l0,0c0,1.4,0,2.9,0,4.3C24.2,51.6,22.7,51.6,21.3,51.6z"/>
	<path class="st4" d="M25.6,25.6c0,0,0.1,0,0.1,0c2.8,0,5.6,0,8.3,0c0,0,0.1,0,0.1,0c0,1.4,0,2.9,0,4.3c-2.9,0-5.7,0-8.6,0
		C25.6,28.5,25.6,27,25.6,25.6z"/>
	<path class="st4" d="M17,21.2c1.4,0,2.8,0,4.1,0c0.1,0,0.1,0,0.1,0.1c0,1.4,0,2.8,0,4.2l0,0c-1.4,0-2.9,0-4.3,0l0,0
		C17,24.1,17,22.7,17,21.2L17,21.2z"/>
	<path class="st4" d="M38.5,25.6c0-1.4,0-2.8,0-4.2c0-0.1,0-0.1,0.1-0.1c1.4,0,2.8,0,4.1,0l0,0c0,1.5,0,2.9,0,4.4l0,0
		C41.4,25.6,40,25.6,38.5,25.6L38.5,25.6z"/>
	<path class="st1" d="M36.4,16.9c-0.7,0-1.3,0-2,0c-0.1,0-0.1,0-0.1-0.1c0-1.3,0-2.7,0-4c0-0.1,0-0.2,0.1-0.1c1.3,0,2.7,0,4,0
		c0.1,0,0.1,0,0.1,0.1c0,1.3,0,2.7,0,4c0,0.1,0,0.2-0.1,0.1C37.7,16.9,37,16.9,36.4,16.9z"/>
	<path class="st3" d="M34.2,29.9c0-1.4,0-2.9,0-4.3c1.2,0,2.4,0,3.6,0c0.2,0,0.5,0,0.7,0l0,0c0,1.4,0,2.9,0,4.3
		C37.1,29.9,35.7,29.9,34.2,29.9L34.2,29.9z"/>
	<path class="st3" d="M25.6,25.6c0,1.4,0,2.9,0,4.3l0,0c-1.4,0-2.9,0-4.3,0c0-1.4,0-2.9,0-4.3l0,0c1.4,0,2.7,0,4.1,0
		C25.5,25.6,25.5,25.6,25.6,25.6z"/>
	<path class="st3" d="M47.1,16.9c0,1.2,0,2.5,0,3.7c0,0.2,0,0.4,0,0.6l0,0c-1.4,0-2.9,0-4.3,0l0,0c0-1.4,0-2.7,0-4.1
		c0-0.2,0-0.2,0.2-0.2C44.4,16.9,45.8,16.9,47.1,16.9z"/>
	<path class="st3" d="M12.7,21.2c0-1.4,0-2.7,0-4.1c0-0.1,0-0.1,0-0.2c1.4,0,2.8,0,4.1,0c0.1,0,0.2,0,0.2,0.2c0,1.4,0,2.8,0,4.2l0,0
		C15.6,21.2,14.1,21.2,12.7,21.2L12.7,21.2z"/>
	<path class="st1" d="M23.5,12.6c0.7,0,1.3,0,2,0c0.1,0,0.1,0,0.1,0.1c0,1.3,0,2.7,0,4c0,0.1,0,0.2-0.1,0.2c-1.3,0-2.7,0-4,0
		c-0.1,0-0.1,0-0.1-0.1c0-1.3,0-2.7,0-4c0-0.1,0-0.2,0.1-0.2C22.1,12.6,22.8,12.6,23.5,12.6z"/>
	<path class="st3" d="M42.8,42.9c0,1.5,0,2.9,0,4.4c-1.4,0-2.9,0-4.3,0l0,0c0-1.5,0-2.9,0-4.4C40,42.9,41.4,42.9,42.8,42.9
		L42.8,42.9z"/>
	<path class="st0" d="M34.2,47.2c-2.9,0-5.7,0-8.6,0l0,0c0-1.5,0-2.9,0-4.4c0,0,0.1,0,0.1,0c2.8,0,5.6,0,8.3,0c0,0,0.1,0,0.1,0
		C34.2,44.3,34.2,45.8,34.2,47.2L34.2,47.2z"/>
	<path class="st3" d="M17,47.2c0-1.5,0-2.9,0-4.4l0,0c1.4,0,2.9,0,4.3,0c0,1.5,0,2.9,0,4.4l0,0C19.9,47.2,18.4,47.2,17,47.2z"/>
	<path class="st1" d="M42.8,21.2c1.4,0,2.9,0,4.3,0c0,1.5,0,2.9,0,4.4c-1.4,0-2.9,0-4.3,0C42.8,24.1,42.8,22.7,42.8,21.2z"/>
	<path class="st1" d="M38.5,29.9c0-1.4,0-2.9,0-4.3c1.4,0,2.9,0,4.3,0c0,1.4,0,2.9,0,4.3l0,0C41.4,29.9,40,29.9,38.5,29.9L38.5,29.9
		z"/>
	<path class="st1" d="M47.1,34.2c-1.4,0-2.9,0-4.3,0l0,0c0-1.4,0-2.9,0-4.3l0,0c1.4,0,2.9,0,4.3,0C47.1,31.3,47.1,32.8,47.1,34.2z"
		/>
	<path class="st1" d="M42.8,34.2c0,1.4,0,2.7,0,4.1c0,0.1,0,0.2,0,0.2c-1.4,0-2.9,0-4.3,0l0,0c0-1.4,0-2.9,0-4.3l0,0
		C40,34.2,41.4,34.2,42.8,34.2L42.8,34.2z"/>
	<path d="M38.5,38.6c1.4,0,2.9,0,4.3,0c0,1.2,0,2.5,0,3.7c0,0.2,0,0.4,0,0.6c-1.4,0-2.9,0-4.3,0l0,0C38.5,41.4,38.5,40,38.5,38.6z"
		/>
	<path class="st1" d="M12.7,21.2c1.4,0,2.9,0,4.3,0c0,1.5,0,2.9,0,4.4c-1.4,0-2.9,0-4.3,0C12.7,24.1,12.7,22.7,12.7,21.2z"/>
	<path class="st2" d="M34.2,47.2c0-1.5,0-2.9,0-4.4c1.4,0,2.9,0,4.3,0l0,0c0,1.5,0,2.9,0,4.4C37.1,47.2,35.7,47.2,34.2,47.2z"/>
	<path class="st1" d="M17,34.2c-1.4,0-2.9,0-4.3,0c0-1.4,0-2.9,0-4.3c1.4,0,2.9,0,4.3,0l0,0C17,31.4,17,32.8,17,34.2L17,34.2z"/>
	<path class="st1" d="M21.3,25.6c0,1.4,0,2.9,0,4.3l0,0c-1.4,0-2.9,0-4.3,0l0,0c0-1.4,0-2.9,0-4.3C18.4,25.6,19.9,25.6,21.3,25.6z"
		/>
	<path class="st1" d="M17,38.6c0-1.3,0-2.5,0-3.8c0-0.2,0-0.3,0-0.5l0,0c1.4,0,2.9,0,4.3,0l0,0c0,1.4,0,2.9,0,4.3l0,0
		C19.9,38.6,18.4,38.6,17,38.6z"/>
	<path d="M17,38.6c1.4,0,2.9,0,4.3,0c0,1.4,0,2.9,0,4.3l0,0c-1.4,0-2.9,0-4.3,0c0-1.4,0-2.8,0-4.1C17,38.7,17,38.6,17,38.6z"/>
	<path class="st2" d="M21.3,47.2c0-1.5,0-2.9,0-4.4l0,0c1.4,0,2.9,0,4.3,0c0,1.5,0,2.9,0,4.4C24.2,47.2,22.7,47.2,21.3,47.2z"/>
	<path class="st3" d="M25.6,42.9c-1.4,0-2.9,0-4.3,0c0-1.4,0-2.9,0-4.3l0,0c0.1,0,0.1,0,0.2,0c1.3,0,2.6,0,3.9,0
		c0.1,0,0.2,0,0.2-0.1c0-1.4,0-2.8,0-4.2c0-0.1,0-0.1,0-0.2c0-1.4,0-2.7,0-4.1l0,0c2.9,0,5.7,0,8.6,0l0,0c0,0.2,0,0.5,0,0.7
		c0,1.2,0,2.4,0,3.6c0,1.4,0,2.8,0,4.2c0,0.1,0,0.2,0.2,0.2c1.4,0,2.8,0,4.2,0l0,0c0,1.4,0,2.9,0,4.3c-1.4,0-2.9,0-4.3,0
		c0,0-0.1,0-0.1,0c-2.8,0-5.6,0-8.3,0C25.7,42.9,25.7,42.9,25.6,42.9z"/>
	<path class="st4" d="M34.2,34.2c0-1.2,0-2.4,0-3.6c0-0.2,0-0.5,0-0.7c1.4,0,2.9,0,4.3,0l0,0c0,1.4,0,2.9,0,4.3l0,0
		C37.1,34.2,35.7,34.2,34.2,34.2z"/>
	<path class="st4" d="M25.6,29.9c0,1.4,0,2.7,0,4.1c0,0.1,0,0.1,0,0.2c-1.4,0-2.9,0-4.3,0l0,0c0-1.4,0-2.9,0-4.3l0,0
		C22.7,29.9,24.2,29.9,25.6,29.9z"/>
	<path class="st0" d="M38.5,34.2c0-1.4,0-2.9,0-4.3c1.4,0,2.9,0,4.3,0c0,1.4,0,2.9,0,4.3C41.4,34.2,40,34.2,38.5,34.2z"/>
	<path d="M34.2,34.2c1.4,0,2.9,0,4.3,0c0,1.4,0,2.9,0,4.3c-1.4,0-2.8,0-4.2,0c-0.1,0-0.2,0-0.2-0.2C34.2,37,34.2,35.6,34.2,34.2z"/>
	<path class="st0" d="M21.3,29.9c0,1.4,0,2.9,0,4.3c-1.4,0-2.9,0-4.3,0c0-1.4,0-2.9,0-4.3C18.4,29.9,19.9,29.9,21.3,29.9z"/>
	<path d="M21.3,34.2c1.4,0,2.9,0,4.3,0c0,1.4,0,2.8,0,4.2c0,0.1-0.1,0.1-0.2,0.1c-1.3,0-2.6,0-3.9,0c-0.1,0-0.1,0-0.2,0
		C21.3,37.1,21.3,35.7,21.3,34.2z"/>
</g>
</svg>
