<svg xmlns="http://www.w3.org/2000/svg" viewBox="0 -0.5 32 32" shape-rendering="crispEdges">
<metadata>Made with Pixels to Svg https://codepen.io/shshaw/pen/XbxvNj</metadata>
<path stroke="#001a06" d="M5 0h22M5 1h22M5 2h22M0 3h8M24 3h8M0 4h8M24 4h8M0 5h3M13 5h6M29 5h3M0 6h3M13 6h6M29 6h3M0 7h3M13 7h6M29 7h3M0 8h3M5 8h6M21 8h6M29 8h3M0 9h3M5 9h6M21 9h6M29 9h3M0 10h3M5 10h6M21 10h6M29 10h3M0 11h3M29 11h3M0 12h3M29 12h3M0 13h3M29 13h3M0 14h3M29 14h3M0 15h3M29 15h3M0 16h3M5 16h22M29 16h3M0 17h3M5 17h22M29 17h3M0 18h3M5 18h22M29 18h3M0 19h3M11 19h2M19 19h2M29 19h3M0 20h3M11 20h2M19 20h2M29 20h3M0 21h3M8 21h3M21 21h3M29 21h3M0 22h3M8 22h3M21 22h3M29 22h3M0 23h3M8 23h3M21 23h3M29 23h3M0 24h3M5 24h3M24 24h3M29 24h3M0 25h3M5 25h3M24 25h3M29 25h3M0 26h3M5 26h3M24 26h3M29 26h3M0 27h8M24 27h8M0 28h8M24 28h8M5 29h22M5 30h22M5 31h22" />
<path stroke="#00e636" d="M8 3h16M8 4h16M3 5h5M24 5h5M3 6h5M24 6h5M3 7h5M24 7h5M13 8h6M13 9h6M13 10h6M5 11h6M21 11h6M5 12h6M21 12h6M5 19h6M13 19h6M21 19h6M5 20h6M13 20h6M21 20h6M11 21h2M19 21h2M11 22h2M19 22h2M11 23h2M19 23h2M8 24h3M21 24h3M8 25h3M21 25h3M8 26h3M21 26h3" />
<path stroke="#80ff9d" d="M8 5h5M19 5h5M8 6h5M19 6h5M8 7h5M19 7h5M3 8h2M11 8h2M19 8h2M27 8h2M3 9h2M11 9h2M19 9h2M27 9h2M3 10h2M11 10h2M19 10h2M27 10h2M3 11h2M11 11h10M27 11h2M3 12h2M11 12h10M27 12h2M3 13h26M3 14h26M3 15h26M3 16h2M27 16h2M3 17h2M27 17h2M3 18h2M27 18h2M3 19h2M27 19h2M3 20h2M27 20h2M3 21h5M13 21h6M24 21h5M3 22h5M13 22h6M24 22h5M3 23h5M13 23h6M24 23h5M3 24h2M11 24h10M27 24h2M3 25h2M11 25h10M27 25h2M3 26h2M11 26h10M27 26h2M8 27h16M8 28h16" />
</svg>