<?xml version="1.0" encoding="utf-8"?>
<!-- Generator: Adobe Illustrator 25.4.0, SVG Export Plug-In . SVG Version: 6.00 Build 0)  -->
<svg version="1.1" id="Layer_1" xmlns="http://www.w3.org/2000/svg" xmlns:xlink="http://www.w3.org/1999/xlink" x="0px" y="0px"
	 viewBox="0 0 60 60" style="enable-background:new 0 0 60 60;" xml:space="preserve">
<style type="text/css">
	.st0{fill:#36FEDE;}
	.st1{fill:#FED30B;}
	.st2{fill:#B8C2FE;}
	.st3{fill:#3854FE;}
	.st4{fill:#046E61;}
</style>
<g>
	<path d="M51.8,60C37.4,60,23,60,8.5,60c0-1.4,0-2.8,0-4.3c2.8,0,5.6,0,8.4,0c0.1,0,0.1,0,0.2,0c0.2,0,0.5,0,0.7,0
		c1.2,0,2.4,0,3.6,0c0.2,0,0.5,0,0.7,0c1.2,0,2.3,0,3.5,0c0.1,0,0.2,0,0.2-0.2c0-0.1,0-0.3,0-0.4c0-1.2,0-2.5,0-3.7
		c0-0.1,0-0.1,0-0.2c0-1.4,0-2.7,0-4.1c0,0,0.1,0,0.1,0c2.8,0,5.6,0,8.4,0c0,0,0.1,0,0.1,0c0,0.4,0,0.8,0,1.1c0,1.1,0,2.1,0,3.2
		c0,0.2,0,0.5,0,0.7c0,1.1,0,2.3,0,3.4c0,0.1,0,0.2,0.2,0.2c0.2,0,0.3,0,0.5,0c1.2,0,2.5,0,3.7,0c0.2,0,0.5,0,0.7,0
		c1.2,0,2.4,0,3.6,0c0.1,0,0.1,0,0.2,0c2.8,0,5.6,0,8.4,0C51.8,57.2,51.8,58.6,51.8,60z"/>
	<path d="M4.2,51.4c-1.4,0-2.8,0-4.2,0c0-4.3,0-8.6,0-12.9c1.4,0,2.8,0,4.2,0l0,0c0,0.4,0,0.8,0,1.1c0,1.1,0,2.1,0,3.2
		c0,0.2,0,0.5,0,0.7c0,1.2,0,2.4,0,3.6c0,0.1,0,0.1,0,0.2C4.2,48.7,4.2,50.1,4.2,51.4L4.2,51.4z"/>
	<path d="M21.5,0c0,1.4,0,2.8,0,4.2l0,0c-0.4,0-0.7,0-1.1,0c-1.1,0-2.1,0-3.2,0c-0.1,0-0.3,0-0.4,0c-1.3,0-2.6,0-3.9,0
		c-1.4,0-2.9,0-4.3,0c0-1.4,0-2.8,0-4.2C12.9,0,17.2,0,21.5,0z"/>
	<path d="M38.8,4.2c0-1.4,0-2.8,0-4.2c4.3,0,8.6,0,13,0c0,1.4,0,2.8,0,4.2c-0.4,0-0.8,0-1.1,0c-1.1,0-2.1,0-3.2,0
		c-0.1,0-0.3,0-0.4,0c-1.3,0-2.6,0-3.9,0C41.7,4.2,40.3,4.2,38.8,4.2L38.8,4.2z"/>
	<path d="M60,51.4c-1.3,0-2.6,0-3.9,0l0,0c0-0.4,0-0.8,0-1.2c0-1,0-2.1,0-3.1c0-0.2,0-0.5,0-0.7c0-1.2,0-2.4,0-3.6
		c0-0.1,0-0.1,0-0.2c0-1.4,0-2.7,0-4.1l0,0c1.3,0,2.6,0,3.9,0C60,42.8,60,47.1,60,51.4z"/>
	<path d="M0,8.5c1.4,0,2.8,0,4.2,0l0,0c0,1.4,0,2.9,0,4.3l0,0c-1.4,0-2.8,0-4.2,0C0,11.3,0,9.9,0,8.5z"/>
	<path d="M56.1,8.5c1.3,0,2.6,0,3.9,0c0,1.4,0,2.9,0,4.3c-1.3,0-2.6,0-3.9,0l0,0C56.1,11.3,56.1,9.9,56.1,8.5L56.1,8.5z"/>
	<path class="st0" d="M34.5,47.1c0,0-0.1,0-0.1,0c-2.8,0-5.6,0-8.4,0c0,0-0.1,0-0.1,0c-0.1,0-0.1,0-0.2,0c-1.4,0-2.8,0-4.1,0
		c0-0.1,0-0.1,0-0.2c0-2.8,0-5.6,0-8.4c1.4,0,2.8,0,4.2,0c0.1,0,0.2,0,0.2,0.2c0,1.3,0,2.6,0,4c0,0.1,0,0.2,0.2,0.2
		c2.8,0,5.5,0,8.3,0c0.1,0,0.2,0,0.2-0.2c0-1.3,0-2.6,0-4c0-0.1,0-0.2,0.2-0.2c1.4,0,2.8,0,4.2,0c0,2.8,0,5.6,0,8.4
		c0,0.1,0,0.1,0,0.2c-0.4,0-0.8,0-1.1,0C36.6,47.1,35.6,47.1,34.5,47.1z"/>
	<path class="st0" d="M51.8,55.7c-2.8,0-5.6,0-8.4,0c-0.1,0-0.1,0-0.2,0c0-1.4,0-2.9,0-4.3l0,0c0.3,0,0.6,0,0.8,0c1.2,0,2.3,0,3.5,0
		c1.4,0,2.9,0,4.3,0l0,0C51.8,52.9,51.8,54.3,51.8,55.7L51.8,55.7z"/>
	<path class="st0" d="M17.2,55.7c-0.1,0-0.1,0-0.2,0c-2.8,0-5.6,0-8.4,0l0,0c0-1.4,0-2.9,0-4.3l0,0c1.4,0,2.9,0,4.3,0
		c1.4,0,2.9,0,4.3,0l0,0C17.2,52.9,17.2,54.3,17.2,55.7z"/>
	<path class="st1" d="M21.5,47.1c1.4,0,2.8,0,4.1,0c0.1,0,0.1,0,0.2,0c0,1.4,0,2.7,0,4.1c0,0.1,0,0.1,0,0.2c-1.4,0-2.9,0-4.3,0l0,0
		c0-0.4,0-0.8,0-1.1C21.5,49.2,21.5,48.2,21.5,47.1z"/>
	<path class="st1" d="M34.5,47.1c1.1,0,2.1,0,3.2,0c0.4,0,0.8,0,1.1,0c0,1.4,0,2.9,0,4.3l0,0c-1.4,0-2.9,0-4.3,0c0-1.1,0-2.1,0-3.2
		C34.5,47.9,34.5,47.5,34.5,47.1z"/>
	<path class="st2" d="M17.2,55.7c0-1.4,0-2.9,0-4.3c0.2,0,0.3,0,0.5,0c1.3,0,2.6,0,3.9,0l0,0c0,1.4,0,2.9,0,4.3c-1.2,0-2.4,0-3.6,0
		C17.7,55.7,17.4,55.7,17.2,55.7z"/>
	<path class="st0" d="M21.5,55.7c0-1.4,0-2.9,0-4.3c1.4,0,2.9,0,4.3,0c0,1.2,0,2.5,0,3.7c0,0.1,0,0.3,0,0.4c0,0.1,0,0.2-0.2,0.2
		c-1.2,0-2.3,0-3.5,0C22,55.7,21.7,55.7,21.5,55.7z"/>
	<path class="st0" d="M34.5,51.4c1.4,0,2.9,0,4.3,0c0,1.4,0,2.9,0,4.3c-1.2,0-2.5,0-3.7,0c-0.2,0-0.3,0-0.5,0c-0.1,0-0.2,0-0.2-0.2
		c0-1.1,0-2.3,0-3.4C34.5,51.9,34.5,51.7,34.5,51.4z"/>
	<path class="st2" d="M38.8,55.7c0-1.4,0-2.9,0-4.3l0,0c0.1,0,0.1,0,0.2,0c1.4,0,2.8,0,4.1,0c0,1.4,0,2.9,0,4.3c-1.2,0-2.4,0-3.6,0
		C39.3,55.7,39.1,55.7,38.8,55.7z"/>
	<path d="M4.2,38.5c0-2.8,0-5.6,0-8.5c0-0.1,0-0.1,0.2-0.1c1.3,0,2.7,0,4,0c0.1,0,0.2,0,0.2-0.2c0-1.3,0-2.6,0-4
		c0-0.1,0-0.2-0.2-0.2c-1.3,0-2.7,0-4,0c-0.1,0-0.2,0-0.2-0.2c0-4.2,0-8.5,0-12.7l0,0c1.4,0,2.9,0,4.3,0c0,0.2,0,0.5,0,0.7
		c0,1.2,0,2.4,0,3.6c0,1.4,0,2.8,0,4.2c0,0.1,0.1,0.1,0.2,0.1c1.4,0,2.8,0,4.2,0c0,0.4,0,0.8,0,1.2c0,1,0,2.1,0,3.1
		c0,0.2,0,0.5,0,0.7c0,1.2,0,2.4,0,3.6c0,0.1,0,0.1,0,0.2c0,1.4,0,2.7,0,4.1c-1.3,0-2.6,0-3.9,0c-0.1,0-0.3,0-0.4,0
		c-0.1,0.1,0,0.3,0,0.4c0,1.3,0,2.6,0,3.9C7.1,38.5,5.7,38.5,4.2,38.5L4.2,38.5z"/>
	<path d="M56.1,12.8c0,4.3,0,8.5,0,12.8c0,0.1,0,0.1-0.2,0.1c-1.3,0-2.7,0-4,0c-0.1,0-0.2,0-0.2,0.2c0,1.3,0,2.6,0,4
		c0,0.1,0,0.2,0.2,0.2c1.3,0,2.7,0,4,0c0.1,0,0.2,0,0.2,0.1c0,2.8,0,5.6,0,8.5l0,0c-1.4,0-2.9,0-4.3,0c0-0.1,0-0.1,0-0.2
		c0-1.3,0-2.6,0-3.9c0-0.1,0-0.2-0.2-0.2c-1.4,0-2.8,0-4.1,0c0-0.4,0-0.8,0-1.2c0-1,0-2.1,0-3.1c0-0.2,0-0.5,0-0.7
		c0-1.2,0-2.4,0-3.6c0-0.1,0-0.1,0-0.2c0-1.4,0-2.7,0-4.1c0.7,0,1.4,0,2,0c0.7,0,1.4,0,2.1,0c0.1,0,0.2,0,0.2-0.2c0-0.1,0-0.3,0-0.4
		c0-1.2,0-2.5,0-3.7c0-0.2,0-0.5,0-0.7c0-1.2,0-2.4,0-3.6C53.2,12.8,54.7,12.8,56.1,12.8L56.1,12.8z"/>
	<path d="M21.5,4.2c1.4,0,2.8,0,4.2,0c0.1,0,0.2,0,0.2,0.2c0,1.3,0,2.6,0,4c0,0.1,0,0.2,0.2,0.2c2.8,0,5.5,0,8.3,0
		c0.1,0,0.2,0,0.2-0.2c0-1.3,0-2.6,0-4c0-0.1,0-0.2,0.2-0.2c1.4,0,2.8,0,4.2,0l0,0c0,0.4,0,0.7,0,1.1c0,1.1,0,2.1,0,3.2
		c0,1.4,0,2.9,0,4.3c-0.3,0-0.7,0-1,0c-1.1,0-2.2,0-3.4,0c0,0-0.1,0-0.1,0c-2.8,0-5.6,0-8.4,0c0,0-0.1,0-0.1,0c-1.4,0-2.9,0-4.3,0
		c0-0.4,0-0.8,0-1.2c0-1,0-2.1,0-3.1C21.5,7,21.5,5.6,21.5,4.2L21.5,4.2z"/>
	<path d="M8.5,51.4c0,1.4,0,2.9,0,4.3c-1.4,0-2.8,0-4.2,0c-0.1,0-0.2,0-0.2-0.2c0-1.4,0-2.8,0-4.1l0,0C5.7,51.4,7.1,51.4,8.5,51.4z"
		/>
	<path class="st1" d="M4.2,38.5c1.4,0,2.9,0,4.3,0l0,0c0,0.1,0,0.1,0,0.2c0,1.4,0,2.7,0,4.1c-1.4,0-2.9,0-4.3,0c0-1.1,0-2.1,0-3.2
		C4.2,39.3,4.2,38.9,4.2,38.5z"/>
	<path class="st2" d="M4.2,42.8c1.4,0,2.9,0,4.3,0l0,0c0,1.4,0,2.9,0,4.3l0,0c-1.4,0-2.9,0-4.3,0c0-1.2,0-2.4,0-3.6
		C4.2,43.3,4.2,43.1,4.2,42.8z"/>
	<path class="st0" d="M4.2,47.1c1.4,0,2.9,0,4.3,0c0,1.4,0,2.9,0,4.3l0,0c-1.4,0-2.9,0-4.3,0c0-1.4,0-2.7,0-4.1
		C4.2,47.3,4.2,47.2,4.2,47.1z"/>
	<path class="st1" d="M8.6,17.1c0-1.2,0-2.4,0-3.6c0-0.2,0-0.5,0-0.7c0-0.1,0-0.1,0-0.2c0-1.4,0-2.7,0-4.1l0,0c1.4,0,2.8,0,4.1,0
		c0.2,0,0.2,0,0.2-0.2c0-1.4,0-2.7,0-4.1c1.3,0,2.6,0,3.9,0c0.1,0,0.3,0,0.4,0c0,0.4,0,0.7,0,1.1c0,1.1,0,2.1,0,3.2
		c0,0.1,0,0.1,0,0.2c0,1.4,0,2.7,0,4.1c-1.4,0-2.8,0-4.2,0c-0.1,0-0.2,0-0.2,0.1c0,1.4,0,2.8,0,4.2C11.4,17.1,10,17.1,8.6,17.1z"/>
	<path class="st3" d="M17.2,8.5c0-1.1,0-2.1,0-3.2c0-0.4,0-0.7,0-1.1c1.1,0,2.1,0,3.2,0c0.4,0,0.7,0,1.1,0c0,1.4,0,2.9,0,4.3
		C20.1,8.5,18.6,8.5,17.2,8.5z"/>
	<path class="st3" d="M12.9,4.2c0,1.4,0,2.7,0,4.1c0,0.2,0,0.2-0.2,0.2c-1.4,0-2.8,0-4.1,0c0-1.4,0-2.9,0-4.3l0,0
		C10,4.2,11.4,4.2,12.9,4.2z"/>
	<path class="st1" d="M51.8,12.8c0,1.2,0,2.4,0,3.6c0,0.2,0,0.5,0,0.7c-1.4,0-2.9,0-4.3,0c0-1.4,0-2.8,0-4.1c0-0.1,0-0.2-0.2-0.2
		c-1.4,0-2.8,0-4.2,0c0-0.4,0-0.8,0-1.1c0-1.1,0-2.1,0-3.2c0-0.1,0-0.1,0-0.2c0-1.4,0-2.7,0-4.1c1.3,0,2.6,0,3.9,0
		c0.1,0,0.3,0,0.4,0c0,1.4,0,2.7,0,4.1c0,0.2,0,0.2,0.2,0.2c1.4,0,2.8,0,4.1,0l0,0c0,0.4,0,0.8,0,1.1C51.8,10.7,51.8,11.7,51.8,12.8
		z"/>
	<path class="st3" d="M51.8,8.5c-1.4,0-2.8,0-4.1,0c-0.2,0-0.2,0-0.2-0.2c0-1.4,0-2.7,0-4.1c1.1,0,2.1,0,3.2,0c0.4,0,0.8,0,1.1,0
		l0,0C51.8,5.6,51.8,7,51.8,8.5z"/>
	<path class="st3" d="M43.1,4.2c0,1.4,0,2.7,0,4.1c0,0.1,0,0.1,0,0.2c-1.4,0-2.9,0-4.3,0c0-1.1,0-2.1,0-3.2c0-0.4,0-0.7,0-1.1
		C40.3,4.2,41.7,4.2,43.1,4.2z"/>
	<path d="M8.5,4.2c0,1.4,0,2.9,0,4.3l0,0c-1.4,0-2.9,0-4.3,0l0,0c0-1.4,0-2.8,0-4.1c0-0.1,0-0.2,0.2-0.2C5.8,4.2,7.2,4.2,8.5,4.2z"
		/>
	<path d="M51.8,55.7c0-1.4,0-2.9,0-4.3c1.4,0,2.9,0,4.3,0l0,0c0,1.4,0,2.8,0,4.1c0,0.1,0,0.2-0.2,0.2C54.6,55.7,53.2,55.7,51.8,55.7
		z"/>
	<path d="M51.8,8.5c0-1.4,0-2.9,0-4.3c1.4,0,2.8,0,4.2,0c0.1,0,0.2,0,0.2,0.2c0,1.4,0,2.8,0,4.1l0,0C54.7,8.5,53.2,8.5,51.8,8.5
		L51.8,8.5z"/>
	<path class="st1" d="M51.8,38.5c1.4,0,2.9,0,4.3,0c0,1.4,0,2.7,0,4.1c0,0.1,0,0.1,0,0.2c-1.4,0-2.9,0-4.3,0c0-0.4,0-0.8,0-1.3
		C51.8,40.6,51.8,39.6,51.8,38.5L51.8,38.5z"/>
	<path class="st2" d="M51.8,42.8c1.4,0,2.9,0,4.3,0c0,1.2,0,2.4,0,3.6c0,0.2,0,0.5,0,0.7c-1.4,0-2.9,0-4.3,0l0,0
		C51.8,45.7,51.8,44.3,51.8,42.8L51.8,42.8z"/>
	<path class="st0" d="M51.8,47.1c1.4,0,2.9,0,4.3,0c0,1,0,2.1,0,3.1c0,0.4,0,0.8,0,1.2c-1.4,0-2.9,0-4.3,0l0,0
		C51.8,50,51.8,48.6,51.8,47.1z"/>
	<path class="st2" d="M4.2,8.5c1.4,0,2.9,0,4.3,0c0,1.4,0,2.7,0,4.1c0,0.1,0,0.1,0,0.2c-1.4,0-2.9,0-4.3,0C4.2,11.3,4.2,9.9,4.2,8.5
		z"/>
	<path class="st2" d="M51.8,8.5c1.4,0,2.9,0,4.3,0c0,1.4,0,2.9,0,4.3c-1.4,0-2.9,0-4.3,0c0-1.1,0-2.1,0-3.2
		C51.8,9.2,51.8,8.8,51.8,8.5z"/>
	<path class="st1" d="M38.8,38.5c-1.4,0-2.8,0-4.2,0c-0.1,0-0.2,0-0.2,0.2c0,1.3,0,2.6,0,4c0,0.1,0,0.2-0.2,0.2c-2.8,0-5.5,0-8.3,0
		c-0.1,0-0.2,0-0.2-0.2c0-1.3,0-2.6,0-4c0-0.1,0-0.2-0.2-0.2c-1.4,0-2.8,0-4.2,0c0,0,0,0,0,0c0-1.4,0-2.8,0-4.1c0-0.1,0-0.2-0.2-0.2
		c-1.4,0-2.8,0-4.2,0c0-1.4,0-2.9,0-4.3l0,0c0.4,0,0.8,0,1.1,0c1.1,0,2.1,0,3.2,0c0.3,0,0.5,0,0.8,0c1.2,0,2.3,0,3.5,0
		c0,1.4,0,2.8,0,4.1c0,0.1,0,0.2,0.2,0.2c2.8,0,5.6,0,8.3,0c0.1,0,0.2,0,0.2-0.2c0-1.4,0-2.8,0-4.1c0.2,0,0.5,0,0.7,0
		c1.2,0,2.4,0,3.6,0c0.1,0,0.1,0,0.2,0c1.4,0,2.8,0,4.1,0l0,0c0,1.4,0,2.9,0,4.3c-1.4,0-2.8,0-4.2,0c-0.1,0-0.2,0-0.2,0.2
		C38.8,35.8,38.8,37.2,38.8,38.5L38.8,38.5z"/>
	<path d="M43.1,51.4c-1.4,0-2.8,0-4.1,0c-0.1,0-0.1,0-0.2,0c0-1.4,0-2.9,0-4.3c0-0.1,0-0.1,0-0.2c0-2.8,0-5.6,0-8.4l0,0
		c1.4,0,2.9,0,4.3,0c0,0.1,0,0.1,0,0.2c0,1.3,0,2.6,0,3.9c0,0.1,0,0.2,0.2,0.2c1.4,0,2.8,0,4.1,0l0,0c0,1.4,0,2.9,0,4.3l0,0
		c-1.4,0-2.8,0-4.1,0c-0.2,0-0.2,0-0.2,0.2C43.1,48.7,43.1,50.1,43.1,51.4L43.1,51.4z"/>
	<path d="M21.5,51.4c-1.3,0-2.6,0-3.9,0c-0.2,0-0.3,0-0.5,0l0,0c0-1.4,0-2.8,0-4.1c0-0.1,0-0.2-0.2-0.2c-1.4,0-2.8,0-4.2,0l0,0
		c0-1.4,0-2.9,0-4.3l0,0c1.4,0,2.8,0,4.1,0c0.1,0,0.2,0,0.2-0.2c0-0.5,0-1,0-1.5c0-0.9,0-1.7,0-2.6c1.4,0,2.9,0,4.3,0c0,0,0,0,0,0
		c0,2.8,0,5.6,0,8.4c0,0.1,0,0.1,0,0.2c0,1.1,0,2.1,0,3.2C21.5,50.7,21.5,51.1,21.5,51.4z"/>
	<path class="st3" d="M43.1,51.4c0-1.4,0-2.7,0-4.1c0-0.2,0-0.2,0.2-0.2c1.4,0,2.8,0,4.1,0c0,1.4,0,2.9,0,4.3c-1.2,0-2.3,0-3.5,0
		C43.7,51.4,43.4,51.4,43.1,51.4z"/>
	<path class="st2" d="M47.5,51.4c0-1.4,0-2.9,0-4.3l0,0c1.4,0,2.9,0,4.3,0l0,0c0,1.4,0,2.9,0,4.3C50.3,51.4,48.9,51.4,47.5,51.4z"/>
	<path class="st2" d="M8.6,51.4c0-1.4,0-2.9,0-4.3l0,0c1.4,0,2.9,0,4.3,0l0,0c0,1.4,0,2.9,0,4.3C11.4,51.4,10,51.4,8.6,51.4z"/>
	<path class="st3" d="M12.9,51.4c0-1.4,0-2.9,0-4.3c1.4,0,2.8,0,4.2,0c0.1,0,0.2,0,0.2,0.2c0,1.4,0,2.8,0,4.1
		C15.8,51.4,14.3,51.4,12.9,51.4z"/>
	<path class="st3" d="M8.6,17.1c1.4,0,2.9,0,4.3,0l0,0c0,0.2,0,0.3,0,0.5c0,1.3,0,2.5,0,3.8l0,0c-1.4,0-2.8,0-4.2,0
		c-0.1,0-0.2,0-0.2-0.1C8.6,19.9,8.6,18.5,8.6,17.1z"/>
	<path class="st2" d="M12.9,25.7c0-1,0-2.1,0-3.1c0-0.4,0-0.8,0-1.2c0,0,0,0,0,0c1.4,0,2.9,0,4.3,0l0,0c0,1.4,0,2.9,0,4.3l0,0
		C15.8,25.7,14.3,25.7,12.9,25.7z"/>
	<path class="st1" d="M12.9,25.7c1.4,0,2.9,0,4.3,0c0,1.4,0,2.9,0,4.3l0,0c-1.4,0-2.9,0-4.3,0c0-1.2,0-2.4,0-3.6
		C12.9,26.1,12.9,25.9,12.9,25.7z"/>
	<path class="st2" d="M12.9,29.9c1.4,0,2.9,0,4.3,0c0,1.4,0,2.9,0,4.3l0,0c-1.4,0-2.9,0-4.3,0l0,0c0-1.4,0-2.7,0-4.1
		C12.9,30.1,12.9,30,12.9,29.9z"/>
	<path class="st3" d="M8.5,38.5c0-1.3,0-2.6,0-3.9c0-0.1-0.1-0.3,0-0.4c0.1-0.1,0.3,0,0.4,0c1.3,0,2.6,0,3.9,0c0,0,0,0,0,0
		c0,1.4,0,2.9,0,4.3l0,0c-1.2,0-2.4,0-3.6,0C9,38.5,8.8,38.6,8.5,38.5L8.5,38.5z"/>
	<path class="st3" d="M47.5,17.1c1.4,0,2.9,0,4.3,0c0,1.2,0,2.5,0,3.7c0,0.1,0,0.3,0,0.4c0,0.1,0,0.2-0.2,0.2c-0.7,0-1.4,0-2.1,0
		c-0.7,0-1.4,0-2,0l0,0c0-0.1,0-0.1,0-0.2C47.5,19.8,47.5,18.4,47.5,17.1L47.5,17.1z"/>
	<path class="st2" d="M47.5,21.4c0,1.4,0,2.7,0,4.1c0,0.1,0,0.1,0,0.2c-1.4,0-2.9,0-4.3,0l0,0c0-1.4,0-2.9,0-4.3l0,0
		C44.6,21.4,46,21.4,47.5,21.4L47.5,21.4z"/>
	<path class="st1" d="M43.1,25.7c1.4,0,2.9,0,4.3,0c0,1.2,0,2.4,0,3.6c0,0.2,0,0.5,0,0.7c-1.4,0-2.9,0-4.3,0l0,0
		C43.1,28.5,43.1,27.1,43.1,25.7z"/>
	<path class="st2" d="M43.1,29.9c1.4,0,2.9,0,4.3,0c0,1,0,2.1,0,3.1c0,0.4,0,0.8,0,1.2l0,0c-1.4,0-2.9,0-4.3,0l0,0
		C43.1,32.8,43.1,31.4,43.1,29.9z"/>
	<path class="st3" d="M47.5,34.2c1.4,0,2.8,0,4.1,0c0.1,0,0.2,0,0.2,0.2c0,1.3,0,2.6,0,3.9c0,0.1,0,0.1,0,0.2l0,0
		c-0.1,0-0.1,0-0.2,0c-1.4,0-2.7,0-4.1,0l0,0C47.5,37.1,47.5,35.7,47.5,34.2L47.5,34.2z"/>
	<path class="st0" d="M34.5,12.8c1.1,0,2.2,0,3.4,0c0.3,0,0.7,0,1,0l0,0c0,1.4,0,2.8,0,4.1c0,0.1,0,0.2,0.2,0.2c1.4,0,2.8,0,4.2,0
		l0,0c0,1.4,0,2.9,0,4.3l0,0c-1.4,0-2.8,0-4.2,0c-0.1,0-0.2,0-0.2,0.2c0,1.4,0,2.8,0,4.1l0,0c-0.1,0-0.1,0-0.2,0
		c-5.3,0-10.5,0-15.8,0c-0.4,0-0.9,0-1.3,0l0,0c0-1.4,0-2.8,0-4.1c0-0.1,0-0.2-0.2-0.2c-1.4,0-2.8,0-4.2,0l0,0c0-1.4,0-2.9,0-4.3
		l0,0c1.4,0,2.8,0,4.2,0c0.1,0,0.2,0,0.2-0.2c0-1.4,0-2.8,0-4.1l0,0c1.4,0,2.9,0,4.3,0c0,0.3,0,0.6,0,0.9c0,1.1,0,2.3,0,3.4
		c0,0.1,0,0.1,0,0.2c0,1.3,0,2.6,0,3.9c0,0.2,0,0.2,0.2,0.2c2.7,0,5.3,0,8,0c0.1,0,0.3,0,0.4,0c0.1-0.1,0-0.3,0-0.4
		c0-1.3,0-2.6,0-3.9C34.5,15.6,34.5,14.2,34.5,12.8z"/>
	<path class="st3" d="M25.9,17.1c0-1.1,0-2.3,0-3.4c0-0.3,0-0.6,0-0.9c0,0,0.1,0,0.1,0c2.8,0,5.6,0,8.4,0c0,0,0.1,0,0.1,0
		c0,1.4,0,2.9,0,4.3C31.6,17.1,28.7,17.1,25.9,17.1z"/>
	<path class="st0" d="M17.2,8.5c1.4,0,2.9,0,4.3,0c0,1,0,2.1,0,3.1c0,0.4,0,0.8,0,1.2l0,0c-1.4,0-2.9,0-4.3,0l0,0c0-1.4,0-2.7,0-4.1
		C17.2,8.6,17.2,8.5,17.2,8.5z"/>
	<path class="st0" d="M38.8,8.5c1.4,0,2.9,0,4.3,0c0,1.1,0,2.1,0,3.2c0,0.4,0,0.8,0,1.1l0,0c-1.4,0-2.9,0-4.3,0l0,0
		C38.8,11.3,38.8,9.9,38.8,8.5z"/>
	<path class="st2" d="M8.6,38.6c0.2,0,0.5,0,0.7,0c1.2,0,2.4,0,3.6,0c0,1.4,0,2.9,0,4.3l0,0c-1.4,0-2.9,0-4.3,0l0,0
		c0-1.4,0-2.7,0-4.1C8.5,38.7,8.6,38.6,8.6,38.6z"/>
	<path class="st3" d="M8.6,42.8c1.4,0,2.9,0,4.3,0c0,1.4,0,2.9,0,4.3c-1.4,0-2.9,0-4.3,0C8.5,45.7,8.6,44.3,8.6,42.8z"/>
	<path class="st0" d="M12.9,17.1c0-1.4,0-2.8,0-4.2c0-0.1,0.1-0.1,0.2-0.1c1.4,0,2.8,0,4.2,0l0,0c0,1.4,0,2.9,0,4.3l0,0
		C15.8,17.1,14.3,17.1,12.9,17.1L12.9,17.1z"/>
	<path class="st0" d="M43.1,12.8c1.4,0,2.8,0,4.2,0c0.1,0,0.2,0,0.2,0.2c0,1.4,0,2.8,0,4.1c0,0,0,0,0,0c-1.4,0-2.9,0-4.3,0l0,0
		C43.1,15.6,43.1,14.2,43.1,12.8L43.1,12.8z"/>
	<path class="st2" d="M47.5,38.5c1.4,0,2.7,0,4.1,0c0.1,0,0.1,0,0.2,0c0,1,0,2,0,3c0,0.4,0,0.8,0,1.3l0,0c-1.4,0-2.9,0-4.3,0
		c0,0,0,0,0,0C47.5,41.4,47.5,40,47.5,38.5z"/>
	<path class="st3" d="M47.5,42.8c1.4,0,2.9,0,4.3,0c0,1.4,0,2.9,0,4.3c-1.4,0-2.9,0-4.3,0C47.5,45.7,47.5,44.3,47.5,42.8z"/>
	<path d="M21.5,25.6c0.4,0,0.9,0,1.3,0c5.3,0,10.5,0,15.8,0c0.1,0,0.1,0,0.2,0c0,1.4,0,2.9,0,4.3c-1.2,0-2.4,0-3.6,0
		c-0.2,0-0.5,0-0.7,0c0,0-0.1,0-0.1,0c-2.8,0-5.6,0-8.4,0c0,0-0.1,0-0.1,0c-1.2,0-2.3,0-3.5,0c-0.3,0-0.5,0-0.8,0
		C21.5,28.5,21.5,27.1,21.5,25.6z"/>
	<path class="st0" d="M25.8,30c0,0,0.1,0,0.1,0c2.8,0,5.6,0,8.4,0c0,0,0.1,0,0.1,0c0,1.4,0,2.8,0,4.1c0,0.1,0,0.2-0.2,0.2
		c-2.8,0-5.6,0-8.3,0c-0.1,0-0.2,0-0.2-0.2C25.8,32.7,25.8,31.3,25.8,30z"/>
	<path class="st0" d="M21.5,25.6c0,1.4,0,2.9,0,4.3c-1.1,0-2.1,0-3.2,0c-0.4,0-0.8,0-1.1,0c0-1.4,0-2.9,0-4.3l0,0
		C18.6,25.7,20.1,25.7,21.5,25.6L21.5,25.6z"/>
	<path class="st0" d="M38.8,29.9c0-1.4,0-2.9,0-4.3l0,0c1.4,0,2.9,0,4.3,0l0,0c0,1.4,0,2.9,0,4.3c-1.4,0-2.8,0-4.1,0
		C38.9,29.9,38.9,29.9,38.8,29.9z"/>
	<path class="st0" d="M21.5,38.5c-1.4,0-2.9,0-4.3,0c0,0,0,0,0,0c0-1.4,0-2.9,0-4.3l0,0c1.4,0,2.8,0,4.2,0c0.1,0,0.2,0,0.2,0.2
		C21.5,35.8,21.5,37.2,21.5,38.5z"/>
	<path class="st0" d="M43.1,38.5c-1.4,0-2.9,0-4.3,0c0-1.4,0-2.8,0-4.1c0-0.1,0-0.2,0.2-0.2c1.4,0,2.8,0,4.2,0c0,0,0,0,0,0
		C43.1,35.7,43.1,37.1,43.1,38.5L43.1,38.5z"/>
	<path class="st4" d="M47.5,38.5c0,1.4,0,2.9,0,4.3c-1.4,0-2.8,0-4.1,0c-0.2,0-0.2,0-0.2-0.2c0-1.3,0-2.6,0-3.9c0-0.1,0-0.1,0-0.2
		l0,0c0.1,0,0.1,0,0.2,0C44.7,38.5,46.1,38.5,47.5,38.5L47.5,38.5z"/>
	<path class="st4" d="M12.9,42.8c0-1.4,0-2.9,0-4.3c0,0,0,0,0,0c1.3,0,2.6,0,3.9,0c0.1,0,0.3,0,0.4,0c0,0,0,0,0,0c0,0.9,0,1.7,0,2.6
		c0,0.5,0,1,0,1.5c0,0.1,0,0.2-0.2,0.2C15.6,42.8,14.3,42.8,12.9,42.8z"/>
	<path class="st1" d="M12.9,17.1c1.4,0,2.9,0,4.3,0c0,1.4,0,2.9,0,4.3c-1.4,0-2.9,0-4.3,0c0-1.3,0-2.5,0-3.8
		C12.9,17.4,12.9,17.2,12.9,17.1z"/>
	<path d="M21.5,25.7c-1.4,0-2.9,0-4.3,0c0-1.4,0-2.9,0-4.3c1.4,0,2.8,0,4.2,0c0.1,0,0.2,0,0.2,0.2C21.5,22.9,21.5,24.3,21.5,25.7z"
		/>
	<path class="st1" d="M17.2,38.5c-0.1,0-0.3,0-0.4,0c-1.3,0-2.6,0-3.9,0c0-1.4,0-2.9,0-4.3c1.4,0,2.9,0,4.3,0
		C17.2,35.7,17.2,37.1,17.2,38.5z"/>
	<path class="st1" d="M43.1,17.1c1.4,0,2.9,0,4.3,0c0,1.4,0,2.7,0,4.1c0,0.1,0,0.1,0,0.2c-1.4,0-2.9,0-4.3,0
		C43.1,19.9,43.1,18.5,43.1,17.1z"/>
	<path d="M43.1,25.7c-1.4,0-2.9,0-4.3,0c0-1.4,0-2.8,0-4.1c0-0.1,0-0.2,0.2-0.2c1.4,0,2.8,0,4.2,0C43.1,22.8,43.1,24.2,43.1,25.7z"
		/>
	<path class="st1" d="M47.5,38.6c-1.4,0-2.7,0-4.1,0c-0.1,0-0.1,0-0.2,0c0-1.4,0-2.9,0-4.3c1.4,0,2.9,0,4.3,0
		C47.5,35.7,47.5,37.1,47.5,38.6z"/>
	<path class="st1" d="M25.9,17.1c2.9,0,5.8,0,8.6,0c0,1.3,0,2.6,0,3.9c0,0.1,0.1,0.3,0,0.4c-0.1,0.1-0.3,0-0.4,0c-2.7,0-5.3,0-8,0
		c-0.2,0-0.2,0-0.2-0.2c0-1.3,0-2.6,0-3.9C25.8,17.2,25.8,17.1,25.9,17.1z"/>
	<path d="M43.1,12.8c0,1.4,0,2.9,0,4.3c-1.4,0-2.8,0-4.2,0c-0.1,0-0.2,0-0.2-0.2c0-1.4,0-2.8,0-4.1C40.3,12.8,41.7,12.8,43.1,12.8z"
		/>
	<path d="M17.2,17.1c0-1.4,0-2.9,0-4.3c1.4,0,2.9,0,4.3,0c0,1.4,0,2.8,0,4.1c0,0.1,0,0.2-0.2,0.2C20,17.1,18.6,17.1,17.2,17.1z"/>
</g>
</svg>
