<svg xmlns="http://www.w3.org/2000/svg" viewBox="0 -0.5 32 32" shape-rendering="crispEdges">
<metadata>Made with Pixels to Svg https://codepen.io/shshaw/pen/XbxvNj</metadata>
<path stroke="#00111a" d="M0 0h32M0 1h32M0 2h32M0 3h3M5 3h3M13 3h6M24 3h3M29 3h3M0 4h3M5 4h3M13 4h6M24 4h3M29 4h3M0 5h5M27 5h5M0 6h5M27 6h5M0 7h5M27 7h5M0 8h5M13 8h6M27 8h5M0 9h5M13 9h6M27 9h5M0 10h5M13 10h6M27 10h5M0 11h3M8 11h3M21 11h3M29 11h3M0 12h3M8 12h3M21 12h3M29 12h3M0 13h3M5 13h3M11 13h10M24 13h3M29 13h3M0 14h3M5 14h3M11 14h10M24 14h3M29 14h3M0 15h3M5 15h3M11 15h10M24 15h3M29 15h3M0 16h8M13 16h6M24 16h8M0 17h8M13 17h6M24 17h8M0 18h8M13 18h6M24 18h8M0 19h3M11 19h2M19 19h2M29 19h3M0 20h3M11 20h2M19 20h2M29 20h3M0 21h3M8 21h3M21 21h3M29 21h3M0 22h3M8 22h3M21 22h3M29 22h3M0 23h3M8 23h3M21 23h3M29 23h3M0 24h3M8 24h3M21 24h3M29 24h3M0 25h3M8 25h3M21 25h3M29 25h3M0 26h3M8 26h3M21 26h3M29 26h3M0 27h3M5 27h6M21 27h6M29 27h3M0 28h3M5 28h6M21 28h6M29 28h3M0 29h32M0 30h32M0 31h32" />
<path stroke="#0099e6" d="M3 3h2M8 3h5M19 3h5M27 3h2M3 4h2M8 4h5M19 4h5M27 4h2M5 5h3M13 5h6M24 5h3M5 6h3M13 6h6M24 6h3M5 7h3M13 7h6M24 7h3M3 11h2M13 11h6M27 11h2M3 12h2M13 12h6M27 12h2M8 13h3M21 13h3M8 14h3M21 14h3M8 15h3M21 15h3M11 16h2M19 16h2M11 17h2M19 17h2M11 18h2M19 18h2M3 19h5M13 19h6M24 19h5M3 20h5M13 20h6M24 20h5M11 21h2M19 21h2M11 22h2M19 22h2M11 23h2M19 23h2" />
<path stroke="#80d4ff" d="M8 5h5M19 5h5M8 6h5M19 6h5M8 7h5M19 7h5M5 8h8M19 8h8M5 9h8M19 9h8M5 10h8M19 10h8M5 11h3M11 11h2M19 11h2M24 11h3M5 12h3M11 12h2M19 12h2M24 12h3M3 13h2M27 13h2M3 14h2M27 14h2M3 15h2M27 15h2M8 16h3M21 16h3M8 17h3M21 17h3M8 18h3M21 18h3M8 19h3M21 19h3M8 20h3M21 20h3M3 21h5M13 21h6M24 21h5M3 22h5M13 22h6M24 22h5M3 23h5M13 23h6M24 23h5M3 24h5M11 24h10M24 24h5M3 25h5M11 25h10M24 25h5M3 26h5M11 26h10M24 26h5M3 27h2M11 27h10M27 27h2M3 28h2M11 28h10M27 28h2" />
</svg>