<?xml version="1.0" encoding="utf-8"?>
<!-- Generator: Adobe Illustrator 25.4.0, SVG Export Plug-In . SVG Version: 6.00 Build 0)  -->
<svg version="1.1" id="Layer_1" xmlns="http://www.w3.org/2000/svg" xmlns:xlink="http://www.w3.org/1999/xlink" x="0px" y="0px"
	 viewBox="0 0 60 60" style="enable-background:new 0 0 60 60;" xml:space="preserve">
<style type="text/css">
	.st0{fill:#36FEDE;}
	.st1{fill:#3854FE;}
	.st2{fill:#FED30B;}
	.st3{fill:#FE9431;}
	.st4{fill:#B8C2FE;}
</style>
<g>
	<path d="M42.9,55.9c0,1.4,0,2.7,0,4.1c-8.6,0-17.2,0-25.8,0c0-1.4,0-2.7,0-4.1l0,0c0.4,0,0.8,0,1.2,0c1,0,2.1,0,3.1,0
		c0.2,0,0.4,0,0.6,0c1.2,0,2.5,0,3.7,0c0,0,0.1,0,0.1,0c2.8,0,5.6,0,8.4,0c0,0,0.1,0,0.1,0c0.3,0,0.5,0,0.8,0c1.2,0,2.4,0,3.5,0
		c0.1,0,0.1,0,0.2,0C40.2,55.9,41.6,55.9,42.9,55.9L42.9,55.9z"/>
	<path d="M8.5,4.2c0-1.4,0-2.8,0-4.2C14.3,0,20,0,25.7,0c0,1.4,0,2.8,0,4.2c-0.4,0-0.8,0-1.2,0c-1,0-2.1,0-3.1,0c-0.1,0-0.2,0-0.3,0
		c-1.3,0-2.7,0-4,0c-0.4,0-0.8,0-1.2,0c-1,0-2.1,0-3.1,0C11.4,4.2,10,4.2,8.5,4.2L8.5,4.2z"/>
	<path d="M51.5,0c0,1.4,0,2.8,0,4.2l0,0c-0.4,0-0.8,0-1.1,0c-1.1,0-2.1,0-3.2,0c-0.4,0-0.8,0-1.2,0c-1,0-2.1,0-3.1,0
		c-0.1,0-0.2,0-0.3,0c-1.3,0-2.7,0-4,0c-1.4,0-2.9,0-4.3,0c0-1.4,0-2.8,0-4.2C40.1,0,45.8,0,51.5,0z"/>
	<path d="M4.2,25.7c-1.4,0-2.8,0-4.2,0c0-1.4,0-2.9,0-4.3c1.4,0,2.8,0,4.2,0l0,0C4.2,22.9,4.2,24.3,4.2,25.7L4.2,25.7z"/>
	<path d="M60,25.7c-1.4,0-2.8,0-4.2,0l0,0c0-1.4,0-2.9,0-4.3l0,0c1.4,0,2.8,0,4.2,0C60,22.9,60,24.3,60,25.7z"/>
	<path d="M51.5,8.5c0,1.4,0,2.8,0,4.1c0,0.1,0,0.2-0.2,0.2c-1.3,0-2.6,0-4,0c-0.1,0-0.2,0-0.2,0.2c0,1.3,0,2.6,0,4
		c0,0.1,0,0.2-0.2,0.2c-1.3,0-2.6,0-4,0c-0.1,0-0.2,0-0.2,0.2c0,1.3,0,2.6,0,4c0,0.1,0,0.2,0.2,0.2c2.8,0,5.6,0,8.4,0l0,0
		c0,1.4,0,2.9,0,4.3l0,0c-0.4,0-0.8,0-1.1,0c-1.1,0-2.1,0-3.2,0c-0.8,0-1.7,0-2.5,0c-0.6,0-1.2,0-1.8,0c-1.4,0-2.9,0-4.3,0
		c-1.4,0-2.9,0-4.3,0c0,0-0.1,0-0.1,0c-2.8,0-5.6,0-8.4,0c0,0-0.1,0-0.1,0c-0.8,0-1.7,0-2.5,0c-0.6,0-1.2,0-1.8,0
		c-1.4,0-2.9,0-4.3,0c-1.4,0-2.9,0-4.3,0c-0.1,0-0.1,0-0.2,0c-1.4,0-2.7,0-4.1,0l0,0c0-1.4,0-2.9,0-4.3l0,0c2.8,0,5.6,0,8.4,0
		c0.1,0,0.2,0,0.2-0.2c0-1.3,0-2.6,0-4c0-0.1,0-0.2-0.2-0.2c-1.3,0-2.6,0-4,0c-0.1,0-0.2,0-0.2-0.2c0-1.3,0-2.6,0-4
		c0-0.1,0-0.2-0.2-0.2c-1.3,0-2.6,0-4,0c-0.1,0-0.2,0-0.2-0.2c0-1.4,0-2.8,0-4.1l0,0c0.4,0,0.8,0,1.1,0c1.1,0,2.1,0,3.2,0
		c0.1,0,0.1,0,0.2,0c1.4,0,2.8,0,4.1,0l0,0c0,1.4,0,2.7,0,4.1c0,0.1,0,0.2,0.2,0.2c1.4,0,2.7,0,4.1,0c0,0.4,0,0.8,0,1.1
		c0,1.1,0,2.1,0,3.2c0,0.1,0,0.1,0,0.2c0,1.3,0,2.7,0,4c0,0.1,0,0.2,0.2,0.2c1.3,0,2.6,0,4,0c0.1,0,0.2,0,0.2-0.2c0-1.4,0-2.8,0-4.1
		c2.9,0,5.7,0,8.6,0c0,0.2,0,0.4,0,0.6c0,1.2,0,2.3,0,3.5c0,0.1,0,0.2,0.2,0.2c0.1,0,0.3,0,0.4,0c1.2,0,2.4,0,3.6,0
		c0.1,0,0.2,0,0.2-0.2c0-0.2,0-0.4,0-0.6c0-1.2,0-2.4,0-3.6c0-0.1,0-0.1,0-0.2c0-1.4,0-2.7,0-4.1c1.4,0,2.8,0,4.1,0
		c0.1,0,0.2,0,0.2-0.2c0-1.4,0-2.8,0-4.1l0,0c0.4,0,0.8,0,1.2,0c1,0,2.1,0,3.1,0C48.7,8.5,50.1,8.5,51.5,8.5L51.5,8.5z"/>
	<path d="M4.2,21.4c0-1.4,0-2.8,0-4.2c0-0.1,0-0.1,0.1-0.1c1.3,0,2.7,0,4,0c0.1,0,0.1,0,0.1,0.1c0,1.4,0,2.8,0,4.2l0,0
		C7.1,21.4,5.7,21.4,4.2,21.4L4.2,21.4z"/>
	<path d="M8.5,8.5c-1.4,0-2.8,0-4.1,0c-0.1,0-0.2,0-0.2-0.2c0-1.3,0-2.6,0-4c0-0.1,0-0.2,0.2-0.2c1.4,0,2.8,0,4.1,0l0,0
		C8.5,5.6,8.5,7.1,8.5,8.5L8.5,8.5z"/>
	<path d="M51.5,21.4c0-1.4,0-2.8,0-4.2c0-0.1,0-0.1,0.1-0.1c1.3,0,2.7,0,4,0c0.1,0,0.1,0,0.1,0.1c0,1.4,0,2.8,0,4.2l0,0
		C54.4,21.4,53,21.4,51.5,21.4L51.5,21.4z"/>
	<path d="M51.5,4.2c1.4,0,2.8,0,4.1,0c0.1,0,0.2,0,0.2,0.2c0,1.3,0,2.6,0,4c0,0.1,0,0.2-0.2,0.2c-1.4,0-2.8,0-4.1,0l0,0
		C51.5,7.1,51.5,5.6,51.5,4.2L51.5,4.2z"/>
	<path d="M55.8,25.7c0,3.8,0,7.6,0,11.3c0,6.2,0,12.4,0,18.6c0,0.2,0,0.2-0.2,0.2c-4.2,0-8.4,0-12.6,0c-0.1,0-0.1,0-0.2,0l0,0
		c0-0.5,0-1.1,0-1.6c0-0.9,0-1.8,0-2.7c0-1.4,0-2.8,0-4.2c0-0.1,0-0.1-0.1-0.1c-1.4,0-2.8,0-4.2,0c-0.4,0-0.7,0-1.1,0
		c-1.1,0-2.1,0-3.2,0c0,0-0.1,0-0.1,0c-2.8,0-5.6,0-8.4,0c0,0-0.1,0-0.1,0c0,0,0,0,0,0c-1.4,0-2.9,0-4.3,0c-0.5,0-1.1,0-1.6,0
		c-0.8,0-1.7,0-2.5,0c-0.1,0-0.1,0-0.1,0.1c0,1.4,0,2.8,0,4.2c0,0.1,0,0.1,0,0.2c0,1.4,0,2.7,0,4.1l0,0c-2.9,0-5.8,0-8.6,0
		c-1.4,0-2.7,0-4.1,0c-0.1,0-0.2,0-0.2-0.1c0-10,0-20,0-30l0,0c1.4,0,2.9,0,4.3,0l0,0c0,0.4,0,0.8,0,1.2c0,1,0,2.1,0,3.1
		c0,1.4,0,2.9,0,4.3c0,0.3,0,0.6,0,0.9c0,1.1,0,2.2,0,3.3c0,0.1,0,0.2,0.2,0.2c0.2,0,0.4,0,0.5,0c1.2,0,2.4,0,3.6,0
		c0.1,0,0.1,0,0.2,0c1.4,0,2.7,0,4.1,0c0,1.4,0,2.7,0,4.1c0,0.2,0,0.2,0.2,0.2c2.7,0,5.5,0,8.2,0c0.1,0,0.1,0,0.2,0c0,0,0.1,0,0.1,0
		c2.8,0,5.6,0,8.4,0c0,0,0.1,0,0.1,0c0,0,0.1,0,0.1,0c2.8,0,5.6,0,8.3,0c0.1,0,0.2,0,0.2-0.2c0-1.4,0-2.8,0-4.1c0.4,0,0.8,0,1.2,0
		c1,0,2.1,0,3.1,0c0.5,0,1,0,1.5,0c0.9,0,1.8,0,2.7,0c0.1,0,0.2,0,0.2-0.2c0-0.2,0-0.3,0-0.5c0-1.2,0-2.5,0-3.7c0-1.4,0-2.9,0-4.3
		c0-0.1,0-0.1,0-0.2c0-1.4,0-2.7,0-4.1l0,0C53,25.7,54.4,25.7,55.8,25.7L55.8,25.7z M51.5,47.3c0-1.4,0-2.8,0-4.1
		c0-0.2,0-0.2-0.2-0.2c-1.3,0-2.6,0-4,0c-0.1,0-0.2,0-0.2,0.2c0,2.8,0,5.5,0,8.3c0,0.1,0,0.2,0.2,0.2c1.3,0,2.7,0,4,0
		c0.1,0,0.2,0,0.2-0.2C51.5,50,51.5,48.7,51.5,47.3z M8.5,47.3c0,1.4,0,2.8,0,4.1c0,0.1,0,0.2,0.2,0.2c1.3,0,2.6,0,4,0
		c0.1,0,0.2,0,0.2-0.2c0-2.8,0-5.5,0-8.3c0-0.1,0-0.2-0.2-0.2c-1.3,0-2.7,0-4,0c-0.1,0-0.2,0-0.2,0.2C8.5,44.5,8.5,45.9,8.5,47.3z"
		/>
	<path class="st0" d="M34.3,55.9c0,0-0.1,0-0.1,0c-2.8,0-5.6,0-8.4,0c0,0-0.1,0-0.1,0c0-0.3,0-0.6,0-0.9c0-1.1,0-2.2,0-3.4
		c2.9,0,5.7,0,8.6,0c0,0.1,0,0.1,0,0.2C34.3,53.2,34.3,54.5,34.3,55.9z"/>
	<path class="st1" d="M34.3,55.9c0-1.4,0-2.7,0-4.1c0-0.1,0-0.1,0-0.2c0-0.1,0-0.1,0-0.2c0-1.4,0-2.7,0-4.1c1.1,0,2.1,0,3.2,0
		c0.4,0,0.7,0,1.1,0c0,1.4,0,2.9,0,4.3c0,0.1,0,0.1,0,0.2c0,1.4,0,2.7,0,4.1c-1.2,0-2.4,0-3.5,0C34.8,55.9,34.6,55.9,34.3,55.9z"/>
	<path class="st1" d="M25.7,51.6c0,1.1,0,2.2,0,3.4c0,0.3,0,0.6,0,0.9c-1.2,0-2.5,0-3.7,0c-0.2,0-0.4,0-0.6,0c0-0.8,0-1.5,0-2.3
		c0-0.7,0-1.3,0-2c0-1.4,0-2.9,0-4.3c1.4,0,2.9,0,4.3,0c0,0,0,0,0,0c0,0.3,0,0.6,0,1C25.7,49.4,25.7,50.5,25.7,51.6z"/>
	<path class="st2" d="M38.6,55.9c0-1.4,0-2.7,0-4.1c0-0.1,0-0.1,0-0.2c1.4,0,2.9,0,4.3,0c0,0.9,0,1.8,0,2.7c0,0.5,0,1.1,0,1.6
		c-1.4,0-2.7,0-4.1,0C38.8,55.9,38.7,55.9,38.6,55.9z"/>
	<path class="st2" d="M21.4,51.6c0,0.7,0,1.3,0,2c0,0.8,0,1.5,0,2.3c-1,0-2.1,0-3.1,0c-0.4,0-0.8,0-1.2,0c0-1.4,0-2.7,0-4.1
		c0-0.1,0-0.1,0-0.2C18.6,51.6,20,51.6,21.4,51.6z"/>
	<path class="st1" d="M8.5,8.5c0-1.4,0-2.9,0-4.3c1.4,0,2.9,0,4.3,0c0,1.4,0,2.9,0,4.3c-1.1,0-2.1,0-3.2,0C9.3,8.5,8.9,8.5,8.5,8.5z
		"/>
	<path class="st3" d="M12.8,8.5c0-1.4,0-2.9,0-4.3c1,0,2.1,0,3.1,0c0.4,0,0.8,0,1.2,0c0,1.4,0,2.9,0,4.3c-1.4,0-2.8,0-4.1,0
		C12.9,8.5,12.9,8.5,12.8,8.5z"/>
	<path class="st3" d="M21.4,4.2c1,0,2.1,0,3.1,0c0.4,0,0.8,0,1.2,0l0,0c0,0.8,0,1.6,0,2.3c0,0.7,0,1.3,0,2c0,0,0,0,0,0
		c-0.5,0-1.1,0-1.6,0c-0.9,0-1.8,0-2.7,0l0,0C21.4,7.1,21.4,5.6,21.4,4.2z"/>
	<path class="st1" d="M21.4,4.2c0,1.4,0,2.9,0,4.3c-1.4,0-2.9,0-4.3,0l0,0c0-1.4,0-2.9,0-4.3c1.3,0,2.7,0,4,0
		C21.2,4.2,21.3,4.2,21.4,4.2z"/>
	<path class="st1" d="M51.5,4.2c0,1.4,0,2.9,0,4.3c-1.4,0-2.9,0-4.3,0c0-1.4,0-2.9,0-4.3c1.1,0,2.1,0,3.2,0
		C50.8,4.2,51.2,4.2,51.5,4.2z"/>
	<path class="st3" d="M47.2,4.2c0,1.4,0,2.9,0,4.3c-1,0-2.1,0-3.1,0c-0.4,0-0.8,0-1.2,0c0-1.4,0-2.9,0-4.3c1,0,2.1,0,3.1,0
		C46.5,4.2,46.8,4.2,47.2,4.2z"/>
	<path class="st1" d="M42.9,4.2c0,1.4,0,2.9,0,4.3l0,0c-1.4,0-2.9,0-4.3,0c0-1.4,0-2.9,0-4.3c1.3,0,2.7,0,4,0
		C42.7,4.2,42.8,4.2,42.9,4.2z"/>
	<path class="st3" d="M38.6,4.2c0,1.4,0,2.9,0,4.3l0,0c-1.1,0-2.2,0-3.4,0c-0.3,0-0.6,0-0.9,0l0,0c0-0.1,0-0.1,0-0.2
		c0-1.4,0-2.7,0-4.1l0,0C35.8,4.2,37.2,4.2,38.6,4.2z"/>
	<path d="M34.3,4.2c0,1.4,0,2.7,0,4.1c0,0.1,0,0.1,0,0.2c-2.9,0-5.7,0-8.6,0c0-0.7,0-1.3,0-2c0-0.8,0-1.6,0-2.3
		C28.6,4.2,31.5,4.2,34.3,4.2z"/>
	<path class="st4" d="M8.5,25.7c-1.4,0-2.9,0-4.3,0c0-1.4,0-2.9,0-4.3c1.4,0,2.9,0,4.3,0C8.5,22.9,8.5,24.3,8.5,25.7z"/>
	<path class="st4" d="M55.8,25.7c-1.4,0-2.9,0-4.3,0c0-1.4,0-2.9,0-4.3c1.4,0,2.9,0,4.3,0C55.8,22.9,55.8,24.3,55.8,25.7z"/>
	<path class="st4" d="M25.7,8.5c2.9,0,5.7,0,8.6,0l0,0c0,1.4,0,2.9,0,4.3c0,1.4,0,2.9,0,4.3l0,0c-2.9,0-5.7,0-8.6,0l0,0
		c0-0.8,0-1.5,0-2.3c0-0.7,0-1.3,0-2C25.7,11.4,25.7,10,25.7,8.5L25.7,8.5z"/>
	<path class="st0" d="M25.7,25.7c0,0,0.1,0,0.1,0c2.8,0,5.6,0,8.4,0c0,0,0.1,0,0.1,0c0,1.4,0,2.9,0,4.3c-2.9,0-5.7,0-8.6,0
		C25.7,28.6,25.7,27.2,25.7,25.7z"/>
	<path class="st4" d="M25.7,17.1c0,1.4,0,2.8,0,4.1c0,0.1,0,0.2-0.2,0.2c-1.3,0-2.6,0-4,0c-0.1,0-0.2,0-0.2-0.2c0-1.3,0-2.7,0-4
		c0-0.1,0-0.1,0-0.2C22.9,17.1,24.3,17.1,25.7,17.1L25.7,17.1z"/>
	<path class="st4" d="M38.6,17.1c0,1.2,0,2.4,0,3.6c0,0.2,0,0.4,0,0.6c0,0.1,0,0.2-0.2,0.2c-1.2,0-2.4,0-3.6,0c-0.1,0-0.3,0-0.4,0
		c-0.1,0-0.2,0-0.2-0.2c0-1.2,0-2.3,0-3.5c0-0.2,0-0.4,0-0.6l0,0C35.8,17.1,37.2,17.1,38.6,17.1z"/>
	<path class="st3" d="M51.5,25.7c0,1.4,0,2.7,0,4.1c0,0.1,0,0.1,0,0.2c-1.4,0-2.9,0-4.3,0c0-1.4,0-2.9,0-4.3c1.1,0,2.1,0,3.2,0
		C50.8,25.7,51.2,25.7,51.5,25.7z"/>
	<path class="st3" d="M38.6,17.1c-1.4,0-2.9,0-4.3,0c0-1.4,0-2.9,0-4.3c0.5,0,1,0,1.5,0c0.9,0,1.9,0,2.8,0l0,0c0,1.4,0,2.7,0,4.1
		C38.6,17,38.6,17.1,38.6,17.1z"/>
	<path class="st3" d="M8.5,30.1c0-1,0-2.1,0-3.1c0-0.4,0-0.8,0-1.2c1.4,0,2.7,0,4.1,0c0.1,0,0.1,0,0.2,0c0,1.4,0,2.9,0,4.3
		C11.4,30.1,10,30.1,8.5,30.1z"/>
	<path class="st4" d="M12.8,30.1c0-1.4,0-2.9,0-4.3c1.4,0,2.9,0,4.3,0c0,1.4,0,2.9,0,4.3C15.7,30.1,14.3,30,12.8,30.1L12.8,30.1z"/>
	<path class="st2" d="M17.1,30.1c0-1.4,0-2.9,0-4.3c1.4,0,2.9,0,4.3,0c0,1.4,0,2.9,0,4.3C20,30,18.6,30,17.1,30.1L17.1,30.1z"/>
	<path class="st4" d="M21.4,30c0-1.4,0-2.9,0-4.3c0.6,0,1.2,0,1.8,0c0.8,0,1.7,0,2.5,0c0,1.4,0,2.9,0,4.3l0,0
		C24.3,30.1,22.9,30.1,21.4,30L21.4,30z"/>
	<path class="st4" d="M34.3,30.1c0-1.4,0-2.9,0-4.3c1.4,0,2.9,0,4.3,0c0,1.4,0,2.9,0,4.3C37.2,30.1,35.8,30,34.3,30.1L34.3,30.1z"/>
	<path class="st2" d="M38.6,30.1c0-1.4,0-2.9,0-4.3c1.4,0,2.9,0,4.3,0c0,1.4,0,2.9,0,4.3C41.5,30.1,40.1,30,38.6,30.1L38.6,30.1z"/>
	<path class="st4" d="M42.9,30.1c0-1.4,0-2.9,0-4.3c0.6,0,1.2,0,1.8,0c0.8,0,1.7,0,2.5,0c0,1.4,0,2.9,0,4.3l0,0
		C45.8,30,44.4,30,42.9,30.1L42.9,30.1z"/>
	<path class="st3" d="M25.7,17.1c-1.4,0-2.9,0-4.3,0c0-1.1,0-2.1,0-3.2c0-0.4,0-0.8,0-1.1l0,0c0.1,0,0.1,0,0.2,0c1.4,0,2.8,0,4.1,0
		c0,0.7,0,1.3,0,2C25.7,15.6,25.7,16.4,25.7,17.1z"/>
	<path class="st3" d="M38.6,8.5c1.4,0,2.9,0,4.3,0c0,1.4,0,2.8,0,4.1c0,0.1,0,0.2-0.2,0.2c-1.4,0-2.8,0-4.1,0c0,0,0,0,0,0
		c0-0.8,0-1.6,0-2.4C38.6,9.8,38.6,9.1,38.6,8.5L38.6,8.5z"/>
	<path class="st3" d="M17.1,8.5c1.4,0,2.9,0,4.3,0l0,0c0,0.2,0,0.4,0,0.6c0,1.2,0,2.4,0,3.7l0,0c-1.4,0-2.7,0-4.1,0
		c-0.2,0-0.2,0-0.2-0.2C17.1,11.3,17.1,9.9,17.1,8.5z"/>
	<path class="st3" d="M25.7,51.6c0-1.1,0-2.2,0-3.3c0-0.3,0-0.6,0-1c0,0,0.1,0,0.1,0c2.8,0,5.6,0,8.4,0c0,0,0.1,0,0.1,0
		c0,1.4,0,2.7,0,4.1c0,0.1,0,0.1,0,0.2C31.5,51.6,28.6,51.6,25.7,51.6z"/>
	<path class="st1" d="M51.5,47.3c0,1.4,0,2.8,0,4.1c0,0.1,0,0.2-0.2,0.2c-1.3,0-2.7,0-4,0c-0.1,0-0.2,0-0.2-0.2c0-2.8,0-5.5,0-8.3
		c0-0.1,0-0.2,0.2-0.2c1.3,0,2.6,0,4,0c0.1,0,0.2,0,0.2,0.2C51.5,44.5,51.5,45.9,51.5,47.3z"/>
	<path class="st1" d="M8.5,47.3c0-1.4,0-2.8,0-4.1c0-0.1,0-0.2,0.2-0.2c1.3,0,2.7,0,4,0c0.1,0,0.2,0,0.2,0.2c0,2.8,0,5.5,0,8.3
		c0,0.1,0,0.2-0.2,0.2c-1.3,0-2.6,0-4,0c-0.1,0-0.2,0-0.2-0.2C8.5,50,8.5,48.7,8.5,47.3z"/>
	<path class="st1" d="M42.9,38.7c0,1.4,0,2.8,0,4.1c0,0.1,0,0.2-0.2,0.2c-2.8,0-5.6,0-8.3,0c0,0-0.1,0-0.1,0c0-1.4,0-2.9,0-4.3
		c0.4,0,0.7,0,1.1,0c1.1,0,2.2,0,3.2,0c0.9,0,1.9,0,2.8,0C41.9,38.7,42.4,38.7,42.9,38.7L42.9,38.7z"/>
	<path class="st4" d="M34.3,38.7c0,1.4,0,2.9,0,4.3c0,0-0.1,0-0.1,0c-2.8,0-5.6,0-8.4,0c0,0-0.1,0-0.1,0c0-1.4,0-2.9,0-4.3
		C28.6,38.7,31.5,38.7,34.3,38.7L34.3,38.7z"/>
	<path class="st1" d="M25.7,38.7c0,1.4,0,2.9,0,4.3c-0.1,0-0.1,0-0.2,0c-2.7,0-5.5,0-8.2,0c-0.1,0-0.2,0-0.2-0.2c0-1.4,0-2.7,0-4.1
		l0,0c1.4,0,2.9,0,4.3,0c0.1,0,0.1,0,0.2,0C23,38.7,24.4,38.7,25.7,38.7L25.7,38.7z"/>
	<path class="st2" d="M8.5,30.1c1.4,0,2.9,0,4.3,0l0,0c0,1.4,0,2.9,0,4.3l0,0c-1.4,0-2.9,0-4.3,0C8.5,32.9,8.5,31.5,8.5,30.1z"/>
	<path class="st2" d="M47.2,30.1c1.4,0,2.9,0,4.3,0c0,1.4,0,2.9,0,4.3c-1.4,0-2.9,0-4.3,0l0,0C47.2,32.9,47.2,31.5,47.2,30.1
		L47.2,30.1z"/>
	<path class="st3" d="M8.5,34.4c1.4,0,2.9,0,4.3,0c0,1.4,0,2.9,0,4.3c-1.2,0-2.4,0-3.6,0c-0.2,0-0.4,0-0.5,0c-0.1,0-0.2,0-0.2-0.2
		c0-1.1,0-2.2,0-3.3C8.5,34.9,8.5,34.6,8.5,34.4z"/>
	<path class="st4" d="M12.8,38.7c0-1.4,0-2.9,0-4.3l0,0c1.4,0,2.9,0,4.3,0l0,0c0,1.4,0,2.9,0,4.3l0,0c-1.4,0-2.7,0-4.1,0
		C13,38.7,12.9,38.7,12.8,38.7z"/>
	<path class="st4" d="M47.2,38.7c-1,0-2.1,0-3.1,0c-0.4,0-0.8,0-1.2,0l0,0c0-1.4,0-2.9,0-4.3l0,0c1.4,0,2.9,0,4.3,0c0,0,0,0,0,0
		C47.2,35.8,47.2,37.2,47.2,38.7z"/>
	<path class="st3" d="M47.2,38.7c0-1.4,0-2.9,0-4.3c1.4,0,2.9,0,4.3,0c0,1.2,0,2.5,0,3.7c0,0.2,0,0.3,0,0.5c0,0.1,0,0.2-0.2,0.2
		c-0.9,0-1.8,0-2.7,0C48.2,38.7,47.7,38.7,47.2,38.7z"/>
	<path class="st3" d="M21.4,51.6c-1.4,0-2.9,0-4.3,0c0-1.4,0-2.8,0-4.2c0-0.1,0.1-0.1,0.1-0.1c0.8,0,1.7,0,2.5,0c0.5,0,1.1,0,1.6,0
		C21.4,48.7,21.4,50.2,21.4,51.6z"/>
	<path class="st3" d="M42.9,51.6c-1.4,0-2.9,0-4.3,0c0-1.4,0-2.9,0-4.3c1.4,0,2.8,0,4.2,0c0.1,0,0.1,0,0.1,0.1
		C42.9,48.8,42.9,50.2,42.9,51.6z"/>
	<path class="st2" d="M21.4,12.8c0-1.2,0-2.4,0-3.7c0-0.2,0-0.4,0-0.6c0.9,0,1.8,0,2.7,0c0.5,0,1.1,0,1.6,0c0,1.4,0,2.9,0,4.3
		c-1.4,0-2.8,0-4.1,0C21.5,12.8,21.5,12.8,21.4,12.8z"/>
	<path class="st2" d="M38.6,8.5c0,0.6,0,1.2,0,1.8c0,0.8,0,1.6,0,2.4c-0.9,0-1.9,0-2.8,0c-0.5,0-1,0-1.5,0c0-1.4,0-2.9,0-4.3
		c0.3,0,0.6,0,0.9,0C36.4,8.5,37.5,8.5,38.6,8.5z"/>
	<path class="st4" d="M25.7,30.1c2.9,0,5.7,0,8.6,0l0,0c0,1.4,0,2.9,0,4.3l0,0c-2.9,0-5.7,0-8.6,0C25.7,32.9,25.7,31.5,25.7,30.1
		L25.7,30.1z"/>
	<path class="st3" d="M17.1,34.4c-1.4,0-2.9,0-4.3,0c0-1.4,0-2.9,0-4.3c1.4,0,2.9,0,4.3,0l0,0C17.1,31.5,17.1,32.9,17.1,34.4z"/>
	<path class="st4" d="M17.1,34.4c0-1.4,0-2.9,0-4.3c1.4,0,2.9,0,4.3,0l0,0c0,1.4,0,2.9,0,4.3C20,34.4,18.6,34.4,17.1,34.4L17.1,34.4
		z"/>
	<path class="st0" d="M21.4,34.4c0-1.4,0-2.9,0-4.3c1.4,0,2.9,0,4.3,0c0,1.4,0,2.9,0,4.3l0,0C24.3,34.4,22.9,34.4,21.4,34.4
		L21.4,34.4z"/>
	<path class="st0" d="M34.3,34.4c0-1.4,0-2.9,0-4.3c1.4,0,2.9,0,4.3,0l0,0c0,1.4,0,2.9,0,4.3C37.2,34.4,35.8,34.4,34.3,34.4z"/>
	<path class="st4" d="M38.6,34.4c0-1.4,0-2.9,0-4.3c1.4,0,2.9,0,4.3,0l0,0c0,1.4,0,2.9,0,4.3l0,0C41.5,34.4,40.1,34.4,38.6,34.4
		L38.6,34.4z"/>
	<path class="st3" d="M42.9,34.4c0-1.4,0-2.9,0-4.3c1.4,0,2.9,0,4.3,0c0,1.4,0,2.9,0,4.3C45.8,34.4,44.4,34.4,42.9,34.4z"/>
	<path class="st4" d="M34.3,34.4c1.4,0,2.9,0,4.3,0l0,0c0,1.4,0,2.9,0,4.3c-1.1,0-2.2,0-3.2,0c-0.4,0-0.7,0-1.1,0l0,0
		C34.3,37.2,34.3,35.8,34.3,34.4L34.3,34.4z"/>
	<path class="st0" d="M38.6,38.7c0-1.4,0-2.9,0-4.3c1.4,0,2.9,0,4.3,0c0,1.4,0,2.9,0,4.3c-0.5,0-1,0-1.5,0
		C40.5,38.7,39.6,38.7,38.6,38.7z"/>
	<path class="st1" d="M34.3,34.4c0,1.4,0,2.9,0,4.3c-2.9,0-5.7,0-8.6,0l0,0c0-1.4,0-2.9,0-4.3l0,0C28.6,34.4,31.5,34.4,34.3,34.4z"
		/>
	<path class="st0" d="M17.1,34.4c1.4,0,2.9,0,4.3,0l0,0c0,1.4,0,2.9,0,4.3c-1.4,0-2.9,0-4.3,0C17.1,37.2,17.1,35.8,17.1,34.4z"/>
	<path class="st4" d="M21.4,38.7c0-1.4,0-2.9,0-4.3c1.4,0,2.9,0,4.3,0c0,1.4,0,2.9,0,4.3c-1.4,0-2.7,0-4.1,0
		C21.6,38.7,21.5,38.7,21.4,38.7z"/>
</g>
</svg>
