<svg width="32" height="32" viewBox="0 0 32 32" fill="none" xmlns="http://www.w3.org/2000/svg">
<mask id="mask0_109_3033" style="mask-type:luminance" maskUnits="userSpaceOnUse" x="0" y="0" width="32" height="32">
<path d="M0 32H32V0H0V32Z" fill="white"/>
</mask>
<g mask="url(#mask0_109_3033)">
<g filter="url(#filter0_d_109_3033)">
<path d="M32 31.5H0M32 30.5H0M32 29.5H30M21 29.5H18M14 29.5H11M2 29.5H0M32 28.5H30M21 28.5H18M14 28.5H11M2 28.5H0M32 27.5H30M21 27.5H18M14 27.5H11M2 27.5H0M32 26.5H27M18 26.5H14M5 26.5H0M32 25.5H27M18 25.5H14M5 25.5H0M32 24.5H30M18 24.5H14M2 24.5H0M32 23.5H30M18 23.5H14M2 23.5H0M32 22.5H30M2 22.5H0M32 21.5H30M2 21.5H0M32 20.5H27M5 20.5H0M32 19.5H27M5 19.5H0M32 18.5H27M5 18.5H0M32 17.5H30M27 17.5H25M7 17.5H5M2 17.5H0M32 16.5H30M27 16.5H25M7 16.5H5M2 16.5H0M32 15.5H30M27 15.5H21M11 15.5H5M2 15.5H0M32 14.5H30M27 14.5H21M11 14.5H5M2 14.5H0M32 13.5H30M2 13.5H0M32 12.5H30M2 12.5H0M32 11.5H30M2 11.5H0M32 10.5H30M25 10.5H23M9 10.5H7M2 10.5H0M32 9.5H30M25 9.5H23M9 9.5H7M2 9.5H0M32 8.5H30M27 8.5H23M21 8.5H18M14 8.5H11M9 8.5H5M2 8.5H0M32 7.5H30M27 7.5H23M21 7.5H18M14 7.5H11M9 7.5H5M2 7.5H0M32 6.5H30M2 6.5H0M32 5.5H30M2 5.5H0M32 4.5H30M21 4.5H18M14 4.5H11M2 4.5H0M32 3.5H30M21 3.5H18M14 3.5H11M2 3.5H0M32 2.5H30M21 2.5H18M14 2.5H11M2 2.5H0M32 1.5H0M32 0.5H0" stroke="#1A0200"/>
<path d="M30 29.5H27M18 29.5H14M5 29.5H2M30 28.5H27M18 28.5H14M5 28.5H2M30 27.5H27M18 27.5H14M5 27.5H2M30 22.5H27M5 22.5H2M30 21.5H27M5 21.5H2M27 20.5H25M7 20.5H5M27 19.5H25M7 19.5H5M27 18.5H25M7 18.5H5M25 17.5H21M11 17.5H7M25 16.5H21M11 16.5H7M25 13.5H23M9 13.5H7M25 12.5H23M9 12.5H7M25 11.5H23M9 11.5H7M27 10.5H25M21 10.5H18M14 10.5H11M7 10.5H5M27 9.5H25M21 9.5H18M14 9.5H11M7 9.5H5M21 6.5H18M14 6.5H11M21 5.5H18M14 5.5H11M30 4.5H21M18 4.5H14M11 4.5H2M30 3.5H21M18 3.5H14M11 3.5H2M30 2.5H21M18 2.5H14M11 2.5H2" stroke="#E61300"/>
<path d="M27 29.5H21M11 29.5H5M27 28.5H21M11 28.5H5M27 27.5H21M11 27.5H5M27 26.5H18M14 26.5H5M27 25.5H18M14 25.5H5M30 24.5H18M14 24.5H2M30 23.5H18M14 23.5H2M27 22.5H5M27 21.5H5M25 20.5H7M25 19.5H7M25 18.5H7M30 17.5H27M21 17.5H11M5 17.5H2M30 16.5H27M21 16.5H11M5 16.5H2M30 15.5H27M21 15.5H11M5 15.5H2M30 14.5H27M21 14.5H11M5 14.5H2M30 13.5H25M23 13.5H9M7 13.5H2M30 12.5H25M23 12.5H9M7 12.5H2M30 11.5H25M23 11.5H9M7 11.5H2M30 10.5H27M23 10.5H21M18 10.5H14M11 10.5H9M5 10.5H2M30 9.5H27M23 9.5H21M18 9.5H14M11 9.5H9M5 9.5H2M30 8.5H27M23 8.5H21M18 8.5H14M11 8.5H9M5 8.5H2M30 7.5H27M23 7.5H21M18 7.5H14M11 7.5H9M5 7.5H2M30 6.5H21M18 6.5H14M11 6.5H2M30 5.5H21M18 5.5H14M11 5.5H2" stroke="#FF8A80"/>
</g>
</g>
<defs>
<filter id="filter0_d_109_3033" x="-4" y="0" width="40" height="40" filterUnits="userSpaceOnUse" color-interpolation-filters="sRGB">
<feFlood flood-opacity="0" result="BackgroundImageFix"/>
<feColorMatrix in="SourceAlpha" type="matrix" values="0 0 0 0 0 0 0 0 0 0 0 0 0 0 0 0 0 0 127 0" result="hardAlpha"/>
<feOffset dy="4"/>
<feGaussianBlur stdDeviation="2"/>
<feComposite in2="hardAlpha" operator="out"/>
<feColorMatrix type="matrix" values="0 0 0 0 0 0 0 0 0 0 0 0 0 0 0 0 0 0 0.25 0"/>
<feBlend mode="normal" in2="BackgroundImageFix" result="effect1_dropShadow_109_3033"/>
<feBlend mode="normal" in="SourceGraphic" in2="effect1_dropShadow_109_3033" result="shape"/>
</filter>
</defs>
</svg>
