<svg xmlns="http://www.w3.org/2000/svg" viewBox="0 -0.5 32 32" shape-rendering="crispEdges">
<metadata>Made with Pixels to Svg https://codepen.io/shshaw/pen/XbxvNj</metadata>
<path stroke="#000b1a" d="M5 0h22M5 1h22M5 2h22M3 3h5M24 3h5M3 4h5M24 4h5M0 5h5M11 5h2M19 5h2M27 5h5M0 6h5M11 6h2M19 6h2M27 6h5M0 7h5M11 7h2M19 7h2M27 7h5M0 8h3M5 8h3M13 8h6M24 8h3M29 8h3M0 9h3M5 9h3M13 9h6M24 9h3M29 9h3M0 10h3M5 10h3M13 10h6M24 10h3M29 10h3M0 11h5M13 11h6M27 11h5M0 12h5M13 12h6M27 12h5M0 13h3M8 13h3M21 13h3M29 13h3M0 14h3M8 14h3M21 14h3M29 14h3M0 15h3M8 15h3M21 15h3M29 15h3M0 16h3M29 16h3M0 17h3M29 17h3M0 18h3M29 18h3M0 19h3M29 19h3M0 20h3M29 20h3M0 21h3M13 21h6M29 21h3M0 22h3M13 22h6M29 22h3M0 23h3M13 23h6M29 23h3M0 24h3M29 24h3M0 25h3M29 25h3M0 26h3M29 26h3M0 27h5M27 27h5M0 28h5M27 28h5M3 29h26M3 30h26M3 31h26" />
<path stroke="#0060e6" d="M8 3h16M8 4h16M5 5h3M24 5h3M5 6h3M24 6h3M5 7h3M24 7h3M3 8h2M11 8h2M19 8h2M27 8h2M3 9h2M11 9h2M19 9h2M27 9h2M3 10h2M11 10h2M19 10h2M27 10h2M5 11h3M24 11h3M5 12h3M24 12h3M3 13h2M13 13h6M27 13h2M3 14h2M13 14h6M27 14h2M3 15h2M13 15h6M27 15h2M8 16h3M21 16h3M8 17h3M21 17h3M8 18h3M21 18h3M13 24h6M13 25h6M13 26h6" />
<path stroke="#80b5ff" d="M8 5h3M13 5h6M21 5h3M8 6h3M13 6h6M21 6h3M8 7h3M13 7h6M21 7h3M8 8h3M21 8h3M8 9h3M21 9h3M8 10h3M21 10h3M8 11h5M19 11h5M8 12h5M19 12h5M5 13h3M11 13h2M19 13h2M24 13h3M5 14h3M11 14h2M19 14h2M24 14h3M5 15h3M11 15h2M19 15h2M24 15h3M3 16h5M11 16h10M24 16h5M3 17h5M11 17h10M24 17h5M3 18h5M11 18h10M24 18h5M3 19h26M3 20h26M3 21h10M19 21h10M3 22h10M19 22h10M3 23h10M19 23h10M3 24h10M19 24h10M3 25h10M19 25h10M3 26h10M19 26h10M5 27h22M5 28h22" />
</svg>