<svg xmlns="http://www.w3.org/2000/svg" viewBox="0 -0.5 32 32" shape-rendering="crispEdges">
<metadata>Made with Pixels to Svg https://codepen.io/shshaw/pen/XbxvNj</metadata>
<path stroke="#001a1a" d="M0 0h32M0 1h32M0 2h32M0 3h3M13 3h6M29 3h3M0 4h3M13 4h6M29 4h3M0 5h3M29 5h3M0 6h3M29 6h3M0 7h3M29 7h3M0 8h3M5 8h3M24 8h3M29 8h3M0 9h3M5 9h3M24 9h3M29 9h3M0 10h3M5 10h3M24 10h3M29 10h3M0 11h3M29 11h3M0 12h3M29 12h3M0 13h3M8 13h3M21 13h3M29 13h3M0 14h3M8 14h3M21 14h3M29 14h3M0 15h3M8 15h3M21 15h3M29 15h3M0 16h3M11 16h2M19 16h2M29 16h3M0 17h3M11 17h2M19 17h2M29 17h3M0 18h3M11 18h2M19 18h2M29 18h3M0 19h3M8 19h5M19 19h5M29 19h3M0 20h3M8 20h5M19 20h5M29 20h3M0 21h3M13 21h6M29 21h3M0 22h3M13 22h6M29 22h3M0 23h3M13 23h6M29 23h3M0 24h5M11 24h10M27 24h5M0 25h5M11 25h10M27 25h5M0 26h5M11 26h10M27 26h5M0 27h3M13 27h6M29 27h3M0 28h3M13 28h6M29 28h3M0 29h32M0 30h32M0 31h32" />
<path stroke="#00e6e6" d="M3 3h10M19 3h10M3 4h10M19 4h10M13 5h6M13 6h6M13 7h6M5 11h3M24 11h3M5 12h3M24 12h3M8 16h3M21 16h3M8 17h3M21 17h3M8 18h3M21 18h3M8 21h5M19 21h5M8 22h5M19 22h5M8 23h5M19 23h5M3 27h2M11 27h2M19 27h2M27 27h2M3 28h2M11 28h2M19 28h2M27 28h2" />
<path stroke="#80ffff" d="M3 5h10M19 5h10M3 6h10M19 6h10M3 7h10M19 7h10M3 8h2M8 8h16M27 8h2M3 9h2M8 9h16M27 9h2M3 10h2M8 10h16M27 10h2M3 11h2M8 11h16M27 11h2M3 12h2M8 12h16M27 12h2M3 13h5M11 13h10M24 13h5M3 14h5M11 14h10M24 14h5M3 15h5M11 15h10M24 15h5M3 16h5M13 16h6M24 16h5M3 17h5M13 17h6M24 17h5M3 18h5M13 18h6M24 18h5M3 19h5M13 19h6M24 19h5M3 20h5M13 20h6M24 20h5M3 21h5M24 21h5M3 22h5M24 22h5M3 23h5M24 23h5M5 24h6M21 24h6M5 25h6M21 25h6M5 26h6M21 26h6M5 27h6M21 27h6M5 28h6M21 28h6" />
</svg>