<svg xmlns="http://www.w3.org/2000/svg" viewBox="0 -0.5 32 32" shape-rendering="crispEdges">
<metadata>Made with Pixels to Svg https://codepen.io/shshaw/pen/XbxvNj</metadata>
<path stroke="#001a03" d="M0 0h32M0 1h32M0 2h32M0 3h3M5 3h6M13 3h6M21 3h6M29 3h3M0 4h3M5 4h6M13 4h6M21 4h6M29 4h3M0 5h3M5 5h3M24 5h3M29 5h3M0 6h3M5 6h3M24 6h3M29 6h3M0 7h3M5 7h3M24 7h3M29 7h3M0 8h3M8 8h5M19 8h5M29 8h3M0 9h3M8 9h5M19 9h5M29 9h3M0 10h3M8 10h5M19 10h5M29 10h3M0 11h5M13 11h6M27 11h5M0 12h5M13 12h6M27 12h5M0 13h3M29 13h3M0 14h3M29 14h3M0 15h3M29 15h3M0 16h3M5 16h3M13 16h6M24 16h3M29 16h3M0 17h3M5 17h3M13 17h6M24 17h3M29 17h3M0 18h3M5 18h3M13 18h6M24 18h3M29 18h3M0 19h5M13 19h6M27 19h5M0 20h5M13 20h6M27 20h5M0 21h3M29 21h3M0 22h3M29 22h3M0 23h3M29 23h3M0 24h8M24 24h8M0 25h8M24 25h8M0 26h8M24 26h8M5 27h6M21 27h6M5 28h6M21 28h6M8 29h16M8 30h16M8 31h16" />
<path stroke="#00e61f" d="M3 3h2M11 3h2M19 3h2M27 3h2M3 4h2M11 4h2M19 4h2M27 4h2M8 5h3M13 5h6M21 5h3M8 6h3M13 6h6M21 6h3M8 7h3M13 7h6M21 7h3M5 8h3M24 8h3M5 9h3M24 9h3M5 10h3M24 10h3M8 11h5M19 11h5M8 12h5M19 12h5M3 13h2M13 13h6M27 13h2M3 14h2M13 14h6M27 14h2M3 15h2M13 15h6M27 15h2M5 19h3M24 19h3M5 20h3M24 20h3M3 21h2M13 21h6M27 21h2M3 22h2M13 22h6M27 22h2M3 23h2M13 23h6M27 23h2" />
<path stroke="#80ff91" d="M3 5h2M11 5h2M19 5h2M27 5h2M3 6h2M11 6h2M19 6h2M27 6h2M3 7h2M11 7h2M19 7h2M27 7h2M3 8h2M13 8h6M27 8h2M3 9h2M13 9h6M27 9h2M3 10h2M13 10h6M27 10h2M5 11h3M24 11h3M5 12h3M24 12h3M5 13h8M19 13h8M5 14h8M19 14h8M5 15h8M19 15h8M3 16h2M8 16h5M19 16h5M27 16h2M3 17h2M8 17h5M19 17h5M27 17h2M3 18h2M8 18h5M19 18h5M27 18h2M8 19h5M19 19h5M8 20h5M19 20h5M5 21h8M19 21h8M5 22h8M19 22h8M5 23h8M19 23h8M8 24h16M8 25h16M8 26h16M11 27h10M11 28h10" />
</svg>