<?xml version="1.0" encoding="utf-8"?>
<!-- Generator: Adobe Illustrator 25.4.0, SVG Export Plug-In . SVG Version: 6.00 Build 0)  -->
<svg version="1.1" id="Layer_1" xmlns="http://www.w3.org/2000/svg" xmlns:xlink="http://www.w3.org/1999/xlink" x="0px" y="0px"
	 viewBox="0 0 60 60" style="enable-background:new 0 0 60 60;" xml:space="preserve">
<style type="text/css">
	.st0{fill:#BAC3FE;}
	.st1{fill:#3854FE;}
	.st2{fill:#FED30B;}
	.st3{fill:#36FEDE;}
	.st4{fill:#FE9431;}
</style>
<g>
	<path d="M0,17c0-4.3,0-8.6,0-12.9c1.4,0,2.8,0,4.2,0l0,0c0,2.8,0,5.6,0,8.4c0,0.1,0,0.1,0,0.2c0,0.1,0,0.1,0,0.2c0,1.4,0,2.8,0,4.1
		C2.8,17,1.4,17,0,17z"/>
	<path d="M12.8,0c0,1.4,0,2.7,0,4.1l0,0c-0.4,0-0.7,0-1.1,0c-1.1,0-2.1,0-3.2,0c-0.1,0-0.1,0-0.2,0c-1.4,0-2.7,0-4.1,0l0,0
		c0-1.4,0-2.7,0-4.1C7,0,9.9,0,12.8,0z"/>
	<path d="M47.2,4.1c0-1.4,0-2.7,0-4.1c2.9,0,5.7,0,8.6,0c0,1.4,0,2.7,0,4.1l0,0c-0.4,0-0.8,0-1.2,0c-1,0-2.1,0-3.1,0
		C50,4.1,48.6,4.1,47.2,4.1L47.2,4.1z"/>
	<path d="M0,21.3c1.4,0,2.8,0,4.2,0l0,0c0,1.4,0,2.9,0,4.3l0,0c-1.4,0-2.8,0-4.2,0C0,24.2,0,22.7,0,21.3z"/>
	<path class="st0" d="M34.3,51.5c0,0-0.1,0-0.1,0c-2.8,0-5.6,0-8.4,0c0,0-0.1,0-0.1,0c0-0.2,0-0.5,0-0.7c0-1.2,0-2.4,0-3.6
		c0-0.1,0-0.1,0-0.2c0-1.4,0-2.7,0-4.1c2.9,0,5.7,0,8.6,0c0,0.3,0,0.5,0,0.8c0,1.2,0,2.3,0,3.5c0,0.1,0,0.1,0,0.2
		C34.3,48.8,34.3,50.1,34.3,51.5z"/>
	<path class="st1" d="M51.5,42.9c0,1,0,2,0,3c0,1.8,0,3.6,0,5.4c0,0.1,0,0.2-0.2,0.2c-1.4,0-2.8,0-4.1,0c0-2.9,0-5.7,0-8.6
		c0.2,0,0.3,0,0.5,0C48.9,42.9,50.2,42.9,51.5,42.9L51.5,42.9z"/>
	<path class="st0" d="M47.2,42.9c0,2.9,0,5.7,0,8.6c-1.2,0-2.4,0-3.6,0c-0.2,0-0.3,0-0.5,0c-0.1,0-0.2,0-0.2-0.2c0-1.2,0-2.5,0-3.7
		c0-0.2,0-0.3,0-0.5c0-1.4,0-2.9,0-4.3C44.3,42.9,45.7,42.9,47.2,42.9L47.2,42.9z"/>
	<path class="st0" d="M17.1,47.2c0,1.3,0,2.7,0,4c0,0.3,0,0.3-0.3,0.3c-1.3,0-2.5,0-3.8,0c-0.1,0-0.1,0-0.2,0c0-2.9,0-5.7,0-8.6
		c1.4,0,2.9,0,4.3,0c0,0.3,0,0.6,0,0.8C17.1,44.9,17.1,46,17.1,47.2z"/>
	<path class="st1" d="M12.8,42.9c0,2.9,0,5.7,0,8.6c-1.3,0-2.6,0-3.9,0c-0.1,0-0.2,0-0.3,0c-0.1,0-0.1,0-0.1-0.1c0,0,0-0.1,0-0.1
		c0-2.7,0-5.5,0-8.2c0-0.1,0-0.1,0-0.2l0,0c0.1,0,0.1,0,0.2,0C10,42.9,11.4,42.9,12.8,42.9L12.8,42.9z"/>
	<path class="st2" d="M51.5,4.1c1,0,2.1,0,3.1,0c0.4,0,0.8,0,1.2,0c0,2.8,0,5.6,0,8.4c0,0.1,0,0.1,0,0.2c-1.4,0-2.9,0-4.3,0
		c0-0.4,0-0.8,0-1.1c0-1.1,0-2.1,0-3.2c0-0.1,0-0.1,0-0.2C51.5,6.8,51.5,5.5,51.5,4.1z"/>
	<path class="st0" d="M55.8,21.3c0,1.4,0,2.9,0,4.3l0,0c-1.4,0-2.9,0-4.3,0c0-1.4,0-2.9,0-4.3C52.9,21.3,54.3,21.3,55.8,21.3
		L55.8,21.3z"/>
	<path class="st3" d="M34.3,51.5c0-1.4,0-2.7,0-4.1c0-0.1,0-0.1,0-0.2c1.4,0,2.9,0,4.3,0l0,0c0,1.4,0,2.8,0,4.2c0,0.1,0,0.1-0.1,0.1
		C37.1,51.5,35.7,51.5,34.3,51.5z"/>
	<path class="st3" d="M25.7,47.2c0,1.2,0,2.4,0,3.6c0,0.2,0,0.5,0,0.7c-1.2,0-2.5,0-3.7,0c-0.2,0-0.3,0-0.5,0c-0.1,0-0.2,0-0.2-0.2
		c0-1.2,0-2.3,0-3.5c0-0.2,0-0.4,0-0.6l0,0C22.8,47.2,24.2,47.2,25.7,47.2z"/>
	<path class="st1" d="M8.5,42.9c-1.4,0-2.7,0-4.1,0c-0.2,0-0.2,0-0.2-0.2c0-1.4,0-2.7,0-4.1l0,0c1.4,0,2.9,0,4.3,0
		C8.5,40,8.5,41.4,8.5,42.9L8.5,42.9z"/>
	<path class="st1" d="M55.8,38.6c0,1.4,0,2.8,0,4.2c0,0.1-0.1,0.2-0.2,0.2c-1.4,0-2.8,0-4.1,0l0,0c0-1.4,0-2.9,0-4.3
		C52.9,38.6,54.3,38.6,55.8,38.6L55.8,38.6z"/>
	<path class="st0" d="M51.5,12.7c1.4,0,2.9,0,4.3,0c0,1,0,2.1,0,3.1c0,0.4,0,0.8,0,1.2l0,0c-1.4,0-2.9,0-4.3,0c0-0.7,0-1.3,0-2
		C51.5,14.3,51.5,13.5,51.5,12.7L51.5,12.7z"/>
	<path class="st1" d="M17.1,47.2c0-1.2,0-2.3,0-3.5c0-0.3,0-0.6,0-0.8l0,0c1.2,0,2.3,0,3.5,0c0.3,0,0.5,0,0.8,0c0,1.4,0,2.9,0,4.3
		l0,0C19.9,47.2,18.5,47.2,17.1,47.2z"/>
	<path class="st1" d="M42.9,42.9c0,1.4,0,2.9,0,4.3c-1.4,0-2.9,0-4.3,0l0,0c0-0.3,0-0.6,0-0.9c0-1.1,0-2.2,0-3.4c0,0,0.1,0,0.1,0
		C40.1,42.9,41.5,42.9,42.9,42.9L42.9,42.9z"/>
	<path d="M12.8,4.1c2.8,0,5.6,0,8.4,0c0.2,0,0.2,0,0.2,0.2c0,1.3,0,2.6,0,4c0,0.1,0,0.2,0.2,0.2c5.6,0,11.2,0,16.9,0
		c0.1,0,0.2,0,0.2-0.2c0-1.3,0-2.6,0-4c0-0.1,0-0.2,0.2-0.2c2.8,0,5.6,0,8.4,0l0,0c0,1.4,0,2.9,0,4.3l0,0c-1.4,0-2.8,0-4.1,0
		c-0.1,0-0.2,0-0.2,0.2c0,1.3,0,2.6,0,4c0,0.2,0,0.2,0.2,0.2c1.4,0,2.7,0,4.1,0l0,0c0,0.1,0,0.1,0,0.2c0,2.8,0,5.6,0,8.4l0,0
		c-0.2,0-0.3,0-0.5,0c-1.3,0-2.5,0-3.8,0c0-0.5,0-1,0-1.4c0-0.9,0-1.8,0-2.7c0-0.1,0-0.2-0.2-0.2c-0.2,0-0.4,0-0.6,0
		c-1.2,0-2.4,0-3.6,0c-0.1,0-0.1,0-0.2,0c-1.3,0-2.6,0-3.9,0c-0.1,0-0.2,0-0.2-0.2c0-1.3,0-2.6,0-4c0-0.1,0-0.2-0.2-0.2
		c-2.7,0-5.5,0-8.2,0c0,0,0,0-0.1,0c-0.1,0-0.1,0-0.1,0.1c0,0.2,0,0.4,0,0.6c0,1.2,0,2.3,0,3.5c0,0.1,0,0.2-0.2,0.2
		c-0.2,0-0.4,0-0.7,0c-1.2,0-2.3,0-3.5,0c-1.4,0-2.8,0-4.2,0c-0.1,0-0.1,0.1-0.1,0.2c0,1.4,0,2.8,0,4.2c-0.1,0-0.1,0-0.2,0
		c-1.4,0-2.7,0-4.1,0c0-1,0-2,0-3c0-1.9,0-3.8,0-5.7c1.4,0,2.8,0,4.1,0c0.1,0,0.2,0,0.2-0.2c0-1.3,0-2.6,0-4c0-0.2,0-0.2-0.2-0.2
		c-1.4,0-2.7,0-4.1,0C12.8,6.9,12.8,5.5,12.8,4.1L12.8,4.1z"/>
	<path class="st2" d="M4.2,4.1c1.4,0,2.7,0,4.1,0c0.1,0,0.1,0,0.2,0c0,0.4,0,0.7,0,1.1c0,1.1,0,2.1,0,3.2c0,0.1,0,0.1,0,0.2
		c0,1.4,0,2.7,0,4.1l0,0c-1.4,0-2.9,0-4.3,0c0-0.1,0-0.1,0-0.2C4.2,9.7,4.2,6.9,4.2,4.1z"/>
	<path class="st0" d="M4.2,12.7c1.4,0,2.9,0,4.3,0c0,1.4,0,2.9,0,4.3c-1.4,0-2.9,0-4.3,0l0,0c0-1.4,0-2.8,0-4.1
		C4.2,12.8,4.2,12.8,4.2,12.7z"/>
	<path d="M8.5,38.6c-1.4,0-2.9,0-4.3,0c0-2.8,0-5.5,0-8.3c0-1.5,0-3.1,0-4.6l0,0c1.4,0,2.9,0,4.3,0c0,0.4,0,0.8,0,1.1
		c0,1.1,0,2.1,0,3.2c0,0.2,0,0.5,0,0.7c0,1.2,0,2.4,0,3.6c0,0.1,0,0.1,0,0.2C8.5,35.8,8.5,37.2,8.5,38.6L8.5,38.6z"/>
	<path class="st1" d="M8.5,8.4c0-1.1,0-2.1,0-3.2c0-0.4,0-0.7,0-1.1c1.1,0,2.1,0,3.2,0c0.4,0,0.7,0,1.1,0c0,1.4,0,2.9,0,4.3l0,0
		C11.3,8.4,9.9,8.4,8.5,8.4z"/>
	<path class="st1" d="M47.2,8.4c0-1.4,0-2.9,0-4.3c1.4,0,2.9,0,4.3,0c0,1.4,0,2.7,0,4.1c0,0.1,0,0.1,0,0.2C50,8.4,48.6,8.4,47.2,8.4
		z"/>
	<path d="M4.2,17c1.4,0,2.9,0,4.3,0c0,0.1,0,0.1,0,0.2c0,1.4,0,2.7,0,4.1c-1.4,0-2.9,0-4.3,0l0,0C4.2,19.9,4.2,18.4,4.2,17z"/>
	<path class="st0" d="M4.2,21.3c1.4,0,2.9,0,4.3,0l0,0c0,1.4,0,2.9,0,4.3l0,0c-1.4,0-2.9,0-4.3,0C4.2,24.2,4.2,22.7,4.2,21.3z"/>
	<path class="st3" d="M34.3,42.9c-2.9,0-5.7,0-8.6,0l0,0c0-1.4,0-2.9,0-4.3c0,0,0.1,0,0.1,0c2.8,0,5.6,0,8.4,0c0,0,0.1,0,0.1,0
		C34.3,40,34.3,41.4,34.3,42.9L34.3,42.9z"/>
	<path d="M21.4,47.2c0-1.4,0-2.9,0-4.3l0,0c0.1,0,0.1,0,0.2,0c1.4,0,2.7,0,4.1,0l0,0c0,1.4,0,2.7,0,4.1c0,0.1,0,0.1,0,0.2
		C24.2,47.2,22.8,47.2,21.4,47.2z"/>
	<path d="M38.6,42.9c0,1.1,0,2.2,0,3.4c0,0.3,0,0.6,0,0.9c-1.4,0-2.9,0-4.3,0c0-1.2,0-2.3,0-3.5c0-0.3,0-0.5,0-0.8l0,0
		c0.1,0,0.3,0,0.4,0C36,42.9,37.3,42.9,38.6,42.9L38.6,42.9z"/>
	<path d="M55.8,38.6c-1.4,0-2.9,0-4.3,0l0,0c0-0.4,0-0.8,0-1.2c0-1,0-2.1,0-3.1c0-0.1,0-0.2,0-0.3c0-1.3,0-2.7,0-4
		c0-0.1,0-0.1,0-0.2c0-1.4,0-2.8,0-4.1l0,0c1.4,0,2.9,0,4.3,0C55.8,29.9,55.8,34.2,55.8,38.6z"/>
	<path class="st0" d="M51.5,38.6c0,1.4,0,2.9,0,4.3c-1.3,0-2.5,0-3.8,0c-0.2,0-0.3,0-0.5,0l0,0c0-1.4,0-2.9,0-4.3
		C48.6,38.6,50,38.6,51.5,38.6L51.5,38.6z"/>
	<path class="st3" d="M47.2,38.6c0,1.4,0,2.9,0,4.3c-1.4,0-2.9,0-4.3,0l0,0c0-1.4,0-2.9,0-4.3C44.3,38.6,45.7,38.6,47.2,38.6
		L47.2,38.6z"/>
	<path class="st3" d="M17.1,42.9c-1.4,0-2.9,0-4.3,0c0,0,0,0,0,0c0-1.4,0-2.9,0-4.3l0,0c1.4,0,2.9,0,4.3,0
		C17.1,40,17.1,41.4,17.1,42.9L17.1,42.9z"/>
	<path class="st0" d="M12.8,38.6c0,1.4,0,2.9,0,4.3c-1.4,0-2.7,0-4.1,0c-0.1,0-0.1,0-0.2,0c0-1.4,0-2.9,0-4.3l0,0
		C9.9,38.6,11.3,38.6,12.8,38.6z"/>
	<path class="st3" d="M47.2,8.4c1.4,0,2.9,0,4.3,0c0,1.1,0,2.1,0,3.2c0,0.4,0,0.8,0,1.1c0,0,0,0,0,0c-1.4,0-2.9,0-4.3,0l0,0
		C47.2,11.3,47.2,9.8,47.2,8.4L47.2,8.4z"/>
	<path d="M51.5,21.3c0,1.4,0,2.9,0,4.3l0,0c-1.4,0-2.9,0-4.3,0c0-1.4,0-2.9,0-4.3l0,0C48.6,21.3,50,21.3,51.5,21.3L51.5,21.3z"/>
	<path d="M55.8,17c0,1.4,0,2.9,0,4.3c-1.4,0-2.9,0-4.3,0l0,0c0-1.4,0-2.9,0-4.3C52.9,17,54.3,17,55.8,17z"/>
	<path class="st1" d="M51.5,17c0,1.4,0,2.9,0,4.3c-1.4,0-2.9,0-4.3,0c0-2.8,0-5.6,0-8.4c0-0.1,0-0.1,0-0.2c1.4,0,2.9,0,4.3,0
		c0,0.8,0,1.6,0,2.4C51.5,15.7,51.5,16.4,51.5,17z"/>
	<path class="st0" d="M17.1,42.9c0-1.4,0-2.9,0-4.3l0,0c1.2,0,2.3,0,3.5,0c0.3,0,0.5,0,0.8,0l0,0c0,0.3,0,0.5,0,0.8
		c0,1.2,0,2.4,0,3.5l0,0c-0.3,0-0.5,0-0.8,0C19.4,42.9,18.2,42.9,17.1,42.9z"/>
	<path class="st0" d="M42.9,38.6c0,1.4,0,2.9,0,4.3c-1.4,0-2.8,0-4.2,0c0,0-0.1,0-0.1,0l0,0c0-0.3,0-0.5,0-0.8c0-1.2,0-2.3,0-3.5
		l0,0c0,0,0.1,0,0.1,0C40.1,38.6,41.5,38.6,42.9,38.6L42.9,38.6z"/>
	<path class="st1" d="M21.4,17c1.2,0,2.3,0,3.5,0c0.2,0,0.4,0,0.7,0c0.1,0,0.2,0,0.2-0.2c0-1.2,0-2.3,0-3.5c0-0.2,0-0.4,0-0.6
		c0-0.1,0-0.1,0.1-0.1c0,0,0,0,0.1,0c2.7,0,5.5,0,8.2,0c0.2,0,0.2,0,0.2,0.2c0,1.3,0,2.6,0,4c0,0.1,0,0.2,0.2,0.2c1.3,0,2.6,0,3.9,0
		c0.1,0,0.1,0,0.2,0c0,1.4,0,2.9,0,4.3c-0.3,0-0.6,0-0.9,0c-1.1,0-2.2,0-3.4,0c0,0-0.1,0-0.1,0c-2.8,0-5.6,0-8.4,0c0,0-0.1,0-0.1,0
		c-0.1,0-0.1,0-0.2,0c-1.4,0-2.7,0-4.1,0C21.4,19.9,21.4,18.4,21.4,17z"/>
	<path class="st1" d="M8.5,21.3c0-1.4,0-2.7,0-4.1c0-0.1,0-0.1,0-0.2c0-1.4,0-2.9,0-4.3l0,0c1.4,0,2.9,0,4.3,0l0,0
		c0,1.9,0,3.8,0,5.7c0,1,0,2,0,3l0,0C11.3,21.3,9.9,21.3,8.5,21.3L8.5,21.3z"/>
	<path class="st2" d="M12.8,21.3c1.4,0,2.7,0,4.1,0c0.1,0,0.1,0,0.2,0l0,0c0,1.4,0,2.9,0,4.3c-0.1,0-0.1,0-0.2,0c-1.4,0-2.7,0-4.1,0
		l0,0C12.8,24.2,12.8,22.7,12.8,21.3L12.8,21.3z"/>
	<path class="st1" d="M12.8,8.4c1.4,0,2.7,0,4.1,0c0.2,0,0.2,0,0.2,0.2c0,1.3,0,2.6,0,4c0,0.1,0,0.2-0.2,0.2c-1.4,0-2.8,0-4.1,0l0,0
		C12.8,11.3,12.8,9.8,12.8,8.4L12.8,8.4z"/>
	<path class="st2" d="M47.2,21.3c0,1.4,0,2.9,0,4.3l0,0c-0.1,0-0.3,0-0.4,0c-1.3,0-2.6,0-3.9,0c0-1.4,0-2.9,0-4.3l0,0
		c1.3,0,2.5,0,3.8,0C46.8,21.3,47,21.3,47.2,21.3z"/>
	<path class="st3" d="M38.6,21.3c0-1.4,0-2.9,0-4.3c1.2,0,2.4,0,3.6,0c0.2,0,0.4,0,0.6,0c0.1,0,0.2,0,0.2,0.2c0,0.9,0,1.8,0,2.7
		c0,0.5,0,1,0,1.4l0,0C41.4,21.3,40,21.3,38.6,21.3L38.6,21.3z"/>
	<path class="st3" d="M21.4,17c0,1.4,0,2.9,0,4.3l0,0c-1.4,0-2.9,0-4.3,0l0,0c0-1.4,0-2.8,0-4.2c0-0.1,0-0.2,0.1-0.2
		C18.6,17,20,17,21.4,17z"/>
	<path class="st1" d="M47.2,8.4c0,1.4,0,2.9,0,4.3c-1.4,0-2.7,0-4.1,0c-0.2,0-0.2,0-0.2-0.2c0-1.3,0-2.6,0-4c0-0.1,0-0.2,0.2-0.2
		C44.4,8.4,45.8,8.4,47.2,8.4z"/>
	<path class="st3" d="M12.8,8.4c0,1.4,0,2.9,0,4.3c-1.4,0-2.9,0-4.3,0c0-1.4,0-2.7,0-4.1c0-0.1,0-0.1,0-0.2
		C9.9,8.4,11.3,8.4,12.8,8.4z"/>
	<path class="st4" d="M8.5,29.9c0-1.1,0-2.1,0-3.2c0-0.4,0-0.8,0-1.1l0,0c1.4,0,2.9,0,4.3,0l0,0c0,1.4,0,2.9,0,4.3
		C11.3,29.9,9.9,29.9,8.5,29.9z"/>
	<path class="st2" d="M8.5,29.9c1.4,0,2.9,0,4.3,0l0,0c0,1.4,0,2.9,0,4.3l0,0c-1.4,0-2.9,0-4.3,0c0-1.2,0-2.4,0-3.6
		C8.5,30.4,8.5,30.2,8.5,29.9z"/>
	<path class="st1" d="M8.5,34.2c1.4,0,2.9,0,4.3,0c0,1.4,0,2.9,0,4.3l0,0c-1.4,0-2.9,0-4.3,0c0-1.4,0-2.7,0-4.1
		C8.5,34.4,8.5,34.3,8.5,34.2z"/>
	<path d="M12.8,25.6c-1.4,0-2.9,0-4.3,0c0-1.4,0-2.9,0-4.3c1.4,0,2.9,0,4.3,0C12.8,22.7,12.8,24.2,12.8,25.6z"/>
	<path d="M34.3,38.6c0,0-0.1,0-0.1,0c-2.8,0-5.6,0-8.4,0c0,0-0.1,0-0.1,0c-1.4,0-2.9,0-4.3,0l0,0c0-1.4,0-2.9,0-4.3
		c5.7,0,11.5,0,17.2,0c0,0.3,0,0.6,0,0.9c0,1.1,0,2.2,0,3.4l0,0c-0.4,0-0.8,0-1.2,0C36.3,38.6,35.3,38.6,34.3,38.6z"/>
	<path class="st2" d="M21.4,38.6c1.4,0,2.9,0,4.3,0c0,1.4,0,2.9,0,4.3c-1.4,0-2.7,0-4.1,0c-0.1,0-0.1,0-0.2,0c0-1.2,0-2.4,0-3.5
		C21.4,39.1,21.4,38.8,21.4,38.6z"/>
	<path class="st2" d="M34.3,38.6c1,0,2.1,0,3.1,0c0.4,0,0.8,0,1.2,0c0,1.2,0,2.3,0,3.5c0,0.3,0,0.5,0,0.8c-1.3,0-2.6,0-3.9,0
		c-0.1,0-0.3,0-0.4,0C34.3,41.4,34.3,40,34.3,38.6z"/>
	<path class="st4" d="M47.2,25.6c1.4,0,2.9,0,4.3,0c0,1.4,0,2.8,0,4.1c0,0.1,0,0.1,0,0.2c-1.4,0-2.9,0-4.3,0
		C47.2,28.5,47.2,27.1,47.2,25.6L47.2,25.6z"/>
	<path class="st2" d="M47.2,29.9c1.4,0,2.9,0,4.3,0c0,1.3,0,2.7,0,4c0,0.1,0,0.2,0,0.3c-1.4,0-2.9,0-4.3,0l0,0
		C47.2,32.8,47.2,31.4,47.2,29.9L47.2,29.9z"/>
	<path class="st1" d="M47.2,34.2c1.4,0,2.9,0,4.3,0c0,1,0,2.1,0,3.1c0,0.4,0,0.8,0,1.2c-1.4,0-2.9,0-4.3,0l0,0
		C47.2,37.1,47.2,35.7,47.2,34.2z"/>
	<path class="st0" d="M47.2,34.2c0,1.4,0,2.9,0,4.3c-1.4,0-2.9,0-4.3,0l0,0c0-1.1,0-2.1,0-3.2c0-0.4,0-0.8,0-1.1c0.4,0,0.8,0,1.2,0
		C45.1,34.2,46.1,34.2,47.2,34.2L47.2,34.2z"/>
	<path class="st0" d="M12.8,38.6c0-1.4,0-2.9,0-4.3c0,0,0,0,0,0c0.4,0,0.8,0,1.2,0c1,0,2.1,0,3.1,0c0,0.1,0,0.1,0,0.2
		c0,1.4,0,2.7,0,4.1l0,0C15.6,38.6,14.2,38.6,12.8,38.6z"/>
	<path class="st1" d="M17.1,38.6c0-1.4,0-2.7,0-4.1c0-0.1,0-0.1,0-0.2l0,0c0.1,0,0.1,0,0.2,0c1.4,0,2.7,0,4.1,0l0,0
		c0,1.4,0,2.9,0,4.3c-0.3,0-0.5,0-0.8,0C19.4,38.6,18.2,38.6,17.1,38.6z"/>
	<path class="st1" d="M42.9,34.2c0,0.4,0,0.8,0,1.1c0,1.1,0,2.1,0,3.2c-1.4,0-2.8,0-4.2,0c0,0-0.1,0-0.1,0c0-1.1,0-2.2,0-3.4
		c0-0.3,0-0.6,0-0.9l0,0c0.2,0,0.4,0,0.6,0C40.4,34.2,41.6,34.2,42.9,34.2L42.9,34.2z"/>
	<path class="st3" d="M38.6,34.2c-5.7,0-11.5,0-17.2,0c0,0,0,0,0,0c0-0.4,0-0.8,0-1.2c0-1,0-2.1,0-3.1c0-0.1,0-0.3,0-0.4
		c0-1.3,0-2.6,0-3.9c0-1.4,0-2.9,0-4.3l0,0c1.4,0,2.7,0,4.1,0c0.1,0,0.1,0,0.2,0c0,1.4,0,2.8,0,4.1c0,0.1,0,0.2,0.2,0.2
		c2.8,0,5.5,0,8.3,0c0.1,0,0.2,0,0.2-0.2c0-1.4,0-2.8,0-4.1c1.1,0,2.2,0,3.4,0c0.3,0,0.6,0,0.9,0l0,0c0,0.4,0,0.8,0,1.1
		c0,1.1,0,2.1,0,3.2c0,0.3,0,0.5,0,0.8c0,1.2,0,2.3,0,3.5c0,0.1,0,0.1,0,0.2C38.6,31.5,38.6,32.9,38.6,34.2L38.6,34.2z"/>
	<path class="st2" d="M34.3,21.3c0,1.4,0,2.8,0,4.1c0,0.1,0,0.2-0.2,0.2c-2.8,0-5.5,0-8.3,0c-0.1,0-0.2,0-0.2-0.2c0-1.4,0-2.8,0-4.1
		c0,0,0.1,0,0.1,0c2.8,0,5.6,0,8.4,0C34.2,21.3,34.2,21.3,34.3,21.3z"/>
	<path class="st4" d="M21.4,21.3c0,1.4,0,2.9,0,4.3c-1.4,0-2.9,0-4.3,0l0,0c0-1.4,0-2.9,0-4.3C18.5,21.3,19.9,21.3,21.4,21.3z"/>
	<path d="M12.8,29.9c0-1.4,0-2.9,0-4.3c1.4,0,2.7,0,4.1,0c0.1,0,0.1,0,0.2,0l0,0c0,1.4,0,2.9,0,4.3l0,0
		C15.6,29.9,14.2,29.9,12.8,29.9L12.8,29.9z"/>
	<path class="st4" d="M38.6,25.6c0-1.1,0-2.1,0-3.2c0-0.4,0-0.8,0-1.1c1.4,0,2.9,0,4.3,0c0,1.4,0,2.9,0,4.3l0,0
		C41.4,25.6,40,25.6,38.6,25.6z"/>
	<path d="M47.2,25.6c0,1.4,0,2.9,0,4.3l0,0c-1.4,0-2.9,0-4.3,0l0,0c0-1.4,0-2.9,0-4.3l0,0c1.3,0,2.6,0,3.9,0
		C46.9,25.6,47,25.6,47.2,25.6z"/>
	<path class="st4" d="M12.8,29.9c1.4,0,2.9,0,4.3,0c0,1.4,0,2.9,0,4.3l0,0c-1,0-2.1,0-3.1,0c-0.4,0-0.8,0-1.2,0
		C12.8,32.8,12.8,31.4,12.8,29.9z"/>
	<path class="st4" d="M42.9,29.9c1.4,0,2.9,0,4.3,0c0,1.4,0,2.9,0,4.3c-1,0-2.1,0-3.1,0c-0.4,0-0.8,0-1.2,0l0,0
		C42.9,32.8,42.9,31.4,42.9,29.9z"/>
	<path d="M17.1,34.2c0-1.4,0-2.9,0-4.3l0,0c1.4,0,2.9,0,4.3,0c0,1,0,2.1,0,3.1c0,0.4,0,0.8,0,1.2c-1.4,0-2.7,0-4.1,0
		C17.2,34.2,17.1,34.2,17.1,34.2z"/>
	<path d="M42.9,29.9c0,1.4,0,2.9,0,4.3c-1.2,0-2.4,0-3.7,0c-0.2,0-0.4,0-0.6,0c0-1.4,0-2.7,0-4.1c0-0.1,0-0.1,0-0.2
		C40,29.9,41.4,29.9,42.9,29.9L42.9,29.9z"/>
	<path class="st2" d="M21.4,29.9c-1.4,0-2.9,0-4.3,0c0-1.4,0-2.9,0-4.3c1.4,0,2.9,0,4.3,0c0,1.3,0,2.6,0,3.9
		C21.4,29.7,21.4,29.8,21.4,29.9z"/>
	<path class="st2" d="M42.9,29.9c-1.4,0-2.9,0-4.3,0c0-1.2,0-2.3,0-3.5c0-0.3,0-0.5,0-0.8c1.4,0,2.9,0,4.3,0
		C42.9,27.1,42.9,28.5,42.9,29.9z"/>
	<g>
		<path d="M55.8,12.7c0,1,0,2.1,0,3.1c0,0.4,0,0.8,0,1.2c1.4,0,2.7,0,4.1,0c0,0,0.1,0,0.1,0h0l0-13c-0.3,0-0.6,0-0.9,0
			c-1.1,0-2.2,0-3.3,0c0,2.8,0,5.6,0,8.4C55.8,12.6,55.8,12.6,55.8,12.7z"/>
		<polygon points="55.8,4.1 55.8,4.1 55.8,4.1 		"/>
		<path d="M59.9,38.6c-1.4,0-2.7,0-4.1,0c0,1.4,0,2.8,0,4.2c0,0.1-0.1,0.2-0.2,0.2c-1.4,0-2.8,0-4.1,0c0,1,0,2,0,3
			c0,1.8,0,3.6,0,5.4c0,0.1,0,0.2-0.2,0.2c-1.4,0-2.8,0-4.1,0c-1.2,0-2.4,0-3.6,0c-0.2,0-0.3,0-0.5,0c-0.1,0-0.2,0-0.2-0.2
			c0-1.2,0-2.5,0-3.7c0-0.2,0-0.3,0-0.5c-1.4,0-2.9,0-4.3,0c0,1.4,0,2.8,0,4.2c0,0.1,0,0.1-0.1,0.1c-1.4,0-2.8,0-4.2,0
			c0,0-0.1,0-0.1,0c-2.8,0-5.6,0-8.4,0c0,0-0.1,0-0.1,0c-1.2,0-2.5,0-3.7,0c-0.2,0-0.3,0-0.5,0c-0.1,0-0.2,0-0.2-0.2
			c0-1.2,0-2.3,0-3.5c0-0.2,0-0.4,0-0.6c-1.4,0-2.9,0-4.3,0c0,1.3,0,2.7,0,4c0,0.3,0,0.3-0.3,0.3c-1.3,0-2.5,0-3.8,0
			c-0.1,0-0.1,0-0.2,0c-1.3,0-2.6,0-3.9,0c-0.1,0-0.2,0-0.3,0c-0.1,0-0.1,0-0.1-0.1c0,0,0-0.1,0-0.1c0-2.7,0-5.5,0-8.2
			c0-0.1,0-0.1,0-0.2c-1.4,0-2.7,0-4.1,0c-0.2,0-0.2,0-0.2-0.2c0-1.4,0-2.7,0-4.1c-1.4,0-2.8,0-4.2,0c0,2.9,0,5.7,0,8.6
			c1.3,0,2.7,0,4,0c0.1,0,0.2,0,0.2,0.2c0,4.2,0,8.4,0,12.7c4.3,0,8.6,0,12.9,0c0-1.3,0-2.7,0-4c0-0.1,0-0.2,0.2-0.2
			c8.5,0,17,0,25.5,0c0.1,0,0.2,0,0.2,0.2c0,1.3,0,2.7,0,4c4.3,0,8.6,0,12.9,0c0-4.2,0-8.4,0-12.6c0-0.2,0-0.2,0.2-0.2
			c1.3,0,2.6,0,3.9,0c0.1,0,0.2,0,0.2,0.2l0-8.8h0C59.9,38.5,59.9,38.6,59.9,38.6z"/>
		<path d="M60,21.3L60,21.3c0,0-0.1,0-0.1,0c-1.4,0-2.7,0-4.1,0c0,1.4,0,2.9,0,4.3c1.4,0,2.7,0,4.1,0c0,0,0.1,0,0.1,0H60L60,21.3z"
			/>
	</g>
</g>
</svg>
