<svg xmlns="http://www.w3.org/2000/svg" viewBox="0 -0.5 32 32" shape-rendering="crispEdges">
<metadata>Made with Pixels to Svg https://codepen.io/shshaw/pen/XbxvNj</metadata>
<path stroke="#00091a" d="M0 0h32M0 1h32M0 2h32M0 3h3M5 3h3M24 3h3M29 3h3M0 4h3M5 4h3M24 4h3M29 4h3M0 5h3M13 5h6M29 5h3M0 6h3M13 6h6M29 6h3M0 7h3M13 7h6M29 7h3M0 8h3M11 8h2M19 8h2M29 8h3M0 9h3M11 9h2M19 9h2M29 9h3M0 10h3M11 10h2M19 10h2M29 10h3M0 11h3M5 11h3M24 11h3M29 11h3M0 12h3M5 12h3M24 12h3M29 12h3M0 13h3M5 13h6M21 13h6M29 13h3M0 14h3M5 14h6M21 14h6M29 14h3M0 15h3M5 15h6M21 15h6M29 15h3M0 16h3M5 16h3M24 16h3M29 16h3M0 17h3M5 17h3M24 17h3M29 17h3M0 18h3M5 18h3M24 18h3M29 18h3M0 19h3M5 19h3M24 19h3M29 19h3M0 20h3M5 20h3M24 20h3M29 20h3M0 21h3M29 21h3M0 22h3M29 22h3M0 23h3M29 23h3M0 24h3M29 24h3M0 25h3M29 25h3M0 26h3M29 26h3M0 27h3M13 27h6M29 27h3M0 28h3M13 28h6M29 28h3M0 29h32M0 30h32M0 31h32" />
<path stroke="#0054e6" d="M3 3h2M8 3h16M27 3h2M3 4h2M8 4h16M27 4h2M5 5h3M24 5h3M5 6h3M24 6h3M5 7h3M24 7h3M13 8h6M13 9h6M13 10h6M11 11h2M19 11h2M11 12h2M19 12h2M8 16h3M21 16h3M8 17h3M21 17h3M8 18h3M21 18h3M5 21h3M24 21h3M5 22h3M24 22h3M5 23h3M24 23h3" />
<path stroke="#80aeff" d="M3 5h2M8 5h5M19 5h5M27 5h2M3 6h2M8 6h5M19 6h5M27 6h2M3 7h2M8 7h5M19 7h5M27 7h2M3 8h8M21 8h8M3 9h8M21 9h8M3 10h8M21 10h8M3 11h2M8 11h3M13 11h6M21 11h3M27 11h2M3 12h2M8 12h3M13 12h6M21 12h3M27 12h2M3 13h2M11 13h10M27 13h2M3 14h2M11 14h10M27 14h2M3 15h2M11 15h10M27 15h2M3 16h2M11 16h10M27 16h2M3 17h2M11 17h10M27 17h2M3 18h2M11 18h10M27 18h2M3 19h2M8 19h16M27 19h2M3 20h2M8 20h16M27 20h2M3 21h2M8 21h16M27 21h2M3 22h2M8 22h16M27 22h2M3 23h2M8 23h16M27 23h2M3 24h26M3 25h26M3 26h26M3 27h10M19 27h10M3 28h10M19 28h10" />
</svg>