<?xml version="1.0" encoding="utf-8"?>
<!-- Generator: Adobe Illustrator 25.4.0, SVG Export Plug-In . SVG Version: 6.00 Build 0)  -->
<svg version="1.1" id="Layer_1" xmlns="http://www.w3.org/2000/svg" xmlns:xlink="http://www.w3.org/1999/xlink" x="0px" y="0px"
	 viewBox="0 0 60 60" style="enable-background:new 0 0 60 60;" xml:space="preserve">
<style type="text/css">
	.st0{fill:#FEA004;}
	.st1{fill:#B8C2FE;}
	.st2{fill:#36FEDE;}
	.st3{fill:#1463EB;}
	.st4{fill:#FED30B;}
	.st5{fill:#3854FE;}
	.st6{fill:#FE9431;}
</style>
<g>
	<path d="M4.2,47.1c-1.4,0-2.8,0-4.2,0c0-5.7,0-11.5,0-17.2c1.4,0,2.8,0,4.2,0l0,0c0,1.4,0,2.9,0,4.3c0,0,0,0.1,0,0.1
		c0,2.8,0,5.6,0,8.4c0,0,0,0.1,0,0.1C4.2,44.2,4.2,45.7,4.2,47.1L4.2,47.1z"/>
	<path class="st0" d="M0,29.9c0-2.9,0-5.7,0-8.6c1.3,0,2.6,0,4,0c0.2,0,0.2,0,0.2-0.2c0-5.5,0-11,0-16.5c0-0.2-0.1-0.4,0-0.5
		c0.1-0.1,0.3,0,0.5,0c1.3,0,2.5,0,3.8,0c0,0.7,0,1.4,0,2c0,0.7,0,1.5,0,2.2c0,0.1,0,0.1,0,0.2c0,1.4,0,2.9,0,4.3c0,1.4,0,2.8,0,4.1
		c0,1.4,0,2.8,0,4.2c0,0.1,0.1,0.1,0.1,0.1c1.4,0,2.8,0,4.2,0c0,1.4,0,2.9,0,4.3c-0.1,0-0.1,0-0.2,0c-2.7,0-5.5,0-8.2,0
		c-0.1,0-0.2,0-0.2,0.2c0,1.4,0,2.7,0,4.1C2.8,29.9,1.4,29.9,0,29.9z"/>
	<path class="st0" d="M59.9,21.3c0,2.9,0,5.7,0,8.6c-1.4,0-2.8,0-4.2,0c0-1.4,0-2.7,0-4.1c0-0.2,0-0.2-0.2-0.2c-2.7,0-5.5,0-8.2,0
		c-0.1,0-0.1,0-0.2,0c0-1.4,0-2.9,0-4.3c0.6,0,1.2,0,1.8,0c0.8,0,1.6,0,2.4,0c0.1,0,0.1,0,0.1-0.1c0-1.4,0-2.8,0-4.2
		c0,0,0-0.1,0-0.1c0-2.8,0-5.6,0-8.4c0,0,0-0.1,0-0.1c0-0.1,0-0.1,0-0.2c0-1.4,0-2.7,0-4.1c0.1,0,0.1,0,0.2,0c1.3,0,2.6,0,3.9,0
		c0.2,0,0.2,0,0.2,0.2c0,5.6,0,11.2,0,16.8c0,0.2,0,0.2,0.2,0.2C57.2,21.3,58.6,21.3,59.9,21.3z"/>
	<path d="M12.8,0c0,1.4,0,2.8,0,4.1c-0.4,0-0.8,0-1.3,0c-1,0-2,0-3,0c-1.3,0-2.5,0-3.8,0c-0.2,0-0.4-0.1-0.5,0c-0.1,0.1,0,0.3,0,0.5
		c0,5.5,0,11,0,16.5c0,0.2,0,0.2-0.2,0.2c-1.3,0-2.6,0-4,0C0,14.3,0,7.2,0,0.2C0,0,0,0,0.2,0C4.4,0,8.6,0,12.8,0z"/>
	<path d="M47.1,4.1c0-1.4,0-2.8,0-4.1c4.2,0,8.4,0,12.6,0c0.1,0,0.2,0,0.2,0.2c0,7.1,0,14.1,0,21.2c-1.3,0-2.7,0-4,0
		c-0.2,0-0.2,0-0.2-0.2c0-5.6,0-11.2,0-16.8c0-0.2,0-0.2-0.2-0.2c-1.3,0-2.6,0-3.9,0c-0.1,0-0.1,0-0.2,0c-0.1,0-0.1,0-0.2,0
		C49.9,4.1,48.5,4.1,47.1,4.1z"/>
	<path d="M59.9,47.1c-1.4,0-2.8,0-4.2,0l0,0c0-0.4,0-0.7,0-1.1c0-1.1,0-2.1,0-3.2c0,0,0-0.1,0-0.1c0-2.8,0-5.6,0-8.4
		c0,0,0-0.1,0-0.1c0-1.4,0-2.9,0-4.3l0,0c1.4,0,2.8,0,4.2,0C59.9,35.6,59.9,41.4,59.9,47.1z"/>
	<path d="M47.1,25.6c0.1,0,0.1,0,0.2,0c2.7,0,5.5,0,8.2,0c0.1,0,0.2,0,0.2,0.2c0,1.4,0,2.7,0,4.1l0,0c-0.5,0-1,0-1.4,0
		c-1,0-1.9,0-2.9,0c-1.4,0-2.9,0-4.3,0c-0.1,0-0.2,0-0.3,0c-1.3,0-2.7,0-4,0c-0.3,0-0.6,0-1,0c-1.1,0-2.2,0-3.3,0
		c-1.4,0-2.9,0-4.3,0c0,0-0.1,0-0.1,0c-2.8,0-5.6,0-8.4,0c0,0-0.1,0-0.1,0c-1.4,0-2.9,0-4.3,0c-1.4,0-2.9,0-4.3,0
		c-0.6,0-1.2,0-1.8,0c-0.8,0-1.6,0-2.5,0c-0.5,0-1,0-1.4,0c-1,0-1.9,0-2.9,0c-1.4,0-2.9,0-4.3,0l0,0c0-1.4,0-2.7,0-4.1
		c0-0.2,0-0.2,0.2-0.2c2.7,0,5.5,0,8.2,0c0.1,0,0.1,0,0.2,0c0.3,0,0.6,0,0.9,0c1.1,0,2.3,0,3.4,0c0,0,0.1,0,0.1,0c2.8,0,5.6,0,8.4,0
		c0,0,0.1,0,0.1,0c0.1,0,0.1,0,0.2,0c2.7,0,5.5,0,8.2,0c0.1,0,0.1,0,0.2,0c0,0,0.1,0,0.1,0c2.8,0,5.6,0,8.4,0c0,0,0.1,0,0.1,0
		c0.1,0,0.3,0,0.4,0C44.5,25.6,45.8,25.6,47.1,25.6z"/>
	<path d="M8.5,17c0-1.4,0-2.8,0-4.1c0-1.4,0-2.9,0-4.3c0-0.1,0-0.1,0-0.2c1.4,0,2.9,0,4.3,0l0,0c0,0.4,0,0.9,0,1.3c0,1,0,2,0,3
		c0,0.1,0,0.1,0,0.2c0,1.4,0,2.7,0,4.1C11.3,17,9.9,17,8.5,17z"/>
	<path class="st1" d="M17.1,25.6c-1.1,0-2.3,0-3.4,0c-0.3,0-0.6,0-0.9,0c0-1.4,0-2.9,0-4.3l0,0c1.4,0,2.9,0,4.3,0c0,0.1,0,0.1,0,0.2
		C17.1,22.9,17.1,24.3,17.1,25.6z"/>
	<path class="st1" d="M8.5,17c1.4,0,2.9,0,4.3,0l0,0c0,1.4,0,2.9,0,4.3l0,0c-1.4,0-2.8,0-4.2,0c-0.1,0-0.1,0-0.1-0.1
		C8.5,19.8,8.5,18.4,8.5,17z"/>
	<path class="st1" d="M12.8,8.4c-1.4,0-2.9,0-4.3,0c0-0.7,0-1.5,0-2.2c0-0.7,0-1.4,0-2c1,0,2,0,3,0c0.4,0,0.8,0,1.3,0l0,0
		C12.8,5.6,12.8,7,12.8,8.4z"/>
	<path d="M51.4,8.4c0,0,0,0.1,0,0.1c0,2.8,0,5.6,0,8.4c0,0,0,0.1,0,0.1c-1.4,0-2.9,0-4.3,0c0-0.7,0-1.4,0-2.1c0-0.7,0-1.4,0-2.2
		c0-0.1,0-0.1,0-0.2c0-1.4,0-2.7,0-4.1l0,0C48.6,8.4,50,8.4,51.4,8.4z"/>
	<path class="st1" d="M47.1,17c1.4,0,2.9,0,4.3,0c0,1.4,0,2.8,0,4.2c0,0.1-0.1,0.1-0.1,0.1c-0.8,0-1.6,0-2.4,0c-0.6,0-1.2,0-1.8,0
		l0,0C47.1,19.9,47.1,18.5,47.1,17L47.1,17z"/>
	<path class="st1" d="M47.1,25.6c-1.3,0-2.6,0-3.9,0c-0.1,0-0.3,0-0.4,0c0-1.4,0-2.9,0-4.3c1.4,0,2.9,0,4.3,0l0,0
		C47.1,22.8,47.1,24.2,47.1,25.6z"/>
	<path class="st1" d="M51.4,8.4c-1.4,0-2.9,0-4.3,0c0-1.4,0-2.9,0-4.3l0,0c1.4,0,2.8,0,4.1,0c0.1,0,0.1,0,0.2,0c0,1.4,0,2.7,0,4.1
		C51.4,8.3,51.4,8.4,51.4,8.4z"/>
	<path d="M47.1,4.1c0,1.4,0,2.9,0,4.3l0,0c-0.2,0-0.4,0-0.7,0c-1.2,0-2.4,0-3.6,0c-0.5,0-0.9,0-1.4,0c-1,0-1.9,0-2.9,0
		c-1.4,0-2.9,0-4.3,0c0,0-0.1,0-0.1,0c-2.8,0-5.6,0-8.4,0c0,0-0.1,0-0.1,0c-1.4,0-2.9,0-4.3,0c-0.6,0-1.2,0-1.9,0
		c-0.8,0-1.6,0-2.4,0c-0.1,0-0.1,0-0.2,0c-1.4,0-2.7,0-4.1,0l0,0c0-1.4,0-2.9,0-4.3c0.1,0,0.1,0,0.2,0c11.4,0,22.7,0,34.1,0
		C47,4.1,47.1,4.1,47.1,4.1z"/>
	<path d="M55.7,47.1c0,1.4,0,2.8,0,4.1c0,0.1,0,0.2-0.2,0.2c-1.4,0-2.8,0-4.1,0l0,0c0-1.4,0-2.9,0-4.3
		C52.9,47.1,54.3,47.1,55.7,47.1L55.7,47.1z"/>
	<path d="M51.4,51.4c0,1.4,0,2.8,0,4.1c0,0.1,0,0.2-0.2,0.2c-1.4,0-2.8,0-4.1,0l0,0c0-1.4,0-2.9,0-4.3C48.6,51.4,50,51.4,51.4,51.4
		L51.4,51.4z"/>
	<path d="M8.5,51.4c-1.4,0-2.8,0-4.1,0c-0.1,0-0.2,0-0.2-0.2c0-1.4,0-2.8,0-4.1l0,0c1.4,0,2.9,0,4.3,0C8.5,48.5,8.5,50,8.5,51.4
		L8.5,51.4z"/>
	<path d="M12.8,55.7c-1.4,0-2.8,0-4.1,0c-0.1,0-0.2,0-0.2-0.2c0-1.4,0-2.8,0-4.1l0,0c1.4,0,2.9,0,4.3,0
		C12.8,52.8,12.8,54.3,12.8,55.7L12.8,55.7z"/>
	<path class="st2" d="M55.7,34.2c0,0,0,0.1,0,0.1c0,2.8,0,5.6,0,8.4c0,0,0,0.1,0,0.1c-1.4,0-2.9,0-4.3,0c0-0.1,0-0.2,0-0.2
		c0-1.4,0-2.7,0-4.1c0-0.1,0-0.2,0-0.3c0-1.3,0-2.7,0-4C52.9,34.2,54.3,34.2,55.7,34.2z"/>
	<path class="st3" d="M55.7,34.2c-1.4,0-2.9,0-4.3,0c0-1.4,0-2.9,0-4.3c1,0,1.9,0,2.9,0c0.5,0,1,0,1.4,0
		C55.7,31.3,55.7,32.8,55.7,34.2z"/>
	<path class="st3" d="M51.4,42.8c1.4,0,2.9,0,4.3,0c0,1.1,0,2.1,0,3.2c0,0.4,0,0.7,0,1.1c-1.4,0-2.9,0-4.3,0l0,0c0-0.4,0-0.7,0-1.1
		C51.4,44.9,51.4,43.9,51.4,42.8z"/>
	<path class="st2" d="M4.2,42.8c0,0,0-0.1,0-0.1c0-2.8,0-5.6,0-8.4c0,0,0-0.1,0-0.1c1.4,0,2.9,0,4.3,0c0,0.2,0,0.5,0,0.7
		c0,1.2,0,2.4,0,3.6c0,0.4,0,0.8,0,1.2c0,1,0,2,0,3.1C7,42.8,5.6,42.8,4.2,42.8z"/>
	<path class="st3" d="M8.5,34.2c-1.4,0-2.9,0-4.3,0c0-1.4,0-2.9,0-4.3c1.4,0,2.9,0,4.3,0c0,0.4,0,0.8,0,1.2
		C8.5,32.1,8.5,33.2,8.5,34.2z"/>
	<path class="st3" d="M4.2,42.8c1.4,0,2.9,0,4.3,0c0,0.1,0,0.1,0,0.2c0,1.4,0,2.7,0,4.1l0,0c-1.4,0-2.9,0-4.3,0
		C4.2,45.7,4.2,44.2,4.2,42.8z"/>
	<path class="st3" d="M12.8,55.7c0-1.4,0-2.9,0-4.3l0,0c1.4,0,2.9,0,4.3,0c0,1.4,0,2.9,0,4.3l0,0C15.6,55.7,14.2,55.7,12.8,55.7z"/>
	<path class="st3" d="M47.1,51.4c0,1.4,0,2.9,0,4.3c-1.4,0-2.9,0-4.3,0c0,0,0,0,0,0c0-1.4,0-2.9,0-4.3
		C44.3,51.4,45.7,51.4,47.1,51.4L47.1,51.4z"/>
	<path class="st1" d="M51.4,29.9c0,1.4,0,2.9,0,4.3c0,1.3,0,2.7,0,4c0,0.1,0,0.2,0,0.3c-1.4,0-2.9,0-4.3,0c0-1.4,0-2.9,0-4.3
		c0-0.1,0-0.1,0-0.2c0-1.4,0-2.7,0-4.1C48.6,29.9,50,29.9,51.4,29.9z"/>
	<path class="st1" d="M25.6,29.9c0,0,0.1,0,0.1,0c2.8,0,5.6,0,8.4,0c0,0,0.1,0,0.1,0c0,1.4,0,2.9,0,4.3c-2.9,0-5.7,0-8.6,0
		C25.6,32.8,25.6,31.4,25.6,29.9z"/>
	<path class="st1" d="M8.5,34.2c0-1,0-2.1,0-3.1c0-0.4,0-0.8,0-1.2c1,0,1.9,0,2.9,0c0.5,0,1,0,1.4,0c0,0.6,0,1.3,0,1.9
		c0,0.8,0,1.6,0,2.4c0,1.4,0,2.9,0,4.3c-1.4,0-2.9,0-4.3,0c0-1.2,0-2.4,0-3.6C8.5,34.7,8.5,34.5,8.5,34.2z"/>
	<path class="st2" d="M42.8,21.3c0,1.4,0,2.9,0,4.3c0,0-0.1,0-0.1,0c-2.8,0-5.6,0-8.4,0c0,0-0.1,0-0.1,0c0-1.4,0-2.9,0-4.3
		c0.7,0,1.4,0,2,0c0.8,0,1.5,0,2.3,0C40,21.3,41.4,21.3,42.8,21.3L42.8,21.3z"/>
	<path class="st4" d="M34.2,21.3c0,1.4,0,2.9,0,4.3c-0.1,0-0.1,0-0.2,0c-2.7,0-5.5,0-8.2,0c-0.1,0-0.1,0-0.2,0c0-1.4,0-2.9,0-4.3
		c0,0,0.1,0,0.1,0C28.6,21.3,31.4,21.3,34.2,21.3L34.2,21.3z"/>
	<path class="st2" d="M25.6,21.3c0,1.4,0,2.9,0,4.3c0,0-0.1,0-0.1,0c-2.8,0-5.6,0-8.4,0c0,0-0.1,0-0.1,0c0-1.4,0-2.7,0-4.1
		c0-0.1,0-0.1,0-0.2l0,0c1.4,0,2.9,0,4.3,0c0.1,0,0.1,0,0.2,0C22.9,21.3,24.3,21.3,25.6,21.3L25.6,21.3z"/>
	<path class="st3" d="M12.8,34.2c0-0.8,0-1.6,0-2.4c0-0.6,0-1.3,0-1.9c0.8,0,1.6,0,2.5,0c0.6,0,1.2,0,1.8,0c0,0.6,0,1.2,0,1.7
		c0,0.8,0,1.7,0,2.5C15.6,34.2,14.2,34.2,12.8,34.2z"/>
	<path class="st1" d="M17,34.2c0-0.8,0-1.7,0-2.5c0-0.6,0-1.2,0-1.7c1.4,0,2.9,0,4.3,0c0,1.4,0,2.9,0,4.3
		C19.9,34.2,18.5,34.2,17,34.2L17,34.2z"/>
	<path class="st3" d="M34.2,34.2c0-1.4,0-2.9,0-4.3c1.4,0,2.9,0,4.3,0c0,1.4,0,2.9,0,4.3C37.1,34.2,35.7,34.2,34.2,34.2L34.2,34.2z"
		/>
	<path class="st1" d="M38.5,34.2c0-1.4,0-2.9,0-4.3c1.1,0,2.2,0,3.3,0c0.3,0,0.6,0,1,0c0,0.6,0,1.1,0,1.7c0,0.9,0,1.7,0,2.6l0,0
		C41.4,34.2,40,34.2,38.5,34.2L38.5,34.2z"/>
	<path class="st3" d="M42.8,34.2c0-0.9,0-1.7,0-2.6c0-0.6,0-1.1,0-1.7c1.3,0,2.7,0,4,0c0.1,0,0.2,0,0.3,0c0,1.4,0,2.7,0,4.1
		c0,0.1,0,0.1,0,0.2C45.7,34.2,44.3,34.2,42.8,34.2z"/>
	<path class="st3" d="M21.3,34.2c0-1.4,0-2.9,0-4.3c1.4,0,2.9,0,4.3,0c0,1.4,0,2.9,0,4.3l0,0C24.2,34.2,22.8,34.2,21.3,34.2
		L21.3,34.2z"/>
	<path class="st0" d="M12.8,8.4c1.4,0,2.7,0,4.1,0c0.1,0,0.1,0,0.2,0c0,1.4,0,2.9,0,4.3c-1.4,0-2.9,0-4.3,0c0-1,0-2,0-3
		C12.8,9.3,12.8,8.9,12.8,8.4z"/>
	<path class="st1" d="M12.8,12.7c1.4,0,2.9,0,4.3,0l0,0c0,1.4,0,2.9,0,4.3l0,0c-1.4,0-2.9,0-4.3,0l0,0c0-1.4,0-2.7,0-4.1
		C12.8,12.8,12.8,12.8,12.8,12.7z"/>
	<path class="st4" d="M12.8,17c1.4,0,2.9,0,4.3,0c0,1.4,0,2.9,0,4.3l0,0c-1.4,0-2.9,0-4.3,0C12.8,19.9,12.8,18.5,12.8,17z"/>
	<path class="st1" d="M47.1,12.7c0,0.7,0,1.4,0,2.2c0,0.7,0,1.4,0,2.1l0,0c-1.4,0-2.9,0-4.3,0l0,0c0-1.4,0-2.9,0-4.3l0,0
		C44.3,12.7,45.7,12.7,47.1,12.7z"/>
	<path class="st0" d="M47.1,12.7c-1.4,0-2.9,0-4.3,0c0-1.4,0-2.9,0-4.3c1.2,0,2.4,0,3.6,0c0.2,0,0.4,0,0.7,0c0,1.4,0,2.7,0,4.1
		C47.1,12.6,47.1,12.7,47.1,12.7z"/>
	<path class="st4" d="M42.8,17c1.4,0,2.9,0,4.3,0c0,1.4,0,2.9,0,4.3c-1.4,0-2.9,0-4.3,0l0,0C42.8,19.9,42.8,18.5,42.8,17z"/>
	<path class="st1" d="M25.6,8.4c0,0,0.1,0,0.1,0c2.8,0,5.6,0,8.4,0c0,0,0.1,0,0.1,0c0,1.4,0,2.9,0,4.3c-2.9,0-5.7,0-8.6,0
		C25.6,11.3,25.6,9.9,25.6,8.4z"/>
	<path class="st0" d="M25.6,8.4c0,1.4,0,2.9,0,4.3c0,0,0,0,0,0c-1.4,0-2.9,0-4.3,0l0,0c0-1.4,0-2.9,0-4.3
		C22.8,8.4,24.2,8.4,25.6,8.4z"/>
	<path class="st0" d="M34.2,12.7c0-1.4,0-2.9,0-4.3c1.4,0,2.9,0,4.3,0c0,1.4,0,2.9,0,4.3l0,0C37.1,12.7,35.7,12.7,34.2,12.7
		L34.2,12.7z"/>
	<path class="st1" d="M21.4,8.4c0,1.4,0,2.9,0,4.3c-1.4,0-2.9,0-4.3,0l0,0c0-1.4,0-2.9,0-4.3c0.8,0,1.6,0,2.4,0
		C20.1,8.4,20.7,8.4,21.4,8.4z"/>
	<path class="st1" d="M38.5,12.7c0-1.4,0-2.9,0-4.3c1,0,1.9,0,2.9,0c0.5,0,0.9,0,1.4,0c0,1.4,0,2.9,0,4.3l0,0
		C41.4,12.7,40,12.7,38.5,12.7z"/>
	<path class="st3" d="M51.4,51.4c-1.4,0-2.9,0-4.3,0l0,0c0-0.3,0-0.5,0-0.8c0-1.2,0-2.3,0-3.5c1.4,0,2.9,0,4.3,0l0,0
		C51.4,48.5,51.4,50,51.4,51.4z"/>
	<path class="st3" d="M12.8,51.4c-1.4,0-2.9,0-4.3,0c0-1.4,0-2.9,0-4.3l0,0c1.4,0,2.9,0,4.3,0c0,0.1,0,0.2,0,0.3
		C12.8,48.7,12.8,50.1,12.8,51.4L12.8,51.4z"/>
	<path class="st0" d="M51.4,47.1c-1.4,0-2.9,0-4.3,0c0-0.4,0-0.8,0-1.1c0-1.1,0-2.1,0-3.2c0-0.1,0-0.1,0-0.2c0-1.4,0-2.7,0-4.1l0,0
		c1.4,0,2.9,0,4.3,0c0,1.4,0,2.7,0,4.1c0,0.1,0,0.2,0,0.2c0,1.1,0,2.1,0,3.2C51.4,46.4,51.4,46.7,51.4,47.1z"/>
	<path class="st0" d="M12.8,47.1c-1.4,0-2.9,0-4.3,0c0-1.4,0-2.7,0-4.1c0-0.1,0-0.1,0-0.2c0-1,0-2,0-3.1c0-0.4,0-0.8,0-1.2
		c1.4,0,2.9,0,4.3,0l0,0c0,0.4,0,0.8,0,1.1c0,1.1,0,2.1,0,3.2c0,0.1,0,0.2,0,0.3C12.8,44.5,12.8,45.8,12.8,47.1z"/>
	<path d="M42.8,51.4c0,1.4,0,2.9,0,4.3c-2.8,0-5.6,0-8.4,0c-0.1,0-0.2,0-0.2-0.2c0-1.3,0-2.6,0-3.9c0-0.1,0-0.2-0.2-0.2
		c-2.8,0-5.5,0-8.3,0c-0.1,0-0.2,0-0.2,0.2c0,1.3,0,2.6,0,4c0,0.1,0,0.2-0.2,0.2c-2.8,0-5.6,0-8.4,0c0-1.4,0-2.9,0-4.3l0,0
		c1.4,0,2.7,0,4.1,0c0.2,0,0.2,0,0.2-0.2c0-2.7,0-5.5,0-8.2c0-0.1,0-0.1,0-0.2c0.3,0,0.6,0,1,0c1.1,0,2.2,0,3.3,0c0,0,0.1,0,0.1,0
		c2.8,0,5.6,0,8.4,0c0,0,0.1,0,0.1,0c0.1,0,0.1,0,0.2,0c1.4,0,2.7,0,4.1,0c0,0.1,0,0.1,0,0.2c0,2.7,0,5.5,0,8.2c0,0.2,0,0.2,0.2,0.2
		C40.1,51.4,41.5,51.4,42.8,51.4L42.8,51.4z"/>
	<path class="st2" d="M12.8,47.1c0-1.3,0-2.6,0-4c0-0.1,0-0.2,0-0.3c1.4,0,2.9,0,4.3,0c0,2.9,0,5.7,0,8.6l0,0c-1.4,0-2.9,0-4.3,0
		c0-1.3,0-2.7,0-4C12.8,47.3,12.8,47.2,12.8,47.1z"/>
	<path class="st2" d="M47.1,42.8c0,1.1,0,2.1,0,3.2c0,0.4,0,0.8,0,1.1c0,1.2,0,2.3,0,3.5c0,0.3,0,0.5,0,0.8c-1.4,0-2.9,0-4.3,0l0,0
		c0-2.9,0-5.7,0-8.6C44.3,42.8,45.7,42.8,47.1,42.8z"/>
	<path class="st2" d="M42.8,34.2c1.4,0,2.9,0,4.3,0c0,1.4,0,2.9,0,4.3l0,0c-1.4,0-2.9,0-4.3,0C42.8,37.1,42.8,35.6,42.8,34.2
		L42.8,34.2z"/>
	<path class="st4" d="M25.6,34.2c2.9,0,5.7,0,8.6,0l0,0c0,1.4,0,2.9,0,4.3c-2.9,0-5.7,0-8.6,0C25.6,37.1,25.6,35.6,25.6,34.2
		L25.6,34.2z"/>
	<path class="st2" d="M12.8,34.2c1.4,0,2.9,0,4.3,0l0,0c0,1.4,0,2.9,0,4.3c-1.4,0-2.9,0-4.3,0l0,0C12.8,37.1,12.8,35.6,12.8,34.2z"
		/>
	<path d="M42.8,17c0,1.4,0,2.9,0,4.3c-1.4,0-2.9,0-4.3,0c0-1.4,0-2.9,0-4.3C40,17,41.4,17,42.8,17L42.8,17z"/>
	<path class="st4" d="M38.5,17c0,1.4,0,2.9,0,4.3c-0.8,0-1.5,0-2.3,0c-0.7,0-1.4,0-2,0l0,0c0-1.4,0-2.9,0-4.3l0,0
		C35.7,17,37.1,17,38.5,17L38.5,17z"/>
	<path class="st1" d="M34.2,17c0,1.4,0,2.9,0,4.3c-2.8,0-5.7,0-8.5,0c0,0-0.1,0-0.1,0l0,0c0-1.4,0-2.9,0-4.3
		C28.5,17,31.4,17,34.2,17z"/>
	<path class="st4" d="M25.6,17c0,1.4,0,2.9,0,4.3c-1.4,0-2.7,0-4.1,0c-0.1,0-0.1,0-0.2,0c0-1.4,0-2.9,0-4.3l0,0
		C22.8,17,24.2,17,25.6,17L25.6,17z"/>
	<path d="M21.3,17c0,1.4,0,2.9,0,4.3c-1.4,0-2.9,0-4.3,0c0-1.4,0-2.9,0-4.3l0,0C18.5,17,19.9,17,21.3,17z"/>
	<path class="st4" d="M17.1,38.5c0-1.4,0-2.9,0-4.3c1.4,0,2.9,0,4.3,0l0,0c0,1.4,0,2.9,0,4.3l0,0C19.9,38.5,18.5,38.5,17.1,38.5
		L17.1,38.5z"/>
	<path class="st1" d="M34.2,38.5c0-1.4,0-2.9,0-4.3c1.4,0,2.9,0,4.3,0l0,0c0,1.4,0,2.9,0,4.3C37.1,38.5,35.7,38.5,34.2,38.5
		L34.2,38.5z"/>
	<path class="st4" d="M38.5,38.5c0-1.4,0-2.9,0-4.3c1.4,0,2.9,0,4.3,0c0,1.4,0,2.9,0,4.3l0,0C41.4,38.5,40,38.5,38.5,38.5L38.5,38.5
		z"/>
	<path class="st1" d="M21.3,38.5c0-1.4,0-2.9,0-4.3c1.4,0,2.9,0,4.3,0c0,1.4,0,2.9,0,4.3l0,0C24.2,38.5,22.8,38.5,21.3,38.5z"/>
	<path class="st4" d="M21.3,17c-1.4,0-2.9,0-4.3,0c0-1.4,0-2.9,0-4.3c1.4,0,2.9,0,4.3,0l0,0C21.3,14.2,21.3,15.6,21.3,17L21.3,17z"
		/>
	<path class="st4" d="M42.8,17c-1.4,0-2.9,0-4.3,0l0,0c0-1.4,0-2.9,0-4.3l0,0c1.4,0,2.9,0,4.3,0C42.8,14.2,42.8,15.6,42.8,17z"/>
	<path class="st4" d="M34.2,17c-2.9,0-5.7,0-8.6,0l0,0c0-1.4,0-2.9,0-4.3c0,0,0,0,0,0c2.9,0,5.7,0,8.6,0l0,0
		C34.2,14.2,34.2,15.6,34.2,17L34.2,17z"/>
	<path class="st2" d="M25.6,12.7c0,1.4,0,2.9,0,4.3c-1.4,0-2.9,0-4.3,0c0-1.4,0-2.9,0-4.3C22.8,12.7,24.2,12.7,25.6,12.7z"/>
	<path class="st2" d="M34.2,17c0-1.4,0-2.9,0-4.3c1.4,0,2.9,0,4.3,0c0,1.4,0,2.9,0,4.3C37.1,17,35.7,17,34.2,17z"/>
	<path class="st1" d="M42.8,38.5c1.4,0,2.9,0,4.3,0c0,1.4,0,2.7,0,4.1c0,0.1,0,0.1,0,0.2c-1.4,0-2.9,0-4.3,0l0,0
		C42.8,41.4,42.8,39.9,42.8,38.5L42.8,38.5z"/>
	<path class="st1" d="M12.8,38.5c1.4,0,2.9,0,4.3,0l0,0c0,1.4,0,2.9,0,4.3l0,0c-1.4,0-2.9,0-4.3,0c0-1.1,0-2.1,0-3.2
		C12.8,39.3,12.8,38.9,12.8,38.5z"/>
	<path class="st3" d="M42.8,42.8c0,2.9,0,5.7,0,8.6c-1.4,0-2.7,0-4.1,0c-0.2,0-0.2,0-0.2-0.2c0-2.7,0-5.5,0-8.2c0-0.1,0-0.1,0-0.2
		l0,0c0.1,0,0.1,0,0.2,0C40.1,42.8,41.5,42.8,42.8,42.8L42.8,42.8z"/>
	<path class="st3" d="M17.1,51.4c0-2.9,0-5.7,0-8.6c0,0,0,0,0,0c0.9,0,1.7,0,2.6,0c0.6,0,1.1,0,1.7,0l0,0c0,0.1,0,0.1,0,0.2
		c0,2.7,0,5.5,0,8.2c0,0.2,0,0.2-0.2,0.2C19.8,51.4,18.4,51.4,17.1,51.4z"/>
	<path class="st2" d="M25.6,38.5c2.9,0,5.7,0,8.6,0l0,0c0,1.4,0,2.9,0,4.3c0,0-0.1,0-0.1,0c-2.8,0-5.6,0-8.4,0c0,0-0.1,0-0.1,0
		C25.6,41.4,25.6,39.9,25.6,38.5L25.6,38.5z"/>
	<path class="st4" d="M25.6,38.5c0,1.4,0,2.9,0,4.3c-1.1,0-2.2,0-3.3,0c-0.3,0-0.6,0-1,0l0,0c0-0.1,0-0.1,0-0.2c0-1.4,0-2.7,0-4.1
		l0,0C22.8,38.5,24.2,38.5,25.6,38.5z"/>
	<path class="st4" d="M34.2,42.8c0-1.4,0-2.9,0-4.3c1.4,0,2.9,0,4.3,0l0,0c0,0.1,0,0.3,0,0.4c0,1.3,0,2.6,0,3.9l0,0
		c-1.4,0-2.7,0-4.1,0C34.4,42.8,34.3,42.8,34.2,42.8z"/>
	<path class="st2" d="M21.4,38.5c0,1.4,0,2.7,0,4.1c0,0.1,0,0.1,0,0.2c-0.6,0-1.1,0-1.7,0c-0.9,0-1.7,0-2.6,0c0-1.4,0-2.9,0-4.3
		C18.5,38.5,19.9,38.5,21.4,38.5z"/>
	<path class="st2" d="M38.5,42.8c0-1.3,0-2.6,0-3.9c0-0.1,0-0.3,0-0.4c1.4,0,2.9,0,4.3,0c0,1.4,0,2.9,0,4.3c-1.4,0-2.7,0-4.1,0
		C38.7,42.8,38.6,42.8,38.5,42.8z"/>
	<g>
		<path d="M42.8,60L42.8,60l4.5,0c-0.1,0-0.2,0-0.2-0.2c0-1.4,0-2.8,0-4.1l0,0c-1.4,0-2.9,0-4.3,0c0,1.4,0,2.8,0,4.1
			C42.8,59.9,42.8,60,42.8,60z"/>
		<path d="M17.1,60c-0.1,0-0.1-0.1-0.1-0.1c0-1.4,0-2.8,0-4.1c-1.4,0-2.9,0-4.3,0l0,0c0,1.4,0,2.8,0,4.1c0,0.1,0,0.2-0.2,0.2
			L17.1,60L17.1,60z"/>
	</g>
	<g>
		<path d="M55.9,16.9c1.4,0,2.8,0,4.1,0c0,4.3,0,8.6,0,13c-1.4,0-2.8,0-4.1,0l0,0C55.9,25.6,55.9,21.3,55.9,16.9L55.9,16.9z"/>
		<path d="M0,16.9c1.4,0,2.7,0,4.1,0l0,0c0,4.3,0,8.6,0,13l0,0c-1.4,0-2.7,0-4.1,0C0,25.6,0,21.3,0,16.9z"/>
		<path d="M55.9,29.9c0,4.3,0,8.5,0,12.8c0,0.1,0,0.2-0.2,0.2c-1.4,0-2.8,0-4.1,0l0,0c0-0.2,0-0.4,0-0.6c0-1.2,0-2.4,0-3.7
			c0-1.4,0-2.9,0-4.3c0-0.1,0-0.1,0-0.2c0-1.4,0-2.7,0-4.1C53,29.9,54.4,29.9,55.9,29.9L55.9,29.9z"/>
		<path d="M8.4,42.8c-1.4,0-2.8,0-4.1,0c-0.1,0-0.2,0-0.2-0.2c0-4.3,0-8.5,0-12.8l0,0c1.4,0,2.9,0,4.3,0c0,0.2,0,0.3,0,0.5
			c0,1.3,0,2.5,0,3.8c0,1.4,0,2.9,0,4.3c0,0.1,0,0.1,0,0.2C8.4,40.1,8.4,41.5,8.4,42.8L8.4,42.8z"/>
		<path d="M42.9,4c1.4,0,2.7,0,4.1,0c0.2,0,0.2,0,0.2,0.2c0,2.7,0,5.5,0,8.2c0,0.2,0,0.2,0.2,0.2c2.7,0,5.5,0,8.2,0
			c0.2,0,0.2,0,0.2,0.2c0,1.4,0,2.8,0,4.1l0,0c-0.2,0-0.4,0-0.6,0c-1.2,0-2.5,0-3.7,0c-0.5,0-0.9,0-1.4,0c-1,0-2,0-3,0
			c-0.1,0-0.1,0-0.2,0c-1.4,0-2.7,0-4.1,0c0-0.2,0-0.4,0-0.7c0-1.2,0-2.4,0-3.7c0-1.4,0-2.9,0-4.3C42.9,6.9,42.9,5.4,42.9,4L42.9,4z
			"/>
		<path d="M4.1,16.9c0-1.4,0-2.8,0-4.1c0-0.2,0-0.2,0.2-0.2c2.7,0,5.5,0,8.2,0c0.2,0,0.2,0,0.2-0.2c0-2.7,0-5.5,0-8.2
			c0-0.2,0-0.2,0.2-0.2c1.4,0,2.7,0,4.1,0l0,0c0,1.4,0,2.9,0,4.3c0,1.4,0,2.9,0,4.3c0,0.1,0,0.2,0,0.2c0,1.4,0,2.7,0,4.1
			c-0.2,0-0.4,0-0.6,0c-1.2,0-2.5,0-3.7,0c-1.4,0-2.9,0-4.3,0c-0.1,0-0.1,0-0.2,0C6.8,16.9,5.5,16.9,4.1,16.9L4.1,16.9z"/>
		<path class="st1" d="M51.6,17c1.2,0,2.5,0,3.7,0c0.2,0,0.4,0,0.6,0c0,4.3,0,8.6,0,13c-1.4,0-2.9,0-4.3,0l0,0
			C51.6,25.6,51.6,21.3,51.6,17z"/>
		<path class="st1" d="M4.1,16.9c1.4,0,2.7,0,4.1,0c0.1,0,0.1,0,0.2,0c0,4.3,0,8.6,0,13l0,0c-1.4,0-2.9,0-4.3,0
			C4.1,25.6,4.1,21.3,4.1,16.9z"/>
		<path d="M25.7,8.3c0-1.4,0-2.9,0-4.3c2.9,0,5.8,0,8.6,0l0,0c0,0.2,0,0.4,0,0.6c0,1.2,0,2.5,0,3.7c0,1.4,0,2.9,0,4.3
			c0,0.5,0,0.9,0,1.4c0,1,0,2,0,3c0,1.4,0,2.9,0,4.3c-0.1,0-0.1,0-0.2,0c-2.8,0-5.5,0-8.3,0c-0.1,0-0.1,0-0.2,0c0-1.4,0-2.9,0-4.3
			c0-1.4,0-2.9,0-4.3C25.7,11.2,25.7,9.7,25.7,8.3z"/>
		<path class="st1" d="M51.6,29.9c0,1.4,0,2.7,0,4.1c0,0.1,0,0.1,0,0.2c-1.4,0-2.9,0-4.3,0c-1.4,0-2.7,0-4.1,0c-0.2,0-0.2,0-0.2-0.2
			c0-1.4,0-2.7,0-4.1c1.4,0,2.9,0,4.3,0C48.7,29.9,50.1,29.9,51.6,29.9L51.6,29.9z"/>
		<path class="st4" d="M47.2,34.2c1.4,0,2.9,0,4.3,0c0,1.4,0,2.9,0,4.3c-1.4,0-2.9,0-4.3,0C47.2,37.1,47.2,35.6,47.2,34.2z"/>
		<path class="st1" d="M8.4,34.2c0-1.3,0-2.5,0-3.8c0-0.2,0-0.3,0-0.5l0,0c1.4,0,2.9,0,4.3,0c1.4,0,2.9,0,4.3,0c0,1.3,0,2.7,0,4
			c0,0.2,0,0.2-0.3,0.2c-1.4,0-2.7,0-4.1,0C11.3,34.2,9.9,34.2,8.4,34.2z"/>
		<path class="st4" d="M8.4,34.2c1.4,0,2.9,0,4.3,0c0,1.4,0,2.9,0,4.3l0,0c-1.4,0-2.9,0-4.3,0C8.4,37.1,8.4,35.6,8.4,34.2z"/>
		<path class="st5" d="M51.6,29.9c-1.4,0-2.9,0-4.3,0c0-0.6,0-1.1,0-1.7c0-0.9,0-1.7,0-2.6c0-0.3,0-0.6,0-1c0-1.1,0-2.3,0-3.4
			c0-0.1,0-0.2,0-0.2c0-1.3,0-2.7,0-4c1,0,2,0,3,0c0.5,0,0.9,0,1.4,0C51.6,21.3,51.6,25.6,51.6,29.9z"/>
		<path class="st5" d="M42.9,12.6c0,1.2,0,2.4,0,3.7c0,0.2,0,0.4,0,0.7l0,0c-0.1,0-0.2,0-0.2,0c-1.4,0-2.7,0-4.1,0l0,0
			c0-1.4,0-2.9,0-4.3C40,12.6,41.5,12.6,42.9,12.6z"/>
		<path class="st2" d="M47.2,17c0,1.3,0,2.7,0,4c0,0.1,0,0.2,0,0.2c-1.4,0-2.9,0-4.3,0l0,0c0-1.4,0-2.9,0-4.3l0,0c1.4,0,2.7,0,4.1,0
			C47.1,16.9,47.2,17,47.2,17z"/>
		<path class="st5" d="M12.7,29.9c-1.4,0-2.9,0-4.3,0c0-4.3,0-8.6,0-13c1.4,0,2.9,0,4.3,0c0,0.5,0,1.1,0,1.6c0,0.9,0,1.8,0,2.6
			c0,0.3,0,0.6,0,1c0,1.1,0,2.3,0,3.4c0,0.1,0,0.1,0,0.2C12.7,27.1,12.7,28.5,12.7,29.9z"/>
		<path class="st2" d="M12.7,21.2c0-0.9,0-1.8,0-2.6c0-0.5,0-1.1,0-1.6c1.2,0,2.5,0,3.7,0c0.2,0,0.4,0,0.6,0l0,0c0,1.4,0,2.9,0,4.3
			l0,0C15.6,21.2,14.2,21.2,12.7,21.2z"/>
		<path class="st5" d="M17.1,16.9c0-1.4,0-2.7,0-4.1c0-0.1,0-0.2,0-0.2c1.4,0,2.9,0,4.3,0l0,0c0,1.4,0,2.9,0,4.3l0,0
			c-0.9,0-1.7,0-2.6,0C18.2,16.9,17.6,17,17.1,16.9L17.1,16.9z"/>
		<path class="st6" d="M25.7,21.2c0.1,0,0.1,0,0.2,0c2.8,0,5.5,0,8.3,0c0.1,0,0.1,0,0.2,0c0.5,0,1,0,1.5,0c0.9,0,1.8,0,2.8,0
			c0.1,0,0.1,0,0.2,0c1.4,0,2.7,0,4.1,0l0,0c0,0.5,0,1,0,1.5c0,0.9,0,1.9,0,2.8l0,0c-1.4,0-2.8,0-4.2,0c-0.1,0-0.2,0.1-0.2,0.2
			c0,0.5,0,1.1,0,1.6c0,0.8,0,1.7,0,2.5l0,0c-0.1,0-0.3,0-0.4,0c-1.2,0-2.5,0-3.7,0c-0.1,0-0.2,0-0.2,0.1c0,1.4,0,2.8,0,4.2l0,0
			c-0.1,0-0.1,0-0.2,0c-2.8,0-5.5,0-8.3,0c-0.1,0-0.1,0-0.2,0l0,0c0-0.1,0-0.3,0-0.4c0-1.2,0-2.5,0-3.7c0-0.1,0-0.2-0.1-0.2
			c-1.4,0-2.8,0-4.2,0c0,0,0,0,0,0c0-1.4,0-2.8,0-4.2c0-0.1-0.1-0.1-0.2-0.1c-1.4,0-2.8,0-4.1,0l0,0c0-0.1,0-0.1,0-0.2
			c0-1.4,0-2.7,0-4.1l0,0c0.3,0,0.6,0,0.9,0c1.1,0,2.3,0,3.4,0C22.8,21.2,24.2,21.2,25.7,21.2z"/>
		<path class="st1" d="M21.4,12.6c1.4,0,2.9,0,4.3,0c0,1.4,0,2.9,0,4.3c-1.4,0-2.9,0-4.3,0C21.4,15.5,21.4,14.1,21.4,12.6z"/>
		<path class="st1" d="M38.6,12.6c0,1.4,0,2.9,0,4.3c-1.4,0-2.9,0-4.3,0c0-1,0-2,0-3c0-0.5,0-0.9,0-1.4
			C35.7,12.6,37.2,12.6,38.6,12.6L38.6,12.6z"/>
		<path class="st2" d="M21.4,16.9c1.4,0,2.9,0,4.3,0c0,1.4,0,2.9,0,4.3c-1.4,0-2.9,0-4.3,0C21.4,19.8,21.4,18.4,21.4,16.9L21.4,16.9
			z"/>
		<path class="st2" d="M34.3,16.9c1.4,0,2.9,0,4.3,0l0,0c0,1.4,0,2.9,0,4.3c-0.9,0-1.8,0-2.8,0c-0.5,0-1,0-1.5,0
			C34.3,19.8,34.3,18.4,34.3,16.9z"/>
		<path class="st2" d="M47.2,34.2c0,1.4,0,2.9,0,4.3l0,0c-1.4,0-2.7,0-4.1,0c-0.1,0-0.2,0-0.2,0.2c0,1.4,0,2.7,0,4.1l0,0
			c-1.4,0-2.9,0-4.3,0l0,0c0-1.4,0-2.7,0-4.1c0-0.2-0.1-0.2-0.2-0.2c-1.4,0-2.7,0-4.1,0c0-1.4,0-2.9,0-4.3l0,0c1.4,0,2.7,0,4.1,0
			c0.1,0,0.2,0,0.2-0.2c0-1.4,0-2.7,0-4.1l0,0c1.4,0,2.9,0,4.3,0l0,0c0,1.4,0,2.7,0,4.1c0,0.2,0,0.2,0.2,0.2
			C44.5,34.2,45.9,34.2,47.2,34.2z"/>
		<path class="st2" d="M47.2,25.6c0,0.9,0,1.7,0,2.6c0,0.6,0,1.1,0,1.7c-1.4,0-2.9,0-4.3,0l0,0c0-1.4,0-2.9,0-4.3l0,0
			C44.4,25.6,45.8,25.6,47.2,25.6z"/>
		<path class="st2" d="M17.1,42.8c0-1.4,0-2.7,0-4.1c0-0.2,0-0.2-0.2-0.2c-1.4,0-2.7,0-4.1,0c0-1.4,0-2.9,0-4.3c1.4,0,2.7,0,4.1,0
			c0.3,0,0.3,0,0.3-0.2c0-1.3,0-2.7,0-4l0,0c1.4,0,2.9,0,4.3,0l0,0c0,1.4,0,2.7,0,4.1c0,0.1,0,0.2,0.2,0.2c1.4,0,2.8,0,4.2,0
			c0,0,0,0,0,0c0,1.4,0,2.9,0,4.3c-0.1,0-0.1,0-0.2,0c-1.3,0-2.6,0-4,0c-0.1,0-0.2,0-0.2,0.2c0,1.4,0,2.7,0,4.1l0,0
			c-1.4,0-2.7,0-4.1,0C17.2,42.8,17.1,42.8,17.1,42.8z"/>
		<path class="st2" d="M12.7,29.9c0-1.4,0-2.8,0-4.2c0-0.1,0-0.1,0-0.2c1.4,0,2.9,0,4.3,0c0,0,0,0,0,0c0,1.4,0,2.9,0,4.3l0,0
			C15.6,29.9,14.2,29.9,12.7,29.9z"/>
		<path class="st1" d="M47.2,25.6c-1.4,0-2.9,0-4.3,0c0-0.9,0-1.9,0-2.8c0-0.5,0-1,0-1.5c1.4,0,2.9,0,4.3,0c0,1.1,0,2.3,0,3.4
			C47.2,24.9,47.2,25.3,47.2,25.6z"/>
		<path class="st1" d="M38.6,21.2c0-1.4,0-2.9,0-4.3c1.4,0,2.7,0,4.1,0c0.1,0,0.2,0,0.2,0c0,1.4,0,2.9,0,4.3c-1.4,0-2.7,0-4.1,0
			C38.8,21.2,38.7,21.2,38.6,21.2z"/>
		<path class="st1" d="M17.1,25.6c-1.4,0-2.9,0-4.3,0c0-1.1,0-2.3,0-3.4c0-0.3,0-0.6,0-1c1.4,0,2.9,0,4.3,0c0,1.4,0,2.7,0,4.1
			C17.1,25.4,17.1,25.5,17.1,25.6z"/>
		<path class="st1" d="M21.4,16.9c0,1.4,0,2.9,0,4.3c-1.1,0-2.3,0-3.4,0c-0.3,0-0.6,0-0.9,0c0-1.4,0-2.9,0-4.3c0.6,0,1.1,0,1.7,0
			C19.6,16.9,20.5,16.9,21.4,16.9z"/>
		<path class="st4" d="M25.7,38.5c0-1.4,0-2.9,0-4.3c0.1,0,0.1,0,0.2,0c2.8,0,5.5,0,8.3,0c0.1,0,0.1,0,0.2,0c0,1.4,0,2.9,0,4.3
			c0,0-0.1,0-0.1,0C31.4,38.5,28.6,38.5,25.7,38.5C25.8,38.5,25.7,38.5,25.7,38.5z"/>
		<path class="st4" d="M42.9,25.6c0,1.4,0,2.9,0,4.3c-1.4,0-2.9,0-4.3,0c0-0.8,0-1.7,0-2.5c0-0.5,0-1.1,0-1.6c0-0.1,0-0.2,0.2-0.2
			C40.1,25.6,41.5,25.6,42.9,25.6z"/>
		<path d="M25.7,34.2c-1.4,0-2.8,0-4.2,0c-0.1,0-0.2,0-0.2-0.2c0-1.4,0-2.7,0-4.1c1.4,0,2.8,0,4.2,0c0.2,0,0.1,0.1,0.1,0.2
			c0,1.2,0,2.5,0,3.7C25.7,33.9,25.7,34.1,25.7,34.2z"/>
		<path class="st4" d="M17.1,29.9c0-1.4,0-2.9,0-4.3c1.4,0,2.8,0,4.1,0c0.1,0,0.2,0,0.2,0.1c0,1.4,0,2.8,0,4.2
			C19.9,29.9,18.5,29.9,17.1,29.9z"/>
		<path d="M38.6,29.9c0,1.4,0,2.7,0,4.1c0,0.1,0,0.2-0.2,0.2c-1.4,0-2.7,0-4.1,0c0-1.4,0-2.8,0-4.2c0-0.2,0.1-0.1,0.2-0.1
			c1.2,0,2.5,0,3.7,0C38.3,29.9,38.5,29.9,38.6,29.9z"/>
	</g>
</g>
</svg>
