<svg xmlns="http://www.w3.org/2000/svg" viewBox="0 -0.5 32 32" shape-rendering="crispEdges">
<metadata>Made with Pixels to Svg https://codepen.io/shshaw/pen/XbxvNj</metadata>
<path stroke="#1a0b00" d="M3 0h26M3 1h26M3 2h26M0 3h5M27 3h5M0 4h5M27 4h5M0 5h3M29 5h3M0 6h3M29 6h3M0 7h3M29 7h3M0 8h3M29 8h3M0 9h3M29 9h3M0 10h3M29 10h3M0 11h3M11 11h10M29 11h3M0 12h3M11 12h10M29 12h3M0 13h3M29 13h3M0 14h3M29 14h3M0 15h3M29 15h3M0 16h5M13 16h6M27 16h5M0 17h5M13 17h6M27 17h5M0 18h5M13 18h6M27 18h5M0 19h3M29 19h3M0 20h3M29 20h3M0 21h3M8 21h3M21 21h3M29 21h3M0 22h3M8 22h3M21 22h3M29 22h3M0 23h3M8 23h3M21 23h3M29 23h3M0 24h3M29 24h3M0 25h3M29 25h3M0 26h3M29 26h3M0 27h3M5 27h6M13 27h6M21 27h6M29 27h3M0 28h3M5 28h6M13 28h6M21 28h6M29 28h3M0 29h32M0 30h32M0 31h32" />
<path stroke="#e66700" d="M5 3h22M5 4h22M3 5h2M27 5h2M3 6h2M27 6h2M3 7h2M27 7h2M11 13h10M11 14h10M11 15h10M3 19h2M13 19h6M27 19h2M3 20h2M13 20h6M27 20h2M8 24h3M21 24h3M8 25h3M21 25h3M8 26h3M21 26h3" />
<path stroke="#ffb980" d="M5 5h22M5 6h22M5 7h22M3 8h26M3 9h26M3 10h26M3 11h8M21 11h8M3 12h8M21 12h8M3 13h8M21 13h8M3 14h8M21 14h8M3 15h8M21 15h8M5 16h8M19 16h8M5 17h8M19 17h8M5 18h8M19 18h8M5 19h8M19 19h8M5 20h8M19 20h8M3 21h5M11 21h10M24 21h5M3 22h5M11 22h10M24 22h5M3 23h5M11 23h10M24 23h5M3 24h5M11 24h10M24 24h5M3 25h5M11 25h10M24 25h5M3 26h5M11 26h10M24 26h5M3 27h2M11 27h2M19 27h2M27 27h2M3 28h2M11 28h2M19 28h2M27 28h2" />
</svg>