<svg xmlns="http://www.w3.org/2000/svg" viewBox="0 -0.5 32 32" shape-rendering="crispEdges">
<metadata>Made with Pixels to Svg https://codepen.io/shshaw/pen/XbxvNj</metadata>
<path stroke="#00081a" d="M0 0h32M0 1h32M0 2h2M9 2h2M14 2h4M21 2h2M30 2h2M0 3h2M9 3h2M14 3h4M21 3h2M30 3h2M0 4h2M9 4h2M14 4h4M21 4h2M30 4h2M0 5h7M11 5h3M18 5h3M25 5h7M0 6h7M11 6h3M18 6h3M25 6h7M0 7h2M14 7h4M30 7h2M0 8h2M14 8h4M30 8h2M0 9h2M30 9h2M0 10h2M30 10h2M0 11h2M30 11h2M0 12h2M30 12h2M0 13h2M30 13h2M0 14h2M30 14h2M0 15h2M30 15h2M0 16h2M5 16h2M25 16h2M30 16h2M0 17h2M5 17h2M25 17h2M30 17h2M0 18h7M9 18h2M21 18h2M25 18h7M0 19h7M9 19h2M21 19h2M25 19h7M0 20h7M9 20h2M21 20h2M25 20h7M0 21h5M27 21h5M0 22h5M27 22h5M0 23h2M9 23h2M21 23h2M30 23h2M0 24h2M9 24h2M21 24h2M30 24h2M0 25h2M5 25h2M9 25h2M21 25h2M25 25h2M30 25h2M0 26h2M5 26h2M9 26h2M21 26h2M25 26h2M30 26h2M0 27h2M5 27h2M25 27h2M30 27h2M0 28h2M5 28h2M25 28h2M30 28h2M0 29h2M5 29h2M25 29h2M30 29h2M0 30h32M0 31h32" />
<path stroke="#0049e6" d="M2 2h5M11 2h3M18 2h3M25 2h5M2 3h5M11 3h3M18 3h3M25 3h5M2 4h5M11 4h3M18 4h3M25 4h5M14 5h4M14 6h4M5 14h2M25 14h2M5 15h2M25 15h2M2 16h3M9 16h2M21 16h2M27 16h3M2 17h3M9 17h2M21 17h2M27 17h3M9 21h2M21 21h2M9 22h2M21 22h2M5 23h2M25 23h2M5 24h2M25 24h2M2 27h3M7 27h18M27 27h3M2 28h3M7 28h18M27 28h3M2 29h3M7 29h18M27 29h3" />
<path stroke="#80a8ff" d="M7 2h2M23 2h2M7 3h2M23 3h2M7 4h2M23 4h2M7 5h4M21 5h4M7 6h4M21 6h4M2 7h12M18 7h12M2 8h12M18 8h12M2 9h28M2 10h28M2 11h28M2 12h28M2 13h28M2 14h3M7 14h18M27 14h3M2 15h3M7 15h18M27 15h3M7 16h2M11 16h10M23 16h2M7 17h2M11 17h10M23 17h2M7 18h2M11 18h10M23 18h2M7 19h2M11 19h10M23 19h2M7 20h2M11 20h10M23 20h2M5 21h4M11 21h10M23 21h4M5 22h4M11 22h10M23 22h4M2 23h3M7 23h2M11 23h10M23 23h2M27 23h3M2 24h3M7 24h2M11 24h10M23 24h2M27 24h3M2 25h3M7 25h2M11 25h10M23 25h2M27 25h3M2 26h3M7 26h2M11 26h10M23 26h2M27 26h3" />
</svg>