<svg xmlns="http://www.w3.org/2000/svg" viewBox="0 -0.5 32 32" shape-rendering="crispEdges">
<metadata>Made with Pixels to Svg https://codepen.io/shshaw/pen/XbxvNj</metadata>
<path stroke="#1a0003" d="M0 0h32M0 1h32M0 2h32M0 3h3M5 3h3M24 3h3M29 3h3M0 4h3M5 4h3M24 4h3M29 4h3M0 5h3M29 5h3M0 6h3M29 6h3M0 7h3M29 7h3M0 8h5M13 8h6M27 8h5M0 9h5M13 9h6M27 9h5M0 10h5M13 10h6M27 10h5M0 11h3M11 11h2M19 11h2M29 11h3M0 12h3M11 12h2M19 12h2M29 12h3M0 13h8M24 13h8M0 14h8M24 14h8M0 15h8M24 15h8M0 16h5M8 16h3M21 16h3M27 16h5M0 17h5M8 17h3M21 17h3M27 17h5M0 18h5M8 18h3M21 18h3M27 18h5M0 19h3M11 19h2M19 19h2M29 19h3M0 20h3M11 20h2M19 20h2M29 20h3M0 21h3M8 21h5M19 21h5M29 21h3M0 22h3M8 22h5M19 22h5M29 22h3M0 23h3M8 23h5M19 23h5M29 23h3M0 24h3M5 24h3M13 24h6M24 24h3M29 24h3M0 25h3M5 25h3M13 25h6M24 25h3M29 25h3M0 26h3M5 26h3M13 26h6M24 26h3M29 26h3M0 27h5M13 27h6M27 27h5M0 28h5M13 28h6M27 28h5M3 29h26M3 30h26M3 31h26" />
<path stroke="#e6001b" d="M3 3h2M8 3h16M27 3h2M3 4h2M8 4h16M27 4h2M5 5h3M24 5h3M5 6h3M24 6h3M5 7h3M24 7h3M3 11h2M13 11h6M27 11h2M3 12h2M13 12h6M27 12h2M11 13h2M19 13h2M11 14h2M19 14h2M11 15h2M19 15h2M5 16h3M24 16h3M5 17h3M24 17h3M5 18h3M24 18h3M3 19h2M8 19h3M21 19h3M27 19h2M3 20h2M8 20h3M21 20h3M27 20h2M8 24h5M19 24h5M8 25h5M19 25h5M8 26h5M19 26h5M5 27h3M24 27h3M5 28h3M24 28h3" />
<path stroke="#ff808e" d="M3 5h2M8 5h16M27 5h2M3 6h2M8 6h16M27 6h2M3 7h2M8 7h16M27 7h2M5 8h8M19 8h8M5 9h8M19 9h8M5 10h8M19 10h8M5 11h6M21 11h6M5 12h6M21 12h6M8 13h3M13 13h6M21 13h3M8 14h3M13 14h6M21 14h3M8 15h3M13 15h6M21 15h3M11 16h10M11 17h10M11 18h10M5 19h3M13 19h6M24 19h3M5 20h3M13 20h6M24 20h3M3 21h5M13 21h6M24 21h5M3 22h5M13 22h6M24 22h5M3 23h5M13 23h6M24 23h5M3 24h2M27 24h2M3 25h2M27 25h2M3 26h2M27 26h2M8 27h5M19 27h5M8 28h5M19 28h5" />
</svg>