<svg xmlns="http://www.w3.org/2000/svg" viewBox="0 -0.5 32 32" shape-rendering="crispEdges">
<metadata>Made with Pixels to Svg https://codepen.io/shshaw/pen/XbxvNj</metadata>
<path stroke="#1a1400" d="M0 0h32M0 1h32M0 2h2M30 2h2M0 3h2M30 3h2M0 4h2M30 4h2M0 5h2M9 5h2M21 5h2M30 5h2M0 6h2M9 6h2M21 6h2M30 6h2M0 7h2M7 7h2M14 7h4M23 7h2M30 7h2M0 8h2M7 8h2M14 8h4M23 8h2M30 8h2M0 9h2M11 9h3M18 9h3M30 9h2M0 10h2M11 10h3M18 10h3M30 10h2M0 11h5M9 11h2M21 11h2M27 11h5M0 12h5M9 12h2M21 12h2M27 12h5M0 13h5M9 13h2M21 13h2M27 13h5M0 14h2M5 14h2M9 14h5M18 14h5M25 14h2M30 14h2M0 15h2M5 15h2M9 15h5M18 15h5M25 15h2M30 15h2M0 16h2M7 16h2M23 16h2M30 16h2M0 17h2M7 17h2M23 17h2M30 17h2M0 18h2M30 18h2M0 19h2M30 19h2M0 20h2M30 20h2M0 21h2M5 21h2M14 21h4M25 21h2M30 21h2M0 22h2M5 22h2M14 22h4M25 22h2M30 22h2M0 23h2M7 23h2M23 23h2M30 23h2M0 24h2M7 24h2M23 24h2M30 24h2M0 25h2M7 25h2M23 25h2M30 25h2M0 26h2M7 26h2M23 26h2M30 26h2M0 27h2M7 27h2M14 27h4M23 27h2M30 27h2M0 28h2M7 28h2M14 28h4M23 28h2M30 28h2M0 29h2M7 29h2M14 29h4M23 29h2M30 29h2M0 30h32M0 31h32" />
<path stroke="#ffe180" d="M2 2h7M11 2h10M23 2h7M2 3h7M11 3h10M23 3h7M2 4h7M11 4h10M23 4h7M2 5h5M11 5h3M18 5h3M25 5h5M2 6h5M11 6h3M18 6h3M25 6h5M2 7h5M9 7h2M21 7h2M25 7h5M2 8h5M9 8h2M21 8h2M25 8h5M5 9h4M14 9h4M23 9h4M5 10h4M14 10h4M23 10h4M7 11h2M14 11h4M23 11h2M7 12h2M14 12h4M23 12h2M7 13h2M14 13h4M23 13h2M2 14h3M14 14h4M27 14h3M2 15h3M14 15h4M27 15h3M2 16h5M9 16h14M25 16h5M2 17h5M9 17h14M25 17h5M2 18h3M7 18h7M18 18h7M27 18h3M2 19h3M7 19h7M18 19h7M27 19h3M2 20h3M7 20h7M18 20h7M27 20h3M2 21h3M9 21h5M18 21h5M27 21h3M2 22h3M9 22h5M18 22h5M27 22h3M2 23h5M9 23h14M25 23h5M2 24h5M9 24h14M25 24h5M2 25h5M9 25h5M18 25h5M25 25h5M2 26h5M9 26h5M18 26h5M25 26h5" />
<path stroke="#e6b000" d="M9 2h2M21 2h2M9 3h2M21 3h2M9 4h2M21 4h2M7 5h2M14 5h4M23 5h2M7 6h2M14 6h4M23 6h2M11 7h3M18 7h3M11 8h3M18 8h3M2 9h3M9 9h2M21 9h2M27 9h3M2 10h3M9 10h2M21 10h2M27 10h3M5 11h2M11 11h3M18 11h3M25 11h2M5 12h2M11 12h3M18 12h3M25 12h2M5 13h2M11 13h3M18 13h3M25 13h2M7 14h2M23 14h2M7 15h2M23 15h2M5 18h2M14 18h4M25 18h2M5 19h2M14 19h4M25 19h2M5 20h2M14 20h4M25 20h2M7 21h2M23 21h2M7 22h2M23 22h2M14 25h4M14 26h4M2 27h5M9 27h5M18 27h5M25 27h5M2 28h5M9 28h5M18 28h5M25 28h5M2 29h5M9 29h5M18 29h5M25 29h5" />
</svg>