<?xml version="1.0" encoding="utf-8"?>
<!-- Generator: Adobe Illustrator 25.4.0, SVG Export Plug-In . SVG Version: 6.00 Build 0)  -->
<svg version="1.1" id="Layer_1" xmlns="http://www.w3.org/2000/svg" xmlns:xlink="http://www.w3.org/1999/xlink" x="0px" y="0px"
	 viewBox="0 0 30 30" style="enable-background:new 0 0 30 30;" xml:space="preserve">
<style type="text/css">
	.st0{fill:#7FDAFE;}
	.st1{fill:#01131B;}
	.st2{fill:#00A3E5;}
</style>
<g>
	<path class="st0" d="M28.9,15c0,4.6,0,9.2,0,13.7c0,0.1,0,0.2-0.2,0.2c-9.2,0-18.3,0-27.5,0c-0.1,0-0.2,0-0.2-0.2
		c0-9.2,0-18.3,0-27.5c0-0.1,0-0.2,0.2-0.2c9.2,0,18.3,0,27.5,0c0.1,0,0.2,0,0.2,0.2C28.9,5.8,28.9,10.4,28.9,15z M1.2,15
		c0,4.5,0,9,0,13.4c0,0.4,0,0.4,0.4,0.4c9,0,17.9,0,26.9,0c0.4,0,0.4,0,0.4-0.4c0-9,0-17.9,0-26.9c0-0.4,0-0.4-0.4-0.4
		c-9,0-17.9,0-26.9,0c-0.4,0-0.4,0-0.4,0.4C1.2,6.1,1.2,10.5,1.2,15z"/>
	<path class="st1" d="M1.2,15c0-4.5,0-8.9,0-13.4c0-0.3,0-0.4,0.4-0.4c9,0,17.9,0,26.9,0c0.3,0,0.4,0,0.4,0.4c0,9,0,17.9,0,26.9
		c0,0.3,0,0.4-0.4,0.4c-9,0-17.9,0-26.9,0c-0.3,0-0.4,0-0.4-0.4C1.2,24,1.2,19.5,1.2,15z M4.8,4.7C4.7,4.7,4.7,4.7,4.8,4.7
		C4.5,4.8,4.6,4.9,4.6,5c0,5.8,0,11.7,0,17.5c0,0.8,0,1.7,0,2.5c0,0.3,0.2,0.5,0.5,0.5c6.6,0,13.3,0,19.9,0c0.4,0,0.5-0.1,0.5-0.5
		c0-1,0-2,0-3c0-0.5,0-1,0-1.5c0-5.1,0-10.3,0-15.4c0-0.3-0.1-0.4-0.4-0.4c-1.1,0-2.2,0-3.3,0c-1,0-1.9,0-2.9,0
		c-0.3,0-0.3,0.1-0.3,0.3c0,0.9,0,1.8,0,2.7c0,0.3,0,0.4,0.4,0.4c0.9,0,1.8,0,2.7,0c0.3,0,0.3,0.1,0.3,0.3c0,3.2,0,6.5,0,9.7
		c0,0.2-0.1,0.3-0.3,0.3c-1,0-1.9,0-2.9,0c-0.2,0-0.2,0-0.2-0.3c0-1.2,0-2.3,0-3.5c0-2.1,0-4.2,0-6.3c0-0.3,0-0.4-0.3-0.4
		c-2.1,0-4.2,0-6.3,0c-0.3,0-0.4,0-0.4,0.4c0,2.3,0,4.7,0,7c0,0.9,0,1.8,0,2.6c0,0.3,0.1,0.4,0.4,0.4c2.1,0,4.2,0,6.3,0
		c0.2,0,0.2,0,0.2,0.2c0,1,0,2,0,3c0,0.2,0,0.3-0.3,0.3c-2.1,0-4.2,0-6.3,0c-0.3,0-0.3-0.1-0.3-0.3c0-0.9,0-1.8,0-2.8
		c0-0.3-0.1-0.4-0.4-0.4c-0.9,0-1.8,0-2.7,0c-0.3,0-0.4-0.1-0.4-0.4c0-3.2,0-6.4,0-9.6c0-0.3,0.1-0.4,0.4-0.4c0.9,0,1.9,0,2.8,0
		c0.3,0,0.3-0.1,0.3-0.3c0-0.9,0-1.9,0-2.8c0-0.2-0.1-0.3-0.3-0.3c-0.5,0-1,0-1.5,0c-0.6,0-1.1,0-1.7,0c-1,0-2,0-3.1,0
		C4.9,4.6,4.8,4.6,4.8,4.7z"/>
	<path class="st2" d="M4.8,4.7c0-0.1,0.1-0.1,0.2-0.1c1,0,2,0,3.1,0c0.6,0,1.1,0,1.7,0c0.5,0,1,0,1.5,0c0.2,0,0.3,0.1,0.3,0.3
		c0,0.9,0,1.9,0,2.8c0,0.3,0,0.3-0.3,0.3c-0.9,0-1.9,0-2.8,0C8.1,8.1,8,8.2,8,8.5c0,3.2,0,6.4,0,9.6c0,0.3,0.1,0.4,0.4,0.4
		c0.9,0,1.8,0,2.7,0c0.3,0,0.4,0.1,0.4,0.4c0,0.9,0,1.8,0,2.8c0,0.3,0.1,0.3,0.3,0.3c2.1,0,4.2,0,6.3,0c0.2,0,0.3,0,0.3-0.3
		c0-1,0-2,0-3c0-0.2-0.1-0.2-0.2-0.2c-2.1,0-4.2,0-6.3,0c-0.3,0-0.4-0.1-0.4-0.4c0-0.9,0-1.8,0-2.6c0-2.3,0-4.7,0-7
		c0-0.3,0-0.4,0.4-0.4c2.1,0,4.2,0,6.3,0c0.3,0,0.3,0,0.3,0.4c0,2.1,0,4.2,0,6.3c0,1.2,0,2.3,0,3.5c0,0.2,0,0.3,0.2,0.3
		c1,0,1.9,0,2.9,0c0.2,0,0.3-0.1,0.3-0.3c0-3.2,0-6.5,0-9.7c0-0.3-0.1-0.3-0.3-0.3c-0.9,0-1.8,0-2.7,0c-0.3,0-0.4,0-0.4-0.4
		c0-0.9,0-1.8,0-2.7c0-0.3,0.1-0.3,0.3-0.3c1,0,1.9,0,2.9,0c1.1,0,2.2,0,3.3,0c0.3,0,0.4,0.1,0.4,0.4c0,5.1,0,10.3,0,15.4
		c0,0.5,0,1,0,1.5c0,1,0,2,0,3c0,0.4-0.1,0.5-0.5,0.5c-6.6,0-13.3,0-19.9,0c-0.3,0-0.5-0.2-0.5-0.5c0-0.8,0-1.7,0-2.5
		c0.1-5.8,0-11.7,0-17.5C4.6,4.9,4.5,4.8,4.8,4.7C4.7,4.9,4.7,5,4.7,5.1c0,5.5,0,11,0,16.5c0,0.3,0,0.4,0.4,0.4c2,0,4,0,6,0
		c0.3,0,0.3,0,0.3-0.3c0-0.9,0-1.8,0-2.7c0-0.3,0-0.3-0.3-0.3c-0.9,0-1.8,0-2.8,0c-0.2,0-0.3,0-0.4-0.2c-0.1-0.1-0.1-0.2-0.1-0.3
		c0-1.7,0-3.4,0-5.2C8,11.2,7.8,9.5,8,7.8C8.1,6.9,8,6,8,5.1c0-0.3-0.1-0.3-0.3-0.3c-0.5,0-1,0-1.5,0C5.7,4.7,5.2,4.7,4.8,4.7z
		 M25.3,13.3c0-2.8,0-5.5,0-8.3c0-0.3,0-0.3-0.3-0.3c-0.9,0-1.8,0-2.7,0C22,4.7,22,4.8,22,5c0,1.1,0,2.3,0,3.4c0,3.2,0,6.5,0,9.7
		c0,0.4-0.1,0.5-0.5,0.5c-0.9,0-1.8,0-2.7,0c-0.2,0-0.3,0-0.3,0.3c0,0.7,0,1.4,0,2.1c0,0.2,0,0.5,0,0.7c0,0.3,0,0.3,0.3,0.3
		c2,0,4,0,6,0c0.3,0,0.3,0,0.4-0.3c0-0.1,0-0.1,0-0.2C25.3,18.7,25.3,16,25.3,13.3z M18.3,11.6c0-1,0-2.1,0-3.1c0-0.2,0-0.2-0.2-0.2
		c-2.1,0-4.1,0-6.2,0c-0.2,0-0.2,0-0.2,0.2c0,2.1,0,4.2,0,6.3c0,0.3,0,0.3,0.3,0.3c2,0,4.1,0,6.1,0c0.3,0,0.3,0,0.3-0.3
		C18.3,13.7,18.3,12.6,18.3,11.6z"/>
	<path class="st0" d="M4.8,4.7c0.5,0,0.9,0,1.4,0c0.5,0,1,0,1.5,0c0.2,0,0.3,0,0.3,0.3C8,6,8.1,6.9,8,7.8C7.8,9.5,8,11.2,7.9,13
		c0,1.7,0,3.4,0,5.2c0,0.1,0,0.2,0.1,0.3c0.1,0.1,0.2,0.2,0.4,0.2c0.9,0,1.8,0,2.8,0c0.3,0,0.3,0,0.3,0.3c0,0.9,0,1.8,0,2.7
		c0,0.3,0,0.3-0.3,0.3c-2,0-4,0-6,0c-0.3,0-0.4,0-0.4-0.4c0-5.5,0-11,0-16.5C4.7,5,4.7,4.9,4.8,4.7C4.7,4.7,4.7,4.7,4.8,4.7z"/>
	<path class="st0" d="M25.3,13.3c0,2.7,0,5.4,0,8.2c0,0.1,0,0.1,0,0.2c0,0.3-0.1,0.3-0.4,0.3c-2,0-4,0-6,0c-0.3,0-0.3,0-0.3-0.3
		c0-0.2,0-0.5,0-0.7c0-0.7,0-1.4,0-2.1c0-0.2,0-0.3,0.3-0.3c0.9,0,1.8,0,2.7,0c0.4,0,0.5-0.1,0.5-0.5c0-3.2,0-6.5,0-9.7
		c0-1.1,0-2.3,0-3.4c0-0.2,0-0.3,0.3-0.3c0.9,0,1.8,0,2.7,0c0.2,0,0.3,0,0.3,0.3C25.3,7.8,25.3,10.5,25.3,13.3z"/>
	<path class="st0" d="M18.3,11.6c0,1,0,2.1,0,3.1c0,0.3,0,0.3-0.3,0.3c-2,0-4.1,0-6.1,0c-0.3,0-0.3,0-0.3-0.3c0-2.1,0-4.2,0-6.3
		c0-0.2,0.1-0.2,0.2-0.2c2.1,0,4.1,0,6.2,0c0.2,0,0.2,0,0.2,0.2C18.3,9.5,18.3,10.5,18.3,11.6z"/>
</g>
</svg>
