<?xml version="1.0" encoding="UTF-8"?>
<svg transform="scale(1,-1)"  shape-rendering="crispEdges" viewBox="0 -.5 10 10" xmlns="http://www.w3.org/2000/svg">
<metadata>Made with Pixels to Svg https://codepen.io/shshaw/pen/XbxvNj</metadata>
<path d="M1 0h8M1 1h1M4 1h2M8 1h1M0 2h2M4 2h2M8 2h2M0 3h1M2 3h1M7 3h1M9 3h1M0 4h1M4 4h2M9 4h1M0 5h1M9 5h1M0 6h1M2 6h1M7 6h1M9 6h1M0 7h1M3 7h1M6 7h1M9 7h1M0 8h2M8 8h2M1 9h8" stroke="#1a0e00"/>
<path d="M2 1h2M6 1h2M3 2h1M6 2h1M1 3h1M3 3h1M6 3h1M8 3h1M1 4h3M6 4h3M1 5h1M3 5h4M8 5h1M1 6h1M4 6h2M8 6h1M2 7h1M4 7h2M7 7h1" stroke="#ffc380"/>
<path d="M2 2h1M7 2h1M4 3h2M2 5h1M7 5h1M3 6h1M6 6h1M1 7h1M8 7h1M2 8h6" stroke="#e67a00"/>
</svg>
