<svg width="512" height="512" viewBox="0 0 512 512" fill="none" xmlns="http://www.w3.org/2000/svg">
<path d="M312.333 483.556V512H340.749V483.556H312.333Z" fill="#958589"/>
<path d="M170.249 483.556V512H198.665V483.556H170.249Z" fill="#958589"/>
<path d="M170.249 483.555H198.665V455.11H170.249V483.555Z" fill="#403A48"/>
<path d="M198.669 426.666V455.11H312.334V483.555H340.751V426.666H198.669Z" fill="#403A48"/>
<path d="M340.747 455.11H369.164V398.221H340.747V455.11Z" fill="#DB7144"/>
<path d="M340.749 426.667V369.778H227.084V426.667H340.749Z" fill="#958589"/>
<path d="M198.667 398.221H141.834V455.11H198.667V398.221Z" fill="#E69157"/>
<path d="M141.834 398.222H198.667V369.777H170.251V341.333H141.834V398.222Z" fill="#958589"/>
<path d="M198.665 369.778V426.667H227.082V369.778H340.747V398.223H369.164V341.334H170.249V369.778H198.665Z" fill="#625964"/>
<path d="M369.167 284.445V256.001H340.751V284.445H227.085V256.001H198.669V284.445H141.836V256.001H113.42V312.89H141.836V341.334H397.584V312.89H426V284.445H369.167Z" fill="#4B191B"/>
<path d="M369.167 255.999V284.443H426V255.999H369.167Z" fill="#742D18"/>
<path d="M312.333 284.443H340.749V255.999H312.333V284.443Z" fill="#742D18"/>
<path d="M227.084 255.999V284.443H255.5V255.999H227.084Z" fill="#742D18"/>
<path d="M198.667 284.443V255.999H141.834V284.443H198.667Z" fill="#742D18"/>
<path d="M369.164 256.001V227.557H340.747V256.001H369.164Z" fill="#742D18"/>
<path d="M255.5 255.999V284.443H312.333V255.999H340.749V227.555H227.084V255.999H255.5Z" fill="#F4F1EB"/>
<path d="M227.085 227.557H198.669V256.001H227.085V227.557Z" fill="#742D18"/>
<path d="M141.836 256.001V227.557H113.42V256.001H141.836Z" fill="#742D18"/>
<path d="M113.416 227.557H85V256.001H113.416V227.557Z" fill="#DB7144"/>
<path d="M397.584 170.667H369.167V227.556H397.584V170.667Z" fill="#1F1518"/>
<path d="M340.749 227.556V199.111H227.084V227.556H340.749Z" fill="#742D18"/>
<path d="M198.665 170.667H170.249V227.556H198.665V170.667Z" fill="#1F1518"/>
<path d="M397.582 85.3347H425.998V56.8904H397.582V85.3347Z" fill="#F4A16B"/>
<path d="M397.58 56.8905H369.164V28.4462H283.915V0.00185013H198.666V28.4462H141.833V56.8905H113.416V199.112H85V227.557H141.833V256.001H198.666V227.557H170.249V170.668H198.666V227.557H227.082V199.112H340.747V227.557H369.164V170.668H397.58V227.557H369.164V256.001H425.997V85.3349H397.58V56.8905Z" fill="#E69157"/>
<path d="M397.584 56.8896V28.4453H369.167V56.8896H397.584Z" fill="#F4A16B"/>
<path d="M340.751 28.4443V-9.05991e-06H283.918V28.4443H340.751Z" fill="#F4A16B"/>
</svg>
