<svg xmlns="http://www.w3.org/2000/svg" viewBox="0 -0.5 32 32" shape-rendering="crispEdges">
<metadata>Made with Pixels to Svg https://codepen.io/shshaw/pen/XbxvNj</metadata>
<path stroke="#1a000b" d="M0 0h32M0 1h32M0 2h32M0 3h3M5 3h3M24 3h3M29 3h3M0 4h3M5 4h3M24 4h3M29 4h3M0 5h3M29 5h3M0 6h3M29 6h3M0 7h3M29 7h3M0 8h3M5 8h6M21 8h6M29 8h3M0 9h3M5 9h6M21 9h6M29 9h3M0 10h3M5 10h6M21 10h6M29 10h3M0 11h3M13 11h6M29 11h3M0 12h3M13 12h6M29 12h3M0 13h5M27 13h5M0 14h5M27 14h5M0 15h5M27 15h5M0 16h3M11 16h2M19 16h2M29 16h3M0 17h3M11 17h2M19 17h2M29 17h3M0 18h3M11 18h2M19 18h2M29 18h3M0 19h3M5 19h3M11 19h2M19 19h2M24 19h3M29 19h3M0 20h3M5 20h3M11 20h2M19 20h2M24 20h3M29 20h3M0 21h3M11 21h2M19 21h2M29 21h3M0 22h3M11 22h2M19 22h2M29 22h3M0 23h3M11 23h2M19 23h2M29 23h3M0 24h3M11 24h2M19 24h2M29 24h3M0 25h3M11 25h2M19 25h2M29 25h3M0 26h3M11 26h2M19 26h2M29 26h3M0 27h3M29 27h3M0 28h3M29 28h3M0 29h32M0 30h32M0 31h32" />
<path stroke="#e60060" d="M3 3h2M8 3h16M27 3h2M3 4h2M8 4h16M27 4h2M5 5h3M24 5h3M5 6h3M24 6h3M5 7h3M24 7h3M5 11h6M21 11h6M5 12h6M21 12h6M13 13h6M13 14h6M13 15h6M3 16h2M27 16h2M3 17h2M27 17h2M3 18h2M27 18h2M5 21h3M24 21h3M5 22h3M24 22h3M5 23h3M24 23h3M11 27h2M19 27h2M11 28h2M19 28h2" />
<path stroke="#ff80b5" d="M3 5h2M8 5h16M27 5h2M3 6h2M8 6h16M27 6h2M3 7h2M8 7h16M27 7h2M3 8h2M11 8h10M27 8h2M3 9h2M11 9h10M27 9h2M3 10h2M11 10h10M27 10h2M3 11h2M11 11h2M19 11h2M27 11h2M3 12h2M11 12h2M19 12h2M27 12h2M5 13h8M19 13h8M5 14h8M19 14h8M5 15h8M19 15h8M5 16h6M13 16h6M21 16h6M5 17h6M13 17h6M21 17h6M5 18h6M13 18h6M21 18h6M3 19h2M8 19h3M13 19h6M21 19h3M27 19h2M3 20h2M8 20h3M13 20h6M21 20h3M27 20h2M3 21h2M8 21h3M13 21h6M21 21h3M27 21h2M3 22h2M8 22h3M13 22h6M21 22h3M27 22h2M3 23h2M8 23h3M13 23h6M21 23h3M27 23h2M3 24h8M13 24h6M21 24h8M3 25h8M13 25h6M21 25h8M3 26h8M13 26h6M21 26h8M3 27h8M13 27h6M21 27h8M3 28h8M13 28h6M21 28h8" />
</svg>