<svg xmlns="http://www.w3.org/2000/svg" viewBox="0 -0.5 32 32" shape-rendering="crispEdges">
<metadata>Made with Pixels to Svg https://codepen.io/shshaw/pen/XbxvNj</metadata>
<path stroke="#001a0b" d="M3 0h26M3 1h26M3 2h26M3 3h2M27 3h2M3 4h2M27 4h2M0 5h5M13 5h6M27 5h5M0 6h5M13 6h6M27 6h5M0 7h5M13 7h6M27 7h5M0 8h3M8 8h5M19 8h5M29 8h3M0 9h3M8 9h5M19 9h5M29 9h3M0 10h3M8 10h5M19 10h5M29 10h3M0 11h8M11 11h10M24 11h8M0 12h8M11 12h10M24 12h8M0 13h3M29 13h3M0 14h3M29 14h3M0 15h3M29 15h3M0 16h8M24 16h8M0 17h8M24 17h8M0 18h8M24 18h8M0 19h3M11 19h2M19 19h2M29 19h3M0 20h3M11 20h2M19 20h2M29 20h3M0 21h3M29 21h3M0 22h3M29 22h3M0 23h3M29 23h3M0 24h5M27 24h5M0 25h5M27 25h5M0 26h5M27 26h5M0 27h3M29 27h3M0 28h3M29 28h3M0 29h32M0 30h32M0 31h32" />
<path stroke="#00e660" d="M5 3h22M5 4h22M3 8h2M13 8h6M27 8h2M3 9h2M13 9h6M27 9h2M3 10h2M13 10h6M27 10h2M8 11h3M21 11h3M8 12h3M21 12h3M3 13h5M11 13h10M24 13h5M3 14h5M11 14h10M24 14h5M3 15h5M11 15h10M24 15h5M3 19h5M24 19h5M3 20h5M24 20h5M11 21h2M19 21h2M11 22h2M19 22h2M11 23h2M19 23h2M3 27h2M27 27h2M3 28h2M27 28h2" />
<path stroke="#80ffb5" d="M5 5h8M19 5h8M5 6h8M19 6h8M5 7h8M19 7h8M5 8h3M24 8h3M5 9h3M24 9h3M5 10h3M24 10h3M8 13h3M21 13h3M8 14h3M21 14h3M8 15h3M21 15h3M8 16h16M8 17h16M8 18h16M8 19h3M13 19h6M21 19h3M8 20h3M13 20h6M21 20h3M3 21h8M13 21h6M21 21h8M3 22h8M13 22h6M21 22h8M3 23h8M13 23h6M21 23h8M5 24h22M5 25h22M5 26h22M5 27h22M5 28h22" />
</svg>