<svg xmlns="http://www.w3.org/2000/svg" viewBox="0 -0.5 32 32" shape-rendering="crispEdges">
<metadata>Made with Pixels to Svg https://codepen.io/shshaw/pen/XbxvNj</metadata>
<path stroke="#1a0300" d="M0 0h32M0 1h32M0 2h32M0 3h3M5 3h3M24 3h3M29 3h3M0 4h3M5 4h3M24 4h3M29 4h3M0 5h5M8 5h3M21 5h3M27 5h5M0 6h5M8 6h3M21 6h3M27 6h5M0 7h5M8 7h3M21 7h3M27 7h5M0 8h5M11 8h2M19 8h2M27 8h5M0 9h5M11 9h2M19 9h2M27 9h5M0 10h5M11 10h2M19 10h2M27 10h5M0 11h3M8 11h3M21 11h3M29 11h3M0 12h3M8 12h3M21 12h3M29 12h3M0 13h3M5 13h3M13 13h6M24 13h3M29 13h3M0 14h3M5 14h3M13 14h6M24 14h3M29 14h3M0 15h3M5 15h3M13 15h6M24 15h3M29 15h3M0 16h3M29 16h3M0 17h3M29 17h3M0 18h3M29 18h3M0 19h11M21 19h11M0 20h11M21 20h11M0 21h3M29 21h3M0 22h3M29 22h3M0 23h3M29 23h3M0 24h5M27 24h5M0 25h5M27 25h5M0 26h5M27 26h5M3 27h2M8 27h3M13 27h6M21 27h3M27 27h2M3 28h2M8 28h3M13 28h6M21 28h3M27 28h2M3 29h26M3 30h26M3 31h26" />
<path stroke="#e61f00" d="M3 3h2M8 3h16M27 3h2M3 4h2M8 4h16M27 4h2M5 5h3M24 5h3M5 6h3M24 6h3M5 7h3M24 7h3M8 8h3M21 8h3M8 9h3M21 9h3M8 10h3M21 10h3M3 11h2M11 11h2M19 11h2M27 11h2M3 12h2M11 12h2M19 12h2M27 12h2M8 13h3M21 13h3M8 14h3M21 14h3M8 15h3M21 15h3M5 16h3M13 16h6M24 16h3M5 17h3M13 17h6M24 17h3M5 18h3M13 18h6M24 18h3M3 21h8M21 21h8M3 22h8M21 22h8M3 23h8M21 23h8" />
<path stroke="#ff9180" d="M11 5h10M11 6h10M11 7h10M5 8h3M13 8h6M24 8h3M5 9h3M13 9h6M24 9h3M5 10h3M13 10h6M24 10h3M5 11h3M13 11h6M24 11h3M5 12h3M13 12h6M24 12h3M3 13h2M11 13h2M19 13h2M27 13h2M3 14h2M11 14h2M19 14h2M27 14h2M3 15h2M11 15h2M19 15h2M27 15h2M3 16h2M8 16h5M19 16h5M27 16h2M3 17h2M8 17h5M19 17h5M27 17h2M3 18h2M8 18h5M19 18h5M27 18h2M11 19h10M11 20h10M11 21h10M11 22h10M11 23h10M5 24h22M5 25h22M5 26h22M5 27h3M11 27h2M19 27h2M24 27h3M5 28h3M11 28h2M19 28h2M24 28h3" />
</svg>