<svg width="32" height="32" viewBox="0 0 32 32" fill="none" xmlns="http://www.w3.org/2000/svg">
<mask id="mask0_109_3185" style="mask-type:luminance" maskUnits="userSpaceOnUse" x="0" y="0" width="32" height="32">
<path d="M0 32H32V0H0V32Z" fill="white"/>
</mask>
<g mask="url(#mask0_109_3185)">
<g filter="url(#filter0_d_109_3185)">
<path d="M32 31.5H0M32 30.5H0M32 29.5H30M2 29.5H0M32 28.5H30M2 28.5H0M32 27.5H30M2 27.5H0M32 26.5H30M2 26.5H0M32 25.5H30M2 25.5H0M32 24.5H30M23 24.5H21M18 24.5H14M11 24.5H9M2 24.5H0M32 23.5H30M23 23.5H21M18 23.5H14M11 23.5H9M2 23.5H0M32 22.5H30M2 22.5H0M32 21.5H30M2 21.5H0M32 20.5H30M23 20.5H21M11 20.5H9M2 20.5H0M32 19.5H30M23 19.5H21M11 19.5H9M2 19.5H0M32 18.5H30M23 18.5H21M11 18.5H9M2 18.5H0M32 17.5H30M2 17.5H0M32 16.5H30M2 16.5H0M32 15.5H30M21 15.5H18M14 15.5H11M2 15.5H0M32 14.5H30M21 14.5H18M14 14.5H11M2 14.5H0M32 13.5H27M25 13.5H23M9 13.5H7M5 13.5H0M32 12.5H27M25 12.5H23M9 12.5H7M5 12.5H0M32 11.5H27M25 11.5H23M9 11.5H7M5 11.5H0M32 10.5H30M21 10.5H18M14 10.5H11M2 10.5H0M32 9.5H30M21 9.5H18M14 9.5H11M2 9.5H0M32 8.5H30M23 8.5H21M18 8.5H14M11 8.5H9M2 8.5H0M32 7.5H30M23 7.5H21M18 7.5H14M11 7.5H9M2 7.5H0M32 6.5H30M25 6.5H23M9 6.5H7M2 6.5H0M32 5.5H30M25 5.5H23M9 5.5H7M2 5.5H0M32 4.5H27M5 4.5H0M32 3.5H27M5 3.5H0M32 2.5H27M5 2.5H0M30 1.5H2M30 0.5H2" stroke="#1A0016"/>
<path d="M30 29.5H2M30 28.5H2M30 27.5H2M30 26.5H23M21 26.5H18M14 26.5H11M9 26.5H2M30 25.5H23M21 25.5H18M14 25.5H11M9 25.5H2M30 24.5H23M21 24.5H18M14 24.5H11M9 24.5H2M30 23.5H23M21 23.5H18M14 23.5H11M9 23.5H2M30 22.5H23M21 22.5H11M9 22.5H2M30 21.5H23M21 21.5H11M9 21.5H2M30 20.5H23M21 20.5H11M9 20.5H2M30 19.5H23M21 19.5H11M9 19.5H2M30 18.5H23M21 18.5H11M9 18.5H2M30 17.5H21M18 17.5H14M11 17.5H2M30 16.5H21M18 16.5H14M11 16.5H2M27 15.5H25M23 15.5H21M18 15.5H14M11 15.5H9M7 15.5H5M27 14.5H25M23 14.5H21M18 14.5H14M11 14.5H9M7 14.5H5M27 13.5H25M23 13.5H21M18 13.5H14M11 13.5H9M7 13.5H5M27 12.5H25M23 12.5H21M18 12.5H14M11 12.5H9M7 12.5H5M27 11.5H25M23 11.5H21M18 11.5H14M11 11.5H9M7 11.5H5M30 10.5H23M9 10.5H2M30 9.5H23M9 9.5H2M30 8.5H25M21 8.5H18M14 8.5H11M7 8.5H2M30 7.5H25M21 7.5H18M14 7.5H11M7 7.5H2M27 6.5H25M23 6.5H9M7 6.5H5M27 5.5H25M23 5.5H9M7 5.5H5" stroke="#FF80EE"/>
<path d="M23 26.5H21M18 26.5H14M11 26.5H9M23 25.5H21M18 25.5H14M11 25.5H9M23 22.5H21M11 22.5H9M23 21.5H21M11 21.5H9M21 17.5H18M14 17.5H11M21 16.5H18M14 16.5H11M30 15.5H27M25 15.5H23M9 15.5H7M5 15.5H2M30 14.5H27M25 14.5H23M9 14.5H7M5 14.5H2M21 13.5H18M14 13.5H11M21 12.5H18M14 12.5H11M21 11.5H18M14 11.5H11M23 10.5H21M18 10.5H14M11 10.5H9M23 9.5H21M18 9.5H14M11 9.5H9M25 8.5H23M9 8.5H7M25 7.5H23M9 7.5H7M30 6.5H27M5 6.5H2M30 5.5H27M5 5.5H2M27 4.5H5M27 3.5H5M27 2.5H5" stroke="#E600C7"/>
</g>
</g>
<defs>
<filter id="filter0_d_109_3185" x="-4" y="0" width="40" height="40" filterUnits="userSpaceOnUse" color-interpolation-filters="sRGB">
<feFlood flood-opacity="0" result="BackgroundImageFix"/>
<feColorMatrix in="SourceAlpha" type="matrix" values="0 0 0 0 0 0 0 0 0 0 0 0 0 0 0 0 0 0 127 0" result="hardAlpha"/>
<feOffset dy="4"/>
<feGaussianBlur stdDeviation="2"/>
<feComposite in2="hardAlpha" operator="out"/>
<feColorMatrix type="matrix" values="0 0 0 0 0 0 0 0 0 0 0 0 0 0 0 0 0 0 0.25 0"/>
<feBlend mode="normal" in2="BackgroundImageFix" result="effect1_dropShadow_109_3185"/>
<feBlend mode="normal" in="SourceGraphic" in2="effect1_dropShadow_109_3185" result="shape"/>
</filter>
</defs>
</svg>
