<svg xmlns="http://www.w3.org/2000/svg" viewBox="0 -0.5 32 32" shape-rendering="crispEdges">
<metadata>Made with Pixels to Svg https://codepen.io/shshaw/pen/XbxvNj</metadata>
<path stroke="#14001a" d="M0 0h32M0 1h32M0 2h32M0 3h3M5 3h3M24 3h3M29 3h3M0 4h3M5 4h3M24 4h3M29 4h3M0 5h3M5 5h3M24 5h3M29 5h3M0 6h3M5 6h3M24 6h3M29 6h3M0 7h3M5 7h3M24 7h3M29 7h3M0 8h5M11 8h2M19 8h2M27 8h5M0 9h5M11 9h2M19 9h2M27 9h5M0 10h5M11 10h2M19 10h2M27 10h5M0 11h8M13 11h6M24 11h8M0 12h8M13 12h6M24 12h8M0 13h3M5 13h8M19 13h8M29 13h3M0 14h3M5 14h8M19 14h8M29 14h3M0 15h3M5 15h8M19 15h8M29 15h3M0 16h3M8 16h5M19 16h5M29 16h3M0 17h3M8 17h5M19 17h5M29 17h3M0 18h3M8 18h5M19 18h5M29 18h3M0 19h3M5 19h6M21 19h6M29 19h3M0 20h3M5 20h6M21 20h6M29 20h3M0 21h3M11 21h2M19 21h2M29 21h3M0 22h3M11 22h2M19 22h2M29 22h3M0 23h3M11 23h2M19 23h2M29 23h3M0 24h3M29 24h3M0 25h3M29 25h3M0 26h3M29 26h3M0 27h5M11 27h2M19 27h2M27 27h5M0 28h5M11 28h2M19 28h2M27 28h5M3 29h26M3 30h26M3 31h26" />
<path stroke="#b800e6" d="M3 3h2M8 3h16M27 3h2M3 4h2M8 4h16M27 4h2M5 8h3M24 8h3M5 9h3M24 9h3M5 10h3M24 10h3M11 11h2M19 11h2M11 12h2M19 12h2M3 13h2M13 13h6M27 13h2M3 14h2M13 14h6M27 14h2M3 15h2M13 15h6M27 15h2M5 16h3M24 16h3M5 17h3M24 17h3M5 18h3M24 18h3M11 19h2M19 19h2M11 20h2M19 20h2M5 21h6M21 21h6M5 22h6M21 22h6M5 23h6M21 23h6M11 24h2M19 24h2M11 25h2M19 25h2M11 26h2M19 26h2" />
<path stroke="#e580ff" d="M3 5h2M8 5h16M27 5h2M3 6h2M8 6h16M27 6h2M3 7h2M8 7h16M27 7h2M8 8h3M13 8h6M21 8h3M8 9h3M13 9h6M21 9h3M8 10h3M13 10h6M21 10h3M8 11h3M21 11h3M8 12h3M21 12h3M3 16h2M13 16h6M27 16h2M3 17h2M13 17h6M27 17h2M3 18h2M13 18h6M27 18h2M3 19h2M13 19h6M27 19h2M3 20h2M13 20h6M27 20h2M3 21h2M13 21h6M27 21h2M3 22h2M13 22h6M27 22h2M3 23h2M13 23h6M27 23h2M3 24h8M13 24h6M21 24h8M3 25h8M13 25h6M21 25h8M3 26h8M13 26h6M21 26h8M5 27h6M13 27h6M21 27h6M5 28h6M13 28h6M21 28h6" />
</svg>