<svg xmlns="http://www.w3.org/2000/svg" viewBox="0 -0.5 32 32" shape-rendering="crispEdges">
<metadata>Made with Pixels to Svg https://codepen.io/shshaw/pen/XbxvNj</metadata>
<path stroke="#00021a" d="M0 0h32M0 1h32M0 2h32M0 3h3M29 3h3M0 4h3M29 4h3M0 5h3M13 5h6M29 5h3M0 6h3M13 6h6M29 6h3M0 7h3M13 7h6M29 7h3M0 8h3M5 8h3M11 8h2M19 8h2M24 8h3M29 8h3M0 9h3M5 9h3M11 9h2M19 9h2M24 9h3M29 9h3M0 10h3M5 10h3M11 10h2M19 10h2M24 10h3M29 10h3M0 11h3M5 11h3M24 11h3M29 11h3M0 12h3M5 12h3M24 12h3M29 12h3M0 13h3M29 13h3M0 14h3M29 14h3M0 15h3M29 15h3M0 16h8M11 16h2M19 16h2M24 16h8M0 17h8M11 17h2M19 17h2M24 17h8M0 18h8M11 18h2M19 18h2M24 18h8M0 19h3M29 19h3M0 20h3M29 20h3M0 21h3M5 21h3M13 21h6M24 21h3M29 21h3M0 22h3M5 22h3M13 22h6M24 22h3M29 22h3M0 23h3M5 23h3M13 23h6M24 23h3M29 23h3M0 24h5M27 24h5M0 25h5M27 25h5M0 26h5M27 26h5M0 27h3M5 27h3M11 27h10M24 27h3M29 27h3M0 28h3M5 28h3M11 28h10M24 28h3M29 28h3M0 29h13M19 29h13M0 30h13M19 30h13M0 31h13M19 31h13" />
<path stroke="#000fe6" d="M3 3h26M3 4h26M13 8h6M13 9h6M13 10h6M11 11h2M19 11h2M11 12h2M19 12h2M5 13h3M24 13h3M5 14h3M24 14h3M5 15h3M24 15h3M3 19h5M11 19h2M19 19h2M24 19h5M3 20h5M11 20h2M19 20h2M24 20h5M5 24h3M13 24h6M24 24h3M5 25h3M13 25h6M24 25h3M5 26h3M13 26h6M24 26h3M3 27h2M27 27h2M3 28h2M27 28h2" />
<path stroke="#8088ff" d="M3 5h10M19 5h10M3 6h10M19 6h10M3 7h10M19 7h10M3 8h2M8 8h3M21 8h3M27 8h2M3 9h2M8 9h3M21 9h3M27 9h2M3 10h2M8 10h3M21 10h3M27 10h2M3 11h2M8 11h3M13 11h6M21 11h3M27 11h2M3 12h2M8 12h3M13 12h6M21 12h3M27 12h2M3 13h2M8 13h16M27 13h2M3 14h2M8 14h16M27 14h2M3 15h2M8 15h16M27 15h2M8 16h3M13 16h6M21 16h3M8 17h3M13 17h6M21 17h3M8 18h3M13 18h6M21 18h3M8 19h3M13 19h6M21 19h3M8 20h3M13 20h6M21 20h3M3 21h2M8 21h5M19 21h5M27 21h2M3 22h2M8 22h5M19 22h5M27 22h2M3 23h2M8 23h5M19 23h5M27 23h2M8 24h5M19 24h5M8 25h5M19 25h5M8 26h5M19 26h5M8 27h3M21 27h3M8 28h3M21 28h3" />
</svg>