<svg width="150" height="289" viewBox="0 0 150 289" fill="none" xmlns="http://www.w3.org/2000/svg">
<path d="M49.6003 29.6C46.5003 29.6 43.3004 29.6 39.9004 29.6C39.9004 19.7 39.9004 10 39.9004 0C62.9004 0 85.9004 0 109.3 0C109.3 9.6 109.3 19.4 109.3 29.6C106.1 29.6 102.9 29.6 99.6003 29.6C99.6003 23 99.6003 16.5 99.6003 9.80002C95.8003 9.80002 92.7004 9.80002 89.5004 9.80002C82.9004 9.80002 76.3004 9.80002 69.7004 9.80002C66.3004 9.80002 62.9004 9.80002 59.5004 9.80002C56.3004 9.80002 53.1003 9.80002 49.6003 9.80002C49.6003 16.8 49.6003 23.2 49.6003 29.6Z" fill="#25131A"/>
<path d="M19.6004 269.1C19.6004 266 19.6004 262.8 19.6004 259.3C16.3004 259.3 13.2004 259.3 9.90039 259.3C9.90039 249.2 9.90039 239.5 9.90039 229.2C13.1004 229.2 16.4004 229.2 19.6004 229.2C19.6004 235.7 19.6004 242.3 19.6004 249.2C23.4004 249.2 26.5004 249.2 29.6004 249.2C29.6004 252.5 29.7004 255.9 29.7004 259.2C29.7004 262.4 29.7004 265.6 29.7004 269.1C25.8004 269.1 22.7004 269.1 19.6004 269.1Z" fill="#25131A"/>
<path d="M89.6 269.2C89.6 275.6 89.6 282.1 89.6 288.8C79.6 288.8 69.9 288.8 59.5 288.8C59.5 282.3 59.5 275.7 59.5 269.2L59.6 269.1C62.8 269.1 66 269.1 69.3 269.1C69.5 273 69.7 275.8 69.9 278.7C73.3 278.7 76.2 278.7 79.3 278.7C79.5 275.4 79.7 272.5 79.9 269.1C83.4 269.1 86.5 269.1 89.6 269.2Z" fill="#25131A"/>
<path d="M139.6 149.4C142.7 149.4 145.9 149.4 149.3 149.4C149.3 166 149.3 182.3 149.3 199.3C146.1 199.3 142.8 199.3 139.6 199.3C139.6 182.6 139.6 166 139.6 149.4Z" fill="#25131A"/>
<path d="M119.6 79.5C122.7 79.5 125.9 79.5 129.4 79.5C129.4 82.8 129.4 85.8 129.4 89.3C132.9 89.3 135.9 89.3 139.3 89.3C139.3 99.4 139.3 109.1 139.3 119.4C136.1 119.4 132.8 119.4 129.6 119.4C129.6 112.9 129.6 106.3 129.6 99.3C125.9 99.3 122.8 99.3 119.7 99.3C119.7 92.7 119.6 86.1 119.6 79.5Z" fill="#25131A"/>
<path d="M129.6 229.2C132.7 229.2 135.9 229.2 139.3 229.2C139.3 239.1 139.3 248.8 139.3 259C136.3 259 133.2 259 129.6 259C129.6 262.6 129.6 265.9 129.6 269.2C126.4 269.2 123.2 269.2 119.5 269.2C119.5 265.5 119.5 262.4 119.5 259.3C119.6 256 119.6 252.7 119.7 249.4C122.9 249.2 126.1 249.1 129.7 248.9C129.6 242 129.6 235.6 129.6 229.2Z" fill="#25131A"/>
<path d="M9.70001 199.3C6.60001 199.3 3.4 199.3 0 199.3C0 182.7 0 166.4 0 149.4C3.2 149.4 6.50001 149.4 9.70001 149.4C9.60001 166 9.60001 182.6 9.70001 199.3Z" fill="#25131A"/>
<path d="M19.7 119.4C16.6 119.4 13.4 119.4 10 119.4C10 109.5 10 99.8 10 89.7C13 89.7 16.1 89.7 19.5 89.7C19.5 86.2 19.5 83.2 19.5 79.5C23.1 79.5 26.4 79.5 29.7 79.5C29.8 82.8 29.8 86.1 29.9 89.4C29.8 92.7 29.8 96.1 29.7 99.4C26.5 99.4 23.2 99.4 19.7 99.4C19.6 106.6 19.6 113 19.7 119.4Z" fill="#25131A"/>
<path d="M39.6004 279.1C39.6004 282.2 39.6004 285.4 39.6004 288.8C29.7004 288.8 19.9004 288.8 9.90039 288.8C9.90039 282.5 9.90039 276.1 9.90039 269.1C13.1004 269.1 16.3004 269.1 19.6004 269.1C19.6004 272.3 19.6004 275.5 19.6004 279.1C26.8004 279.1 33.2004 279.1 39.6004 279.1Z" fill="#25131A"/>
<path d="M129.6 269.1C132.7 269.1 135.9 269.1 139.3 269.1C139.3 275.7 139.3 282.1 139.3 288.8C129.6 288.8 119.9 288.8 109.6 288.8C109.6 285.6 109.6 282.4 109.6 279.1C116.2 279.1 122.7 279.1 129.6 279.1C129.6 275.4 129.6 272.2 129.6 269.1Z" fill="#25131A"/>
<path d="M49.5996 69.5C49.5996 56.2 49.5996 42.9 49.5996 29.6C52.8996 29.6 56.2996 29.5 59.5996 29.5L59.4996 29.8C59.5996 33.1 59.5996 36.4 59.6996 39.7C59.6996 46.3 59.6996 52.9 59.6996 59.5C59.5996 62.8 59.5996 66.1 59.4996 69.4L59.5996 69.7C56.2996 69.5 52.8996 69.5 49.5996 69.5Z" fill="#25131A"/>
<path d="M99.6 29.6001C99.6 42.9001 99.6 56.2001 99.6 69.5001C96.3 69.5001 93 69.4001 89.6 69.4001C89.6 66.1001 89.5 62.8001 89.5 59.5001C89.5 52.9001 89.5 46.3001 89.5 39.7001C89.6 36.4001 89.6 33.0001 89.7 29.7001V29.6001C92.9 29.5001 96.3 29.6001 99.6 29.6001Z" fill="#25131A"/>
<path d="M19.6992 219.2C16.5992 219.2 13.3992 219.2 9.69922 219.2C9.69922 212.4 9.69922 205.8 9.69922 199.2C12.9992 199.2 16.3992 199.2 19.6992 199.2C19.6992 205.9 19.5992 212.6 19.6992 219.2Z" fill="#25131A"/>
<path d="M29.7007 79.5C29.7007 76.4 29.7007 73.2 29.7007 69.5C36.5007 69.5 43.1007 69.5 49.7007 69.5C49.7007 72.8 49.7007 76.1 49.7007 79.5C46.4007 79.6 43.0007 79.6 39.7007 79.7C36.3007 79.6 32.9007 79.5 29.7007 79.5C29.6007 79.5 29.7007 79.5 29.7007 79.5Z" fill="#25131A"/>
<path d="M9.69922 149.4C9.69922 142.9 9.69922 136.5 9.69922 129.4C13.1992 129.4 16.3992 129.4 19.6992 129.4C19.6992 136.1 19.6992 142.7 19.6992 149.4C16.2992 149.4 12.9992 149.3 9.69922 149.4Z" fill="#25131A"/>
<path d="M129.6 129.4C132.7 129.4 135.9 129.4 139.6 129.4C139.6 136.2 139.6 142.8 139.6 149.4C136.3 149.4 133 149.3 129.7 149.3C129.7 142.6 129.6 136 129.6 129.4Z" fill="#25131A"/>
<path d="M139.6 199.3C139.6 205.8 139.6 212.2 139.6 219.3C136.1 219.3 132.9 219.3 129.6 219.3C129.6 212.7 129.7 206.1 129.7 199.4C133 199.3 136.3 199.3 139.6 199.3Z" fill="#25131A"/>
<path d="M99.5996 69.5C106.1 69.5 112.5 69.5 119.6 69.5C119.6 73 119.6 76.2 119.6 79.5C116.2 79.6 112.9 79.6 109.5 79.7C106.2 79.6 102.9 79.5 99.5996 79.4C99.6996 76.1 99.5996 72.8 99.5996 69.5Z" fill="#25131A"/>
<path d="M19.6992 229.2C19.6992 225.9 19.6992 222.5 19.6992 219.2C22.9992 219.2 26.3992 219.2 29.6992 219.2C29.6992 222.5 29.6992 225.8 29.6992 229.1C26.2992 229.2 22.9992 229.2 19.6992 229.2Z" fill="#25131A"/>
<path d="M129.599 219.2C129.599 222.5 129.599 225.9 129.599 229.2C126.299 229.1 122.999 229.1 119.699 229C119.699 225.8 119.699 222.6 119.699 219.4C122.999 219.4 126.299 219.3 129.599 219.2Z" fill="#25131A"/>
<path d="M19.7007 129.4C19.7007 126.1 19.7007 122.7 19.7007 119.4C23.0007 119.4 26.4007 119.4 29.7007 119.4C29.7007 122.7 29.7007 126 29.7007 129.3C26.3007 129.4 23.0007 129.4 19.7007 129.4C19.6007 129.4 19.7007 129.4 19.7007 129.4Z" fill="#25131A"/>
<path d="M129.599 119.4C129.599 122.7 129.599 126.1 129.599 129.4C126.299 129.3 122.999 129.3 119.699 129.2C119.699 126 119.699 122.8 119.699 119.6C122.999 119.5 126.299 119.5 129.599 119.4Z" fill="#25131A"/>
<path d="M59.5992 269.2C56.2992 269.2 52.9992 269.2 49.6992 269.2C49.6992 265.9 49.6992 262.6 49.6992 259.2C52.8992 259.2 56.0992 259.2 59.6992 259.2C59.6992 263 59.6992 266.1 59.5992 269.2Z" fill="#25131A"/>
<path d="M99.6 269.1C96.3 269.1 93 269.1 89.6 269.2L89.5 269.1C89.5 265.8 89.5 262.5 89.5 259.2C92.7 259.2 96 259.2 99.5 259.2C99.6 262.9 99.6 266 99.6 269.1Z" fill="#25131A"/>
<path d="M49.5996 269.1C49.5996 272.2 49.5996 275.4 49.5996 279.1C46.0996 279.1 42.8996 279.1 39.5996 279.1C39.5996 275.9 39.5996 272.7 39.5996 269.1C43.4996 269.1 46.4996 269.1 49.5996 269.1Z" fill="#25131A"/>
<path d="M109.6 279.1C106.5 279.1 103.3 279.1 99.5996 279.1C99.5996 275.7 99.5996 272.4 99.5996 269.1C102.8 269.1 106.1 269.1 109.6 269.1C109.6 272.9 109.6 276 109.6 279.1Z" fill="#25131A"/>
<path d="M69.7 9.69995C76.3 9.69995 82.9 9.69995 89.5 9.69995C89.5 16.3 89.5 22.8999 89.5 29.4999V29.5999C82.8 29.5999 76.2 29.4999 69.5 29.4999C69.7 22.8999 69.7 16.3 69.7 9.69995Z" fill="#FED469"/>
<path d="M59.5996 29.4998C56.2996 29.4998 52.8996 29.5998 49.5996 29.5998C49.5996 23.1998 49.5996 16.7998 49.5996 9.7998C53.0996 9.7998 56.2996 9.7998 59.4996 9.7998C59.5996 16.2998 59.5996 22.8998 59.5996 29.4998Z" fill="#D0841E"/>
<path d="M89.5996 29.4999C89.5996 22.8999 89.5996 16.3 89.5996 9.69995C92.6996 9.69995 95.7996 9.69995 99.6996 9.69995C99.6996 16.4 99.6996 22.9999 99.6996 29.4999C96.2996 29.5999 92.8996 29.4999 89.5996 29.4999Z" fill="#D0841E"/>
<path d="M59.6 29.4998C59.6 22.8998 59.6 16.2998 59.5 9.7998C62.9 9.7998 66.3 9.7998 69.7 9.7998C69.7 16.3998 69.7 22.9998 69.6 29.5998C66.2 29.6998 62.8 29.7998 59.5 29.7998L59.6 29.4998Z" fill="#885A45"/>
<path d="M89.5996 259.2C89.5996 262.5 89.5996 265.8 89.5996 269.1C86.4996 269.1 83.3996 269.1 79.9996 269.1C79.7996 272.6 79.5997 275.5 79.3997 278.7C76.2997 278.7 73.3996 278.7 69.9996 278.7C69.7996 275.8 69.6997 272.9 69.3997 269.1C66.0997 269.1 62.8996 269.1 59.6996 269.1C59.6996 266 59.6996 263 59.6996 259.2C55.9996 259.2 52.8996 259.2 49.6996 259.2C43.0996 259.2 36.3996 259.2 29.7996 259.3C29.7996 256 29.6996 252.6 29.6996 249.3L29.5996 249.1C39.6996 249.1 49.6996 249.2 59.7996 249.2C63.0996 249.3 66.2996 249.3 69.5996 249.4C69.5996 252.6 69.5996 255.8 69.5996 259.1C76.9996 259.1 83.3996 259.1 89.7996 259.1L89.5996 259.2Z" fill="#523B40"/>
<path d="M29.6996 259.2C36.2996 259.2 42.9996 259.2 49.5996 259.1C49.5996 262.4 49.5996 265.7 49.5996 269.1C46.4996 269.1 43.3996 269.1 39.5996 269.1C39.5996 272.7 39.5996 275.9 39.5996 279.1C33.1996 279.1 26.7996 279.1 19.5996 279.1C19.5996 275.6 19.5996 272.3 19.5996 269.1C22.6996 269.1 25.6996 269.1 29.6996 269.1C29.6996 265.6 29.6996 262.4 29.6996 259.2Z" fill="#885A45"/>
<path d="M19.5996 229.2C22.8996 229.2 26.2996 229.2 29.5996 229.2L29.4996 229.4C29.4996 235.9 29.4996 242.5 29.4996 249L29.5996 249.2C26.4996 249.2 23.3996 249.2 19.5996 249.2C19.5996 242.3 19.5996 235.7 19.5996 229.2Z" fill="#D0841E"/>
<path d="M139.6 199.3C136.3 199.3 133 199.4 129.7 199.4L129.4 199.1C129.4 195.8 129.5 192.6 129.5 189.3C129.5 179.3 129.5 169.3 129.5 159.3C129.5 156 129.4 152.8 129.4 149.5L129.7 149.2C133 149.2 136.3 149.3 139.6 149.3C139.6 166 139.6 182.6 139.6 199.3Z" fill="#D0841E"/>
<path d="M129.6 119.4C126.3 119.5 123 119.5 119.7 119.6L119.5 119.2C119.5 112.7 119.4 106.2 119.4 99.6999L119.7 99.3999C122.8 99.3999 125.9 99.3999 129.6 99.3999C129.6 106.4 129.6 112.9 129.6 119.4Z" fill="#D0841E"/>
<path d="M109.5 79.5999C112.9 79.4999 116.2 79.4999 119.6 79.3999C119.6 85.9999 119.7 92.5999 119.7 99.2999L119.4 99.5999C116.1 99.4999 112.8 99.4999 109.6 99.3999C109.6 96.0999 109.5 92.7999 109.5 89.4999C109.5 86.1999 109.5 82.8999 109.5 79.5999Z" fill="#D0841E"/>
<path d="M109.6 279.1C109.6 276 109.6 272.9 109.6 269.1C106.1 269.1 102.8 269.1 99.5996 269.1C99.5996 266 99.5996 262.9 99.5996 259.2C96.0996 259.2 92.7996 259.2 89.5996 259.2L89.6996 259C89.6996 255.8 89.5996 252.6 89.5996 249.3C96.2996 249.3 103 249.3 109.7 249.3C109.7 252.4 109.7 255.5 109.7 259.3C113.3 259.3 116.4 259.3 119.5 259.3C119.5 262.4 119.5 265.5 119.5 269.2C123.2 269.2 126.4 269.2 129.6 269.2C129.6 272.3 129.6 275.4 129.6 279.2C122.7 279.1 116.1 279.1 109.6 279.1Z" fill="#D0841E"/>
<path d="M119.7 229C123 229.1 126.3 229.1 129.6 229.2C129.6 235.6 129.6 242 129.6 248.9C126.1 249.1 122.9 249.2 119.6 249.4L119.5 249C119.5 242.5 119.5 236 119.5 229.5L119.7 229Z" fill="#D0841E"/>
<path d="M119.499 259.3C116.399 259.3 113.299 259.3 109.699 259.3C109.699 255.6 109.699 252.5 109.699 249.3C112.999 249.2 116.299 249.1 119.599 249L119.699 249.4C119.599 252.7 119.499 256 119.499 259.3Z" fill="#523B40"/>
<path d="M9.59961 149.3C12.8996 149.3 16.2996 149.3 19.5996 149.3C19.5996 165.9 19.5996 182.6 19.5996 199.2C16.2996 199.2 12.8996 199.2 9.59961 199.2C9.59961 182.6 9.59961 166 9.59961 149.3Z" fill="#D0841E"/>
<path d="M29.5996 129.4C29.5996 126.1 29.5996 122.8 29.5996 119.5C29.5996 112.8 29.5996 106.2 29.5996 99.4998C29.6996 96.1998 29.6996 92.7998 29.7996 89.4998C32.8996 89.4998 35.9996 89.4998 39.5996 89.4998C39.5996 85.8998 39.5996 82.7998 39.5996 79.6998C42.8996 79.5998 46.2996 79.5998 49.5996 79.4998C52.7996 79.4998 55.9996 79.4998 59.5996 79.4998C59.5996 75.6998 59.5996 72.6998 59.5996 69.5998L59.4996 69.2998C66.1996 69.3998 72.8996 69.4998 79.6996 69.5998C79.6996 72.6998 79.6996 75.7998 79.6996 79.0998C75.9996 79.3998 72.9997 79.5998 69.8997 79.7998C69.6997 83.1998 69.4997 86.0998 69.3997 89.0998C65.9997 89.2998 63.0996 89.4998 59.7996 89.6998C59.7996 99.7998 59.7996 109.5 59.7996 119.2C53.1996 119.2 46.6996 119.2 40.0996 119.2C40.0996 123 40.0996 125.9 40.0996 129.4C46.8996 129.4 53.3996 129.4 59.7996 129.4C59.7996 135.8 59.7996 142.2 59.7996 149.4C55.9996 149.4 52.8996 149.4 49.7996 149.4L49.5996 149.2C49.5996 146 49.5996 142.8 49.5996 139.7C45.8996 139.7 43.0996 139.7 39.6996 139.7C39.6996 143.2 39.6996 146.2 39.6996 149.3C36.3996 149.3 33.0996 149.4 29.7996 149.4L29.5996 149.2C29.5996 142.6 29.5996 136 29.5996 129.4Z" fill="#885A45"/>
<path d="M29.5996 99.3999C29.5996 106.1 29.5996 112.7 29.5996 119.4C26.2996 119.4 22.8996 119.4 19.5996 119.4C19.5996 113 19.5996 106.6 19.5996 99.3999C23.1996 99.3999 26.3996 99.3999 29.5996 99.3999Z" fill="#D0841E"/>
<path d="M39.5996 79.6C39.5996 82.7 39.5996 85.8 39.5996 89.4C35.9996 89.4 32.8996 89.4 29.7996 89.4C29.6996 86.1 29.6996 82.8 29.5996 79.5C32.8996 79.5 36.2996 79.6 39.5996 79.6Z" fill="#D0841E"/>
<path d="M79.7 69.5998C73 69.4998 66.3 69.3998 59.5 69.2998C59.6 65.9998 59.6 62.6998 59.7 59.3998C63 59.3998 66.4 59.3998 69.7 59.3998C73 59.3998 76.3 59.3998 79.5 59.2998C82.8 59.2998 86.1 59.2998 89.4 59.2998C89.4 62.5998 89.5 65.8998 89.5 69.1998C86.3 69.3998 83 69.4998 79.7 69.5998Z" fill="#523B40"/>
<path d="M69.6992 59.3999C66.3992 59.3999 62.9992 59.3999 59.6992 59.3999C59.6992 52.7999 59.6992 46.1999 59.6992 39.5999C62.8992 39.4999 66.1992 39.3999 69.3992 39.3999L69.6992 39.6999C69.6992 46.2999 69.6992 52.7999 69.6992 59.3999Z" fill="#885A45"/>
<path d="M59.5996 69.6C59.5996 72.7 59.5996 75.7 59.5996 79.5C55.9996 79.5 52.7996 79.5 49.5996 79.5C49.5996 76.2 49.5996 72.9 49.5996 69.5C52.8996 69.5 56.2996 69.5 59.5996 69.6Z" fill="#D0841E"/>
<path d="M69.4 39.4C66.2 39.5 62.9 39.6 59.7 39.6C59.6 36.3 59.6 33 59.5 29.7C62.9 29.6 66.3 29.5 69.6 29.5C69.6 32.8 69.5 36.1 69.4 39.4Z" fill="#523B40"/>
<path d="M79.7008 69.5998C83.0008 69.4998 86.3008 69.3998 89.6008 69.2998C92.9008 69.2998 96.2008 69.3998 99.6008 69.3998C99.6008 72.6998 99.6008 75.9998 99.7008 79.2998C96.5008 79.2998 93.3008 79.2998 89.5008 79.2998C89.5008 83.0998 89.5008 86.1998 89.5008 89.1998C86.4008 89.1998 83.3008 89.1998 79.7008 89.1998C79.7008 99.6998 79.7008 109.5 79.7008 119.2C76.3008 119.3 72.9008 119.4 69.6008 119.4C66.3008 119.3 63.1008 119.3 59.8008 119.2C59.8008 109.5 59.8008 99.7998 59.8008 89.6998C63.1008 89.4998 66.0008 89.2998 69.4008 89.0998C69.6008 86.0998 69.7008 83.1998 69.9008 79.7998C73.0008 79.5998 76.0008 79.3998 79.7008 79.0998C79.7008 75.7998 79.7008 72.6998 79.7008 69.5998Z" fill="#D0841E"/>
<path d="M89.4996 59.4001C86.1996 59.4001 82.8996 59.4001 79.5996 59.4001C79.5996 52.8001 79.5996 46.3001 79.5996 39.7001C82.8996 39.7001 86.1996 39.7001 89.4996 39.6001C89.4996 46.2001 89.4996 52.8001 89.4996 59.4001Z" fill="#D0841E"/>
<path d="M89.5 39.6C86.2 39.6 82.9 39.6 79.6 39.7C76.3 39.7 73.1 39.7 69.8 39.7L69.5 39.4C69.6 36.1 69.6 32.8 69.7 29.5C76.4 29.5 83 29.6 89.7 29.6C89.6 33 89.5 36.3 89.5 39.6Z" fill="#885A45"/>
<path d="M29.5996 219.3C26.2996 219.3 22.8996 219.3 19.5996 219.3C19.5996 212.6 19.5996 206 19.5996 199.3C22.7996 199.3 26.0996 199.3 29.4996 199.3C29.4996 206.5 29.4996 212.8 29.4996 219.1L29.5996 219.3Z" fill="#D0841E"/>
<path d="M29.5996 129.4C29.5996 136 29.4996 142.6 29.4996 149.3C26.1996 149.3 22.8996 149.4 19.5996 149.4C19.5996 142.7 19.5996 136.1 19.5996 129.4C22.9996 129.4 26.2996 129.4 29.5996 129.4Z" fill="#D0841E"/>
<path d="M119.699 129.2C122.999 129.3 126.299 129.3 129.599 129.4C129.599 136 129.699 142.6 129.699 149.3L129.399 149.6C126.099 149.6 122.799 149.6 119.499 149.5C116.199 149.4 112.899 149.3 109.699 149.2C109.699 146.1 109.699 143 109.699 139.7C113.299 139.5 116.299 139.3 119.599 139.1C119.599 135.6 119.599 132.7 119.599 129.7L119.699 129.2Z" fill="#D0841E"/>
<path d="M129.6 219.2C126.3 219.3 123 219.3 119.7 219.4L119.5 219C119.5 215.9 119.5 212.8 119.5 209.6C106 209.6 92.9996 209.6 79.5996 209.6C79.5996 213 79.5996 216.1 79.5996 219.2C72.8996 219.2 66.2996 219.2 59.5996 219.2C59.5996 215.9 59.6996 212.6 59.6996 209.3C62.8996 209.3 65.9996 209.3 69.5996 209.3C69.5996 205.3 69.5996 202.2 69.5996 199.2C89.4996 199.2 109.5 199.1 129.4 199.1L129.7 199.4C129.7 206 129.6 212.6 129.6 219.2Z" fill="#D0841E"/>
<path d="M89.4004 89.2999C89.4004 86.2999 89.4004 83.1999 89.4004 79.3999C93.2004 79.3999 96.4003 79.3999 99.6003 79.3999C102.9 79.4999 106.2 79.5999 109.5 79.6999C109.5 82.9999 109.4 86.2999 109.4 89.5999C102.8 89.5999 96.3004 89.5999 89.7004 89.6999L89.4004 89.2999Z" fill="#FED469"/>
<path d="M29.6 229.1C29.6 225.8 29.6 222.5 29.6 219.2L29.5 219C39.5 219.1 49.6 219.1 59.6 219.2C59.6 222.5 59.6 225.9 59.6 229.2C49.6 229.3 39.5 229.3 29.5 229.4L29.6 229.1Z" fill="#523B40"/>
<path d="M119.7 219.4C119.7 222.6 119.7 225.8 119.7 229L119.5 229.4C116.2 229.3 112.9 229.1 109.6 229C109.6 225.8 109.6 222.5 109.6 219.3C112.9 219.2 116.2 219 119.5 218.9L119.7 219.4Z" fill="#885A45"/>
<path d="M119.7 119.6C119.7 122.8 119.7 126 119.7 129.2L119.5 129.6C116.2 129.5 112.9 129.3 109.6 129.2C109.6 126 109.6 122.7 109.6 119.5C112.9 119.4 116.2 119.2 119.5 119.1L119.7 119.6Z" fill="#885A45"/>
<path d="M29.5 229.4C39.5 229.3 49.6 229.3 59.6 229.2C59.6 235.8 59.7 242.4 59.7 249.1C49.6 249.1 39.6 249 29.5 249C29.5 242.5 29.5 235.9 29.5 229.4Z" fill="#885A45"/>
<path d="M59.6996 249.1C59.6996 242.5 59.5996 235.9 59.5996 229.2C66.2996 229.2 72.8996 229.2 79.5996 229.2C79.5996 235.8 79.5996 242.4 79.5996 249C76.1996 249.1 72.7996 249.2 69.4996 249.2C66.2996 249.2 62.9996 249.1 59.6996 249.1Z" fill="#D0841E"/>
<path d="M69.5004 249.3C72.9004 249.2 76.3003 249.1 79.6003 249.1C82.9003 249.2 86.2004 249.3 89.5004 249.4C89.5004 252.6 89.6003 255.8 89.6003 259.1C83.2003 259.1 76.9004 259.1 69.4004 259.1C69.5004 255.7 69.5004 252.5 69.5004 249.3Z" fill="#885A45"/>
<path d="M129.4 199.1C109.5 199.1 89.5003 199.2 69.6003 199.2C69.5003 195.9 69.5004 192.5 69.4004 189.2C69.4004 179.3 69.4004 169.3 69.4004 159.4C69.4004 156.2 69.4004 153 69.4004 149.2C76.6004 149.2 83.0004 149.2 89.4004 149.2L89.7004 149.5C89.7004 152.8 89.7004 156.1 89.7004 159.4C89.7004 169.3 89.7004 179.2 89.7004 189.1C96.6004 189.1 102.8 189.1 109.5 189.1C109.5 179.1 109.5 169.3 109.5 159.6C112.8 159.5 116.1 159.4 119.4 159.3L119.7 159.6C119.7 169.4 119.7 179.2 119.7 189.4C123.3 189.4 126.4 189.4 129.5 189.4C129.5 192.6 129.4 195.8 129.4 199.1Z" fill="#FED469"/>
<path d="M129.499 189.3C126.399 189.3 123.299 189.3 119.699 189.3C119.699 179.1 119.699 169.3 119.699 159.5C122.999 159.5 126.199 159.4 129.499 159.4C129.499 169.3 129.499 179.3 129.499 189.3Z" fill="#CF1946"/>
<path d="M129.5 159.3C126.2 159.3 123 159.4 119.7 159.4L119.4 159.1C119.4 155.9 119.4 152.6 119.5 149.4C122.8 149.4 126.1 149.4 129.4 149.5C129.4 152.8 129.5 156.1 129.5 159.3Z" fill="#FED469"/>
<path d="M119.5 119.2C116.2 119.3 112.9 119.5 109.6 119.6C102.9 119.6 96.1996 119.6 89.4996 119.6C86.1996 119.5 82.8996 119.4 79.5996 119.3C79.5996 109.6 79.5996 99.7998 79.5996 89.2998C83.1996 89.2998 86.2997 89.2998 89.3997 89.2998L89.6996 89.5998C89.6996 92.7998 89.6996 95.9998 89.6996 99.3998C96.7996 99.3998 103.2 99.3998 109.5 99.3998C112.8 99.4998 116.1 99.4998 119.3 99.5998C119.4 106.1 119.5 112.6 119.5 119.2Z" fill="#FED469"/>
<path d="M109.601 99.4C103.201 99.4 96.8008 99.4 89.8008 99.4C89.8008 96 89.8008 92.8 89.8008 89.6C96.4008 89.6 102.901 89.6 109.501 89.5C109.501 92.8 109.501 96.1 109.601 99.4Z" fill="#FEFEFE"/>
<path d="M89.5992 249.3C86.2992 249.2 82.9992 249.1 79.6992 249C79.6992 242.4 79.6992 235.8 79.6992 229.2C89.6992 229.1 99.6992 229.1 109.699 229C112.999 229.1 116.299 229.3 119.599 229.4C119.599 235.9 119.599 242.4 119.599 248.9C116.299 249 112.999 249.1 109.699 249.2C102.999 249.3 96.2992 249.3 89.5992 249.3Z" fill="#FED469"/>
<path d="M59.5996 219.2C49.5996 219.1 39.4996 219.1 29.4996 219C29.4996 212.7 29.4996 206.4 29.4996 199.2C26.0996 199.2 22.7996 199.2 19.5996 199.2C19.5996 182.6 19.5996 165.9 19.5996 149.3C22.8996 149.3 26.1996 149.2 29.4996 149.2L29.6996 149.4C29.6996 159.2 29.6996 168.9 29.6996 178.9C33.1996 178.9 36.0996 178.9 39.5996 178.9C39.5996 168.8 39.5996 159 39.5996 149.3C42.8996 149.3 46.1996 149.2 49.4996 149.2L49.6996 149.4C49.6996 152.7 49.6996 156 49.6996 159.3C49.6996 169.3 49.6996 179.3 49.6996 189.2C49.6996 192.5 49.6996 195.8 49.6996 199.1C46.4996 199.1 43.2996 199.1 39.9996 199.1C39.9996 202.9 39.9996 205.8 39.9996 209.1C46.6996 209.1 53.0996 209.1 59.4996 209.1L59.6996 209.3C59.6996 212.6 59.6996 215.9 59.5996 219.2Z" fill="#885A45"/>
<path d="M49.6992 159.3C49.6992 156 49.6992 152.7 49.6992 149.4C52.7992 149.4 55.8992 149.4 59.6992 149.4C59.6992 142.2 59.6992 135.8 59.6992 129.4C62.9992 129.3 66.1992 129.3 69.4992 129.2C72.8992 129.3 76.2992 129.4 79.5992 129.4C79.5992 132.5 79.5992 135.6 79.5992 139C83.1992 139.2 86.1992 139.4 89.3992 139.6C89.3992 143.1 89.3992 146.1 89.3992 149.1C82.9992 149.1 76.6992 149.1 69.3992 149.1C69.3992 152.9 69.3992 156.1 69.3992 159.3C62.8992 159.4 56.2992 159.4 49.6992 159.3Z" fill="#D0841E"/>
<path d="M69.5 129.3C66.2 129.4 63 129.4 59.7 129.5C53.3 129.5 46.8 129.5 40 129.5C40 126 40 123.2 40 119.3C46.6 119.3 53.1 119.3 59.7 119.3C63 119.4 66.2 119.4 69.5 119.5C69.5 122.8 69.5 126 69.5 129.3Z" fill="#523B40"/>
<path d="M39.7008 149.3C39.7008 159.1 39.7008 168.8 39.7008 178.9C36.2008 178.9 33.3008 178.9 29.8008 178.9C29.8008 168.9 29.8008 159.2 29.8008 149.4C33.1008 149.4 36.4008 149.4 39.7008 149.3Z" fill="#523B40"/>
<path d="M49.4996 149.2C46.1996 149.2 42.8996 149.3 39.5996 149.3C39.5996 146.2 39.5996 143.1 39.5996 139.7C42.9996 139.7 45.7996 139.7 49.4996 139.7C49.4996 142.9 49.4996 146.1 49.4996 149.2Z" fill="#523B40"/>
<path d="M69.6992 39.7C72.9992 39.7 76.1992 39.7 79.4992 39.7C79.4992 46.3 79.4992 52.7999 79.4992 59.3999C76.1992 59.3999 72.8992 59.3999 69.6992 59.4999C69.6992 52.7999 69.6992 46.3 69.6992 39.7Z" fill="#FED469"/>
<path d="M69.5 129.3C69.5 126.1 69.5 122.8 69.5 119.6C72.9 119.5 76.3 119.4 79.6 119.4C82.9 119.5 86.2 119.6 89.5 119.7C89.5 122.9 89.5 126.2 89.5 129.4C86.2 129.5 82.9 129.6 79.6 129.7C76.3 129.4 72.9 129.3 69.5 129.3Z" fill="#885A45"/>
<path d="M79.6992 129.5C82.9992 129.4 86.2992 129.3 89.5992 129.2C96.2992 129.2 102.999 129.2 109.699 129.2C112.999 129.3 116.299 129.5 119.599 129.6C119.599 132.6 119.599 135.5 119.599 139C116.299 139.2 113.299 139.4 109.699 139.6C109.699 143 109.699 146 109.699 149.1C103.099 149.2 96.3992 149.3 89.7992 149.4L89.4992 149.1C89.4992 146.1 89.4992 143.1 89.4992 139.6C86.3992 139.4 83.2992 139.2 79.6992 139C79.6992 135.7 79.6992 132.6 79.6992 129.5Z" fill="#FED469"/>
<path d="M89.6996 149.5C96.2996 149.4 103 149.3 109.6 149.2C112.9 149.3 116.2 149.4 119.4 149.5C119.4 152.7 119.4 156 119.3 159.2C116 159.3 112.7 159.4 109.4 159.5C102.8 159.5 96.1996 159.4 89.5996 159.4C89.6996 156.1 89.6996 152.8 89.6996 149.5Z" fill="#FEFEFE"/>
<path d="M119.5 219C116.2 219.1 112.9 219.3 109.6 219.4C99.5996 219.3 89.5996 219.3 79.5996 219.2C79.5996 216.1 79.5996 213 79.5996 209.6C92.9996 209.6 105.9 209.6 119.5 209.6C119.5 212.8 119.5 215.9 119.5 219Z" fill="#FED469"/>
<path d="M79.5996 229.2C72.8996 229.2 66.2996 229.2 59.5996 229.2C59.5996 225.9 59.5996 222.5 59.5996 219.2C66.2996 219.2 72.8996 219.2 79.5996 219.2C79.5996 222.5 79.5996 225.9 79.5996 229.2Z" fill="#885A45"/>
<path d="M69.6 199.2C69.6 202.3 69.6 205.3 69.6 209.3C66.1 209.3 62.9 209.3 59.7 209.3L59.5 209.1C59.5 205.9 59.5 202.6 59.5 199.4C62.9 199.3 66.3 199.3 69.6 199.2C69.6 199.3 69.6 199.2 69.6 199.2Z" fill="#885A45"/>
<path d="M79.5996 229.2C79.5996 225.9 79.5996 222.5 79.5996 219.2C89.5996 219.3 99.5996 219.3 109.6 219.4C109.6 222.6 109.6 225.9 109.6 229.1C99.5996 229.1 89.5996 229.2 79.5996 229.2Z" fill="#D0841E"/>
<path d="M109.6 129.2C102.9 129.2 96.2 129.2 89.5 129.2C89.5 126 89.5 122.7 89.5 119.5C96.2 119.5 102.9 119.5 109.6 119.5C109.6 122.8 109.6 126 109.6 129.2Z" fill="#D0841E"/>
<path d="M89.6992 159.3C96.2992 159.3 102.899 159.4 109.499 159.4C109.499 169.2 109.499 178.9 109.499 188.9C102.799 188.9 96.4992 188.9 89.6992 188.9C89.6992 179.1 89.6992 169.2 89.6992 159.3Z" fill="#CF1946"/>
<path d="M49.6992 159.3C56.2992 159.3 62.8992 159.3 69.4992 159.4C69.4992 169.3 69.4992 179.3 69.4992 189.2C62.8992 189.2 56.2992 189.2 49.6992 189.3C49.6992 179.3 49.6992 169.3 49.6992 159.3Z" fill="#CF1946"/>
<path d="M49.6992 189.3C56.2992 189.3 62.8992 189.3 69.4992 189.2C69.5992 192.5 69.5992 195.9 69.6992 199.2C66.2992 199.2 62.9992 199.3 59.5992 199.3C56.2992 199.2 52.9992 199.2 49.7992 199.1C49.6992 195.9 49.6992 192.6 49.6992 189.3Z" fill="#D0841E"/>
<path d="M49.7 199.2C53 199.3 56.3 199.3 59.5 199.4C59.5 202.6 59.5 205.9 59.5 209.1C53.1 209.1 46.7 209.1 40 209.1C40 205.8 40 202.9 40 199.1C43.3 199.2 46.5 199.2 49.7 199.2Z" fill="#523B40"/>
</svg>
