<svg xmlns="http://www.w3.org/2000/svg" viewBox="0 -0.5 12 13" shape-rendering="crispEdges">
<metadata>Made with Pixels to Svg https://codepen.io/shshaw/pen/XbxvNj</metadata>
<path stroke="#25131a" d="M5 0h4M5 1h1M8 1h1M4 2h2M8 2h2M4 3h1M9 3h1M5 4h1M8 4h1M5 5h1M8 5h1M4 6h1M9 6h1M3 7h1M10 7h1M0 8h3M11 8h1M0 9h1M11 9h1M1 10h2M11 10h1M3 11h1M10 11h1M4 12h6" />
<path stroke="#895a45" d="M6 1h2M6 2h2" />
<path stroke="#62abd4" d="M5 3h1M6 4h1M5 6h1M8 6h1M4 7h1M7 7h1M9 7h1M7 8h1M10 8h1M4 9h1M7 9h1M10 9h1M4 10h1M7 10h1M10 10h1M4 11h6" />
<path stroke="#9bf0fd" d="M6 3h2M6 5h1M6 6h1M5 7h2M4 8h3M5 9h2M5 10h2" />
<path stroke="#5880cc" d="M8 3h1M7 4h1M7 5h1M7 6h1M8 7h1M8 8h2M8 9h2M8 10h2" />
<path stroke="#ffd569" d="M3 8h1M2 9h2" />
<path stroke="#d1851e" d="M1 9h1M3 10h1" />
</svg>