<svg xmlns="http://www.w3.org/2000/svg" viewBox="0 -0.5 12 14" shape-rendering="crispEdges">
<metadata>Made with Pixels to Svg https://codepen.io/shshaw/pen/XbxvNj</metadata>
<path stroke="#25131a" d="M4 0h6M2 1h2M10 1h1M1 2h1M11 2h1M1 3h1M11 3h1M0 4h1M11 4h1M0 5h1M11 5h1M0 6h1M11 6h1M0 7h1M11 7h1M1 8h1M10 8h1M1 9h1M10 9h1M1 10h1M10 10h1M0 11h1M4 11h2M11 11h1M0 12h1M3 12h1M5 12h1M8 12h1M11 12h1M0 13h3M5 13h3M9 13h3" />
<path stroke="#9bf0fd" d="M4 1h3M2 2h4M2 3h4M1 4h5M1 5h6M10 5h1M2 6h9" />
<path stroke="#895a45" d="M7 1h1M6 2h1M9 2h1M10 4h1M9 5h1M3 9h1M3 10h1M2 11h2M2 12h1" />
<path stroke="#ffd569" d="M8 1h2M8 2h1M10 2h1M7 3h4M7 4h2M5 9h4M5 10h4M6 11h2M6 12h2" />
<path stroke="#d1851e" d="M7 2h1M6 3h1M6 4h1M9 4h1M7 5h2M2 9h1M4 9h1M9 9h1M2 10h1M4 10h1M9 10h1M1 11h1M8 11h3M1 12h1M9 12h2" />
<path stroke="#62abd4" d="M1 6h1M1 7h10M2 8h8" />
</svg>