<svg xmlns="http://www.w3.org/2000/svg" viewBox="0 -0.5 6 10" shape-rendering="crispEdges">
<metadata>Made with Pixels to Svg https://codepen.io/shshaw/pen/XbxvNj</metadata>
<path stroke="#25131a" d="M1 0h2M1 1h1M3 1h1M0 2h2M4 2h2M0 3h1M5 3h1M0 4h1M5 4h1M0 5h2M4 5h2M1 6h1M4 6h1M1 7h1M4 7h1M0 8h1M5 8h1M0 9h6" />
<path stroke="#e6deca" d="M2 1h1M2 2h2" />
<path stroke="#d1851e" d="M1 3h1M4 3h1M1 4h1M4 4h1M1 8h1M4 8h1" />
<path stroke="#895a45" d="M2 3h1M2 4h1M3 5h1M2 6h1M2 7h1M2 8h1" />
<path stroke="#ffd569" d="M3 3h1M3 4h1M3 6h1M3 7h1M3 8h1" />
<path stroke="#523b40" d="M2 5h1" />
</svg>