<svg width="70" height="80" viewBox="0 0 70 80" fill="none" xmlns="http://www.w3.org/2000/svg">
<path d="M61.8182 72.7273H21.8182V21.8182H61.8182V72.7273ZM61.8182 14.5455H21.8182C19.8893 14.5455 18.0395 15.3117 16.6756 16.6756C15.3117 18.0395 14.5455 19.8893 14.5455 21.8182V72.7273C14.5455 74.6561 15.3117 76.506 16.6756 77.8699C18.0395 79.2338 19.8893 80 21.8182 80H61.8182C63.747 80 65.5969 79.2338 66.9608 77.8699C68.3247 76.506 69.0909 74.6561 69.0909 72.7273V21.8182C69.0909 19.8893 68.3247 18.0395 66.9608 16.6756C65.5969 15.3117 63.747 14.5455 61.8182 14.5455V14.5455ZM50.9091 0H7.27273C5.34388 0 3.49403 0.766232 2.13013 2.13013C0.766231 3.49403 0 5.34388 0 7.27273V58.1818H7.27273V7.27273H50.9091V0Z" fill="black"/>
</svg>
