<svg width="52" height="41" viewBox="0 0 52 41" fill="none" xmlns="http://www.w3.org/2000/svg">
<path d="M13.903 29.8395H16.5781C17.761 29.8395 18.7437 29.0934 18.9803 27.9651L19.4171 26.0543C19.4535 25.8177 19.5081 25.7267 19.5627 25.6903L21.5645 26.8732C22.5472 27.4555 23.7483 27.3281 24.5672 26.5092L26.4053 24.653C27.2788 23.7795 27.4062 22.5966 26.7692 21.6321L25.4953 19.612C25.4953 19.5756 25.5135 19.5574 25.5135 19.6302L27.8065 19.0661C28.9166 18.7931 29.681 17.8286 29.681 16.6457V14.1707C29.681 12.9878 28.9348 12.0233 27.8065 11.7503L25.5135 11.2044C25.5135 11.2044 25.5135 11.2044 25.4953 11.2044L26.7692 9.20258C27.4062 8.20167 27.2788 7.03697 26.4053 6.18165L24.5672 4.30722C23.7483 3.48829 22.5472 3.3609 21.5645 3.94325L19.4535 5.19894C19.4353 5.19894 19.4171 5.19894 19.4717 5.18074L18.9803 2.85135C18.7437 1.72305 17.7792 0.995117 16.5781 0.995117H13.903C12.7201 0.995117 11.7556 1.72305 11.5008 2.85135L10.9912 5.18074C11.0094 5.18074 11.0094 5.18074 11.0094 5.19894L8.93483 3.94325C7.95212 3.3609 6.75103 3.48829 5.9321 4.30722L4.07587 6.18165C3.22054 7.03697 3.11135 8.21987 3.7119 9.20258L5.00398 11.2226C4.98578 11.2408 4.98578 11.259 4.96759 11.2044L2.67459 11.7503C1.54629 12.0233 0.818359 12.9878 0.818359 14.1707V16.6457C0.818359 17.8286 1.54629 18.7931 2.67459 19.0661L4.96759 19.6302C4.98578 19.612 4.98578 19.612 4.98578 19.612L3.7119 21.6321C3.09315 22.5966 3.22054 23.7795 4.07587 24.653L5.9321 26.5092C6.75103 27.3281 7.93392 27.4555 8.91663 26.8732L10.9366 25.6903C10.973 25.6903 11.0458 25.7085 11.0822 26.0543L11.5008 27.9651C11.7556 29.0934 12.7201 29.8395 13.903 29.8395ZM14.2669 27.037C14.1032 27.037 14.1032 27.0188 14.0668 26.855L13.266 23.5247C12.3197 23.3245 11.5008 22.9059 10.8457 22.542L7.95212 24.3072C7.78833 24.38 7.77013 24.3982 7.64275 24.2708L6.27787 22.9423C6.15048 22.815 6.16868 22.815 6.25967 22.6512L8.00671 19.794C7.78833 19.2299 7.26058 18.3746 7.0604 17.3554L3.78469 16.5729C3.60271 16.5365 3.60271 16.5365 3.60271 16.3545V14.4619C3.60271 14.2799 3.60271 14.2799 3.78469 14.2435L7.0604 13.461C7.26058 12.4601 7.78833 11.6048 8.00671 11.0406L6.25967 8.16527C6.16868 8.00149 6.15048 8.00149 6.27787 7.8923L7.64275 6.54562C7.77013 6.41823 7.78833 6.43643 7.95212 6.52742L10.8457 8.27446C11.5008 7.9105 12.3197 7.49193 13.266 7.29175L14.0668 3.97965C14.1032 3.79767 14.1032 3.79767 14.2669 3.79767H16.2142C16.3962 3.79767 16.3962 3.79767 16.4326 3.97965L17.2333 7.29175C18.1614 7.49193 18.9985 7.9105 19.6537 8.27446L22.5472 6.52742C22.711 6.43643 22.7292 6.41823 22.8384 6.54562L24.2215 7.8923C24.3306 8.00149 24.3306 8.00149 24.2397 8.16527L22.4926 11.0406C22.6928 11.6048 23.2387 12.4601 23.4207 13.461L26.7146 14.2435C26.8784 14.2799 26.8966 14.2799 26.8966 14.4619V16.3545C26.8966 16.5365 26.8784 16.5365 26.7146 16.5729L23.4207 17.3554C23.2387 18.3746 22.6928 19.2299 22.4926 19.794L24.2397 22.6512C24.3306 22.815 24.3306 22.815 24.2215 22.9423L22.8384 24.2708C22.7292 24.3982 22.711 24.38 22.5472 24.3072L19.6537 22.542C18.9985 22.9059 18.1614 23.3245 17.2333 23.5247L16.4326 26.855C16.3962 27.0188 16.3962 27.037 16.2142 27.037H14.2669ZM15.2497 20.9041C18.2342 20.9041 20.691 18.4291 20.691 15.4082C20.691 12.4237 18.2342 9.96691 15.2497 9.96691C12.2105 9.96691 9.77195 12.4055 9.77195 15.4082C9.77195 18.411 12.2105 20.9041 15.2497 20.9041ZM15.2497 18.0288C13.812 18.0288 12.6291 16.8641 12.6291 15.4082C12.6291 13.9887 13.812 12.8059 15.2497 12.8059C16.6691 12.8059 17.8338 13.9887 17.8338 15.4082C17.8338 16.8459 16.6691 18.0288 15.2497 18.0288ZM38.034 40.9951H40.1268C41.2187 40.9951 42.1468 40.34 42.3288 39.3391L42.6746 37.5374C42.6746 37.5192 42.6746 37.5192 42.6746 37.5192L44.2397 38.5019C45.1314 39.0479 46.2233 38.9387 46.9876 38.1562L48.4617 36.6457C49.226 35.8632 49.3716 34.7713 48.7892 33.8978L47.7883 32.3691C47.7883 32.3509 47.7883 32.3327 47.8065 32.3873L49.59 32.0233C50.5727 31.8231 51.246 30.9132 51.246 29.8395V27.7831C51.246 26.7094 50.5727 25.7995 49.59 25.5993L47.8065 25.2353C47.7883 25.2353 47.7883 25.2353 47.7883 25.2353L48.7892 23.7249C49.3716 22.8514 49.226 21.7594 48.4617 20.9587L46.9876 19.4665C46.2233 18.6839 45.1314 18.5747 44.2397 19.1207L42.6564 20.1034C42.6382 20.1034 42.62 20.1034 42.6746 20.0852L42.3288 18.2654C42.1468 17.2827 41.2187 16.6275 40.1268 16.6275H38.034C36.9421 16.6275 36.014 17.2827 35.832 18.2654L35.4862 20.0852V20.1034L33.9212 19.1207C33.0295 18.5747 31.9376 18.6839 31.1732 19.4665L29.6992 20.9587C28.9348 21.7594 28.7892 22.8514 29.3716 23.7249L30.3725 25.2535C30.3725 25.2717 30.3725 25.2899 30.3543 25.2353L28.5709 25.5993C27.57 25.7995 26.9148 26.7094 26.9148 27.7831V29.8395C26.9148 30.9132 27.57 31.8231 28.5709 32.0233L30.3543 32.3873H30.3725L29.3716 33.8978C28.7892 34.7713 28.9348 35.8632 29.6992 36.6457L31.1732 38.1562C31.9376 38.9387 33.0295 39.0479 33.9212 38.5019L35.5044 37.5192C35.5226 37.5192 35.5408 37.5192 35.4862 37.5374L35.832 39.3391C36.014 40.34 36.9421 40.9951 38.034 40.9951ZM38.5254 38.3382C38.3252 38.3382 38.2888 38.2836 38.2524 38.1016L37.5791 35.4446C36.8329 35.2808 36.1414 35.0079 35.4316 34.5347L33.0841 35.9906C32.9567 36.0452 32.8657 36.0634 32.7383 35.9542L31.9194 35.117C31.792 34.9715 31.792 34.8805 31.8648 34.7713L33.266 32.5147C33.1569 32.0597 32.5927 31.2226 32.4289 30.2763L29.772 29.6575C29.6082 29.6211 29.5536 29.5665 29.5536 29.4028V28.2199C29.5536 28.0561 29.6082 28.0015 29.772 27.9651L32.4289 27.3463C32.5927 26.4 33.1569 25.5629 33.266 25.1079L31.8648 22.8514C31.792 22.7422 31.792 22.6512 31.9194 22.5056L32.7383 21.6685C32.8657 21.5411 32.9567 21.5593 33.0841 21.6321L35.4316 23.0879C36.1414 22.6148 36.8329 22.3418 37.5791 22.178L38.2524 19.5211C38.2888 19.3391 38.3252 19.2845 38.5254 19.2845H39.6355C39.8356 19.2845 39.872 19.3391 39.9084 19.5211L40.5636 22.178C41.3279 22.3418 42.0195 22.6148 42.7292 23.0879L45.0768 21.6321C45.186 21.5593 45.2952 21.5411 45.4225 21.6685L46.2415 22.5056C46.3689 22.6512 46.3689 22.7422 46.2961 22.8514L44.8948 25.1079C45.004 25.5629 45.5681 26.4 45.7319 27.3463L48.3889 27.9651C48.5527 28.0015 48.6073 28.0561 48.6073 28.2199V29.4028C48.6073 29.5665 48.5527 29.6211 48.3889 29.6575L45.7319 30.2763C45.5681 31.2226 45.004 32.0597 44.8948 32.5147L46.2961 34.7713C46.3689 34.8805 46.3689 34.9715 46.2415 35.117L45.4225 35.9542C45.2952 36.0634 45.186 36.0452 45.0768 35.9906L42.7292 34.5347C42.0195 35.0079 41.3279 35.2808 40.5636 35.4446L39.9084 38.1016C39.872 38.2836 39.8356 38.3382 39.6355 38.3382H38.5254ZM39.0713 33.0788C41.4007 33.0788 43.3297 31.1498 43.3297 28.8022C43.3297 26.491 41.4007 24.562 39.0713 24.562C36.7237 24.562 34.7947 26.4728 34.7947 28.8022C34.7947 31.1316 36.7237 33.0788 39.0713 33.0788ZM39.2169 30.7494C38.1978 30.7494 37.3971 29.9487 37.3971 28.9296C37.3971 27.9469 38.1978 27.1644 39.2169 27.1644C40.1632 27.1644 40.9639 27.9469 40.9639 28.9296C40.9639 29.9305 40.1632 30.7494 39.2169 30.7494Z" fill="black"/>
</svg>
