<svg width="46" height="27" viewBox="0 0 46 27" fill="none" xmlns="http://www.w3.org/2000/svg">
<path d="M38 26.5H45Z" fill="black"/>
<path d="M15 0.5H19M14 1.5H15M19 1.5H21M13 2.5H14M17 2.5H19M21 2.5H23M13 3.5H14M16 3.5H17M19 3.5H21M23 3.5H24M30 3.5H35M13 4.5H14M16 4.5H17M21 4.5H24M29 4.5H30M35 4.5H36M13 5.5H14M16 5.5H17M28 5.5H29M31 5.5H34M36 5.5H37M12 6.5H13M17 6.5H18M28 6.5H29M30 6.5H31M34 6.5H35M36 6.5H37M11 7.5H12M18 7.5H19M22 7.5H27M28 7.5H29M30 7.5H31M34 7.5H35M36 7.5H37M11 8.5H12M18 8.5H19M22 8.5H23M26 8.5H27M28 8.5H29M30 8.5H31M34 8.5H35M36 8.5H37M5 9.5H7M11 9.5H12M18 9.5H19M22 9.5H23M26 9.5H27M28 9.5H29M31 9.5H34M36 9.5H37M5 10.5H6M7 10.5H8M11 10.5H12M18 10.5H19M21 10.5H22M27 10.5H28M29 10.5H30M35 10.5H36M6 11.5H7M8 11.5H11M18 11.5H19M21 11.5H22M27 11.5H29M35 11.5H38M7 12.5H8M18 12.5H19M21 12.5H22M30 12.5H34M38 12.5H41M7 13.5H8M11 13.5H12M18 13.5H19M21 13.5H22M27 13.5H30M34 13.5H37M41 13.5H42M7 14.5H8M11 14.5H12M18 14.5H19M21 14.5H22M27 14.5H28M37 14.5H42M8 15.5H12M18 15.5H19M21 15.5H22M27 15.5H28M11 16.5H12M18 16.5H19M21 16.5H22M27 16.5H28M38 16.5H45M11 17.5H12M18 17.5H19M22 17.5H24M25 17.5H27M38 17.5H39M44 17.5H45M11 18.5H12M18 18.5H19M23 18.5H24M25 18.5H26M39 18.5H40M43 18.5H44M10 19.5H11M19 19.5H20M23 19.5H24M25 19.5H26M38 19.5H39M44 19.5H45M9 20.5H10M20 20.5H21M23 20.5H24M25 20.5H26M37 20.5H38M45 20.5H46M9 21.5H10M13 21.5H17M20 21.5H21M23 21.5H24M25 21.5H26M37 21.5H38M45 21.5H46M9 22.5H10M12 22.5H13M17 22.5H18M20 22.5H21M23 22.5H24M25 22.5H26M37 22.5H38M45 22.5H46M9 23.5H10M12 23.5H13M17 23.5H18M20 23.5H21M23 23.5H24M25 23.5H26M37 23.5H38M45 23.5H46M9 24.5H10M12 24.5H13M17 24.5H18M20 24.5H21M23 24.5H24M25 24.5H26M37 24.5H38M45 24.5H46M9 25.5H10M12 25.5H13M17 25.5H18M20 25.5H21M23 25.5H24M25 25.5H26M37 25.5H38M45 25.5H46M9 26.5H13M17 26.5H21M23 26.5H26M38 26.5H45" stroke="#25131A"/>
<path d="M18 25.5H19Z" fill="black"/>
<path d="M15 1.5H18M14 2.5H16M14 3.5H15M14 4.5H15M14 5.5H15M13 6.5H15M16 6.5H17M12 7.5H13M14 7.5H15M17 7.5H18M12 8.5H13M14 8.5H15M17 8.5H18M12 9.5H15M17 9.5H18M12 10.5H13M14 10.5H15M17 10.5H18M11 11.5H13M14 11.5H15M17 11.5H18M11 12.5H13M14 12.5H15M17 12.5H18M12 13.5H13M14 13.5H15M17 13.5H18M12 14.5H13M14 14.5H15M17 14.5H18M12 15.5H13M14 15.5H15M17 15.5H18M12 16.5H13M14 16.5H15M17 16.5H18M12 17.5H13M14 17.5H15M17 17.5H18M11 19.5H13M16 19.5H18M10 20.5H13M16 20.5H19M10 21.5H12M17 21.5H19M10 22.5H11M18 22.5H19M10 23.5H11M18 23.5H19M10 24.5H11M18 24.5H19M10 25.5H11M18 25.5H19" stroke="#D1851E"/>
<path d="M24 25.5H25Z" fill="black"/>
<path d="M18 1.5H19M16 2.5H17M19 2.5H21M15 3.5H16M21 3.5H23M15 4.5H16M15 5.5H16M15 6.5H16M15 7.5H17M15 8.5H17M15 9.5H17M15 10.5H17M15 11.5H17M15 12.5H17M15 13.5H17M15 14.5H17M15 15.5H17M15 16.5H17M22 16.5H27M15 17.5H17M24 17.5H25M12 18.5H15M17 18.5H18M24 18.5H25M13 19.5H16M18 19.5H19M24 19.5H25M13 20.5H16M19 20.5H20M24 20.5H25M12 21.5H13M19 21.5H20M24 21.5H25M11 22.5H12M19 22.5H20M24 22.5H25M11 23.5H12M19 23.5H20M24 23.5H25M11 24.5H12M19 24.5H20M24 24.5H25M11 25.5H12M19 25.5H20M24 25.5H25" stroke="#895A45"/>
<path d="M30 4.5H32H30ZM33 4.5H34H33ZM29 5.5H30H29ZM29 6.5H30H29ZM29 7.5H30H29ZM23 9.5H25H23ZM29 9.5H30H29ZM23 10.5H25H23ZM30 10.5H32H30ZM23 11.5H25H23ZM32 11.5H34H32ZM9 12.5H10H9ZM23 12.5H25H23ZM35 12.5H37H35ZM8 13.5H11H8ZM23 13.5H25H23ZM38 13.5H40H38ZM9 14.5H10Z" fill="black"/>
<path d="M9 14.5H10M30 4.5H32H30ZM33 4.5H34H33ZM29 5.5H30H29ZM29 6.5H30H29ZM29 7.5H30H29ZM23 9.5H25H23ZM29 9.5H30H29ZM23 10.5H25H23ZM30 10.5H32H30ZM23 11.5H25H23ZM32 11.5H34H32ZM9 12.5H10H9ZM23 12.5H25H23ZM35 12.5H37H35ZM8 13.5H11H8ZM23 13.5H25H23ZM38 13.5H40H38Z" stroke="#9BF0FD"/>
<path d="M32 4.5H33H32ZM34 4.5H35H34ZM30 5.5H31H30ZM35 5.5H36H35ZM23 8.5H25H23ZM29 8.5H30H29ZM30 9.5H31H30ZM6 10.5H7H6ZM22 10.5H23H22ZM25 10.5H26H25ZM32 10.5H33H32ZM7 11.5H8H7ZM22 11.5H23H22ZM25 11.5H26H25ZM34 11.5H35H34ZM8 12.5H9H8ZM10 12.5H11H10ZM22 12.5H23H22ZM25 12.5H26H25ZM34 12.5H35H34ZM37 12.5H38H37ZM22 13.5H23H22ZM25 13.5H26H25ZM37 13.5H38H37ZM40 13.5H41H40ZM8 14.5H9H8ZM10 14.5H11H10ZM22 14.5H26Z" fill="black"/>
<path d="M22 14.5H26M32 4.5H33H32ZM34 4.5H35H34ZM30 5.5H31H30ZM35 5.5H36H35ZM23 8.5H25H23ZM29 8.5H30H29ZM30 9.5H31H30ZM6 10.5H7H6ZM22 10.5H23H22ZM25 10.5H26H25ZM32 10.5H33H32ZM7 11.5H8H7ZM22 11.5H23H22ZM25 11.5H26H25ZM34 11.5H35H34ZM8 12.5H9H8ZM10 12.5H11H10ZM22 12.5H23H22ZM25 12.5H26H25ZM34 12.5H35H34ZM37 12.5H38H37ZM22 13.5H23H22ZM25 13.5H26H25ZM37 13.5H38H37ZM40 13.5H41H40ZM8 14.5H9H8ZM10 14.5H11H10Z" stroke="#62ABD4"/>
<path d="M34 5.5H35H34ZM35 6.5H36H35ZM35 7.5H36H35ZM25 8.5H26H25ZM35 8.5H36H35ZM25 9.5H26H25ZM34 9.5H36H34ZM26 10.5H27H26ZM33 10.5H35H33ZM26 11.5H27H26ZM29 11.5H32H29ZM26 12.5H30H26ZM26 13.5H27H26ZM26 14.5H27Z" fill="black"/>
<path d="M26 14.5H27M34 5.5H35H34ZM35 6.5H36H35ZM35 7.5H36H35ZM25 8.5H26H25ZM35 8.5H36H35ZM25 9.5H26H25ZM34 9.5H36H34ZM26 10.5H27H26ZM33 10.5H35H33ZM26 11.5H27H26ZM29 11.5H32H29ZM26 12.5H30H26ZM26 13.5H27H26Z" stroke="#5880CC"/>
<path d="M13 7.5H14M13 8.5H14M13 10.5H14M13 11.5H14M13 12.5H14M13 13.5H14M13 14.5H14M13 15.5H14M13 16.5H14M13 17.5H14" stroke="#FFD569"/>
<path d="M22 15.5H27H22ZM15 18.5H17Z" fill="black"/>
<path d="M15 18.5H17M22 15.5H27H22Z" stroke="#3D253B"/>
<path d="M39 17.5H42H39ZM40 19.5H41H40ZM39 20.5H42H39ZM39 21.5H42H39ZM39 22.5H42H39ZM39 23.5H42H39ZM39 24.5H42H39ZM39 25.5H42Z" fill="black"/>
<path d="M39 25.5H42M39 17.5H42H39ZM40 19.5H41H40ZM39 20.5H42H39ZM39 21.5H42H39ZM39 22.5H42H39ZM39 23.5H42H39ZM39 24.5H42H39Z" stroke="#CAE6F5"/>
<path d="M42 17.5H43H42ZM41 18.5H43H41ZM42 19.5H43H42ZM43 20.5H44H43ZM43 21.5H44H43ZM43 22.5H44H43ZM43 23.5H44H43ZM43 24.5H44H43ZM43 25.5H44Z" fill="black"/>
<path d="M43 25.5H44M42 17.5H43H42ZM41 18.5H43H41ZM42 19.5H43H42ZM43 20.5H44H43ZM43 21.5H44H43ZM43 22.5H44H43ZM43 23.5H44H43ZM43 24.5H44H43Z" stroke="#56587B"/>
<path d="M43 17.5H44H43ZM40 18.5H41H40ZM39 19.5H40H39ZM41 19.5H42H41ZM43 19.5H44H43ZM38 20.5H39H38ZM42 20.5H43H42ZM44 20.5H45H44ZM38 21.5H39H38ZM42 21.5H43H42ZM44 21.5H45H44ZM38 22.5H39H38ZM42 22.5H43H42ZM44 22.5H45H44ZM38 23.5H39H38ZM42 23.5H43H42ZM44 23.5H45H44ZM38 24.5H39H38ZM42 24.5H43H42ZM44 24.5H45H44ZM38 25.5H39H38ZM42 25.5H43H42ZM44 25.5H45Z" fill="black"/>
<path d="M44 25.5H45M43 17.5H44H43ZM40 18.5H41H40ZM39 19.5H40H39ZM41 19.5H42H41ZM43 19.5H44H43ZM38 20.5H39H38ZM42 20.5H43H42ZM44 20.5H45H44ZM38 21.5H39H38ZM42 21.5H43H42ZM44 21.5H45H44ZM38 22.5H39H38ZM42 22.5H43H42ZM44 22.5H45H44ZM38 23.5H39H38ZM42 23.5H43H42ZM44 23.5H45H44ZM38 24.5H39H38ZM42 24.5H43H42ZM44 24.5H45H44ZM38 25.5H39H38ZM42 25.5H43H42Z" stroke="#A7ACBA"/>
</svg>
