<svg width="74" height="68" viewBox="0 0 74 68" fill="none" xmlns="http://www.w3.org/2000/svg">
<path d="M59.9999 67.5506H53.3333V60.884H59.9999V67.5506Z" fill="#F6F010"/>
<path d="M19.9999 67.5506H13.3333V60.884H19.9999V67.5506Z" fill="#F6F010"/>
<path d="M53.3333 60.8839H46.6666V54.2173H53.3333V60.8839Z" fill="#F6F010"/>
<path d="M26.6667 60.8839H20V54.2173H26.6667V60.8839Z" fill="#F6F010"/>
<path d="M59.9999 54.2173H53.3333V47.5506H59.9999V54.2173Z" fill="#F6F010"/>
<path d="M53.3333 54.2173H46.6666V47.5506H53.3333V54.2173Z" fill="#F6F010"/>
<path d="M46.6667 54.2173H40V47.5506H46.6667V54.2173Z" fill="#F6F010"/>
<path d="M39.9999 54.2173H33.3333V47.5506H39.9999V54.2173Z" fill="#548AD0"/>
<path d="M33.3333 54.2173H26.6666V47.5506H33.3333V54.2173Z" fill="#F6F010"/>
<path d="M26.6667 54.2173H20V47.5506H26.6667V54.2173Z" fill="#F6F010"/>
<path d="M19.9999 54.2173H13.3333V47.5506H19.9999V54.2173Z" fill="#F6F010"/>
<path d="M66.6665 47.5506H60V40.8853H66.6665V47.5506Z" fill="#548AD0"/>
<path d="M59.9999 47.5506H53.3333V40.8853H59.9999V47.5506Z" fill="#548AD0"/>
<path d="M53.3333 47.5506H46.6666V40.8853H53.3333V47.5506Z" fill="#548AD0"/>
<path d="M46.6667 47.5506H40V40.8853H46.6667V47.5506Z" fill="#548AD0"/>
<path d="M33.3333 47.5506H26.6666V40.8853H33.3333V47.5506Z" fill="#548AD0"/>
<path d="M26.6667 47.5506H20V40.8853H26.6667V47.5506Z" fill="#548AD0"/>
<path d="M19.9999 47.5506H13.3333V40.8853H19.9999V47.5506Z" fill="#548AD0"/>
<path d="M13.3333 47.5506H6.66663V40.8853H13.3333V47.5506Z" fill="#548AD0"/>
<path d="M66.6665 40.8853H60V34.2186H66.6665V40.8853Z" fill="#5EC688"/>
<path d="M59.9999 40.8853H53.3333V34.2186H59.9999V40.8853Z" fill="#5EC688"/>
<path d="M53.3333 40.8853H46.6666V34.2186H53.3333V40.8853Z" fill="#5EC688"/>
<path d="M46.6667 40.8853H40V34.2186H46.6667V40.8853Z" fill="#5EC688"/>
<path d="M39.9999 40.8853H33.3333V34.2186H39.9999V40.8853Z" fill="#5EC688"/>
<path d="M33.3333 40.8853H26.6666V34.2186H33.3333V40.8853Z" fill="#5EC688"/>
<path d="M26.6667 40.8853H20V34.2186H26.6667V40.8853Z" fill="#5EC688"/>
<path d="M19.9999 40.8853H13.3333V34.2186H19.9999V40.8853Z" fill="#5EC688"/>
<path d="M13.3333 40.8853H6.66663V34.2186H13.3333V40.8853Z" fill="#5EC688"/>
<path d="M59.9999 34.2186H53.3333V27.552H59.9999V34.2186Z" fill="#5EC688"/>
<path d="M39.9999 34.2186H33.3333V27.552H39.9999V34.2186Z" fill="#5EC688"/>
<path d="M19.9999 34.2186H13.3333V27.552H19.9999V34.2186Z" fill="#5EC688"/>
<path d="M66.6665 27.552H60V20.8853H66.6665V27.552Z" fill="#F6F010"/>
<path d="M59.9999 27.552H53.3333V20.8853H59.9999V27.552Z" fill="#F6F010"/>
<path d="M53.3333 27.552H46.6666V20.8853H53.3333V27.552Z" fill="#F6F010"/>
<path d="M39.9999 27.552H33.3333V20.8853H39.9999V27.552Z" fill="#5EC688"/>
<path d="M33.3333 27.552H26.6666V20.8853H33.3333V27.552Z" fill="#5EC688"/>
<path d="M19.9999 27.552H13.3333V20.8853H19.9999V27.552Z" fill="#F6F010"/>
<path d="M13.3333 27.552H6.66663V20.8853H13.3333V27.552Z" fill="#F6F010"/>
<path d="M73.3332 20.8853H66.6665V14.2186H73.3332V20.8853Z" fill="#F6F010"/>
<path d="M66.6665 20.8853H60V14.2186H66.6665V20.8853Z" fill="#F6F010"/>
<path d="M59.9999 20.8853H53.3333V14.2186H59.9999V20.8853Z" fill="#F6F010"/>
<path d="M39.9999 20.8853H33.3333V14.2186H39.9999V20.8853Z" fill="#F6F010"/>
<path d="M19.9999 20.8853H13.3333V14.2186H19.9999V20.8853Z" fill="#F6F010"/>
<path d="M13.3333 20.8853H6.66663V14.2186H13.3333V20.8853Z" fill="#F6F010"/>
<path d="M6.66667 20.8853H0V14.2186H6.66667V20.8853Z" fill="#F6F010"/>
<path d="M73.3332 14.2186H66.6665V7.55196H73.3332V14.2186Z" fill="#F6F010"/>
<path d="M53.3333 14.2186H46.6666V7.55196H53.3333V14.2186Z" fill="#548AD0"/>
<path d="M46.6667 14.2186H40V7.55196H46.6667V14.2186Z" fill="#548AD0"/>
<path d="M33.3333 14.2186H26.6666V7.55196H33.3333V14.2186Z" fill="#548AD0"/>
<path d="M26.6667 14.2186H20V7.55196H26.6667V14.2186Z" fill="#548AD0"/>
<path d="M6.66667 14.2186H0V7.55196H6.66667V14.2186Z" fill="#F6F010"/>
<path d="M73.3332 7.55197H66.6665V0.885305H73.3332V7.55197Z" fill="#F6F010"/>
<path d="M59.9999 7.55197H53.3333V0.885305H59.9999V7.55197Z" fill="#548AD0"/>
<path d="M53.3333 7.55197H46.6666V0.885305H53.3333V7.55197Z" fill="#548AD0"/>
<path d="M26.6667 7.55197H20V0.885305H26.6667V7.55197Z" fill="#548AD0"/>
<path d="M19.9999 7.55197H13.3333V0.885305H19.9999V7.55197Z" fill="#548AD0"/>
<path d="M6.66667 7.55197H0V0.885305H6.66667V7.55197Z" fill="#F6F010"/>
</svg>
