<svg width="47" height="81" viewBox="0 0 47 81" fill="none" xmlns="http://www.w3.org/2000/svg">
<path d="M40.3333 80.1013H33.6666V73.4347H40.3333V80.1013Z" fill="#548AD0"/>
<path d="M33.6667 80.1013H27V73.4347H33.6667V80.1013Z" fill="#548AD0"/>
<path d="M20.3333 80.1013H13.6666V73.4347H20.3333V80.1013Z" fill="#548AD0"/>
<path d="M13.6667 80.1013H7V73.4347H13.6667V80.1013Z" fill="#548AD0"/>
<path d="M33.6667 73.4347H27V66.768H33.6667V73.4347Z" fill="#548AD0"/>
<path d="M20.3333 73.4347H13.6666V66.768H20.3333V73.4347Z" fill="#548AD0"/>
<path d="M33.6667 66.768H27V60.1013H33.6667V66.768Z" fill="#548AD0"/>
<path d="M20.3333 66.768H13.6666V60.1013H20.3333V66.768Z" fill="#548AD0"/>
<path d="M46.9999 60.1013H40.3333V53.4347H46.9999V60.1013Z" fill="#ED1555"/>
<path d="M40.3333 60.1013H33.6666V53.4347H40.3333V60.1013Z" fill="#ED1555"/>
<path d="M33.6667 60.1013H27V53.4347H33.6667V60.1013Z" fill="#ED1555"/>
<path d="M26.9999 60.1013H20.3333V53.4347H26.9999V60.1013Z" fill="#ED1555"/>
<path d="M20.3333 60.1013H13.6666V53.4347H20.3333V60.1013Z" fill="#ED1555"/>
<path d="M13.6667 60.1013H7V53.4347H13.6667V60.1013Z" fill="#ED1555"/>
<path d="M6.99992 60.1013H0.333252V53.4347H6.99992V60.1013Z" fill="#ED1555"/>
<path d="M46.9999 53.4347H40.3333V46.7693H46.9999V53.4347Z" fill="#ED1555"/>
<path d="M40.3333 53.4347H33.6666V46.7693H40.3333V53.4347Z" fill="#548AD0"/>
<path d="M33.6667 53.4347H27V46.7693H33.6667V53.4347Z" fill="#548AD0"/>
<path d="M20.3333 53.4347H13.6666V46.7693H20.3333V53.4347Z" fill="#548AD0"/>
<path d="M13.6667 53.4347H7V46.7693H13.6667V53.4347Z" fill="#548AD0"/>
<path d="M6.99992 53.4347H0.333252V46.7693H6.99992V53.4347Z" fill="#ED1555"/>
<path d="M46.9999 46.7693H40.3333V40.1027H46.9999V46.7693Z" fill="#ED1555"/>
<path d="M40.3333 46.7693H33.6666V40.1027H40.3333V46.7693Z" fill="#548AD0"/>
<path d="M33.6667 46.7693H27V40.1027H33.6667V46.7693Z" fill="#548AD0"/>
<path d="M26.9999 46.7693H20.3333V40.1027H26.9999V46.7693Z" fill="#ED1555"/>
<path d="M20.3333 46.7693H13.6666V40.1027H20.3333V46.7693Z" fill="#548AD0"/>
<path d="M13.6667 46.7693H7V40.1027H13.6667V46.7693Z" fill="#548AD0"/>
<path d="M6.99992 46.7693H0.333252V40.1027H6.99992V46.7693Z" fill="#ED1555"/>
<path d="M46.9999 40.1026H40.3333V33.436H46.9999V40.1026Z" fill="#ED1555"/>
<path d="M26.9999 40.1026H20.3333V33.436H26.9999V40.1026Z" fill="#ED1555"/>
<path d="M6.99992 40.1026H0.333252V33.436H6.99992V40.1026Z" fill="#ED1555"/>
<path d="M46.9999 33.436H40.3333V26.7693H46.9999V33.436Z" fill="#ED1555"/>
<path d="M40.3333 33.436H33.6666V26.7693H40.3333V33.436Z" fill="#548AD0"/>
<path d="M26.9999 33.436H20.3333V26.7693H26.9999V33.436Z" fill="#ED1555"/>
<path d="M13.6667 33.436H7V26.7693H13.6667V33.436Z" fill="#548AD0"/>
<path d="M6.99992 33.436H0.333252V26.7693H6.99992V33.436Z" fill="#ED1555"/>
<path d="M46.9999 26.7693H40.3333V20.1027H46.9999V26.7693Z" fill="#ED1555"/>
<path d="M26.9999 26.7693H20.3333V20.1027H26.9999V26.7693Z" fill="#ED1555"/>
<path d="M6.99992 26.7693H0.333252V20.1027H6.99992V26.7693Z" fill="#ED1555"/>
<path d="M40.3333 20.1026H33.6666V13.436H40.3333V20.1026Z" fill="#548AD0"/>
<path d="M33.6667 20.1026H27V13.436H33.6667V20.1026Z" fill="#548AD0"/>
<path d="M26.9999 20.1026H20.3333V13.436H26.9999V20.1026Z" fill="#548AD0"/>
<path d="M20.3333 20.1026H13.6666V13.436H20.3333V20.1026Z" fill="#548AD0"/>
<path d="M13.6667 20.1026H7V13.436H13.6667V20.1026Z" fill="#548AD0"/>
<path d="M26.9999 13.436H20.3333V6.76931H26.9999V13.436Z" fill="#F6F010"/>
<path d="M33.6667 6.76932H27V0.102668H33.6667V6.76932Z" fill="#F6F010"/>
<path d="M26.9999 6.76932H20.3333V0.102668H26.9999V6.76932Z" fill="#F6F010"/>
</svg>
