<svg width="81" height="68" viewBox="0 0 81 68" fill="none" xmlns="http://www.w3.org/2000/svg">
<path d="M47.1025 67.4359H40.4358V60.7693H47.1025V67.4359Z" fill="#F6F010"/>
<path d="M27.1025 67.4359H20.4358V60.7693H27.1025V67.4359Z" fill="#F6F010"/>
<path d="M53.7692 60.7693H47.1025V54.1026H53.7692V60.7693Z" fill="#F6F010"/>
<path d="M47.1025 60.7693H40.4358V54.1026H47.1025V60.7693Z" fill="#F6F010"/>
<path d="M40.4358 60.7693H33.7692V54.1026H40.4358V60.7693Z" fill="#F6F010"/>
<path d="M33.7692 60.7693H27.1025V54.1026H33.7692V60.7693Z" fill="#F6F010"/>
<path d="M27.1025 60.7693H20.4358V54.1026H27.1025V60.7693Z" fill="#F6F010"/>
<path d="M20.4358 60.7693H13.7692V54.1026H20.4358V60.7693Z" fill="#F6F010"/>
<path d="M53.7692 54.1026H47.1025V47.436H53.7692V54.1026Z" fill="#F6F010"/>
<path d="M47.1025 54.1026H40.4358V47.436H47.1025V54.1026Z" fill="#F6F010"/>
<path d="M33.7692 54.1026H27.1025V47.436H33.7692V54.1026Z" fill="#F6F010"/>
<path d="M27.1025 54.1026H20.4358V47.436H27.1025V54.1026Z" fill="#F6F010"/>
<path d="M20.4358 54.1026H13.7692V47.436H20.4358V54.1026Z" fill="#F6F010"/>
<path d="M60.4358 47.436H53.7692V40.7693H60.4358V47.436Z" fill="#F6F010"/>
<path d="M53.7692 47.436H47.1025V40.7693H53.7692V47.436Z" fill="#548AD0"/>
<path d="M47.1025 47.436H40.4358V40.7693H47.1025V47.436Z" fill="#5EC688"/>
<path d="M40.4358 47.436H33.7692V40.7693H40.4358V47.436Z" fill="#5EC688"/>
<path d="M33.7692 47.436H27.1025V40.7693H33.7692V47.436Z" fill="#5EC688"/>
<path d="M27.1025 47.436H20.4358V40.7693H27.1025V47.436Z" fill="#5EC688"/>
<path d="M20.4358 47.436H13.7692V40.7693H20.4358V47.436Z" fill="#548AD0"/>
<path d="M7.10246 47.436H0.435791V40.7693H7.10246V47.436Z" fill="#F6F010"/>
<path d="M60.4358 40.7693H53.7692V34.1026H60.4358V40.7693Z" fill="#F6F010"/>
<path d="M47.1025 40.7693H40.4358V34.1026H47.1025V40.7693Z" fill="#5EC688"/>
<path d="M40.4358 40.7693H33.7692V34.1026H40.4358V40.7693Z" fill="#5EC688"/>
<path d="M27.1025 40.7693H20.4358V34.1026H27.1025V40.7693Z" fill="#5EC688"/>
<path d="M20.4358 40.7693H13.7692V34.1026H20.4358V40.7693Z" fill="#548AD0"/>
<path d="M7.10246 40.7693H0.435791V34.1026H7.10246V40.7693Z" fill="#F6F010"/>
<path d="M60.4358 34.1026H53.7692V27.436H60.4358V34.1026Z" fill="#F6F010"/>
<path d="M53.7692 34.1026H47.1025V27.436H53.7692V34.1026Z" fill="#548AD0"/>
<path d="M47.1025 34.1026H40.4358V27.436H47.1025V34.1026Z" fill="#548AD0"/>
<path d="M40.4358 34.1026H33.7692V27.436H40.4358V34.1026Z" fill="#548AD0"/>
<path d="M33.7692 34.1026H27.1025V27.436H33.7692V34.1026Z" fill="#548AD0"/>
<path d="M27.1025 34.1026H20.4358V27.436H27.1025V34.1026Z" fill="#548AD0"/>
<path d="M20.4358 34.1026H13.7692V27.436H20.4358V34.1026Z" fill="#548AD0"/>
<path d="M13.7692 34.1026H7.10254V27.436H13.7692V34.1026Z" fill="#F6F010"/>
<path d="M7.10246 34.1026H0.435791V27.436H7.10246V34.1026Z" fill="#F6F010"/>
<path d="M80.4358 27.436H73.7692V20.7693H80.4358V27.436Z" fill="#F6F010"/>
<path d="M73.7692 27.436H67.1025V20.7693H73.7692V27.436Z" fill="#F6F010"/>
<path d="M67.1025 27.436H60.4358V20.7693H67.1025V27.436Z" fill="#F6F010"/>
<path d="M60.4358 27.436H53.7692V20.7693H60.4358V27.436Z" fill="#F6F010"/>
<path d="M53.7692 27.436H47.1025V20.7693H53.7692V27.436Z" fill="#5EC688"/>
<path d="M47.1025 27.436H40.4358V20.7693H47.1025V27.436Z" fill="#5EC688"/>
<path d="M40.4358 27.436H33.7692V20.7693H40.4358V27.436Z" fill="#5EC688"/>
<path d="M33.7692 27.436H27.1025V20.7693H33.7692V27.436Z" fill="#5EC688"/>
<path d="M27.1025 27.436H20.4358V20.7693H27.1025V27.436Z" fill="#F6F010"/>
<path d="M20.4358 27.436H13.7692V20.7693H20.4358V27.436Z" fill="#F6F010"/>
<path d="M13.7692 27.436H7.10254V20.7693H13.7692V27.436Z" fill="#F6F010"/>
<path d="M67.1025 20.7693H60.4358V14.1026H67.1025V20.7693Z" fill="#548AD0"/>
<path d="M47.1025 20.7693H40.4358V14.1026H47.1025V20.7693Z" fill="#5EC688"/>
<path d="M40.4358 20.7693H33.7692V14.1026H40.4358V20.7693Z" fill="#5EC688"/>
<path d="M20.4358 20.7693H13.7692V14.1026H20.4358V20.7693Z" fill="#548AD0"/>
<path d="M67.1025 14.1026H60.4358V7.43596H67.1025V14.1026Z" fill="#548AD0"/>
<path d="M20.4358 14.1026H13.7692V7.43596H20.4358V14.1026Z" fill="#548AD0"/>
<path d="M73.7692 7.43596H67.1025V0.769293H73.7692V7.43596Z" fill="#548AD0"/>
<path d="M67.1025 7.43596H60.4358V0.769293H67.1025V7.43596Z" fill="#548AD0"/>
<path d="M60.4358 7.43596H53.7692V0.769293H60.4358V7.43596Z" fill="#548AD0"/>
<path d="M27.1025 7.43596H20.4358V0.769293H27.1025V7.43596Z" fill="#548AD0"/>
<path d="M20.4358 7.43596H13.7692V0.769293H20.4358V7.43596Z" fill="#548AD0"/>
<path d="M13.7692 7.43596H7.10254V0.769293H13.7692V7.43596Z" fill="#548AD0"/>
</svg>
