<svg width="81" height="74" viewBox="0 0 81 74" fill="none" xmlns="http://www.w3.org/2000/svg">
<path d="M53.6518 73.7693H46.9851V67.1026H53.6518V73.7693Z" fill="#5EC688"/>
<path d="M40.3185 73.7693H33.6519V67.1026H40.3185V73.7693Z" fill="#5EC688"/>
<path d="M66.9851 67.1026H60.3185V60.436H66.9851V67.1026Z" fill="#548AD0"/>
<path d="M60.3185 67.1026H53.6519V60.436H60.3185V67.1026Z" fill="#5EC688"/>
<path d="M53.6518 67.1026H46.9851V60.436H53.6518V67.1026Z" fill="#5EC688"/>
<path d="M46.9851 67.1026H40.3185V60.436H46.9851V67.1026Z" fill="#5EC688"/>
<path d="M40.3185 67.1026H33.6519V60.436H40.3185V67.1026Z" fill="#5EC688"/>
<path d="M33.6518 67.1026H26.9851V60.436H33.6518V67.1026Z" fill="#5EC688"/>
<path d="M26.9851 67.1026H20.3185V60.436H26.9851V67.1026Z" fill="#548AD0"/>
<path d="M73.6518 60.436H66.9851V53.7693H73.6518V60.436Z" fill="#548AD0"/>
<path d="M66.9851 60.436H60.3185V53.7693H66.9851V60.436Z" fill="#548AD0"/>
<path d="M60.3185 60.436H53.6519V53.7693H60.3185V60.436Z" fill="#5EC688"/>
<path d="M53.6518 60.436H46.9851V53.7693H53.6518V60.436Z" fill="#5EC688"/>
<path d="M46.9851 60.436H40.3185V53.7693H46.9851V60.436Z" fill="#5EC688"/>
<path d="M40.3185 60.436H33.6519V53.7693H40.3185V60.436Z" fill="#5EC688"/>
<path d="M33.6518 60.436H26.9851V53.7693H33.6518V60.436Z" fill="#5EC688"/>
<path d="M26.9851 60.436H20.3185V53.7693H26.9851V60.436Z" fill="#548AD0"/>
<path d="M20.3185 60.436H13.6519V53.7693H20.3185V60.436Z" fill="#548AD0"/>
<path d="M66.9851 53.7693H60.3185V47.1026H66.9851V53.7693Z" fill="#548AD0"/>
<path d="M60.3185 53.7693H53.6519V47.1026H60.3185V53.7693Z" fill="#548AD0"/>
<path d="M53.6518 53.7693H46.9851V47.1026H53.6518V53.7693Z" fill="#5EC688"/>
<path d="M46.9851 53.7693H40.3185V47.1026H46.9851V53.7693Z" fill="#5EC688"/>
<path d="M40.3185 53.7693H33.6519V47.1026H40.3185V53.7693Z" fill="#5EC688"/>
<path d="M33.6518 53.7693H26.9851V47.1026H33.6518V53.7693Z" fill="#548AD0"/>
<path d="M26.9851 53.7693H20.3185V47.1026H26.9851V53.7693Z" fill="#548AD0"/>
<path d="M66.9851 47.1026H60.3185V40.436H66.9851V47.1026Z" fill="#548AD0"/>
<path d="M60.3185 47.1026H53.6519V40.436H60.3185V47.1026Z" fill="#548AD0"/>
<path d="M46.9851 47.1026H40.3185V40.436H46.9851V47.1026Z" fill="#5EC688"/>
<path d="M40.3185 47.1026H33.6519V40.436H40.3185V47.1026Z" fill="#5EC688"/>
<path d="M26.9851 47.1026H20.3185V40.436H26.9851V47.1026Z" fill="#548AD0"/>
<path d="M66.9851 40.436H60.3185V33.7693H66.9851V40.436Z" fill="#548AD0"/>
<path d="M60.3185 40.436H53.6519V33.7693H60.3185V40.436Z" fill="#548AD0"/>
<path d="M46.9851 40.436H40.3185V33.7693H46.9851V40.436Z" fill="#5EC688"/>
<path d="M40.3185 40.436H33.6519V33.7693H40.3185V40.436Z" fill="#5EC688"/>
<path d="M26.9851 40.436H20.3185V33.7693H26.9851V40.436Z" fill="#548AD0"/>
<path d="M20.3185 40.436H13.6519V33.7693H20.3185V40.436Z" fill="#548AD0"/>
<path d="M6.98515 40.436H0.318481V33.7693H6.98515V40.436Z" fill="#548AD0"/>
<path d="M73.6518 33.7693H66.9851V27.1026H73.6518V33.7693Z" fill="#548AD0"/>
<path d="M66.9851 33.7693H60.3185V27.1026H66.9851V33.7693Z" fill="#548AD0"/>
<path d="M60.3185 33.7693H53.6519V27.1026H60.3185V33.7693Z" fill="#548AD0"/>
<path d="M53.6518 33.7693H46.9851V27.1026H53.6518V33.7693Z" fill="#5EC688"/>
<path d="M46.9851 33.7693H40.3185V27.1026H46.9851V33.7693Z" fill="#5EC688"/>
<path d="M40.3185 33.7693H33.6519V27.1026H40.3185V33.7693Z" fill="#5EC688"/>
<path d="M33.6518 33.7693H26.9851V27.1026H33.6518V33.7693Z" fill="#548AD0"/>
<path d="M26.9851 33.7693H20.3185V27.1026H26.9851V33.7693Z" fill="#548AD0"/>
<path d="M20.3185 33.7693H13.6519V27.1026H20.3185V33.7693Z" fill="#548AD0"/>
<path d="M13.6518 33.7693H6.98511V27.1026H13.6518V33.7693Z" fill="#548AD0"/>
<path d="M80.3185 27.1026H73.6519V20.436H80.3185V27.1026Z" fill="#548AD0"/>
<path d="M66.9851 27.1026H60.3185V20.436H66.9851V27.1026Z" fill="#548AD0"/>
<path d="M60.3185 27.1026H53.6519V20.436H60.3185V27.1026Z" fill="#5EC688"/>
<path d="M53.6518 27.1026H46.9851V20.436H53.6518V27.1026Z" fill="#ED1555"/>
<path d="M46.9851 27.1026H40.3185V20.436H46.9851V27.1026Z" fill="#ED1555"/>
<path d="M40.3185 27.1026H33.6519V20.436H40.3185V27.1026Z" fill="#ED1555"/>
<path d="M33.6518 27.1026H26.9851V20.436H33.6518V27.1026Z" fill="#5EC688"/>
<path d="M26.9851 27.1026H20.3185V20.436H26.9851V27.1026Z" fill="#548AD0"/>
<path d="M20.3185 27.1026H13.6519V20.436H20.3185V27.1026Z" fill="#548AD0"/>
<path d="M53.6518 20.436H46.9851V13.7693H53.6518V20.436Z" fill="#ED1555"/>
<path d="M33.6518 20.436H26.9851V13.7693H33.6518V20.436Z" fill="#ED1555"/>
<path d="M60.3185 13.7693H53.6519V7.10264H60.3185V13.7693Z" fill="#ED1555"/>
<path d="M53.6518 13.7693H46.9851V7.10264H53.6518V13.7693Z" fill="#ED1555"/>
<path d="M33.6518 13.7693H26.9851V7.10264H33.6518V13.7693Z" fill="#ED1555"/>
<path d="M26.9851 13.7693H20.3185V7.10264H26.9851V13.7693Z" fill="#ED1555"/>
<path d="M66.9851 7.10265H60.3185V0.43598H66.9851V7.10265Z" fill="#ED1555"/>
<path d="M20.3185 7.10265H13.6519V0.43598H20.3185V7.10265Z" fill="#ED1555"/>
</svg>
