<svg width="101" height="75" viewBox="0 0 101 75" fill="none" xmlns="http://www.w3.org/2000/svg">
<path d="M53.9851 74.1026H47.3185V67.436H53.9851V74.1026Z" fill="#5EC688"/>
<path d="M87.3185 67.4359H80.6519V60.7693H87.3185V67.4359Z" fill="#5EC688"/>
<path d="M60.6518 67.4359H53.9851V60.7693H60.6518V67.4359Z" fill="#5EC688"/>
<path d="M53.9851 67.4359H47.3185V60.7693H53.9851V67.4359Z" fill="#F6F010"/>
<path d="M47.3185 67.4359H40.6519V60.7693H47.3185V67.4359Z" fill="#5EC688"/>
<path d="M20.6518 67.4359H13.9851V60.7693H20.6518V67.4359Z" fill="#5EC688"/>
<path d="M80.6518 60.7693H73.9851V54.1026H80.6518V60.7693Z" fill="#5EC688"/>
<path d="M67.3185 60.7693H60.6519V54.1026H67.3185V60.7693Z" fill="#5EC688"/>
<path d="M60.6518 60.7693H53.9851V54.1026H60.6518V60.7693Z" fill="#F6F010"/>
<path d="M53.9851 60.7693H47.3185V54.1026H53.9851V60.7693Z" fill="#F6F010"/>
<path d="M47.3185 60.7693H40.6519V54.1026H47.3185V60.7693Z" fill="#F6F010"/>
<path d="M40.6518 60.7693H33.9851V54.1026H40.6518V60.7693Z" fill="#5EC688"/>
<path d="M27.3185 60.7693H20.6519V54.1026H27.3185V60.7693Z" fill="#5EC688"/>
<path d="M73.9851 54.1026H67.3185V47.436H73.9851V54.1026Z" fill="#5EC688"/>
<path d="M67.3185 54.1026H60.6519V47.436H67.3185V54.1026Z" fill="#F6F010"/>
<path d="M60.6518 54.1026H53.9851V47.436H60.6518V54.1026Z" fill="#F6F010"/>
<path d="M53.9851 54.1026H47.3185V47.436H53.9851V54.1026Z" fill="#F6F010"/>
<path d="M47.3185 54.1026H40.6519V47.436H47.3185V54.1026Z" fill="#F6F010"/>
<path d="M40.6518 54.1026H33.9851V47.436H40.6518V54.1026Z" fill="#F6F010"/>
<path d="M33.9851 54.1026H27.3185V47.436H33.9851V54.1026Z" fill="#5EC688"/>
<path d="M73.9851 47.436H67.3185V40.7693H73.9851V47.436Z" fill="#5EC688"/>
<path d="M67.3185 47.436H60.6519V40.7693H67.3185V47.436Z" fill="#F6F010"/>
<path d="M40.6518 47.436H33.9851V40.7693H40.6518V47.436Z" fill="#F6F010"/>
<path d="M33.9851 47.436H27.3185V40.7693H33.9851V47.436Z" fill="#5EC688"/>
<path d="M87.3185 40.7693H80.6519V34.1026H87.3185V40.7693Z" fill="#F6F010"/>
<path d="M80.6518 40.7693H73.9851V34.1026H80.6518V40.7693Z" fill="#ED1555"/>
<path d="M73.9851 40.7693H67.3185V34.1026H73.9851V40.7693Z" fill="#ED1555"/>
<path d="M67.3185 40.7693H60.6519V34.1026H67.3185V40.7693Z" fill="#F6F010"/>
<path d="M53.9851 40.7693H47.3185V34.1026H53.9851V40.7693Z" fill="#F6F010"/>
<path d="M40.6518 40.7693H33.9851V34.1026H40.6518V40.7693Z" fill="#F6F010"/>
<path d="M33.9851 40.7693H27.3185V34.1026H33.9851V40.7693Z" fill="#ED1555"/>
<path d="M27.3185 40.7693H20.6519V34.1026H27.3185V40.7693Z" fill="#ED1555"/>
<path d="M20.6518 40.7693H13.9851V34.1026H20.6518V40.7693Z" fill="#F6F010"/>
<path d="M87.3185 34.1026H80.6519V27.436H87.3185V34.1026Z" fill="#F6F010"/>
<path d="M80.6518 34.324H73.9851V27.6573H80.6518V34.324Z" fill="#ED1555"/>
<path d="M73.9851 34.324H67.3185V27.6573H73.9851V34.324Z" fill="#ED1555"/>
<path d="M67.3185 34.324H60.6519V27.6573H67.3185V34.324Z" fill="#ED1555"/>
<path d="M60.6518 34.324H53.9851V27.6573H60.6518V34.324Z" fill="#ED1555"/>
<path d="M53.9851 34.324H47.3185V27.6573H53.9851V34.324Z" fill="#ED1555"/>
<path d="M47.3185 34.324H40.6519V27.6573H47.3185V34.324Z" fill="#ED1555"/>
<path d="M40.6518 34.324H33.9851V27.6573H40.6518V34.324Z" fill="#ED1555"/>
<path d="M33.9851 34.324H27.3185V27.6573H33.9851V34.324Z" fill="#ED1555"/>
<path d="M27.3185 34.324H20.6519V27.6573H27.3185V34.324Z" fill="#ED1555"/>
<path d="M20.6518 34.324H13.9851V27.6573H20.6518V34.324Z" fill="#F6F010"/>
<path d="M100.652 27.436H93.9851V20.7693H100.652V27.436Z" fill="#F6F010"/>
<path d="M93.9851 27.436H87.3185V20.7693H93.9851V27.436Z" fill="#F6F010"/>
<path d="M87.3185 27.436H80.6519V20.7693H87.3185V27.436Z" fill="#F6F010"/>
<path d="M80.6518 27.436H73.9851V20.7693H80.6518V27.436Z" fill="#ED1555"/>
<path d="M73.9851 27.436H67.3185V20.7693H73.9851V27.436Z" fill="#ED1555"/>
<path d="M60.6518 27.436H53.9851V20.7693H60.6518V27.436Z" fill="#ED1555"/>
<path d="M53.9851 27.436H47.3185V20.7693H53.9851V27.436Z" fill="#ED1555"/>
<path d="M33.9851 27.436H27.3185V20.7693H33.9851V27.436Z" fill="#ED1555"/>
<path d="M27.3185 27.436H20.6519V20.7693H27.3185V27.436Z" fill="#ED1555"/>
<path d="M20.6518 27.436H13.9851V20.7693H20.6518V27.436Z" fill="#F6F010"/>
<path d="M13.9851 27.436H7.31848V20.7693H13.9851V27.436Z" fill="#F6F010"/>
<path d="M7.31852 27.436H0.651855V20.7693H7.31852V27.436Z" fill="#F6F010"/>
<path d="M100.652 20.7693H93.9851V14.1026H100.652V20.7693Z" fill="#F6F010"/>
<path d="M93.9851 20.7693H87.3185V14.1026H93.9851V20.7693Z" fill="#F6F010"/>
<path d="M87.3185 20.7693H80.6519V14.1026H87.3185V20.7693Z" fill="#F6F010"/>
<path d="M73.9851 20.7693H67.3185V14.1026H73.9851V20.7693Z" fill="#ED1555"/>
<path d="M60.6518 20.7693H53.9851V14.1026H60.6518V20.7693Z" fill="#ED1555"/>
<path d="M53.9851 20.7693H47.3185V14.1026H53.9851V20.7693Z" fill="#ED1555"/>
<path d="M33.9851 20.7693H27.3185V14.1026H33.9851V20.7693Z" fill="#ED1555"/>
<path d="M20.6518 20.7693H13.9851V14.1026H20.6518V20.7693Z" fill="#F6F010"/>
<path d="M13.9851 20.7693H7.31848V14.1026H13.9851V20.7693Z" fill="#F6F010"/>
<path d="M7.31852 20.7693H0.651855V14.1026H7.31852V20.7693Z" fill="#F6F010"/>
<path d="M93.9851 14.1026H87.3185V7.43596H93.9851V14.1026Z" fill="#F6F010"/>
<path d="M73.9851 14.1026H67.3185V7.43596H73.9851V14.1026Z" fill="#ED1555"/>
<path d="M67.3185 14.1026H60.6519V7.43596H67.3185V14.1026Z" fill="#ED1555"/>
<path d="M60.6518 14.1026H53.9851V7.43596H60.6518V14.1026Z" fill="#ED1555"/>
<path d="M53.9851 14.1026H47.3185V7.43596H53.9851V14.1026Z" fill="#ED1555"/>
<path d="M47.3185 14.1026H40.6519V7.43596H47.3185V14.1026Z" fill="#ED1555"/>
<path d="M40.6518 14.1026H33.9851V7.43596H40.6518V14.1026Z" fill="#ED1555"/>
<path d="M33.9851 14.1026H27.3185V7.43596H33.9851V14.1026Z" fill="#ED1555"/>
<path d="M13.9851 14.1026H7.31848V7.43596H13.9851V14.1026Z" fill="#F6F010"/>
<path d="M80.6518 7.43596H73.9851V0.769293H80.6518V7.43596Z" fill="#ED1555"/>
<path d="M73.9851 7.43596H67.3185V0.769293H73.9851V7.43596Z" fill="#ED1555"/>
<path d="M67.3185 7.43596H60.6519V0.769293H67.3185V7.43596Z" fill="#ED1555"/>
<path d="M40.6518 7.43596H33.9851V0.769293H40.6518V7.43596Z" fill="#ED1555"/>
<path d="M33.9851 7.43596H27.3185V0.769293H33.9851V7.43596Z" fill="#ED1555"/>
<path d="M27.3185 7.43596H20.6519V0.769293H27.3185V7.43596Z" fill="#ED1555"/>
</svg>
