<svg width="87" height="68" viewBox="0 0 87 68" fill="none" xmlns="http://www.w3.org/2000/svg">
<path d="M66.9851 67.6521H60.3185V60.9854H66.9851V67.6521Z" fill="#F6F010"/>
<path d="M26.9851 67.6521H20.3185V60.9854H26.9851V67.6521Z" fill="#F6F010"/>
<path d="M73.6518 60.9854H66.9851V54.3188H73.6518V60.9854Z" fill="#F6F010"/>
<path d="M66.9851 60.9854H60.3185V54.3188H66.9851V60.9854Z" fill="#F6F010"/>
<path d="M60.3185 60.9854H53.6519V54.3188H60.3185V60.9854Z" fill="#F6F010"/>
<path d="M53.6518 60.9854H46.9851V54.3188H53.6518V60.9854Z" fill="#F6F010"/>
<path d="M46.9851 60.9854H40.3185V54.3188H46.9851V60.9854Z" fill="#F6F010"/>
<path d="M40.3185 60.9854H33.6519V54.3188H40.3185V60.9854Z" fill="#F6F010"/>
<path d="M33.6518 60.9854H26.9851V54.3188H33.6518V60.9854Z" fill="#F6F010"/>
<path d="M26.9851 60.9854H20.3185V54.3188H26.9851V60.9854Z" fill="#F6F010"/>
<path d="M20.3185 60.9854H13.6519V54.3188H20.3185V60.9854Z" fill="#F6F010"/>
<path d="M73.6518 54.3188H66.9851V47.6521H73.6518V54.3188Z" fill="#ED1555"/>
<path d="M66.9851 54.3188H60.3185V47.6521H66.9851V54.3188Z" fill="#ED1555"/>
<path d="M60.3185 54.3188H53.6519V47.6521H60.3185V54.3188Z" fill="#ED1555"/>
<path d="M46.9851 54.3188H40.3185V47.6521H46.9851V54.3188Z" fill="#ED1555"/>
<path d="M40.3185 54.3188H33.6519V47.6521H40.3185V54.3188Z" fill="#ED1555"/>
<path d="M33.6518 54.3188H26.9851V47.6521H33.6518V54.3188Z" fill="#ED1555"/>
<path d="M26.9851 54.3188H20.3185V47.6521H26.9851V54.3188Z" fill="#ED1555"/>
<path d="M20.3185 54.3188H13.6519V47.6521H20.3185V54.3188Z" fill="#ED1555"/>
<path d="M66.9851 47.6521H60.3185V40.9854H66.9851V47.6521Z" fill="#ED1555"/>
<path d="M60.3185 47.6521H53.6519V40.9854H60.3185V47.6521Z" fill="#ED1555"/>
<path d="M53.6518 47.6521H46.9851V40.9854H53.6518V47.6521Z" fill="#ED1555"/>
<path d="M46.9851 47.6521H40.3185V40.9854H46.9851V47.6521Z" fill="#548AD0"/>
<path d="M40.3185 47.6521H33.6519V40.9854H40.3185V47.6521Z" fill="#548AD0"/>
<path d="M33.6518 47.6521H26.9851V40.9854H33.6518V47.6521Z" fill="#548AD0"/>
<path d="M26.9851 47.6521H20.3185V40.9854H26.9851V47.6521Z" fill="#ED1555"/>
<path d="M6.98515 47.6521H0.318481V40.9854H6.98515V47.6521Z" fill="#548AD0"/>
<path d="M86.9851 40.9854H80.3185V34.3188H86.9851V40.9854Z" fill="#548AD0"/>
<path d="M80.3185 40.9854H73.6519V34.3188H80.3185V40.9854Z" fill="#548AD0"/>
<path d="M73.6518 40.9854H66.9851V34.3188H73.6518V40.9854Z" fill="#548AD0"/>
<path d="M66.9851 40.9854H60.3185V34.3188H66.9851V40.9854Z" fill="#548AD0"/>
<path d="M60.3185 40.9854H53.6519V34.3188H60.3185V40.9854Z" fill="#548AD0"/>
<path d="M53.6518 40.9854H46.9851V34.3188H53.6518V40.9854Z" fill="#548AD0"/>
<path d="M46.9851 40.9854H40.3185V34.3188H46.9851V40.9854Z" fill="#548AD0"/>
<path d="M33.6518 40.9854H26.9851V34.3188H33.6518V40.9854Z" fill="#548AD0"/>
<path d="M26.9851 40.9854H20.3185V34.3188H26.9851V40.9854Z" fill="#ED1555"/>
<path d="M20.3185 40.9854H13.6519V34.3188H20.3185V40.9854Z" fill="#548AD0"/>
<path d="M13.6518 40.9854H6.98511V34.3188H13.6518V40.9854Z" fill="#548AD0"/>
<path d="M6.98515 40.9854H0.318481V34.3188H6.98515V40.9854Z" fill="#548AD0"/>
<path d="M86.9851 34.3188H80.3185V27.6521H86.9851V34.3188Z" fill="#548AD0"/>
<path d="M66.9851 34.3188H60.3185V27.6521H66.9851V34.3188Z" fill="#548AD0"/>
<path d="M53.6518 34.3188H46.9851V27.6521H53.6518V34.3188Z" fill="#548AD0"/>
<path d="M46.9851 34.3188H40.3185V27.6521H46.9851V34.3188Z" fill="#548AD0"/>
<path d="M33.6518 34.3188H26.9851V27.6521H33.6518V34.3188Z" fill="#548AD0"/>
<path d="M26.9851 34.3188H20.3185V27.6521H26.9851V34.3188Z" fill="#ED1555"/>
<path d="M73.6518 27.6521H66.9851V20.9854H73.6518V27.6521Z" fill="#548AD0"/>
<path d="M66.9851 27.6521H60.3185V20.9854H66.9851V27.6521Z" fill="#548AD0"/>
<path d="M53.6518 27.6521H46.9851V20.9854H53.6518V27.6521Z" fill="#548AD0"/>
<path d="M46.9851 27.6521H40.3185V20.9854H46.9851V27.6521Z" fill="#548AD0"/>
<path d="M33.6518 27.6521H26.9851V20.9854H33.6518V27.6521Z" fill="#548AD0"/>
<path d="M26.9851 27.6521H20.3185V20.9854H26.9851V27.6521Z" fill="#548AD0"/>
<path d="M20.3185 27.6521H13.6519V20.9854H20.3185V27.6521Z" fill="#548AD0"/>
<path d="M73.6518 20.9854H66.9851V14.3188H73.6518V20.9854Z" fill="#548AD0"/>
<path d="M66.9851 20.9854H60.3185V14.3188H66.9851V20.9854Z" fill="#548AD0"/>
<path d="M60.3185 20.9854H53.6519V14.3188H60.3185V20.9854Z" fill="#548AD0"/>
<path d="M53.6518 20.9854H46.9851V14.3188H53.6518V20.9854Z" fill="#548AD0"/>
<path d="M46.9851 20.9854H40.3185V14.3188H46.9851V20.9854Z" fill="#548AD0"/>
<path d="M40.3185 20.9854H33.6519V14.3188H40.3185V20.9854Z" fill="#548AD0"/>
<path d="M33.6518 20.9854H26.9851V14.3188H33.6518V20.9854Z" fill="#548AD0"/>
<path d="M26.9851 20.9854H20.3185V14.3188H26.9851V20.9854Z" fill="#548AD0"/>
<path d="M20.3185 20.9854H13.6519V14.3188H20.3185V20.9854Z" fill="#548AD0"/>
<path d="M73.6518 14.3188H66.9851V7.65209H73.6518V14.3188Z" fill="#ED1555"/>
<path d="M60.3185 14.3188H53.6519V7.65209H60.3185V14.3188Z" fill="#ED1555"/>
<path d="M33.6518 14.3188H26.9851V7.65209H33.6518V14.3188Z" fill="#ED1555"/>
<path d="M20.3185 14.3188H13.6519V7.65209H20.3185V14.3188Z" fill="#ED1555"/>
<path d="M73.6518 7.65208H66.9851V0.985288H73.6518V7.65208Z" fill="#ED1555"/>
<path d="M66.9851 7.65208H60.3185V0.985288H66.9851V7.65208Z" fill="#ED1555"/>
<path d="M60.3185 7.65208H53.6519V0.985288H60.3185V7.65208Z" fill="#ED1555"/>
<path d="M33.6518 7.65208H26.9851V0.985288H33.6518V7.65208Z" fill="#ED1555"/>
<path d="M26.9851 7.65208H20.3185V0.985288H26.9851V7.65208Z" fill="#ED1555"/>
<path d="M20.3185 7.65208H13.6519V0.985288H20.3185V7.65208Z" fill="#ED1555"/>
</svg>
