<svg width="54" height="48" viewBox="0 0 54 48" fill="none" xmlns="http://www.w3.org/2000/svg">
<path d="M53.9851 47.3188H47.3185V40.6521H53.9851V47.3188Z" fill="#F6F010"/>
<path d="M7.31852 47.3188H0.651855V40.6521H7.31852V47.3188Z" fill="#F6F010"/>
<path d="M47.3185 40.6521H40.6519V33.9854H47.3185V40.6521Z" fill="#F6F010"/>
<path d="M40.6518 40.6521H33.9851V33.9854H40.6518V40.6521Z" fill="#F6F010"/>
<path d="M33.9851 40.6521H27.3185V33.9854H33.9851V40.6521Z" fill="#F6F010"/>
<path d="M27.3185 40.6521H20.6519V33.9854H27.3185V40.6521Z" fill="#F6F010"/>
<path d="M20.6518 40.6521H13.9851V33.9854H20.6518V40.6521Z" fill="#F6F010"/>
<path d="M13.9851 40.6521H7.31848V33.9854H13.9851V40.6521Z" fill="#F6F010"/>
<path d="M53.9851 33.9854H47.3185V27.3188H53.9851V33.9854Z" fill="#F6F010"/>
<path d="M47.3185 33.9854H40.6519V27.3188H47.3185V33.9854Z" fill="#5EC688"/>
<path d="M13.9851 33.9854H7.31848V27.3188H13.9851V33.9854Z" fill="#5EC688"/>
<path d="M7.31852 33.9854H0.651855V27.3188H7.31852V33.9854Z" fill="#F6F010"/>
<path d="M53.9851 27.3188H47.3185V20.6521H53.9851V27.3188Z" fill="#F6F010"/>
<path d="M47.3185 27.3188H40.6519V20.6521H47.3185V27.3188Z" fill="#5EC688"/>
<path d="M40.6518 27.3188H33.9851V20.6521H40.6518V27.3188Z" fill="#ED1555"/>
<path d="M33.9851 27.3188H27.3185V20.6521H33.9851V27.3188Z" fill="#5EC688"/>
<path d="M27.3185 27.3188H20.6519V20.6521H27.3185V27.3188Z" fill="#5EC688"/>
<path d="M20.6518 27.3188H13.9851V20.6521H20.6518V27.3188Z" fill="#ED1555"/>
<path d="M13.9851 27.3188H7.31848V20.6521H13.9851V27.3188Z" fill="#5EC688"/>
<path d="M7.31852 27.3188H0.651855V20.6521H7.31852V27.3188Z" fill="#F6F010"/>
<path d="M47.3185 20.6521H40.6519V13.9854H47.3185V20.6521Z" fill="#5EC688"/>
<path d="M33.9851 20.6521H27.3185V13.9854H33.9851V20.6521Z" fill="#5EC688"/>
<path d="M27.3185 20.6521H20.6519V13.9854H27.3185V20.6521Z" fill="#5EC688"/>
<path d="M13.9851 20.6521H7.31848V13.9854H13.9851V20.6521Z" fill="#5EC688"/>
<path d="M47.3185 13.9854H40.6519V7.31877H47.3185V13.9854Z" fill="#5EC688"/>
<path d="M40.6518 13.9854H33.9851V7.31877H40.6518V13.9854Z" fill="#ED1555"/>
<path d="M33.9851 13.9854H27.3185V7.31877H33.9851V13.9854Z" fill="#5EC688"/>
<path d="M27.3185 13.9854H20.6519V7.31877H27.3185V13.9854Z" fill="#5EC688"/>
<path d="M20.6518 13.9854H13.9851V7.31877H20.6518V13.9854Z" fill="#ED1555"/>
<path d="M13.9851 13.9854H7.31848V7.31877H13.9851V13.9854Z" fill="#5EC688"/>
<path d="M40.6518 7.31876H33.9851V0.652098H40.6518V7.31876Z" fill="#ED1555"/>
<path d="M20.6518 7.31876H13.9851V0.652098H20.6518V7.31876Z" fill="#ED1555"/>
</svg>
