<svg width="75" height="61" viewBox="0 0 75 61" fill="none" xmlns="http://www.w3.org/2000/svg">
<path d="M54.1025 60.9854H47.4358V54.3188H54.1025V60.9854Z" fill="#5EC688"/>
<path d="M27.4358 60.9854H20.7692V54.3188H27.4358V60.9854Z" fill="#5EC688"/>
<path d="M60.7692 54.3188H54.1025V47.6521H60.7692V54.3188Z" fill="#5EC688"/>
<path d="M20.7692 54.3188H14.1025V47.6521H20.7692V54.3188Z" fill="#5EC688"/>
<path d="M60.7692 47.6521H54.1025V40.9854H60.7692V47.6521Z" fill="#5EC688"/>
<path d="M20.7692 47.6521H14.1025V40.9854H20.7692V47.6521Z" fill="#5EC688"/>
<path d="M60.7692 40.9854H54.1025V34.3188H60.7692V40.9854Z" fill="#ED1555"/>
<path d="M54.1025 40.9854H47.4358V34.3188H54.1025V40.9854Z" fill="#ED1555"/>
<path d="M47.4358 40.9854H40.7692V34.3188H47.4358V40.9854Z" fill="#548AD0"/>
<path d="M40.7692 40.9854H34.1025V34.3188H40.7692V40.9854Z" fill="#548AD0"/>
<path d="M34.1025 40.9854H27.4358V34.3188H34.1025V40.9854Z" fill="#548AD0"/>
<path d="M27.4358 40.9854H20.7692V34.3188H27.4358V40.9854Z" fill="#ED1555"/>
<path d="M20.7692 40.9854H14.1025V34.3188H20.7692V40.9854Z" fill="#ED1555"/>
<path d="M7.43583 40.9854H0.769165V34.3188H7.43583V40.9854Z" fill="#ED1555"/>
<path d="M60.7692 34.3188H54.1025V27.6521H60.7692V34.3188Z" fill="#ED1555"/>
<path d="M54.1025 34.3188H47.4358V27.6521H54.1025V34.3188Z" fill="#548AD0"/>
<path d="M27.4358 34.3188H20.7692V27.6521H27.4358V34.3188Z" fill="#548AD0"/>
<path d="M20.7692 34.3188H14.1025V27.6521H20.7692V34.3188Z" fill="#ED1555"/>
<path d="M7.43583 34.3188H0.769165V27.6521H7.43583V34.3188Z" fill="#ED1555"/>
<path d="M67.4358 27.6521H60.7692V20.9854H67.4358V27.6521Z" fill="#ED1555"/>
<path d="M60.7692 27.6521H54.1025V20.9854H60.7692V27.6521Z" fill="#ED1555"/>
<path d="M54.1025 27.6521H47.4358V20.9854H54.1025V27.6521Z" fill="#ED1555"/>
<path d="M47.4358 27.6521H40.7692V20.9854H47.4358V27.6521Z" fill="#ED1555"/>
<path d="M40.7692 27.6521H34.1025V20.9854H40.7692V27.6521Z" fill="#ED1555"/>
<path d="M34.1025 27.6521H27.4358V20.9854H34.1025V27.6521Z" fill="#ED1555"/>
<path d="M27.4358 27.6521H20.7692V20.9854H27.4358V27.6521Z" fill="#ED1555"/>
<path d="M20.7692 27.6521H14.1025V20.9854H20.7692V27.6521Z" fill="#ED1555"/>
<path d="M14.1025 27.6521H7.43579V20.9854H14.1025V27.6521Z" fill="#ED1555"/>
<path d="M7.43583 27.6521H0.769165V20.9854H7.43583V27.6521Z" fill="#ED1555"/>
<path d="M74.1025 20.9854H67.4358V14.3188H74.1025V20.9854Z" fill="#ED1555"/>
<path d="M67.4358 20.9854H60.7692V14.3188H67.4358V20.9854Z" fill="#ED1555"/>
<path d="M60.7692 20.9854H54.1025V14.3188H60.7692V20.9854Z" fill="#548AD0"/>
<path d="M54.1025 20.9854H47.4358V14.3188H54.1025V20.9854Z" fill="#ED1555"/>
<path d="M27.4358 20.9854H20.7692V14.3188H27.4358V20.9854Z" fill="#ED1555"/>
<path d="M20.7692 20.9854H14.1025V14.3188H20.7692V20.9854Z" fill="#548AD0"/>
<path d="M14.1025 20.9854H7.43579V14.3188H14.1025V20.9854Z" fill="#ED1555"/>
<path d="M74.1025 14.3188H67.4358V7.65209H74.1025V14.3188Z" fill="#ED1555"/>
<path d="M60.7692 14.3188H54.1025V7.65209H60.7692V14.3188Z" fill="#548AD0"/>
<path d="M54.1025 14.3188H47.4358V7.65209H54.1025V14.3188Z" fill="#548AD0"/>
<path d="M47.4358 14.3188H40.7692V7.65209H47.4358V14.3188Z" fill="#548AD0"/>
<path d="M40.7692 14.3188H34.1025V7.65209H40.7692V14.3188Z" fill="#548AD0"/>
<path d="M34.1025 14.3188H27.4358V7.65209H34.1025V14.3188Z" fill="#548AD0"/>
<path d="M27.4358 14.3188H20.7692V7.65209H27.4358V14.3188Z" fill="#548AD0"/>
<path d="M20.7692 14.3188H14.1025V7.65209H20.7692V14.3188Z" fill="#548AD0"/>
<path d="M74.1025 7.65208H67.4358V0.985288H74.1025V7.65208Z" fill="#ED1555"/>
<path d="M54.1025 7.65208H47.4358V0.985288H54.1025V7.65208Z" fill="#548AD0"/>
<path d="M40.7692 7.65208H34.1025V0.985288H40.7692V7.65208Z" fill="#548AD0"/>
<path d="M27.4358 7.65208H20.7692V0.985288H27.4358V7.65208Z" fill="#548AD0"/>
</svg>
