<svg width="67" height="61" viewBox="0 0 67 61" fill="none" xmlns="http://www.w3.org/2000/svg">
<path d="M66.8838 60.9854H60.2172V54.3188H66.8838V60.9854Z" fill="#ED1555"/>
<path d="M46.8838 60.9854H40.2172V54.3188H46.8838V60.9854Z" fill="#ED1555"/>
<path d="M26.8838 60.9854H20.2172V54.3188H26.8838V60.9854Z" fill="#ED1555"/>
<path d="M6.88383 60.9854H0.217163V54.3188H6.88383V60.9854Z" fill="#ED1555"/>
<path d="M66.8838 54.3188H60.2172V47.6521H66.8838V54.3188Z" fill="#ED1555"/>
<path d="M46.8838 54.3188H40.2172V47.6521H46.8838V54.3188Z" fill="#ED1555"/>
<path d="M26.8838 54.3188H20.2172V47.6521H26.8838V54.3188Z" fill="#ED1555"/>
<path d="M6.88383 54.3188H0.217163V47.6521H6.88383V54.3188Z" fill="#ED1555"/>
<path d="M60.2172 47.6521H53.5505V40.9854H60.2172V47.6521Z" fill="#ED1555"/>
<path d="M53.5505 47.6521H46.8838V40.9854H53.5505V47.6521Z" fill="#ED1555"/>
<path d="M46.8838 47.6521H40.2172V40.9854H46.8838V47.6521Z" fill="#ED1555"/>
<path d="M40.2172 47.6521H33.5505V40.9854H40.2172V47.6521Z" fill="#ED1555"/>
<path d="M33.5505 47.6521H26.8838V40.9854H33.5505V47.6521Z" fill="#ED1555"/>
<path d="M26.8838 47.6521H20.2172V40.9854H26.8838V47.6521Z" fill="#ED1555"/>
<path d="M20.2172 47.6521H13.5505V40.9854H20.2172V47.6521Z" fill="#ED1555"/>
<path d="M13.5505 47.6521H6.88379V40.9854H13.5505V47.6521Z" fill="#ED1555"/>
<path d="M60.2172 40.9854H53.5505V34.3198H60.2172V40.9854Z" fill="#5EC688"/>
<path d="M13.5505 40.9854H6.88379V34.3198H13.5505V40.9854Z" fill="#5EC688"/>
<path d="M60.2172 34.3198H53.5505V27.6532H60.2172V34.3198Z" fill="#5EC688"/>
<path d="M53.5505 34.3198H46.8838V27.6532H53.5505V34.3198Z" fill="#5EC688"/>
<path d="M46.8838 34.3198H40.2172V27.6532H46.8838V34.3198Z" fill="#5EC688"/>
<path d="M40.2172 34.3198H33.5505V27.6532H40.2172V34.3198Z" fill="#5EC688"/>
<path d="M33.5505 34.3198H26.8838V27.6532H33.5505V34.3198Z" fill="#5EC688"/>
<path d="M26.8838 34.3198H20.2172V27.6532H26.8838V34.3198Z" fill="#5EC688"/>
<path d="M20.2172 34.3198H13.5505V27.6532H20.2172V34.3198Z" fill="#5EC688"/>
<path d="M13.5505 34.3198H6.88379V27.6532H13.5505V34.3198Z" fill="#5EC688"/>
<path d="M60.2172 27.6532H53.5505V20.9865H60.2172V27.6532Z" fill="#5EC688"/>
<path d="M53.5505 27.6532H46.8838V20.9865H53.5505V27.6532Z" fill="#5EC688"/>
<path d="M40.2172 27.6532H33.5505V20.9865H40.2172V27.6532Z" fill="#F6F010"/>
<path d="M33.5505 27.6532H26.8838V20.9865H33.5505V27.6532Z" fill="#F6F010"/>
<path d="M20.2172 27.6532H13.5505V20.9865H20.2172V27.6532Z" fill="#5EC688"/>
<path d="M13.5505 27.6532H6.88379V20.9865H13.5505V27.6532Z" fill="#5EC688"/>
<path d="M53.5505 20.9865H46.8838V14.3198H53.5505V20.9865Z" fill="#5EC688"/>
<path d="M46.8838 20.9865H40.2172V14.3198H46.8838V20.9865Z" fill="#F6F010"/>
<path d="M40.2172 20.9865H33.5505V14.3198H40.2172V20.9865Z" fill="#F6F010"/>
<path d="M33.5505 20.9865H26.8838V14.3198H33.5505V20.9865Z" fill="#F6F010"/>
<path d="M26.8838 20.9865H20.2172V14.3198H26.8838V20.9865Z" fill="#F6F010"/>
<path d="M20.2172 20.9865H13.5505V14.3198H20.2172V20.9865Z" fill="#5EC688"/>
<path d="M46.8838 14.3198H40.2172V7.65317H46.8838V14.3198Z" fill="#F6F010"/>
<path d="M40.2172 14.3198H33.5505V7.65317H40.2172V14.3198Z" fill="#F6F010"/>
<path d="M33.5505 14.3198H26.8838V7.65317H33.5505V14.3198Z" fill="#F6F010"/>
<path d="M26.8838 14.3198H20.2172V7.65317H26.8838V14.3198Z" fill="#F6F010"/>
<path d="M40.2172 7.65316H33.5505V0.986632H40.2172V7.65316Z" fill="#F6F010"/>
<path d="M33.5505 7.65316H26.8838V0.986632H33.5505V7.65316Z" fill="#F6F010"/>
</svg>
