<svg xmlns="http://www.w3.org/2000/svg" viewBox="0 -0.5 288 48" shape-rendering="crispEdges">
<metadata>Made with Pixels to Svg https://codepen.io/shshaw/pen/XbxvNj</metadata>
<path stroke="#a7acba" d="M146 12h1M102 14h1M243 14h1M55 15h2M99 15h2M55 16h2M99 16h2M197 16h1M53 17h2M196 17h2M10 18h2M53 18h3M8 19h4M54 19h2M151 19h1M153 19h1M8 20h3M150 20h2M9 21h4M150 21h2M250 21h2M254 21h2M10 22h3M105 22h2M250 22h6M7 23h1M59 23h2M104 23h3M203 23h2M206 23h2M252 23h3M59 24h2M62 24h2M67 24h1M104 24h2M107 24h2M203 24h5M211 24h1M253 24h2M14 25h2M58 25h6M107 25h2M114 25h1M160 25h2M205 25h3M249 25h2M14 26h3M20 26h2M58 26h2M61 26h2M157 26h2M160 26h3M204 26h5M249 26h2M15 27h4M20 27h2M61 27h2M67 27h2M112 27h3M157 27h6M164 27h2M204 27h2M207 27h2M262 27h2M13 28h6M68 28h1M111 28h5M156 28h6M164 28h2M256 28h2M261 28h3M13 29h5M22 29h2M64 29h2M111 29h7M156 29h7M255 29h3M261 29h2M14 30h3M21 30h3M56 30h1M64 30h3M68 30h2M111 30h7M158 30h2M161 30h2M216 30h3M255 30h4M21 31h2M62 31h2M65 31h5M114 31h5M155 31h1M215 31h4M256 31h5M262 31h3M10 32h2M18 32h3M62 32h8M109 32h2M113 32h6M208 32h2M212 32h2M215 32h3M255 32h6M262 32h4M10 33h2M17 33h5M24 33h2M63 33h2M66 33h5M109 33h2M113 33h2M116 33h2M170 33h3M207 33h4M212 33h3M252 33h2M255 33h2M258 33h4M263 33h3M17 34h9M67 34h5M164 34h4M169 34h4M207 34h8M251 34h3M258 34h3M18 35h2M21 35h4M66 35h6M162 35h6M169 35h3M207 35h2M210 35h7M218 35h2M251 35h2M20 36h6M66 36h6M122 36h3M162 36h6M210 36h2M213 36h7M260 36h3M264 36h3M20 37h7M68 37h3M117 37h4M122 37h3M162 37h6M169 37h3M213 37h5M260 37h8M20 38h7M74 38h2M116 38h9M162 38h10M213 38h4M262 38h8M22 39h4M71 39h2M74 39h2M116 39h8M165 39h7M214 39h2M261 39h6M268 39h2M70 40h3M118 40h3M165 40h4M261 40h2M264 40h1" />
</svg>