<?xml version="1.0" encoding="utf-8"?>
<!-- Generator: Adobe Illustrator 25.4.0, SVG Export Plug-In . SVG Version: 6.00 Build 0)  -->
<svg version="1.1" id="Layer_1" xmlns="http://www.w3.org/2000/svg" xmlns:xlink="http://www.w3.org/1999/xlink" x="0px" y="0px"
	 viewBox="0 0 810 640" style="enable-background:new 0 0 810 640;" xml:space="preserve">
<style type="text/css">
	.st0{fill:#83545C;}
	.st1{fill:#523C4E;}
	.st2{fill:#2A2A3A;}
	.st3{fill:#B17E56;}
	.st4{fill:#FECB68;}
	.st5{fill:#B6D24B;}
	.st6{fill:#80AB40;}
	.st7{fill:#D8BA8A;}
	.st8{fill:#FEF7BF;}
	.st9{fill:#D34E52;}
	.st10{fill:#5C7A56;}
	.st11{fill:#3E5442;}
	.st12{fill:#8ACFB9;}
	.st13{fill:#55A793;}
</style>
<g>
	<path class="st0" d="M769.9,640c-6.7,0-13.3,0-20,0c0-3.2,0-6.5,0-9.7c-23.7,0-46.6,0-70,0c0,3.4,0,6.6,0,9.7c-6.7,0-13.3,0-20,0
		c0-10,0-20,0-30c0-6.6,0-13.1,0-20.2c-7,0-13.3,0-19.5,0c0-3.5,0-6.6,0-10.1c6.7,0,12.9,0,19.3,0c0.2-3.4,0.3-6.3,0.5-9.7
		c6.8,0,13.2,0,19.6,0c0.1,3.2,0.2,6.5,0.3,9.9c13.7,0,26.7,0,39.8,0c9.9,0,19.8,0,30.1,0c0-3.6,0-6.5,0-10c3.6,0,6.7,0,9.8,0
		c3.4,0.1,6.7,0.1,10.1,0.2C769.9,593.4,769.9,616.7,769.9,640z M680.1,619.6c23.5,0,46.5,0,69.5,0c0-3.3,0-6.2,0-9.2
		c-23.3,0-46.3,0-69.5,0C680.1,613.6,680.1,616.4,680.1,619.6z M749.5,599.7c0-3.5,0-6.4,0-9.3c-8.5-1.1-65.9-0.7-69.2,0.4
		c0,3,0,5.9,0,8.9C703.5,599.7,726.4,599.7,749.5,599.7z"/>
	<path class="st1" d="M769.9,640c0-23.3,0-46.6,0-69.9c3.3,0,6.6,0,9.9,0c0.1,3.2,0.2,6.5,0.3,9.6c6.9,0,13.1,0,19.8,0
		c0-3.4,0-6.6,0-9.7c3.3,0,6.6,0,9.9,0c0,23.3,0,46.7,0,70c-3.3,0-6.7,0-10,0c0-3.2,0-6.5,0-9.7c-7.1,0-13.3,0-20,0
		c0,3.4,0,6.5,0,9.7C776.5,640,773.2,640,769.9,640z M799.7,590.4c-6.8,0-13.2,0-19.5,0c0,3.3,0,6.2,0,9.2c6.7,0,13,0,19.5,0
		C799.7,596.4,799.7,593.6,799.7,590.4z M780.1,619.7c6.8,0,13,0,19.3,0c0-3.3,0-6.3,0-9.4c-6.6,0-12.8,0-19.3,0
		C780.1,613.5,780.1,616.4,780.1,619.7z"/>
	<path class="st1" d="M270,610c0,10,0,20,0,30c-6.7,0-13.3,0-20,0c0-3.2,0-6.5,0-9.7c-23.7,0-46.6,0-70,0c0,3.4,0,6.6,0,9.7
		c-6.7,0-13.3,0-20,0c0-10,0-19.9,0-29.9c6.7,0,13.4,0,20.1,0c0,3.1,0,6.2,0,9.6c23.5,0,46.4,0,69.9,0c0-3.4,0-6.5,0-9.6
		C256.6,610.1,263.3,610.1,270,610z"/>
	<path class="st1" d="M539.9,640c0-10,0-20,0-30c6.7,0,13.4,0.1,20.1,0.1c0,3.1,0,6.2,0,9.6c23.5,0,46.4,0,69.9,0c0-3.4,0-6.5,0-9.6
		c6.7,0,13.4,0,20.1,0c0,10,0,19.9,0,29.9c-6.7,0-13.3,0-20,0c0-3.2,0-6.5,0-10c-20.6,0-40.3,0-60.1,0c-6.5,0-13.1,0-19.9,0
		c0,3.7,0,6.9,0,10C546.6,640,543.2,640,539.9,640z"/>
	<path class="st2" d="M159.9,610.1c0,10,0,19.9,0,29.9c-10,0-20,0-30,0c0-3.3,0-6.6-0.1-9.9c0-6.6,0.1-13.3,0.1-19.9
		C140,610.1,149.9,610.1,159.9,610.1z"/>
	<path class="st1" d="M679.9,640c0-3.1,0-6.2,0-9.7c23.4,0,46.2,0,70,0c0,3.2,0,6.4,0,9.7C726.5,640,703.2,640,679.9,640z"/>
	<path class="st2" d="M180,640c0-3.1,0-6.2,0-9.7c23.4,0,46.2,0,70,0c0,3.2,0,6.4,0,9.7C226.6,640,203.3,640,180,640z"/>
	<path class="st2" d="M569.8,630c19.7,0,39.5,0,60.1,0c0,3.5,0,6.7,0,10c-20,0-40,0-60,0C569.9,636.7,569.8,633.4,569.8,630z"/>
	<path class="st2" d="M649.9,640c0-10,0-19.9,0-29.9c3.3,0,6.6-0.1,9.9-0.1c0,10,0,20,0,30C656.5,640,653.2,640,649.9,640z"/>
	<path class="st2" d="M779.9,640c0-3.1,0-6.2,0-9.7c6.7,0,12.9,0,20,0c0,3.2,0,6.4,0,9.7C793.2,640,786.5,640,779.9,640z"/>
	<path class="st3" d="M39.8,630c0.1,3.3,0.1,6.7,0.2,10c-6.7,0-13.3,0-20,0c0.1-3.3,0.1-6.7,0.2-10C26.7,630,33.3,630,39.8,630z"/>
	<path class="st2" d="M569.8,630c0,3.3,0.1,6.6,0.1,10c-6.7,0-13.3,0-20,0c0-3.1,0-6.2,0-10C556.7,630,563.3,630,569.8,630z"/>
	<path class="st1" d="M50,640c0.1-3.3,0.1-6.6,0.2-10c3.3,0,6.6,0,9.9,0l0,0c0,3.3,0,6.7,0,10C56.6,640,53.3,640,50,640z"/>
	<path class="st0" d="M60,640c0-3.3,0-6.7,0-10c3.3,0,6.7,0,10,0c0,3.3,0,6.7,0,10C66.6,640,63.3,640,60,640z"/>
	<path class="st1" d="M70,640c0-3.3,0-6.7,0-10c0,0,0,0,0,0c3.3,0,6.7,0,10,0l0,0c0,3.3,0,6.7,0,10C76.6,640,73.3,640,70,640z"/>
	<path class="st0" d="M80,640c0-3.3,0-6.7,0-10c3.3,0,6.7,0,10,0c0,3.3,0,6.7,0,10C86.6,640,83.3,640,80,640z"/>
	<path class="st1" d="M90,640c0-3.3,0-6.7,0-10l0,0c3.3,0,6.7,0,10,0l0,0c0,3.3,0,6.7,0,10C96.6,640,93.3,640,90,640z"/>
	<path class="st0" d="M100,640c0-3.3,0-6.7,0-10c3.3,0,6.7,0,10,0c0,3.3,0,6.7,0,10C106.6,640,103.3,640,100,640z"/>
	<path class="st1" d="M110,640c0-3.3,0-6.7,0-10l0,0c3.3,0,6.7,0,10,0l0,0c0,3.3,0,6.7,0,10C116.6,640,113.3,640,110,640z"/>
	<path class="st0" d="M120,640c0-3.3,0-6.7,0-10c3.3,0,6.6,0,9.9,0.1c0,3.3,0,6.6,0.1,9.9C126.6,640,123.3,640,120,640z"/>
	<path class="st3" d="M749.7,520c0,6.7,0,13.4,0,20.1c-6.5,0-13.1,0-19.5,0c0,3.7,0,6.6,0,10c3.5,0,6.6,0,9.7,0c0,3.3,0,6.6,0,9.9
		c-3.3,0-6.6,0.1-10,0.1c-3.2-0.1-6.5-0.2-9.8-0.3c-0.2-3.5-0.3-6.4-0.4-9.8c-3.5,0-6.7,0-9.8,0c-0.1-3.2-0.1-6.5-0.2-10.1
		c-16.9,0-33.1,0-49.8,0c0-3.6,0-6.7,0-9.8c3.2,0,6.4,0,10,0c0-3.8,0-6.9,0-10c3.2,0,6.4,0,10,0c0-3.8,0-6.9,0-10c3.2,0,6.4,0,10,0
		c0-3.8,0-6.9,0-10c3.2,0,6.4,0,10,0c0-3.8,0-6.9,0-10c3.2,0,6.4,0,10,0c0-3.9,0-7,0-10.1c0-73.3,0-146.6,0-219.9
		c6.7,0,13.4,0,20.1-0.1c3.1,0,6.3,0,9.6,0c0,3.4,0,6.3,0,9.9c-3,0-6.1,0-9.4,0c0,70.3,0,140,0,210.1c6.4,0,12.7,0,19.5,0
		c0,10.3,0,20.2,0,30.2c-9.8,0-19.5,0-29.4,0c0,3.6,0,6.7,0,9.9C730.4,520,740.1,520,749.7,520z M730.2,490.2c0,3.5,0,6.4,0,9.3
		c3.3,0,6.3,0,9.3,0c0-3.3,0-6.2,0-9.3C736.3,490.2,733.4,490.2,730.2,490.2z M700.3,510.2c0,3.2,0,6.3,0,9.5c3.2,0,6.1,0,9.2,0
		c0-3.3,0-6.3,0-9.5C706.3,510.2,703.6,510.2,700.3,510.2z"/>
	<path class="st4" d="M730,109.9c3,0,6,0,9.7,0c0,6.6,0,13,0,19.8c3.6,0.2,6.5,0.3,9.8,0.4c0,19.8,0,39.5,0,59.6
		c-3.1,0.2-6,0.3-9.4,0.5c0,3.1,0,6,0,9.5c-3.7,0.1-7,0.2-10.2,0.3c-6.6,0-13.3,0-19.9,0c-3.2,0-6.4,0-10.1,0c0-3.9,0-7,0-10.1
		c0-26.5,0-53.1,0-79.8c-3.6-0.2-6.5-0.3-10.1-0.5c0-6.7,0-13.1,0-19.9c-3.6,0-6.5,0-10,0c0-6.8,0-13.2,0-20c-3.6,0-6.5,0-10,0
		c0-6.8,0-13.2,0-20c-3.6,0-6.5,0-10,0c0-6.8,0-13.2,0-20c-3.6,0-6.5,0-9.8,0c0-6.9,0-13.4,0-19.8l-0.1-0.1c6.7,0,13.4,0,20.1,0
		c3.1,0,6.2,0,9.7,0c0.2,3.5,0.3,6.4,0.5,9.8c3.2,0.2,6.2,0.3,9.5,0.5c0.2,3.2,0.3,6.1,0.5,9.5c3.1,0,6,0,9.6,0c0,6.8,0,13.2,0,20
		c3.5,0,6.5,0,10,0c0,6.8,0,13.2,0,20c3.5,0.2,6.5,0.3,10,0.4c0,6.5,0,12.8,0,19.5c3.5,0.2,6.5,0.3,10,0.5c0,3.4,0,6.6,0,9.9
		c-6.5,0-13.1,0-19.6,0c0,10.3,0,19.9,0,29.6c6.6,0,13,0,19.8,0C730,122.8,730,116.4,730,109.9z"/>
	<path class="st3" d="M730,109.9c0,6.4,0,12.9,0,19.7c-6.8,0-13.2,0-19.8,0c0-9.7,0-19.2,0-29.6c6.5,0,13,0,19.6,0
		C729.8,103.4,729.9,106.6,730,109.9z"/>
	<path class="st5" d="M799.9,570c0,3.1,0,6.3,0,9.7c-6.7,0-13,0-19.8,0c-0.1-3.1-0.2-6.3-0.3-9.6c0-3.2,0-6.5,0-9.9
		c-3.5-0.2-6.5-0.3-10-0.5c0-3.4,0-6.5,0-9.6c6.4,0,12.9,0,19.9,0c0,3.2,0,6.3,0,9.7c3.5,0,6.4,0,10.2,0
		C799.9,563.5,799.9,566.8,799.9,570z"/>
	<path class="st3" d="M729.7,220c0,10,0,20.1,0,30.1c-6.6,0-13.3,0-19.9-0.1c0.1-10,0.1-20,0.2-30C716.6,220,723.1,220,729.7,220z"
		/>
	<path class="st6" d="M769.8,550.1c0,3.1,0,6.2,0,9.6c3.5,0.2,6.4,0.3,10,0.5c0,3.4,0,6.6,0,9.9c-3.3,0-6.6,0-9.9,0
		c-3.4-0.1-6.7-0.1-10.1-0.2c0-3.2,0-6.4,0-9.9c-7.2,0-13.6,0-20,0c0-3.3,0-6.6,0-9.9c3.3,0,6.7-0.1,10-0.1
		C756.5,550,763.2,550.1,769.8,550.1z"/>
	<path class="st0" d="M729.7,220c-6.6,0-13.1,0-19.7,0c0-6.6-0.1-13.3-0.1-19.9c6.6,0,13.3,0,19.9,0
		C729.8,206.7,729.7,213.3,729.7,220z"/>
	<path class="st0" d="M749.7,520c-9.7,0-19.3,0-29.4,0c0-3.3,0-6.3,0-9.9c9.8,0,19.6,0,29.4,0C749.7,513.3,749.7,516.7,749.7,520z"
		/>
	<path class="st0" d="M709.8,250c6.6,0,13.3,0,19.9,0.1c0.1,3.3,0.2,6.6,0.2,9.9c-6.7,0-13.4,0-20.1,0.1c0,0,0,0,0,0
		C709.8,256.7,709.8,253.3,709.8,250C709.8,249.9,709.8,250,709.8,250z"/>
	<path class="st0" d="M749.9,549.9c-3.3,0-6.7,0.1-10,0.1c-3.1,0-6.2,0-9.7,0c0-3.4,0-6.3,0-10c6.4,0,13,0,19.5,0
		C749.8,543.3,749.8,546.6,749.9,549.9z"/>
	<path class="st7" d="M669.9,9.9c-6.7,0-13.4,0-20.1,0c0-3.3,0-6.5,0-9.8c6.7,0,13.4,0,20.1,0C669.9,3.4,669.9,6.7,669.9,9.9z"/>
	<path class="st3" d="M49.9,610c-3.3,0-6.6,0-9.9,0c-6.7,0-13.4,0-20.1,0c-6.4,0-12.9,0-19.8,0c0-7,0-13.5,0-20.1
		c13.3,0,26.6,0,39.9,0l-0.1,0c0,3.2,0,6.5,0,9.7c7,0,13.3,0,19.9,0c0-3.5,0-6.6,0-9.7l-0.1,0.1c6.6,0,13.1,0,20.1,0
		c0-3.8,0-6.9,0-10.1l-0.1,0.1c3.3,0,6.5,0,9.9,0c0.2,3.8,0.3,6.7,0.5,9.7c13.4,0,26.3,0,39.3,0c0-3.3,0-6.3,0-9.9
		c-10,0-19.6,0-29.6,0c0-3.6,0-6.8,0-9.9l-0.1,0.1c6.6,0,13.1,0,20.1,0c0-3.8,0-6.9,0-10c0-3.2,0-6.4,0-9.8c3.8,0,6.9,0,10,0
		c0.1,6.5,0.1,13.1,0.2,19.5c3.6,0,6.5,0,9.7,0c0.2-3.4,0.3-6.4,0.5-9.9c3.5,0,6.4,0,9.7,0c0-3.6,0-6.7,0-9.8c3.3,0,6.6,0,10,0
		c13.2,0,26.5,0,39.7,0c0-3.7,0-6.7,0-10.1c-10.2,0-19.9,0-29.7,0c0.1-3.2,0.3-6.5,0.4-10.2c3.5,0,6.4,0,9.5,0
		c0.2-3.4,0.3-6.3,0.5-9.7c3.5,0,6.6,0,9.7,0c6.6,0,13.2,0,19.7,0c0-3.8,0-6.7,0-10.1c-3.5,0-6.6,0-9.7,0c0.1-3.2,0.2-6.4,0.4-10.1
		c3.5,0,6.4,0,9.9,0c0-3.5,0-6.5,0-10c3.5,0,6.4,0,9.7,0c0-3.6,0-6.7,0-9.8c3.4,0,6.8-0.1,10.2-0.1c3.3,0,6.6,0,9.9,0
		c10,0,20,0,30.1,0c3.3,0,6.6-0.1,9.9-0.1c3.4,0.1,6.7,0.2,10.1,0.3c0,10-0.1,19.9-0.1,29.9c-3.2,0-6.4,0-9.6,0c0,3.7,0,6.6,0,10
		c3.4,0,6.5,0,9.6,0c0,20,0,40,0.1,60c-9.9,0.1-19.8,0.1-29.7,0.2c0,3.6,0,6.5,0,9.9c13.5,0,26.6,0,39.7,0l0,0c0,3.2,0,6.4,0,10
		c3.8,0,6.9,0,10,0l0,0c0,3.3,0,6.6,0,9.9c-13.3,0.1-26.7,0.1-40,0.2c-6.7,0-13.4,0.1-20.1,0.1c-23.3,0-46.6,0-69.9,0
		c-6.7,0-13.4,0-20.1,0c-10,0-19.9,0-29.9,0C103.3,610.1,76.6,610.1,49.9,610z M269.6,519.7c0-3.5,0-6.4,0-9.3c-6.7,0-13,0-19.3,0
		c0,3.3,0,6.2,0,9.3C256.9,519.7,263.1,519.7,269.6,519.7z M229.8,540.5c-3.6,0-6.6,0-9.4,0c0,3.4,0,6.2,0,9.1c3.4,0,6.4,0,9.4,0
		C229.8,546.3,229.8,543.5,229.8,540.5z M140.1,589.6c3.5,0,6.5,0,9.5,0c0-3.3,0-6.2,0-9.1c-3.4,0-6.4,0-9.5,0
		C140.1,583.6,140.1,586.4,140.1,589.6z M249.6,589.8c0-3.4,0-6.4,0-9.5c-3.3,0-6.2,0-9.2,0c0,3.3,0,6.3,0,9.5
		C243.5,589.8,246.3,589.8,249.6,589.8z"/>
	<path class="st4" d="M20.1,100.1c0-3.1,0-6.2,0-9.9c3.2,0,6.1,0,9.7,0c0-6.8,0-13.2,0-20c3.5,0,6.5,0,10,0c0-6.8,0-13.2,0-19.9
		c3.5-0.2,6.5-0.3,10-0.5c0-6.5,0-12.8,0-19.5c3.5-0.2,6.5-0.3,9.9-0.5c0.2-3.2,0.3-6.2,0.5-9.5c3.2-0.2,6.1-0.3,9.5-0.5
		c0-3.1,0-6,0-9.5c3.7-0.1,6.9-0.2,10.2-0.3c6.7,0,13.4,0,20.1,0L100,10c0,6.6,0,13.2,0,20.2c-3.7,0-6.7,0-10.2,0c0,6.8,0,13.2,0,20
		c-3.6,0-6.5,0-10,0c0,6.8,0,13.2,0,20c-3.6,0-6.5,0-10,0c0,6.8,0,13.2,0,20c-3.6,0-6.5,0-10,0c0,6.8,0,13.2,0,20
		c-3.6,0-6.5,0-9.7,0c0,26.9,0,53.3,0,79.7c0,3.2,0,6.4,0,10.1c-3.9,0-7,0-10.1,0c-6.6,0-13.3,0-19.9,0c-3.1,0-6.3,0-9.8,0
		c-0.2-3.4-0.3-6.4-0.4-9.8c-3.2-0.2-6.2-0.3-9.5-0.5c0-19.9,0-39.5,0-59.6c3.1,0,6,0,9.6,0c0-6.9,0-13.2,0-20.2c3.8,0,6.9,0,10,0
		c0,6.6,0,13.1,0,19.6c7.2,0,13.5,0,19.8,0c0-10,0-19.5,0-29.5C32.9,100.1,26.5,100.1,20.1,100.1z"/>
	<path class="st3" d="M20.1,470c-0.1-1.5-0.2-3-0.2-4.5c0-80.4,0-160.7,0-241.1c0-1.5,0.1-3,0.2-4.5c6.6,0,13.1,0,19.7,0
		c0.1,1.5,0.2,3,0.2,4.5c0,80.4,0,160.7,0,241.1c0,1.5-0.1,3-0.2,4.5C33.3,470,26.7,470,20.1,470z"/>
	<path class="st3" d="M0.1,580c0-20,0-40.1,0-60.1c13.3,0,26.6,0.1,39.9,0.1c-0.1,3.2-0.2,6.5-0.4,10.1c-6.8,0-13.1,0-19.7,0
		c0,6.9,0,13.3,0,19.7c0,3.4,0,6.7,0,10.1c-3.2,0-6.5,0-9.6,0c0,3.8,0,6.7,0,9.7c3.3,0,6.2,0,9.6,0c0-3.4,0-6.6,0-9.7
		c3.3,0,6.6,0,9.9,0c0.1,3.3,0.1,6.6,0.2,10c0,3.2,0,6.5,0,10.1C19.5,580,9.8,580,0.1,580z"/>
	<path class="st3" d="M0.1,510c0-9.8,0-19.5,0-30.1c6.7,0,13.2,0,19.8,0c6.7,0,13.4,0,20.2,0l-0.1,0c0,3.2,0,6.5,0,10.1
		c3.8,0,6.9,0,10,0c0,3.2,0,6.4,0,10c3.8,0,6.9,0,10,0c0,3.4,0,6.7,0,10.1l0.1,0C40.1,510.1,20.1,510.1,0.1,510z M19.7,499.7
		c0-3.4,0-6.3,0-9.3c-3.3,0-6.3,0-9.4,0c0,3.3,0,6.2,0,9.3C13.5,499.7,16.4,499.7,19.7,499.7z"/>
	<path class="st3" d="M20.1,100.1c6.4,0,12.8,0,19.6,0c0,10,0,19.5,0,29.5c-6.3,0-12.6,0-19.8,0c0-6.5,0-13.1,0-19.6
		C19.9,106.6,20,103.4,20.1,100.1z"/>
	<path class="st0" d="M0.1,510c20,0,40,0,59.9,0c0,3.2,0,6.4,0,10c-7.2,0-13.6,0-20,0c-13.3,0-26.6-0.1-39.9-0.1
		C0.1,516.7,0.1,513.3,0.1,510z"/>
	<path class="st0" d="M0.1,580c9.7,0,19.4,0,29.9,0c0-3.7,0-6.9,0-10.1c3.2,0,6.5,0,10.1,0c0,7.2,0,13.6,0,20c-13.3,0-26.6,0-39.9,0
		C0.1,586.7,0.1,583.3,0.1,580z"/>
	<path class="st0" d="M39.8,220c-6.6,0-13.1,0-19.7,0c0-6.6-0.1-13.3-0.1-19.9c6.6,0,13.3,0,19.9,0C39.9,206.7,39.9,213.3,39.8,220z
		"/>
	<path class="st0" d="M19.9,610c6.7,0,13.4,0,20.1,0c-0.1,6.6-0.2,13.3-0.2,19.9c-6.6,0-13.1,0-19.7,0C20.1,623.3,20,616.7,19.9,610
		z"/>
	<path class="st0" d="M40.1,479.9c-6.7,0-13.4,0-20.2,0c0.1-3.3,0.2-6.6,0.2-9.9c6.6,0,13.1,0,19.7,0
		C39.9,473.3,40,476.6,40.1,479.9z"/>
	<path class="st7" d="M100.1,9.9c-6.7,0-13.4,0-20.1,0c0-3.3,0-6.5,0-9.8c6.7,0,13.4,0,20.1,0C100,3.4,100,6.7,100.1,9.9z"/>
	<path class="st8" d="M100.1,9.9c0-3.3,0-6.5,0-9.8c1.7-0.1,3.3-0.2,5-0.2C285,0,464.9,0,644.9,0c1.7,0,3.3,0.1,5,0.2
		c0,3.3,0,6.5,0,9.8l0.1,0.1c-13.3,0-26.6,0.1-39.9,0.1c-13.4,0-26.8,0-40.2,0c-16.6,0-33.2,0-49.8,0c-13.4,0-26.8,0-40.2,0
		c-16.6,0-33.2,0-49.8,0c-13.4,0-26.8,0-40.2,0c-9.9,0-19.9,0-29.8,0c-13.4,0-26.8,0-40.2,0c-16.6,0-33.2,0-49.8,0
		c-13.4,0-26.8,0-40.2,0c-16.6,0-33.2,0-49.8,0c-13.4,0-26.8,0-40.2,0c-13.3,0-26.6-0.1-39.9-0.1L100.1,9.9z"/>
	<path class="st9" d="M290,579.9c0-20,0-40-0.1-60c0-3.3,0-6.6,0-10c0-10,0.1-19.9,0.1-29.9c3.3-0.1,6.6-0.1,9.9-0.2
		c3.4,0,6.8,0,10.1,0c6.7,0,13.3,0,20-0.1c6,0,12,0.1,18,0.1c30.6,0,61.3-0.1,91.9-0.1c6.7,0.1,13.3,0.1,20,0.2
		c0,20,0.1,39.9,0.1,59.9c0,3.3,0,6.6,0,10c0,10-0.1,20-0.1,30c-3.2,0-6.4,0-10,0c0,3.8,0,6.9,0,10l0,0c-3.2,0-6.4,0-10,0
		c0,3.9,0,6.9,0,10l0,0c-3.2,0-6.4,0-10,0c0,3.8,0,6.8,0,9.9c-6.5,0-12.9,0-20,0c0,3.6,0,6.6,0,10.1c-6.8,0-13.1,0-19.9,0
		c0,3.4,0,6.5,0,9.8c-10.2,0-19.7,0-29.9,0c0-3,0-6,0-9.6c-6.9,0-13.3,0-20.1,0c0-3.5,0-6.4,0-9.9c-7-0.1-13.5-0.2-20.1-0.3
		c0-3.2,0-6.3,0-9.9c-3.9,0-6.9,0-10,0l0,0c0-3.2,0-6.4,0-10c-3.9,0-6.9,0-10,0l0,0c0-3.2,0-6.4,0-10.1
		C296.1,579.9,293,579.9,290,579.9z M419.9,570c3.2,0,6.4,0,9.7,0c0-3.7,0-6.7,0-9.9c-3.5,0-6.6,0-9.7,0c0-3.4,0-6.7,0-10.1
		c3.2,0,6.5,0,9.8,0c0-3.6,0-6.5,0-9.6c-3.3,0-6.3,0-9.7,0c0,3.5,0,6.6,0,9.7c-3.2,0-6.4,0-9.7,0c0,3.7,0,6.7,0,9.9
		c3.5,0,6.6,0,9.7,0C420,563.3,420,566.7,419.9,570c-3.2,0.1-6.4,0.1-9.7,0.1c0,3.6,0,6.5,0,9.6c3.3,0,6.3,0,9.7,0
		C419.9,576.2,419.9,573.1,419.9,570z M330,570c0,3.2,0,6.5,0,9.8c3.6,0,6.5,0,9.6,0c0-3.3,0-6.3,0-9.7C336.1,570,333,570,330,570
		c-0.1-3.3-0.1-6.6-0.1-10c3.2,0,6.4,0,9.6,0c0-3.7,0-6.7,0-9.9c-3.5,0-6.6,0-9.7,0c0-3.2,0-6.5,0-9.8c-3.6,0-6.5,0-9.6,0
		c0,3.3,0,6.3,0,9.7c3.5,0,6.6,0,9.7,0c0,3.4,0,6.7,0,10.1c-3.2,0-6.4,0-9.7,0c0,3.7,0,6.6,0,9.9C323.8,570,326.9,570,330,570z
		 M390,510c-3.3,0-6.5,0-10.1,0c0-3.7,0-6.6,0-9.7c-3.4,0-6.5,0-10.1,0c0,3.4,0,6.4,0,9.8c-3.5,0-6.4,0-9.5,0c0,3.4,0,6.5,0,10.1
		c3.4,0,6.4,0,9.4,0c0,3.5,0,6.4,0,9.9c-6.7,0-13.1,0-19.4,0c0,10.2,0,19.8,0,29.9c6.6,0,13,0,19.8,0c0,7,0,13.5,0,20
		c-3.3,0-6.5,0-9.8,0c0,3.6,0,6.5,0,9.7c3.3,0,6.3,0,9.7,0c0-3.4,0-6.6,0-9.7c3.3,0,6.5,0,10.3,0c0-7,0-13.4,0-20.2
		c6.8,0,13.1,0,19.4,0c0-10.1,0-19.8,0-30c-6.7,0-13.1,0-19.4,0c0-3.5,0-6.4,0-9.9c3.3,0,6.4,0,9.7,0
		C389.9,516.2,389.9,513.1,390,510c3.2-0.1,6.4-0.1,9.7-0.1c0-3.6,0-6.5,0-9.7c-3.3,0-6.3,0-9.7,0C390,503.8,390,506.9,390,510z"/>
	<path class="st3" d="M459.9,580c0-10,0.1-20,0.1-30c6.5,0,13.1,0,19.6,0c0-3.7,0-6.6,0-10c-6.8,0-13.2,0-19.6,0
		c0-20-0.1-39.9-0.1-59.9c6.7-0.1,13.4-0.1,20.1-0.2c6.7,0,13.3,0,20,0.1c6.6,0,13.3,0,19.9,0c3.4,0,6.8,0.1,10.1,0.1
		c0,3.2,0,6.4,0,10.1c3.7,0,6.6,0,10.1,0c0,3.5,0,6.5,0,10c3.5,0,6.5,0,9.9,0c0,3.6,0,6.7,0,9.8c-3.3,0.1-6.5,0.2-9.8,0.3
		c0,3.5,0,6.4,0,9.8c6.8,0,13.2,0,19.7,0c3.2,0,6.5,0,10.1,0c0,3.7,0,6.7,0,9.8c3.5,0.2,6.5,0.3,10,0.5c0,3.5,0,6.4,0,9.5
		c3.5,0.2,6.5,0.3,10,0.5c0,3.5,0,6.4,0,9.7c3.6,0,6.7,0,9.8,0c0,3.2,0,6.4,0,10.3c3.7,0,6.8,0,10.2,0c0,3.5,0,6.4,0,9.7
		c3.5,0,6.6,0,9.7,0c3.2,0,6.4,0,10,0c0-3.9,0-7,0-10.1l-0.1,0.1c3.2,0,6.4,0,10.1,0c0-3.8,0-6.9,0-10c16.7,0,33.4,0,50,0.1
		c-0.1,3.2-0.2,6.5-0.3,10.1c-3.5,0-6.4,0-9.8,0c0,3.6,0,6.7,0,9.8c-6.4,0-12.9,0-19.6,0c-0.2,3.4-0.3,6.3-0.5,9.7
		c-6.4,0-12.6,0-19.3,0c0,3.5,0,6.5,0,10.1c6.3,0,12.5,0,19.5,0c0,7.1,0,13.6,0,20.2c-3.3,0-6.6,0.1-9.9,0.1c-6.7,0-13.4,0-20.1,0
		c-23.3,0-46.6,0-69.9,0c-6.7,0-13.4-0.1-20.1-0.1c-31.3,0-62.7,0-94,0c-2,0-4-0.1-6-0.2c0-3.3,0-6.6,0-9.9l0,0c3.2,0,6.4,0,10,0
		c0-3.8,0-6.9,0-10l0,0c3.2,0,6.4,0,10,0C459.9,586.2,459.9,583.1,459.9,580z M499.9,580.3c0,2.1,0,3.6,0,5.1
		c0.1,1.4,0.2,2.9,0.3,4.2c8.1,1,46,0.7,49.3-0.4c0-2.9,0-5.9,0-8.9C532.9,580.3,516.7,580.3,499.9,580.3z M490.2,549.7
		c6.7,0,12.9,0,19.3,0c0-3.3,0-6.3,0-9.4c-6.6,0-12.8,0-19.3,0C490.2,543.5,490.2,546.4,490.2,549.7z M529.6,510.3
		c-3.4,0-6.3,0-9.3,0c0,3.3,0,6.3,0,9.4c3.3,0,6.2,0,9.3,0C529.6,516.5,529.6,513.6,529.6,510.3z M480.4,580.2c0,3.2,0,6.3,0,9.5
		c3.2,0,6.1,0,9.2,0c0-3.3,0-6.3,0-9.5C486.4,580.2,483.6,580.2,480.4,580.2z M579.5,589.8c0-3.4,0-6.4,0-9.5c-3.3,0-6.2,0-9.2,0
		c0,3.3,0,6.3,0,9.5C573.4,589.8,576.2,589.8,579.5,589.8z"/>
	<path class="st0" d="M309.9,600c3.1,0,6.1,0,10,0c0,3.5,0,6.7,0,9.9c-3.3,0-6.6,0-9.9,0C310,606.6,309.9,603.3,309.9,600z"/>
	<path class="st0" d="M439.9,600c0,3.3,0,6.6,0,9.9c-3.3,0-6.6,0-9.9,0c0-3.1,0-6.1,0-9.9C433.5,600,436.7,600,439.9,600z"/>
	<path class="st6" d="M679.8,570c0-3.1,0-6.2,0-9.8c3.4,0,6.3,0,9.8,0c0.1-3.7,0.2-6.9,0.3-10.1c6.6,0,13.3-0.1,19.9-0.1
		c3.1,0,6.2,0,9.8,0c0.2,3.4,0.3,6.3,0.4,9.8c3.3,0.1,6.6,0.2,9.8,0.3c0,3.2,0,6.4,0,9.7c-3.7,0.2-6.6,0.3-10,0.5c0,3.5,0,6.6,0,9.6
		c-13.1,0-26.1,0-39.8,0C680,576.5,679.9,573.3,679.8,570z"/>
	<path class="st1" d="M680.1,619.6c0-3.2,0-6,0-9.2c23.2,0,46.1,0,69.5,0c0,3,0,5.9,0,9.2C726.5,619.6,703.5,619.6,680.1,619.6z"/>
	<path class="st1" d="M749.5,599.7c-23.1,0-46,0-69.2,0c0-3,0-5.9,0-8.9c3.3-1.1,60.7-1.5,69.2-0.4
		C749.5,593.3,749.5,596.2,749.5,599.7z"/>
	<path class="st5" d="M719.9,579.9c0-3.1,0-6.2,0-9.6c3.3-0.2,6.2-0.3,10-0.5c0-3.3,0-6.5,0-9.7c3.3,0,6.6-0.1,10-0.1
		c6.4,0,12.8,0,20,0c0,3.6,0,6.7,0,9.9c-3.1,0-6.2,0-9.8,0c0,3.5,0,6.4,0,10C739.7,579.9,729.8,579.9,719.9,579.9z"/>
	<path class="st2" d="M799.7,590.4c0,3.2,0,6,0,9.2c-6.5,0-12.8,0-19.5,0c0-3,0-5.9,0-9.2C786.5,590.4,792.8,590.4,799.7,590.4z"/>
	<path class="st2" d="M780.1,619.7c0-3.3,0-6.2,0-9.4c6.5,0,12.7,0,19.3,0c0,3,0,6,0,9.4C793.1,619.7,786.9,619.7,780.1,619.7z"/>
	<path class="st2" d="M180,610.1c23.3,0,46.6,0,69.9,0c0,3.1,0,6.2,0,9.6c-23.5,0-46.4,0-69.9,0C180,616.3,180,613.2,180,610.1z"/>
	<path class="st2" d="M559.9,610.1c23.3,0,46.6,0,69.9,0c0,3.1,0,6.2,0,9.6c-23.5,0-46.4,0-69.9,0
		C559.9,616.3,559.9,613.2,559.9,610.1z"/>
	<path class="st1" d="M49.9,610c26.7,0,53.4,0.1,80.1,0.1c0,6.6-0.1,13.3-0.1,19.9c-3.3,0-6.6,0-9.9-0.1l0,0c0-3.2,0-6.5,0-9.7
		c-3.8,0-6.6,0-10,0c0,3.4,0,6.6,0,9.7l0,0c-3.3,0-6.7,0-10,0l0,0c0-3.2,0-6.5,0-9.7c-3.8,0-6.6,0-10,0c0,3.4,0,6.6,0,9.7l0,0
		c-3.3,0-6.7,0-10,0l0,0c0-3.2,0-6.5,0-9.7c-3.8,0-6.6,0-10,0c0,3.4,0,6.6,0,9.7l0,0c-3.3,0-6.7,0-10,0l0,0c0-3.2,0-6.4,0-10.1
		c-3.7,0-6.8,0-9.9,0C50.1,616.7,50,613.3,49.9,610z"/>
	<path class="st0" d="M50.1,620c3.1,0,6.1,0,9.9,0c0,3.7,0,6.9,0,10.1c-3.3,0-6.6,0-9.9,0C50.1,626.7,50.1,623.3,50.1,620z"/>
	<path class="st0" d="M70,630c0-3.1,0-6.2,0-9.7c3.4,0,6.3,0,10,0c0,3.2,0,6.4,0,9.7C76.6,630,73.3,630,70,630z"/>
	<path class="st0" d="M90,630c0-3.1,0-6.2,0-9.7c3.4,0,6.3,0,10,0c0,3.2,0,6.4,0,9.7C96.6,630,93.3,630,90,630z"/>
	<path class="st0" d="M110,630c0-3.1,0-6.2,0-9.7c3.4,0,6.3,0,10,0c0,3.2,0,6.4,0,9.7C116.6,630,113.3,630,110,630z"/>
	<path class="st0" d="M709.8,549.9c-6.6,0-13.3,0.1-19.9,0.1c-16.7,0-33.4,0-50-0.1l0,0c0-3.2,0-6.5,0-10.1c3.6,0,6.6,0,10.1,0
		c0-3.4,0-6.5,0-9.9c3.7,0,6.8,0,9.9,0l0,0c0,3.1,0,6.2,0,9.8c16.7,0,32.9,0,49.8,0C709.7,543.5,709.8,546.7,709.8,549.9z"/>
	<path class="st0" d="M699.9,480.1c3.3-0.1,6.6-0.1,9.9-0.2c0,3.1,0,6.2,0,10.1c-3.5,0-6.8,0-10,0l0,0
		C699.9,486.7,699.9,483.4,699.9,480.1z"/>
	<path class="st0" d="M699.9,490c0,3.1,0,6.2,0,10c-3.6,0-6.8,0-10,0l0,0c0-3.2,0-6.5,0-10C693.7,490,696.8,490,699.9,490L699.9,490
		z"/>
	<path class="st0" d="M730.2,490.2c3.2,0,6.1,0,9.3,0c0,3.1,0,6,0,9.3c-3,0-6,0-9.3,0C730.2,496.6,730.2,493.7,730.2,490.2z"/>
	<path class="st0" d="M689.9,500c0,3.1,0,6.2,0,10c-3.6,0-6.8,0-10,0l0,0c0-3.2,0-6.5,0-10C683.7,500,686.8,500,689.9,500L689.9,500
		z"/>
	<path class="st0" d="M679.9,510c0,3.1,0,6.2,0,10c-3.6,0-6.8,0-10,0l0,0c0-3.2,0-6.5,0-10C673.7,510,676.8,510,679.9,510L679.9,510
		z"/>
	<path class="st0" d="M700.3,510.2c3.2,0,6,0,9.2,0c0,3.2,0,6.2,0,9.5c-3.1,0-5.9,0-9.2,0C700.3,516.5,700.3,513.4,700.3,510.2z"/>
	<path class="st0" d="M669.9,520c0,3.1,0,6.2,0,10c-3.6,0-6.8,0-10,0l0,0c0-3.2,0-6.5,0-10C663.7,520,666.8,520,669.9,520L669.9,520
		z"/>
	<path class="st9" d="M610,10.1c13.3,0,26.6-0.1,39.9-0.1c0,6.5,0,12.9,0,19.8c3.4,0,6.3,0,9.8,0c0,6.8,0,13.2,0,20
		c3.5,0,6.5,0,10,0c0,6.8,0,13.2,0,20c3.5,0,6.5,0,10,0c0,6.8,0,13.2,0,20c3.5,0,6.5,0,10,0c0,6.8,0,13.2,0,19.9
		c3.5,0.2,6.5,0.3,10.1,0.5c0,26.7,0,53.2,0,79.8c-3.2,0-6.4,0-10.1,0c0,3.7,0,6.7,0,10.2c-3.6,0-6.7,0-9.8,0c-6.7,0-13.4,0-20.1,0
		c-3.2,0-6.4,0-10.1,0c0-3.9,0-7,0-10.1c0-1.8,0.1-3.7,0.1-5.5c0-14.8,0.1-29.6,0.1-44.5c6.5-0.1,13.1-0.2,19.6-0.3
		c0-3.6,0-6.5,0-10c-6.7,0-13.1,0-19.6,0c-0.1-6.6-0.2-13.1-0.3-20.1c-3.6,0-6.5,0-10,0c0-10.1,0-19.8,0-30c-3.5,0-6.5,0-10,0
		c0-6.8,0-13.2,0-20c-3.5,0-6.5,0-10,0c0-10.1,0-19.8,0-30c-3.5,0-6.4,0-9.8,0C610,23,610,16.5,610,10.1z M689.6,130.3
		c-3.5,0-6.4,0-9.4,0c0,3.4,0,6.4,0,9.4c3.3,0,6.2,0,9.4,0C689.6,136.4,689.6,133.5,689.6,130.3z"/>
	<path class="st3" d="M679.9,250c10,0,20,0,29.9-0.1c0,3.4,0,6.7,0,10.1c-3.1,0-6.2,0-9.9,0c0,10,0,19.7,0,29.9c-3.5,0-6.6,0-10,0
		c0,3.5,0,6.4,0,10c-3.6,0-6.8,0-10.1,0c0-6.5,0-13.1,0-19.8c-3.7-0.2-6.6-0.3-9.8-0.5c-0.2-3.3-0.3-6.4-0.5-9.6c-3.6,0-6.7,0-9.8,0
		c-6.6,0-13.2,0-19.9,0c-3.4,0-6.7,0-10.1,0c-9.9,0-19.8,0-29.7,0c0,6.9,0,13.1,0,19.9c3.3,0,6.3,0,9.3,0c0,7,0,13.3,0,19.6
		c-6.6,0-12.9,0-19.7,0c0-6.6,0-13,0-20c-3.6,0-6.7,0-10.1,0c0-6.8,0-13.1,0-19.6c-3.5,0-6.6,0-9.7,0c-6.7,0-13.4,0-20.1,0
		c-3.3,0-6.6,0-9.9,0c-3.2,0-6.5,0-10.1,0c0-4,0-7.1,0-10.2c31.1,0,62.3,0.1,93.4,0.1c12.2,0,24.3-0.1,36.5-0.1c6.5,0,13.1,0,20.1,0
		C679.9,256.2,679.9,253.1,679.9,250z"/>
	<path class="st0" d="M170,360c3.3,0,6.6,0,9.8,0c3.4,0,6.8,0.1,10.2,0.1c-0.1,3.3-0.1,6.7-0.2,10c-20.5,0-40.9-0.1-61.4-0.1
		c-12.8,0-25.6,0.1-38.4,0.1c-6.6,0-13.1,0-20,0c0,13.6,0,26.7,0,39.8c-3.2,0.1-6.5,0.2-9.7,0.3c0,6.8,0,13.1,0,19.8
		c3.5,0,6.6,0,9.7,0c0,9.8,0,19.7,0,29.9c3.7,0,6.8,0,9.9,0c3.4,0,6.8,0,10.2,0c3.3,0,6.6-0.1,9.9-0.1c10,0,20.1,0,30.1,0
		c3.3,0,6.6,0,9.9,0.1c6.7,0,13.4,0,20.2,0c3.3,0,6.6,0,9.8,0c10.1,0,20.1,0,30.2,0c3.2,0,6.5,0,9.6,0c0-13.7,0-26.6,0-39.9
		c-40.1,0-79.8,0-119.6,0c-0.1-3.4-0.2-6.7-0.2-10.1c0,0,0.2,0,0.2,0c10,0,20,0,30,0c3.3,0,6.6-0.1,9.9-0.1c6.7,0,13.4,0,20.1,0
		c3.3,0,6.6,0.1,9.9,0.1c3.4,0,6.8,0,10.2,0c3.3,0,6.6-0.1,9.9-0.1c6.7,0,13.4,0,20.1,0c3.2,0,6.5,0,9.9,0c0-10.3,0-20.1,0-29.8
		c3.3-0.1,6.5-0.2,9.7-0.3c0-6.8,0-13.1,0-19.8c-3.5,0-6.6,0-9.7,0c0-3.1,0-6.2,0-9.6c6.8,0,13.2,0,20.1,0c0,43.4,0,86.5,0,129.7
		c-3.4,0-6.8,0.1-10.2,0.1c-3.3-0.1-6.6-0.1-9.9-0.2c0-3.2,0-6.5,0-9.9c-2.6,0-4.4,0-6.2,0c-31.9,0-63.9,0-95.8,0
		c-6,0-12,0.1-18,0.1c-6.5,0-13.1,0-20.2,0c0,3.5,0,6.5,0,9.8c-7,0-13.4,0-19.9,0L50,480c0-43.2,0-86.4,0-130c7,0,13.4,0,19.9,0
		c0,3.2,0,6.4,0,9.9c3.8,0,6.9,0,10,0c3.4,0,6.7,0,10.1,0c3.3,0,6.7,0,10,0c3.3,0,6.6,0.1,9.9,0.1c6.7,0,13.4,0,20.2,0
		c3.3,0,6.6,0,9.8,0C149.9,360,160,360,170,360z"/>
	<path class="st8" d="M40.1,589.9c0-6.4,0-12.8,0-20c-3.6,0-6.8,0-10.1,0c-0.1-3.3-0.1-6.6-0.2-10c0-3.2,0-6.4,0-10
		c-3.6,0-6.7,0-9.8,0c0-6.4,0-12.9,0-19.7c6.6,0,12.9,0,19.7,0c0.1-3.6,0.2-6.9,0.4-10.1c6.4,0,12.8,0,20,0c0-3.6,0-6.8,0-10l-0.1,0
		c3.3-0.1,6.6-0.1,9.9-0.2c3.2,0,6.4,0,9.9,0c0.2-3.6,0.3-6.6,0.4-10c3.6,0,6.7,0,9.8,0c3.2,0,6.4,0,9.9,0c0-3.7,0-6.7,0-9.8
		c6.6,0,13.1,0,20.1,0c0,7,0,13.2,0,19.7c3.5,0.2,6.5,0.4,10,0.6c0,6.7,0,12.9,0,19.8c3.6,0,6.7,0,9.8,0c0.1,3.3,0.2,6.6,0.2,10
		c0,3.3-0.1,6.6-0.1,9.9c-3.4,0.1-6.7,0.1-10.1,0.2c-3.1,0-6.2,0-10,0c0,3.4,0,6.6,0,9.8c-6.5,0-13.1,0-20.1,0c0,3.8,0,6.9,0,10
		l0.1-0.1c-6.5,0-13.1,0-20.1,0c0,3.8,0,6.9,0,10.1l0.1-0.1c-6.5,0-13.1,0-20.1,0c0,3.8,0,6.9,0,10.1l0.1-0.1
		C53.3,589.9,46.7,589.9,40.1,589.9L40.1,589.9z M80,550c3.2,0,6.4,0,10,0c0-3.8,0-6.9,0-10c3.3,0,6.7,0,10,0c0,3.2,0,6.5,0,9.7
		c3.7,0,6.6,0,10,0c0-3.4,0-6.6,0-9.7c3.2,0,6.5,0,9.7,0c0-3.7,0-6.6,0-10c-3.4,0-6.6,0-9.7,0c0-3.2,0-6.5,0-9.7c-3.7,0-6.6,0-10,0
		c0,3.4,0,6.6,0,9.7c-3.3,0-6.7,0-10,0c0-3.2,0-6.5,0-9.7c-3.7,0-6.6,0-10,0c0,3.4,0,6.6,0,9.7c-3.2,0-6.4,0-10,0c0,3.8,0,6.9,0,10
		c-3.3,0-6.7,0-10,0c0-3.2,0-6.5,0-9.7c-3.7,0-6.6,0-10,0c0,3.4,0,6.6,0,9.7c-3.2,0-6.5,0-9.7,0c0,3.7,0,6.6,0,10c3.4,0,6.6,0,9.7,0
		c0,3.2,0,6.5,0,9.7c3.7,0,6.6,0,10,0c0-3.4,0-6.6,0-9.7c3.3,0,6.7,0,10,0c0,3.2,0,6.5,0,9.7c3.7,0,6.6,0,10,0
		C80,556.2,80,553.1,80,550z"/>
	<path class="st4" d="M140.1,540.1c-0.1-3.3-0.2-6.6-0.2-10l0.2-0.2c3.2,0,6.4,0,9.9,0c0-3.7,0-6.8,0-9.9l-0.1,0.1
		c3.2,0,6.5,0,10.1,0c0-3.8,0-7,0-10.1l-0.1,0.1c3.2,0,6.5,0,10.1,0c0-3.8,0-7,0-10.1l-0.1,0.1c3.2,0,6.5,0,10.1,0c0-3.8,0-7,0-10.1
		l-0.1,0.1c3.2,0,6.4,0,9.9,0c0-3.8,0-6.8,0-9.9c6.7-0.1,13.4-0.1,20.1-0.2c3.3,0.1,6.6,0.1,9.9,0.2c0,3.1,0,6.2,0,9.8
		c-3.3,0-6.2,0-9.7,0c0,3.5,0,6.5,0,10c-3.5,0-6.4,0-9.9,0c-0.1,3.7-0.2,6.9-0.4,10.1c-3.2,0-6.4,0-9.9,0c0,3.9,0,7,0,10.1
		c-3.1,0-6.2,0-9.7,0c-0.2,3.4-0.3,6.3-0.5,9.7c-3.1,0-6,0-9.5,0c-0.1,3.7-0.3,6.9-0.4,10.2c-3.2,0-6.4,0-9.9,0c0,3.9,0,7,0,10.1
		c-3.3,0-6.6,0-10,0c0,0,0,0,0,0c0-3.2,0-6.4,0-9.9C146.2,540.1,143.2,540.1,140.1,540.1z"/>
	<path class="st1" d="M260,420.1c0,3.1,0,6.2,0,9.7c3.3,0,6.3,0,9.9,0c0,3.6,0,6.9,0,10.1c-6.6,0-13.2,0-19.6,0c0,7.1,0,13.4,0,20.1
		c6.7,0,13.2,0,19.6,0c0,6.6,0.1,13.3,0.1,19.9c-10,0-20,0-30.1,0c0-16.4,0-32.8,0-49.7c3.2,0,6.3,0,10,0c0-3.7,0-6.9,0-10.2
		C253.3,420.1,256.6,420.1,260,420.1z"/>
	<path class="st0" d="M79.9,580c0-3.1,0-6.2,0-10.1c7,0,13.5,0,20.1,0c0,3.1,0,6.3,0,9.9c10,0,19.6,0,29.6,0c0,3.5,0,6.6,0,9.9
		c-13.1,0-26,0-39.3,0c-0.1-3.1-0.3-6-0.5-9.7C86.4,580,83.1,580,79.9,580z"/>
	<path class="st0" d="M159.9,550c0-3.1,0-6.2,0-10.1c3.5,0,6.7,0,9.9,0c9.8,0,19.6,0,29.7,0c0,3.4,0,6.3,0,10.1
		C186.4,550,173.2,550,159.9,550z"/>
	<path class="st0" d="M290,579.9c3.1,0,6.2,0,10,0c0,3.6,0,6.9,0,10.1c-13.1,0-26.2,0-39.7,0c0-3.4,0-6.3,0-9.9
		C270.2,580.1,280.1,580,290,579.9z"/>
	<path class="st4" d="M129.9,550.1c3.4-0.1,6.7-0.1,10.1-0.2c3.3,0,6.7,0,10,0.1l0,0c0,3.1,0,6.2,0,9.8c-3.3,0-6.2,0-9.7,0
		c-0.2,3.5-0.3,6.5-0.5,9.9c-3.1,0-6,0-9.7,0C130,563.2,130,556.7,129.9,550.1z"/>
	<path class="st4" d="M279.9,479.9c0-3.1,0-6.2,0-10c7.1,0,13.5,0,20,0l0.2,0.2c-0.1,3.3-0.1,6.5-0.2,9.8c-3.3,0.1-6.6,0.1-9.9,0.2
		C286.6,480,283.2,480,279.9,479.9z"/>
	<path class="st0" d="M189.9,520c0-3.1,0-6.2,0-10.1c3.5,0,6.7,0,9.9,0c3.1,0,6.3,0,9.7,0c0,3.4,0,6.3,0,10.1
		C203.1,520,196.5,520,189.9,520z"/>
	<path class="st0" d="M269.6,519.7c-6.5,0-12.7,0-19.3,0c0-3.1,0-6,0-9.3c6.2,0,12.6,0,19.3,0C269.6,513.3,269.6,516.2,269.6,519.7z
		"/>
	<path class="st0" d="M99.9,570c0-3.1,0-6.2,0-10c7,0,13.5,0,20.1,0c0,3.1,0,6.2,0,10C113,570,106.4,570,99.9,570z"/>
	<path class="st0" d="M59.9,590c0-3.1,0-6.2,0-10.1c7,0,13.5,0,20.1,0c0,3.1,0,6.2,0,10.1C73,590,66.4,590,59.9,590z"/>
	<path class="st0" d="M40,589.9c6.6,0,13.3,0,19.9,0c0,3.1,0,6.2,0,9.7c-6.6,0-12.9,0-19.9,0C40,596.4,40,593.1,40,589.9z"/>
	<path class="st0" d="M289.9,510c0,3.3,0,6.6,0,10c-3.1,0-6.2,0-9.6,0c0-3.3,0-6.2,0-10C283.5,510,286.7,510,289.9,510z"/>
	<path class="st0" d="M229.8,540.5c0,3.1,0,5.8,0,9.1c-3,0-6,0-9.4,0c0-2.8,0-5.7,0-9.1C223.2,540.5,226.2,540.5,229.8,540.5z"/>
	<path class="st0" d="M140.1,589.6c0-3.2,0-5.9,0-9.1c3.1,0,6.1,0,9.5,0c0,2.9,0,5.8,0,9.1C146.7,589.6,143.7,589.6,140.1,589.6z"/>
	<path class="st0" d="M249.6,589.8c-3.3,0-6.1,0-9.2,0c0-3.2,0-6.2,0-9.5c3.1,0,5.9,0,9.2,0C249.6,583.4,249.6,586.4,249.6,589.8z"
		/>
	<path class="st0" d="M299.9,590c3.1,0,6.2,0,10,0c0,3.6,0,6.8,0,10c-3.1,0-6.2,0-10,0C299.9,596.4,299.9,593.2,299.9,590z"/>
	<path class="st9" d="M100.1,190.1c0,3.1,0,6.2,0,10.1c-3.7,0-6.9,0-10.1,0c-6.7,0-13.4,0-20.1,0c-3.2,0-6.4,0-10.1,0
		c0-3.8,0-6.8,0-10.2c-3.6,0-6.7,0-9.8,0c0-26.4,0-52.8,0-79.7c3.3,0,6.2,0,9.7,0c0-6.8,0-13.2,0-20c3.5,0,6.5,0,10,0
		c0-6.8,0-13.2,0-20c3.5,0,6.5,0,10,0c0-6.8,0-13.2,0-20c3.5,0,6.5,0,10,0c0-6.8,0-13.2,0-20c3.5,0,6.5,0,10.2,0c0-7,0-13.6,0-20.2
		c13.3,0,26.6,0.1,39.9,0.1c0,6.6,0,13.1,0,20.1c-3.7,0-6.6,0-10.1,0c0,10.1,0,19.8,0,30c-3.5,0-6.5,0-10,0c0,6.8,0,13.2,0,20
		c-3.5,0-6.5,0-10,0c0,10.1,0,19.8,0,30c-3.5,0-6.4,0-10,0c0,6.9,0,13.3,0,19.8c-6.5,0.1-13.1,0.2-19.6,0.3c0,3.6,0,6.5,0,10
		c6.7,0,13.1,0,19.6,0c0,1.8,0.1,3.7,0.1,5.5C100,160.4,100.1,175.2,100.1,190.1z M60.4,130.2c0,3.2,0,6.3,0,9.5c3.2,0,6.1,0,9.2,0
		c0-3.3,0-6.3,0-9.5C66.4,130.2,63.7,130.2,60.4,130.2z"/>
	<path class="st0" d="M20,549.9c3.1,0,6.2,0,9.8,0c0,3.6,0,6.8,0,10c-3.3,0-6.6,0-9.9,0l0,0C20,556.7,20,553.3,20,549.9z"/>
	<path class="st0" d="M20,560c0,3.1,0,6.3,0,9.7c-3.4,0-6.3,0-9.6,0c0-3,0-5.9,0-9.7C13.5,560,16.8,560,20,560L20,560z"/>
	<path class="st0" d="M19.7,499.7c-3.3,0-6.2,0-9.4,0c0-3.2,0-6,0-9.3c3.1,0,6.1,0,9.4,0C19.7,493.4,19.7,496.3,19.7,499.7z"/>
	<path class="st0" d="M60,500c-3.1,0-6.2,0-10,0c0-3.6,0-6.8,0-10l0,0c3.2,0,6.5,0,10,0C60,493.8,60,496.9,60,500L60,500z"/>
	<path class="st0" d="M69.9,509.9c-3.3,0.1-6.6,0.1-9.9,0.2c0-3.4,0-6.7,0-10.1l0,0c3.2,0,6.4,0,9.9,0
		C69.9,503.7,69.9,506.8,69.9,509.9z"/>
	<path class="st0" d="M40,479.9c3.3,0,6.7,0.1,10,0.1L50,480c0,3.3,0,6.7,0,10l0,0c-3.1,0-6.2,0-10,0C40,486.4,40,483.1,40,479.9z"
		/>
	<path class="st4" d="M100.1,190.1c0-14.8-0.1-29.6-0.1-44.5c0-1.8-0.1-3.7-0.1-5.5l0.2-0.2c3.2,0,6.4,0,9.6,0c0-3.6,0-6.5,0-9.7
		c-3.4,0-6.5,0-9.6,0l-0.2-0.2c0-6.4,0-12.9,0-19.8c3.5,0,6.4,0,10,0c0-10.1,0-19.8,0-30c3.5,0,6.4,0,10,0c0-6.8,0-13.2,0-20
		c3.5,0,6.4,0,10,0c0-10.1,0-19.8,0-30c3.5,0,6.4,0,10.1,0c0-7,0-13.6,0-20.1c13.4,0,26.8,0,40.2,0c-0.1,6.6-0.2,13.1-0.2,20.1
		c-3.6,0-6.6,0-10.1,0c0,13.5,0,26.5,0,40c-3.5,0-6.5,0-10,0c0,13.5,0,26.5,0,40c-3.5,0-6.5,0-9.8,0c0,6.9,0,13.4,0,19.8
		c-6.6,0-13.2,0-19.7,0c0,3.7,0,6.6,0,10c6.8,0,13.2,0,19.7,0c0,16.7,0,33.3,0,50c0,3.1,0,6.2,0,10.1c-7,0-13.5,0-20.1,0
		c-3.3,0-6.6,0-9.9,0c-3.1,0-6.2,0-9.8,0c0-3.4,0-6.3,0-10C106.5,190.1,103.3,190.1,100.1,190.1z"/>
	<path class="st4" d="M610,10.1c0,6.4,0,12.9,0,19.8c3.3,0,6.2,0,9.8,0c0,10.1,0,19.8,0,30c3.5,0,6.4,0,10,0c0,6.8,0,13.2,0,20
		c3.5,0,6.4,0,10,0c0,10.1,0,19.8,0,30c3.5,0,6.4,0,10,0c0.1,7,0.2,13.5,0.3,20.1l-0.2,0.2c-3.2,0-6.4,0-9.6,0c0,3.6,0,6.5,0,9.7
		c3.4,0,6.5,0,9.6,0c0,0,0.2,0.2,0.2,0.2c0,14.8-0.1,29.6-0.1,44.5c0,1.8-0.1,3.7-0.1,5.5c-3.1,0-6.2,0-9.6,0
		c-0.2,3.6-0.3,6.6-0.5,9.6c-13.5,0-26.4,0-39.8,0c0-3.4,0-6.6,0-9.7c0-16.7,0-33.3,0-50c6.6,0,13.2,0,19.7,0c0-3.7,0-6.6,0-10
		c-6.8,0-13.2,0-19.7,0c0-6.6,0-13.2,0-20.2c-3.7,0-6.6,0-10.1,0c0-13.5,0-26.5,0-40c-3.5,0-6.5,0-10,0c0-13.5,0-26.5,0-39.7
		c-3.5-0.2-6.5-0.3-10-0.4c0-6.8,0-13.2,0-19.6C583.2,10.1,596.6,10.1,610,10.1z"/>
	<path class="st9" d="M150,130c0-6.5,0-12.9,0-19.8c3.3,0,6.2,0,9.8,0c0-13.5,0-26.5,0-40c3.5,0,6.4,0,10,0c0-13.5,0-26.5,0-40
		c3.5,0,6.4,0,10.1,0c0.1-7,0.2-13.6,0.2-20.1c16.6,0,33.2,0,49.8,0c0,6.6,0,13.1,0,20.1c-3.7,0-6.6,0-10.1,0c0,13.5,0,26.5,0,39.9
		c-3.5,0-6.4,0-9.9,0c0,13.5,0,26.5,0,39.6c-3.5,0.2-6.4,0.3-10,0.4c0,6.8,0,13.2,0,19.6C183.2,129.9,166.6,129.9,150,130L150,130z"
		/>
	<path class="st9" d="M270,10.1c16.6,0,33.2,0,49.8,0c0,9.9,0,19.8,0,30.1c-3.7,0-6.6,0-10.1,0c0,20.1,0,39.8,0,59.9
		c-3.5,0-6.4,0-9.9,0c0,10.2,0,20,0,29.7c-16.6,0-33.2,0-49.8,0c0-9.9,0-19.8,0-30.1c3.7,0,6.6,0,10.1,0c0-20.1,0-39.8,0-59.9
		c3.5,0,6.4,0,9.9,0C270,29.6,270,19.9,270,10.1z"/>
	<path class="st9" d="M430,10.1c16.6,0,33.2,0,49.8,0c0.1,9.9,0.1,19.8,0.2,30.1c3.6,0,6.6,0,10.1,0c0,20.1,0,39.8,0,59.9
		c3.5,0,6.4,0,9.7,0c0,10.2,0,20,0,29.7c-16.6,0-33.2,0-49.8,0c-0.1-9.9-0.2-19.8-0.3-30.1c-3.6,0-6.6,0-10,0c0-20.1,0-39.8,0-59.9
		c-3.5,0-6.4,0-9.7,0C430,29.6,430,19.9,430,10.1z"/>
	<path class="st9" d="M569.8,10.1c0,6.4,0,12.9,0,19.6c3.5,0.2,6.4,0.3,10,0.4c0,13.2,0,26.2,0,39.7c3.5,0,6.4,0,10,0
		c0,13.5,0,26.5,0,40c3.5,0,6.4,0,10.1,0c0,7,0,13.6,0,20.2l0,0c-16.6,0-33.3-0.1-49.9-0.1c-0.1-6.6-0.2-13.1-0.3-20.1
		c-3.6,0-6.5,0-10,0c0-13.5,0-26.5,0-39.9c-3.5,0-6.4,0-9.9,0c0-13.5,0-26.5,0-39.6c-3.5-0.2-6.4-0.3-9.8-0.4c0-6.8,0-13.2,0-19.7
		C536.6,10.1,553.2,10.1,569.8,10.1z"/>
	<path class="st4" d="M270,10.1c0,9.8,0,19.5,0,29.7c-3.5,0-6.4,0-9.9,0c0,20.1,0,39.8,0,59.9c-3.5,0-6.4,0-10.1,0
		c0,10.3,0,20.2,0,30.1l-0.2,0.2c-16.6,0-33.2,0-49.7,0l-0.2-0.2c0-6.4,0-12.9,0-19.6c3.5-0.2,6.4-0.3,10-0.4c0-13.1,0-26.2,0-39.6
		c3.5,0,6.4,0,9.9,0c0-13.5,0-26.5,0-39.9c3.5,0,6.4,0,10.1,0c0-7,0-13.6,0-20.1C243.3,10.1,256.6,10.1,270,10.1z"/>
	<path class="st4" d="M299.8,129.9c0-9.8,0-19.5,0-29.7c3.5,0,6.4,0,9.9,0c0-20.1,0-39.8,0-59.9c3.5,0,6.4,0,10.1,0
		c0-10.3,0-20.2,0-30.1c13.4,0,26.8,0,40.2,0c-0.1,19.9-0.1,39.8-0.2,60.1c-3.7,0-6.6,0-9.9,0c0,20.2,0,40,0,59.8
		c-16.6,0-33.3,0.1-49.9,0.1L299.8,129.9z"/>
	<path class="st4" d="M430,10.1c0,9.8,0,19.5,0,29.7c3.3,0,6.2,0,9.7,0c0,20.1,0,39.8,0,59.9c3.5,0,6.4,0,10,0
		c0.1,10.3,0.2,20.2,0.3,30.1c0,0-0.2,0.2-0.2,0.2c-16.6,0-33.3-0.1-49.9-0.1c0-19.9,0-39.8,0-60.1c-3.7,0-6.6,0-10.1,0
		c0-20.2,0-40,0-59.7C403.2,10.1,416.6,10.1,430,10.1z"/>
	<path class="st4" d="M520,10.1c0,6.4,0,12.9,0,19.7c3.3,0.1,6.2,0.3,9.8,0.4c0,13.1,0,26.2,0,39.6c3.5,0,6.4,0,9.9,0
		c0,13.5,0,26.5,0,39.9c3.5,0,6.4,0,10,0c0.1,7,0.2,13.6,0.3,20.1c0,0-0.2,0.2-0.2,0.2c-16.6,0-33.2,0-49.7,0l-0.2-0.2
		c0-9.8,0-19.5,0-29.7c-3.3,0-6.2,0-9.7,0c0-20.1,0-39.8,0-59.9c-3.5,0-6.4,0-10.1,0c-0.1-10.3-0.1-20.2-0.2-30.1
		C493.2,10.1,506.6,10.1,520,10.1z"/>
	<path class="st9" d="M389.8,10.1c0,19.8,0,39.5,0,59.7c3.5,0,6.4,0,10.1,0c0,20.3,0,40.2,0,60.1l0,0c-16.7,0-33.3,0-50,0l0,0
		c0-19.8,0-39.5,0-59.8c3.3,0,6.2,0,9.9,0c0.1-20.3,0.1-40.2,0.2-60.1C370,10.1,379.9,10.1,389.8,10.1z"/>
	<path class="st8" d="M370,580c0-6.5,0-12.9,0-20c-6.8,0-13.2,0-19.8,0c0-10.2,0-19.7,0-29.9c6.4,0,12.8,0,19.4,0c0-3.5,0-6.4,0-9.9
		c-2.9,0-6,0-9.4,0c0-3.6,0-6.6,0-10.1c3,0,6,0,9.5,0c0-3.4,0-6.5,0-9.8c3.6,0,6.7,0,10.1,0c0,3.1,0,6,0,9.7c3.6,0,6.9,0,10.1,0
		l-0.1-0.1c0,3.1,0,6.3,0,9.9c-3.3,0-6.4,0-9.7,0c0,3.5,0,6.4,0,9.9c6.3,0,12.7,0,19.4,0c0,10.2,0,19.9,0,30c-6.4,0-12.6,0-19.4,0
		c0,6.7,0,13.1,0,20.2C376.4,580,373.1,580,370,580L370,580z M369.6,549.9c0-3.4,0-6.5,0-9.5c-3.3,0-6.4,0-9.3,0c0,3.4,0,6.4,0,9.5
		C363.5,549.9,366.3,549.9,369.6,549.9z M380.2,540.2c0,3.5,0,6.4,0,9.4c3.3,0,6.4,0,9.3,0c0-3.4,0-6.4,0-9.4
		C386.3,540.2,383.4,540.2,380.2,540.2z"/>
	<path class="st10" d="M439.9,479.9c0-9.7,0-19.4,0-29.9c3.5,0,6.7,0,9.9,0c10,0,20.1,0.1,30.1,0.1c0,3.3,0,6.7,0,10
		c0,3.3,0,6.6,0,9.8c0,3.3,0,6.6,0,10c-6.7,0.1-13.4,0.1-20.1,0.2C453.2,480,446.5,480,439.9,479.9z"/>
	<path class="st4" d="M299.8,469.9c0-3.1,0-6.2,0-9.6c-3.3-0.2-6.3-0.3-9.5-0.5c0-3.1,0-6,0-9.3c6.2,0,12.6,0,19.4,0
		c0,2.9,0,5.8,0,9.3c3.5,0.2,6.5,0.3,10,0.5c0.1,3.2,0.3,6.1,0.4,9.6c3.1,0.2,6.2,0.3,9.9,0.5c0,3.4,0,6.5,0,9.6
		c-6.7,0-13.3,0-20,0.1c0-3.2,0-6.4,0-9.8c-3.8,0-6.9,0-10,0L299.8,469.9z"/>
	<path class="st0" d="M460,540c6.4,0,12.8,0,19.6,0c0,3.3,0,6.2,0,10c-6.5,0-13.1,0-19.6,0C460,546.7,460,543.3,460,540z"/>
	<path class="st8" d="M390,510c0-3.1,0-6.3,0-9.7c3.4,0,6.4,0,9.7,0c0,3.1,0,6,0,9.7C396.4,510,393.1,510,390,510L390,510z"/>
	<path class="st4" d="M330,550c-3.1,0-6.2,0-9.7,0c0-3.4,0-6.4,0-9.7c3.1,0,6,0,9.6,0C329.9,543.6,329.9,546.8,330,550L330,550z"/>
	<path class="st4" d="M420,550c0-3.1,0-6.2,0-9.7c3.4,0,6.4,0,9.7,0c0,3.1,0,6,0,9.6C426.4,550,423.1,550,420,550L420,550z"/>
	<path class="st3" d="M300,470.1c3.1,0,6.1,0,10,0c0,3.5,0,6.6,0,9.8c-3.4,0-6.8,0-10.1,0C299.9,476.7,300,473.4,300,470.1z"/>
	<path class="st4" d="M329.9,550c3.1,0,6.2,0,9.7,0c0,3.3,0,6.3,0,9.9c-3.2,0-6.4,0-9.6,0l0.1,0.1C330,556.7,330,553.3,329.9,550
		L329.9,550z"/>
	<path class="st4" d="M420,560c-3.1,0-6.2,0-9.7,0c0-3.3,0-6.3,0-9.9c3.2,0,6.4,0,9.7,0l-0.1-0.1C419.9,553.3,419.9,556.7,420,560
		L420,560z"/>
	<path class="st4" d="M330,570c-3.1,0-6.2,0-9.7,0c0-3.3,0-6.3,0-9.9c3.2,0,6.4,0,9.7,0l-0.1-0.1C329.9,563.3,329.9,566.7,330,570
		L330,570z"/>
	<path class="st4" d="M420,570c0-3.4,0-6.7,0-10.1l-0.1,0.1c3.1,0,6.2,0,9.7,0c0,3.3,0,6.3,0,9.9C426.3,570,423.1,570,420,570
		L420,570z"/>
	<path class="st4" d="M329.9,570c3.1,0,6.2,0,9.7,0c0,3.4,0,6.4,0,9.7c-3.1,0-6,0-9.6,0C330,576.4,330,573.2,329.9,570L329.9,570z"
		/>
	<path class="st4" d="M419.9,570c0,3.1,0,6.2,0,9.7c-3.4,0-6.4,0-9.7,0c0-3.1,0-6,0-9.6C413.5,570,416.7,570,419.9,570L419.9,570z"
		/>
	<path class="st0" d="M459.9,580c0,3.1,0,6.2,0,10c-3.6,0-6.8,0-10,0c0-3.1,0-6.2,0-10C453.5,580,456.7,580,459.9,580z"/>
	<path class="st0" d="M449.9,590c0,3.1,0,6.2,0,10c-3.6,0-6.8,0-10,0c0-3.1,0-6.2,0-10C443.5,590,446.7,590,449.9,590z"/>
	<path class="st8" d="M369.9,580c0,3.1,0,6.3,0,9.7c-3.4,0-6.4,0-9.7,0c0-3.1,0-6,0-9.7C363.4,580,366.7,580,369.9,580L369.9,580z"
		/>
	<path class="st4" d="M550,509.9c0-3.1,0-6.2,0-9.8c-3.5,0-6.4,0-9.9,0c0-3.5,0-6.5,0-10c-3.5,0-6.4,0-10.1,0c0-3.7,0-6.9,0-10.1
		c3.3-0.1,6.7-0.1,10-0.2c3.3,0,6.6,0,9.9,0c3.3,0.1,6.7,0.2,10,0.3c0,3.2,0,6.4,0,9.8c3.9,0,7,0,10.1,0c0,3.2,0,6.5,0,10
		c3.8,0,6.9,0,10,0c0,3.2,0,6.5,0,10c3.8,0,6.9,0,10,0c0,3.2,0,6.5,0,10c3.8,0,6.9,0,10,0c0,3.2,0,6.5,0,10c3.8,0,6.9,0,10,0
		c0,3.4,0,6.7-0.1,10.1l0.1-0.1c-3.2,0-6.5,0-10.1,0c0,3.8,0,7,0,10.1l0,0c-3.1,0-6.2,0-9.8,0c0-3.3,0-6.2,0-9.7
		c-3.5-0.2-6.5-0.3-10-0.5c0-3.1,0-6,0-9.5c-3.5-0.2-6.5-0.3-10-0.5c0-3.1,0-6.1,0-9.8c-3.7,0-6.9,0-10.1,0c0-3.2,0-6.4,0-10.1
		C556.2,509.9,553.1,509.9,550,509.9z"/>
	<path class="st9" d="M540,479.9c-3.3,0.1-6.7,0.1-10,0.2c-3.4,0-6.8-0.1-10.1-0.1c0-3.2,0-6.5,0-10.2c-3.7,0-6.7,0-10,0
		c0-7,0-13.4,0-19.8c3.4,0,6.7,0,10.1,0c0,3.3,0,6.5,0,9.8c3.6,0,6.5,0,9.6,0c0-3.3,0-6.3,0-9.7c-3.4,0-6.6,0-9.7,0
		c0-3.1,0-6.2,0-10c6.9,0,13.4,0,19.9,0l0.3,0c0,3.2,0,6.5,0,9.8c3.6,0.2,6.5,0.3,10,0.4c0,3.6,0,6.7,0,9.8
		c-0.1,3.3-0.1,6.6-0.2,9.9l0,0c-3.2,0-6.4,0-9.9,0C540,473.7,540,476.8,540,479.9z"/>
	<path class="st8" d="M509.9,450c0,6.4,0,12.8,0,19.8c3.3,0,6.3,0,10,0c0,3.7,0,7,0,10.2c-6.6,0-13.3,0-19.9,0c0-3.2,0-6.5,0-10.1
		c-3.8,0-6.9,0-10,0c0-3.2,0-6.4,0-9.7c3.2,0,6.5,0,10.1,0c0-3.9,0-7,0-10.1C503.3,450,506.6,450,509.9,450
		C509.9,450,509.9,450,509.9,450z"/>
	<path class="st4" d="M619.8,570c-3.1,0-6.2,0-9.7,0c0-3.3,0-6.2,0-9.7c-3.4,0-6.5,0-10.2,0c0-3.8,0-7.1,0-10.3l0,0
		c3.2,0,6.5,0,10.1,0c0-3.8,0-7,0-10.1l-0.1,0.1c3.4,0,6.7,0,10.1,0l-0.1-0.1c0,3.2,0,6.5,0,10.1c3.8,0,6.9,0,10.1,0l-0.1-0.1
		c0,3.3,0,6.7-0.1,10l0.1-0.1c-3.2,0-6.4,0-10,0C619.8,563.8,619.8,566.9,619.8,570z"/>
	<path class="st0" d="M499.9,580.3c16.8,0,33,0,49.6,0c0,3,0,5.9,0,8.9c-3.2,1.1-41.2,1.4-49.3,0.4c-0.1-1.3-0.3-2.8-0.3-4.2
		C499.9,583.9,499.9,582.4,499.9,580.3z"/>
	<path class="st11" d="M489.9,469.8c3.1,0,6.2,0,10,0c0,3.6,0,6.9,0,10.1c-6.7,0-13.3,0-20-0.1c0-3.3,0-6.6,0-10
		C483.3,469.9,486.6,469.9,489.9,469.8z"/>
	<path class="st0" d="M550,509.9c3.1,0,6.2,0,9.9,0c0,3.7,0,6.9,0,10.1c-6.5,0-12.9,0-19.7,0c0-3.4,0-6.3,0-9.8
		C543.5,510.1,546.7,510,550,509.9z"/>
	<path class="st0" d="M490.2,549.7c0-3.3,0-6.2,0-9.4c6.5,0,12.7,0,19.3,0c0,3.1,0,6.1,0,9.4C503.1,549.7,496.9,549.7,490.2,549.7z"
		/>
	<path class="st0" d="M529.6,510.3c0,3.3,0,6.2,0,9.4c-3.2,0-6,0-9.3,0c0-3.1,0-6.1,0-9.4C523.3,510.3,526.2,510.3,529.6,510.3z"/>
	<path class="st0" d="M629.8,560c0-3.3,0-6.7,0.1-10c3.3,0,6.7,0,10,0l0,0c0,3.1,0,6.2,0,10C636.2,560,633,560,629.8,560z"/>
	<path class="st0" d="M619.8,570c0-3.1,0-6.2,0-10.1c3.6,0,6.8,0,10,0c0,3.1,0,6.2,0,10.1C626.3,570,623.1,570,619.8,570z"/>
	<path class="st0" d="M480.4,580.2c3.2,0,6,0,9.2,0c0,3.2,0,6.2,0,9.5c-3.1,0-5.9,0-9.2,0C480.4,586.5,480.4,583.4,480.4,580.2z"/>
	<path class="st0" d="M579.5,589.8c-3.3,0-6.1,0-9.2,0c0-3.2,0-6.2,0-9.5c3.1,0,5.9,0,9.2,0C579.5,583.4,579.5,586.4,579.5,589.8z"
		/>
	<path class="st4" d="M659.8,379.9c0-26.4,0-52.8,0-79.5c-3.3,0-6.2,0-9.7,0c-0.1,3-0.3,6-0.4,9.3c-3.2,0-6.1,0-9.5,0
		c-0.2-3.1-0.3-6.1-0.5-9.4c-3.2-0.2-6.1-0.3-9.5-0.5c0-3.1,0-6,0-9.5c-3.5-0.2-6.5-0.3-9.9-0.5c0-3.2,0-6.1,0-9.5
		c3-0.2,6.1-0.3,9.6-0.5c0-3.4,0-6.5,0-9.6c3.4,0,6.7,0,10.1,0c0,3.1,0,6.2,0,9.6c3.5,0.2,6.6,0.3,10.1,0.5c0,3.5,0,6.4,0,9.3
		c3.5,0,6.6,0,9.8,0c0-6.8,0-13.1,0-19.4c3.1,0,6.2,0,9.8,0c0.2,3.3,0.3,6.3,0.5,9.6c3.2,0.2,6.1,0.3,9.8,0.5c0,6.7,0,13.2,0,19.8
		c0,28,0,56.1,0,84.1c0,2-0.1,4-0.1,6c-3.2-0.1-6.5-0.2-10.1-0.3c0-3.5,0-6.5,0-9.9C666.1,379.9,662.9,379.9,659.8,379.9z"/>
	<path class="st4" d="M639.9,550c-3.3,0-6.7,0-10,0l0.1,0.1c0-3.2,0-6.5,0-10.1c-3.8,0-6.9,0-10.1,0l0.1,0.1c0-3.4,0-6.7-0.1-10.1
		c3.2,0,6.5,0,10,0c0-3.8,0-6.9,0-10c3.2,0,6.5,0,10,0c0-3.8,0-6.9,0-10c3.2,0,6.5,0,10,0c0-3.8,0-6.9,0-10c3.2,0,6.5,0,10,0
		c0-3.8,0-6.9,0-10c3.2,0,6.4,0,10.1,0c0-3.7,0-6.7,0-9.8c3.3-0.1,6.7-0.2,10-0.3c3.3,0,6.6,0.1,9.9,0.1c3.4,0.1,6.7,0.1,10.1,0.2
		c0,3.3,0,6.6-0.1,9.9c-3.1,0-6.2,0-10,0c0,3.5,0,6.8,0,10c-3.1,0-6.2,0-10,0c0,3.5,0,6.8,0,10c-3.1,0-6.2,0-10,0c0,3.5,0,6.8,0,10
		c-3.1,0-6.2,0-10,0c0,3.5,0,6.8,0,10c-3.1,0-6.2,0-9.9,0c0,3.4,0,6.4,0,9.9c-3.5,0-6.4,0-10.1,0C639.9,543.5,639.9,546.8,639.9,550
		z"/>
	<path class="st9" d="M659.8,379.9c3.1,0,6.2,0,9.8,0c0,3.4,0,6.3,0,9.9c3.7,0.1,6.9,0.2,10.1,0.3c0.1,6.6,0.1,13.2,0.2,19.8
		c-3.2,0-6.5,0-9.9,0c-0.2-3.6-0.3-6.5-0.5-9.9c-3.5,0-6.6,0-9.8,0c0-3.2,0-6.4,0-9.7c-3.6,0-6.5,0-9.6,0c0,3.3,0,6.3,0,9.7
		c3.5,0,6.6,0,9.7,0c0,3.4-0.1,6.7-0.1,10.1c-6.6,0-13.2,0-19.8,0c-6.6,0-13.1,0-20,0c0-3.9,0-7,0-10.1c3.1,0,6.2,0,9.9,0
		c0-3.3,0-6.4,0-9.8c3.4,0,6.4,0,9.8,0c0-3.4,0-6.4,0-10.3C646.7,379.9,653.3,379.9,659.8,379.9z"/>
	<path class="st0" d="M659.9,400c3.1,0,6.2,0,9.8,0c0.2,3.3,0.3,6.3,0.5,9.9c3.4,0,6.6,0,9.9,0c6.4,0,12.9,0,19.8,0
		c0,3.6,0,6.9,0,10.1c-6.6,0-13.3,0-19.9,0c-3.3,0-6.6,0.1-9.9,0.1c-3.3-0.1-6.6-0.2-9.9-0.2c-0.1-3.3-0.1-6.6-0.2-9.9
		C659.8,406.7,659.9,403.3,659.9,400L659.9,400z"/>
	<path class="st1" d="M679.8,420c6.6,0,13.3,0,19.9,0c0,3.1,0,6.2,0,9.8c-3.1,0-6.2,0-10,0c0,3.7,0,6.9,0,10.1c-3.2,0-6.5,0-9.7,0
		C680,433.3,679.9,426.7,679.8,420z"/>
	<path class="st0" d="M680,440c3.2,0,6.5,0,9.7,0c0,3.4,0,6.7,0,10.1c-3.3,0-6.6-0.1-9.9-0.1C679.9,446.6,680,443.3,680,440z"/>
	<path class="st0" d="M689.7,460c0,3.4,0,6.7,0,10.1c-3.3,0-6.6,0-9.8,0l0,0c0-3.3,0-6.7,0-10C683.1,460,686.4,460,689.7,460z"/>
	<path class="st1" d="M679.9,470c3.3,0,6.6,0,9.8,0c0,3.3,0.1,6.6,0.1,9.9c-3.3,0-6.6-0.1-9.9-0.1
		C679.9,476.6,679.9,473.3,679.9,470z"/>
	<path class="st1" d="M689.7,460c-3.3,0-6.6,0-9.8,0l0,0c0-3.4,0-6.7-0.1-10.1c0,0,0,0,0,0c3.3,0,6.6,0.1,9.9,0.1
		C689.7,453.3,689.7,456.7,689.7,460z"/>
	<path class="st4" d="M659.8,259.9c0-19.9,0-39.8,0-59.7c6.7,0,13.4,0,20.1,0c0,16.6,0,33.2,0,49.9c0,3.1,0,6.2,0,9.9
		C672.9,259.9,666.4,259.9,659.8,259.9z"/>
	<path class="st4" d="M650,129.9c6.4,0,12.8,0,19.6,0c0,3.5,0,6.4,0,10c-6.5,0.1-13,0.2-19.6,0.3l-0.2-0.2c0-3.2,0-6.5,0-9.7
		L650,129.9z"/>
	<path class="st4" d="M689.6,130.3c0,3.2,0,6.1,0,9.4c-3.1,0-6,0-9.4,0c0-3,0-6,0-9.4C683.2,130.3,686.1,130.3,689.6,130.3z"/>
	<path class="st4" d="M540,270.1c0,6.4,0,12.9,0,19.8c-6.9,0-13.1,0-19.8,0c0,3.4,0,6.3,0,9.6c-6.8,0-13.2,0-20.1,0
		c0-6.3,0-12.5,0-19.3c-3.5-0.2-6.6-0.4-10.2-0.6c0-6.7,0-13.2,0-19.6c13.4,0,26.7-0.1,40.1-0.1l-0.1-0.1c0,3.1,0,6.2,0,10.2
		C533.5,270.1,536.7,270.1,540,270.1z"/>
	<path class="st4" d="M570,270.1c0,9.7,0,19.5,0,29.5c-6.8,0-13,0-20,0c-0.1-9.8-0.1-19.7-0.2-29.5
		C556.5,270.1,563.2,270.1,570,270.1z"/>
	<path class="st8" d="M659.8,270.1c0,6.3,0,12.6,0,19.4c-3.2,0-6.2,0-9.8,0c0-2.9,0-5.8,0-9.3c-3.5-0.2-6.6-0.3-10.1-0.5
		c0-3.4,0-6.5,0-9.6C646.6,270.1,653.2,270.1,659.8,270.1z"/>
	<path class="st4" d="M350,190c0,3.1,0,6.3,0,9.7c-13.4,0-26.3,0-39.8,0c-0.1-3-0.3-6.1-0.5-9.6c-3.4,0-6.5,0-9.6,0
		c0-1.8-0.1-3.7-0.1-5.5c0-14.8-0.1-29.6-0.1-44.4c0,0,0.2-0.2,0.2-0.2c16.6,0,33.3,0.1,49.9,0.1C350,156.7,350,173.3,350,190z"/>
	<path class="st4" d="M69.9,350c0-50,0-99.9,0-149.9c6.7,0,13.4,0,20.1,0c0,43.2,0,86.4,0,129.7l-0.1,0.3c-3.2,0-6.4,0-9.9,0
		c0,10.3,0,20,0,29.8c-3.1,0-6.2,0-10,0C69.9,356.5,69.9,353.3,69.9,350z"/>
	<path class="st4" d="M449.8,190.1c-3.1,0-6.2,0-9.6,0c-0.2,3.4-0.3,6.3-0.5,10c-6.7,0-13.2,0-19.8,0c-3.3,0-6.6,0-9.9,0
		c-3.1,0-6.2,0-10.1,0c0-3.6,0-6.9,0-10.1c0-16.7,0-33.3,0-50c16.6,0,33.3-0.1,49.9-0.1c0,0,0.2,0.2,0.2,0.2c0,1.8-0.1,3.7-0.1,5.5
		C449.9,160.4,449.8,175.2,449.8,190.1z"/>
	<path class="st9" d="M150,190c0-16.7,0-33.3,0-50l0,0c16.6,0,33.3,0.1,49.9,0.1c0,1.8,0.1,3.7,0.1,5.5c0.1,14.8,0.1,29.6,0.1,44.5
		c0,3.1,0,6.2,0,10.1c-10.4,0-20.2,0-30.1,0c-3.3,0-6.6-0.1-9.9-0.1c0-3.1,0-6.2,0-10C156.5,190,153.2,190,150,190z"/>
	<path class="st4" d="M200.1,190.1c0-14.8-0.1-29.6-0.1-44.5c0-1.8-0.1-3.7-0.1-5.5l0.2-0.2c16.6,0,33.2,0,49.7,0l0.2,0.2
		c0,16.6,0,33.2-0.1,49.9c0,3.1,0,6.2,0,10.1c-7,0-13.5,0-20.1,0c-3.3,0-6.6,0-9.9,0c-3.1,0-6.2,0-9.8,0c0-3.4,0-6.3,0-10
		C206.5,190.1,203.3,190.1,200.1,190.1z"/>
	<path class="st9" d="M250,190c0-16.6,0-33.2,0.1-49.9c16.6,0,33.2,0,49.8,0c0,14.8,0.1,29.6,0.1,44.4c0,1.8,0.1,3.7,0.1,5.5
		c0,3.1,0,6.2,0,10.1c-10.4,0-20.2,0-30.1,0c-3.3-0.1-6.6-0.2-9.9-0.2c0-3.1,0-6.2,0-9.9C256.4,190,253.2,190,250,190z"/>
	<path class="st9" d="M399.9,140c0,16.7,0,33.3,0,50c-3.1,0-6.2,0-9.9,0c0,3.4,0,6.5,0,9.8c-10.2,0-19.9,0-29.9,0c0-3.2,0-6.1,0-9.8
		c-3.6,0-6.8,0-10.1,0c0-16.7,0-33.3,0-50l0,0C366.6,140,383.3,140,399.9,140L399.9,140z"/>
	<path class="st1" d="M539.8,440c0-3.1,0-6.2,0-9.8c-3.2,0-6.2,0-9.7,0c0-3.7,0-6.9,0-10.1c36.6,0,73.1,0,109.7,0c0,3.3,0,6.6,0,9.9
		c-3.2,0.1-6.4,0.2-10.1,0.3c0,3.5,0,6.4,0,9.7c-3.6,0-6.7,0-9.8,0c0-3.2,0-6.5,0-9.7c-3.7,0-6.6,0-10,0c0,3.4,0,6.6,0,9.7
		c-3.2,0-6.5,0-9.8,0c-0.2-3.7-0.3-6.6-0.5-9.6c-3.4,0-6.4,0-9.6,0c-0.2,3.3-0.3,6.2-0.4,9.6c-3.5,0-6.7,0-9.8,0c0-3.2,0-6.5,0-9.7
		c-3.7,0-6.6,0-10,0c0,3.4,0,6.6,0,9.7c-3.2-0.1-6.5-0.2-10.2-0.3c0-3.5,0-6.5,0-9.4c-3.4,0-6.3,0-9.6,0c-0.2,3.3-0.3,6.4-0.5,9.6
		c-3.6,0-6.6,0-9.6,0L539.8,440z"/>
	<path class="st0" d="M639.7,420c-36.6,0-73.1,0-109.7,0c0-3.1,0-6.2,0-10.1c3.3,0,6.5,0,9.8,0c13.2,0,26.4,0,40,0
		c0-3.7,0-6.8,0-9.9c3.2,0,6.5,0,9.8,0c0.2,3.8,0.3,6.7,0.4,9.6c6.8,0,13.2,0,19.6,0c0.1-3.3,0.3-6.3,0.4-9.6c3.6,0,6.7,0,9.8,0l0,0
		c0,3.1,0,6.2,0,10.1c6.9,0,13.5,0,20,0C639.9,413.4,639.8,416.7,639.7,420z"/>
	<path class="st3" d="M439.9,230c6.5,0,12.9,0,20,0c0,3.4,0,6.5,0,9.9c6.8,0,13.1,0,20.1,0c0,3.6,0,6.9,0,10.1c-3.1,0-6.3,0-9.8,0
		c0,6.6,0,12.9,0,19.7c-3.4,0-6.5,0-10.1,0c0,3.6,0,6.7,0,10c-6.9,0-13.1,0-19.7,0c0-6.5,0-12.8,0-19.6c3.1,0,6,0,9.3,0
		c0-6.8,0-13.2,0-20c-3,0-6,0-9.7,0C439.9,236.5,439.9,233.2,439.9,230z"/>
	<path class="st1" d="M170,360c-10.1,0-20.1,0-30.2,0c0-9.8,0-19.6,0-29.8c3.4,0,6.5,0,10,0c0-3.5,0-6.6,0-9.9c3.4,0,6.4,0,9.8,0
		c0,2.9,0,6,0,9.5c3.5,0,6.6,0,10.4,0C170,340.2,170,350.1,170,360z"/>
	<path class="st9" d="M620,400c-3.1,0-6.2,0-9.8,0c-0.1,3.3-0.3,6.3-0.4,9.6c-6.4,0-12.8,0-19.6,0c-0.1-2.9-0.3-5.8-0.4-9.6
		c-3.3,0-6.6,0-9.8,0l0,0c0-3.4-0.1-6.7-0.1-10.1c0-3.1,0-6.2,0-9.6c10.1,0,19.8,0,29.9,0c0,3,0,6,0,9.4c3.4,0,6.4,0,10.3,0
		C620,393.5,620,396.7,620,400z"/>
	<path class="st10" d="M160.1,200c3.3,0,6.6,0.1,9.9,0.1c0,13.1,0,26.1,0,39.7c3.3,0,6.3,0,9.9,0c0,7.1,0,13.6,0,20.2l0.1-0.1
		c-3.1,0-6.2,0-9.9,0c0-3.3,0-6.3,0-10c-3.7,0-7,0-10.2,0l0.1,0.1c0-6.5,0-12.9,0-19.9c-3.4,0-6.5,0-9.8,0c0-3.5,0-6.4,0-9.9
		c2.9,0,6,0,9.9,0C160.1,213.2,160.1,206.6,160.1,200z"/>
	<path class="st10" d="M220.1,270c-0.1-3.3-0.2-6.6-0.3-9.9c0-3.2,0-6.4,0-10.1c-3.6,0-6.7,0-9.7,0c0-13.1,0-26.2,0-39.9
		c3.4,0,6.6,0,9.9,0l-0.1-0.1c0,6.7,0.1,13.3,0.1,20c0,3.2,0,6.5,0,10.1c3.7,0,6.8,0,9.9,0l0,0c0,3.4,0.1,6.8,0.1,10.1
		c-0.1,6.6-0.2,13.2-0.3,19.9C226.6,270,223.3,270,220.1,270z"/>
	<path class="st10" d="M449.9,400.2c-3.1,0-6.2,0-9.7,0c0-3.5,0-6.6,0-9.9c19.8,0,39.4,0,59.5,0c0,3.3,0,6.5,0,9.8
		c-3.3,0-6.6,0-9.9,0C476.5,400.1,463.2,400.1,449.9,400.2z"/>
	<path class="st9" d="M579.9,400c0,3.1,0,6.2,0,9.9c-13.6,0-26.8,0-40,0c0-3.1,0-6.2,0-9.7c3.4,0,6.3,0,9.8,0c0-3.4,0-6.5,0-10
		c7.1,0,13.7,0,20.3,0c0,3.2,0,6.3,0,9.9C573.8,400,576.8,400,579.9,400L579.9,400z"/>
	<path class="st10" d="M449.8,420.1c-3.1,0-6.2,0-9.6,0c0-3.4,0-6.4,0-10.2c3.2,0,6.4,0,9.7,0c13.3,0,26.6,0.1,39.9,0.1
		c3.3,0,6.6,0,9.9,0c0.1,3.3,0.2,6.6,0.3,10c-3.4,0-6.7,0.1-10.1,0.1C476.6,420,463.2,420.1,449.8,420.1z"/>
	<path class="st1" d="M489.9,420c3.4,0,6.7-0.1,10.1-0.1c3.1,0,6.2,0,9.9,0c0,10.3,0,20.2,0,30.1c-3.3,0-6.6,0-9.9,0
		c-3.4,0-6.8-0.1-10.1-0.1c0-3.4,0-6.7,0-10.1c0-3.3,0-6.5,0-9.8C489.9,426.8,489.9,423.4,489.9,420z"/>
	<path class="st4" d="M430,230c0,6.4,0,12.9,0,19.7c-6.8,0-13.1,0-19.8,0c0-9.7,0-19.3,0-29.7c3.3,0,6.5,0,9.7,0c3.4,0,6.7,0,10.1,0
		l-0.1-0.1C429.9,223.3,429.9,226.6,430,230z"/>
	<path class="st9" d="M209.9,359.9c3.1,0,6.3,0,9.7,0c0,6.8,0,13,0,19.8c-3.2,0.1-6.5,0.2-9.7,0.3c-6.5,0-13.1,0-20,0
		c0-3.8,0-6.9,0-10c0.1-3.3,0.1-6.7,0.2-10c3.3-0.1,6.6-0.1,9.9-0.2C203.3,359.9,206.6,359.9,209.9,359.9z"/>
	<path class="st3" d="M530,260c-13.4,0-26.7,0.1-40.1,0.1c-3.1,0-6.2,0-10,0c0-3.7,0-6.9,0-10.2c16.4,0,32.9,0,50.1,0
		C530,253.5,530,256.8,530,260z"/>
	<path class="st11" d="M119.9,259.9c0-6.6,0-13.2,0-19.9c3.4,0,6.8-0.1,10.2-0.1c3.1,0,6.3,0,9.6,0c0,6.8,0,13.2,0,19.9
		c-3.1,0-6.1,0-9.5,0c0,3.4,0,6.4,0,10.2c-3.7,0-7,0-10.2,0C120,266.7,119.9,263.3,119.9,259.9z"/>
	<path class="st4" d="M260.1,260.1c-0.1-3.4-0.1-6.7-0.2-10.1c0-3.2,0-6.4,0-10c3.9,0,6.9,0,10,0c3.1,0,6.2,0,9.9,0
		c0,7,0,13.6,0,20.1C273.2,260.1,266.7,260.1,260.1,260.1z"/>
	<path class="st4" d="M489.8,410c-13.3,0-26.6-0.1-39.9-0.1c0-3.2,0-6.5,0-9.7c13.3,0,26.6-0.1,39.9-0.1
		C489.8,403.3,489.8,406.7,489.8,410z"/>
	<path class="st4" d="M269.8,460.1c-6.5,0-12.9,0-19.6,0c0-6.8,0-13,0-20.1c6.5,0,13,0,19.6,0C269.8,446.6,269.8,453.4,269.8,460.1z
		"/>
	<path class="st10" d="M119.9,259.9c0,3.4,0.1,6.8,0.1,10.2c0,3.3-0.1,6.6-0.1,9.9c0,0,0.1-0.1,0.1-0.1c-6.4,0-12.9,0-19.7,0
		c0-6.5,0-12.9,0-20.1C106.8,259.9,113.3,259.9,119.9,259.9z"/>
	<path class="st0" d="M489.9,420c0,3.4-0.1,6.7-0.1,10.1c-10,0-20,0-30,0c-3.1,0-6.2,0-10.1,0c0-3.6,0-6.9,0-10.1
		C463.2,420.1,476.6,420,489.9,420z"/>
	<path class="st4" d="M270,270.1c0,3.3,0,6.6,0,9.9c0,3.2,0,6.4,0,10c-3.9,0-6.9,0-10,0c-3.1,0-6.2,0-9.7,0c0-6.7,0-13,0-20.1
		c3.2,0,6.4,0,9.7,0C263.3,270,266.7,270.1,270,270.1z"/>
	<path class="st0" d="M489.8,439.9c0,3.4,0,6.7,0,10.1c-3.3,0-6.6,0.1-9.9,0.1c-10,0-20.1-0.1-30.1-0.1c0-3.1,0-6.2,0-10.1
		c3.6,0,6.8,0,10.1,0C469.9,439.9,479.8,439.9,489.8,439.9z"/>
	<path class="st1" d="M200,359.9c-3.3,0.1-6.6,0.1-9.9,0.2c-3.4,0-6.8-0.1-10.2-0.1c0-6.4,0-12.9,0-19.6c6.7,0,13.1,0,20.1,0
		C200,346.8,200,353.3,200,359.9z"/>
	<path class="st1" d="M130.1,360c-6.7,0-13.4,0-20.2,0c0-6.4,0-12.9,0-19.7c6.7,0,13.1,0,20.2,0C130.1,346.8,130.1,353.4,130.1,360z
		"/>
	<path class="st10" d="M130.1,239.9c-3.4,0-6.8,0.1-10.2,0.1c-3.1,0-6.3,0-9.6,0c0-6.7,0-13,0-20c3.1,0,6.4,0,9.6,0
		c3.3,0,6.6,0,9.9,0C129.9,226.6,130,233.3,130.1,239.9z"/>
	<path class="st3" d="M260,290c3.1,0,6.2,0,10,0c0-3.6,0-6.8,0-10c3.1,0,6.2,0,9.7,0c0,6.8,0,13.1,0,19.7c-6.4,0-12.7,0-19.7,0
		C260,296.5,260,293.3,260,290z"/>
	<path class="st3" d="M269.9,240c-3.1,0-6.2,0-10,0c0,3.6,0,6.8,0,10c-3.1,0-6.3,0-9.7,0c0-6.7,0-12.9,0-19.8
		c3.1-0.1,6.4-0.2,9.6-0.4c3.3,0.1,6.6,0.1,9.9,0.2C269.9,233.4,269.9,236.7,269.9,240z"/>
	<path class="st4" d="M269.8,230.1c-3.3-0.1-6.6-0.1-9.9-0.2c0.1-10,0.1-20,0.2-30c3.3,0.1,6.6,0.2,9.9,0.2
		C269.9,210.1,269.9,220.1,269.8,230.1z"/>
	<path class="st4" d="M489.8,439.9c-10,0-20,0-30,0c0-3.2,0-6.5,0-9.7c10,0,20,0,30,0C489.8,433.4,489.8,436.6,489.8,439.9z"/>
	<path class="st9" d="M260,420.1c-3.3,0-6.7,0-10,0c-3.1,0-6.2,0-9.7,0c0-3.5,0-6.5,0-9.8c9.8,0,19.5,0,29.4,0c0,3.2,0,6.1,0,9.8
		C266.5,420.1,263.2,420.1,260,420.1z"/>
	<path class="st12" d="M100,359.8c-3.3,0-6.7,0-10,0c0-9.9-0.1-19.8-0.1-29.7c0,0,0.1-0.3,0.1-0.3c3.1,0,6.2,0,10,0
		C100,340.2,100,350,100,359.8z"/>
	<path class="st10" d="M150,270c0-6.5,0-12.9,0-20c3.5,0,6.7,0,10,0l-0.1-0.1c0,6.5,0,12.9,0,20C156.4,270,153.2,270,150,270
		L150,270z"/>
	<path class="st3" d="M270,270.1c-3.3-0.1-6.7-0.1-10-0.2c0-3.3,0.1-6.6,0.1-9.9c6.6,0,13.2,0,19.8,0c0,3.1,0,6.2,0,10.1
		C276.4,270.1,273.2,270.1,270,270.1z"/>
	<path class="st11" d="M129.8,220c-3.3,0-6.6,0-9.9,0c0-6.6,0.1-13.3,0.1-19.9c3.3,0,6.6,0,9.9,0C129.9,206.7,129.8,213.3,129.8,220
		z"/>
	<path class="st11" d="M489.8,410c0-3.3,0-6.6,0-10c3.3,0,6.6,0,9.9,0c0,3.3,0,6.6,0,9.9C496.4,410,493.1,410,489.8,410z"/>
	<path class="st0" d="M579.9,400c-3.1,0-6.1,0-10,0c0-3.5,0-6.7,0-9.9c3.3-0.1,6.6-0.2,9.9-0.2C579.8,393.3,579.9,396.7,579.9,400z"
		/>
	<path class="st11" d="M119.9,280c3.1,0,6.3,0,9.7,0c0,3.2,0,6.3,0,9.7c-3,0-6,0-9.6,0C120,286.5,120,283.2,119.9,280L119.9,280z"/>
	<path class="st3" d="M220.1,270c3.2,0,6.5,0,9.7,0c0,3.1,0,6.2,0,9.7c-3.1,0-6.2,0-9.7,0C220.1,276.4,220.1,273.2,220.1,270z"/>
	<path class="st10" d="M149.9,270c0,3.1,0,6.2,0,9.7c-3.2,0-6.3,0-9.6,0c0-3,0-6,0-9.6C143.5,270,146.8,270,149.9,270L149.9,270z"/>
	<path class="st3" d="M209.9,260c0,3.1,0,6.3,0,9.7c-3.4,0-6.4,0-9.7,0c0-3.1,0-6,0-9.6C203.5,260,206.7,260,209.9,260L209.9,260z"
		/>
	<path class="st10" d="M179.9,260c3.1,0,6.2,0,9.7,0c0,3.2,0,6.3,0,9.6c-3,0-6,0-9.6,0C180,266.4,180,263.2,179.9,260L179.9,260z"/>
	<path class="st3" d="M210.1,250c3.1,0,6.1,0,9.7,0c0,3.7,0,6.9,0,10.1c-3.3,0-6.6-0.1-9.9-0.1l0.1,0.1
		C210,256.7,210.1,253.3,210.1,250z"/>
	<path class="st3" d="M230.1,250.1c0-3.4-0.1-6.8-0.1-10.1c3.1,0,6.3,0,9.7,0c0,3.4,0,6.3,0,9.8C236.5,249.9,233.3,250,230.1,250.1z
		"/>
	<path class="st3" d="M230,240c-3.1,0-6.2,0-9.9,0c0-3.6,0-6.8,0-10.1c3.1,0,6.2,0,9.9,0C230,233.6,230,236.8,230,240z"/>
	<path class="st3" d="M430,230c0-3.4,0-6.7,0-10.1c3.1,0,6.2,0,10,0c0,3.6,0,6.9,0,10.1C436.6,230,433.3,230,430,230z"/>
	<path class="st3" d="M430,220c-3.4,0-6.7,0-10.1,0c0-3.3,0-6.7,0-10c3.1,0,6.2,0,10.1,0C430,213.5,430,216.8,430,220z"/>
	<path class="st0" d="M410,200.1c3.3,0,6.6,0,9.9,0c0,3.3,0.1,6.6,0.1,10c-3.1,0-6.2,0-10,0C410,206.5,410,203.3,410,200.1z"/>
	<path class="st10" d="M220,200.1c3.3,0,6.6,0,9.9,0c0,3.1,0,6.2,0,9.9c-3.5,0-6.8,0-10,0l0.1,0.1C220,206.7,220,203.4,220,200.1z"
		/>
	<path class="st8" d="M90,420.1c39.8,0,79.6,0,119.6,0c0,13.3,0,26.2,0,39.9c-3.1,0-6.4,0-9.6,0c0-6.6,0-13.2,0-20.2
		c-3.8,0-6.9,0-10.4,0c0-3.5,0-6.6,0-9.5c-3.4,0-6.4,0-9.8,0c0,3.3,0,6.4,0,9.9c-3.5,0-6.6,0-10,0c0,6.9,0,13.4,0,19.8
		c-3.3,0-6.6,0-9.8,0c0-9.9,0-19.7,0-29.6c-7.1,0-13.4,0-20.2,0c0,10.1,0,19.8,0,29.6c-3.3,0-6.6,0-9.9-0.1c0-3.2,0-6.4,0-10
		c-3.8,0-6.9,0-10,0c0-3.2,0-6.5,0-9.6c-3.7,0-6.7,0-10,0c0,3.4,0,6.5,0,9.6c-3.2,0-6.4,0-10,0c0,3.8,0,6.9,0,10
		c-3.3,0-6.6,0.1-9.9,0.1c-0.1-10-0.2-20-0.2-29.9C89.9,426.7,90,423.4,90,420.1z"/>
	<path class="st8" d="M189.9,370.1c0,3.1,0,6.2,0,10c6.9,0,13.5,0,20,0c0,9.7,0,19.5,0,29.8c-3.4,0-6.7,0-9.9,0c0-6.6,0-13.1,0-19.6
		c-7.1,0-13.4,0-20.1,0c0,6.7,0,13.2,0,19.6c-3.3,0-6.6,0.1-9.9,0.1c0-9.9,0-19.8,0-29.6c-3.7,0-6.8,0-10.2,0c0,10.1,0,19.9,0,29.6
		c-3.3,0-6.6-0.1-9.9-0.1c0-9.9,0-19.7,0-29.5c-7.1,0-13.3,0-20.1,0c0,10,0,19.8,0,29.5c-3.3,0-6.6,0.1-9.9,0.1c0-6.6,0-13.1,0-20.2
		c-3.8,0-6.8,0-10.4,0c0-3.6,0-6.6,0-9.5c-3.4,0-6.4,0-9.8,0c0,3.3,0,6.3,0,9.8c-3.6,0-6.7,0-9.8,0c0-6.6,0-13.3,0-19.9
		c12.8-0.1,25.6-0.1,38.4-0.1C148.9,370,169.4,370,189.9,370.1z"/>
	<path class="st8" d="M210,479.9c-6.7,0.1-13.4,0.1-20.1,0.2c-3.3,0-6.6,0-9.8,0c-5.8,0-11.7-0.1-17.5-0.1
		c-24.2-0.1-48.3-0.1-72.5-0.1c0-3.2-0.1-6.5-0.1-9.7c6-0.1,12-0.1,18-0.1c31.9,0,63.9,0,95.8,0c1.8,0,3.6,0,6.2,0
		C210,473.4,210,476.7,210,479.9z"/>
	<path class="st4" d="M90,470.2c0,3.2,0.1,6.5,0.1,9.7l-0.2,0.2c-3.2,0-6.4,0-9.5,0c0,3.7,0,6.6,0,9.9c3.4,0,6.6,0,9.7,0l-0.1-0.1
		c0,3.3,0.1,6.6,0.1,9.9c-3.1,0-6.2,0-9.8,0c-0.2,3.4-0.3,6.4-0.4,10c-3.4,0-6.7,0-9.9,0c0-3.1,0-6.2,0-9.9c-3.5,0-6.7,0-9.9,0
		c0-3.1,0-6.2,0-10c-3.5,0-6.8,0-10,0c0-3.3,0-6.7,0-10c6.4,0,12.9,0,19.9,0c0-3.3,0-6.3,0-9.8C76.9,470.2,83.5,470.2,90,470.2z"/>
	<path class="st4" d="M90,370.2c0,6.6,0,13.3,0,19.9c0,6.6,0,13.3,0,19.9l-0.2,0c-6.6,0-13.2,0-19.8,0c0-13.1,0-26.2,0-39.8
		C76.9,370.2,83.4,370.2,90,370.2z"/>
	<path class="st1" d="M169.9,460c0-6.5,0-12.9,0-19.8c3.4,0,6.5,0,10,0c0-3.5,0-6.6,0-9.9c3.4,0,6.3,0,9.8,0c0,2.9,0,6,0,9.5
		c3.5,0,6.6,0,10.4,0c0,7,0,13.6,0,20.2C190,460,179.9,460,169.9,460z"/>
	<path class="st10" d="M90,409.9c0-6.6,0-13.3,0-19.9c3.1,0,6.2,0,9.8,0c0-3.4,0-6.5,0-9.8c3.4,0,6.3,0,9.8,0c0,2.9,0,6,0,9.5
		c3.5,0,6.6,0,10.4,0c0,7.1,0,13.6,0,20.2C110,409.9,100,409.9,90,409.9z"/>
	<path class="st9" d="M70,409.9c6.6,0,13.2,0,19.8,0c0.1,3.4,0.2,6.7,0.2,10.1c-0.1,3.3-0.2,6.6-0.2,10c-3.3,0-6.6,0-9.8,0
		c-3.3,0-6.6,0-10,0c-3.1,0-6.2,0-9.7,0c0-6.8,0-13,0-19.8C63.5,410.1,66.8,410,70,409.9z"/>
	<path class="st10" d="M139.9,459.9c0-9.8,0-19.5,0-29.6c6.7,0,13.1,0,20.2,0c0,9.8,0,19.7,0,29.6
		C153.3,459.9,146.6,459.9,139.9,459.9z"/>
	<path class="st12" d="M129.9,409.8c0-9.7,0-19.5,0-29.5c6.7,0,13,0,20.1,0c0,9.8,0,19.7,0,29.5
		C143.3,409.8,136.6,409.8,129.9,409.8z"/>
	<path class="st13" d="M179.9,409.9c0-6.4,0-12.9,0-19.6c6.7,0,13,0,20.1,0c0,6.5,0,13,0,19.6C193.3,409.9,186.6,409.9,179.9,409.9z
		"/>
	<path class="st4" d="M70,430.1c3.3,0,6.6,0,10,0c0,10,0,19.9-0.1,29.9c-3.1,0-6.2,0-9.9,0C70,449.8,70,439.9,70,430.1z"/>
	<path class="st1" d="M159.9,410c0-9.8,0-19.5,0-29.6c3.4,0,6.4,0,10.2,0c0,9.9,0,19.8,0,29.6C166.7,410,163.3,410,159.9,410z"/>
	<path class="st13" d="M120,449.9c3.1,0,6.2,0,10,0c0,3.5,0,6.7,0,10c-10,0-20.1,0-30.1,0c0-3.1,0-6.2,0-10c3.6,0,6.8,0,10,0
		C113.3,449.9,116.6,449.9,120,449.9z"/>
	<path class="st13" d="M89.9,330.1c0,9.9,0.1,19.8,0.1,29.7c-3.4,0-6.7,0-10.1,0c0-9.7,0-19.4,0-29.8
		C83.5,330.1,86.7,330.1,89.9,330.1z"/>
	<path class="st1" d="M79.9,460c0-10,0-19.9,0.1-29.9c3.3,0,6.6,0,9.8,0c0.1,10,0.2,20,0.2,29.9C86.7,460,83.3,460,79.9,460z"/>
	<path class="st4" d="M90.1,479.9c24.2,0,48.3,0.1,72.5,0.1c5.8,0,11.7,0.1,17.5,0.1c0,3.3-0.1,6.6-0.1,9.9c0,0,0.1-0.1,0.1-0.1
		c-3.2,0-6.5,0-10.1,0c0,3.8,0,7,0,10.1l0.1-0.1c-3.2,0-6.5,0-10.1,0c0,3.8,0,7,0,10.1l0.1-0.1c-3.2,0-6.5,0-10.1,0
		c0,3.8,0,7,0,10.1l0.1-0.1c-3.2,0-6.4,0-9.9,0c0,3.8,0,6.8,0,9.9l-0.2,0.2c-3.1,0-6.2,0-9.8,0c0-6.9,0-13.1,0-19.8
		c-3.5-0.2-6.5-0.4-10-0.6c0-6.5,0-12.7,0-19.7c-7,0-13.6,0-20.1,0c-3.3,0-6.7,0-10-0.1L90,490c0-3.3-0.1-6.6-0.1-9.9L90.1,479.9z"
		/>
	<path class="st9" d="M89.9,490c3.3,0,6.7,0,10,0.1c0,3.1,0,6.2,0,9.8c-3.5,0-6.7,0-9.9,0C90,496.6,90,493.3,89.9,490z"/>
	<path class="st4" d="M80,530c0-3.1,0-6.2,0-9.7c3.3,0,6.2,0,10,0c0,3.2,0,6.4,0,9.7l0,0C86.6,530,83.3,530,80,530L80,530z"/>
	<path class="st4" d="M100,530c0-3.1,0-6.2,0-9.7c3.3,0,6.2,0,10,0c0,3.2,0,6.4,0,9.7l0,0C106.6,530,103.3,530,100,530L100,530z"/>
	<path class="st4" d="M50,540c0-3.1,0-6.2,0-9.7c3.3,0,6.2,0,10,0c0,3.2,0,6.4,0,9.7l0,0C56.7,540,53.3,540,50,540L50,540z"/>
	<path class="st4" d="M70,540c0-3.1,0-6.2,0-10c3.6,0,6.8,0,10,0l0,0c0,3.4,0,6.7,0,10.1L80,540C76.7,540,73.3,540,70,540L70,540z"
		/>
	<path class="st4" d="M100,540c-3.3,0-6.7,0-10,0l0,0c0-3.4,0-6.7,0-10.1l0,0c3.3,0,6.7,0,10,0l0,0C99.9,533.3,99.9,536.7,100,540
		L100,540z"/>
	<path class="st4" d="M109.9,530c3.1,0,6.2,0,9.7,0c0,3.3,0,6.2,0,10c-3.2,0-6.4,0-9.7,0l0,0C110,536.7,110,533.3,109.9,530
		L109.9,530z"/>
	<path class="st4" d="M50,550c-3.1,0-6.2,0-9.7,0c0-3.3,0-6.2,0-10c3.2,0,6.4,0,9.7,0l0,0C50,543.3,50,546.7,50,550L50,550z"/>
	<path class="st4" d="M60,540c3.3,0,6.7,0,10,0l0,0c0,3.4,0,6.7,0,10.1l0,0c-3.3,0-6.7,0-10,0l0,0C60,546.7,60,543.3,60,540L60,540z
		"/>
	<path class="st4" d="M90,540c0,3.1,0,6.2,0,10c-3.6,0-6.8,0-10,0l0,0c0-3.4,0-6.7,0-10.1l-0.1,0.1C83.3,540,86.6,540,90,540L90,540
		z"/>
	<path class="st4" d="M109.9,540c0,3.1,0,6.2,0,9.7c-3.3,0-6.2,0-10,0c0-3.2,0-6.4,0-9.7l0,0C103.3,540,106.6,540,109.9,540
		L109.9,540z"/>
	<path class="st9" d="M150,550c-3.3,0-6.7,0-10-0.1c0-3.3,0.1-6.6,0.1-9.9c3.1,0,6.2,0,9.9,0C150,543.6,150,546.8,150,550z"/>
	<path class="st4" d="M60,550c0,3.1,0,6.2,0,9.7c-3.3,0-6.2,0-10,0c0-3.2,0-6.4,0-9.7l0,0C53.3,550,56.7,550,60,550L60,550z"/>
	<path class="st4" d="M80,550c0,3.1,0,6.2,0,9.7c-3.3,0-6.2,0-10,0c0-3.2,0-6.4,0-9.7l0,0C73.3,550,76.7,550,80,550L80,550z"/>
	<path class="st9" d="M179.9,490c0-3.3,0.1-6.6,0.1-9.9c3.3,0,6.6,0,9.8,0c0,3.1,0,6.2,0,9.9C186.4,490,183.1,490,179.9,490z"/>
	<path class="st9" d="M169.9,500c0-3.1,0-6.2,0-10.1c3.6,0,6.8,0,10.1,0c0,3.1,0,6.2,0,10.1C176.4,500,173.2,500,169.9,500z"/>
	<path class="st9" d="M159.9,510c0-3.1,0-6.2,0-10.1c3.6,0,6.8,0,10.1,0c0,3.1,0,6.2,0,10.1C166.4,510,163.2,510,159.9,510z"/>
	<path class="st9" d="M149.9,520c0-3.1,0-6.2,0-10.1c3.6,0,6.8,0,10.1,0c0,3.1,0,6.2,0,10.1C156.4,520,153.2,520,149.9,520z"/>
	<path class="st9" d="M140.1,529.9c0-3.1,0-6.2,0-9.9c3.5,0,6.7,0,9.9,0c0,3.1,0,6.2,0,9.9C146.5,529.9,143.3,529.9,140.1,529.9z"/>
	<path class="st4" d="M99.9,140.1c-6.4,0-12.8,0-19.6,0c0-3.5,0-6.4,0-10c6.5-0.1,13-0.2,19.6-0.3l0.2,0.2c0,3.2,0,6.5,0,9.7
		L99.9,140.1z"/>
	<path class="st4" d="M60.4,130.2c3.2,0,6,0,9.2,0c0,3.2,0,6.2,0,9.5c-3.1,0-6,0-9.2,0C60.4,136.5,60.4,133.3,60.4,130.2z"/>
	<path class="st8" d="M150,140c-6.5,0-12.9,0-19.7,0c0-3.4,0-6.3,0-10c6.5,0,13.1,0,19.7,0l0,0C150,133.3,150,136.7,150,140L150,140
		z"/>
	<path class="st8" d="M100.1,139.9c0-3.2,0-6.5,0-9.7c3.1,0,6.2,0,9.6,0c0,3.2,0,6.1,0,9.7C106.5,139.9,103.3,139.9,100.1,139.9z"/>
	<path class="st9" d="M599.8,190c-3.1,0-6.3,0-9.7,0c0,3.3,0,6.3,0,9.6c-13.4,0-26.4,0-40,0c-0.1-3-0.3-6.3-0.4-9.5
		c0.1-16.7,0.1-33.4,0.2-50.1l0,0c16.7,0,33.3,0,50,0l0,0C599.9,156.7,599.9,173.3,599.8,190z"/>
	<path class="st8" d="M599.9,130c6.5,0,12.9,0,19.7,0c0,3.4,0,6.3,0,10c-6.5,0-13.1,0-19.7,0l0,0C599.9,136.7,599.9,133.3,599.9,130
		L599.9,130z"/>
	<path class="st8" d="M649.8,130.1c0,3.2,0,6.5,0,9.7c-3.1,0-6.2,0-9.6,0c0-3.2,0-6.1,0-9.7C643.4,130.1,646.6,130.1,649.8,130.1z"
		/>
	<path class="st4" d="M150,140c0-3.4,0-6.7,0-10.1c16.6,0,33.3-0.1,49.9-0.1c0,0,0.2,0.2,0.2,0.2c0,3.2,0,6.5,0,9.7l-0.2,0.2
		C183.2,140.1,166.6,140.1,150,140z"/>
	<path class="st4" d="M299.8,140.1c-16.6,0-33.2,0-49.8,0l-0.2-0.2c0-3.2,0-6.5,0-9.7l0.2-0.2c16.6,0,33.2,0,49.8,0l0.2,0.2
		c0,3.2,0,6.5,0,9.7L299.8,140.1z"/>
	<path class="st4" d="M450,129.9c16.6,0,33.2,0,49.8,0l0.2,0.2c0,3.2,0,6.5,0,9.7l-0.2,0.2c-16.6,0-33.2,0-49.8,0l-0.2-0.2
		c0-3.2,0-6.5,0-9.7L450,129.9z"/>
	<path class="st4" d="M599.9,130c0,3.4,0,6.7,0,10.1c-16.7,0-33.3,0-50,0c0-3.3-0.1-6.6-0.1-9.9c0,0,0.2-0.2,0.2-0.2
		C566.6,129.9,583.3,129.9,599.9,130z"/>
	<path class="st8" d="M249.8,130.1c0,3.2,0,6.5,0,9.7c-16.6,0-33.2,0-49.7,0c0-3.2,0-6.5,0-9.7C216.7,130.1,233.2,130.1,249.8,130.1
		z"/>
	<path class="st8" d="M300.1,139.9c0-3.2,0-6.5,0-9.7c16.6,0,33.3-0.1,49.9-0.1l0,0c0,3.4,0,6.7,0,10.1c0,0,0,0,0,0
		C333.3,140,316.7,139.9,300.1,139.9z"/>
	<path class="st8" d="M449.8,130.1c0,3.2,0,6.5,0,9.7c-16.6,0-33.3,0.1-49.9,0.1c0,0,0,0,0,0c0-3.4,0-6.7,0-10.1l0,0
		C416.5,130,433.2,130.1,449.8,130.1z"/>
	<path class="st8" d="M549.8,130.1c0,3.3,0.1,6.6,0.1,9.9l0,0c-16.6,0-33.3-0.1-49.9-0.1c0-3.2,0-6.5,0-9.7
		C516.6,130.1,533.2,130.1,549.8,130.1z"/>
	<ellipse class="st4" cx="374.9" cy="135" rx="35.3" ry="7.1"/>
	<path class="st9" d="M369.6,549.9c-3.3,0-6.1,0-9.3,0c0-3.1,0-6.2,0-9.5c2.9,0,6,0,9.3,0C369.6,543.4,369.6,546.4,369.6,549.9z"/>
	<path class="st9" d="M380.2,540.2c3.1,0,6.1,0,9.3,0c0,3,0,6.1,0,9.4c-3,0-6,0-9.3,0C380.2,546.7,380.2,543.7,380.2,540.2z"/>
	<path class="st11" d="M479.9,450c3.3,0,6.6-0.1,9.9-0.1c3.4,0,6.8,0.1,10.1,0.1c0,3.1,0,6.2,0,10.1c-3.6,0-6.8,0-10.1,0
		c-3.3,0-6.7-0.1-10-0.1C479.9,456.7,479.9,453.4,479.9,450z"/>
	<path class="st4" d="M479.9,460.1c3.3,0,6.7,0.1,10,0.1c0,3.2,0,6.4,0,9.7c-3.3,0-6.7,0.1-10,0.1
		C479.9,466.6,479.9,463.4,479.9,460.1z"/>
	<path class="st9" d="M569.9,490c-3.1,0-6.2,0-10.1,0c0-3.4,0-6.6,0-9.8l0.1-0.4c3.3,0.1,6.6,0.2,10,0.3
		C569.9,483.4,569.9,486.7,569.9,490L569.9,490z"/>
	<path class="st9" d="M579.9,500c-3.1,0-6.2,0-10,0c0-3.5,0-6.8,0-10l-0.1,0.1c3.2,0,6.5,0,10,0C579.9,493.8,579.9,496.9,579.9,500
		L579.9,500z"/>
	<path class="st9" d="M589.9,510c-3.1,0-6.2,0-10,0c0-3.5,0-6.8,0-10l-0.1,0.1c3.2,0,6.5,0,10,0C589.9,503.8,589.9,506.9,589.9,510
		L589.9,510z"/>
	<path class="st9" d="M599.9,520c-3.1,0-6.2,0-10,0c0-3.5,0-6.8,0-10l-0.1,0.1c3.2,0,6.5,0,10,0C599.9,513.8,599.9,516.9,599.9,520
		L599.9,520z"/>
	<path class="st9" d="M609.9,530c-3.1,0-6.2,0-10,0c0-3.5,0-6.8,0-10l-0.1,0.1c3.2,0,6.5,0,10,0C609.9,523.8,609.9,526.9,609.9,530
		L609.9,530z"/>
	<path class="st9" d="M619.9,530c0,3.4,0,6.7,0.1,10.1c-3.4,0-6.7,0-10.1,0c0-3.4,0-6.7,0.1-10.1l-0.1,0.1
		C613.2,530,616.6,530,619.9,530L619.9,530z"/>
	<path class="st9" d="M609.9,540c0,3.1,0,6.2,0,10.1c-3.6,0-6.8,0-10.1,0c0-3.1,0-6.2,0-10.1C603.5,540,606.7,540,609.9,540z"/>
	<path class="st1" d="M540,479.9c0-3.1,0-6.1,0-9.9c3.5,0,6.7,0,9.9,0c0,3.3,0,6.6,0,9.9C546.5,479.8,543.3,479.9,540,479.9z"/>
	<path class="st0" d="M549.8,479.8c0-3.3,0-6.6,0-9.9c0,0,0,0,0,0c3.4,0,6.7,0,10.1,0c0,3.3,0,6.5,0.1,9.8c0,0-0.1,0.4-0.1,0.4
		C556.5,480.1,553.2,480,549.8,479.8z"/>
	<path class="st0" d="M540,440c3,0,6,0,9.6,0c0.2-3.2,0.3-6.3,0.5-9.6c3.2,0,6.1,0,9.6,0c0,3,0,5.9,0,9.4c3.7,0.1,7,0.2,10.2,0.3
		l0,0c0,3.3,0,6.7,0,10c-3.2,0-6.4,0-10,0c0,3.8,0,6.9,0,10c-3.3,0-6.6,0-9.9,0c0-3.1,0-6.3,0-9.8c-3.4-0.2-6.4-0.3-10-0.4
		C540,446.4,540,443.2,540,440z"/>
	<path class="st8" d="M519.9,450c3.1,0,6.3,0,9.7,0c0,3.4,0,6.4,0,9.7c-3.1,0-6,0-9.6,0C519.9,456.5,519.9,453.2,519.9,450
		L519.9,450z"/>
	<path class="st1" d="M550,460.1c3.3,0,6.6,0,9.9,0l0,0c0,3.3,0,6.7,0,10l0,0c-3.4,0-6.7,0-10.1,0
		C549.9,466.7,549.9,463.4,550,460.1z"/>
	<path class="st9" d="M619.9,540c3.1,0,6.2,0,10.1,0c0,3.6,0,6.8,0,10.1c-3.1,0-6.2,0-10.1,0C619.9,546.4,619.9,543.2,619.9,540z"/>
	<path class="st9" d="M669.9,480.2c0,3.1,0,6.1,0,9.8c-3.7,0-6.9,0-10.1,0l0.1,0.1c0-3.3-0.1-6.6-0.1-10c3.3-0.1,6.6-0.2,10-0.3
		L669.9,480.2z"/>
	<path class="st9" d="M659.9,490c0,3.1,0,6.2,0,10c-3.5,0-6.8,0-10,0l0.1,0.1c0-3.2,0-6.5,0-10C653.7,490,656.8,490,659.9,490
		L659.9,490z"/>
	<path class="st9" d="M649.9,500c0,3.1,0,6.2,0,10c-3.5,0-6.8,0-10,0l0.1,0.1c0-3.2,0-6.5,0-10C643.7,500,646.8,500,649.9,500
		L649.9,500z"/>
	<path class="st9" d="M639.9,510c0,3.1,0,6.2,0,10c-3.5,0-6.8,0-10,0l0.1,0.1c0-3.2,0-6.5,0-10C633.7,510,636.8,510,639.9,510
		L639.9,510z"/>
	<path class="st9" d="M629.9,520c0,3.1,0,6.2,0,10c-3.5,0-6.8,0-10,0l0.1,0.1c0-3.2,0-6.5,0-10C623.7,520,626.8,520,629.9,520
		L629.9,520z"/>
	<path class="st0" d="M679.9,470c0,3.3,0,6.6,0.1,9.9c-3.3,0.1-6.7,0.2-10,0.3l-0.1-0.4c0-3.3,0-6.5,0.1-9.8
		C673.2,470,676.5,470,679.9,470C679.9,470,679.9,470,679.9,470z"/>
	<path class="st8" d="M639.7,420c0.1-3.3,0.1-6.6,0.2-10c6.6,0,13.2,0,19.8,0c0.1,3.3,0.1,6.6,0.2,9.9c0,3.2,0,6.5,0,9.8
		c3.5,0,6.4,0,9.9,0c0-3.4,0-6.5,0-9.6c3.3,0,6.6-0.1,9.9-0.1c0.1,6.6,0.2,13.3,0.2,19.9c-0.1,3.3-0.1,6.7-0.2,10c0,0,0,0,0,0
		c-3.3,0.1-6.7,0.1-10,0.2c-3.3-0.1-6.6-0.1-9.9-0.2c0-3.2,0-6.5,0-9.8c-3.8,0-6.9,0-10,0c-3.2,0-6.5,0-10.2,0c0-3.9,0-7.1,0-10.2
		C639.7,426.7,639.7,423.3,639.7,420z"/>
	<path class="st0" d="M659.9,400c-3.1,0-6.2,0-9.7,0c0-3.4,0-6.4,0-9.7c3.1,0,6,0,9.6,0C659.9,393.6,659.9,396.8,659.9,400
		L659.9,400z"/>
	<path class="st4" d="M669.9,420.2c0,3.1,0,6.2,0,9.6c-3.5,0-6.4,0-9.9,0c0-3.3,0-6.6,0-9.8C663.3,420,666.6,420.1,669.9,420.2z"/>
	<path class="st1" d="M679.9,470c-3.3,0-6.7,0-10,0c0,0,0,0,0,0c0-3.3,0-6.7,0-10l0,0c3.3,0,6.7,0,10,0l0,0
		C679.9,463.3,679.9,466.7,679.9,470z"/>
	<path class="st0" d="M679.9,460c-3.3,0-6.7,0-10,0c0-3.3,0-6.6,0-9.9c3.3-0.1,6.7-0.1,10-0.2C679.9,453.3,679.9,456.7,679.9,460z"
		/>
	<path class="st4" d="M500,139.9c16.6,0,33.3,0.1,49.9,0.1c-0.1,16.7-0.1,33.4-0.2,50.1c-3,0-6,0-9.6,0c-0.2,3.2-0.3,6.2-0.5,9.6
		c-13.1,0-26,0-39.8,0c0-3.2,0-6.4,0-9.7c0-16.6-0.1-33.2-0.1-49.9L500,139.9z"/>
	<path class="st9" d="M499.8,140.1c0,16.6,0.1,33.2,0.1,49.9c-3.1,0-6.3,0-9.7,0c0,3.3,0,6.3,0,9.6c-13.4,0-26.4,0-40,0
		c-0.1-3-0.2-6.3-0.4-9.5c0-14.8,0.1-29.6,0.1-44.5c0-1.8,0.1-3.7,0.1-5.5C466.6,140.1,483.2,140.1,499.8,140.1z"/>
	<path class="st0" d="M579.9,440c3.1,0,6.2,0,9.8,0c0.2-3.4,0.3-6.3,0.4-9.6c3.1,0,6.1,0,9.6,0c0.1,2.9,0.3,5.9,0.5,9.6
		c3.3,0,6.6,0,9.8,0l0,0c0,3.3,0,6.7,0,10c-3.2,0-6.4,0-10,0c0,3.8,0,6.9,0,10c-3.3,0-6.7,0-10,0l0,0c0-3.2,0-6.4,0-10
		c-3.8,0-6.9,0-10,0l0,0C579.9,446.7,579.9,443.3,579.9,440L579.9,440z"/>
	<path class="st0" d="M639.7,430c0,3.1,0,6.3,0,10.2c3.7,0,6.9,0,10.2,0c0,3.3,0,6.6,0,9.9c0,0,0,0,0,0c-3.2,0-6.4,0-10,0
		c0,3.8,0,6.9,0,10l0,0c-3.3,0-6.7,0-10,0c0-3.2,0-6.4,0-10c-3.8,0-6.9,0-10,0c0-3.3,0-6.7,0-10l0,0c3.1,0,6.2,0,9.8,0
		c0-3.3,0-6.2,0-9.7C633.3,430.2,636.5,430.1,639.7,430z"/>
	<path class="st0" d="M609.9,440c0-3.1,0-6.2,0-9.7c3.4,0,6.2,0,10,0c0,3.2,0,6.4,0,9.7l0,0C616.6,440,613.2,440,609.9,440
		L609.9,440z"/>
	<path class="st0" d="M569.9,440c0-3.1,0-6.2,0-9.7c3.4,0,6.2,0,10,0c0,3.2,0,6.4,0,9.7l0,0C576.6,440,573.2,440,569.9,440
		L569.9,440z"/>
	<path class="st1" d="M120,449.9c-3.3,0-6.7,0-10,0c0-3.1,0-6.2,0-9.6c3.3,0,6.4,0,10,0C120,443.5,120,446.7,120,449.9z"/>
	<path class="st9" d="M89.9,480.1c0,3.3,0.1,6.6,0.1,9.9c-3.1,0-6.2,0-9.7,0c0-3.3,0-6.2,0-9.9C83.4,480.1,86.6,480.1,89.9,480.1z"
		/>
	<ellipse transform="matrix(2.404419e-03 -1 1 2.404419e-03 -450.2289 618.6868)" class="st8" cx="85" cy="535" rx="7.1" ry="7.1"/>
	
		<ellipse transform="matrix(2.375860e-03 -1 1 2.375860e-03 -430.2773 638.6987)" class="st8" cx="105" cy="535" rx="7.1" ry="7.1"/>
	<ellipse transform="matrix(2.404418e-03 -1 1 2.404418e-03 -490.1518 598.6678)" class="st8" cx="55" cy="545" rx="7.1" ry="7.1"/>
	<ellipse transform="matrix(2.404418e-03 -1 1 2.404418e-03 -470.2032 618.6645)" class="st8" cx="75" cy="545" rx="7.1" ry="7.1"/>
	<path class="st4" d="M629.9,520c-3.1,0-6.2,0-10,0c0,3.5,0,6.8,0,10c-3.4,0-6.7,0-10.1,0c0-3.1,0-6.2,0-10c-3.5,0-6.8,0-10,0
		c0-3.1,0-6.2,0-10c-3.5,0-6.8,0-10,0c0-3.1,0-6.2,0-10c-3.5,0-6.8,0-10,0c0-3.1,0-6.2,0-10c-3.5,0-6.8,0-10,0c0-3.3,0.1-6.6,0.1-10
		c0,0-0.1-0.1-0.1-0.1c3.4,0,6.7-0.1,10.1-0.1c3.3,0,6.6,0,9.9,0c3.4,0,6.7,0,10.1,0c3.3,0,6.6,0,9.9,0c3.4,0,6.7,0,10.1,0
		c3.3,0,6.6,0,9.9,0c3.4,0,6.7,0,10.1,0c3.3,0,6.6,0,9.9,0c3.4,0,6.7,0.1,10.1,0.1c0,0-0.1,0.1-0.1,0.1c0,3.3,0.1,6.6,0.1,10
		c-3.1,0-6.2,0-10,0c0,3.5,0,6.8,0,10c-3.1,0-6.2,0-10,0c0,3.5,0,6.8,0,10c-3.1,0-6.2,0-10,0C629.9,513.6,629.9,516.8,629.9,520z"/>
	<path class="st1" d="M560,479.8c0-3.3,0-6.5-0.1-9.8l0,0c3.2,0,6.4,0,10,0c0,3.8,0,6.9,0,10l0.1,0.1
		C566.6,480,563.3,479.9,560,479.8z"/>
	<path class="st1" d="M559.9,460c0-3.1,0-6.2,0-10c3.6,0,6.8,0,10,0l0,0c0,3.2,0,6.4,0,10C566.1,460,563,460,559.9,460L559.9,460z"
		/>
	<path class="st1" d="M569.9,440c3.3,0,6.7,0,10,0c0,3.3,0,6.7,0,10c-3.3,0-6.7,0-10,0l0,0C569.9,446.7,569.9,443.3,569.9,440z"/>
	<path class="st0" d="M569.9,450c3.3,0,6.7,0,10,0l0,0c0,3.2,0,6.4,0,10c3.8,0,6.9,0,10,0l0,0c0,3.3,0,6.7,0,10c-3.2,0-6.4,0-10,0
		c0,3.7,0,6.8,0,9.8c-3.4,0-6.7,0.1-10.1,0.1c0-3.1,0-6.2,0-10c-3.6,0-6.8,0-10,0c0-3.3,0-6.7,0-10c3.1,0,6.2,0,10,0
		C569.9,456.4,569.9,453.2,569.9,450z"/>
	<path class="st1" d="M669.9,470c0,3.3,0,6.5-0.1,9.8c-3.3,0.1-6.6,0.2-10,0.3l0.1-0.1c0-3.2,0-6.4,0-10
		C663.7,470,666.8,470,669.9,470L669.9,470z"/>
	<path class="st1" d="M669.8,450.2c0,3.3,0,6.6,0,9.9l0,0c-3.2,0-6.4,0-10,0c0-3.8,0-6.9,0-10l0.1-0.1
		C663.2,450,666.5,450.1,669.8,450.2z"/>
	<path class="st1" d="M649.9,450c0-3.3,0-6.6,0-9.9c3.1,0,6.2,0,10,0c0,3.3,0,6.6,0,9.8l-0.1,0.1C656.5,450,653.2,450,649.9,450z"/>
	<path class="st0" d="M649.9,450c3.3,0,6.7,0,10,0c0,3.1,0,6.2,0,10c3.6,0,6.8,0,10,0c0,3.3,0,6.7,0,10c-3.1,0-6.2,0-10,0
		c0,3.6,0,6.8,0,10c-3.4,0-6.7-0.1-10.1-0.1c0-3.2,0-6.3,0-9.9c-3.8,0-6.9,0-10,0l0,0c0-3.3,0-6.7,0-10l0,0c3.2,0,6.4,0,10,0
		C649.9,456.2,649.9,453.1,649.9,450L649.9,450z"/>
	<path class="st1" d="M599.9,460c0-3.1,0-6.2,0-10c3.6,0,6.8,0,10,0l0,0c0,3.2,0,6.4,0,10C606.1,460,603,460,599.9,460L599.9,460z"
		/>
	<path class="st1" d="M589.9,460c-3.1,0-6.2,0-10,0c0-3.6,0-6.8,0-10c3.1,0,6.2,0,10,0C589.9,453.6,589.9,456.8,589.9,460z"/>
	<path class="st1" d="M609.9,440c3.3,0,6.7,0,10,0c0,3.3,0,6.7,0,10l0,0c-3.3,0-6.7,0-10,0l0,0C609.9,446.7,609.9,443.3,609.9,440z"
		/>
	<path class="st1" d="M589.9,470c0-3.3,0-6.7,0-10c3.3,0,6.7,0,10,0l0,0c0,3.3,0,6.7,0,10C596.6,470,593.2,470,589.9,470
		C589.9,470,589.9,470,589.9,470z"/>
	<path class="st1" d="M649.9,450c0,3.1,0,6.2,0,10c-3.6,0-6.8,0-10,0c0-3.1,0-6.2,0-10C643.5,450,646.7,450,649.9,450z"/>
	<path class="st1" d="M619.9,450c3.1,0,6.2,0,10,0c0,3.6,0,6.8,0,10l0,0c-3.2,0-6.4,0-10,0C619.9,456.2,619.9,453.1,619.9,450
		L619.9,450z"/>
	<path class="st1" d="M639.9,460c0,3.3,0,6.7,0,10c-3.3,0-6.7,0-10,0c0,0,0,0,0,0c0-3.3,0-6.7,0-10l0,0
		C633.2,460,636.6,460,639.9,460z"/>
	<path class="st0" d="M629.9,460c0,3.3,0,6.7,0,10c-3.2,0-6.4,0-10,0c0,3.7,0,6.8,0,9.8c-3.4,0-6.7,0-10.1,0c0-3.2,0-6.3,0-9.9
		c-3.8,0-6.9,0-10,0l0,0c0-3.3,0-6.7,0-10c3.1,0,6.2,0,10,0c0-3.6,0-6.8,0-10c3.3,0,6.7,0,10,0c0,3.1,0,6.2,0,10
		C623.5,460,626.7,460,629.9,460z"/>
	<path class="st1" d="M579.9,479.8c0-3.1,0-6.1,0-9.8c3.6,0,6.8,0,10,0l0,0c0,3.3,0,6.6,0,9.9C586.5,479.8,583.2,479.8,579.9,479.8z
		"/>
	<path class="st0" d="M589.8,479.8c0-3.3,0-6.6,0-9.9c3.3,0,6.7,0,10,0l0,0c0,3.3,0,6.6,0.1,9.9
		C596.6,479.8,593.2,479.8,589.8,479.8z"/>
	<path class="st1" d="M599.9,479.8c0-3.3,0-6.6-0.1-9.9c3.1,0,6.1,0,10,0c0,3.5,0,6.7,0,9.9C606.5,479.8,603.2,479.8,599.9,479.8z"
		/>
	<path class="st1" d="M619.9,479.8c0-3.1,0-6.1,0-9.8c3.6,0,6.8,0,10,0l0,0c0,3.3,0,6.6,0,9.9C626.5,479.8,623.2,479.8,619.9,479.8z
		"/>
	<path class="st0" d="M629.8,479.8c0-3.3,0-6.6,0-9.9c3.3,0,6.7,0,10,0l0,0c0,3.3,0,6.6,0.1,9.9
		C636.6,479.8,633.2,479.8,629.8,479.8z"/>
	<path class="st1" d="M639.9,479.8c0-3.3,0-6.6-0.1-9.9c3.1,0,6.1,0,10,0c0,3.5,0,6.7,0,9.9C646.5,479.8,643.2,479.8,639.9,479.8z"
		/>
</g>
</svg>
