<svg width="240" height="262" viewBox="0 0 240 262" fill="none" xmlns="http://www.w3.org/2000/svg">
<path fill-rule="evenodd" clip-rule="evenodd" d="M168 24V1.90735e-06L144 0V24L168 24ZM192 48V24L168 24V48H192ZM192 48V72H216V48L192 48ZM96 3.8147e-06V24L72 24V2.76562e-06L96 3.8147e-06ZM48 48H72V24L48 24V48ZM48 48L24 48L24 72H48V48ZM72 238V262H48V238H72ZM24 214H48V238H24L24 214ZM24 214H0L1.90735e-06 190H24L24 214ZM192 262V238H216V214H240V190H216V214H192V238H168V262H192ZM240 96V120H216V96H240ZM24 120L24 96H1.90735e-06L0 120H24ZM240 143V167H216V143H240ZM24 167L24 143H1.90735e-06L0 167H24ZM144 238V262H96V238H144Z" fill="#FEFFE6"/>
</svg>
