<?xml version="1.0" encoding="UTF-8" standalone="no"?>
<svg
   xmlns:dc="http://purl.org/dc/elements/1.1/"
   xmlns:cc="http://creativecommons.org/ns#"
   xmlns:rdf="http://www.w3.org/1999/02/22-rdf-syntax-ns#"
   xmlns:svg="http://www.w3.org/2000/svg"
   xmlns="http://www.w3.org/2000/svg"
   xmlns:sodipodi="http://sodipodi.sourceforge.net/DTD/sodipodi-0.dtd"
   xmlns:inkscape="http://www.inkscape.org/namespaces/inkscape"
   width="240"
   height="262"
   viewBox="0 0 240 262"
   fill="none"
   id="svg2"
   version="1.1"
   inkscape:version="0.91 r13725"
   sodipodi:docname="egg-1-p.svg">
  <metadata
     id="metadata84">
    <rdf:RDF>
      <cc:Work
         rdf:about="">
        <dc:format>image/svg+xml</dc:format>
        <dc:type
           rdf:resource="http://purl.org/dc/dcmitype/StillImage" />
        <dc:title></dc:title>
      </cc:Work>
    </rdf:RDF>
  </metadata>
  <defs
     id="defs82" />
  <sodipodi:namedview
     pagecolor="#ffffff"
     bordercolor="#666666"
     borderopacity="1"
     objecttolerance="10"
     gridtolerance="10"
     guidetolerance="10"
     inkscape:pageopacity="0"
     inkscape:pageshadow="2"
     inkscape:window-width="1920"
     inkscape:window-height="1027"
     id="namedview80"
     showgrid="false"
     inkscape:zoom="1.3685463"
     inkscape:cx="135.79674"
     inkscape:cy="152.42074"
     inkscape:window-x="1272"
     inkscape:window-y="140"
     inkscape:window-maximized="1"
     inkscape:current-layer="svg2" />
  <rect
     x="72"
     y="24"
     width="24"
     height="24"
     transform="rotate(90 72 24)"
     fill="#B26411"
     id="rect4"
     style="fill:#f1ae69;fill-opacity:1" />
  <rect
     x="96"
     y="24"
     width="24"
     height="24"
     transform="rotate(90 96 24)"
     fill="#ECCB45"
     id="rect6"
     style="fill:#f5e39d;fill-opacity:1" />
  <rect
     x="168"
     y="24"
     width="24"
     height="24"
     transform="rotate(90 168 24)"
     fill="#ECCB45"
     id="rect8"
     style="fill:#f5e39d;fill-opacity:1" />
  <rect
     x="192"
     y="48"
     width="24"
     height="24"
     transform="rotate(90 192 48)"
     fill="#B26411"
     id="rect10"
     style="fill:#f2b779;fill-opacity:1" />
  <rect
     x="216"
     y="96"
     width="24"
     height="24"
     transform="rotate(90 216 96)"
     fill="#B26411"
     id="rect12"
     style="fill:#f6ba83;fill-opacity:1" />
  <rect
     x="72"
     y="48"
     width="24"
     height="24"
     transform="rotate(90 72 48)"
     fill="#ECCB45"
     id="rect14"
     style="fill:#f5e39d;fill-opacity:1" />
  <rect
     x="48"
     y="96"
     width="24"
     height="24"
     transform="rotate(90 48 96)"
     fill="#ECCB45"
     id="rect16"
     style="fill:#f5e39d;fill-opacity:1" />
  <rect
     x="48"
     y="120"
     width="70"
     height="24"
     transform="rotate(90 48 120)"
     fill="#EAEE57"
     id="rect18"
     style="fill:#f6f7ba;fill-opacity:1" />
  <rect
     x="72"
     y="155"
     width="59"
     height="24"
     transform="rotate(90 72 155)"
     fill="#EAEE57"
     id="rect20"
     style="fill:#f6f7ba;fill-opacity:1" />
  <rect
     x="96"
     y="131"
     width="83"
     height="24"
     transform="rotate(90 96 131)"
     fill="#EAEE57"
     id="rect22"
     style="fill:#f6f7ba;fill-opacity:1" />
  <rect
     x="168"
     y="238"
     width="96"
     height="24"
     transform="rotate(-180 168 238)"
     fill="#DBA213"
     id="rect24"
     style="fill:#f2ca68;fill-opacity:1" />
  <rect
     x="216"
     y="214"
     width="96"
     height="24"
     transform="rotate(-180 216 214)"
     fill="#DBA213"
     id="rect26"
     style="fill:#f2ca68;fill-opacity:1" />
  <rect
     x="216"
     y="190"
     width="72"
     height="24"
     transform="rotate(-180 216 190)"
     fill="#DBA213"
     id="rect28"
     style="fill:#f2ca68;fill-opacity:1" />
  <rect
     x="120"
     y="24"
     width="166"
     height="24"
     transform="rotate(90 120 24)"
     fill="#EAEE57"
     id="rect30"
     style="fill:#f6f7ba;fill-opacity:1" />
  <rect
     x="144"
     y="24"
     width="142"
     height="24"
     transform="rotate(90 144 24)"
     fill="#EAEE57"
     id="rect32"
     style="fill:#f6f7ba;fill-opacity:1" />
  <rect
     x="168"
     y="48"
     width="94"
     height="24"
     transform="rotate(90 168 48)"
     fill="#EAEE57"
     id="rect34"
     style="fill:#f6f7ba;fill-opacity:1" />
  <rect
     x="192"
     y="72"
     width="94"
     height="24"
     transform="rotate(90 192 72)"
     fill="#DBA213"
     id="rect36"
     style="fill:#f2ca68;fill-opacity:1" />
  <rect
     x="216"
     y="120"
     width="46"
     height="24"
     transform="rotate(90 216 120)"
     fill="#DBA213"
     id="rect38"
     style="fill:#f2ca68;fill-opacity:1" />
  <rect
     x="192"
     y="24"
     width="24"
     height="24"
     transform="rotate(90 192 24)"
     fill="#752802"
     id="rect40"
     style="fill:#f9b39e;fill-opacity:1" />
  <rect
     x="48"
     y="214"
     width="24"
     height="24"
     transform="rotate(90 48 214)"
     fill="#541209"
     id="rect42"
     style="fill:#f9b39e;fill-opacity:1" />
  <rect
     x="72"
     y="214"
     width="24"
     height="24"
     transform="rotate(90 72 214)"
     fill="#B26411"
     id="rect44"
     style="fill:#f6ba83;fill-opacity:1" />
  <rect
     x="48"
     y="190"
     width="24"
     height="24"
     transform="rotate(90 48 190)"
     fill="#ECCB45"
     id="rect46"
     style="fill:#f5e39d;fill-opacity:1" />
  <rect
     x="120"
     y="190"
     width="24"
     height="24"
     transform="rotate(90 120 190)"
     fill="#ECCB45"
     id="rect48"
     style="fill:#f5e39d;fill-opacity:1" />
  <rect
     x="144"
     y="166"
     width="24"
     height="24"
     transform="rotate(90 144 166)"
     fill="#ECCB45"
     id="rect50"
     style="fill:#f5e39d;fill-opacity:1" />
  <rect
     x="168"
     y="142"
     width="24"
     height="24"
     transform="rotate(90 168 142)"
     fill="#ECCB45"
     id="rect52"
     style="fill:#f5e39d;fill-opacity:1" />
  <rect
     x="192"
     y="214"
     width="24"
     height="24"
     transform="rotate(90 192 214)"
     fill="#B26411"
     id="rect54"
     style="fill:#f6cea2;fill-opacity:1" />
  <rect
     x="216"
     y="214"
     width="24"
     height="24"
     transform="rotate(90 216 214)"
     fill="#301600"
     id="rect56"
     style="fill:#f6ba83;fill-opacity:1" />
  <rect
     x="48"
     y="48"
     width="48"
     height="24"
     transform="rotate(90 48 48)"
     fill="#B26411"
     id="rect58"
     style="fill:#eea150;fill-opacity:1" />
  <rect
     x="72"
     y="72"
     width="83"
     height="24"
     transform="rotate(90 72 72)"
     fill="#FEFFE6"
     id="rect60" />
  <rect
     x="96"
     y="48"
     width="83"
     height="24"
     transform="rotate(90 96 48)"
     fill="#FEFFE6"
     id="rect62" />
  <rect
     x="216"
     y="48"
     width="48"
     height="24"
     transform="rotate(90 216 48)"
     fill="#541209"
     id="rect64"
     style="fill:#f9b39e;fill-opacity:1" />
  <path
     d="M72 0H168V24H72V0Z"
     fill="#B26411"
     id="path66"
     style="fill:#f1ad67;fill-opacity:1" />
  <path
     d="M96 0H168V24H96V0Z"
     fill="#752802"
     id="path68"
     style="fill:#f9b39e;fill-opacity:1" />
  <path
     d="M24 155L24 214L0 214L2.57897e-06 155L24 155Z"
     fill="#752802"
     id="path70"
     style="fill:#f1bba0;fill-opacity:1" />
  <path
     d="M24 96L24 155L0 155L2.57897e-06 96L24 96Z"
     fill="#B26411"
     id="path72"
     style="fill:#f3be87;fill-opacity:1" />
  <path
     d="M240 96L240 214L216 214L216 96L240 96Z"
     fill="#541209"
     id="path74"
     style="fill:#f9b39e;fill-opacity:1" />
  <path
     d="M120 238H192V262H120V238Z"
     fill="#301600"
     id="path76"
     style="fill:#f6ba83;fill-opacity:1" />
  <path
     d="M48 238H120V262H48V238Z"
     fill="#541209"
     id="path78"
     style="fill:#f9b39e;fill-opacity:1" />
</svg>
