<svg width="3443" height="3443" viewBox="0 0 3443 3443" fill="none" xmlns="http://www.w3.org/2000/svg">
<g clip-path="url(#clip0_201_2)">
<path d="M2087.02 3261.79V3443H2268.1V3261.79H2087.02Z" fill="#E7DEDE"/>
<path d="M1181.61 3261.79V3443H1362.7V3261.79H1181.61Z" fill="#E7DEDE"/>
<path d="M1181.61 3261.79H1362.7V3080.58H1181.61V3261.79Z" fill="#2C304E"/>
<path d="M1362.7 2899.37V3080.58H2087.02V3261.79H2268.11V2899.37H1362.7Z" fill="#2C304E"/>
<path d="M2268.12 3080.58H2449.2V2718.15H2268.12V3080.58Z" fill="#DB7144"/>
<path d="M2268.1 2899.37V2536.95H1543.77V2899.37H2268.1Z" fill="#0F081F"/>
<path d="M1362.69 2718.15H1000.52V3080.58H1362.69V2718.15Z" fill="#E69157"/>
<path d="M1362.69 2718.15V2536.95H1181.61V2355.74H1000.52V2718.15H1362.69Z" fill="#0F081F"/>
<path d="M1181.61 2355.74V2536.95H1362.7V2899.37H1543.78V2536.95H2268.11V2718.16H2449.2V2355.74H1181.61Z" fill="#05021A"/>
<path d="M1181.61 2174.53H1000.52V2355.74H1181.61V2174.53Z" fill="#DB7144"/>
<path d="M1000.53 1630.89H638.365V1812.1H819.448V2174.52H1000.53V1630.89Z" fill="#DB7144"/>
<path d="M638.365 1812.11V1993.32H819.448V1812.11H638.365Z" fill="#BFBFBF"/>
<path d="M457 1812V1993.21H638.082V1812H457Z" fill="#BFBFBF"/>
<path d="M638 1994V2175.21H819.082V1994H638Z" fill="#BFBFBF"/>
<path d="M819 1631V1812.21H1000.08V1631H819Z" fill="#BFBFBF"/>
<path d="M2812 1451V1632.21H2993.08V1451H2812Z" fill="#BFBFBF"/>
<path d="M2811 1633V1814.21H2992.08V1633H2811Z" fill="#BFBFBF"/>
<path d="M2812 1087V1268.21H2993.08V1087H2812Z" fill="#BFBFBF"/>
<path d="M2812 1269V1450.21H2993.08V1269H2812Z" fill="#BFBFBF"/>
<path d="M1724.86 1812.11V1993.32H2087.02V1812.11H2268.1V1449.68H1543.77V1812.11H1724.86Z" fill="#F4F1EB"/>
<path d="M638.356 1449.68H819.441V1630.9H1000.52V1087.26H1181.61V906.054H1724.86V724.845H2268.1V906.054H2811.36V724.845H2449.19V543.633H2268.1V362.423H1000.52V543.633H819.441V724.845H638.356V1087.26H457.273V1812.11H638.356V1449.68Z" fill="#BFBFBF"/>
<path d="M1181.61 1630.89H1362.7V1268.47H1181.61V1630.89Z" fill="#E5C44F"/>
<path d="M819.448 1449.68H638.365V1630.89H819.448V1449.68Z" fill="#E69157"/>
<path d="M2449 1630.42H2630.08V1268H2449V1630.42Z" fill="#E5C44F"/>
<path d="M1181.61 1087.26H1000.52V1268.48H1181.61V1087.26Z" fill="#DB7144"/>
<path d="M2811.37 1087.26H2992.46V906.054H2811.37V1087.26Z" fill="#BFBFBF"/>
<path d="M2630.27 1087.26H2811.35V906.054H2630.27V1087.26Z" fill="#DB7144"/>
<path d="M2630.27 1630.9H2449.19V1268.48H2630.27V1630.9ZM1543.77 1449.68H2268.1V1812.11H2087.02V1993.32H1724.86V1812.11H1543.77V1449.68ZM2630.27 906.054H1724.86V1087.26H1181.61V1268.48H1362.69V1630.9H1181.61V1268.48H1000.52V2174.53H1181.61V2355.74H2630.27V2174.53H2811.36V1087.26H2630.27V906.054Z" fill="#E69157"/>
<path d="M1724.86 1087.26V906.054H1181.61V1087.26H1724.86Z" fill="#DB7144"/>
<path d="M638.357 724.839H457.273V1087.26H638.357V724.839Z" fill="#E0E0E0"/>
<path d="M2268.12 906.054V724.839H1724.88V906.054H2268.12Z" fill="#DB7144"/>
<path d="M2811.36 362.42H2630.28V181.21H2268.12V-0.000244141H1181.61V181.21H819.447V362.42H638.365V724.839H819.447V543.631H1000.53V362.42H2268.12V543.631H2449.2V724.839H2811.36V906.054H2992.44V543.631H2811.36V362.42Z" fill="#D5D5D5"/>
<path d="M1725 1087.42H1906.08V725H1725V1087.42Z" fill="#E5C44F"/>
<path d="M1906 1087.42H2087.08V725H1906V1087.42Z" fill="#E5C44F"/>
<path d="M2449 906V1087.21H2630.08V906H2449Z" fill="#BFBFBF"/>
<path d="M2449 1269.21H2630.08V1088H2449V1269.21Z" fill="#DB7144"/>
<path d="M2631 1634.21H2812.08V1453H2631V1634.21Z" fill="#DB7144"/>
<path d="M2267 1087.21H2448.08V906H2267V1087.21Z" fill="#DB7144"/>
<path d="M2630 1088V1269.21H2811.08V1088H2630Z" fill="#BFBFBF"/>
<path d="M2631 907V1088.21H2812.08V907H2631Z" fill="#BFBFBF"/>
<path d="M2630 1270V1451.21H2811.08V1270H2630Z" fill="#BFBFBF"/>
<path d="M2812 1815V1996.21H2993.08V1815H2812Z" fill="#BFBFBF"/>
<path d="M638 2176V2357.21H819.082V2176H638Z" fill="#BFBFBF"/>
</g>
<defs>
<clipPath id="clip0_201_2">
<rect width="3443" height="3443" fill="white"/>
</clipPath>
</defs>
</svg>
