<svg width="512" height="512" viewBox="0 0 512 512" fill="none" xmlns="http://www.w3.org/2000/svg">
<path d="M310.355 485.053V512H337.284V485.053H310.355Z" fill="#7E3030"/>
<path d="M175.715 485.053V512H202.643V485.053H175.715Z" fill="#7E3030"/>
<path d="M175.715 485.052H202.643V458.105H175.715V485.052Z" fill="#2C304E"/>
<path d="M202.643 431.158V458.105H310.356V485.052H337.285V431.158H202.643Z" fill="#2C304E"/>
<path d="M337.287 458.105H364.215V404.21H337.287V458.105Z" fill="#DB7144"/>
<path d="M337.284 431.158V377.263H229.57V431.158H337.284Z" fill="#6D51AD"/>
<path d="M202.642 404.21H148.785V458.105H202.642V404.21Z" fill="#E69157"/>
<path d="M202.642 404.21V377.263H175.714V350.316H148.785V404.21H202.642Z" fill="#6D51AD"/>
<path d="M175.715 350.316V377.263H202.643V431.158H229.572V377.263H337.285V404.211H364.214V350.316H175.715Z" fill="#5045A4"/>
<path d="M175.714 323.369H148.785V350.316H175.714V323.369Z" fill="#DB7144"/>
<path d="M148.787 242.526H94.9297V269.473H121.858V323.368H148.787V242.526Z" fill="#DB7144"/>
<path d="M94.9297 269.474V296.421H121.858V269.474H94.9297Z" fill="#7F2F1A"/>
<path d="M256.499 269.474V296.421H310.356V269.474H337.284V215.579H229.57V269.474H256.499Z" fill="#F4F1EB"/>
<path d="M94.9284 215.579H121.857V242.527H148.785V161.684H175.714V134.737H256.499V107.79H337.284V134.737H418.07V107.79H364.213V80.8424H337.284V53.8951H148.785V80.8424H121.857V107.79H94.9284V161.684H68V269.474H94.9284V215.579Z" fill="#7F2F1A"/>
<path d="M175.715 242.526H202.643V188.631H175.715V242.526Z" fill="#1F1518"/>
<path d="M121.858 215.579H94.9297V242.526H121.858V215.579Z" fill="#E69157"/>
<path d="M364.213 242.526H391.141V188.631H364.213V242.526Z" fill="#1F1518"/>
<path d="M175.714 161.684H148.785V188.632H175.714V161.684Z" fill="#DB7144"/>
<path d="M418.072 161.684H445.001V134.737H418.072V161.684Z" fill="#7F2F1A"/>
<path d="M391.141 161.684H418.069V134.737H391.141V161.684Z" fill="#DB7144"/>
<path d="M391.141 242.527H364.213V188.632H391.141V242.527ZM229.57 215.579H337.284V269.474H310.356V296.421H256.499V269.474H229.57V215.579ZM391.141 134.737H256.499V161.684H175.714V188.632H202.642V242.527H175.714V188.632H148.785V323.369H175.714V350.316H391.141V323.369H418.07V161.684H391.141V134.737Z" fill="#E69157"/>
<path d="M256.5 161.684V134.737H175.715V161.684H256.5Z" fill="#DB7144"/>
<path d="M94.9285 107.789H68V161.684H94.9285V107.789Z" fill="#8C3C1C"/>
<path d="M337.287 134.737V107.789H256.502V134.737H337.287Z" fill="#DB7144"/>
<path d="M418.071 53.8946H391.142V26.9473H337.286V-4.62532e-05H175.715V26.9473H121.858V53.8946H94.9297V107.789H121.858V80.842H148.787V53.8946H337.286V80.842H364.214V107.789H418.071V134.737H444.999V80.842H418.071V53.8946Z" fill="#8C3C1C"/>
</svg>
