<svg width="3443" height="3443" viewBox="0 0 3443 3443" fill="none" xmlns="http://www.w3.org/2000/svg">
<path d="M1026 2716H1206V2513H1026V2716Z" fill="#2668A7"/>
<path d="M2475 2716H2648V2523H2475V2716Z" fill="#2668A7"/>
<path d="M2467 2534.21H2648.08V2353H2467V2534.21Z" fill="#2668A7"/>
<path d="M2467 2354.21H2648.08V2173H2467V2354.21Z" fill="#2668A7"/>
<path d="M1390 2715.21H1571.08V2534H1390V2715.21Z" fill="#E69157"/>
<path d="M1567 2715.21H1748.08V2534H1567V2715.21Z" fill="#E69157"/>
<path d="M1565 2897.21H1746.08V2716H1565V2897.21Z" fill="#5B99D4"/>
<path d="M1388 2896.21H1569.08V2715H1388V2896.21Z" fill="#2668A7"/>
<path d="M2110 2896.58H2291.08V2534.15H2110V2896.58Z" fill="#E69157"/>
<path d="M1929 2896.58H2110.08V2534.15H1929V2896.58Z" fill="#E69157"/>
<path d="M1387.69 2534.15V2352.95H1206.61V2171.74H1025.52V2534.15H1387.69Z" fill="#2668A7"/>
<path d="M2836.09 1632H2655V1813.21H2836.09V1632Z" fill="#5B99D4"/>
<path d="M1288 1632H1026V1813H1288V1632Z" fill="#5B99D4"/>
<path d="M1389.09 1632H1208V1813.21H1389.09V1632Z" fill="#5B99D4"/>
<path d="M2475 1632H1389V1813H2475V1632Z" fill="#5B99D4"/>
<path d="M2475 1991H845V2172H2475V1991Z" fill="#5B99D4"/>
<path d="M1026 2174H845V2355H1026V2174Z" fill="#2668A7"/>
<path d="M2829 2174H2648V2355H2829V2174Z" fill="#2668A7"/>
<path d="M844.09 1991H663V2172.21H844.09V1991Z" fill="#2668A7"/>
<path d="M663.09 1991H482V2172.21H663.09V1991Z" fill="#2668A7"/>
<path d="M696 1809H482V1990H696V1809Z" fill="#5B99D4"/>
<path d="M482.09 1809H301V1990.21H482.09V1809Z" fill="#2668A7"/>
<path d="M482.09 1628H301V1809.21H482.09V1628Z" fill="#E69157"/>
<path d="M300.09 1628H119V1809.21H300.09V1628Z" fill="#2668A7"/>
<path d="M663.09 1628H482V1809.21H663.09V1628Z" fill="#E69157"/>
<path d="M872 1628H663V1809H872V1628Z" fill="#5B99D4"/>
<path d="M1056 1628H845V1809H1056V1628Z" fill="#5B99D4"/>
<path d="M2836 1809H845V2087H2836V1809Z" fill="#5B99D4"/>
<path d="M845.09 1809H664V1990.21H845.09V1809Z" fill="#5B99D4"/>
<path d="M2836.09 1992H2655V2173.21H2836.09V1992Z" fill="#2668A7"/>
<path d="M3017.09 1992H2836V2173.21H3017.09V1992Z" fill="#2668A7"/>
<path d="M3017.09 1811H2836V1992.21H3017.09V1811Z" fill="#5B99D4"/>
<path d="M3197.09 1811H3016V1992.21H3197.09V1811Z" fill="#2668A7"/>
<path d="M3197.09 1632H3016V1813.21H3197.09V1632Z" fill="#E69157"/>
<path d="M3017.09 1632H2836V1813.21H3017.09V1632Z" fill="#E69157"/>
<path d="M3378.09 1632H3197V1813.21H3378.09V1632Z" fill="#2668A7"/>
<path d="M2656.09 1632H2475V1813.21H2656.09V1632Z" fill="#5B99D4"/>
<path d="M2655.09 1992H2474V2173.21H2655.09V1992Z" fill="#5B99D4"/>
<path d="M1206 2353V2534.21H1387.08V2353H1206Z" fill="#4882B8"/>
<path d="M1387 2353V2534H1569V2353H1387Z" fill="#5B99D4"/>
<path d="M1567 2353V2534H1749V2353H1567Z" fill="#5B99D4"/>
<path d="M2293 2353V2534H2475V2353H2293Z" fill="#4882B8"/>
<path d="M1749 2353V2534H1931V2353H1749Z" fill="#4882B8"/>
<path d="M1749 1451V1632H1931V1451H1749Z" fill="#4882B8"/>
<path d="M1566 1451V1632H1995V1451H1566Z" fill="#4882B8"/>
<path d="M1387 1451V1632H1569V1451H1387Z" fill="#4882B8"/>
<path d="M1207 1451V1632H1389V1451H1207Z" fill="#5B99D4"/>
<path d="M1207 1270V1451H1389V1270H1207Z" fill="#4882B8"/>
<path d="M1207 1093V1274H1389V1093H1207Z" fill="#5B99D4"/>
<path d="M1387 1093V1274H1569V1093H1387Z" fill="#4882B8"/>
<path d="M1387 911V1110H1569V911H1387Z" fill="#4882B8"/>
<path d="M1387 735V916H1569V735H1387Z" fill="#4882B8"/>
<path d="M1155 735V916H1387V735H1155Z" fill="#5B99D4"/>
<path d="M1205 554V735H1387V554H1205Z" fill="#5B99D4"/>
<path d="M1205 373V554H1387V373H1205Z" fill="#5B99D4"/>
<path d="M1387 373V554H1569V373H1387Z" fill="#5B99D4"/>
<path d="M1750 373V554H1966V373H1750Z" fill="#5B99D4"/>
<path d="M1933 373V554H2115V373H1933Z" fill="#5B99D4"/>
<path d="M1933 554V735H2115V554H1933Z" fill="#5B99D4"/>
<path d="M2112 554V735H2294V554H2112Z" fill="#5B99D4"/>
<path d="M2260 554V735H2477V554H2260Z" fill="#5B99D4"/>
<path d="M2476 554V735H2658V554H2476Z" fill="#5B99D4"/>
<path d="M2292 735V916H2658V735H2292Z" fill="#5B99D4"/>
<path d="M2443 916V1097H2658V916H2443Z" fill="#E69157"/>
<path d="M2467 1097V1278H2658V1097H2467Z" fill="white"/>
<path d="M2292 1097V1278H2474V1097H2292Z" fill="#E69157"/>
<path d="M2096 1097V1278H2300V1097H2096Z" fill="#5B99D4"/>
<path d="M2096 916V1097H2300V916H2096Z" fill="#5B99D4"/>
<path d="M2292 916V1097H2474V916H2292Z" fill="#5B99D4"/>
<path d="M2658 1097V1278H2840V1097H2658Z" fill="white"/>
<path d="M2809 1097V1278H3023V1097H2809Z" fill="white"/>
<path d="M3023 1097V1278H3205V1097H3023Z" fill="#DB7144"/>
<path d="M3023 916V1097H3205V916H3023Z" fill="#DB7144"/>
<path d="M2840 916V1097H3023V916H2840Z" fill="#E69157"/>
<path d="M2658 916V1097H2840V916H2658Z" fill="#E69157"/>
<path d="M3023 735V916H3205V735H3023Z" fill="#2668A7"/>
<path d="M2630 1278V1459H2840V1278H2630Z" fill="#E69157"/>
<path d="M2840 1278V1459H3022V1278H2840Z" fill="#DB7144"/>
<path d="M2474 1278V1459H2656V1278H2474Z" fill="#E69157"/>
<path d="M2294 1278V1459H2476V1278H2294Z" fill="#E69157"/>
<path d="M2096 1278V1459H2300V1278H2096Z" fill="#5B99D4"/>
<path d="M2656 735V916H2838V735H2656Z" fill="#5B99D4"/>
<path d="M2809 735V916H3023V735H2809Z" fill="#5B99D4"/>
<path d="M2293 735V916H2475V735H2293Z" fill="#D4BB00"/>
<path d="M1746 1635V1816H1928V1635H1746Z" fill="#D4BB00"/>
<path d="M1928 1635V1816H2110V1635H1928Z" fill="#D4BB00"/>
<path d="M1564 1635V1816H1746V1635H1564Z" fill="#D4BB00"/>
<path d="M1564 1815V1996H1746V1815H1564Z" fill="#D4BB00"/>
<path d="M1564 1996V2177H1746V1996H1564Z" fill="#D4BB00"/>
<path d="M2115 735V916H2297V735H2115Z" fill="#5B99D4"/>
<path d="M1931 735V916H2115V735H1931Z" fill="#5B99D4"/>
<path d="M1750 735V916H1932V735H1750Z" fill="#4882B8"/>
<path d="M1750 916V1097H1932V916H1750Z" fill="#4882B8"/>
<path d="M1931 916V1097H2115V916H1931Z" fill="#5B99D4"/>
<path d="M1750 1097V1278H1932V1097H1750Z" fill="#4882B8"/>
<path d="M1931 1097V1278H2115V1097H1931Z" fill="#5B99D4"/>
<path d="M1933 1278V1459H2115V1278H1933Z" fill="#4882B8"/>
<path d="M1022 554V735H1219V554H1022Z" fill="#5B99D4"/>
<path d="M1022 730V911H1204V730H1022Z" fill="#D4BB00"/>
<path d="M844 730V911H1026V730H844Z" fill="#5B99D4"/>
<path d="M661 730V911H858V730H661Z" fill="#5B99D4"/>
<path d="M482 730V919H664V730H482Z" fill="#5B99D4"/>
<path d="M301 730V919H483V730H301Z" fill="#2668A7"/>
<path d="M301 912V1093H483V912H301Z" fill="#DB7144"/>
<path d="M482 912V1104H664V912H482Z" fill="#E69157"/>
<path d="M482 1094V1275H664V1094H482Z" fill="#DB7144"/>
<path d="M664 1085V1275H846V1085H664Z" fill="white"/>
<path d="M846 1085V1275H1028V1085H846Z" fill="white"/>
<path d="M1022 1094V1275H1208V1094H1022Z" fill="#E69157"/>
<path d="M1022 911V1097H1387V911H1022Z" fill="#5B99D4"/>
<path d="M840 911V1092H1022V911H840Z" fill="#E69157"/>
<path d="M664 911V1092H846V911H664Z" fill="#E69157"/>
<path d="M1208 911V1115H1386V911H1208Z" fill="#5B99D4"/>
<path d="M664 1275V1456H846V1275H664Z" fill="#DB7144"/>
<path d="M846 1275V1456H1028V1275H846Z" fill="#E69157"/>
<path d="M1022 1275V1456H1208V1275H1022Z" fill="#E69157"/>
<path d="M1022 1452V1633H1208V1452H1022Z" fill="#4882B8"/>
<path d="M844 554V735H1026V554H844Z" fill="#5B99D4"/>
<path d="M1932 1451V1632H2114V1451H1932Z" fill="#4882B8"/>
<path d="M2113 1451V1632H2295V1451H2113Z" fill="#5B99D4"/>
<path d="M1931 2294V2535H2113V2294H1931Z" fill="#5B99D4"/>
<path d="M2111 2294V2535H2293V2294H2111Z" fill="#5B99D4"/>
<path d="M1206 2172V2353H2474V2172H1206Z" fill="#5B99D4"/>
<path d="M2110 2896.21H2291.08V2715H2110V2896.21Z" fill="#2668A7"/>
<path d="M1929 2896.21H2110.08V2715H1929V2896.21Z" fill="#2668A7"/>
<path d="M1569 2897.21H1750.08V2716H1569V2897.21Z" fill="#2668A7"/>
<path d="M1564 2172V2353H1746V2172H1564Z" fill="#D4BB00"/>
<path d="M1746 1995V2176H1928V1995H1746Z" fill="#D4BB00"/>
</svg>
