<svg width="512" height="512" viewBox="0 0 512 512" fill="none" xmlns="http://www.w3.org/2000/svg">
<path d="M310.377 485.052V512H337.314V485.052H310.377Z" fill="#7E3030"/>
<path d="M175.688 485.052V512H202.625V485.052H175.688Z" fill="#7E3030"/>
<path d="M310.377 485.052H337.314V458.105H310.377V485.052Z" fill="#DB7144"/>
<path d="M175.688 485.052H202.625V458.105H175.688V485.052Z" fill="#DB7144"/>
<path d="M337.312 431.158H391.188V404.21H337.312V431.158Z" fill="#DB7144"/>
<path d="M202.625 404.21H148.75V458.105H202.625V404.21Z" fill="#E69157"/>
<path d="M337.314 377.263H229.565V458.105H337.314V377.263Z" fill="#4A2D64"/>
<path d="M202.625 404.21V377.263H175.688V350.316H148.75V404.21H202.625Z" fill="#4A2D64"/>
<path d="M175.69 350.316V377.263H202.627V458.105H229.565V377.263H337.314V404.21H364.252V350.316H175.69Z" fill="#3B264F"/>
<path d="M67.9376 377.263H148.75V323.368H121.813V269.473H94.8751V296.421H67.9376V323.368H41.0002V350.316H67.9376V377.263Z" fill="#BD2F22"/>
<path d="M175.689 323.368H148.752V350.316H175.689V323.368Z" fill="#DB7144"/>
<path d="M445.063 323.368H472V296.421H445.063V323.368Z" fill="#D64220"/>
<path d="M445.063 188.632H418.125V323.368H391.188V350.316H364.25V377.263H445.063V350.316H472V323.368H445.063V188.632Z" fill="#BD2F22"/>
<path d="M67.9392 296.421H94.8767V215.579H121.814V161.684H148.752V134.737H175.689V107.79H229.564V80.8422H283.439V107.79H337.314V134.737H391.189V161.684H418.127V188.632H445.064V107.79H418.127V80.8422H364.252V53.8948H283.439V26.9474H175.689V53.8948H121.814V80.8422H94.8767V134.737H67.9392V215.579H41.0017V242.526H67.9392V269.474H41.0017V323.368H67.9392V296.421Z" fill="#D64220"/>
<path d="M148.75 242.526H94.8747V269.474H121.812V323.368H148.75V242.526Z" fill="#DB7144"/>
<path d="M445.063 269.474H472V242.526H445.063V269.474Z" fill="#D64220"/>
<path d="M256.502 269.474V296.421H310.377V269.474H337.314V215.579H229.565V269.474H256.502Z" fill="#F4F1EB"/>
<path d="M229.565 269.474H256.502V296.421H310.377V269.474H337.314V215.579H229.565V269.474ZM391.189 215.579H418.127V323.368H391.189V350.316H175.69V323.368H148.752V188.632H175.69V242.526H202.627V188.632H175.69V161.684H337.314V188.632H364.252V242.526H391.189V215.579Z" fill="#E69157"/>
<path d="M175.688 242.526H202.625V188.631H175.688V242.526Z" fill="#1F1518"/>
<path d="M148.75 242.526V161.684H121.813V242.526H148.75Z" fill="#BD2F22"/>
<path d="M121.814 215.579H94.8772V242.526H121.814V215.579Z" fill="#E69157"/>
<path d="M391.19 215.579H418.127V188.631H391.19V215.579Z" fill="#DB7144"/>
<path d="M364.25 242.526H391.188V188.631H364.25V242.526Z" fill="#1F1518"/>
<path d="M391.19 161.684V188.632H418.127V161.684H391.19Z" fill="#BD2F22"/>
<path d="M337.312 161.684V188.632H391.188V161.684H337.312Z" fill="#DB7144"/>
<path d="M175.689 188.632V161.684H148.752V188.632H175.689Z" fill="#DB7144"/>
<path d="M310.375 161.684V134.737H175.687V161.684H310.375Z" fill="#DB7144"/>
<path d="M175.689 134.737H148.752V161.684H175.689V134.737Z" fill="#BD2F22"/>
<path d="M310.375 134.737V161.684H391.188V134.737H337.312V107.789H283.437V80.842H229.562V107.789H175.687V134.737H310.375Z" fill="#BD2F22"/>
<path d="M67.9397 134.737H94.877V107.789H67.9397V134.737Z" fill="#E6641A"/>
<path d="M445.064 107.79V80.8422H418.127V107.79H445.064Z" fill="#E6641A"/>
<path d="M94.8772 80.842H121.814V53.8947H94.8772V80.842Z" fill="#E6641A"/>
<path d="M121.814 26.9474V53.8948H175.689V26.9474H121.814Z" fill="#E6641A"/>
<path d="M283.439 26.9473V53.8947H364.252V80.842H418.127V53.8947H391.189V26.9473H337.314V-3.91006e-05H175.689V26.9473H283.439Z" fill="#E6641A"/>
</svg>
