<svg width="512" height="512" viewBox="0 0 512 512" fill="none" xmlns="http://www.w3.org/2000/svg">
<path d="M341.282 455.111H170.711V512H341.282V455.111Z" fill="#A0A1A1"/>
<path d="M341.283 455.111H369.712V426.666H341.283V455.111Z" fill="#F09A62"/>
<path d="M199.141 426.666V455.111H341.283V426.666H199.141Z" fill="#8D9091"/>
<path d="M142.285 426.666V455.111H199.142V426.666H142.285Z" fill="#F09A62"/>
<path d="M341.285 426.667V369.778H227.57V426.667H341.285Z" fill="#EF2693"/>
<path d="M170.714 426.667H199.142V369.778H170.714V341.333H142.285V398.222H170.714V426.667Z" fill="#EF2693"/>
<path d="M170.714 398.222H142.285V426.667H170.714V398.222Z" fill="#F142A7"/>
<path d="M170.711 341.333V369.778H199.14V426.667H227.568V369.778H341.282V426.667H369.711V341.333H170.711Z" fill="#D51F97"/>
<path d="M369.711 341.333H398.14V312.889H369.711V341.333Z" fill="#E67D54"/>
<path d="M170.714 312.889H142.285V341.333H170.714V312.889Z" fill="#E67D54"/>
<path d="M142.286 341.333V312.889H113.857V227.556H85.4286V199.111H57V341.333H142.286Z" fill="#66261A"/>
<path d="M398.143 312.889H426.571V284.444H398.143V312.889Z" fill="#E67D54"/>
<path d="M113.855 312.889H142.284V227.555H113.855V312.889Z" fill="#E67D54"/>
<path d="M255.999 256V284.444H312.856V256H341.285V227.555H227.57V256H255.999Z" fill="#FCFCFD"/>
<path d="M341.285 227.556V256H312.856V284.445H255.999V256H227.571V227.556H341.285ZM398.142 227.556H369.714V170.667H199.142V227.556H170.714V199.111H142.285V312.889H170.714V341.333H369.714V312.889H398.142V284.445H426.571V199.111H398.142V227.556Z" fill="#F09A62"/>
<path d="M369.711 227.555H398.14V170.667H369.711V227.555Z" fill="#1F1518"/>
<path d="M199.14 227.555V170.667H170.711V227.555H199.14Z" fill="#1F1518"/>
<path d="M142.284 170.667H113.855V227.555H142.284V170.667Z" fill="#66261A"/>
<path d="M426.571 312.889H398.143V341.333H455V170.667H426.571V312.889Z" fill="#66261A"/>
<path d="M398.143 199.111H426.571V170.667H398.143V199.111Z" fill="#E67D54"/>
<path d="M170.714 199.111V170.667H142.285V199.111H170.714Z" fill="#E67D54"/>
<path d="M426.571 170.667V142.223H398.143V170.667H426.571Z" fill="#66261A"/>
<path d="M398.139 170.667V142.223H170.711V170.667H398.139Z" fill="#E67D54"/>
<path d="M170.714 142.223H142.285V170.667H170.714V142.223Z" fill="#66261A"/>
<path d="M398.139 142.222V113.778H284.425V85.3334H255.997V113.778H170.711V142.222H398.139Z" fill="#66261A"/>
<path d="M85.4287 113.778H57V142.222H85.4287V113.778Z" fill="#9D4B20"/>
<path d="M426.57 113.778H454.999V85.3333H426.57V113.778Z" fill="#9D4B20"/>
<path d="M426.571 85.3333H398.143V56.8889H369.714V28.4444H284.428V1.14441e-05H170.714V28.4444H142.286V56.8889H113.857V85.3333H85.4286V142.222H57V199.111H85.4286V227.555H113.857V170.667H142.286V142.222H170.714V113.778H256V85.3333H284.428V113.778H398.143V142.222H426.571V170.667H455V113.778H426.571V85.3333Z" fill="#7F2F1A"/>
<path d="M426.571 85.3336V56.8892H398.143V85.3336H426.571Z" fill="#9D4B20"/>
<path d="M85.4258 85.3336H113.854V56.8892H85.4258V85.3336Z" fill="#9D4B20"/>
<path d="M398.14 56.8888V28.4444H369.711V56.8888H398.14Z" fill="#9D4B20"/>
<path d="M113.855 56.8888H142.284V28.4444H113.855V56.8888Z" fill="#9D4B20"/>
<path d="M341.283 28.4445V3.19481e-05H284.426V28.4445H341.283Z" fill="#9D4B20"/>
</svg>
