<svg width="512" height="512" viewBox="0 0 512 512" fill="none" xmlns="http://www.w3.org/2000/svg">
<path d="M310.355 485.053V512H337.284V485.053H310.355Z" fill="#7E3030"/>
<path d="M175.715 485.053V512H202.643V485.053H175.715Z" fill="#7E3030"/>
<path d="M310.355 485.052H337.284V458.105H310.355V485.052Z" fill="#DB7144"/>
<path d="M175.715 485.052H202.643V458.105H175.715V485.052Z" fill="#DB7144"/>
<path d="M337.285 458.105H364.214V404.21H337.285V458.105Z" fill="#DB7144"/>
<path d="M337.284 377.263H229.57V458.105H337.284V377.263Z" fill="#34836C"/>
<path d="M202.642 404.21H148.785V458.105H202.642V404.21Z" fill="#E69157"/>
<path d="M202.642 404.21V377.263H175.714V350.316H148.785V404.21H202.642Z" fill="#34836C"/>
<path d="M175.715 350.316V377.263H202.643V458.105H229.572V377.263H337.286V404.21H364.214V350.316H175.715Z" fill="#2F6A73"/>
<path d="M94.9284 377.263H148.785V323.368H121.857V269.473H68V350.315H94.9284V377.263Z" fill="#824726"/>
<path d="M175.714 323.369H148.785V350.316H175.714V323.369Z" fill="#DB7144"/>
<path d="M121.858 323.368H148.786V242.526H94.9297V269.474H121.858V323.368Z" fill="#DB7144"/>
<path d="M256.499 269.473V296.421H310.356V269.473H337.284V215.579H229.57V269.473H256.499Z" fill="#F4F1EB"/>
<path d="M229.57 215.579H337.284V269.474H310.356V296.421H256.499V269.474H229.57V215.579ZM391.141 242.526H364.213V188.632H310.356V161.684H229.57V188.632H202.642V242.526H175.714V215.579H148.785V323.369H175.714V350.316H391.141V323.369H418.069V215.579H391.141V242.526Z" fill="#E69157"/>
<path d="M364.213 242.526H391.141V188.632H364.213V242.526Z" fill="#1F1518"/>
<path d="M175.715 242.526H202.643V188.632H175.715V242.526Z" fill="#1F1518"/>
<path d="M148.786 242.526V188.632H175.714V161.684H229.571V134.737H283.428V161.684H391.142V134.737H337.285V107.789H283.428V80.8421H229.571V107.789H175.714V134.737H148.786V161.684H121.857V242.526H148.786Z" fill="#824726"/>
<path d="M121.858 215.579H94.9297V242.526H121.858V215.579Z" fill="#E69157"/>
<path d="M418.07 323.368H391.141V350.315H364.213V377.263H418.07V350.315H444.998V188.631H418.07V323.368Z" fill="#824726"/>
<path d="M391.141 215.579H418.069V188.631H391.141V215.579Z" fill="#DB7144"/>
<path d="M175.714 188.631H148.785V215.579H175.714V188.631Z" fill="#DB7144"/>
<path d="M418.069 188.632V161.684H391.141V188.632H418.069Z" fill="#824726"/>
<path d="M310.355 161.684V188.632H391.141V161.684H310.355Z" fill="#DB7144"/>
<path d="M229.572 188.632V161.684H175.715V188.632H229.572Z" fill="#DB7144"/>
<path d="M283.427 161.684V134.737H229.57V161.684H283.427Z" fill="#DB7144"/>
<path d="M94.9285 107.789H68V134.737H94.9285V107.789Z" fill="#BA763A"/>
<path d="M418.07 107.79H444.999V80.8422H418.07V107.79Z" fill="#BA763A"/>
<path d="M418.069 80.8422H364.213V53.8949H283.427V26.9475H175.714V53.8949H121.857V80.8422H94.9284V134.737H68V269.474H94.9284V215.579H121.857V161.684H148.785V134.737H175.714V107.79H229.57V80.8422H283.427V107.79H337.284V134.737H391.141V161.684H418.069V188.632H444.998V107.79H418.069V80.8422Z" fill="#995D2B"/>
<path d="M94.9297 80.842H121.858V53.8947H94.9297V80.842Z" fill="#BA763A"/>
<path d="M121.857 26.9472V53.8945H175.714V26.9472H121.857Z" fill="#BA763A"/>
<path d="M283.429 26.9473V53.8947H364.214V80.842H418.071V53.8947H391.142V26.9473H337.285V-3.91006e-05H175.715V26.9473H283.429Z" fill="#BA763A"/>
</svg>
