<svg width="3443" height="3443" viewBox="0 0 3443 3443" fill="none" xmlns="http://www.w3.org/2000/svg">
<path d="M2112.02 3258.79V3440H2293.1V3258.79H2112.02Z" fill="#6A6A6A"/>
<path d="M2291 3259V3440.21H2472.09V3259H2291Z" fill="black"/>
<path d="M2112 3078V3259.21H2293.09V3078H2112Z" fill="#6A6A6A"/>
<path d="M1206.62 3258.79V3440H1387.7V3258.79H1206.62Z" fill="black"/>
<path d="M1387 3259V3440.21H1568.08V3259H1387Z" fill="#6A6A6A"/>
<path d="M1387 3078V3259.21H1568.08V3078H1387Z" fill="#6A6A6A"/>
<path d="M1206.62 3258.79H1387.7V3077.58H1206.62V3258.79Z" fill="black"/>
<path d="M1388 3077.21H1569.08V2896H1388V3077.21Z" fill="black"/>
<path d="M1566.7 2896.37V3077.58H2291.02V3258.79H2472.11V2896.37H1566.7Z" fill="black"/>
<path d="M2473.12 3077.58H2654.2V2715.15H2473.12V3077.58Z" fill="#DB7144"/>
<path d="M2293.1 2896.37V2533.95H1568.77V2896.37H2293.1Z" fill="#6A6A6A"/>
<path d="M1387.69 2715.15H1025.52V3077.58H1387.69V2715.15Z" fill="#E69157"/>
<path d="M1387.69 2715.15V2533.95H1206.61V2352.74H1025.52V2715.15H1387.69Z" fill="black"/>
<path d="M1386.62 2352.74V2533.95H1567.7V2896.37H1748.78V2533.95H2473.11V2715.16H2654.2V2352.74H1386.62Z" fill="black"/>
<path d="M1206.61 2171.53H1025.52V2352.74H1206.61V2171.53Z" fill="#DB7144"/>
<path d="M2655 722H2473V903H2655V722Z" fill="#E69157"/>
<path d="M1423 1447H1206V1628H1423V1447Z" fill="#E69157"/>
<path d="M1423 1265H1206V1488H1423V1265Z" fill="#E69157"/>
<path d="M1206.61 1084.26H1025.52V1265.48H1206.61V1084.26Z" fill="#E69157"/>
<path d="M1749.09 1446H1568V1627.21H1749.09V1446Z" fill="#E69157"/>
<path d="M1749 1627H1568V1809H1749V1627Z" fill="#E69157"/>
<path d="M1930.09 1809H1749V1990.21H1930.09V1809Z" fill="#E69157"/>
<path d="M1206.09 904H1025V1085.21H1206.09V904Z" fill="#E69157"/>
<path d="M1026.09 904H845V1085.21H1026.09V904Z" fill="#DB7144"/>
<path d="M845.087 904H664V1085.21H845.087V904Z" fill="#DB7144"/>
<path d="M1568.77 1446.68H2293.1V1809.11H2112.02V1990.32H1749.86V1809.11H1568.77V1446.68ZM2655.27 903.054H1749.86V1084.26H1206.61V1265.48H1387.69V1627.9H1206.61V1265.48H1025.52V2171.53H1206.61V2352.74H2474.19V2171.53H2655.27V1084.26V903.054Z" fill="#E69157"/>
<path d="M2836 722H2655V1813H2836V722Z" fill="#E69157"/>
<path d="M2473.25 903.215V722H1930V903.215H2473.25Z" fill="#E69157"/>
<path d="M1930 903V722H1206V903H1930Z" fill="#E69157"/>
<path d="M2655.09 2172H2474V2353.21H2655.09V2172Z" fill="#DB7144"/>
<path d="M2835.09 1993H2654V2174.21H2835.09V1993Z" fill="#DB7144"/>
<path d="M2836.09 1813H2655V1994.21H2836.09V1813Z" fill="#E69157"/>
<path d="M1387.09 903H1206V1084.21H1387.09V903Z" fill="#E69157"/>
<path d="M845 1266V1447.21H1026.08V1266H845Z" fill="#AB522C"/>
<path d="M845 1085V1266.21H1026.08V1085H845Z" fill="#AB522C"/>
<path d="M1206 2534V2715.21H1387.08V2534H1206Z" fill="#6A6A6A"/>
<path d="M1387 2534V2715H1569V2534H1387Z" fill="#6A6A6A"/>
<path d="M1567 2534V2715H1749V2534H1567Z" fill="#6A6A6A"/>
<path d="M2293 2534V2715H2475V2534H2293Z" fill="#6A6A6A"/>
<path d="M1749 2534V2715H1931V2534H1749Z" fill="black"/>
<path d="M1387 2715V2896H1569V2715H1387Z" fill="#6A6A6A"/>
<path d="M1567 2715V2896H1749V2715H1567Z" fill="#6A6A6A"/>
<path d="M2293 2715V2896H2475V2715H2293Z" fill="#6A6A6A"/>
<path d="M1749 2715V2896H1931V2715H1749Z" fill="black"/>
<path d="M1206 2353V2534.21H1387.08V2353H1206Z" fill="black"/>
<path d="M1387.09 2172H1206V2353.21H1387.09V2172Z" fill="#DB7144"/>
<path d="M1206.09 1990H1025V2171.21H1206.09V1990Z" fill="#DB7144"/>
<path d="M1026.09 1809H845V1990.21H1026.09V1809Z" fill="#DB7144"/>
<path d="M1026.09 1628H845V1809.21H1026.09V1628Z" fill="#DB7144"/>
<path d="M1026.09 1447H845V1628.21H1026.09V1447Z" fill="#DB7144"/>
<path d="M845.087 1809H664V1990.21H845.087V1809Z" fill="#DB7144"/>
<path d="M845.087 1628H664V1809.21H845.087V1628Z" fill="#DB7144"/>
<path d="M845.087 1266H664V1447.21H845.087V1266Z" fill="#DB7144"/>
<path d="M845.087 1447H664V1628.21H845.087V1447Z" fill="#DB7144"/>
<path d="M845.087 1085H664V1266.21H845.087V1085Z" fill="#DB7144"/>
<path d="M1025.09 1990H844V2171.21H1025.09V1990Z" fill="#DB7144"/>
<path d="M1923.86 1809.11V1990.32H2286.02V1809.11H2467.1V1446.68H1742.77V1809.11H1923.86Z" fill="#F4F1EB"/>
<path d="M2466 1084.21H2647.08V903H2466V1084.21Z" fill="#AB522C"/>
<path d="M1742 1084.21H1923.08V903H1742V1084.21Z" fill="#AB522C"/>
<path d="M2285 1084.21H2466.08V903H2285V1084.21Z" fill="#AB522C"/>
<path d="M1561 1084.21H1742.08V903H1561V1084.21Z" fill="#AB522C"/>
<path d="M1380 1084.21H1561.08V903H1380V1084.21Z" fill="#AB522C"/>
<path d="M2285 1084V1265.21H2466.08V1084H2285Z" fill="#BFBFBF"/>
<path d="M2466 1084V1265.21H2647.08V1084H2466Z" fill="white"/>
<path d="M1743 1084V1265.21H1924.08V1084H1743Z" fill="white"/>
<path d="M1562 1084V1265.21H1743.08V1084H1562Z" fill="#BFBFBF"/>
<path d="M1380 1084V1265H1562V1084H1380Z" fill="white"/>
<path d="M1026.09 904H845V1085.21H1026.09V904Z" fill="#DB7144"/>
<path d="M1206.09 904H1025V1085.21H1206.09V904Z" fill="#DB7144"/>
<path d="M1206.09 724H1025V905.215H1206.09V724Z" fill="#DB7144"/>
<path d="M1380.09 724H1199V905.215H1380.09V724Z" fill="#DB7144"/>
<path d="M1380.09 543H1199V724.215H1380.09V543Z" fill="#DB7144"/>
<path d="M845.087 904H664V1085.21H845.087V904Z" fill="#DB7144"/>
<path d="M1026 904V723H664V904H1026Z" fill="#6D2E13"/>
<path d="M2655 362V181H2293V362H2655Z" fill="#6D2E13"/>
<path d="M2474 181V0H1207V181H2474Z" fill="#6D2E13"/>
<path d="M1923 903V724H1380V903H1923Z" fill="#E69157"/>
<path d="M2655 724V543H1561V724H2655Z" fill="#E69157"/>
<path d="M2836 903V724H1923V903H2836Z" fill="#E69157"/>
<path d="M845.084 362H664V724.423H845.084V362Z" fill="#6D2E13"/>
<path d="M2836.09 543H2655V724.208H2836.09V543Z" fill="#DB7144"/>
<path d="M1207.09 543H1026V724.208H1207.09V543Z" fill="#6D2E13"/>
<path d="M1388.09 362H1207V543.208H1388.09V362Z" fill="#6D2E13"/>
<path d="M1743.09 362H1562V543.208H1743.09V362Z" fill="#6D2E13"/>
<path d="M1924.09 362H1743V543.208H1924.09V362Z" fill="#6D2E13"/>
<path d="M2104.09 362H1923V543.208H2104.09V362Z" fill="#6D2E13"/>
<path d="M1923.09 181H1742V362.208H1923.09V181Z" fill="#6D2E13"/>
<path d="M1026.09 362H845V543.208H1026.09V362Z" fill="#6D2E13"/>
<path d="M1026.09 183H845V364.208H1026.09V183Z" fill="#6D2E13"/>
<path d="M1207.09 183H1026V364.208H1207.09V183Z" fill="#6D2E13"/>
<path d="M1207 0H1026V208H1207V0Z" fill="#6D2E13"/>
<path d="M2836.09 362H2655V543.208H2836.09V362Z" fill="#6D2E13"/>
<path d="M2474.09 362H2293V543.208H2474.09V362Z" fill="#6D2E13"/>
<path d="M845 543V724.208H1026.08V543H845Z" fill="#8C4222"/>
<path d="M1026 362V543.208H1207.08V362H1026Z" fill="#8C4222"/>
<path d="M1207 181V362.208H1388.08V181H1207Z" fill="#8C4222"/>
<path d="M1388 362V543.208H1569.08V362H1388Z" fill="#8C4222"/>
<path d="M1562 181V362.208H1743.08V181H1562Z" fill="#8C4222"/>
<path d="M1923 181V362.208H2104.08V181H1923Z" fill="#8C4222"/>
<path d="M2104 181V543H2293V181H2104Z" fill="#8C4222"/>
<path d="M2474 362V543.208H2655.08V362H2474Z" fill="#8C4222"/>
<path d="M1569.09 181H1388V362.208H1569.09V181Z" fill="#6D2E13"/>
<path d="M1569 543H1364V724H1569V543Z" fill="#DB7144"/>
</svg>
