<svg width="3443" height="3443" viewBox="0 0 3443 3443" fill="none" xmlns="http://www.w3.org/2000/svg">
<path d="M2087.02 3261.79V3443H2268.1V3261.79H2087.02Z" fill="#A73CA9"/>
<path d="M1181.61 3261.79V3443H1362.7V3261.79H1181.61Z" fill="#A73CA9"/>
<path d="M1181.61 3261.79H1362.7V3080.58H1181.61V3261.79Z" fill="#F8A76F"/>
<path d="M2267.92 2900.42H2449V2538H2267.92V2900.42Z" fill="#F8B78A"/>
<path d="M2268 3080V2537H1362V3080H2268Z" fill="#F02BB9"/>
<path d="M1362.69 2718.15H1000.52V3080.58H1362.69V2718.15Z" fill="#F8B78A"/>
<path d="M1181.61 2174.53H1000.52V2355.74H1181.61V2174.53Z" fill="#F8A76F"/>
<path d="M1363 2357H1000V2537H1363V2357Z" fill="#AE26BA"/>
<path d="M2630 2356H2268V2537H2630V2356Z" fill="#AE26BA"/>
<path d="M2630 2899H2448.91V3080.21H2630V2899Z" fill="#F02BB9"/>
<path d="M2268 2356H1362V2537H2268V2356Z" fill="#CC6BB1"/>
<path d="M2449 2899H2267.91V3080.21H2449V2899Z" fill="#F02BB9"/>
<path d="M2268 3080H2086.91V3261.21H2268V3080Z" fill="#F8A76F"/>
<path d="M1362 2719H1180.91V2900.21H1362V2719Z" fill="#F02BB9"/>
<path d="M1362 2899H1180.91V3080.21H1362V2899Z" fill="#F02BB9"/>
<path d="M1181 2899H999.913V3080.21H1181V2899Z" fill="#F02BB9"/>
<path d="M1906 2357H1724.91V2538.21H1906V2357Z" fill="#F2DBEC"/>
<path d="M1001 2722H819.913V2903.21H1001V2722Z" fill="#F02BB9"/>
<path d="M1001 2902H638V3080H1001V2902Z" fill="#F02BB9"/>
<path d="M1363 2537H1181.91V2718.21H1363V2537Z" fill="#F02BB9"/>
<path d="M1181 2538H999.913V2719.21H1181V2538Z" fill="#F8B78A"/>
<path d="M1000.53 1630.89H638.365V1812.1H819.447V2174.52H1000.53V1630.89Z" fill="#F8A76F"/>
<path d="M638.365 1812.11V1993.32H819.448V1812.11H638.365Z" fill="#EAE113"/>
<path d="M457 1812V1993.21H638.082V1812H457Z" fill="#FFF8BA"/>
<path d="M638 1994V2175.21H819.082V1994H638Z" fill="#FFF8BA"/>
<path d="M639 2537V2718H1000V2537H639Z" fill="#FFF8BA"/>
<path d="M1001 171V352H1906V171H1001Z" fill="#FFF8BA"/>
<path d="M819 357V538H1000V357H819Z" fill="#FFF8BA"/>
<path d="M457.918 1993V2174.21H639V1993H457.918Z" fill="#FFF8BA"/>
<path d="M819 1631V1812.21H1000.08V1631H819Z" fill="#FFF8BA"/>
<path d="M2811 1087V1268H2993V1087H2811Z" fill="#FFF8BA"/>
<path d="M2811 1268V1451H2992V1268H2811Z" fill="#FFF8BA"/>
<path d="M2991.92 1086V1267.21H3173V1086H2991.92Z" fill="#FFF8BA"/>
<path d="M1724.86 1812.11V1993.32H2087.02V1812.11H2268.1V1449.68H1543.77V1812.11H1724.86Z" fill="#F4F1EB"/>
<path d="M638.23 1456H819.462V1640H1000.69V1088H1181.92V903.999H1725.61V720.001H2269.3V903.999H2813V720.001H2450.54V536H2269.3V352H1000.69V536H819.462V720.001H638.23V1088H457V1824H638.23V1456Z" fill="#FFF8BA"/>
<path d="M2268 2537H1181V2718H2268V2537Z" fill="#E11AAA"/>
<path d="M2449 2899H2268V3080H2449V2899Z" fill="#E11AAA"/>
<path d="M1181 2900H1000V3081H1181V2900Z" fill="#E11AAA"/>
<path d="M1000 2721H819V2902H1000V2721Z" fill="#E11AAA"/>
<path d="M1181.61 1630.89H1362.7V1268.47H1181.61V1630.89Z" fill="#E5C44F"/>
<path d="M819.448 1449.68H638.365V1630.89H819.448V1449.68Z" fill="#F8A76F"/>
<path d="M2449 1630.42H2630.08V1268H2449V1630.42Z" fill="#E5C44F"/>
<path d="M638 538H457V719H638V538Z" fill="#FFF8BA"/>
<path d="M639 719H457V900H639V719Z" fill="#FFF8BA"/>
<path d="M638 900H457V1088H638V900Z" fill="#FFF8BA"/>
<path d="M820 538H638V720H820V538Z" fill="#FFF8BA"/>
<path d="M457 538H276V2177H457V538Z" fill="#FFF8BA"/>
<path d="M276 719H95V1668H276V719Z" fill="#FFF8BA"/>
<path d="M2813 1088H2992V902H2813V1088Z" fill="#FFF8BA"/>
<path d="M819 902H2811V720H819V902Z" fill="#EAE113"/>
<path d="M1182 725H2631V530H1182V725Z" fill="#EAE113"/>
<path d="M1544 530H2449V341H1544V530Z" fill="#EAE113"/>
<path d="M1906 341H2268V152H1906V341Z" fill="#EAE113"/>
<path d="M1996 600H2177V411H1996V600Z" fill="#5ABCF3"/>
<path d="M999.913 1087.21H1181V906H999.913V1087.21Z" fill="#BFBFBF"/>
<path d="M2630.27 1087.26H2811.35V906.054H2630.27V1087.26Z" fill="#DB7144"/>
<path d="M2630.27 1630.9H2449.19V1268.48H2630.27V1630.9ZM1543.77 1449.68H2268.1V1812.11H2087.02V1993.32H1724.86V1812.11H1543.77V1449.68ZM2630.27 906.054H1724.86V1087.26H1181.61V1268.48H1362.69V1630.9H1181.61V1268.48H1000.52V2174.53H1181.61V2355.74H2630.27V2174.53H2811.36V1087.26H2630.27V906.054Z" fill="#F8B78A"/>
<path d="M2630 907V1087H2629V907H2630Z" fill="#BFBFBF"/>
<path d="M2631 1634.21H2812.08V1453H2631V1634.21Z" fill="#F8A76F"/>
<path d="M2630 1088V1269.21H2811.08V1088H2630Z" fill="#FFF8BA"/>
<path d="M638 907V1088H2812V907H638Z" fill="#FFF8BA"/>
<path d="M2630 1269V1451H2811V1269H2630Z" fill="#FFF8BA"/>
<path d="M458 2177V2537H1000V2177H458Z" fill="#FFF8BA"/>
<path d="M1181 1272H1000V1453H1181V1272Z" fill="#F8A76F"/>
<path d="M2629 1086H1001V1267H2629V1086Z" fill="#F8A76F"/>
<path d="M1000.92 1086V1267.21H1182V1086H1000.92Z" fill="#FFF8BA"/>
</svg>
