<svg xmlns="http://www.w3.org/2000/svg" viewBox="0 0 89.03 103.19"><defs><style>.cls-1{fill:#f99001;}.cls-2{fill:#fed30b;}.cls-3{fill:#5e93fe;}.cls-4{fill:#36fede;}.cls-5{fill:#0058f7;}</style></defs><g id="Layer_2" data-name="Layer 2"><g id="Layer_1-2" data-name="Layer 1"><path class="cls-1" d="M59.35,103.19H29.68v-1c0-2,0-4,0-6,0-.11,0-.23,0-.34q0-3.54,0-7.08h7.42c0,2.35,0,4.7,0,7,0,.28,0,.38.36.38q7.05,0,14.1,0c.31,0,.36-.1.36-.38q0-3.52,0-7h7.43v2c0,1.82,0,3.64,0,5.45,0,.11,0,.22,0,.32Z"/><path class="cls-2" d="M37.11,0H51.92c0,2.4,0,4.8,0,7.2H37.11Z"/><path d="M37.11,0V7.2H29.68V0Z"/><path d="M51.93,7.2V0h7.43V7.2H51.93Z"/><path d="M29.67,96.22c0,2,0,4,0,6v1H22.25v-7h7.42Z"/><path d="M59.35,103.19V96.54c0-.1,0-.21,0-.32h7.43v7Z"/><path d="M14.81,88.79H7.73c-.24,0-.3-.06-.3-.3q0-7.29,0-14.57h0c.64,0,1.27,0,1.91,0H15q7.23,0,14.46,0H37.1v7.42h-22c-.24,0-.3.06-.3.3,0,2.38,0,4.76,0,7.14Z"/><path d="M7.44,73.93c-2.38,0-4.76,0-7.14,0-.25,0-.3-.06-.3-.3Q0,55.41,0,37.17c0-.23.05-.3.29-.3,2.39,0,4.77,0,7.15,0h0v1.91c0,1.84,0,3.68,0,5.52,0,.38,0,.77,0,1.16,0,2.07,0,4.14,0,6.21,0,.07,0,.14,0,.21V66.35c0,.07,0,.13,0,.2s0,.15,0,.23v7.14Z"/><path d="M14.82,22q0-3.57,0-7.14c0-.22.08-.24.26-.24H22c.25,0,.3-.06.3-.3,0-2.29,0-4.59,0-6.88,0-.18,0-.27.24-.26h7.2V9.28c0,1.79,0,3.57,0,5.35,0,.11,0,.22,0,.32V22H14.82Z"/><path d="M7.44,36.87q0-7.26,0-14.51c0-.3.08-.36.36-.36,2.34,0,4.69,0,7,0h0v7.43c0,.11,0,.21,0,.32v7.11H7.44Z"/><path d="M22.25,96.22H15.11c-.25,0-.3-.06-.3-.3,0-2.38,0-4.76,0-7.14h7.43v7.43Z"/><path d="M81.6,73.93c0,4.84,0,9.69,0,14.54,0,.26-.06.33-.33.33H74.16V82.17c0-.26.09-.6,0-.75s-.51-.06-.77-.06H51.92V79.44c0-1.84,0-3.68,0-5.51h7.63q7.2,0,14.4,0H81.6Z"/><path d="M81.6,36.87c2.38,0,4.76,0,7.14,0,.25,0,.29.07.29.3V73.63c0,.24,0,.3-.29.3-2.38,0-4.76,0-7.14,0h0V72c0-1.83,0-3.65,0-5.47,0-.07,0-.14,0-.2V51.89c0-.07,0-.14,0-.21s0-.25,0-.37c0-2.33,0-4.67,0-7V36.88Z"/><path d="M59.35,7.2h7.2c.22,0,.24.08.24.26,0,2.29,0,4.59,0,6.88,0,.24.06.3.3.3h6.79c.25,0,.3.06.3.3q0,3.54,0,7.08H59.36c0-.62,0-1.24,0-1.86,0-1.83,0-3.67,0-5.51,0-.1,0-.21,0-.31q0-3.57,0-7.12Z"/><path d="M74.16,22c2.4,0,4.8,0,7.2,0,.26,0,.24.13.24.3V36.87H74.16v-2c0-1.81,0-3.63,0-5.45,0-.1,0-.21,0-.32q0-3.56,0-7.11Z"/><path d="M74.16,88.79q0,3.57,0,7.14c0,.24-.06.3-.3.3H66.79V88.8h7.37Z"/><path class="cls-3" d="M51.92,81.35h7.43v2.08c0,1.78,0,3.56,0,5.33v0H29.69l0,0c0-.12,0-.25,0-.37v-7H51.92Z"/><path class="cls-2" d="M37.11,88.8H51.92q0,3.53,0,7c0,.28,0,.38-.36.38q-7.05,0-14.1,0c-.31,0-.36-.1-.36-.38C37.12,93.5,37.11,91.15,37.11,88.8Z"/><path class="cls-3" d="M66.79,88.8v7.42H59.36c0-1.81,0-3.63,0-5.45v-2h7.43Z"/><path class="cls-3" d="M22.25,96.22V88.79h7.43l0,0q0,3.54,0,7.08c0,.11,0,.23,0,.34Z"/><path class="cls-1" d="M37.11,7.2H51.92q0,3.72,0,7.43v0H37.12V7.19Z"/><path class="cls-2" d="M37.11,7.19v7.43H29.69c0-1.78,0-3.56,0-5.35V7.2Z"/><path class="cls-2" d="M51.93,14.62q0-3.7,0-7.43h7.44q0,3.56,0,7.12c0,.1,0,.21,0,.31H51.93Z"/><path class="cls-4" d="M51.92,81.35H37.11q0-3.72,0-7.42c0-.1,0-.2,0-.29V66.56H51.92v1.86c0,1.83,0,3.67,0,5.51s0,3.67,0,5.51Z"/><path class="cls-2" d="M29.68,73.92h-.2q-7.23,0-14.46,0h-.21V66.56H29.68Z"/><path class="cls-4" d="M22.24,88.79H14.81c0-2.38,0-4.76,0-7.14,0-.24.06-.3.3-.3h7.14v7.42Z"/><path class="cls-5" d="M22.25,88.79V81.37h7.43v7c0,.12,0,.25,0,.37H22.25Z"/><path class="cls-1" d="M29.68,73.92V66.54h7.43v7.08c0,.09,0,.19,0,.29H29.68Z"/><path class="cls-3" d="M14.81,66.56v7.36H9.35c-.64,0-1.27,0-1.91,0V66.78c0-.08,0-.15,0-.23Z"/><path class="cls-5" d="M7.44,36.88H29.35c.26,0,.34-.05.34-.32,0-2.37,0-4.74,0-7.11h6.9c.53,0,.53,0,.53.53q0,3.45,0,6.91,0,3.7,0,7.43H7.45c0-1.84,0-3.68,0-5.52Z"/><path class="cls-4" d="M14.81,66.56H7.45c0-.07,0-.13,0-.2V51.89c0-.07,0-.14,0-.21h7.36c0,2.37,0,4.74,0,7.1,0,.28.08.33.34.33h7.1v7.43H14.81Z"/><path class="cls-3" d="M14.81,51.69H7.45c0-2.07,0-4.14,0-6.21,0-.39,0-.78,0-1.16h14.8v7.36Z"/><path class="cls-4" d="M37.12,36.88q0-3.47,0-6.91c0-.53,0-.53-.53-.53H22.25V22H66.79v7.42H52.39c-.47,0-.47,0-.47.48q0,3.48,0,7Z"/><path class="cls-2" d="M22.25,22v7.42H14.82V22h7.44Z"/><path class="cls-3" d="M37.12,22H29.68V15c0-.1,0-.21,0-.32h7.42V22Z"/><path class="cls-4" d="M14.82,29.44h7.43v7.43H14.81V29.76C14.81,29.65,14.82,29.55,14.82,29.44Z"/><path class="cls-2" d="M74.16,73.92H74q-7.2,0-14.4,0h-.2V66.56h14.8Z"/><path class="cls-5" d="M66.79,88.8H59.36c0-1.77,0-3.55,0-5.33V81.37h7.44V88.8Z"/><path class="cls-1" d="M59.36,66.56v7.36H51.93c0-1.84,0-3.68,0-5.51V66.56h7.43Z"/><path class="cls-3" d="M74.16,73.92V66.56h7.43c0,1.82,0,3.64,0,5.47v1.9H74.16Z"/><path class="cls-4" d="M66.79,88.8V81.37h6.56c.26,0,.62-.12.77.06s0,.49,0,.75v6.62Z"/><path class="cls-5" d="M51.91,36.88q0-3.48,0-7c0-.48,0-.48.47-.48h7v7.16c0,.13,0,.27.19.27H81.59v7.43H51.92Z"/><path class="cls-4" d="M81.59,66.55H66.79V59.11h7c.26,0,.34,0,.34-.33q0-3.54,0-7.1h7.43c0,.07,0,.14,0,.21V66.35C81.6,66.41,81.59,66.48,81.59,66.55Z"/><path class="cls-3" d="M81.59,51.68H66.8c0-.11,0-.23,0-.34q0-3.51,0-7H81.59c0,2.33,0,4.67,0,7C81.6,51.43,81.59,51.56,81.59,51.68Z"/><path class="cls-2" d="M66.79,29.44V22h7.38q0,3.55,0,7.11c0,.11,0,.22,0,.32Z"/><path class="cls-3" d="M59.36,22H51.92V14.62h7.41c0,1.84,0,3.68,0,5.51C59.36,20.76,59.36,21.38,59.36,22Z"/><path class="cls-4" d="M66.79,29.44h7.36c0,1.82,0,3.64,0,5.45v2H66.79V29.44Z"/><path class="cls-5" d="M51.92,14.64V22H37.12V14.64h14.8Z"/><path class="cls-3" d="M51.92,66.56H37.1a2.26,2.26,0,0,0,0-.26V59.13H51.92v2.43c0,1.66,0,3.33,0,5Z"/><path class="cls-3" d="M22.25,66.54V59.11h7.43v7.43H22.25Z"/><path class="cls-5" d="M29.68,66.54V59.13h7.43v7.16a2.26,2.26,0,0,1,0,.26Z"/><path class="cls-2" d="M37.11,59.13H22.25v-1.8c0-1.88,0-3.76,0-5.64V44.32h7.43v7c0,.2,0,.32.27.32H59c.31,0,.36-.1.36-.38q0-3.5,0-7h7.43q0,3.51,0,7c0,.11,0,.23,0,.34s0,.22,0,.32c0,2.37,0,4.75,0,7.12H37.11Z"/><path d="M51.91,36.88c0,2.47,0,4.95,0,7.43H37.11q0-3.72,0-7.43Z"/><path d="M22.25,36.87V29.44h7.43c0,2.37,0,4.74,0,7.11,0,.27-.08.32-.34.32Z"/><path class="cls-1" d="M37.12,51.68H30c-.26,0-.27-.12-.27-.32v-7h7.43Z"/><path class="cls-5" d="M22.24,51.68c0,1.88,0,3.76,0,5.64v1.8h-7.1c-.26,0-.34,0-.34-.33,0-2.36,0-4.73,0-7.1Z"/><path d="M66.79,29.44v7.43H59.54c-.23,0-.18-.14-.19-.27V29.45h7.44Z"/><path class="cls-3" d="M59.35,59.13h7.44v7.43H59.36V59.13Z"/><path class="cls-5" d="M59.35,59.13v7.41H51.93c0-1.66,0-3.33,0-5V59.13h7.43Z"/><path class="cls-1" d="M59.35,44.32q0,3.49,0,7c0,.28,0,.38-.36.38H51.92c0-2.46,0-4.91,0-7.37h7.42Z"/><path class="cls-5" d="M66.78,59.12c0-2.37,0-4.75,0-7.12,0-.1,0-.21,0-.32h7.36q0,3.56,0,7.1c0,.28-.08.33-.34.33Z"/><path class="cls-4" d="M51.93,44.31c0,2.46,0,4.91,0,7.37H37.12c0-2.46,0-4.91,0-7.37Z"/></g></g></svg>