<svg width="32" height="32" viewBox="0 0 32 32" fill="none" xmlns="http://www.w3.org/2000/svg">
<mask id="mask0_109_2608" style="mask-type:luminance" maskUnits="userSpaceOnUse" x="0" y="0" width="32" height="32">
<path d="M0 32H32V0H0V32Z" fill="white"/>
</mask>
<g mask="url(#mask0_109_2608)">
<g filter="url(#filter0_d_109_2608)">
<path d="M32 31.5H21M11 31.5H0M32 30.5H21M11 30.5H0M32 29.5H30M23 29.5H9M2 29.5H0M32 28.5H30M23 28.5H9M2 28.5H0M32 27.5H30M23 27.5H9M2 27.5H0M32 26.5H30M21 26.5H18M14 26.5H11M2 26.5H0M32 25.5H30M21 25.5H18M14 25.5H11M2 25.5H0M32 24.5H30M27 24.5H23M21 24.5H18M14 24.5H11M9 24.5H5M2 24.5H0M32 23.5H30M27 23.5H23M21 23.5H18M14 23.5H11M9 23.5H5M2 23.5H0M32 22.5H30M2 22.5H0M32 21.5H30M2 21.5H0M32 20.5H30M18 20.5H14M2 20.5H0M32 19.5H30M18 19.5H14M2 19.5H0M32 18.5H30M18 18.5H14M2 18.5H0M32 17.5H27M25 17.5H23M9 17.5H7M5 17.5H0M32 16.5H27M25 16.5H23M9 16.5H7M5 16.5H0M32 15.5H27M21 15.5H11M5 15.5H0M32 14.5H27M21 14.5H11M5 14.5H0M32 13.5H30M27 13.5H25M18 13.5H14M7 13.5H5M2 13.5H0M32 12.5H30M27 12.5H25M18 12.5H14M7 12.5H5M2 12.5H0M32 11.5H30M27 11.5H25M18 11.5H14M7 11.5H5M2 11.5H0M32 10.5H30M21 10.5H18M14 10.5H11M2 10.5H0M32 9.5H30M21 9.5H18M14 9.5H11M2 9.5H0M32 8.5H30M25 8.5H23M9 8.5H7M2 8.5H0M32 7.5H30M25 7.5H23M9 7.5H7M2 7.5H0M32 6.5H27M23 6.5H21M11 6.5H9M5 6.5H0M32 5.5H27M23 5.5H21M11 5.5H9M5 5.5H0M30 4.5H25M23 4.5H21M11 4.5H9M7 4.5H2M30 3.5H25M23 3.5H21M11 3.5H9M7 3.5H2M30 2.5H25M23 2.5H21M11 2.5H9M7 2.5H2M27 1.5H5M27 0.5H5" stroke="#1A1400"/>
<path d="M30 29.5H23M9 29.5H2M30 28.5H23M9 28.5H2M30 27.5H23M9 27.5H2M30 26.5H27M23 26.5H21M18 26.5H14M11 26.5H9M5 26.5H2M30 25.5H27M23 25.5H21M18 25.5H14M11 25.5H9M5 25.5H2M30 24.5H27M23 24.5H21M18 24.5H14M11 24.5H9M5 24.5H2M30 23.5H27M23 23.5H21M18 23.5H14M11 23.5H9M5 23.5H2M30 22.5H18M14 22.5H2M30 21.5H18M14 21.5H2M27 20.5H25M23 20.5H18M14 20.5H9M7 20.5H5M27 19.5H25M23 19.5H18M14 19.5H9M7 19.5H5M27 18.5H25M23 18.5H18M14 18.5H9M7 18.5H5M27 17.5H25M23 17.5H21M11 17.5H9M7 17.5H5M27 16.5H25M23 16.5H21M11 16.5H9M7 16.5H5M25 15.5H21M11 15.5H7M25 14.5H21M11 14.5H7M30 13.5H27M25 13.5H21M11 13.5H7M5 13.5H2M30 12.5H27M25 12.5H21M11 12.5H7M5 12.5H2M30 11.5H27M25 11.5H21M11 11.5H7M5 11.5H2M30 10.5H25M23 10.5H21M18 10.5H14M11 10.5H9M7 10.5H2M30 9.5H25M23 9.5H21M18 9.5H14M11 9.5H9M7 9.5H2M27 8.5H25M21 8.5H11M7 8.5H5M27 7.5H25M21 7.5H11M7 7.5H5M25 6.5H23M21 6.5H11M9 6.5H7M25 5.5H23M21 5.5H11M9 5.5H7" stroke="#FFE180"/>
<path d="M27 26.5H23M9 26.5H5M27 25.5H23M9 25.5H5M18 22.5H14M18 21.5H14M30 20.5H27M25 20.5H23M9 20.5H7M5 20.5H2M30 19.5H27M25 19.5H23M9 19.5H7M5 19.5H2M30 18.5H27M25 18.5H23M9 18.5H7M5 18.5H2M21 17.5H11M21 16.5H11M27 15.5H25M7 15.5H5M27 14.5H25M7 14.5H5M21 13.5H18M14 13.5H11M21 12.5H18M14 12.5H11M21 11.5H18M14 11.5H11M25 10.5H23M9 10.5H7M25 9.5H23M9 9.5H7M30 8.5H27M23 8.5H21M11 8.5H9M5 8.5H2M30 7.5H27M23 7.5H21M11 7.5H9M5 7.5H2M27 6.5H25M7 6.5H5M27 5.5H25M7 5.5H5M25 4.5H23M21 4.5H11M9 4.5H7M25 3.5H23M21 3.5H11M9 3.5H7M25 2.5H23M21 2.5H11M9 2.5H7" stroke="#E6B000"/>
</g>
</g>
<defs>
<filter id="filter0_d_109_2608" x="-4" y="0" width="40" height="40" filterUnits="userSpaceOnUse" color-interpolation-filters="sRGB">
<feFlood flood-opacity="0" result="BackgroundImageFix"/>
<feColorMatrix in="SourceAlpha" type="matrix" values="0 0 0 0 0 0 0 0 0 0 0 0 0 0 0 0 0 0 127 0" result="hardAlpha"/>
<feOffset dy="4"/>
<feGaussianBlur stdDeviation="2"/>
<feComposite in2="hardAlpha" operator="out"/>
<feColorMatrix type="matrix" values="0 0 0 0 0 0 0 0 0 0 0 0 0 0 0 0 0 0 0.25 0"/>
<feBlend mode="normal" in2="BackgroundImageFix" result="effect1_dropShadow_109_2608"/>
<feBlend mode="normal" in="SourceGraphic" in2="effect1_dropShadow_109_2608" result="shape"/>
</filter>
</defs>
</svg>
