<svg width="32" height="32" viewBox="0 0 32 32" fill="none" xmlns="http://www.w3.org/2000/svg">
<mask id="mask0_109_2619" style="mask-type:luminance" maskUnits="userSpaceOnUse" x="0" y="0" width="32" height="32">
<path d="M0 32H32V0H0V32Z" fill="white"/>
</mask>
<g mask="url(#mask0_109_2619)">
<g filter="url(#filter0_d_109_2619)">
<path d="M32 31.5H0M32 30.5H0M32 29.5H30M18 29.5H14M2 29.5H0M32 28.5H30M18 28.5H14M2 28.5H0M32 27.5H30M18 27.5H14M2 27.5H0M32 26.5H30M18 26.5H14M2 26.5H0M32 25.5H30M18 25.5H14M2 25.5H0M32 24.5H30M27 24.5H25M18 24.5H14M7 24.5H5M2 24.5H0M32 23.5H30M27 23.5H25M18 23.5H14M7 23.5H5M2 23.5H0M32 22.5H30M27 22.5H25M23 22.5H21M11 22.5H9M7 22.5H5M2 22.5H0M32 21.5H30M27 21.5H25M23 21.5H21M11 21.5H9M7 21.5H5M2 21.5H0M32 20.5H30M23 20.5H9M2 20.5H0M32 19.5H30M23 19.5H9M2 19.5H0M32 18.5H30M23 18.5H9M2 18.5H0M32 17.5H30M21 17.5H18M14 17.5H11M2 17.5H0M32 16.5H30M21 16.5H18M14 16.5H11M2 16.5H0M32 15.5H30M25 15.5H23M9 15.5H7M2 15.5H0M32 14.5H30M25 14.5H23M9 14.5H7M2 14.5H0M32 13.5H30M27 13.5H25M23 13.5H21M11 13.5H9M7 13.5H5M2 13.5H0M32 12.5H30M27 12.5H25M23 12.5H21M11 12.5H9M7 12.5H5M2 12.5H0M32 11.5H30M27 11.5H25M23 11.5H21M11 11.5H9M7 11.5H5M2 11.5H0M32 10.5H25M23 10.5H21M11 10.5H9M7 10.5H0M32 9.5H25M23 9.5H21M11 9.5H9M7 9.5H0M32 8.5H25M21 8.5H18M14 8.5H11M7 8.5H0M32 7.5H25M21 7.5H18M14 7.5H11M7 7.5H0M32 6.5H30M2 6.5H0M32 5.5H30M2 5.5H0M32 4.5H30M2 4.5H0M32 3.5H30M2 3.5H0M32 2.5H30M2 2.5H0M32 1.5H0M32 0.5H0" stroke="#001A06"/>
<path d="M30 29.5H18M14 29.5H2M30 28.5H18M14 28.5H2M30 27.5H18M14 27.5H2M30 26.5H27M25 26.5H18M14 26.5H7M5 26.5H2M30 25.5H27M25 25.5H18M14 25.5H7M5 25.5H2M30 24.5H27M25 24.5H23M21 24.5H18M14 24.5H11M9 24.5H7M5 24.5H2M30 23.5H27M25 23.5H23M21 23.5H18M14 23.5H11M9 23.5H7M5 23.5H2M30 22.5H27M25 22.5H23M9 22.5H7M5 22.5H2M30 21.5H27M25 21.5H23M9 21.5H7M5 21.5H2M30 20.5H23M9 20.5H2M30 19.5H23M9 19.5H2M30 18.5H23M9 18.5H2M30 17.5H25M23 17.5H21M18 17.5H14M11 17.5H9M7 17.5H2M30 16.5H25M23 16.5H21M18 16.5H14M11 16.5H9M7 16.5H2M30 15.5H27M21 15.5H11M5 15.5H2M30 14.5H27M21 14.5H11M5 14.5H2M25 13.5H23M21 13.5H11M9 13.5H7M25 12.5H23M21 12.5H11M9 12.5H7M25 11.5H23M21 11.5H11M9 11.5H7M25 10.5H23M18 10.5H14M9 10.5H7M25 9.5H23M18 9.5H14M9 9.5H7M25 8.5H21M18 8.5H14M11 8.5H7M25 7.5H21M18 7.5H14M11 7.5H7M30 6.5H2M30 5.5H2" stroke="#80FF9D"/>
<path d="M27 26.5H25M7 26.5H5M27 25.5H25M7 25.5H5M23 24.5H21M11 24.5H9M23 23.5H21M11 23.5H9M21 22.5H11M21 21.5H11M25 17.5H23M9 17.5H7M25 16.5H23M9 16.5H7M27 15.5H25M23 15.5H21M11 15.5H9M7 15.5H5M27 14.5H25M23 14.5H21M11 14.5H9M7 14.5H5M30 13.5H27M5 13.5H2M30 12.5H27M5 12.5H2M30 11.5H27M5 11.5H2M21 10.5H18M14 10.5H11M21 9.5H18M14 9.5H11M30 4.5H2M30 3.5H2M30 2.5H2" stroke="#00E636"/>
</g>
</g>
<defs>
<filter id="filter0_d_109_2619" x="-4" y="0" width="40" height="40" filterUnits="userSpaceOnUse" color-interpolation-filters="sRGB">
<feFlood flood-opacity="0" result="BackgroundImageFix"/>
<feColorMatrix in="SourceAlpha" type="matrix" values="0 0 0 0 0 0 0 0 0 0 0 0 0 0 0 0 0 0 127 0" result="hardAlpha"/>
<feOffset dy="4"/>
<feGaussianBlur stdDeviation="2"/>
<feComposite in2="hardAlpha" operator="out"/>
<feColorMatrix type="matrix" values="0 0 0 0 0 0 0 0 0 0 0 0 0 0 0 0 0 0 0.25 0"/>
<feBlend mode="normal" in2="BackgroundImageFix" result="effect1_dropShadow_109_2619"/>
<feBlend mode="normal" in="SourceGraphic" in2="effect1_dropShadow_109_2619" result="shape"/>
</filter>
</defs>
</svg>
