<svg width="32" height="32" viewBox="0 0 32 32" fill="none" xmlns="http://www.w3.org/2000/svg">
<mask id="mask0_109_2641" style="mask-type:luminance" maskUnits="userSpaceOnUse" x="0" y="0" width="32" height="32">
<path d="M0 32H32V0H0V32Z" fill="white"/>
</mask>
<g mask="url(#mask0_109_2641)">
<g filter="url(#filter0_d_109_2641)">
<path d="M32 31.5H0M32 30.5H0M32 29.5H30M2 29.5H0M32 28.5H30M2 28.5H0M32 27.5H30M2 27.5H0M32 26.5H30M27 26.5H25M18 26.5H14M7 26.5H5M2 26.5H0M32 25.5H30M27 25.5H25M18 25.5H14M7 25.5H5M2 25.5H0M32 24.5H30M27 24.5H23M9 24.5H5M2 24.5H0M32 23.5H30M27 23.5H23M9 23.5H5M2 23.5H0M32 22.5H30M27 22.5H25M7 22.5H5M2 22.5H0M32 21.5H30M27 21.5H25M7 21.5H5M2 21.5H0M32 20.5H30M2 20.5H0M32 19.5H30M2 19.5H0M32 18.5H30M2 18.5H0M32 17.5H30M2 17.5H0M32 16.5H30M2 16.5H0M32 15.5H30M2 15.5H0M32 14.5H30M2 14.5H0M32 13.5H30M2 13.5H0M32 12.5H30M2 12.5H0M32 11.5H30M2 11.5H0M32 10.5H27M5 10.5H0M32 9.5H27M5 9.5H0M32 8.5H30M18 8.5H14M2 8.5H0M32 7.5H30M18 7.5H14M2 7.5H0M32 6.5H30M27 6.5H25M21 6.5H11M7 6.5H5M2 6.5H0M32 5.5H30M27 5.5H25M21 5.5H11M7 5.5H5M2 5.5H0M32 4.5H30M23 4.5H21M11 4.5H9M2 4.5H0M32 3.5H30M23 3.5H21M11 3.5H9M2 3.5H0M32 2.5H30M23 2.5H21M11 2.5H9M2 2.5H0M32 1.5H0M32 0.5H0" stroke="#00011A"/>
<path d="M30 29.5H27M25 29.5H18M14 29.5H7M5 29.5H2M30 28.5H27M25 28.5H18M14 28.5H7M5 28.5H2M30 27.5H27M25 27.5H18M14 27.5H7M5 27.5H2M30 26.5H27M23 26.5H18M14 26.5H9M5 26.5H2M30 25.5H27M23 25.5H18M14 25.5H9M5 25.5H2M30 24.5H27M23 24.5H9M5 24.5H2M30 23.5H27M23 23.5H9M5 23.5H2M30 22.5H27M25 22.5H7M5 22.5H2M30 21.5H27M25 21.5H7M5 21.5H2M30 20.5H2M30 19.5H2M30 18.5H2M30 17.5H2M30 16.5H2M30 15.5H2M30 14.5H2M27 13.5H5M27 12.5H5M27 11.5H5M27 10.5H18M14 10.5H5M27 9.5H18M14 9.5H5M30 8.5H27M25 8.5H21M11 8.5H7M5 8.5H2M30 7.5H27M25 7.5H21M11 7.5H7M5 7.5H2M30 6.5H27M25 6.5H23M9 6.5H7M5 6.5H2M30 5.5H27M25 5.5H23M9 5.5H7M5 5.5H2" stroke="#8086FF"/>
<path d="M27 29.5H25M18 29.5H14M7 29.5H5M27 28.5H25M18 28.5H14M7 28.5H5M27 27.5H25M18 27.5H14M7 27.5H5M25 26.5H23M9 26.5H7M25 25.5H23M9 25.5H7M30 13.5H27M5 13.5H2M30 12.5H27M5 12.5H2M30 11.5H27M5 11.5H2M18 10.5H14M18 9.5H14M27 8.5H25M21 8.5H18M14 8.5H11M7 8.5H5M27 7.5H25M21 7.5H18M14 7.5H11M7 7.5H5M23 6.5H21M11 6.5H9M23 5.5H21M11 5.5H9M30 4.5H23M21 4.5H11M9 4.5H2M30 3.5H23M21 3.5H11M9 3.5H2M30 2.5H23M21 2.5H11M9 2.5H2" stroke="#000BE6"/>
</g>
</g>
<defs>
<filter id="filter0_d_109_2641" x="-4" y="0" width="40" height="40" filterUnits="userSpaceOnUse" color-interpolation-filters="sRGB">
<feFlood flood-opacity="0" result="BackgroundImageFix"/>
<feColorMatrix in="SourceAlpha" type="matrix" values="0 0 0 0 0 0 0 0 0 0 0 0 0 0 0 0 0 0 127 0" result="hardAlpha"/>
<feOffset dy="4"/>
<feGaussianBlur stdDeviation="2"/>
<feComposite in2="hardAlpha" operator="out"/>
<feColorMatrix type="matrix" values="0 0 0 0 0 0 0 0 0 0 0 0 0 0 0 0 0 0 0.25 0"/>
<feBlend mode="normal" in2="BackgroundImageFix" result="effect1_dropShadow_109_2641"/>
<feBlend mode="normal" in="SourceGraphic" in2="effect1_dropShadow_109_2641" result="shape"/>
</filter>
</defs>
</svg>
