<svg width="32" height="32" viewBox="0 0 32 32" fill="none" xmlns="http://www.w3.org/2000/svg">
<mask id="mask0_109_2707" style="mask-type:luminance" maskUnits="userSpaceOnUse" x="0" y="0" width="32" height="32">
<path d="M0 32H32V0H0V32Z" fill="white"/>
</mask>
<g mask="url(#mask0_109_2707)">
<g filter="url(#filter0_d_109_2707)">
<path d="M32 31.5H0M32 30.5H0M32 29.5H30M23 29.5H18M14 29.5H9M2 29.5H0M32 28.5H30M23 28.5H18M14 28.5H9M2 28.5H0M32 27.5H30M23 27.5H18M14 27.5H9M2 27.5H0M32 26.5H23M18 26.5H14M9 26.5H0M32 25.5H23M18 25.5H14M9 25.5H0M32 24.5H30M25 24.5H7M2 24.5H0M32 23.5H30M25 23.5H7M2 23.5H0M32 22.5H30M2 22.5H0M32 21.5H30M2 21.5H0M32 20.5H27M25 20.5H23M9 20.5H7M5 20.5H0M32 19.5H27M25 19.5H23M9 19.5H7M5 19.5H0M32 18.5H27M25 18.5H23M9 18.5H7M5 18.5H0M32 17.5H30M21 17.5H18M14 17.5H11M2 17.5H0M32 16.5H30M21 16.5H18M14 16.5H11M2 16.5H0M32 15.5H30M25 15.5H23M18 15.5H14M9 15.5H7M2 15.5H0M32 14.5H30M25 14.5H23M18 14.5H14M9 14.5H7M2 14.5H0M32 13.5H30M2 13.5H0M32 12.5H30M2 12.5H0M32 11.5H30M2 11.5H0M32 10.5H30M2 10.5H0M32 9.5H30M2 9.5H0M32 8.5H27M21 8.5H11M5 8.5H0M32 7.5H27M21 7.5H11M5 7.5H0M32 6.5H30M21 6.5H18M14 6.5H11M2 6.5H0M32 5.5H30M21 5.5H18M14 5.5H11M2 5.5H0M32 4.5H30M18 4.5H14M2 4.5H0M32 3.5H30M18 3.5H14M2 3.5H0M32 2.5H30M18 2.5H14M2 2.5H0M32 1.5H0M32 0.5H0" stroke="#1A0002"/>
<path d="M30 29.5H23M18 29.5H14M9 29.5H2M30 28.5H23M18 28.5H14M9 28.5H2M30 27.5H23M18 27.5H14M9 27.5H2M23 26.5H18M14 26.5H9M23 25.5H18M14 25.5H9M30 22.5H27M25 22.5H23M9 22.5H7M5 22.5H2M30 21.5H27M25 21.5H23M9 21.5H7M5 21.5H2M21 20.5H18M14 20.5H11M21 19.5H18M14 19.5H11M21 18.5H18M14 18.5H11M25 17.5H23M18 17.5H14M9 17.5H7M25 16.5H23M18 16.5H14M9 16.5H7M30 10.5H27M21 10.5H11M5 10.5H2M30 9.5H27M21 9.5H11M5 9.5H2M18 6.5H14M18 5.5H14M30 4.5H18M14 4.5H2M30 3.5H18M14 3.5H2M30 2.5H18M14 2.5H2" stroke="#E60013"/>
<path d="M30 24.5H25M7 24.5H2M30 23.5H25M7 23.5H2M27 22.5H25M23 22.5H9M7 22.5H5M27 21.5H25M23 21.5H9M7 21.5H5M27 20.5H25M23 20.5H21M18 20.5H14M11 20.5H9M7 20.5H5M27 19.5H25M23 19.5H21M18 19.5H14M11 19.5H9M7 19.5H5M27 18.5H25M23 18.5H21M18 18.5H14M11 18.5H9M7 18.5H5M30 17.5H25M23 17.5H21M11 17.5H9M7 17.5H2M30 16.5H25M23 16.5H21M11 16.5H9M7 16.5H2M30 15.5H25M23 15.5H18M14 15.5H9M7 15.5H2M30 14.5H25M23 14.5H18M14 14.5H9M7 14.5H2M30 13.5H2M30 12.5H2M30 11.5H2M27 10.5H21M11 10.5H5M27 9.5H21M11 9.5H5M27 8.5H21M11 8.5H5M27 7.5H21M11 7.5H5M30 6.5H21M11 6.5H2M30 5.5H21M11 5.5H2" stroke="#FF808A"/>
</g>
</g>
<defs>
<filter id="filter0_d_109_2707" x="-4" y="0" width="40" height="40" filterUnits="userSpaceOnUse" color-interpolation-filters="sRGB">
<feFlood flood-opacity="0" result="BackgroundImageFix"/>
<feColorMatrix in="SourceAlpha" type="matrix" values="0 0 0 0 0 0 0 0 0 0 0 0 0 0 0 0 0 0 127 0" result="hardAlpha"/>
<feOffset dy="4"/>
<feGaussianBlur stdDeviation="2"/>
<feComposite in2="hardAlpha" operator="out"/>
<feColorMatrix type="matrix" values="0 0 0 0 0 0 0 0 0 0 0 0 0 0 0 0 0 0 0.25 0"/>
<feBlend mode="normal" in2="BackgroundImageFix" result="effect1_dropShadow_109_2707"/>
<feBlend mode="normal" in="SourceGraphic" in2="effect1_dropShadow_109_2707" result="shape"/>
</filter>
</defs>
</svg>
