<svg width="32" height="32" viewBox="0 0 32 32" fill="none" xmlns="http://www.w3.org/2000/svg">
<mask id="mask0_109_2751" style="mask-type:luminance" maskUnits="userSpaceOnUse" x="0" y="0" width="32" height="32">
<path d="M0 32H32V0H0V32Z" fill="white"/>
</mask>
<g mask="url(#mask0_109_2751)">
<g filter="url(#filter0_d_109_2751)">
<path d="M32 31.5H0M32 30.5H0M32 29.5H30M23 29.5H21M18 29.5H14M11 29.5H9M2 29.5H0M32 28.5H30M23 28.5H21M18 28.5H14M11 28.5H9M2 28.5H0M32 27.5H30M23 27.5H21M18 27.5H14M11 27.5H9M2 27.5H0M32 26.5H30M27 26.5H25M7 26.5H5M2 26.5H0M32 25.5H30M27 25.5H25M7 25.5H5M2 25.5H0M32 24.5H30M27 24.5H23M9 24.5H5M2 24.5H0M32 23.5H30M27 23.5H23M9 23.5H5M2 23.5H0M32 22.5H30M27 22.5H25M7 22.5H5M2 22.5H0M32 21.5H30M27 21.5H25M7 21.5H5M2 21.5H0M32 20.5H30M21 20.5H18M14 20.5H11M2 20.5H0M32 19.5H30M21 19.5H18M14 19.5H11M2 19.5H0M32 18.5H30M21 18.5H18M14 18.5H11M2 18.5H0M32 17.5H27M5 17.5H0M32 16.5H27M5 16.5H0M32 15.5H30M2 15.5H0M32 14.5H30M2 14.5H0M32 13.5H30M21 13.5H11M2 13.5H0M32 12.5H30M21 12.5H11M2 12.5H0M32 11.5H30M21 11.5H11M2 11.5H0M32 10.5H30M18 10.5H14M2 10.5H0M32 9.5H30M18 9.5H14M2 9.5H0M32 8.5H30M2 8.5H0M32 7.5H30M2 7.5H0M32 6.5H30M23 6.5H21M11 6.5H9M2 6.5H0M32 5.5H30M23 5.5H21M11 5.5H9M2 5.5H0M32 4.5H30M21 4.5H18M14 4.5H11M2 4.5H0M32 3.5H30M21 3.5H18M14 3.5H11M2 3.5H0M32 2.5H30M21 2.5H18M14 2.5H11M2 2.5H0M32 1.5H0M32 0.5H0" stroke="#041A00"/>
<path d="M30 29.5H27M25 29.5H23M21 29.5H18M14 29.5H11M9 29.5H7M5 29.5H2M30 28.5H27M25 28.5H23M21 28.5H18M14 28.5H11M9 28.5H7M5 28.5H2M30 27.5H27M25 27.5H23M21 27.5H18M14 27.5H11M9 27.5H7M5 27.5H2M30 26.5H27M23 26.5H9M5 26.5H2M30 25.5H27M23 25.5H9M5 25.5H2M30 24.5H27M23 24.5H9M5 24.5H2M30 23.5H27M23 23.5H9M5 23.5H2M30 22.5H27M25 22.5H21M18 22.5H14M11 22.5H7M5 22.5H2M30 21.5H27M25 21.5H21M18 21.5H14M11 21.5H7M5 21.5H2M27 20.5H21M18 20.5H14M11 20.5H5M27 19.5H21M18 19.5H14M11 19.5H5M27 18.5H21M18 18.5H14M11 18.5H5M27 17.5H5M27 16.5H5M30 15.5H21M11 15.5H2M30 14.5H21M11 14.5H2M30 13.5H21M11 13.5H2M30 12.5H21M11 12.5H2M30 11.5H21M11 11.5H2M30 10.5H18M14 10.5H2M30 9.5H18M14 9.5H2M30 8.5H23M21 8.5H11M9 8.5H2M30 7.5H23M21 7.5H11M9 7.5H2M30 6.5H23M18 6.5H14M9 6.5H2M30 5.5H23M18 5.5H14M9 5.5H2" stroke="#93FF80"/>
<path d="M27 29.5H25M7 29.5H5M27 28.5H25M7 28.5H5M27 27.5H25M7 27.5H5M25 26.5H23M9 26.5H7M25 25.5H23M9 25.5H7M21 22.5H18M14 22.5H11M21 21.5H18M14 21.5H11M30 20.5H27M5 20.5H2M30 19.5H27M5 19.5H2M30 18.5H27M5 18.5H2M21 15.5H11M21 14.5H11M23 8.5H21M11 8.5H9M23 7.5H21M11 7.5H9M21 6.5H18M14 6.5H11M21 5.5H18M14 5.5H11M30 4.5H21M18 4.5H14M11 4.5H2M30 3.5H21M18 3.5H14M11 3.5H2M30 2.5H21M18 2.5H14M11 2.5H2" stroke="#22E600"/>
</g>
</g>
<defs>
<filter id="filter0_d_109_2751" x="-4" y="0" width="40" height="40" filterUnits="userSpaceOnUse" color-interpolation-filters="sRGB">
<feFlood flood-opacity="0" result="BackgroundImageFix"/>
<feColorMatrix in="SourceAlpha" type="matrix" values="0 0 0 0 0 0 0 0 0 0 0 0 0 0 0 0 0 0 127 0" result="hardAlpha"/>
<feOffset dy="4"/>
<feGaussianBlur stdDeviation="2"/>
<feComposite in2="hardAlpha" operator="out"/>
<feColorMatrix type="matrix" values="0 0 0 0 0 0 0 0 0 0 0 0 0 0 0 0 0 0 0.25 0"/>
<feBlend mode="normal" in2="BackgroundImageFix" result="effect1_dropShadow_109_2751"/>
<feBlend mode="normal" in="SourceGraphic" in2="effect1_dropShadow_109_2751" result="shape"/>
</filter>
</defs>
</svg>
