<svg width="32" height="32" viewBox="0 0 32 32" fill="none" xmlns="http://www.w3.org/2000/svg">
<mask id="mask0_109_2806" style="mask-type:luminance" maskUnits="userSpaceOnUse" x="0" y="0" width="32" height="32">
<path d="M0 32H32V0H0V32Z" fill="white"/>
</mask>
<g mask="url(#mask0_109_2806)">
<g filter="url(#filter0_d_109_2806)">
<path d="M32 31.5H18M14 31.5H0M32 30.5H18M14 30.5H0M32 29.5H30M21 29.5H11M2 29.5H0M32 28.5H30M21 28.5H11M2 28.5H0M32 27.5H30M21 27.5H11M2 27.5H0M32 26.5H30M2 26.5H0M32 25.5H30M2 25.5H0M32 24.5H30M18 24.5H14M2 24.5H0M32 23.5H30M18 23.5H14M2 23.5H0M32 22.5H30M23 22.5H21M11 22.5H9M2 22.5H0M32 21.5H30M23 21.5H21M11 21.5H9M2 21.5H0M32 20.5H30M21 20.5H18M14 20.5H11M2 20.5H0M32 19.5H30M21 19.5H18M14 19.5H11M2 19.5H0M32 18.5H30M21 18.5H18M14 18.5H11M2 18.5H0M32 17.5H30M23 17.5H18M14 17.5H9M2 17.5H0M32 16.5H30M23 16.5H18M14 16.5H9M2 16.5H0M32 15.5H30M18 15.5H14M2 15.5H0M32 14.5H30M18 14.5H14M2 14.5H0M32 13.5H30M27 13.5H23M9 13.5H5M2 13.5H0M32 12.5H30M27 12.5H23M9 12.5H5M2 12.5H0M32 11.5H30M27 11.5H23M9 11.5H5M2 11.5H0M32 10.5H30M25 10.5H23M18 10.5H14M9 10.5H7M2 10.5H0M32 9.5H30M25 9.5H23M18 9.5H14M9 9.5H7M2 9.5H0M32 8.5H30M27 8.5H25M23 8.5H9M7 8.5H5M2 8.5H0M32 7.5H30M27 7.5H25M23 7.5H9M7 7.5H5M2 7.5H0M32 6.5H30M27 6.5H25M23 6.5H21M11 6.5H9M7 6.5H5M2 6.5H0M32 5.5H30M27 5.5H25M23 5.5H21M11 5.5H9M7 5.5H5M2 5.5H0M32 4.5H30M27 4.5H25M7 4.5H5M2 4.5H0M32 3.5H30M27 3.5H25M7 3.5H5M2 3.5H0M32 2.5H30M27 2.5H25M7 2.5H5M2 2.5H0M32 1.5H0M32 0.5H0" stroke="#0B1A00"/>
<path d="M30 29.5H21M11 29.5H2M30 28.5H21M11 28.5H2M30 27.5H21M11 27.5H2M30 26.5H18M14 26.5H2M30 25.5H18M14 25.5H2M30 24.5H23M21 24.5H18M14 24.5H11M9 24.5H2M30 23.5H23M21 23.5H18M14 23.5H11M9 23.5H2M30 22.5H23M18 22.5H14M9 22.5H2M30 21.5H23M18 21.5H14M9 21.5H2M30 20.5H23M18 20.5H14M9 20.5H2M30 19.5H23M18 19.5H14M9 19.5H2M30 18.5H23M18 18.5H14M9 18.5H2M30 17.5H23M9 17.5H2M30 16.5H23M9 16.5H2M30 15.5H27M23 15.5H18M14 15.5H9M5 15.5H2M30 14.5H27M23 14.5H18M14 14.5H9M5 14.5H2M30 13.5H27M23 13.5H18M14 13.5H9M5 13.5H2M30 12.5H27M23 12.5H18M14 12.5H9M5 12.5H2M30 11.5H27M23 11.5H18M14 11.5H9M5 11.5H2M30 10.5H27M5 10.5H2M30 9.5H27M5 9.5H2M30 8.5H27M25 8.5H23M9 8.5H7M5 8.5H2M30 7.5H27M25 7.5H23M9 7.5H7M5 7.5H2M30 6.5H27M25 6.5H23M21 6.5H11M9 6.5H7M5 6.5H2M30 5.5H27M25 5.5H23M21 5.5H11M9 5.5H7M5 5.5H2" stroke="#B5FF80"/>
<path d="M18 26.5H14M18 25.5H14M23 24.5H21M11 24.5H9M23 23.5H21M11 23.5H9M21 22.5H18M14 22.5H11M21 21.5H18M14 21.5H11M23 20.5H21M11 20.5H9M23 19.5H21M11 19.5H9M23 18.5H21M11 18.5H9M18 17.5H14M18 16.5H14M27 15.5H23M9 15.5H5M27 14.5H23M9 14.5H5M18 13.5H14M18 12.5H14M18 11.5H14M27 10.5H25M23 10.5H18M14 10.5H9M7 10.5H5M27 9.5H25M23 9.5H18M14 9.5H9M7 9.5H5M30 4.5H27M25 4.5H7M5 4.5H2M30 3.5H27M25 3.5H7M5 3.5H2M30 2.5H27M25 2.5H7M5 2.5H2" stroke="#60E600"/>
</g>
</g>
<defs>
<filter id="filter0_d_109_2806" x="-4" y="0" width="40" height="40" filterUnits="userSpaceOnUse" color-interpolation-filters="sRGB">
<feFlood flood-opacity="0" result="BackgroundImageFix"/>
<feColorMatrix in="SourceAlpha" type="matrix" values="0 0 0 0 0 0 0 0 0 0 0 0 0 0 0 0 0 0 127 0" result="hardAlpha"/>
<feOffset dy="4"/>
<feGaussianBlur stdDeviation="2"/>
<feComposite in2="hardAlpha" operator="out"/>
<feColorMatrix type="matrix" values="0 0 0 0 0 0 0 0 0 0 0 0 0 0 0 0 0 0 0.25 0"/>
<feBlend mode="normal" in2="BackgroundImageFix" result="effect1_dropShadow_109_2806"/>
<feBlend mode="normal" in="SourceGraphic" in2="effect1_dropShadow_109_2806" result="shape"/>
</filter>
</defs>
</svg>
