<svg width="32" height="32" viewBox="0 0 32 32" fill="none" xmlns="http://www.w3.org/2000/svg">
<mask id="mask0_109_2861" style="mask-type:luminance" maskUnits="userSpaceOnUse" x="0" y="0" width="32" height="32">
<path d="M0 32H32V0H0V32Z" fill="white"/>
</mask>
<g mask="url(#mask0_109_2861)">
<g filter="url(#filter0_d_109_2861)">
<path d="M32 31.5H0M32 30.5H0M32 29.5H30M27 29.5H25M21 29.5H18M14 29.5H11M7 29.5H5M2 29.5H0M32 28.5H30M27 28.5H25M21 28.5H18M14 28.5H11M7 28.5H5M2 28.5H0M32 27.5H30M27 27.5H25M21 27.5H18M14 27.5H11M7 27.5H5M2 27.5H0M32 26.5H30M25 26.5H21M11 26.5H7M2 26.5H0M32 25.5H30M25 25.5H21M11 25.5H7M2 25.5H0M32 24.5H30M2 24.5H0M32 23.5H30M2 23.5H0M32 22.5H30M2 22.5H0M32 21.5H30M2 21.5H0M32 20.5H30M2 20.5H0M32 19.5H30M2 19.5H0M32 18.5H30M2 18.5H0M32 17.5H30M27 17.5H25M7 17.5H5M2 17.5H0M32 16.5H30M27 16.5H25M7 16.5H5M2 16.5H0M32 15.5H30M27 15.5H25M21 15.5H18M14 15.5H11M7 15.5H5M2 15.5H0M32 14.5H30M27 14.5H25M21 14.5H18M14 14.5H11M7 14.5H5M2 14.5H0M32 13.5H30M25 13.5H23M21 13.5H18M14 13.5H11M9 13.5H7M2 13.5H0M32 12.5H30M25 12.5H23M21 12.5H18M14 12.5H11M9 12.5H7M2 12.5H0M32 11.5H30M25 11.5H23M21 11.5H18M14 11.5H11M9 11.5H7M2 11.5H0M32 10.5H27M23 10.5H18M14 10.5H9M5 10.5H0M32 9.5H27M23 9.5H18M14 9.5H9M5 9.5H0M32 8.5H30M25 8.5H23M9 8.5H7M2 8.5H0M32 7.5H30M25 7.5H23M9 7.5H7M2 7.5H0M32 6.5H30M27 6.5H25M7 6.5H5M2 6.5H0M32 5.5H30M27 5.5H25M7 5.5H5M2 5.5H0M32 4.5H23M9 4.5H0M32 3.5H23M9 3.5H0M32 2.5H23M9 2.5H0M25 1.5H7M25 0.5H7" stroke="#1A0011"/>
<path d="M30 29.5H27M18 29.5H14M5 29.5H2M30 28.5H27M18 28.5H14M5 28.5H2M30 27.5H27M18 27.5H14M5 27.5H2M30 26.5H25M21 26.5H11M7 26.5H2M30 25.5H25M21 25.5H11M7 25.5H2M30 24.5H2M30 23.5H2M30 22.5H2M30 21.5H2M30 20.5H27M25 20.5H7M5 20.5H2M30 19.5H27M25 19.5H7M5 19.5H2M30 18.5H27M25 18.5H7M5 18.5H2M30 17.5H27M25 17.5H21M18 17.5H14M11 17.5H7M5 17.5H2M30 16.5H27M25 16.5H21M18 16.5H14M11 16.5H7M5 16.5H2M30 15.5H27M23 15.5H21M18 15.5H14M11 15.5H9M5 15.5H2M30 14.5H27M23 14.5H21M18 14.5H14M11 14.5H9M5 14.5H2M27 13.5H25M18 13.5H14M7 13.5H5M27 12.5H25M18 12.5H14M7 12.5H5M27 11.5H25M18 11.5H14M7 11.5H5M27 10.5H25M18 10.5H14M7 10.5H5M27 9.5H25M18 9.5H14M7 9.5H5M30 8.5H27M23 8.5H9M5 8.5H2M30 7.5H27M23 7.5H9M5 7.5H2M23 6.5H9M23 5.5H9" stroke="#FF80D2"/>
<path d="M25 29.5H21M11 29.5H7M25 28.5H21M11 28.5H7M25 27.5H21M11 27.5H7M27 20.5H25M7 20.5H5M27 19.5H25M7 19.5H5M27 18.5H25M7 18.5H5M21 17.5H18M14 17.5H11M21 16.5H18M14 16.5H11M25 15.5H23M9 15.5H7M25 14.5H23M9 14.5H7M30 13.5H27M23 13.5H21M11 13.5H9M5 13.5H2M30 12.5H27M23 12.5H21M11 12.5H9M5 12.5H2M30 11.5H27M23 11.5H21M11 11.5H9M5 11.5H2M25 10.5H23M9 10.5H7M25 9.5H23M9 9.5H7M27 8.5H25M7 8.5H5M27 7.5H25M7 7.5H5M30 6.5H27M25 6.5H23M9 6.5H7M5 6.5H2M30 5.5H27M25 5.5H23M9 5.5H7M5 5.5H2M23 4.5H9M23 3.5H9M23 2.5H9" stroke="#E60095"/>
</g>
</g>
<defs>
<filter id="filter0_d_109_2861" x="-4" y="0" width="40" height="40" filterUnits="userSpaceOnUse" color-interpolation-filters="sRGB">
<feFlood flood-opacity="0" result="BackgroundImageFix"/>
<feColorMatrix in="SourceAlpha" type="matrix" values="0 0 0 0 0 0 0 0 0 0 0 0 0 0 0 0 0 0 127 0" result="hardAlpha"/>
<feOffset dy="4"/>
<feGaussianBlur stdDeviation="2"/>
<feComposite in2="hardAlpha" operator="out"/>
<feColorMatrix type="matrix" values="0 0 0 0 0 0 0 0 0 0 0 0 0 0 0 0 0 0 0.25 0"/>
<feBlend mode="normal" in2="BackgroundImageFix" result="effect1_dropShadow_109_2861"/>
<feBlend mode="normal" in="SourceGraphic" in2="effect1_dropShadow_109_2861" result="shape"/>
</filter>
</defs>
</svg>
