<svg width="32" height="32" viewBox="0 0 32 32" fill="none" xmlns="http://www.w3.org/2000/svg">
<mask id="mask0_109_2894" style="mask-type:luminance" maskUnits="userSpaceOnUse" x="0" y="0" width="32" height="32">
<path d="M0 32H32V0H0V32Z" fill="white"/>
</mask>
<g mask="url(#mask0_109_2894)">
<g filter="url(#filter0_d_109_2894)">
<path d="M32 31.5H0M32 30.5H0M32 29.5H30M21 29.5H18M14 29.5H11M2 29.5H0M32 28.5H30M21 28.5H18M14 28.5H11M2 28.5H0M32 27.5H30M21 27.5H18M14 27.5H11M2 27.5H0M32 26.5H30M18 26.5H14M2 26.5H0M32 25.5H30M18 25.5H14M2 25.5H0M32 24.5H30M25 24.5H23M18 24.5H14M9 24.5H7M2 24.5H0M32 23.5H30M25 23.5H23M18 23.5H14M9 23.5H7M2 23.5H0M32 22.5H30M23 22.5H21M11 22.5H9M2 22.5H0M32 21.5H30M23 21.5H21M11 21.5H9M2 21.5H0M32 20.5H30M2 20.5H0M32 19.5H30M2 19.5H0M32 18.5H30M2 18.5H0M32 17.5H30M27 17.5H25M21 17.5H18M14 17.5H11M7 17.5H5M2 17.5H0M32 16.5H30M27 16.5H25M21 16.5H18M14 16.5H11M7 16.5H5M2 16.5H0M32 15.5H27M25 15.5H23M21 15.5H18M14 15.5H11M9 15.5H7M5 15.5H0M32 14.5H27M25 14.5H23M21 14.5H18M14 14.5H11M9 14.5H7M5 14.5H0M32 13.5H27M5 13.5H0M32 12.5H27M5 12.5H0M32 11.5H27M5 11.5H0M32 10.5H30M27 10.5H23M9 10.5H5M2 10.5H0M32 9.5H30M27 9.5H23M9 9.5H5M2 9.5H0M32 8.5H30M18 8.5H14M2 8.5H0M32 7.5H30M18 7.5H14M2 7.5H0M32 6.5H27M18 6.5H14M5 6.5H0M32 5.5H27M18 5.5H14M5 5.5H0M30 4.5H25M21 4.5H11M7 4.5H2M30 3.5H25M21 3.5H11M7 3.5H2M30 2.5H25M21 2.5H11M7 2.5H2M27 1.5H18M14 1.5H5M27 0.5H18M14 0.5H5" stroke="#041A00"/>
<path d="M30 29.5H21M11 29.5H2M30 28.5H21M11 28.5H2M30 27.5H21M11 27.5H2M30 26.5H25M23 26.5H18M14 26.5H9M7 26.5H2M30 25.5H25M23 25.5H18M14 25.5H9M7 25.5H2M30 24.5H25M21 24.5H18M14 24.5H11M7 24.5H2M30 23.5H25M21 23.5H18M14 23.5H11M7 23.5H2M30 22.5H23M21 22.5H11M9 22.5H2M30 21.5H23M21 21.5H11M9 21.5H2M30 20.5H27M25 20.5H21M18 20.5H14M11 20.5H7M5 20.5H2M30 19.5H27M25 19.5H21M18 19.5H14M11 19.5H7M5 19.5H2M30 18.5H27M25 18.5H21M18 18.5H14M11 18.5H7M5 18.5H2M23 17.5H21M18 17.5H14M11 17.5H9M23 16.5H21M18 16.5H14M11 16.5H9M27 15.5H25M23 15.5H21M18 15.5H14M11 15.5H9M7 15.5H5M27 14.5H25M23 14.5H21M18 14.5H14M11 14.5H9M7 14.5H5M23 13.5H9M23 12.5H9M23 11.5H9M30 10.5H27M23 10.5H18M14 10.5H9M5 10.5H2M30 9.5H27M23 9.5H18M14 9.5H9M5 9.5H2M27 8.5H18M14 8.5H5M27 7.5H18M14 7.5H5M25 6.5H21M11 6.5H7M25 5.5H21M11 5.5H7" stroke="#93FF80"/>
<path d="M18 29.5H14M18 28.5H14M18 27.5H14M25 26.5H23M9 26.5H7M25 25.5H23M9 25.5H7M23 24.5H21M11 24.5H9M23 23.5H21M11 23.5H9M27 20.5H25M21 20.5H18M14 20.5H11M7 20.5H5M27 19.5H25M21 19.5H18M14 19.5H11M7 19.5H5M27 18.5H25M21 18.5H18M14 18.5H11M7 18.5H5M30 17.5H27M25 17.5H23M9 17.5H7M5 17.5H2M30 16.5H27M25 16.5H23M9 16.5H7M5 16.5H2M27 13.5H23M9 13.5H5M27 12.5H23M9 12.5H5M27 11.5H23M9 11.5H5M18 10.5H14M18 9.5H14M30 8.5H27M5 8.5H2M30 7.5H27M5 7.5H2M27 6.5H25M21 6.5H18M14 6.5H11M7 6.5H5M27 5.5H25M21 5.5H18M14 5.5H11M7 5.5H5M25 4.5H21M11 4.5H7M25 3.5H21M11 3.5H7M25 2.5H21M11 2.5H7" stroke="#22E600"/>
</g>
</g>
<defs>
<filter id="filter0_d_109_2894" x="-4" y="0" width="40" height="40" filterUnits="userSpaceOnUse" color-interpolation-filters="sRGB">
<feFlood flood-opacity="0" result="BackgroundImageFix"/>
<feColorMatrix in="SourceAlpha" type="matrix" values="0 0 0 0 0 0 0 0 0 0 0 0 0 0 0 0 0 0 127 0" result="hardAlpha"/>
<feOffset dy="4"/>
<feGaussianBlur stdDeviation="2"/>
<feComposite in2="hardAlpha" operator="out"/>
<feColorMatrix type="matrix" values="0 0 0 0 0 0 0 0 0 0 0 0 0 0 0 0 0 0 0.25 0"/>
<feBlend mode="normal" in2="BackgroundImageFix" result="effect1_dropShadow_109_2894"/>
<feBlend mode="normal" in="SourceGraphic" in2="effect1_dropShadow_109_2894" result="shape"/>
</filter>
</defs>
</svg>
