<svg width="32" height="32" viewBox="0 0 32 32" fill="none" xmlns="http://www.w3.org/2000/svg">
<mask id="mask0_109_2927" style="mask-type:luminance" maskUnits="userSpaceOnUse" x="0" y="0" width="32" height="32">
<path d="M0 32H32V0H0V32Z" fill="white"/>
</mask>
<g mask="url(#mask0_109_2927)">
<g filter="url(#filter0_d_109_2927)">
<path d="M30 31.5H2M30 30.5H2M32 29.5H27M5 29.5H0M32 28.5H27M5 28.5H0M32 27.5H27M5 27.5H0M32 26.5H30M25 26.5H21M11 26.5H7M2 26.5H0M32 25.5H30M25 25.5H21M11 25.5H7M2 25.5H0M32 24.5H25M21 24.5H18M14 24.5H11M7 24.5H0M32 23.5H25M21 23.5H18M14 23.5H11M7 23.5H0M32 22.5H30M2 22.5H0M32 21.5H30M2 21.5H0M32 20.5H30M23 20.5H21M18 20.5H14M11 20.5H9M2 20.5H0M32 19.5H30M23 19.5H21M18 19.5H14M11 19.5H9M2 19.5H0M32 18.5H30M23 18.5H21M18 18.5H14M11 18.5H9M2 18.5H0M32 17.5H30M25 17.5H21M11 17.5H7M2 17.5H0M32 16.5H30M25 16.5H21M11 16.5H7M2 16.5H0M32 15.5H30M27 15.5H25M23 15.5H21M11 15.5H9M7 15.5H5M2 15.5H0M32 14.5H30M27 14.5H25M23 14.5H21M11 14.5H9M7 14.5H5M2 14.5H0M32 13.5H30M2 13.5H0M32 12.5H30M2 12.5H0M32 11.5H30M2 11.5H0M32 10.5H30M2 10.5H0M32 9.5H30M2 9.5H0M32 8.5H30M27 8.5H25M18 8.5H14M7 8.5H5M2 8.5H0M32 7.5H30M27 7.5H25M18 7.5H14M7 7.5H5M2 7.5H0M32 6.5H30M25 6.5H18M14 6.5H7M2 6.5H0M32 5.5H30M25 5.5H18M14 5.5H7M2 5.5H0M32 4.5H30M23 4.5H21M11 4.5H9M2 4.5H0M32 3.5H30M23 3.5H21M11 3.5H9M2 3.5H0M32 2.5H30M23 2.5H21M11 2.5H9M2 2.5H0M32 1.5H0M32 0.5H0" stroke="#15001A"/>
<path d="M27 29.5H25M21 29.5H11M7 29.5H5M27 28.5H25M21 28.5H11M7 28.5H5M27 27.5H25M21 27.5H11M7 27.5H5M18 26.5H14M18 25.5H14M25 24.5H21M18 24.5H14M11 24.5H7M25 23.5H21M18 23.5H14M11 23.5H7M30 22.5H23M21 22.5H18M14 22.5H11M9 22.5H2M30 21.5H23M21 21.5H18M14 21.5H11M9 21.5H2M30 20.5H25M21 20.5H18M14 20.5H11M7 20.5H2M30 19.5H25M21 19.5H18M14 19.5H11M7 19.5H2M30 18.5H25M21 18.5H18M14 18.5H11M7 18.5H2M30 17.5H27M21 17.5H11M5 17.5H2M30 16.5H27M21 16.5H11M5 16.5H2M30 15.5H27M25 15.5H23M21 15.5H11M9 15.5H7M5 15.5H2M30 14.5H27M25 14.5H23M21 14.5H11M9 14.5H7M5 14.5H2M30 13.5H2M30 12.5H2M30 11.5H2M30 10.5H27M25 10.5H18M14 10.5H7M5 10.5H2M30 9.5H27M25 9.5H18M14 9.5H7M5 9.5H2M30 8.5H27M5 8.5H2M30 7.5H27M5 7.5H2M30 6.5H25M18 6.5H14M7 6.5H2M30 5.5H25M18 5.5H14M7 5.5H2" stroke="#E880FF"/>
<path d="M25 29.5H21M11 29.5H7M25 28.5H21M11 28.5H7M25 27.5H21M11 27.5H7M30 26.5H25M21 26.5H18M14 26.5H11M7 26.5H2M30 25.5H25M21 25.5H18M14 25.5H11M7 25.5H2M23 22.5H21M18 22.5H14M11 22.5H9M23 21.5H21M18 21.5H14M11 21.5H9M25 20.5H23M9 20.5H7M25 19.5H23M9 19.5H7M25 18.5H23M9 18.5H7M27 17.5H25M7 17.5H5M27 16.5H25M7 16.5H5M27 10.5H25M18 10.5H14M7 10.5H5M27 9.5H25M18 9.5H14M7 9.5H5M25 8.5H18M14 8.5H7M25 7.5H18M14 7.5H7M30 4.5H23M21 4.5H11M9 4.5H2M30 3.5H23M21 3.5H11M9 3.5H2M30 2.5H23M21 2.5H11M9 2.5H2" stroke="#BB00E6"/>
</g>
</g>
<defs>
<filter id="filter0_d_109_2927" x="-4" y="0" width="40" height="40" filterUnits="userSpaceOnUse" color-interpolation-filters="sRGB">
<feFlood flood-opacity="0" result="BackgroundImageFix"/>
<feColorMatrix in="SourceAlpha" type="matrix" values="0 0 0 0 0 0 0 0 0 0 0 0 0 0 0 0 0 0 127 0" result="hardAlpha"/>
<feOffset dy="4"/>
<feGaussianBlur stdDeviation="2"/>
<feComposite in2="hardAlpha" operator="out"/>
<feColorMatrix type="matrix" values="0 0 0 0 0 0 0 0 0 0 0 0 0 0 0 0 0 0 0.25 0"/>
<feBlend mode="normal" in2="BackgroundImageFix" result="effect1_dropShadow_109_2927"/>
<feBlend mode="normal" in="SourceGraphic" in2="effect1_dropShadow_109_2927" result="shape"/>
</filter>
</defs>
</svg>
