<svg width="32" height="32" viewBox="0 0 32 32" fill="none" xmlns="http://www.w3.org/2000/svg">
<mask id="mask0_109_3053" style="mask-type:luminance" maskUnits="userSpaceOnUse" x="0" y="0" width="32" height="32">
<path d="M0 32H32V0H0V32Z" fill="white"/>
</mask>
<g mask="url(#mask0_109_3053)">
<g filter="url(#filter0_d_109_3053)">
<path d="M32 31.5H0M32 30.5H0M32 29.5H30M18 29.5H14M2 29.5H0M32 28.5H30M18 28.5H14M2 28.5H0M32 27.5H30M18 27.5H14M2 27.5H0M32 26.5H30M23 26.5H21M11 26.5H9M2 26.5H0M32 25.5H30M23 25.5H21M11 25.5H9M2 25.5H0M32 24.5H30M23 24.5H21M11 24.5H9M2 24.5H0M32 23.5H30M23 23.5H21M11 23.5H9M2 23.5H0M32 22.5H27M5 22.5H0M32 21.5H27M5 21.5H0M32 20.5H27M23 20.5H21M11 20.5H9M5 20.5H0M32 19.5H27M23 19.5H21M11 19.5H9M5 19.5H0M32 18.5H27M23 18.5H21M11 18.5H9M5 18.5H0M32 17.5H30M27 17.5H25M7 17.5H5M2 17.5H0M32 16.5H30M27 16.5H25M7 16.5H5M2 16.5H0M32 15.5H30M23 15.5H21M18 15.5H14M11 15.5H9M2 15.5H0M32 14.5H30M23 14.5H21M18 14.5H14M11 14.5H9M2 14.5H0M32 13.5H27M23 13.5H18M14 13.5H9M5 13.5H0M32 12.5H27M23 12.5H18M14 12.5H9M5 12.5H0M32 11.5H27M23 11.5H18M14 11.5H9M5 11.5H0M32 10.5H30M18 10.5H14M2 10.5H0M32 9.5H30M18 9.5H14M2 9.5H0M32 8.5H21M11 8.5H0M32 7.5H21M11 7.5H0M32 6.5H30M2 6.5H0M32 5.5H30M2 5.5H0M32 4.5H30M27 4.5H21M11 4.5H5M2 4.5H0M32 3.5H30M27 3.5H21M11 3.5H5M2 3.5H0M32 2.5H30M27 2.5H21M11 2.5H5M2 2.5H0M32 1.5H25M23 1.5H9M7 1.5H0M32 0.5H25M23 0.5H9M7 0.5H0" stroke="#001A00"/>
<path d="M30 29.5H23M21 29.5H18M14 29.5H11M9 29.5H2M30 28.5H23M21 28.5H18M14 28.5H11M9 28.5H2M30 27.5H23M21 27.5H18M14 27.5H11M9 27.5H2M30 26.5H23M21 26.5H11M9 26.5H2M30 25.5H23M21 25.5H11M9 25.5H2M27 24.5H23M21 24.5H11M9 24.5H5M27 23.5H23M21 23.5H11M9 23.5H5M27 22.5H23M21 22.5H11M9 22.5H5M27 21.5H23M21 21.5H11M9 21.5H5M25 20.5H23M21 20.5H11M9 20.5H7M25 19.5H23M21 19.5H11M9 19.5H7M25 18.5H23M21 18.5H11M9 18.5H7M30 17.5H27M25 17.5H23M21 17.5H18M14 17.5H11M9 17.5H7M5 17.5H2M30 16.5H27M25 16.5H23M21 16.5H18M14 16.5H11M9 16.5H7M5 16.5H2M27 15.5H23M9 15.5H5M27 14.5H23M9 14.5H5M27 13.5H23M9 13.5H5M27 12.5H23M9 12.5H5M27 11.5H23M9 11.5H5M21 10.5H18M14 10.5H11M21 9.5H18M14 9.5H11M21 8.5H11M21 7.5H11M30 6.5H27M21 6.5H11M5 6.5H2M30 5.5H27M21 5.5H11M5 5.5H2" stroke="#82FF80"/>
<path d="M23 29.5H21M11 29.5H9M23 28.5H21M11 28.5H9M23 27.5H21M11 27.5H9M30 24.5H27M5 24.5H2M30 23.5H27M5 23.5H2M23 22.5H21M11 22.5H9M23 21.5H21M11 21.5H9M27 20.5H25M7 20.5H5M27 19.5H25M7 19.5H5M27 18.5H25M7 18.5H5M23 17.5H21M18 17.5H14M11 17.5H9M23 16.5H21M18 16.5H14M11 16.5H9M30 15.5H27M21 15.5H18M14 15.5H11M5 15.5H2M30 14.5H27M21 14.5H18M14 14.5H11M5 14.5H2M18 13.5H14M18 12.5H14M18 11.5H14M30 10.5H21M11 10.5H2M30 9.5H21M11 9.5H2M27 6.5H21M11 6.5H5M27 5.5H21M11 5.5H5M30 4.5H27M21 4.5H11M5 4.5H2M30 3.5H27M21 3.5H11M5 3.5H2M30 2.5H27M21 2.5H11M5 2.5H2" stroke="#04E600"/>
</g>
</g>
<defs>
<filter id="filter0_d_109_3053" x="-4" y="0" width="40" height="40" filterUnits="userSpaceOnUse" color-interpolation-filters="sRGB">
<feFlood flood-opacity="0" result="BackgroundImageFix"/>
<feColorMatrix in="SourceAlpha" type="matrix" values="0 0 0 0 0 0 0 0 0 0 0 0 0 0 0 0 0 0 127 0" result="hardAlpha"/>
<feOffset dy="4"/>
<feGaussianBlur stdDeviation="2"/>
<feComposite in2="hardAlpha" operator="out"/>
<feColorMatrix type="matrix" values="0 0 0 0 0 0 0 0 0 0 0 0 0 0 0 0 0 0 0.25 0"/>
<feBlend mode="normal" in2="BackgroundImageFix" result="effect1_dropShadow_109_3053"/>
<feBlend mode="normal" in="SourceGraphic" in2="effect1_dropShadow_109_3053" result="shape"/>
</filter>
</defs>
</svg>
