<svg xmlns="http://www.w3.org/2000/svg" viewBox="0 -0.5 32 32" shape-rendering="crispEdges">
<metadata>Made with Pixels to Svg https://codepen.io/shshaw/pen/XbxvNj</metadata>
<path stroke="#1a0200" d="M0 0h32M0 1h32M0 2h2M11 2h3M18 2h3M30 2h2M0 3h2M11 3h3M18 3h3M30 3h2M0 4h2M11 4h3M18 4h3M30 4h2M0 5h5M14 5h4M27 5h5M0 6h5M14 6h4M27 6h5M0 7h2M14 7h4M30 7h2M0 8h2M14 8h4M30 8h2M0 9h2M30 9h2M0 10h2M30 10h2M0 11h5M27 11h5M0 12h5M27 12h5M0 13h5M27 13h5M0 14h2M5 14h2M25 14h2M30 14h2M0 15h2M5 15h2M25 15h2M30 15h2M0 16h2M5 16h6M21 16h6M30 16h2M0 17h2M5 17h6M21 17h6M30 17h2M0 18h2M30 18h2M0 19h2M30 19h2M0 20h2M30 20h2M0 21h2M7 21h2M23 21h2M30 21h2M0 22h2M7 22h2M23 22h2M30 22h2M0 23h2M5 23h4M11 23h3M18 23h3M23 23h4M30 23h2M0 24h2M5 24h4M11 24h3M18 24h3M23 24h4M30 24h2M0 25h2M30 25h2M0 26h2M30 26h2M0 27h2M11 27h3M18 27h3M30 27h2M0 28h2M11 28h3M18 28h3M30 28h2M0 29h2M11 29h3M18 29h3M30 29h2M0 30h32M0 31h32" />
<path stroke="#e61300" d="M2 2h3M14 2h4M27 2h3M2 3h3M14 3h4M27 3h3M2 4h3M14 4h4M27 4h3M2 9h3M27 9h3M2 10h3M27 10h3M5 11h2M25 11h2M5 12h2M25 12h2M5 13h2M25 13h2M7 14h4M21 14h4M7 15h4M21 15h4M7 18h2M23 18h2M7 19h2M23 19h2M7 20h2M23 20h2M5 21h2M11 21h3M18 21h3M25 21h2M5 22h2M11 22h3M18 22h3M25 22h2M11 25h3M18 25h3M11 26h3M18 26h3M2 27h9M14 27h4M21 27h9M2 28h9M14 28h4M21 28h9M2 29h9M14 29h4M21 29h9" />
<path stroke="#ff8a80" d="M5 2h6M21 2h6M5 3h6M21 3h6M5 4h6M21 4h6M5 5h9M18 5h9M5 6h9M18 6h9M2 7h12M18 7h12M2 8h12M18 8h12M5 9h22M5 10h22M7 11h18M7 12h18M7 13h18M2 14h3M11 14h10M27 14h3M2 15h3M11 15h10M27 15h3M2 16h3M11 16h10M27 16h3M2 17h3M11 17h10M27 17h3M2 18h5M9 18h14M25 18h5M2 19h5M9 19h14M25 19h5M2 20h5M9 20h14M25 20h5M2 21h3M9 21h2M14 21h4M21 21h2M27 21h3M2 22h3M9 22h2M14 22h4M21 22h2M27 22h3M2 23h3M9 23h2M14 23h4M21 23h2M27 23h3M2 24h3M9 24h2M14 24h4M21 24h2M27 24h3M2 25h9M14 25h4M21 25h9M2 26h9M14 26h4M21 26h9" />
</svg>