<svg xmlns="http://www.w3.org/2000/svg" viewBox="0 -0.5 32 32" shape-rendering="crispEdges">
<metadata>Made with Pixels to Svg https://codepen.io/shshaw/pen/XbxvNj</metadata>
<path stroke="#1a0006" d="M0 0h32M0 1h32M0 2h2M9 2h2M21 2h2M30 2h2M0 3h2M9 3h2M21 3h2M30 3h2M0 4h2M9 4h2M21 4h2M30 4h2M0 5h2M11 5h3M18 5h3M30 5h2M0 6h2M11 6h3M18 6h3M30 6h2M0 7h2M14 7h4M30 7h2M0 8h2M14 8h4M30 8h2M0 9h2M30 9h2M0 10h2M30 10h2M0 11h2M11 11h3M18 11h3M30 11h2M0 12h2M11 12h3M18 12h3M30 12h2M0 13h2M11 13h3M18 13h3M30 13h2M0 14h2M5 14h4M14 14h4M23 14h4M30 14h2M0 15h2M5 15h4M14 15h4M23 15h4M30 15h2M0 16h7M9 16h5M18 16h5M25 16h7M0 17h7M9 17h5M18 17h5M25 17h7M0 18h2M14 18h4M30 18h2M0 19h2M14 19h4M30 19h2M0 20h2M14 20h4M30 20h2M0 21h2M11 21h10M30 21h2M0 22h2M11 22h10M30 22h2M0 23h2M11 23h3M18 23h3M30 23h2M0 24h2M11 24h3M18 24h3M30 24h2M0 25h2M5 25h2M25 25h2M30 25h2M0 26h2M5 26h2M25 26h2M30 26h2M0 27h2M9 27h2M21 27h2M30 27h2M0 28h2M9 28h2M21 28h2M30 28h2M0 29h2M9 29h2M21 29h2M30 29h2M0 30h32M0 31h32" />
<path stroke="#ff809d" d="M2 2h7M14 2h4M23 2h7M2 3h7M14 3h4M23 3h7M2 4h7M14 4h4M23 4h7M2 5h9M21 5h9M2 6h9M21 6h9M2 7h12M18 7h12M2 8h12M18 8h12M2 9h9M14 9h4M21 9h9M2 10h9M14 10h4M21 10h9M2 11h3M9 11h2M21 11h2M27 11h3M2 12h3M9 12h2M21 12h2M27 12h3M2 13h3M9 13h2M21 13h2M27 13h3M7 16h2M23 16h2M7 17h2M23 17h2M2 18h9M21 18h9M2 19h9M21 19h9M2 20h9M21 20h9M2 21h9M21 21h9M2 22h9M21 22h9M2 23h3M7 23h4M14 23h4M21 23h4M27 23h3M2 24h3M7 24h4M14 24h4M21 24h4M27 24h3M2 25h3M7 25h2M11 25h10M23 25h2M27 25h3M2 26h3M7 26h2M11 26h10M23 26h2M27 26h3" />
<path stroke="#e60036" d="M11 2h3M18 2h3M11 3h3M18 3h3M11 4h3M18 4h3M14 5h4M14 6h4M11 9h3M18 9h3M11 10h3M18 10h3M5 11h4M14 11h4M23 11h4M5 12h4M14 12h4M23 12h4M5 13h4M14 13h4M23 13h4M2 14h3M9 14h5M18 14h5M27 14h3M2 15h3M9 15h5M18 15h5M27 15h3M14 16h4M14 17h4M11 18h3M18 18h3M11 19h3M18 19h3M11 20h3M18 20h3M5 23h2M25 23h2M5 24h2M25 24h2M9 25h2M21 25h2M9 26h2M21 26h2M2 27h7M11 27h10M23 27h7M2 28h7M11 28h10M23 28h7M2 29h7M11 29h10M23 29h7" />
</svg>