<svg xmlns="http://www.w3.org/2000/svg" viewBox="0 -0.5 7 10" shape-rendering="crispEdges">
<metadata>Made with Pixels to Svg https://codepen.io/shshaw/pen/XbxvNj</metadata>
<path stroke="#25131a" d="M2 0h2M2 1h1M4 1h1M2 2h1M4 2h1M1 3h1M5 3h1M1 4h1M5 4h1M1 5h1M5 5h1M1 6h1M5 6h1M1 7h1M3 7h1M5 7h1M0 8h1M2 8h1M4 8h1M6 8h1M0 9h2M5 9h2" />
<path stroke="#9bf0fd" d="M3 1h1M3 3h1M3 4h1" />
<path stroke="#62abd4" d="M3 2h1M2 3h1M4 3h1M2 4h1M4 4h1M2 5h3" />
<path stroke="#895a45" d="M2 6h1M2 7h1M1 8h1" />
<path stroke="#d1851e" d="M3 6h2M4 7h1M5 8h1" />
</svg>