<svg xmlns="http://www.w3.org/2000/svg" viewBox="0 -0.5 10 34" shape-rendering="crispEdges">
<metadata>Made with Pixels to Svg https://codepen.io/shshaw/pen/XbxvNj</metadata>
<path stroke="#25131a" d="M5 0h2M4 1h1M6 1h1M3 2h1M6 2h1M3 3h1M6 3h1M3 4h1M6 4h1M2 5h2M6 5h2M2 6h1M7 6h1M2 7h1M7 7h1M2 8h2M6 8h2M3 9h1M6 9h1M3 10h1M6 10h1M2 11h1M7 11h1M2 12h2M6 12h2M3 13h1M6 13h1M3 14h1M6 14h1M3 15h1M6 15h1M3 16h1M6 16h1M3 17h1M6 17h1M3 18h1M6 18h1M3 19h1M6 19h1M3 20h1M6 20h1M3 21h1M6 21h1M3 22h1M6 22h1M3 23h1M6 23h1M3 24h1M6 24h1M3 25h1M6 25h1M3 26h1M6 26h1M3 27h1M6 27h1M3 28h1M6 28h1M2 29h1M7 29h1M1 30h1M8 30h1M0 31h1M9 31h1M0 32h1M9 32h1M0 33h10" />
<path stroke="#e6deca" d="M5 1h1M4 2h2M4 3h2M4 4h2M4 5h2" />
<path stroke="#d1851e" d="M3 6h1M6 6h1M3 7h1M6 7h1M3 11h1M6 11h1M3 29h1M6 29h1M2 30h1M7 30h1M1 31h1M4 31h2M8 31h1M1 32h1M4 32h2M8 32h1" />
<path stroke="#895a45" d="M4 6h1M4 7h1M5 8h1M4 9h1M4 10h1M4 11h1M5 12h1M4 13h1M4 14h1M4 15h1M4 16h1M4 17h1M4 18h1M4 19h1M4 20h1M4 21h1M4 22h1M4 23h1M4 24h1M4 25h1M4 26h1M4 27h1M4 28h1M4 29h1M3 30h2M2 31h2M2 32h2" />
<path stroke="#ffd569" d="M5 6h1M5 7h1M5 9h1M5 10h1M5 11h1M5 13h1M5 14h1M5 15h1M5 16h1M5 17h1M5 18h1M5 19h1M5 20h1M5 21h1M5 22h1M5 23h1M5 24h1M5 25h1M5 26h1M5 27h1M5 28h1M5 29h1M5 30h2M6 31h2M6 32h2" />
<path stroke="#523b40" d="M4 8h1M4 12h1" />
</svg>