<svg xmlns="http://www.w3.org/2000/svg" viewBox="0 -0.5 46 27" shape-rendering="crispEdges">
<metadata>Made with Pixels to Svg https://codepen.io/shshaw/pen/XbxvNj</metadata>
<path stroke="#25131a" d="M15 0h4M14 1h1M19 1h2M13 2h1M17 2h2M21 2h2M13 3h1M16 3h1M19 3h2M23 3h1M30 3h5M13 4h1M16 4h1M21 4h3M29 4h1M35 4h1M13 5h1M16 5h1M28 5h1M31 5h3M36 5h1M12 6h1M17 6h1M28 6h1M30 6h1M34 6h1M36 6h1M11 7h1M18 7h1M22 7h5M28 7h1M30 7h1M34 7h1M36 7h1M11 8h1M18 8h1M22 8h1M26 8h1M28 8h1M30 8h1M34 8h1M36 8h1M5 9h2M11 9h1M18 9h1M22 9h1M26 9h1M28 9h1M31 9h3M36 9h1M5 10h1M7 10h1M11 10h1M18 10h1M21 10h1M27 10h1M29 10h1M35 10h1M6 11h1M8 11h3M18 11h1M21 11h1M27 11h2M35 11h3M7 12h1M18 12h1M21 12h1M30 12h4M38 12h3M7 13h1M11 13h1M18 13h1M21 13h1M27 13h3M34 13h3M41 13h1M7 14h1M11 14h1M18 14h1M21 14h1M27 14h1M37 14h5M8 15h4M18 15h1M21 15h1M27 15h1M11 16h1M18 16h1M21 16h1M27 16h1M38 16h7M11 17h1M18 17h1M22 17h2M25 17h2M38 17h1M44 17h1M11 18h1M18 18h1M23 18h1M25 18h1M39 18h1M43 18h1M10 19h1M19 19h1M23 19h1M25 19h1M38 19h1M44 19h1M9 20h1M20 20h1M23 20h1M25 20h1M37 20h1M45 20h1M9 21h1M13 21h4M20 21h1M23 21h1M25 21h1M37 21h1M45 21h1M9 22h1M12 22h1M17 22h1M20 22h1M23 22h1M25 22h1M37 22h1M45 22h1M9 23h1M12 23h1M17 23h1M20 23h1M23 23h1M25 23h1M37 23h1M45 23h1M0 24h8M9 24h1M12 24h1M17 24h1M20 24h1M23 24h1M25 24h1M37 24h1M45 24h1M0 25h1M7 25h1M9 25h1M12 25h1M17 25h1M20 25h1M23 25h1M25 25h1M37 25h1M45 25h1M1 26h6M9 26h4M17 26h4M23 26h3M38 26h7" />
<path stroke="#d1851e" d="M15 1h3M14 2h2M14 3h1M14 4h1M14 5h1M13 6h2M16 6h1M12 7h1M14 7h1M17 7h1M12 8h1M14 8h1M17 8h1M12 9h3M17 9h1M12 10h1M14 10h1M17 10h1M11 11h2M14 11h1M17 11h1M11 12h2M14 12h1M17 12h1M12 13h1M14 13h1M17 13h1M12 14h1M14 14h1M17 14h1M12 15h1M14 15h1M17 15h1M12 16h1M14 16h1M17 16h1M12 17h1M14 17h1M17 17h1M11 19h2M16 19h2M10 20h3M16 20h3M10 21h2M17 21h2M10 22h1M18 22h1M10 23h1M18 23h1M10 24h1M18 24h1M1 25h1M4 25h1M6 25h1M10 25h1M18 25h1" />
<path stroke="#895a45" d="M18 1h1M16 2h1M19 2h2M15 3h1M21 3h2M15 4h1M15 5h1M15 6h1M15 7h2M15 8h2M15 9h2M15 10h2M15 11h2M15 12h2M15 13h2M15 14h2M15 15h2M15 16h2M22 16h5M15 17h2M24 17h1M12 18h3M17 18h1M24 18h1M13 19h3M18 19h1M24 19h1M13 20h3M19 20h1M24 20h1M12 21h1M19 21h1M24 21h1M11 22h1M19 22h1M24 22h1M11 23h1M19 23h1M24 23h1M11 24h1M19 24h1M24 24h1M5 25h1M11 25h1M19 25h1M24 25h1" />
<path stroke="#9bf0fd" d="M30 4h2M33 4h1M29 5h1M29 6h1M29 7h1M23 9h2M29 9h1M23 10h2M30 10h2M23 11h2M32 11h2M9 12h1M23 12h2M35 12h2M8 13h3M23 13h2M38 13h2M9 14h1" />
<path stroke="#62abd4" d="M32 4h1M34 4h1M30 5h1M35 5h1M23 8h2M29 8h1M30 9h1M6 10h1M22 10h1M25 10h1M32 10h1M7 11h1M22 11h1M25 11h1M34 11h1M8 12h1M10 12h1M22 12h1M25 12h1M34 12h1M37 12h1M22 13h1M25 13h1M37 13h1M40 13h1M8 14h1M10 14h1M22 14h4" />
<path stroke="#5880cc" d="M34 5h1M35 6h1M35 7h1M25 8h1M35 8h1M25 9h1M34 9h2M26 10h1M33 10h2M26 11h1M29 11h3M26 12h4M26 13h1M26 14h1" />
<path stroke="#ffd569" d="M13 7h1M13 8h1M13 10h1M13 11h1M13 12h1M13 13h1M13 14h1M13 15h1M13 16h1M13 17h1M2 25h2" />
<path stroke="#3d253b" d="M22 15h5M15 18h2" />
<path stroke="#cae6f5" d="M39 17h3M40 19h1M39 20h3M39 21h3M39 22h3M39 23h3M39 24h3M39 25h3" />
<path stroke="#56587b" d="M42 17h1M41 18h2M42 19h1M43 20h1M43 21h1M43 22h1M43 23h1M43 24h1M43 25h1" />
<path stroke="#a7acba" d="M43 17h1M40 18h1M39 19h1M41 19h1M43 19h1M38 20h1M42 20h1M44 20h1M38 21h1M42 21h1M44 21h1M38 22h1M42 22h1M44 22h1M38 23h1M42 23h1M44 23h1M38 24h1M42 24h1M44 24h1M38 25h1M42 25h1M44 25h1" />
</svg>