<svg xmlns="http://www.w3.org/2000/svg" viewBox="0 -0.5 18 13" shape-rendering="crispEdges">
<metadata>Made with Pixels to Svg https://codepen.io/shshaw/pen/XbxvNj</metadata>
<path stroke="#25131a" d="M8 0h2M5 1h3M10 1h3M3 2h2M13 2h2M2 3h1M6 3h2M10 3h2M15 3h1M1 4h1M4 4h2M7 4h1M10 4h1M12 4h2M16 4h1M1 5h1M3 5h1M7 5h1M10 5h1M14 5h1M16 5h1M0 6h1M4 6h1M7 6h1M10 6h1M13 6h1M17 6h1M0 7h1M4 7h1M7 7h1M10 7h1M13 7h1M17 7h1M0 8h5M7 8h1M10 8h1M13 8h5M7 9h1M10 9h1M6 10h1M11 10h1M5 11h1M12 11h1M5 12h8" />
<path stroke="#895a45" d="M8 1h1M8 4h1M8 5h1M8 6h1M8 7h1M8 8h1M8 9h1M8 10h1M7 11h1" />
<path stroke="#ffd569" d="M9 1h1M6 2h2M10 2h2M4 3h1M13 3h1M9 4h1M2 5h1M9 5h1M15 5h1M1 6h1M3 6h1M9 6h1M14 6h1M16 6h1M1 7h3M9 7h1M14 7h3M9 8h1M9 9h1M9 10h1M9 11h2" />
<path stroke="#d1851e" d="M5 2h1M8 2h2M12 2h1M3 3h1M5 3h1M8 3h2M12 3h1M14 3h1M2 4h2M14 4h2M7 10h1M10 10h1M6 11h1M8 11h1M11 11h1" />
<path stroke="#523b40" d="M2 6h1M15 6h1" />
</svg>