<svg xmlns="http://www.w3.org/2000/svg" viewBox="0 -0.5 16 11" shape-rendering="crispEdges">
<metadata>Made with Pixels to Svg https://codepen.io/shshaw/pen/XbxvNj</metadata>
<path stroke="#25131a" d="M5 0h6M3 1h2M11 1h2M2 2h1M6 2h1M9 2h1M13 2h1M1 3h1M4 3h3M9 3h3M14 3h1M1 4h1M3 4h1M6 4h1M9 4h1M12 4h1M14 4h1M0 5h1M4 5h1M6 5h1M9 5h1M11 5h1M15 5h1M0 6h5M6 6h1M9 6h1M11 6h5M6 7h1M9 7h1M5 8h1M10 8h1M4 9h1M11 9h1M4 10h8" />
<path stroke="#d1851e" d="M5 1h1M7 1h2M10 1h1M3 2h1M5 2h1M7 2h2M10 2h1M12 2h1M2 3h2M12 3h2M6 8h1M9 8h1M5 9h1M7 9h1M10 9h1" />
<path stroke="#ffd569" d="M6 1h1M9 1h1M4 2h1M11 2h1M8 3h1M2 4h1M8 4h1M13 4h1M1 5h3M8 5h1M12 5h3M8 6h1M8 7h1M8 8h1M8 9h2" />
<path stroke="#895a45" d="M7 3h1M7 4h1M7 5h1M7 6h1M7 7h1M7 8h1M6 9h1" />
</svg>