<svg xmlns="http://www.w3.org/2000/svg" viewBox="0 -0.5 38 38" shape-rendering="crispEdges">
<metadata>Made with Pixels to Svg https://codepen.io/shshaw/pen/XbxvNj</metadata>
<path stroke="#25131a" d="M7 0h23M4 1h3M30 1h3M0 2h4M33 2h4M0 3h1M37 3h1M0 4h1M37 4h1M0 5h1M37 5h1M0 6h1M37 6h1M1 7h1M36 7h1M1 8h1M36 8h1M1 9h1M36 9h1M1 10h1M36 10h1M1 11h1M36 11h1M1 12h1M36 12h1M1 13h1M36 13h1M1 14h1M36 14h1M1 15h1M36 15h1M1 16h1M36 16h1M1 17h1M36 17h1M1 18h1M36 18h1M1 19h1M36 19h1M1 20h1M36 20h1M1 21h1M36 21h1M1 22h1M36 22h1M1 23h1M36 23h1M1 24h1M36 24h1M1 25h1M36 25h1M1 26h1M36 26h1M1 27h1M36 27h1M1 28h1M36 28h1M1 29h1M36 29h1M1 30h1M36 30h1M1 31h1M36 31h1M1 32h1M36 32h1M1 33h1M36 33h1M1 34h1M36 34h1M1 35h1M36 35h1M1 36h1M18 36h14M36 36h1M1 37h18M32 37h5" />
<path stroke="#d1851e" d="M7 1h12M22 1h8M4 2h11M19 2h14M15 3h22M15 4h1M18 4h4M30 4h4M36 4h1M15 5h1M18 5h1M33 5h1M36 5h1M15 6h4M33 6h4M16 8h2M34 8h2M16 9h2M34 9h2M3 10h2M13 10h2M16 10h2M30 10h2M34 10h2M3 11h2M13 11h2M16 11h2M30 11h2M34 11h2M16 12h2M34 12h2M16 13h2M34 13h2M16 14h2M34 14h2M16 15h2M34 15h2M16 16h2M34 16h2M16 17h2M34 17h2M3 18h2M13 18h2M16 18h2M30 18h2M34 18h2M3 19h2M13 19h2M16 19h2M30 19h2M34 19h2M16 20h2M34 20h2M16 21h2M34 21h2M16 22h2M34 22h2M16 23h2M34 23h2M16 24h2M34 24h2M16 25h2M34 25h2M3 26h2M13 26h2M16 26h2M30 26h2M34 26h2M3 27h2M13 27h2M16 27h2M30 27h2M34 27h2M16 28h2M34 28h2M16 29h2M34 29h2M16 30h2M34 30h2M16 31h2M34 31h2M16 32h2M34 32h2M16 33h2M34 33h2M3 34h2M13 34h2M16 34h2M30 34h2M34 34h2M3 35h2M13 35h2M16 35h2M30 35h2M34 35h2M16 36h2M34 36h2" />
<path stroke="#ffd569" d="M19 1h3M15 2h4M16 4h2M34 4h2M16 5h2M34 5h2" />
<path stroke="#895a45" d="M1 3h14M1 4h14M1 5h14M31 5h2M1 6h14M31 6h2M16 7h2M34 7h2M2 8h14M31 8h3M2 9h14M31 9h3M2 10h1M5 10h8M15 10h1M18 10h12M32 10h2M2 11h1M5 11h8M15 11h1M18 11h12M32 11h2M2 12h14M31 12h3M2 13h14M31 13h3M2 14h14M31 14h3M2 15h14M31 15h3M2 16h14M31 16h3M2 17h14M31 17h3M2 18h1M5 18h8M15 18h1M18 18h12M32 18h2M2 19h1M5 19h8M15 19h1M18 19h12M32 19h2M2 20h14M31 20h3M2 21h14M31 21h3M2 22h14M31 22h3M2 23h14M31 23h3M2 24h14M31 24h3M2 25h14M31 25h3M2 26h1M5 26h8M15 26h1M18 26h12M32 26h2M2 27h1M5 27h8M15 27h1M18 27h12M32 27h2M2 28h14M31 28h3M2 29h14M31 29h3M2 30h14M31 30h3M2 31h14M31 31h3M2 32h14M31 32h3M2 33h14M31 33h3M2 34h1M5 34h8M15 34h1M18 34h12M32 34h2M2 35h1M5 35h8M15 35h1M18 35h12M32 35h2M2 36h14M32 36h2" />
<path stroke="#523b40" d="M22 4h8M19 5h12M24 6h7M2 7h14M27 7h7M27 8h4M26 9h5M20 12h11M21 13h4M28 13h3M21 14h3M29 14h2M22 15h2M29 15h2M22 16h2M29 16h2M22 17h3M28 17h3M26 20h5M26 21h5M26 22h5M26 23h5M18 28h1M27 28h2M18 29h1M27 29h2M27 30h1M27 31h1M27 32h1M30 32h1M27 33h1M30 33h1" />
<path stroke="#427f3b" d="M19 6h5M18 7h9M18 8h9M21 9h5M18 20h3M18 21h3M18 22h3M18 23h3M18 24h3M18 25h3M29 28h2M29 29h2M28 30h3M28 31h3M28 32h2M28 33h2" />
<path stroke="#1f3736" d="M18 9h3" />
<path stroke="#af69bf" d="M18 12h2M18 13h3M18 14h3M19 15h3M19 16h3M20 17h2M26 24h5M26 25h5" />
<path stroke="#62abd4" d="M25 13h3M24 14h2M28 14h1M24 15h2M28 15h1M24 16h1M26 16h3M25 17h3" />
<path stroke="#9bf0fd" d="M26 14h2M26 15h2M25 16h1" />
<path stroke="#7144ff" d="M18 15h1M18 16h1M18 17h2" />
<path stroke="#802954" d="M21 20h1M21 21h1M18 30h1M18 31h2M18 32h3M18 33h4" />
<path stroke="#d01946" d="M22 20h2M22 21h2M21 22h3M21 23h3M21 24h2M21 25h2" />
<path stroke="#5880cc" d="M24 20h2M24 21h2M24 22h2M24 23h2M24 24h2M24 25h2M24 28h3M24 29h3M24 30h3M24 31h3M24 32h3M24 33h3" />
<path stroke="#56587b" d="M23 24h1M23 25h1M19 28h5M19 29h5M19 30h5M20 31h4M21 32h3M22 33h2" />
</svg>