<svg xmlns="http://www.w3.org/2000/svg" viewBox="0 -0.5 288 48" shape-rendering="crispEdges">
<metadata>Made with Pixels to Svg https://codepen.io/shshaw/pen/XbxvNj</metadata>
<path stroke="#a7acba" d="M50 8h1M147 8h2M101 9h2M5 10h2M102 10h2M56 11h3M246 11h2M57 12h3M106 12h2M199 12h2M247 12h1M11 13h3M107 13h2M153 13h2M199 13h2M12 14h3M60 14h2M107 14h2M152 14h2M202 14h4M61 15h2M106 15h3M151 15h2M201 15h6M253 15h2M15 16h1M61 16h2M106 16h3M151 16h2M200 16h3M206 16h2M253 16h3M15 17h1M60 17h3M105 17h4M150 17h3M200 17h2M206 17h2M254 17h2M14 18h2M58 18h4M105 18h4M150 18h2M200 18h1M205 18h3M14 19h2M56 19h5M104 19h4M150 19h2M155 19h5M205 19h2M254 19h1M13 20h2M55 20h5M103 20h5M150 20h3M154 20h6M204 20h3M252 20h2M11 21h3M55 21h4M103 21h4M150 21h11M203 21h4M250 21h3M10 22h3M54 22h5M103 22h4M151 22h10M203 22h3M249 22h4M9 23h3M54 23h4M103 23h4M152 23h3M157 23h4M202 23h4M249 23h3M8 24h4M54 24h4M103 24h5M158 24h3M202 24h4M248 24h4M8 25h3M54 25h4M103 25h5M158 25h3M202 25h4M248 25h4M7 26h4M54 26h5M104 26h4M159 26h3M202 26h4M248 26h4M7 27h5M54 27h5M104 27h5M159 27h3M202 27h4M248 27h5M7 28h5M55 28h5M105 28h4M159 28h3M203 28h4M248 28h5M7 29h5M55 29h5M105 29h5M159 29h3M203 29h4M249 29h4M7 30h6M56 30h5M106 30h4M160 30h3M204 30h3M249 30h5M8 31h5M56 31h6M106 31h5M160 31h3M204 31h4M250 31h4M8 32h6M57 32h6M107 32h5M114 32h3M160 32h3M205 32h4M250 32h5M9 33h6M58 33h6M108 33h10M161 33h2M206 33h3M251 33h4M10 34h6M60 34h5M109 34h9M161 34h3M206 34h4M252 34h4M12 35h5M62 35h5M111 35h3M116 35h3M162 35h2M207 35h4M253 35h4M14 36h5M64 36h5M70 36h2M117 36h2M162 36h3M209 36h3M255 36h4M16 37h5M66 37h7M117 37h3M163 37h3M210 37h4M257 37h4M18 38h5M68 38h3M72 38h1M118 38h2M164 38h3M212 38h3M259 38h3M20 39h5M72 39h1M119 39h2M166 39h3M214 39h2M261 39h3" />
</svg>