<svg width="391" height="220" viewBox="0 0 391 220" fill="none" xmlns="http://www.w3.org/2000/svg">
<path d="M19.6992 219.4C19.6992 209.6 19.6992 199.8 19.6992 189.4C23.4992 189.4 27.0992 189.4 30.6992 189.4C30.6992 195.9 30.6992 202.5 30.6992 209.2C57.9992 209.2 84.2992 209.2 110.699 209.2C117.299 209.2 123.899 209.2 130.499 209.3C190.499 209.3 250.599 209.3 310.599 209.3C323.899 209.3 337.199 209.3 350.499 209.2C356.999 209.2 363.599 209.2 370.299 209.2C370.299 202.2 370.299 195.8 370.299 189.3C370.399 186 370.399 182.6 370.499 179.3L370.399 179.4C373.499 179.4 376.699 179.4 380.399 179.4C380.399 192.7 380.399 206 380.399 219.3C260.199 219.4 139.899 219.4 19.6992 219.4Z" fill="#25131A"/>
<path d="M110.6 29.7002C110.6 32.8002 110.6 36.0002 110.6 39.5002C100.6 39.5002 90.9004 39.5002 80.9004 39.5002C80.9004 53.0002 80.9004 66.0002 80.9004 79.4002C183.9 79.4002 286.8 79.4002 390.1 79.4002C390.1 92.8002 390.1 105.9 390.1 119.5C386.9 119.5 383.7 119.5 380.4 119.5C380.3 112.8 380.3 106.1 380.2 99.5002C380.2 96.3002 380.2 93.0002 380.2 89.7002C369.9 89.7002 360.2 89.7002 350.4 89.7002C347 89.7002 343.6 89.7002 340.3 89.7002C277.1 89.7002 213.8 89.7002 150.6 89.7002C147.2 89.7002 143.8 89.7002 140.5 89.7002C130.6 89.7002 120.6 89.7002 110.7 89.7002C97.3004 89.7002 84.0004 89.6002 70.6004 89.6002C70.5004 73.0002 70.5004 56.3002 70.4004 39.7002C70.4004 36.4002 70.5004 33.1002 70.5004 29.8002C84.0004 29.7002 97.3004 29.7002 110.6 29.7002Z" fill="#25131A"/>
<path d="M9.69995 29.7C6.59995 29.7 3.4 29.7 0 29.7C0 19.8 0 10 0 0C40 0 80 0 120.3 0C120.3 9.6 120.3 19.4 120.3 29.7C117.1 29.7 113.9 29.7 110.6 29.7C110.6 23.2 110.6 16.6 110.6 9.89999C93.4 9.89999 77 9.89999 60.6 9.89999C54 9.89999 47.4 9.89999 40.7 9.89999C30.5 9.89999 20.3 9.89999 9.69995 9.89999C9.69995 16.8 9.69995 23.2 9.69995 29.7Z" fill="#25131A"/>
<path d="M30.6992 189.4C30.6992 156.1 30.6992 122.8 30.6992 89.6001C33.8992 89.6001 37.0993 89.6001 40.7993 89.6001C40.7993 96.9001 40.7993 103.2 40.7993 109.6C40.6993 136.2 40.6992 162.8 40.5992 189.4C37.2992 189.4 33.9992 189.4 30.6992 189.4Z" fill="#25131A"/>
<path d="M30.6992 89.6002C27.1992 89.6002 23.7992 89.6002 19.6992 89.6002C19.6992 76.1002 19.6992 62.9002 19.6992 49.7002C23.1992 49.7002 26.7992 49.7002 30.6992 49.7002C30.6992 63.5002 30.6992 76.6002 30.6992 89.6002Z" fill="#25131A"/>
<path d="M19.6992 49.7002C16.5992 49.7002 13.3992 49.7002 9.69922 49.7002C9.69922 42.9002 9.69922 36.3002 9.69922 29.7002C12.8992 29.7002 16.0992 29.7002 19.6992 29.7002C19.6992 36.9002 19.6992 43.3002 19.6992 49.7002Z" fill="#25131A"/>
<path d="M370.399 129.5C370.399 132.6 370.399 135.8 370.399 139.5C363.599 139.5 356.999 139.5 350.399 139.5C350.399 136.2 350.399 132.8 350.299 129.5C357.099 129.5 363.799 129.5 370.399 129.5C370.499 129.5 370.399 129.5 370.399 129.5Z" fill="#25131A"/>
<path d="M350.499 139.5C350.499 146.2 350.499 152.8 350.499 159.5C347.299 159.5 344.099 159.5 340.799 159.5C340.799 152.5 340.799 146.2 340.799 139.6C344.299 139.5 347.399 139.5 350.499 139.5Z" fill="#25131A"/>
<path d="M380.4 119.5C380.4 122.7 380.4 125.9 380.4 129.5C376.8 129.5 373.6 129.5 370.4 129.5C370.4 126.3 370.4 123.1 370.4 119.5C374.2 119.6 377.4 119.6 380.4 119.5Z" fill="#25131A"/>
<path d="M350.5 159.5C353.6 159.5 356.7 159.5 360.5 159.5C360.5 162.9 360.5 166.2 360.5 169.5L360.6 169.4C357.3 169.4 353.9 169.4 350.6 169.4C350.5 166.1 350.5 162.8 350.5 159.5Z" fill="#25131A"/>
<path d="M360.4 169.5C363.6 169.5 366.8 169.5 370.4 169.5C370.4 173.1 370.4 176.3 370.4 179.5L370.5 179.4C367.2 179.4 364 179.4 360.5 179.4C360.5 175.7 360.5 172.6 360.4 169.5Z" fill="#25131A"/>
<path d="M19.6992 49.6001C19.6992 43.2001 19.6992 36.8001 19.6992 29.6001C16.0992 29.6001 12.8992 29.6001 9.69922 29.6001C9.69922 23.2001 9.69922 16.8 9.69922 9.80005C20.3992 9.80005 30.4992 9.80005 40.6992 9.80005C40.6992 16.3 40.6992 22.8 40.6992 29.7C44.5992 29.7 47.4993 29.7 50.4993 29.7C50.5993 33 50.6993 36.3001 50.7993 39.6001C50.7993 56.1001 50.7993 72.6001 50.7993 89.6001C57.7993 89.6001 64.2992 89.6001 70.6992 89.6001C84.0992 89.6001 97.3993 89.7 110.799 89.7C110.799 93 110.799 96.2 110.799 99.5C110.799 109.5 110.699 119.5 110.699 129.5C104.099 129.5 97.5993 129.5 90.9993 129.5C90.7993 133.3 90.5992 136.2 90.3992 139.2C86.9992 139.4 84.0992 139.6 81.0992 139.8C81.0992 149.8 81.0992 159.4 81.0992 169.1C84.2992 169.3 87.1992 169.5 90.3992 169.7C90.6992 173 90.8992 176.1 91.1992 179.4C97.9992 179.4 104.299 179.4 110.599 179.4C110.699 182.7 110.799 186 110.899 189.3C110.899 195.9 110.899 202.6 110.799 209.2C84.3993 209.2 58.0993 209.2 30.7993 209.2C30.7993 202.5 30.7993 195.9 30.7993 189.4C34.0993 189.4 37.3992 189.4 40.6992 189.4C50.5992 189.4 60.4992 189.4 70.1992 189.4C70.1992 185.6 70.1992 182.7 70.1992 179.7C66.7992 179.5 63.8992 179.3 61.1992 179.1C61.1992 162.3 61.1992 146.1 61.1992 129.8C64.5992 129.6 67.4992 129.4 70.3992 129.2C70.5992 125.7 70.7993 122.8 70.9993 119.9C74.4993 119.7 77.3992 119.5 80.1992 119.3C80.1992 115.8 80.1992 112.9 80.1992 109.7C66.7992 109.7 53.7993 109.7 40.7993 109.7C40.7993 103.3 40.7993 96.9 40.7993 89.7C37.0993 89.7 33.8992 89.7 30.6992 89.7C30.6992 76.7 30.6992 63.7001 30.6992 49.8C26.7992 49.6 23.1992 49.6001 19.6992 49.6001Z" fill="#885A45"/>
<path d="M310.6 209.3C250.6 209.3 190.5 209.3 130.5 209.3C130.5 202.7 130.5 196 130.5 189.4L130.7 189.5C190.6 189.5 250.5 189.5 310.4 189.5C310.5 196.1 310.5 202.7 310.6 209.3Z" fill="#3D253B"/>
<path d="M310.6 209.3C310.5 202.7 310.5 196.1 310.4 189.5C310.5 169.5 310.5 149.6 310.6 129.6C317.3 129.6 323.9 129.6 330.6 129.7C330.6 132.8 330.6 135.9 330.6 139.2C326.9 139.5 324 139.7 320.8 139.9C320.8 149.8 320.8 159.3 320.8 169.2C324.1 169.5 327.2 169.7 330.2 170C330.4 173.4 330.6 176.3 330.8 179.6C337.7 179.6 344 179.6 350.3 179.6C350.4 182.9 350.5 186.2 350.6 189.5C350.6 196.1 350.6 202.8 350.5 209.4C337.2 209.3 323.9 209.3 310.6 209.3Z" fill="#885A45"/>
<path d="M130.499 189.4C130.499 196 130.499 202.7 130.499 209.3C123.899 209.3 117.299 209.3 110.699 209.2C110.699 202.6 110.699 195.9 110.799 189.3C117.299 189.4 123.899 189.4 130.499 189.4Z" fill="#D0841E"/>
<path d="M350.5 209.3C350.5 202.7 350.5 196 350.6 189.4C357.2 189.4 363.7 189.4 370.3 189.4C370.3 195.8 370.3 202.2 370.3 209.3C363.6 209.3 357.1 209.3 350.5 209.3Z" fill="#D0841E"/>
<path d="M370.299 189.4C363.699 189.4 357.199 189.4 350.599 189.4C350.499 186.1 350.399 182.8 350.299 179.5C350.399 176.1 350.399 172.8 350.499 169.4C353.799 169.4 357.199 169.4 360.499 169.4C360.499 172.5 360.499 175.7 360.499 179.4C363.999 179.4 367.199 179.4 370.499 179.4C370.399 182.7 370.399 186.1 370.299 189.4Z" fill="#FED469"/>
<path d="M140.5 89.7002C143.9 89.7002 147.3 89.7002 150.6 89.7002C150.6 92.8002 150.6 95.9002 150.6 99.4002C214.2 99.4002 277.2 99.4002 340.3 99.4002L340.6 99.7002C340.5 106.3 340.4 112.8 340.4 119.4C273.8 119.4 207.2 119.4 140.6 119.4C140.6 112.8 140.5 106.2 140.5 99.6002C140.5 96.3002 140.5 93.0002 140.5 89.7002Z" fill="#998471"/>
<path d="M340.3 99.4002C277.3 99.4002 214.2 99.4002 150.6 99.4002C150.6 95.9002 150.6 92.8002 150.6 89.7002C213.8 89.7002 277.1 89.7002 340.3 89.7002C340.4 93.0002 340.4 96.2002 340.3 99.4002Z" fill="#E5DDC9"/>
<path d="M70.6988 89.5C64.2988 89.5 57.8988 89.5 50.7988 89.5C50.7988 72.5 50.7988 56 50.7988 39.5C57.3988 39.5 63.8988 39.5 70.4988 39.5C70.5988 56.3 70.5988 72.9 70.6988 89.5Z" fill="#D0841E"/>
<path d="M60.6 9.80005C77 9.80005 93.4 9.80005 110.6 9.80005C110.6 16.5 110.6 23.1001 110.6 29.6001C97.3 29.6001 83.9 29.6001 70.6 29.6001C67.4 29.6001 64.2 29.6001 60.5 29.6001C60.5 25.8001 60.5 22.7 60.5 19.7C60.5 16.5 60.6 13.1 60.6 9.80005Z" fill="#885A45"/>
<path d="M380.5 119.6C377.4 119.6 374.3 119.6 370.5 119.6C370.5 123.1 370.5 126.4 370.5 129.6C363.8 129.6 357.1 129.6 350.5 129.5L350.6 129.6C350.5 126.3 350.5 123 350.4 119.7C350.4 113.1 350.4 106.4 350.4 99.8001L350.7 99.6001C360.6 99.6001 370.5 99.6001 380.4 99.7001C380.3 106.2 380.4 112.9 380.5 119.6Z" fill="#D0841E"/>
<path d="M60.5 19.8002C60.5 22.9002 60.5 25.9002 60.5 29.7002C64.2 29.7002 67.4 29.7002 70.6 29.7002C70.6 33.0002 70.5 36.3002 70.5 39.6002C63.9 39.6002 57.4 39.6002 50.8 39.6002C50.7 36.3002 50.6 33.0002 50.5 29.7002C50.5 26.5002 50.5 23.3002 50.5 19.7002C54.4 19.8002 57.5 19.8002 60.5 19.8002Z" fill="#FED469"/>
<path d="M140.499 89.7002C140.499 93.0002 140.499 96.2002 140.399 99.5002C130.499 99.5002 120.599 99.5002 110.699 99.5002C110.699 96.2002 110.699 93.0002 110.699 89.7002C120.699 89.7002 130.599 89.7002 140.499 89.7002Z" fill="#FED469"/>
<path d="M380.3 99.5002C370.4 99.5002 360.5 99.5002 350.6 99.4002C350.6 96.2002 350.5 92.9002 350.5 89.7002C360.3 89.7002 370 89.7002 380.3 89.7002C380.3 93.1002 380.3 96.3002 380.3 99.5002Z" fill="#FED469"/>
<path d="M350.499 89.7001C350.499 92.9001 350.599 96.2001 350.599 99.4001L350.299 99.6001C347.099 99.6001 343.899 99.6001 340.599 99.6001L340.299 99.3001C340.299 96.1001 340.299 92.8001 340.299 89.6001C343.799 89.7001 347.099 89.7001 350.499 89.7001Z" fill="#998471"/>
<path d="M60.4993 19.7999C57.3993 19.7999 54.3993 19.7999 50.4993 19.7999C50.4993 23.3999 50.4993 26.5999 50.4993 29.7999C47.4993 29.7999 44.5992 29.7999 40.6992 29.7999C40.6992 22.8999 40.6992 16.3999 40.6992 9.8999C47.2992 9.8999 53.8992 9.8999 60.5992 9.8999C60.5992 13.0999 60.4993 16.4999 60.4993 19.7999Z" fill="#D0841E"/>
<path d="M40.7993 109.6C53.7993 109.6 66.6992 109.6 80.1992 109.6C80.1992 112.8 80.1992 115.7 80.1992 119.2C77.3992 119.4 74.4993 119.6 70.9993 119.8C70.7993 122.8 70.5992 125.7 70.3992 129.1C67.3992 129.3 64.4992 129.5 61.1992 129.7C61.1992 146 61.1992 162.2 61.1992 179C63.9992 179.2 66.8992 179.4 70.1992 179.6C70.1992 182.6 70.1992 185.4 70.1992 189.3C60.3992 189.3 50.5992 189.3 40.6992 189.3C40.6992 162.8 40.6993 136.2 40.7993 109.6Z" fill="#998471"/>
<path d="M350.499 169.4C350.399 172.8 350.399 176.1 350.299 179.5C343.999 179.5 337.699 179.5 330.799 179.5C330.599 176.2 330.399 173.3 330.199 169.9C327.099 169.6 324.099 169.4 320.799 169.1C320.799 159.3 320.799 149.7 320.799 139.8C323.999 139.6 326.899 139.4 330.599 139.1C330.599 135.8 330.599 132.7 330.599 129.6C337.199 129.6 343.899 129.5 350.499 129.5L350.399 129.4C350.399 132.7 350.399 136.1 350.499 139.4C347.399 139.4 344.299 139.4 340.799 139.4C340.799 146 340.799 152.3 340.799 159.3C343.999 159.3 347.199 159.3 350.499 159.3C350.499 162.8 350.499 166.1 350.499 169.4Z" fill="#D0841E"/>
<path d="M110.5 179.5C104.2 179.5 97.9 179.5 91.1 179.5C90.8 176.1 90.6 173.1 90.3 169.8C87.1 169.6 84.2 169.4 81 169.2C81 159.4 81 149.9 81 139.9C84 139.7 86.9 139.5 90.3 139.3C90.5 136.3 90.7 133.4 90.9 129.6C97.5 129.6 104.1 129.6 110.6 129.6C110.6 132.8 110.6 136.1 110.6 139.4C106.9 139.6 104 139.7 101 139.9C101 146.7 101 153 101 159.4C104.3 159.6 107.2 159.7 110.7 159.9C110.7 163.4 110.7 166.5 110.7 169.6C110.6 172.8 110.5 176.2 110.5 179.5Z" fill="#D0841E"/>
<path d="M110.7 99.5C120.6 99.5 130.5 99.5 140.4 99.5C140.4 106.1 140.5 112.7 140.5 119.3C137.3 119.3 134.1 119.3 130.4 119.3C130.4 123.3 130.4 126.3 130.4 129.4C123.8 129.4 117.1 129.4 110.5 129.4C110.7 119.5 110.7 109.5 110.7 99.5Z" fill="#D0841E"/>
<path d="M110.5 179.5C110.6 176.2 110.6 172.8 110.7 169.5C113.9 169.5 117.2 169.5 120.8 169.5C120.8 173.2 120.8 176.1 120.8 179.6C124.2 179.6 127.3 179.6 130.7 179.6C130.7 183.3 130.7 186.4 130.7 189.5L130.5 189.4C123.9 189.4 117.3 189.4 110.8 189.4C110.7 186.1 110.6 182.8 110.5 179.5Z" fill="#FED469"/>
<path d="M130.7 189.5C130.7 186.4 130.7 183.3 130.7 179.6C127.2 179.6 124.2 179.6 120.8 179.6C120.8 176.1 120.8 173.2 120.8 169.5C117.2 169.5 114 169.5 110.7 169.5C110.7 166.4 110.7 163.3 110.7 159.8C107.3 159.6 104.4 159.5 101 159.3C101 152.9 101 146.5 101 139.8C104 139.7 106.9 139.5 110.6 139.3C110.6 136 110.6 132.7 110.6 129.5C117.2 129.5 123.9 129.5 130.5 129.5C190.5 129.5 250.5 129.6 310.5 129.6C310.4 149.6 310.4 169.5 310.3 189.5C250.5 189.5 190.6 189.5 130.7 189.5Z" fill="#523B40"/>
<path d="M310.6 129.6C250.6 129.6 190.6 129.5 130.6 129.5C130.6 126.4 130.6 123.3 130.6 119.4C134.3 119.4 137.5 119.4 140.7 119.4C207.3 119.4 273.9 119.4 340.5 119.4C343.8 119.5 347.1 119.5 350.4 119.6C350.5 122.9 350.5 126.2 350.6 129.5C344 129.5 337.3 129.6 330.7 129.6C323.9 129.6 317.2 129.6 310.6 129.6Z" fill="#3D253B"/>
<path d="M350.3 119.6C347 119.5 343.7 119.5 340.4 119.4C340.5 112.8 340.6 106.3 340.6 99.7002C343.8 99.7002 347 99.7002 350.3 99.7002C350.3 106.3 350.3 113 350.3 119.6Z" fill="#885A45"/>
</svg>
