<?xml version="1.0" encoding="utf-8"?>
<!-- Generator: Adobe Illustrator 25.4.0, SVG Export Plug-In . SVG Version: 6.00 Build 0)  -->
<svg version="1.1" id="Layer_1" xmlns="http://www.w3.org/2000/svg" xmlns:xlink="http://www.w3.org/1999/xlink" x="0px" y="0px"
	 viewBox="0 0 30 30" style="enable-background:new 0 0 30 30;" xml:space="preserve">
<style type="text/css">
	.st0{fill:#7FFE94;}
	.st1{fill:#001A04;}
	.st2{fill:#3854FE;}
	.st3{fill:#36FEDE;}
</style>
<g>
	<path class="st0" d="M0,30C0,20,0,10.1,0,0.1C0,0,0,0,0.1,0C10,0,20,0,29.9,0C30,0,30,0,30,0.1c0,9.9,0,19.9,0,29.8
		c0,0.1,0,0.1-0.1,0.1C19.9,30,10,30,0,30z M0.1,15c0,0.6,0,1.1,0,1.7c0,4.3,0,8.6,0,13c0,0.1,0,0.2,0.1,0.3
		c0.1,0.1,0.2,0.1,0.2,0.1c9.7,0,19.5,0,29.2,0c0,0,0,0,0.1,0c0.1,0,0.1,0,0.2-0.1c0.1-0.1,0.1-0.2,0.1-0.3c0-9.7,0-19.5,0-29.2
		c0,0,0,0,0-0.1c0-0.1,0-0.1-0.1-0.2c-0.1-0.1-0.2-0.1-0.3-0.1c-9.7,0-19.5,0-29.2,0c0,0,0,0-0.1,0c-0.1,0-0.1,0-0.1,0.1
		C0.1,0.2,0.1,0.3,0.1,0.4C0.1,5.3,0.1,10.1,0.1,15z"/>
	<path class="st1" d="M0.1,15c0-4.9,0-9.7,0-14.6c0-0.1,0-0.2,0.1-0.3c0,0,0.1-0.1,0.1-0.1c0,0,0,0,0.1,0c9.7,0,19.5,0,29.2,0
		c0.1,0,0.2,0,0.3,0.1c0,0.1,0.1,0.1,0.1,0.2c0,0,0,0,0,0.1c0,9.7,0,19.5,0,29.2c0,0.1,0,0.2-0.1,0.3c-0.1,0-0.1,0.1-0.2,0.1
		c0,0,0,0-0.1,0c-9.7,0-19.5,0-29.2,0c-0.1,0-0.2,0-0.2-0.1c-0.1-0.1-0.1-0.2-0.1-0.3c0-4.3,0-8.6,0-13C0.1,16.1,0.1,15.6,0.1,15z
		 M15,26.3c3.6,0,7.2,0,10.9,0c0.3,0,0.4-0.1,0.4-0.4c0-1,0-2,0-3c0-0.2-0.1-0.4-0.4-0.4c-0.7,0-1.3,0-2,0c-0.4,0-0.7,0-1.1,0
		c-0.1,0-0.3-0.2-0.3-0.3c0-1,0-2.1,0-3.1c0-0.2,0.2-0.4,0.4-0.4c1,0,2,0,3,0c0.2,0,0.4-0.1,0.4-0.4c0-1,0-2,0-3.1
		c0-0.1,0-0.1,0-0.2c0.1-0.2,0.1-0.4,0.1-0.5c0-1,0-2,0-3c0-0.3-0.2-0.4-0.4-0.4c-2.3,0-4.6,0-7,0c-0.1,0-0.1,0-0.2,0
		c-0.1,0.1-0.2,0-0.3,0c-1.2,0-2.5,0-3.7,0c-1.2,0-2.5,0.1-3.7-0.1c-2.3,0-4.6,0-6.9,0c-0.2,0-0.4,0.2-0.4,0.4c0,1,0,2.1,0,3.1
		c0,0.1,0,0.2,0,0.3c0,0.1,0,0.2,0,0.3c0,1,0,2.1,0,3.1c0,0.2,0.1,0.4,0.4,0.4c1,0,2,0,3,0c0.2,0,0.4,0.2,0.4,0.4c0,1,0,2,0,3
		c0,0.2-0.1,0.4-0.4,0.4c-1,0-2,0-3,0c-0.2,0-0.4,0.1-0.4,0.4c0,1,0,2,0,3c0,0.2,0.1,0.4,0.4,0.4C7.8,26.3,11.4,26.3,15,26.3z
		 M15,3.8c-1.1,0-2.3,0-3.4,0c-0.2,0-0.4,0.1-0.4,0.4c0,1,0,2,0,3c0,0.2,0.1,0.4,0.4,0.4c2.3,0,4.5,0,6.8,0c0.2,0,0.4-0.1,0.4-0.4
		c0-1,0-2,0-3c0-0.2-0.1-0.4-0.4-0.4C17.2,3.8,16.1,3.8,15,3.8z M22.4,5.6c0,0.5,0,1,0,1.5c0,0.3,0.1,0.4,0.4,0.4c1,0,2,0,3,0
		c0.2,0,0.4-0.2,0.4-0.4c0-1,0-2,0-3c0-0.2-0.2-0.4-0.4-0.4c-1,0-2,0-3,0c-0.2,0-0.4,0.2-0.4,0.4C22.4,4.6,22.4,5.1,22.4,5.6z
		 M5.6,3.8c-0.5,0-1,0-1.5,0c-0.2,0-0.4,0.2-0.4,0.4c0,1,0,2,0,3.1c0,0.2,0.2,0.4,0.4,0.4c1,0,2.1,0,3.1,0c0.2,0,0.4-0.2,0.4-0.4
		c0-1,0-2.1,0-3.1c0-0.2-0.2-0.4-0.4-0.4C6.6,3.8,6.1,3.8,5.6,3.8z"/>
	<path class="st2" d="M15,26.3c-3.6,0-7.2,0-10.9,0c-0.2,0-0.4-0.1-0.4-0.4c0-1,0-2,0-3c0-0.2,0.1-0.4,0.4-0.4c1,0,2,0,3,0
		c0.2,0,0.4-0.2,0.4-0.4c0-1,0-2,0-3c0-0.2-0.2-0.4-0.4-0.4c-1,0-2,0-3,0c-0.2,0-0.4-0.1-0.4-0.4c0-1,0-2.1,0-3.1c0-0.1,0-0.2,0-0.3
		c0-0.1,0-0.2,0-0.3c0-1,0-2.1,0-3.1c0-0.2,0.2-0.4,0.4-0.4c2.3,0,4.6,0,6.9,0c1.2,0.1,2.5,0,3.7,0.1c1.2,0,2.5,0,3.7,0
		c0.1,0,0.2,0,0.3,0c0.1,0,0.1,0,0.2,0c2.3,0,4.6,0,7,0c0.3,0,0.4,0.2,0.4,0.4c0,1,0,2,0,3c0,0.2,0,0.4-0.1,0.5c0,0.1,0,0.1,0,0.2
		c0,1,0,2,0,3.1c0,0.2-0.1,0.4-0.4,0.4c-1,0-2,0-3,0c-0.2,0-0.4,0.2-0.4,0.4c0,1,0,2.1,0,3.1c0,0.1,0.2,0.3,0.3,0.3
		c0.4,0,0.7,0,1.1,0c0.7,0,1.3,0,2,0c0.2,0,0.4,0.1,0.4,0.4c0,1,0,2,0,3c0,0.3-0.1,0.4-0.4,0.4C22.2,26.3,18.6,26.3,15,26.3z
		 M15,22.5c2.4,0,4.7,0,7.1,0c0,0,0.1,0,0.1,0c0.1,0,0.3-0.1,0.3-0.3c0-1.3,0-2.6,0.1-3.9c0.1-1,0-2,0-3c0-0.2,0.1-0.4,0.4-0.4
		c1,0,2,0,3,0c0.1,0,0.1,0,0.2,0c0.1-0.1,0.1-0.2,0.1-0.3c0-1,0-2,0-3c0-0.2-0.1-0.3-0.3-0.3c-2.2,0-4.5,0-6.7,0c0,0-0.1,0-0.1,0
		c-0.2,0-0.3,0.2-0.3,0.3c0,1,0,1.9,0,2.9c0,0.1,0,0.3,0.1,0.4c0,0,0,0,0,0.1c0,0.1,0,0.2,0,0.3c0,1,0,2.1,0,3.1
		c0,0.2-0.2,0.4-0.4,0.4c-2.3,0-4.6,0-6.8,0c-0.2,0-0.4-0.2-0.4-0.4c0-1,0-2,0-3c0-0.1,0-0.2,0-0.3c0-0.1,0.1-0.2,0.1-0.4
		c0-1.1,0-2.1,0-3.2c0,0,0-0.1,0-0.1c-0.1,0-0.2-0.1-0.4-0.1c-2.3,0-4.5,0-6.8,0c-0.2,0-0.3,0.1-0.3,0.3c0,0.8,0,1.6,0,2.4
		c0,0.2,0,0.5,0,0.7c0,0.2,0.1,0.3,0.3,0.3c1,0,2,0,3,0c0.2,0,0.4,0.2,0.4,0.4c0,1.1,0,2.2,0,3.4c0,0,0,0.1,0,0.1
		c0.1,0.1,0.1,0.2,0.1,0.2c0,1,0,2,0,3c0,0.1,0,0.2,0,0.3c0,0,0,0.1,0,0.1c0.1,0,0.2,0,0.3,0C10.3,22.5,12.6,22.5,15,22.5z M15,18.8
		c1.1,0,2.3,0,3.4,0c0.2,0,0.3-0.1,0.3-0.3c0-1,0-2,0-3.1c0-0.2-0.2-0.4-0.4-0.4c-2.2,0-4.5,0-6.7,0c-0.2,0-0.4,0.1-0.4,0.4
		c0,1,0,2,0,3c0,0.2,0.1,0.3,0.3,0.3C12.7,18.8,13.9,18.8,15,18.8z"/>
	<path class="st2" d="M15,3.8c1.1,0,2.2,0,3.4,0c0.2,0,0.4,0.1,0.4,0.4c0,1,0,2,0,3c0,0.2-0.1,0.4-0.4,0.4c-2.3,0-4.5,0-6.8,0
		c-0.2,0-0.4-0.1-0.4-0.4c0-1,0-2,0-3c0-0.2,0.1-0.4,0.4-0.4C12.7,3.8,13.9,3.8,15,3.8z"/>
	<path class="st2" d="M22.4,5.6c0-0.5,0-1,0-1.5c0-0.2,0.2-0.4,0.4-0.4c1,0,2,0,3,0c0.2,0,0.4,0.2,0.4,0.4c0,1,0,2,0,3
		c0,0.2-0.2,0.4-0.4,0.4c-1,0-2,0-3,0c-0.3,0-0.4-0.2-0.4-0.4C22.4,6.7,22.4,6.1,22.4,5.6z"/>
	<path class="st2" d="M5.6,3.8c0.5,0,1,0,1.5,0c0.2,0,0.4,0.2,0.4,0.4c0,1,0,2.1,0,3.1c0,0.2-0.2,0.4-0.4,0.4c-1,0-2.1,0-3.1,0
		c-0.2,0-0.4-0.2-0.4-0.4c0-1,0-2,0-3.1c0-0.2,0.2-0.4,0.4-0.4C4.6,3.8,5.1,3.8,5.6,3.8z"/>
	<path class="st3" d="M15,22.5c-2.4,0-4.7,0-7.1,0c-0.1,0-0.2-0.1-0.3,0c0,0-0.1-0.1,0-0.1c0-0.1,0-0.2,0-0.3c0-1,0-2,0-3
		c0-0.1,0-0.2-0.1-0.2c0,0,0-0.1,0-0.1c0-1.1,0-2.2,0-3.4c0-0.2-0.1-0.4-0.4-0.4c-1,0-2,0-3,0c-0.2,0-0.3-0.1-0.3-0.3
		c0-0.2,0-0.5,0-0.7c0-0.8,0-1.6,0-2.4c0-0.2,0.1-0.3,0.3-0.3c2.3,0,4.5,0,6.8,0c0.2,0,0.2,0.1,0.4,0.1c0,0,0,0.1,0,0.1
		c0,1.1,0,2.1,0,3.2c0,0.1-0.1,0.2-0.1,0.4c0,0.1,0,0.2,0,0.3c0,1,0,2,0,3c0,0.2,0.2,0.4,0.4,0.4c2.3,0,4.6,0,6.8,0
		c0.2,0,0.4-0.2,0.4-0.4c0-1,0-2.1,0-3.1c0-0.1,0-0.2,0-0.3c0,0,0,0,0-0.1c-0.1-0.1-0.1-0.3-0.1-0.4c0-1,0-1.9,0-2.9
		c0-0.2,0.1-0.3,0.3-0.3c0,0,0.1,0,0.1,0c2.2,0,4.5,0,6.7,0c0.2,0,0.3,0.1,0.3,0.3c0,1,0,2,0,3c0,0.1-0.1,0.2-0.1,0.3
		c0,0.1-0.1,0-0.2,0c-1,0-2,0-3,0c-0.2,0-0.4,0.1-0.4,0.4c0,1,0.1,2,0,3c-0.1,1.3,0,2.6-0.1,3.9c0,0.1-0.1,0.2-0.3,0.3
		c0,0-0.1,0-0.1,0C19.7,22.5,17.4,22.5,15,22.5z"/>
	<path class="st1" d="M15,18.8c-1.1,0-2.3,0-3.4,0c-0.2,0-0.3-0.1-0.3-0.3c0-1,0-2,0-3c0-0.2,0.1-0.4,0.4-0.4c2.2,0,4.5,0,6.7,0
		c0.2,0,0.4,0.2,0.4,0.4c0,1,0,2,0,3.1c0,0.2-0.1,0.3-0.3,0.3C17.3,18.8,16.1,18.8,15,18.8z"/>
</g>
</svg>
