<?xml version="1.0" encoding="utf-8"?>
<!-- Generator: Adobe Illustrator 25.4.0, SVG Export Plug-In . SVG Version: 6.00 Build 0)  -->
<svg version="1.1" id="Layer_1" xmlns="http://www.w3.org/2000/svg" xmlns:xlink="http://www.w3.org/1999/xlink" x="0px" y="0px"
	 viewBox="0 0 34 34" style="enable-background:new 0 0 34 34;" xml:space="preserve">
<style type="text/css">
	.st0{fill:#00001A;}
	.st1{fill:#0004E5;}
	.st2{fill:#7F81FE;}
</style>
<g>
	<path class="st0" d="M17,0.1c5.5,0,11,0,16.6,0c0.2,0,0.4,0.1,0.4,0.4c0,9.6,0,19.2,0,28.9c0,0.3-0.1,0.4-0.4,0.4
		c-2.5,0-5.1,0-7.6,0c-0.4,0-0.6,0.2-0.6,0.6c0,1.1,0,2.2,0,3.4c0,0.2-0.1,0.3-0.3,0.3c-5.4,0-10.8,0-16.2,0c-0.3,0-0.3-0.1-0.3-0.4
		c0-1.1,0-2.3,0-3.4c0-0.1,0-0.3-0.1-0.4c-0.1-0.1-0.2-0.1-0.3-0.1c-2.6,0-5.1,0-7.7,0c-0.1,0-0.2,0-0.3-0.1
		c-0.1-0.1-0.1-0.1-0.1-0.2c0,0,0-0.1,0-0.1c0-9.6,0-19.3,0-28.9c0-0.1,0-0.2,0.1-0.3c0.1-0.1,0.2-0.1,0.3-0.1
		C6,0.1,11.5,0.1,17,0.1z M21.2,8.4c0-0.1,0-0.2,0-0.2c0-1.2,0-2.3,0-3.5c0-0.2-0.2-0.4-0.4-0.4c-2.6,0-5.1,0-7.7,0
		c-0.2,0-0.4,0.2-0.4,0.4c0,1.2,0,2.3,0,3.5c0,0.1,0,0.2,0,0.3c-0.1,0-0.1,0.1-0.1,0.2c0,0.1,0,0.2,0,0.3c0,1.2,0,2.3,0,3.5
		c0,0.2,0.2,0.4,0.4,0.4c2.6,0,5.2,0,7.8,0c0.2,0,0.4-0.2,0.4-0.4c0-0.2,0-0.4,0-0.6c0-1,0-2,0-3C21.2,8.6,21.3,8.5,21.2,8.4z
		 M29.8,12.8c0-2.7,0-5.4,0-8.1c0-0.3-0.2-0.5-0.5-0.5c-1.1,0-2.3,0-3.4,0c-0.3,0-0.5,0.2-0.5,0.5c0,3.9,0,7.9,0,11.8
		c0,0,0,0.1,0,0.1c0,0.2-0.2,0.4-0.4,0.4c-0.6,0-1.3,0-1.9,0c-0.6,0-1.3,0.1-1.9,0c-0.2,0-0.3,0-0.5,0c-2.8,0-5.6-0.1-8.4,0.1
		c-1.1,0.1-2.3,0-3.4,0c-0.3,0-0.5-0.1-0.5-0.5c0-4,0-8,0-11.9c0-0.2-0.2-0.4-0.4-0.4c-1.1,0-2.3,0-3.4,0c-0.3,0-0.4,0.1-0.4,0.4
		c0,5.6,0,11.2,0,16.9c0,1.2,0,2.4,0,3.5c0,0.3,0.1,0.4,0.4,0.4c1.1,0,2.3,0,3.4,0c0.2,0,0.4-0.1,0.4-0.4c0-1.1,0-2.3,0-3.4
		c0-0.3,0.2-0.4,0.4-0.4c1.1,0,2.3,0,3.4,0c0.2,0,0.4,0.1,0.4,0.4c0,1.4,0,2.8,0,4.3c0.1,1.2,0,2.3,0,3.5c0,0.3,0.1,0.4,0.4,0.4
		c2,0,3.9,0,5.9,0c0.6,0,1.2,0,1.8,0c0.2,0,0.4-0.2,0.4-0.4c0-1.4,0-2.9,0-4.3c0.1-1.1,0-2.3,0-3.5c0-0.3,0.1-0.4,0.4-0.4
		c1.1,0,2.3,0,3.4,0c0.2,0,0.4,0.2,0.4,0.4c0,1.1,0,2.3,0,3.4c0,0.3,0.1,0.4,0.4,0.4c1.2,0,2.3,0,3.5,0c0.3,0,0.4-0.1,0.4-0.4
		c0-1.4,0-2.9,0-4.3C29.8,18.1,29.8,15.4,29.8,12.8z"/>
	<path class="st1" d="M29.8,12.8c0,2.7,0,5.3,0,8c0,1.4,0,2.9,0,4.3c0,0.3-0.2,0.4-0.4,0.4c-1.2,0-2.3,0-3.5,0
		c-0.3,0-0.4-0.1-0.4-0.4c0-1.1,0-2.3,0-3.4c0-0.2-0.2-0.4-0.4-0.4c-1.1,0-2.3,0-3.4,0c-0.3,0-0.4,0.1-0.4,0.4c0,1.2,0,2.3,0,3.5
		c-0.1,1.4,0,2.9,0,4.3c0,0.2-0.2,0.3-0.4,0.4c-0.6,0-1.2,0-1.8,0c-2,0-3.9,0-5.9,0c-0.3,0-0.4-0.1-0.4-0.4c0-1.2,0-2.3,0-3.5
		c-0.1-1.4,0-2.8,0-4.3c0-0.2-0.2-0.4-0.4-0.4c-1.1,0-2.3,0-3.4,0c-0.3,0-0.4,0.2-0.4,0.4c0,1.1,0,2.3,0,3.4c0,0.2-0.1,0.4-0.4,0.4
		c-1.1,0-2.3,0-3.4,0c-0.3,0-0.4-0.1-0.4-0.4c0-1.2,0-2.4,0-3.5c-0.1-5.6,0-11.2,0-16.9c0-0.3,0.1-0.4,0.4-0.4c1.1,0,2.3,0,3.4,0
		c0.2,0,0.4,0.2,0.4,0.4c0,4,0,8,0,11.9C8.5,16.9,8.6,17,9,17c1.1,0,2.3,0,3.4,0c2.8-0.1,5.6,0,8.4-0.1c0.2,0,0.3,0,0.5,0
		c0.6,0.1,1.3,0,1.9,0c0.6,0,1.3,0,1.9,0c0.2,0,0.4-0.2,0.4-0.4c0,0,0-0.1,0-0.1c0-3.9,0-7.9,0-11.8c0-0.3,0.2-0.5,0.5-0.5
		c1.1,0,2.3,0,3.4,0c0.3,0,0.5,0.2,0.5,0.5C29.8,7.4,29.8,10.1,29.8,12.8z M17,17c-1.3,0-2.6,0-3.9,0c-0.2,0-0.4,0.2-0.4,0.4
		c0,1.2,0,2.3,0,3.5c0,0,0,0.1,0,0.1c0,0.1,0,0.2,0,0.3c0,0.1,0.1,0.2,0.1,0.3c0,1.2,0,2.3,0,3.5c0,0.3,0.1,0.4,0.4,0.4
		c2.5,0,5,0,7.4,0c0.2,0,0.3,0.1,0.5-0.1c0.2,0,0.2-0.2,0.2-0.3c0-1.4,0-2.8,0-4.3c0-1.1,0-2.3,0-3.4c0-0.3-0.1-0.4-0.4-0.4
		C19.6,17,18.3,17,17,17z M29.7,12.8c0-2.7,0-5.4,0-8.1c0-0.2-0.1-0.3-0.3-0.3c-1.2,0-2.3,0-3.5,0c-0.2,0-0.3,0.1-0.3,0.3
		c0,0.6,0,1.1,0,1.7c0,3.7,0,7.4,0,11.1c0,1.1,0,2.3,0,3.4c0,0.3,0.1,0.4,0.4,0.4c1.1,0,2.2,0,3.4,0c0.3,0,0.4-0.1,0.4-0.4
		C29.7,18.1,29.7,15.5,29.7,12.8z M4.3,12.8c0,2.7,0,5.4,0,8.1c0,0.2,0.1,0.4,0.4,0.4c1.1,0,2.3,0,3.4,0c0.3,0,0.4-0.1,0.4-0.4
		c0-1.4,0-2.9,0-4.3c0-4,0-7.9,0-11.9c0-0.2-0.1-0.4-0.4-0.4c-1.1,0-2.3,0-3.4,0c-0.3,0-0.4,0.1-0.4,0.4C4.3,7.4,4.3,10.1,4.3,12.8z
		"/>
	<path class="st1" d="M21.2,8.4c0.1,0.1,0,0.3,0,0.4c0,1,0,2,0,3c0,0.2,0,0.4,0,0.6c0,0.2-0.2,0.4-0.4,0.4c-2.6,0-5.2,0-7.8,0
		c-0.2,0-0.4-0.2-0.4-0.4c0-1.2,0-2.3,0-3.5c0-0.1,0-0.2,0-0.3c0-0.1-0.1-0.2,0.1-0.2c0,0,0.1,0,0.1,0c0.1,0.1,0.2,0.1,0.3,0.1
		c2.5,0,5,0,7.5,0c0.1,0,0.2,0,0.3-0.1C21.1,8.4,21.2,8.3,21.2,8.4z"/>
	<path class="st2" d="M21.2,8.4c0,0-0.1,0-0.1,0c-0.1,0.1-0.2,0.1-0.3,0.1c-2.5,0-5,0-7.5,0c-0.1,0-0.2,0-0.3-0.1c0,0-0.1,0-0.1,0
		c0-0.1,0-0.2,0-0.3c0-1.2,0-2.3,0-3.5c0-0.2,0.2-0.4,0.4-0.4c2.6,0,5.1,0,7.7,0c0.2,0,0.4,0.2,0.4,0.4c0,1.2,0,2.3,0,3.5
		C21.2,8.2,21.2,8.3,21.2,8.4z"/>
	<path class="st2" d="M17,17c1.3,0,2.6,0,3.8,0c0.3,0,0.4,0.1,0.4,0.4c0,1.1,0,2.3,0,3.4c0,1.4,0,2.8,0,4.3c0,0.1,0,0.2-0.2,0.3
		c-0.1,0.2-0.3,0.1-0.5,0.1c-2.5,0-5,0-7.4,0c-0.3,0-0.4-0.1-0.4-0.4c0-1.2,0-2.3,0-3.5c0-0.1,0-0.2-0.1-0.3c0-0.1-0.1-0.2,0-0.3
		c0,0,0-0.1,0-0.1c0-1.2,0-2.3,0-3.5c0-0.2,0.2-0.4,0.4-0.4C14.4,17,15.7,17,17,17z"/>
	<path class="st2" d="M29.7,12.8c0,2.7,0,5.4,0,8.1c0,0.3-0.1,0.4-0.4,0.4c-1.1,0-2.2,0-3.4,0c-0.3,0-0.4-0.1-0.4-0.4
		c0-1.1,0-2.3,0-3.4c0.1-3.7,0-7.4,0-11.1c0-0.6,0-1.1,0-1.7c0-0.2,0.1-0.3,0.3-0.3c1.2,0,2.3,0,3.5,0c0.2,0,0.3,0.1,0.3,0.3
		C29.7,7.4,29.7,10.1,29.7,12.8z"/>
	<path class="st2" d="M4.3,12.8c0-2.7,0-5.4,0-8.1c0-0.3,0.1-0.4,0.4-0.4c1.1,0,2.3,0,3.4,0c0.2,0,0.4,0.1,0.4,0.4c0,4,0,7.9,0,11.9
		c0,1.4,0,2.9,0,4.3c0,0.3-0.1,0.4-0.4,0.4c-1.1,0-2.3,0-3.4,0c-0.2,0-0.4-0.1-0.4-0.4C4.3,18.2,4.3,15.5,4.3,12.8z"/>
</g>
</svg>
