<?xml version="1.0" encoding="utf-8"?>
<!-- Generator: Adobe Illustrator 25.4.0, SVG Export Plug-In . SVG Version: 6.00 Build 0)  -->
<svg version="1.1" id="Layer_1" xmlns="http://www.w3.org/2000/svg" xmlns:xlink="http://www.w3.org/1999/xlink" x="0px" y="0px"
	 viewBox="0 0 34 34" style="enable-background:new 0 0 34 34;" xml:space="preserve">
<style type="text/css">
	.st0{fill:#00E5D1;}
	.st1{fill:#7FFEF3;}
	.st2{fill:#001A17;}
</style>
<g>
	<path class="st0" d="M-0.1,33.9c0-11.3,0-22.6,0-33.8C0,0,0,0,0.1-0.1c11.3,0,22.6,0,33.8,0c0,0,0,0,0,0c0.2,0.1,0.2,0.3,0.2,0.4
		c0,11.1,0,22.2,0,33.3c0,0,0,0.1,0,0.1c0,0.1,0,0.1-0.1,0.2c-0.1,0.1-0.2,0.1-0.3,0.1c-11.1,0-22.2,0-33.3,0
		C0.2,34.1,0.1,34.1-0.1,33.9C-0.1,33.9-0.1,33.9-0.1,33.9z M34,17c0-2.4,0-4.8,0-7.2c0-3.2,0-6.4,0-9.5c0-0.1,0-0.2-0.1-0.3
		c-0.1-0.1-0.2-0.1-0.3-0.1c-11.1,0-22.2,0-33.3,0c0,0-0.1,0-0.1,0c-0.1,0-0.1,0-0.1,0.1C0,0.1-0.1,0.2-0.1,0.3
		c0,11.1,0,22.2,0,33.3c0,0,0,0,0,0.1c0,0.1,0,0.2,0.1,0.2C0.1,34,0.2,34,0.3,34c11.1,0,22.2,0,33.3,0c0,0,0.1,0,0.1,0
		c0.1,0,0.1,0,0.2-0.1c0.1-0.1,0.1-0.2,0.1-0.3C34,28.1,34,22.6,34,17z"/>
	<path class="st1" d="M-0.1,33.9C-0.1,33.9-0.1,33.9-0.1,33.9c0.2,0.2,0.3,0.2,0.5,0.2c11.1,0,22.2,0,33.3,0c0.1,0,0.2,0,0.3-0.1
		c0-0.1,0.1-0.1,0.1-0.2c0,0,0-0.1,0-0.1c0-11.1,0-22.2,0-33.3c0-0.2,0-0.3-0.2-0.4c0,0,0,0,0,0c0.2,0,0.2,0,0.2,0.2
		c0,11.3,0,22.6,0,33.9c0,0.1,0,0.1-0.1,0.1c-11.3,0-22.6,0-33.9,0C-0.1,34.1-0.1,34.1-0.1,33.9z"/>
	<path class="st1" d="M0.1-0.1C0,0,0,0-0.1,0.1C-0.1-0.1-0.1-0.1,0.1-0.1z"/>
	<path class="st2" d="M34,17c0,5.6,0,11.1,0,16.7c0,0.1,0,0.2-0.1,0.3c0,0-0.1,0.1-0.2,0.1c0,0-0.1,0-0.1,0c-11.1,0-22.2,0-33.3,0
		c-0.1,0-0.2,0-0.3-0.1c-0.1-0.1-0.1-0.1-0.1-0.2c0,0,0,0,0-0.1c0-11.1,0-22.2,0-33.3c0-0.1,0-0.2,0.1-0.3c0,0,0.1-0.1,0.1-0.1
		c0,0,0.1,0,0.1,0c11.1,0,22.2,0,33.3,0c0.1,0,0.2,0,0.3,0.1C34,0.1,34,0.2,34,0.3c0,3.2,0,6.4,0,9.5C34,12.2,34,14.6,34,17z
		 M17,29.8c4.1,0,8.3,0,12.4,0c0.3,0,0.4-0.2,0.4-0.4c0-1.4,0-2.8,0-4.2c0-2.6,0-5.2,0-7.8c0-0.3-0.2-0.4-0.4-0.4
		c-1.2,0-2.3,0-3.5,0c-0.2,0-0.4-0.1-0.4-0.4c0-1.2,0-2.3,0-3.5c0-0.2,0.1-0.4,0.4-0.4c1.1,0,2.3,0,3.4,0c0.3,0,0.4-0.2,0.4-0.4
		c0-1.4,0-2.9,0-4.3c0-1.1,0-2.3,0-3.4c0-0.3-0.1-0.4-0.4-0.4c-8.3,0-16.5,0-24.8,0c-0.3,0-0.4,0.2-0.4,0.4c0,1.5,0,3,0,4.5
		c0,1.1,0,2.1,0,3.2c0,0.3,0.1,0.4,0.4,0.4c1.1,0,2.2,0,3.4,0c0.3,0,0.4,0.1,0.4,0.4c0,1.2,0,2.3,0,3.5C8.4,16.8,8.3,17,8,17
		c-1.1,0-2.3,0-3.4,0c-0.3,0-0.5,0.2-0.5,0.5c0,2.8,0,5.5,0,8.3c0,1.2,0,2.4,0,3.7c0,0.3,0.1,0.5,0.5,0.5
		C8.7,29.8,12.9,29.8,17,29.8z"/>
	<path class="st0" d="M17,29.8c-4.1,0-8.2,0-12.4,0c-0.3,0-0.5-0.1-0.5-0.5c0-1.2,0-2.4,0-3.7c0-2.8,0-5.5,0-8.3
		c0-0.3,0.2-0.5,0.5-0.5c1.1,0,2.3,0,3.4,0c0.2,0,0.4-0.1,0.4-0.4c0-1.2,0-2.3,0-3.5c0-0.3-0.1-0.4-0.4-0.4c-1.1,0-2.2,0-3.4,0
		c-0.3,0-0.4-0.1-0.4-0.4c0-1.1,0-2.1,0-3.2c-0.1-1.5,0-3,0-4.5c0-0.3,0.2-0.4,0.4-0.4c8.3,0,16.5,0,24.8,0c0.3,0,0.4,0.1,0.4,0.4
		c0,1.1,0,2.3,0,3.4c0,1.4,0,2.9,0,4.3c0,0.3-0.2,0.4-0.4,0.4c-1.1,0-2.3,0-3.4,0c-0.2,0-0.4,0.1-0.4,0.4c0,1.2,0,2.3,0,3.5
		c0,0.2,0.1,0.4,0.4,0.4c1.2,0,2.3,0,3.5,0c0.3,0,0.4,0.2,0.4,0.4c0,2.6,0,5.2,0,7.8c0,1.4,0,2.8,0,4.2c0,0.3-0.2,0.4-0.4,0.4
		C25.3,29.8,21.1,29.8,17,29.8z M17,25.6c4,0,8.1,0,12.1,0c0.1,0,0.2,0,0.3,0c0.1,0,0.1,0,0.1-0.1c0.1-0.1,0.1-0.3,0.1-0.4
		c0-2.6,0-5.1,0-7.7c0-0.2-0.1-0.3-0.3-0.3c-1.2,0-2.3,0-3.5,0c-0.3,0-0.5-0.2-0.5-0.5c0-1.2,0-2.3,0-3.5c0-0.2,0-0.3,0.1-0.5
		c0,0,0,0,0,0c-0.1-0.1,0-0.2,0-0.3c0-1.1,0-2.3,0-3.4c0-0.3,0.1-0.4,0.4-0.4c1.1,0,2.3,0,3.4,0c0.2,0,0.3-0.1,0.3-0.3
		c0,0,0-0.1,0-0.1c0-1.2,0-2.4,0-3.5c0-0.2-0.1-0.3-0.3-0.3c-8.3,0-16.6,0-24.9,0c-0.2,0-0.3,0.1-0.3,0.3c0,1.2,0,2.4,0,3.5
		c0,0.3,0,0.3,0.3,0.3c1.2,0,2.3,0,3.5,0c0.3,0,0.5,0.2,0.5,0.4c0,1.4,0,2.9,0,4.3c0,1.2,0,2.3,0,3.5c0,0.3-0.2,0.5-0.5,0.5
		c-1.2,0-2.3,0-3.5,0c-0.1,0-0.2,0-0.3,0.2c0,0.1,0,0.1,0,0.2c0,2.6,0,5.2,0,7.7c0,0,0,0.1,0,0.1c0,0.2,0.1,0.3,0.4,0.3
		C8.8,25.6,12.9,25.6,17,25.6z"/>
	<path class="st1" d="M17,25.6c-4.1,0-8.2,0-12.4,0c-0.2,0-0.3-0.1-0.4-0.3c0,0,0-0.1,0-0.1c0-2.6,0-5.2,0-7.7c0-0.1,0-0.1,0-0.2
		c0.1-0.1,0.1-0.2,0.3-0.2c1.2,0,2.3,0,3.5,0c0.3,0,0.5-0.2,0.5-0.5c0-1.2,0-2.3,0-3.5c0-1.4,0-2.9,0-4.3c0-0.2-0.2-0.4-0.5-0.4
		c-1.2,0-2.3,0-3.5,0c-0.2,0-0.3,0-0.3-0.3c0-1.2,0-2.4,0-3.5c0-0.2,0.1-0.3,0.3-0.3c8.3,0,16.6,0,24.9,0c0.2,0,0.3,0.1,0.3,0.3
		c0,1.2,0,2.4,0,3.5c0,0,0,0.1,0,0.1c0,0.2-0.1,0.3-0.3,0.3c-1.1,0-2.3,0-3.4,0c-0.3,0-0.4,0.1-0.4,0.4c0,1.1,0,2.3,0,3.4
		c0,0.1-0.1,0.2,0,0.3c0,0,0,0,0,0c-0.1,0.1-0.1,0.3-0.1,0.5c0,1.2,0,2.3,0,3.5c0,0.3,0.2,0.5,0.5,0.5c1.2,0,2.3,0,3.5,0
		c0.2,0,0.3,0.1,0.3,0.3c0,2.6,0,5.1,0,7.7c0,0.2-0.1,0.3-0.1,0.4c0,0.1-0.1,0.1-0.1,0.1c-0.1,0-0.2,0-0.3,0
		C25.1,25.6,21,25.6,17,25.6z M17,21.3c1.3,0,2.6,0,3.9,0c0.3,0,0.5-0.2,0.5-0.5c0-1.1,0-2.3,0-3.4c0-0.2,0-0.3-0.1-0.5
		c0,0-0.1-0.1,0-0.1c0.1,0,0.1-0.1,0.1-0.2c0-1.2,0-2.4,0-3.5c0-0.3-0.2-0.5-0.5-0.5c-2.6,0-5.1,0-7.7,0c-0.3,0-0.5,0.2-0.5,0.5
		c0,0.9,0,1.9,0,2.8c0,0.3,0,0.5,0,0.8c0,0,0,0.1,0,0.1c0.1,0,0.1,0.1,0,0.1c-0.1,0.1-0.1,0.3-0.1,0.4c0,1.1,0,2.3,0,3.4
		c0,0.3,0.2,0.5,0.5,0.5C14.4,21.3,15.7,21.3,17,21.3z"/>
	<path class="st0" d="M17,21.3c-1.3,0-2.6,0-3.8,0c-0.3,0-0.5-0.2-0.5-0.5c0-1.1,0-2.3,0-3.4c0-0.2,0-0.3,0.1-0.4c0,0,0.1-0.1,0-0.1
		c-0.1,0,0-0.1,0-0.1c0-0.3,0-0.5,0-0.8c0-0.9,0-1.9,0-2.8c0-0.3,0.2-0.5,0.5-0.5c2.6,0,5.1,0,7.7,0c0.3,0,0.5,0.2,0.5,0.5
		c0,1.2,0,2.4,0,3.5c0,0.1,0,0.1-0.1,0.2c-0.1,0,0,0.1,0,0.1c0.1,0.1,0.1,0.3,0.1,0.5c0,1.1,0,2.3,0,3.4c0,0.3-0.2,0.5-0.5,0.5
		C19.5,21.3,18.3,21.3,17,21.3z M17,21.2c1.3,0,2.6,0,3.9,0c0.2,0,0.3-0.1,0.3-0.3c0-1.2,0-2.4,0-3.6c0-0.2-0.1-0.3-0.3-0.3
		c-2.6,0-5.2,0-7.7,0c-0.1,0-0.2,0.1-0.3,0.2c0,0.1-0.1,0.2-0.1,0.2c0,1.1,0,2.3,0,3.4c0,0.3,0.1,0.4,0.4,0.4
		C14.4,21.2,15.7,21.2,17,21.2z"/>
	<path class="st2" d="M17,21.2c-1.3,0-2.6,0-3.9,0c-0.3,0-0.4-0.1-0.4-0.4c0-1.1,0-2.3,0-3.4c0-0.1,0-0.2,0.1-0.2
		C12.9,17,13,17,13.1,17c2.6,0,5.2,0,7.7,0c0.2,0,0.3,0.1,0.3,0.3c0,1.2,0,2.4,0,3.6c0,0.2-0.1,0.3-0.3,0.3
		C19.6,21.2,18.3,21.2,17,21.2z"/>
</g>
</svg>
