<?xml version="1.0" encoding="utf-8"?>
<!-- Generator: Adobe Illustrator 25.4.0, SVG Export Plug-In . SVG Version: 6.00 Build 0)  -->
<svg version="1.1" id="Layer_1" xmlns="http://www.w3.org/2000/svg" xmlns:xlink="http://www.w3.org/1999/xlink" x="0px" y="0px"
	 viewBox="0 0 30 30" style="enable-background:new 0 0 30 30;" xml:space="preserve">
<style type="text/css">
	.st0{fill:#151B01;}
	.st1{fill:#FECD2C;}
	.st2{fill:#FE9431;}
</style>
<g>
	<path class="st0" d="M15,28.1c-4.2,0-8.5,0-12.7,0c-0.3,0-0.4,0-0.4-0.4c0-7.4,0-14.7,0-22.1c0,0,0-0.1,0-0.1C2,5.3,2,5.2,2.3,5.2
		c1.9,0,3.9,0,5.8,0c0.4,0,0.5-0.1,0.5-0.5c0-0.9,0-1.7,0-2.6c0-0.2,0-0.3,0.3-0.3c0.1,0,0.1,0,0.2,0c4,0,8.1,0,12.1,0
		c0,0,0.1,0,0.1,0c0.2,0,0.2,0.1,0.2,0.2c0,0.6,0,1.2,0,1.8c0,0.3,0,0.5,0,0.8c0,0.3,0.1,0.4,0.4,0.4c1.9,0,3.9,0,5.8,0
		c0.1,0,0.1,0,0.2,0c0.1,0,0.2,0.1,0.2,0.2c0,0.1,0,0.1,0,0.2c0,7.4,0,14.7,0,22.1c0,0.1,0,0.1,0,0.2c0,0.1-0.1,0.2-0.2,0.2
		c-0.1,0-0.1,0-0.2,0C23.4,28.1,19.2,28.1,15,28.1z M15,24.9c3.2,0,6.3,0,9.5,0c0.3,0,0.3-0.1,0.3-0.3c0-0.9,0-1.7,0-2.6
		c0-0.3-0.1-0.4-0.4-0.4c-1.9,0-3.9,0-5.8,0c-0.3,0-0.4-0.1-0.4-0.4c0-0.8,0-1.7,0-2.5c0-0.3,0.1-0.4,0.4-0.4c1.9,0,3.9,0,5.8,0
		c0.2,0,0.4-0.1,0.4-0.3c0-0.9,0-1.7,0-2.6c0-0.2-0.1-0.3-0.4-0.3c-0.9,0-1.7,0-2.6,0c-0.2,0-0.3-0.1-0.3-0.3c0-0.9,0-1.8,0-2.7
		c0-0.2,0.1-0.3,0.4-0.3c0.9,0,1.7,0,2.6,0c0.2,0,0.3-0.1,0.3-0.3c0-0.9,0-1.8,0-2.7c0-0.2-0.1-0.3-0.3-0.3c-1.2,0-2.4,0-3.6-0.1
		c-0.8,0-1.5,0-2.3,0c-0.3,0-0.3-0.1-0.3-0.3c0-0.8,0-1.7,0-2.5c0-0.3-0.1-0.4-0.4-0.4c-1.9,0-3.9,0-5.8,0c-0.3,0-0.4,0.1-0.4,0.4
		c0,0.9,0,1.7,0,2.6c0,0.1,0,0.2-0.1,0.3c-0.1,0.1-0.2,0.1-0.3,0.1c-2,0-3.9,0-5.9,0c-0.3,0-0.4,0.1-0.4,0.4c0,0.9,0,1.7,0,2.6
		c0,0.3,0.1,0.4,0.4,0.4c0.8,0,1.7,0,2.5,0c0.3,0,0.4,0.1,0.4,0.4c0,0.8,0,1.7,0,2.5C8.4,14.9,8.3,15,8,15c-0.8,0-1.7,0-2.5,0
		c-0.3,0-0.4,0.1-0.4,0.4c0,0.8,0,1.7,0,2.5c0,0.3,0.1,0.4,0.4,0.4c1.9,0,3.9,0,5.8,0c0.3,0,0.3,0.1,0.3,0.3c0,0.9,0,1.8,0,2.6
		c0,0.3,0,0.3-0.3,0.3c-1.9,0-3.9,0-5.8,0c-0.2,0-0.4,0.1-0.4,0.4c0,0.9,0,1.7,0,2.6c0,0.3,0.1,0.4,0.4,0.4
		C8.7,24.9,11.8,24.9,15,24.9z"/>
	<path class="st1" d="M15,24.9c-3.2,0-6.3,0-9.5,0c-0.3,0-0.4-0.1-0.4-0.4c0-0.9,0-1.7,0-2.6c0-0.2,0.1-0.4,0.4-0.4
		c1.9,0,3.9,0,5.8,0c0.3,0,0.3,0,0.3-0.3c0-0.9,0-1.8,0-2.6c0-0.3-0.1-0.3-0.3-0.3c-1.9,0-3.9,0-5.8,0c-0.3,0-0.4-0.1-0.4-0.4
		c0-0.8,0-1.7,0-2.5c0-0.3,0.1-0.4,0.4-0.4c0.8,0,1.7,0,2.5,0c0.3,0,0.4-0.1,0.4-0.4c0-0.8,0-1.7,0-2.5c0-0.3-0.1-0.4-0.4-0.4
		c-0.8,0-1.7,0-2.5,0c-0.3,0-0.4-0.1-0.4-0.4c0-0.9,0-1.7,0-2.6c0-0.3,0.1-0.4,0.4-0.4c2,0,3.9,0,5.9,0c0.1,0,0.2,0,0.3-0.1
		c0.1-0.1,0.1-0.2,0.1-0.3c0-0.9,0-1.7,0-2.6c0-0.3,0.1-0.4,0.4-0.4c1.9,0,3.9,0,5.8,0c0.3,0,0.4,0.1,0.4,0.4c0,0.8,0,1.7,0,2.5
		c0,0.3,0.1,0.3,0.3,0.3c0.8,0,1.5,0,2.3,0c1.2,0.1,2.4,0,3.6,0.1c0.2,0,0.3,0.1,0.3,0.3c0,0.9,0,1.8,0,2.7c0,0.2-0.1,0.3-0.3,0.3
		c-0.9,0-1.7,0-2.6,0c-0.2,0-0.4,0.1-0.4,0.3c0,0.9,0,1.8,0,2.7c0,0.2,0.1,0.3,0.3,0.3c0.9,0,1.7,0,2.6,0c0.2,0,0.4,0.1,0.4,0.3
		c0,0.9,0,1.7,0,2.6c0,0.2-0.1,0.3-0.4,0.3c-1.9,0-3.9,0-5.8,0c-0.3,0-0.4,0.1-0.4,0.4c0,0.8,0,1.7,0,2.5c0,0.3,0.1,0.4,0.4,0.4
		c1.9,0,3.9,0,5.8,0c0.3,0,0.4,0.1,0.4,0.4c0,0.9,0,1.7,0,2.6c0,0.3-0.1,0.3-0.3,0.3C21.3,24.9,18.2,24.9,15,24.9z M15,5.2
		c-1,0-2,0-2.9,0c-0.2,0-0.3,0-0.3,0.3c0,0.9,0,1.7,0,2.6c0,0.3-0.1,0.4-0.4,0.4c-0.9,0-1.7,0-2.6,0c-0.3,0-0.3,0-0.3,0.3
		c0,1.1,0,2.2,0,3.3c0,0.9,0,1.8,0,2.8c0,0.2,0.1,0.2,0.2,0.2c0.9,0,1.7,0,2.6,0c0.2,0,0.3,0,0.3,0.3c0,0.9,0,1.7,0,2.6
		c0,0.1,0,0.2,0.1,0.3c0.2,0.2,0.2,0.4,0.2,0.6c0,0.8,0,1.7,0,2.5c0,0.3,0,0.3,0.3,0.3c1.9,0,3.9,0,5.8,0c0.2,0,0.3-0.1,0.3-0.3
		c0-1.1,0-2.3,0.1-3.4c0.1-0.8,0-1.7,0-2.5c0-0.3,0.1-0.4,0.4-0.4c0.8,0,1.7,0,2.5,0c0.2,0,0.3,0,0.3-0.3c0-1.1,0-2.3,0.1-3.4
		c0.1-0.8,0-1.7,0-2.6c0-0.2-0.1-0.3-0.3-0.3c-0.9,0-1.7,0-2.6,0c-0.3,0-0.4-0.1-0.4-0.4c0-0.9,0-1.7,0-2.6c0-0.2-0.1-0.3-0.3-0.3
		C17,5.2,16,5.2,15,5.2z"/>
	<path class="st2" d="M15,5.2c1,0,2,0,2.9,0c0.2,0,0.3,0.1,0.3,0.3c0,0.9,0,1.7,0,2.6c0,0.3,0.1,0.4,0.4,0.4c0.9,0,1.7,0,2.6,0
		c0.2,0,0.3,0.1,0.3,0.3c0,0.9,0.1,1.7,0,2.6c-0.1,1.1,0,2.3-0.1,3.4c0,0.2-0.1,0.3-0.3,0.3c-0.8,0-1.7,0-2.5,0
		c-0.3,0-0.4,0.1-0.4,0.4c0,0.8,0.1,1.7,0,2.5c-0.1,1.1,0,2.3-0.1,3.4c0,0.2-0.1,0.3-0.3,0.3c-1.9,0-3.9,0-5.8,0
		c-0.3,0-0.3,0-0.3-0.3c0-0.8,0-1.7,0-2.5c0-0.2,0-0.4-0.2-0.6c-0.1-0.1-0.1-0.2-0.1-0.3c0-0.9,0-1.7,0-2.6c0-0.2,0-0.3-0.3-0.3
		c-0.9,0-1.7,0-2.6,0c-0.2,0-0.2-0.1-0.2-0.2c0-0.9,0-1.8,0-2.8c0-1.1,0-2.2,0-3.3c0-0.3,0-0.3,0.3-0.3c0.9,0,1.7,0,2.6,0
		c0.3,0,0.4-0.1,0.4-0.4c0-0.9,0-1.7,0-2.6c0-0.2,0.1-0.3,0.3-0.3C13.1,5.2,14,5.2,15,5.2z"/>
</g>
</svg>
