<?xml version="1.0" encoding="utf-8"?>
<!-- Generator: Adobe Illustrator 25.4.0, SVG Export Plug-In . SVG Version: 6.00 Build 0)  -->
<svg version="1.1" id="Layer_1" xmlns="http://www.w3.org/2000/svg" xmlns:xlink="http://www.w3.org/1999/xlink" x="0px" y="0px"
	 viewBox="0 0 34 34" style="enable-background:new 0 0 34 34;" xml:space="preserve">
<style type="text/css">
	.st0{fill:#9C00E5;}
	.st1{fill:#D67FFE;}
	.st2{fill:#11001A;}
	.st3{fill:#005FF7;}
	.st4{fill:#B7C4FE;}
</style>
<g>
	<path class="st0" d="M33.7,33.9c-11.1,0-22.3,0-33.4,0c0-0.1-0.1-0.2-0.2-0.2c0-11.1,0-22.3,0-33.4c0,0,0.1,0,0.1,0
		c0.1-0.2,0.3-0.2,0.4-0.2c10.9,0,21.8,0,32.8,0c0,0,0.1,0,0.1,0c0.1,0,0.1,0,0.2,0.1c0.1,0.1,0.1,0.2,0.1,0.3c0,11,0,21.9,0,32.9
		C33.9,33.6,33.9,33.7,33.7,33.9C33.7,33.9,33.7,33.9,33.7,33.9z M17,33.8c3.7,0,7.4,0,11.1,0c1.8,0,3.6,0,5.4,0
		c0.1,0,0.2-0.1,0.3-0.2c0-0.1,0-0.2,0-0.2c0-11,0-21.9,0-32.9c0,0,0-0.1,0-0.1c0-0.1,0-0.1-0.1-0.2c-0.1-0.1-0.2-0.1-0.3-0.1
		c-4.9,0-9.8,0-14.7,0c-6.1,0-12.2,0-18.2,0c-0.1,0-0.2,0-0.3,0.1C0.1,0.4,0.2,0.5,0.2,0.6c0,11,0,21.9,0,32.9c0,0,0,0.1,0,0.1
		c0,0.1,0,0.1,0.1,0.2c0.1,0.1,0.2,0.1,0.3,0.1C6,33.8,11.5,33.8,17,33.8z"/>
	<path class="st1" d="M33.7,33.9C33.7,33.9,33.7,33.9,33.7,33.9c0.2-0.2,0.2-0.3,0.2-0.5c0-11,0-21.9,0-32.9c0-0.1,0-0.2-0.1-0.3
		c-0.1-0.1-0.1-0.1-0.2-0.1c0,0-0.1,0-0.1,0c-10.9,0-21.8,0-32.8,0c-0.2,0-0.3,0-0.4,0.2c0,0,0,0-0.1,0c0-0.2,0-0.2,0.2-0.2
		c11.2,0,22.3,0,33.5,0c0.1,0,0.1,0,0.1,0.1c0,11.2,0,22.3,0,33.5C33.9,33.9,33.9,33.9,33.7,33.9z"/>
	<path class="st1" d="M0.1,33.7c0.1,0,0.2,0.1,0.2,0.2C0.1,33.9,0.1,33.9,0.1,33.7z"/>
	<path class="st2" d="M17,33.8c-5.5,0-11,0-16.4,0c-0.1,0-0.2,0-0.3-0.1c-0.1-0.1-0.1-0.1-0.1-0.2c0,0,0-0.1,0-0.1
		c0-11,0-21.9,0-32.9c0-0.1,0-0.2,0.1-0.3c0.1-0.1,0.2-0.1,0.3-0.1c6.1,0,12.2,0,18.2,0c4.9,0,9.8,0,14.7,0c0.1,0,0.2,0,0.3,0.1
		c0,0.1,0.1,0.1,0.1,0.2c0,0,0,0.1,0,0.1c0,11,0,21.9,0,32.9c0,0.1,0,0.2,0,0.2c-0.1,0.1-0.2,0.2-0.3,0.2c-1.8,0-3.6,0-5.4,0
		C24.4,33.8,20.7,33.8,17,33.8z M17,17c-2.7,0-5.3,0-8,0c-0.3,0-0.4-0.1-0.4-0.4c0-1.1,0-2.3,0-3.4c0-0.2-0.2-0.4-0.4-0.4
		c-1.2,0-2.3,0-3.5,0c-0.1,0-0.2,0-0.3,0.1c-0.1,0.1-0.2,0.2-0.2,0.4c0,3.6,0,7.1,0,10.7c0,0.5,0,1.1,0,1.6c0,1.3,0,2.5,0,3.8
		c0,0.3,0.2,0.4,0.4,0.4c2.5,0,5.1,0,7.6,0c0.3,0,0.4-0.2,0.4-0.4c0-1.1,0-2.3,0-3.4c0-0.2,0.2-0.4,0.4-0.4c2.5,0,5.1,0,7.6,0
		c0.3,0,0.4,0.1,0.4,0.4c0,1.1,0,2.2,0,3.3c0,0,0,0.1,0,0.1c0,0.2,0.2,0.4,0.4,0.4c2.6,0,5.1,0,7.7,0c0.2,0,0.4-0.2,0.4-0.4
		c0-1.4,0-2.8,0-4.2c0-4,0-7.9,0-11.9c0-0.3-0.2-0.5-0.5-0.5c-1.1,0-2.3,0-3.4,0c-0.3,0-0.5,0.2-0.5,0.5c0,1.1,0,2.2,0,3.4
		c0,0.3-0.1,0.4-0.4,0.4C22.3,17,19.7,17,17,17z M17,8.6c4.1,0,8.2,0,12.2,0c0.3,0,0.4-0.2,0.4-0.4c0-1.1,0-2.3,0-3.4
		c0-0.3-0.1-0.4-0.4-0.4c-8.2,0-16.3,0-24.5,0c-0.3,0-0.4,0.1-0.4,0.4c0,1.1,0,2.3,0,3.4c0,0.3,0.1,0.4,0.4,0.4
		C8.8,8.6,12.9,8.6,17,8.6z"/>
	<path class="st3" d="M17,17c2.7,0,5.3,0,8,0c0.3,0,0.4-0.1,0.4-0.4c0-1.1,0-2.2,0-3.4c0-0.2,0.2-0.5,0.5-0.5c1.1,0,2.3,0,3.4,0
		c0.3,0,0.5,0.2,0.5,0.5c0,4,0,7.9,0,11.9c0,1.4,0,2.8,0,4.2c0,0.2-0.2,0.4-0.4,0.4c-2.6,0-5.1,0-7.7,0c-0.2,0-0.4-0.2-0.4-0.4
		c0,0,0-0.1,0-0.1c0-1.1,0-2.2,0-3.3c0-0.3-0.1-0.4-0.4-0.4c-2.5,0-5.1,0-7.6,0c-0.2,0-0.4,0.2-0.4,0.4c0,1.1,0,2.3,0,3.4
		c0,0.3-0.2,0.4-0.4,0.4c-2.5,0-5.1,0-7.6,0c-0.3,0-0.4-0.2-0.4-0.4c0-1.3,0-2.5,0-3.8c0-0.5,0-1.1,0-1.6c0-3.6,0-7.1,0-10.7
		c0-0.2,0-0.3,0.2-0.4c0.1-0.1,0.2-0.1,0.3-0.1c1.2,0,2.3,0,3.5,0c0.2,0,0.4,0.2,0.4,0.4c0,1.1,0,2.3,0,3.4C8.6,16.9,8.7,17,9,17
		C11.6,17,14.3,17,17,17z M4.5,25.5c0-0.1,0.1-0.1,0.1-0.1c0.1,0,0.1,0,0.2,0c2.5,0,5.1,0,7.6,0c0.2,0,0.4-0.2,0.4-0.4
		c0-1.1,0-2.3,0-3.4c0-0.3,0.1-0.4,0.4-0.4c2.5,0,5.1,0,7.6,0c0.3,0,0.4,0.1,0.4,0.4c0,1.1,0,2.2,0,3.4c0,0.3,0.2,0.4,0.4,0.4
		c2.5,0,5,0,7.5,0c0,0,0.1,0,0.1,0c0.2,0,0.2-0.1,0.3-0.2c0-0.1,0-0.1,0-0.2c0-3.9,0-7.9,0-11.8c0-0.2-0.1-0.3-0.3-0.3
		c-1.1,0-2.3,0-3.4,0c-0.2,0-0.3,0.1-0.3,0.3c0,1.1,0,2.3,0,3.4c0,0.3-0.2,0.5-0.5,0.5c-5.3,0-10.7,0-16,0c-0.3,0-0.5-0.2-0.5-0.5
		c0-1.1,0-2.3,0-3.4c0-0.2-0.1-0.3-0.3-0.3c-1.1,0-2.3,0-3.4,0c-0.2,0-0.3,0.1-0.3,0.3c0,4,0,7.9,0,11.9C4.4,25.2,4.4,25.4,4.5,25.5
		z"/>
	<path class="st3" d="M17,8.6c-4.1,0-8.1,0-12.2,0c-0.3,0-0.4-0.1-0.4-0.4c0-1.1,0-2.3,0-3.4c0-0.3,0.1-0.4,0.4-0.4
		c8.2,0,16.3,0,24.5,0c0.3,0,0.4,0.1,0.4,0.4c0,1.1,0,2.3,0,3.4c0,0.2-0.2,0.4-0.4,0.4C25.1,8.6,21.1,8.6,17,8.6z"/>
	<path class="st4" d="M4.5,25.5c0-0.2-0.1-0.3-0.1-0.4c0-4,0-7.9,0-11.9c0-0.2,0.1-0.3,0.3-0.3c1.1,0,2.3,0,3.4,0
		c0.2,0,0.3,0.1,0.3,0.3c0,1.1,0,2.3,0,3.4c0,0.3,0.2,0.5,0.5,0.5c5.3,0,10.7,0,16,0c0.3,0,0.5-0.2,0.5-0.5c0-1.1,0-2.3,0-3.4
		c0-0.2,0.1-0.3,0.3-0.3c1.1,0,2.3,0,3.4,0c0.2,0,0.3,0.1,0.3,0.3c0,3.9,0,7.9,0,11.8c0,0.1,0,0.1,0,0.2c0,0.2-0.1,0.2-0.3,0.2
		c0,0-0.1,0-0.1,0c-2.5,0-5,0-7.5,0c-0.3,0-0.4-0.2-0.4-0.4c0-1.1,0-2.2,0-3.4c0-0.3-0.1-0.4-0.4-0.4c-2.5,0-5.1,0-7.6,0
		c-0.3,0-0.4,0.1-0.4,0.4c0,1.1,0,2.3,0,3.4c0,0.2-0.2,0.4-0.4,0.4c-2.5,0-5.1,0-7.6,0c-0.1,0-0.1,0-0.2,0
		C4.5,25.4,4.5,25.4,4.5,25.5z"/>
</g>
</svg>
