<?xml version="1.0" encoding="utf-8"?>
<!-- Generator: Adobe Illustrator 25.4.0, SVG Export Plug-In . SVG Version: 6.00 Build 0)  -->
<svg version="1.1" id="Layer_1" xmlns="http://www.w3.org/2000/svg" xmlns:xlink="http://www.w3.org/1999/xlink" x="0px" y="0px"
	 viewBox="0 0 34 34" style="enable-background:new 0 0 34 34;" xml:space="preserve">
<style type="text/css">
	.st0{fill:#19001A;}
	.st1{fill:#0058F7;}
	.st2{fill:#36FEDE;}
</style>
<g>
	<path class="st0" d="M17,34.2c-4.1,0-8.2,0-12.2,0c-0.2,0-0.4-0.1-0.4-0.4c0-1.1,0-2.2,0-3.4c0-0.3-0.2-0.5-0.5-0.5
		c-1.1,0-2.3,0-3.4,0c-0.2,0-0.3-0.1-0.3-0.3c0-6.8,0-13.5,0-20.3C0.2,9.2,0.3,9,0.5,9c2.5,0,5.1,0,7.6,0c0.3,0,0.4-0.1,0.4-0.4
		c0-1.1,0-2.3,0-3.4c0-0.2,0.2-0.4,0.4-0.4c5.4,0,10.7,0,16.1,0c0.2,0,0.4,0.2,0.4,0.4c0,1.2,0,2.3,0,3.5c0,0.2,0.2,0.4,0.4,0.4
		c2.5,0,5.1,0,7.6,0c0.2,0,0.4,0.1,0.4,0.4c0,6.8,0,13.5,0,20.3c0,0.2-0.1,0.4-0.4,0.4c-1.1,0-2.3,0-3.4,0c-0.3,0-0.4,0.2-0.4,0.4
		c0,1.1,0,2.3,0,3.4c0,0.2-0.1,0.3-0.3,0.3C25.2,34.2,21.1,34.2,17,34.2z M17,30c2.7,0,5.4,0,8,0c0.2,0,0.3-0.1,0.3-0.3
		c0-1.1,0-2.3,0-3.4c0-0.3,0.2-0.5,0.5-0.5c1.1,0,2.3,0,3.4,0c0.2,0,0.3-0.1,0.3-0.3c0-1.1,0-2.3,0-3.4c0-0.2-0.1-0.3-0.3-0.3
		c-1.2,0-2.3,0-3.5,0c-0.1,0-0.1,0-0.2,0c-0.1-0.1-0.2-0.2-0.2-0.4c0-1.1,0-2.2,0-3.3c0-0.2,0-0.3,0.1-0.5c0.1-0.1,0.2-0.2,0.3-0.2
		c1.1,0,2.3,0,3.4,0c0.2,0,0.3-0.1,0.3-0.3c0-1.2,0-2.3,0-3.5c0-0.2-0.1-0.3-0.3-0.3c-1.1,0-2.3,0-3.4,0c-0.1,0-0.2,0-0.4,0
		c-0.2-0.1-0.3-0.1-0.5-0.1c-1.2,0-2.3,0-3.5,0c-0.2,0-0.3-0.1-0.3-0.3c0-0.4,0-0.9,0-1.3c0-0.7,0-1.4,0-2.1C21.2,9.1,21,9,20.8,9
		c-2.5,0-5.1,0-7.6,0c-0.2,0-0.4,0.2-0.4,0.4c0,1.2,0,2.3,0,3.5c0,0.2-0.2,0.4-0.4,0.4c-1.2,0-2.3,0-3.5,0c-0.1,0-0.1,0-0.2,0
		c-0.3,0.1-0.6,0.1-0.9,0.1c-1,0-2.1,0-3.1,0c-0.2,0-0.3,0.1-0.3,0.3c0,1.2,0,2.3,0,3.5c0,0.1,0.1,0.2,0.2,0.2c0,0,0.1,0,0.1,0
		c1.1,0,2.3,0,3.4,0c0.1,0,0.1,0,0.2,0.1c0,0.1,0.1,0.1,0.1,0.2c0,0.1,0.1,0.1,0.1,0.2c0,1.2,0,2.4,0,3.6c0,0.2-0.1,0.2-0.2,0.4
		c0,0.1-0.1,0-0.2,0c-1.1,0-2.3,0-3.4,0c-0.2,0-0.3,0.1-0.3,0.3c0,1.1,0,2.3,0,3.4c0,0.2,0.1,0.3,0.3,0.3c1.2,0,2.3,0,3.5,0
		c0.2,0,0.5,0.2,0.5,0.4c0,1.1,0,2.3,0,3.4C8.7,29.9,8.8,30,9,30C11.6,30,14.3,30,17,30z"/>
	<path class="st1" d="M17,30c-2.7,0-5.4,0-8,0c-0.2,0-0.3-0.1-0.3-0.3c0-1.1,0-2.3,0-3.4c0-0.2-0.2-0.4-0.5-0.4c-1.2,0-2.3,0-3.5,0
		c-0.2,0-0.3-0.1-0.3-0.3c0-1.1,0-2.3,0-3.4c0-0.2,0.1-0.3,0.3-0.3c1.1,0,2.3,0,3.4,0c0.1,0,0.2,0,0.2,0c0.1-0.1,0.2-0.2,0.2-0.4
		c0-1.2,0-2.4,0-3.6c0-0.1,0-0.1-0.1-0.2c0-0.1-0.1-0.1-0.1-0.2c0-0.1-0.1-0.1-0.2-0.1c-1.1,0-2.3,0-3.4,0c0,0-0.1,0-0.1,0
		c-0.1,0-0.2-0.1-0.2-0.2c0-1.2,0-2.3,0-3.5c0-0.2,0.1-0.3,0.3-0.3c1,0,2.1,0,3.1,0c0.3,0,0.6,0,0.9-0.1c0.1,0,0.1,0,0.2,0
		c1.2,0,2.3,0,3.5,0c0.2,0,0.4-0.2,0.4-0.4c0-1.2,0-2.3,0-3.5c0-0.2,0.2-0.4,0.4-0.4c2.5,0,5.1,0,7.6,0c0.2,0,0.4,0.2,0.4,0.4
		c0,0.7,0,1.4,0,2.1c0,0.4,0,0.9,0,1.3c0,0.2,0.2,0.3,0.3,0.3c1.2,0,2.3,0,3.5,0c0.2,0,0.3,0,0.5,0.1c0.1,0,0.2,0,0.4,0
		c1.1,0,2.3,0,3.4,0c0.2,0,0.3,0.1,0.3,0.3c0,1.2,0,2.3,0,3.5c0,0.2-0.1,0.3-0.3,0.3c-1.1,0-2.3,0-3.4,0c-0.1,0-0.2,0-0.3,0.2
		c-0.1,0.2-0.1,0.3-0.1,0.5c0,1.1,0,2.2,0,3.3c0,0.2,0.1,0.3,0.2,0.4c0,0.1,0.1,0,0.2,0c1.2,0,2.3,0,3.5,0c0.2,0,0.3,0.1,0.3,0.3
		c0,1.1,0,2.3,0,3.4c0,0.2-0.1,0.3-0.3,0.3c-1.1,0-2.3,0-3.4,0c-0.3,0-0.5,0.2-0.5,0.5c0,1.1,0,2.3,0,3.4c0,0.2-0.1,0.3-0.3,0.3
		C22.4,30,19.7,30,17,30z M17,25.9c1.3,0,2.6,0,3.9,0c0.1,0,0.2,0,0.3-0.1c0-0.1,0.1-0.2,0.1-0.3c0-1,0-2,0-3.1c0-0.2,0-0.5-0.1-0.7
		c-0.1-0.1-0.1-0.2-0.3-0.2c-0.2,0-0.4,0-0.6,0c-2.3,0-4.7,0-7,0c-0.1,0-0.1,0-0.2,0c-0.1,0.1-0.2,0.3-0.2,0.5c0,0.2,0,0.4,0,0.6
		c0,0.9,0,1.9,0,2.8c0,0.3,0.1,0.4,0.4,0.4C14.5,25.9,15.7,25.9,17,25.9z"/>
	<path class="st0" d="M17,25.9c-1.3,0-2.5,0-3.8,0c-0.3,0-0.4-0.1-0.4-0.4c0-0.9,0-1.9,0-2.8c0-0.2,0-0.4,0-0.6
		c0-0.2,0.1-0.3,0.2-0.5c0-0.1,0.1,0,0.2,0c2.3,0,4.7,0,7,0c0.2,0,0.4,0,0.6,0c0.1,0,0.2,0.1,0.3,0.2c0.1,0.2,0.1,0.5,0.1,0.7
		c0,1,0,2,0,3.1c0,0.1,0,0.2-0.1,0.3c0,0.1-0.1,0.1-0.3,0.1C19.6,25.9,18.3,25.9,17,25.9z"/>
</g>
<g>
	<rect x="4.1" y="12.6" class="st2" width="8.7" height="4.7"/>
	<rect x="4.1" y="21.3" class="st2" width="8.7" height="4.7"/>
	<rect x="21" y="12.6" class="st2" width="8.7" height="4.7"/>
	<rect x="21" y="21.3" class="st2" width="8.7" height="4.7"/>
</g>
</svg>
