<?xml version="1.0" encoding="utf-8"?>
<!-- Generator: Adobe Illustrator 25.4.0, SVG Export Plug-In . SVG Version: 6.00 Build 0)  -->
<svg version="1.1" id="Layer_1" xmlns="http://www.w3.org/2000/svg" xmlns:xlink="http://www.w3.org/1999/xlink" x="0px" y="0px"
	 viewBox="0 0 34 34" style="enable-background:new 0 0 34 34;" xml:space="preserve">
<style type="text/css">
	.st0{fill:#FE7FE0;}
	.st1{fill:#1A0014;}
	.st2{fill:#FED30C;}
	.st3{fill:#FE9F06;}
</style>
<g>
	<path class="st0" d="M33.8,0.6C33.8,0.6,33.8,0.6,33.8,0.6c-0.2-0.2-0.4-0.2-0.5-0.2c-10.9,0-21.8,0-32.7,0c-0.1,0-0.2,0-0.3,0.1
		c0,0.1-0.1,0.1-0.1,0.2c0,0,0,0.1,0,0.1c0,10.9,0,21.8,0,32.7c0,0.2,0,0.3,0.2,0.4c0,0,0,0,0,0c-0.1,0-0.1,0-0.2,0
		c0-11.2,0-22.4,0-33.5c0-0.1,0-0.1,0.1-0.1c11.1,0,22.2,0,33.4,0C33.8,0.3,33.9,0.4,33.8,0.6C33.8,0.5,33.8,0.5,33.8,0.6z"/>
	<path class="st1" d="M17,0.4c5.5,0,10.9,0,16.4,0c0.3,0,0.4,0.1,0.4,0.4c0,10.9,0,21.8,0,32.7c0,0.1,0,0.2-0.1,0.3
		c-0.1,0-0.1,0.1-0.2,0.1c0,0-0.1,0-0.1,0c-10.9,0-21.8,0-32.8,0c-0.1,0-0.2,0-0.3-0.1c-0.1-0.1-0.1-0.2-0.1-0.3c0-5,0-10.1,0-15.1
		c0-5.9,0-11.8,0-17.7c0-0.1,0-0.2,0.1-0.3c0.1,0,0.1-0.1,0.2-0.1c0,0,0.1,0,0.1,0C6.1,0.4,11.6,0.4,17,0.4z M17,29.8
		c4.1,0,8.1,0,12.2,0c0.3,0,0.4-0.2,0.4-0.4c0-1.1,0-2.3,0-3.4c0-0.3-0.1-0.4-0.4-0.4c-1.1,0-2.3,0-3.4,0c-0.2,0-0.4-0.1-0.4-0.4
		c0-1.1,0-2.3,0-3.4c0-0.2,0.1-0.3,0.2-0.4c0.1,0,0.1,0,0.2,0c1.1,0,2.3,0,3.4,0c0.2,0,0.4-0.2,0.4-0.4c0-1.4,0-2.8,0-4.3
		c0-3.9,0-7.9,0-11.8c0-0.3-0.2-0.5-0.5-0.5c-1.4,0-2.8,0-4.2,0c-1.4,0-2.8,0-4.3,0c-2.8,0-5.5,0-8.3,0c-1.4,0-2.8,0-4.3,0
		c-1.1,0-2.3,0-3.4,0C4.6,4.5,4.3,4.7,4.3,5c0,2.8,0,5.6,0,8.4c0,2.5,0.1,5,0.1,7.5c0,0.3,0.1,0.4,0.4,0.4c1.1,0,2.3,0,3.4,0
		c0.2,0,0.4,0.1,0.4,0.4c0,1.1,0,2.3,0,3.4c0,0.3-0.1,0.4-0.4,0.4c-1.1,0-2.2,0-3.3,0c-0.3,0-0.5,0.1-0.5,0.5c0,1.1,0,2.2,0,3.3
		c0,0.3,0.1,0.5,0.5,0.5C8.9,29.8,13,29.8,17,29.8z"/>
	<path class="st2" d="M17,29.8c-4.1,0-8.1,0-12.2,0c-0.3,0-0.5-0.1-0.5-0.5c0-1.1,0-2.2,0-3.3c0-0.3,0.1-0.5,0.5-0.5
		c1.1,0,2.2,0,3.3,0c0.3,0,0.4-0.1,0.4-0.4c0-1.1,0-2.3,0-3.4c0-0.3-0.2-0.4-0.4-0.4c-1.1,0-2.3,0-3.4,0c-0.3,0-0.4-0.1-0.4-0.4
		c0-2.5-0.1-5-0.1-7.5c0-2.8,0-5.6,0-8.4c0-0.3,0.2-0.5,0.5-0.5c1.1,0,2.3,0,3.4,0c1.4,0.1,2.8,0.1,4.3,0c2.8,0,5.5,0,8.3,0
		c1.4,0,2.8,0,4.3,0c1.4,0,2.8,0,4.2,0c0.3,0,0.5,0.2,0.5,0.5c0,3.9,0,7.9,0,11.8c0,1.4,0,2.8,0,4.3c0,0.2-0.2,0.4-0.4,0.4
		c-1.1,0-2.3,0-3.4,0c-0.1,0-0.1,0-0.2,0c-0.2,0.1-0.2,0.2-0.2,0.4c0,1.1,0,2.3,0,3.4c0,0.2,0.1,0.4,0.4,0.4c1.1,0,2.3,0,3.4,0
		c0.3,0,0.4,0.1,0.4,0.4c0,1.1,0,2.3,0,3.4c0,0.3-0.2,0.4-0.4,0.4C25.1,29.8,21.1,29.8,17,29.8z M17,25.6c2.7,0,5.3,0,8,0
		c0.2,0,0.4-0.1,0.4-0.4c0-1.1,0-2.3,0-3.4c0-0.2,0.1-0.3,0-0.5c0,0,0,0,0-0.1c0-0.1,0-0.1,0-0.2c0-1.2,0-2.3,0-3.5
		c0-0.2,0-0.3-0.3-0.3c-1.2,0-2.3,0-3.5,0c-0.3,0-0.6-0.2-0.5-0.6c0-2.5,0-5,0-7.5c0-0.1,0-0.3,0.1-0.4c0-0.1,0-0.2,0-0.3
		c0-1.2,0-2.4,0-3.6c0-0.1-0.1-0.2-0.2-0.2c-0.1,0-0.2,0-0.3,0c-2.1,0-4.1,0-6.2,0c-0.5,0-0.9,0-1.4,0c-0.3,0-0.4,0.1-0.4,0.4
		c0,1.1,0,2.2,0,3.3c0,0.1,0,0.1,0,0.2c0,0.2,0.1,0.5,0.1,0.7c0,2.5,0,4.9,0,7.4c0,0.4-0.2,0.6-0.6,0.6c-1,0-2,0-2.9,0
		c-0.2,0-0.3,0-0.5,0c-0.1,0-0.3,0-0.3-0.1c-0.1-0.1-0.1-0.2-0.1-0.3c0-0.5,0-0.9,0-1.4c0-0.5,0-0.9,0-1.4c0-0.5,0-0.9,0-1.4
		c0-0.5,0-0.9,0-1.4c0-0.5,0-0.9,0-1.4c0-0.5,0.1-0.9,0.1-1.4c0-1.1,0-2.3,0-3.4c0-0.2-0.1-0.4-0.4-0.4c-1.1,0-2.2,0-3.3,0
		C4.6,4.7,4.5,4.8,4.5,5c0,3.9,0,7.8,0,11.7c0,0,0,0.1,0,0.1c0,0.2,0.2,0.3,0.3,0.3c1.1,0,2.2,0,3.3,0c0,0,0.1,0,0.1,0
		c0.2,0,0.3,0.1,0.3,0.3c0,1.2,0,2.4,0,3.7c0,0.1,0,0.1,0,0.2c0.1,0.2,0.1,0.4,0.1,0.5c0,1.1,0,2.3,0,3.4c0,0.3,0,0.3,0.3,0.3
		C11.7,25.6,14.4,25.6,17,25.6z M29.5,10.9c0-2,0-3.9,0-5.9c0-0.3-0.1-0.3-0.3-0.3c-1.1,0-2.2,0-3.3,0c-0.1,0-0.2,0-0.3,0.1
		c-0.1,0-0.1,0.1-0.1,0.2c0,1.1,0,2.2,0,3.4c0,0.2,0,0.3,0,0.5c0.1,0.2,0.1,0.3,0.1,0.5c0,2.5,0,5,0,7.5c0,0.1,0,0.1,0,0.2
		c0,0.2,0.1,0.2,0.2,0.2c0,0,0.1,0,0.1,0c1.1,0,2.2,0,3.3,0c0,0,0.1,0,0.1,0c0.1,0,0.1,0,0.2-0.1c0-0.1,0.1-0.2,0.1-0.4
		C29.5,14.8,29.5,12.8,29.5,10.9z M25.4,13c0-1.3,0-2.5,0-3.8c0-0.3-0.1-0.4-0.4-0.4c-1.1,0-2.2,0-3.3,0c-0.3,0-0.4,0.1-0.4,0.4
		c0,2.5,0,5.1,0,7.6c0,0.2,0.1,0.4,0.4,0.4c1.1,0,2.3,0,3.4,0c0.2,0,0.4-0.2,0.4-0.4C25.4,15.5,25.4,14.2,25.4,13z M12.7,13
		c0-1.2,0-2.5,0-3.7c0,0,0-0.1,0-0.1c0-0.2-0.2-0.3-0.3-0.3c-1.1,0-2.3,0-3.4,0c-0.1,0-0.2,0.1-0.3,0.2c0,0.1-0.1,0.2-0.1,0.3
		c0,2.5,0,5.1,0,7.6c0,0.2,0.1,0.3,0.4,0.3c1.1,0,2.2,0,3.4,0c0.2,0,0.4-0.1,0.4-0.3C12.7,15.5,12.7,14.2,12.7,13z"/>
	<path class="st3" d="M17,25.6c-2.6,0-5.3,0-7.9,0c-0.3,0-0.3,0-0.3-0.3c0-1.1,0-2.3,0-3.4c0-0.2,0-0.4-0.1-0.5c0-0.1,0-0.1,0-0.2
		c0-1.2,0-2.4,0-3.7c0-0.2-0.1-0.3-0.3-0.3c0,0-0.1,0-0.1,0c-1.1,0-2.2,0-3.3,0c-0.2,0-0.3-0.2-0.3-0.3c0,0,0-0.1,0-0.1
		c0-3.9,0-7.8,0-11.7c0-0.2,0.1-0.4,0.4-0.4c1.1,0,2.2,0,3.3,0c0.3,0,0.4,0.1,0.4,0.4c0,1.1,0,2.3,0,3.4c0,0.5-0.1,0.9-0.1,1.4
		c0,0.5,0,0.9,0,1.4c0,0.5,0,0.9,0,1.4c0,0.5,0,0.9,0,1.4c0,0.5,0,0.9,0,1.4c0,0.5,0,0.9,0,1.4c0,0.1,0,0.2,0.1,0.3
		c0.1,0.1,0.2,0.1,0.3,0.1c0.2,0,0.3,0,0.5,0c1,0,2,0,2.9,0c0.4,0,0.6-0.2,0.6-0.6c0-2.5,0-4.9,0-7.4c0-0.2,0-0.5-0.1-0.7
		c0-0.1,0-0.1,0-0.2c0-1.1,0-2.2,0-3.3c0-0.3,0.1-0.4,0.4-0.4c0.5,0,0.9,0,1.4,0c2.1,0,4.1,0,6.2,0c0.1,0,0.2,0,0.3,0
		c0.1,0,0.2,0.1,0.2,0.2c0,1.2,0,2.4,0,3.6c0,0.1,0,0.2,0,0.3c0,0.1-0.1,0.3-0.1,0.4c0,2.5,0,5,0,7.5c0,0.3,0.3,0.6,0.5,0.6
		c1.2,0,2.3,0,3.5,0c0.2,0,0.3,0,0.3,0.3c0,1.2,0,2.3,0,3.5c0,0.1,0,0.2,0,0.2c0,0,0,0,0,0.1c0.1,0.2,0,0.3,0,0.5c0,1.1,0,2.3,0,3.4
		c0,0.2-0.1,0.4-0.4,0.4C22.3,25.6,19.7,25.6,17,25.6z"/>
	<path class="st3" d="M29.5,10.9c0,1.9,0,3.9,0,5.8c0,0.1,0,0.3-0.1,0.4c0,0.1-0.1,0.1-0.2,0.1c0,0-0.1,0-0.1,0c-1.1,0-2.2,0-3.3,0
		c0,0-0.1,0-0.1,0c-0.2,0-0.2-0.1-0.2-0.2c0-0.1,0-0.1,0-0.2c0-2.5,0-5,0-7.5c0-0.2,0-0.4-0.1-0.5c-0.1-0.2,0-0.3,0-0.5
		c0-1.1,0-2.2,0-3.4c0-0.1,0-0.2,0.1-0.2c0.1,0,0.2-0.1,0.3-0.1c1.1,0,2.2,0,3.3,0c0.3,0,0.3,0.1,0.3,0.3C29.5,7,29.5,8.9,29.5,10.9
		z"/>
	<path class="st1" d="M25.4,13c0,1.3,0,2.5,0,3.8c0,0.2-0.2,0.4-0.4,0.4c-1.1,0-2.2,0-3.4,0c-0.2,0-0.4-0.1-0.4-0.4
		c0-2.5,0-5.1,0-7.6c0-0.3,0.1-0.4,0.4-0.4c1.1,0,2.2,0,3.3,0c0.3,0,0.4,0.1,0.4,0.4C25.4,10.5,25.4,11.7,25.4,13z"/>
	<path class="st1" d="M12.7,13c0,1.3,0,2.5,0,3.8c0,0.2-0.1,0.3-0.4,0.3c-1.1,0-2.2,0-3.4,0c-0.2,0-0.4-0.1-0.4-0.3
		c0-2.5,0-5.1,0-7.6c0-0.1,0-0.2,0.1-0.3C8.8,8.8,8.9,8.8,9,8.8c1.1,0,2.3,0,3.4,0c0.2,0,0.3,0.1,0.3,0.3c0,0,0,0.1,0,0.1
		C12.7,10.5,12.7,11.7,12.7,13z"/>
</g>
</svg>
