<?xml version="1.0" encoding="utf-8"?>
<!-- Generator: Adobe Illustrator 25.4.0, SVG Export Plug-In . SVG Version: 6.00 Build 0)  -->
<svg version="1.1" id="Layer_1" xmlns="http://www.w3.org/2000/svg" xmlns:xlink="http://www.w3.org/1999/xlink" x="0px" y="0px"
	 viewBox="0 0 34 34" style="enable-background:new 0 0 34 34;" xml:space="preserve">
<style type="text/css">
	.st0{fill:#FE857F;}
	.st1{fill:#1A0100;}
	.st2{fill:#E40B00;}
</style>
<g>
	<path class="st0" d="M17,34c5.5,0,11,0,16.5,0c0.2,0,0.3-0.1,0.3-0.3c0-9.6,0-19.2,0-28.9c0-0.2-0.1-0.3-0.3-0.3
		c-1.2,0-2.3,0-3.5,0c-0.3,0-0.4-0.2-0.4-0.4c0-1.2,0-2.3,0-3.5c0-0.2-0.1-0.3-0.3-0.3c-8.2,0-16.4,0-24.6,0c-0.2,0-0.3,0.1-0.3,0.3
		c0,1.1,0,2.3,0,3.4c0,0.3-0.2,0.5-0.5,0.5c-1.1,0-2.3,0-3.4,0c-0.3,0-0.4,0.1-0.4,0.4c0,9.6,0,19.2,0,28.8c0,0.3,0.1,0.4,0.4,0.4
		C6,34,11.5,34,17,34z"/>
	<path class="st1" d="M17,34c-5.5,0-11,0-16.5,0c-0.2,0-0.4-0.1-0.4-0.4c0-9.6,0-19.2,0-28.8c0-0.3,0.1-0.4,0.4-0.4
		c1.1,0,2.3,0,3.4,0c0.3,0,0.5-0.2,0.5-0.5c0-1.1,0-2.3,0-3.4c0-0.2,0.1-0.3,0.3-0.3c8.2,0,16.4,0,24.6,0c0.2,0,0.3,0.1,0.3,0.3
		c0,1.2,0,2.3,0,3.5c0,0.3,0.2,0.4,0.4,0.4c1.2,0,2.3,0,3.5,0c0.2,0,0.3,0.1,0.3,0.3c0,9.6,0,19.2,0,28.9c0,0.2-0.1,0.3-0.3,0.3
		C28,34,22.5,34,17,34z M17,29.8c4.1,0,8.2,0,12.3,0c0.3,0,0.4-0.1,0.4-0.4c0-0.3,0-0.7,0-1c0-0.8,0-1.6,0-2.4
		c0-0.1,0.1-0.3,0.1-0.4c0-0.1,0-0.3,0-0.4c0-5.4,0-10.8,0-16.2c0-0.3-0.2-0.5-0.5-0.5c-1.2,0-2.3,0-3.5,0c-0.3,0-0.4-0.1-0.4-0.4
		c0-1.1,0-2.3,0-3.4c0-0.2-0.2-0.4-0.4-0.4c-1.1,0-2.3,0-3.4,0c-0.3,0-0.4,0.2-0.4,0.4c0,1.2,0,2.4,0,3.5c0,0.2,0,0.3-0.3,0.3
		c-2.6,0-5.3,0-7.9,0c-0.3,0-0.3,0-0.3-0.3c0-1.2,0-2.4,0-3.5c0-0.3-0.1-0.4-0.4-0.4c-1.1,0-2.3,0-3.4,0c-0.3,0-0.4,0.2-0.4,0.4
		c0,1.1,0,2.3,0,3.4c0,0.2-0.1,0.4-0.3,0.4c-1.2,0-2.3,0-3.5,0C4.4,8.6,4.2,8.8,4.2,9c0,5.6-0.1,11.1,0,16.7c0,1.2,0,2.5,0,3.7
		c0,0.3,0.1,0.4,0.4,0.4C8.8,29.8,12.9,29.8,17,29.8z"/>
	<path class="st2" d="M17,29.8c-4.1,0-8.2,0-12.3,0c-0.3,0-0.4-0.1-0.4-0.4c0-1.2,0-2.5,0-3.7c-0.1-5.6,0-11.1,0-16.7
		c0-0.2,0.2-0.4,0.4-0.4c1.2,0,2.3,0,3.5,0c0.2,0,0.3-0.1,0.3-0.4c0-1.1,0-2.3,0-3.4c0-0.3,0.2-0.4,0.4-0.4c1.1,0,2.3,0,3.4,0
		c0.3,0,0.4,0.1,0.4,0.4c0,1.2,0,2.4,0,3.5c0,0.3,0,0.3,0.3,0.3c2.6,0,5.3,0,7.9,0c0.2,0,0.3,0,0.3-0.3c0-1.2,0-2.4,0-3.5
		c0-0.3,0.2-0.4,0.4-0.4c1.1,0,2.3,0,3.4,0c0.2,0,0.4,0.2,0.4,0.4c0,1.1,0,2.3,0,3.4c0,0.3,0.1,0.4,0.4,0.4c1.2,0,2.3,0,3.5,0
		c0.3,0,0.5,0.2,0.5,0.5c0,5.4,0,10.8,0,16.2c0,0.1,0,0.2,0,0.4c0,0.1-0.1,0.2-0.1,0.4c0,0.8,0,1.6,0,2.4c0,0.3,0,0.7,0,1
		c0,0.3-0.1,0.4-0.4,0.4C25.2,29.8,21.1,29.8,17,29.8z M17,25.6c2.7,0,5.4,0,8.1,0c0.2,0,0.4-0.1,0.4-0.4c0-2.6,0-5.2,0-7.7
		c0-0.2-0.1-0.3-0.3-0.3c-1.2,0-2.3,0-3.5,0c-0.2,0-0.3,0.1-0.3,0.3c0,1.2,0,2.3,0,3.5c0,0.3-0.2,0.5-0.5,0.5c-2.6,0-5.1,0-7.7,0
		c-0.3,0-0.5-0.2-0.5-0.5c0-1.2,0-2.3,0-3.5c0-0.2-0.1-0.3-0.3-0.3c-1.2,0-2.3,0-3.5,0c-0.3,0-0.4,0.1-0.4,0.4c0,2.6,0,5.1,0,7.7
		c0,0.3,0.1,0.4,0.4,0.4C11.6,25.6,14.3,25.6,17,25.6z M4.3,17.1c0,2.7,0,5.4,0,8.1c0,0.2,0.1,0.4,0.3,0.4c1.2,0,2.3,0,3.5,0
		c0.2,0,0.3-0.2,0.3-0.3c0-2.8-0.1-5.6,0-8.5c0-0.9,0-1.7,0-2.6c0-0.4,0.1-0.9,0-1.3c0-0.1,0-0.3,0-0.4c0-1.1,0-2.3,0-3.4
		c0-0.3-0.1-0.4-0.4-0.4c-1.1,0-2.3,0-3.4,0c-0.3,0-0.4,0.1-0.4,0.4C4.3,11.8,4.3,14.4,4.3,17.1z M29.7,17.1c0-2.7,0-5.4,0-8.1
		c0-0.2-0.1-0.3-0.3-0.3c-1.2,0-2.3,0-3.5,0c-0.2,0-0.3,0.1-0.3,0.3c0,0.5,0,0.9,0,1.4c0,0.5,0,0.9,0,1.4c0,0.5,0,0.9,0,1.4
		c0,1.5,0,2.9,0,4.4c0,2.5,0,5.1,0,7.6c0,0.1,0,0.1,0,0.2c0,0,0,0.1,0,0.1c0.1,0,0.2,0.1,0.3,0.1c1.1,0,2.3,0,3.4,0
		c0.2,0,0.4-0.1,0.4-0.4C29.7,22.5,29.7,19.8,29.7,17.1z M17,17.1c1.3,0,2.6,0,3.9,0c0.3,0,0.3-0.1,0.3-0.3c0-1.2,0-2.4,0-3.5
		c0-0.2-0.1-0.3-0.3-0.3c-2.6,0-5.2,0-7.8,0c-0.3,0-0.4,0.1-0.4,0.4c0,1.2,0,2.3,0,3.5c0,0.3,0.1,0.3,0.3,0.3
		C14.4,17.1,15.7,17.1,17,17.1z M23.3,8.6c-0.6,0-1.1,0-1.7,0c-0.4,0-0.4,0-0.4,0.4c0,1,0,2,0,3c0,0.2,0,0.3,0,0.5
		c0,0.3,0.1,0.3,0.3,0.3c1.2,0,2.3,0,3.5,0c0.2,0,0.3-0.2,0.3-0.3c0-1.2,0-2.4,0-3.6c0-0.2-0.1-0.3-0.3-0.3
		C24.5,8.6,23.9,8.6,23.3,8.6z M12.7,10.8c0-0.6,0-1.2,0-1.8c0-0.2-0.1-0.3-0.3-0.3c-0.8,0-1.6,0-2.3,0c-0.4,0-0.8,0-1.2,0
		C8.7,8.7,8.6,8.8,8.6,9c0,0.3,0,0.6,0,0.9c0,0.9,0,1.7,0,2.6c0,0.1,0,0.1,0,0.2c0.1,0.1,0.2,0.1,0.3,0.1c1.2,0,2.4,0,3.5,0
		c0.2,0,0.3-0.1,0.3-0.3C12.7,12,12.7,11.4,12.7,10.8z"/>
	<path class="st1" d="M17,25.6c-2.7,0-5.4,0-8.1,0c-0.3,0-0.4-0.1-0.4-0.4c0-2.6,0-5.1,0-7.7c0-0.3,0.1-0.4,0.4-0.4
		c1.2,0,2.3,0,3.5,0c0.2,0,0.3,0.1,0.3,0.3c0,1.2,0,2.3,0,3.5c0,0.3,0.2,0.5,0.5,0.5c2.6,0,5.1,0,7.7,0c0.3,0,0.5-0.2,0.5-0.5
		c0-1.2,0-2.3,0-3.5c0-0.2,0.1-0.3,0.3-0.3c1.2,0,2.3,0,3.5,0c0.2,0,0.3,0.1,0.3,0.3c0,2.6,0,5.2,0,7.7c0,0.2-0.1,0.4-0.4,0.4
		C22.4,25.6,19.7,25.6,17,25.6z"/>
	<path class="st0" d="M4.3,17.1c0-2.7,0-5.4,0-8c0-0.3,0.1-0.4,0.4-0.4c1.1,0,2.3,0,3.4,0c0.3,0,0.4,0.1,0.4,0.4c0,1.1,0,2.3,0,3.4
		c0,0.1,0,0.3,0,0.4c0.1,0.4,0,0.9,0,1.3c0,0.9,0,1.7,0,2.6c-0.1,2.8,0,5.6,0,8.5c0,0.2-0.2,0.3-0.3,0.3c-1.2,0-2.3,0-3.5,0
		c-0.2,0-0.3-0.1-0.3-0.4C4.3,22.5,4.3,19.8,4.3,17.1z"/>
	<path class="st0" d="M29.7,17.1c0,2.7,0,5.4,0,8c0,0.3-0.1,0.4-0.4,0.4c-1.1,0-2.3,0-3.4,0c-0.1,0-0.2-0.1-0.3-0.1c0,0,0-0.1,0-0.1
		c0-0.1,0-0.1,0-0.2c0-2.5,0-5.1,0-7.6c0-1.5,0-2.9,0-4.4c0-0.5,0.1-0.9,0-1.4c0-0.5,0-0.9,0-1.4c0-0.5,0-0.9,0-1.4
		c0-0.2,0.1-0.3,0.3-0.3c1.2,0,2.3,0,3.5,0c0.2,0,0.3,0.1,0.3,0.3C29.7,11.7,29.7,14.4,29.7,17.1z"/>
	<path class="st1" d="M17,17.1c-1.3,0-2.6,0-3.9,0c-0.3,0-0.3-0.1-0.3-0.3c0-1.2,0-2.3,0-3.5c0-0.3,0.1-0.4,0.4-0.4
		c2.6,0,5.2,0,7.8,0c0.2,0,0.3,0.1,0.3,0.3c0,1.2,0,2.4,0,3.5c0,0.2-0.1,0.3-0.3,0.3C19.6,17.1,18.3,17.1,17,17.1z"/>
	<path class="st1" d="M23.3,8.6c0.6,0,1.2,0,1.8,0c0.2,0,0.3,0.1,0.3,0.3c0,1.2,0,2.4,0,3.6c0,0.2-0.2,0.3-0.3,0.3
		c-1.2,0-2.3,0-3.5,0c-0.3,0-0.3-0.1-0.3-0.3c0-0.2,0-0.3,0-0.5c0-1,0-2,0-3c0-0.4,0-0.4,0.4-0.4C22.2,8.6,22.8,8.6,23.3,8.6z"/>
	<path class="st1" d="M12.7,10.8c0,0.6,0,1.2,0,1.8c0,0.2-0.1,0.3-0.3,0.3c-1.2,0-2.4,0-3.5,0c-0.1,0-0.2-0.1-0.3-0.1
		c-0.1,0,0-0.1,0-0.2c0-0.9,0-1.7,0-2.6c0-0.3,0-0.6,0-0.9c0-0.2,0.1-0.3,0.3-0.3c0.4,0,0.8,0,1.2,0c0.8,0,1.6,0,2.3,0
		c0.2,0,0.3,0.1,0.3,0.3C12.7,9.6,12.7,10.2,12.7,10.8z"/>
</g>
</svg>
