<?xml version="1.0" encoding="utf-8"?>
<!-- Generator: Adobe Illustrator 25.4.0, SVG Export Plug-In . SVG Version: 6.00 Build 0)  -->
<svg version="1.1" id="Layer_1" xmlns="http://www.w3.org/2000/svg" xmlns:xlink="http://www.w3.org/1999/xlink" x="0px" y="0px"
	 viewBox="0 0 34 34" style="enable-background:new 0 0 34 34;" xml:space="preserve">
<style type="text/css">
	.st0{fill:#1A0001;}
	.st1{fill:#E4000B;}
	.st2{fill:#FE7F85;}
</style>
<g>
	<path class="st0" d="M17,34c-5.5,0-10.9,0-16.4,0c-0.2,0-0.4-0.2-0.4-0.4c0-3.9,0-7.8,0-11.8c0-0.3,0.1-0.4,0.4-0.4
		c1.1,0,2.3,0,3.4,0c0.3,0,0.5-0.2,0.5-0.5c0-1.1,0-2.3,0-3.4c0-0.3-0.2-0.5-0.5-0.5c-1.1,0-2.3,0-3.4,0c-0.2,0-0.3-0.1-0.3-0.3
		c0-4,0-7.9,0-11.9c0-0.2,0.1-0.3,0.3-0.3c1.1,0,2.3,0,3.4,0c0.2,0,0.5-0.2,0.5-0.5c0-1.1,0-2.3,0-3.4c0-0.2,0.1-0.3,0.3-0.3
		c8.2,0,16.4,0,24.6,0c0.2,0,0.3,0.1,0.3,0.3c0,1.1,0,2.3,0,3.4c0,0.3,0.2,0.5,0.5,0.5c1.1,0,2.3,0,3.4,0c0.3,0,0.3,0.1,0.3,0.4
		c0,3.9,0,7.9,0,11.8c0,0.2-0.1,0.3-0.3,0.3c-1.1,0-2.3,0-3.4,0c-0.3,0-0.4,0.2-0.4,0.4c0,1.2,0,2.3,0,3.5c0,0.3,0.2,0.4,0.4,0.4
		c1.1,0,2.3,0,3.4,0c0.2,0,0.3,0.1,0.3,0.3c0,3.9,0,7.9,0,11.8c0,0.2-0.1,0.3-0.3,0.3C28,34,22.5,34,17,34z M17,25.6
		c-1.3,0-2.6,0-4,0c-0.2,0-0.2,0-0.2-0.2c0,0,0-0.1,0-0.1c0-1.2,0-2.3,0-3.5c0-0.3-0.1-0.4-0.4-0.4c-1.1,0-2.3,0-3.4,0
		c-0.3,0-0.4,0.1-0.4,0.4c0,0.6,0,1.1,0,1.7c0,0.6,0,1.2,0,1.8c0,0.2-0.1,0.3-0.3,0.3c0,0-0.1,0-0.1,0c-1.2,0-2.3,0-3.5,0
		c-0.2,0-0.4,0.2-0.4,0.4c0,1.1,0,2.3,0,3.4c0,0.3,0.1,0.4,0.4,0.4c1.1,0,2.3,0,3.4,0c0.3,0,0.4-0.1,0.4-0.4c0-1.1,0-2.3,0-3.4
		c0-0.3,0-0.3,0.3-0.3c1.2,0,2.4,0,3.6,0c0,0,0.1,0,0.1,0c0.1,0,0.2,0.1,0.2,0.2c0,0.1,0,0.1,0,0.2c0,1.2,0,2.3,0,3.5
		c0,0.2,0.2,0.4,0.4,0.4c2.5,0,5.1,0,7.6,0c0.3,0,0.4-0.1,0.4-0.4c0-1.2,0-2.4,0-3.5c0-0.2,0.1-0.3,0.3-0.3c1.2,0,2.4,0,3.6,0
		c0.2,0,0.3,0.1,0.3,0.3c0,1.2,0,2.4,0,3.6c0,0.2,0.2,0.4,0.4,0.4c1.2,0,2.3,0,3.5,0c0.2,0,0.4-0.1,0.4-0.4c0-1.2,0-2.3,0-3.5
		c0-0.2-0.2-0.4-0.4-0.4c-1.2,0-2.4,0-3.5,0c-0.3,0-0.3,0-0.3-0.3c0-1.2,0-2.4,0-3.5c0-0.2-0.2-0.4-0.4-0.4c-1.1,0-2.3,0-3.4,0
		c-0.3,0-0.4,0.1-0.4,0.4c0,1.2,0,2.4,0,3.5c0,0.2,0,0.3-0.3,0.3C19.6,25.6,18.3,25.6,17,25.6z M12.8,8.8c0-1.3,0-2.5,0-3.8
		c0-0.3-0.2-0.5-0.5-0.5c-1.1,0-2.3,0-3.4,0c-0.3,0-0.4,0.2-0.4,0.4c0,1.2,0,2.3,0,3.5c0,0.3-0.1,0.4-0.4,0.4c-1.1,0-2.3,0-3.4,0
		c-0.2,0-0.4,0.2-0.4,0.4c0,1.1,0,2.3,0,3.4c0,0.3,0.1,0.4,0.4,0.4c1.2,0,2.3,0,3.5,0c0.2,0,0.4,0.2,0.4,0.4c0,1.2,0,2.3,0,3.5
		c0,0.3,0.1,0.4,0.4,0.4c1.2,0,2.3,0,3.5,0c0.3,0,0.4-0.1,0.4-0.4c0-1.2,0-2.3,0-3.5c0-0.1,0.1-0.2,0-0.3c0-0.2,0-0.4,0-0.6
		C12.8,11.2,12.8,10,12.8,8.8z M21.2,15C21.2,15,21.2,15,21.2,15c0,0.6,0,1.2,0,1.8c0,0.3,0.1,0.4,0.4,0.4c1.1,0,2.3,0,3.4,0
		c0.2,0,0.4-0.2,0.4-0.4c0-1.1,0-2.3,0-3.4c0-0.3,0.1-0.4,0.4-0.4c1.1,0,2.3,0,3.4,0c0.2,0,0.4-0.2,0.4-0.4c0-1.1,0-2.3,0-3.4
		c0-0.2-0.2-0.4-0.4-0.4c-1.1,0-2.2,0-3.3,0c-0.3,0-0.4-0.1-0.4-0.5c0-1.1,0-2.2,0-3.4c0-0.3-0.2-0.4-0.4-0.4c-1.1,0-2.3,0-3.4,0
		c-0.3,0-0.4,0.2-0.4,0.4c0,1.7,0,3.4,0,5.1c0,1,0,2.1,0,3.1C21.3,13.8,21.2,14.4,21.2,15z"/>
	<path class="st1" d="M17,25.6c1.3,0,2.6,0,3.9,0c0.2,0,0.3,0,0.3-0.3c0-1.2,0-2.4,0-3.5c0-0.3,0.2-0.4,0.4-0.4c1.1,0,2.3,0,3.4,0
		c0.2,0,0.4,0.2,0.4,0.4c0,1.2,0,2.4,0,3.5c0,0.3,0,0.3,0.3,0.3c1.2,0,2.4,0,3.5,0c0.2,0,0.4,0.2,0.4,0.4c0,1.2,0,2.3,0,3.5
		c0,0.2-0.1,0.4-0.4,0.4c-1.2,0-2.3,0-3.5,0c-0.2,0-0.4-0.2-0.4-0.4c0-1.2,0-2.4,0-3.6c0-0.2,0-0.3-0.3-0.3c-1.2,0-2.4,0-3.6,0
		c-0.2,0-0.3,0.1-0.3,0.3c0,1.2,0,2.4,0,3.5c0,0.3-0.1,0.4-0.4,0.4c-2.5,0-5.1,0-7.6,0c-0.2,0-0.4-0.2-0.4-0.4c0-1.2,0-2.3,0-3.5
		c0-0.1,0-0.1,0-0.2c0-0.1-0.1-0.2-0.2-0.2c0,0-0.1,0-0.1,0c-1.2,0-2.4,0-3.6,0c-0.3,0-0.3,0-0.3,0.3c0,1.1,0,2.3,0,3.4
		c0,0.3-0.1,0.4-0.4,0.4c-1.1,0-2.3,0-3.4,0c-0.3,0-0.4-0.1-0.4-0.4c0-1.1,0-2.3,0-3.4c0-0.2,0.2-0.4,0.4-0.4c1.2,0,2.3,0,3.5,0
		c0,0,0.1,0,0.1,0c0.2,0,0.3-0.1,0.3-0.3c0-0.6,0-1.2,0-1.8c0-0.6,0-1.1,0-1.7c0-0.3,0.1-0.4,0.4-0.4c1.1,0,2.3,0,3.4,0
		c0.3,0,0.4,0.1,0.4,0.4c0,1.2,0,2.3,0,3.5c0,0,0,0.1,0,0.1c0,0.2,0.1,0.2,0.2,0.2C14.4,25.6,15.7,25.6,17,25.6z"/>
	<path class="st1" d="M12.8,8.8c0,1.2,0,2.4,0,3.6c0,0.2,0,0.4,0,0.6c0,0.1,0,0.2,0,0.3c0,1.2,0,2.3,0,3.5c0,0.3-0.1,0.4-0.4,0.4
		c-1.2,0-2.3,0-3.5,0c-0.3,0-0.4-0.1-0.4-0.4c0-1.2,0-2.3,0-3.5c0-0.2-0.2-0.4-0.4-0.4c-1.2,0-2.3,0-3.5,0c-0.3,0-0.4-0.1-0.4-0.4
		c0-1.1,0-2.3,0-3.4c0-0.2,0.2-0.4,0.4-0.4c1.1,0,2.3,0,3.4,0c0.3,0,0.4-0.1,0.4-0.4c0-1.2,0-2.3,0-3.5c0-0.3,0.1-0.4,0.4-0.4
		c1.1,0,2.3,0,3.4,0c0.2,0,0.5,0.2,0.5,0.5C12.8,6.2,12.8,7.5,12.8,8.8z M12.7,8.8c0-1.3,0-2.6,0-3.8c0-0.2-0.1-0.3-0.3-0.3
		c-1.2,0-2.3,0-3.5,0c-0.2,0-0.3,0.1-0.3,0.3c0,1.4,0,2.8-0.1,4.1c-0.1,1.2,0,2.4,0,3.6c0,0.2,0.2,0.4,0.4,0.4c1.2,0,2.3,0,3.5,0
		c0,0,0.1,0,0.1,0c0.1-0.1,0.2-0.2,0.2-0.4C12.7,11.3,12.7,10.1,12.7,8.8z"/>
	<path class="st1" d="M21.2,15c0-0.6,0-1.2,0-1.8c-0.1-1,0-2.1,0-3.1c0-1.7,0-3.4,0-5.1c0-0.3,0.2-0.4,0.4-0.4c1.1,0,2.3,0,3.4,0
		c0.3,0,0.4,0.2,0.4,0.4c0,1.1,0,2.2,0,3.4c0,0.3,0.1,0.5,0.4,0.5c1.1,0,2.2,0,3.3,0c0.2,0,0.4,0.2,0.4,0.4c0,1.1,0,2.3,0,3.4
		c0,0.2-0.2,0.4-0.4,0.4c-1.1,0-2.3,0-3.4,0c-0.3,0-0.4,0.1-0.4,0.4c0,1.1,0,2.3,0,3.4c0,0.2-0.2,0.4-0.4,0.4c-1.1,0-2.3,0-3.4,0
		c-0.3,0-0.4-0.1-0.4-0.4C21.2,16.2,21.2,15.6,21.2,15C21.2,15,21.2,15,21.2,15z M21.3,8.8c0,0.4,0,0.9,0,1.3c0,0.8,0,1.7,0,2.5
		c0,0.2,0.1,0.4,0.4,0.4c1.1,0,2.3,0,3.4,0c0.2,0,0.4-0.2,0.4-0.4c0-1.1,0-2.2,0-3.2c0-0.3-0.2-0.5-0.1-0.8c0,0,0,0,0,0
		c0-0.1,0-0.2,0-0.2c0-1.1,0-2.3,0-3.4c0-0.2-0.1-0.3-0.3-0.3c-1.1,0-2.3,0-3.4,0c-0.2,0-0.4,0.1-0.4,0.4
		C21.3,6.2,21.3,7.5,21.3,8.8z"/>
	<path class="st2" d="M12.7,8.8c0,1.3,0,2.5,0,3.8c0,0.2-0.1,0.3-0.2,0.4c0,0-0.1,0-0.1,0c-1.2,0-2.3,0-3.5,0
		c-0.2,0-0.4-0.2-0.4-0.4c0-1.2-0.1-2.4,0-3.6c0.1-1.4,0-2.8,0.1-4.1c0-0.2,0.1-0.3,0.3-0.3c1.2,0,2.3,0,3.5,0
		c0.2,0,0.3,0.1,0.3,0.3C12.7,6.2,12.7,7.5,12.7,8.8z"/>
	<path class="st2" d="M21.3,8.8c0-1.3,0-2.5,0-3.8c0-0.2,0.1-0.4,0.4-0.4c1.1,0,2.3,0,3.4,0c0.2,0,0.3,0.1,0.3,0.3
		c0,1.1,0,2.3,0,3.4c0,0.1,0,0.2,0,0.2c0,0,0,0,0,0c-0.1,0.3,0.1,0.5,0.1,0.8c0,1.1,0,2.2,0,3.2c0,0.2-0.2,0.4-0.4,0.4
		c-1.1,0-2.3,0-3.4,0c-0.2,0-0.4-0.1-0.4-0.4c0-0.8,0-1.7,0-2.5C21.3,9.6,21.3,9.2,21.3,8.8z"/>
</g>
</svg>
