<?xml version="1.0" encoding="utf-8"?>
<!-- Generator: Adobe Illustrator 25.4.0, SVG Export Plug-In . SVG Version: 6.00 Build 0)  -->
<svg version="1.1" id="Layer_1" xmlns="http://www.w3.org/2000/svg" xmlns:xlink="http://www.w3.org/1999/xlink" x="0px" y="0px"
	 viewBox="0 0 30 30" style="enable-background:new 0 0 30 30;" xml:space="preserve">
<style type="text/css">
	.st0{fill:#7EFD93;}
	.st1{fill:#001A04;}
	.st2{fill:#3854FE;}
	.st3{fill:#36FEDE;}
</style>
<g>
	<path class="st0" d="M1.9,15c0-4.3,0-8.6,0-12.9c0-0.1,0-0.2,0.2-0.2c8.6,0,17.3,0,25.9,0c0.1,0,0.2,0,0.2,0.2c0,8.6,0,17.3,0,25.9
		c0,0.1,0,0.2-0.2,0.2c-8.6,0-17.3,0-25.9,0c-0.1,0-0.2,0-0.2-0.2C1.9,23.6,1.9,19.3,1.9,15z M28,15c0-4.2,0-8.5,0-12.7
		C28,2,28,2,27.7,2C19.2,2,10.8,2,2.3,2C2,2,1.9,2,1.9,2.3c0,8.5,0,16.9,0,25.4c0,0.3,0,0.4,0.4,0.4c8.5,0,16.9,0,25.4,0
		c0.3,0,0.4,0,0.4-0.4C28,23.5,28,19.2,28,15z"/>
	<path class="st1" d="M28,15c0,4.2,0,8.5,0,12.7c0,0.3,0,0.4-0.4,0.4c-8.5,0-16.9,0-25.4,0c-0.3,0-0.4,0-0.4-0.4
		c0-8.5,0-16.9,0-25.4C1.9,2,2,2,2.3,2c8.5,0,16.9,0,25.4,0C28,2,28,2,28,2.3C28,6.6,28,10.8,28,15z M5.2,15.1
		c-0.1,0.1-0.1,0.2-0.1,0.3c0,0.9,0,1.7,0,2.6c0,0.3,0.1,0.3,0.3,0.3c0.9,0,1.7,0,2.6,0c0.2,0,0.3,0.1,0.3,0.3c0,0.9,0,1.8,0,2.7
		c0,0.2-0.1,0.3-0.3,0.3c-0.9,0-1.7,0-2.6,0c-0.3,0-0.4,0.1-0.4,0.4c0,0.8,0,1.7,0,2.5c0,0.3,0.1,0.4,0.4,0.4c6.3,0,12.6,0,18.9,0
		c0.3,0,0.4-0.1,0.4-0.4c0-0.8,0-1.7,0-2.5c0-0.3,0-0.4-0.4-0.4c-0.8,0-1.7,0-2.5,0c-0.3,0-0.3,0-0.3-0.3c0-0.1,0-0.1,0-0.2
		c0-0.8,0-1.6,0-2.4c0-0.4,0-0.4,0.4-0.4c0.8,0,1.6,0,2.3,0c0,0,0.1,0,0.1,0c0.3,0,0.4-0.1,0.4-0.4c0-1.1,0-2.1,0-3.2
		c0-0.9,0-1.7,0-2.6c0-0.3-0.1-0.4-0.4-0.4c-2,0-3.9,0-5.9,0c-0.1,0-0.1,0-0.2,0c-0.1,0-0.1,0-0.1,0.1c0,0-0.1,0-0.1,0
		c0-0.1-0.2-0.1-0.3-0.1c-1.9,0-3.8,0-5.7,0c-0.3,0-0.5,0-0.8,0c0,0-0.1,0-0.1,0c-2,0-3.9,0-5.9,0c-0.2,0-0.4,0.1-0.4,0.4
		c0,0.3,0,0.5,0,0.8c0,0.6,0,1.2,0,1.9C5.1,14.8,5.1,15,5.2,15.1C5.2,15,5.2,15.1,5.2,15.1z M15,8.5c1,0,1.9,0,2.9,0
		c0.3,0,0.4-0.1,0.4-0.4c0-0.9,0-1.7,0-2.6c0-0.2-0.1-0.4-0.4-0.4c-2,0-3.9,0-5.9,0c-0.2,0-0.4,0.1-0.4,0.4c0,0.9,0,1.7,0,2.6
		c0,0.3,0.1,0.4,0.4,0.4C13.1,8.5,14,8.5,15,8.5z M23.2,8.5c0.4,0,0.9,0,1.3,0c0.2,0,0.3-0.1,0.3-0.3c0-0.9,0-1.7,0-2.6
		c0-0.2-0.1-0.4-0.3-0.4c-0.9,0-1.7,0-2.6,0c-0.2,0-0.3,0.1-0.3,0.3c0,0.9,0,1.7,0,2.6c0,0.2,0.1,0.3,0.3,0.3
		C22.3,8.5,22.7,8.5,23.2,8.5z M8.4,6.8c0-0.4,0-0.9,0-1.3c0-0.2-0.1-0.3-0.3-0.3c-0.9,0-1.7,0-2.6,0c-0.2,0-0.3,0.1-0.3,0.3
		c0,0.9,0,1.7,0,2.6c0,0.2,0.1,0.3,0.3,0.3c0.8,0,1.7,0,2.5,0c0.2,0,0.3-0.1,0.3-0.3C8.4,7.7,8.4,7.3,8.4,6.8z"/>
	<path class="st2" d="M18.2,11.8C18.2,11.8,18.2,11.8,18.2,11.8c0.2,0,0.3-0.1,0.4-0.1c2,0,4,0,5.9,0c0.2,0,0.3,0.1,0.3,0.3
		c0,0.9,0,1.8,0,2.6c0,0.3-0.1,0.3-0.3,0.3c-0.8,0-1.7,0-2.5,0c-0.3,0-0.4,0.1-0.4,0.4c0,2-0.1,3.9,0,5.9c0,0,0,0,0,0
		c0,0.2-0.1,0.2-0.2,0.2c-0.1,0-0.1,0-0.2,0c-4.1,0-8.2,0-12.3,0c-0.1,0-0.2,0-0.2,0c-0.1,0-0.1-0.1-0.1-0.2c0-0.9,0-1.8,0-2.6
		c0-0.1,0-0.3-0.1-0.4c-0.1-0.2-0.1-0.4-0.1-0.7c0-0.8,0-1.5,0-2.3c0-0.2,0-0.3-0.3-0.3c-0.9,0-1.7,0-2.6,0c-0.1,0-0.2,0-0.2-0.1
		c0,0,0,0,0-0.1c0.1-0.1,0-0.2,0-0.4c0-0.8,0-1.7,0-2.5c0-0.3,0-0.3,0.3-0.3c1.9,0,3.9,0,5.8,0c0.1,0,0.1,0,0.2,0
		c0.2,0,0.2,0.1,0.2,0.3c0,0.9,0,1.8,0,2.7c0,0.1,0,0.1-0.1,0.2c-0.1,0.1-0.1,0.2-0.1,0.3c0,0.9,0,1.8,0,2.7c0,0.3,0.1,0.4,0.4,0.4
		c2,0,3.9,0,5.9,0c0.3,0,0.4-0.1,0.4-0.4c0-0.8,0-1.6,0-2.4c0-0.2,0-0.4-0.1-0.6c0,0,0-0.1,0-0.1C18.2,13.8,18.1,12.8,18.2,11.8z"/>
	<path class="st3" d="M5.2,15.1c0.1,0.1,0.2,0.1,0.2,0.1c0.9,0,1.7,0,2.6,0c0.2,0,0.3,0,0.3,0.3c0,0.8,0,1.5,0,2.3
		c0,0.2,0,0.5,0.1,0.7c0.1,0.1,0.1,0.3,0.1,0.4c0,0.9,0,1.8,0,2.6c0,0.1,0,0.2,0.1,0.2c0.1,0,0.1,0,0.2,0c4.1,0,8.2,0,12.3,0
		c0.1,0,0.1,0,0.2,0c0.1,0,0.2-0.1,0.2-0.2c0,0,0,0,0,0c0-2,0.1-3.9,0-5.9c0-0.3,0.1-0.4,0.4-0.4c0.8,0,1.7,0,2.5,0
		c0.3,0,0.3,0,0.3-0.3c0-0.9,0-1.8,0-2.6c0-0.2-0.1-0.3-0.3-0.3c-2,0-4,0-5.9,0c-0.1,0-0.2,0.1-0.3,0c0-0.1,0.1-0.1,0.1-0.1
		c0.1,0,0.1,0,0.2,0c2,0,3.9,0,5.9,0c0.3,0,0.4,0.1,0.4,0.4c0,0.9,0,1.7,0,2.6c0,1.1,0,2.1,0,3.2c0,0.3-0.1,0.4-0.4,0.4
		c0,0-0.1,0-0.1,0c-0.8,0-1.6,0-2.3,0c-0.4,0-0.4,0-0.4,0.4c0,0.8,0,1.6,0,2.4c0,0.1,0,0.1,0,0.2c0,0.3,0,0.3,0.3,0.3
		c0.8,0,1.7,0,2.5,0c0.3,0,0.4,0,0.4,0.4c0,0.8,0,1.7,0,2.5c0,0.3-0.1,0.4-0.4,0.4c-6.3,0-12.6,0-18.9,0c-0.3,0-0.4-0.1-0.4-0.4
		c0-0.8,0-1.7,0-2.5c0-0.3,0.1-0.4,0.4-0.4c0.9,0,1.7,0,2.6,0c0.2,0,0.3-0.1,0.3-0.3c0-0.9,0-1.8,0-2.7c0-0.2-0.1-0.3-0.3-0.3
		c-0.9,0-1.7,0-2.6,0c-0.3,0-0.3-0.1-0.3-0.3c0-0.9,0-1.7,0-2.6C5.2,15.2,5.1,15.1,5.2,15.1z"/>
	<path class="st3" d="M18.2,11.8c0,1,0,2,0,3c0,0,0,0.1,0,0.1c0.2,0.2,0.1,0.4,0.1,0.6c0,0.8,0,1.6,0,2.4c0,0.3-0.1,0.4-0.4,0.4
		c-2,0-3.9,0-5.9,0c-0.3,0-0.4-0.1-0.4-0.4c0-0.9,0-1.8,0-2.7c0-0.1,0-0.2,0.1-0.3c0-0.1,0.1-0.1,0.1-0.2c0-0.9,0-1.8,0-2.7
		c0-0.2-0.1-0.3-0.2-0.3c-0.1,0-0.1,0-0.2,0c-1.9,0-3.9,0-5.8,0c-0.3,0-0.3,0-0.3,0.3c0,0.8,0,1.7,0,2.5c0,0.1,0.1,0.2,0,0.4
		c-0.2-0.1-0.1-0.2-0.1-0.3c0-0.6,0-1.2,0-1.9c0-0.3,0-0.5,0-0.8c0-0.2,0.1-0.4,0.4-0.4c2,0,3.9,0,5.9,0c0,0,0.1,0,0.1,0
		c0.2,0.1,0.5,0,0.8,0c1.9,0,3.8,0,5.7,0C18,11.7,18.1,11.7,18.2,11.8z M15,18.3c1,0,2,0,2.9,0c0.2,0,0.3-0.1,0.3-0.3
		c0-0.9,0-1.7,0-2.6c0-0.3-0.1-0.3-0.3-0.3c-1.9,0-3.9,0-5.8,0c-0.3,0-0.4,0.1-0.4,0.4c0,0.8,0,1.7,0,2.5c0,0.3,0.1,0.4,0.4,0.4
		C13.1,18.3,14,18.3,15,18.3z"/>
	<path class="st2" d="M15,8.5c-1,0-1.9,0-2.9,0c-0.3,0-0.4-0.1-0.4-0.4c0-0.9,0-1.7,0-2.6c0-0.3,0.1-0.4,0.4-0.4c2,0,3.9,0,5.9,0
		c0.2,0,0.4,0.1,0.4,0.4c0,0.9,0,1.7,0,2.6c0,0.3-0.1,0.4-0.4,0.4C16.9,8.5,16,8.5,15,8.5z"/>
	<path class="st3" d="M23.2,8.5c-0.4,0-0.9,0-1.3,0c-0.2,0-0.3-0.1-0.3-0.3c0-0.9,0-1.7,0-2.6c0-0.2,0.1-0.3,0.3-0.3
		c0.9,0,1.7,0,2.6,0c0.2,0,0.3,0.1,0.3,0.4c0,0.9,0,1.7,0,2.6c0,0.2-0.1,0.3-0.3,0.3C24,8.5,23.6,8.5,23.2,8.5z"/>
	<path class="st3" d="M8.4,6.8c0,0.4,0,0.8,0,1.3c0,0.2-0.1,0.3-0.3,0.3c-0.8,0-1.7,0-2.5,0c-0.2,0-0.3-0.1-0.3-0.3
		c0-0.9,0-1.7,0-2.6c0-0.2,0.1-0.3,0.3-0.3c0.9,0,1.7,0,2.6,0c0.2,0,0.3,0.1,0.3,0.3C8.4,6,8.4,6.4,8.4,6.8z"/>
	<path class="st1" d="M15,18.3c-1,0-1.9,0-2.9,0c-0.3,0-0.4-0.1-0.4-0.4c0-0.8,0-1.7,0-2.5c0-0.3,0.1-0.4,0.4-0.4c1.9,0,3.9,0,5.8,0
		c0.3,0,0.3,0.1,0.3,0.3c0,0.9,0,1.7,0,2.6c0,0.2-0.1,0.3-0.3,0.3C16.9,18.3,16,18.3,15,18.3z"/>
</g>
</svg>
