<?xml version="1.0" encoding="utf-8"?>
<!-- Generator: Adobe Illustrator 25.4.0, SVG Export Plug-In . SVG Version: 6.00 Build 0)  -->
<svg version="1.1" id="Layer_1" xmlns="http://www.w3.org/2000/svg" xmlns:xlink="http://www.w3.org/1999/xlink" x="0px" y="0px"
	 viewBox="0 0 34 34" style="enable-background:new 0 0 34 34;" xml:space="preserve">
<style type="text/css">
	.st0{fill:#857FFE;}
	.st1{fill:#01001A;}
	.st2{fill:#0B00E4;}
</style>
<g>
	<path class="st0" d="M0,34C0,22.7,0,11.4,0,0.1C0,0,0,0,0.1,0c11.3,0,22.5,0,33.8,0C34,0,34,0,34,0.1c0,11.3,0,22.5,0,33.8
		c0,0.1,0,0.1-0.1,0.1C22.6,34,11.3,34,0,34z M17,0.1c-5.5,0-11,0-16.6,0c-0.1,0-0.2,0-0.3,0.1C0,0.3,0.1,0.4,0.1,0.4
		c0,11,0,22.1,0,33.1c0,0,0,0.1,0,0.1c0,0.1,0,0.1,0.1,0.2c0.1,0.1,0.2,0.1,0.3,0.1c11,0,22.1,0,33.1,0c0,0,0,0,0.1,0
		c0.1,0,0.2,0,0.2-0.1c0.1-0.1,0.1-0.2,0.1-0.3c0-11,0-22.1,0-33.1c0,0,0-0.1,0-0.1c0-0.1,0-0.1-0.1-0.2c-0.1-0.1-0.2-0.1-0.3-0.1
		C28,0.1,22.5,0.1,17,0.1z"/>
	<path class="st1" d="M17,0.1c5.5,0,11,0,16.5,0c0.1,0,0.2,0,0.3,0.1c0,0.1,0.1,0.1,0.1,0.2c0,0,0,0.1,0,0.1c0,11,0,22.1,0,33.1
		c0,0.1,0,0.2-0.1,0.3c-0.1,0.1-0.1,0.1-0.2,0.1c0,0,0,0-0.1,0c-11,0-22.1,0-33.1,0c-0.1,0-0.2,0-0.3-0.1c0-0.1-0.1-0.1-0.1-0.2
		c0,0,0-0.1,0-0.1c0-11,0-22.1,0-33.1c0-0.1,0-0.2,0.1-0.3c0.1-0.1,0.2-0.1,0.3-0.1C6,0.1,11.5,0.1,17,0.1z M17,29.7
		c4.1,0,8.2,0,12.3,0c0.2,0,0.4-0.2,0.4-0.4c0-1.1,0-2.3,0-3.4c0-0.3-0.2-0.4-0.4-0.4c-2.5,0-5.1,0-7.6,0c-0.2,0-0.3-0.1-0.3-0.2
		c0-0.1,0-0.2,0-0.3c0-4,0-7.9,0-11.9c0,0,0-0.1,0-0.1c0-0.2,0.1-0.3,0.3-0.3c1.2,0,2.4,0,3.5,0c0.1,0,0.3,0.1,0.3,0.3
		c0,1.4,0,2.9,0,4.3c0,1,0,2,0,2.9c0,0.2,0,0.4,0,0.5c0,0.2,0.2,0.4,0.4,0.4c1.2,0,2.3,0,3.5,0c0.2,0,0.4-0.2,0.4-0.4
		c0-1.4,0-2.8,0-4.3c0-1.1,0-2.3,0-3.5c0-0.3-0.1-0.4-0.4-0.4c-1.2,0-2.3,0-3.5,0c-0.2,0-0.4-0.2-0.4-0.4c0-1.1,0-2.3,0-3.4
		c0-0.3,0.2-0.4,0.4-0.4c1.1,0,2.3,0,3.4,0c0.2,0,0.4-0.2,0.4-0.4c0-1.2,0-2.4,0-3.5c0-0.2-0.2-0.4-0.4-0.4c-1.5,0-2.9,0-4.4,0
		c-5.3,0-10.7,0-16,0c-0.2,0-0.3,0-0.5,0c0,0-0.1,0-0.1,0c-0.1,0-0.2,0-0.2,0c-1.2,0-2.3,0-3.5,0c-0.3,0-0.4,0.1-0.4,0.4
		c0,1.1,0,2.3,0,3.4c0,0.3,0.1,0.4,0.4,0.4c1.1,0,2.3,0,3.4,0c0.2,0,0.4,0.2,0.4,0.4c0,1.2,0,2.3,0,3.5c0,0.2,0.1,0.4,0.4,0.4
		c1.2,0,2.3,0,3.5,0c0.1,0,0.1,0,0.2,0c0.1,0.1,0.2,0.2,0.2,0.4c0,3.9,0,7.9,0,11.8c0,0.1,0,0.2-0.1,0.4c-0.1,0.1-0.2,0.1-0.3,0.1
		c-2.5,0-5.1,0-7.6,0c-0.3,0-0.4,0.1-0.4,0.4c0,1.1,0,2.2,0,3.4c0,0.3,0.1,0.4,0.4,0.4C8.8,29.7,12.9,29.7,17,29.7z M8.5,19.1
		c0-0.6,0-1.2,0-1.7c0-0.1-0.1-0.3,0-0.5c0.1-0.1,0.1-0.2,0.1-0.3c0-1.2,0-2.4,0-3.6c0-0.2-0.1-0.3-0.3-0.3c-1.2,0-2.4,0-3.6,0
		c-0.2,0-0.4,0.2-0.4,0.4c0,1.3,0,2.6,0,3.9c0,0,0,0.1,0,0.1c0,0.1,0.1,0.2,0.1,0.3c0,1.2,0,2.3,0,3.5c0,0.2,0.1,0.4,0.4,0.4
		c1.1,0,2.3,0,3.4,0c0.2,0,0.4-0.1,0.4-0.4C8.5,20.3,8.5,19.7,8.5,19.1z"/>
	<path class="st2" d="M17,29.7c-4.1,0-8.2,0-12.3,0c-0.3,0-0.4-0.1-0.4-0.4c0-1.1,0-2.2,0-3.4c0-0.3,0.1-0.4,0.4-0.4
		c2.5,0,5.1,0,7.6,0c0.1,0,0.2,0,0.3-0.1c0.1-0.1,0.1-0.2,0.1-0.4c0-3.9,0-7.9,0-11.8c0-0.2,0-0.3-0.2-0.4c0,0-0.1,0-0.2,0
		c-1.2,0-2.3,0-3.5,0c-0.2,0-0.4-0.1-0.4-0.4c0-1.2,0-2.3,0-3.5c0-0.2-0.2-0.4-0.4-0.4c-1.1,0-2.3,0-3.4,0c-0.3,0-0.4-0.1-0.4-0.4
		c0-1.1,0-2.3,0-3.4c0-0.3,0.1-0.4,0.4-0.4c1.2,0,2.3,0,3.5,0c0.1,0,0.2,0,0.2,0c0,0,0.1,0,0.1,0c0.1,0.1,0.3,0,0.5,0
		c5.3,0,10.7,0,16,0c1.5,0,2.9,0,4.4,0c0.2,0,0.4,0.2,0.4,0.4c0,1.2,0,2.4,0,3.5c0,0.2-0.2,0.4-0.4,0.4c-1.1,0-2.3,0-3.4,0
		c-0.3,0-0.4,0.2-0.4,0.4c0,1.1,0,2.3,0,3.4c0,0.2,0.1,0.4,0.4,0.4c1.2,0,2.3,0,3.5,0c0.3,0,0.4,0.1,0.4,0.4c0,1.2,0,2.3,0,3.5
		c0,1.4,0,2.8,0,4.3c0,0.2-0.2,0.4-0.4,0.4c-1.2,0-2.3,0-3.5,0c-0.2,0-0.4-0.2-0.4-0.4c0-0.2,0-0.4,0-0.5c0-1,0-2,0-2.9
		c0-1.4,0-2.9,0-4.3c0-0.1-0.1-0.3-0.3-0.3c-1.2,0-2.4,0-3.5,0c-0.2,0-0.3,0.1-0.3,0.3c0,0,0,0.1,0,0.1c0,4,0,7.9,0,11.9
		c0,0.1,0,0.2,0,0.3c0.1,0.1,0.2,0.2,0.3,0.2c2.5,0,5.1,0,7.6,0c0.3,0,0.4,0.2,0.4,0.4c0,1.1,0,2.3,0,3.4c0,0.2-0.2,0.4-0.4,0.4
		C25.2,29.7,21.1,29.7,17,29.7z M17,4.3c-2.7,0-5.4,0-8.1,0c-0.3,0-0.4,0.1-0.4,0.4c0,1.1,0,2.3,0,3.4c0,0.3,0.2,0.4,0.4,0.4
		c1.1,0,2.3,0,3.4,0c0.2,0,0.4,0.2,0.4,0.4c0,1.5-0.1,2.9,0.1,4.4c0,4,0,7.9,0,11.9c0,0.3,0.1,0.4,0.4,0.4c2.5,0,5.1,0,7.6,0
		c0.2,0,0.4-0.1,0.4-0.4c0-0.7,0-1.4,0-2.1c0-3.3,0-6.6,0-9.9c0-0.2,0-0.3,0-0.5c0-0.1,0-0.2,0-0.3c0-1.2,0-2.3,0-3.5
		c0-0.3,0.1-0.4,0.4-0.4c1.1,0,2.3,0,3.4,0c0.2,0,0.4-0.2,0.4-0.4c0-1.2,0-2.4,0-3.5c0,0,0-0.1,0-0.1c-0.1-0.1-0.2-0.2-0.4-0.2
		C22.4,4.3,19.7,4.3,17,4.3z M27.6,12.8c-0.6,0-1.2,0-1.7,0c-0.2,0-0.3,0.1-0.3,0.3c0,1.2,0,2.3,0,3.5c0,0.2,0.1,0.4,0.4,0.4
		c1.1,0,2.3,0,3.4,0c0.2,0,0.4-0.1,0.4-0.4c0-1.2,0-2.3,0-3.5c0-0.2-0.1-0.3-0.3-0.3C28.8,12.8,28.2,12.8,27.6,12.8z"/>
	<path class="st2" d="M8.5,19.1c0,0.6,0,1.2,0,1.8c0,0.2-0.1,0.4-0.4,0.4c-1.1,0-2.3,0-3.4,0c-0.2,0-0.4-0.1-0.4-0.4
		c0-1.2,0-2.3,0-3.5c0-0.1,0-0.2-0.1-0.3c0,0,0-0.1,0-0.1c0-1.3,0-2.6,0-3.9c0-0.2,0.2-0.4,0.4-0.4c1.2,0,2.4,0,3.6,0
		c0.2,0,0.3,0.1,0.3,0.3c0,1.2,0,2.4,0,3.6c0,0.1,0,0.2-0.1,0.3c-0.1,0.1,0,0.3,0,0.5C8.4,17.9,8.5,18.5,8.5,19.1z M6.4,12.8
		c-0.6,0-1.2,0-1.8,0c-0.2,0-0.3,0.1-0.3,0.3c0,1.2,0,2.3,0,3.5c0,0.2,0.1,0.4,0.3,0.4c1.1,0,2.3,0,3.4,0c0.2,0,0.3-0.1,0.3-0.3
		c0-1.2,0-2.3,0-3.5c0-0.2-0.1-0.3-0.3-0.3C7.5,12.8,6.9,12.8,6.4,12.8z"/>
	<path class="st0" d="M17,4.3c2.7,0,5.4,0,8.1,0c0.2,0,0.3,0.1,0.4,0.2c0,0,0,0.1,0,0.1c0,1.2,0,2.4,0,3.5c0,0.2-0.2,0.4-0.4,0.4
		c-1.1,0-2.3,0-3.4,0c-0.3,0-0.4,0.1-0.4,0.4c0,1.2,0,2.3,0,3.5c0,0.1,0,0.2,0,0.3c0,0.2,0,0.3,0,0.5c0,3.3,0,6.6,0,9.9
		c0,0.7,0,1.4,0,2.1c0,0.3-0.1,0.4-0.4,0.4c-2.5,0-5.1,0-7.6,0c-0.3,0-0.4-0.1-0.4-0.4c0-4,0-7.9,0-11.9c-0.1-1.5,0-2.9-0.1-4.4
		c0-0.2-0.2-0.4-0.4-0.4c-1.1,0-2.3,0-3.4,0c-0.3,0-0.4-0.2-0.4-0.4c0-1.1,0-2.3,0-3.4c0-0.3,0.1-0.4,0.4-0.4
		C11.6,4.3,14.3,4.3,17,4.3z"/>
	<path class="st0" d="M27.6,12.8c0.6,0,1.2,0,1.7,0c0.2,0,0.3,0.1,0.3,0.3c0,1.2,0,2.3,0,3.5c0,0.2-0.1,0.4-0.4,0.4
		c-1.1,0-2.3,0-3.4,0c-0.2,0-0.4-0.2-0.4-0.4c0-1.2,0-2.3,0-3.5c0-0.2,0.1-0.3,0.3-0.3C26.4,12.8,27,12.8,27.6,12.8z"/>
	<path class="st0" d="M6.4,12.8c0.6,0,1.2,0,1.8,0c0.2,0,0.3,0.1,0.3,0.3c0,1.2,0,2.3,0,3.5c0,0.2-0.1,0.3-0.3,0.3
		c-1.1,0-2.3,0-3.4,0c-0.2,0-0.3-0.1-0.3-0.4c0-1.2,0-2.3,0-3.5c0-0.2,0.1-0.3,0.3-0.3C5.2,12.8,5.8,12.8,6.4,12.8z"/>
</g>
</svg>
