<?xml version="1.0" encoding="utf-8"?>
<!-- Generator: Adobe Illustrator 25.4.0, SVG Export Plug-In . SVG Version: 6.00 Build 0)  -->
<svg version="1.1" id="Layer_1" xmlns="http://www.w3.org/2000/svg" xmlns:xlink="http://www.w3.org/1999/xlink" x="0px" y="0px"
	 viewBox="0 0 34 34" style="enable-background:new 0 0 34 34;" xml:space="preserve">
<style type="text/css">
	.st0{fill:#E56600;}
	.st1{fill:#FEB87F;}
	.st2{fill:#1A0B00;}
</style>
<g>
	<path class="st0" d="M33.9,17c0-5.5,0-11,0-16.6c0-0.2-0.1-0.3-0.3-0.3c-4,0-7.9,0-11.9,0c-0.2,0-0.3,0.1-0.3,0.3
		c0,1.1,0,2.3,0,3.4c0,0.3-0.2,0.5-0.5,0.5c-2.6,0-5.1,0-7.7,0c-0.3,0-0.5-0.2-0.5-0.5c0-1.1,0-2.3,0-3.4c0-0.2-0.1-0.4-0.4-0.4
		c-3.4,0-6.8,0-10.1,0c-0.6,0-1.2,0-1.8,0c-0.1,0-0.2,0-0.2,0.1c-0.1,0.1,0,0.1,0,0.2c0,11,0,22.1,0,33.1c0,0,0,0,0,0.1
		c0,0.1,0,0.1,0.1,0.2c0.1,0.1,0.2,0.1,0.2,0.1c11,0,22.1,0,33.1,0c0,0,0.1,0,0.1,0c0.1,0,0.1,0,0.2-0.1c0.1-0.1,0.1-0.2,0.1-0.3
		C33.9,28.1,33.9,22.5,33.9,17z"/>
	<path class="st1" d="M0.1,33.8c0.1,0,0.2,0.1,0.2,0.2C0.1,34,0.1,34,0.1,33.8z"/>
	<path class="st2" d="M33.9,17c0,5.5,0,11,0,16.6c0,0.1,0,0.2-0.1,0.3c-0.1,0-0.1,0.1-0.2,0.1c0,0-0.1,0-0.1,0c-11,0-22.1,0-33.1,0
		c-0.1,0-0.2,0-0.2-0.1c-0.1-0.1-0.1-0.1-0.1-0.2c0,0,0,0,0-0.1c0-11,0-22.1,0-33.1c0-0.1,0-0.2,0-0.2c0.1-0.1,0.1-0.1,0.2-0.1
		c0.6,0,1.2,0,1.8,0c3.4,0,6.8,0,10.1,0c0.2,0,0.4,0.1,0.4,0.4c0,1.1,0,2.3,0,3.4c0,0.3,0.2,0.5,0.5,0.5c2.6,0,5.1,0,7.7,0
		c0.3,0,0.5-0.2,0.5-0.5c0-1.1,0-2.3,0-3.4c0-0.2,0.1-0.3,0.3-0.3c4,0,7.9,0,11.9,0c0.2,0,0.3,0.1,0.3,0.3C33.9,6,33.9,11.5,33.9,17
		z M17,29.8c4.1,0,8.2,0,12.3,0c0.3,0,0.5-0.2,0.5-0.5c0-1.4,0-2.8,0-4.2c0,0,0,0,0,0c0-1.2,0-2.3,0-3.5c0-0.3-0.2-0.4-0.4-0.4
		c-1.2,0-2.4,0-3.5,0c-0.3,0-0.3,0.1-0.3,0.3c0,1.2,0,2.4,0,3.6c0,0.3-0.1,0.4-0.4,0.4c-1.1,0-2.3,0-3.4,0c-0.3,0-0.4-0.1-0.4-0.4
		c0-1.2,0-2.3,0-3.5c0-0.2,0.1-0.3,0.3-0.3c1.2,0,2.3,0,3.5,0c0.1,0,0.1,0,0.2,0c0.2,0,0.3-0.1,0.2-0.2c0-0.1,0-0.1,0-0.2
		c0-1.2,0-2.3,0-3.5c0-0.2,0.2-0.4,0.4-0.4c0.3,0,0.6,0,0.9,0c0.9,0,1.7,0,2.6,0c0.2,0,0.4-0.2,0.4-0.3c0-1.4,0-2.8,0-4.3
		c0.1-2.6,0-5.2,0-7.7c0-0.3-0.2-0.5-0.5-0.5c-1.1,0-2.3,0-3.4,0c-0.3,0-0.5,0.2-0.5,0.5c0,2.6,0,5.1,0,7.7c0,0.2-0.1,0.3-0.3,0.3
		c-1.2,0-2.3,0-3.5,0c-0.2,0-0.3-0.1-0.3-0.3c0-1.2,0-2.3,0-3.5c0-0.2-0.2-0.5-0.5-0.5c-2.6,0-5.1,0-7.7,0c-0.3,0-0.5,0.2-0.5,0.5
		c0,1.1,0,2.3,0,3.4c0,0.2-0.1,0.4-0.4,0.4c-1.1,0-2.3,0-3.4,0c-0.2,0-0.3-0.1-0.3-0.3c0-2.6,0-5.1,0-7.7c0-0.3-0.2-0.5-0.5-0.5
		c-1.1,0-2.3,0-3.4,0c-0.3,0-0.5,0.1-0.5,0.5c0,2.9-0.1,5.8,0,8.7c0,1.1,0,2.2,0,3.2c0,0.3,0.1,0.4,0.4,0.4c1.1,0,2.3,0,3.4,0
		c0.2,0,0.4,0.2,0.4,0.4c0,1.2,0,2.3,0,3.5c0,0.1,0,0.2-0.1,0.3c-0.1,0-0.1,0-0.2,0c-1.1,0-2.3,0-3.4,0c-0.4,0-0.5,0.2-0.5,0.5
		c0,1.4,0,2.7,0,4.1c0.1,1.2,0,2.4,0,3.5c0,0.3,0.2,0.5,0.5,0.5C8.8,29.8,12.9,29.8,17,29.8z"/>
	<path class="st0" d="M17,29.8c-4.1,0-8.2,0-12.3,0c-0.3,0-0.5-0.2-0.5-0.5c0-1.2,0-2.4,0-3.5c-0.1-1.4,0-2.7,0-4.1
		c0-0.4,0.2-0.5,0.5-0.5c1.1,0,2.3,0,3.4,0c0.1,0,0.1,0,0.2,0c0.1-0.1,0.1-0.1,0.1-0.3c0-1.2,0-2.3,0-3.5c0-0.2-0.2-0.4-0.4-0.4
		c-1.1,0-2.3,0-3.4,0c-0.3,0-0.4-0.1-0.4-0.4c0-1.1,0-2.2,0-3.2c-0.1-2.9,0-5.8,0-8.7c0-0.3,0.1-0.5,0.5-0.5c1.1,0,2.3,0,3.4,0
		c0.3,0,0.5,0.2,0.5,0.5c0,2.6,0,5.1,0,7.7c0,0.2,0.1,0.3,0.3,0.3c1.1,0,2.3,0,3.4,0c0.2,0,0.4-0.1,0.4-0.4c0-1.1,0-2.3,0-3.4
		c0-0.3,0.2-0.5,0.5-0.5c2.6,0,5.1,0,7.7,0c0.3,0,0.5,0.2,0.5,0.5c0,1.2,0,2.3,0,3.5c0,0.2,0.1,0.3,0.3,0.3c1.2,0,2.3,0,3.5,0
		c0.2,0,0.3-0.1,0.3-0.3c0-2.6,0-5.1,0-7.7c0-0.3,0.2-0.5,0.5-0.5c1.1,0,2.3,0,3.4,0c0.3,0,0.5,0.2,0.5,0.5c0,2.6,0,5.2,0,7.7
		c0,1.4,0,2.8,0,4.3c0,0.2-0.2,0.3-0.4,0.3c-0.9,0-1.7,0-2.6,0c-0.3,0-0.6,0-0.9,0c-0.2,0-0.4,0.2-0.4,0.4c0,1.2,0,2.3,0,3.5
		c0,0.1,0,0.1,0,0.2c0.1,0.2-0.1,0.3-0.2,0.2c-0.1,0-0.1,0-0.2,0c-1.2,0-2.3,0-3.5,0c-0.2,0-0.3,0.1-0.3,0.3c0,1.2,0,2.3,0,3.5
		c0,0.3,0.1,0.4,0.4,0.4c1.1,0,2.3,0,3.4,0c0.2,0,0.4-0.1,0.4-0.4c0-1.2,0-2.4,0-3.6c0-0.3,0.1-0.3,0.3-0.3c1.2,0,2.4,0,3.5,0
		c0.3,0,0.4,0.2,0.4,0.4c0,1.2,0,2.3,0,3.5c0,0,0,0,0,0c0,1.4,0,2.8,0,4.2c0,0.3-0.2,0.5-0.5,0.5C25.3,29.8,21.1,29.8,17,29.8z
		 M21.3,12.7c-0.1-0.1-0.1-0.2-0.1-0.4c0-1.1,0-2.3,0-3.4c0-0.2-0.1-0.3-0.3-0.3c-2.6,0-5.1,0-7.7,0c-0.2,0-0.3,0.1-0.3,0.3
		c0,1.2,0,2.3,0,3.5c0,0.3-0.2,0.5-0.5,0.5c-1,0-2,0-3,0c-0.3,0-0.5,0-0.8,0c0.1,0.1,0,0.2,0,0.3c0,1.1,0,2.3,0,3.4
		C8.5,16.8,8.7,17,9,17c1.1,0,2.3,0,3.4,0c0.2,0,0.4-0.2,0.4-0.4c0-1.1,0-2.3,0-3.4c0,0,0-0.1,0-0.1c0-0.1,0.1-0.3,0.2-0.3
		c0.1,0,0.1,0,0.2,0c2.5,0,5.1,0,7.6,0c0,0,0.1,0,0.1,0c0.1,0,0.1,0,0.1-0.1C21.1,12.6,21.2,12.6,21.3,12.7z M17,21.2
		c1,0,2.1,0,3.1,0c0.3,0,0.6,0,0.8,0c0.2,0,0.3-0.1,0.3-0.3c0-1.2,0-2.3,0-3.5c0-0.2-0.2-0.4-0.4-0.4c-2.6,0-5.1,0-7.7,0
		c-0.2,0-0.4,0.2-0.4,0.4c0,1.2,0,2.4,0,3.6c0,0,0,0.1,0,0.1c0.1,0,0.2,0.1,0.3,0.1C14.4,21.2,15.7,21.2,17,21.2z M25.6,12.7
		c0.1,0,0.1-0.1,0.2,0c0,0.1,0.1,0.1,0.2,0.1c1.2,0,2.3,0,3.5,0c0.1,0,0.1,0,0.1,0c0.1-0.1,0.2-0.2,0.2-0.4c0-2.6,0-5.1,0-7.7
		c0-0.2-0.1-0.3-0.3-0.3c-1.1,0-2.3,0-3.4,0c-0.2,0-0.3,0.1-0.3,0.3c0,2.6,0,5.1,0,7.7C25.6,12.5,25.6,12.6,25.6,12.7z M17,25.5
		c0.8,0,1.6,0,2.4,0c0.5,0,1,0,1.5,0c0.2,0,0.3-0.1,0.3-0.2c0-1.2,0-2.4,0-3.6c0-0.1-0.1-0.2-0.2-0.2c-0.1,0-0.2,0-0.2,0
		c-2.5,0-5,0-7.5,0c-0.1,0-0.1,0-0.2,0c-0.2,0-0.3,0.1-0.3,0.3c0,1.2,0,2.3,0,3.5c0,0.2,0.1,0.3,0.3,0.3
		C14.5,25.5,15.8,25.5,17,25.5z M8.5,12.7c0-0.2,0-0.3,0-0.4c0-2.6,0-5.1,0-7.7c0-0.2-0.1-0.3-0.3-0.3c-1.2,0-2.3,0-3.5,0
		c-0.2,0-0.3,0.1-0.3,0.3c0,2.6,0,5.2,0,7.8c0,0.2,0.1,0.3,0.3,0.3c1.1,0,2.2,0,3.3,0c0.1,0,0.2,0,0.3,0C8.4,12.7,8.4,12.7,8.5,12.7
		z M25.5,12.8c-1.4,0-2.7,0-4.1,0c0,0,0.1,0.1,0,0.1c-0.1,0-0.1,0.1-0.1,0.2c0,1.2,0,2.3,0,3.5c0,0.2,0.2,0.4,0.4,0.4
		c1.2,0,2.3,0,3.5,0c0.2,0,0.4-0.2,0.4-0.4c0-0.3,0-0.6,0-0.9c0-0.9,0-1.7,0-2.6c0-0.1,0-0.1-0.1-0.2C25.4,12.9,25.4,12.9,25.5,12.8
		z M29.7,23.4c0-0.6,0-1.2,0-1.8c0-0.2-0.1-0.3-0.3-0.3c-1.2,0-2.3,0-3.5,0c-0.2,0-0.3,0.1-0.3,0.3c0,1.2,0,2.3,0,3.5
		c0,0.2,0.1,0.4,0.4,0.4c1.1,0,2.2,0,3.4,0c0.3,0,0.4-0.1,0.4-0.4C29.7,24.6,29.7,24,29.7,23.4z M8.6,23.4c0,0.6,0,1.2,0,1.8
		c0,0.2,0.1,0.3,0.3,0.3c1.1,0,2.3,0,3.4,0c0.2,0,0.4-0.1,0.4-0.3c0-1.2,0-2.4,0-3.6c0-0.1,0-0.1-0.1-0.2c-0.1-0.1-0.2-0.1-0.4-0.1
		c-1.1,0-2.2,0-3.3,0c0,0-0.1,0-0.1,0c-0.2,0-0.3,0.1-0.3,0.3C8.6,22.2,8.6,22.8,8.6,23.4z M8.4,23.4c0-0.6,0-1.2,0-1.8
		c0-0.2,0-0.2-0.2-0.2c-1.1,0-2.3,0-3.4,0c-0.2,0-0.2,0-0.2,0.2c0,1.2,0,2.3,0,3.5c0,0.1,0,0.2,0,0.2c0,0.1,0.1,0.1,0.2,0.1
		c1.2,0,2.4,0,3.5,0c0.1,0,0.2-0.1,0.2-0.2c0-0.1,0-0.1,0-0.2C8.4,24.6,8.4,24,8.4,23.4z"/>
	<path class="st1" d="M21.3,12.7c-0.1-0.1-0.2-0.1-0.2,0c0,0.1-0.1,0.1-0.1,0.1c0,0-0.1,0-0.1,0c-2.5,0-5.1,0-7.6,0
		c-0.1,0-0.1,0-0.2,0c-0.1,0-0.3,0.1-0.2,0.3c0,0,0,0.1,0,0.1c0,1.1,0,2.3,0,3.4c0,0.2-0.2,0.4-0.4,0.4c-1.1,0-2.3,0-3.4,0
		c-0.2,0-0.4-0.2-0.4-0.4c0-1.1,0-2.3,0-3.4c0-0.1,0.1-0.2,0-0.3c0.3,0.1,0.5,0,0.8,0c1,0,2,0,3,0c0.3,0,0.5-0.2,0.5-0.5
		c0-1.2,0-2.3,0-3.5c0-0.2,0.1-0.3,0.3-0.3c2.6,0,5.1,0,7.7,0c0.2,0,0.3,0.1,0.3,0.3c0,1.1,0,2.3,0,3.4
		C21.2,12.4,21.2,12.5,21.3,12.7z"/>
	<path class="st2" d="M17,21.2c-1.3,0-2.6,0-3.9,0c-0.1,0-0.2-0.1-0.3-0.1c0,0,0-0.1,0-0.1c0-1.2,0-2.4,0-3.6c0-0.2,0.2-0.4,0.4-0.4
		c2.6,0,5.1,0,7.7,0c0.2,0,0.4,0.2,0.4,0.4c0,1.2,0,2.3,0,3.5c0,0.2-0.1,0.3-0.3,0.3c-0.3,0-0.6,0-0.8,0
		C19.1,21.2,18.1,21.2,17,21.2z"/>
	<path class="st1" d="M25.6,12.7c0-0.1,0-0.2,0-0.3c0-2.6,0-5.1,0-7.7c0-0.2,0.1-0.3,0.3-0.3c1.1,0,2.3,0,3.4,0
		c0.2,0,0.3,0.1,0.3,0.3c0,2.6,0,5.1,0,7.7c0,0.1,0,0.3-0.2,0.4c0,0-0.1,0-0.1,0c-1.2,0-2.3,0-3.5,0c-0.1,0-0.1,0-0.2-0.1
		C25.7,12.6,25.6,12.7,25.6,12.7z"/>
	<path class="st1" d="M17,25.5c-1.3,0-2.6,0-3.8,0c-0.2,0-0.3-0.1-0.3-0.3c0-1.2,0-2.3,0-3.5c0-0.2,0.1-0.3,0.3-0.3
		c0.1,0,0.1,0,0.2,0c2.5,0,5,0,7.5,0c0.1,0,0.2,0,0.2,0c0.1,0,0.2,0.1,0.2,0.2c0,1.2,0,2.4,0,3.6c0,0.1-0.1,0.2-0.3,0.2
		c-0.5,0-1,0-1.5,0C18.6,25.5,17.8,25.5,17,25.5z"/>
	<path class="st1" d="M8.5,12.7c-0.1,0-0.1-0.1-0.1-0.1c-0.1,0.1-0.2,0-0.3,0c-1.1,0-2.2,0-3.3,0c-0.3,0-0.3-0.1-0.3-0.3
		c0-2.6,0-5.2,0-7.8c0-0.2,0.1-0.3,0.3-0.3c1.2,0,2.3,0,3.5,0c0.2,0,0.3,0.1,0.3,0.3c0,2.6,0,5.1,0,7.7C8.4,12.5,8.5,12.6,8.5,12.7z
		"/>
	<path class="st1" d="M25.5,12.8c-0.1,0.1-0.1,0.1,0,0.1c0.1,0,0.1,0.1,0.1,0.2c0,0.9,0,1.7,0,2.6c0,0.3,0,0.6,0,0.9
		c0,0.2-0.2,0.4-0.4,0.4c-1.2,0-2.3,0-3.5,0c-0.2,0-0.4-0.2-0.4-0.4c0-1.2,0-2.3,0-3.5c0-0.1,0-0.1,0.1-0.2c0.1,0,0-0.1,0-0.1
		C22.7,12.8,24.1,12.8,25.5,12.8z"/>
	<path class="st1" d="M29.7,23.4c0,0.6,0,1.2,0,1.7c0,0.2-0.1,0.4-0.4,0.4c-1.1,0-2.2,0-3.4,0c-0.2,0-0.4-0.1-0.4-0.4
		c0-1.2,0-2.3,0-3.5c0-0.2,0.1-0.3,0.3-0.3c1.2,0,2.3,0,3.5,0c0.2,0,0.3,0.1,0.3,0.3C29.7,22.2,29.7,22.8,29.7,23.4z"/>
	<path class="st2" d="M8.6,23.4c0-0.6,0-1.2,0-1.8c0-0.2,0.1-0.3,0.3-0.3c0,0,0.1,0,0.1,0c1.1,0,2.2,0,3.3,0c0.1,0,0.3,0,0.4,0.1
		c0,0.1,0.1,0.1,0.1,0.2c0,1.2,0,2.4,0,3.6c0,0.2-0.1,0.3-0.4,0.3c-1.1,0-2.3,0-3.4,0c-0.2,0-0.3-0.2-0.3-0.3
		C8.6,24.6,8.6,24,8.6,23.4z"/>
	<path class="st1" d="M8.4,23.4c0,0.6,0,1.1,0,1.7c0,0.1,0,0.1,0,0.2c0,0.1-0.1,0.2-0.2,0.2c-1.2,0-2.4,0-3.5,0
		c-0.1,0-0.2,0-0.2-0.1c0-0.1,0-0.2,0-0.2c0-1.2,0-2.3,0-3.5c0-0.2,0-0.2,0.2-0.2c1.1,0,2.3,0,3.4,0c0.2,0,0.2,0,0.2,0.2
		C8.4,22.2,8.4,22.8,8.4,23.4z"/>
</g>
</svg>
