<?xml version="1.0" encoding="utf-8"?>
<!-- Generator: Adobe Illustrator 25.4.0, SVG Export Plug-In . SVG Version: 6.00 Build 0)  -->
<svg version="1.1" id="Layer_1" xmlns="http://www.w3.org/2000/svg" xmlns:xlink="http://www.w3.org/1999/xlink" x="0px" y="0px"
	 viewBox="0 0 34 34" style="enable-background:new 0 0 34 34;" xml:space="preserve">
<style type="text/css">
	.st0{fill:#00191A;}
	.st1{fill:#7FFCFE;}
	.st2{fill:#00E1E5;}
</style>
<g>
	<path class="st0" d="M0.1,33.8c0-11.2,0-22.4,0-33.6c0.1,0,0.2-0.1,0.2-0.2c11.2,0,22.4,0,33.5,0c0,0,0,0.1,0,0.1
		C34,0.2,34,0.3,34,0.5c0,11,0,22,0,33c0,0,0,0.1,0,0.1c0,0.1,0,0.1-0.1,0.2c-0.1,0.1-0.2,0.1-0.3,0.1c-10.3,0-20.7,0-31,0
		c-0.7,0-1.4,0-2.1,0c-0.1,0-0.2,0-0.3-0.1C0.1,33.8,0.1,33.8,0.1,33.8z M8.7,4.2c-1.3,0-2.6,0-3.9,0c-0.3,0-0.5,0.1-0.5,0.4
		c0,2.3,0,4.6,0,6.9c0,0.3,0,0.5,0,0.8c0,0.3,0.1,0.4,0.4,0.4c2.6,0,5.2,0,7.8,0c0.3,0,0.3,0,0.3,0.3c0,1.2,0,2.4,0,3.6
		c0,0.2,0.1,0.4,0.4,0.4c2.6,0,5.1,0,7.7,0c0,0,0.1,0,0.1,0c0.2,0,0.3-0.2,0.3-0.3c0-1.2,0-2.5,0-3.7c0-0.2,0-0.3,0.3-0.3
		c0.7,0,1.4,0,2.1,0c1.9,0,3.8,0,5.8,0c0.2,0,0.4-0.2,0.4-0.3c0-1.4,0-2.9,0.1-4.3c0.1-1.1,0-2.3,0-3.4c0-0.3-0.2-0.5-0.5-0.5
		c-2.8,0-5.6,0-8.5,0.1c-2.9,0.1-5.7,0-8.6,0C11,4.2,9.8,4.2,8.7,4.2z M17,29.8c4.1,0,8.2,0,12.3,0c0.3,0,0.4-0.2,0.4-0.4
		c0-1.4,0-2.8,0-4.2c0-2.6,0-5.2,0-7.8c0-0.2-0.2-0.4-0.4-0.4c-1.1,0-2.3,0-3.4,0c-0.3,0-0.4,0.2-0.4,0.4c0,1.1,0,2.3,0,3.4
		c0,0.3-0.1,0.4-0.4,0.4c-1.1,0-2.3,0-3.4,0c-0.3,0-0.4,0.2-0.4,0.4c0,1.1,0,2.3,0,3.4c0,0.3-0.1,0.4-0.4,0.4c-2.6,0-5.1,0-7.7,0
		c-0.3,0-0.4-0.1-0.4-0.4c0-1.1,0-2.3,0-3.4c0-0.3-0.2-0.4-0.4-0.4c-1.1,0-2.3,0-3.4,0c-0.3,0-0.4-0.1-0.4-0.4c0-1.2,0-2.3,0-3.5
		c0-0.2-0.2-0.4-0.4-0.4c-1.2,0-2.3,0-3.5,0c-0.2,0-0.4,0.2-0.4,0.4c0,2.8,0,5.5,0,8.3c0,1.2,0,2.4,0,3.6c0,0.3,0.2,0.5,0.5,0.5
		C8.8,29.8,12.9,29.8,17,29.8z"/>
	<path class="st1" d="M0.1,33.8c0.1,0,0.1,0,0.1,0.1C0.2,33.9,0.3,34,0.4,34c0.7,0,1.4,0,2.1,0c10.3,0,20.7,0,31,0
		c0.1,0,0.2,0,0.3-0.1c0-0.1,0.1-0.1,0.1-0.2c0,0,0-0.1,0-0.1c0-11,0-22,0-33c0-0.2,0-0.3-0.2-0.4c0,0,0,0,0-0.1C34,0,34,0,34,0.2
		c0,11.2,0,22.4,0,33.7c0,0.1,0,0.1-0.1,0.1c-11.2,0-22.4,0-33.6,0C0.1,34,0.1,34,0.1,33.8z"/>
	<path class="st1" d="M0.2,0c0,0.1-0.1,0.2-0.2,0.2C0.1,0,0.1,0,0.2,0z"/>
	<path class="st2" d="M8.7,4.2c1.2,0,2.3,0,3.5,0c2.9,0,5.8,0.1,8.6,0c2.8-0.1,5.6,0,8.5-0.1c0.3,0,0.5,0.2,0.5,0.5
		c0,1.1,0,2.3,0,3.4c-0.1,1.4,0,2.9-0.1,4.3c0,0.2-0.2,0.3-0.4,0.3c-1.9,0-3.8,0-5.8,0c-0.7,0-1.4,0-2.1,0c-0.2,0-0.3,0-0.3,0.3
		c0,1.2,0,2.5,0,3.7c0,0.1-0.2,0.3-0.3,0.3c0,0-0.1,0-0.1,0c-2.6,0-5.1,0-7.7,0c-0.2,0-0.4-0.1-0.4-0.4c0-1.2,0-2.4,0-3.6
		c0-0.3,0-0.3-0.3-0.3c-2.6,0-5.2,0-7.8,0c-0.3,0-0.4-0.1-0.4-0.4c0-0.3,0-0.5,0-0.8c0-2.3,0-4.6,0-6.9c0-0.3,0.1-0.4,0.5-0.4
		C6,4.2,7.3,4.2,8.7,4.2z M17,12.7c1.3,0,2.6,0,4,0c0.2,0,0.3,0,0.3-0.3c0-1.2,0-2.4,0-3.6c0-0.2-0.2-0.4-0.4-0.4
		c-2.6,0-5.1,0-7.7,0c-0.2,0-0.4,0.2-0.4,0.4c0,1.2,0,2.4,0,3.6c0,0.2,0,0.3,0.3,0.3C14.4,12.7,15.7,12.7,17,12.7z M8.5,8.5
		c1.3,0,2.5,0,3.8,0c0.2,0,0.3-0.1,0.5-0.2c0,0,0-0.1,0-0.1c0-1.2,0-2.3,0-3.5c0,0,0-0.1,0-0.1c-0.1-0.1-0.2-0.1-0.4-0.1
		c-2.6,0-5.1,0-7.7,0c-0.2,0-0.3,0.1-0.3,0.3c0,1.1,0,2.2,0,3.3c0,0.1,0,0.2,0,0.3c0,0.2,0,0.3,0.3,0.3C6,8.5,7.3,8.5,8.5,8.5z
		 M25.5,4.3c-1.3,0-2.6,0-3.9,0c-0.2,0-0.3,0.1-0.3,0.3c0,1.2,0,2.4,0,3.5c0,0.2,0.2,0.3,0.3,0.3c2.6,0,5.2,0,7.7,0
		c0.2,0,0.3-0.1,0.3-0.3c0-1.2,0-2.3,0-3.5c0-0.2-0.1-0.3-0.3-0.3C28.1,4.3,26.8,4.3,25.5,4.3z"/>
	<path class="st2" d="M17,29.8c-4.1,0-8.2,0-12.3,0c-0.3,0-0.5-0.2-0.5-0.5c0-1.2,0-2.4,0-3.6c0-2.8,0-5.5,0-8.3
		c0-0.2,0.2-0.4,0.4-0.4c1.2,0,2.3,0,3.5,0c0.2,0,0.4,0.2,0.4,0.4c0,1.2,0,2.3,0,3.5c0,0.3,0.1,0.4,0.4,0.4c1.1,0,2.3,0,3.4,0
		c0.3,0,0.4,0.2,0.4,0.4c0,1.1,0,2.3,0,3.4c0,0.3,0.1,0.4,0.4,0.4c2.6,0,5.1,0,7.7,0c0.3,0,0.4-0.1,0.4-0.4c0-1.1,0-2.3,0-3.4
		c0-0.3,0.2-0.4,0.4-0.4c1.1,0,2.3,0,3.4,0c0.3,0,0.4-0.1,0.4-0.4c0-1.1,0-2.3,0-3.4c0-0.3,0.2-0.4,0.4-0.4c1.1,0,2.3,0,3.4,0
		c0.2,0,0.4,0.2,0.4,0.4c0,2.6,0,5.2,0,7.8c0,1.4,0,2.8,0,4.2c0,0.3-0.2,0.4-0.4,0.4C25.2,29.8,21.1,29.8,17,29.8z M4.4,21.3
		c0,1.3,0,2.5,0,3.8c0,0.1,0,0.1,0,0.2c0,0.1,0.2,0.3,0.3,0.3c2.6,0,5.1,0,7.7,0c0.1,0,0.2-0.1,0.3-0.1c0.1,0,0-0.1,0-0.2
		c0,0,0-0.1,0-0.1c0-1.2,0-2.3,0-3.5c0-0.2-0.1-0.3-0.3-0.3c-1.2,0-2.3,0-3.5,0c-0.2,0-0.5-0.2-0.5-0.5c0-1.2,0-2.3,0-3.5
		c0-0.2-0.1-0.3-0.3-0.3c-1.1,0-2.3,0-3.4,0c-0.2,0-0.3,0.1-0.3,0.3C4.4,18.7,4.4,20,4.4,21.3z M29.6,21.3c0-1.3,0-2.6,0-3.9
		c0-0.2-0.1-0.3-0.3-0.3c-1.1,0-2.3,0-3.4,0c-0.2,0-0.3,0.1-0.3,0.3c0,1.2,0,2.3,0,3.5c0,0.3-0.2,0.5-0.5,0.5c-1.2,0-2.3,0-3.5,0
		c-0.2,0-0.3,0.1-0.3,0.3c0,1.2,0,2.3,0,3.5c0,0.3,0.1,0.3,0.3,0.3c2.5,0,5.1,0,7.6,0c0,0,0.1,0,0.1,0c0.1,0,0.2-0.1,0.2-0.2
		c0-0.1,0-0.1,0-0.2C29.6,23.8,29.6,22.5,29.6,21.3z"/>
	<path class="st0" d="M17,12.7c-1.3,0-2.6,0-4,0c-0.2,0-0.3,0-0.3-0.3c0-1.2,0-2.4,0-3.6c0-0.2,0.2-0.4,0.4-0.4c2.6,0,5.1,0,7.7,0
		c0.2,0,0.4,0.2,0.4,0.4c0,1.2,0,2.4,0,3.6c0,0.2,0,0.3-0.3,0.3C19.6,12.7,18.3,12.7,17,12.7z"/>
	<path class="st1" d="M8.5,8.5c-1.3,0-2.5,0-3.8,0c-0.3,0-0.3-0.1-0.3-0.3c0-0.1,0-0.2,0-0.3c0-1.1,0-2.2,0-3.3
		c0-0.2,0.1-0.3,0.3-0.3c2.6,0,5.1,0,7.7,0c0.2,0,0.3,0.1,0.4,0.1c0,0,0,0.1,0,0.1c0,1.2,0,2.3,0,3.5c0,0.1,0,0.1,0,0.1
		c-0.1,0.1-0.2,0.2-0.5,0.2C11.1,8.5,9.8,8.5,8.5,8.5z"/>
	<path class="st1" d="M25.5,4.3c1.3,0,2.6,0,3.9,0c0.2,0,0.3,0.1,0.3,0.3c0,1.2,0,2.3,0,3.5c0,0.2-0.1,0.3-0.3,0.3
		c-2.6,0-5.2,0-7.7,0c-0.2,0-0.3-0.1-0.3-0.3c0-1.2,0-2.4,0-3.5c0-0.2,0.1-0.3,0.3-0.3C22.9,4.3,24.2,4.3,25.5,4.3z"/>
	<path class="st1" d="M4.4,21.3c0-1.3,0-2.6,0-3.9c0-0.2,0.1-0.3,0.3-0.3c1.1,0,2.3,0,3.4,0c0.2,0,0.3,0.1,0.3,0.3
		c0,1.2,0,2.3,0,3.5c0,0.3,0.2,0.5,0.5,0.5c1.2,0,2.3,0,3.5,0c0.2,0,0.3,0.1,0.3,0.3c0,1.2,0,2.3,0,3.5c0,0,0,0.1,0,0.1
		c0,0.1,0.1,0.1,0,0.2c-0.1,0.1-0.2,0.1-0.3,0.1c-2.6,0-5.1,0-7.7,0c-0.1,0-0.3-0.2-0.3-0.3c0-0.1,0-0.1,0-0.2
		C4.4,23.8,4.4,22.5,4.4,21.3z"/>
	<path class="st1" d="M29.6,21.3c0,1.3,0,2.6,0,3.8c0,0.1,0,0.1,0,0.2c0,0.1-0.1,0.2-0.2,0.2c0,0-0.1,0-0.1,0c-2.5,0-5.1,0-7.6,0
		c-0.3,0-0.3-0.1-0.3-0.3c0-1.2,0-2.3,0-3.5c0-0.2,0.1-0.3,0.3-0.3c1.2,0,2.3,0,3.5,0c0.3,0,0.5-0.2,0.5-0.5c0-1.2,0-2.3,0-3.5
		c0-0.2,0.1-0.3,0.3-0.3c1.1,0,2.3,0,3.4,0c0.2,0,0.3,0.1,0.3,0.3C29.6,18.7,29.6,20,29.6,21.3z"/>
</g>
</svg>
