<?xml version="1.0" encoding="utf-8"?>
<!-- Generator: Adobe Illustrator 25.4.0, SVG Export Plug-In . SVG Version: 6.00 Build 0)  -->
<svg version="1.1" id="Layer_1" xmlns="http://www.w3.org/2000/svg" xmlns:xlink="http://www.w3.org/1999/xlink" x="0px" y="0px"
	 viewBox="0 0 34 34" style="enable-background:new 0 0 34 34;" xml:space="preserve">
<style type="text/css">
	.st0{fill:#9AFE7F;}
	.st1{fill:#FDFDFD;}
	.st2{fill:#061A00;}
	.st3{fill:#7FFCFE;}
</style>
<g>
	<g>
		<path class="st0" d="M17,0C12.8,0,8.7,0,4.5,0C4.3,0,4.2,0.1,4.2,0.3c0,4,0,8,0,12c0,0.3-0.2,0.5-0.5,0.5c-1.2,0-2.3,0-3.5,0
			c-0.2,0-0.3,0.1-0.3,0.3c0,4,0,8,0,12.1c0,0.2,0.1,0.3,0.3,0.3c1.2,0,2.3,0,3.5,0c0.3,0,0.5,0.2,0.5,0.5c0,2.6,0,5.2,0,7.7
			c0,0.2,0.1,0.4,0.3,0.4c8.3,0,16.6,0,24.8,0c0.2,0,0.3-0.1,0.3-0.3c0-2.6,0-5.2,0-7.7c0-0.3,0.2-0.5,0.5-0.5c1.2,0,2.3,0,3.5,0
			c0.2,0,0.3-0.1,0.3-0.3c0-4,0-8,0-12c0-0.2-0.1-0.3-0.3-0.3c-1.2,0-2.3,0-3.5,0c-0.3,0-0.5-0.2-0.5-0.5c0-4,0-8,0-12
			c0-0.2-0.1-0.4-0.4-0.4C25.2,0,21.1,0,17,0z"/>
		<path class="st1" d="M34.1,25.7c-0.1,0,0-0.1,0-0.1c0-1,0-1.9,0-2.9c0-3.1,0-6.2,0-9.3c0-0.2,0-0.4,0-0.6c0,0,0-0.1,0-0.1
			C34.1,17,34.1,21.3,34.1,25.7z"/>
		<path class="st2" d="M17,0c4.1,0,8.3,0,12.4,0c0.3,0,0.4,0.1,0.4,0.4c0,4,0,8,0,12c0,0.3,0.2,0.5,0.5,0.5c1.2,0,2.3,0,3.5,0
			c0.2,0,0.3,0.1,0.3,0.3c0,4,0,8,0,12c0,0.2-0.1,0.3-0.3,0.3c-1.2,0-2.3,0-3.5,0c-0.3,0-0.5,0.2-0.5,0.5c0,2.6,0,5.2,0,7.7
			c0,0.2-0.1,0.3-0.3,0.3c-8.3,0-16.6,0-24.8,0c-0.2,0-0.3-0.1-0.3-0.4c0-2.6,0-5.2,0-7.7c0-0.3-0.2-0.5-0.5-0.5c-1.2,0-2.3,0-3.5,0
			c-0.2,0-0.3-0.1-0.3-0.3c0-4,0-8,0-12.1c0-0.2,0.1-0.3,0.3-0.3c1.2,0,2.3,0,3.5,0c0.3,0,0.5-0.2,0.5-0.5c0-4,0-8,0-12
			C4.2,0.1,4.3,0,4.5,0C8.7,0,12.8,0,17,0z M17,29.6c2.7,0,5.4,0,8.1,0c0.2,0,0.2,0,0.2-0.2c0-1.1,0-2.3,0-3.4c0-0.1,0-0.3,0.1-0.4
			c0,0,0,0,0,0c0-0.1,0.1-0.3,0.1-0.4c0-1.2,0-2.3,0-3.5c0-0.1,0-0.3,0.1-0.4c0,0,0.1-0.1,0.1-0.1c0-0.1,0.1-0.2,0.2-0.2
			c1.2,0,2.3,0,3.5,0c0.2,0,0.2,0,0.2-0.2c0-1.1,0-2.3,0-3.4c0-0.2,0-0.2-0.2-0.2c-1.2,0-2.3,0-3.5,0c-0.1,0-0.2,0-0.2-0.1
			c-0.1-0.2-0.2-0.3-0.2-0.6c0-4,0-8,0-11.9c0,0,0-0.1,0-0.1c0-0.1-0.2-0.3-0.3-0.3c-1.2,0-2.5,0-3.7,0c-0.1,0-0.2,0-0.2,0.1
			c-0.1,0.1-0.3,0.1-0.4,0.1c-2.6,0-5.2,0-7.8,0c-0.1,0-0.2,0-0.3-0.1c0,0,0,0-0.1,0c-0.1,0-0.3-0.1-0.4-0.1c-1.2,0-2.3,0-3.5,0
			c-0.2,0-0.4,0.1-0.4,0.4c0,4,0,8,0,12c0,0,0,0.1,0,0.1c0,0.1,0,0.2-0.1,0.2c-0.1,0-0.1,0.1-0.1,0.2c0,0.1-0.1,0.2-0.2,0.2
			c-1.2,0-2.3,0-3.5,0c-0.1,0-0.2,0-0.2,0.2c0,1.2,0,2.3,0,3.5c0,0.2,0,0.2,0.2,0.2c1.2,0,2.3,0,3.5,0c0.1,0,0.2,0,0.2,0.2
			c0,0.1,0,0.1,0,0.1c0.1,0.1,0.1,0.2,0.1,0.3c0,1.1,0,2.3,0,3.4c0,0.2,0,0.3,0,0.5c0,0,0,0.1,0.1,0.1c0.2,0.1,0.1,0.2,0.1,0.4
			c0,1.1,0,2.2,0,3.4c0,0.2,0,0.2,0.2,0.2C11.6,29.6,14.3,29.6,17,29.6z"/>
		<path class="st0" d="M17,29.6c-2.7,0-5.4,0-8.1,0c-0.2,0-0.2,0-0.2-0.2c0-1.1,0-2.2,0-3.4c0-0.1,0-0.3-0.1-0.4
			c0,0-0.1-0.1-0.1-0.1c0-0.2,0-0.3,0-0.5c0-1.1,0-2.3,0-3.4c0-0.1,0-0.2-0.1-0.3c0,0-0.1-0.1,0-0.1c0-0.1-0.1-0.2-0.2-0.2
			c-1.2,0-2.3,0-3.5,0c-0.2,0-0.2,0-0.2-0.2c0-1.2,0-2.3,0-3.5c0-0.1,0-0.2,0.2-0.2c1.2,0,2.3,0,3.5,0c0.1,0,0.2,0,0.2-0.2
			c0-0.1,0-0.1,0.1-0.2c0.1-0.1,0.1-0.1,0.1-0.2c0,0,0-0.1,0-0.1c0-4,0-8,0-12c0-0.3,0.1-0.4,0.4-0.4c1.2,0,2.3,0,3.5,0
			c0.2,0,0.3,0.1,0.4,0.1c0,0,0,0,0.1,0c0.1,0.1,0.2,0.1,0.3,0.1c2.6,0,5.2,0,7.8,0c0.2,0,0.3,0,0.4-0.1c0.1,0,0.1-0.1,0.2-0.1
			c1.2,0,2.5,0,3.7,0c0.1,0,0.3,0.1,0.3,0.3c0,0,0,0.1,0,0.1c0,4,0,8,0,11.9c0,0.2,0.1,0.4,0.2,0.6c0,0.1,0.1,0.1,0.2,0.1
			c1.2,0,2.3,0,3.5,0c0.2,0,0.2,0,0.2,0.2c0,1.1,0,2.3,0,3.4c0,0.2,0,0.2-0.2,0.2c-1.2,0-2.3,0-3.5,0c-0.1,0-0.2,0-0.2,0.2
			c0,0.1,0,0.1-0.1,0.1c-0.1,0.1-0.1,0.2-0.1,0.4c0,1.2,0,2.3,0,3.5c0,0.1-0.1,0.3-0.1,0.4c0,0,0,0,0,0c-0.2,0.1-0.1,0.2-0.1,0.4
			c0,1.1,0,2.3,0,3.4c0,0.2,0,0.2-0.2,0.2C22.4,29.6,19.7,29.6,17,29.6z M17,8.2c-1.3,0-2.6,0-3.9,0c0,0-0.1,0-0.1,0
			c-0.1,0-0.2,0-0.2,0.2c0,0.2-0.1,0.3-0.1,0.5c0,1.1,0,2.1,0,3.2c0,0.2,0,0.5,0.2,0.6c0,0,0,0,0,0c0,0.2,0.1,0.1,0.2,0.1
			c2.6,0,5.1,0,7.7,0c0.2,0,0.4-0.2,0.4-0.3c0-0.1,0-0.3,0-0.4c0-1.1,0-2.1,0-3.2c0-0.2,0-0.4-0.2-0.5c0,0,0-0.1,0-0.1
			c0-0.1-0.1-0.2-0.2-0.2C19.5,8.2,18.2,8.2,17,8.2z M17,16.8c-1.3,0-2.6,0-3.9,0c-0.1,0-0.2,0-0.2,0.1c0,0,0,0.1-0.1,0.1
			c-0.1,0.1-0.1,0.2-0.1,0.3c0,1.2,0,2.4,0,3.6c0,0.2,0.2,0.3,0.4,0.3c2.6,0,5.2,0,7.8,0c0.2,0,0.4-0.2,0.4-0.4c0-1.2,0-2.4,0-3.6
			c0-0.1,0-0.2-0.1-0.3c0,0-0.1-0.1-0.1-0.1c0-0.1-0.1-0.1-0.2-0.1C19.6,16.8,18.3,16.8,17,16.8z"/>
		<path class="st2" d="M17,8.2c1.3,0,2.6,0,3.9,0c0.1,0,0.2,0,0.2,0.2c0,0,0,0.1,0,0.1c0.2,0.1,0.2,0.3,0.2,0.5c0,1.1,0,2.1,0,3.2
			c0,0.1,0,0.3,0,0.4c0,0.2-0.2,0.3-0.4,0.3c-2.6,0-5.1,0-7.7,0c-0.1,0-0.2,0-0.2-0.1c0,0,0,0,0,0c-0.2-0.2-0.2-0.4-0.2-0.6
			c0-1.1,0-2.1,0-3.2c0-0.2,0.1-0.3,0.1-0.5c0-0.1,0.1-0.2,0.2-0.2c0,0,0.1,0,0.1,0C14.4,8.2,15.7,8.2,17,8.2z"/>
		<path class="st2" d="M17,16.8c1.3,0,2.6,0,3.9,0c0.1,0,0.2,0,0.2,0.1c0,0,0,0.1,0.1,0.1c0.1,0.1,0.1,0.2,0.1,0.3
			c0,1.2,0,2.4,0,3.6c0,0.2-0.2,0.4-0.4,0.4c-2.6,0-5.2,0-7.8,0c-0.2,0-0.4-0.2-0.4-0.3c0-1.2,0-2.4,0-3.6c0-0.1,0-0.2,0.1-0.3
			c0,0,0.1-0.1,0.1-0.1c0-0.1,0.1-0.1,0.2-0.1C14.4,16.8,15.7,16.8,17,16.8z"/>
	</g>
	<g>
		<rect x="8.3" y="4.1" class="st3" width="4.6" height="22.1"/>
		<rect x="21" y="4.1" class="st3" width="4.6" height="22.1"/>
	</g>
</g>
</svg>
