<?xml version="1.0" encoding="utf-8"?>
<!-- Generator: Adobe Illustrator 25.4.0, SVG Export Plug-In . SVG Version: 6.00 Build 0)  -->
<svg version="1.1" id="Layer_1" xmlns="http://www.w3.org/2000/svg" xmlns:xlink="http://www.w3.org/1999/xlink" x="0px" y="0px"
	 viewBox="0 0 30 30" style="enable-background:new 0 0 30 30;" xml:space="preserve">
<style type="text/css">
	.st0{fill:#1B1201;}
	.st1{fill:#E39300;}
	.st2{fill:#FED17F;}
</style>
<g>
	<path class="st0" d="M15,1.1c4.5,0,8.9,0,13.4,0c0.1,0,0.2,0,0.2,0c0.1,0,0.2,0.1,0.2,0.2c0,0.1,0,0.1,0,0.2c0,7.8,0,15.6,0,23.4
		c0,0,0,0.1,0,0.1c0,0.2-0.1,0.3-0.3,0.3c-0.5,0-0.9,0-1.4,0c-0.5,0-0.9,0-1.4,0c-0.3,0-0.4,0.1-0.4,0.4c0,0.9,0,1.8,0,2.7
		c0,0.4,0,0.4-0.4,0.4c-6.7,0-13.3,0-20,0c-0.3,0-0.4,0-0.4-0.4c0-0.9,0-1.8,0-2.7c0-0.4-0.1-0.5-0.5-0.5c-0.9,0-1.8,0-2.7,0
		c-0.3,0-0.3,0-0.3-0.3c0-7.8,0-15.7,0-23.5c0-0.3,0-0.3,0.4-0.3C6,1.1,10.5,1.1,15,1.1z M25.5,8.1c0-1,0-2.1,0-3.1
		c0-0.4-0.1-0.5-0.5-0.5c-2.3,0-4.6,0-6.8,0c-2.3,0-4.6,0-6.9,0c-2.1,0-4.2,0-6.3,0c-0.3,0-0.5,0.1-0.5,0.5c0,1.3,0,2.7,0,4
		c0,1.9,0.1,3.8,0.1,5.7c0,0.2,0.1,0.3,0.3,0.3c0.9,0,1.8,0,2.7,0C7.9,15,8,15.1,8,15.4c0,0.9,0,1.8,0,2.7c0,0.3-0.1,0.4-0.4,0.4
		c-0.9,0-1.8,0-2.7,0c-0.3,0-0.4,0.1-0.4,0.4c0,0.9,0,1.8,0,2.7C4.5,21.9,4.6,22,5,22c0.9,0,1.8,0,2.6,0C7.9,22,8,22.1,8,22.4
		c0,0.9,0,1.8,0,2.7c0,0.3,0.1,0.4,0.4,0.4c0.9,0,1.8,0,2.7,0c0.3,0,0.4-0.1,0.4-0.4c0-0.9,0-1.8,0-2.7c0-0.3,0.1-0.4,0.4-0.4
		c2.1,0,4.1,0,6.2,0c0.3,0,0.4,0.1,0.4,0.4c0,0.9,0,1.8,0,2.7c0,0.3,0.1,0.4,0.4,0.4c0.9,0,1.8,0,2.7,0c0.3,0,0.4-0.1,0.4-0.4
		c0-0.9,0-1.8,0-2.7c0-0.3,0.1-0.4,0.4-0.4c0.9,0,1.8,0,2.7,0c0.3,0,0.4-0.1,0.4-0.4c0-0.9,0-1.8,0-2.7c0-0.3-0.1-0.4-0.4-0.4
		c-0.9,0-1.8,0-2.6,0c-0.3,0-0.4-0.1-0.4-0.4c0-0.9,0-1.8,0-2.7c0-0.4,0-0.4,0.4-0.4c0.9,0,1.7,0,2.6,0c0.3,0,0.5-0.1,0.5-0.5
		c0-1.3,0-2.5,0-3.8C25.5,9.9,25.5,9,25.5,8.1z"/>
	<path class="st1" d="M25.5,8.1c0,0.9,0,1.8,0,2.7c0,1.3,0,2.5,0,3.8c0,0.4-0.1,0.5-0.5,0.5c-0.9,0-1.7,0-2.6,0
		c-0.4,0-0.4,0-0.4,0.4c0,0.9,0,1.8,0,2.7c0,0.3,0.1,0.4,0.4,0.4c0.9,0,1.8,0,2.6,0c0.3,0,0.4,0.1,0.4,0.4c0,0.9,0,1.8,0,2.7
		c0,0.3-0.1,0.4-0.4,0.4c-0.9,0-1.8,0-2.7,0C22.1,22,22,22,22,22.4c0,0.9,0,1.8,0,2.7c0,0.3-0.1,0.4-0.4,0.4c-0.9,0-1.8,0-2.7,0
		c-0.3,0-0.4-0.1-0.4-0.4c0-0.9,0-1.8,0-2.7c0-0.3-0.1-0.4-0.4-0.4c-2.1,0-4.1,0-6.2,0c-0.3,0-0.4,0.1-0.4,0.4c0,0.9,0,1.8,0,2.7
		c0,0.3-0.1,0.4-0.4,0.4c-0.9,0-1.8,0-2.7,0c-0.3,0-0.4-0.1-0.4-0.4c0-0.9,0-1.8,0-2.7C8,22.1,7.9,22,7.6,22c-0.9,0-1.8,0-2.6,0
		c-0.3,0-0.4-0.1-0.4-0.4c0-0.9,0-1.8,0-2.7c0-0.3,0.1-0.4,0.4-0.4c0.9,0,1.8,0,2.7,0c0.3,0,0.4-0.1,0.4-0.4c0-0.9,0-1.8,0-2.7
		C8,15.1,7.9,15,7.6,15c-0.9,0-1.8,0-2.7,0c-0.2,0-0.4-0.1-0.3-0.3c0.1-1.9-0.1-3.8-0.1-5.7c0-1.3,0-2.7,0-4c0-0.4,0.1-0.5,0.5-0.5
		c2.1,0,4.2,0,6.3,0c2.3,0,4.6,0,6.9,0c2.3,0,4.6,0,6.8,0c0.4,0,0.5,0.1,0.5,0.5C25.5,6,25.5,7.1,25.5,8.1z M25.4,8.1
		c0-1,0-2.1,0-3.1c0-0.3-0.1-0.4-0.4-0.4c-2,0-4.1,0-6.1,0c-0.4,0-0.5,0.1-0.5,0.5c0,1.2,0,2.3,0.1,3.5c0,0.2,0,0.5,0,0.7
		c0,1.6,0,3.2,0,4.8c0,1.6,0.1,3.2-0.1,4.8c-0.1,0.9,0,1.8,0,2.7c0,0.2,0.2,0.4,0.4,0.4c0.9,0,1.8,0,2.8,0c0.1,0,0.2,0,0.3-0.1
		c0.1-0.1,0.1-0.2,0.1-0.3c0-1.1,0-2.3-0.1-3.4c-0.1-1.1-0.1-2.2,0-3.3c0.1-1,0-2,0-2.9c0-0.3,0.1-0.4,0.4-0.4c0.9,0,1.7,0,2.6,0
		c0.4,0,0.4,0,0.4-0.4C25.4,10.1,25.4,9.1,25.4,8.1z M8,4.6c-1,0-2.1,0-3.1,0c-0.3,0-0.3,0-0.3,0.3c0,2.1,0,4.2,0,6.2
		c0,0.3,0.1,0.3,0.3,0.3c0.9,0,1.8,0,2.7,0c0.2,0,0.4,0.1,0.4,0.3c0,1.2,0,2.5,0.1,3.7c0.1,1.1,0.1,2.2-0.1,3.2
		c-0.1,0.9,0,1.9,0,2.8C8,21.9,8.2,22,8.5,22c0.9,0,1.7,0,2.6,0c0.3,0,0.4-0.1,0.4-0.4c0-1.2,0-2.4,0-3.6c0-4.2,0-8.5,0.1-12.7
		c0-0.1,0-0.1,0-0.2c0-0.3,0-0.4-0.4-0.4C10.1,4.6,9.1,4.6,8,4.6z M18.5,13.3c0-1.6,0-3.2,0-4.8c0-0.1,0-0.1,0-0.2
		c0-0.2-0.1-0.3-0.3-0.3C16,8,14,8,11.9,8c-0.2,0-0.3,0.1-0.3,0.3c0,0.1,0,0.1,0,0.2c0,1,0,2,0,2.9c0,2.2,0,4.5,0,6.7
		c0,0.4,0.1,0.5,0.4,0.5c2,0,4,0,6,0c0.5,0,0.5-0.1,0.5-0.5C18.5,16.4,18.5,14.9,18.5,13.3z"/>
	<path class="st2" d="M25.4,8.1c0,1,0,2,0,3c0,0.4,0,0.4-0.4,0.4c-0.9,0-1.7,0-2.6,0c-0.3,0-0.4,0.1-0.4,0.4c0,1,0.1,2,0,2.9
		c-0.1,1.1-0.1,2.2,0,3.3c0.1,1.1,0,2.3,0.1,3.4c0,0.1,0,0.2-0.1,0.3c-0.1,0.1-0.2,0.1-0.3,0.1c-0.9,0-1.8,0-2.8,0
		c-0.2,0-0.4-0.2-0.4-0.4c0-0.9-0.1-1.8,0-2.7c0.2-1.6,0.1-3.2,0.1-4.8c0-1.6,0-3.2,0-4.8c0-0.2,0-0.5,0-0.7
		c-0.1-1.2-0.1-2.3-0.1-3.5c0-0.4,0.1-0.5,0.5-0.5c2,0,4.1,0,6.1,0c0.3,0,0.4,0.1,0.4,0.4C25.4,6,25.4,7,25.4,8.1z"/>
	<path class="st2" d="M8,4.6c1,0,2,0,3.1,0c0.3,0,0.4,0,0.4,0.4c0,0.1,0,0.1,0,0.2c-0.1,4.2-0.1,8.5-0.1,12.7c0,1.2,0,2.4,0,3.6
		c0,0.3-0.1,0.4-0.4,0.4c-0.9,0-1.7,0-2.6,0C8.2,22,8,21.9,8,21.6c0-0.9-0.1-1.9,0-2.8c0.1-1.1,0.1-2.2,0.1-3.2
		C8,14.3,8.1,13.1,8,11.8c0-0.2-0.1-0.3-0.4-0.3c-0.9,0-1.8,0-2.7,0c-0.3,0-0.3-0.1-0.3-0.3c0-2.1,0-4.2,0-6.2c0-0.3,0-0.3,0.3-0.3
		C6,4.6,7,4.6,8,4.6z"/>
	<path class="st0" d="M18.5,13.3c0,1.6,0,3.2,0,4.7c0,0.5-0.1,0.5-0.5,0.5c-2,0-4,0-6,0c-0.3,0-0.4-0.1-0.4-0.5c0-2.2,0-4.5,0-6.7
		c0-1,0-2,0-2.9c0-0.1,0-0.1,0-0.2c0-0.2,0.1-0.3,0.3-0.3C14,8,16,8,18.1,8c0.2,0,0.3,0.1,0.3,0.3c0,0.1,0,0.1,0,0.2
		C18.5,10.1,18.5,11.7,18.5,13.3z"/>
</g>
</svg>
