<?xml version="1.0" encoding="utf-8"?>
<!-- Generator: Adobe Illustrator 25.4.0, SVG Export Plug-In . SVG Version: 6.00 Build 0)  -->
<svg version="1.1" id="Layer_1" xmlns="http://www.w3.org/2000/svg" xmlns:xlink="http://www.w3.org/1999/xlink" x="0px" y="0px"
	 viewBox="0 0 30 30" style="enable-background:new 0 0 30 30;" xml:space="preserve">
<style type="text/css">
	.st0{fill:#FDFDFD;}
	.st1{fill:#7F92FE;}
	.st2{fill:#01051B;}
	.st3{fill:#031370;}
	.st4{fill:#0022E5;}
</style>
<g>
	<path class="st0" d="M0,30C0,30,0,30,0,30c0-0.1,0-0.1,0-0.2c0-9.9,0-19.8,0-29.6C0,0,0,0,0.2,0c9.9,0,19.8,0,29.6,0
		C29.9,0,30-0.1,30,0.1c-0.1-0.1-0.3-0.1-0.5-0.1c-3.5,0-6.9,0-10.4,0c-0.1,0-0.2,0-0.3,0c-0.1,0-0.2,0-0.2,0.2c0,0.1,0,0.2,0,0.3
		c0,1,0,1.9,0,2.9c0,0.2,0,0.3-0.3,0.3c-2.2,0-4.4,0-6.6,0c-0.2,0-0.3-0.1-0.3-0.3c0-1,0-1.9,0-2.9c0-0.1,0-0.1,0-0.2
		c0-0.2-0.1-0.2-0.2-0.2c-0.1,0-0.2,0-0.3,0c-3.5,0-7,0-10.5,0C0,0.1,0.1,0,0.1,0.4c0,2.9,0,5.8,0,8.8c0,1.8,0,3.7,0,5.5
		c0,0.4,0,0.4,0.4,0.4c1,0,2,0,2.9,0c0.3,0,0.3,0,0.3,0.3c0,1,0,2,0,2.9c0,0.3,0,0.3-0.3,0.3c-1,0-1.9,0-2.9,0c-0.5,0-0.5,0-0.5,0.5
		c0,3.5,0,7,0,10.5C0,29.7,0.1,29.9,0,30z"/>
	<path class="st0" d="M30,15.2c0,1.1,0,2.3,0,3.4c-0.1,0-0.3,0-0.4,0c-1,0-2,0-2.9,0c-0.1,0-0.2,0-0.2-0.2c0-1,0-2,0-3.1
		c0-0.1,0-0.2,0.1-0.2C27.7,15.2,28.9,15.2,30,15.2z"/>
	<path class="st1" d="M29.9,30c0-0.1,0-0.2,0.1-0.2C30,29.9,30.1,30,29.9,30z"/>
	<path class="st2" d="M29.8,7.6c0,2.3,0,4.7,0,7c0,0.2-0.1,0.3-0.3,0.3c-0.9,0-1.8,0-2.7,0c-0.2,0-0.3,0-0.5,0
		c-0.2,0-0.2,0.1-0.3,0.3c0,0.1,0,0.3,0,0.4c0,1,0,2,0,3c0,0.3,0.1,0.4,0.4,0.4c1,0,2.1,0,3.1,0c0.2,0,0.2,0.1,0.2,0.3
		c0,3.5,0,6.9,0,10.4c0,0.2,0,0.2-0.2,0.2c-3.5,0-6.9,0-10.4,0c-0.2,0-0.3-0.1-0.3-0.2c0-2.2,0-4.5,0-6.7c0-0.4-0.1-0.5-0.5-0.5
		c-2.3,0-4.6,0-6.8,0c-0.1,0-0.1,0-0.2,0c-0.2,0-0.3,0.1-0.3,0.4c0,0.5,0,1.1,0,1.6c0,1.7,0,3.5,0,5.2c0,0.3,0,0.3-0.3,0.3
		c-3.5,0-6.9,0-10.4,0c-0.2,0-0.2,0-0.2-0.2c0-3.5,0-6.9,0-10.4c0-0.3,0-0.3,0.3-0.3c1,0,2,0,3.1,0c0.3,0,0.4-0.1,0.4-0.4
		c0-1.1,0-2.1,0-3.2c0-0.5-0.2-0.5-0.6-0.5c-1,0-1.9,0-2.9,0c-0.3,0-0.3,0-0.3-0.3c0-4.7,0-9.4,0-14.1c0-0.2,0-0.3,0.3-0.3
		c3.5,0,6.9,0,10.4,0c0.3,0,0.3,0,0.3,0.3c0,1,0,2,0,3c0,0.4,0.1,0.5,0.4,0.5c2.3,0,4.6,0,7,0c0.3,0,0.4-0.1,0.4-0.4c0-1,0-2,0-3
		c0-0.3,0-0.3,0.3-0.3c3.5,0,6.9,0,10.4,0c0.2,0,0.2,0.1,0.2,0.3C29.8,2.8,29.8,5.2,29.8,7.6z M15,7.4c-2.3,0-4.7,0-7,0
		c-0.3,0-0.3,0-0.3-0.3c0-1,0-2,0-3c0-0.3-0.1-0.5-0.5-0.5c-0.6,0-1.3,0-1.9,0c-0.4,0-0.9,0-1.3,0c-0.3,0-0.5,0.1-0.5,0.5
		c0,0.1,0,0.1,0,0.2c0,2.2,0,4.4,0,6.6c0,0.4,0.1,0.5,0.5,0.5c1,0,2,0,3,0c0.2,0,0.2,0.1,0.2,0.2c0,0.1,0,0.2,0,0.2
		c0,2.2,0,4.3,0,6.5c0,0.4,0.1,0.5,0.5,0.5c1,0,2,0,3,0c0.4,0,0.5-0.1,0.5-0.5c0-1,0-2,0-3c0-0.2,0-0.3,0.3-0.3c2.2,0,4.4,0,6.7,0
		c0.2,0,0.3,0.1,0.3,0.2c0,1,0,2,0,3.1c0,0.3,0.2,0.4,0.4,0.4c1.1,0,2.1,0,3.2,0c0.3,0,0.4-0.2,0.5-0.5c0-0.1,0-0.1,0-0.2
		c0-2.2,0-4.4,0-6.6c0-0.3,0-0.3,0.3-0.3c1,0,2,0,3,0c0.3,0,0.4-0.1,0.4-0.4c0-1.2,0-2.3,0-3.5c0-1.1,0-2.3,0-3.5
		c0-0.3-0.1-0.5-0.5-0.5c-1.1,0-2.1,0-3.2,0c-0.4,0-0.5,0.1-0.5,0.5c0,1,0,2,0,3c0,0.3,0,0.3-0.3,0.3C19.7,7.4,17.4,7.4,15,7.4z
		 M7.7,24.4c0-0.5,0-1,0-1.6c0-0.3-0.1-0.5-0.5-0.5c-1,0-2.1,0-3.1,0c-0.3,0-0.5,0.2-0.5,0.5c0,1,0,2,0,3.1c0,0.3,0.2,0.5,0.5,0.5
		c1,0,2,0,3.1,0c0.4,0,0.5-0.1,0.5-0.5C7.7,25.4,7.7,24.9,7.7,24.4z M22.3,24.4c0,0.5,0,1.1,0,1.6c0,0.3,0.1,0.4,0.4,0.4
		c1.1,0,2.2,0,3.3,0c0.3,0,0.4-0.1,0.4-0.4c0-1.1,0-2.2,0-3.3c0-0.3-0.1-0.4-0.4-0.4c-1.1,0-2.1,0-3.2,0c-0.3,0-0.5,0.1-0.5,0.5
		C22.3,23.3,22.3,23.9,22.3,24.4z"/>
	<path class="st2" d="M15,7.4c2.3,0,4.7,0,7,0c0.3,0,0.3,0,0.3-0.3c0-1,0-2,0-3c0-0.4,0.1-0.5,0.5-0.5c1.1,0,2.1,0,3.2,0
		c0.3,0,0.5,0.1,0.5,0.5c0,1.2,0,2.3,0,3.5c0,1.2,0,2.3,0,3.5c0,0.3-0.1,0.4-0.4,0.4c-1,0-2,0-3,0c-0.3,0-0.3,0-0.3,0.3
		c0,2.2,0,4.4,0,6.6c0,0.1,0,0.1,0,0.2c0,0.3-0.2,0.5-0.5,0.5c-1.1,0-2.1,0-3.2,0c-0.3,0-0.4-0.2-0.4-0.4c0-1,0-2,0-3.1
		c0-0.2-0.1-0.2-0.3-0.2c-2.2,0-4.4,0-6.7,0c-0.2,0-0.3,0-0.3,0.3c0,1,0,2,0,3c0,0.4-0.1,0.5-0.5,0.5c-1,0-2,0-3,0
		c-0.4,0-0.5-0.1-0.5-0.5c0-2.2,0-4.3,0-6.5c0-0.1,0-0.2,0-0.2c0-0.2-0.1-0.2-0.2-0.2c-1,0-2,0-3,0c-0.4,0-0.5-0.1-0.5-0.5
		c0-2.2,0-4.4,0-6.6c0-0.1,0-0.1,0-0.2c0-0.3,0.1-0.5,0.5-0.5c0.4,0,0.9,0,1.3,0c0.6,0,1.3,0,1.9,0c0.3,0,0.5,0.1,0.5,0.5
		c0,1,0,2,0,3c0,0.3,0,0.3,0.3,0.3C10.3,7.4,12.7,7.4,15,7.4z M22.4,15.1c0.1-0.1,0.1-0.3,0.1-0.5c0-0.8,0-1.7,0-2.5
		c0-0.3,0-0.6,0.1-1c0.1-0.1,0.2-0.1,0.3-0.1c0.9,0,1.9,0,2.8,0c0.3,0,0.3,0,0.3-0.3c0-0.9,0-1.8,0-2.7c0-0.2,0-0.4,0.1-0.5
		c0.1-0.1,0-0.1,0.1-0.2c0.1-0.1,0-0.2,0-0.2c0-1,0-2,0-3c0-0.3-0.1-0.5-0.4-0.5c-1,0-2,0-3,0c-0.3,0-0.5,0.1-0.5,0.5c0,1,0,2,0,3
		c0,0.3-0.1,0.3-0.3,0.3c-4.7,0-9.4,0-14.2,0c-0.3,0-0.3-0.1-0.3-0.4c0-1,0-2,0-3c0-0.3-0.1-0.4-0.4-0.4c-1,0-2,0-3,0
		c-0.2,0-0.4,0.2-0.4,0.4c0,1,0,2.1,0,3.1c0,0.1,0,0.3,0.1,0.3c0,0.1,0.1,0.2,0.1,0.3c0,1,0,2,0,3c0,0.3,0,0.3,0.3,0.3
		c1,0,1.9,0,2.9,0c0.3,0,0.4,0.1,0.4,0.4c0,1.3,0,2.6,0.1,3.9c0.1,1,0,1.9,0,2.9c0,0.3,0.1,0.3,0.3,0.3c1,0,1.9,0,2.9,0
		c0.3,0,0.3-0.1,0.3-0.3c0-1,0-2,0-2.9c0-0.3,0.2-0.5,0.5-0.5c2.2,0,4.5,0,6.7,0c0.3,0,0.5,0.2,0.5,0.5c0,1,0,2,0,3
		c0,0.3,0.1,0.3,0.3,0.3c1,0,1.9,0,2.9,0c0.3,0,0.3-0.1,0.3-0.3c0-1,0-2,0-3C22.4,15.3,22.4,15.2,22.4,15.1z"/>
	<path class="st3" d="M7.7,24.4c0,0.5,0,1,0,1.5c0,0.4-0.1,0.5-0.5,0.5c-1,0-2,0-3.1,0c-0.3,0-0.5-0.2-0.5-0.5c0-1,0-2,0-3.1
		c0-0.3,0.2-0.5,0.5-0.5c1,0,2.1,0,3.1,0c0.3,0,0.5,0.1,0.5,0.5C7.7,23.3,7.7,23.9,7.7,24.4z M4,24.4c0,0.5,0,1,0,1.5
		c0,0.2,0.1,0.2,0.2,0.2c1,0,2,0,3,0c0.2,0,0.2-0.1,0.2-0.2c0-1,0-2,0-3c0-0.2-0.1-0.2-0.2-0.2c-1,0-2,0-3,0c-0.2,0-0.2,0.1-0.2,0.2
		C4,23.4,4,23.9,4,24.4z"/>
	<path class="st3" d="M22.3,24.4c0-0.5,0-1.1,0-1.6c0-0.3,0.1-0.5,0.5-0.5c1.1,0,2.1,0,3.2,0c0.3,0,0.4,0.1,0.4,0.4
		c0,1.1,0,2.2,0,3.3c0,0.3-0.1,0.4-0.4,0.4c-1.1,0-2.2,0-3.3,0c-0.3,0-0.4-0.1-0.4-0.4C22.3,25.5,22.3,24.9,22.3,24.4z M22.6,24.4
		c0,0.5,0,1,0,1.5c0,0.2,0.1,0.3,0.3,0.3c1,0,2,0,3,0c0.2,0,0.3-0.1,0.3-0.3c0-1,0-2,0-3c0-0.2-0.1-0.3-0.3-0.3c-1,0-2,0-3,0
		c-0.2,0-0.3,0.1-0.3,0.3C22.6,23.4,22.6,23.9,22.6,24.4z"/>
	<path class="st4" d="M26.3,7.4c0,0.1,0,0.2-0.1,0.2c-0.2,0.1-0.1,0.3-0.1,0.5c0,0.9,0,1.8,0,2.7c0,0.3,0,0.3-0.3,0.3
		c-0.9,0-1.9,0-2.8,0c-0.1,0-0.2,0-0.3,0.1c-0.1,0-0.1-0.1-0.1,0c0,0.1-0.1,0.3-0.1,0.4c0,0.8,0,1.6,0,2.4c0,0.3,0,0.6-0.1,1
		c0,0,0,0.1,0,0.1c0,0.1,0,0.2,0,0.3c0,1,0,2,0,3c0,0.3-0.1,0.3-0.3,0.3c-1,0-1.9,0-2.9,0c-0.3,0-0.3-0.1-0.3-0.3c0-1,0-2,0-3
		c0-0.3-0.2-0.5-0.5-0.5c-2.2,0-4.5,0-6.7,0c-0.3,0-0.5,0.2-0.5,0.5c0,1,0,2,0,2.9c0,0.3-0.1,0.3-0.3,0.3c-1,0-1.9,0-2.9,0
		c-0.3,0-0.3-0.1-0.3-0.3c0-1,0.1-1.9,0-2.9c-0.1-1.3-0.1-2.6-0.1-3.9c0-0.3-0.1-0.4-0.4-0.4c-1,0-1.9,0-2.9,0c-0.3,0-0.3,0-0.3-0.3
		c0-1,0-2,0-3c0-0.1,0-0.2-0.1-0.3c0-0.1,0-0.2,0.1-0.2C4,7.4,4.1,7.4,4.2,7.4c1,0,2,0,2.9,0c0.1,0,0.2,0,0.2-0.1
		c0.1,0.1,0.2,0.2,0.3,0.3C7.6,7.7,7.6,7.9,7.6,8c0,2.2,0.1,4.5,0.1,6.7c0,0,0,0,0,0c0,0.2,0.1,0.3,0.3,0.3c1,0,1.9,0,2.9,0
		c0.3,0,0.4-0.1,0.4-0.4c0-1,0-2,0-3c0-0.3,0.1-0.4,0.4-0.4c2.2,0,4.5,0,6.7,0c0.3,0,0.4,0.1,0.4,0.4c0,1,0,2,0,3
		c0,0.3,0.1,0.4,0.4,0.4c1,0,1.9,0,2.9,0c0.2,0,0.3-0.1,0.3-0.3c0-1.2,0-2.5,0.1-3.7c0.1-1,0-2.1,0-3.1c0-0.1,0-0.2-0.1-0.3
		c0-0.1,0.1-0.2,0.2-0.3c0.1,0.1,0.3,0.1,0.4,0.1c0.9,0,1.8,0,2.7,0c0.1,0,0.3,0,0.4-0.1C26.2,7.4,26.2,7.4,26.3,7.4z"/>
	<path class="st2" d="M26.3,7.4c0,0-0.1,0-0.1,0c0-1.1,0-2.1,0-3.2c0-0.3-0.1-0.3-0.4-0.3c-0.9,0-1.9,0-2.8,0c-0.4,0-0.4,0-0.4,0.4
		c0,1,0,2.1,0,3.1c-0.1,0.1-0.2,0.1-0.2,0.3c-0.1,0-0.1,0-0.2,0c-4.8,0-9.5,0-14.3,0c-0.1,0-0.1,0-0.2,0C7.6,7.5,7.5,7.4,7.4,7.4
		c0-1.1,0-2.1,0-3.2c0-0.2,0-0.3-0.3-0.3c-1,0-1.9,0-2.9,0c-0.3,0-0.3,0-0.3,0.3c0,1,0,2.1,0,3.1C3.9,7.4,3.9,7.5,3.9,7.6
		C3.7,7.5,3.7,7.4,3.7,7.2c0-1,0-2.1,0-3.1c0-0.2,0.2-0.4,0.4-0.4c1,0,2,0,3,0c0.3,0,0.4,0.1,0.4,0.4c0,1,0,2,0,3
		c0,0.3,0,0.4,0.3,0.4c4.7,0,9.4,0,14.2,0c0.3,0,0.3-0.1,0.3-0.3c0-1,0-2,0-3c0-0.3,0.1-0.5,0.5-0.5c1,0,2,0,3,0
		c0.3,0,0.4,0.1,0.4,0.5c0,1,0,2,0,3C26.3,7.3,26.3,7.3,26.3,7.4z"/>
	<path class="st2" d="M22.4,15.1c-0.1,0-0.1-0.1,0-0.1c0.1-0.3,0.1-0.6,0.1-1c0-0.8,0-1.6,0-2.4c0-0.1,0.1-0.3,0.1-0.4
		c0-0.1,0.1-0.1,0.1,0c-0.1,0.3-0.1,0.6-0.1,1c0,0.8,0,1.7,0,2.5C22.6,14.8,22.6,15,22.4,15.1z"/>
	<path class="st4" d="M4,24.4c0-0.5,0-1,0-1.5c0-0.2,0.1-0.2,0.2-0.2c1,0,2,0,3,0c0.2,0,0.2,0.1,0.2,0.2c0,1,0,2,0,3
		c0,0.2-0.1,0.2-0.2,0.2c-1,0-2,0-3,0c-0.2,0-0.2-0.1-0.2-0.2C4,25.4,4,24.9,4,24.4z"/>
	<path class="st4" d="M22.6,24.4c0-0.5,0-1,0-1.5c0-0.2,0.1-0.3,0.3-0.3c1,0,2,0,3,0c0.2,0,0.3,0.1,0.3,0.3c0,1,0,2,0,3
		c0,0.2-0.1,0.3-0.3,0.3c-1,0-2,0-3,0c-0.2,0-0.3-0.1-0.3-0.3C22.6,25.4,22.6,24.9,22.6,24.4z"/>
	<path class="st1" d="M7.7,7.7c0.1,0,0.1,0,0.2,0c4.8,0,9.5,0,14.3,0c0.1,0,0.1,0,0.2,0c0.1,0.1,0.1,0.2,0.1,0.3c0,1,0.1,2.1,0,3.1
		c-0.1,1.2,0,2.5-0.1,3.7c0,0.2-0.1,0.3-0.3,0.3c-1,0-1.9,0-2.9,0c-0.3,0-0.4-0.1-0.4-0.4c0-1,0-2,0-3c0-0.3-0.1-0.4-0.4-0.4
		c-2.2,0-4.5,0-6.7,0c-0.3,0-0.4,0.1-0.4,0.4c0,1,0,2,0,3c0,0.3-0.1,0.4-0.4,0.4c-1,0-1.9,0-2.9,0c-0.2,0-0.3-0.1-0.3-0.3
		c0,0,0,0,0,0c0.1-2.2-0.1-4.5-0.1-6.7C7.6,7.9,7.6,7.7,7.7,7.7z"/>
	<path class="st1" d="M22.6,7.4c0-1,0-2.1,0-3.1c0-0.4,0-0.4,0.4-0.4c0.9,0,1.9,0,2.8,0c0.3,0,0.4,0.1,0.4,0.3c0,1.1,0,2.1,0,3.2
		c-0.1,0.1-0.2,0.1-0.4,0.1c-0.9,0-1.8,0-2.7,0C22.9,7.5,22.7,7.5,22.6,7.4z"/>
	<path class="st1" d="M3.9,7.4c0-1,0-2.1,0-3.1c0-0.3,0-0.3,0.3-0.3c1,0,1.9,0,2.9,0c0.2,0,0.3,0,0.3,0.3c0,1.1,0,2.1,0,3.2
		C7.3,7.4,7.2,7.4,7.1,7.4c-1,0-2,0-2.9,0C4.1,7.4,4,7.4,3.9,7.4z"/>
</g>
</svg>
