<?xml version="1.0" encoding="utf-8"?>
<!-- Generator: Adobe Illustrator 25.4.0, SVG Export Plug-In . SVG Version: 6.00 Build 0)  -->
<svg version="1.1" id="Layer_1" xmlns="http://www.w3.org/2000/svg" xmlns:xlink="http://www.w3.org/1999/xlink" x="0px" y="0px"
	 viewBox="0 0 30 30" style="enable-background:new 0 0 30 30;" xml:space="preserve">
<style type="text/css">
	.st0{fill:#E5008D;}
	.st1{fill:#1A0010;}
	.st2{fill:#36FEDE;}
	.st3{fill:#FED30B;}
</style>
<g>
	<path class="st0" d="M0.1,2C0.2,2,0.2,2,0.1,2c0.1-0.2,0.3-0.2,0.5-0.2c9.7,0,19.3,0,29,0c0.1,0,0.2,0,0.3,0.1
		c0,0.1,0.1,0.1,0.1,0.2c0,0,0,0.1,0,0.1c0,7.2,0,14.4,0,21.6c0,0.1,0,0.2,0,0.3c0,0.1-0.1,0.2-0.2,0.2c0,0-0.1,0-0.1,0
		c-1,0-2,0-3,0c-0.2,0-0.3,0.1-0.3,0.3c0,1,0,2,0,3c0,0,0,0.1,0,0.1c0,0.2-0.1,0.2-0.2,0.2c-0.1,0-0.2,0-0.2,0c-7.2,0-14.4,0-21.7,0
		c-0.2,0-0.3-0.1-0.3-0.3c0-1,0-2,0-3c0-0.2-0.1-0.3-0.3-0.3c-1,0-2,0-3,0c-0.1,0-0.2,0-0.3-0.1c0,0,0,0-0.1,0
		C0.1,16.7,0.1,9.3,0.1,2z M15,1.9c-4.8,0-9.7,0-14.5,0C0.3,1.9,0.2,2,0.2,2.2c0,7.2,0,14.4,0,21.6c0,0.2,0.1,0.3,0.3,0.3
		c1,0,2,0,3,0c0.2,0,0.4,0.2,0.4,0.4c0,1,0,2,0,3c0,0.2,0.1,0.3,0.3,0.3c7.2,0,14.4,0,21.6,0c0.2,0,0.3-0.1,0.3-0.3c0-1,0-2,0-3
		c0-0.3,0.2-0.4,0.4-0.4c1,0,2,0,3,0c0.2,0,0.3-0.1,0.3-0.3c0-7.2,0-14.4,0-21.6c0-0.2-0.1-0.3-0.3-0.3C24.7,1.9,19.9,1.9,15,1.9z"
		/>
	<path class="st1" d="M15,1.9c4.8,0,9.7,0,14.5,0c0.2,0,0.3,0.1,0.3,0.3c0,7.2,0,14.4,0,21.6c0,0.2-0.1,0.3-0.3,0.3c-1,0-2,0-3,0
		c-0.3,0-0.4,0.2-0.4,0.4c0,1,0,2,0,3c0,0.2-0.1,0.3-0.3,0.3c-7.2,0-14.4,0-21.6,0c-0.2,0-0.3-0.1-0.3-0.3c0-1,0-2,0-3
		c0-0.2-0.2-0.4-0.4-0.4c-1,0-2,0-3,0c-0.2,0-0.3-0.1-0.3-0.3c0-7.2,0-14.4,0-21.6c0-0.2,0.1-0.3,0.3-0.3C5.3,1.9,10.2,1.9,15,1.9z
		 M15,24.2c2.4,0,4.7,0,7.1,0c0.2,0,0.4-0.1,0.4-0.4c0-1,0-2,0-3c0-0.2,0.1-0.3,0.3-0.3c1,0,2,0,3,0c0.2,0,0.3-0.2,0.3-0.3
		c0-1.2,0-2.5,0-3.7c0-1,0-2,0-3c0-0.3-0.1-0.4-0.4-0.4c-1,0-2,0-3,0c-0.2,0-0.3-0.1-0.3-0.3c0-0.8,0-1.6,0-2.5c0-0.2,0-0.4,0-0.6
		c0-0.2,0.1-0.3,0.3-0.3c0.8,0,1.5,0,2.3,0c0.2,0,0.5,0,0.7,0c0.2,0,0.4-0.2,0.4-0.3c0-1,0-2.1,0-3.1c0-0.2-0.1-0.3-0.3-0.3
		c-1.2,0-2.3,0-3.5,0c-1.3,0-2.7,0-4,0c-2.3,0-4.5,0-6.8,0c-0.1,0-0.3,0-0.4,0c-0.1,0-0.2,0-0.4,0c-1.2,0-2.4,0-3.6,0
		c-1,0-2.1,0-3.1,0C4,5.6,3.9,5.7,3.9,5.9c0,1,0,2,0,3c0,0.2,0.1,0.3,0.4,0.3c1,0,2,0,3,0c0.1,0,0.1,0,0.2,0.1
		c0.1,0.1,0.1,0.2,0.1,0.3c0,1,0,2,0,3c0,0.2-0.1,0.3-0.3,0.3c-1,0-2,0-3,0c-0.2,0-0.4,0.2-0.4,0.4c0,1.2,0,2.4,0,3.6
		c0,1,0,2.1,0,3.1c0,0.1,0,0.1,0.1,0.2c0.1,0.1,0.2,0.2,0.4,0.2c1,0,2,0,2.9,0c0.2,0,0.3,0.1,0.3,0.3c0,1,0,2,0,3
		c0,0.3,0.1,0.4,0.4,0.4C10.3,24.2,12.7,24.2,15,24.2z"/>
	<path class="st2" d="M15,24.2c-2.4,0-4.7,0-7.1,0c-0.3,0-0.4-0.1-0.4-0.4c0-1,0-2,0-3c0-0.2-0.1-0.3-0.3-0.3c-1,0-2,0-2.9,0
		c-0.2,0-0.3,0-0.4-0.2c0-0.1-0.1-0.1-0.1-0.2c0-1,0-2.1,0-3.1c-0.1-1.2,0-2.4,0-3.6c0-0.2,0.2-0.4,0.4-0.4c1,0,2,0,3,0
		c0.2,0,0.3-0.1,0.3-0.3c0-1,0-2,0-3c0-0.1-0.1-0.2-0.1-0.3c0-0.1-0.1-0.1-0.2-0.1c-1,0-2,0-3,0C4,9.3,3.9,9.1,3.9,8.9c0-1,0-2,0-3
		c0-0.2,0.1-0.3,0.3-0.3c1,0,2.1,0,3.1,0c1.2,0,2.4,0,3.6,0c0.1,0,0.2,0,0.4,0c0.1,0,0.3,0,0.4,0c2.3,0,4.5,0,6.8,0c1.3,0,2.7,0,4,0
		c1.2,0,2.3,0,3.5,0c0.2,0,0.3,0.1,0.3,0.3c0,1,0,2.1,0,3.1c0,0.2-0.2,0.3-0.4,0.3c-0.2,0-0.5,0-0.7,0c-0.8,0-1.5,0-2.3,0
		c-0.2,0-0.3,0.1-0.3,0.3c0,0.2,0,0.4,0,0.6c0,0.8,0,1.6,0,2.5c0,0.2,0.1,0.3,0.3,0.3c1,0,2,0,3,0c0.3,0,0.4,0.1,0.4,0.4
		c0,1,0,2,0,3c0,1.2,0,2.5,0,3.7c0,0.2-0.2,0.3-0.3,0.3c-1,0-2,0-3,0c-0.2,0-0.3,0.1-0.3,0.3c0,1,0,2,0,3c0,0.2-0.1,0.4-0.4,0.4
		C19.8,24.2,17.4,24.2,15,24.2z M15,20.4c2.4,0,4.7,0,7.1,0c0.2,0,0.4-0.2,0.4-0.3c0-1,0-2,0-3c0-0.2,0.1-0.4,0.4-0.4c1,0,2,0,3,0
		c0.1,0,0.2-0.1,0.2-0.2c0-0.1,0-0.1,0-0.2c0-1,0-2,0-3c0-0.2-0.1-0.3-0.3-0.3c-1,0-2,0-3,0c-0.3,0-0.5-0.2-0.5-0.5
		c0-0.3,0-0.6,0-0.9c0-0.3,0-0.6,0-0.9c0-0.3,0-0.6,0-0.9c0-0.3,0.1-0.6,0.1-0.9c0-1,0-2.1,0-3.1c0-0.2,0-0.2-0.2-0.2
		c-1,0-2.1,0-3.1,0c-0.2,0-0.3,0-0.2,0.3c0,1.2,0,2.4,0,3.6c0.1,2.3,0,4.6,0,6.8c0,0.3-0.1,0.4-0.4,0.4c-2.3,0-4.5,0-6.8,0
		c-0.2,0-0.4-0.2-0.4-0.4c0-2.3,0-4.6,0-6.8c0-0.1,0-0.1,0-0.2c0-0.1,0.1-0.3,0.1-0.4c0-1,0-2,0-3.1c0-0.2,0-0.2-0.2-0.3
		c0,0-0.1,0-0.1,0c-1,0-2,0-3,0c0,0-0.1,0-0.1,0C7.6,5.7,7.6,5.7,7.6,6c0,1,0,2,0,3c0,0.1,0,0.3,0.1,0.4c0,0.1,0,0.1,0,0.2
		c0,1,0,2.1,0,3.1c0,0.2-0.2,0.4-0.4,0.4c-1,0-2,0-3.1,0C4,13.1,4,13.2,4,13.3c0,1,0,2.1,0,3.1c0,0.2,0.1,0.3,0.3,0.3c1,0,2,0,3,0
		c0.2,0,0.4,0.1,0.4,0.4c0,1,0,2,0,3c0,0.2,0.2,0.4,0.4,0.4C10.3,20.4,12.7,20.4,15,20.4z M18.7,13c0-1.1,0-2.2,0-3.4
		c0-0.2-0.1-0.3-0.3-0.3c-2.2,0-4.5,0-6.7,0c-0.3,0-0.4,0.2-0.4,0.4c0,2.2,0,4.5,0,6.7c0,0.2,0.1,0.3,0.3,0.3c2.3,0,4.5,0,6.8,0
		c0.2,0,0.3-0.1,0.3-0.3C18.7,15.3,18.7,14.1,18.7,13z"/>
	<path class="st3" d="M15,20.4c-2.4,0-4.7,0-7.1,0c-0.2,0-0.4-0.2-0.4-0.4c0-1,0-2,0-3c0-0.2-0.1-0.4-0.4-0.4c-1,0-2,0-3,0
		C4,16.7,4,16.6,4,16.4c0-1,0-2.1,0-3.1c0-0.1,0.1-0.2,0.2-0.2c1,0,2,0,3.1,0c0.2,0,0.4-0.2,0.4-0.4c0-1,0-2.1,0-3.1
		c0-0.1,0-0.1,0-0.2C7.6,9.2,7.6,9.1,7.6,8.9c0-1,0-2,0-3c0-0.2,0-0.3,0.2-0.3c0,0,0.1,0,0.1,0c1,0,2,0,3,0c0,0,0.1,0,0.1,0
		c0.2,0,0.2,0.1,0.2,0.3c0,1,0,2,0,3.1c0,0.1,0,0.3-0.1,0.4c0,0.1,0,0.1,0,0.2c0,2.3,0,4.6,0,6.8c0,0.2,0.2,0.4,0.4,0.4
		c2.3,0,4.5,0,6.8,0c0.3,0,0.4-0.1,0.4-0.4c0-2.3,0-4.6,0-6.8c0-1.2,0-2.4,0-3.6c0-0.2,0-0.3,0.2-0.3c1,0,2.1,0,3.1,0
		c0.2,0,0.2,0,0.2,0.2c0,1,0,2.1,0,3.1c0,0.3-0.1,0.6-0.1,0.9c0,0.3,0,0.6,0,0.9c0,0.3,0,0.6,0,0.9c0,0.3,0,0.6,0,0.9
		c0,0.3,0.2,0.5,0.5,0.5c1,0,2,0,3,0c0.2,0,0.3,0.1,0.3,0.3c0,1,0,2,0,3c0,0.1,0,0.1,0,0.2c0,0.1-0.1,0.2-0.2,0.2c-1,0-2,0-3,0
		c-0.2,0-0.4,0.1-0.4,0.4c0,1,0,2,0,3c0,0.2-0.2,0.3-0.4,0.3C19.8,20.4,17.4,20.4,15,20.4z"/>
	<path class="st1" d="M18.7,13c0,1.1,0,2.2,0,3.4c0,0.2-0.1,0.3-0.3,0.3c-2.3,0-4.5,0-6.8,0c-0.2,0-0.3-0.1-0.3-0.3
		c0-2.2,0-4.5,0-6.7c0-0.2,0.1-0.4,0.4-0.4c2.2,0,4.4,0,6.7,0c0.2,0,0.3,0.1,0.3,0.3C18.7,10.8,18.7,11.9,18.7,13z"/>
</g>
</svg>
