<?xml version="1.0" encoding="utf-8"?>
<!-- Generator: Adobe Illustrator 25.4.0, SVG Export Plug-In . SVG Version: 6.00 Build 0)  -->
<svg version="1.1" id="Layer_1" xmlns="http://www.w3.org/2000/svg" xmlns:xlink="http://www.w3.org/1999/xlink" x="0px" y="0px"
	 viewBox="0 0 14400 14400" style="enable-background:new 0 0 14400 14400;" xml:space="preserve">
<style type="text/css">
	.st0{fill:#FFFFFF;}
</style>
<path class="st0" d="M7209,7207.4c0.5-0.4,0.8-1,0.8-1.7c0-1.8-1.4-3-3.4-3h-1.1v-8.2h-2.9v6.6l-3.6-4.1c1.1-0.6,1.8-1.7,1.8-3
	c0-1.4-0.5-2.2-1.5-2.7c0.5-0.4,0.8-1,0.8-1.7c0-1.8-1.4-3-3.4-3h-7v10.9h4.5v8h2.8v-6.6l3.4,3.9h-0.9v10.9h7.6c2,0,3.5-1.5,3.5-3.4
	C7210.5,7208.7,7210,7207.9,7209,7207.4z M7192.4,7189.1h4c0.5,0,0.7,0.5,0.7,0.7c0,0.4-0.3,0.7-0.6,0.7h-4.1V7189.1z
	 M7192.4,7193.1h4.6c0.5,0,0.9,0.4,0.9,0.9c0,0.5-0.4,0.8-0.8,0.8h-4.6V7193.1z M7207,7206c0,0.4-0.3,0.7-0.6,0.7h-4.1v-1.5h4
	C7206.8,7205.2,7207,7205.7,7207,7206z M7206.9,7210.9h-4.6v-1.7h4.6c0.5,0,0.9,0.4,0.9,0.9
	C7207.7,7210.6,7207.3,7210.9,7206.9,7210.9z"/>
</svg>
