<svg width="61" height="61" viewBox="0 0 61 61" fill="none" xmlns="http://www.w3.org/2000/svg">
<path d="M47.3333 60.3333H40.6666V53.6666H47.3333V60.3333Z" fill="#548AD0"/>
<path d="M20.6667 60.3333H14V53.6666H20.6667V60.3333Z" fill="#548AD0"/>
<path d="M40.6667 53.6666H34V47H40.6667V53.6666Z" fill="#548AD0"/>
<path d="M27.3333 53.6666H20.6666V47H27.3333V53.6666Z" fill="#548AD0"/>
<path d="M47.3333 47H40.6666V40.3333H47.3333V47Z" fill="#548AD0"/>
<path d="M40.6667 47H34V40.3333H40.6667V47Z" fill="#ED1555"/>
<path d="M33.9999 47H27.3333V40.3333H33.9999V47Z" fill="#ED1555"/>
<path d="M27.3333 47H20.6666V40.3333H27.3333V47Z" fill="#ED1555"/>
<path d="M20.6667 47H14V40.3333H20.6667V47Z" fill="#548AD0"/>
<path d="M47.3333 40.3333H40.6666V33.6666H47.3333V40.3333Z" fill="#548AD0"/>
<path d="M40.6667 40.3333H34V33.6666H40.6667V40.3333Z" fill="#5EC688"/>
<path d="M27.3333 40.3333H20.6666V33.6666H27.3333V40.3333Z" fill="#5EC688"/>
<path d="M20.6667 40.3333H14V33.6666H20.6667V40.3333Z" fill="#548AD0"/>
<path d="M53.9999 33.6666H47.3333V27H53.9999V33.6666Z" fill="#ED1555"/>
<path d="M47.3333 33.6666H40.6666V27H47.3333V33.6666Z" fill="#548AD0"/>
<path d="M40.6667 33.6666H34V27H40.6667V33.6666Z" fill="#5EC688"/>
<path d="M33.9999 33.6666H27.3333V27H33.9999V33.6666Z" fill="#5EC688"/>
<path d="M27.3333 33.6666H20.6666V27H27.3333V33.6666Z" fill="#5EC688"/>
<path d="M20.6667 33.6666H14V27H20.6667V33.6666Z" fill="#548AD0"/>
<path d="M13.9999 33.6666H7.33325V27H13.9999V33.6666Z" fill="#ED1555"/>
<path d="M60.6665 27H54V20.3333H60.6665V27Z" fill="#ED1555"/>
<path d="M53.9999 27H47.3333V20.3333H53.9999V27Z" fill="#ED1555"/>
<path d="M47.3333 27H40.6666V20.3333H47.3333V27Z" fill="#548AD0"/>
<path d="M33.9999 27H27.3333V20.3333H33.9999V27Z" fill="#5EC688"/>
<path d="M20.6667 27H14V20.3333H20.6667V27Z" fill="#548AD0"/>
<path d="M13.9999 27H7.33325V20.3333H13.9999V27Z" fill="#ED1555"/>
<path d="M7.33329 27H0.666626V20.3333H7.33329V27Z" fill="#ED1555"/>
<path d="M60.6665 20.3333H54V13.6666H60.6665V20.3333Z" fill="#ED1555"/>
<path d="M47.3333 20.3333H40.6666V13.6666H47.3333V20.3333Z" fill="#548AD0"/>
<path d="M40.6667 20.3333H34V13.6666H40.6667V20.3333Z" fill="#ED1555"/>
<path d="M33.9999 20.3333H27.3333V13.6666H33.9999V20.3333Z" fill="#ED1555"/>
<path d="M27.3333 20.3333H20.6666V13.6666H27.3333V20.3333Z" fill="#ED1555"/>
<path d="M20.6667 20.3333H14V13.6666H20.6667V20.3333Z" fill="#548AD0"/>
<path d="M7.33329 20.3333H0.666626V13.6666H7.33329V20.3333Z" fill="#ED1555"/>
<path d="M40.6667 13.6667H34V6.99999H40.6667V13.6667Z" fill="#548AD0"/>
<path d="M27.3333 13.6667H20.6666V6.99999H27.3333V13.6667Z" fill="#548AD0"/>
<path d="M47.3333 6.99997H40.6666V0.333303H47.3333V6.99997Z" fill="#548AD0"/>
<path d="M40.6667 6.99997H34V0.333303H40.6667V6.99997Z" fill="#548AD0"/>
<path d="M27.3333 6.99997H20.6666V0.333303H27.3333V6.99997Z" fill="#548AD0"/>
<path d="M20.6667 6.99997H14V0.333303H20.6667V6.99997Z" fill="#548AD0"/>
</svg>
