<svg width="67" height="61" viewBox="0 0 67 61" fill="none" xmlns="http://www.w3.org/2000/svg">
<path d="M60.2172 60.2173H53.5505V53.5506H60.2172V60.2173Z" fill="#548AD0"/>
<path d="M53.5505 60.2173H46.8838V53.5506H53.5505V60.2173Z" fill="#548AD0"/>
<path d="M46.8838 60.2173H40.2172V53.5506H46.8838V60.2173Z" fill="#548AD0"/>
<path d="M26.8838 60.2173H20.2172V53.5506H26.8838V60.2173Z" fill="#548AD0"/>
<path d="M20.2172 60.2173H13.5505V53.5506H20.2172V60.2173Z" fill="#548AD0"/>
<path d="M13.5505 60.2173H6.88379V53.5506H13.5505V60.2173Z" fill="#548AD0"/>
<path d="M53.5505 53.5506H46.8838V46.884H53.5505V53.5506Z" fill="#548AD0"/>
<path d="M46.8838 53.5506H40.2172V46.884H46.8838V53.5506Z" fill="#548AD0"/>
<path d="M40.2172 53.5506H33.5505V46.884H40.2172V53.5506Z" fill="#548AD0"/>
<path d="M33.5505 53.5506H26.8838V46.884H33.5505V53.5506Z" fill="#548AD0"/>
<path d="M26.8838 53.5506H20.2172V46.884H26.8838V53.5506Z" fill="#548AD0"/>
<path d="M20.2172 53.5506H13.5505V46.884H20.2172V53.5506Z" fill="#548AD0"/>
<path d="M53.5505 46.8839H46.8838V40.2173H53.5505V46.8839Z" fill="#F6F010"/>
<path d="M46.8838 46.8839H40.2172V40.2173H46.8838V46.8839Z" fill="#F6F010"/>
<path d="M33.5505 46.8839H26.8838V40.2173H33.5505V46.8839Z" fill="#F6F010"/>
<path d="M26.8838 46.8839H20.2172V40.2173H26.8838V46.8839Z" fill="#F6F010"/>
<path d="M20.2172 46.8839H13.5505V40.2173H20.2172V46.8839Z" fill="#F6F010"/>
<path d="M53.5505 40.2173H46.8838V33.5506H53.5505V40.2173Z" fill="#F6F010"/>
<path d="M46.8838 40.2173H40.2172V33.5506H46.8838V40.2173Z" fill="#F6F010"/>
<path d="M40.2172 40.2173H33.5505V33.5506H40.2172V40.2173Z" fill="#F6F010"/>
<path d="M33.5505 40.2173H26.8838V33.5506H33.5505V40.2173Z" fill="#F6F010"/>
<path d="M26.8838 40.2173H20.2172V33.5506H26.8838V40.2173Z" fill="#F6F010"/>
<path d="M20.2172 40.2173H13.5505V33.5506H20.2172V40.2173Z" fill="#F6F010"/>
<path d="M60.2172 33.5506H53.5505V26.884H60.2172V33.5506Z" fill="#ED1555"/>
<path d="M53.5505 33.5506H46.8838V26.884H53.5505V33.5506Z" fill="#F6F010"/>
<path d="M40.2172 33.5506H33.5505V26.884H40.2172V33.5506Z" fill="#F6F010"/>
<path d="M26.8838 33.5506H20.2172V26.884H26.8838V33.5506Z" fill="#F6F010"/>
<path d="M20.2172 33.5506H13.5505V26.884H20.2172V33.5506Z" fill="#F6F010"/>
<path d="M13.5505 33.5506H6.88379V26.884H13.5505V33.5506Z" fill="#ED1555"/>
<path d="M6.88383 33.5506H0.217163V26.884H6.88383V33.5506Z" fill="#ED1555"/>
<path d="M66.8838 26.8839H60.2172V20.2173H66.8838V26.8839Z" fill="#ED1555"/>
<path d="M60.2172 26.8839H53.5505V20.2173H60.2172V26.8839Z" fill="#ED1555"/>
<path d="M53.5505 26.8839H46.8838V20.2173H53.5505V26.8839Z" fill="#F6F010"/>
<path d="M40.2172 26.8839H33.5505V20.2173H40.2172V26.8839Z" fill="#F6F010"/>
<path d="M33.5505 26.8839H26.8838V20.2173H33.5505V26.8839Z" fill="#F6F010"/>
<path d="M26.8838 26.8839H20.2172V20.2173H26.8838V26.8839Z" fill="#F6F010"/>
<path d="M20.2172 26.8839H13.5505V20.2173H20.2172V26.8839Z" fill="#F6F010"/>
<path d="M6.88383 26.8839H0.217163V20.2173H6.88383V26.8839Z" fill="#ED1555"/>
<path d="M53.5505 20.2173H46.8838V13.5506H53.5505V20.2173Z" fill="#F6F010"/>
<path d="M46.8838 20.2173H40.2172V13.5506H46.8838V20.2173Z" fill="#F6F010"/>
<path d="M40.2172 20.2173H33.5505V13.5506H40.2172V20.2173Z" fill="#F6F010"/>
<path d="M33.5505 20.2173H26.8838V13.5506H33.5505V20.2173Z" fill="#F6F010"/>
<path d="M40.2172 13.5506H33.5505V6.88396H40.2172V13.5506Z" fill="#ED1555"/>
<path d="M46.8838 6.88394H40.2172V0.217276H46.8838V6.88394Z" fill="#ED1555"/>
<path d="M40.2172 6.88394H33.5505V0.217276H40.2172V6.88394Z" fill="#ED1555"/>
</svg>
