<svg width="81" height="74" viewBox="0 0 81 74" fill="none" xmlns="http://www.w3.org/2000/svg">
<path d="M60.5505 73.7693H53.8838V67.1026H60.5505V73.7693Z" fill="#5EC688"/>
<path d="M27.2172 73.7693H20.5505V67.1026H27.2172V73.7693Z" fill="#5EC688"/>
<path d="M53.8838 67.1026H47.2172V60.436H53.8838V67.1026Z" fill="#5EC688"/>
<path d="M33.8838 67.1026H27.2172V60.436H33.8838V67.1026Z" fill="#5EC688"/>
<path d="M47.2172 60.436H40.5505V53.7693H47.2172V60.436Z" fill="#5EC688"/>
<path d="M40.5505 60.436H33.8838V53.7693H40.5505V60.436Z" fill="#5EC688"/>
<path d="M60.5505 53.7693H53.8838V47.1026H60.5505V53.7693Z" fill="#F6F010"/>
<path d="M53.8838 53.7693H47.2172V47.1026H53.8838V53.7693Z" fill="#F6F010"/>
<path d="M47.2172 53.7693H40.5505V47.1026H47.2172V53.7693Z" fill="#5EC688"/>
<path d="M40.5505 53.7693H33.8838V47.1026H40.5505V53.7693Z" fill="#5EC688"/>
<path d="M33.8838 53.7693H27.2172V47.1026H33.8838V53.7693Z" fill="#F6F010"/>
<path d="M27.2172 53.7693H20.5505V47.1026H27.2172V53.7693Z" fill="#F6F010"/>
<path d="M67.2172 47.1026H60.5505V40.436H67.2172V47.1026Z" fill="#ED1555"/>
<path d="M60.5505 47.1026H53.8838V40.436H60.5505V47.1026Z" fill="#F6F010"/>
<path d="M53.8838 47.1026H47.2172V40.436H53.8838V47.1026Z" fill="#F6F010"/>
<path d="M33.8838 47.1026H27.2172V40.436H33.8838V47.1026Z" fill="#F6F010"/>
<path d="M27.2172 47.1026H20.5505V40.436H27.2172V47.1026Z" fill="#F6F010"/>
<path d="M20.5505 47.1026H13.8838V40.436H20.5505V47.1026Z" fill="#ED1555"/>
<path d="M67.2172 40.436H60.5505V33.7693H67.2172V40.436Z" fill="#ED1555"/>
<path d="M60.5505 40.436H53.8838V33.7693H60.5505V40.436Z" fill="#F6F010"/>
<path d="M53.8838 40.436H47.2172V33.7693H53.8838V40.436Z" fill="#F6F010"/>
<path d="M47.2172 40.436H40.5505V33.7693H47.2172V40.436Z" fill="#5EC688"/>
<path d="M40.5505 40.436H33.8838V33.7693H40.5505V40.436Z" fill="#5EC688"/>
<path d="M33.8838 40.436H27.2172V33.7693H33.8838V40.436Z" fill="#F6F010"/>
<path d="M27.2172 40.436H20.5505V33.7693H27.2172V40.436Z" fill="#F6F010"/>
<path d="M20.5505 40.436H13.8838V33.7693H20.5505V40.436Z" fill="#ED1555"/>
<path d="M73.8838 33.7693H67.2172V27.1026H73.8838V33.7693Z" fill="#ED1555"/>
<path d="M67.2172 33.7693H60.5505V27.1026H67.2172V33.7693Z" fill="#ED1555"/>
<path d="M60.5505 33.7693H53.8838V27.1026H60.5505V33.7693Z" fill="#F6F010"/>
<path d="M47.2172 33.7693H40.5505V27.1026H47.2172V33.7693Z" fill="#5EC688"/>
<path d="M40.5505 33.7693H33.8838V27.1026H40.5505V33.7693Z" fill="#5EC688"/>
<path d="M27.2172 33.7693H20.5505V27.1026H27.2172V33.7693Z" fill="#F6F010"/>
<path d="M20.5505 33.7693H13.8838V27.1026H20.5505V33.7693Z" fill="#ED1555"/>
<path d="M13.8838 33.7693H7.21716V27.1026H13.8838V33.7693Z" fill="#ED1555"/>
<path d="M80.5504 27.1026H73.8838V20.436H80.5504V27.1026Z" fill="#ED1555"/>
<path d="M67.2172 27.1026H60.5505V20.436H67.2172V27.1026Z" fill="#ED1555"/>
<path d="M60.5505 27.1026H53.8838V20.436H60.5505V27.1026Z" fill="#F6F010"/>
<path d="M53.8838 27.1026H47.2172V20.436H53.8838V27.1026Z" fill="#5EC688"/>
<path d="M47.2172 27.1026H40.5505V20.436H47.2172V27.1026Z" fill="#5EC688"/>
<path d="M40.5505 27.1026H33.8838V20.436H40.5505V27.1026Z" fill="#5EC688"/>
<path d="M33.8838 27.1026H27.2172V20.436H33.8838V27.1026Z" fill="#5EC688"/>
<path d="M27.2172 27.1026H20.5505V20.436H27.2172V27.1026Z" fill="#F6F010"/>
<path d="M20.5505 27.1026H13.8838V20.436H20.5505V27.1026Z" fill="#ED1555"/>
<path d="M7.2172 27.1026H0.550537V20.436H7.2172V27.1026Z" fill="#ED1555"/>
<path d="M67.2172 20.436H60.5505V13.7693H67.2172V20.436Z" fill="#ED1555"/>
<path d="M60.5505 20.436H53.8838V13.7693H60.5505V20.436Z" fill="#ED1555"/>
<path d="M53.8838 20.436H47.2172V13.7693H53.8838V20.436Z" fill="#ED1555"/>
<path d="M47.2172 20.436H40.5505V13.7693H47.2172V20.436Z" fill="#ED1555"/>
<path d="M40.5505 20.436H33.8838V13.7693H40.5505V20.436Z" fill="#ED1555"/>
<path d="M33.8838 20.436H27.2172V13.7693H33.8838V20.436Z" fill="#ED1555"/>
<path d="M27.2172 20.436H20.5505V13.7693H27.2172V20.436Z" fill="#ED1555"/>
<path d="M20.5505 20.436H13.8838V13.7693H20.5505V20.436Z" fill="#ED1555"/>
<path d="M60.5505 13.7693H53.8838V7.10264H60.5505V13.7693Z" fill="#ED1555"/>
<path d="M27.2172 13.7693H20.5505V7.10264H27.2172V13.7693Z" fill="#ED1555"/>
<path d="M53.8838 7.10265H47.2172V0.43598H53.8838V7.10265Z" fill="#ED1555"/>
<path d="M33.8838 7.10265H27.2172V0.43598H33.8838V7.10265Z" fill="#ED1555"/>
</svg>
