<svg width="101" height="67" viewBox="0 0 101 67" fill="none" xmlns="http://www.w3.org/2000/svg">
<path d="M80.5505 66.6666H73.8838V60H80.5505V66.6666Z" fill="#5EC688"/>
<path d="M27.2172 66.6666H20.5505V60H27.2172V66.6666Z" fill="#5EC688"/>
<path d="M87.2172 60H80.5505V53.3333H87.2172V60Z" fill="#F6F010"/>
<path d="M20.5505 60H13.8838V53.3333H20.5505V60Z" fill="#F6F010"/>
<path d="M87.2172 53.3333H80.5505V46.6666H87.2172V53.3333Z" fill="#F6F010"/>
<path d="M80.5505 53.3333H73.8838V46.6666H80.5505V53.3333Z" fill="#5EC688"/>
<path d="M73.8838 53.3333H67.2172V46.6666H73.8838V53.3333Z" fill="#5EC688"/>
<path d="M67.2172 53.3333H60.5505V46.6666H67.2172V53.3333Z" fill="#5EC688"/>
<path d="M60.5505 53.3333H53.8838V46.6666H60.5505V53.3333Z" fill="#5EC688"/>
<path d="M53.8838 53.3333H47.2172V46.6666H53.8838V53.3333Z" fill="#5EC688"/>
<path d="M47.2172 53.3333H40.5505V46.6666H47.2172V53.3333Z" fill="#5EC688"/>
<path d="M40.5505 53.3333H33.8838V46.6666H40.5505V53.3333Z" fill="#5EC688"/>
<path d="M33.8838 53.3333H27.2172V46.6666H33.8838V53.3333Z" fill="#5EC688"/>
<path d="M27.2172 53.3333H20.5505V46.6666H27.2172V53.3333Z" fill="#5EC688"/>
<path d="M20.5505 53.3333H13.8838V46.6666H20.5505V53.3333Z" fill="#F6F010"/>
<path d="M87.2172 46.6666H80.5505V40H87.2172V46.6666Z" fill="#F6F010"/>
<path d="M80.5505 46.6666H73.8838V40H80.5505V46.6666Z" fill="#5EC688"/>
<path d="M73.8838 46.6666H67.2172V40H73.8838V46.6666Z" fill="#5EC688"/>
<path d="M33.8838 46.6666H27.2172V40H33.8838V46.6666Z" fill="#5EC688"/>
<path d="M27.2172 46.6666H20.5505V40H27.2172V46.6666Z" fill="#5EC688"/>
<path d="M20.5505 46.6666H13.8838V40H20.5505V46.6666Z" fill="#F6F010"/>
<path d="M100.55 40H93.8838V33.3333H100.55V40Z" fill="#F6F010"/>
<path d="M93.8838 40H87.2172V33.3333H93.8838V40Z" fill="#F6F010"/>
<path d="M87.2172 40H80.5505V33.3333H87.2172V40Z" fill="#F6F010"/>
<path d="M80.5505 40H73.8838V33.3333H80.5505V40Z" fill="#548AD0"/>
<path d="M73.8838 40H67.2172V33.3333H73.8838V40Z" fill="#548AD0"/>
<path d="M60.5505 40H53.8838V33.3333H60.5505V40Z" fill="#F6F010"/>
<path d="M53.8838 40H47.2172V33.3333H53.8838V40Z" fill="#F6F010"/>
<path d="M47.2172 40H40.5505V33.3333H47.2172V40Z" fill="#F6F010"/>
<path d="M33.8838 40H27.2172V33.3333H33.8838V40Z" fill="#548AD0"/>
<path d="M27.2172 40H20.5505V33.3333H27.2172V40Z" fill="#548AD0"/>
<path d="M20.5505 40H13.8838V33.3333H20.5505V40Z" fill="#F6F010"/>
<path d="M13.8838 40H7.21716V33.3333H13.8838V40Z" fill="#F6F010"/>
<path d="M7.2172 40H0.550537V33.3333H7.2172V40Z" fill="#F6F010"/>
<path d="M93.8838 33.3333H87.2172V26.6666H93.8838V33.3333Z" fill="#F6F010"/>
<path d="M87.2172 33.3333H80.5505V26.6666H87.2172V33.3333Z" fill="#F6F010"/>
<path d="M80.5505 33.3333H73.8838V26.6666H80.5505V33.3333Z" fill="#548AD0"/>
<path d="M73.8838 33.3333H67.2172V26.6666H73.8838V33.3333Z" fill="#F6F010"/>
<path d="M67.2172 33.3333H60.5505V26.6666H67.2172V33.3333Z" fill="#F6F010"/>
<path d="M60.5505 33.3333H53.8838V26.6666H60.5505V33.3333Z" fill="#F6F010"/>
<path d="M53.8838 33.3333H47.2172V26.6666H53.8838V33.3333Z" fill="#F6F010"/>
<path d="M47.2172 33.3333H40.5505V26.6666H47.2172V33.3333Z" fill="#F6F010"/>
<path d="M40.5505 33.3333H33.8838V26.6666H40.5505V33.3333Z" fill="#F6F010"/>
<path d="M33.8838 33.3333H27.2172V26.6666H33.8838V33.3333Z" fill="#F6F010"/>
<path d="M27.2172 33.3333H20.5505V26.6666H27.2172V33.3333Z" fill="#548AD0"/>
<path d="M20.5505 33.3333H13.8838V26.6666H20.5505V33.3333Z" fill="#F6F010"/>
<path d="M13.8838 33.3333H7.21716V26.6666H13.8838V33.3333Z" fill="#F6F010"/>
<path d="M87.2172 26.6666H80.5505V20H87.2172V26.6666Z" fill="#F6F010"/>
<path d="M80.5505 26.6666H73.8838V20H80.5505V26.6666Z" fill="#548AD0"/>
<path d="M73.8838 26.6666H67.2172V20H73.8838V26.6666Z" fill="#F6F010"/>
<path d="M60.5505 26.6666H53.8838V20H60.5505V26.6666Z" fill="#F6F010"/>
<path d="M53.8838 26.6666H47.2172V20H53.8838V26.6666Z" fill="#F6F010"/>
<path d="M47.2172 26.6666H40.5505V20H47.2172V26.6666Z" fill="#F6F010"/>
<path d="M33.8838 26.6666H27.2172V20H33.8838V26.6666Z" fill="#F6F010"/>
<path d="M27.2172 26.6666H20.5505V20H27.2172V26.6666Z" fill="#548AD0"/>
<path d="M20.5505 26.6666H13.8838V20H20.5505V26.6666Z" fill="#F6F010"/>
<path d="M80.5505 20H73.8838V13.3333H80.5505V20Z" fill="#548AD0"/>
<path d="M73.8838 20H67.2172V13.3333H73.8838V20Z" fill="#548AD0"/>
<path d="M67.2172 20H60.5505V13.3333H67.2172V20Z" fill="#548AD0"/>
<path d="M60.5505 20H53.8838V13.3333H60.5505V20Z" fill="#F6F010"/>
<path d="M53.8838 20H47.2172V13.3333H53.8838V20Z" fill="#F6F010"/>
<path d="M47.2172 20H40.5505V13.3333H47.2172V20Z" fill="#F6F010"/>
<path d="M40.5505 20H33.8838V13.3333H40.5505V20Z" fill="#548AD0"/>
<path d="M33.8838 20H27.2172V13.3333H33.8838V20Z" fill="#548AD0"/>
<path d="M27.2172 20H20.5505V13.3333H27.2172V20Z" fill="#548AD0"/>
<path d="M80.5505 13.3333H73.8838V6.66662H80.5505V13.3333Z" fill="#5EC688"/>
<path d="M73.8838 13.3333H67.2172V6.66662H73.8838V13.3333Z" fill="#5EC688"/>
<path d="M33.8838 13.3333H27.2172V6.66662H33.8838V13.3333Z" fill="#5EC688"/>
<path d="M27.2172 13.3333H20.5505V6.66662H27.2172V13.3333Z" fill="#5EC688"/>
<path d="M80.5505 6.66666H73.8838V-9.53674e-06H80.5505V6.66666Z" fill="#5EC688"/>
<path d="M67.2172 6.66666H60.5505V-9.53674e-06H67.2172V6.66666Z" fill="#5EC688"/>
<path d="M40.5505 6.66666H33.8838V-9.53674e-06H40.5505V6.66666Z" fill="#5EC688"/>
<path d="M27.2172 6.66666H20.5505V-9.53674e-06H27.2172V6.66666Z" fill="#5EC688"/>
</svg>
