<svg width="74" height="61" viewBox="0 0 74 61" fill="none" xmlns="http://www.w3.org/2000/svg">
<path d="M73.3332 60.9854H66.6665V54.3188H73.3332V60.9854Z" fill="#5EC688"/>
<path d="M66.6665 60.9854H60V54.3188H66.6665V60.9854Z" fill="#5EC688"/>
<path d="M59.9999 60.9854H53.3333V54.3188H59.9999V60.9854Z" fill="#5EC688"/>
<path d="M53.3333 60.9854H46.6666V54.3188H53.3333V60.9854Z" fill="#5EC688"/>
<path d="M26.6667 60.9854H20V54.3188H26.6667V60.9854Z" fill="#5EC688"/>
<path d="M19.9999 60.9854H13.3333V54.3188H19.9999V60.9854Z" fill="#5EC688"/>
<path d="M13.3333 60.9854H6.66663V54.3188H13.3333V60.9854Z" fill="#5EC688"/>
<path d="M6.66667 60.9854H0V54.3188H6.66667V60.9854Z" fill="#5EC688"/>
<path d="M59.9999 54.3188H53.3333V47.6521H59.9999V54.3188Z" fill="#5EC688"/>
<path d="M19.9999 54.3188H13.3333V47.6521H19.9999V54.3188Z" fill="#5EC688"/>
<path d="M73.3332 47.6521H66.6665V40.9854H73.3332V47.6521Z" fill="#548AD0"/>
<path d="M59.9999 47.6521H53.3333V40.9854H59.9999V47.6521Z" fill="#F6F010"/>
<path d="M53.3333 47.6521H46.6666V40.9854H53.3333V47.6521Z" fill="#F6F010"/>
<path d="M46.6667 47.6521H40V40.9854H46.6667V47.6521Z" fill="#F6F010"/>
<path d="M39.9999 47.6521H33.3333V40.9854H39.9999V47.6521Z" fill="#F6F010"/>
<path d="M33.3333 47.6521H26.6666V40.9854H33.3333V47.6521Z" fill="#F6F010"/>
<path d="M26.6667 47.6521H20V40.9854H26.6667V47.6521Z" fill="#F6F010"/>
<path d="M19.9999 47.6521H13.3333V40.9854H19.9999V47.6521Z" fill="#F6F010"/>
<path d="M73.3332 40.9854H66.6665V34.3198H73.3332V40.9854Z" fill="#548AD0"/>
<path d="M59.9999 40.9854H53.3333V34.3198H59.9999V40.9854Z" fill="#5EC688"/>
<path d="M53.3333 40.9854H46.6666V34.3198H53.3333V40.9854Z" fill="#F6F010"/>
<path d="M46.6667 40.9854H40V34.3198H46.6667V40.9854Z" fill="#F6F010"/>
<path d="M33.3333 40.9854H26.6666V34.3198H33.3333V40.9854Z" fill="#F6F010"/>
<path d="M26.6667 40.9854H20V34.3198H26.6667V40.9854Z" fill="#F6F010"/>
<path d="M19.9999 40.9854H13.3333V34.3198H19.9999V40.9854Z" fill="#5EC688"/>
<path d="M73.3332 34.3198H66.6665V27.6532H73.3332V34.3198Z" fill="#548AD0"/>
<path d="M66.6665 34.3198H60V27.6532H66.6665V34.3198Z" fill="#548AD0"/>
<path d="M59.9999 34.3198H53.3333V27.6532H59.9999V34.3198Z" fill="#5EC688"/>
<path d="M53.3333 34.3198H46.6666V27.6532H53.3333V34.3198Z" fill="#548AD0"/>
<path d="M46.6667 34.3198H40V27.6532H46.6667V34.3198Z" fill="#548AD0"/>
<path d="M39.9999 34.3198H33.3333V27.6532H39.9999V34.3198Z" fill="#548AD0"/>
<path d="M33.3333 34.3198H26.6666V27.6532H33.3333V34.3198Z" fill="#548AD0"/>
<path d="M26.6667 34.3198H20V27.6532H26.6667V34.3198Z" fill="#548AD0"/>
<path d="M19.9999 34.3198H13.3333V27.6532H19.9999V34.3198Z" fill="#5EC688"/>
<path d="M13.3333 34.3198H6.66663V27.6532H13.3333V34.3198Z" fill="#548AD0"/>
<path d="M66.6665 27.6532H60V20.9865H66.6665V27.6532Z" fill="#548AD0"/>
<path d="M59.9999 27.6532H53.3333V20.9865H59.9999V27.6532Z" fill="#5EC688"/>
<path d="M46.6667 27.6532H40V20.9865H46.6667V27.6532Z" fill="#548AD0"/>
<path d="M26.6667 27.6532H20V20.9865H26.6667V27.6532Z" fill="#548AD0"/>
<path d="M19.9999 27.6532H13.3333V20.9865H19.9999V27.6532Z" fill="#5EC688"/>
<path d="M13.3333 27.6532H6.66663V20.9865H13.3333V27.6532Z" fill="#548AD0"/>
<path d="M6.66667 27.6532H0V20.9865H6.66667V27.6532Z" fill="#548AD0"/>
<path d="M59.9999 20.9865H53.3333V14.3198H59.9999V20.9865Z" fill="#5EC688"/>
<path d="M53.3333 20.9865H46.6666V14.3198H53.3333V20.9865Z" fill="#5EC688"/>
<path d="M46.6667 20.9865H40V14.3198H46.6667V20.9865Z" fill="#5EC688"/>
<path d="M39.9999 20.9865H33.3333V14.3198H39.9999V20.9865Z" fill="#5EC688"/>
<path d="M33.3333 20.9865H26.6666V14.3198H33.3333V20.9865Z" fill="#5EC688"/>
<path d="M26.6667 20.9865H20V14.3198H26.6667V20.9865Z" fill="#5EC688"/>
<path d="M6.66667 20.9865H0V14.3198H6.66667V20.9865Z" fill="#548AD0"/>
<path d="M53.3333 14.3198H46.6666V7.65317H53.3333V14.3198Z" fill="#F6F010"/>
<path d="M33.3333 14.3198H26.6666V7.65317H33.3333V14.3198Z" fill="#F6F010"/>
<path d="M6.66667 14.3198H0V7.65317H6.66667V14.3198Z" fill="#548AD0"/>
<path d="M59.9999 7.65316H53.3333V0.986632H59.9999V7.65316Z" fill="#F6F010"/>
<path d="M53.3333 7.65316H46.6666V0.986632H53.3333V7.65316Z" fill="#F6F010"/>
<path d="M33.3333 7.65316H26.6666V0.986632H33.3333V7.65316Z" fill="#F6F010"/>
<path d="M26.6667 7.65316H20V0.986632H26.6667V7.65316Z" fill="#F6F010"/>
</svg>
