<svg width="67" height="47" viewBox="0 0 67 47" fill="none" xmlns="http://www.w3.org/2000/svg">
<path d="M66.7692 46.6666H60.1025V40H66.7692V46.6666Z" fill="#ED1555"/>
<path d="M60.1025 46.6666H53.4358V40H60.1025V46.6666Z" fill="#ED1555"/>
<path d="M53.4358 46.6666H46.7692V40H53.4358V46.6666Z" fill="#F6F010"/>
<path d="M46.7692 46.6666H40.1025V40H46.7692V46.6666Z" fill="#F6F010"/>
<path d="M26.7692 46.6666H20.1025V40H26.7692V46.6666Z" fill="#F6F010"/>
<path d="M20.1025 46.6666H13.4358V40H20.1025V46.6666Z" fill="#F6F010"/>
<path d="M13.4358 46.6666H6.76917V40H13.4358V46.6666Z" fill="#ED1555"/>
<path d="M6.76921 46.6666H0.102539V40H6.76921V46.6666Z" fill="#ED1555"/>
<path d="M60.1025 40H53.4358V33.3333H60.1025V40Z" fill="#ED1555"/>
<path d="M53.4358 40H46.7692V33.3333H53.4358V40Z" fill="#F6F010"/>
<path d="M46.7692 40H40.1025V33.3333H46.7692V40Z" fill="#F6F010"/>
<path d="M40.1025 40H33.4358V33.3333H40.1025V40Z" fill="#ED1555"/>
<path d="M33.4358 40H26.7692V33.3333H33.4358V40Z" fill="#ED1555"/>
<path d="M26.7692 40H20.1025V33.3333H26.7692V40Z" fill="#F6F010"/>
<path d="M20.1025 40H13.4358V33.3333H20.1025V40Z" fill="#F6F010"/>
<path d="M13.4358 40H6.76917V33.3333H13.4358V40Z" fill="#ED1555"/>
<path d="M60.1025 33.3333H53.4358V26.6666H60.1025V33.3333Z" fill="#548AD0"/>
<path d="M53.4358 33.3333H46.7692V26.6666H53.4358V33.3333Z" fill="#F6F010"/>
<path d="M20.1025 33.3333H13.4358V26.6666H20.1025V33.3333Z" fill="#F6F010"/>
<path d="M13.4358 33.3333H6.76917V26.6666H13.4358V33.3333Z" fill="#548AD0"/>
<path d="M66.7692 26.6666H60.1025V20H66.7692V26.6666Z" fill="#548AD0"/>
<path d="M60.1025 26.6666H53.4358V20H60.1025V26.6666Z" fill="#548AD0"/>
<path d="M53.4358 26.6666H46.7692V20H53.4358V26.6666Z" fill="#F6F010"/>
<path d="M46.7692 26.6666H40.1025V20H46.7692V26.6666Z" fill="#F6F010"/>
<path d="M40.1025 26.6666H33.4358V20H40.1025V26.6666Z" fill="#ED1555"/>
<path d="M33.4358 26.6666H26.7692V20H33.4358V26.6666Z" fill="#ED1555"/>
<path d="M26.7692 26.6666H20.1025V20H26.7692V26.6666Z" fill="#F6F010"/>
<path d="M20.1025 26.6666H13.4358V20H20.1025V26.6666Z" fill="#F6F010"/>
<path d="M13.4358 26.6666H6.76917V20H13.4358V26.6666Z" fill="#548AD0"/>
<path d="M6.76921 26.6666H0.102539V20H6.76921V26.6666Z" fill="#548AD0"/>
<path d="M66.7692 20H60.1025V13.3333H66.7692V20Z" fill="#548AD0"/>
<path d="M60.1025 20H53.4358V13.3333H60.1025V20Z" fill="#548AD0"/>
<path d="M53.4358 20H46.7692V13.3333H53.4358V20Z" fill="#F6F010"/>
<path d="M33.4358 20H26.7692V13.3333H33.4358V20Z" fill="#ED1555"/>
<path d="M20.1025 20H13.4358V13.3333H20.1025V20Z" fill="#F6F010"/>
<path d="M13.4358 20H6.76917V13.3333H13.4358V20Z" fill="#548AD0"/>
<path d="M6.76921 20H0.102539V13.3333H6.76921V20Z" fill="#548AD0"/>
<path d="M66.7692 13.3333H60.1025V6.66662H66.7692V13.3333Z" fill="#548AD0"/>
<path d="M53.4358 13.3333H46.7692V6.66662H53.4358V13.3333Z" fill="#F6F010"/>
<path d="M46.7692 13.3333H40.1025V6.66662H46.7692V13.3333Z" fill="#F6F010"/>
<path d="M40.1025 13.3333H33.4358V6.66662H40.1025V13.3333Z" fill="#ED1555"/>
<path d="M33.4358 13.3333H26.7692V6.66662H33.4358V13.3333Z" fill="#ED1555"/>
<path d="M26.7692 13.3333H20.1025V6.66662H26.7692V13.3333Z" fill="#F6F010"/>
<path d="M20.1025 13.3333H13.4358V6.66662H20.1025V13.3333Z" fill="#F6F010"/>
<path d="M6.76921 13.3333H0.102539V6.66662H6.76921V13.3333Z" fill="#548AD0"/>
<path d="M40.1025 6.66666H33.4358V-9.53674e-06H40.1025V6.66666Z" fill="#ED1555"/>
<path d="M33.4358 6.66666H26.7692V-9.53674e-06H33.4358V6.66666Z" fill="#ED1555"/>
</svg>
