<svg width="81" height="61" viewBox="0 0 81 61" fill="none" xmlns="http://www.w3.org/2000/svg">
<path d="M60.3185 60.3333H53.6519V53.6666H60.3185V60.3333Z" fill="#F6F010"/>
<path d="M53.6518 60.3333H46.9851V53.6666H53.6518V60.3333Z" fill="#F6F010"/>
<path d="M33.6518 60.3333H26.9851V53.6666H33.6518V60.3333Z" fill="#F6F010"/>
<path d="M26.9851 60.3333H20.3185V53.6666H26.9851V60.3333Z" fill="#F6F010"/>
<path d="M53.6518 53.6666H46.9851V47H53.6518V53.6666Z" fill="#F6F010"/>
<path d="M33.6518 53.6666H26.9851V47H33.6518V53.6666Z" fill="#F6F010"/>
<path d="M80.3185 47H73.6519V40.3333H80.3185V47Z" fill="#5EC688"/>
<path d="M60.3185 47H53.6519V40.3333H60.3185V47Z" fill="#F6F010"/>
<path d="M53.6518 47H46.9851V40.3333H53.6518V47Z" fill="#F6F010"/>
<path d="M46.9851 47H40.3185V40.3333H46.9851V47Z" fill="#F6F010"/>
<path d="M40.3185 47H33.6519V40.3333H40.3185V47Z" fill="#F6F010"/>
<path d="M33.6518 47H26.9851V40.3333H33.6518V47Z" fill="#F6F010"/>
<path d="M26.9851 47H20.3185V40.3333H26.9851V47Z" fill="#F6F010"/>
<path d="M6.98515 47H0.318481V40.3333H6.98515V47Z" fill="#5EC688"/>
<path d="M80.3185 40.3333H73.6519V33.6666H80.3185V40.3333Z" fill="#5EC688"/>
<path d="M66.9851 40.3333H60.3185V33.6666H66.9851V40.3333Z" fill="#ED1555"/>
<path d="M60.3185 40.3333H53.6519V33.6666H60.3185V40.3333Z" fill="#ED1555"/>
<path d="M53.6518 40.3333H46.9851V33.6666H53.6518V40.3333Z" fill="#ED1555"/>
<path d="M46.9851 40.3333H40.3185V33.6666H46.9851V40.3333Z" fill="#ED1555"/>
<path d="M40.3185 40.3333H33.6519V33.6666H40.3185V40.3333Z" fill="#ED1555"/>
<path d="M33.6518 40.3333H26.9851V33.6666H33.6518V40.3333Z" fill="#ED1555"/>
<path d="M26.9851 40.3333H20.3185V33.6666H26.9851V40.3333Z" fill="#ED1555"/>
<path d="M20.3185 40.3333H13.6519V33.6666H20.3185V40.3333Z" fill="#ED1555"/>
<path d="M6.98515 40.3333H0.318481V33.6666H6.98515V40.3333Z" fill="#5EC688"/>
<path d="M80.3185 33.6666H73.6519V27H80.3185V33.6666Z" fill="#5EC688"/>
<path d="M73.6518 33.6666H66.9851V27H73.6518V33.6666Z" fill="#5EC688"/>
<path d="M66.9851 33.6666H60.3185V27H66.9851V33.6666Z" fill="#ED1555"/>
<path d="M60.3185 33.6666H53.6519V27H60.3185V33.6666Z" fill="#ED1555"/>
<path d="M46.9851 33.6666H40.3185V27H46.9851V33.6666Z" fill="#ED1555"/>
<path d="M40.3185 33.6666H33.6519V27H40.3185V33.6666Z" fill="#ED1555"/>
<path d="M26.9851 33.6666H20.3185V27H26.9851V33.6666Z" fill="#ED1555"/>
<path d="M20.3185 33.6666H13.6519V27H20.3185V33.6666Z" fill="#ED1555"/>
<path d="M13.6518 33.6666H6.98511V27H13.6518V33.6666Z" fill="#5EC688"/>
<path d="M6.98515 33.6666H0.318481V27H6.98515V33.6666Z" fill="#5EC688"/>
<path d="M73.6518 27H66.9851V20.3333H73.6518V27Z" fill="#5EC688"/>
<path d="M66.9851 27H60.3185V20.3333H66.9851V27Z" fill="#ED1555"/>
<path d="M60.3185 27H53.6519V20.3333H60.3185V27Z" fill="#ED1555"/>
<path d="M53.6518 27H46.9851V20.3333H53.6518V27Z" fill="#ED1555"/>
<path d="M46.9851 27H40.3185V20.3333H46.9851V27Z" fill="#ED1555"/>
<path d="M40.3185 27H33.6519V20.3333H40.3185V27Z" fill="#ED1555"/>
<path d="M26.9851 27H20.3185V20.3333H26.9851V27Z" fill="#ED1555"/>
<path d="M20.3185 27H13.6519V20.3333H20.3185V27Z" fill="#ED1555"/>
<path d="M13.6518 27H6.98511V20.3333H13.6518V27Z" fill="#5EC688"/>
<path d="M66.9851 20.3333H60.3185V13.6666H66.9851V20.3333Z" fill="#5EC688"/>
<path d="M60.3185 20.3333H53.6519V13.6666H60.3185V20.3333Z" fill="#5EC688"/>
<path d="M53.6518 20.3333H46.9851V13.6666H53.6518V20.3333Z" fill="#5EC688"/>
<path d="M46.9851 20.3333H40.3185V13.6666H46.9851V20.3333Z" fill="#5EC688"/>
<path d="M40.3185 20.3333H33.6519V13.6666H40.3185V20.3333Z" fill="#5EC688"/>
<path d="M33.6518 20.3333H26.9851V13.6666H33.6518V20.3333Z" fill="#5EC688"/>
<path d="M26.9851 20.3333H20.3185V13.6666H26.9851V20.3333Z" fill="#5EC688"/>
<path d="M20.3185 20.3333H13.6519V13.6666H20.3185V20.3333Z" fill="#5EC688"/>
<path d="M60.3185 13.6667H53.6519V6.99999H60.3185V13.6667Z" fill="#5EC688"/>
<path d="M26.9851 13.6667H20.3185V6.99999H26.9851V13.6667Z" fill="#5EC688"/>
<path d="M60.3185 6.99997H53.6519V0.333303H60.3185V6.99997Z" fill="#5EC688"/>
<path d="M53.6518 6.99997H46.9851V0.333303H53.6518V6.99997Z" fill="#5EC688"/>
<path d="M33.6518 6.99997H26.9851V0.333303H33.6518V6.99997Z" fill="#5EC688"/>
<path d="M26.9851 6.99997H20.3185V0.333303H26.9851V6.99997Z" fill="#5EC688"/>
</svg>
