<svg width="95" height="67" viewBox="0 0 95 67" fill="none" xmlns="http://www.w3.org/2000/svg">
<path d="M87.6518 67H80.9851V60.3333H87.6518V67Z" fill="#5EC688"/>
<path d="M80.9851 67H74.3185V60.3333H80.9851V67Z" fill="#5EC688"/>
<path d="M74.3185 67H67.6519V60.3333H74.3185V67Z" fill="#5EC688"/>
<path d="M67.6518 67H60.9851V60.3333H67.6518V67Z" fill="#5EC688"/>
<path d="M60.9851 67H54.3185V60.3333H60.9851V67Z" fill="#5EC688"/>
<path d="M47.6518 67H40.9851V60.3333H47.6518V67Z" fill="#5EC688"/>
<path d="M40.9851 67H34.3185V60.3333H40.9851V67Z" fill="#5EC688"/>
<path d="M34.3185 67H27.6519V60.3333H34.3185V67Z" fill="#5EC688"/>
<path d="M27.6518 67H20.9851V60.3333H27.6518V67Z" fill="#5EC688"/>
<path d="M20.9851 67H14.3185V60.3333H20.9851V67Z" fill="#5EC688"/>
<path d="M80.9851 60.3333H74.3185V53.6666H80.9851V60.3333Z" fill="#ED1555"/>
<path d="M74.3185 60.3333H67.6519V53.6666H74.3185V60.3333Z" fill="#ED1555"/>
<path d="M67.6518 60.3333H60.9851V53.6666H67.6518V60.3333Z" fill="#5EC688"/>
<path d="M60.9851 60.3333H54.3185V53.6666H60.9851V60.3333Z" fill="#5EC688"/>
<path d="M54.3185 60.3333H47.6519V53.6666H54.3185V60.3333Z" fill="#5EC688"/>
<path d="M47.6518 60.3333H40.9851V53.6666H47.6518V60.3333Z" fill="#5EC688"/>
<path d="M40.9851 60.3333H34.3185V53.6666H40.9851V60.3333Z" fill="#5EC688"/>
<path d="M34.3185 60.3333H27.6519V53.6666H34.3185V60.3333Z" fill="#ED1555"/>
<path d="M27.6518 60.3333H20.9851V53.6666H27.6518V60.3333Z" fill="#ED1555"/>
<path d="M74.3185 53.6666H67.6519V47H74.3185V53.6666Z" fill="#ED1555"/>
<path d="M67.6518 53.6666H60.9851V47H67.6518V53.6666Z" fill="#ED1555"/>
<path d="M60.9851 53.6666H54.3185V47H60.9851V53.6666Z" fill="#ED1555"/>
<path d="M47.6518 53.6666H40.9851V47H47.6518V53.6666Z" fill="#ED1555"/>
<path d="M40.9851 53.6666H34.3185V47H40.9851V53.6666Z" fill="#ED1555"/>
<path d="M74.3185 47H67.6519V40.3333H74.3185V47Z" fill="#5EC688"/>
<path d="M67.6518 47H60.9851V40.3333H67.6518V47Z" fill="#5EC688"/>
<path d="M60.9851 47H54.3185V40.3333H60.9851V47Z" fill="#5EC688"/>
<path d="M54.3185 47H47.6519V40.3333H54.3185V47Z" fill="#5EC688"/>
<path d="M47.6518 47H40.9851V40.3333H47.6518V47Z" fill="#5EC688"/>
<path d="M40.9851 47H34.3185V40.3333H40.9851V47Z" fill="#5EC688"/>
<path d="M20.9851 47H14.3185V40.3333H20.9851V47Z" fill="#ED1555"/>
<path d="M74.3185 40.3333H67.6519V33.6666H74.3185V40.3333Z" fill="#5EC688"/>
<path d="M54.3185 40.3333H47.6519V33.6666H54.3185V40.3333Z" fill="#5EC688"/>
<path d="M40.9851 40.3333H34.3185V33.6666H40.9851V40.3333Z" fill="#5EC688"/>
<path d="M27.6518 40.3333H20.9851V33.6666H27.6518V40.3333Z" fill="#ED1555"/>
<path d="M74.3185 33.6666H67.6519V27H74.3185V33.6666Z" fill="#5EC688"/>
<path d="M54.3185 33.6666H47.6519V27H54.3185V33.6666Z" fill="#5EC688"/>
<path d="M40.9851 33.6666H34.3185V27H40.9851V33.6666Z" fill="#5EC688"/>
<path d="M34.3185 33.6666H27.6519V27H34.3185V33.6666Z" fill="#ED1555"/>
<path d="M80.9851 27H74.3185V20.3333H80.9851V27Z" fill="#ED1555"/>
<path d="M74.3185 27H67.6519V20.3333H74.3185V27Z" fill="#5EC688"/>
<path d="M67.6518 27H60.9851V20.3333H67.6518V27Z" fill="#5EC688"/>
<path d="M60.9851 27H54.3185V20.3333H60.9851V27Z" fill="#5EC688"/>
<path d="M54.3185 27H47.6519V20.3333H54.3185V27Z" fill="#5EC688"/>
<path d="M47.6518 27H40.9851V20.3333H47.6518V27Z" fill="#5EC688"/>
<path d="M40.9851 27H34.3185V20.3333H40.9851V27Z" fill="#5EC688"/>
<path d="M34.3185 27H27.6519V20.3333H34.3185V27Z" fill="#5EC688"/>
<path d="M27.6518 27H20.9851V20.3333H27.6518V27Z" fill="#548AD0"/>
<path d="M20.9851 27H14.3185V20.3333H20.9851V27Z" fill="#548AD0"/>
<path d="M14.3185 27H7.65186V20.3333H14.3185V27Z" fill="#548AD0"/>
<path d="M7.65177 27H0.985107V20.3333H7.65177V27Z" fill="#548AD0"/>
<path d="M87.6518 20.3333H80.9851V13.6666H87.6518V20.3333Z" fill="#ED1555"/>
<path d="M74.3185 20.3333H67.6519V13.6666H74.3185V20.3333Z" fill="#ED1555"/>
<path d="M67.6518 20.3333H60.9851V13.6666H67.6518V20.3333Z" fill="#ED1555"/>
<path d="M60.9851 20.3333H54.3185V13.6666H60.9851V20.3333Z" fill="#ED1555"/>
<path d="M54.3185 20.3333H47.6519V13.6666H54.3185V20.3333Z" fill="#ED1555"/>
<path d="M47.6518 20.3333H40.9851V13.6666H47.6518V20.3333Z" fill="#ED1555"/>
<path d="M40.9851 20.3333H34.3185V13.6666H40.9851V20.3333Z" fill="#ED1555"/>
<path d="M34.3185 20.3333H27.6519V13.6666H34.3185V20.3333Z" fill="#ED1555"/>
<path d="M27.6518 20.3333H20.9851V13.6666H27.6518V20.3333Z" fill="#ED1555"/>
<path d="M20.9851 20.3333H14.3185V13.6666H20.9851V20.3333Z" fill="#ED1555"/>
<path d="M14.3185 20.3333H7.65186V13.6666H14.3185V20.3333Z" fill="#ED1555"/>
<path d="M7.65177 20.3333H0.985107V13.6666H7.65177V20.3333Z" fill="#ED1555"/>
<path d="M94.3185 13.6667H87.6519V6.99999H94.3185V13.6667Z" fill="#ED1555"/>
<path d="M67.6518 13.6667H60.9851V6.99999H67.6518V13.6667Z" fill="#548AD0"/>
<path d="M60.9851 13.6667H54.3185V6.99999H60.9851V13.6667Z" fill="#548AD0"/>
<path d="M54.3185 13.6667H47.6519V6.99999H54.3185V13.6667Z" fill="#548AD0"/>
<path d="M47.6518 13.6667H40.9851V6.99999H47.6518V13.6667Z" fill="#548AD0"/>
<path d="M34.3185 13.6667H27.6519V6.99999H34.3185V13.6667Z" fill="#548AD0"/>
<path d="M27.6518 13.6667H20.9851V6.99999H27.6518V13.6667Z" fill="#548AD0"/>
<path d="M20.9851 13.6667H14.3185V6.99999H20.9851V13.6667Z" fill="#548AD0"/>
<path d="M14.3185 13.6667H7.65186V6.99999H14.3185V13.6667Z" fill="#548AD0"/>
<path d="M67.6518 6.99997H60.9851V0.333303H67.6518V6.99997Z" fill="#548AD0"/>
<path d="M60.9851 6.99997H54.3185V0.333303H60.9851V6.99997Z" fill="#548AD0"/>
<path d="M54.3185 6.99997H47.6519V0.333303H54.3185V6.99997Z" fill="#548AD0"/>
<path d="M27.6518 6.99997H20.9851V0.333303H27.6518V6.99997Z" fill="#548AD0"/>
<path d="M20.9851 6.99997H14.3185V0.333303H20.9851V6.99997Z" fill="#548AD0"/>
<path d="M14.3185 6.99997H7.65186V0.333303H14.3185V6.99997Z" fill="#548AD0"/>
</svg>
