<svg width="81" height="95" viewBox="0 0 81 95" fill="none" xmlns="http://www.w3.org/2000/svg">
<path d="M67.3185 94.2186H60.6519V87.5519H67.3185V94.2186Z" fill="#5EC688"/>
<path d="M60.6518 94.2186H53.9851V87.5519H60.6518V94.2186Z" fill="#5EC688"/>
<path d="M53.9851 94.2186H47.3185V87.5519H53.9851V94.2186Z" fill="#5EC688"/>
<path d="M27.3185 94.2186H20.6519V87.5519H27.3185V94.2186Z" fill="#5EC688"/>
<path d="M20.6518 94.2186H13.9851V87.5519H20.6518V94.2186Z" fill="#5EC688"/>
<path d="M13.9851 94.2186H7.31848V87.5519H13.9851V94.2186Z" fill="#5EC688"/>
<path d="M67.3185 87.5519H60.6519V80.8853H67.3185V87.5519Z" fill="#5EC688"/>
<path d="M53.9851 87.5519H47.3185V80.8853H53.9851V87.5519Z" fill="#5EC688"/>
<path d="M27.3185 87.5519H20.6519V80.8853H27.3185V87.5519Z" fill="#5EC688"/>
<path d="M13.9851 87.5519H7.31848V80.8853H13.9851V87.5519Z" fill="#5EC688"/>
<path d="M53.9851 80.8853H47.3185V74.2186H53.9851V80.8853Z" fill="#5EC688"/>
<path d="M27.3185 80.8853H20.6519V74.2186H27.3185V80.8853Z" fill="#5EC688"/>
<path d="M80.6518 74.2186H73.9851V67.5519H80.6518V74.2186Z" fill="#F6F010"/>
<path d="M73.9851 74.2186H67.3185V67.5519H73.9851V74.2186Z" fill="#F6F010"/>
<path d="M67.3185 74.2186H60.6519V67.5519H67.3185V74.2186Z" fill="#5EC688"/>
<path d="M60.6518 74.2186H53.9851V67.5519H60.6518V74.2186Z" fill="#5EC688"/>
<path d="M53.9851 74.2186H47.3185V67.5519H53.9851V74.2186Z" fill="#5EC688"/>
<path d="M47.3185 74.2186H40.6519V67.5519H47.3185V74.2186Z" fill="#5EC688"/>
<path d="M40.6518 74.2186H33.9851V67.5519H40.6518V74.2186Z" fill="#5EC688"/>
<path d="M33.9851 74.2186H27.3185V67.5519H33.9851V74.2186Z" fill="#5EC688"/>
<path d="M27.3185 74.2186H20.6519V67.5519H27.3185V74.2186Z" fill="#5EC688"/>
<path d="M20.6518 74.2186H13.9851V67.5519H20.6518V74.2186Z" fill="#5EC688"/>
<path d="M13.9851 74.2186H7.31848V67.5519H13.9851V74.2186Z" fill="#F6F010"/>
<path d="M7.31852 74.2186H0.651855V67.5519H7.31852V74.2186Z" fill="#F6F010"/>
<path d="M60.6518 67.552H53.9851V60.8853H60.6518V67.552Z" fill="#F6F010"/>
<path d="M53.9851 67.552H47.3185V60.8853H53.9851V67.552Z" fill="#F6F010"/>
<path d="M47.3185 67.552H40.6519V60.8853H47.3185V67.552Z" fill="#F6F010"/>
<path d="M40.6518 67.552H33.9851V60.8853H40.6518V67.552Z" fill="#F6F010"/>
<path d="M33.9851 67.552H27.3185V60.8853H33.9851V67.552Z" fill="#F6F010"/>
<path d="M27.3185 67.552H20.6519V60.8853H27.3185V67.552Z" fill="#F6F010"/>
<path d="M80.6518 60.8853H73.9851V54.2186H80.6518V60.8853Z" fill="#548AD0"/>
<path d="M73.9851 60.8853H67.3185V54.2186H73.9851V60.8853Z" fill="#548AD0"/>
<path d="M60.6518 60.8853H53.9851V54.2186H60.6518V60.8853Z" fill="#F6F010"/>
<path d="M33.9851 60.8853H27.3185V54.2186H33.9851V60.8853Z" fill="#F6F010"/>
<path d="M27.3185 60.8853H20.6519V54.2186H27.3185V60.8853Z" fill="#F6F010"/>
<path d="M13.9851 60.8853H7.31848V54.2186H13.9851V60.8853Z" fill="#548AD0"/>
<path d="M7.31852 60.8853H0.651855V54.2186H7.31852V60.8853Z" fill="#548AD0"/>
<path d="M80.6518 54.2186H73.9851V47.552H80.6518V54.2186Z" fill="#548AD0"/>
<path d="M73.9851 54.2186H67.3185V47.552H73.9851V54.2186Z" fill="#548AD0"/>
<path d="M60.6518 54.2186H53.9851V47.552H60.6518V54.2186Z" fill="#F6F010"/>
<path d="M47.3185 54.2186H40.6519V47.552H47.3185V54.2186Z" fill="#F6F010"/>
<path d="M27.3185 54.2186H20.6519V47.552H27.3185V54.2186Z" fill="#F6F010"/>
<path d="M13.9851 54.2186H7.31848V47.552H13.9851V54.2186Z" fill="#548AD0"/>
<path d="M7.31852 54.2186H0.651855V47.552H7.31852V54.2186Z" fill="#548AD0"/>
<path d="M80.6518 47.552H73.9851V40.8853H80.6518V47.552Z" fill="#548AD0"/>
<path d="M73.9851 47.552H67.3185V40.8853H73.9851V47.552Z" fill="#548AD0"/>
<path d="M67.3185 47.552H60.6519V40.8853H67.3185V47.552Z" fill="#F6F010"/>
<path d="M60.6518 47.552H53.9851V40.8853H60.6518V47.552Z" fill="#F6F010"/>
<path d="M53.9851 47.552H47.3185V40.8853H53.9851V47.552Z" fill="#F6F010"/>
<path d="M47.3185 47.552H40.6519V40.8853H47.3185V47.552Z" fill="#F6F010"/>
<path d="M40.6518 47.552H33.9851V40.8853H40.6518V47.552Z" fill="#F6F010"/>
<path d="M33.9851 47.552H27.3185V40.8853H33.9851V47.552Z" fill="#F6F010"/>
<path d="M27.3185 47.552H20.6519V40.8853H27.3185V47.552Z" fill="#F6F010"/>
<path d="M20.6518 47.552H13.9851V40.8853H20.6518V47.552Z" fill="#F6F010"/>
<path d="M13.9851 47.552H7.31848V40.8853H13.9851V47.552Z" fill="#548AD0"/>
<path d="M7.31852 47.552H0.651855V40.8853H7.31852V47.552Z" fill="#548AD0"/>
<path d="M80.6518 40.8853H73.9851V34.2186H80.6518V40.8853Z" fill="#548AD0"/>
<path d="M73.9851 40.8853H67.3185V34.2186H73.9851V40.8853Z" fill="#548AD0"/>
<path d="M67.3185 40.8853H60.6519V34.2186H67.3185V40.8853Z" fill="#F6F010"/>
<path d="M60.6518 40.8853H53.9851V34.2186H60.6518V40.8853Z" fill="#F6F010"/>
<path d="M47.3185 40.8853H40.6519V34.2186H47.3185V40.8853Z" fill="#F6F010"/>
<path d="M40.6518 40.8853H33.9851V34.2186H40.6518V40.8853Z" fill="#F6F010"/>
<path d="M33.9851 40.8853H27.3185V34.2186H33.9851V40.8853Z" fill="#F6F010"/>
<path d="M20.6518 40.8853H13.9851V34.2186H20.6518V40.8853Z" fill="#F6F010"/>
<path d="M13.9851 40.8853H7.31848V34.2186H13.9851V40.8853Z" fill="#548AD0"/>
<path d="M7.31852 40.8853H0.651855V34.2186H7.31852V40.8853Z" fill="#548AD0"/>
<path d="M80.6518 34.2186H73.9851V27.552H80.6518V34.2186Z" fill="#548AD0"/>
<path d="M67.3185 34.2186H60.6519V27.552H67.3185V34.2186Z" fill="#F6F010"/>
<path d="M60.6518 34.2186H53.9851V27.552H60.6518V34.2186Z" fill="#F6F010"/>
<path d="M53.9851 34.2186H47.3185V27.552H53.9851V34.2186Z" fill="#F6F010"/>
<path d="M47.3185 34.2186H40.6519V27.552H47.3185V34.2186Z" fill="#F6F010"/>
<path d="M40.6518 34.2186H33.9851V27.552H40.6518V34.2186Z" fill="#F6F010"/>
<path d="M33.9851 34.2186H27.3185V27.552H33.9851V34.2186Z" fill="#F6F010"/>
<path d="M27.3185 34.2186H20.6519V27.552H27.3185V34.2186Z" fill="#F6F010"/>
<path d="M20.6518 34.2186H13.9851V27.552H20.6518V34.2186Z" fill="#F6F010"/>
<path d="M7.31852 34.2186H0.651855V27.552H7.31852V34.2186Z" fill="#548AD0"/>
<path d="M67.3185 27.552H60.6519V20.8853H67.3185V27.552Z" fill="#F6F010"/>
<path d="M60.6518 27.552H53.9851V20.8853H60.6518V27.552Z" fill="#F6F010"/>
<path d="M53.9851 27.552H47.3185V20.8853H53.9851V27.552Z" fill="#F6F010"/>
<path d="M33.9851 27.552H27.3185V20.8853H33.9851V27.552Z" fill="#F6F010"/>
<path d="M27.3185 27.552H20.6519V20.8853H27.3185V27.552Z" fill="#F6F010"/>
<path d="M20.6518 27.552H13.9851V20.8853H20.6518V27.552Z" fill="#F6F010"/>
<path d="M67.3185 20.8853H60.6519V14.2186H67.3185V20.8853Z" fill="#5EC688"/>
<path d="M20.6518 20.8853H13.9851V14.2186H20.6518V20.8853Z" fill="#5EC688"/>
<path d="M67.3185 14.2186H60.6519V7.55196H67.3185V14.2186Z" fill="#5EC688"/>
<path d="M60.6518 14.2186H53.9851V7.55196H60.6518V14.2186Z" fill="#5EC688"/>
<path d="M53.9851 14.2186H47.3185V7.55196H53.9851V14.2186Z" fill="#5EC688"/>
<path d="M47.3185 14.2186H40.6519V7.55196H47.3185V14.2186Z" fill="#5EC688"/>
<path d="M40.6518 14.2186H33.9851V7.55196H40.6518V14.2186Z" fill="#5EC688"/>
<path d="M33.9851 14.2186H27.3185V7.55196H33.9851V14.2186Z" fill="#5EC688"/>
<path d="M27.3185 14.2186H20.6519V7.55196H27.3185V14.2186Z" fill="#5EC688"/>
<path d="M20.6518 14.2186H13.9851V7.55196H20.6518V14.2186Z" fill="#5EC688"/>
<path d="M67.3185 7.55197H60.6519V0.885305H67.3185V7.55197Z" fill="#5EC688"/>
<path d="M20.6518 7.55197H13.9851V0.885305H20.6518V7.55197Z" fill="#5EC688"/>
</svg>
