<svg width="88" height="74" viewBox="0 0 88 74" fill="none" xmlns="http://www.w3.org/2000/svg">
<path d="M74.3185 73.884H67.6519V67.2173H74.3185V73.884Z" fill="#5EC688"/>
<path d="M67.6518 73.884H60.9851V67.2173H67.6518V73.884Z" fill="#5EC688"/>
<path d="M27.6518 73.884H20.9851V67.2173H27.6518V73.884Z" fill="#5EC688"/>
<path d="M20.9851 73.884H14.3185V67.2173H20.9851V73.884Z" fill="#5EC688"/>
<path d="M67.6518 67.2173H60.9851V60.5506H67.6518V67.2173Z" fill="#5EC688"/>
<path d="M54.3185 67.2173H47.6519V60.5506H54.3185V67.2173Z" fill="#ED1555"/>
<path d="M47.6518 67.2173H40.9851V60.5506H47.6518V67.2173Z" fill="#ED1555"/>
<path d="M40.9851 67.2173H34.3185V60.5506H40.9851V67.2173Z" fill="#ED1555"/>
<path d="M27.6518 67.2173H20.9851V60.5506H27.6518V67.2173Z" fill="#5EC688"/>
<path d="M87.6518 60.5507H80.9851V53.884H87.6518V60.5507Z" fill="#5EC688"/>
<path d="M60.9851 60.5507H54.3185V53.884H60.9851V60.5507Z" fill="#F6F010"/>
<path d="M54.3185 60.5507H47.6519V53.884H54.3185V60.5507Z" fill="#F6F010"/>
<path d="M47.6518 60.5507H40.9851V53.884H47.6518V60.5507Z" fill="#F6F010"/>
<path d="M40.9851 60.5507H34.3185V53.884H40.9851V60.5507Z" fill="#F6F010"/>
<path d="M34.3185 60.5507H27.6519V53.884H34.3185V60.5507Z" fill="#F6F010"/>
<path d="M7.65177 60.5507H0.985107V53.884H7.65177V60.5507Z" fill="#5EC688"/>
<path d="M80.9851 53.884H74.3185V47.2173H80.9851V53.884Z" fill="#5EC688"/>
<path d="M67.6518 53.884H60.9851V47.2173H67.6518V53.884Z" fill="#F6F010"/>
<path d="M60.9851 53.884H54.3185V47.2173H60.9851V53.884Z" fill="#F6F010"/>
<path d="M54.3185 53.884H47.6519V47.2173H54.3185V53.884Z" fill="#F6F010"/>
<path d="M34.3185 53.884H27.6519V47.2173H34.3185V53.884Z" fill="#F6F010"/>
<path d="M27.6518 53.884H20.9851V47.2173H27.6518V53.884Z" fill="#F6F010"/>
<path d="M14.3185 53.884H7.65186V47.2173H14.3185V53.884Z" fill="#5EC688"/>
<path d="M74.3185 47.2173H67.6519V40.5506H74.3185V47.2173Z" fill="#ED1555"/>
<path d="M67.6518 47.2173H60.9851V40.5506H67.6518V47.2173Z" fill="#ED1555"/>
<path d="M60.9851 47.2173H54.3185V40.5506H60.9851V47.2173Z" fill="#ED1555"/>
<path d="M54.3185 47.2173H47.6519V40.5506H54.3185V47.2173Z" fill="#ED1555"/>
<path d="M47.6518 47.2173H40.9851V40.5506H47.6518V47.2173Z" fill="#ED1555"/>
<path d="M40.9851 47.2173H34.3185V40.5506H40.9851V47.2173Z" fill="#ED1555"/>
<path d="M34.3185 47.2173H27.6519V40.5506H34.3185V47.2173Z" fill="#ED1555"/>
<path d="M27.6518 47.2173H20.9851V40.5506H27.6518V47.2173Z" fill="#ED1555"/>
<path d="M20.9851 47.2173H14.3185V40.5506H20.9851V47.2173Z" fill="#ED1555"/>
<path d="M87.6518 40.5507H80.9851V33.884H87.6518V40.5507Z" fill="#ED1555"/>
<path d="M80.9851 40.5507H74.3185V33.884H80.9851V40.5507Z" fill="#ED1555"/>
<path d="M74.3185 40.5507H67.6519V33.884H74.3185V40.5507Z" fill="#ED1555"/>
<path d="M67.6518 40.5507H60.9851V33.884H67.6518V40.5507Z" fill="#ED1555"/>
<path d="M60.9851 40.5507H54.3185V33.884H60.9851V40.5507Z" fill="#ED1555"/>
<path d="M47.6518 40.5507H40.9851V33.884H47.6518V40.5507Z" fill="#ED1555"/>
<path d="M40.9851 40.5507H34.3185V33.884H40.9851V40.5507Z" fill="#ED1555"/>
<path d="M27.6518 40.5507H20.9851V33.884H27.6518V40.5507Z" fill="#ED1555"/>
<path d="M20.9851 40.5507H14.3185V33.884H20.9851V40.5507Z" fill="#ED1555"/>
<path d="M14.3185 40.5507H7.65186V33.884H14.3185V40.5507Z" fill="#ED1555"/>
<path d="M7.65177 40.5507H0.985107V33.884H7.65177V40.5507Z" fill="#ED1555"/>
<path d="M87.6518 33.884H80.9851V27.2173H87.6518V33.884Z" fill="#ED1555"/>
<path d="M80.9851 33.884H74.3185V27.2173H80.9851V33.884Z" fill="#ED1555"/>
<path d="M74.3185 33.884H67.6519V27.2173H74.3185V33.884Z" fill="#ED1555"/>
<path d="M67.6518 33.884H60.9851V27.2173H67.6518V33.884Z" fill="#ED1555"/>
<path d="M60.9851 33.884H54.3185V27.2173H60.9851V33.884Z" fill="#ED1555"/>
<path d="M47.6518 33.884H40.9851V27.2173H47.6518V33.884Z" fill="#ED1555"/>
<path d="M40.9851 33.884H34.3185V27.2173H40.9851V33.884Z" fill="#ED1555"/>
<path d="M27.6518 33.884H20.9851V27.2173H27.6518V33.884Z" fill="#ED1555"/>
<path d="M20.9851 33.884H14.3185V27.2173H20.9851V33.884Z" fill="#ED1555"/>
<path d="M14.3185 33.884H7.65186V27.2173H14.3185V33.884Z" fill="#ED1555"/>
<path d="M7.65177 33.884H0.985107V27.2173H7.65177V33.884Z" fill="#ED1555"/>
<path d="M80.9851 27.2173H74.3185V20.5506H80.9851V27.2173Z" fill="#ED1555"/>
<path d="M74.3185 27.2173H67.6519V20.5506H74.3185V27.2173Z" fill="#ED1555"/>
<path d="M67.6518 27.2173H60.9851V20.5506H67.6518V27.2173Z" fill="#ED1555"/>
<path d="M60.9851 27.2173H54.3185V20.5506H60.9851V27.2173Z" fill="#ED1555"/>
<path d="M54.3185 27.2173H47.6519V20.5506H54.3185V27.2173Z" fill="#ED1555"/>
<path d="M47.6518 27.2173H40.9851V20.5506H47.6518V27.2173Z" fill="#ED1555"/>
<path d="M40.9851 27.2173H34.3185V20.5506H40.9851V27.2173Z" fill="#ED1555"/>
<path d="M34.3185 27.2173H27.6519V20.5506H34.3185V27.2173Z" fill="#ED1555"/>
<path d="M27.6518 27.2173H20.9851V20.5506H27.6518V27.2173Z" fill="#ED1555"/>
<path d="M20.9851 27.2173H14.3185V20.5506H20.9851V27.2173Z" fill="#ED1555"/>
<path d="M14.3185 27.2173H7.65186V20.5506H14.3185V27.2173Z" fill="#ED1555"/>
<path d="M67.6518 20.5507H60.9851V13.884H67.6518V20.5507Z" fill="#F6F010"/>
<path d="M60.9851 20.5507H54.3185V13.884H60.9851V20.5507Z" fill="#F6F010"/>
<path d="M34.3185 20.5507H27.6519V13.884H34.3185V20.5507Z" fill="#F6F010"/>
<path d="M27.6518 20.5507H20.9851V13.884H27.6518V20.5507Z" fill="#F6F010"/>
<path d="M74.3185 13.884H67.6519V7.21731H74.3185V13.884Z" fill="#F6F010"/>
<path d="M67.6518 13.884H60.9851V7.21731H67.6518V13.884Z" fill="#F6F010"/>
<path d="M60.9851 13.884H54.3185V7.21731H60.9851V13.884Z" fill="#F6F010"/>
<path d="M34.3185 13.884H27.6519V7.21731H34.3185V13.884Z" fill="#F6F010"/>
<path d="M27.6518 13.884H20.9851V7.21731H27.6518V13.884Z" fill="#F6F010"/>
<path d="M20.9851 13.884H14.3185V7.21731H20.9851V13.884Z" fill="#F6F010"/>
<path d="M67.6518 7.21732H60.9851V0.55065H67.6518V7.21732Z" fill="#F6F010"/>
<path d="M27.6518 7.21732H20.9851V0.55065H27.6518V7.21732Z" fill="#F6F010"/>
</svg>
