<svg width="61" height="68" viewBox="0 0 61 68" fill="none" xmlns="http://www.w3.org/2000/svg">
<path d="M60.4358 67.5506H53.7692V60.884H60.4358V67.5506Z" fill="#ED1555"/>
<path d="M7.10246 67.5506H0.435791V60.884H7.10246V67.5506Z" fill="#ED1555"/>
<path d="M53.7692 60.8839H47.1025V54.2173H53.7692V60.8839Z" fill="#ED1555"/>
<path d="M47.1025 60.8839H40.4358V54.2173H47.1025V60.8839Z" fill="#ED1555"/>
<path d="M40.4358 60.8839H33.7692V54.2173H40.4358V60.8839Z" fill="#ED1555"/>
<path d="M27.1025 60.8839H20.4358V54.2173H27.1025V60.8839Z" fill="#ED1555"/>
<path d="M20.4358 60.8839H13.7692V54.2173H20.4358V60.8839Z" fill="#ED1555"/>
<path d="M13.7692 60.8839H7.10254V54.2173H13.7692V60.8839Z" fill="#ED1555"/>
<path d="M53.7692 54.2173H47.1025V47.5506H53.7692V54.2173Z" fill="#ED1555"/>
<path d="M47.1025 54.2173H40.4358V47.5506H47.1025V54.2173Z" fill="#ED1555"/>
<path d="M20.4358 54.2173H13.7692V47.5506H20.4358V54.2173Z" fill="#ED1555"/>
<path d="M13.7692 54.2173H7.10254V47.5506H13.7692V54.2173Z" fill="#ED1555"/>
<path d="M53.7692 47.5506H47.1025V40.884H53.7692V47.5506Z" fill="#5EC688"/>
<path d="M47.1025 47.5506H40.4358V40.884H47.1025V47.5506Z" fill="#5EC688"/>
<path d="M40.4358 47.5506H33.7692V40.884H40.4358V47.5506Z" fill="#548AD0"/>
<path d="M33.7692 47.5506H27.1025V40.884H33.7692V47.5506Z" fill="#548AD0"/>
<path d="M27.1025 47.5506H20.4358V40.884H27.1025V47.5506Z" fill="#548AD0"/>
<path d="M20.4358 47.5506H13.7692V40.884H20.4358V47.5506Z" fill="#5EC688"/>
<path d="M13.7692 47.5506H7.10254V40.884H13.7692V47.5506Z" fill="#5EC688"/>
<path d="M53.7692 40.8839H47.1025V34.2173H53.7692V40.8839Z" fill="#5EC688"/>
<path d="M47.1025 40.8839H40.4358V34.2173H47.1025V40.8839Z" fill="#5EC688"/>
<path d="M40.4358 40.8839H33.7692V34.2173H40.4358V40.8839Z" fill="#548AD0"/>
<path d="M33.7692 40.8839H27.1025V34.2173H33.7692V40.8839Z" fill="#548AD0"/>
<path d="M27.1025 40.8839H20.4358V34.2173H27.1025V40.8839Z" fill="#548AD0"/>
<path d="M20.4358 40.8839H13.7692V34.2173H20.4358V40.8839Z" fill="#5EC688"/>
<path d="M13.7692 40.8839H7.10254V34.2173H13.7692V40.8839Z" fill="#5EC688"/>
<path d="M53.7692 34.2173H47.1025V27.5506H53.7692V34.2173Z" fill="#5EC688"/>
<path d="M47.1025 34.2173H40.4358V27.5506H47.1025V34.2173Z" fill="#5EC688"/>
<path d="M33.7692 34.2173H27.1025V27.5506H33.7692V34.2173Z" fill="#548AD0"/>
<path d="M27.1025 34.2173H20.4358V27.5506H27.1025V34.2173Z" fill="#548AD0"/>
<path d="M20.4358 34.2173H13.7692V27.5506H20.4358V34.2173Z" fill="#5EC688"/>
<path d="M13.7692 34.2173H7.10254V27.5506H13.7692V34.2173Z" fill="#5EC688"/>
<path d="M47.1025 27.5506H40.4358V20.884H47.1025V27.5506Z" fill="#548AD0"/>
<path d="M33.7692 27.5506H27.1025V20.884H33.7692V27.5506Z" fill="#548AD0"/>
<path d="M20.4358 27.5506H13.7692V20.884H20.4358V27.5506Z" fill="#548AD0"/>
<path d="M47.1025 20.8839H40.4358V14.2173H47.1025V20.8839Z" fill="#548AD0"/>
<path d="M40.4358 20.8839H33.7692V14.2173H40.4358V20.8839Z" fill="#548AD0"/>
<path d="M33.7692 20.8839H27.1025V14.2173H33.7692V20.8839Z" fill="#548AD0"/>
<path d="M27.1025 20.8839H20.4358V14.2173H27.1025V20.8839Z" fill="#548AD0"/>
<path d="M20.4358 20.8839H13.7692V14.2173H20.4358V20.8839Z" fill="#548AD0"/>
<path d="M40.4358 14.2173H33.7692V7.55062H40.4358V14.2173Z" fill="#ED1555"/>
<path d="M27.1025 14.2173H20.4358V7.55062H27.1025V14.2173Z" fill="#ED1555"/>
<path d="M47.1025 7.55063H40.4358V0.883963H47.1025V7.55063Z" fill="#ED1555"/>
<path d="M20.4358 7.55063H13.7692V0.883963H20.4358V7.55063Z" fill="#ED1555"/>
</svg>
