<svg xmlns="http://www.w3.org/2000/svg" viewBox="0 -0.5 32 32" shape-rendering="crispEdges">
<metadata>Made with Pixels to Svg https://codepen.io/shshaw/pen/XbxvNj</metadata>
<path stroke="#0e001a" d="M5 0h22M5 1h22M5 2h22M3 3h5M24 3h5M3 4h5M24 4h5M0 5h5M8 5h3M21 5h3M27 5h5M0 6h5M8 6h3M21 6h3M27 6h5M0 7h5M8 7h3M21 7h3M27 7h5M0 8h3M29 8h3M0 9h3M29 9h3M0 10h3M29 10h3M0 11h3M8 11h3M21 11h3M29 11h3M0 12h3M8 12h3M21 12h3M29 12h3M0 13h3M5 13h8M19 13h8M29 13h3M0 14h3M5 14h8M19 14h8M29 14h3M0 15h3M5 15h8M19 15h8M29 15h3M0 16h3M29 16h3M0 17h3M29 17h3M0 18h3M29 18h3M0 19h3M5 19h3M24 19h3M29 19h3M0 20h3M5 20h3M24 20h3M29 20h3M0 21h5M8 21h3M13 21h6M21 21h3M27 21h5M0 22h5M8 22h3M13 22h6M21 22h3M27 22h5M0 23h5M8 23h3M13 23h6M21 23h3M27 23h5M0 24h3M5 24h3M11 24h2M19 24h2M24 24h3M29 24h3M0 25h3M5 25h3M11 25h2M19 25h2M24 25h3M29 25h3M0 26h3M5 26h3M11 26h2M19 26h2M24 26h3M29 26h3M0 27h3M29 27h3M0 28h3M29 28h3M0 29h32M0 30h32M0 31h32" />
<path stroke="#8200e6" d="M8 3h16M8 4h16M5 5h3M24 5h3M5 6h3M24 6h3M5 7h3M24 7h3M3 8h2M8 8h3M21 8h3M27 8h2M3 9h2M8 9h3M21 9h3M27 9h2M3 10h2M8 10h3M21 10h3M27 10h2M5 16h8M19 16h8M5 17h8M19 17h8M5 18h8M19 18h8M5 21h3M24 21h3M5 22h3M24 22h3M5 23h3M24 23h3M3 24h2M8 24h3M13 24h6M21 24h3M27 24h2M3 25h2M8 25h3M13 25h6M21 25h3M27 25h2M3 26h2M8 26h3M13 26h6M21 26h3M27 26h2M5 27h3M11 27h2M19 27h2M24 27h3M5 28h3M11 28h2M19 28h2M24 28h3" />
<path stroke="#c880ff" d="M11 5h10M11 6h10M11 7h10M5 8h3M11 8h10M24 8h3M5 9h3M11 9h10M24 9h3M5 10h3M11 10h10M24 10h3M3 11h5M11 11h10M24 11h5M3 12h5M11 12h10M24 12h5M3 13h2M13 13h6M27 13h2M3 14h2M13 14h6M27 14h2M3 15h2M13 15h6M27 15h2M3 16h2M13 16h6M27 16h2M3 17h2M13 17h6M27 17h2M3 18h2M13 18h6M27 18h2M3 19h2M8 19h16M27 19h2M3 20h2M8 20h16M27 20h2M11 21h2M19 21h2M11 22h2M19 22h2M11 23h2M19 23h2M3 27h2M8 27h3M13 27h6M21 27h3M27 27h2M3 28h2M8 28h3M13 28h6M21 28h3M27 28h2" />
</svg>