<svg xmlns="http://www.w3.org/2000/svg" viewBox="0 -0.5 32 32" shape-rendering="crispEdges">
<metadata>Made with Pixels to Svg https://codepen.io/shshaw/pen/XbxvNj</metadata>
<path stroke="#00061a" d="M0 0h32M0 1h32M0 2h32M0 3h3M13 3h6M29 3h3M0 4h3M13 4h6M29 4h3M0 5h5M27 5h5M0 6h5M27 6h5M0 7h5M27 7h5M0 8h3M5 8h3M11 8h2M19 8h2M24 8h3M29 8h3M0 9h3M5 9h3M11 9h2M19 9h2M24 9h3M29 9h3M0 10h3M5 10h3M11 10h2M19 10h2M24 10h3M29 10h3M0 11h5M27 11h5M0 12h5M27 12h5M0 13h3M5 13h6M21 13h6M29 13h3M0 14h3M5 14h6M21 14h6M29 14h3M0 15h3M5 15h6M21 15h6M29 15h3M0 16h3M5 16h22M29 16h3M0 17h3M5 17h22M29 17h3M0 18h3M5 18h22M29 18h3M0 19h3M13 19h6M29 19h3M0 20h3M13 20h6M29 20h3M0 21h3M29 21h3M0 22h3M29 22h3M0 23h3M29 23h3M0 24h3M29 24h3M0 25h3M29 25h3M0 26h3M29 26h3M0 27h3M11 27h2M19 27h2M29 27h3M0 28h3M11 28h2M19 28h2M29 28h3M0 29h32M0 30h32M0 31h32" />
<path stroke="#0036e6" d="M3 3h10M19 3h10M3 4h10M19 4h10M13 5h6M13 6h6M13 7h6M3 8h2M27 8h2M3 9h2M27 9h2M3 10h2M27 10h2M5 11h3M11 11h2M19 11h2M24 11h3M5 12h3M11 12h2M19 12h2M24 12h3M3 13h2M27 13h2M3 14h2M27 14h2M3 15h2M27 15h2M5 19h8M19 19h8M5 20h8M19 20h8M13 21h6M13 22h6M13 23h6" />
<path stroke="#809dff" d="M5 5h8M19 5h8M5 6h8M19 6h8M5 7h8M19 7h8M8 8h3M13 8h6M21 8h3M8 9h3M13 9h6M21 9h3M8 10h3M13 10h6M21 10h3M8 11h3M13 11h6M21 11h3M8 12h3M13 12h6M21 12h3M11 13h10M11 14h10M11 15h10M3 16h2M27 16h2M3 17h2M27 17h2M3 18h2M27 18h2M3 19h2M27 19h2M3 20h2M27 20h2M3 21h10M19 21h10M3 22h10M19 22h10M3 23h10M19 23h10M3 24h26M3 25h26M3 26h26M3 27h8M13 27h6M21 27h8M3 28h8M13 28h6M21 28h8" />
</svg>