<svg xmlns="http://www.w3.org/2000/svg" viewBox="0 -0.5 32 32" shape-rendering="crispEdges">
<metadata>Made with Pixels to Svg https://codepen.io/shshaw/pen/XbxvNj</metadata>
<path stroke="#001a10" d="M0 0h32M0 1h32M0 2h32M0 3h3M13 3h6M29 3h3M0 4h3M13 4h6M29 4h3M0 5h8M13 5h6M24 5h8M0 6h8M13 6h6M24 6h8M0 7h8M13 7h6M24 7h8M0 8h3M5 8h3M24 8h3M29 8h3M0 9h3M5 9h3M24 9h3M29 9h3M0 10h3M5 10h3M24 10h3M29 10h3M0 11h11M13 11h6M21 11h11M0 12h11M13 12h6M21 12h11M0 13h3M13 13h6M29 13h3M0 14h3M13 14h6M29 14h3M0 15h3M13 15h6M29 15h3M0 16h3M8 16h3M13 16h6M21 16h3M29 16h3M0 17h3M8 17h3M13 17h6M21 17h3M29 17h3M0 18h3M8 18h3M13 18h6M21 18h3M29 18h3M0 19h8M13 19h6M24 19h8M0 20h8M13 20h6M24 20h8M0 21h3M5 21h3M13 21h6M24 21h3M29 21h3M0 22h3M5 22h3M13 22h6M24 22h3M29 22h3M0 23h3M5 23h3M13 23h6M24 23h3M29 23h3M0 24h8M11 24h2M19 24h2M24 24h8M0 25h8M11 25h2M19 25h2M24 25h8M0 26h8M11 26h2M19 26h2M24 26h8M5 27h3M13 27h6M24 27h3M5 28h3M13 28h6M24 28h3M5 29h22M5 30h22M5 31h22" />
<path stroke="#00e691" d="M3 3h10M19 3h10M3 4h10M19 4h10M3 8h2M13 8h6M27 8h2M3 9h2M13 9h6M27 9h2M3 10h2M13 10h6M27 10h2M3 13h8M21 13h8M3 14h8M21 14h8M3 15h8M21 15h8M8 19h3M21 19h3M8 20h3M21 20h3M3 21h2M27 21h2M3 22h2M27 22h2M3 23h2M27 23h2M13 24h6M13 25h6M13 26h6M11 27h2M19 27h2M11 28h2M19 28h2" />
<path stroke="#80ffd0" d="M8 5h5M19 5h5M8 6h5M19 6h5M8 7h5M19 7h5M8 8h5M19 8h5M8 9h5M19 9h5M8 10h5M19 10h5M11 11h2M19 11h2M11 12h2M19 12h2M11 13h2M19 13h2M11 14h2M19 14h2M11 15h2M19 15h2M3 16h5M11 16h2M19 16h2M24 16h5M3 17h5M11 17h2M19 17h2M24 17h5M3 18h5M11 18h2M19 18h2M24 18h5M11 19h2M19 19h2M11 20h2M19 20h2M8 21h5M19 21h5M8 22h5M19 22h5M8 23h5M19 23h5M8 24h3M21 24h3M8 25h3M21 25h3M8 26h3M21 26h3M8 27h3M21 27h3M8 28h3M21 28h3" />
</svg>