<svg xmlns="http://www.w3.org/2000/svg" viewBox="0 -0.5 32 32" shape-rendering="crispEdges">
<metadata>Made with Pixels to Svg https://codepen.io/shshaw/pen/XbxvNj</metadata>
<path stroke="#001a19" d="M0 0h32M0 1h32M0 2h32M0 3h3M5 3h3M24 3h3M29 3h3M0 4h3M5 4h3M24 4h3M29 4h3M0 5h3M13 5h6M29 5h3M0 6h3M13 6h6M29 6h3M0 7h3M13 7h6M29 7h3M0 8h3M5 8h3M24 8h3M29 8h3M0 9h3M5 9h3M24 9h3M29 9h3M0 10h3M5 10h3M24 10h3M29 10h3M0 11h3M29 11h3M0 12h3M29 12h3M0 13h3M5 13h3M24 13h3M29 13h3M0 14h3M5 14h3M24 14h3M29 14h3M0 15h3M5 15h3M24 15h3M29 15h3M0 16h5M27 16h5M0 17h5M27 17h5M0 18h5M27 18h5M0 19h3M11 19h2M19 19h2M29 19h3M0 20h3M11 20h2M19 20h2M29 20h3M0 21h3M8 21h5M19 21h5M29 21h3M0 22h3M8 22h5M19 22h5M29 22h3M0 23h3M8 23h5M19 23h5M29 23h3M0 24h3M8 24h5M19 24h5M29 24h3M0 25h3M8 25h5M19 25h5M29 25h3M0 26h3M8 26h5M19 26h5M29 26h3M0 27h3M29 27h3M0 28h3M29 28h3M0 29h32M0 30h32M0 31h32" />
<path stroke="#00e6e2" d="M3 3h2M8 3h16M27 3h2M3 4h2M8 4h16M27 4h2M5 5h3M24 5h3M5 6h3M24 6h3M5 7h3M24 7h3M13 8h6M13 9h6M13 10h6M5 11h3M24 11h3M5 12h3M24 12h3M5 16h3M24 16h3M5 17h3M24 17h3M5 18h3M24 18h3M3 19h2M27 19h2M3 20h2M27 20h2M8 27h5M19 27h5M8 28h5M19 28h5" />
<path stroke="#80fffd" d="M3 5h2M8 5h5M19 5h5M27 5h2M3 6h2M8 6h5M19 6h5M27 6h2M3 7h2M8 7h5M19 7h5M27 7h2M3 8h2M8 8h5M19 8h5M27 8h2M3 9h2M8 9h5M19 9h5M27 9h2M3 10h2M8 10h5M19 10h5M27 10h2M3 11h2M8 11h16M27 11h2M3 12h2M8 12h16M27 12h2M3 13h2M8 13h16M27 13h2M3 14h2M8 14h16M27 14h2M3 15h2M8 15h16M27 15h2M8 16h16M8 17h16M8 18h16M5 19h6M13 19h6M21 19h6M5 20h6M13 20h6M21 20h6M3 21h5M13 21h6M24 21h5M3 22h5M13 22h6M24 22h5M3 23h5M13 23h6M24 23h5M3 24h5M13 24h6M24 24h5M3 25h5M13 25h6M24 25h5M3 26h5M13 26h6M24 26h5M3 27h5M13 27h6M24 27h5M3 28h5M13 28h6M24 28h5" />
</svg>