<svg xmlns="http://www.w3.org/2000/svg" viewBox="0 -0.5 32 32" shape-rendering="crispEdges">
<metadata>Made with Pixels to Svg https://codepen.io/shshaw/pen/XbxvNj</metadata>
<path stroke="#00001a" d="M0 0h32M0 1h32M0 2h32M0 3h3M29 3h3M0 4h3M29 4h3M0 5h3M5 5h3M24 5h3M29 5h3M0 6h3M5 6h3M24 6h3M29 6h3M0 7h3M5 7h3M24 7h3M29 7h3M0 8h8M13 8h6M24 8h8M0 9h8M13 9h6M24 9h8M0 10h8M13 10h6M24 10h8M0 11h3M5 11h8M19 11h8M29 11h3M0 12h3M5 12h8M19 12h8M29 12h3M0 13h3M5 13h6M21 13h6M29 13h3M0 14h3M5 14h6M21 14h6M29 14h3M0 15h3M5 15h6M21 15h6M29 15h3M0 16h3M8 16h3M21 16h3M29 16h3M0 17h3M8 17h3M21 17h3M29 17h3M0 18h3M8 18h3M21 18h3M29 18h3M0 19h3M5 19h3M24 19h3M29 19h3M0 20h3M5 20h3M24 20h3M29 20h3M0 21h3M5 21h6M13 21h6M21 21h6M29 21h3M0 22h3M5 22h6M13 22h6M21 22h6M29 22h3M0 23h3M5 23h6M13 23h6M21 23h6M29 23h3M0 24h5M8 24h3M21 24h3M27 24h5M0 25h5M8 25h3M21 25h3M27 25h5M0 26h5M8 26h3M21 26h3M27 26h5M0 27h3M29 27h3M0 28h3M29 28h3M0 29h32M0 30h32M0 31h32" />
<path stroke="#0004e6" d="M3 3h26M3 4h26M3 11h2M13 11h6M27 11h2M3 12h2M13 12h6M27 12h2M11 13h2M19 13h2M11 14h2M19 14h2M11 15h2M19 15h2M5 16h3M24 16h3M5 17h3M24 17h3M5 18h3M24 18h3M8 19h3M21 19h3M8 20h3M21 20h3M5 24h3M13 24h6M24 24h3M5 25h3M13 25h6M24 25h3M5 26h3M13 26h6M24 26h3M3 27h2M8 27h3M21 27h3M27 27h2M3 28h2M8 28h3M21 28h3M27 28h2" />
<path stroke="#8082ff" d="M3 5h2M8 5h16M27 5h2M3 6h2M8 6h16M27 6h2M3 7h2M8 7h16M27 7h2M8 8h5M19 8h5M8 9h5M19 9h5M8 10h5M19 10h5M3 13h2M13 13h6M27 13h2M3 14h2M13 14h6M27 14h2M3 15h2M13 15h6M27 15h2M3 16h2M11 16h10M27 16h2M3 17h2M11 17h10M27 17h2M3 18h2M11 18h10M27 18h2M3 19h2M11 19h10M27 19h2M3 20h2M11 20h10M27 20h2M3 21h2M11 21h2M19 21h2M27 21h2M3 22h2M11 22h2M19 22h2M27 22h2M3 23h2M11 23h2M19 23h2M27 23h2M11 24h2M19 24h2M11 25h2M19 25h2M11 26h2M19 26h2M5 27h3M11 27h10M24 27h3M5 28h3M11 28h10M24 28h3" />
</svg>