<svg xmlns="http://www.w3.org/2000/svg" viewBox="0 -0.5 32 32" shape-rendering="crispEdges">
<metadata>Made with Pixels to Svg https://codepen.io/shshaw/pen/XbxvNj</metadata>
<path stroke="#00141a" d="M0 0h32M0 1h32M0 2h32M0 3h3M5 3h6M21 3h6M29 3h3M0 4h3M5 4h6M21 4h6M29 4h3M0 5h3M29 5h3M0 6h3M29 6h3M0 7h3M29 7h3M0 8h5M8 8h5M19 8h5M27 8h5M0 9h5M8 9h5M19 9h5M27 9h5M0 10h5M8 10h5M19 10h5M27 10h5M0 11h3M11 11h2M19 11h2M29 11h3M0 12h3M11 12h2M19 12h2M29 12h3M0 13h3M5 13h6M21 13h6M29 13h3M0 14h3M5 14h6M21 14h6M29 14h3M0 15h3M5 15h6M21 15h6M29 15h3M0 16h3M13 16h6M29 16h3M0 17h3M13 17h6M29 17h3M0 18h3M13 18h6M29 18h3M0 19h3M29 19h3M0 20h3M29 20h3M0 21h5M27 21h5M0 22h5M27 22h5M0 23h5M27 23h5M0 24h3M11 24h2M19 24h2M29 24h3M0 25h3M11 25h2M19 25h2M29 25h3M0 26h3M11 26h2M19 26h2M29 26h3M0 27h3M29 27h3M0 28h3M29 28h3M0 29h32M0 30h32M0 31h32" />
<path stroke="#00b0e6" d="M3 3h2M11 3h10M27 3h2M3 4h2M11 4h10M27 4h2M5 5h6M21 5h6M5 6h6M21 6h6M5 7h6M21 7h6M3 11h2M8 11h3M21 11h3M27 11h2M3 12h2M8 12h3M21 12h3M27 12h2M11 13h2M19 13h2M11 14h2M19 14h2M11 15h2M19 15h2M5 16h6M21 16h6M5 17h6M21 17h6M5 18h6M21 18h6M13 19h6M13 20h6M3 24h2M27 24h2M3 25h2M27 25h2M3 26h2M27 26h2M11 27h2M19 27h2M11 28h2M19 28h2" />
<path stroke="#80e1ff" d="M3 5h2M11 5h10M27 5h2M3 6h2M11 6h10M27 6h2M3 7h2M11 7h10M27 7h2M5 8h3M13 8h6M24 8h3M5 9h3M13 9h6M24 9h3M5 10h3M13 10h6M24 10h3M5 11h3M13 11h6M24 11h3M5 12h3M13 12h6M24 12h3M3 13h2M13 13h6M27 13h2M3 14h2M13 14h6M27 14h2M3 15h2M13 15h6M27 15h2M3 16h2M11 16h2M19 16h2M27 16h2M3 17h2M11 17h2M19 17h2M27 17h2M3 18h2M11 18h2M19 18h2M27 18h2M3 19h10M19 19h10M3 20h10M19 20h10M5 21h22M5 22h22M5 23h22M5 24h6M13 24h6M21 24h6M5 25h6M13 25h6M21 25h6M5 26h6M13 26h6M21 26h6M3 27h8M13 27h6M21 27h8M3 28h8M13 28h6M21 28h8" />
</svg>