<svg xmlns="http://www.w3.org/2000/svg" viewBox="0 -0.5 32 32" shape-rendering="crispEdges">
<metadata>Made with Pixels to Svg https://codepen.io/shshaw/pen/XbxvNj</metadata>
<path stroke="#001a06" d="M3 0h26M3 1h26M3 2h26M0 3h5M27 3h5M0 4h5M27 4h5M0 5h3M29 5h3M0 6h3M29 6h3M0 7h3M29 7h3M0 8h3M5 8h3M24 8h3M29 8h3M0 9h3M5 9h3M24 9h3M29 9h3M0 10h3M5 10h3M24 10h3M29 10h3M0 11h3M8 11h3M13 11h6M21 11h3M29 11h3M0 12h3M8 12h3M13 12h6M21 12h3M29 12h3M0 13h3M13 13h6M29 13h3M0 14h3M13 14h6M29 14h3M0 15h3M13 15h6M29 15h3M0 16h3M29 16h3M0 17h3M29 17h3M0 18h3M29 18h3M0 19h3M5 19h3M13 19h6M24 19h3M29 19h3M0 20h3M5 20h3M13 20h6M24 20h3M29 20h3M0 21h3M11 21h2M19 21h2M29 21h3M0 22h3M11 22h2M19 22h2M29 22h3M0 23h3M11 23h2M19 23h2M29 23h3M0 24h8M11 24h2M19 24h2M24 24h8M0 25h8M11 25h2M19 25h2M24 25h8M0 26h8M11 26h2M19 26h2M24 26h8M5 27h3M13 27h6M24 27h3M5 28h3M13 28h6M24 28h3M5 29h22M5 30h22M5 31h22" />
<path stroke="#00e632" d="M5 3h22M5 4h22M3 5h2M27 5h2M3 6h2M27 6h2M3 7h2M27 7h2M5 11h3M24 11h3M5 12h3M24 12h3M8 13h3M21 13h3M8 14h3M21 14h3M8 15h3M21 15h3M13 16h6M13 17h6M13 18h6M5 21h3M13 21h6M24 21h3M5 22h3M13 22h6M24 22h3M5 23h3M13 23h6M24 23h3M11 27h2M19 27h2M11 28h2M19 28h2" />
<path stroke="#80ff9b" d="M5 5h22M5 6h22M5 7h22M3 8h2M8 8h16M27 8h2M3 9h2M8 9h16M27 9h2M3 10h2M8 10h16M27 10h2M3 11h2M11 11h2M19 11h2M27 11h2M3 12h2M11 12h2M19 12h2M27 12h2M3 13h5M11 13h2M19 13h2M24 13h5M3 14h5M11 14h2M19 14h2M24 14h5M3 15h5M11 15h2M19 15h2M24 15h5M3 16h10M19 16h10M3 17h10M19 17h10M3 18h10M19 18h10M3 19h2M8 19h5M19 19h5M27 19h2M3 20h2M8 20h5M19 20h5M27 20h2M3 21h2M8 21h3M21 21h3M27 21h2M3 22h2M8 22h3M21 22h3M27 22h2M3 23h2M8 23h3M21 23h3M27 23h2M8 24h3M13 24h6M21 24h3M8 25h3M13 25h6M21 25h3M8 26h3M13 26h6M21 26h3M8 27h3M21 27h3M8 28h3M21 28h3" />
</svg>