<svg xmlns="http://www.w3.org/2000/svg" viewBox="0 -0.5 32 32" shape-rendering="crispEdges">
<metadata>Made with Pixels to Svg https://codepen.io/shshaw/pen/XbxvNj</metadata>
<path stroke="#16001a" d="M0 0h32M0 1h32M0 2h32M0 3h3M5 3h3M24 3h3M29 3h3M0 4h3M5 4h3M24 4h3M29 4h3M0 5h5M8 5h3M13 5h6M21 5h3M27 5h5M0 6h5M8 6h3M13 6h6M21 6h3M27 6h5M0 7h5M8 7h3M13 7h6M21 7h3M27 7h5M0 8h3M29 8h3M0 9h3M29 9h3M0 10h3M29 10h3M0 11h3M29 11h3M0 12h3M29 12h3M0 13h3M29 13h3M0 14h3M29 14h3M0 15h3M29 15h3M0 16h3M13 16h6M29 16h3M0 17h3M13 17h6M29 17h3M0 18h3M13 18h6M29 18h3M0 19h3M29 19h3M0 20h3M29 20h3M0 21h3M29 21h3M0 22h3M29 22h3M0 23h3M29 23h3M0 24h3M29 24h3M0 25h3M29 25h3M0 26h3M29 26h3M0 27h3M11 27h2M19 27h2M29 27h3M0 28h3M11 28h2M19 28h2M29 28h3M0 29h32M0 30h32M0 31h32" />
<path stroke="#c700e6" d="M3 3h2M8 3h16M27 3h2M3 4h2M8 4h16M27 4h2M5 5h3M24 5h3M5 6h3M24 6h3M5 7h3M24 7h3M3 8h2M8 8h3M13 8h6M21 8h3M27 8h2M3 9h2M8 9h3M13 9h6M21 9h3M27 9h2M3 10h2M8 10h3M13 10h6M21 10h3M27 10h2M13 19h6M13 20h6" />
<path stroke="#ee80ff" d="M11 5h2M19 5h2M11 6h2M19 6h2M11 7h2M19 7h2M5 8h3M11 8h2M19 8h2M24 8h3M5 9h3M11 9h2M19 9h2M24 9h3M5 10h3M11 10h2M19 10h2M24 10h3M3 11h26M3 12h26M3 13h26M3 14h26M3 15h26M3 16h10M19 16h10M3 17h10M19 17h10M3 18h10M19 18h10M3 19h10M19 19h10M3 20h10M19 20h10M3 21h26M3 22h26M3 23h26M3 24h26M3 25h26M3 26h26M3 27h8M13 27h6M21 27h8M3 28h8M13 28h6M21 28h8" />
</svg>