<svg xmlns="http://www.w3.org/2000/svg" viewBox="0 -0.5 32 32" shape-rendering="crispEdges">
<metadata>Made with Pixels to Svg https://codepen.io/shshaw/pen/XbxvNj</metadata>
<path stroke="#06001a" d="M0 0h32M0 1h32M0 2h32M0 3h3M5 3h3M24 3h3M29 3h3M0 4h3M5 4h3M24 4h3M29 4h3M0 5h32M0 6h32M0 7h32M0 8h3M8 8h3M21 8h3M29 8h3M0 9h3M8 9h3M21 9h3M29 9h3M0 10h3M8 10h3M21 10h3M29 10h3M0 11h3M29 11h3M0 12h3M29 12h3M0 13h5M8 13h3M13 13h6M21 13h3M27 13h5M0 14h5M8 14h3M13 14h6M21 14h3M27 14h5M0 15h5M8 15h3M13 15h6M21 15h3M27 15h5M0 16h3M5 16h3M24 16h3M29 16h3M0 17h3M5 17h3M24 17h3M29 17h3M0 18h3M5 18h3M24 18h3M29 18h3M0 19h3M5 19h3M13 19h6M24 19h3M29 19h3M0 20h3M5 20h3M13 20h6M24 20h3M29 20h3M0 21h3M29 21h3M0 22h3M29 22h3M0 23h3M29 23h3M0 24h3M29 24h3M0 25h3M29 25h3M0 26h3M29 26h3M0 27h3M29 27h3M0 28h3M29 28h3M0 29h32M0 30h32M0 31h32" />
<path stroke="#3900e6" d="M3 3h2M8 3h16M27 3h2M3 4h2M8 4h16M27 4h2M3 8h5M11 8h10M24 8h5M3 9h5M11 9h10M24 9h5M3 10h5M11 10h10M24 10h5M8 11h3M21 11h3M8 12h3M21 12h3M3 16h2M8 16h3M13 16h6M21 16h3M27 16h2M3 17h2M8 17h3M13 17h6M21 17h3M27 17h2M3 18h2M8 18h3M13 18h6M21 18h3M27 18h2M5 21h3M13 21h6M24 21h3M5 22h3M13 22h6M24 22h3M5 23h3M13 23h6M24 23h3" />
<path stroke="#9f80ff" d="M3 11h5M11 11h10M24 11h5M3 12h5M11 12h10M24 12h5M5 13h3M11 13h2M19 13h2M24 13h3M5 14h3M11 14h2M19 14h2M24 14h3M5 15h3M11 15h2M19 15h2M24 15h3M11 16h2M19 16h2M11 17h2M19 17h2M11 18h2M19 18h2M3 19h2M8 19h5M19 19h5M27 19h2M3 20h2M8 20h5M19 20h5M27 20h2M3 21h2M8 21h5M19 21h5M27 21h2M3 22h2M8 22h5M19 22h5M27 22h2M3 23h2M8 23h5M19 23h5M27 23h2M3 24h26M3 25h26M3 26h26M3 27h26M3 28h26" />
</svg>