<svg xmlns="http://www.w3.org/2000/svg" viewBox="0 -0.5 32 32" shape-rendering="crispEdges">
<metadata>Made with Pixels to Svg https://codepen.io/shshaw/pen/XbxvNj</metadata>
<path stroke="#1a1300" d="M3 0h26M3 1h26M3 2h26M3 3h2M27 3h2M3 4h2M27 4h2M0 5h5M8 5h3M21 5h3M27 5h5M0 6h5M8 6h3M21 6h3M27 6h5M0 7h5M8 7h3M21 7h3M27 7h5M0 8h3M29 8h3M0 9h3M29 9h3M0 10h3M29 10h3M0 11h3M11 11h2M19 11h2M29 11h3M0 12h3M11 12h2M19 12h2M29 12h3M0 13h3M13 13h6M29 13h3M0 14h3M13 14h6M29 14h3M0 15h3M13 15h6M29 15h3M0 16h3M11 16h2M19 16h2M29 16h3M0 17h3M11 17h2M19 17h2M29 17h3M0 18h3M11 18h2M19 18h2M29 18h3M0 19h3M5 19h3M24 19h3M29 19h3M0 20h3M5 20h3M24 20h3M29 20h3M0 21h3M8 21h3M21 21h3M29 21h3M0 22h3M8 22h3M21 22h3M29 22h3M0 23h3M8 23h3M21 23h3M29 23h3M0 24h3M13 24h6M29 24h3M0 25h3M13 25h6M29 25h3M0 26h3M13 26h6M29 26h3M0 27h11M21 27h11M0 28h11M21 28h11M8 29h16M8 30h16M8 31h16" />
<path stroke="#e6ac00" d="M5 3h22M5 4h22M3 8h2M8 8h3M21 8h3M27 8h2M3 9h2M8 9h3M21 9h3M27 9h2M3 10h2M8 10h3M21 10h3M27 10h2M11 13h2M19 13h2M11 14h2M19 14h2M11 15h2M19 15h2M13 16h6M13 17h6M13 18h6M11 19h2M19 19h2M11 20h2M19 20h2M5 21h3M24 21h3M5 22h3M24 22h3M5 23h3M24 23h3M8 24h3M21 24h3M8 25h3M21 25h3M8 26h3M21 26h3M13 27h6M13 28h6" />
<path stroke="#ffdf80" d="M5 5h3M11 5h10M24 5h3M5 6h3M11 6h10M24 6h3M5 7h3M11 7h10M24 7h3M5 8h3M11 8h10M24 8h3M5 9h3M11 9h10M24 9h3M5 10h3M11 10h10M24 10h3M3 11h8M13 11h6M21 11h8M3 12h8M13 12h6M21 12h8M3 13h8M21 13h8M3 14h8M21 14h8M3 15h8M21 15h8M3 16h8M21 16h8M3 17h8M21 17h8M3 18h8M21 18h8M3 19h2M8 19h3M13 19h6M21 19h3M27 19h2M3 20h2M8 20h3M13 20h6M21 20h3M27 20h2M3 21h2M11 21h10M27 21h2M3 22h2M11 22h10M27 22h2M3 23h2M11 23h10M27 23h2M3 24h5M11 24h2M19 24h2M24 24h5M3 25h5M11 25h2M19 25h2M24 25h5M3 26h5M11 26h2M19 26h2M24 26h5M11 27h2M19 27h2M11 28h2M19 28h2" />
</svg>