<svg xmlns="http://www.w3.org/2000/svg" viewBox="0 -0.5 32 32" shape-rendering="crispEdges">
<metadata>Made with Pixels to Svg https://codepen.io/shshaw/pen/XbxvNj</metadata>
<path stroke="#00021a" d="M0 0h32M0 1h32M0 2h32M0 3h3M29 3h3M0 4h3M29 4h3M0 5h3M11 5h2M19 5h2M29 5h3M0 6h3M11 6h2M19 6h2M29 6h3M0 7h3M11 7h2M19 7h2M29 7h3M0 8h3M5 8h3M24 8h3M29 8h3M0 9h3M5 9h3M24 9h3M29 9h3M0 10h3M5 10h3M24 10h3M29 10h3M0 11h3M8 11h3M21 11h3M29 11h3M0 12h3M8 12h3M21 12h3M29 12h3M0 13h5M27 13h5M0 14h5M27 14h5M0 15h5M27 15h5M0 16h3M29 16h3M0 17h3M29 17h3M0 18h3M29 18h3M0 19h3M8 19h5M19 19h5M29 19h3M0 20h3M8 20h5M19 20h5M29 20h3M0 21h3M29 21h3M0 22h3M29 22h3M0 23h3M29 23h3M0 24h3M29 24h3M0 25h3M29 25h3M0 26h3M29 26h3M0 27h5M11 27h2M19 27h2M27 27h5M0 28h5M11 28h2M19 28h2M27 28h5M3 29h26M3 30h26M3 31h26" />
<path stroke="#000fe6" d="M3 3h26M3 4h26M11 8h2M19 8h2M11 9h2M19 9h2M11 10h2M19 10h2M5 11h3M24 11h3M5 12h3M24 12h3M8 13h3M21 13h3M8 14h3M21 14h3M8 15h3M21 15h3M3 16h2M27 16h2M3 17h2M27 17h2M3 18h2M27 18h2M8 21h5M19 21h5M8 22h5M19 22h5M8 23h5M19 23h5" />
<path stroke="#8088ff" d="M3 5h8M13 5h6M21 5h8M3 6h8M13 6h6M21 6h8M3 7h8M13 7h6M21 7h8M3 8h2M8 8h3M13 8h6M21 8h3M27 8h2M3 9h2M8 9h3M13 9h6M21 9h3M27 9h2M3 10h2M8 10h3M13 10h6M21 10h3M27 10h2M3 11h2M11 11h10M27 11h2M3 12h2M11 12h10M27 12h2M5 13h3M11 13h10M24 13h3M5 14h3M11 14h10M24 14h3M5 15h3M11 15h10M24 15h3M5 16h22M5 17h22M5 18h22M3 19h5M13 19h6M24 19h5M3 20h5M13 20h6M24 20h5M3 21h5M13 21h6M24 21h5M3 22h5M13 22h6M24 22h5M3 23h5M13 23h6M24 23h5M3 24h26M3 25h26M3 26h26M5 27h6M13 27h6M21 27h6M5 28h6M13 28h6M21 28h6" />
</svg>