<svg xmlns="http://www.w3.org/2000/svg" viewBox="0 -0.5 32 32" shape-rendering="crispEdges">
<metadata>Made with Pixels to Svg https://codepen.io/shshaw/pen/XbxvNj</metadata>
<path stroke="#08001a" d="M0 0h32M0 1h32M0 2h32M0 3h3M11 3h2M19 3h2M29 3h3M0 4h3M11 4h2M19 4h2M29 4h3M0 5h3M29 5h3M0 6h3M29 6h3M0 7h3M29 7h3M0 8h3M5 8h3M11 8h2M19 8h2M24 8h3M29 8h3M0 9h3M5 9h3M11 9h2M19 9h2M24 9h3M29 9h3M0 10h3M5 10h3M11 10h2M19 10h2M24 10h3M29 10h3M0 11h3M29 11h3M0 12h3M29 12h3M0 13h8M24 13h8M0 14h8M24 14h8M0 15h8M24 15h8M0 16h8M24 16h8M0 17h8M24 17h8M0 18h8M24 18h8M0 19h3M29 19h3M0 20h3M29 20h3M0 21h11M21 21h11M0 22h11M21 22h11M0 23h11M21 23h11M0 24h3M8 24h3M21 24h3M29 24h3M0 25h3M8 25h3M21 25h3M29 25h3M0 26h3M8 26h3M21 26h3M29 26h3M0 27h3M11 27h2M19 27h2M29 27h3M0 28h3M11 28h2M19 28h2M29 28h3M0 29h32M0 30h32M0 31h32" />
<path stroke="#4c00e6" d="M3 3h8M13 3h6M21 3h8M3 4h8M13 4h6M21 4h8M11 5h2M19 5h2M11 6h2M19 6h2M11 7h2M19 7h2M5 11h3M11 11h2M19 11h2M24 11h3M5 12h3M11 12h2M19 12h2M24 12h3M3 19h5M24 19h5M3 20h5M24 20h5M3 24h5M24 24h5M3 25h5M24 25h5M3 26h5M24 26h5M8 27h3M21 27h3M8 28h3M21 28h3" />
<path stroke="#aa80ff" d="M3 5h8M13 5h6M21 5h8M3 6h8M13 6h6M21 6h8M3 7h8M13 7h6M21 7h8M3 8h2M8 8h3M13 8h6M21 8h3M27 8h2M3 9h2M8 9h3M13 9h6M21 9h3M27 9h2M3 10h2M8 10h3M13 10h6M21 10h3M27 10h2M3 11h2M8 11h3M13 11h6M21 11h3M27 11h2M3 12h2M8 12h3M13 12h6M21 12h3M27 12h2M8 13h16M8 14h16M8 15h16M8 16h16M8 17h16M8 18h16M8 19h16M8 20h16M11 21h10M11 22h10M11 23h10M11 24h10M11 25h10M11 26h10M3 27h5M13 27h6M24 27h5M3 28h5M13 28h6M24 28h5" />
</svg>