<svg xmlns="http://www.w3.org/2000/svg" viewBox="0 -0.5 32 32" shape-rendering="crispEdges">
<metadata>Made with Pixels to Svg https://codepen.io/shshaw/pen/XbxvNj</metadata>
<path stroke="#0a001a" d="M0 0h32M0 1h32M0 2h32M0 3h3M29 3h3M0 4h3M29 4h3M0 5h3M29 5h3M0 6h3M29 6h3M0 7h3M29 7h3M0 8h3M29 8h3M0 9h3M29 9h3M0 10h3M29 10h3M0 11h3M29 11h3M0 12h3M29 12h3M0 13h3M29 13h3M0 14h3M29 14h3M0 15h3M29 15h3M0 16h3M29 16h3M0 17h3M29 17h3M0 18h3M29 18h3M0 19h3M11 19h2M19 19h2M29 19h3M0 20h3M11 20h2M19 20h2M29 20h3M0 21h3M29 21h3M0 22h3M29 22h3M0 23h3M29 23h3M0 24h8M11 24h2M19 24h2M24 24h8M0 25h8M11 25h2M19 25h2M24 25h8M0 26h8M11 26h2M19 26h2M24 26h8M0 27h3M5 27h6M21 27h6M29 27h3M0 28h3M5 28h6M21 28h6M29 28h3M0 29h32M0 30h32M0 31h32" />
<path stroke="#5c00e6" d="M3 3h26M3 4h26M11 21h2M19 21h2M11 22h2M19 22h2M11 23h2M19 23h2M3 27h2M11 27h2M19 27h2M27 27h2M3 28h2M11 28h2M19 28h2M27 28h2" />
<path stroke="#b380ff" d="M3 5h26M3 6h26M3 7h26M3 8h26M3 9h26M3 10h26M3 11h26M3 12h26M3 13h26M3 14h26M3 15h26M3 16h26M3 17h26M3 18h26M3 19h8M13 19h6M21 19h8M3 20h8M13 20h6M21 20h8M3 21h8M13 21h6M21 21h8M3 22h8M13 22h6M21 22h8M3 23h8M13 23h6M21 23h8M8 24h3M13 24h6M21 24h3M8 25h3M13 25h6M21 25h3M8 26h3M13 26h6M21 26h3M13 27h6M13 28h6" />
</svg>