<svg xmlns="http://www.w3.org/2000/svg" viewBox="0 -0.5 32 32" shape-rendering="crispEdges">
<metadata>Made with Pixels to Svg https://codepen.io/shshaw/pen/XbxvNj</metadata>
<path stroke="#00031a" d="M3 0h26M3 1h26M3 2h26M0 3h5M8 3h3M21 3h3M27 3h5M0 4h5M8 4h3M21 4h3M27 4h5M0 5h3M8 5h16M29 5h3M0 6h3M8 6h16M29 6h3M0 7h3M8 7h16M29 7h3M0 8h3M5 8h3M11 8h2M19 8h2M24 8h3M29 8h3M0 9h3M5 9h3M11 9h2M19 9h2M24 9h3M29 9h3M0 10h3M5 10h3M11 10h2M19 10h2M24 10h3M29 10h3M0 11h3M13 11h6M29 11h3M0 12h3M13 12h6M29 12h3M0 13h3M8 13h5M19 13h5M29 13h3M0 14h3M8 14h5M19 14h5M29 14h3M0 15h3M8 15h5M19 15h5M29 15h3M0 16h5M11 16h2M19 16h2M27 16h5M0 17h5M11 17h2M19 17h2M27 17h5M0 18h5M11 18h2M19 18h2M27 18h5M0 19h3M8 19h3M13 19h6M21 19h3M29 19h3M0 20h3M8 20h3M13 20h6M21 20h3M29 20h3M0 21h3M29 21h3M0 22h3M29 22h3M0 23h3M29 23h3M0 24h3M29 24h3M0 25h3M29 25h3M0 26h3M29 26h3M0 27h3M29 27h3M0 28h3M29 28h3M0 29h32M0 30h32M0 31h32" />
<path stroke="#0017e6" d="M5 3h3M11 3h10M24 3h3M5 4h3M11 4h10M24 4h3M3 5h2M27 5h2M3 6h2M27 6h2M3 7h2M27 7h2M8 8h3M13 8h6M21 8h3M8 9h3M13 9h6M21 9h3M8 10h3M13 10h6M21 10h3M5 11h3M11 11h2M19 11h2M24 11h3M5 12h3M11 12h2M19 12h2M24 12h3M13 13h6M13 14h6M13 15h6M8 16h3M21 16h3M8 17h3M21 17h3M8 18h3M21 18h3M3 19h2M11 19h2M19 19h2M27 19h2M3 20h2M11 20h2M19 20h2M27 20h2M8 21h3M13 21h6M21 21h3M8 22h3M13 22h6M21 22h3M8 23h3M13 23h6M21 23h3" />
<path stroke="#808cff" d="M5 5h3M24 5h3M5 6h3M24 6h3M5 7h3M24 7h3M3 8h2M27 8h2M3 9h2M27 9h2M3 10h2M27 10h2M3 11h2M8 11h3M21 11h3M27 11h2M3 12h2M8 12h3M21 12h3M27 12h2M3 13h5M24 13h5M3 14h5M24 14h5M3 15h5M24 15h5M5 16h3M13 16h6M24 16h3M5 17h3M13 17h6M24 17h3M5 18h3M13 18h6M24 18h3M5 19h3M24 19h3M5 20h3M24 20h3M3 21h5M11 21h2M19 21h2M24 21h5M3 22h5M11 22h2M19 22h2M24 22h5M3 23h5M11 23h2M19 23h2M24 23h5M3 24h26M3 25h26M3 26h26M3 27h26M3 28h26" />
</svg>