<svg xmlns="http://www.w3.org/2000/svg" viewBox="0 -0.5 32 32" shape-rendering="crispEdges">
<metadata>Made with Pixels to Svg https://codepen.io/shshaw/pen/XbxvNj</metadata>
<path stroke="#1a0009" d="M3 0h26M3 1h26M3 2h26M0 3h5M11 3h2M19 3h2M27 3h5M0 4h5M11 4h2M19 4h2M27 4h5M0 5h3M29 5h3M0 6h3M29 6h3M0 7h3M29 7h3M0 8h3M29 8h3M0 9h3M29 9h3M0 10h3M29 10h3M0 11h3M29 11h3M0 12h3M29 12h3M0 13h3M29 13h3M0 14h3M29 14h3M0 15h3M29 15h3M0 16h3M29 16h3M0 17h3M29 17h3M0 18h3M29 18h3M0 19h3M29 19h3M0 20h3M29 20h3M0 21h5M27 21h5M0 22h5M27 22h5M0 23h5M27 23h5M0 24h3M29 24h3M0 25h3M29 25h3M0 26h3M29 26h3M0 27h3M8 27h5M19 27h5M29 27h3M0 28h3M8 28h5M19 28h5M29 28h3M0 29h32M0 30h32M0 31h32" />
<path stroke="#e60054" d="M5 3h6M13 3h6M21 3h6M5 4h6M13 4h6M21 4h6M3 5h2M11 5h2M19 5h2M27 5h2M3 6h2M11 6h2M19 6h2M27 6h2M3 7h2M11 7h2M19 7h2M27 7h2M3 24h2M27 24h2M3 25h2M27 25h2M3 26h2M27 26h2" />
<path stroke="#ff80ae" d="M5 5h6M13 5h6M21 5h6M5 6h6M13 6h6M21 6h6M5 7h6M13 7h6M21 7h6M3 8h26M3 9h26M3 10h26M3 11h26M3 12h26M3 13h26M3 14h26M3 15h26M3 16h26M3 17h26M3 18h26M3 19h26M3 20h26M5 21h22M5 22h22M5 23h22M5 24h22M5 25h22M5 26h22M3 27h5M13 27h6M24 27h5M3 28h5M13 28h6M24 28h5" />
</svg>