<svg xmlns="http://www.w3.org/2000/svg" viewBox="0 -0.5 32 32" shape-rendering="crispEdges">
<metadata>Made with Pixels to Svg https://codepen.io/shshaw/pen/XbxvNj</metadata>
<path stroke="#001a18" d="M3 0h26M3 1h26M3 2h26M3 3h2M27 3h2M3 4h2M27 4h2M0 5h5M27 5h5M0 6h5M27 6h5M0 7h5M27 7h5M0 8h3M29 8h3M0 9h3M29 9h3M0 10h3M29 10h3M0 11h5M27 11h5M0 12h5M27 12h5M0 13h3M5 13h3M24 13h3M29 13h3M0 14h3M5 14h3M24 14h3M29 14h3M0 15h3M5 15h3M24 15h3M29 15h3M0 16h3M13 16h6M29 16h3M0 17h3M13 17h6M29 17h3M0 18h3M13 18h6M29 18h3M0 19h11M13 19h6M21 19h11M0 20h11M13 20h6M21 20h11M0 21h3M13 21h6M29 21h3M0 22h3M13 22h6M29 22h3M0 23h3M13 23h6M29 23h3M0 24h3M29 24h3M0 25h3M29 25h3M0 26h3M29 26h3M0 27h3M5 27h3M11 27h2M19 27h2M24 27h3M29 27h3M0 28h3M5 28h3M11 28h2M19 28h2M24 28h3M29 28h3M0 29h32M0 30h32M0 31h32" />
<path stroke="#00e6da" d="M5 3h22M5 4h22M3 8h2M27 8h2M3 9h2M27 9h2M3 10h2M27 10h2M3 13h2M27 13h2M3 14h2M27 14h2M3 15h2M27 15h2M5 16h3M24 16h3M5 17h3M24 17h3M5 18h3M24 18h3M3 21h8M21 21h8M3 22h8M21 22h8M3 23h8M21 23h8M13 24h6M13 25h6M13 26h6" />
<path stroke="#80fff9" d="M5 5h22M5 6h22M5 7h22M5 8h22M5 9h22M5 10h22M5 11h22M5 12h22M8 13h16M8 14h16M8 15h16M3 16h2M8 16h5M19 16h5M27 16h2M3 17h2M8 17h5M19 17h5M27 17h2M3 18h2M8 18h5M19 18h5M27 18h2M11 19h2M19 19h2M11 20h2M19 20h2M11 21h2M19 21h2M11 22h2M19 22h2M11 23h2M19 23h2M3 24h10M19 24h10M3 25h10M19 25h10M3 26h10M19 26h10M3 27h2M8 27h3M13 27h6M21 27h3M27 27h2M3 28h2M8 28h3M13 28h6M21 28h3M27 28h2" />
</svg>