<svg xmlns="http://www.w3.org/2000/svg" viewBox="0 -0.5 32 32" shape-rendering="crispEdges">
<metadata>Made with Pixels to Svg https://codepen.io/shshaw/pen/XbxvNj</metadata>
<path stroke="#00131a" d="M0 0h32M0 1h32M0 2h32M0 3h3M8 3h3M21 3h3M29 3h3M0 4h3M8 4h3M21 4h3M29 4h3M0 5h3M5 5h3M13 5h6M24 5h3M29 5h3M0 6h3M5 6h3M13 6h6M24 6h3M29 6h3M0 7h3M5 7h3M13 7h6M24 7h3M29 7h3M0 8h5M13 8h6M27 8h5M0 9h5M13 9h6M27 9h5M0 10h5M13 10h6M27 10h5M0 11h3M11 11h10M29 11h3M0 12h3M11 12h10M29 12h3M0 13h3M5 13h6M13 13h6M21 13h6M29 13h3M0 14h3M5 14h6M13 14h6M21 14h6M29 14h3M0 15h3M5 15h6M13 15h6M21 15h6M29 15h3M0 16h3M13 16h6M29 16h3M0 17h3M13 17h6M29 17h3M0 18h3M13 18h6M29 18h3M0 19h5M27 19h5M0 20h5M27 20h5M0 21h3M29 21h3M0 22h3M29 22h3M0 23h3M29 23h3M0 24h3M29 24h3M0 25h3M29 25h3M0 26h3M29 26h3M0 27h3M5 27h3M24 27h3M29 27h3M0 28h3M5 28h3M24 28h3M29 28h3M0 29h32M0 30h32M0 31h32" />
<path stroke="#00a8e6" d="M3 3h5M11 3h10M24 3h5M3 4h5M11 4h10M24 4h5M8 5h3M21 5h3M8 6h3M21 6h3M8 7h3M21 7h3M5 8h3M24 8h3M5 9h3M24 9h3M5 10h3M24 10h3M3 11h2M27 11h2M3 12h2M27 12h2M11 13h2M19 13h2M11 14h2M19 14h2M11 15h2M19 15h2M5 16h6M21 16h6M5 17h6M21 17h6M5 18h6M21 18h6M13 19h6M13 20h6M3 21h2M27 21h2M3 22h2M27 22h2M3 23h2M27 23h2" />
<path stroke="#80ddff" d="M3 5h2M11 5h2M19 5h2M27 5h2M3 6h2M11 6h2M19 6h2M27 6h2M3 7h2M11 7h2M19 7h2M27 7h2M8 8h5M19 8h5M8 9h5M19 9h5M8 10h5M19 10h5M5 11h6M21 11h6M5 12h6M21 12h6M3 13h2M27 13h2M3 14h2M27 14h2M3 15h2M27 15h2M3 16h2M11 16h2M19 16h2M27 16h2M3 17h2M11 17h2M19 17h2M27 17h2M3 18h2M11 18h2M19 18h2M27 18h2M5 19h8M19 19h8M5 20h8M19 20h8M5 21h22M5 22h22M5 23h22M3 24h26M3 25h26M3 26h26M3 27h2M8 27h16M27 27h2M3 28h2M8 28h16M27 28h2" />
</svg>