<svg xmlns="http://www.w3.org/2000/svg" viewBox="0 -0.5 32 32" shape-rendering="crispEdges">
<metadata>Made with Pixels to Svg https://codepen.io/shshaw/pen/XbxvNj</metadata>
<path stroke="#15001a" d="M0 0h32M0 1h32M0 2h32M0 3h3M29 3h3M0 4h3M29 4h3M0 5h5M27 5h5M0 6h5M27 6h5M0 7h5M27 7h5M3 8h2M11 8h2M19 8h2M27 8h2M3 9h2M11 9h2M19 9h2M27 9h2M3 10h2M11 10h2M19 10h2M27 10h2M3 11h2M11 11h2M19 11h2M27 11h2M3 12h2M11 12h2M19 12h2M27 12h2M0 13h5M13 13h6M27 13h5M0 14h5M13 14h6M27 14h5M0 15h5M13 15h6M27 15h5M0 16h3M13 16h6M29 16h3M0 17h3M13 17h6M29 17h3M0 18h3M13 18h6M29 18h3M0 19h3M11 19h2M19 19h2M29 19h3M0 20h3M11 20h2M19 20h2M29 20h3M0 21h3M13 21h6M29 21h3M0 22h3M13 22h6M29 22h3M0 23h3M13 23h6M29 23h3M0 24h3M5 24h3M24 24h3M29 24h3M0 25h3M5 25h3M24 25h3M29 25h3M0 26h3M5 26h3M24 26h3M29 26h3M0 27h3M29 27h3M0 28h3M29 28h3M0 29h32M0 30h32M0 31h32" />
<path stroke="#bb00e6" d="M3 3h26M3 4h26M11 13h2M19 13h2M11 14h2M19 14h2M11 15h2M19 15h2M3 16h2M27 16h2M3 17h2M27 17h2M3 18h2M27 18h2M13 19h6M13 20h6M11 21h2M19 21h2M11 22h2M19 22h2M11 23h2M19 23h2M13 24h6M13 25h6M13 26h6M5 27h3M24 27h3M5 28h3M24 28h3" />
<path stroke="#e880ff" d="M5 5h22M5 6h22M5 7h22M5 8h6M13 8h6M21 8h6M5 9h6M13 9h6M21 9h6M5 10h6M13 10h6M21 10h6M5 11h6M13 11h6M21 11h6M5 12h6M13 12h6M21 12h6M5 13h6M21 13h6M5 14h6M21 14h6M5 15h6M21 15h6M5 16h8M19 16h8M5 17h8M19 17h8M5 18h8M19 18h8M3 19h8M21 19h8M3 20h8M21 20h8M3 21h8M21 21h8M3 22h8M21 22h8M3 23h8M21 23h8M3 24h2M8 24h5M19 24h5M27 24h2M3 25h2M8 25h5M19 25h5M27 25h2M3 26h2M8 26h5M19 26h5M27 26h2M3 27h2M8 27h16M27 27h2M3 28h2M8 28h16M27 28h2" />
</svg>