<svg xmlns="http://www.w3.org/2000/svg" viewBox="0 -0.5 32 32" shape-rendering="crispEdges">
<metadata>Made with Pixels to Svg https://codepen.io/shshaw/pen/XbxvNj</metadata>
<path stroke="#001a00" d="M0 0h32M0 1h32M0 2h32M0 3h3M8 3h3M13 3h6M21 3h3M29 3h3M0 4h3M8 4h3M13 4h6M21 4h3M29 4h3M0 5h3M29 5h3M0 6h3M29 6h3M0 7h3M29 7h3M0 8h3M29 8h3M0 9h3M29 9h3M0 10h3M29 10h3M0 11h3M5 11h3M11 11h2M19 11h2M24 11h3M29 11h3M0 12h3M5 12h3M11 12h2M19 12h2M24 12h3M29 12h3M0 13h3M13 13h6M29 13h3M0 14h3M13 14h6M29 14h3M0 15h3M13 15h6M29 15h3M0 16h3M5 16h8M19 16h8M29 16h3M0 17h3M5 17h8M19 17h8M29 17h3M0 18h3M5 18h8M19 18h8M29 18h3M0 19h8M11 19h2M19 19h2M24 19h8M0 20h8M11 20h2M19 20h2M24 20h8M0 21h3M29 21h3M0 22h3M29 22h3M0 23h3M29 23h3M0 24h3M29 24h3M0 25h3M29 25h3M0 26h3M29 26h3M0 27h11M21 27h11M0 28h11M21 28h11M8 29h16M8 30h16M8 31h16" />
<path stroke="#04e600" d="M3 3h5M11 3h2M19 3h2M24 3h5M3 4h5M11 4h2M19 4h2M24 4h5M8 5h3M13 5h6M21 5h3M8 6h3M13 6h6M21 6h3M8 7h3M13 7h6M21 7h3M5 13h3M11 13h2M19 13h2M24 13h3M5 14h3M11 14h2M19 14h2M24 14h3M5 15h3M11 15h2M19 15h2M24 15h3M13 16h6M13 17h6M13 18h6M8 19h3M21 19h3M8 20h3M21 20h3M3 21h5M11 21h2M19 21h2M24 21h5M3 22h5M11 22h2M19 22h2M24 22h5M3 23h5M11 23h2M19 23h2M24 23h5" />
<path stroke="#82ff80" d="M3 5h5M11 5h2M19 5h2M24 5h5M3 6h5M11 6h2M19 6h2M24 6h5M3 7h5M11 7h2M19 7h2M24 7h5M3 8h26M3 9h26M3 10h26M3 11h2M8 11h3M13 11h6M21 11h3M27 11h2M3 12h2M8 12h3M13 12h6M21 12h3M27 12h2M3 13h2M8 13h3M21 13h3M27 13h2M3 14h2M8 14h3M21 14h3M27 14h2M3 15h2M8 15h3M21 15h3M27 15h2M3 16h2M27 16h2M3 17h2M27 17h2M3 18h2M27 18h2M13 19h6M13 20h6M8 21h3M13 21h6M21 21h3M8 22h3M13 22h6M21 22h3M8 23h3M13 23h6M21 23h3M3 24h26M3 25h26M3 26h26M11 27h10M11 28h10" />
</svg>