<svg xmlns="http://www.w3.org/2000/svg" viewBox="0 -0.5 32 32" shape-rendering="crispEdges">
<metadata>Made with Pixels to Svg https://codepen.io/shshaw/pen/XbxvNj</metadata>
<path stroke="#1a0006" d="M3 0h26M3 1h26M3 2h26M0 3h5M11 3h2M19 3h2M27 3h5M0 4h5M11 4h2M19 4h2M27 4h5M0 5h3M29 5h3M0 6h3M29 6h3M0 7h3M29 7h3M0 8h3M5 8h3M24 8h3M29 8h3M0 9h3M5 9h3M24 9h3M29 9h3M0 10h3M5 10h3M24 10h3M29 10h3M0 11h3M29 11h3M0 12h3M29 12h3M0 13h3M29 13h3M0 14h3M29 14h3M0 15h3M29 15h3M0 16h8M24 16h8M0 17h8M24 17h8M0 18h8M24 18h8M0 19h5M8 19h3M21 19h3M27 19h5M0 20h5M8 20h3M21 20h3M27 20h5M0 21h3M5 21h3M24 21h3M29 21h3M0 22h3M5 22h3M24 22h3M29 22h3M0 23h3M5 23h3M24 23h3M29 23h3M0 24h5M11 24h2M19 24h2M27 24h5M0 25h5M11 25h2M19 25h2M27 25h5M0 26h5M11 26h2M19 26h2M27 26h5M0 27h3M5 27h3M11 27h10M24 27h3M29 27h3M0 28h3M5 28h3M11 28h10M24 28h3M29 28h3M0 29h13M19 29h13M0 30h13M19 30h13M0 31h13M19 31h13" />
<path stroke="#e60039" d="M5 3h6M13 3h6M21 3h6M5 4h6M13 4h6M21 4h6M3 5h2M11 5h2M19 5h2M27 5h2M3 6h2M11 6h2M19 6h2M27 6h2M3 7h2M11 7h2M19 7h2M27 7h2M5 11h3M24 11h3M5 12h3M24 12h3M5 19h3M24 19h3M5 20h3M24 20h3M3 21h2M8 21h3M21 21h3M27 21h2M3 22h2M8 22h3M21 22h3M27 22h2M3 23h2M8 23h3M21 23h3M27 23h2M5 24h3M24 24h3M5 25h3M24 25h3M5 26h3M24 26h3M3 27h2M27 27h2M3 28h2M27 28h2" />
<path stroke="#ff809f" d="M5 5h6M13 5h6M21 5h6M5 6h6M13 6h6M21 6h6M5 7h6M13 7h6M21 7h6M3 8h2M8 8h16M27 8h2M3 9h2M8 9h16M27 9h2M3 10h2M8 10h16M27 10h2M3 11h2M8 11h16M27 11h2M3 12h2M8 12h16M27 12h2M3 13h26M3 14h26M3 15h26M8 16h16M8 17h16M8 18h16M11 19h10M11 20h10M11 21h10M11 22h10M11 23h10M8 24h3M13 24h6M21 24h3M8 25h3M13 25h6M21 25h3M8 26h3M13 26h6M21 26h3M8 27h3M21 27h3M8 28h3M21 28h3" />
</svg>