<svg xmlns="http://www.w3.org/2000/svg" viewBox="0 -0.5 32 32" shape-rendering="crispEdges">
<metadata>Made with Pixels to Svg https://codepen.io/shshaw/pen/XbxvNj</metadata>
<path stroke="#001a04" d="M0 0h32M0 1h32M0 2h32M0 3h3M29 3h3M0 4h3M29 4h3M0 5h3M5 5h3M24 5h3M29 5h3M0 6h3M5 6h3M24 6h3M29 6h3M0 7h3M5 7h3M24 7h3M29 7h3M0 8h3M5 8h6M13 8h6M21 8h6M29 8h3M0 9h3M5 9h6M13 9h6M21 9h6M29 9h3M0 10h3M5 10h6M13 10h6M21 10h6M29 10h3M0 11h5M8 11h5M19 11h5M27 11h5M0 12h5M8 12h5M19 12h5M27 12h5M0 13h3M29 13h3M0 14h3M29 14h3M0 15h3M29 15h3M0 16h5M27 16h5M0 17h5M27 17h5M0 18h5M27 18h5M0 19h5M13 19h6M27 19h5M0 20h5M13 20h6M27 20h5M0 21h3M29 21h3M0 22h3M29 22h3M0 23h3M29 23h3M0 24h3M5 24h3M24 24h3M29 24h3M0 25h3M5 25h3M24 25h3M29 25h3M0 26h3M5 26h3M24 26h3M29 26h3M0 27h8M24 27h8M0 28h8M24 28h8M5 29h22M5 30h22M5 31h22" />
<path stroke="#00e622" d="M3 3h26M3 4h26M5 11h3M13 11h6M24 11h3M5 12h3M13 12h6M24 12h3M3 13h2M8 13h5M19 13h5M27 13h2M3 14h2M8 14h5M19 14h5M27 14h2M3 15h2M8 15h5M19 15h5M27 15h2M3 21h2M13 21h6M27 21h2M3 22h2M13 22h6M27 22h2M3 23h2M13 23h6M27 23h2" />
<path stroke="#80ff93" d="M3 5h2M8 5h16M27 5h2M3 6h2M8 6h16M27 6h2M3 7h2M8 7h16M27 7h2M3 8h2M11 8h2M19 8h2M27 8h2M3 9h2M11 9h2M19 9h2M27 9h2M3 10h2M11 10h2M19 10h2M27 10h2M5 13h3M13 13h6M24 13h3M5 14h3M13 14h6M24 14h3M5 15h3M13 15h6M24 15h3M5 16h22M5 17h22M5 18h22M5 19h8M19 19h8M5 20h8M19 20h8M5 21h8M19 21h8M5 22h8M19 22h8M5 23h8M19 23h8M3 24h2M8 24h16M27 24h2M3 25h2M8 25h16M27 25h2M3 26h2M8 26h16M27 26h2M8 27h16M8 28h16" />
</svg>