<svg xmlns="http://www.w3.org/2000/svg" viewBox="0 -0.5 32 32" shape-rendering="crispEdges">
<metadata>Made with Pixels to Svg https://codepen.io/shshaw/pen/XbxvNj</metadata>
<path stroke="#16001a" d="M0 0h32M0 1h32M0 2h32M0 3h3M29 3h3M0 4h3M29 4h3M0 5h3M5 5h3M24 5h3M29 5h3M0 6h3M5 6h3M24 6h3M29 6h3M0 7h3M5 7h3M24 7h3M29 7h3M0 8h5M27 8h5M0 9h5M27 9h5M0 10h5M27 10h5M0 11h5M8 11h5M19 11h5M27 11h5M0 12h5M8 12h5M19 12h5M27 12h5M0 13h3M5 13h3M13 13h6M24 13h3M29 13h3M0 14h3M5 14h3M13 14h6M24 14h3M29 14h3M0 15h3M5 15h3M13 15h6M24 15h3M29 15h3M0 16h3M5 16h6M21 16h6M29 16h3M0 17h3M5 17h6M21 17h6M29 17h3M0 18h3M5 18h6M21 18h6M29 18h3M0 19h5M27 19h5M0 20h5M27 20h5M0 21h3M11 21h10M29 21h3M0 22h3M11 22h10M29 22h3M0 23h3M11 23h10M29 23h3M0 24h3M29 24h3M0 25h3M29 25h3M0 26h3M29 26h3M0 27h3M13 27h6M29 27h3M0 28h3M13 28h6M29 28h3M0 29h32M0 30h32M0 31h32" />
<path stroke="#c700e6" d="M3 3h26M3 4h26M5 8h3M24 8h3M5 9h3M24 9h3M5 10h3M24 10h3M3 13h2M8 13h5M19 13h5M27 13h2M3 14h2M8 14h5M19 14h5M27 14h2M3 15h2M8 15h5M19 15h5M27 15h2M13 16h6M13 17h6M13 18h6M5 19h6M21 19h6M5 20h6M21 20h6M3 21h2M27 21h2M3 22h2M27 22h2M3 23h2M27 23h2M11 24h10M11 25h10M11 26h10" />
<path stroke="#ee80ff" d="M3 5h2M8 5h16M27 5h2M3 6h2M8 6h16M27 6h2M3 7h2M8 7h16M27 7h2M8 8h16M8 9h16M8 10h16M5 11h3M13 11h6M24 11h3M5 12h3M13 12h6M24 12h3M3 16h2M11 16h2M19 16h2M27 16h2M3 17h2M11 17h2M19 17h2M27 17h2M3 18h2M11 18h2M19 18h2M27 18h2M11 19h10M11 20h10M5 21h6M21 21h6M5 22h6M21 22h6M5 23h6M21 23h6M3 24h8M21 24h8M3 25h8M21 25h8M3 26h8M21 26h8M3 27h10M19 27h10M3 28h10M19 28h10" />
</svg>