<svg xmlns="http://www.w3.org/2000/svg" viewBox="0 -0.5 32 32" shape-rendering="crispEdges">
<metadata>Made with Pixels to Svg https://codepen.io/shshaw/pen/XbxvNj</metadata>
<path stroke="#1a0005" d="M0 0h32M0 1h32M0 2h32M0 3h3M5 3h3M24 3h3M29 3h3M0 4h3M5 4h3M24 4h3M29 4h3M0 5h5M11 5h2M19 5h2M27 5h5M0 6h5M11 6h2M19 6h2M27 6h5M0 7h5M11 7h2M19 7h2M27 7h5M0 8h3M11 8h2M19 8h2M29 8h3M0 9h3M11 9h2M19 9h2M29 9h3M0 10h3M11 10h2M19 10h2M29 10h3M0 11h3M29 11h3M0 12h3M29 12h3M0 13h3M5 13h3M11 13h2M19 13h2M24 13h3M29 13h3M0 14h3M5 14h3M11 14h2M19 14h2M24 14h3M29 14h3M0 15h3M5 15h3M11 15h2M19 15h2M24 15h3M29 15h3M0 16h3M5 16h6M21 16h6M29 16h3M0 17h3M5 17h6M21 17h6M29 17h3M0 18h3M5 18h6M21 18h6M29 18h3M0 19h5M27 19h5M0 20h5M27 20h5M0 21h3M29 21h3M0 22h3M29 22h3M0 23h3M29 23h3M0 24h3M13 24h6M29 24h3M0 25h3M13 25h6M29 25h3M0 26h3M13 26h6M29 26h3M0 27h3M5 27h3M24 27h3M29 27h3M0 28h3M5 28h3M24 28h3M29 28h3M0 29h32M0 30h32M0 31h32" />
<path stroke="#e6002a" d="M3 3h2M8 3h16M27 3h2M3 4h2M8 4h16M27 4h2M5 5h3M24 5h3M5 6h3M24 6h3M5 7h3M24 7h3M3 8h2M27 8h2M3 9h2M27 9h2M3 10h2M27 10h2M11 11h2M19 11h2M11 12h2M19 12h2M11 16h2M19 16h2M11 17h2M19 17h2M11 18h2M19 18h2M5 19h6M21 19h6M5 20h6M21 20h6M3 21h2M27 21h2M3 22h2M27 22h2M3 23h2M27 23h2M13 27h6M13 28h6" />
<path stroke="#ff8097" d="M8 5h3M13 5h6M21 5h3M8 6h3M13 6h6M21 6h3M8 7h3M13 7h6M21 7h3M5 8h6M13 8h6M21 8h6M5 9h6M13 9h6M21 9h6M5 10h6M13 10h6M21 10h6M3 11h8M13 11h6M21 11h8M3 12h8M13 12h6M21 12h8M3 13h2M8 13h3M13 13h6M21 13h3M27 13h2M3 14h2M8 14h3M13 14h6M21 14h3M27 14h2M3 15h2M8 15h3M13 15h6M21 15h3M27 15h2M3 16h2M13 16h6M27 16h2M3 17h2M13 17h6M27 17h2M3 18h2M13 18h6M27 18h2M11 19h10M11 20h10M5 21h22M5 22h22M5 23h22M3 24h10M19 24h10M3 25h10M19 25h10M3 26h10M19 26h10M3 27h2M8 27h5M19 27h5M27 27h2M3 28h2M8 28h5M19 28h5M27 28h2" />
</svg>