<svg xmlns="http://www.w3.org/2000/svg" viewBox="0 -0.5 32 32" shape-rendering="crispEdges">
<metadata>Made with Pixels to Svg https://codepen.io/shshaw/pen/XbxvNj</metadata>
<path stroke="#181a00" d="M0 0h32M0 1h32M0 2h32M0 3h3M8 3h3M13 3h6M21 3h3M29 3h3M0 4h3M8 4h3M13 4h6M21 4h3M29 4h3M0 5h3M13 5h6M29 5h3M0 6h3M13 6h6M29 6h3M0 7h3M13 7h6M29 7h3M0 8h3M8 8h5M19 8h5M29 8h3M0 9h3M8 9h5M19 9h5M29 9h3M0 10h3M8 10h5M19 10h5M29 10h3M0 11h5M11 11h10M27 11h5M0 12h5M11 12h10M27 12h5M0 13h3M29 13h3M0 14h3M29 14h3M0 15h3M29 15h3M0 16h5M11 16h2M19 16h2M27 16h5M0 17h5M11 17h2M19 17h2M27 17h5M0 18h5M11 18h2M19 18h2M27 18h5M0 19h3M29 19h3M0 20h3M29 20h3M0 21h3M5 21h3M11 21h2M19 21h2M24 21h3M29 21h3M0 22h3M5 22h3M11 22h2M19 22h2M24 22h3M29 22h3M0 23h3M5 23h3M11 23h2M19 23h2M24 23h3M29 23h3M0 24h3M5 24h3M13 24h6M24 24h3M29 24h3M0 25h3M5 25h3M13 25h6M24 25h3M29 25h3M0 26h3M5 26h3M13 26h6M24 26h3M29 26h3M0 27h3M5 27h3M24 27h3M29 27h3M0 28h3M5 28h3M24 28h3M29 28h3M0 29h32M0 30h32M0 31h32" />
<path stroke="#d6e600" d="M3 3h5M11 3h2M19 3h2M24 3h5M3 4h5M11 4h2M19 4h2M24 4h5M8 5h3M21 5h3M8 6h3M21 6h3M8 7h3M21 7h3M13 8h6M13 9h6M13 10h6M8 11h3M21 11h3M8 12h3M21 12h3M3 13h2M11 13h10M27 13h2M3 14h2M11 14h10M27 14h2M3 15h2M11 15h10M27 15h2M3 19h2M11 19h2M19 19h2M27 19h2M3 20h2M11 20h2M19 20h2M27 20h2M11 24h2M19 24h2M11 25h2M19 25h2M11 26h2M19 26h2M13 27h6M13 28h6" />
<path stroke="#f7ff80" d="M3 5h5M11 5h2M19 5h2M24 5h5M3 6h5M11 6h2M19 6h2M24 6h5M3 7h5M11 7h2M19 7h2M24 7h5M3 8h5M24 8h5M3 9h5M24 9h5M3 10h5M24 10h5M5 11h3M24 11h3M5 12h3M24 12h3M5 13h6M21 13h6M5 14h6M21 14h6M5 15h6M21 15h6M5 16h6M13 16h6M21 16h6M5 17h6M13 17h6M21 17h6M5 18h6M13 18h6M21 18h6M5 19h6M13 19h6M21 19h6M5 20h6M13 20h6M21 20h6M3 21h2M8 21h3M13 21h6M21 21h3M27 21h2M3 22h2M8 22h3M13 22h6M21 22h3M27 22h2M3 23h2M8 23h3M13 23h6M21 23h3M27 23h2M3 24h2M8 24h3M21 24h3M27 24h2M3 25h2M8 25h3M21 25h3M27 25h2M3 26h2M8 26h3M21 26h3M27 26h2M3 27h2M8 27h5M19 27h5M27 27h2M3 28h2M8 28h5M19 28h5M27 28h2" />
</svg>