<svg xmlns="http://www.w3.org/2000/svg" viewBox="0 -0.5 32 32" shape-rendering="crispEdges">
<metadata>Made with Pixels to Svg https://codepen.io/shshaw/pen/XbxvNj</metadata>
<path stroke="#000e1a" d="M0 0h32M0 1h32M0 2h32M0 3h3M5 3h6M21 3h6M29 3h3M0 4h3M5 4h6M21 4h6M29 4h3M0 5h3M11 5h2M19 5h2M29 5h3M0 6h3M11 6h2M19 6h2M29 6h3M0 7h3M11 7h2M19 7h2M29 7h3M0 8h3M29 8h3M0 9h3M29 9h3M0 10h3M29 10h3M0 11h5M27 11h5M0 12h5M27 12h5M0 13h3M11 13h2M19 13h2M29 13h3M0 14h3M11 14h2M19 14h2M29 14h3M0 15h3M11 15h2M19 15h2M29 15h3M0 16h3M29 16h3M0 17h3M29 17h3M0 18h3M29 18h3M0 19h3M5 19h3M11 19h2M19 19h2M24 19h3M29 19h3M0 20h3M5 20h3M11 20h2M19 20h2M24 20h3M29 20h3M0 21h3M5 21h3M24 21h3M29 21h3M0 22h3M5 22h3M24 22h3M29 22h3M0 23h3M5 23h3M24 23h3M29 23h3M0 24h3M13 24h6M29 24h3M0 25h3M13 25h6M29 25h3M0 26h3M13 26h6M29 26h3M0 27h3M29 27h3M0 28h3M29 28h3M0 29h32M0 30h32M0 31h32" />
<path stroke="#007ae6" d="M3 3h2M11 3h10M27 3h2M3 4h2M11 4h10M27 4h2M5 5h6M21 5h6M5 6h6M21 6h6M5 7h6M21 7h6M11 8h2M19 8h2M11 9h2M19 9h2M11 10h2M19 10h2M3 13h2M27 13h2M3 14h2M27 14h2M3 15h2M27 15h2M11 16h2M19 16h2M11 17h2M19 17h2M11 18h2M19 18h2M11 21h2M19 21h2M11 22h2M19 22h2M11 23h2M19 23h2M5 24h3M24 24h3M5 25h3M24 25h3M5 26h3M24 26h3M13 27h6M13 28h6" />
<path stroke="#80c3ff" d="M3 5h2M13 5h6M27 5h2M3 6h2M13 6h6M27 6h2M3 7h2M13 7h6M27 7h2M3 8h8M13 8h6M21 8h8M3 9h8M13 9h6M21 9h8M3 10h8M13 10h6M21 10h8M5 11h22M5 12h22M5 13h6M13 13h6M21 13h6M5 14h6M13 14h6M21 14h6M5 15h6M13 15h6M21 15h6M3 16h8M13 16h6M21 16h8M3 17h8M13 17h6M21 17h8M3 18h8M13 18h6M21 18h8M3 19h2M8 19h3M13 19h6M21 19h3M27 19h2M3 20h2M8 20h3M13 20h6M21 20h3M27 20h2M3 21h2M8 21h3M13 21h6M21 21h3M27 21h2M3 22h2M8 22h3M13 22h6M21 22h3M27 22h2M3 23h2M8 23h3M13 23h6M21 23h3M27 23h2M3 24h2M8 24h5M19 24h5M27 24h2M3 25h2M8 25h5M19 25h5M27 25h2M3 26h2M8 26h5M19 26h5M27 26h2M3 27h10M19 27h10M3 28h10M19 28h10" />
</svg>