<svg xmlns="http://www.w3.org/2000/svg" viewBox="0 -0.5 32 32" shape-rendering="crispEdges">
<metadata>Made with Pixels to Svg https://codepen.io/shshaw/pen/XbxvNj</metadata>
<path stroke="#0c1a00" d="M0 0h32M0 1h32M0 2h32M0 3h3M29 3h3M0 4h3M29 4h3M0 5h3M5 5h3M11 5h2M19 5h2M24 5h3M29 5h3M0 6h3M5 6h3M11 6h2M19 6h2M24 6h3M29 6h3M0 7h3M5 7h3M11 7h2M19 7h2M24 7h3M29 7h3M0 8h3M11 8h2M19 8h2M29 8h3M0 9h3M11 9h2M19 9h2M29 9h3M0 10h3M11 10h2M19 10h2M29 10h3M0 11h3M29 11h3M0 12h3M29 12h3M0 13h3M5 13h22M29 13h3M0 14h3M5 14h22M29 14h3M0 15h3M5 15h22M29 15h3M0 16h3M13 16h6M29 16h3M0 17h3M13 17h6M29 17h3M0 18h3M13 18h6M29 18h3M0 19h5M27 19h5M0 20h5M27 20h5M0 21h8M13 21h6M24 21h8M0 22h8M13 22h6M24 22h8M0 23h8M13 23h6M24 23h8M0 24h3M11 24h2M19 24h2M29 24h3M0 25h3M11 25h2M19 25h2M29 25h3M0 26h3M11 26h2M19 26h2M29 26h3M0 27h3M5 27h6M21 27h6M29 27h3M0 28h3M5 28h6M21 28h6M29 28h3M0 29h32M0 30h32M0 31h32" />
<path stroke="#6be600" d="M3 3h26M3 4h26M5 8h3M24 8h3M5 9h3M24 9h3M5 10h3M24 10h3M11 11h2M19 11h2M11 12h2M19 12h2M5 16h8M19 16h8M5 17h8M19 17h8M5 18h8M19 18h8M13 19h6M13 20h6M3 24h5M13 24h6M24 24h5M3 25h5M13 25h6M24 25h5M3 26h5M13 26h6M24 26h5M11 27h2M19 27h2M11 28h2M19 28h2" />
<path stroke="#bbff80" d="M3 5h2M8 5h3M13 5h6M21 5h3M27 5h2M3 6h2M8 6h3M13 6h6M21 6h3M27 6h2M3 7h2M8 7h3M13 7h6M21 7h3M27 7h2M3 8h2M8 8h3M13 8h6M21 8h3M27 8h2M3 9h2M8 9h3M13 9h6M21 9h3M27 9h2M3 10h2M8 10h3M13 10h6M21 10h3M27 10h2M3 11h8M13 11h6M21 11h8M3 12h8M13 12h6M21 12h8M3 13h2M27 13h2M3 14h2M27 14h2M3 15h2M27 15h2M3 16h2M27 16h2M3 17h2M27 17h2M3 18h2M27 18h2M5 19h8M19 19h8M5 20h8M19 20h8M8 21h5M19 21h5M8 22h5M19 22h5M8 23h5M19 23h5M8 24h3M21 24h3M8 25h3M21 25h3M8 26h3M21 26h3M3 27h2M13 27h6M27 27h2M3 28h2M13 28h6M27 28h2" />
</svg>