<svg xmlns="http://www.w3.org/2000/svg" viewBox="0 -0.5 32 32" shape-rendering="crispEdges">
<metadata>Made with Pixels to Svg https://codepen.io/shshaw/pen/XbxvNj</metadata>
<path stroke="#061a00" d="M3 0h26M3 1h26M3 2h26M0 3h5M27 3h5M0 4h5M27 4h5M0 5h3M29 5h3M0 6h3M29 6h3M0 7h3M29 7h3M0 8h3M11 8h2M19 8h2M29 8h3M0 9h3M11 9h2M19 9h2M29 9h3M0 10h3M11 10h2M19 10h2M29 10h3M0 11h5M27 11h5M0 12h5M27 12h5M0 13h3M5 13h3M13 13h6M24 13h3M29 13h3M0 14h3M5 14h3M13 14h6M24 14h3M29 14h3M0 15h3M5 15h3M13 15h6M24 15h3M29 15h3M0 16h3M5 16h3M24 16h3M29 16h3M0 17h3M5 17h3M24 17h3M29 17h3M0 18h3M5 18h3M24 18h3M29 18h3M0 19h3M29 19h3M0 20h3M29 20h3M0 21h3M13 21h6M29 21h3M0 22h3M13 22h6M29 22h3M0 23h3M13 23h6M29 23h3M0 24h3M29 24h3M0 25h3M29 25h3M0 26h3M29 26h3M0 27h5M13 27h6M27 27h5M0 28h5M13 28h6M27 28h5M3 29h26M3 30h26M3 31h26" />
<path stroke="#32e600" d="M5 3h22M5 4h22M3 5h2M27 5h2M3 6h2M27 6h2M3 7h2M27 7h2M11 11h2M19 11h2M11 12h2M19 12h2M3 13h2M27 13h2M3 14h2M27 14h2M3 15h2M27 15h2M13 16h6M13 17h6M13 18h6M5 19h3M24 19h3M5 20h3M24 20h3M13 24h6M13 25h6M13 26h6" />
<path stroke="#9bff80" d="M5 5h22M5 6h22M5 7h22M3 8h8M13 8h6M21 8h8M3 9h8M13 9h6M21 9h8M3 10h8M13 10h6M21 10h8M5 11h6M13 11h6M21 11h6M5 12h6M13 12h6M21 12h6M8 13h5M19 13h5M8 14h5M19 14h5M8 15h5M19 15h5M3 16h2M8 16h5M19 16h5M27 16h2M3 17h2M8 17h5M19 17h5M27 17h2M3 18h2M8 18h5M19 18h5M27 18h2M3 19h2M8 19h16M27 19h2M3 20h2M8 20h16M27 20h2M3 21h10M19 21h10M3 22h10M19 22h10M3 23h10M19 23h10M3 24h10M19 24h10M3 25h10M19 25h10M3 26h10M19 26h10M5 27h8M19 27h8M5 28h8M19 28h8" />
</svg>