<svg xmlns="http://www.w3.org/2000/svg" viewBox="0 -0.5 32 32" shape-rendering="crispEdges">
<metadata>Made with Pixels to Svg https://codepen.io/shshaw/pen/XbxvNj</metadata>
<path stroke="#171a00" d="M0 0h32M0 1h32M0 2h32M0 3h3M29 3h3M0 4h3M29 4h3M0 5h3M29 5h3M0 6h3M29 6h3M0 7h3M29 7h3M0 8h3M29 8h3M0 9h3M29 9h3M0 10h3M29 10h3M0 11h5M8 11h3M21 11h3M27 11h5M0 12h5M8 12h3M21 12h3M27 12h5M0 13h5M27 13h5M0 14h5M27 14h5M0 15h5M27 15h5M0 16h3M11 16h2M19 16h2M29 16h3M0 17h3M11 17h2M19 17h2M29 17h3M0 18h3M11 18h2M19 18h2M29 18h3M0 19h3M5 19h3M24 19h3M29 19h3M0 20h3M5 20h3M24 20h3M29 20h3M0 21h3M11 21h2M19 21h2M29 21h3M0 22h3M11 22h2M19 22h2M29 22h3M0 23h3M11 23h2M19 23h2M29 23h3M0 24h3M11 24h2M19 24h2M29 24h3M0 25h3M11 25h2M19 25h2M29 25h3M0 26h3M11 26h2M19 26h2M29 26h3M0 27h5M11 27h10M27 27h5M0 28h5M11 28h10M27 28h5M3 29h10M19 29h10M3 30h10M19 30h10M3 31h10M19 31h10" />
<path stroke="#cbe600" d="M3 3h26M3 4h26M8 13h3M21 13h3M8 14h3M21 14h3M8 15h3M21 15h3M3 16h2M27 16h2M3 17h2M27 17h2M3 18h2M27 18h2M11 19h2M19 19h2M11 20h2M19 20h2M5 21h3M24 21h3M5 22h3M24 22h3M5 23h3M24 23h3" />
<path stroke="#f0ff80" d="M3 5h26M3 6h26M3 7h26M3 8h26M3 9h26M3 10h26M5 11h3M11 11h10M24 11h3M5 12h3M11 12h10M24 12h3M5 13h3M11 13h10M24 13h3M5 14h3M11 14h10M24 14h3M5 15h3M11 15h10M24 15h3M5 16h6M13 16h6M21 16h6M5 17h6M13 17h6M21 17h6M5 18h6M13 18h6M21 18h6M3 19h2M8 19h3M13 19h6M21 19h3M27 19h2M3 20h2M8 20h3M13 20h6M21 20h3M27 20h2M3 21h2M8 21h3M13 21h6M21 21h3M27 21h2M3 22h2M8 22h3M13 22h6M21 22h3M27 22h2M3 23h2M8 23h3M13 23h6M21 23h3M27 23h2M3 24h8M13 24h6M21 24h8M3 25h8M13 25h6M21 25h8M3 26h8M13 26h6M21 26h8M5 27h6M21 27h6M5 28h6M21 28h6" />
</svg>