<svg xmlns="http://www.w3.org/2000/svg" viewBox="0 -0.5 32 32" shape-rendering="crispEdges">
<metadata>Made with Pixels to Svg https://codepen.io/shshaw/pen/XbxvNj</metadata>
<path stroke="#1a0005" d="M0 0h32M0 1h32M0 2h32M0 3h3M29 3h3M0 4h3M29 4h3M0 5h5M27 5h5M0 6h5M27 6h5M0 7h5M27 7h5M0 8h5M13 8h6M27 8h5M0 9h5M13 9h6M27 9h5M0 10h5M13 10h6M27 10h5M0 11h3M13 11h6M29 11h3M0 12h3M13 12h6M29 12h3M0 13h3M8 13h3M21 13h3M29 13h3M0 14h3M8 14h3M21 14h3M29 14h3M0 15h3M8 15h3M21 15h3M29 15h3M0 16h3M8 16h3M13 16h6M21 16h3M29 16h3M0 17h3M8 17h3M13 17h6M21 17h3M29 17h3M0 18h3M8 18h3M13 18h6M21 18h3M29 18h3M0 19h3M11 19h2M19 19h2M29 19h3M0 20h3M11 20h2M19 20h2M29 20h3M0 21h3M29 21h3M0 22h3M29 22h3M0 23h3M29 23h3M0 24h3M5 24h22M29 24h3M0 25h3M5 25h22M29 25h3M0 26h3M5 26h22M29 26h3M0 27h3M13 27h6M29 27h3M0 28h3M13 28h6M29 28h3M0 29h32M0 30h32M0 31h32" />
<path stroke="#e6002e" d="M3 3h26M3 4h26M3 11h2M27 11h2M3 12h2M27 12h2M13 13h6M13 14h6M13 15h6M8 19h3M13 19h6M21 19h3M8 20h3M13 20h6M21 20h3M11 21h2M19 21h2M11 22h2M19 22h2M11 23h2M19 23h2M5 27h8M19 27h8M5 28h8M19 28h8" />
<path stroke="#ff8099" d="M5 5h22M5 6h22M5 7h22M5 8h8M19 8h8M5 9h8M19 9h8M5 10h8M19 10h8M5 11h8M19 11h8M5 12h8M19 12h8M3 13h5M11 13h2M19 13h2M24 13h5M3 14h5M11 14h2M19 14h2M24 14h5M3 15h5M11 15h2M19 15h2M24 15h5M3 16h5M11 16h2M19 16h2M24 16h5M3 17h5M11 17h2M19 17h2M24 17h5M3 18h5M11 18h2M19 18h2M24 18h5M3 19h5M24 19h5M3 20h5M24 20h5M3 21h8M13 21h6M21 21h8M3 22h8M13 22h6M21 22h8M3 23h8M13 23h6M21 23h8M3 24h2M27 24h2M3 25h2M27 25h2M3 26h2M27 26h2M3 27h2M27 27h2M3 28h2M27 28h2" />
</svg>