<?xml version="1.0" encoding="utf-8"?>
<!-- Generator: Adobe Illustrator 25.4.0, SVG Export Plug-In . SVG Version: 6.00 Build 0)  -->
<svg version="1.1" id="Layer_1" xmlns="http://www.w3.org/2000/svg" xmlns:xlink="http://www.w3.org/1999/xlink" x="0px" y="0px"
	 viewBox="0 0 60 60" style="enable-background:new 0 0 60 60;" xml:space="preserve">
<style type="text/css">
	.st0{fill:#36FEDE;}
	.st1{fill:#B8C2FE;}
	.st2{fill:#3854FE;}
	.st3{fill:#FED30B;}
	.st4{fill:#FE9431;}
</style>
<g>
	<path d="M56.6,26.4c0,3.7,0,7.5,0,11.2c-1.2,0-2.3,0-3.5,0c-0.2,0-0.2,0-0.2,0.2c0,1,0,2.1,0,3.1c0,1.4,0,2.7,0,4.1
		c-1.3,0-2.6,0-3.8,0c0-0.1,0-0.3,0-0.4c0-1.1,0-2.2,0-3.3c0-1.2,0-2.4,0-3.6c0-0.2-0.1-0.2-0.2-0.2c-1.2,0-2.4,0-3.6,0
		c0-1.2,0-2.5,0-3.7c0-1.2,0-2.5,0-3.7c0-1.2,0-2.5,0-3.7c1.2,0,2.4,0,3.6,0c0.2,0,0.3-0.1,0.3-0.3c0-1.2,0-2.3,0-3.5
		c1.3,0,2.6,0,3.8,0l0,0c0,1.2,0,2.3,0,3.5c0,0.2,0.1,0.2,0.2,0.2C54.3,26.4,55.5,26.4,56.6,26.4z M51,30.1c-0.6,0-1.2,0-1.7,0
		c-0.1,0-0.2,0-0.2,0.2c0,1.1,0,2.2,0,3.4c0,0.1,0,0.2,0.2,0.2c1.2,0,2.3,0,3.5,0c0.1,0,0.2,0,0.2-0.2c0-1.1,0-2.2,0-3.4
		c0-0.2-0.1-0.2-0.2-0.2C52.1,30.1,51.6,30.1,51,30.1z"/>
	<path d="M3.4,37.6c0-3.7,0-7.5,0-11.2c1,0,2.1,0,3.1,0c0.2,0,0.2,0,0.2-0.2c0-1.2,0-2.3,0-3.5l0,0c1.3,0,2.6,0,3.8,0
		c0,1.2,0,2.3,0,3.5c0,0.2,0,0.2,0.2,0.2c1.2,0,2.4,0,3.6,0c0,1.2,0,2.5,0,3.7c0,1.2,0,2.5,0,3.7c0,1.2,0,2.5,0,3.7
		c-1.2,0-2.4,0-3.6,0c-0.1,0-0.2,0-0.2,0.2c0,1.2,0,2.4,0,3.6c0,0.1,0,0.3,0,0.4c0,1.1,0,2.2,0,3.3c-1.3,0-2.6,0-3.8,0
		c0-0.1,0-0.2,0-0.3c0-2.3,0-4.6,0-7c0-0.2,0-0.2-0.2-0.2C5.5,37.6,4.5,37.6,3.4,37.6z M10.6,32c0-0.6,0-1.1,0-1.7
		c0-0.1,0-0.2-0.2-0.2c-1.2,0-2.3,0-3.5,0c-0.1,0-0.2,0-0.2,0.2c0,1.1,0,2.2,0,3.4c0,0.1,0,0.2,0.2,0.2c1.2,0,2.3,0,3.5,0
		c0.1,0,0.2,0,0.2-0.2C10.6,33.1,10.6,32.5,10.6,32z"/>
	<path class="st0" d="M52.9,45.1c0-1.4,0-2.7,0-4.1c0-1,0-2.1,0-3.1c0-0.2,0-0.2,0.2-0.2c1.2,0,2.3,0,3.5,0c0,3.7,0,7.5,0,11.2
		c-1.2,0-2.5,0-3.7,0C52.9,47.6,52.9,46.3,52.9,45.1z"/>
	<path class="st0" d="M3.4,37.6c1,0,2.1,0,3.1,0c0.2,0,0.2,0,0.2,0.2c0,2.3,0,4.6,0,7c0,0.1,0,0.2,0,0.3c0,1.2,0,2.5,0,3.7
		c-1.1,0-2.2,0-3.4,0C3.4,45.1,3.4,41.3,3.4,37.6z"/>
	<path d="M10.6,7.7c0-1.2,0-2.4,0-3.6c2.6,0,5.1,0,7.7,0c0,1.2,0,2.4,0,3.6C15.8,7.7,13.2,7.7,10.6,7.7L10.6,7.7z"/>
	<path class="st1" d="M26,4.1c2.6,0,5.1,0,7.7,0c0,1.2,0,2.4,0,3.6c-2.6,0-5.1,0-7.7,0C26,6.5,26,5.3,26,4.1z"/>
	<path d="M49.1,4.1c0,1.2,0,2.4,0,3.6l0,0c-2.6,0-5.1,0-7.7,0c0-1.2,0-2.4,0-3.6C43.9,4.1,46.5,4.1,49.1,4.1z"/>
	<path d="M41.4,55.8c-2.6,0-5.1,0-7.7,0c0-1.1,0-2.1,0-3.2c1.3,0,2.6,0,3.8,0c1.3,0,2.6,0,3.8,0l0,0C41.4,53.6,41.4,54.7,41.4,55.8z
		"/>
	<path d="M26,55.8c-2.6,0-5.1,0-7.7,0c0-1.1,0-2.2,0-3.2l0,0c1.3,0,2.6,0,3.8,0c1.3,0,2.6,0,3.8,0C26,53.6,26,54.7,26,55.8z"/>
	<path class="st1" d="M26,55.8c0-1.1,0-2.1,0-3.2l0,0c2.6,0,5.1,0,7.7,0c0,0,0,0,0,0c0,1.1,0,2.1,0,3.2C31.1,55.8,28.6,55.8,26,55.8
		z"/>
	<path class="st0" d="M18.3,7.7c0-1.2,0-2.4,0-3.6c1.3,0,2.6,0,3.8,0c0,1.2,0,2.4,0,3.6C20.9,7.7,19.6,7.7,18.3,7.7L18.3,7.7z"/>
	<path class="st2" d="M22.2,7.7c0-1.2,0-2.4,0-3.6c1.3,0,2.6,0,3.8,0c0,1.2,0,2.4,0,3.6l0,0C24.7,7.7,23.4,7.7,22.2,7.7L22.2,7.7z"
		/>
	<path class="st2" d="M33.7,7.7c0-1.2,0-2.4,0-3.6c1.3,0,2.6,0,3.8,0c0,1.2,0,2.4,0,3.6C36.3,7.7,35,7.7,33.7,7.7L33.7,7.7z"/>
	<path class="st0" d="M37.5,7.7c0-1.2,0-2.4,0-3.6c1.3,0,2.6,0,3.8,0c0,1.2,0,2.4,0,3.6l0,0C40.1,7.7,38.8,7.7,37.5,7.7L37.5,7.7z"
		/>
	<path class="st0" d="M56.6,26.4c-1.1,0-2.3,0-3.4,0c-0.2,0-0.2,0-0.2-0.2c0-1.2,0-2.3,0-3.5c1.2,0,2.5,0,3.7,0
		C56.6,23.9,56.6,25.1,56.6,26.4z"/>
	<path class="st2" d="M56.6,22.6c-1.2,0-2.5,0-3.7,0c0,0,0,0,0,0c0-1.2,0-2.5,0-3.7c1.2,0,2.5,0,3.7,0
		C56.6,20.1,56.6,21.4,56.6,22.6z"/>
	<path class="st0" d="M56.6,18.9c-1.2,0-2.5,0-3.7,0l0,0c0-1.2,0-2.5,0-3.7c1.2,0,2.5,0,3.7,0C56.6,16.4,56.6,17.7,56.6,18.9z"/>
	<path d="M52.9,48.8c1.2,0,2.5,0,3.7,0c0,1.2,0,2.5,0,3.7c-1.2,0-2.5,0-3.7,0l0,0C52.9,51.3,52.9,50,52.9,48.8L52.9,48.8z"/>
	<path d="M56.6,15.2c-1.2,0-2.5,0-3.7,0l0,0c0-1.2,0-2.5,0-3.7l0,0c1.2,0,2.5,0,3.7,0C56.6,12.7,56.6,13.9,56.6,15.2z"/>
	<path d="M3.4,48.8c1.1,0,2.2,0,3.4,0c0,0,0,0,0,0c0,1.2,0,2.5,0,3.7l0,0c-1.1,0-2.2,0-3.4,0C3.4,51.3,3.4,50,3.4,48.8z"/>
	<path d="M0,37.1c1.1,0,2.2,0,3.4,0c0,0,0,0,0,0c0,3.9,0,7.9,0,11.8l0,0c-1.1,0-2.2,0-3.4,0C0,45,0,41.1,0,37.1z"/>
	<path d="M0,14.9c1.1,0,2.2,0,3.4,0c0,0,0,0,0,0c0,3.9,0,7.9,0,11.8l0,0c-1.1,0-2.2,0-3.4,0C0,22.8,0,18.9,0,14.9z"/>
	<path d="M56.6,37.1c1.1,0,2.2,0,3.4,0c0,0,0,0,0,0c0,3.9,0,7.9,0,11.8l0,0c-1.1,0-2.2,0-3.4,0C56.6,45,56.6,41.1,56.6,37.1z"/>
	<path d="M56.6,14.9c1.1,0,2.2,0,3.4,0c0,0,0,0,0,0c0,3.9,0,7.9,0,11.8l0,0c-1.1,0-2.2,0-3.4,0C56.6,22.8,56.6,18.9,56.6,14.9z"/>
	<path class="st0" d="M6.8,22.6c0,1.2,0,2.3,0,3.5c0,0.2-0.1,0.2-0.2,0.2c-1,0-2.1,0-3.1,0c0-1.2,0-2.5,0-3.7
		C4.5,22.6,5.7,22.6,6.8,22.6z"/>
	<path class="st2" d="M6.8,22.6c-1.1,0-2.2,0-3.4,0c0-1.2,0-2.5,0-3.7c1.1,0,2.2,0,3.4,0C6.8,20.2,6.8,21.4,6.8,22.6L6.8,22.6z"/>
	<path class="st0" d="M6.8,18.9c-1.1,0-2.2,0-3.4,0c0-1.2,0-2.5,0-3.7c1.1,0,2.2,0,3.4,0C6.8,16.4,6.8,17.7,6.8,18.9L6.8,18.9z"/>
	<path d="M6.8,15.2c-1.1,0-2.2,0-3.4,0c0-1.2,0-2.5,0-3.7c1.1,0,2.2,0,3.4,0l0,0C6.8,12.7,6.8,13.9,6.8,15.2L6.8,15.2z"/>
	<path d="M10.6,55.8c-1.3,0-2.6,0-3.8,0c0-1.1,0-2.2,0-3.2l0,0c1.3,0,2.6,0,3.8,0C10.6,53.6,10.6,54.7,10.6,55.8z"/>
	<path class="st0" d="M10.6,55.8c0-1.1,0-2.1,0-3.2l0,0c1.3,0,2.6,0,3.8,0l0,0c0,1.1,0,2.2,0,3.2C13.2,55.8,11.9,55.8,10.6,55.8z"/>
	<path class="st1" d="M14.5,55.8c0-1.1,0-2.2,0-3.2c1.3,0,2.6,0,3.8,0c0,1.1,0,2.2,0,3.2C17,55.8,15.8,55.8,14.5,55.8z"/>
	<path class="st1" d="M41.4,55.8c0-1.1,0-2.2,0-3.2c1.3,0,2.6,0,3.8,0c0,1.1,0,2.2,0,3.2C43.9,55.8,42.7,55.8,41.4,55.8z"/>
	<path class="st0" d="M45.2,55.8c0-1.1,0-2.2,0-3.2l0,0c1.3,0,2.6,0,3.8,0l0,0c0,1.1,0,2.1,0,3.2C47.8,55.8,46.5,55.8,45.2,55.8z"/>
	<path d="M49.1,55.8c0-1.1,0-2.1,0-3.2c1.3,0,2.6,0,3.8,0l0,0c0,1.1,0,2.2,0,3.2C51.6,55.8,50.4,55.8,49.1,55.8z"/>
	<path class="st3" d="M45.2,52.5c-1.3,0-2.6,0-3.8,0c0,0,0,0,0,0c0-1.2,0-2.5,0-3.7c0-1.2,0-2.5,0-3.7c1.2,0,2.4,0,3.6,0
		c0.2,0,0.2,0,0.2-0.2c0-1.2,0-2.3,0-3.5c1.3,0,2.6,0,3.8,0c0,1.1,0,2.2,0,3.3c0,0.1,0,0.3,0,0.4c0,1.2,0,2.5,0,3.7l0,0
		c-1.2,0-2.4,0-3.6,0c-0.2,0-0.2,0-0.2,0.2C45.2,50.2,45.2,51.4,45.2,52.5L45.2,52.5z"/>
	<path class="st3" d="M52.9,18.9c0,1.2,0,2.5,0,3.7c-1.3,0-2.6,0-3.8,0l0,0c0-0.1,0-0.2,0-0.3c0-1.1,0-2.3,0-3.4
		C50.4,18.9,51.6,18.9,52.9,18.9L52.9,18.9z"/>
	<path class="st2" d="M49.1,22.6c0,1.2,0,2.3,0,3.5c0,0.2-0.1,0.3-0.3,0.3c-1.2,0-2.4,0-3.6,0l0,0c0-1.2,0-2.5,0-3.7
		c0.2,0,0.3,0,0.5,0C46.8,22.6,48,22.6,49.1,22.6L49.1,22.6z"/>
	<path class="st1" d="M45.2,26.4c0,1.2,0,2.5,0,3.7c-1.3,0-2.6,0-3.8,0c0-1.2,0-2.5,0-3.7C42.7,26.4,43.9,26.4,45.2,26.4L45.2,26.4z
		"/>
	<path class="st3" d="M41.4,30.1c1.3,0,2.6,0,3.8,0c0,1.2,0,2.5,0,3.7c-1.3,0-2.6,0-3.8,0C41.4,32.6,41.4,31.4,41.4,30.1L41.4,30.1z
		"/>
	<path class="st4" d="M51,30.1c0.6,0,1.1,0,1.7,0c0.1,0,0.2,0,0.2,0.2c0,1.1,0,2.2,0,3.4c0,0.1,0,0.2-0.2,0.2c-1.2,0-2.3,0-3.5,0
		c-0.2,0-0.2,0-0.2-0.2c0-1.1,0-2.2,0-3.4c0-0.1,0-0.2,0.2-0.2C49.8,30.1,50.4,30.1,51,30.1z"/>
	<path class="st1" d="M41.4,33.9c1.3,0,2.6,0,3.8,0c0,1.2,0,2.5,0,3.7c0,0,0,0,0,0c-1.3,0-2.6,0-3.8,0
		C41.4,36.3,41.4,35.1,41.4,33.9L41.4,33.9L41.4,33.9z"/>
	<path class="st2" d="M49.1,41.3c-1.3,0-2.6,0-3.8,0l0,0c0-1.2,0-2.5,0-3.7c0,0,0,0,0,0c1.2,0,2.4,0,3.6,0c0.1,0,0.2,0,0.2,0.2
		C49.1,38.9,49.1,40.1,49.1,41.3z"/>
	<path class="st1" d="M49.1,48.8c0-1.2,0-2.5,0-3.7c1.3,0,2.6,0,3.8,0c0,1.2,0,2.5,0,3.7c0,0,0,0,0,0C51.6,48.8,50.4,48.8,49.1,48.8
		z"/>
	<path class="st3" d="M18.3,52.5c-1.3,0-2.6,0-3.8,0c0,0,0,0,0,0c0-1.2,0-2.3,0-3.5c0-0.2,0-0.2-0.2-0.2c-1.2,0-2.4,0-3.6,0l0,0
		c0-1.2,0-2.5,0-3.7c0-1.1,0-2.2,0-3.3c0-0.1,0-0.3,0-0.4c1.3,0,2.6,0,3.8,0c0,1.2,0,2.4,0,3.5c0,0.2,0,0.2,0.2,0.2
		c1.2,0,2.4,0,3.6,0c0,1.2,0,2.5,0,3.7C18.3,50,18.3,51.3,18.3,52.5L18.3,52.5z"/>
	<path class="st3" d="M6.8,22.6c0-1.2,0-2.5,0-3.7c0,0,0,0,0,0c1.3,0,2.6,0,3.8,0c0,0.1,0,0.3,0,0.4c0,1.1,0,2.2,0,3.3l0,0
		C9.4,22.6,8.1,22.6,6.8,22.6z"/>
	<path class="st2" d="M14.5,26.4c-1.2,0-2.4,0-3.6,0c-0.2,0-0.2,0-0.2-0.2c0-1.2,0-2.3,0-3.5l0,0c0.1,0,0.2,0,0.3,0
		c1.2,0,2.3,0,3.5,0C14.5,23.9,14.5,25.1,14.5,26.4L14.5,26.4z"/>
	<path class="st1" d="M14.5,30.1c0-1.2,0-2.5,0-3.7c0,0,0,0,0,0c1.3,0,2.6,0,3.8,0c0,1.2,0,2.5,0,3.7C17,30.1,15.8,30.1,14.5,30.1z"
		/>
	<path class="st4" d="M10.6,32c0,0.6,0,1.1,0,1.7c0,0.1,0,0.2-0.2,0.2c-1.2,0-2.3,0-3.5,0c-0.1,0-0.2,0-0.2-0.2c0-1.1,0-2.2,0-3.4
		c0-0.1,0-0.2,0.2-0.2c1.2,0,2.3,0,3.5,0c0.1,0,0.2,0,0.2,0.2C10.6,30.9,10.6,31.4,10.6,32z"/>
	<path class="st3" d="M14.5,30.1c1.3,0,2.6,0,3.8,0l0,0c0,1.2,0,2.5,0,3.7c-1.3,0-2.6,0-3.8,0C14.5,32.6,14.5,31.4,14.5,30.1z"/>
	<path class="st1" d="M14.5,33.9c1.3,0,2.6,0,3.8,0c0,0,0,0,0,0l0,0c0,1.2,0,2.5,0,3.7c-1.3,0-2.6,0-3.8,0l0,0
		C14.5,36.3,14.5,35.1,14.5,33.9z"/>
	<path class="st2" d="M14.5,41.3c-1.3,0-2.6,0-3.8,0c0-1.2,0-2.4,0-3.6c0-0.2,0.1-0.2,0.2-0.2c1.2,0,2.4,0,3.6,0c0,0,0,0,0,0
		C14.5,38.8,14.5,40.1,14.5,41.3L14.5,41.3z"/>
	<path class="st1" d="M10.6,45.1c0,1.2,0,2.5,0,3.7c-1.3,0-2.6,0-3.9,0c0,0,0,0,0,0c0-1.2,0-2.5,0-3.7C8.1,45.1,9.4,45.1,10.6,45.1z
		"/>
	<path d="M49.1,7.7c1.2,0,2.4,0,3.6,0c0.2,0,0.2,0,0.2,0.2c0,1.2,0,2.3,0,3.5l0,0c-1.3,0-2.6,0-3.8,0C49.1,10.2,49.1,8.9,49.1,7.7
		L49.1,7.7z"/>
	<path d="M6.8,11.4c0-1.2,0-2.3,0-3.5c0-0.2,0-0.2,0.2-0.2c1.2,0,2.4,0,3.6,0l0,0c0,1.2,0,2.5,0,3.7C9.4,11.4,8.1,11.4,6.8,11.4
		L6.8,11.4z"/>
	<path class="st0" d="M10.6,11.4c0-1.2,0-2.5,0-3.7c2.6,0,5.1,0,7.7,0l0,0c0,1.2,0,2.5,0,3.7c-0.1,0-0.2,0-0.3,0c-1.2,0-2.3,0-3.5,0
		C13.2,11.4,11.9,11.4,10.6,11.4L10.6,11.4z"/>
	<path class="st2" d="M26,7.7c2.6,0,5.1,0,7.7,0l0,0c0,1.2,0,2.5,0,3.7c-2.6,0-5.1,0-7.7,0C26,10.2,26,8.9,26,7.7L26,7.7z"/>
	<path class="st0" d="M49.1,7.7c0,1.2,0,2.5,0,3.7l0,0c-1.3,0-2.6,0-3.8,0c-0.2,0-0.4,0-0.5,0c-1.1,0-2.2,0-3.3,0c0-1.2,0-2.5,0-3.7
		l0,0C44,7.7,46.5,7.7,49.1,7.7z"/>
	<path class="st2" d="M41.4,48.8c0,1.2,0,2.5,0,3.7c-1.3,0-2.6,0-3.8,0c0-1.2,0-2.5,0-3.7c0,0,0,0,0,0
		C38.8,48.8,40.1,48.8,41.4,48.8z"/>
	<path class="st1" d="M37.5,48.8c0,1.2,0,2.5,0,3.7c-1.3,0-2.6,0-3.8,0l0,0c0-1.2,0-2.3,0-3.5c0-0.2,0.1-0.2,0.2-0.2
		C35.1,48.8,36.3,48.8,37.5,48.8z"/>
	<path class="st1" d="M26,52.5c-1.3,0-2.6,0-3.8,0c0-1.2,0-2.5,0-3.7c1.2,0,2.4,0,3.6,0c0.2,0,0.2,0,0.2,0.2
		C26,50.2,26,51.4,26,52.5L26,52.5z"/>
	<path class="st2" d="M22.2,48.8c0,1.2,0,2.5,0,3.7c-1.3,0-2.6,0-3.8,0c0-1.2,0-2.5,0-3.7C19.6,48.8,20.9,48.8,22.2,48.8L22.2,48.8z
		"/>
	<path class="st3" d="M26,52.5c0-1.2,0-2.3,0-3.5c0-0.2-0.1-0.2-0.2-0.2c-1.2,0-2.4,0-3.6,0l0,0c0-1.2,0-2.5,0-3.7
		c1.3,0,2.6,0,3.8,0c0.8,0,1.7,0,2.5,0c1.7,0,3.5,0,5.2,0c1.3,0,2.6,0,3.8,0c0,1.2,0,2.5,0,3.7l0,0c-1.2,0-2.4,0-3.6,0
		c-0.2,0-0.2,0-0.2,0.2c0,1.2,0,2.3,0,3.5C31.1,52.5,28.6,52.5,26,52.5z"/>
	<path class="st1" d="M18.3,11.4c0-1.2,0-2.5,0-3.7c1.3,0,2.6,0,3.8,0l0,0c0,1.2,0,2.5,0,3.7C20.9,11.4,19.6,11.4,18.3,11.4
		L18.3,11.4z"/>
	<path class="st0" d="M22.2,11.4c0-1.2,0-2.5,0-3.7c1.3,0,2.6,0,3.8,0c0,1.2,0,2.5,0,3.7l0,0C24.7,11.4,23.4,11.4,22.2,11.4
		L22.2,11.4z"/>
	<path class="st0" d="M33.7,11.4c0-1.2,0-2.5,0-3.7c1.3,0,2.6,0,3.8,0l0,0c0,1.2,0,2.5,0,3.7C36.3,11.4,35,11.4,33.7,11.4L33.7,11.4
		z"/>
	<path class="st1" d="M37.5,11.4c0-1.2,0-2.5,0-3.7c1.3,0,2.6,0,3.8,0c0,1.2,0,2.5,0,3.7l0,0C40.1,11.4,38.8,11.4,37.5,11.4
		L37.5,11.4z"/>
	<path class="st1" d="M52.9,18.9c-1.3,0-2.6,0-3.8,0l0,0c0-1.2,0-2.5,0-3.7l0,0c1.3,0,2.6,0,3.8,0l0,0
		C52.9,16.4,52.9,17.7,52.9,18.9z"/>
	<path class="st0" d="M49.1,48.8c1.3,0,2.6,0,3.9,0c0,1.2,0,2.5,0,3.7c-1.3,0-2.6,0-3.8,0l0,0C49.1,51.3,49.1,50,49.1,48.8
		L49.1,48.8z"/>
	<path class="st0" d="M52.9,15.2c-1.3,0-2.6,0-3.8,0c0-1.2,0-2.5,0-3.7l0,0c1.3,0,2.6,0,3.8,0C52.9,12.7,52.9,13.9,52.9,15.2z"/>
	<path class="st0" d="M6.8,48.8c1.3,0,2.6,0,3.9,0c0,0,0,0,0,0c0,1.2,0,2.5,0,3.7l0,0c-1.3,0-2.6,0-3.8,0C6.8,51.3,6.8,50,6.8,48.8z
		"/>
	<path class="st1" d="M10.6,18.9c-1.3,0-2.6,0-3.8,0c0-1.2,0-2.5,0-3.7c0,0,0,0,0,0c1.3,0,2.6,0,3.8,0l0,0
		C10.6,16.4,10.6,17.7,10.6,18.9L10.6,18.9z"/>
	<path class="st0" d="M10.6,15.2c-1.3,0-2.6,0-3.8,0c0-1.2,0-2.5,0-3.7c1.3,0,2.6,0,3.8,0l0,0C10.6,12.7,10.6,13.9,10.6,15.2z"/>
	<path class="st2" d="M10.6,52.5c0-1.2,0-2.5,0-3.7c1.2,0,2.4,0,3.6,0c0.2,0,0.2,0,0.2,0.2c0,1.2,0,2.3,0,3.5
		C13.2,52.5,11.9,52.5,10.6,52.5z"/>
	<path class="st2" d="M49.1,48.8c0,1.2,0,2.5,0,3.7c-1.3,0-2.6,0-3.8,0c0-1.2,0-2.3,0-3.5c0-0.2,0-0.2,0.2-0.2
		C46.7,48.8,47.9,48.8,49.1,48.8z"/>
	<path class="st1" d="M45.2,41.3c0,1.2,0,2.3,0,3.5c0,0.2,0,0.2-0.2,0.2c-1.2,0-2.4,0-3.6,0l0,0c0-1.2,0-2.5,0-3.7
		C42.7,41.3,44,41.3,45.2,41.3L45.2,41.3z"/>
	<path class="st1" d="M37.5,48.8c0-1.2,0-2.5,0-3.7c0,0,0,0,0,0c1.3,0,2.6,0,3.8,0l0,0c0,1.2,0,2.5,0,3.7
		C40.1,48.8,38.8,48.8,37.5,48.8z"/>
	<path class="st1" d="M49.1,22.6c-1.1,0-2.2,0-3.3,0c-0.2,0-0.3,0-0.5,0c0,0,0,0,0,0c0-1.2,0-2.5,0-3.7c1.3,0,2.6,0,3.8,0l0,0
		c0,1.1,0,2.3,0,3.4C49.1,22.4,49.1,22.5,49.1,22.6z"/>
	<path class="st3" d="M45.2,26.4c-1.3,0-2.6,0-3.8,0l0,0c0-1.2,0-2.5,0-3.7c1.3,0,2.6,0,3.8,0c0,0,0,0,0,0
		C45.2,23.9,45.2,25.1,45.2,26.4z"/>
	<path class="st3" d="M18.3,30.1c0-1.2,0-2.5,0-3.7l0,0c1.2,0,2.4,0,3.6,0c0.2,0,0.2,0,0.2-0.2c0-1.2,0-2.3,0-3.5c1.2,0,2.4,0,3.6,0
		c0.2,0,0.3-0.1,0.3-0.3c0-1.1,0-2.2,0-3.3c0-0.2,0-0.2,0.2-0.2c2.4,0,4.8,0,7.2,0c0.2,0,0.2,0.1,0.2,0.2c0,1.1,0,2.2,0,3.3
		c0,0.2,0,0.3,0.3,0.3c1.2,0,2.4,0,3.6,0c0,1.2,0,2.3,0,3.5c0,0.2,0.1,0.2,0.2,0.2c1.2,0,2.4,0,3.6,0l0,0c0,1.2,0,2.5,0,3.7l0,0
		c-1.3,0-2.6,0-3.8,0c-0.1,0-0.2,0-0.4,0c-1.2,0-2.3,0-3.5,0c0-1.2,0-2.3,0-3.5c0-0.2-0.1-0.2-0.3-0.2c-2.4,0-4.8,0-7.2,0
		c-0.2,0-0.3,0-0.3,0.2c0,1.2,0,2.3,0,3.5c-0.1,0-0.2,0-0.4,0c-1.2,0-2.3,0-3.5,0C20.9,30.1,19.6,30.1,18.3,30.1L18.3,30.1z"/>
	<path class="st2" d="M37.5,30.1c1.3,0,2.6,0,3.8,0c0,1.2,0,2.5,0,3.7c0,0,0,0,0,0s0,0,0,0c-1.3,0-2.6,0-3.8,0c0,0,0,0,0,0
		C37.5,32.6,37.5,31.4,37.5,30.1z"/>
	<path d="M37.5,33.8c1.3,0,2.6,0,3.8,0c0,1.2,0,2.5,0,3.7c0,0,0,0,0,0c-1.3,0-2.6,0-3.8,0C37.5,36.3,37.5,35.1,37.5,33.8z"/>
	<path class="st3" d="M45.2,41.3c-1.3,0-2.6,0-3.8,0l0,0c0-1.2,0-2.5,0-3.7c0,0,0,0,0,0c1.3,0,2.6,0,3.8,0
		C45.2,38.8,45.2,40.1,45.2,41.3z"/>
	<path class="st1" d="M18.3,45.1c-1.2,0-2.4,0-3.6,0c-0.2,0-0.2,0-0.2-0.2c0-1.2,0-2.4,0-3.5c0,0,0,0,0,0c1.3,0,2.6,0,3.8,0
		C18.3,42.6,18.3,43.8,18.3,45.1L18.3,45.1z"/>
	<path class="st1" d="M22.2,45.1c0,1.2,0,2.5,0,3.7c-1.3,0-2.6,0-3.8,0c0-1.2,0-2.5,0-3.7l0,0C19.6,45.1,20.9,45.1,22.2,45.1
		L22.2,45.1z"/>
	<path class="st1" d="M14.5,22.6c-1.2,0-2.3,0-3.5,0c-0.1,0-0.2,0-0.3,0c0-1.1,0-2.2,0-3.3c0-0.1,0-0.3,0-0.4l0,0c1.3,0,2.6,0,3.8,0
		C14.5,20.1,14.5,21.4,14.5,22.6L14.5,22.6z"/>
	<path class="st3" d="M18.3,26.4c-1.3,0-2.6,0-3.8,0c0-1.2,0-2.5,0-3.7c0,0,0,0,0,0c1.3,0,2.6,0,3.8,0
		C18.3,23.9,18.3,25.1,18.3,26.4L18.3,26.4z"/>
	<path class="st2" d="M18.3,30.1c1.3,0,2.6,0,3.8,0c0,1.2,0,2.5,0,3.7l0,0c-1.3,0-2.6,0-3.8,0l0,0c0,0,0,0,0,0
		C18.3,32.6,18.3,31.4,18.3,30.1z"/>
	<path d="M18.3,33.8c1.3,0,2.6,0,3.8,0c0,1.2,0,2.5,0,3.7c-1.3,0-2.6,0-3.8,0l0,0C18.3,36.3,18.3,35.1,18.3,33.8z"/>
	<path class="st3" d="M18.3,41.3c-1.3,0-2.6,0-3.8,0c0-1.2,0-2.5,0-3.7c1.3,0,2.6,0,3.8,0c0,0,0,0,0,0
		C18.3,38.8,18.3,40.1,18.3,41.3L18.3,41.3z"/>
	<path class="st2" d="M14.5,11.4c1.2,0,2.3,0,3.5,0c0.1,0,0.2,0,0.3,0c0,0,0,0,0,0c0,1.2,0,2.5,0,3.7c-1.3,0-2.6,0-3.8,0l0,0
		C14.5,13.9,14.5,12.7,14.5,11.4z"/>
	<path class="st1" d="M14.5,11.4c0,1.2,0,2.5,0,3.7c-1.3,0-2.6,0-3.8,0l0,0c0-1.2,0-2.5,0-3.7C11.9,11.4,13.2,11.4,14.5,11.4z"/>
	<path d="M26,11.4c2.6,0,5.1,0,7.7,0l0,0c0,1.2,0,2.5,0,3.7c-0.8,0-1.5,0-2.3,0c-1.8,0-3.6,0-5.4,0C26,13.9,26,12.7,26,11.4L26,11.4
		z"/>
	<path class="st2" d="M41.4,11.4c1.1,0,2.2,0,3.3,0c0.2,0,0.4,0,0.5,0c0,1.2,0,2.5,0,3.7l0,0c-1.3,0-2.6,0-3.8,0
		C41.4,13.9,41.4,12.7,41.4,11.4L41.4,11.4z"/>
	<path class="st1" d="M45.2,15.2c0-1.2,0-2.5,0-3.7c1.3,0,2.6,0,3.8,0c0,1.2,0,2.5,0,3.7l0,0C47.8,15.2,46.5,15.2,45.2,15.2z"/>
	<path class="st0" d="M22.2,37.6c0-1.2,0-2.5,0-3.7c0,0,0,0,0,0c1,0,2.1,0,3.1,0c4.1,0,8.2,0,12.3,0c0,0,0,0,0,0c0,1.2,0,2.5,0,3.7
		c0,1.2,0,2.5,0,3.7c0,1.2,0,2.5,0,3.7c0,0,0,0,0,0c-1.3,0-2.6,0-3.8,0c0-1.2,0-2.5,0-3.7c0-1.2,0-2.3,0-3.5c0-0.2,0-0.2-0.2-0.2
		c-1.2,0-2.5,0-3.7,0c-1.2,0-2.4,0-3.6,0c-0.1,0-0.2,0-0.2,0.2c0,1.2,0,2.4,0,3.6c0,1.2,0,2.5,0,3.7c-1.3,0-2.6,0-3.8,0c0,0,0,0,0,0
		c0-1.2,0-2.5,0-3.7C22.2,40.1,22.2,38.8,22.2,37.6z"/>
	<path class="st2" d="M33.7,41.3c0,1.2,0,2.5,0,3.7c-1.7,0-3.5,0-5.2,0c-0.8,0-1.7,0-2.5,0c0-1.2,0-2.5,0-3.7
		C28.6,41.3,31.1,41.3,33.7,41.3z"/>
	<path d="M18.3,15.2c0-1.2,0-2.5,0-3.7c1.3,0,2.6,0,3.8,0c0,0,0,0,0,0c0,1.2,0,2.5,0,3.7C20.9,15.2,19.6,15.2,18.3,15.2z"/>
	<path class="st3" d="M22.2,15.2c0-1.2,0-2.5,0-3.7c1.3,0,2.6,0,3.8,0c0,1.2,0,2.5,0,3.7C24.7,15.2,23.5,15.2,22.2,15.2z"/>
	<path class="st3" d="M33.7,15.2c0-1.2,0-2.5,0-3.7c1.3,0,2.6,0,3.8,0l0,0c0,1.2,0,2.5,0,3.7C36.3,15.2,35,15.2,33.7,15.2z"/>
	<path d="M37.5,15.2c0-1.2,0-2.5,0-3.7c1.3,0,2.6,0,3.8,0c0,1.2,0,2.5,0,3.7C40.1,15.2,38.8,15.2,37.5,15.2z"/>
	<path class="st2" d="M45.2,15.2c1.3,0,2.6,0,3.8,0c0,1.2,0,2.5,0,3.7c-1.3,0-2.6,0-3.8,0C45.2,17.7,45.2,16.4,45.2,15.2L45.2,15.2z
		"/>
	<path class="st2" d="M10.6,15.2c1.3,0,2.6,0,3.8,0l0,0c0,1.2,0,2.5,0,3.7c-1.3,0-2.6,0-3.8,0C10.6,17.7,10.6,16.4,10.6,15.2z"/>
	<path class="st3" d="M37.5,45.1c0-1.2,0-2.5,0-3.7c1.3,0,2.6,0,3.8,0l0,0c0,1.2,0,2.5,0,3.7C40.1,45.1,38.8,45.1,37.5,45.1z"/>
	<path class="st0" d="M14.5,18.9c0-1.2,0-2.5,0-3.7c1.3,0,2.6,0,3.8,0c1.3,0,2.6,0,3.8,0c1.3,0,2.6,0,3.8,0c1.8,0,3.6,0,5.4,0
		c0.8,0,1.5,0,2.3,0c1.3,0,2.6,0,3.8,0c1.3,0,2.6,0,3.8,0c1.3,0,2.6,0,3.8,0c0,1.2,0,2.5,0,3.7c0,1.2,0,2.5,0,3.7
		c-1.3,0-2.6,0-3.8,0l0,0c0-1.2,0-2.4,0-3.5c0-0.2,0-0.2-0.2-0.2c-1.1,0-2.3,0-3.4,0c-0.2,0-0.2,0-0.2,0.2c0,1.2,0,2.3,0,3.5l0,0
		c-1.2,0-2.4,0-3.6,0c-0.2,0-0.3-0.1-0.3-0.3c0-1.1,0-2.2,0-3.3c0-0.2,0-0.2-0.2-0.2c-2.4,0-4.8,0-7.2,0c-0.2,0-0.2,0.1-0.2,0.2
		c0,1.1,0,2.2,0,3.3c0,0.2,0,0.3-0.3,0.3c-1.2,0-2.4,0-3.6,0l0,0c0-1.2,0-2.4,0-3.5c0-0.2,0-0.2-0.2-0.2c-1.1,0-2.3,0-3.4,0
		c-0.2,0-0.2,0-0.2,0.2c0,1.2,0,2.3,0,3.5l0,0c-1.3,0-2.6,0-3.8,0C14.5,21.4,14.5,20.1,14.5,18.9z"/>
	<path class="st0" d="M41.4,26.4c-1.2,0-2.4,0-3.6,0c-0.2,0-0.2,0-0.2-0.2c0-1.2,0-2.3,0-3.5l0,0c1.3,0,2.6,0,3.8,0l0,0
		C41.4,23.9,41.4,25.1,41.4,26.4z"/>
	<path d="M37.5,33.9c-4.1,0-8.2,0-12.3,0c-1,0-2.1,0-3.1,0c0-1.2,0-2.5,0-3.7c1.2,0,2.3,0,3.5,0c0.1,0,0.2,0,0.4,0
		c0.2,0,0.4,0,0.7,0c2.3,0,4.7,0,7,0c1.2,0,2.3,0,3.5,0c0.1,0,0.2,0,0.4,0C37.5,31.4,37.5,32.6,37.5,33.9z"/>
	<path class="st1" d="M33.7,30.1c-2.3,0-4.7,0-7,0c-0.2,0-0.4,0-0.7,0c0-1.2,0-2.3,0-3.5c0-0.2,0.1-0.2,0.3-0.2c2.4,0,4.8,0,7.2,0
		c0.2,0,0.3,0,0.3,0.2C33.7,27.8,33.7,28.9,33.7,30.1z"/>
	<path class="st0" d="M18.3,26.4c0-1.2,0-2.5,0-3.7l0,0c1.3,0,2.6,0,3.8,0l0,0c0,1.2,0,2.3,0,3.5c0,0.2-0.1,0.2-0.2,0.2
		C20.7,26.4,19.5,26.4,18.3,26.4z"/>
	<path class="st2" d="M41.4,41.3c-1.3,0-2.6,0-3.8,0c0-1.2,0-2.5,0-3.7c1.3,0,2.6,0,3.8,0C41.4,38.8,41.4,40.1,41.4,41.3z"/>
	<path class="st3" d="M22.2,41.3c0,1.2,0,2.5,0,3.7c-1.3,0-2.6,0-3.8,0c0-1.2,0-2.5,0-3.7l0,0C19.6,41.3,20.9,41.3,22.2,41.3z"/>
	<path class="st2" d="M22.2,41.3c-1.3,0-2.6,0-3.8,0c0-1.2,0-2.5,0-3.7c1.3,0,2.6,0,3.8,0C22.2,38.8,22.2,40.1,22.2,41.3z"/>
	<path class="st3" d="M33.7,41.3c-2.6,0-5.1,0-7.7,0c0-1.2,0-2.4,0-3.6c0-0.2,0.1-0.2,0.2-0.2c1.2,0,2.4,0,3.6,0c1.2,0,2.5,0,3.7,0
		c0.2,0,0.2,0,0.2,0.2C33.7,39,33.7,40.2,33.7,41.3z"/>
	<path d="M22.2,22.6c-1.3,0-2.6,0-3.8,0c0-1.2,0-2.3,0-3.5c0-0.2,0-0.2,0.2-0.2c1.1,0,2.3,0,3.4,0c0.2,0,0.2,0,0.2,0.2
		C22.2,20.3,22.2,21.5,22.2,22.6z"/>
	<path d="M41.4,22.6c-1.3,0-2.6,0-3.8,0c0-1.2,0-2.3,0-3.5c0-0.2,0-0.2,0.2-0.2c1.1,0,2.3,0,3.4,0c0.2,0,0.2,0,0.2,0.2
		C41.4,20.3,41.4,21.5,41.4,22.6z"/>
	<rect x="18.4" width="23.1" height="4.2"/>
	<rect x="41.1" y="55.8" width="8" height="4.2"/>
	<rect x="25.8" y="55.8" width="8" height="4.2"/>
	<rect x="10.5" y="55.8" width="8" height="4.2"/>
</g>
</svg>
