<?xml version="1.0" encoding="utf-8"?>
<!-- Generator: Adobe Illustrator 25.4.0, SVG Export Plug-In . SVG Version: 6.00 Build 0)  -->
<svg version="1.1" id="Layer_1" xmlns="http://www.w3.org/2000/svg" xmlns:xlink="http://www.w3.org/1999/xlink" x="0px" y="0px"
	 viewBox="0 0 60 60" style="enable-background:new 0 0 60 60;" xml:space="preserve">
<style type="text/css">
	.st0{fill:#B7C4FE;}
	.st1{fill:#005FF7;}
	.st2{fill:#FED10B;}
	.st3{fill:#31FDDE;}
	.st4{fill:#FE9331;}
</style>
<g>
	<path d="M14.8,59.8c0-3.7,0-7.3,0-11c0-0.1,0-0.1-0.1-0.1c-2.5,0-4.9,0-7.4,0l0,0c0-1.3,0-2.5,0-3.8l0,0c0.3,0,0.6,0,0.9,0
		c0.9,0,1.9,0,2.8,0c0.3,0,0.7,0,1,0c0.9,0,1.8,0,2.7,0c1.3,0,2.5,0,3.8,0c0,0.3,0,0.7,0,1c0,0.9,0,1.8,0,2.7c0,0.3,0,0.6,0,0.9
		c0,1,0,1.9,0,2.9c0,0,0,0.1,0,0.1c0,1.2,0,2.3,0,3.5c0,0.1,0,0.2,0.2,0.2c2.4,0,4.8,0,7.2,0c0,0,0.1,0,0.1,0c0,0,0.1,0,0.1,0
		c2.4,0,4.9,0,7.3,0c0,0,0.1,0,0.1,0c0.1,0,0.1,0,0.2,0c2.3,0,4.7,0,7,0c0.1,0,0.3,0.1,0.4,0c0.1-0.1,0-0.2,0-0.4c0-1.1,0-2.3,0-3.4
		c0-0.1,0-0.2,0-0.3c0-1.2,0-2.3,0-3.5c0-1.3,0-2.5,0-3.8c0.3,0,0.7,0,1,0c0.9,0,1.8,0,2.7,0c0.2,0,0.3,0,0.5,0c1.1,0,2.2,0,3.3,0
		c0,0,0.1,0,0.1,0c1.2,0,2.4,0,3.7,0c0,1.3,0,2.5,0,3.8c-2.5,0-4.9,0-7.4,0c-0.1,0-0.2,0-0.2,0.2c0,3.6,0,7.3,0,10.9"/>
	<path d="M44.8,60"/>
	<path d="M22.4,7.4c5,0,10,0,15.1,0c0,1.2,0,2.4,0,3.6c-0.7,0-1.3,0-2,0c-0.6,0-1.2,0-1.7,0c0,0-0.1,0-0.1,0c-2.4,0-4.9,0-7.3,0
		c0,0-0.1,0-0.1,0c0,0-0.1,0-0.1,0c-1.2,0-2.5,0-3.7,0C22.4,9.8,22.4,8.6,22.4,7.4z"/>
	<path d="M14.8,3.7c2.5,0,5.1,0,7.6,0c0,1.2,0,2.4,0,3.6c-0.3,0-0.7,0-1,0c-0.3,0-0.6,0-0.9,0c0,0,0,0-0.1,0c-1.2,0-2.5,0-3.7,0
		c0,0,0,0-0.1,0c0,0,0,0,0,0c-0.6,0-1.2,0-1.9,0C14.8,6.2,14.8,5,14.8,3.7z"/>
	<path d="M37.4,3.7c2.5,0,5.1,0,7.6,0c0,1.2,0,2.4,0,3.6c-0.3,0-0.7,0-1,0c-0.3,0-0.6,0-0.9,0c0,0,0,0-0.1,0c-1.2,0-2.5,0-3.7,0
		c0,0,0,0-0.1,0c0,0,0,0,0,0c-0.6,0-1.2,0-1.9,0C37.4,6.2,37.4,5,37.4,3.7z"/>
	<path d="M11,14.8c0-1.2,0-2.4,0-3.6c0-0.1,0-0.2-0.2-0.2c-1.2,0-2.3,0-3.5,0c-0.1,0-0.2,0-0.2-0.2c0-1.2,0-2.3,0-3.5
		c2.5,0,5,0,7.5,0c0,0.3,0,0.5,0,0.8c0,1,0,1.9,0,2.9c0,1.3,0,2.5,0,3.8C13.6,14.8,12.3,14.8,11,14.8L11,14.8z"/>
	<path d="M52.5,7.4c0,1.2,0,2.3,0,3.5c0,0.1,0,0.2-0.2,0.2c-1.2,0-2.3,0-3.5,0c-0.1,0-0.2,0-0.2,0.2c0,1.2,0,2.4,0,3.6l0,0
		c-1.3,0-2.5,0-3.8,0c0-0.3,0-0.7,0-1c0-0.9,0-1.8,0-2.7c0-0.1,0-0.1,0-0.2c0-1.2,0-2.3,0-3.5C47.5,7.4,50,7.4,52.5,7.4z"/>
	<path class="st0" d="M14.8,11c0-1,0-1.9,0-2.9c0-0.3,0-0.5,0-0.8c2.5,0,5,0,7.5,0c0,1.2,0,2.4,0,3.6l0,0c-0.3,0-0.5,0-0.8,0
		c-1,0-2,0-3,0c-0.1,0-0.1,0-0.2,0C17.2,11,16,11,14.8,11z"/>
	<path class="st0" d="M45,7.4c0,1.2,0,2.3,0,3.5c0,0.1,0,0.1,0,0.2c-0.2,0-0.5,0-0.7,0c-1,0-2.1,0-3.1,0c-0.1,0-0.1,0-0.2,0
		c-1.2,0-2.4,0-3.6,0l0,0c0-1.2,0-2.4,0-3.6C39.9,7.4,42.5,7.4,45,7.4z"/>
	<path d="M7.3,48.7c0,1.2,0,2.4,0,3.6c0,0.1,0,0.2-0.2,0.2c-1.2,0-2.3,0-3.5,0c0-1.3,0-2.5,0-3.8C4.8,48.7,6.1,48.7,7.3,48.7
		L7.3,48.7z"/>
	<path class="st1" d="M7.3,48.7c-1.2,0-2.4,0-3.6,0c0-1.3,0-2.5,0-3.8c1.2,0,2.4,0,3.6,0C7.3,46.2,7.3,47.4,7.3,48.7z"/>
	<path d="M7.3,44.9c-1.2,0-2.4,0-3.6,0c0-1.3,0-2.5,0-3.8c1.2,0,2.4,0,3.7,0C7.3,42.4,7.3,43.7,7.3,44.9L7.3,44.9z"/>
	<path class="st2" d="M41.2,52.5c0,1.1,0,2.3,0,3.4c0,0.1,0,0.3,0,0.4c-0.1,0.1-0.2,0-0.4,0c-2.3,0-4.7,0-7,0c-0.1,0-0.1,0-0.2,0
		c0-1.3,0-2.5,0-3.8c1.3,0,2.5,0,3.8,0C38.7,52.5,39.9,52.5,41.2,52.5z"/>
	<path class="st3" d="M33.7,52.5c0,1.3,0,2.5,0,3.8c0,0-0.1,0-0.1,0c-2.4,0-4.9,0-7.3,0c0,0-0.1,0-0.1,0c0-1.3,0-2.5,0-3.8
		C28.6,52.5,31.1,52.5,33.7,52.5L33.7,52.5z"/>
	<path class="st2" d="M26.1,52.5c0,1.3,0,2.5,0,3.8c0,0-0.1,0-0.1,0c-2.4,0-4.8,0-7.2,0c-0.1,0-0.2,0-0.2-0.2c0-1.2,0-2.3,0-3.5
		c0,0,0-0.1,0-0.1c1.3,0,2.5,0,3.8,0C23.6,52.5,24.9,52.5,26.1,52.5L26.1,52.5z"/>
	<path class="st4" d="M7.3,44.9c0-1.3,0-2.5,0-3.8c0,0,0,0,0,0c1.3,0,2.5,0,3.8,0c0,1.3,0,2.5,0,3.8c-0.9,0-1.9,0-2.8,0
		C7.9,44.9,7.6,44.9,7.3,44.9z"/>
	<path class="st2" d="M11,44.9c0-1.3,0-2.5,0-3.8l0,0c1.3,0,2.5,0,3.8,0c0,1.3,0,2.5,0,3.8c-0.9,0-1.8,0-2.7,0
		C11.7,44.9,11.4,44.9,11,44.9z"/>
	<path class="st3" d="M14.8,44.9c0-1.3,0-2.5,0-3.8c0,0,0,0,0,0c0.6,0,1.3,0,1.9,0c0.6,0,1.3,0,1.9,0c0,1.3,0,2.5,0,3.8l0,0
		C17.3,44.9,16.1,44.9,14.8,44.9z"/>
	<path class="st3" d="M45,44.9c-0.9,0-1.8,0-2.7,0c-0.3,0-0.7,0-1,0l0,0c0-1.3,0-2.5,0-3.8c1.3,0,2.5,0,3.8,0
		C45,42.4,45,43.7,45,44.9z"/>
	<path class="st2" d="M45,44.9c0-1.3,0-2.5,0-3.8l0,0c1.3,0,2.5,0,3.8,0l0,0c0,1.3,0,2.5,0,3.8c-1.1,0-2.2,0-3.3,0
		C45.3,44.9,45.1,44.9,45,44.9z"/>
	<path class="st4" d="M48.7,44.9c0-1.3,0-2.5,0-3.8c1.3,0,2.5,0,3.8,0l0,0c0,1.3,0,2.5,0,3.8l0,0c-1.2,0-2.4,0-3.7,0
		C48.8,44.9,48.8,44.9,48.7,44.9z"/>
	<path class="st3" d="M18.6,48.7c0-0.9,0-1.8,0-2.7c0-0.3,0-0.7,0-1l0,0c1.3,0,2.5,0,3.8,0c0,1.3,0,2.5,0,3.8l0,0
		C21.1,48.7,19.8,48.7,18.6,48.7z"/>
	<path class="st3" d="M41.2,44.9c0,1.3,0,2.5,0,3.8c-1.3,0-2.5,0-3.8,0l0,0c0-0.3,0-0.7,0-1c0-0.9,0-1.8,0-2.8
		C38.7,44.9,39.9,44.9,41.2,44.9L41.2,44.9z"/>
	<path class="st4" d="M37.4,48.7c1.3,0,2.5,0,3.8,0c0,1.2,0,2.3,0,3.5c0,0.1,0,0.2,0,0.3c-1.3,0-2.5,0-3.8,0
		C37.4,51.2,37.4,50,37.4,48.7z"/>
	<path class="st4" d="M18.6,48.7c1.3,0,2.5,0,3.8,0c0,1.3,0,2.5,0,3.8c-1.3,0-2.5,0-3.8,0c0-1,0-1.9,0-2.9
		C18.6,49.3,18.6,49,18.6,48.7z"/>
	<path class="st1" d="M56.1,44.9c0,1.3,0,2.5,0,3.8c-1.2,0-2.4,0-3.6,0l0,0c0-1.3,0-2.5,0-3.8l0,0C53.7,44.9,54.9,44.9,56.1,44.9z"
		/>
	<path d="M14.8,29.9c0-2.5,0-5,0-7.5l0,0c1.2,0,2.4,0,3.6,0c0.1,0,0.1,0,0.1-0.1c0-1.2,0-2.4,0-3.7c0.3,0,0.6,0,1,0
		c0.9,0,1.9,0,2.8,0c0.1,0,0.1,0,0.2,0c1.2,0,2.4,0,3.6,0c0,0,0,0.1,0,0.1c0,2.4,0,4.9,0,7.3c0,0,0,0,0,0c0,0.1,0,0.1-0.1,0.1
		c-0.2,0-0.4,0-0.5,0c-1,0-2.1,0-3.1,0c-1.2,0-2.5,0-3.7,0c-0.1,0-0.1,0.1-0.1,0.1c0,1.2,0,2.4,0,3.6C17.3,29.9,16.1,29.9,14.8,29.9
		L14.8,29.9z"/>
	<path d="M11,41.2c-1.3,0-2.5,0-3.8,0c0-2.5,0-4.9,0-7.4c0-0.1,0-0.2,0.2-0.2c1.2,0,2.4,0,3.6,0l0,0c0,0.3,0,0.7,0,1
		c0,0.9,0,1.8,0,2.7c0,0.1,0,0.1,0,0.2C11,38.8,11,40,11,41.2L11,41.2z"/>
	<path d="M14.8,22.3c-1.2,0-2.4,0-3.6,0c-0.1,0-0.2,0-0.2-0.2c0-1.2,0-2.4,0-3.6l0,0c1.3,0,2.5,0,3.8,0
		C14.8,19.8,14.8,21.1,14.8,22.3L14.8,22.3z"/>
	<path d="M11,33.6c0-1.2,0-2.4,0-3.6c0-0.1,0-0.2,0.2-0.2c1.2,0,2.4,0,3.6,0l0,0c0,1.3,0,2.5,0,3.8C13.6,33.6,12.3,33.6,11,33.6
		L11,33.6z"/>
	<path d="M11,18.6c-1.2,0-2.4,0-3.6,0c-0.1,0-0.2,0-0.2-0.2c0-1.2,0-2.3,0-3.5c0-0.1,0-0.2,0.2-0.2c1.2,0,2.4,0,3.6,0l0,0
		C11,16,11,17.3,11,18.6L11,18.6z"/>
	<path d="M45,22.3c0,2.5,0,5,0,7.5l0,0c-1.3,0-2.5,0-3.8,0c0-0.2,0-0.5,0-0.7c0-1,0-1.9,0-2.9c0-0.1,0-0.1-0.1-0.1
		c-0.1,0-0.3,0-0.4,0c-1.1,0-2.1,0-3.2,0c-0.1,0-0.1,0-0.2,0c-1.1,0-2.3,0-3.4,0c-0.1,0-0.2,0-0.2-0.2c0-2.4,0-4.8,0-7.2
		c0,0,0-0.1,0-0.1c0.3,0,0.7,0,1,0c0.9,0,1.8,0,2.8,0c1.3,0,2.5,0,3.8,0c0,1.2,0,2.4,0,3.6c0,0.1,0,0.2,0.2,0.2
		C42.6,22.3,43.8,22.3,45,22.3L45,22.3z"/>
	<path d="M52.5,41.2c-1.3,0-2.5,0-3.8,0c0,0,0,0,0,0c0-0.3,0-0.6,0-1c0-0.9,0-1.9,0-2.8c0-1.3,0-2.5,0-3.8l0,0c1.2,0,2.4,0,3.6,0
		c0.1,0,0.1,0,0.1,0.2C52.5,36.2,52.5,38.7,52.5,41.2z"/>
	<path d="M48.7,18.6c0,1.2,0,2.4,0,3.6c0,0.1,0,0.2-0.2,0.2c-1.2,0-2.4,0-3.6,0l0,0c0-1.3,0-2.5,0-3.8
		C46.2,18.6,47.5,18.6,48.7,18.6L48.7,18.6z"/>
	<path d="M45,29.9c1.2,0,2.4,0,3.6,0c0.1,0,0.2,0,0.2,0.2c0,1.2,0,2.4,0,3.6l0,0c-1.3,0-2.5,0-3.8,0C45,32.4,45,31.1,45,29.9
		L45,29.9z"/>
	<path d="M48.7,14.8c1.2,0,2.4,0,3.6,0c0.1,0,0.2,0,0.2,0.2c0,1.2,0,2.3,0,3.5c0,0.1,0,0.2-0.2,0.2c-1.2,0-2.4,0-3.6,0l0,0
		C48.7,17.3,48.7,16,48.7,14.8L48.7,14.8z"/>
	<path d="M56.1,44.9c1.2,0,2.4,0,3.6,0c0.1,0,0.2,0,0.2,0.2c0,1.2,0,2.3,0,3.5c0,0.1,0,0.2-0.2,0.2c-1.2,0-2.4,0-3.6,0l0,0
		C56.1,47.4,56.1,46.1,56.1,44.9L56.1,44.9z"/>
	<path d="M-0.1,44.9c1.2,0,2.4,0,3.6,0c0.1,0,0.2,0,0.2,0.2c0,1.2,0,2.3,0,3.5c0,0.1,0,0.2-0.2,0.2c-1.2,0-2.4,0-3.6,0l0,0
		C-0.1,47.4-0.1,46.1-0.1,44.9L-0.1,44.9z"/>
	<path d="M56.1,44.9c-1.2,0-2.4,0-3.6,0c0-1.3,0-2.5,0-3.8c1.1,0,2.3,0,3.4,0c0.1,0,0.1,0,0.2,0C56.1,42.4,56.1,43.7,56.1,44.9z"/>
	<path class="st2" d="M26.1,11c0,0,0.1,0,0.1,0c2.4,0,4.9,0,7.3,0c0,0,0.1,0,0.1,0c0,1.3,0,2.5,0,3.8c-1.3,0-2.6,0-3.9,0
		c-1.2,0-2.4,0-3.6,0C26.1,13.5,26.1,12.3,26.1,11z"/>
	<path class="st0" d="M26.1,11c0,1.3,0,2.5,0,3.8l0,0c-1.3,0-2.5,0-3.8,0c0-1.3,0-2.5,0-3.8l0,0C23.6,11,24.8,11,26.1,11
		C26.1,11,26.1,11,26.1,11z"/>
	<path class="st0" d="M33.7,14.8c0-1.3,0-2.5,0-3.8c0.6,0,1.2,0,1.7,0c0.7,0,1.3,0,2,0l0,0c0,1.3,0,2.5,0,3.8l0,0
		c-0.1,0-0.3,0-0.4,0C35.9,14.8,34.8,14.8,33.7,14.8L33.7,14.8z"/>
	<path class="st3" d="M14.8,11c1.2,0,2.4,0,3.6,0c0.1,0,0.1,0,0.2,0c0,1.3,0,2.5,0,3.8l0,0c-1.3,0-2.5,0-3.8,0l0,0
		C14.8,13.5,14.8,12.3,14.8,11z"/>
	<path class="st3" d="M11,18.6c0-1.3,0-2.5,0-3.8c1.3,0,2.5,0,3.8,0l0,0c0,1.3,0,2.5,0,3.8l0,0C13.6,18.6,12.3,18.6,11,18.6z"/>
	<path class="st3" d="M48.7,14.8c0,1.3,0,2.5,0,3.8c-1.3,0-2.5,0-3.8,0l0,0c0-1.3,0-2.5,0-3.8l0,0C46.2,14.8,47.5,14.8,48.7,14.8z"
		/>
	<path class="st3" d="M41.2,11c1,0,2.1,0,3.1,0c0.2,0,0.5,0,0.7,0c0,0.9,0,1.8,0,2.7c0,0.3,0,0.7,0,1l0,0c-1.3,0-2.5,0-3.8,0l0,0
		C41.2,13.5,41.2,12.3,41.2,11z"/>
	<path class="st1" d="M18.6,14.8c0-1.3,0-2.5,0-3.8c1,0,2,0,3,0c0.3,0,0.5,0,0.8,0c0,1.3,0,2.5,0,3.8l0,0
		C21.1,14.8,19.8,14.8,18.6,14.8z"/>
	<path class="st1" d="M41.2,11c0,1.3,0,2.5,0,3.8c-1.3,0-2.5,0-3.8,0c0-1.3,0-2.5,0-3.8c1.2,0,2.4,0,3.6,0C41.1,11,41.1,11,41.2,11z
		"/>
	<path d="M52.5,48.7c1.2,0,2.4,0,3.6,0c0,0.6,0,1.3,0,1.9c0,0.6,0,1.2,0,1.8c-1.2,0-2.3,0-3.5,0c-0.1,0-0.1-0.1-0.1-0.1
		C52.5,51.1,52.5,49.9,52.5,48.7z"/>
	<path class="st3" d="M37.4,48.7c0,1.3,0,2.5,0,3.8c-1.3,0-2.5,0-3.8,0l0,0c0-1.3,0-2.5,0-3.8C34.9,48.7,36.2,48.7,37.4,48.7
		L37.4,48.7z"/>
	<path d="M33.7,48.7c0,1.3,0,2.5,0,3.8c-2.5,0-5,0-7.5,0c0,0,0,0,0,0c0-1.3,0-2.5,0-3.8l0,0C28.6,48.7,31.1,48.7,33.7,48.7
		L33.7,48.7z"/>
	<path class="st3" d="M26.1,48.7c0,1.3,0,2.5,0,3.8c-1.3,0-2.5,0-3.8,0c0-1.3,0-2.5,0-3.8l0,0C23.6,48.7,24.9,48.7,26.1,48.7z"/>
	<path class="st4" d="M11,41.2c0-1.2,0-2.4,0-3.6c0-0.1,0-0.1,0-0.2c1.3,0,2.5,0,3.8,0c0,0.5,0,1.1,0,1.6c0,0.7,0,1.5,0,2.2
		c0,0,0,0,0,0C13.6,41.2,12.3,41.2,11,41.2z"/>
	<path class="st0" d="M14.8,41.2c0-0.7,0-1.5,0-2.2c0-0.5,0-1.1,0-1.6l0,0c1.3,0,2.5,0,3.8,0c0,0.5,0,1,0,1.5c0,0.7,0,1.5,0,2.2l0,0
		c-0.6,0-1.3,0-1.9,0C16.1,41.2,15.4,41.2,14.8,41.2z"/>
	<path d="M22.3,44.9c-1.3,0-2.5,0-3.8,0c0-1.3,0-2.5,0-3.8l0,0c1.3,0,2.5,0,3.8,0c0,0.3,0,0.7,0,1C22.4,43.1,22.4,44,22.3,44.9z"/>
	<path class="st0" d="M45,41.2c-1.3,0-2.5,0-3.8,0c0,0,0,0,0,0c0-1.3,0-2.5,0-3.8c1.3,0,2.5,0,3.8,0l0,0c0,0.5,0,1.1,0,1.6
		C45,39.7,45,40.4,45,41.2L45,41.2z"/>
	<path d="M41.2,44.9c-1.3,0-2.5,0-3.8,0c0-0.1,0-0.1,0-0.2c0-1.2,0-2.4,0-3.6c1.3,0,2.5,0,3.8,0c0,0,0,0,0,0
		C41.2,42.4,41.2,43.7,41.2,44.9z"/>
	<path class="st4" d="M45,41.2c0-0.7,0-1.4,0-2.1c0-0.5,0-1.1,0-1.6c1.3,0,2.5,0,3.8,0c0,0.9,0,1.9,0,2.8c0,0.3,0,0.6,0,1
		C47.5,41.2,46.2,41.2,45,41.2z"/>
	<path class="st4" d="M22.3,44.9c0-0.9,0-1.8,0-2.8c0-0.3,0-0.7,0-1l0,0c1.3,0,2.5,0,3.8,0c0,0.3,0,0.7,0,1c0,0.9,0,1.8,0,2.8
		c0,0.1,0,0.1,0,0.2c0,1.2,0,2.4,0,3.6l0,0c-1.3,0-2.5,0-3.8,0C22.4,47.4,22.3,46.2,22.3,44.9z"/>
	<path class="st4" d="M37.4,41.2c0,1.2,0,2.4,0,3.6c0,0.1,0,0.1,0,0.2c0,0.9,0,1.8,0,2.8c0,0.3,0,0.7,0,1c-1.3,0-2.5,0-3.8,0
		c0,0,0,0,0,0c0-0.3,0-0.7,0-1c0-0.9,0-1.8,0-2.8c0-0.1,0-0.1,0-0.2c0-1.2,0-2.4,0-3.6C34.9,41.2,36.2,41.2,37.4,41.2L37.4,41.2z"/>
	<path class="st0" d="M26.1,14.8c1.2,0,2.4,0,3.6,0c1.3,0,2.6,0,3.9,0l0,0c0,0.3,0,0.6,0,0.9c0,0.9,0,1.9,0,2.8c0,0,0,0.1,0,0.1
		c0,2.4,0,4.8,0,7.2c0,0.1,0,0.2,0.2,0.2c1.1,0,2.3,0,3.4,0c0.1,0,0.1,0,0.2,0c0,1.3,0,2.5,0,3.8c-2.6,0-5.1,0-7.7,0
		c-2.5,0-4.9,0-7.4,0c0-1.3,0-2.5,0-3.8c1,0,2.1,0,3.1,0c0.2,0,0.4,0,0.5,0c0.1,0,0.1,0,0.1-0.1c0,0,0,0,0,0c0-2.4,0-4.9,0-7.3
		c0,0,0-0.1,0-0.1C26.1,17.3,26.1,16,26.1,14.8L26.1,14.8z"/>
	<path class="st3" d="M14.8,22.3c0-1.3,0-2.5,0-3.8l0,0c1.3,0,2.5,0,3.8,0l0,0c0,1.2,0,2.4,0,3.7c0,0.1,0,0.1-0.1,0.1
		C17.2,22.3,16,22.3,14.8,22.3z"/>
	<path class="st2" d="M22.4,26.1c0,1.3,0,2.5,0,3.8l0,0c-1.3,0-2.5,0-3.8,0l0,0c0-1.2,0-2.4,0-3.6c0-0.1,0-0.1,0.1-0.1
		C19.9,26.1,21.1,26.1,22.4,26.1z"/>
	<path class="st1" d="M14.8,33.6c0-1.3,0-2.5,0-3.8c1.3,0,2.5,0,3.8,0l0,0c0,1.2,0,2.4,0,3.6c0,0.1,0,0.1,0,0.2
		C17.3,33.6,16.1,33.6,14.8,33.6L14.8,33.6z"/>
	<path class="st1" d="M26.1,14.8c0,1.3,0,2.5,0,3.8c-1.2,0-2.4,0-3.6,0c-0.1,0-0.1,0-0.2,0c0-1.3,0-2.5,0-3.8l0,0
		C23.6,14.8,24.9,14.8,26.1,14.8z"/>
	<path class="st3" d="M22.4,14.8c0,1.3,0,2.5,0,3.8c-0.9,0-1.9,0-2.8,0c-0.3,0-0.6,0-1,0l0,0c0-1.3,0-2.5,0-3.8l0,0
		C19.8,14.8,21.1,14.8,22.4,14.8z"/>
	<path class="st1" d="M14.8,37.4c-1.3,0-2.5,0-3.8,0c0-0.9,0-1.8,0-2.7c0-0.3,0-0.7,0-1c1.3,0,2.5,0,3.8,0l0,0
		C14.8,34.9,14.8,36.1,14.8,37.4L14.8,37.4z"/>
	<path class="st3" d="M45,18.6c0,1.3,0,2.5,0,3.8c-1.2,0-2.4,0-3.6,0c-0.1,0-0.2,0-0.2-0.2c0-1.2,0-2.4,0-3.6l0,0
		C42.5,18.6,43.7,18.6,45,18.6L45,18.6z"/>
	<path class="st2" d="M37.4,29.9c0-1.3,0-2.5,0-3.8c1.1,0,2.1,0,3.2,0c0.1,0,0.3,0,0.4,0c0.1,0,0.1,0,0.1,0.1c0,1,0,1.9,0,2.9
		c0,0.2,0,0.5,0,0.7l0,0C39.9,29.9,38.7,29.9,37.4,29.9L37.4,29.9z"/>
	<path class="st1" d="M45,29.9c0,1.3,0,2.5,0,3.8l0,0c-1.3,0-2.5,0-3.8,0c0-0.1,0-0.1,0-0.2c0-1.2,0-2.4,0-3.6l0,0
		C42.5,29.9,43.7,29.9,45,29.9z"/>
	<path class="st3" d="M37.4,14.8c1.3,0,2.5,0,3.8,0l0,0c0,1.3,0,2.5,0,3.8l0,0c-1.3,0-2.5,0-3.8,0C37.4,17.3,37.4,16,37.4,14.8
		L37.4,14.8z"/>
	<path class="st1" d="M37.4,14.8c0,1.3,0,2.5,0,3.8c-0.9,0-1.8,0-2.8,0c-0.3,0-0.7,0-1,0c0-0.9,0-1.9,0-2.8c0-0.3,0-0.6,0-0.9
		c1.1,0,2.3,0,3.4,0C37.2,14.8,37.3,14.8,37.4,14.8z"/>
	<path class="st1" d="M48.7,37.4c-1.3,0-2.5,0-3.8,0l0,0c0-1.3,0-2.5,0-3.8l0,0c1.3,0,2.5,0,3.8,0C48.7,34.9,48.7,36.1,48.7,37.4z"
		/>
	<path d="M18.6,14.8c0,1.3,0,2.5,0,3.8c-1.3,0-2.5,0-3.8,0c0-1.3,0-2.5,0-3.8C16.1,14.8,17.3,14.8,18.6,14.8z"/>
	<path d="M41.2,18.6c0-1.3,0-2.5,0-3.8c1.3,0,2.5,0,3.8,0c0,1.3,0,2.5,0,3.8C43.7,18.6,42.5,18.6,41.2,18.6z"/>
	<path class="st3" d="M33.7,44.9c0,0.9,0,1.8,0,2.8c0,0.3,0,0.7,0,1c-2.5,0-5,0-7.5,0c0-1.2,0-2.4,0-3.6c0-0.1,0-0.1,0-0.2
		C28.6,44.9,31.1,44.9,33.7,44.9z"/>
	<path class="st4" d="M14.8,37.4c0-1.3,0-2.5,0-3.8c1.3,0,2.5,0,3.8,0c0,0,0,0,0,0c0,1.3,0,2.5,0,3.8l0,0
		C17.3,37.4,16.1,37.4,14.8,37.4z"/>
	<path class="st4" d="M22.4,41.2c-1.3,0-2.5,0-3.8,0c0-0.7,0-1.5,0-2.2c0-0.5,0-1,0-1.5l0,0c1.2,0,2.4,0,3.6,0c0.1,0,0.1,0,0.2,0
		C22.4,38.6,22.4,39.9,22.4,41.2L22.4,41.2z"/>
	<path class="st4" d="M45,33.6c0,1.3,0,2.5,0,3.8c-1.3,0-2.5,0-3.8,0l0,0c0-1.3,0-2.5,0-3.8l0,0C42.4,33.6,43.7,33.6,45,33.6z"/>
	<path class="st4" d="M41.2,41.2c-1.3,0-2.5,0-3.8,0l0,0c0-1.3,0-2.5,0-3.8c0.1,0,0.1,0,0.2,0c1.2,0,2.4,0,3.6,0l0,0
		C41.2,38.6,41.2,39.9,41.2,41.2z"/>
	<path class="st1" d="M33.7,44.9c-2.5,0-5,0-7.5,0c0-0.9,0-1.8,0-2.8c0-0.3,0-0.7,0-1l0,0c2.5,0,5,0,7.5,0l0,0c0,1.2,0,2.4,0,3.6
		C33.7,44.8,33.7,44.9,33.7,44.9z"/>
	<path class="st1" d="M22.4,41.2c0-1.3,0-2.5,0-3.8c0,0,0,0,0,0l0,0c0,0,0.1,0,0.1,0c1.2,0,2.5,0,3.7,0l0,0c0,1.3,0,2.5,0,3.8l0,0
		C24.9,41.2,23.6,41.2,22.4,41.2z"/>
	<path class="st1" d="M37.4,37.4c0,1.3,0,2.5,0,3.8c-1.3,0-2.5,0-3.8,0l0,0c0-1.3,0-2.5,0-3.8l0,0c0.6,0,1.2,0,1.8,0
		C36.1,37.4,36.8,37.4,37.4,37.4L37.4,37.4L37.4,37.4z"/>
	<path class="st2" d="M22.4,29.9c2.5,0,4.9,0,7.4,0c2.6,0,5.1,0,7.7,0l0,0c0,1.3,0,2.5,0,3.8l0,0c-1.2,0-2.4,0-3.6,0
		c-0.1,0-0.2,0-0.2,0.2c0,1.2,0,2.4,0,3.6l0,0c-2.5,0-5,0-7.5,0l0,0c0-1.2,0-2.4,0-3.6c0-0.1,0-0.2-0.2-0.2c-1.2,0-2.4,0-3.6,0l0,0
		C22.4,32.4,22.4,31.1,22.4,29.9L22.4,29.9z"/>
	<path d="M22.4,29.9c0,1.3,0,2.5,0,3.8c-1.3,0-2.5,0-3.8,0c0,0,0,0,0,0c0-0.1,0-0.1,0-0.2c0-1.2,0-2.4,0-3.6
		C19.8,29.9,21.1,29.9,22.4,29.9z"/>
	<path d="M37.4,33.6c0-1.3,0-2.5,0-3.8c1.3,0,2.5,0,3.8,0c0,1.2,0,2.4,0,3.6c0,0.1,0,0.1,0,0.2c0,0,0,0,0,0
		C39.9,33.6,38.7,33.6,37.4,33.6z"/>
	<path class="st0" d="M18.6,33.6c1.3,0,2.5,0,3.8,0c0,0,0,0,0,0c0,0.3,0,0.5,0,0.8c0,1,0,2,0,3l0,0c0,0,0,0,0,0c-0.1,0-0.1,0-0.2,0
		c-1.2,0-2.4,0-3.6,0C18.6,36.1,18.6,34.9,18.6,33.6z"/>
	<path class="st0" d="M37.4,33.6c1.3,0,2.5,0,3.8,0c0,1.3,0,2.5,0,3.8c-1.2,0-2.4,0-3.6,0c-0.1,0-0.1,0-0.2,0c0,0,0,0,0,0s0,0,0,0
		c0-0.1,0-0.1,0-0.2C37.4,36,37.4,34.8,37.4,33.6L37.4,33.6z"/>
	<path d="M26.1,37.4c2.5,0,5,0,7.5,0c0,1.3,0,2.5,0,3.8c-2.5,0-5,0-7.5,0C26.1,39.9,26.1,38.6,26.1,37.4z"/>
	<path d="M22.4,37.4c0-1,0-2,0-3c0-0.3,0-0.5,0-0.8c1.2,0,2.4,0,3.6,0c0.1,0,0.2,0,0.2,0.2c0,1.2,0,2.4,0,3.6
		C24.9,37.4,23.7,37.4,22.4,37.4C22.4,37.4,22.4,37.4,22.4,37.4z"/>
	<path d="M37.4,33.6c0,1.2,0,2.4,0,3.6c0,0.1,0,0.1,0,0.2c-0.7,0-1.3,0-2,0c-0.6,0-1.2,0-1.8,0c0-1.2,0-2.4,0-3.6
		c0-0.1,0-0.2,0.2-0.2C35,33.6,36.2,33.6,37.4,33.6z"/>
</g>
</svg>
