<?xml version="1.0" encoding="utf-8"?>
<!-- Generator: Adobe Illustrator 25.4.0, SVG Export Plug-In . SVG Version: 6.00 Build 0)  -->
<svg version="1.1" id="Layer_1" xmlns="http://www.w3.org/2000/svg" xmlns:xlink="http://www.w3.org/1999/xlink" x="0px" y="0px"
	 viewBox="0 0 60 60" style="enable-background:new 0 0 60 60;" xml:space="preserve">
<style type="text/css">
	.st0{fill:#B7C4FE;}
	.st1{fill:#31FDDE;}
	.st2{fill:#FE9E04;}
	.st3{fill:#FED10B;}
	.st4{fill:#005FF7;}
</style>
<g>
	<path class="st0" d="M8.5,21.3c0-0.1,0-0.1,0-0.2c0-4.2,0-8.4,0-12.5c0-0.2,0-0.2,0.2-0.2c1.4,0,2.7,0,4.1,0l0,0c0,2.8,0,5.6,0,8.4
		c0,0.1,0,0.1,0,0.2c0,0.1,0,0.1,0,0.2c0,1.4,0,2.7,0,4.1C11.4,21.3,9.9,21.3,8.5,21.3z"/>
	<path class="st0" d="M47.3,8.4c1.4,0,2.8,0,4.2,0c0.1,0,0.2,0,0.2,0.2c0,4.2,0,8.4,0,12.6c0,0,0,0.1,0,0.1c-1.4,0-2.9,0-4.3,0
		c0-0.3,0-0.6,0-0.8c0-1.2,0-2.3,0-3.5c0-0.1,0-0.1,0-0.2C47.3,14,47.3,11.2,47.3,8.4L47.3,8.4z"/>
	<path class="st1" d="M25.7,4.1c0,0,0.1,0,0.1,0c2.8,0,5.6,0,8.4,0c0,0,0.1,0,0.1,0c0,1.4,0,2.9,0,4.3c-2.9,0-5.7,0-8.6,0
		C25.7,6.9,25.7,5.5,25.7,4.1z"/>
	<path class="st1" d="M8.5,21.3c1.4,0,2.9,0,4.3,0l0,0c0,1.4,0,2.9,0,4.3c-1.4,0-2.9,0-4.3,0c0-1.2,0-2.4,0-3.6
		C8.5,21.7,8.5,21.5,8.5,21.3z"/>
	<path class="st0" d="M43,4.1c1.2,0,2.4,0,3.6,0c0.2,0,0.4,0,0.6,0c0.1,0,0.2,0,0.2,0.2c0,1.2,0,2.3,0,3.5c0,0.2,0,0.4,0,0.7l0,0
		c-0.4,0-0.7,0-1.1,0c-1.1,0-2.2,0-3.2,0C43,6.9,43,5.5,43,4.1z"/>
	<path class="st1" d="M47.3,21.3c1.4,0,2.9,0,4.3,0c0,1,0,2.1,0,3.1c0,0.4,0,0.8,0,1.2c-1.4,0-2.9,0-4.3,0
		C47.3,24.1,47.3,22.7,47.3,21.3L47.3,21.3z"/>
	<path class="st0" d="M8.5,25.6c1.4,0,2.9,0,4.3,0l0,0c0,1.4,0,2.9,0,4.3c-1.4,0-2.9,0-4.3,0c0-1.2,0-2.4,0-3.6
		C8.5,26,8.5,25.8,8.5,25.6z"/>
	<path class="st0" d="M47.3,25.6c1.4,0,2.9,0,4.3,0c0,1.2,0,2.4,0,3.5c0,0.3,0,0.5,0,0.8c-1.4,0-2.9,0-4.3,0
		C47.3,28.4,47.3,27,47.3,25.6L47.3,25.6z"/>
	<path class="st1" d="M8.5,29.9c1.4,0,2.9,0,4.3,0l0,0c0,1.4,0,2.9,0,4.3c-1.4,0-2.9,0-4.3,0c0-1.2,0-2.4,0-3.6
		C8.5,30.3,8.5,30.1,8.5,29.9z"/>
	<path class="st1" d="M47.3,29.9c1.4,0,2.9,0,4.3,0c0,1,0,2.1,0,3.1c0,0.4,0,0.8,0,1.2c-1.4,0-2.9,0-4.3,0
		C47.3,32.7,47.3,31.3,47.3,29.9L47.3,29.9z"/>
	<path class="st0" d="M8.5,34.2c1.4,0,2.9,0,4.3,0l0,0c0,1.4,0,2.9,0,4.3c-1.4,0-2.9,0-4.3,0c0-1.2,0-2.4,0-3.6
		C8.5,34.7,8.5,34.4,8.5,34.2z"/>
	<path class="st0" d="M47.3,34.2c1.4,0,2.9,0,4.3,0c0,1.2,0,2.4,0,3.5c0,0.3,0,0.5,0,0.8c-1.4,0-2.9,0-4.3,0
		C47.3,37,47.3,35.6,47.3,34.2L47.3,34.2z"/>
	<path class="st2" d="M8.5,38.5c1.4,0,2.9,0,4.3,0c0,0,0,0,0,0c0,1.4,0,2.9,0,4.3l0,0c-1.4,0-2.7,0-4.1,0c-0.2,0-0.2,0-0.2-0.2
		c0-1.3,0-2.6,0-3.9C8.5,38.6,8.5,38.5,8.5,38.5z"/>
	<path class="st3" d="M43,4.1c0,1.4,0,2.9,0,4.3c-1.4,0-2.9,0-4.3,0c0-1.4,0-2.9,0-4.3c1.3,0,2.6,0,3.9,0C42.7,4.1,42.8,4.1,43,4.1z
		"/>
	<path class="st0" d="M38.7,4.1c0,1.4,0,2.9,0,4.3l0,0c-0.1,0-0.1,0-0.2,0c-1.4,0-2.7,0-4.1,0l0,0c0-1.4,0-2.9,0-4.3
		c1,0,2.1,0,3.1,0C37.9,4.1,38.3,4.1,38.7,4.1z"/>
	<path class="st0" d="M25.7,4.1c0,1.4,0,2.9,0,4.3l0,0c-0.5,0-1,0-1.5,0c-0.9,0-1.8,0-2.8,0l0,0c0-1.4,0-2.9,0-4.3c1.3,0,2.7,0,4,0
		C25.5,4.1,25.6,4.1,25.7,4.1z"/>
	<path class="st2" d="M47.3,38.5c1.4,0,2.9,0,4.3,0c0,1.2,0,2.5,0,3.7c0,0.2,0,0.3,0,0.5c0,0.1,0,0.2-0.2,0.2c-0.9,0-1.8,0-2.7,0
		c-0.5,0-1,0-1.5,0l0,0C47.3,41.3,47.3,39.9,47.3,38.5L47.3,38.5z"/>
	<path class="st2" d="M12.8,47.1c0-1.4,0-2.9,0-4.3l0,0c1.4,0,2.9,0,4.3,0c0,1.4,0,2.9,0,4.3c-0.8,0-1.5,0-2.3,0
		C14.1,47.1,13.5,47.1,12.8,47.1L12.8,47.1z"/>
	<path class="st3" d="M21.4,4.1c0,1.4,0,2.9,0,4.3c-0.3,0-0.7,0-1,0c-1.1,0-2.2,0-3.3,0c0-1.4,0-2.9,0-4.3c1.2,0,2.4,0,3.5,0
		C20.9,4.1,21.2,4.1,21.4,4.1z"/>
	<path class="st2" d="M47.3,42.8c0,1.4,0,2.9,0,4.3c0,0,0,0,0,0c-0.1,0-0.2,0-0.2,0c-1.4,0-2.7,0-4.1,0c0-1.4,0-2.9,0-4.3
		C44.4,42.8,45.8,42.8,47.3,42.8L47.3,42.8z"/>
	<path class="st2" d="M8.5,51.4c0-1.4,0-2.7,0-4.1c0-0.2,0-0.2,0.2-0.2c1.4,0,2.7,0,4.1,0c0,0,0,0,0,0c0,0,0,0.1,0,0.1
		c0,1.4,0,2.8,0,4.2l0,0c-0.8,0-1.5,0-2.3,0C9.8,51.4,9.2,51.4,8.5,51.4L8.5,51.4z"/>
	<path class="st0" d="M17.1,4.1c0,1.4,0,2.9,0,4.3c-0.1,0-0.1,0-0.2,0c-1.4,0-2.8,0-4.1,0l0,0c0-1.4,0-2.8,0-4.1
		c0-0.1,0-0.2,0.2-0.2c1.3,0,2.7,0,4,0C17,4.1,17.1,4.1,17.1,4.1z"/>
	<path class="st2" d="M47.3,47.1c1.4,0,2.7,0,4.1,0c0.2,0,0.2,0,0.2,0.2c0,1.4,0,2.7,0,4.1c0,0,0,0,0,0c0,0-0.1,0-0.1,0
		c-1.4,0-2.8,0-4.2,0l0,0c0-0.8,0-1.5,0-2.3C47.3,48.4,47.3,47.7,47.3,47.1L47.3,47.1z"/>
	<path class="st2" d="M8.5,55.7c-1.2,0-2.5,0-3.7,0c-0.2,0-0.4,0.1-0.5,0c-0.1-0.1,0-0.4,0-0.5c0-1.2,0-2.4,0-3.6
		c0-0.1,0-0.2,0.2-0.2c1.4,0,2.8,0,4.1,0c0,0,0,0,0,0c0,0.1,0,0.1,0,0.2C8.5,52.9,8.5,54.3,8.5,55.7z"/>
	<path class="st3" d="M8.5,55.7c0-1.4,0-2.8,0-4.1c0-0.1,0-0.1,0-0.2c0.7,0,1.3,0,2,0c0.8,0,1.5,0,2.3,0c0,1.4,0,2.9,0,4.3
		c-1,0-2.1,0-3.1,0C9.3,55.7,8.9,55.7,8.5,55.7z"/>
	<path class="st0" d="M12.8,55.7c0-1.4,0-2.9,0-4.3l0,0c1.4,0,2.9,0,4.3,0c0,1.4,0,2.9,0,4.3c-1.2,0-2.4,0-3.6,0
		C13.3,55.7,13,55.7,12.8,55.7z"/>
	<path class="st2" d="M17.1,55.7c0-1.4,0-2.9,0-4.3l0,0c1.4,0,2.9,0,4.3,0c0,1.4,0,2.9,0,4.3c0,0,0,0,0,0
		C20,55.7,18.5,55.7,17.1,55.7z"/>
	<path class="st2" d="M51.6,51.4c1.4,0,2.7,0,4.1,0c0.2,0,0.2,0,0.2,0.2c0,1.3,0,2.6,0,4c0,0.1,0,0.2-0.1,0.2c-1.4,0-2.7,0-4.1,0
		c0,0,0,0-0.1,0c0-0.8,0-1.5,0-2.3C51.6,52.7,51.6,52,51.6,51.4L51.6,51.4z"/>
	<path class="st2" d="M43,55.7c-1.1,0-2.1,0-3.2,0c-0.4,0-0.7,0-1.1,0c0,0,0,0,0,0c0-1.4,0-2.9,0-4.3c1.4,0,2.9,0,4.3,0l0,0
		C43,52.8,43,54.2,43,55.7z"/>
	<path class="st0" d="M43,55.7c0-1.4,0-2.9,0-4.3c0.1,0,0.3,0,0.4,0c1.3,0,2.6,0,3.9,0l0,0c0,1.4,0,2.9,0,4.3c-1.2,0-2.4,0-3.6,0
		C43.5,55.7,43.2,55.7,43,55.7z"/>
	<path class="st3" d="M47.3,55.7c0-1.4,0-2.9,0-4.3c1.4,0,2.8,0,4.2,0c0,0,0.1,0,0.1,0c0,0.7,0,1.3,0,2c0,0.8,0,1.5,0,2.3
		c-1.2,0-2.4,0-3.6,0C47.7,55.7,47.5,55.7,47.3,55.7z"/>
	<path d="M34.3,51.4c-2.9,0-5.7,0-8.6,0l0,0c0-1.4,0-2.9,0-4.3c2.9,0,5.7,0,8.6,0C34.3,48.5,34.3,49.9,34.3,51.4L34.3,51.4z"/>
	<path d="M21.4,55.7c0-1.4,0-2.9,0-4.3l0,0c1.4,0,2.9,0,4.3,0l0,0c0,1.4,0,2.8,0,4.1c0,0.1,0,0.2-0.2,0.2
		C24.2,55.7,22.8,55.7,21.4,55.7z"/>
	<path d="M38.7,51.4c0,1.4,0,2.9,0,4.3c-1.4,0-2.8,0-4.1,0c-0.1,0-0.2,0-0.2-0.2c0-1.4,0-2.7,0-4.1l0,0
		C35.8,51.4,37.2,51.4,38.7,51.4L38.7,51.4z"/>
	<path class="st4" d="M12.8,8.4c1.4,0,2.8,0,4.1,0c0.1,0,0.1,0,0.2,0c1.1,0,2.2,0,3.3,0c0.3,0,0.7,0,1,0c0,0,0,0,0,0
		c0,1.4,0,2.9,0,4.3c-1.4,0-2.8,0-4.2,0c-0.1,0-0.1,0-0.1,0.1c0,1.4,0,2.8,0,4.2c-1.4,0-2.9,0-4.3,0c0-0.1,0-0.1,0-0.2
		C12.8,14,12.8,11.2,12.8,8.4z"/>
	<path class="st1" d="M12.8,17c1.4,0,2.9,0,4.3,0l0,0c0,1,0,1.9,0,2.9c0,0.5,0,0.9,0,1.4c-0.1,0-0.1,0-0.2,0c-1.4,0-2.7,0-4.1,0l0,0
		c0-1.4,0-2.7,0-4.1C12.8,17.1,12.8,17,12.8,17z"/>
	<path class="st4" d="M38.7,8.4c1.4,0,2.9,0,4.3,0c1.1,0,2.2,0,3.2,0c0.4,0,0.7,0,1.1,0c0,2.8,0,5.6,0,8.4c0,0.1,0,0.1,0,0.2
		c-1.4,0-2.9,0-4.3,0c0-1.4,0-2.8,0-4.2c0-0.1,0-0.1-0.1-0.1c-1.4,0-2.8,0-4.2,0C38.7,11.2,38.7,9.8,38.7,8.4L38.7,8.4z"/>
	<path class="st1" d="M43,17c1.4,0,2.9,0,4.3,0c0,1.2,0,2.3,0,3.5c0,0.3,0,0.6,0,0.8l0,0c-0.2,0-0.3,0-0.5,0c-1.3,0-2.6,0-3.8,0
		c0-0.1,0-0.1,0-0.2C43,19.7,43,18.3,43,17L43,17z"/>
	<path class="st0" d="M25.7,8.4c2.9,0,5.7,0,8.6,0l0,0c0,0.3,0,0.6,0,0.8c0,1.2,0,2.3,0,3.5c0,0.3,0,0.7,0,1c0,1.1,0,2.2,0,3.3
		c-2.9,0-5.7,0-8.6,0c0-0.1,0-0.2,0-0.3c0-1.3,0-2.7,0-4c0-0.1,0-0.1,0-0.2C25.7,11.1,25.7,9.7,25.7,8.4L25.7,8.4z"/>
	<path class="st3" d="M12.8,21.3c1.4,0,2.7,0,4.1,0c0.1,0,0.1,0,0.2,0l0,0c0,0.4,0,0.8,0,1.1c0,1.1,0,2.1,0,3.2c-1.4,0-2.9,0-4.3,0
		l0,0C12.8,24.1,12.8,22.7,12.8,21.3z"/>
	<path class="st3" d="M43,21.3c1.3,0,2.6,0,3.8,0c0.2,0,0.3,0,0.5,0c0,1.4,0,2.9,0,4.3l0,0c-1.4,0-2.9,0-4.3,0c0-0.1,0-0.1,0-0.2
		C43,24,43,22.6,43,21.3L43,21.3z"/>
	<path class="st1" d="M12.8,25.6c1.4,0,2.9,0,4.3,0c0,0.3,0,0.5,0,0.8c0,1.2,0,2.4,0,3.5c-1.4,0-2.9,0-4.3,0l0,0
		C12.8,28.4,12.8,27,12.8,25.6z"/>
	<path class="st1" d="M43,25.6c1.4,0,2.9,0,4.3,0c0,1.4,0,2.9,0,4.3l0,0c-1.4,0-2.9,0-4.3,0c0-0.3,0-0.5,0-0.8
		C43,27.9,43,26.7,43,25.6z"/>
	<path class="st3" d="M12.8,29.9c1.4,0,2.9,0,4.3,0c0,0.2,0,0.5,0,0.7c0,1.2,0,2.4,0,3.6c-1.4,0-2.9,0-4.3,0l0,0
		C12.8,32.7,12.8,31.3,12.8,29.9z"/>
	<path class="st3" d="M43,29.9c1.4,0,2.9,0,4.3,0c0,1.4,0,2.9,0,4.3l0,0c-1.4,0-2.9,0-4.3,0c0-0.2,0-0.5,0-0.7
		C43,32.2,43,31.1,43,29.9z"/>
	<path class="st1" d="M12.8,34.2c1.4,0,2.9,0,4.3,0c0,1.4,0,2.9,0,4.3c-0.1,0-0.1,0-0.2,0c-1.4,0-2.8,0-4.1,0c0,0,0,0,0,0
		C12.8,37,12.8,35.6,12.8,34.2z"/>
	<path class="st1" d="M43,34.2c1.4,0,2.9,0,4.3,0c0,1.4,0,2.9,0,4.3c0,0,0,0,0,0c-0.6,0-1.2,0-1.8,0c-0.8,0-1.7,0-2.5,0
		c0-0.4,0-0.8,0-1.1C43,36.3,43,35.2,43,34.2z"/>
	<path class="st0" d="M12.8,38.5c1.4,0,2.8,0,4.1,0c0.1,0,0.1,0,0.2,0l0,0c0,0.1,0,0.1,0,0.2c0,1.4,0,2.7,0,4.1l0,0
		c-1.4,0-2.9,0-4.3,0C12.8,41.3,12.8,39.9,12.8,38.5z"/>
	<path class="st1" d="M34.3,12.7c0-1.2,0-2.3,0-3.5c0-0.3,0-0.6,0-0.8c1.4,0,2.7,0,4.1,0c0.1,0,0.1,0,0.2,0c0,1.4,0,2.9,0,4.3l0,0
		C37.2,12.7,35.8,12.7,34.3,12.7z"/>
	<path class="st1" d="M25.7,8.4c0,1.4,0,2.7,0,4.1c0,0.1,0,0.1,0,0.2c-1.4,0-2.9,0-4.3,0l0,0c0-1.4,0-2.9,0-4.3c0.9,0,1.8,0,2.8,0
		C24.7,8.4,25.2,8.4,25.7,8.4z"/>
	<path class="st0" d="M43,38.5c0.8,0,1.7,0,2.5,0c0.6,0,1.2,0,1.8,0c0,1.4,0,2.9,0,4.3c-1.4,0-2.9,0-4.3,0l0,0c0-0.4,0-0.8,0-1.2
		C43,40.5,43,39.5,43,38.5L43,38.5z"/>
	<path class="st3" d="M17.1,47.1c0-1.4,0-2.9,0-4.3c0,0,0,0,0,0c1.4,0,2.9,0,4.3,0c0,1.4,0,2.9,0,4.3l0,0
		C20,47.1,18.5,47.1,17.1,47.1L17.1,47.1z"/>
	<path class="st3" d="M17.1,51.4c-1.4,0-2.9,0-4.3,0c0-1.4,0-2.8,0-4.2c0,0,0-0.1,0-0.1c0.7,0,1.3,0,2,0c0.8,0,1.5,0,2.3,0
		c0,0,0,0,0,0C17.1,48.5,17.1,49.9,17.1,51.4L17.1,51.4z"/>
	<path class="st3" d="M43,42.8c0,1.4,0,2.9,0,4.3c0,0,0,0,0,0c-1.4,0-2.9,0-4.3,0l0,0c0-1.4,0-2.9,0-4.3
		C40.1,42.8,41.5,42.8,43,42.8L43,42.8z"/>
	<path class="st3" d="M47.3,51.4c-1.3,0-2.6,0-3.9,0c-0.1,0-0.3,0-0.4,0l0,0c0-1.4,0-2.9,0-4.3c0,0,0,0,0,0c1.4,0,2.7,0,4.1,0
		c0.1,0,0.2,0,0.2,0c0,0.7,0,1.3,0,2C47.3,49.8,47.3,50.6,47.3,51.4z"/>
	<path class="st0" d="M17.1,51.4c0-1.4,0-2.9,0-4.3c1.4,0,2.9,0,4.3,0c0,1.4,0,2.9,0,4.3l0,0C20,51.4,18.5,51.4,17.1,51.4z"/>
	<path class="st0" d="M43,47.1c0,1.4,0,2.9,0,4.3c-1.4,0-2.9,0-4.3,0c0,0,0,0,0,0c0-1.4,0-2.9,0-4.3C40.1,47.1,41.5,47.1,43,47.1z"
		/>
	<path class="st2" d="M34.3,47.1c-2.9,0-5.7,0-8.6,0l0,0c0-1.4,0-2.9,0-4.3l0,0c2.9,0,5.7,0,8.6,0l0,0
		C34.3,44.2,34.3,45.6,34.3,47.1L34.3,47.1z"/>
	<path class="st2" d="M21.4,51.4c0-1.4,0-2.9,0-4.3c0,0,0,0,0,0c1.4,0,2.9,0,4.3,0l0,0c0,1.4,0,2.9,0,4.3
		C24.3,51.4,22.9,51.4,21.4,51.4z"/>
	<path class="st2" d="M38.7,47.1c0,1.4,0,2.9,0,4.3c-1.4,0-2.9,0-4.3,0c0-1.4,0-2.9,0-4.3l0,0C35.8,47.1,37.2,47.1,38.7,47.1
		L38.7,47.1z"/>
	<path d="M17.1,17c0-1.4,0-2.8,0-4.2c0-0.1,0-0.1,0.1-0.1c1.4,0,2.8,0,4.2,0l0,0c0,1.4,0,2.8,0,4.2c0,0.1,0,0.1-0.1,0.1
		C19.9,17,18.5,17,17.1,17L17.1,17z"/>
	<path class="st4" d="M17.1,17c1.4,0,2.8,0,4.2,0c0.1,0,0.1,0,0.1-0.1c0-1.4,0-2.8,0-4.2c1.4,0,2.9,0,4.3,0c0,1.3,0,2.7,0,4
		c0,0.1,0,0.2,0,0.3c0,0.1,0,0.1,0,0.2c0,1.4,0,2.7,0,4.1c-0.1,0-0.1,0-0.2,0c-2.7,0-5.5,0-8.2,0c-0.1,0-0.1,0-0.2,0l0,0
		c0-0.5,0-0.9,0-1.4C17.1,18.9,17.1,17.9,17.1,17z"/>
	<path d="M38.7,12.7c1.4,0,2.8,0,4.2,0c0.1,0,0.1,0,0.1,0.1c0,1.4,0,2.8,0,4.2l0,0c-1.4,0-2.8,0-4.2,0c-0.1,0-0.1,0-0.1-0.1
		C38.7,15.4,38.7,14.1,38.7,12.7L38.7,12.7z"/>
	<path class="st4" d="M38.7,12.7c0,1.4,0,2.8,0,4.2c0,0.1,0,0.1,0.1,0.1c1.4,0,2.8,0,4.2,0c0,1.4,0,2.8,0,4.1c0,0.1,0,0.1,0,0.2l0,0
		c-0.1,0-0.1,0-0.2,0c-2.7,0-5.5,0-8.2,0c-0.1,0-0.1,0-0.2,0c0-0.3,0-0.7,0-1c0-1.1,0-2.2,0-3.3c0-1.1,0-2.2,0-3.3c0-0.3,0-0.7,0-1
		C35.8,12.7,37.2,12.7,38.7,12.7z"/>
	<path class="st3" d="M34.3,17c0,1.1,0,2.2,0,3.3c0,0.3,0,0.7,0,1c0,0-0.1,0-0.1,0c-2.8,0-5.6,0-8.4,0c0,0-0.1,0-0.1,0
		c0-1.4,0-2.7,0-4.1c0-0.1,0-0.1,0-0.2C28.6,17,31.5,17,34.3,17z"/>
	<path d="M25.7,21.3c0,0,0.1,0,0.1,0c2.8,0,5.6,0,8.4,0c0,0,0.1,0,0.1,0c0.1,0,0.1,0,0.2,0c2.7,0,5.5,0,8.2,0c0.1,0,0.1,0,0.2,0
		c0,1.4,0,2.7,0,4.1c0,0.1,0,0.1,0,0.2c0,1.2,0,2.4,0,3.5c0,0.3,0,0.5,0,0.8c0,1.2,0,2.4,0,3.6c0,0.2,0,0.5,0,0.7c0,1.1,0,2.1,0,3.2
		c0,0.4,0,0.8,0,1.1l0,0c-2.9,0-5.7,0-8.6,0c0,0,0,0-0.1,0c0,0-0.1,0-0.1,0c-2.8,0-5.6,0-8.4,0c0,0-0.1,0-0.1,0c0,0,0,0-0.1,0
		c-2.9,0-5.7,0-8.6,0l0,0c0-1.4,0-2.9,0-4.3c0-1.2,0-2.4,0-3.6c0-0.2,0-0.5,0-0.7c0-1.2,0-2.4,0-3.5c0-0.3,0-0.5,0-0.8
		c0-1.1,0-2.1,0-3.2c0-0.4,0-0.8,0-1.1c0.1,0,0.1,0,0.2,0c2.7,0,5.5,0,8.2,0C25.6,21.3,25.7,21.3,25.7,21.3z M23.6,25.6
		c-0.7,0-1.3,0-2,0c-0.1,0-0.2,0-0.2,0.2c0,1.3,0,2.7,0,4c0,0.1,0,0.2,0.2,0.2c1.3,0,2.7,0,4,0c0.1,0,0.2,0,0.2-0.2c0-1.3,0-2.7,0-4
		c0-0.1,0-0.2-0.2-0.2C24.9,25.6,24.2,25.6,23.6,25.6z M38.7,27.7c0-0.7,0-1.3,0-2c0-0.1,0-0.1-0.1-0.1c-1.3,0-2.7,0-4,0
		c-0.1,0-0.1,0-0.1,0.1c0,1.3,0,2.7,0,4c0,0.1,0,0.1,0.1,0.1c1.3,0,2.7,0,4,0c0.1,0,0.1,0,0.1-0.1C38.7,29.1,38.7,28.4,38.7,27.7z"
		/>
	<path class="st2" d="M17.1,38.5c2.9,0,5.7,0,8.6,0c0,0,0,0,0.1,0c0,1.4,0,2.9,0,4.3l0,0c-1.4,0-2.9,0-4.3,0c-1.4,0-2.9,0-4.3,0
		c0-1.4,0-2.7,0-4.1C17.1,38.6,17.1,38.5,17.1,38.5z"/>
	<path class="st2" d="M34.3,38.5C34.4,38.5,34.4,38.5,34.3,38.5c2.9,0,5.8,0,8.6,0c0,1,0,2.1,0,3.1c0,0.4,0,0.8,0,1.2
		c-1.4,0-2.9,0-4.3,0c-1.4,0-2.9,0-4.3,0l0,0C34.3,41.3,34.3,39.9,34.3,38.5z"/>
	<path class="st0" d="M21.4,42.8c1.4,0,2.9,0,4.3,0c0,1.4,0,2.9,0,4.3c-1.4,0-2.9,0-4.3,0C21.4,45.6,21.4,44.2,21.4,42.8z"/>
	<path class="st0" d="M34.3,42.8c1.4,0,2.9,0,4.3,0c0,1.4,0,2.9,0,4.3c-1.4,0-2.9,0-4.3,0C34.3,45.6,34.3,44.2,34.3,42.8z"/>
	<path class="st0" d="M34.3,38.5c0,1.4,0,2.9,0,4.3c-2.9,0-5.7,0-8.6,0c0-1.4,0-2.9,0-4.3c0,0,0.1,0,0.1,0c2.8,0,5.6,0,8.4,0
		C34.3,38.5,34.3,38.5,34.3,38.5z"/>
	<path class="st1" d="M23.6,25.6c0.7,0,1.3,0,2,0c0.1,0,0.2,0,0.2,0.2c0,1.3,0,2.7,0,4c0,0.1,0,0.2-0.2,0.2c-1.3,0-2.7,0-4,0
		c-0.1,0-0.2,0-0.2-0.2c0-1.3,0-2.7,0-4c0-0.1,0-0.2,0.2-0.2C22.2,25.6,22.9,25.6,23.6,25.6z"/>
	<path class="st1" d="M38.7,27.7c0,0.7,0,1.3,0,2c0,0.1,0,0.1-0.1,0.1c-1.3,0-2.7,0-4,0c-0.1,0-0.1,0-0.1-0.1c0-1.3,0-2.7,0-4
		c0-0.1,0-0.1,0.1-0.1c1.3,0,2.7,0,4,0c0.1,0,0.1,0,0.1,0.1C38.7,26.4,38.7,27,38.7,27.7z"/>
	<path d="M56.1,47.1c-0.2,0-0.2,0-0.2-0.2c0-14.2,0-28.4,0-42.6c0-0.2,0-0.2-0.2-0.2c-1.3,0-2.6,0-3.9,0c-0.1,0-0.2,0-0.2-0.2
		c0-1.3,0-2.6,0-3.9C37.2,0,22.9,0,8.5,0c0,1.3,0,2.6,0,3.9c0,0.1,0,0.2-0.2,0.2c-1.3,0-2.6,0-4,0c-0.2,0-0.2,0-0.2,0.2
		c0,14.2,0,28.4,0,42.6c0,0.2,0,0.2-0.2,0.2c-1.3,0-2.6,0-3.9,0c0,0.1,0,0.1,0,0.2c0,4.2,0,8.4,0,12.6C0,60,0,60,0.2,60
		c7.1,0,14.2,0,21.2,0v-0.1c0,0,0-0.1,0-0.1c0-1.4,0-2.7,0-4.1c-1.4,0-2.9,0-4.3,0c-1.2,0-2.4,0-3.6,0c-0.2,0-0.5,0-0.7,0
		c-1,0-2.1,0-3.1,0c-0.4,0-0.8,0-1.2,0c-1.2,0-2.5,0-3.7,0c-0.2,0-0.4,0.1-0.5,0c-0.1-0.1,0-0.4,0-0.5c0-1.2,0-2.4,0-3.6
		c0-0.1,0-0.2,0.2-0.2c1.4,0,2.8,0,4.1,0c0-1.4,0-2.7,0-4.1c0-0.2,0-0.2,0.2-0.2c1.4,0,2.7,0,4.1,0c0-1.4,0-2.9,0-4.3
		c-1.4,0-2.7,0-4.1,0c-0.2,0-0.2,0-0.2-0.2c0-1.3,0-2.6,0-3.9c0-0.1,0-0.1,0-0.2c0-1.2,0-2.4,0-3.6c0-0.2,0-0.5,0-0.7
		c0-1.2,0-2.4,0-3.6c0-0.2,0-0.5,0-0.7c0-1.2,0-2.4,0-3.6c0-0.2,0-0.5,0-0.7c0-1.2,0-2.4,0-3.6c0-0.2,0-0.5,0-0.7c0-0.1,0-0.1,0-0.2
		c0-4.2,0-8.4,0-12.5c0-0.2,0-0.2,0.2-0.2c1.4,0,2.7,0,4.1,0c0-1.4,0-2.8,0-4.1c0-0.1,0-0.2,0.2-0.2c1.3,0,2.7,0,4,0
		c0.1,0,0.1,0,0.2,0c1.2,0,2.4,0,3.5,0c0.3,0,0.5,0,0.8,0c1.3,0,2.7,0,4,0c0.1,0,0.2,0,0.3,0c0,0,0.1,0,0.1,0c2.8,0,5.6,0,8.4,0
		c0,0,0.1,0,0.1,0c1,0,2.1,0,3.1,0c0.4,0,0.8,0,1.2,0c1.3,0,2.6,0,3.9,0c0.1,0,0.3,0,0.4,0c1.2,0,2.4,0,3.6,0c0.2,0,0.4,0,0.6,0
		c0.1,0,0.2,0,0.2,0.2c0,1.2,0,2.3,0,3.5c0,0.2,0,0.4,0,0.7c1.4,0,2.8,0,4.2,0c0.1,0,0.2,0,0.2,0.2c0,4.2,0,8.4,0,12.6
		c0,0,0,0.1,0,0.1c0,1,0,2.1,0,3.1c0,0.4,0,0.8,0,1.2c0,1.2,0,2.4,0,3.5c0,0.3,0,0.5,0,0.8c0,1,0,2.1,0,3.1c0,0.4,0,0.8,0,1.2
		c0,1.2,0,2.4,0,3.5c0,0.3,0,0.5,0,0.8c0,1.2,0,2.5,0,3.7c0,0.2,0,0.3,0,0.5c0,0.1,0,0.2-0.2,0.2c-0.9,0-1.8,0-2.7,0
		c-0.5,0-1,0-1.5,0c0,1.4,0,2.9,0,4.3c1.4,0,2.7,0,4.1,0c0.2,0,0.2,0,0.2,0.2c0,1.4,0,2.7,0,4.1c1.4,0,2.7,0,4.1,0
		c0.2,0,0.2,0,0.2,0.2c0,1.3,0,2.6,0,4c0,0.1,0,0.2-0.1,0.2c-1.4,0-2.7,0-4.1,0c0,0,0,0-0.1,0c-1.2,0-2.4,0-3.6,0
		c-0.2,0-0.4,0-0.7,0c-1.2,0-2.4,0-3.6,0c-0.2,0-0.5,0-0.7,0c-1.1,0-2.1,0-3.2,0c-0.4,0-0.7,0-1.1,0c0,1.4,0,2.7,0,4.1
		c0,0.1,0,0.1,0,0.1V60c7.1,0,14.1,0,21.2,0c0.1,0,0.1,0,0.2,0c0-4.3,0-8.6,0-12.9C58.7,47.1,57.4,47.1,56.1,47.1z"/>
</g>
</svg>
