<?xml version="1.0" encoding="utf-8"?>
<!-- Generator: Adobe Illustrator 25.4.0, SVG Export Plug-In . SVG Version: 6.00 Build 0)  -->
<svg version="1.1" id="Layer_1" xmlns="http://www.w3.org/2000/svg" xmlns:xlink="http://www.w3.org/1999/xlink" x="0px" y="0px"
	 viewBox="0 0 60 60" style="enable-background:new 0 0 60 60;" xml:space="preserve">
<style type="text/css">
	.st0{fill:#B7C4FE;}
	.st1{fill:#005FF7;}
	.st2{fill:#FE9E04;}
	.st3{fill:#31FDDE;}
	.st4{fill:#FED10B;}
</style>
<g>
	<path d="M56.2,41.2c0,6.3,0,12.5,0,18.8c-0.1,0-0.1,0-0.2,0c-3.1,0-6.2,0-9.3,0c-0.6,0-1.2,0-1.8,0c0-0.1,0-0.1,0-0.2
		c0-1.2,0-2.4,0-3.6c0.3,0,0.7,0,1,0c0.9,0,1.8,0,2.8,0c0,0,0.1,0,0.1,0c1.2,0,2.3,0,3.5,0c0.1,0,0.2,0,0.2-0.2c0-2.4,0-4.8,0-7.2
		c0,0,0-0.1,0-0.1c0-0.2,0-0.4,0-0.5c0-1.1,0-2.2,0-3.2c0-1.3,0-2.5,0-3.8C53.7,41.2,55,41.2,56.2,41.2z"/>
	<path d="M3.8,60c0-6.3,0-12.5,0-18.8c1.2,0,2.4,0,3.6,0c0,0.3,0,0.7,0,1c0,0.9,0,1.8,0,2.8c0,0.2,0,0.4,0,0.6c0,1,0,2.1,0,3.1
		c0,0,0,0.1,0,0.1c0,2.4,0,4.9,0,7.3c0,0,0,0,0,0c0,0.1,0,0.1,0.1,0.1c0.1,0,0.2,0,0.3,0c1.1,0,2.2,0,3.3,0c0,0,0.1,0,0.1,0
		c1.2,0,2.4,0,3.6,0c0,0.2,0,0.3,0,0.5c0,1.1,0,2.2,0,3.3c-0.1,0-0.1,0-0.2,0c-2.7,0-5.3,0-8,0C5.8,60,4.8,60,3.8,60z"/>
	<path d="M52.5,18.7c1.2,0,2.5,0,3.7,0c0,5,0,10,0,15c-1.2,0-2.5,0-3.7,0c0-0.3,0-0.7,0-1c0-0.9,0-1.8,0-2.7c0,0,0-0.1,0-0.1
		c0-2.4,0-4.9,0-7.3c0,0,0-0.1,0-0.1C52.5,21.2,52.5,19.9,52.5,18.7L52.5,18.7z"/>
	<path d="M3.8,18.7c1.2,0,2.4,0,3.6,0l0,0c0,0.3,0,0.6,0,1c0,0.9,0,1.9,0,2.8c0,0,0,0.1,0,0.1c0,2.4,0,4.9,0,7.3c0,0,0,0.1,0,0.1
		c0,1.3,0,2.5,0,3.8c-1.2,0-2.4,0-3.6,0C3.8,28.7,3.8,23.7,3.8,18.7z"/>
	<path class="st0" d="M56.2,41.2c-1.2,0-2.5,0-3.7,0l0,0c0-0.3,0-0.6,0-0.9c0-0.9,0-1.9,0-2.8c0.1,0,0.1,0,0.2,0c1.2,0,2.4,0,3.6,0
		C56.2,38.7,56.2,40,56.2,41.2z"/>
	<path class="st1" d="M56.2,37.5c-1.2,0-2.4,0-3.6,0c-0.1,0-0.1,0-0.2,0l0,0c0-0.1,0-0.1,0-0.2c0-1.2,0-2.4,0-3.6l0,0
		c1.2,0,2.5,0,3.7,0C56.2,35,56.2,36.2,56.2,37.5z"/>
	<path class="st0" d="M7.4,41.2c-1.2,0-2.4,0-3.6,0c0-1.3,0-2.5,0-3.8c0.6,0,1.2,0,1.9,0c0.6,0,1.1,0,1.7,0l0,0c0,0.1,0,0.1,0,0.2
		C7.4,38.8,7.4,40,7.4,41.2L7.4,41.2z"/>
	<path d="M45,7.6c0,1.2,0,2.4,0,3.6l0,0c-1.3,0-2.5,0-3.8,0l0,0c0-1.2,0-2.4,0-3.6C42.5,7.6,43.7,7.6,45,7.6z"/>
	<path class="st1" d="M7.4,37.5c-0.6,0-1.1,0-1.7,0c-0.6,0-1.2,0-1.9,0c0-1.3,0-2.5,0-3.8c1.2,0,2.4,0,3.6,0l0,0c0,0.3,0,0.6,0,1
		C7.4,35.6,7.4,36.5,7.4,37.5z"/>
	<path d="M14.9,11.2c0-1.2,0-2.4,0-3.6c1.3,0,2.5,0,3.8,0c0,1.2,0,2.4,0,3.6l0,0C17.4,11.2,16.1,11.2,14.9,11.2L14.9,11.2z"/>
	<path d="M18.6,11.2c2.5,0,4.9,0,7.4,0c0.1,0,0.2,0,0.2,0.2c0,1.1,0,2.3,0,3.4c0,0.1,0,0.2,0.2,0.2c2.4,0,4.8,0,7.2,0
		c0.1,0,0.2,0,0.2-0.2c0-1.2,0-2.3,0-3.5c0-0.1,0-0.2,0.2-0.2c2.5,0,4.9,0,7.4,0l0,0c0,1.3,0,2.5,0,3.8c-0.6,0-1.2,0-1.8,0
		c-0.6,0-1.2,0-1.9,0c-0.1,0-0.1,0-0.1,0.1c0,0.1,0,0.3,0,0.4c0,1.1,0,2.1,0,3.2c0,1.3,0,2.5,0,3.8c-0.4,0-0.7,0-1.1,0
		c-0.9,0-1.8,0-2.7,0c0,0-0.1,0-0.1,0c-2.4,0-4.9,0-7.3,0c0,0-0.1,0-0.1,0c-0.1,0-0.1,0-0.2,0c-1.2,0-2.4,0-3.6,0c0-0.3,0-0.7,0-1
		c0-0.9,0-1.8,0-2.8c0,0,0-0.1,0-0.1c0-1.1,0-2.3,0-3.4c0-0.1,0-0.2-0.2-0.2c-1.2,0-2.4,0-3.6,0C18.6,13.7,18.6,12.4,18.6,11.2
		L18.6,11.2z"/>
	<path class="st1" d="M52.5,48.8c0,0,0,0.1,0,0.1c0,2.4,0,4.8,0,7.2c0,0.1,0,0.2-0.2,0.2c-1.2,0-2.3,0-3.5,0c0,0-0.1,0-0.1,0
		c0-0.3,0-0.6,0-0.9c0-0.9,0-1.9,0-2.8c0-1.3,0-2.5,0-3.8C50,48.8,51.2,48.8,52.5,48.8z"/>
	<path class="st0" d="M48.7,52.5c0,0.9,0,1.9,0,2.8c0,0.3,0,0.6,0,0.9c-0.9,0-1.8,0-2.8,0c-0.3,0-0.7,0-1,0c0,0,0,0,0,0
		c0-1.3,0-2.5,0-3.8C46.2,52.5,47.5,52.5,48.7,52.5z"/>
	<path class="st1" d="M52.5,41.2c0,1.3,0,2.5,0,3.8c-1.3,0-2.5,0-3.8,0c0-0.1,0-0.1,0-0.2c0-1.2,0-2.4,0-3.6
		C50,41.2,51.2,41.2,52.5,41.2L52.5,41.2z"/>
	<path class="st2" d="M48.7,45c1.3,0,2.5,0,3.8,0c0,1.1,0,2.2,0,3.2c0,0.2,0,0.4,0,0.5c-1.3,0-2.5,0-3.8,0l0,0c0-0.3,0-0.6,0-0.9
		C48.7,46.9,48.7,45.9,48.7,45z"/>
	<path class="st1" d="M11.1,56.3c-1.1,0-2.2,0-3.3,0c-0.1,0-0.2,0-0.3,0c-0.1,0-0.1,0-0.1-0.1c0,0,0,0,0,0c0-2.4,0-4.9,0-7.3
		c0,0,0-0.1,0-0.1c1.3,0,2.5,0,3.8,0c0,0.3,0,0.6,0,1c0,0.9,0,1.9,0,2.8c0,0.1,0,0.1,0,0.2C11.1,53.9,11.1,55.1,11.1,56.3z"/>
	<path class="st0" d="M11.1,56.3c0-1.2,0-2.4,0-3.6c0-0.1,0-0.1,0-0.2c1.3,0,2.5,0,3.8,0c0,1.3,0,2.5,0,3.8c0,0,0,0,0,0
		c-1.2,0-2.4,0-3.6,0C11.2,56.3,11.2,56.3,11.1,56.3z"/>
	<path class="st1" d="M7.4,45c0-0.9,0-1.8,0-2.8c0-0.3,0-0.7,0-1c0,0,0,0,0,0c1.3,0,2.5,0,3.8,0c0,0.3,0,0.6,0,0.9c0,1,0,1.9,0,2.9
		C9.9,45,8.6,45,7.4,45z"/>
	<path class="st2" d="M7.4,45c1.3,0,2.5,0,3.8,0c0,1.3,0,2.5,0,3.8l0,0c-1.3,0-2.5,0-3.8,0c0-1,0-2.1,0-3.1
		C7.4,45.4,7.4,45.2,7.4,45z"/>
	<path d="M48.7,14.9c1.2,0,2.4,0,3.6,0c0.1,0,0.2,0,0.2,0.2c0,1.2,0,2.4,0,3.6l0,0c-1.3,0-2.5,0-3.8,0
		C48.7,17.4,48.7,16.2,48.7,14.9L48.7,14.9z"/>
	<path d="M45,11.2c1.2,0,2.4,0,3.6,0c0.1,0,0.2,0,0.2,0.2c0,1.2,0,2.4,0,3.6l0,0c-1.3,0-2.5,0-3.8,0C45,13.7,45,12.4,45,11.2
		L45,11.2z"/>
	<path d="M11.1,14.9c0-1.2,0-2.4,0-3.6c0-0.1,0-0.2,0.2-0.2c1.2,0,2.4,0,3.6,0l0,0c0,1.3,0,2.5,0,3.8C13.6,14.9,12.4,14.9,11.1,14.9
		L11.1,14.9z"/>
	<path d="M7.4,18.7c0-1.2,0-2.4,0-3.6c0-0.1,0-0.2,0.2-0.2c1.2,0,2.4,0,3.6,0l0,0c0,1.3,0,2.5,0,3.8C9.9,18.7,8.6,18.7,7.4,18.7
		L7.4,18.7z"/>
	<path d="M0,41.3c0-2.4,0-4.8,0-7.2c0-0.2,0-0.3,0.2-0.3c1.2,0,2.4,0,3.6,0l0,0c0,2.5,0,5,0,7.5C2.5,41.3,1.3,41.3,0,41.3L0,41.3z"
		/>
	<path d="M56.2,41.2c0-2.4,0-4.8,0-7.2c0-0.2,0-0.3,0.2-0.3c1.2,0,2.4,0,3.6,0l0,0c0,2.5,0,5,0,7.5C58.7,41.3,57.5,41.3,56.2,41.2
		L56.2,41.2z"/>
	<path class="st3" d="M52.5,22.4c0,0,0,0.1,0,0.1c0,2.4,0,4.9,0,7.3c0,0,0,0.1,0,0.1c-1.2,0-2.5,0-3.7,0c0-0.1,0-0.1,0-0.2
		c0-1.2,0-2.4,0-3.6c0-0.3,0-0.6,0-1c0-0.9,0-1.9,0-2.8C50,22.4,51.2,22.4,52.5,22.4z"/>
	<path class="st1" d="M52.5,22.4c-1.3,0-2.5,0-3.8,0c0-1.3,0-2.5,0-3.8l0,0c1.3,0,2.5,0,3.8,0C52.5,19.9,52.5,21.2,52.5,22.4z"/>
	<path class="st1" d="M48.7,30c1.2,0,2.5,0,3.7,0c0,0.9,0,1.8,0,2.7c0,0.3,0,0.7,0,1l0,0c-0.3,0-0.7,0-1,0c-0.9,0-1.8,0-2.7,0
		C48.7,32.5,48.7,31.2,48.7,30L48.7,30z"/>
	<path class="st3" d="M7.4,30c0,0,0-0.1,0-0.1c0-2.4,0-4.9,0-7.3c0,0,0-0.1,0-0.1c1.3,0,2.5,0,3.8,0c0,0.1,0,0.1,0,0.2
		c0,1.2,0,2.4,0,3.6c0,0.7,0,1.4,0,2.1c0,0.5,0,1.1,0,1.6C9.9,30,8.6,30,7.4,30z"/>
	<path class="st1" d="M7.4,30c1.2,0,2.5,0,3.7,0l0,0c0,1.3,0,2.5,0,3.8c-1.3,0-2.5,0-3.8,0l0,0C7.4,32.5,7.4,31.2,7.4,30z"/>
	<path class="st1" d="M11.1,22.4c-1.3,0-2.5,0-3.8,0c0-0.9,0-1.9,0-2.8c0-0.3,0-0.6,0-1c1.3,0,2.5,0,3.8,0l0,0c0,0.3,0,0.7,0,1
		C11.1,20.6,11.1,21.5,11.1,22.4z"/>
	<path class="st2" d="M52.5,41.2c-1.3,0-2.5,0-3.8,0l0,0c0-1.3,0-2.5,0-3.8c0.1,0,0.1,0,0.2,0c1.2,0,2.4,0,3.6,0l0,0
		c0,0.9,0,1.9,0,2.8C52.5,40.6,52.5,40.9,52.5,41.2z"/>
	<path d="M52.5,37.5c-1.2,0-2.4,0-3.6,0c-0.1,0-0.1,0-0.2,0c-0.3,0-0.7,0-1,0c-0.9,0-1.8,0-2.7,0c-0.3,0-0.7,0-1,0
		c-0.9,0-1.8,0-2.8,0c-0.3,0-0.7,0-1,0c-0.9,0-1.8,0-2.7,0c-0.1,0-0.2,0-0.2,0c-1.2,0-2.3,0-3.5,0c0,0-0.1,0-0.1,0
		c-2.4,0-4.9,0-7.3,0c0,0-0.1,0-0.1,0c-0.3,0-0.7,0-1,0c-0.9,0-1.8,0-2.8,0c-0.3,0-0.7,0-1,0c-0.9,0-1.8,0-2.7,0c-0.1,0-0.2,0-0.2,0
		c-1.2,0-2.3,0-3.5,0c-0.3,0-0.7,0-1,0c-0.9,0-1.8,0-2.7,0c-1.3,0-2.5,0-3.8,0l0,0c0-0.9,0-1.9,0-2.8c0-0.3,0-0.6,0-1
		c1.3,0,2.5,0,3.8,0c0.2,0,0.4,0,0.6,0c1,0,2.1,0,3.1,0c0.2,0,0.4,0,0.6,0c1.1,0,2.1,0,3.2,0c0.2,0,0.4,0,0.7,0c1,0,2.1,0,3.1,0
		c0.2,0,0.4,0,0.7,0c1,0,2.1,0,3.1,0c0,0,0.1,0,0.1,0c2.4,0,4.9,0,7.3,0c0,0,0.1,0,0.1,0c0.2,0,0.4,0,0.7,0c1,0,2.1,0,3.1,0
		c0.2,0,0.4,0,0.6,0c1.1,0,2.1,0,3.2,0c0.2,0,0.4,0,0.6,0c1.1,0,2.1,0,3.2,0c0.2,0,0.4,0,0.6,0c1,0,2.1,0,3.1,0c0.9,0,1.8,0,2.7,0
		c0.3,0,0.7,0,1,0c0,1.2,0,2.4,0,3.6C52.5,37.4,52.5,37.4,52.5,37.5z"/>
	<path class="st2" d="M7.4,37.5c1.3,0,2.5,0,3.8,0c0,1.3,0,2.5,0,3.8l0,0c-1.3,0-2.5,0-3.8,0c0-1.2,0-2.4,0-3.6
		C7.4,37.6,7.4,37.5,7.4,37.5z"/>
	<path class="st1" d="M45,11.2c0,1.3,0,2.5,0,3.8l0,0c-1.3,0-2.5,0-3.8,0l0,0c0-1.3,0-2.5,0-3.8C42.5,11.2,43.7,11.2,45,11.2z"/>
	<path class="st1" d="M14.9,14.9c0-1.3,0-2.5,0-3.8c1.3,0,2.5,0,3.8,0c0,1.3,0,2.5,0,3.8l0,0C17.4,14.9,16.1,14.9,14.9,14.9
		L14.9,14.9z"/>
	<path class="st1" d="M26.2,22.4c0,0,0.1,0,0.1,0c2.4,0,4.9,0,7.3,0c0,0,0.1,0,0.1,0c0,1.3,0,2.5,0,3.8c-2.5,0-5,0-7.5,0
		C26.2,24.9,26.2,23.7,26.2,22.4z"/>
	<path class="st4" d="M26.2,22.4c0,1.3,0,2.5,0,3.8l0,0c-0.6,0-1.2,0-1.8,0c-0.7,0-1.3,0-2,0c0-0.1,0-0.1,0-0.2c0-1.2,0-2.4,0-3.5
		l0,0c1.2,0,2.4,0,3.6,0C26,22.4,26.1,22.4,26.2,22.4z"/>
	<path class="st4" d="M33.7,26.2c0-1.3,0-2.5,0-3.8c0.9,0,1.8,0,2.7,0c0.4,0,0.7,0,1.1,0l0,0c0,0.1,0,0.3,0,0.4c0,1.1,0,2.2,0,3.4
		c0,0,0,0-0.1,0C36.1,26.2,34.9,26.2,33.7,26.2L33.7,26.2z"/>
	<path class="st0" d="M37.4,22.4c0-1.3,0-2.5,0-3.8c1.3,0,2.5,0,3.8,0c0,0.1,0,0.1,0,0.2c0,1.2,0,2.4,0,3.6
		C40,22.4,38.7,22.4,37.4,22.4L37.4,22.4z"/>
	<path class="st0" d="M22.4,18.7c0,0.9,0,1.8,0,2.8c0,0.3,0,0.7,0,1l0,0c-1.3,0-2.5,0-3.8,0c0-0.1,0-0.3,0-0.4c0-1.1,0-2.2,0-3.4
		C19.9,18.7,21.2,18.7,22.4,18.7z"/>
	<path class="st1" d="M41.2,18.7c-1.3,0-2.5,0-3.8,0c0-1.1,0-2.1,0-3.2c0-0.1,0-0.3,0-0.4c0-0.1,0-0.1,0.1-0.1c0.6,0,1.2,0,1.9,0
		c0.6,0,1.2,0,1.8,0l0,0c0,0.2,0,0.4,0,0.6C41.2,16.6,41.2,17.6,41.2,18.7z"/>
	<path class="st1" d="M22.4,18.7c-1.3,0-2.5,0-3.8,0c0-0.1,0-0.1,0-0.2c0-1.2,0-2.4,0-3.6l0,0c1.2,0,2.4,0,3.6,0
		c0.1,0,0.2,0,0.2,0.2c0,1.1,0,2.3,0,3.4C22.4,18.6,22.4,18.6,22.4,18.7z"/>
	<path d="M14.9,56.3c0-1.3,0-2.5,0-3.8l0,0c0.3,0,0.6,0,1,0c0.9,0,1.9,0,2.8,0c0.2,0,0.4,0,0.6,0c1.1,0,2.1,0,3.2,0
		c0.2,0,0.4,0,0.6,0c1,0,2.1,0,3.1,0c0,0,0.1,0,0.1,0c2.4,0,4.9,0,7.3,0c0,0,0.1,0,0.1,0c0.2,0,0.4,0,0.6,0c1.1,0,2.1,0,3.2,0
		c0.2,0,0.4,0,0.5,0c1.1,0,2.1,0,3.2,0c0.1,0,0.1,0,0.2,0c1.2,0,2.4,0,3.6,0l0,0c0,1.3,0,2.5,0,3.8c0,0-0.1,0-0.1,0
		c-10,0-19.9,0-29.9,0C15,56.3,14.9,56.3,14.9,56.3z"/>
	<path class="st2" d="M48.7,52.5c-1.3,0-2.5,0-3.8,0c0,0,0,0,0,0c0-1.3,0-2.5,0-3.8c1.3,0,2.5,0,3.8,0l0,0
		C48.7,50,48.7,51.3,48.7,52.5z"/>
	<path class="st0" d="M48.7,48.8c-1.3,0-2.5,0-3.8,0c-1.3,0-2.5,0-3.8,0l0,0c0-1.3,0-2.5,0-3.8c1.2,0,2.4,0,3.6,0
		c0.1,0,0.1,0,0.1-0.1c0-1.2,0-2.4,0-3.7l0,0c1.3,0,2.5,0,3.8,0l0,0c0,1.2,0,2.4,0,3.6c0,0.1,0,0.1,0,0.2c0,0.9,0,1.9,0,2.8
		C48.7,48.1,48.7,48.4,48.7,48.8z"/>
	<path class="st2" d="M14.9,52.5c-1.3,0-2.5,0-3.8,0c0-0.9,0-1.9,0-2.8c0-0.3,0-0.6,0-1l0,0c0.3,0,0.6,0,0.9,0c0.9,0,1.9,0,2.8,0
		C14.9,50,14.9,51.3,14.9,52.5L14.9,52.5z"/>
	<path class="st0" d="M14.9,48.8c-0.9,0-1.9,0-2.8,0c-0.3,0-0.6,0-0.9,0c0-1.3,0-2.5,0-3.8c0-1,0-1.9,0-2.9c0-0.3,0-0.6,0-0.9l0,0
		c1.3,0,2.5,0,3.8,0l0,0c0,1.2,0,2.4,0,3.7c0,0.1,0,0.1,0.1,0.1c1.2,0,2.4,0,3.6,0c0,1.3,0,2.5,0,3.8l0,0c-0.3,0-0.6,0-0.9,0
		C16.8,48.8,15.8,48.8,14.9,48.8z"/>
	<path class="st1" d="M45,14.9c1.3,0,2.5,0,3.8,0c0,1.3,0,2.5,0,3.8l0,0c-1.3,0-2.5,0-3.8,0c0-0.1,0-0.1,0-0.2
		C45,17.3,45,16.1,45,14.9L45,14.9z"/>
	<path class="st1" d="M11.1,18.7c0-1.3,0-2.5,0-3.8c1.3,0,2.5,0,3.8,0l0,0c0,0.3,0,0.5,0,0.8c0,1,0,2,0,3
		C13.6,18.7,12.4,18.7,11.1,18.7L11.1,18.7z"/>
	<path d="M45,18.7c1.3,0,2.5,0,3.8,0c0,1.3,0,2.5,0,3.8c0,0.9,0,1.9,0,2.8c0,0.3,0,0.6,0,1c-1.3,0-2.5,0-3.8,0c0-0.3,0-0.7,0-1
		c0-0.9,0-1.8,0-2.7c0-0.1,0-0.1,0-0.2C45,21,45,19.9,45,18.7z"/>
	<path class="st0" d="M45,26.2c1.3,0,2.5,0,3.8,0c0,1.2,0,2.4,0,3.6c0,0.1,0,0.1,0,0.2l0,0c-1.3,0-2.5,0-3.8,0c0,0,0,0,0,0
		C45,28.7,45,27.4,45,26.2L45,26.2z"/>
	<path class="st2" d="M45,30c1.3,0,2.5,0,3.8,0c0,1.3,0,2.5,0,3.8c-1,0-2.1,0-3.1,0c-0.2,0-0.4,0-0.6,0C45,32.5,45,31.2,45,30z"/>
	<path d="M11.1,18.7c1.3,0,2.5,0,3.8,0c0,0.3,0,0.7,0,1c0,0.9,0,1.8,0,2.7c0,0.1,0,0.1,0,0.2c0,1.2,0,2.4,0,3.6c-1.3,0-2.5,0-3.8,0
		c0-1.2,0-2.4,0-3.6c0-0.1,0-0.1,0-0.2c0-0.9,0-1.8,0-2.8C11.1,19.3,11.1,19,11.1,18.7z"/>
	<path class="st0" d="M11.1,26.2c1.3,0,2.5,0,3.8,0l0,0c0,1.3,0,2.5,0,3.8l0,0c-1.3,0-2.5,0-3.8,0l0,0c0-0.5,0-1.1,0-1.6
		C11.1,27.6,11.1,26.9,11.1,26.2z"/>
	<path class="st2" d="M11.1,30c1.3,0,2.5,0,3.8,0c0,1.3,0,2.5,0,3.8c-1,0-2.1,0-3.1,0c-0.2,0-0.4,0-0.6,0
		C11.1,32.5,11.1,31.2,11.1,30z"/>
	<path class="st1" d="M48.7,41.2c-1.3,0-2.5,0-3.8,0c0-1.3,0-2.5,0-3.8c0.9,0,1.8,0,2.7,0c0.3,0,0.7,0,1,0
		C48.7,38.7,48.7,40,48.7,41.2z"/>
	<path class="st1" d="M26.2,37.5c0,0,0.1,0,0.1,0c2.4,0,4.9,0,7.3,0c0,0,0.1,0,0.1,0c0,1.3,0,2.5,0,3.8c-0.1,0-0.1,0-0.2,0
		c-2.1,0-4.1,0-6.2,0c-0.4,0-0.8,0-1.2,0C26.2,40,26.2,38.7,26.2,37.5z"/>
	<path class="st0" d="M33.7,33.7c0,0-0.1,0-0.1,0c-2.4,0-4.9,0-7.3,0c0,0-0.1,0-0.1,0c0-1.3,0-2.5,0-3.8c2.5,0,5,0,7.5,0
		C33.7,31.2,33.7,32.5,33.7,33.7z"/>
	<path class="st1" d="M14.9,33.7c0-1.3,0-2.5,0-3.8l0,0c1.3,0,2.5,0,3.8,0c0,1.3,0,2.5,0,3.8c-1.1,0-2.1,0-3.2,0
		C15.3,33.7,15.1,33.7,14.9,33.7z"/>
	<path class="st0" d="M18.6,33.7c0-1.3,0-2.5,0-3.8l0,0c1.3,0,2.5,0,3.8,0l0,0c0,1.3,0,2.5,0,3.8c-1,0-2.1,0-3.1,0
		C19.1,33.7,18.9,33.7,18.6,33.7z"/>
	<path class="st4" d="M22.4,33.7c0-1.3,0-2.5,0-3.8c1.3,0,2.5,0,3.8,0l0,0c0,1.3,0,2.5,0,3.8c-1,0-2.1,0-3.1,0
		C22.9,33.7,22.6,33.7,22.4,33.7z"/>
	<path class="st4" d="M33.7,33.7c0-1.3,0-2.5,0-3.8l0,0c1.3,0,2.5,0,3.8,0c0,1.3,0,2.5,0,3.8c-1,0-2.1,0-3.1,0
		C34.1,33.7,33.9,33.7,33.7,33.7z"/>
	<path class="st0" d="M37.4,33.7c0-1.3,0-2.5,0-3.8l0,0c1.3,0,2.5,0,3.8,0l0,0c0,1.3,0,2.5,0,3.8c-1.1,0-2.1,0-3.2,0
		C37.8,33.7,37.6,33.7,37.4,33.7z"/>
	<path class="st1" d="M41.2,33.7c0-1.3,0-2.5,0-3.8c1.3,0,2.5,0,3.8,0c0,0,0,0,0,0c0,1.3,0,2.5,0,3.8c-1.1,0-2.1,0-3.2,0
		C41.6,33.7,41.4,33.7,41.2,33.7z"/>
	<path class="st1" d="M14.9,41.2c-1.3,0-2.5,0-3.8,0c0-1.3,0-2.5,0-3.8c0.9,0,1.8,0,2.7,0c0.3,0,0.7,0,1,0
		C14.9,38.7,14.9,40,14.9,41.2z"/>
	<path class="st0" d="M14.9,41.2c0-1.3,0-2.5,0-3.8c1.2,0,2.3,0,3.5,0c0.1,0,0.2,0,0.2,0c0,1.3,0,2.5,0,3.8
		C17.4,41.2,16.1,41.2,14.9,41.2L14.9,41.2z"/>
	<path class="st1" d="M18.6,41.2c0-1.3,0-2.5,0-3.8c0.9,0,1.8,0,2.7,0c0.3,0,0.7,0,1,0c0,1.3,0,2.5,0,3.8
		C21.2,41.2,19.9,41.2,18.6,41.2L18.6,41.2z"/>
	<path class="st0" d="M22.4,41.2c0-1.3,0-2.5,0-3.8c0.9,0,1.8,0,2.8,0c0.3,0,0.7,0,1,0c0,1.3,0,2.5,0,3.8l0,0
		C24.9,41.2,23.7,41.2,22.4,41.2L22.4,41.2z"/>
	<path class="st0" d="M33.7,41.2c0-1.3,0-2.5,0-3.8c1.2,0,2.3,0,3.5,0c0.1,0,0.2,0,0.2,0c0,1.3,0,2.5,0,3.8
		C36.2,41.2,34.9,41.2,33.7,41.2L33.7,41.2z"/>
	<path class="st1" d="M37.4,41.2c0-1.3,0-2.5,0-3.8c0.9,0,1.8,0,2.7,0c0.3,0,0.7,0,1,0c0,1.3,0,2.5,0,3.8l0,0
		C40,41.2,38.7,41.2,37.4,41.2L37.4,41.2z"/>
	<path class="st0" d="M41.2,41.2c0-1.3,0-2.5,0-3.8c0.9,0,1.8,0,2.8,0c0.3,0,0.7,0,1,0c0,1.3,0,2.5,0,3.8l0,0
		C43.7,41.2,42.5,41.2,41.2,41.2z"/>
	<path class="st3" d="M45,18.7c0,1.2,0,2.4,0,3.6c0,0.1,0,0.1,0,0.2c-1.3,0-2.5,0-3.8,0l0,0c0-1.2,0-2.4,0-3.6c0-0.1,0-0.1,0-0.2
		c0-1,0-2.1,0-3.1c0-0.2,0-0.4,0-0.6c1.3,0,2.5,0,3.8,0c0,1.2,0,2.4,0,3.6C45,18.5,45,18.6,45,18.7z"/>
	<path class="st3" d="M14.9,22.4c0-0.9,0-1.8,0-2.7c0-0.3,0-0.7,0-1c0-1,0-2,0-3c0-0.3,0-0.5,0-0.8c1.3,0,2.5,0,3.8,0
		c0,1.2,0,2.4,0,3.6c0,0.1,0,0.1,0,0.2c0,1.1,0,2.2,0,3.4c0,0.1,0,0.3,0,0.4l0,0C17.4,22.4,16.1,22.4,14.9,22.4z"/>
	<path class="st4" d="M33.7,30c-2.5,0-5,0-7.5,0l0,0c0-1.3,0-2.5,0-3.8l0,0c2.5,0,5,0,7.5,0l0,0C33.7,27.4,33.7,28.7,33.7,30
		L33.7,30z"/>
	<path class="st2" d="M18.6,22.4c1.3,0,2.5,0,3.8,0c0,1.2,0,2.4,0,3.5c0,0.1,0,0.1,0,0.2l0,0c-0.1,0-0.1,0-0.2,0c-1.2,0-2.4,0-3.6,0
		l0,0C18.6,24.9,18.6,23.7,18.6,22.4L18.6,22.4z"/>
	<path class="st0" d="M26.2,26.2c0,1.3,0,2.5,0,3.8c-1.3,0-2.5,0-3.8,0l0,0c0-1.3,0-2.5,0-3.8l0,0c0.7,0,1.3,0,2,0
		C25,26.2,25.6,26.2,26.2,26.2z"/>
	<path class="st2" d="M37.4,22.4c1.3,0,2.5,0,3.8,0c0,0,0,0,0,0c0,1.3,0,2.5,0,3.8l0,0c-0.2,0-0.4,0-0.6,0c-1,0-2.1,0-3.1,0l0,0
		c0-1.1,0-2.2,0-3.4C37.4,22.7,37.4,22.6,37.4,22.4z"/>
	<path class="st0" d="M33.7,30c0-1.3,0-2.5,0-3.8c1.2,0,2.5,0,3.7,0c0,0,0,0,0.1,0l0,0c0,1.3,0,2.5,0,3.8l0,0
		C36.2,30,34.9,30,33.7,30z"/>
	<path class="st0" d="M33.7,52.5c0,0-0.1,0-0.1,0c-2.4,0-4.9,0-7.3,0c0,0-0.1,0-0.1,0c0-1.3,0-2.5,0-3.8c2.5,0,5,0,7.5,0
		C33.7,50,33.7,51.3,33.7,52.5z"/>
	<path class="st1" d="M14.9,48.8c0.9,0,1.9,0,2.8,0c0.3,0,0.6,0,0.9,0c0,1.3,0,2.5,0,3.8c-0.9,0-1.9,0-2.8,0c-0.3,0-0.6,0-1,0
		C14.9,51.3,14.9,50,14.9,48.8z"/>
	<path class="st0" d="M18.6,52.5c0-1.3,0-2.5,0-3.8c0,0,0,0,0,0c1.3,0,2.5,0,3.8,0c0,1.3,0,2.5,0,3.8c-1.1,0-2.1,0-3.2,0
		C19,52.5,18.8,52.5,18.6,52.5z"/>
	<path class="st1" d="M22.4,52.5c0-1.3,0-2.5,0-3.8l0,0c1.3,0,2.5,0,3.8,0l0,0c0,1.3,0,2.5,0,3.8c-1,0-2.1,0-3.1,0
		C22.8,52.5,22.6,52.5,22.4,52.5z"/>
	<path class="st1" d="M33.7,52.5c0-1.3,0-2.5,0-3.8l0,0c1.3,0,2.5,0,3.8,0l0,0c0,1.3,0,2.5,0,3.8c-1.1,0-2.1,0-3.2,0
		C34.1,52.5,33.9,52.5,33.7,52.5z"/>
	<path class="st0" d="M37.4,52.5c0-1.3,0-2.5,0-3.8c1.3,0,2.5,0,3.8,0l0,0c0,1.3,0,2.5,0,3.8c-1.1,0-2.1,0-3.2,0
		C37.8,52.5,37.6,52.5,37.4,52.5z"/>
	<path class="st1" d="M41.2,52.5c0-1.3,0-2.5,0-3.8c1.3,0,2.5,0,3.8,0c0,1.3,0,2.5,0,3.8c-1.2,0-2.4,0-3.6,0
		C41.3,52.5,41.3,52.5,41.2,52.5z"/>
	<path class="st4" d="M41.2,41.2c1.3,0,2.5,0,3.8,0c0,1.2,0,2.4,0,3.7c0,0.1,0,0.1-0.1,0.1c-1.2,0-2.4,0-3.6,0l0,0
		C41.2,43.7,41.2,42.5,41.2,41.2C41.2,41.2,41.2,41.2,41.2,41.2z"/>
	<path class="st4" d="M41.2,48.7c-1.3,0-2.5,0-3.8,0c0,0,0,0,0,0c0-1.3,0-2.5,0-3.8l0,0c1.3,0,2.5,0,3.8,0l0,0
		C41.2,46.2,41.2,47.5,41.2,48.7z"/>
	<path class="st4" d="M14.9,41.2c1.3,0,2.5,0,3.8,0l0,0c0,1.3,0,2.5,0,3.8l0,0c-1.2,0-2.4,0-3.6,0c-0.1,0-0.1,0-0.1-0.1
		C14.9,43.7,14.9,42.5,14.9,41.2z"/>
	<path class="st4" d="M22.4,48.7c-1.3,0-2.5,0-3.8,0c0-1.3,0-2.5,0-3.8l0,0c1.3,0,2.5,0,3.8,0l0,0C22.4,46.2,22.4,47.5,22.4,48.7
		L22.4,48.7z"/>
	<path class="st0" d="M41.2,26.2c0-1.3,0-2.5,0-3.8c1.3,0,2.5,0,3.8,0c0,0.9,0,1.8,0,2.7c0,0.3,0,0.7,0,1l0,0
		C43.7,26.2,42.5,26.2,41.2,26.2z"/>
	<path class="st2" d="M41.2,26.2c1.3,0,2.5,0,3.8,0c0,1.3,0,2.5,0,3.8c-1.3,0-2.5,0-3.8,0l0,0C41.2,28.7,41.2,27.4,41.2,26.2
		L41.2,26.2z"/>
	<path class="st0" d="M18.6,22.4c0,1.3,0,2.5,0,3.8c-1.3,0-2.5,0-3.8,0l0,0c0-1.2,0-2.4,0-3.6c0-0.1,0-0.1,0-0.2
		C16.1,22.4,17.4,22.4,18.6,22.4z"/>
	<path class="st2" d="M14.9,26.2c1.3,0,2.5,0,3.8,0l0,0c0,1.3,0,2.5,0,3.8l0,0c-1.3,0-2.5,0-3.8,0C14.9,28.7,14.9,27.4,14.9,26.2z"
		/>
	<path class="st0" d="M26.2,41.2c0.4,0,0.8,0,1.2,0c2.1,0,4.1,0,6.2,0c0.1,0,0.1,0,0.2,0l0,0c0,1.3,0,2.5,0,3.8c-2.5,0-5,0-7.5,0
		C26.2,43.7,26.2,42.5,26.2,41.2L26.2,41.2z"/>
	<path class="st1" d="M18.6,30c0-1.3,0-2.5,0-3.8c1.2,0,2.4,0,3.6,0c0.1,0,0.1,0,0.2,0c0,1.3,0,2.5,0,3.8C21.2,30,19.9,30,18.6,30z"
		/>
	<path class="st1" d="M41.2,26.2c0,1.3,0,2.5,0,3.8c-1.3,0-2.5,0-3.8,0c0-1.3,0-2.5,0-3.8c1,0,2.1,0,3.1,0
		C40.8,26.2,41,26.2,41.2,26.2z"/>
	<path class="st0" d="M22.4,45c-1.3,0-2.5,0-3.8,0c0-1.3,0-2.5,0-3.8c1.3,0,2.5,0,3.8,0l0,0C22.4,42.5,22.4,43.7,22.4,45z"/>
	<path class="st4" d="M22.4,45c0-1.3,0-2.5,0-3.8c1.3,0,2.5,0,3.8,0c0,1.3,0,2.5,0,3.8l0,0C24.9,45,23.7,45,22.4,45L22.4,45z"/>
	<path class="st4" d="M33.7,45c0-1.3,0-2.5,0-3.8c1.3,0,2.5,0,3.8,0l0,0c0,1.3,0,2.5,0,3.8l0,0C36.2,45,34.9,45,33.7,45L33.7,45z"/>
	<path class="st0" d="M37.4,45c0-1.3,0-2.5,0-3.8c1.3,0,2.5,0,3.8,0c0,1.3,0,2.5,0,3.8C40,45,38.7,45,37.4,45z"/>
	<path class="st4" d="M26.2,45c2.5,0,5,0,7.5,0l0,0c0,1.3,0,2.5,0,3.8l0,0c-2.5,0-5,0-7.5,0l0,0C26.2,47.5,26.2,46.2,26.2,45
		L26.2,45z"/>
	<path class="st0" d="M26.2,45c0,1.3,0,2.5,0,3.8c-1.3,0-2.5,0-3.8,0c0-1.3,0-2.5,0-3.8C23.7,45,24.9,45,26.2,45z"/>
	<path class="st0" d="M33.7,48.8c0-1.3,0-2.5,0-3.8c1.3,0,2.5,0,3.8,0c0,1.3,0,2.5,0,3.8C36.2,48.8,34.9,48.8,33.7,48.8z"/>
</g>
</svg>
