<?xml version="1.0" encoding="utf-8"?>
<!-- Generator: Adobe Illustrator 25.4.0, SVG Export Plug-In . SVG Version: 6.00 Build 0)  -->
<svg version="1.1" id="Layer_1" xmlns="http://www.w3.org/2000/svg" xmlns:xlink="http://www.w3.org/1999/xlink" x="0px" y="0px"
	 viewBox="0 0 60 60" style="enable-background:new 0 0 60 60;" xml:space="preserve">
<style type="text/css">
	.st0{fill:#0058F7;}
	.st1{fill:#36FEDE;}
	.st2{fill:#B8C2FE;}
	.st3{fill:#FED30B;}
	.st4{fill:#FEA004;}
</style>
<g>
	<path d="M21.4,0c0,4.3,0,8.5,0,12.8l0,0c-1.4,0-2.9,0-4.3,0c0-2.8,0-5.6,0-8.4c0-0.1,0-0.2-0.2-0.2c-4.2,0-8.4,0-12.6,0
		c-0.2,0-0.2,0-0.2,0.2c0,2.8,0,5.6,0,8.4l0,0c-1.4,0-2.8,0-4.2,0C0,8.6,0,4.4,0,0.2C0,0,0,0,0.2,0C7.3,0,14.4,0,21.4,0z"/>
	<path d="M38.7,12.8c0-4.3,0-8.5,0-12.8c7.1,0,14.1,0,21.2,0C60,0,60,0,60,0.2c0,4.2,0,8.4,0,12.7c-1.4,0-2.7,0-4.1,0l0,0
		c0-2.8,0-5.6,0-8.4c0-0.2,0-0.2-0.2-0.2c-4.2,0-8.4,0-12.6,0c0,0,0,0-0.1,0c-0.1,0-0.1,0-0.1,0.1c0,2.8,0,5.6,0,8.4
		C41.6,12.8,40.1,12.8,38.7,12.8L38.7,12.8z"/>
	<path class="st0" d="M47.3,47.1c0,1.4,0,2.7,0,4.1c0,0.2,0,0.2,0.2,0.2c1.3,0,2.6,0,3.9,0c0.1,0,0.1,0,0.2,0c0,1.4,0,2.8,0,4.3
		c-0.1,0-0.1,0-0.2,0c-2.8,0-5.5,0-8.3,0c-0.1,0-0.2,0-0.2-0.2c0-1.3,0-2.6,0-3.9c0-0.1,0-0.2-0.2-0.2c-1.4,0-2.8,0-4.1,0l0,0
		c0-1.4,0-2.7,0-4.1c0-0.1,0-0.2-0.2-0.2c-5.6,0-11.3,0-16.9,0c-0.1,0-0.2,0-0.2,0.2c0,1.4,0,2.7,0,4.1l0,0c-1.4,0-2.8,0-4.1,0
		c-0.1,0-0.2,0-0.2,0.2c0,1.3,0,2.6,0,4c0,0.1,0,0.2-0.1,0.2c-2.8,0-5.6,0-8.4,0c0,0,0,0-0.1,0c0-1.4,0-2.8,0-4.3c1.2,0,2.5,0,3.7,0
		c0.1,0,0.3,0,0.4,0c0.1,0,0.2,0,0.2-0.2c0-0.7,0-1.4,0-2.1c0-0.7,0-1.3,0-2c0,0,0,0,0,0c1.4,0,2.8,0,4.2,0c0.1,0,0.1-0.1,0.1-0.1
		c0-1.4,0-2.8,0-4.1c1.4,0,2.8,0,4.2,0c0.1,0,0.1,0,0.1-0.1c0-1.4,0-2.8,0-4.1c1.4,0,2.9,0,4.3,0c0,1.4,0,2.8,0,4.2
		c0,0.1,0,0.1,0.1,0.1c2.8,0,5.6,0,8.4,0c0.1,0,0.1,0,0.1-0.1c0-1.4,0-2.8,0-4.2c1.4,0,2.9,0,4.3,0c0,1.4,0,2.8,0,4.1
		c0,0.1,0,0.1,0.1,0.1c1.4,0,2.8,0,4.2,0c0,1.4,0,2.8,0,4.1c0,0.1,0,0.1,0.1,0.1C44.5,47.1,45.9,47.1,47.3,47.1L47.3,47.1z"/>
	<path class="st1" d="M4.2,12.8c0-2.8,0-5.6,0-8.4c0-0.2,0-0.2,0.2-0.2c4.2,0,8.4,0,12.6,0c0.2,0,0.2,0,0.2,0.2c0,2.8,0,5.6,0,8.4
		l0,0c-1.4,0-2.9,0-4.3,0l0,0c0-1.4,0-2.7,0-4.1c0-0.1,0-0.2-0.2-0.2c-1.3,0-2.6,0-4,0c-0.1,0-0.2,0-0.2,0.2c0,1.4,0,2.7,0,4.1l0,0
		C7.1,12.8,5.6,12.8,4.2,12.8z"/>
	<path class="st1" d="M43,12.8c0-2.8,0-5.6,0-8.4c0-0.1,0-0.1,0.1-0.1c0,0,0,0,0.1,0c4.2,0,8.4,0,12.6,0c0.2,0,0.2,0,0.2,0.2
		c0,2.8,0,5.6,0,8.4c-1.4,0-2.9,0-4.3,0l0,0c0-1.4,0-2.7,0-4.1c0-0.1,0-0.2-0.2-0.2c-1.3,0-2.6,0-4,0c-0.1,0-0.2,0-0.2,0.2
		c0,1.4,0,2.7,0,4.1l0,0C45.9,12.8,44.4,12.8,43,12.8L43,12.8z"/>
	<path class="st2" d="M8.5,21.4c0-1.2,0-2.3,0-3.5c0-0.3,0-0.5,0-0.8c0.4,0,0.8,0,1.2,0c1,0,2,0,3.1,0l0,0c0,1.4,0,2.9,0,4.3
		C11.4,21.4,10,21.4,8.5,21.4z"/>
	<path class="st2" d="M51.6,17.1c0,1.2,0,2.4,0,3.6c0,0.2,0,0.4,0,0.6c-1.4,0-2.9,0-4.3,0c0-0.2,0-0.5,0-0.7c0-1.2,0-2.4,0-3.5l0,0
		c0.1,0,0.1,0,0.2,0C48.9,17.1,50.2,17.1,51.6,17.1z"/>
	<path class="st3" d="M8.5,21.4c1.4,0,2.9,0,4.3,0l0,0c0,1.4,0,2.9,0,4.3c-1.4,0-2.9,0-4.3,0c0-1.2,0-2.4,0-3.5
		C8.5,21.9,8.5,21.6,8.5,21.4z"/>
	<path class="st1" d="M51.6,17.1c-1.4,0-2.7,0-4.1,0c-0.1,0-0.1,0-0.2,0c0-1.4,0-2.9,0-4.3l0,0c1.4,0,2.9,0,4.3,0l0,0
		C51.6,14.2,51.6,15.7,51.6,17.1z"/>
	<path class="st3" d="M47.3,21.4c1.4,0,2.9,0,4.3,0c0,1.3,0,2.7,0,4c0,0.1,0,0.2,0,0.3c-1.4,0-2.9,0-4.3,0
		C47.3,24.2,47.3,22.8,47.3,21.4L47.3,21.4z"/>
	<path class="st2" d="M8.5,25.7c1.4,0,2.9,0,4.3,0l0,0c0,1.4,0,2.9,0,4.3c-1.4,0-2.9,0-4.3,0c0-1.2,0-2.3,0-3.5
		C8.5,26.2,8.5,25.9,8.5,25.7z"/>
	<path class="st2" d="M47.3,25.7c1.4,0,2.9,0,4.3,0c0,1.2,0,2.3,0,3.5c0,0.3,0,0.5,0,0.8c-1.4,0-2.9,0-4.3,0
		C47.3,28.5,47.3,27.1,47.3,25.7L47.3,25.7z"/>
	<path class="st4" d="M8.5,29.9c1.4,0,2.9,0,4.3,0l0,0c0,1.4,0,2.9,0,4.3l0,0c-1.4,0-2.8,0-4.2,0c-0.1,0-0.2,0-0.2-0.1
		C8.5,32.7,8.5,31.3,8.5,29.9z"/>
	<path class="st4" d="M47.3,29.9c1.4,0,2.9,0,4.3,0c0,1.2,0,2.5,0,3.7c0,0.1,0,0.3,0,0.4c0,0.1,0,0.2-0.2,0.2c-1,0-1.9,0-2.9,0
		c-0.4,0-0.9,0-1.3,0l0,0C47.3,32.8,47.3,31.4,47.3,29.9L47.3,29.9z"/>
	<path class="st0" d="M12.8,38.5c0-1.4,0-2.9,0-4.3l0,0c1.4,0,2.9,0,4.3,0c0,1.4,0,2.9,0,4.3l0,0C15.7,38.5,14.3,38.5,12.8,38.5
		C12.8,38.5,12.8,38.5,12.8,38.5z"/>
	<path class="st0" d="M47.3,34.2c0,1.4,0,2.9,0,4.3l0,0c-1.4,0-2.9,0-4.3,0l0,0c0-1.4,0-2.9,0-4.3C44.4,34.2,45.9,34.2,47.3,34.2
		L47.3,34.2z"/>
	<path class="st0" d="M8.5,42.8c0-1.2,0-2.4,0-3.7c0-0.2,0-0.3,0-0.5c0-0.1,0-0.2,0.2-0.2c0.7,0,1.4,0,2.1,0c0.7,0,1.4,0,2.1,0l0,0
		c0,1.4,0,2.9,0,4.3l0,0C11.4,42.8,10,42.8,8.5,42.8z"/>
	<path class="st1" d="M12.8,17.1c-1,0-2,0-3.1,0c-0.4,0-0.8,0-1.2,0c0-1,0-2.1,0-3.1c0-0.4,0-0.8,0-1.2l0,0c1.4,0,2.9,0,4.3,0l0,0
		C12.8,14.2,12.8,15.7,12.8,17.1z"/>
	<path class="st0" d="M47.3,38.5c1.4,0,2.7,0,4.1,0c0.2,0,0.2,0,0.2,0.2c0,1.3,0,2.6,0,3.9c0,0.1,0,0.1,0,0.2c-1.4,0-2.9,0-4.3,0
		l0,0C47.3,41.3,47.3,39.9,47.3,38.5L47.3,38.5z"/>
	<path class="st2" d="M8.5,42.8c1.4,0,2.9,0,4.3,0c0,1.4,0,2.9,0,4.3c0,0,0,0,0,0c-1.4,0-2.8,0-4.1,0c-0.1,0-0.2,0-0.2-0.2
		C8.5,45.5,8.5,44.1,8.5,42.8z"/>
	<path class="st2" d="M47.3,42.8c1.4,0,2.9,0,4.3,0c0,1.2,0,2.5,0,3.7c0,0.2,0,0.3,0,0.5c0,0.1,0,0.1-0.1,0.1c-0.7,0-1.3,0-2,0
		c-0.7,0-1.4,0-2.2,0c0,0,0,0,0,0C47.3,45.6,47.3,44.2,47.3,42.8z"/>
	<path class="st2" d="M8.5,51.3c0,1.4,0,2.8,0,4.3c-1.3,0-2.5,0-3.8,0c-0.2,0-0.4,0.1-0.5,0c-0.1-0.1,0-0.3,0-0.5c0-1.2,0-2.4,0-3.6
		c0-0.1,0-0.2,0.1-0.2C5.7,51.3,7.1,51.3,8.5,51.3z"/>
	<path class="st2" d="M51.6,55.6c0-1.4,0-2.8,0-4.3c1.2,0,2.4,0,3.6,0c0.2,0,0.3,0,0.5,0c0.1,0,0.2,0,0.2,0.2c0,1.2,0,2.4,0,3.6
		c0,0.2,0.1,0.4,0,0.5c-0.1,0.1-0.3,0-0.5,0C54.1,55.6,52.9,55.6,51.6,55.6z"/>
	<path d="M21.4,12.8c5.7,0,11.5,0,17.2,0l0,0c0,0.4,0,0.8,0,1.2c0,1,0,2.1,0,3.1c0,0.5,0,0.9,0,1.4c0,1,0,1.9,0,2.9
		c-1.4,0-2.9,0-4.3,0c0-1.4,0-2.8,0-4.1c0-0.1,0-0.2-0.2-0.2c-2.8,0-5.5,0-8.3,0c-0.1,0-0.2,0-0.2,0.2c0,1.4,0,2.8,0,4.1
		c-1.4,0-2.9,0-4.3,0c0-0.1,0-0.2,0-0.3c0-1.3,0-2.6,0-3.9c0-0.1,0-0.1,0-0.2C21.4,15.5,21.4,14.2,21.4,12.8L21.4,12.8z"/>
	<path class="st1" d="M21.4,12.8c0,1.4,0,2.7,0,4.1c0,0.1,0,0.1,0,0.2c-1.4,0-2.9,0-4.3,0l0,0c0-1.4,0-2.9,0-4.3l0,0
		C18.6,12.8,20,12.8,21.4,12.8z"/>
	<path class="st1" d="M38.7,17.1c0-1,0-2.1,0-3.1c0-0.4,0-0.8,0-1.2c1.4,0,2.9,0,4.3,0l0,0c0,1.4,0,2.9,0,4.3l0,0
		C41.6,17.1,40.1,17.1,38.7,17.1z"/>
	<path d="M38.7,51.3c-2,0-4,0-6,0c-3.7,0-7.5,0-11.2,0c0-1.4,0-2.7,0-4.1c0-0.1,0-0.2,0.2-0.2c5.6,0,11.3,0,16.9,0
		c0.1,0,0.2,0,0.2,0.2C38.7,48.6,38.7,50,38.7,51.3z"/>
	<path class="st4" d="M34.4,38.5c0,1.4,0,2.8,0,4.2c0,0.1,0,0.1-0.1,0.1c-2.8,0-5.6,0-8.4,0c-0.1,0-0.1,0-0.1-0.1c0-1.4,0-2.8,0-4.2
		l0,0C28.6,38.5,31.5,38.5,34.4,38.5L34.4,38.5z"/>
	<path class="st4" d="M25.8,38.5c-1.4,0-2.9,0-4.3,0l0,0c0-1.4,0-2.9,0-4.3c1.3,0,2.7,0,4,0c0.1,0,0.2,0,0.3,0
		C25.8,35.6,25.8,37.1,25.8,38.5L25.8,38.5z"/>
	<path class="st4" d="M38.7,38.5c-1.4,0-2.9,0-4.3,0l0,0c0-1.4,0-2.9,0-4.3c0.1,0,0.1,0,0.2,0c1.4,0,2.7,0,4.1,0
		C38.7,35.6,38.7,37.1,38.7,38.5L38.7,38.5z"/>
	<path class="st4" d="M21.4,38.5c0,1.4,0,2.8,0,4.1c0,0.1,0,0.1-0.1,0.1c-1.4,0-2.8,0-4.2,0l0,0c0-1.4,0-2.9,0-4.3l0,0
		C18.6,38.5,20,38.5,21.4,38.5L21.4,38.5z"/>
	<path class="st4" d="M43,42.8c-1.4,0-2.8,0-4.2,0c-0.1,0-0.1,0-0.1-0.1c0-1.4,0-2.8,0-4.1l0,0c1.4,0,2.9,0,4.3,0l0,0
		C43,39.9,43,41.3,43,42.8L43,42.8z"/>
	<path class="st4" d="M12.8,47.1c0-1.4,0-2.9,0-4.3l0,0c1.4,0,2.9,0,4.3,0l0,0c0,1.4,0,2.8,0,4.1c0,0.1,0,0.1-0.1,0.1
		C15.6,47.1,14.2,47.1,12.8,47.1z"/>
	<path class="st4" d="M47.3,42.8c0,1.4,0,2.9,0,4.3c-1.4,0-2.8,0-4.2,0C43,47.1,43,47,43,46.9c0-1.4,0-2.8,0-4.1l0,0
		C44.4,42.8,45.9,42.8,47.3,42.8L47.3,42.8z"/>
	<path d="M17.1,12.8c0,1.4,0,2.9,0,4.3c-0.1,0-0.1,0-0.2,0c-1.4,0-2.7,0-4.1,0l0,0c0-1.4,0-2.9,0-4.3C14.3,12.8,15.7,12.8,17.1,12.8
		z"/>
	<path d="M12.8,12.8c-1.4,0-2.9,0-4.3,0c0-1.4,0-2.7,0-4.1c0-0.1,0-0.2,0.2-0.2c1.3,0,2.6,0,4,0c0.1,0,0.2,0,0.2,0.2
		C12.8,10.1,12.8,11.4,12.8,12.8z"/>
	<path d="M43,17.1c0-1.4,0-2.9,0-4.3c1.4,0,2.9,0,4.3,0c0,1.4,0,2.9,0,4.3c0,0,0,0,0,0c-0.3,0-0.5,0-0.8,0
		C45.3,17.1,44.2,17.1,43,17.1z"/>
	<path d="M51.6,12.8c-1.4,0-2.9,0-4.3,0c0-1.4,0-2.7,0-4.1c0-0.1,0-0.2,0.2-0.2c1.3,0,2.6,0,4,0c0.1,0,0.2,0,0.2,0.2
		C51.6,10.1,51.6,11.4,51.6,12.8z"/>
	<path class="st3" d="M12.8,17.1c1.4,0,2.7,0,4.1,0c0.1,0,0.1,0,0.2,0l0,0c0,1.4,0,2.9,0,4.3c-1.4,0-2.9,0-4.3,0l0,0
		C12.8,19.9,12.8,18.5,12.8,17.1z"/>
	<path class="st3" d="M43,17.1c1.2,0,2.3,0,3.5,0c0.3,0,0.5,0,0.8,0c0,1.2,0,2.4,0,3.5c0,0.2,0,0.5,0,0.7l0,0c-1.4,0-2.9,0-4.3,0
		C43,19.9,43,18.5,43,17.1L43,17.1z"/>
	<path class="st2" d="M12.8,21.4c1.4,0,2.9,0,4.3,0l0,0c0,0.1,0,0.1,0,0.2c0,1.4,0,2.7,0,4.1c-1.4,0-2.9,0-4.3,0l0,0
		C12.8,24.2,12.8,22.8,12.8,21.4z"/>
	<path class="st2" d="M43,21.4c1.4,0,2.9,0,4.3,0c0,1.4,0,2.9,0,4.3l0,0c-1.4,0-2.9,0-4.3,0c0-0.1,0-0.3,0-0.4
		C43,23.9,43,22.7,43,21.4L43,21.4z"/>
	<path class="st4" d="M12.8,25.7c1.4,0,2.9,0,4.3,0c0,0,0,0,0,0c0,0.4,0,0.7,0,1.1c0,1.1,0,2.1,0,3.2c-0.1,0-0.1,0-0.2,0
		c-1.4,0-2.7,0-4.1,0l0,0C12.8,28.5,12.8,27.1,12.8,25.7z"/>
	<path class="st4" d="M43,25.7c1.4,0,2.9,0,4.3,0c0,1.4,0,2.9,0,4.3c0,0,0,0,0,0c-0.2,0-0.3,0-0.5,0c-1.3,0-2.6,0-3.8,0
		C43,28.5,43,27.1,43,25.7L43,25.7z"/>
	<path d="M12.8,29.9c1.4,0,2.7,0,4.1,0c0.1,0,0.1,0,0.2,0l0,0c0,0.1,0,0.1,0,0.2c0,1.4,0,2.7,0,4.1l0,0c-1.4,0-2.9,0-4.3,0
		C12.8,32.8,12.8,31.4,12.8,29.9z"/>
	<path d="M43,29.9c1.3,0,2.6,0,3.8,0c0.2,0,0.3,0,0.5,0c0,1.4,0,2.9,0,4.3c-1.4,0-2.9,0-4.3,0c0,0,0,0,0,0c0-0.4,0-0.7,0-1.1
		C43,32.1,43,31,43,29.9L43,29.9z"/>
	<path class="st2" d="M21.4,38.5c-1.4,0-2.9,0-4.3,0c0-1.4,0-2.9,0-4.3l0,0c1.4,0,2.9,0,4.3,0l0,0C21.5,35.6,21.5,37.1,21.4,38.5z"
		/>
	<path class="st2" d="M17.1,42.8c-1.4,0-2.9,0-4.3,0c0-1.4,0-2.9,0-4.3c1.4,0,2.9,0,4.3,0C17.1,39.9,17.1,41.3,17.1,42.8z"/>
	<path class="st2" d="M43,38.5c-1.4,0-2.9,0-4.3,0c0-1.4,0-2.9,0-4.3l0,0c1.4,0,2.9,0,4.3,0c0,0,0,0,0,0C43,35.6,43,37.1,43,38.5z"
		/>
	<path class="st2" d="M47.3,42.8c-1.4,0-2.9,0-4.3,0c0-1.4,0-2.9,0-4.3c1.4,0,2.9,0,4.3,0C47.3,39.9,47.3,41.3,47.3,42.8z"/>
	<path class="st0" d="M25.8,21.4c0-1.4,0-2.8,0-4.1c0-0.1,0-0.2,0.2-0.2c2.8,0,5.5,0,8.3,0c0.1,0,0.2,0,0.2,0.2c0,1.4,0,2.8,0,4.1
		l0,0C31.5,21.4,28.6,21.4,25.8,21.4L25.8,21.4z"/>
	<path class="st4" d="M17.1,21.4c0-1.4,0-2.9,0-4.3c1.4,0,2.9,0,4.3,0c0,1.3,0,2.6,0,3.9c0,0.1,0,0.2,0,0.3l0,0c0,0-0.1,0-0.1,0
		C19.9,21.4,18.5,21.4,17.1,21.4C17.1,21.4,17.1,21.4,17.1,21.4z"/>
	<path class="st4" d="M43,17.1c0,1.4,0,2.9,0,4.3l0,0c-1.3,0-2.7,0-4,0c-0.1,0-0.2,0-0.3,0l0,0c0-1,0-1.9,0-2.9c0-0.5,0-0.9,0-1.4
		C40.1,17.1,41.6,17.1,43,17.1z"/>
	<path class="st2" d="M21.5,21.4c1.4,0,2.9,0,4.3,0l0,0c0,1.4,0,2.9,0,4.3c-0.1,0-0.1,0-0.2,0c-1.4,0-2.7,0-4.1,0l0,0
		C21.4,24.2,21.4,22.8,21.5,21.4L21.5,21.4z"/>
	<path class="st2" d="M34.4,21.4c1.4,0,2.9,0,4.3,0c0,0,0,0,0,0c0,1.4,0,2.8,0,4.3l0,0c-0.3,0-0.6,0-0.9,0c-1.1,0-2.2,0-3.4,0
		C34.4,24.2,34.4,22.8,34.4,21.4L34.4,21.4z"/>
	<path class="st0" d="M34.4,34.2c0,1.4,0,2.9,0,4.3c-2.9,0-5.7,0-8.6,0c0-1.4,0-2.9,0-4.3c0,0,0,0,0,0c1.4,0,2.9,0,4.3,0
		C31.5,34.2,32.9,34.2,34.4,34.2L34.4,34.2z"/>
	<path class="st2" d="M25.8,34.2c-0.1,0-0.2,0-0.3,0c-1.3,0-2.7,0-4,0l0,0c0-1.4,0-2.9,0-4.3l0,0c0.3,0,0.7,0,1,0c1.1,0,2.2,0,3.3,0
		C25.8,31.4,25.8,32.8,25.8,34.2L25.8,34.2z"/>
	<path class="st2" d="M38.7,34.2c-1.4,0-2.7,0-4.1,0c-0.1,0-0.1,0-0.2,0c0,0,0,0,0,0c0-1.4,0-2.9,0-4.3c1.4,0,2.9,0,4.3,0l0,0
		C38.7,31.4,38.7,32.8,38.7,34.2L38.7,34.2z"/>
	<path class="st3" d="M21.4,21.4c0,1.4,0,2.8,0,4.3c-1.4,0-2.9,0-4.3,0c0,0,0,0,0,0c0-1.4,0-2.7,0-4.1c0-0.1,0-0.1,0-0.2
		c1.4,0,2.8,0,4.2,0C21.4,21.4,21.4,21.4,21.4,21.4z"/>
	<path class="st3" d="M38.7,25.6c0-1.4,0-2.8,0-4.3c0.1,0,0.2,0,0.3,0c1.3,0,2.7,0,4,0c0,1.3,0,2.6,0,3.8c0,0.1,0,0.3,0,0.4
		c0,0,0,0,0,0C41.6,25.7,40.1,25.6,38.7,25.6z"/>
	<path class="st2" d="M17.1,25.7c1.4,0,2.9,0,4.3,0l0,0c0,0.1,0,0.1,0,0.2c0,1.4,0,2.7,0,4.1l0,0c-0.9,0-1.7,0-2.6,0
		c-0.6,0-1.1,0-1.7,0l0,0c0-1.1,0-2.1,0-3.2C17.1,26.4,17.1,26,17.1,25.7z"/>
	<path class="st2" d="M38.7,25.6c1.4,0,2.9,0,4.3,0c0,1.4,0,2.9,0,4.3l0,0c-0.1,0-0.1,0-0.2,0c-1.4,0-2.7,0-4.1,0l0,0
		c0-0.1,0-0.3,0-0.4C38.7,28.2,38.7,26.9,38.7,25.6L38.7,25.6z"/>
	<path class="st0" d="M17.1,29.9c0.6,0,1.1,0,1.7,0c0.9,0,1.7,0,2.6,0c0,1.4,0,2.9,0,4.3c-1.4,0-2.9,0-4.3,0c0-1.4,0-2.7,0-4.1
		C17.1,30.1,17.1,30,17.1,29.9z"/>
	<path class="st0" d="M38.7,29.9c1.4,0,2.7,0,4.1,0c0.1,0,0.1,0,0.2,0c0,1.1,0,2.1,0,3.2c0,0.4,0,0.7,0,1.1c-1.4,0-2.9,0-4.3,0
		C38.7,32.8,38.7,31.4,38.7,29.9z"/>
	<path d="M34.4,21.4c0,1.4,0,2.9,0,4.3c0,0-0.1,0-0.1,0c-2.8,0-5.6,0-8.4,0c0,0-0.1,0-0.1,0c0-1.4,0-2.9,0-4.3
		C28.6,21.4,31.5,21.4,34.4,21.4z"/>
	<path class="st0" d="M25.8,25.6c0,0,0.1,0,0.1,0c2.8,0,5.6,0,8.4,0c0,0,0.1,0,0.1,0c1.1,0,2.2,0,3.4,0c0.3,0,0.6,0,0.9,0
		c0,1.3,0,2.6,0,3.8c0,0.1,0,0.3,0,0.4c-1.4,0-2.9,0-4.3,0c0,0-0.1,0-0.1,0c-2.8,0-5.6,0-8.4,0c0,0-0.1,0-0.1,0c-1.1,0-2.2,0-3.3,0
		c-0.3,0-0.7,0-1,0c0-1.4,0-2.7,0-4.1c0-0.1,0-0.1,0-0.2c1.4,0,2.7,0,4.1,0C25.6,25.7,25.7,25.6,25.8,25.6z"/>
	<path d="M25.8,29.9c0,0,0.1,0,0.1,0c2.8,0,5.6,0,8.4,0c0,0,0.1,0,0.1,0c0,1.4,0,2.9,0,4.3c-1.4,0-2.8,0-4.3,0c-1.4,0-2.9,0-4.3,0
		C25.8,32.8,25.8,31.4,25.8,29.9z"/>
	<g>
		<path d="M21.5,59.8c0,0,0-0.1,0-0.1c0-2.8,0-5.6,0-8.4c-1.4,0-2.8,0-4.1,0c-0.1,0-0.2,0-0.2,0.2c0,1.3,0,2.6,0,4
			c0,0.1,0,0.2-0.1,0.2c-2.8,0-5.6,0-8.4,0c0,0,0,0-0.1,0c-1.3,0-2.5,0-3.8,0c-0.2,0-0.4,0.1-0.5,0c-0.1-0.1,0-0.3,0-0.5
			c0-1.2,0-2.4,0-3.6c0-0.1,0-0.2,0.1-0.2c1.4,0,2.8,0,4.2,0c1.2,0,2.5,0,3.7,0c0.1,0,0.3,0,0.4,0c0.1,0,0.2,0,0.2-0.2
			c0-0.7,0-1.4,0-2.1c0-0.7,0-1.3,0-2c-1.4,0-2.8,0-4.1,0c-0.1,0-0.2,0-0.2-0.2c0-1.4,0-2.7,0-4.1c0-1.2,0-2.4,0-3.7
			c0-0.2,0-0.3,0-0.5c0-0.1,0-0.2,0.2-0.2c0.7,0,1.4,0,2.1,0c0.7,0,1.4,0,2.1,0c0-1.4,0-2.9,0-4.3c-1.4,0-2.8,0-4.2,0
			c-0.1,0-0.2,0-0.2-0.1c0-1.4,0-2.8,0-4.2c0-1.2,0-2.3,0-3.5c0-0.3,0-0.5,0-0.8c0-1.2,0-2.4,0-3.5c0-0.2,0-0.5,0-0.7
			c0-1.2,0-2.3,0-3.5c0-0.3,0-0.5,0-0.8c0-1,0-2.1,0-3.1c0-0.4,0-0.8,0-1.2c-1.4,0-2.9,0-4.3,0c0,11.3,0,22.7,0,34
			c0,0.2,0,0.2-0.2,0.2c-1.3,0-2.7,0-4,0c0,4.3,0,8.5,0,12.8C0,60,0,60,0.2,60c7.1,0,14.2,0,21.3,0V59.8z"/>
		<polygon points="4.2,12.8 4.2,12.8 4.2,12.8 		"/>
		<path d="M60,47.1c-1.3,0-2.6,0-3.9,0c-0.2,0-0.2,0-0.2-0.2c0-11.4,0-22.7,0-34.1c-1.4,0-2.9,0-4.3,0c0,1.4,0,2.9,0,4.3
			c0,1.2,0,2.4,0,3.6c0,0.2,0,0.4,0,0.6c0,1.3,0,2.7,0,4c0,0.1,0,0.2,0,0.3c0,1.2,0,2.3,0,3.5c0,0.3,0,0.5,0,0.8c0,1.2,0,2.5,0,3.7
			c0,0.1,0,0.3,0,0.4c0,0.1,0,0.2-0.2,0.2c-1,0-1.9,0-2.9,0c-0.4,0-0.9,0-1.3,0c0,1.4,0,2.9,0,4.3c1.4,0,2.7,0,4.1,0
			c0.2,0,0.2,0,0.2,0.2c0,1.3,0,2.6,0,3.9c0,0.1,0,0.1,0,0.2c0,1.2,0,2.5,0,3.7c0,0.2,0,0.3,0,0.5c0,0.1,0,0.1-0.1,0.1
			c-0.7,0-1.3,0-2,0c-0.7,0-1.4,0-2.2,0c0,1.4,0,2.7,0,4.1c0,0.2,0,0.2,0.2,0.2c1.3,0,2.6,0,3.9,0c0.1,0,0.1,0,0.2,0
			c1.2,0,2.4,0,3.6,0c0.2,0,0.3,0,0.5,0c0.1,0,0.2,0,0.2,0.2c0,1.2,0,2.4,0,3.6c0,0.2,0.1,0.4,0,0.5c-0.1,0.1-0.3,0-0.5,0
			c-1.3,0-2.5,0-3.8,0c-0.1,0-0.1,0-0.2,0c-2.8,0-5.5,0-8.3,0c-0.1,0-0.2,0-0.2-0.2c0-1.3,0-2.6,0-3.9c0-0.1,0-0.2-0.2-0.2
			c-1.4,0-2.8,0-4.1,0c0,2.8,0,5.6,0,8.3c0,0.1,0,0.1,0,0.1V60c7.1,0,14.1,0,21.2,0c0.1,0,0.2,0,0.2-0.2C60,55.6,60,51.3,60,47.1z"
			/>
		<polygon points="55.9,12.8 55.9,12.8 55.9,12.8 		"/>
	</g>
</g>
</svg>
