<?xml version="1.0" encoding="utf-8"?>
<!-- Generator: Adobe Illustrator 25.4.0, SVG Export Plug-In . SVG Version: 6.00 Build 0)  -->
<svg version="1.1" id="Layer_1" xmlns="http://www.w3.org/2000/svg" xmlns:xlink="http://www.w3.org/1999/xlink" x="0px" y="0px"
	 viewBox="0 0 60 60" style="enable-background:new 0 0 60 60;" xml:space="preserve">
<style type="text/css">
	.st0{fill:#B8C2FD;}
	.st1{fill:#0058F7;}
	.st2{fill:#37FDE0;}
	.st3{fill:#FED30C;}
	.st4{fill:#FE9F06;}
</style>
<g>
	<path d="M47.2,0c4.2,0,8.4,0,12.6,0C60,0,60,0.1,60,0.2c0,5.7,0,11.3,0,17c-2.8,0-5.5,0-8.3,0c-0.1,0-0.2,0-0.2,0.2
		c0,0.7,0,1.3,0,2c0,2.2,0,4.3,0,6.5c-0.7,0-1.3,0-2,0c-0.8,0-1.5,0-2.3,0c0,0,0,0,0,0c0-0.7,0-1.5,0-2.2c0-0.7,0-1.4,0-2.1
		c0-0.1,0-0.1,0-0.2c0-1.5,0-3,0-4.4c0-1.3,0-2.6,0-3.9c0-0.1,0-0.2,0.2-0.2c1.3,0,2.6,0,4,0c0.1,0,0.2,0,0.2-0.2c0-1.4,0-2.8,0-4.2
		c0,0.1,0,0.2,0,0.3c0,1.3,0,2.6,0,3.8c0,0.1,0,0.2,0.2,0.2c1.3,0,2.6,0,3.9,0c0.2,0,0.2-0.1,0.2-0.2c0-2.7,0-5.5,0-8.2
		c0-0.2,0-0.2-0.2-0.2c-1.3,0-2.6,0-3.9,0c0,0-0.1,0-0.1,0c-0.1,0-0.1,0-0.2,0c-1.4,0-2.8,0-4.2,0C47.2,2.8,47.2,1.4,47.2,0z
		 M47.2,15.1c0,0.7,0,1.3,0,2c0,0.1,0,0.2,0.2,0.2c1.3,0,2.6,0,3.9,0c0.2,0,0.2,0,0.2-0.2c0-1.3,0-2.6,0-3.9c0-0.1,0-0.2-0.2-0.2
		c-1.3,0-2.6,0-3.9,0c-0.1,0-0.2,0-0.2,0.2C47.2,13.7,47.2,14.4,47.2,15.1z"/>
	<path d="M8.4,17.2c-2.8,0-5.6,0-8.4,0c0-5.7,0-11.3,0-17C0,0.1,0,0,0.2,0c4.2,0,8.4,0,12.6,0c0,1.4,0,2.8,0,4.2l0,0
		c-1.4,0-2.8,0-4.1,0c-0.1,0-0.1,0-0.2,0c0,0-0.1,0-0.1,0c-1.4,0-2.7,0-4.1,0c-0.2,0-0.1,0.1-0.1,0.2c0,2.7,0,5.5,0,8.2
		c0,0.2,0,0.2,0.2,0.2c1.3,0,2.5,0,3.8,0c0.1,0,0.2,0,0.3,0c0.1,0,0.1,0,0.2,0c1.3,0,2.6,0,3.9,0c0.1,0,0.1,0,0.2,0c0,0-0.1,0-0.1,0
		c-1.4,0-2.7,0-4.1,0c-0.1,0-0.1,0.1-0.1,0.2C8.4,14.4,8.4,15.8,8.4,17.2L8.4,17.2z"/>
	<path d="M25.7,60c0-1.3,0-2.6,0-3.9c0-0.1,0-0.2-0.2-0.2c-1.3,0-2.6,0-4,0c-0.1,0-0.2,0-0.2-0.2c0-1.4,0-2.8,0-4.1l0,0
		c0.3,0,0.7,0,1,0c1.1,0,2.2,0,3.3,0c0,0,0.1,0,0.1,0c2.8,0,5.5,0,8.3,0c0,0,0.1,0,0.1,0c0.1,0,0.1,0,0.2,0c1.4,0,2.8,0,4.1,0l0,0
		c0,1.4,0,2.8,0,4.1c0,0.1,0,0.2-0.2,0.2c-1.3,0-2.6,0-4,0c-0.2,0-0.2,0-0.2,0.2c0,1.3,0,2.6,0,3.8"/>
	<path d="M55.8,38.7c1.4,0,2.8,0,4.2,0c0,1.4,0,2.9,0,4.3c-1.4,0-2.8,0-4.2,0l0,0C55.8,41.6,55.8,40.2,55.8,38.7L55.8,38.7z"/>
	<path d="M0,38.7c1.4,0,2.7,0,4.1,0l0,0c0,1.4,0,2.9,0,4.3l0,0c-1.4,0-2.7,0-4.1,0C0,41.6,0,40.2,0,38.7z"/>
	<path d="M55.8,43.1c0,1.4,0,2.8,0,4.1c0,0.2,0,0.2-0.2,0.2c-4.2,0-8.4,0-12.6,0c-0.1,0-0.2,0-0.2,0.2c0,1.3,0,2.6,0,4
		c0,0.1,0,0.2-0.2,0.2c-1.4,0-2.8,0-4.1,0l0,0c0-1.4,0-2.8,0-4.1c0-0.1,0-0.1,0-0.2c0,0,0-0.1,0-0.1c0-1.3,0-2.7,0-4
		c0,0,0-0.1,0-0.1c0,0,0,0,0,0c0.4,0,0.8,0,1.2,0c1,0,2.1,0,3.1,0c0.1,0,0-0.1,0-0.1c0-1.4,0-2.7,0-4.1c0,0,0-0.1,0-0.1
		c-1.4,0-2.8,0-4.3,0c0,0,0,0,0,0c0,0,0-0.1,0-0.1c0-1.3,0-2.7,0-4c0,0,0-0.1,0-0.1c0,0,0,0,0,0c0.7,0,1.4,0,2.1,0
		c0.7,0,1.4,0,2.2,0c0,0,0,0,0,0c0,0.1,0,0.2,0,0.2c0,2.6,0,5.2,0,7.8c0,0.2,0,0.3,0,0.5c0,0.1,0,0.2,0.1,0.2
		C47.3,43,51.6,43,55.8,43.1L55.8,43.1z"/>
	<path d="M21.4,51.7c-1.4,0-2.8,0-4.1,0c-0.1,0-0.2,0-0.2-0.2c0-1.3,0-2.7,0-4c0-0.1,0-0.2-0.2-0.2c-4.2,0-8.4,0-12.6,0
		c-0.1,0-0.2,0-0.2-0.2c0-1.4,0-2.8,0-4.1l0,0c4.2,0,8.5,0,12.7,0c0.1,0,0.2,0,0.3,0c1.4,0,2.9,0,4.3,0l0,0c0,0.3,0,0.6,0,0.9
		c0,1.1,0,2.3,0,3.4c0,0.1,0,0.1,0,0.2C21.4,48.9,21.4,50.3,21.4,51.7L21.4,51.7z"/>
	<path class="st0" d="M38.6,38.7C38.6,38.7,38.6,38.7,38.6,38.7c0,0.9,0,1.9,0,2.8c0,0.5,0,1,0,1.5c0,0,0,0,0,0c-0.3,0-0.5,0-0.8,0
		c-1.2,0-2.3,0-3.5,0c-0.1,0-0.1,0-0.2,0c-2.7,0-5.5,0-8.2,0c-0.1,0-0.1,0-0.2,0c-1,0-2,0-3.1,0c-0.4,0-0.8,0-1.2,0c0,0,0,0,0,0
		c0-0.1,0-0.2,0-0.4c0-1.3,0-2.6,0-4c0.2,0,0.4,0,0.7,0c1.2,0,2.4,0,3.7,0c0.1,0,0.1,0,0.2,0c2.7,0,5.4,0,8.1,0c0.2,0,0.2,0,0.2-0.2
		c0-1.3,0-2.6,0-3.9c0-0.2-0.1-0.2-0.2-0.2c-2.7,0-5.4,0-8.1,0c-0.1,0-0.1,0-0.2,0c-1,0-1.9,0-2.9,0c-0.5,0-0.9,0-1.4,0
		c0-0.1,0-0.1,0-0.2c0-1.3,0-2.6,0-3.9c0-0.1,0-0.2-0.1-0.2c-1.4,0-2.8,0-4.2,0c-1.4,0-2.9,0-4.3,0c-0.1,0-0.1,0-0.2,0
		c-1.4,0-2.8,0-4.1,0l0,0c0,0,0,0,0,0c1.4,0,2.7,0,4.1,0c0.1,0,0.2,0,0.2-0.2c0-1.3,0-2.6,0-3.9c0-0.2,0-0.2,0.2-0.2
		c1.3,0,2.6,0,3.9,0c0.2,0,0.2,0,0.2,0.2c0,1.3,0,2.6,0,3.9c0,0.1,0,0.2,0.2,0.2c1.4,0,2.8,0,4.2,0c0,0,0.1,0,0.2,0c1.3,0,2.7,0,4,0
		c0,0,0.1,0,0.1,0c2.8,0,5.6,0,8.4,0c0.1,0,0.2,0,0.2-0.2c0-1.3,0-2.6,0-3.9c0-0.1,0-0.2-0.2-0.2c-1.8,0-3.5,0-5.3,0c-1,0-2,0-3.1,0
		c0,0,0,0,0,0c0-0.1,0-0.2,0-0.2c0-1.4,0-2.7,0-4.1c2.8,0,5.6,0,8.4,0c0,0,0.1,0,0.1,0c0,0.1,0,0.1,0,0.2c0,2.6,0,5.2,0,7.8
		c0,0.2,0,0.3,0,0.5c0,0,0,0.1,0,0.1c0,0,0.1,0,0.1,0c1.3,0,2.7,0,4,0c0,0,0.1,0,0.1,0c1.4,0,2.8,0,4.1,0c0.1,0,0.1,0,0.1-0.1
		c0-1.3,0-2.6,0-4c0-0.1,0-0.1-0.1-0.1c-1.4,0-2.8,0-4.1,0c0,0,0,0,0,0c0-1.4,0-2.9,0-4.3c1.4,0,2.8,0,4.2,0c0.1,0,0.1,0,0.1-0.1
		c0-1.3,0-2.7,0-4c0-0.1,0-0.1-0.1-0.1c-1,0-2,0-3,0c-0.4,0-0.8,0-1.2,0c0-0.2,0-0.4,0-0.6c0-1.2,0-2.3,0-3.5c0-0.1,0-0.2,0-0.2
		c1.4,0,2.7,0,4.1,0c0.2,0,0.2,0,0.2-0.2c0-1.3,0-2.6,0-3.9c0-0.1,0-0.1,0-0.2c0.1,0,0.1,0,0.2,0c1.3,0,2.7,0,4,0
		c0.1,0,0.2,0,0.2-0.2c0-1.4,0-2.8,0-4.2c0,0,0,0,0,0c1.4,0,2.8,0,4.2,0c0.1,0,0.1,0,0.2,0c0,0,0,0.1,0,0.1c0,1.3,0,2.7,0,4
		c0,0,0,0.1,0,0.1c0,1.4,0,2.8,0,4.2c0,0.1,0,0.2-0.2,0.2c-1.3,0-2.6,0-4,0c-0.1,0-0.2,0-0.2,0.2c0,1.3,0,2.6,0,3.9c0,1.5,0,3,0,4.4
		c0,0.1,0,0.1,0,0.2c-0.1,0-0.1,0-0.2,0c-1.3,0-2.6,0-3.9,0c-0.2,0-0.2,0-0.2,0.2c0,1.3,0,2.6,0,3.9c0,0.2,0,0.2,0.2,0.2
		c0.8,0,1.6,0,2.4,0c0.6,0,1.2,0,1.7,0c0,0,0,0,0,0c0,1.4,0,2.9,0,4.3c0,0,0,0,0,0c-1.4,0-2.7,0-4.1,0c-0.2,0-0.2,0-0.2,0.2
		c0,1.3,0,2.7,0,4l0,0c0,0,0,0,0,0c0-1.4,0-2.8,0-4.1c0-0.1-0.1-0.1-0.2-0.1c-1.3,0-2.6,0-4,0c-0.1,0-0.2,0-0.2,0.2c0,0.7,0,1.3,0,2
		c0,0.7,0,1.4,0,2.1c0,0,0,0,0,0c0,0-0.1,0-0.1,0c-1.3,0-2.7,0-4,0c0,0-0.1,0-0.1,0c0,0,0,0.1,0,0.1c0,1.4,0,2.7,0,4.1
		c0,0,0,0.1,0,0.1c0,0,0.1,0,0.1,0c1.3,0,2.7,0,4,0C38.5,38.7,38.5,38.7,38.6,38.7z M47.2,15c0-0.7,0-1.3,0-2c0-0.1,0-0.2-0.1-0.2
		c-1.3,0-2.6,0-4,0c-0.1,0-0.2,0-0.2,0.2c0,1.3,0,2.7,0,4c0,0.1,0,0.2,0.2,0.2c1.3,0,2.6,0,3.9,0c0.1,0,0.2,0,0.2-0.2
		C47.2,16.4,47.2,15.7,47.2,15z M49.3,12.8c0.7,0,1.3,0,2,0c0.1,0,0.2,0,0.2-0.1c0-1.3,0-2.7,0-4c0-0.1,0-0.2-0.1-0.2
		c-1.3,0-2.6,0-4,0c-0.1,0-0.2,0-0.2,0.2c0,1.3,0,2.6,0,4c0,0.1,0,0.2,0.2,0.2C48,12.8,48.7,12.8,49.3,12.8z"/>
	<path class="st1" d="M51.5,8.5c0,0,0-0.1,0-0.1c0-1.3,0-2.7,0-4c0,0,0-0.1,0-0.1c0,0,0.1,0,0.1,0c1.3,0,2.6,0,3.9,0
		c0.2,0,0.2,0,0.2,0.2c0,2.7,0,5.5,0,8.2c0,0.2,0,0.2-0.2,0.2c-1.3,0-2.6,0-3.9,0c-0.1,0-0.2,0-0.2-0.2c0-1.3,0-2.6,0-3.8
		C51.5,8.8,51.5,8.6,51.5,8.5z"/>
	<path class="st2" d="M47.2,30.1c0-1.4,0-2.9,0-4.3c0.8,0,1.5,0,2.3,0c0.7,0,1.3,0,2,0l0,0c0,1.4,0,2.9,0,4.3l0,0
		c-0.7,0-1.4,0-2.1,0C48.7,30.1,47.9,30.1,47.2,30.1z"/>
	<path class="st1" d="M47.2,15.1c0-0.7,0-1.3,0-2c0-0.1,0-0.2,0.2-0.2c1.3,0,2.6,0,3.9,0c0.2,0,0.2,0,0.2,0.2c0,1.3,0,2.6,0,3.9
		c0,0.2-0.1,0.2-0.2,0.2c-1.3,0-2.6,0-3.9,0c-0.1,0-0.2,0-0.2-0.2C47.2,16.4,47.2,15.7,47.2,15.1z"/>
	<path class="st2" d="M47.2,25.8c-0.6,0-1.2,0-1.7,0c-0.8,0-1.6,0-2.4,0c-0.2,0-0.2-0.1-0.2-0.2c0-1.3,0-2.6,0-3.9
		c0-0.2,0-0.2,0.2-0.2c1.3,0,2.6,0,3.9,0c0.1,0,0.1,0,0.2,0c0,0.7,0,1.4,0,2.1C47.2,24.3,47.2,25.1,47.2,25.8z"/>
	<path d="M47.2,30.1c0.7,0,1.4,0,2.2,0c0.7,0,1.4,0,2.1,0c0,1.4,0,2.8,0,4.1c0,0.1,0,0.1,0.2,0.1c1.3,0,2.6,0,4,0
		c0.2,0,0.2,0,0.2,0.2c0,1.4,0,2.8,0,4.1l0,0c-2.8,0-5.6,0-8.4,0c-0.1,0-0.2,0-0.2-0.2c0-1.3,0-2.6,0-3.9c0-0.1,0-0.2,0-0.2
		c0-0.4,0-0.8,0-1.2C47.2,32.2,47.2,31.2,47.2,30.1C47.2,30.2,47.2,30.1,47.2,30.1z"/>
	<path d="M51.5,30.1c0-1.4,0-2.9,0-4.3c1.4,0,2.7,0,4.1,0c0.2,0,0.2,0,0.2,0.2c0,1.3,0,2.6,0,4c0,0.1,0,0.2-0.2,0.2
		C54.3,30.1,52.9,30.1,51.5,30.1z"/>
	<path d="M47.2,4.2c0,1.4,0,2.8,0,4.2c0,0.1,0,0.2-0.2,0.2c-1.3,0-2.7,0-4,0c-0.1,0-0.1,0-0.2,0c0,0-0.1,0-0.1,0c-1.3,0-2.7,0-4,0
		c0,0-0.1,0-0.1,0c0,0,0,0-0.1,0c-1.4,0-2.8,0-4.3,0c-2.9,0-5.7,0-8.6,0c0,0,0,0,0,0c0,0,0,0-0.1,0c-1.4,0-2.8,0-4.2,0
		c0,0-0.1,0-0.1,0c-0.1,0-0.1,0-0.2,0c-1.3,0-2.5,0-3.8,0c-0.1,0-0.2,0-0.3,0c-0.1,0-0.1,0-0.2,0c-1.4,0-2.8,0-4.1,0
		c0-1.4,0-2.9,0-4.3l0,0c10.2,0,20.4,0,30.6,0C44.6,4.2,45.9,4.2,47.2,4.2z"/>
	<path d="M8.4,30.1c1.4,0,2.8,0,4.1,0c0.1,0,0.1,0,0.2,0c0,0.5,0,0.9,0,1.4c0,1,0,1.9,0,2.9c0,0.1,0,0.1,0,0.2c0,1.3,0,2.6,0,3.9
		c0,0.2,0,0.2-0.2,0.2c-2.8,0-5.6,0-8.4,0l0,0c0-1.4,0-2.8,0-4.1c0-0.1,0-0.2,0.2-0.2c1.3,0,2.7,0,4,0c0.1,0,0.2,0,0.2-0.1
		C8.4,32.9,8.4,31.5,8.4,30.1z"/>
	<path d="M8.4,25.8c0-2.9,0-5.8,0-8.6l0,0c1.4,0,2.9,0,4.3,0c0,0.3,0,0.6,0,0.9c0,1.1,0,2.3,0,3.4c0,0.1,0,0.1,0,0.2
		c0,1.3,0,2.7,0,4c0,0.1,0,0.2-0.2,0.2C11.2,25.8,9.8,25.8,8.4,25.8L8.4,25.8z"/>
	<path d="M8.4,30.1C8.4,30.1,8.4,30.1,8.4,30.1c-1.4,0-2.8,0-4.1,0c-0.1,0-0.2,0-0.2-0.2c0-1.3,0-2.6,0-4c0-0.1,0-0.2,0.2-0.2
		c1.4,0,2.8,0,4.1,0l0,0c0,0.7,0,1.4,0,2.2C8.4,28.7,8.4,29.4,8.4,30.1z"/>
	<path class="st0" d="M12.7,8.6c1.4,0,2.8,0,4.1,0c0.1,0,0.1,0,0.2,0c0,0,0,0,0,0c0,1.4,0,2.8,0,4.1c0,0.1,0,0.1,0.1,0.1
		c1.4,0,2.8,0,4.2,0c0,0,0,0,0,0c0,0,0,0.1,0,0.1c0,1.3,0,2.7,0,4c0,0,0,0.1,0,0.1c0,0,0,0,0,0c-0.1,0-0.1,0-0.2,0
		c-1.4,0-2.8,0-4.1,0l0,0c0-1.4,0-2.7,0-4.1c0-0.2,0-0.2-0.2-0.2c-1.3,0-2.6,0-3.9,0c-0.1,0-0.1,0-0.2,0l0,0c0-0.1-0.1,0-0.2,0
		c-1.3,0-2.6,0-3.9,0c-0.1,0-0.1,0-0.2,0c0,0,0,0,0,0c0.1,0,0.1,0,0.2,0c1.3,0,2.6,0,4,0c0.1,0,0.2,0,0.2-0.2
		C12.7,11.3,12.7,9.9,12.7,8.6L12.7,8.6z"/>
	<path class="st1" d="M8.4,12.9C8.4,12.9,8.4,12.9,8.4,12.9c-0.1,0-0.2,0-0.3,0c-1.3,0-2.5,0-3.8,0c-0.2,0-0.2-0.1-0.2-0.2
		c0-2.7,0-5.5,0-8.2c0-0.1,0-0.2,0.1-0.2c1.4,0,2.7,0,4.1,0c0,0,0.1,0,0.1,0c0,0.3,0,0.7,0,1c0,1.1,0,2.2,0,3.3c0,1.2,0,2.5,0,3.7
		C8.4,12.5,8.4,12.7,8.4,12.9z"/>
	<path class="st0" d="M8.4,8.6c0-1.1,0-2.2,0-3.3c0-0.3,0-0.7,0-1c0.1,0,0.1,0,0.2,0c1.4,0,2.8,0,4.1,0c0,1.4,0,2.9,0,4.3l0,0
		C11.3,8.6,9.9,8.6,8.4,8.6z"/>
	<path class="st1" d="M12.7,17.2c-1.4,0-2.9,0-4.3,0c0-1.4,0-2.8,0-4.1c0-0.1,0-0.2,0.1-0.2c1.4,0,2.7,0,4.1,0c0,0,0.1,0,0.1,0
		c0,0,0,0,0,0C12.7,14.3,12.7,15.8,12.7,17.2L12.7,17.2z"/>
	<path class="st2" d="M25.7,43.1c0.1,0,0.1,0,0.2,0c2.7,0,5.5,0,8.2,0c0.1,0,0.1,0,0.2,0c0,1.4,0,2.7,0,4.1c0,0.2,0,0.2,0.2,0.2
		c0.8,0,1.7,0,2.5,0c0.5,0,1,0,1.6,0c0,0.1,0,0.1,0,0.2c0,1.4,0,2.8,0,4.1c-1.4,0-2.8,0-4.1,0c-0.1,0-0.1,0-0.2,0c0-0.1,0-0.1,0-0.2
		c0-1.3,0-2.6,0-3.9c0-0.1,0-0.2-0.2-0.2c-2.8,0-5.6,0-8.4,0l0,0C25.7,45.9,25.7,44.5,25.7,43.1z"/>
	<path class="st0" d="M25.7,47.4c2.8,0,5.6,0,8.4,0c0.2,0,0.2,0.1,0.2,0.2c0,1.3,0,2.6,0,3.9c0,0.1,0,0.1,0,0.2c0,0-0.1,0-0.1,0
		c-2.8,0-5.5,0-8.3,0c0,0-0.1,0-0.1,0C25.7,50.2,25.7,48.8,25.7,47.4z"/>
	<path class="st2" d="M25.7,47.4c0,1.4,0,2.9,0,4.3c-1.1,0-2.2,0-3.3,0c-0.3,0-0.7,0-1,0c0-1.4,0-2.8,0-4.1c0-0.1,0-0.1,0-0.2
		C22.8,47.4,24.2,47.4,25.7,47.4L25.7,47.4z"/>
	<path class="st1" d="M47.2,34.4c0,0.1,0,0.2,0,0.2c0,1.3,0,2.6,0,3.9c0,0.2,0,0.2,0.2,0.2c2.8,0,5.6,0,8.4,0c0,1.4,0,2.9,0,4.3
		c-4.3,0-8.5,0-12.8,0c-0.1,0-0.2,0-0.1-0.2c0-0.2,0-0.3,0-0.5c0-2.6,0-5.2,0-7.8c0-0.1,0-0.2,0-0.2c0,0,0,0,0,0c0.6,0,1.2,0,1.8,0
		C45.5,34.4,46.4,34.4,47.2,34.4z"/>
	<path class="st1" d="M4.1,38.7c2.8,0,5.6,0,8.4,0c0.2,0,0.2,0,0.2-0.2c0-1.3,0-2.6,0-3.9c0-0.1,0-0.1,0-0.2c1,0,1.9,0,2.9,0
		c0.5,0,0.9,0,1.4,0c0,0,0,0,0,0c0,0.1,0,0.3,0,0.4c0,1.3,0,2.6,0,3.9c0,0.1,0,0.1,0,0.2c0,1.4,0,2.8,0,4.2c-0.1,0-0.2,0-0.3,0
		c-4.2,0-8.5,0-12.7,0C4.1,41.6,4.1,40.2,4.1,38.7z"/>
	<path class="st1" d="M38.6,47.4c-0.5,0-1,0-1.6,0c-0.8,0-1.7,0-2.5,0c-0.2,0-0.2-0.1-0.2-0.2c0-1.4,0-2.7,0-4.1c1.2,0,2.3,0,3.5,0
		c0.3,0,0.5,0,0.8,0c0,0,0,0.1,0,0.1c0,1.3,0,2.7,0,4C38.6,47.3,38.6,47.3,38.6,47.4z"/>
	<path class="st1" d="M34.3,34.4c0,0,0.1,0,0.1,0c1.3,0,2.7,0,4,0c0,0,0.1,0,0.1,0c0,0,0,0.1,0,0.1c0,1.3,0,2.7,0,4c0,0,0,0.1,0,0.1
		c0,0-0.1,0-0.1,0c-1.3,0-2.7,0-4,0c0,0-0.1,0-0.1,0c0-0.7,0-1.3,0-2C34.3,36,34.3,35.2,34.3,34.4z"/>
	<path class="st3" d="M38.6,43c0-0.5,0-1,0-1.5c0-0.9,0-1.8,0-2.8c1.4,0,2.8,0,4.3,0c0,1.4,0,2.9,0,4.3c-1,0-2.1,0-3.1,0
		C39.4,43,39,43,38.6,43z"/>
	<path class="st3" d="M38.6,34.4c0-0.7,0-1.4,0-2.1c0-0.7,0-1.3,0-2c0-0.1,0-0.2,0.2-0.2c1.3,0,2.6,0,4,0c0.1,0,0.2,0,0.2,0.1
		c0,1.4,0,2.8,0,4.1c-0.7,0-1.4,0-2.2,0C40,34.4,39.3,34.4,38.6,34.4z"/>
	<path class="st0" d="M42.9,43c0-1.4,0-2.9,0-4.3c0.1,0,0,0.1,0,0.1c0,1.4,0,2.7,0,4.1C42.9,43,42.9,43,42.9,43z"/>
	<path class="st3" d="M17,43c0-1.4,0-2.8,0-4.2c0-0.1,0-0.1,0-0.2c1.4,0,2.9,0,4.3,0l0,0c0,1.3,0,2.6,0,4c0,0.1,0,0.2,0,0.4
		C19.9,43,18.5,43,17,43z"/>
	<path class="st1" d="M25.7,47.4c-1.4,0-2.9,0-4.3,0c0-1.1,0-2.3,0-3.4c0-0.3,0-0.6,0-0.9c0.4,0,0.8,0,1.2,0c1,0,2,0,3.1,0
		C25.7,44.5,25.7,45.9,25.7,47.4z"/>
	<path class="st2" d="M8.4,30.1c0-0.7,0-1.4,0-2.1c0-0.7,0-1.4,0-2.2c1.4,0,2.8,0,4.2,0c0.1,0,0.2,0,0.2-0.2c0-1.3,0-2.7,0-4
		c0-0.1,0-0.1,0-0.2c0.1,0,0.2,0,0.2,0c1.2,0,2.4,0,3.6,0c0.2,0,0.3,0,0.5,0l0,0c0,1.3,0,2.6,0,4c0,0.3,0,0.3,0.4,0.3
		c1.3,0,2.6,0,4,0c0,0,0,0,0,0c0,0.1,0,0.2,0,0.3c0,1.3,0,2.7,0,4c-1.4,0-2.8,0-4.2,0c-0.1,0-0.2-0.1-0.2-0.2c0-1.3,0-2.6,0-3.9
		c0-0.2,0-0.2-0.2-0.2c-1.3,0-2.6,0-3.9,0c-0.2,0-0.2,0-0.2,0.2c0,1.3,0,2.6,0,3.9c0,0.2-0.1,0.2-0.2,0.2
		C11.2,30.1,9.8,30.1,8.4,30.1z"/>
	<path class="st3" d="M25.7,34.4c0.1,0,0.1,0,0.2,0c2.7,0,5.4,0,8.1,0c0.2,0,0.2,0,0.2,0.2c0,1.3,0,2.6,0,3.9c0,0.2-0.1,0.2-0.2,0.2
		c-2.7,0-5.4,0-8.1,0c-0.1,0-0.1,0-0.2,0C25.7,37.3,25.7,35.9,25.7,34.4z"/>
	<path class="st3" d="M25.7,25.8c1,0,2,0,3.1,0c1.8,0,3.5,0,5.3,0c0.1,0,0.2,0,0.2,0.2c0,1.3,0,2.6,0,3.9c0,0.2-0.1,0.2-0.2,0.2
		c-2.8,0-5.6,0-8.4,0C25.7,28.7,25.7,27.3,25.7,25.8z"/>
	<path d="M38.6,21.5c0,1.4,0,2.9,0,4.3c-1.4,0-2.7,0-4.1,0c-0.2,0-0.2,0-0.2,0.2c0,1.2,0,2.4,0,3.7c0,0.2,0,0.3,0,0.5
		c0,0,0-0.1,0-0.1c0-0.2,0-0.3,0-0.5c0-2.6,0-5.2,0-7.8c0-0.1,0-0.1,0-0.2c0,0,0,0,0,0C35.7,21.5,37.1,21.5,38.6,21.5L38.6,21.5z"/>
	<path d="M38.6,17.2c0.4,0,0.8,0,1.2,0c1,0,2,0,3,0c0.1,0,0.1,0,0.1,0.1c0,1.3,0,2.7,0,4c0,0.1,0,0.1-0.1,0.1c-1.4,0-2.8,0-4.2,0
		l0,0C38.6,20.1,38.6,18.6,38.6,17.2L38.6,17.2z"/>
	<path class="st1" d="M25.7,34.4c0,1.4,0,2.9,0,4.3c-1.2,0-2.4,0-3.7,0c-0.2,0-0.4,0-0.7,0l0,0c0-0.5,0-1.1,0-1.6c0-0.9,0-1.8,0-2.7
		l0,0c0.5,0,0.9,0,1.4,0C23.7,34.4,24.7,34.4,25.7,34.4z"/>
	<path d="M21.4,25.8C21.4,25.8,21.4,25.8,21.4,25.8c0-0.1,0-0.1,0-0.2c0-1.4,0-2.7,0-4.1l0,0c1.4,0,2.8,0,4.2,0c0,0,0.1,0,0.1,0l0,0
		c0,1.4,0,2.7,0,4.1c0,0.1,0,0.2,0,0.2c-0.1,0-0.1,0-0.2,0C24.1,25.8,22.7,25.8,21.4,25.8z"/>
	<path class="st1" d="M21.4,25.8c1.4,0,2.7,0,4.1,0c0.1,0,0.1,0,0.2,0c0,0,0,0,0,0c0,1.4,0,2.9,0,4.3c0,0-0.1,0-0.1,0
		c-1.3,0-2.7,0-4,0c-0.1,0-0.1,0-0.2,0c0-1.3,0-2.7,0-4C21.4,26,21.4,25.9,21.4,25.8z"/>
	<path class="st1" d="M38.6,8.6c0,0,0.1,0,0.1,0c1.3,0,2.7,0,4,0c0,0,0.1,0,0.1,0c0,0.1,0,0.1,0,0.2c0,1.3,0,2.6,0,3.9
		c0,0.2,0,0.2-0.2,0.2c-1.4,0-2.7,0-4.1,0c0,0,0,0,0,0c0-1.4,0-2.7,0-4.1C38.6,8.7,38.6,8.6,38.6,8.6z"/>
	<path class="st1" d="M34.3,30.1c0-0.2,0-0.3,0-0.5c0-1.2,0-2.4,0-3.7c0-0.2,0-0.2,0.2-0.2c1.4,0,2.7,0,4.1,0c0,0,0,0,0,0
		c0,0.2,0,0.4,0,0.6c0,1.2,0,2.5,0,3.7c0,0-0.1,0-0.1,0c-1.3,0-2.7,0-4,0C34.4,30.1,34.3,30.1,34.3,30.1z"/>
	<path class="st2" d="M17,34.4c-0.5,0-0.9,0-1.4,0c-1,0-1.9,0-2.9,0c0-1,0-1.9,0-2.9c0-0.5,0-0.9,0-1.4c1.4,0,2.9,0,4.3,0
		c0,0.1,0,0.2,0,0.3C17,31.7,17,33.1,17,34.4z"/>
	<path class="st3" d="M17,34.4c0-1.3,0-2.7,0-4c0-0.1,0-0.2,0-0.3c1.4,0,2.8,0,4.2,0c0.1,0,0.1,0.1,0.1,0.2c0,1.3,0,2.6,0,3.9
		c0,0.1,0,0.1,0,0.2l0,0C19.9,34.4,18.5,34.4,17,34.4L17,34.4z"/>
	<path class="st2" d="M38.6,30.1c0-1.2,0-2.5,0-3.7c0-0.2,0-0.4,0-0.6c1.4,0,2.8,0,4.1,0c0.1,0,0.1,0,0.1,0.1c0,1.3,0,2.6,0,4
		c0,0.1,0,0.1-0.1,0.1C41.3,30.1,40,30.1,38.6,30.1z"/>
	<path class="st2" d="M47.2,34.4c-0.8,0-1.6,0-2.5,0c-0.6,0-1.2,0-1.8,0c0-1.3,0-2.7,0-4c0-0.2,0-0.2,0.2-0.2c1.4,0,2.7,0,4.1,0
		c0,1,0,2,0,3C47.2,33.6,47.2,34,47.2,34.4z"/>
	<path class="st4" d="M47.2,15c0,0.7,0,1.3,0,2c0,0.1,0,0.2-0.2,0.2c-1.3,0-2.6,0-3.9,0c-0.1,0-0.2,0-0.2-0.2c0-1.3,0-2.7,0-4
		c0-0.1,0-0.2,0.2-0.2c1.3,0,2.6,0,4,0c0.1,0,0.1,0,0.1,0.2C47.2,13.7,47.2,14.4,47.2,15z"/>
	<path class="st4" d="M49.3,12.8c-0.7,0-1.3,0-2,0c-0.1,0-0.2,0-0.2-0.2c0-1.3,0-2.6,0-4c0-0.1,0-0.2,0.2-0.2c1.3,0,2.6,0,4,0
		c0.1,0,0.1,0,0.1,0.2c0,1.3,0,2.7,0,4c0,0.1-0.1,0.1-0.2,0.1C50.7,12.8,50,12.8,49.3,12.8z"/>
	<path class="st3" d="M25.7,21.5C25.7,21.5,25.7,21.5,25.7,21.5C25.7,21.5,25.7,21.5,25.7,21.5c0.1,0,0.2,0,0.2,0c2.7,0,5.4,0,8.1,0
		c0.2,0,0.2,0,0.2-0.2c0-1.3,0-2.5,0-3.8c0-0.2,0-0.2-0.2-0.2c-2.8,0-5.5,0-8.3,0c-0.1,0-0.2,0-0.2,0c-1.4,0-2.7,0-4.1,0l0,0
		c0,0,0,0,0,0c1.4,0,2.9,0,4.3,0c0,0,0.1,0,0.1,0c2.7,0,5.5,0,8.2,0c0.2,0,0.2,0,0.2-0.2c0-1.3,0-2.6,0-3.9c0-0.2,0-0.2-0.2-0.2
		c-2.7,0-5.5,0-8.2,0c-0.1,0-0.1,0-0.2,0c-1.4,0-2.9,0-4.3,0c0,0,0,0,0,0c0,0,0,0,0,0c0,0,0,0,0.1,0c1.4,0,2.8,0,4.1,0
		c0,0,0.1,0,0.1,0c2.8,0,5.6,0,8.3,0c0.2,0,0.2,0,0.2-0.2c0-1.3,0-2.5,0-3.8c0-0.2,0-0.2-0.2-0.2c-2.2,0-4.4,0-6.5,0
		c-0.6,0-1.2,0-1.8,0c0,0,0,0,0,0c0,0,0,0,0,0c2.9,0,5.7,0,8.6,0c0,0.1,0,0.1,0,0.2c0,1.3,0,2.6,0,3.8c0,0.3,0,0.2,0.2,0.2
		c1.3,0,2.5,0,3.8,0c0.1,0,0.2,0,0.3,0c0,0,0,0,0,0c0,0.1,0,0.2,0,0.2c0,1.2,0,2.3,0,3.5c0,0.2,0,0.4,0,0.6c0,0,0,0,0,0
		c-0.1,0-0.1,0-0.2,0c-1.3,0-2.6,0-3.9,0c-0.1,0-0.2,0-0.2,0.2c0,1.3,0,2.6,0,3.9c0,0.1,0,0.2,0,0.3c0,0,0,0,0,0c0,0-0.1,0-0.1,0
		C31.3,21.5,28.5,21.5,25.7,21.5z M34.3,15c0,0.6,0,1.3,0,1.9c0,0.1,0,0.2,0.2,0.2c1.3,0,2.6,0,3.9,0c0.1,0,0.2,0,0.2-0.2
		c0-1.3,0-2.6,0-3.9c0-0.1,0-0.2-0.2-0.2c-1.3,0-2.6,0-3.9,0c-0.1,0-0.2,0-0.2,0.2C34.3,13.7,34.3,14.4,34.3,15z"/>
	<path d="M34.3,34.4c0,0.8,0,1.5,0,2.3c0,0.7,0,1.3,0,2c0,0,0-0.1,0-0.1c0-1.4,0-2.7,0-4.1C34.3,34.5,34.3,34.5,34.3,34.4z"/>
	<path class="st1" d="M21.4,12.9C21.4,12.9,21.4,12.9,21.4,12.9c-1.4,0-2.8,0-4.2,0c-0.1,0-0.1,0-0.1-0.1c0-1.4,0-2.8,0-4.1
		c0,0,0,0,0,0c0.1,0,0.2,0,0.3,0c1.3,0,2.5,0,3.8,0c0.1,0,0.1,0,0.2,0c0,0.1,0,0.1,0,0.2C21.4,10.1,21.4,11.5,21.4,12.9z"/>
	<path class="st0" d="M21.4,12.9c0-1.4,0-2.7,0-4.1c0-0.1,0-0.1,0-0.2c0,0,0.1,0,0.1,0c1.4,0,2.8,0,4.2,0c0,0,0,0,0.1,0c0,0,0,0,0,0
		c0,0.1,0,0.1,0,0.2c0,1.3,0,2.6,0,3.9c0,0.1,0,0.1,0,0.2c0,0-0.1,0-0.1,0C24.2,12.9,22.8,12.9,21.4,12.9
		C21.4,12.9,21.4,12.9,21.4,12.9z"/>
	<path class="st0" d="M38.6,12.9c-0.1,0-0.2,0-0.3,0c-1.3,0-2.5,0-3.8,0c-0.3,0-0.2,0-0.2-0.2c0-1.3,0-2.6,0-3.8c0-0.1,0-0.1,0-0.2
		c1.4,0,2.8,0,4.3,0c0,0,0,0,0.1,0c0,0.1,0,0.1,0,0.2C38.6,10.1,38.6,11.5,38.6,12.9z"/>
	<path class="st0" d="M17,21.5c-0.2,0-0.3,0-0.5,0c-1.2,0-2.4,0-3.6,0c-0.1,0-0.2,0-0.2,0c0-1.1,0-2.3,0-3.4c0-0.3,0-0.6,0-0.9
		c0,0,0,0,0,0c1.4,0,2.9,0,4.3,0l0,0c0,0,0,0,0,0.1C17,18.7,17,20.1,17,21.5z"/>
	<path d="M17,21.5c0-1.4,0-2.8,0-4.2c0,0,0,0,0-0.1c1.4,0,2.8,0,4.1,0c0.1,0,0.1,0,0.2,0c0,0,0,0,0,0c0,0.1,0,0.2,0,0.2
		c0,1.4,0,2.7,0,4.1l0,0C20,21.5,18.5,21.5,17,21.5C17.1,21.5,17.1,21.5,17,21.5L17,21.5z"/>
	<path class="st4" d="M8.4,8.6c1.4,0,2.9,0,4.3,0c0,1.4,0,2.8,0,4.1c0,0.1,0,0.2-0.2,0.2c-1.3,0-2.6,0-4,0c-0.1,0-0.1,0-0.2,0
		c0-0.2,0-0.4,0-0.6C8.4,11,8.4,9.8,8.4,8.6z"/>
	<path class="st4" d="M17,17.2c-1.4,0-2.9,0-4.3,0c0-1.4,0-2.9,0-4.3c0.1,0,0.1,0,0.2,0c1.3,0,2.6,0,3.9,0c0.2,0,0.2,0,0.2,0.2
		C17,14.5,17,15.8,17,17.2z"/>
	<path class="st4" d="M25.7,17.2c-1.4,0-2.9,0-4.3,0c0,0,0-0.1,0-0.1c0-1.3,0-2.7,0-4c0,0,0-0.1,0-0.1c1.4,0,2.9,0,4.3,0
		c0,0.7,0,1.5,0,2.2C25.7,15.8,25.7,16.5,25.7,17.2z"/>
	<path d="M17.1,34.4c1.4,0,2.9,0,4.3,0c0,0.9,0,1.8,0,2.7c0,0.5,0,1.1,0,1.6c-1.4,0-2.9,0-4.3,0c0-1.3,0-2.6,0-3.9
		C17,34.7,17.1,34.6,17.1,34.4z"/>
	<path class="st0" d="M17,21.5C17.1,21.5,17.1,21.5,17,21.5c1.5,0,2.9,0,4.3,0c0,1.4,0,2.7,0,4.1c0,0.1,0,0.1,0,0.2
		c-1.3,0-2.6,0-4,0c-0.4,0-0.4,0-0.4-0.3C17,24.1,17,22.8,17,21.5z"/>
	<path class="st0" d="M34.3,21.5c0-0.1,0-0.2,0-0.3c0-1.3,0-2.6,0-3.9c0-0.2,0.1-0.2,0.2-0.2c1.3,0,2.6,0,3.9,0c0.1,0,0.1,0,0.2,0
		c0,1.4,0,2.9,0,4.3C37.1,21.5,35.7,21.5,34.3,21.5z"/>
	<path class="st0" d="M21.4,21.5c0-1.4,0-2.7,0-4.1c0-0.1,0-0.2,0-0.2c1.4,0,2.7,0,4.1,0c0.1,0,0.2,0,0.2,0c0,0,0,0.1,0,0.1
		c0,1.3,0,2.7,0,4c0,0,0,0.1,0,0.1c0,0,0,0,0,0c0,0-0.1,0-0.1,0C24.2,21.5,22.8,21.5,21.4,21.5z"/>
	<path class="st4" d="M25.7,12.8c0-0.1,0-0.1,0-0.2c0-1.3,0-2.6,0-3.9c0-0.1,0-0.1,0-0.2c0.6,0,1.2,0,1.8,0c2.2,0,4.4,0,6.5,0
		c0.2,0,0.2,0,0.2,0.2c0,1.3,0,2.5,0,3.8c0,0.2-0.1,0.2-0.2,0.2C31.2,12.8,28.5,12.8,25.7,12.8z"/>
	<path class="st2" d="M25.7,17.2c0-0.7,0-1.3,0-2c0-0.7,0-1.5,0-2.2c0.1,0,0.1,0,0.2,0c2.7,0,5.5,0,8.2,0c0.2,0,0.2,0,0.2,0.2
		c0,1.3,0,2.6,0,3.9c0,0.2,0,0.2-0.2,0.2c-2.7,0-5.5,0-8.2,0C25.8,17.2,25.7,17.2,25.7,17.2z"/>
	<path class="st4" d="M25.7,21.5c0,0,0-0.1,0-0.1c0-1.3,0-2.7,0-4c0,0,0-0.1,0-0.1c2.8,0,5.5,0,8.3,0c0.2,0,0.2,0,0.2,0.2
		c0,1.3,0,2.5,0,3.8c0,0.2,0,0.2-0.2,0.2c-2.7,0-5.4,0-8.1,0C25.8,21.5,25.8,21.5,25.7,21.5z"/>
	<path class="st4" d="M34.3,15c0-0.6,0-1.3,0-1.9c0-0.1,0-0.2,0.2-0.2c1.3,0,2.6,0,3.9,0c0.1,0,0.2,0,0.2,0.2c0,1.3,0,2.6,0,3.9
		c0,0.1,0,0.2-0.2,0.2c-1.3,0-2.6,0-3.9,0c-0.1,0-0.2,0-0.2-0.2C34.3,16.3,34.3,15.7,34.3,15z"/>
</g>
</svg>
