<?xml version="1.0" encoding="utf-8"?>
<!-- Generator: Adobe Illustrator 25.4.0, SVG Export Plug-In . SVG Version: 6.00 Build 0)  -->
<svg version="1.1" id="Layer_1" xmlns="http://www.w3.org/2000/svg" xmlns:xlink="http://www.w3.org/1999/xlink" x="0px" y="0px"
	 viewBox="0 0 60 60" style="enable-background:new 0 0 60 60;" xml:space="preserve">
<style type="text/css">
	.st0{fill:#36FEDE;}
	.st1{fill:#FEA004;}
	.st2{fill:#0058F7;}
	.st3{fill:#FED30B;}
</style>
<g>
	<path d="M55.7,17c1.4,0,2.8,0,4.3,0c0,2.9,0,5.7,0,8.6c-1.4,0-2.9,0-4.3,0l0,0c0-0.3,0-0.7,0-1c0-1.1,0-2.2,0-3.2
		C55.6,19.9,55.6,18.4,55.7,17L55.7,17z"/>
	<path d="M25.5,4.1c0-1.4,0-2.7,0-4.1c2.9,0,5.7,0,8.6,0c0,1.4,0,2.7,0,4.1l0,0C31.3,4.1,28.4,4.1,25.5,4.1L25.5,4.1z"/>
	<path d="M-0.1,17c1.4,0,2.7,0,4.1,0l0,0c0,0.4,0,0.8,0,1.1c0,1.1,0,2.1,0,3.2c0,0.1,0,0.1,0,0.2c0,1.4,0,2.7,0,4.1l0,0
		c-1.4,0-2.7,0-4.1,0C-0.1,22.7-0.1,19.9-0.1,17z"/>
	<path d="M51.3,34.2c0,2.4,0,4.8,0,7.3c0,3.2,0,6.5,0,9.7c0,0.2,0,0.2-0.2,0.2c-1.4,0-2.7,0-4.1,0l0,0c0-4.1,0-8.3,0-12.4
		c0-0.2,0.1-0.4,0-0.4c-0.1-0.1-0.3,0-0.4,0c-1.3,0-2.6,0-3.8,0c0-1.4,0-2.9,0-4.3c0.4,0,0.8,0,1.2,0c1,0,2.1,0,3.1,0
		C48.5,34.2,49.9,34.2,51.3,34.2L51.3,34.2z"/>
	<path d="M55.7,25.6c0,2.8,0,5.7,0,8.5c0,0.1,0,0.1-0.2,0.1c-1.4,0-2.8,0-4.2,0l0,0c0-2.9,0-5.7,0-8.6
		C52.8,25.6,54.2,25.6,55.7,25.6C55.7,25.6,55.7,25.6,55.7,25.6z"/>
	<path d="M12.6,51.4c-1.4,0-2.8,0-4.1,0c-0.1,0-0.2,0-0.2-0.2c0-5.6,0-11.2,0-16.8c0-0.1,0-0.1,0-0.2l0,0c0.4,0,0.7,0,1.1,0
		c1.1,0,2.1,0,3.2,0c0.1,0,0.1,0,0.2,0c1.4,0,2.7,0,4.1,0c0,1.4,0,2.9,0,4.3c-0.1,0-0.1,0-0.2,0c-1.3,0-2.6,0-3.9,0
		c-0.2,0-0.2,0-0.2,0.2C12.6,42.9,12.6,47.1,12.6,51.4L12.6,51.4z"/>
	<path d="M8.3,34.2c-1.4,0-2.8,0-4.2,0C4,34.2,4,34.2,4,34c0-2.8,0-5.7,0-8.5l0,0c0.4,0,0.8,0,1.2,0c1,0,2.1,0,3.1,0
		C8.3,28.4,8.3,31.3,8.3,34.2L8.3,34.2z"/>
	<path d="M38.4,8.4c2.8,0,5.6,0,8.4,0c0.2,0,0.2,0,0.2,0.2c0,1.4,0,2.7,0,4.1l0,0c-0.4,0-0.7,0-1.1,0c-1.1,0-2.1,0-3.2,0
		c-0.1,0-0.1,0-0.2,0c-1.4,0-2.8,0-4.1,0C38.4,11.2,38.4,9.8,38.4,8.4L38.4,8.4z"/>
	<path d="M47.1,12.7c2.8,0,5.6,0,8.4,0c0.2,0,0.2,0,0.2,0.2c0,1.4,0,2.7,0,4.1l0,0c-0.4,0-0.7,0-1.1,0c-1.1,0-2.1,0-3.2,0
		c-0.1,0-0.2,0-0.2,0c-1.3,0-2.7,0-4,0C47.1,15.6,47.1,14.1,47.1,12.7L47.1,12.7z"/>
	<path d="M34.1,4.1c1.4,0,2.8,0,4.1,0c0.1,0,0.2,0,0.2,0.2c0,1.4,0,2.8,0,4.1l0,0c-1.4,0-2.9,0-4.3,0C34.1,6.9,34.1,5.5,34.1,4.1
		L34.1,4.1z"/>
	<path d="M12.6,12.7c0-1.4,0-2.8,0-4.1c0-0.1,0-0.2,0.2-0.2c2.8,0,5.6,0,8.4,0l0,0c0,1.4,0,2.9,0,4.3c-0.4,0-0.8,0-1.1,0
		c-1.1,0-2.1,0-3.2,0C15.5,12.7,14.1,12.7,12.6,12.7L12.6,12.7z"/>
	<path d="M4,17c0-1.4,0-2.8,0-4.1c0-0.1,0-0.2,0.2-0.2c2.8,0,5.6,0,8.4,0l0,0c0,1.4,0,2.9,0,4.3c-0.4,0-0.8,0-1.1,0
		c-1.1,0-2.1,0-3.2,0C6.9,17,5.4,17,4,17L4,17z"/>
	<path d="M21.2,8.4c0-1.4,0-2.8,0-4.1c0-0.1,0-0.2,0.2-0.2c1.4,0,2.7,0,4.1,0l0,0c0,1.4,0,2.9,0,4.3C24.1,8.4,22.7,8.4,21.2,8.4
		L21.2,8.4z"/>
	<path class="st0" d="M12.6,51.4c0-4.2,0-8.5,0-12.7c0-0.2,0-0.2,0.2-0.2c1.3,0,2.6,0,3.9,0c0.1,0,0.1,0,0.2,0c1.4,0,2.9,0,4.3,0
		c0.1,0,0.1,0,0.2,0c1.4,0,2.7,0,4.1,0c0,0.1,0,0.1,0,0.2c0,1.3,0,2.6,0,3.9c0,0.1,0,0.2,0.1,0.2c2.8,0,5.6,0,8.3,0
		c0.1,0,0.1-0.1,0.1-0.2c0-1.3,0-2.5,0-3.8c0-0.1,0-0.2,0-0.3c0.3,0,0.6,0,0.9,0c1.1,0,2.3,0,3.4,0c0.3,0,0.7,0,1,0
		c1.1,0,2.2,0,3.3,0c1.3,0,2.6,0,3.8,0c0.2,0,0.4-0.1,0.4,0c0.1,0.1,0,0.3,0,0.4c0,4.1,0,8.3,0,12.4c-1.4,0-2.8,0-4.2,0
		c-0.1,0-0.1,0-0.2,0c-0.1,0-0.1,0-0.2,0c-1.4,0-2.7,0-4.1,0l0,0c0-0.3,0-0.6,0-0.9c0-1.1,0-2.2,0-3.2c0-0.1,0-0.2-0.2-0.2
		c-0.2,0-0.3,0-0.5,0c-1.2,0-2.5,0-3.7,0c0,0-0.1,0-0.1,0c-2.8,0-5.6,0-8.4,0c0,0-0.1,0-0.1,0c-1.4,0-2.7,0-4.1,0
		c-0.1,0-0.2,0-0.2,0.2c0,1.4,0,2.7,0,4.1l0,0c-0.4,0-0.8,0-1.1,0c-1.1,0-2.1,0-3.2,0c-1,0-2.1,0-3.1,0C13.4,51.4,13,51.4,12.6,51.4
		z"/>
	<path class="st1" d="M16.9,51.4c1.1,0,2.1,0,3.2,0c0.4,0,0.8,0,1.1,0c0,1.4,0,2.8,0,4.1c0,0.1,0,0.2-0.2,0.2c-1.3,0-2.6,0-4,0
		c-0.2,0-0.2-0.1-0.2-0.2C16.9,54.1,16.9,52.8,16.9,51.4z"/>
	<path class="st1" d="M38.4,51.4c1.4,0,2.7,0,4.1,0c0.1,0,0.1,0,0.2,0c0,1.4,0,2.7,0,4.1c0,0.1,0,0.2-0.2,0.2c-1.3,0-2.6,0-4,0
		c-0.1,0-0.2,0-0.2-0.2C38.4,54.1,38.4,52.8,38.4,51.4z"/>
	<path class="st1" d="M34.1,47.1c1.2,0,2.5,0,3.7,0c0.2,0,0.3,0,0.5,0c0.1,0,0.2,0,0.2,0.2c0,1.1,0,2.2,0,3.2c0,0.3,0,0.6,0,0.9
		c-1.4,0-2.9,0-4.3,0l0,0C34.1,50,34.1,48.5,34.1,47.1z"/>
	<path class="st1" d="M21.2,51.4c0-1.4,0-2.7,0-4.1c0-0.1,0-0.2,0.2-0.2c1.4,0,2.7,0,4.1,0c0,1.4,0,2.8,0,4.3c0,0,0,0,0,0
		C24.1,51.4,22.7,51.4,21.2,51.4z"/>
	<path class="st1" d="M55.7,25.6c-1.4,0-2.9,0-4.3,0c-0.1,0-0.1,0-0.2,0c-1.4,0-2.7,0-4.1,0c0-1.3,0-2.5,0-3.8c0-0.2-0.1-0.4,0-0.5
		c0.1-0.1,0.3,0,0.5,0c1.3,0,2.5,0,3.8,0c0.1,0,0.1,0,0.2,0c1.4,0,2.7,0,4.1,0c0,1.1,0,2.2,0,3.2C55.7,24.9,55.7,25.2,55.7,25.6z"/>
	<path class="st2" d="M55.6,21.3c-1.4,0-2.7,0-4.1,0c-0.1,0-0.1,0-0.2,0c0-1.4,0-2.9,0-4.3c1.1,0,2.1,0,3.2,0c0.4,0,0.7,0,1.1,0
		C55.6,18.4,55.6,19.9,55.6,21.3z"/>
	<path class="st2" d="M25.5,8.4c0-1.4,0-2.9,0-4.3c2.9,0,5.7,0,8.6,0c0,1.4,0,2.9,0,4.3l0,0C31.3,8.4,28.4,8.4,25.5,8.4L25.5,8.4z"
		/>
	<path class="st1" d="M8.3,25.6c-1,0-2.1,0-3.1,0c-0.4,0-0.8,0-1.2,0c0-1.4,0-2.7,0-4.1c0-0.1,0-0.1,0-0.2c0.4,0,0.8,0,1.1,0
		c1.1,0,2.1,0,3.2,0c1.3,0,2.6,0,3.9,0c0.4,0,0.4,0,0.4,0.4c0,1.3,0,2.6,0,3.9c-0.4,0-0.8,0-1.1,0C10.4,25.6,9.4,25.6,8.3,25.6z"/>
	<path class="st2" d="M8.3,21.3c-1.1,0-2.1,0-3.2,0c-0.4,0-0.8,0-1.1,0c0-1.1,0-2.1,0-3.2c0-0.4,0-0.8,0-1.1c1.4,0,2.9,0,4.3,0
		C8.3,18.4,8.3,19.9,8.3,21.3z"/>
	<path class="st2" d="M47.1,25.6c1.4,0,2.7,0,4.1,0c0.1,0,0.1,0,0.2,0c0,2.9,0,5.7,0,8.6c-1.4,0-2.8,0-4.3,0c0-0.3,0-0.7,0-1
		c0-1.1,0-2.2,0-3.3c0-0.1,0-0.2,0-0.3C47.1,28.3,47.1,26.9,47.1,25.6z"/>
	<path class="st3" d="M47.1,29.9c0,1.1,0,2.2,0,3.3c0,0.3,0,0.7,0,1c-1,0-2.1,0-3.1,0c-0.4,0-0.8,0-1.2,0l0,0c0-1.3,0-2.6,0-3.9
		c0-0.1,0-0.2,0-0.4C44.2,29.9,45.6,29.9,47.1,29.9z"/>
	<path class="st2" d="M42.8,38.5c-1.1,0-2.2,0-3.3,0c-0.3,0-0.7,0-1,0c0-1.4,0-2.9,0-4.3c0.1,0,0.3,0,0.4,0c1.3,0,2.6,0,3.9,0l0,0
		C42.8,35.6,42.8,37.1,42.8,38.5z"/>
	<path class="st2" d="M8.3,25.6c1.1,0,2.1,0,3.2,0c0.4,0,0.8,0,1.1,0c0,0.2,0,0.4,0,0.6c0,1.2,0,2.5,0,3.7c0,0.1,0,0.1,0,0.2
		c0,1.4,0,2.7,0,4.1c-1.1,0-2.1,0-3.2,0c-0.4,0-0.7,0-1.1,0C8.3,31.3,8.3,28.4,8.3,25.6z"/>
	<path class="st3" d="M12.6,34.2c0-1.4,0-2.7,0-4.1c0-0.1,0-0.1,0-0.2c1.4,0,2.9,0,4.3,0c0,0.1,0,0.1,0,0.2c0,1.4,0,2.7,0,4.1l0,0
		c-1.4,0-2.7,0-4.1,0C12.8,34.2,12.7,34.2,12.6,34.2z"/>
	<path class="st2" d="M21.2,38.5c-1.4,0-2.9,0-4.3,0c0-1.4,0-2.9,0-4.3l0,0c0.1,0,0.1,0,0.2,0c1.4,0,2.7,0,4.1,0
		C21.2,35.6,21.2,37.1,21.2,38.5z"/>
	<path class="st2" d="M34.1,8.4c1.4,0,2.9,0,4.3,0c0,1.4,0,2.9,0,4.3l0,0c-1.4,0-2.9,0-4.3,0C34.1,11.3,34.1,9.8,34.1,8.4L34.1,8.4z
		"/>
	<path class="st2" d="M47.1,12.7c0,1.4,0,2.9,0,4.3c-1.4,0-2.9,0-4.3,0c0-1.4,0-2.9,0-4.3c1.1,0,2.1,0,3.2,0
		C46.3,12.7,46.7,12.7,47.1,12.7z"/>
	<path class="st0" d="M42.8,12.7c0,1.4,0,2.9,0,4.3l0,0c-1.4,0-2.9,0-4.3,0c0-1.4,0-2.9,0-4.3l0,0c1.4,0,2.8,0,4.1,0
		C42.6,12.7,42.7,12.7,42.8,12.7z"/>
	<path class="st0" d="M42.8,17c1.4,0,2.9,0,4.3,0c1.3,0,2.7,0,4,0c0.1,0,0.2,0,0.2,0c0,1.4,0,2.9,0,4.3c-1.3,0-2.5,0-3.8,0
		c-0.2,0-0.4-0.1-0.5,0c-0.1,0.1,0,0.3,0,0.5c0,1.3,0,2.5,0,3.8c0,1.3,0,2.7,0,4c0,0.1,0,0.2,0,0.3c-1.4,0-2.9,0-4.3,0c0,0,0,0,0,0
		c0-0.3,0-0.7,0-1c0-1.1,0-2.2,0-3.3c0-1.4,0-2.8,0-4.3C42.8,19.9,42.8,18.4,42.8,17L42.8,17z"/>
	<path class="st2" d="M12.6,17c0-1.4,0-2.9,0-4.3c1.4,0,2.9,0,4.3,0c0,1.4,0,2.9,0,4.3c-0.3,0-0.6,0-0.9,0C14.9,17,13.7,17,12.6,17z
		"/>
	<path class="st0" d="M16.9,17c0-1.4,0-2.9,0-4.3c1.1,0,2.1,0,3.2,0c0.4,0,0.8,0,1.1,0c0,0,0,0,0,0c0,1.4,0,2.9,0,4.3
		C19.8,17,18.4,17,16.9,17L16.9,17z"/>
	<path class="st2" d="M21.2,8.4c1.4,0,2.8,0,4.3,0l0,0c0,1.4,0,2.9,0,4.3c-1.4,0-2.9,0-4.3,0c0,0,0,0,0,0
		C21.2,11.2,21.2,9.8,21.2,8.4z"/>
	<path class="st0" d="M12.6,17c1.1,0,2.2,0,3.4,0c0.3,0,0.6,0,0.9,0l0,0c0,0.3,0,0.6,0,0.9c0,1.1,0,2.3,0,3.4c0,0.2,0,0.4,0,0.6
		c0,1.2,0,2.4,0,3.7c0,1.4,0,2.9,0,4.3l0,0c-1.4,0-2.9,0-4.3,0c0-1.2,0-2.5,0-3.7c0-0.2,0-0.4,0-0.6c0-1.3,0-2.6,0-3.9
		c0-0.4,0-0.4-0.4-0.4c-1.3,0-2.6,0-3.9,0c0-1.4,0-2.9,0-4.3c1.1,0,2.1,0,3.2,0C11.9,17,12.2,17,12.6,17z"/>
	<path class="st2" d="M34.1,38.5c0,0.1,0,0.2,0,0.3c0,1.3,0,2.5,0,3.8c0,0.1,0,0.2-0.1,0.2c-2.8,0-5.6,0-8.3,0
		c-0.1,0-0.1-0.1-0.1-0.2c0-1.3,0-2.6,0-3.9c0-0.1,0-0.1,0-0.2l0,0c0,0,0.1,0,0.1,0c2.8,0,5.6,0,8.4,0
		C34.1,38.5,34.1,38.5,34.1,38.5L34.1,38.5z"/>
	<path d="M25.5,51.4c0-1.4,0-2.8,0-4.3c0,0,0.1,0,0.1,0c2.8,0,5.6,0,8.4,0c0,0,0.1,0,0.1,0c0,1.4,0,2.8,0,4.3
		C31.3,51.4,28.4,51.4,25.5,51.4z"/>
	<path class="st3" d="M38.4,34.2c0,1.4,0,2.9,0,4.3c-1.1,0-2.3,0-3.4,0c-0.3,0-0.6,0-0.9,0l0,0c0-1.4,0-2.9,0-4.3
		C35.6,34.2,37,34.2,38.4,34.2z"/>
	<path class="st3" d="M21.2,38.5c0-1.4,0-2.9,0-4.3c1.4,0,2.9,0,4.3,0c0,1.4,0,2.9,0,4.3l0,0c-1.4,0-2.7,0-4.1,0
		C21.4,38.5,21.3,38.5,21.2,38.5z"/>
	<path class="st3" d="M25.5,12.7c0-1.4,0-2.9,0-4.3c2.9,0,5.7,0,8.6,0c0,1.4,0,2.9,0,4.3l0,0C31.3,12.7,28.4,12.7,25.5,12.7
		L25.5,12.7z"/>
	<path class="st1" d="M38.4,34.2c-1.4,0-2.9,0-4.3,0l0,0c0-1.2,0-2.3,0-3.5c0-0.3,0-0.6,0-0.9c0.1,0,0.1,0,0.2,0c2.7,0,5.5,0,8.2,0
		c0.1,0,0.1,0,0.2,0c0,0,0,0,0,0c0,0.1,0,0.2,0,0.4c0,1.3,0,2.6,0,3.9c-1.3,0-2.6,0-3.9,0C38.7,34.2,38.6,34.2,38.4,34.2z"/>
	<path class="st1" d="M25.5,34.2c-1.4,0-2.9,0-4.3,0c-1.4,0-2.7,0-4.1,0c-0.1,0-0.1,0-0.2,0c0-1.4,0-2.7,0-4.1c0-0.1,0-0.1,0-0.2
		c0,0,0,0,0,0c0.1,0,0.1,0,0.2,0c2,0,3.9,0,5.9,0c0.8,0,1.6,0,2.5,0c0,0.1,0,0.1,0,0.2C25.5,31.5,25.5,32.8,25.5,34.2L25.5,34.2z"/>
	<path class="st3" d="M38.4,12.7c0,1.4,0,2.9,0,4.3l0,0c-1.4,0-2.9,0-4.3,0c0-1.4,0-2.9,0-4.3l0,0C35.6,12.7,37,12.7,38.4,12.7z"/>
	<path class="st3" d="M42.8,17c0,1.4,0,2.9,0,4.3c-1.4,0-2.9,0-4.3,0l0,0c0-1.4,0-2.9,0-4.3l0,0C39.9,17,41.3,17,42.8,17z"/>
	<path d="M42.8,29.9c-0.1,0-0.1,0-0.2,0c-2.7,0-5.5,0-8.2,0c-0.1,0-0.1,0-0.2,0c0,0,0,0,0,0c0-2.9,0-5.7,0-8.6c1.4,0,2.9,0,4.3,0
		l0,0c0,1.4,0,2.7,0,4.1c0,0.1,0,0.2,0.2,0.2c1.4,0,2.7,0,4.1,0c0,1.1,0,2.2,0,3.3C42.8,29.2,42.8,29.5,42.8,29.9z"/>
	<path class="st2" d="M42.8,25.6c-1.4,0-2.7,0-4.1,0c-0.2,0-0.2,0-0.2-0.2c0-1.4,0-2.7,0-4.1c1.4,0,2.9,0,4.3,0
		C42.8,22.7,42.8,24.1,42.8,25.6z"/>
	<path class="st3" d="M16.9,21.3c0-1.1,0-2.3,0-3.4c0-0.3,0-0.6,0-0.9c1.4,0,2.9,0,4.3,0l0,0c0,1.4,0,2.9,0,4.3l0,0
		C19.8,21.3,18.4,21.3,16.9,21.3z"/>
	<path class="st3" d="M21.2,12.7c1.4,0,2.9,0,4.3,0l0,0c0,1.4,0,2.9,0,4.3c-1.4,0-2.9,0-4.3,0l0,0C21.2,15.6,21.2,14.1,21.2,12.7z"
		/>
	<path d="M25.5,29.9c-0.8,0-1.6,0-2.5,0c-2,0-3.9,0-5.9,0c-0.1,0-0.1,0-0.2,0c0-1.4,0-2.9,0-4.3c1.4,0,2.7,0,4.1,0
		c0.2,0,0.2,0,0.2-0.2c0-1.4,0-2.7,0-4.1l0,0c1.4,0,2.9,0,4.3,0C25.5,24.2,25.5,27,25.5,29.9L25.5,29.9z"/>
	<path class="st2" d="M21.2,21.3c0,1.4,0,2.7,0,4.1c0,0.1,0,0.2-0.2,0.2c-1.4,0-2.7,0-4.1,0c0-1.2,0-2.4,0-3.7c0-0.2,0-0.4,0-0.6
		C18.4,21.3,19.8,21.3,21.2,21.3z"/>
	<path d="M25.5,38.5c0-1.4,0-2.9,0-4.3c0,0,0,0,0,0c0.1,0,0.1,0,0.2,0c2.4,0,4.8,0,7.2,0c0.4,0,0.8,0,1.2,0l0,0c0,1.4,0,2.9,0,4.3
		c0,0-0.1,0-0.1,0c-2.8,0-5.6,0-8.4,0C25.6,38.5,25.6,38.5,25.5,38.5z"/>
	<path class="st0" d="M25.5,17c0-1.4,0-2.9,0-4.3c2.9,0,5.7,0,8.6,0c0,1.4,0,2.9,0,4.3l0,0C31.3,17,28.4,17,25.5,17L25.5,17z"/>
	<path class="st3" d="M34.1,34.2c-0.4,0-0.8,0-1.2,0c-2.4,0-4.8,0-7.2,0c-0.1,0-0.1,0-0.2,0c0-1.4,0-2.7,0-4.1c0-0.1,0-0.1,0-0.2
		c0,0,0,0,0,0c0,0,0.1,0,0.1,0c2.8,0,5.6,0,8.4,0c0,0,0.1,0,0.1,0c0,0,0,0,0,0c0,0.3,0,0.6,0,0.9C34.1,31.9,34.1,33,34.1,34.2z"/>
	<path class="st0" d="M38.4,21.3c-1.4,0-2.9,0-4.3,0l0,0c0-1.4,0-2.9,0-4.3l0,0c1.4,0,2.9,0,4.3,0C38.4,18.4,38.4,19.9,38.4,21.3z"
		/>
	<path class="st0" d="M34.1,29.9c0,0-0.1,0-0.1,0c-2.8,0-5.6,0-8.4,0c0,0-0.1,0-0.1,0c0-2.9,0-5.7,0-8.6l0,0c2.9,0,5.7,0,8.6,0l0,0
		C34.1,24.2,34.1,27,34.1,29.9z"/>
	<path class="st0" d="M25.5,21.3c-1.4,0-2.9,0-4.3,0c0-1.4,0-2.9,0-4.3c1.4,0,2.9,0,4.3,0l0,0C25.5,18.4,25.5,19.9,25.5,21.3
		L25.5,21.3z"/>
	<path class="st3" d="M25.5,21.3c0-1.4,0-2.9,0-4.3c2.9,0,5.7,0,8.6,0c0,1.4,0,2.9,0,4.3C31.3,21.3,28.4,21.3,25.5,21.3z"/>
	<g>
		<polygon points="47.1,51.4 47.1,51.4 47.1,51.4 		"/>
		<path d="M34.1,59.9L34.1,59.9L47.3,60c-0.2,0-0.2,0-0.2-0.2c0-2.8,0-5.6,0-8.4c-1.4,0-2.8,0-4.2,0c-0.1,0-0.1,0-0.2,0
			c0,1.4,0,2.7,0,4.1c0,0.1,0,0.2-0.2,0.2c-1.3,0-2.6,0-4,0c-0.1,0-0.2,0-0.2-0.2c0-1.4,0-2.8,0-4.1c-1.4,0-2.9,0-4.3,0
			C34.1,54.2,34.1,57,34.1,59.9C34.1,59.8,34.1,59.9,34.1,59.9z"/>
		<polygon points="38.4,51.4 38.4,51.4 38.4,51.4 		"/>
		<path d="M25.5,59.9C25.5,59.9,25.5,59.8,25.5,59.9c0-2.9,0-5.7,0-8.5c-1.4,0-2.8,0-4.3,0c0,1.4,0,2.8,0,4.1c0,0.1,0,0.2-0.2,0.2
			c-1.3,0-2.6,0-4,0c-0.2,0-0.2-0.1-0.2-0.2c0-1.4,0-2.7,0-4.1c-1,0-2.1,0-3.1,0c-0.4,0-0.8,0-1.2,0c0,2.8,0,5.6,0,8.4
			c0,0.1,0,0.2-0.1,0.2l13,0V59.9z"/>
		<polygon points="12.6,51.4 12.6,51.4 12.6,51.4 		"/>
		<polygon points="21.2,51.4 21.2,51.4 21.2,51.4 		"/>
	</g>
</g>
</svg>
