<?xml version="1.0" encoding="utf-8"?>
<!-- Generator: Adobe Illustrator 25.4.0, SVG Export Plug-In . SVG Version: 6.00 Build 0)  -->
<svg version="1.1" id="Layer_1" xmlns="http://www.w3.org/2000/svg" xmlns:xlink="http://www.w3.org/1999/xlink" x="0px" y="0px"
	 viewBox="0 0 60 60" style="enable-background:new 0 0 60 60;" xml:space="preserve">
<style type="text/css">
	.st0{fill:#0058F7;}
	.st1{fill:#36FEDE;}
	.st2{fill:#FED30B;}
	.st3{fill:#B8C2FE;}
	.st4{fill:#FEA004;}
</style>
<g>
	<path d="M0,55.7C0,50,0,44.2,0,38.5c5.7,0,11.4,0,17.1,0c0,1.4,0,2.9,0,4.3c-0.4,0-0.8,0-1.2,0c-1,0-2.1,0-3.1,0
		c-0.4,0-0.8,0-1.2,0c-1,0-2.1,0-3.1,0c-1.3,0-2.5,0-3.8,0c-0.2,0-0.4-0.1-0.5,0c-0.1,0.1,0,0.3,0,0.5c0,1.3,0,2.5,0,3.8
		c0,0.5,0,1.1,0,1.6c0,0.8,0,1.7,0,2.5c0,0.1,0,0.1,0.1,0.1c0.2,0,0.3,0,0.5,0c1.2,0,2.5,0,3.7,0c0.2,0,0.4,0,0.6,0
		c1.2,0,2.5,0,3.7,0c0.3,0,0.5,0,0.8,0c1.2,0,2.4,0,3.6,0c0.1,0,0.1,0,0.2,0c1.4,0,2.7,0,4.1,0c0,0.1,0,0.1,0,0.2c0,1.4,0,2.7,0,4.1
		l0,0c-0.1,0-0.1,0-0.2,0C14.1,55.7,7.1,55.7,0,55.7z"/>
	<path d="M60,38.5c0,5.7,0,11.5,0,17.2c-6,0-11.9,0-17.9,0c-1.2,0-2.3,0-3.5,0l0,0c0-0.3,0-0.6,0-0.9c0-1.1,0-2.2,0-3.4
		c0.4,0,0.7,0,1.1,0c1.1,0,2.1,0,3.2,0c0.3,0,0.5,0,0.8,0c1.2,0,2.4,0,3.5,0c0.2,0,0.4,0,0.7,0c1.2,0,2.4,0,3.6,0c1.3,0,2.5,0,3.8,0
		c0.2,0,0.4,0.1,0.5,0c0.1-0.1,0-0.3,0-0.5c0-1.3,0-2.5,0-3.8c0-0.2,0-0.5,0-0.7c0-1.2,0-2.3,0-3.5c0-0.1,0-0.2-0.2-0.2
		c-0.2,0-0.3,0-0.5,0c-1.2,0-2.5,0-3.7,0c-0.4,0-0.8,0-1.1,0c-1,0-2.1,0-3.1,0c-0.1,0-0.1,0-0.2,0c-1.4,0-2.8,0-4.1,0
		c0-1.4,0-2.9,0-4.3C48.6,38.5,54.3,38.5,60,38.5z"/>
	<path d="M17.1,29.9c-2.7,0-5.4,0-8.1,0c-3,0-6,0-9,0c0-4.3,0-8.6,0-12.9c2.8,0,5.6,0,8.5,0l0,0c0,1.4,0,2.9,0,4.3
		c-1.4,0-2.8,0-4.2,0c-0.1,0-0.2,0-0.2,0.2c0,0.6,0,1.2,0,1.8c0,0.7,0,1.4,0,2.2c0,0.1,0,0.2,0.2,0.2c0.1,0,0.3,0,0.4,0
		c1.2,0,2.5,0,3.7,0c0.4,0,0.8,0,1.1,0c1.1,0,2.1,0,3.2,0c0.1,0,0.1,0,0.2,0c1.4,0,2.7,0,4.1,0C17.1,27,17.1,28.4,17.1,29.9
		L17.1,29.9z"/>
	<path d="M60,29.9c-5.6,0-11.2,0-16.9,0c-0.1,0-0.1,0-0.2,0l0,0c0-1.4,0-2.9,0-4.3c0.4,0,0.7,0,1.1,0c1.1,0,2.1,0,3.2,0
		c0.2,0,0.5,0,0.7,0c1.2,0,2.4,0,3.6,0c1.4,0,2.8,0,4.2,0c0.1,0,0.1-0.1,0.1-0.2c0-1.3,0-2.6,0-4c0-0.1,0-0.2-0.2-0.2
		c-1.4,0-2.8,0-4.1,0c0-1.4,0-2.9,0-4.3l0,0c2.8,0,5.6,0,8.5,0C60,21.3,60,25.6,60,29.9z"/>
	<path d="M38.6-0.2c0,1.4,0,2.8,0,4.2l0,0c-1.4,0-2.8,0-4.2,0c-0.1,0-0.2,0.1-0.2,0.2c0,1.3,0,2.7,0,4c0,0.1,0,0.1,0,0.2
		c0,0-0.1,0-0.1,0c-2.8,0-5.6,0-8.4,0c0,0-0.1,0-0.1,0c0,0,0,0,0,0c0-1.4,0-2.8,0-4.2C25.7,4,25.6,4,25.5,4c-1.4,0-2.8,0-4.1,0l0,0
		c0-1.4,0-2.8,0-4.2C27.1-0.2,32.9-0.2,38.6-0.2z"/>
	<path d="M38.6,55.7c0,1.4,0,2.9,0,4.3c-5.7,0-11.5,0-17.2,0c0-1.4,0-2.9,0-4.3l0,0c0.4,0,0.7,0,1.1,0c1.1,0,2.1,0,3.2,0
		c0,0,0.1,0,0.1,0c2.8,0,5.6,0,8.4,0c0,0,0.1,0,0.1,0C35.8,55.7,37.2,55.7,38.6,55.7L38.6,55.7z"/>
	<path d="M12.8,8.3c0-1.4,0-2.8,0-4.1c0-0.1,0-0.2,0.2-0.2c2.8,0,5.6,0,8.5,0l0,0c0,1.4,0,2.9,0,4.3C18.5,8.3,15.7,8.3,12.8,8.3
		L12.8,8.3z"/>
	<path d="M8.5,17c0-2.8,0-5.6,0-8.4c0-0.2,0-0.2,0.2-0.2c1.4,0,2.8,0,4.1,0l0,0c0,2.9,0,5.8,0,8.6C11.3,17,9.9,17,8.5,17L8.5,17z"/>
	<path d="M38.6,4c2.8,0,5.6,0,8.4,0c0.2,0,0.2,0,0.2,0.2c0,1.4,0,2.8,0,4.1l0,0c-2.9,0-5.8,0-8.6,0C38.6,6.9,38.6,5.5,38.6,4L38.6,4
		z"/>
	<path d="M47.3,8.3c1.4,0,2.7,0,4.1,0c0.1,0,0.2,0,0.2,0.2c0,2.8,0,5.6,0,8.5l0,0c-1.4,0-2.9,0-4.3,0C47.3,14.1,47.3,11.2,47.3,8.3
		L47.3,8.3z"/>
	<path class="st0" d="M42.9,38.5c0,1.4,0,2.9,0,4.3l0,0c-0.4,0-0.7,0-1.1,0c-1.1,0-2.2,0-3.2,0c0,0-0.1,0-0.1,0c-1.4,0-2.8,0-4.2,0
		c0,0-0.1,0-0.1,0c-2.8,0-5.6,0-8.4,0c0,0-0.1,0-0.1,0c-0.3,0-0.6,0-0.9,0c-1.1,0-2.2,0-3.3,0c-1.4,0-2.9,0-4.3,0l0,0
		c0-1.4,0-2.9,0-4.3c0,0,0,0,0,0c0.4,0,0.8,0,1.1,0c1.1,0,2.1,0,3.2,0c0.1,0,0.2,0,0.3,0c1.3,0,2.6,0,3.9,0c0,0,0.1,0,0.1,0
		c2.8,0,5.6,0,8.4,0c0,0,0.1,0,0.1,0c0.3,0,0.5,0,0.8,0c1.2,0,2.4,0,3.5,0c0.1,0,0.1,0,0.2,0C40.2,38.5,41.6,38.5,42.9,38.5
		L42.9,38.5z"/>
	<path class="st0" d="M25.7,55.7c-1.1,0-2.1,0-3.2,0c-0.4,0-0.7,0-1.1,0c0-1.4,0-2.7,0-4.1c0-0.1,0-0.1,0-0.2c0-1.4,0-2.9,0-4.3l0,0
		c1.4,0,2.9,0,4.3,0l0,0c0,0.3,0,0.7,0,1c0,1.1,0,2.2,0,3.3c0,0.1,0,0.1,0,0.2C25.7,53,25.7,54.3,25.7,55.7z"/>
	<path class="st1" d="M12.8,42.8c1,0,2.1,0,3.1,0c0.4,0,0.8,0,1.2,0l0,0c0,0.2,0,0.3,0,0.5c0,1.3,0,2.5,0,3.8l0,0
		c-1.4,0-2.9,0-4.3,0l0,0C12.8,45.7,12.8,44.3,12.8,42.8z"/>
	<path class="st2" d="M12.8,42.8c0,1.4,0,2.9,0,4.3c-1.4,0-2.9,0-4.3,0l0,0c0-1.4,0-2.9,0-4.3c1,0,2.1,0,3.1,0
		C12,42.8,12.4,42.8,12.8,42.8z"/>
	<path class="st1" d="M8.5,42.8c0,1.4,0,2.9,0,4.3c-1.4,0-2.9,0-4.3,0c0-1.3,0-2.5,0-3.8c0-0.2-0.1-0.4,0-0.5c0.1-0.1,0.3,0,0.5,0
		C5.9,42.8,7.2,42.8,8.5,42.8z"/>
	<path class="st0" d="M4.2,47.1c1.4,0,2.9,0,4.3,0c0,0,0,0,0,0c0,1.4,0,2.9,0,4.3c-1.2,0-2.5,0-3.7,0c-0.2,0-0.3,0-0.5,0
		c-0.1,0-0.1,0-0.1-0.1c0-0.8,0-1.7,0-2.5C4.1,48.2,4.1,47.7,4.2,47.1z"/>
	<path class="st3" d="M8.5,51.4c0-1.4,0-2.9,0-4.3c1.4,0,2.9,0,4.3,0l0,0c0,0.1,0,0.1,0,0.2c0,1.4,0,2.7,0,4.1c-1.2,0-2.5,0-3.7,0
		C8.9,51.4,8.7,51.4,8.5,51.4z"/>
	<path class="st0" d="M12.8,51.4c0-1.4,0-2.7,0-4.1c0-0.1,0-0.1,0-0.2c1.4,0,2.9,0,4.3,0c0,0.1,0,0.1,0,0.2c0,1.4,0,2.7,0,4.1
		c-1.2,0-2.4,0-3.6,0C13.3,51.4,13,51.4,12.8,51.4z"/>
	<path class="st3" d="M17.1,51.4c0-1.4,0-2.7,0-4.1c0-0.1,0-0.1,0-0.2l0,0c1.4,0,2.9,0,4.3,0c0,1.4,0,2.9,0,4.3c-1.4,0-2.7,0-4.1,0
		C17.2,51.4,17.2,51.4,17.1,51.4z"/>
	<path class="st0" d="M38.6,55.7c-1.4,0-2.9,0-4.3,0c0-0.3,0-0.7,0-1c0-1.1,0-2.2,0-3.3c0-1.4,0-2.9,0-4.3l0,0c1.4,0,2.9,0,4.3,0
		l0,0c0,0.3,0,0.6,0,1c0,1.1,0,2.2,0,3.3c0,1.1,0,2.2,0,3.4C38.6,55.1,38.6,55.4,38.6,55.7z"/>
	<path class="st1" d="M51.5,42.8c1.2,0,2.5,0,3.7,0c0.2,0,0.3,0,0.5,0c0.1,0,0.2,0,0.2,0.2c0,1.2,0,2.3,0,3.5c0,0.2,0,0.5,0,0.7
		c-1.4,0-2.9,0-4.3,0C51.5,45.7,51.5,44.3,51.5,42.8z"/>
	<path class="st1" d="M42.9,42.8c1.4,0,2.8,0,4.1,0c0.1,0,0.1,0,0.2,0c0,1.4,0,2.9,0,4.3c-1.4,0-2.9,0-4.3,0l0,0c0-0.1,0-0.1,0-0.2
		C42.9,45.6,42.9,44.2,42.9,42.8L42.9,42.8z"/>
	<path class="st2" d="M47.3,47.1c0-1.4,0-2.9,0-4.3c1,0,2.1,0,3.1,0c0.4,0,0.8,0,1.1,0c0,1.4,0,2.9,0,4.3l0,0
		C50.1,47.1,48.7,47.1,47.3,47.1L47.3,47.1z"/>
	<path class="st3" d="M38.6,51.4c0-1.1,0-2.2,0-3.3c0-0.3,0-0.6,0-1c1.4,0,2.9,0,4.3,0l0,0c0,0.1,0,0.1,0,0.2c0,1.4,0,2.7,0,4.1
		c-1.1,0-2.1,0-3.2,0C39.4,51.4,39,51.4,38.6,51.4z"/>
	<path class="st0" d="M42.9,51.4c0-1.4,0-2.7,0-4.1c0-0.1,0-0.1,0-0.2c1.4,0,2.9,0,4.3,0l0,0c0,1.4,0,2.9,0,4.3c-1.2,0-2.4,0-3.5,0
		C43.5,51.4,43.2,51.4,42.9,51.4z"/>
	<path class="st0" d="M51.5,47.1c1.4,0,2.9,0,4.3,0c0,1.3,0,2.5,0,3.8c0,0.2,0.1,0.4,0,0.5c-0.1,0.1-0.3,0-0.5,0c-1.3,0-2.5,0-3.8,0
		C51.5,50,51.5,48.6,51.5,47.1L51.5,47.1z"/>
	<path class="st3" d="M51.5,47.1c0,1.4,0,2.9,0,4.3c-1.2,0-2.4,0-3.6,0c-0.2,0-0.4,0-0.7,0c0-1.4,0-2.9,0-4.3
		C48.7,47.1,50.1,47.1,51.5,47.1z"/>
	<path d="M21.4,38.5c-1.1,0-2.1,0-3.2,0c-0.4,0-0.8,0-1.1,0c0-2.9,0-5.8,0-8.6l0,0c0.4,0,0.8,0,1.1,0c1.1,0,2.1,0,3.2,0
		c0.2,0,0.4,0,0.6,0c1.2,0,2.4,0,3.6,0c0,1.4,0,2.9,0,4.3l0,0c-1.4,0-2.8,0-4.1,0c-0.1,0-0.1,0-0.1,0.2
		C21.4,35.7,21.4,37.1,21.4,38.5z"/>
	<path d="M42.9,38.5c-1.4,0-2.7,0-4.1,0c-0.1,0-0.1,0-0.2,0c0-1.4,0-2.8,0-4.2c0-0.1,0-0.2-0.1-0.2c-1.4,0-2.8,0-4.2,0l0,0
		c0-1.4,0-2.9,0-4.3c0.2,0,0.5,0,0.7,0c1.2,0,2.4,0,3.6,0c1.4,0,2.9,0,4.3,0l0,0C42.9,32.8,42.9,35.6,42.9,38.5z"/>
	<path class="st0" d="M21.4,29.9c-1.1,0-2.1,0-3.2,0c-0.4,0-0.8,0-1.1,0c0-1.4,0-2.9,0-4.3l0,0c1.4,0,2.9,0,4.3,0
		C21.4,27,21.4,28.4,21.4,29.9z"/>
	<path class="st0" d="M8.5,17c1.4,0,2.9,0,4.3,0l0,0c0,1.4,0,2.9,0,4.3l0,0c-1.4,0-2.9,0-4.3,0l0,0C8.5,19.8,8.5,18.4,8.5,17z"/>
	<path class="st0" d="M8.5,25.6c-1.2,0-2.5,0-3.7,0c-0.1,0-0.3,0-0.4,0c-0.1,0-0.2,0-0.2-0.2c0-0.7,0-1.4,0-2.2c0-0.6,0-1.2,0-1.8
		c0-0.1,0-0.2,0.2-0.2c1.4,0,2.8,0,4.2,0l0,0C8.5,22.7,8.5,24.1,8.5,25.6z"/>
	<path class="st4" d="M8.5,25.6c0-1.4,0-2.8,0-4.3c1.4,0,2.9,0,4.3,0c0,1.4,0,2.9,0,4.3c-1.1,0-2.1,0-3.2,0
		C9.2,25.6,8.8,25.6,8.5,25.6z"/>
	<path class="st0" d="M12.8,25.6c0-1.4,0-2.9,0-4.3l0,0c1.4,0,2.9,0,4.3,0c0,1.4,0,2.9,0,4.3l0,0c-1.4,0-2.7,0-4.1,0
		C12.9,25.6,12.8,25.6,12.8,25.6z"/>
	<path class="st0" d="M42.9,29.9c-1.4,0-2.9,0-4.3,0c0-1.4,0-2.9,0-4.3c1.4,0,2.9,0,4.3,0l0,0C42.9,27,42.9,28.4,42.9,29.9z"/>
	<path class="st0" d="M47.3,17c1.4,0,2.9,0,4.3,0c0,1.4,0,2.9,0,4.3l0,0c-1.4,0-2.9,0-4.3,0l0,0C47.3,19.8,47.3,18.4,47.3,17
		L47.3,17z"/>
	<path class="st0" d="M51.5,21.3c1.4,0,2.8,0,4.1,0c0.1,0,0.2,0,0.2,0.2c0,1.3,0,2.6,0,4c0,0.1,0,0.2-0.1,0.2c-1.4,0-2.8,0-4.2,0
		C51.5,24.1,51.5,22.7,51.5,21.3L51.5,21.3z"/>
	<path class="st0" d="M47.3,25.6c-1.1,0-2.1,0-3.2,0c-0.4,0-0.7,0-1.1,0l0,0c0-1.4,0-2.9,0-4.3c1.4,0,2.9,0,4.3,0l0,0
		C47.3,22.7,47.3,24.1,47.3,25.6z"/>
	<path class="st4" d="M47.3,25.6c0-1.4,0-2.9,0-4.3c1.4,0,2.9,0,4.3,0c0,1.4,0,2.8,0,4.3c-1.2,0-2.4,0-3.6,0
		C47.7,25.6,47.5,25.6,47.3,25.6z"/>
	<path class="st3" d="M25.7,8.3c0,0,0.1,0,0.1,0c2.8,0,5.6,0,8.4,0c0,0,0.1,0,0.1,0c0,0,0,0,0,0c0,1.4,0,2.9,0,4.3c0,0-0.1,0-0.1,0
		c-2.8,0-5.6,0-8.4,0c0,0-0.1,0-0.1,0C25.7,11.2,25.7,9.8,25.7,8.3C25.7,8.3,25.7,8.3,25.7,8.3z"/>
	<path class="st0" d="M38.6,4c0,1.4,0,2.9,0,4.3l0,0c-1.4,0-2.9,0-4.3,0c0,0,0,0,0,0c0-0.1,0-0.1,0-0.2c0-1.3,0-2.7,0-4
		c0-0.1,0-0.2,0.2-0.2C35.9,4,37.2,4,38.6,4z"/>
	<path class="st0" d="M21.4,8.3c0-1.4,0-2.9,0-4.3c1.4,0,2.8,0,4.1,0c0.1,0,0.1,0,0.1,0.1c0,1.4,0,2.8,0,4.2c0,0,0,0,0,0
		c0,0,0,0,0,0C24.3,8.3,22.8,8.3,21.4,8.3L21.4,8.3z"/>
	<path class="st1" d="M34.3,51.4c0,1.1,0,2.2,0,3.3c0,0.3,0,0.7,0,1c0,0-0.1,0-0.1,0c-2.8,0-5.6,0-8.4,0c0,0-0.1,0-0.1,0
		c0-1.4,0-2.7,0-4.1c0-0.1,0-0.1,0-0.2C28.6,51.4,31.4,51.4,34.3,51.4z"/>
	<path class="st0" d="M12.8,17c0-2.9,0-5.8,0-8.6c2.9,0,5.8,0,8.6,0l0,0c0,1.4,0,2.9,0,4.3l0,0c-1.4,0-2.8,0-4.2,0
		c-0.1,0-0.1,0-0.1,0.1c0,1.4,0,2.8,0,4.2C15.7,17,14.2,17,12.8,17L12.8,17z"/>
	<path class="st0" d="M47.3,8.3c0,2.9,0,5.8,0,8.6l0,0c-1.4,0-2.9,0-4.3,0c0-1.4,0-2.8,0-4.1c0-0.1,0-0.2-0.2-0.2
		c-1.4,0-2.8,0-4.1,0l0,0c0-1.4,0-2.9,0-4.3l0,0C41.5,8.3,44.4,8.3,47.3,8.3z"/>
	<path class="st2" d="M25.7,42.8c0,0,0.1,0,0.1,0c2.8,0,5.6,0,8.4,0c0,0,0.1,0,0.1,0c0,1.4,0,2.9,0,4.3l0,0c-2.9,0-5.8,0-8.6,0l0,0
		C25.7,45.7,25.7,44.3,25.7,42.8z"/>
	<path d="M34.3,38.5c0,0-0.1,0-0.1,0c-2.8,0-5.6,0-8.4,0c0,0-0.1,0-0.1,0c0-1.4,0-2.9,0-4.3l0,0c2.9,0,5.8,0,8.6,0l0,0
		C34.3,35.6,34.3,37.1,34.3,38.5z"/>
	<path class="st2" d="M21.4,47.1c-1.4,0-2.9,0-4.3,0c0-1.3,0-2.5,0-3.8c0-0.2,0-0.3,0-0.5c1.4,0,2.9,0,4.3,0
		C21.4,44.3,21.4,45.7,21.4,47.1L21.4,47.1z"/>
	<path class="st2" d="M42.9,47.1c-1.4,0-2.9,0-4.3,0l0,0c0-1.4,0-2.9,0-4.3c1.1,0,2.2,0,3.2,0c0.4,0,0.7,0,1.1,0c0,1.4,0,2.7,0,4.1
		C42.9,47,42.9,47.1,42.9,47.1z"/>
	<path class="st1" d="M38.6,42.8c0,1.4,0,2.9,0,4.3c-1.4,0-2.9,0-4.3,0c0-1.4,0-2.9,0-4.3c1.4,0,2.8,0,4.2,0
		C38.6,42.8,38.6,42.8,38.6,42.8z"/>
	<path class="st2" d="M34.3,38.5c0-1.4,0-2.9,0-4.3c1.4,0,2.8,0,4.2,0c0.1,0,0.1,0,0.1,0.2c0,1.4,0,2.8,0,4.2c-1.2,0-2.4,0-3.5,0
		C34.8,38.5,34.6,38.5,34.3,38.5z"/>
	<path class="st1" d="M21.4,47.1c0-1.4,0-2.9,0-4.3c1.1,0,2.2,0,3.3,0c0.3,0,0.6,0,0.9,0c0,1.4,0,2.9,0,4.3
		C24.3,47.1,22.8,47.1,21.4,47.1z"/>
	<path class="st2" d="M25.7,34.2c0,1.4,0,2.9,0,4.3c-1.3,0-2.6,0-3.9,0c-0.1,0-0.2,0-0.3,0c0-1.4,0-2.8,0-4.2c0-0.1,0-0.2,0.1-0.2
		C22.9,34.2,24.3,34.2,25.7,34.2z"/>
	<path class="st3" d="M25.7,47.1c2.9,0,5.8,0,8.6,0c0,1.4,0,2.9,0,4.3c-2.9,0-5.7,0-8.6,0c0-1.1,0-2.2,0-3.3
		C25.7,47.8,25.7,47.5,25.7,47.1z"/>
	<path class="st3" d="M38.6,25.6c0,1.4,0,2.9,0,4.3c-1.2,0-2.4,0-3.6,0c-0.2,0-0.5,0-0.7,0c0,0-0.1,0-0.1,0c-2.8,0-5.6,0-8.4,0
		c0,0-0.1,0-0.1,0c-1.2,0-2.4,0-3.6,0c-0.2,0-0.4,0-0.6,0c0-1.4,0-2.9,0-4.3l0,0c0.3,0,0.7,0,1,0c1.1,0,2.2,0,3.3,0c0,0,0.1,0,0.1,0
		c2.8,0,5.6,0,8.4,0c0,0,0.1,0,0.1,0c0.1,0,0.1,0,0.2,0C35.9,25.6,37.3,25.6,38.6,25.6L38.6,25.6z"/>
	<path class="st0" d="M25.7,29.9c0,0,0.1,0,0.1,0c2.8,0,5.6,0,8.4,0c0,0,0.1,0,0.1,0c0,1.4,0,2.9,0,4.3c-2.9,0-5.8,0-8.6,0
		C25.7,32.8,25.7,31.3,25.7,29.9z"/>
	<path class="st4" d="M17.1,25.6c0-1.4,0-2.9,0-4.3l0,0c1.4,0,2.9,0,4.3,0c0,1.4,0,2.9,0,4.3l0,0C20,25.6,18.5,25.6,17.1,25.6z"/>
	<path class="st4" d="M12.8,17c1.4,0,2.9,0,4.3,0l0,0c0,1.4,0,2.9,0,4.3l0,0c-1.4,0-2.9,0-4.3,0C12.8,19.8,12.8,18.4,12.8,17z"/>
	<path class="st4" d="M42.9,21.3c0,1.4,0,2.9,0,4.3c-1.4,0-2.9,0-4.3,0l0,0c0-1.4,0-2.9,0-4.3C40.1,21.3,41.5,21.3,42.9,21.3
		L42.9,21.3z"/>
	<path class="st4" d="M42.9,17c1.4,0,2.9,0,4.3,0c0,1.4,0,2.9,0,4.3c-1.4,0-2.9,0-4.3,0l0,0C42.9,19.8,42.9,18.4,42.9,17L42.9,17z"
		/>
	<path class="st0" d="M25.7,12.6c0,0,0.1,0,0.1,0c2.8,0,5.6,0,8.4,0c0,0,0.1,0,0.1,0c0.1,0,0.1,0,0.2,0c1.4,0,2.8,0,4.1,0l0,0
		c0,1.4,0,2.9,0,4.3l0,0c-0.4,0-0.7,0-1.1,0c-1.1,0-2.2,0-3.2,0c0,0-0.1,0-0.1,0c-2.8,0-5.6,0-8.4,0c0,0-0.1,0-0.1,0
		c-0.1,0-0.1,0-0.2,0c-1.4,0-2.7,0-4.1,0l0,0c0-1.4,0-2.9,0-4.3l0,0c0.3,0,0.7,0,1,0C23.5,12.6,24.6,12.6,25.7,12.6z"/>
	<path class="st2" d="M38.6,12.7c-1.4,0-2.8,0-4.1,0c-0.1,0-0.1,0-0.2,0c0-1.4,0-2.9,0-4.3c1.4,0,2.9,0,4.3,0
		C38.6,9.8,38.6,11.2,38.6,12.7z"/>
	<path class="st2" d="M25.7,12.6c-1.1,0-2.2,0-3.3,0c-0.3,0-0.7,0-1,0c0-1.4,0-2.9,0-4.3c1.4,0,2.9,0,4.3,0
		C25.7,9.8,25.7,11.2,25.7,12.6z"/>
	<path class="st4" d="M21.4,12.6c0,1.4,0,2.9,0,4.3c-1.4,0-2.9,0-4.3,0l0,0c0-1.4,0-2.8,0-4.2c0-0.1,0-0.1,0.1-0.1
		C18.6,12.7,20,12.6,21.4,12.6z"/>
	<path class="st4" d="M38.6,17c0-1.4,0-2.9,0-4.3c1.4,0,2.8,0,4.1,0c0.1,0,0.2,0,0.2,0.2c0,1.4,0,2.8,0,4.1l0,0
		C41.5,17,40.1,17,38.6,17z"/>
	<path class="st4" d="M34.3,25.6c0,0-0.1,0-0.1,0c-2.8,0-5.6,0-8.4,0c0,0-0.1,0-0.1,0c0-1.4,0-2.9,0-4.3c2.9,0,5.8,0,8.6,0
		C34.3,22.7,34.3,24.1,34.3,25.6z"/>
	<path class="st0" d="M34.3,25.6c0-1.4,0-2.9,0-4.3l0,0c1.4,0,2.9,0,4.3,0l0,0c0,1.4,0,2.9,0,4.3c-1.4,0-2.7,0-4.1,0
		C34.4,25.6,34.4,25.6,34.3,25.6z"/>
	<path class="st0" d="M25.7,21.3c0,1.4,0,2.9,0,4.3c-1.1,0-2.2,0-3.3,0c-0.3,0-0.7,0-1,0c0-1.4,0-2.9,0-4.3l0,0
		C22.8,21.3,24.3,21.3,25.7,21.3L25.7,21.3z"/>
	<path class="st1" d="M17.1,17c1.4,0,2.9,0,4.3,0l0,0c0,1.4,0,2.9,0,4.3l0,0c-1.4,0-2.9,0-4.3,0C17.1,19.8,17.1,18.4,17.1,17z"/>
	<path class="st1" d="M38.6,17c1.4,0,2.9,0,4.3,0c0,1.4,0,2.9,0,4.3c-1.4,0-2.9,0-4.3,0c0,0,0,0,0,0C38.6,19.8,38.6,18.4,38.6,17
		L38.6,17z"/>
	<path class="st3" d="M34.3,21.3c-2.9,0-5.8,0-8.6,0l0,0c0-1.4,0-2.9,0-4.3c0,0,0.1,0,0.1,0c2.8,0,5.6,0,8.4,0c0,0,0.1,0,0.1,0
		C34.3,18.4,34.3,19.8,34.3,21.3L34.3,21.3z"/>
	<path class="st4" d="M34.3,21.3c0-1.4,0-2.9,0-4.3c1.1,0,2.2,0,3.2,0c0.4,0,0.7,0,1.1,0c0,1.4,0,2.9,0,4.3
		C37.2,21.3,35.8,21.3,34.3,21.3z"/>
	<path class="st4" d="M25.7,17c0,1.4,0,2.9,0,4.3c-1.4,0-2.9,0-4.3,0c0-1.4,0-2.9,0-4.3c1.4,0,2.7,0,4.1,0C25.6,17,25.6,17,25.7,17z
		"/>
</g>
</svg>
