<?xml version="1.0" encoding="utf-8"?>
<!-- Generator: Adobe Illustrator 25.4.0, SVG Export Plug-In . SVG Version: 6.00 Build 0)  -->
<svg version="1.1" id="Layer_1" xmlns="http://www.w3.org/2000/svg" xmlns:xlink="http://www.w3.org/1999/xlink" x="0px" y="0px"
	 viewBox="0 0 60 60" style="enable-background:new 0 0 60 60;" xml:space="preserve">
<style type="text/css">
	.st0{fill:#3854FE;}
	.st1{fill:#36FEDE;}
	.st2{fill:#BAC3FE;}
	.st3{fill:#FED30B;}
	.st4{fill:#FE9431;}
</style>
<g>
	<g>
		<path d="M17.9,55.9c0-1.2,0-2.4,0-3.6c0-0.1,0-0.2-0.2-0.2c-2.5,0-5.1,0-7.6,0c-0.1,0-0.2,0-0.2-0.2c0-1.2,0-2.5,0-3.7
			c0-0.1,0-0.2-0.2-0.2c-2.5,0-5,0-7.5,0c0-5.3,0-10.6,0-16c2.6,0,5.1,0,7.7,0c0,1.3,0,2.7,0,4c-1.3,0-2.6,0-3.9,0
			c-0.1,0-0.1,0-0.1,0.1c0,2.6,0,5.2,0,7.7c0,0.1,0.1,0.1,0.1,0.1c1.2,0,2.4,0,3.6,0c1.4,0,2.9,0,4.3,0c0,1.2,0,2.3,0,3.5
			c0,0.2-0.1,0.4,0,0.5c0.1,0.1,0.3,0,0.5,0c1.2,0,2.3,0,3.5,0c0.1,0,0.1,0,0.2,0c1.3,0,2.5,0,3.8,0c0,0.1,0,0.1,0,0.2
			c0,2.5,0,5.1,0,7.6c0,0.1,0,0.2,0.2,0.2c1.2,0,2.5,0,3.7,0c0.1,0,0.2,0,0.2-0.2c0-1.2,0-2.4,0-3.6c0-0.1,0-0.2,0.2-0.2
			c2.6,0,5.1,0,7.7,0c0.1,0,0.2,0,0.2,0.2c0,1.2,0,2.4,0,3.6c0,0.2,0,0.2,0.2,0.2c1.2,0,2.4,0,3.6,0c0.1,0,0.2,0,0.2-0.2
			c0-2.5,0-5.1,0-7.6c0-0.1,0-0.1,0-0.2c0.3,0,0.7,0,1,0c1,0,2,0,3,0c0.1,0,0.1,0,0.2,0c1.2,0,2.4,0,3.7,0c0.1,0,0.2,0,0.2-0.2
			c0-1.3,0-2.5,0-3.8c0.1,0,0.1,0,0.2,0c2.5,0,5.1,0,7.6,0c0.1,0,0.2,0,0.2-0.2c0-2.5,0-5.1,0-7.6c0-0.1,0-0.2-0.2-0.2
			c-1.3,0-2.5,0-3.8,0c0-1.3,0-2.7,0-4c2.7,0,5.3,0,8,0c0,5.3,0,10.6,0,16c-2.6,0-5.2,0-7.8,0c-0.1,0-0.2,0-0.2,0.2
			c0,1.2,0,2.5,0,3.7c0,0.1,0,0.2-0.2,0.2c-2.5,0-5.1,0-7.6,0c-0.1,0-0.2,0-0.2,0.2c0,1.2,0,2.4,0,3.6"/>
		<path class="st0" d="M37.8,48.2c0,0.1,0,0.1,0,0.2c0,2.5,0,5.1,0,7.6c0,0.2,0,0.2-0.2,0.2c-1.2,0-2.4,0-3.6,0
			c-0.2,0-0.2,0-0.2-0.2c0-1.2,0-2.4,0-3.6c0-0.1,0-0.2-0.2-0.2c-2.6,0-5.1,0-7.7,0c-0.1,0-0.2,0-0.2,0.2c0,1.2,0,2.4,0,3.6
			c0,0.1,0,0.2-0.2,0.2c-1.2,0-2.5,0-3.7,0c-0.1,0-0.2,0-0.2-0.2c0-2.5,0-5.1,0-7.6c0-0.1,0-0.1,0-0.2l0,0c1.3,0,2.7,0,4,0
			c2.7,0,5.3,0,8,0c0.9,0,1.8,0,2.6,0C36.9,48.2,37.4,48.2,37.8,48.2L37.8,48.2z"/>
		<path class="st0" d="M13.9,44.2c-1.4,0-2.9,0-4.3,0c-1.2,0-2.4,0-3.6,0c-0.1,0-0.1,0-0.1-0.1c0-2.6,0-5.2,0-7.7
			c0-0.1,0-0.1,0.1-0.1c1.3,0,2.6,0,3.9,0l0,0c0,0.1,0,0.1,0,0.2c0,1.2,0,2.4,0,3.6c0,0.2,0,0.2,0.2,0.2c1.3,0,2.5,0,3.8,0
			c0,0.1,0,0.3,0,0.4C13.9,41.8,13.9,43,13.9,44.2L13.9,44.2z"/>
		<path class="st0" d="M49.8,36.2c1.3,0,2.5,0,3.8,0c0.1,0,0.2,0,0.2,0.2c0,2.5,0,5.1,0,7.6c0,0.1,0,0.2-0.2,0.2c-2.5,0-5.1,0-7.6,0
			c-0.1,0-0.1,0-0.2,0c0,0,0,0,0,0c0-0.1,0-0.1,0-0.2c0-1.3,0-2.5,0-3.8c1.3,0,2.5,0,3.8,0c0.1,0,0.2,0,0.2-0.2c0-0.6,0-1.2,0-1.8
			C49.8,37.5,49.8,36.9,49.8,36.2L49.8,36.2z"/>
		<path class="st1" d="M41.9,48.2c-1,0-2,0-3,0c-0.3,0-0.7,0-1,0c0,0,0,0,0,0c0-1.3,0-2.7,0-4c1.3,0,2.7,0,4,0l0,0
			C41.9,45.5,41.9,46.8,41.9,48.2z"/>
		<path class="st2" d="M49.8,32.2c0,1.3,0,2.7,0,4c0,0,0,0,0,0c-1.3,0-2.7,0-4,0c0-0.3,0-0.6,0-0.8c0-1.1,0-2.1,0-3.2
			C47.2,32.2,48.5,32.2,49.8,32.2L49.8,32.2z"/>
		<path class="st2" d="M9.9,36.2c0-1.3,0-2.7,0-4c0,0,0,0,0,0c1.3,0,2.7,0,4,0c0,0.1,0,0.3,0,0.4c0,1.2,0,2.4,0,3.6
			C12.5,36.2,11.2,36.2,9.9,36.2L9.9,36.2z"/>
		<path class="st0" d="M17.9,48.2c-1.2,0-2.3,0-3.5,0c-0.2,0-0.4,0.1-0.5,0c-0.1-0.1,0-0.3,0-0.5c0-1.2,0-2.3,0-3.5c0,0,0,0,0,0
			c1.3,0,2.7,0,4,0C17.9,45.5,17.9,46.8,17.9,48.2z"/>
		<path class="st1" d="M17.9,48.2c0-1.3,0-2.7,0-4l0,0c1.3,0,2.7,0,4,0c0,1.3,0,2.7,0,4l0,0c-1.3,0-2.5,0-3.8,0
			C18,48.2,17.9,48.2,17.9,48.2z"/>
		<path class="st0" d="M41.9,48.2c0-1.3,0-2.7,0-4c1.3,0,2.7,0,4,0l0,0c0,1.3,0,2.5,0,3.8c0,0.1,0,0.2-0.2,0.2c-1.2,0-2.4,0-3.7,0
			C42,48.2,41.9,48.2,41.9,48.2z"/>
		<path d="M49.8,32.2c-1.3,0-2.7,0-4,0c0-0.1,0-0.1,0-0.2c0-2.6,0-5.2,0-7.8c1.3,0,2.6,0,3.8,0c0.1,0,0.2,0,0.2-0.2
			c0-5.2,0-10.5,0-15.7c0-0.1,0-0.2-0.2-0.2c-1.2,0-2.4,0-3.7,0c-0.1,0-0.2,0-0.2,0.2c0,1.1,0,2.2,0,3.3c0,0.2,0.1,0.4,0,0.5
			c-0.1,0.1-0.3,0-0.5,0c-1.2,0-2.3,0-3.5,0c-1.3,0-2.7,0-4,0c0-1.3,0-2.7,0-4l0,0c1.3,0,2.6,0,3.9,0c0.1,0,0.2,0,0.2-0.2
			c0-1.2,0-2.5,0-3.7c0-0.1,0-0.2,0.2-0.2c3.9,0,7.8,0,11.7,0c0.1,0,0.2,0,0.2,0.2c0,7.9,0,15.8,0,23.7c0,0.1,0,0.2-0.2,0.2
			c-1.2,0-2.5,0-3.7,0c-0.1,0-0.1,0-0.1,0.1C49.8,29.6,49.8,30.9,49.8,32.2z"/>
		<path d="M13.9,32.2c-1.3,0-2.7,0-4,0c0-1.3,0-2.6,0-3.9c0-0.1,0-0.1-0.1-0.1c-1.2,0-2.5,0-3.7,0c-0.1,0-0.2,0-0.2-0.2
			c0-7.9,0-15.8,0-23.7c0-0.1,0-0.2,0.2-0.2c3.9,0,7.8,0,11.7,0c0.1,0,0.2,0,0.2,0.2c0,1.2,0,2.5,0,3.7c0,0.1,0,0.2,0.2,0.2
			c1.3,0,2.6,0,3.8,0l0,0c0,1.3,0,2.7,0,4c-0.3,0-0.7,0-1,0c-1,0-2,0-3,0c-0.1,0-0.1,0-0.2,0c-1.2,0-2.4,0-3.7,0
			c-0.1,0-0.2,0-0.2-0.2c0-1.2,0-2.5,0-3.7c0-0.1,0-0.2-0.2-0.2c-1.2,0-2.4,0-3.7,0c-0.1,0-0.2,0-0.2,0.2c0,5.2,0,10.5,0,15.7
			c0,0.1,0,0.2,0.2,0.2c1.3,0,2.6,0,3.8,0c0,2.6,0,5.2,0,7.8C13.9,32.1,13.9,32.1,13.9,32.2z"/>
		<path class="st0" d="M25.8,8.2c0-1.3,0-2.5,0-3.8c0-0.2,0-0.2,0.2-0.2c2.5,0,5.1,0,7.6,0c0.1,0,0.2,0,0.2,0.2c0,1.3,0,2.5,0,3.8
			c0,1.3,0,2.7,0,4c0,1.3,0,2.7,0,4c-2.7,0-5.3,0-8,0c0-0.3,0-0.6,0-0.8c0-1,0-2.1,0-3.1C25.8,10.9,25.8,9.5,25.8,8.2z"/>
		<path class="st2" d="M25.8,8.2c0,1.3,0,2.7,0,4c-1.3,0-2.7,0-4,0l0,0c0-1.3,0-2.7,0-4C23.2,8.2,24.5,8.2,25.8,8.2z"/>
		<path class="st2" d="M33.8,12.2c0-1.3,0-2.7,0-4c1.3,0,2.7,0,4,0c0,1.3,0,2.7,0,4l0,0C36.5,12.2,35.2,12.2,33.8,12.2z"/>
		<path d="M33.8,48.2c-2.7,0-5.3,0-8,0c0-1.3,0-2.7,0-4c2.7,0,5.3,0,8,0C33.8,45.5,33.8,46.8,33.8,48.2z"/>
		<path class="st2" d="M25.8,44.2c0,1.3,0,2.7,0,4c-1.3,0-2.7,0-4,0c0-1.3,0-2.7,0-4c0,0,0,0,0,0C23.2,44.2,24.5,44.2,25.8,44.2
			L25.8,44.2z"/>
		<path class="st2" d="M33.8,48.2c0-1.3,0-2.7,0-4l0,0c1.3,0,2.7,0,4,0l0,0c0,1.3,0,2.7,0,4c-0.5,0-0.9,0-1.4,0
			C35.6,48.2,34.7,48.2,33.8,48.2z"/>
		<path class="st1" d="M9.9,36.2c1.3,0,2.7,0,4,0c0,0.1,0,0.1,0,0.2c0,1.3,0,2.5,0,3.8l0,0c-1.3,0-2.5,0-3.8,0c-0.2,0-0.2,0-0.2-0.2
			c0-1.2,0-2.4,0-3.6C9.9,36.3,9.9,36.2,9.9,36.2z"/>
		<path class="st1" d="M17.9,44.2c-1.3,0-2.7,0-4,0c0-1.2,0-2.4,0-3.5c0-0.1,0-0.3,0-0.4l0,0c0.3,0,0.7,0,1,0c1,0,2,0,3,0
			C17.9,41.5,17.9,42.8,17.9,44.2L17.9,44.2z"/>
		<path class="st1" d="M45.9,36.2c1.3,0,2.7,0,4,0c0,0.7,0,1.3,0,2c0,0.6,0,1.2,0,1.8c0,0.1,0,0.2-0.2,0.2c-1.3,0-2.5,0-3.8,0l0,0
			c0-0.3,0-0.7,0-1C45.9,38.2,45.9,37.2,45.9,36.2z"/>
		<path class="st1" d="M45.8,44.2c-1.3,0-2.7,0-4,0l0,0c0-1.3,0-2.7,0-4c0.1,0,0.1,0,0.2,0c1.3,0,2.5,0,3.8,0l0,0c0,1.3,0,2.5,0,3.8
			C45.8,44,45.8,44.1,45.8,44.2z"/>
		<path class="st2" d="M41.9,40.2c0,1.3,0,2.7,0,4c-1.3,0-2.7,0-4,0l0,0c0-1.3,0-2.7,0-4c0.2,0,0.4,0,0.6,0
			C39.6,40.2,40.7,40.2,41.9,40.2z"/>
		<path class="st3" d="M41.9,40.2c-1.1,0-2.3,0-3.4,0c-0.2,0-0.4,0-0.6,0c-0.1,0-0.1,0-0.2,0c-1.3,0-2.5,0-3.8,0c0,0-0.1,0-0.1,0
			c-2.6,0-5.2,0-7.8,0c0,0-0.1,0-0.1,0c-0.3,0-0.7,0-1,0c-1,0-2,0-3,0c-0.3,0-0.7,0-1,0c-1,0-2,0-3,0c-1,0-2,0-3,0c-0.3,0-0.7,0-1,0
			c0-1.3,0-2.5,0-3.8c0-0.1,0-0.1,0-0.2c0-1.2,0-2.4,0-3.6c0-0.1,0-0.3,0-0.4c0-0.1,0-0.1,0-0.2c0-2.6,0-5.2,0-7.8l0,0
			c1.3,0,2.7,0,4,0c0,0.3,0,0.7,0,1c0,1,0,2,0,3c0,0.2,0,0.4,0,0.7c0,1.1,0,2.2,0,3.3c0,0.1,0,0.1,0,0.2c0,1.2,0,2.4,0,3.7
			c0,0.1,0,0.2,0.2,0.2c2.6,0,5.1,0,7.7,0c0.1,0,0.1,0,0.2,0c0,0,0.1,0,0.1,0c2.6,0,5.2,0,7.8,0c0,0,0.1,0,0.1,0c0.1,0,0.1,0,0.2,0
			c2.4,0,4.9,0,7.3,0c0.2,0,0.4,0.1,0.5,0c0.1-0.1,0-0.3,0-0.5c0-1.2,0-2.3,0-3.5c0-0.2,0-0.4,0-0.6c0-1.1,0-2.3,0-3.4
			c0-1.3,0-2.7,0-4c1.3,0,2.7,0,4,0l0,0c0,2.6,0,5.2,0,7.8c0,0.1,0,0.1,0,0.2c0,1.1,0,2.1,0,3.2c0,0.3,0,0.6,0,0.8c0,1,0,2,0,3
			c0,0.3,0,0.7,0,1c-1.3,0-2.5,0-3.8,0C42,40.2,41.9,40.2,41.9,40.2z"/>
		<path class="st2" d="M17.9,40.2c1,0,2,0,3,0c0.3,0,0.7,0,1,0c0,1.3,0,2.7,0,4l0,0c-1.3,0-2.7,0-4,0C17.9,42.8,17.9,41.5,17.9,40.2
			z"/>
		<path class="st4" d="M41.9,12.2c1.2,0,2.3,0,3.5,0c0.2,0,0.4,0.1,0.5,0c0.1-0.1,0-0.3,0-0.5c0-1.1,0-2.2,0-3.3
			c0-0.1,0-0.2,0.2-0.2c1.2,0,2.4,0,3.7,0c0.1,0,0.2,0,0.2,0.2c0,5.2,0,10.5,0,15.7c0,0.1,0,0.2-0.2,0.2c-1.3,0-2.6,0-3.8,0l0,0
			c0-0.3,0-0.7,0-1c0-1,0-2,0-3c0-1.3,0-2.6,0-3.9c0-0.1-0.1-0.1-0.1-0.1c-1.3,0-2.6,0-3.9,0C41.9,14.9,41.9,13.5,41.9,12.2z"/>
		<path class="st1" d="M41.9,12.2c0,1.3,0,2.7,0,4l0,0c-1.3,0-2.7,0-4,0c0-1.3,0-2.7,0-4l0,0C39.2,12.2,40.5,12.2,41.9,12.2z"/>
		<path class="st4" d="M13.9,24.2c-1.3,0-2.6,0-3.8,0c-0.1,0-0.2,0-0.2-0.2c0-5.2,0-10.5,0-15.7c0-0.1,0-0.2,0.2-0.2
			c1.2,0,2.4,0,3.7,0c0.1,0,0.2,0,0.2,0.2c0,1.2,0,2.5,0,3.7c0,0.1,0,0.2,0.2,0.2c1.2,0,2.4,0,3.7,0c0.1,0,0.1,0,0.2,0
			c0,1.3,0,2.7,0,4c-0.4,0-0.7,0-1.1,0c-0.9,0-1.9,0-2.8,0c-0.1,0-0.2,0-0.1,0.1c0,0.1,0,0.3,0,0.4c0,1.2,0,2.3,0,3.5
			C13.9,21.6,13.9,22.9,13.9,24.2L13.9,24.2z"/>
		<path class="st1" d="M17.9,16.2c0-1.3,0-2.7,0-4c1,0,2,0,3,0c0.3,0,0.7,0,1,0l0,0c0,1.3,0,2.7,0,4C20.5,16.2,19.2,16.2,17.9,16.2
			L17.9,16.2z"/>
		<path class="st2" d="M25.8,16.2c2.7,0,5.3,0,8,0l0,0c0,2.7,0,5.3,0,8l0,0c-2.7,0-5.3,0-8,0l0,0C25.8,21.5,25.8,18.9,25.8,16.2
			L25.8,16.2z"/>
		<path class="st3" d="M37.8,12.2c0,1.3,0,2.7,0,4l0,0c-1.3,0-2.7,0-4,0l0,0c0-1.3,0-2.7,0-4C35.2,12.2,36.5,12.2,37.8,12.2z"/>
		<path class="st3" d="M21.9,16.2c0-1.3,0-2.7,0-4c1.3,0,2.7,0,4,0c0,1,0,2.1,0,3.1c0,0.3,0,0.6,0,0.8l0,0
			C24.5,16.2,23.2,16.2,21.9,16.2L21.9,16.2z"/>
		<path class="st2" d="M25.8,40.2c0,0,0.1,0,0.1,0c2.6,0,5.2,0,7.8,0c0,0,0.1,0,0.1,0c0,1.3,0,2.7,0,4l0,0c-2.7,0-5.3,0-8,0l0,0
			C25.9,42.9,25.8,41.5,25.8,40.2z"/>
		<path d="M25.8,40.2c0,1.3,0,2.7,0,4c-1.3,0-2.7,0-4,0c0-1.3,0-2.7,0-4c1,0,2,0,3,0C25.2,40.2,25.5,40.2,25.8,40.2z"/>
		<path d="M33.8,44.2c0-1.3,0-2.7,0-4c1.3,0,2.5,0,3.8,0c0.1,0,0.1,0,0.2,0c0,1.3,0,2.7,0,4C36.5,44.2,35.2,44.2,33.8,44.2z"/>
		<path class="st0" d="M25.8,24.2c2.7,0,5.3,0,8,0c0,4,0,8,0,12c0,0-0.1,0-0.1,0c-2.6,0-5.2,0-7.8,0c0,0-0.1,0-0.1,0
			C25.8,32.2,25.8,28.2,25.8,24.2z"/>
		<path d="M33.8,36.2c0-4,0-8,0-12l0,0c0.3,0,0.7,0,1,0c1,0,2,0,3,0c0.1,0,0.1,0,0.2,0c1.3,0,2.6,0,3.9,0l0,0c0,1.3,0,2.7,0,4
			c-1.3,0-2.6,0-3.9,0c-0.1,0-0.2,0-0.2,0.2c0,1.2,0,2.5,0,3.7c0,0.1,0,0.2,0.2,0.2c1.3,0,2.6,0,3.9,0c0,1.2,0,2.3,0,3.5
			c0,0.2,0.1,0.4,0,0.5c-0.1,0.1-0.3,0-0.5,0c-2.4,0-4.9,0-7.3,0C34,36.2,33.9,36.2,33.8,36.2z"/>
		<path d="M25.8,24.2c0,4,0,8,0,12c-0.1,0-0.1,0-0.2,0c-2.6,0-5.1,0-7.7,0c-0.1,0-0.2,0-0.2-0.2c0-1.2,0-2.4,0-3.7
			c0-0.1,0-0.1,0-0.2c1.3,0,2.6,0,3.8,0c0.1,0,0.2,0,0.2-0.2c0-1.2,0-2.5,0-3.7c0-0.1,0-0.2-0.2-0.2c-1.3,0-2.6,0-3.8,0c0-1,0-2,0-3
			c0-0.3,0-0.7,0-1c0,0,0,0,0,0c0.3,0,0.7,0,1,0c1,0,2,0,3,0c0.1,0,0.1,0,0.2,0C23.3,24.2,24.6,24.2,25.8,24.2L25.8,24.2z"/>
		<path class="st0" d="M41.8,32.2c-1.3,0-2.6,0-3.9,0c-0.1,0-0.2,0-0.2-0.2c0-1.2,0-2.5,0-3.7c0-0.1,0-0.2,0.2-0.2
			c1.3,0,2.6,0,3.9,0c0,1.1,0,2.3,0,3.4C41.9,31.8,41.9,32,41.8,32.2z"/>
		<path class="st0" d="M45.8,20.2c0,1,0,2,0,3c0,0.3,0,0.7,0,1c-1.3,0-2.7,0-4,0c0,0,0,0,0,0c0-0.3,0-0.7,0-1c0-1,0-2,0-3
			C43.2,20.2,44.5,20.2,45.8,20.2z"/>
		<path class="st0" d="M13.9,24.2c0-1.3,0-2.7,0-4c1.3,0,2.7,0,4,0c0,1.3,0,2.7,0,4c0,0,0,0,0,0C16.5,24.2,15.2,24.2,13.9,24.2z"/>
		<path class="st0" d="M17.9,28.2c1.3,0,2.6,0,3.8,0c0.1,0,0.2,0,0.2,0.2c0,1.2,0,2.5,0,3.7c0,0.1,0,0.2-0.2,0.2c-1.3,0-2.6,0-3.8,0
			c0-1.1,0-2.2,0-3.3C17.9,28.6,17.9,28.4,17.9,28.2z"/>
		<path class="st1" d="M45.8,20.2c-1.3,0-2.7,0-4,0c0-1.3,0-2.7,0-4l0,0c1.3,0,2.6,0,3.9,0c0.1,0,0.1,0,0.1,0.1
			C45.8,17.6,45.8,18.9,45.8,20.2z"/>
		<path class="st3" d="M41.9,16.2c0,1.3,0,2.7,0,4c0,1,0,2,0,3c0,0.3,0,0.7,0,1c-1.3,0-2.6,0-3.9,0c-0.1,0-0.1,0-0.2,0
			c0-2.7,0-5.3,0-8l0,0C39.2,16.2,40.5,16.2,41.9,16.2z"/>
		<path class="st1" d="M17.9,20.2c-1.3,0-2.7,0-4,0c0-1.2,0-2.3,0-3.5c0-0.1,0-0.3,0-0.4c0-0.1,0-0.1,0.1-0.1c0.9,0,1.9,0,2.8,0
			c0.4,0,0.7,0,1.1,0l0,0c0,0.4,0,0.7,0,1.1C17.9,18.3,17.9,19.2,17.9,20.2z"/>
		<path class="st3" d="M17.9,20.2c0-1,0-2,0-2.9c0-0.4,0-0.7,0-1.1c1.3,0,2.7,0,4,0l0,0c0,2.7,0,5.3,0,8c-1,0-2,0-3,0
			c-0.3,0-0.7,0-1,0C17.9,22.9,17.9,21.6,17.9,20.2z"/>
		<path class="st0" d="M21.9,24.2c0-2.7,0-5.3,0-8c1.3,0,2.7,0,4,0c0,2.7,0,5.3,0,8c-1.3,0-2.5,0-3.8,0C22,24.2,21.9,24.2,21.9,24.2
			z"/>
		<path class="st0" d="M37.8,16.2c0,2.7,0,5.3,0,8c-1,0-2,0-3,0c-0.3,0-0.7,0-1,0c0-2.7,0-5.3,0-8C35.2,16.2,36.5,16.2,37.8,16.2z"
			/>
		<path d="M21.9,8.2c0-2.6,0-5.2,0-7.8c5.3,0,10.6,0,16,0c0,2.6,0,5.2,0,7.8l0,0c-1.3,0-2.7,0-4,0c0-1.3,0-2.5,0-3.8
			c0-0.1,0-0.2-0.2-0.2c-2.5,0-5.1,0-7.6,0c-0.2,0-0.2,0-0.2,0.2c0,1.3,0,2.5,0,3.8C24.5,8.2,23.2,8.2,21.9,8.2L21.9,8.2z"/>
	</g>
	<rect x="21.7" y="55.8" width="4.2" height="4.2"/>
	<rect x="33.7" y="55.8" width="4.2" height="4.2"/>
</g>
</svg>
