<?xml version="1.0" encoding="utf-8"?>
<!-- Generator: Adobe Illustrator 25.4.0, SVG Export Plug-In . SVG Version: 6.00 Build 0)  -->
<svg version="1.1" id="Layer_1" xmlns="http://www.w3.org/2000/svg" xmlns:xlink="http://www.w3.org/1999/xlink" x="0px" y="0px"
	 viewBox="0 0 60 60" style="enable-background:new 0 0 60 60;" xml:space="preserve">
<style type="text/css">
	.st0{fill:#0058F7;}
	.st1{fill:#B8C2FE;}
	.st2{fill:#FED30B;}
	.st3{fill:#36FEDE;}
	.st4{fill:#FEA004;}
</style>
<g>
	<path d="M0,42.8C0,34.2,0,25.6,0,17c1.3,0,2.7,0,4,0c0.2,0,0.2,0,0.2-0.2c0-4.2,0-8.4,0-12.5c0-0.1,0-0.2,0.2-0.2c1.3,0,2.6,0,4,0
		c0.1,0,0.2,0,0.2-0.2c0-1.3,0-2.6,0-3.9c4.3,0,8.6,0,12.9,0c0,2.7,0,5.5,0,8.2c0,0.2,0,0.2,0.2,0.2c5.6,0,11.2,0,16.8,0
		c0.2,0,0.2,0,0.2-0.2c0-2.7,0-5.5,0-8.2c4.3,0,8.6,0,12.9,0c0,1.3,0,2.6,0,3.9c0,0.1,0,0.2,0.2,0.2c1.3,0,2.6,0,3.9,0
		c0.2,0,0.2,0,0.2,0.2c0,4.2,0,8.4,0,12.6c0,0.1,0,0.2,0.2,0.2c1.3,0,2.7,0,4,0c0,8.6,0,17.2,0,25.8c-1.4,0-2.8,0-4.2,0
		c0-0.4,0-0.8,0-1.2c0-1,0-2.1,0-3.1c0-0.1,0-0.2,0-0.3c0-1.3,0-2.7,0-4c0-0.4,0-0.8,0-1.2c0-1,0-2.1,0-3.1c0-0.2,0-0.5,0-0.7
		c0-1.2,0-2.4,0-3.6c0-0.1,0-0.1,0-0.2c0-1.3,0-2.7,0-4c0-0.1,0-0.2-0.2-0.2c-1.3,0-2.6,0-4,0c-0.1,0-0.2,0-0.2,0.2
		c0,1.4,0,2.8,0,4.1c-1.4,0-2.9,0-4.3,0c0-0.4,0-0.8,0-1.2c0-1,0-2.1,0-3.1c0-0.6,0-1.1,0-1.7c0-0.8,0-1.7,0-2.5
		c0-0.1,0-0.1-0.1-0.1c-0.2,0-0.3,0-0.5,0c-1.2,0-2.5,0-3.7,0c-1.4,0-2.9,0-4.3,0c0-1.3,0-2.5,0-3.8c0-0.2,0.1-0.4,0-0.5
		c-0.1-0.1-0.3,0-0.5,0c-1.3,0-2.5,0-3.8,0c0,0-0.1,0-0.1,0c-2.8,0-5.6,0-8.4,0c0,0-0.1,0-0.1,0c-0.1,0-0.1,0-0.2,0
		c-1.3,0-2.7,0-4,0c-0.1,0-0.2,0-0.2,0.2c0,1.4,0,2.8,0,4.1c-0.4,0-0.7,0-1.1,0c-1.1,0-2.1,0-3.2,0c-0.6,0-1.1,0-1.7,0
		c-0.8,0-1.7,0-2.5,0c-0.1,0-0.1,0-0.1,0.1c0,0.1,0,0.3,0,0.4c0,1.2,0,2.5,0,3.7c0,0.1,0,0.1,0,0.2c0,1.4,0,2.8,0,4.2
		c-1.4,0-2.9,0-4.3,0l0,0c0-1.4,0-2.8,0-4.2c0-0.1,0-0.2-0.2-0.2c-1.2,0-2.4,0-3.6,0c-0.2,0-0.4-0.1-0.5,0c-0.1,0.1,0,0.3,0,0.5
		c0,1.2,0,2.5,0,3.7c0,0.2,0,0.4,0,0.6c0,1.2,0,2.5,0,3.7c0,0.2,0,0.5,0,0.7c0,1.2,0,2.4,0,3.6c0,0.1,0,0.3,0,0.4c0,1.3,0,2.6,0,3.9
		c0,0.1,0,0.1,0,0.2c0,1.4,0,2.8,0,4.1C2.8,42.8,1.4,42.8,0,42.8z M47.2,8.4c0-0.1,0-0.3,0-0.4c0-1.2,0-2.5,0-3.7
		c0-0.1,0-0.2-0.2-0.2c-0.2,0-0.3,0-0.5,0c-1.2,0-2.3,0-3.5,0c-0.1,0-0.2,0-0.2,0.2c0,0.2,0,0.3,0,0.5c0,1.2,0,2.5,0,3.7
		c0,0.3,0,0.5,0,0.8c0,1.1,0,2.2,0,3.3c0,0.1,0,0.2,0.2,0.2c0.2,0,0.3,0,0.5,0c1.2,0,2.5,0,3.7,0c0.1,0,0.1,0,0.2,0c1.3,0,2.7,0,4,0
		c0.1,0,0.2,0,0.2-0.2c0-1.3,0-2.6,0-4c0-0.1,0-0.2-0.2-0.2C50,8.4,48.6,8.4,47.2,8.4L47.2,8.4z M12.8,8.4L12.8,8.4
		c-0.1,0-0.3,0-0.4,0c-1.2,0-2.5,0-3.7,0c-0.1,0-0.2,0-0.2,0.2c0,0.2,0,0.3,0,0.5c0,1.2,0,2.3,0,3.5c0,0.1,0,0.2,0.2,0.2
		c0.2,0,0.3,0,0.5,0c1.2,0,2.5,0,3.7,0c0.3,0,0.5,0,0.8,0c1.1,0,2.2,0,3.3,0c0.1,0,0.2,0,0.2-0.2c0-0.2,0-0.3,0-0.5
		c0-1.2,0-2.4,0-3.6c0-0.1,0-0.1,0-0.2c0-1.3,0-2.7,0-4c0-0.1,0-0.2-0.2-0.2c-1.3,0-2.6,0-4,0c-0.1,0-0.2,0-0.2,0.2
		C12.8,5.7,12.8,7,12.8,8.4z"/>
	<path d="M12.8,60c0-1.4,0-2.8,0-4.3l0,0c1.4,0,2.9,0,4.3,0l0,0c0,1.4,0,2.8,0,4.3C15.7,60,14.2,60,12.8,60z"/>
	<path d="M47.2,55.7c0,1.4,0,2.8,0,4.3c-1.4,0-2.9,0-4.3,0c0-1.4,0-2.8,0-4.3l0,0C44.4,55.7,45.8,55.7,47.2,55.7L47.2,55.7z"/>
	<path class="st0" d="M25.7,12.7c0,0,0.1,0,0.1,0c2.8,0,5.6,0,8.4,0c0,0,0.1,0,0.1,0c0,1.4,0,2.9,0,4.3c-2.9,0-5.7,0-8.6,0
		C25.7,15.6,25.7,14.1,25.7,12.7z"/>
	<path class="st1" d="M38.6,17c1.4,0,2.9,0,4.3,0c0,1.4,0,2.9,0,4.3l0,0c-1.4,0-2.9,0-4.3,0C38.6,19.9,38.6,18.4,38.6,17L38.6,17z"
		/>
	<path class="st0" d="M42.9,21.3c0-1.4,0-2.9,0-4.3c1.2,0,2.5,0,3.7,0c0.2,0,0.3,0,0.5,0c0.1,0,0.1,0,0.1,0.1c0,0.8,0,1.7,0,2.5
		c0,0.6,0,1.1,0,1.7C45.8,21.3,44.4,21.3,42.9,21.3z"/>
	<path class="st1" d="M4.2,25.6c0-1.2,0-2.5,0-3.7c0-0.2-0.1-0.4,0-0.5c0.1-0.1,0.3,0,0.5,0c1.2,0,2.4,0,3.6,0c0.1,0,0.2,0,0.2,0.2
		c0,1.4,0,2.8,0,4.2C7.1,25.6,5.6,25.6,4.2,25.6z"/>
	<path class="st1" d="M12.8,25.6c0-1.4,0-2.8,0-4.2c0-0.1,0-0.1,0-0.2c1.4,0,2.9,0,4.3,0l0,0c0,1.4,0,2.9,0,4.3
		C15.7,25.6,14.2,25.6,12.8,25.6L12.8,25.6z"/>
	<path class="st1" d="M42.9,21.3c1.4,0,2.9,0,4.3,0c0,1,0,2.1,0,3.1c0,0.4,0,0.8,0,1.2l0,0c-1.4,0-2.9,0-4.3,0
		C42.9,24.2,42.9,22.7,42.9,21.3L42.9,21.3z"/>
	<path class="st1" d="M51.5,25.6c0-1.4,0-2.8,0-4.1c0-0.1,0-0.2,0.2-0.2c1.3,0,2.6,0,4,0c0.1,0,0.2,0,0.2,0.2c0,1.3,0,2.7,0,4
		c0,0.1,0,0.1,0,0.2C54.4,25.6,53,25.6,51.5,25.6L51.5,25.6z"/>
	<path class="st0" d="M4.2,25.6c1.4,0,2.9,0,4.3,0l0,0c0,1.4,0,2.9,0,4.3c-1.4,0-2.9,0-4.3,0c0-1.2,0-2.5,0-3.7
		C4.2,26,4.2,25.8,4.2,25.6z"/>
	<path class="st1" d="M8.5,29.9c0-1.4,0-2.9,0-4.3c1.4,0,2.9,0,4.3,0l0,0c0,1.4,0,2.9,0,4.3C11.4,29.9,9.9,29.9,8.5,29.9L8.5,29.9z"
		/>
	<path class="st1" d="M17.1,17c1.1,0,2.1,0,3.2,0c0.4,0,0.7,0,1.1,0l0,0c0,1.4,0,2.9,0,4.3c-1.4,0-2.9,0-4.3,0l0,0
		C17.1,19.9,17.1,18.4,17.1,17z"/>
	<path class="st1" d="M47.2,25.6c1.4,0,2.9,0,4.3,0l0,0c0,1.4,0,2.9,0,4.3l0,0c-1.4,0-2.9,0-4.3,0C47.2,28.5,47.2,27,47.2,25.6
		L47.2,25.6z"/>
	<path class="st0" d="M51.5,29.9c0-1.4,0-2.9,0-4.3c1.4,0,2.9,0,4.3,0c0,1.2,0,2.4,0,3.6c0,0.2,0,0.5,0,0.7
		C54.4,29.9,53,29.9,51.5,29.9z"/>
	<path class="st1" d="M4.2,29.9c1.4,0,2.9,0,4.3,0l0,0c0,1.4,0,2.9,0,4.3c-1.4,0-2.9,0-4.3,0c0-1.2,0-2.4,0-3.6
		C4.2,30.4,4.2,30.1,4.2,29.9z"/>
	<path class="st2" d="M47.2,12.7c-1.2,0-2.5,0-3.7,0c-0.2,0-0.3,0-0.5,0c-0.1,0-0.2,0-0.2-0.2c0-1.1,0-2.2,0-3.3c0-0.3,0-0.5,0-0.8
		c1.4,0,2.9,0,4.3,0l0,0C47.2,9.8,47.2,11.3,47.2,12.7z"/>
	<path class="st1" d="M51.5,29.9c1.4,0,2.9,0,4.3,0c0,1,0,2.1,0,3.1c0,0.4,0,0.8,0,1.2c-1.4,0-2.9,0-4.3,0
		C51.5,32.8,51.5,31.4,51.5,29.9L51.5,29.9z"/>
	<path class="st0" d="M4.2,34.2c1.4,0,2.9,0,4.3,0l0,0c0,1.4,0,2.9,0,4.3l0,0c-1.4,0-2.9,0-4.3,0c0-1.3,0-2.6,0-3.9
		C4.2,34.5,4.2,34.4,4.2,34.2z"/>
	<path class="st0" d="M17.1,17c0,1.4,0,2.9,0,4.3c-1.4,0-2.9,0-4.3,0c0-1.2,0-2.5,0-3.7c0-0.1,0-0.3,0-0.4c0-0.1,0-0.1,0.1-0.1
		c0.8,0,1.7,0,2.5,0C16,17,16.6,17,17.1,17z"/>
	<path class="st0" d="M51.5,34.2c1.4,0,2.9,0,4.3,0c0,1.3,0,2.7,0,4c0,0.1,0,0.2,0,0.3c-1.4,0-2.9,0-4.3,0l0,0
		C51.5,37.1,51.5,35.7,51.5,34.2L51.5,34.2z"/>
	<path class="st1" d="M4.2,38.5c1.4,0,2.9,0,4.3,0c0,1.4,0,2.9,0,4.3c-1.4,0-2.9,0-4.3,0l0,0c0-1.4,0-2.8,0-4.1
		C4.2,38.6,4.2,38.6,4.2,38.5z"/>
	<path class="st3" d="M34.3,17c0-1.4,0-2.9,0-4.3c1.3,0,2.5,0,3.8,0c0.2,0,0.4-0.1,0.5,0c0.1,0.1,0,0.3,0,0.5c0,1.3,0,2.5,0,3.8l0,0
		C37.2,17,35.8,17,34.3,17L34.3,17z"/>
	<path class="st2" d="M17.1,8.4c0,1.2,0,2.4,0,3.6c0,0.2,0,0.3,0,0.5c0,0.1,0,0.2-0.2,0.2c-1.1,0-2.2,0-3.3,0c-0.3,0-0.5,0-0.8,0
		c0-1.4,0-2.9,0-4.3l0,0C14.2,8.4,15.7,8.4,17.1,8.4z"/>
	<path class="st1" d="M51.5,38.5c1.4,0,2.9,0,4.3,0c0,1,0,2.1,0,3.1c0,0.4,0,0.8,0,1.2l0,0c-1.4,0-2.9,0-4.3,0
		C51.5,41.4,51.5,40,51.5,38.5z"/>
	<path class="st3" d="M12.8,8.4c0,1.4,0,2.9,0,4.3c-1.2,0-2.5,0-3.7,0c-0.2,0-0.3,0-0.5,0c-0.1,0-0.2,0-0.2-0.2c0-1.2,0-2.3,0-3.5
		c0-0.2,0-0.3,0-0.5c0-0.1,0-0.2,0.2-0.2c1.2,0,2.5,0,3.7,0C12.5,8.4,12.7,8.4,12.8,8.4z"/>
	<path class="st3" d="M25.7,12.7c0,1.4,0,2.9,0,4.3l0,0c-1.4,0-2.9,0-4.3,0l0,0c0-1.4,0-2.8,0-4.1c0-0.1,0-0.2,0.2-0.2
		c1.3,0,2.7,0,4,0C25.6,12.7,25.7,12.7,25.7,12.7z"/>
	<path class="st3" d="M47.2,12.7c0-1.4,0-2.9,0-4.3c1.4,0,2.8,0,4.1,0c0.1,0,0.2,0,0.2,0.2c0,1.3,0,2.6,0,4c0,0.1,0,0.2-0.2,0.2
		c-1.3,0-2.7,0-4,0C47.3,12.7,47.3,12.7,47.2,12.7z"/>
	<path class="st3" d="M47.2,8.4c-1.4,0-2.9,0-4.3,0c0-1.2,0-2.5,0-3.7c0-0.2,0-0.3,0-0.5c0-0.1,0-0.2,0.2-0.2c1.2,0,2.3,0,3.5,0
		c0.2,0,0.3,0,0.5,0c0.1,0,0.2,0,0.2,0.2c0,1.2,0,2.5,0,3.7C47.2,8.1,47.2,8.3,47.2,8.4z"/>
	<path class="st3" d="M17.1,8.4c-1.4,0-2.9,0-4.3,0c0-1.4,0-2.8,0-4.1c0-0.1,0-0.2,0.2-0.2c1.3,0,2.6,0,4,0c0.1,0,0.2,0,0.2,0.2
		c0,1.3,0,2.7,0,4C17.1,8.3,17.1,8.4,17.1,8.4z"/>
	<path d="M51.5,38.5c0,1.4,0,2.9,0,4.3l0,0c-0.4,0-0.8,0-1.2,0c-1,0-2.1,0-3.1,0c-0.1,0-0.2,0-0.3,0c-1.3,0-2.7,0-4,0
		c-0.3,0-0.6,0-0.8,0c-1.1,0-2.2,0-3.3,0c-0.1,0-0.2,0-0.2,0.2c0,0.1,0,0.3,0,0.4c0,1.2,0,2.5,0,3.7c0,0.1,0,0.1,0,0.2
		c0,1.4,0,2.7,0,4.1l0,0c-1.4,0-2.8,0-4.2,0c-0.1,0-0.1,0-0.1-0.2c0-1.3,0-2.7,0-4c0-0.1,0-0.2-0.2-0.2c-2.8,0-5.5,0-8.3,0
		c-0.1,0-0.2,0-0.2,0.2c0,1.3,0,2.6,0,4c0,0.1,0,0.2-0.2,0.2c-1.4,0-2.8,0-4.1,0l0,0c0-0.4,0-0.8,0-1.1c0-1.1,0-2.1,0-3.2
		c0-0.3,0-0.6,0-0.8c0-1.1,0-2.2,0-3.3c0-0.1,0-0.2-0.2-0.2c-0.1,0-0.3,0-0.4,0c-1.2,0-2.5,0-3.7,0c-0.4,0-0.8,0-1.2,0
		c-1,0-2.1,0-3.1,0c-0.1,0-0.1,0-0.2,0c-1.4,0-2.7,0-4.1,0l0,0c0-1.4,0-2.9,0-4.3l0,0c0.4,0,0.8,0,1.2,0c1,0,2.1,0,3.1,0
		c0.2,0,0.4,0,0.6,0c1.2,0,2.5,0,3.7,0c0.4,0,0.8,0,1.2,0c1,0,2.1,0,3.1,0c0.1,0,0.1,0,0.2,0c1.4,0,2.7,0,4.1,0c0,1.4,0,2.8,0,4.1
		c0,0.1,0,0.2,0.2,0.2c2.8,0,5.5,0,8.3,0c0.1,0,0.2,0,0.2-0.2c0-1.4,0-2.8,0-4.1c0.4,0,0.7,0,1.1,0c1.1,0,2.1,0,3.2,0
		c0.3,0,0.5,0,0.8,0c1.2,0,2.3,0,3.5,0c0.2,0,0.5,0,0.7,0c1.2,0,2.4,0,3.6,0c0.1,0,0.1,0,0.2,0C48.8,38.5,50.2,38.5,51.5,38.5
		L51.5,38.5z"/>
	<path d="M21.4,51.4c0,1.4,0,2.8,0,4.2c0,0.1,0,0.1-0.1,0.1c-1.4,0-2.8,0-4.2,0l0,0c0-1.4,0-2.9,0-4.3C18.5,51.4,20,51.4,21.4,51.4
		L21.4,51.4z"/>
	<path d="M42.9,55.7c-1.4,0-2.8,0-4.2,0c-0.1,0-0.1,0-0.1-0.1c0-1.4,0-2.8,0-4.2l0,0c1.4,0,2.9,0,4.3,0
		C42.9,52.9,42.9,54.3,42.9,55.7L42.9,55.7z"/>
	<path d="M4.2,42.8c1.4,0,2.9,0,4.3,0l0,0c0,0.4,0,0.8,0,1.2c0,1,0,2.1,0,3.1c0,0.1,0,0.1,0,0.2c0,1.4,0,2.7,0,4.1l0,0
		c-1.4,0-2.8,0-4.2,0c-0.1,0-0.1-0.1-0.1-0.2c0-2.8,0-5.6,0-8.3C4.2,42.9,4.2,42.9,4.2,42.8z"/>
	<path d="M12.8,55.7c-1.4,0-2.8,0-4.2,0c-0.1,0-0.1,0-0.1-0.1c0-1.4,0-2.8,0-4.2l0,0c1.4,0,2.9,0,4.3,0
		C12.8,52.9,12.8,54.3,12.8,55.7L12.8,55.7z"/>
	<path d="M51.5,42.8c1.4,0,2.9,0,4.3,0c0,2.8,0,5.6,0,8.4c0,0.2,0,0.2-0.2,0.2c-1.4,0-2.7,0-4.1,0l0,0c0-0.4,0-0.8,0-1.1
		c0-1.1,0-2.1,0-3.2c0-0.1,0-0.1,0-0.2C51.5,45.6,51.5,44.2,51.5,42.8L51.5,42.8z"/>
	<path d="M51.5,51.4c0,1.4,0,2.8,0,4.2c0,0.1,0,0.1-0.1,0.1c-1.4,0-2.8,0-4.2,0l0,0c0-1.4,0-2.9,0-4.3
		C48.7,51.4,50.1,51.4,51.5,51.4L51.5,51.4z"/>
	<path class="st4" d="M12.8,55.7c0-1.4,0-2.9,0-4.3l0,0c1.4,0,2.9,0,4.3,0l0,0c0,1.4,0,2.9,0,4.3C15.7,55.7,14.2,55.7,12.8,55.7z"/>
	<path class="st4" d="M47.2,51.4c0,1.4,0,2.9,0,4.3c-1.4,0-2.9,0-4.3,0c0-1.4,0-2.9,0-4.3l0,0C44.4,51.4,45.8,51.4,47.2,51.4
		L47.2,51.4z"/>
	<path class="st3" d="M25.7,17c2.9,0,5.7,0,8.6,0l0,0c0,1.4,0,2.9,0,4.3c-2.9,0-5.7,0-8.6,0C25.7,19.9,25.7,18.4,25.7,17L25.7,17z"
		/>
	<path class="st0" d="M34.3,21.3c0-1.4,0-2.9,0-4.3c1.4,0,2.9,0,4.3,0c0,1.4,0,2.9,0,4.3l0,0C37.2,21.3,35.8,21.3,34.3,21.3
		L34.3,21.3z"/>
	<path class="st0" d="M42.9,21.3c0,1.4,0,2.9,0,4.3l0,0c-1.4,0-2.9,0-4.3,0c0-1.4,0-2.9,0-4.3l0,0C40.1,21.3,41.5,21.3,42.9,21.3z"
		/>
	<path class="st0" d="M17.1,21.3c1.4,0,2.9,0,4.3,0l0,0c0,1.4,0,2.9,0,4.3c-1.4,0-2.9,0-4.3,0l0,0C17.1,24.2,17.1,22.7,17.1,21.3z"
		/>
	<path class="st0" d="M12.8,29.9c0-1.4,0-2.9,0-4.3c1.4,0,2.9,0,4.3,0l0,0c0,1.4,0,2.9,0,4.3C15.7,29.9,14.2,29.9,12.8,29.9
		L12.8,29.9z"/>
	<path class="st0" d="M47.2,25.6c0,1.4,0,2.9,0,4.3l0,0c-1.4,0-2.9,0-4.3,0c0-1.4,0-2.9,0-4.3l0,0C44.4,25.6,45.8,25.6,47.2,25.6z"
		/>
	<path class="st0" d="M8.5,34.2c0-1.4,0-2.9,0-4.3c1.4,0,2.9,0,4.3,0l0,0c0,1.4,0,2.9,0,4.3l0,0C11.4,34.2,9.9,34.2,8.5,34.2
		L8.5,34.2z"/>
	<path class="st0" d="M25.7,17c0,1.4,0,2.9,0,4.3l0,0c-1.4,0-2.9,0-4.3,0l0,0c0-1.4,0-2.9,0-4.3C22.8,17,24.3,17,25.7,17z"/>
	<path class="st0" d="M51.5,29.9c0,1.4,0,2.9,0,4.3l0,0c-1.4,0-2.9,0-4.3,0l0,0c0-1.4,0-2.9,0-4.3l0,0
		C48.7,29.9,50.1,29.9,51.5,29.9z"/>
	<path class="st1" d="M8.5,34.2c1.4,0,2.9,0,4.3,0c0,1.4,0,2.9,0,4.3c-1,0-2.1,0-3.1,0c-0.4,0-0.8,0-1.2,0
		C8.5,37.1,8.5,35.7,8.5,34.2z"/>
	<path class="st1" d="M47.2,34.2c1.4,0,2.9,0,4.3,0c0,1.4,0,2.9,0,4.3c-1.4,0-2.7,0-4.1,0c-0.1,0-0.1,0-0.2,0
		C47.2,37.1,47.2,35.7,47.2,34.2z"/>
	<path class="st0" d="M34.3,38.5c0,1.4,0,2.8,0,4.1c0,0.1,0,0.2-0.2,0.2c-2.8,0-5.5,0-8.3,0c-0.1,0-0.2,0-0.2-0.2c0-1.4,0-2.8,0-4.1
		l0,0C28.6,38.5,31.5,38.5,34.3,38.5L34.3,38.5z"/>
	<path class="st0" d="M12.8,38.5c0-1.4,0-2.9,0-4.3l0,0c1.4,0,2.9,0,4.3,0c0,1.4,0,2.9,0,4.3c-1.2,0-2.5,0-3.7,0
		C13.2,38.5,13,38.5,12.8,38.5z"/>
	<path class="st3" d="M17.1,38.5c0-1.4,0-2.9,0-4.3l0,0c1.4,0,2.9,0,4.3,0c0,1.4,0,2.9,0,4.3c-1,0-2.1,0-3.1,0
		C17.9,38.5,17.5,38.5,17.1,38.5z"/>
	<path class="st0" d="M21.4,38.5c0-1.4,0-2.9,0-4.3l0,0c1.4,0,2.9,0,4.3,0c0,1.4,0,2.9,0,4.3l0,0c-1.4,0-2.7,0-4.1,0
		C21.5,38.5,21.5,38.5,21.4,38.5z"/>
	<path class="st0" d="M38.6,38.5c-1.1,0-2.1,0-3.2,0c-0.4,0-0.7,0-1.1,0l0,0c0-1.4,0-2.9,0-4.3c1.4,0,2.9,0,4.3,0
		C38.6,35.6,38.6,37.1,38.6,38.5z"/>
	<path class="st3" d="M38.6,38.5c0-1.4,0-2.9,0-4.3l0,0c1.4,0,2.9,0,4.3,0l0,0c0,1.4,0,2.9,0,4.3c-1.2,0-2.3,0-3.5,0
		C39.1,38.5,38.9,38.5,38.6,38.5z"/>
	<path class="st0" d="M42.9,38.5c0-1.4,0-2.9,0-4.3c1.4,0,2.9,0,4.3,0l0,0c0,1.4,0,2.9,0,4.3c-1.2,0-2.4,0-3.6,0
		C43.4,38.5,43.2,38.5,42.9,38.5z"/>
	<path class="st1" d="M8.5,47.1c0-1,0-2.1,0-3.1c0-0.4,0-0.8,0-1.2c1.4,0,2.7,0,4.1,0c0.1,0,0.1,0,0.2,0c0,1.4,0,2.9,0,4.3
		C11.4,47.1,9.9,47.1,8.5,47.1z"/>
	<path class="st4" d="M12.8,47.1c0-1.4,0-2.9,0-4.3c1,0,2.1,0,3.1,0c0.4,0,0.8,0,1.2,0c0,1.4,0,2.9,0,4.3l0,0
		C15.7,47.1,14.2,47.1,12.8,47.1L12.8,47.1z"/>
	<path class="st2" d="M17.1,47.1c0-1.4,0-2.9,0-4.3c1.2,0,2.5,0,3.7,0c0.1,0,0.3,0,0.4,0c0.1,0,0.2,0,0.2,0.2c0,1.1,0,2.2,0,3.3
		c0,0.3,0,0.6,0,0.8C20,47.1,18.5,47.1,17.1,47.1z"/>
	<path class="st2" d="M38.6,47.1c0-1.2,0-2.5,0-3.7c0-0.1,0-0.3,0-0.4c0-0.1,0-0.2,0.2-0.2c1.1,0,2.2,0,3.3,0c0.3,0,0.6,0,0.8,0
		c0,1.4,0,2.9,0,4.3C41.5,47.1,40.1,47.1,38.6,47.1z"/>
	<path class="st4" d="M42.9,47.1c0-1.4,0-2.9,0-4.3c1.3,0,2.7,0,4,0c0.1,0,0.2,0,0.3,0c0,1.4,0,2.9,0,4.3l0,0
		C45.8,47.1,44.4,47.1,42.9,47.1L42.9,47.1z"/>
	<path class="st1" d="M47.2,47.1c0-1.4,0-2.9,0-4.3c1,0,2.1,0,3.1,0c0.4,0,0.8,0,1.2,0c0,1.4,0,2.7,0,4.1c0,0.1,0,0.1,0,0.2
		C50.1,47.1,48.7,47.1,47.2,47.1z"/>
	<path class="st4" d="M17.1,47.1c1.4,0,2.9,0,4.3,0c0,1.1,0,2.1,0,3.2c0,0.4,0,0.8,0,1.1c-1.4,0-2.9,0-4.3,0l0,0
		C17.1,50,17.1,48.6,17.1,47.1L17.1,47.1z"/>
	<path class="st4" d="M38.6,47.1c1.4,0,2.9,0,4.3,0l0,0c0,1.4,0,2.9,0,4.3l0,0c-1.4,0-2.9,0-4.3,0c0-1.4,0-2.7,0-4.1
		C38.6,47.3,38.6,47.2,38.6,47.1z"/>
	<path class="st4" d="M8.5,47.1c1.4,0,2.9,0,4.3,0l0,0c0,1.4,0,2.9,0,4.3l0,0c-1.4,0-2.9,0-4.3,0c0-1.4,0-2.7,0-4.1
		C8.5,47.3,8.5,47.2,8.5,47.1z"/>
	<path class="st4" d="M47.2,47.1c1.4,0,2.9,0,4.3,0c0,1.1,0,2.1,0,3.2c0,0.4,0,0.8,0,1.1c-1.4,0-2.9,0-4.3,0l0,0
		C47.2,50,47.2,48.6,47.2,47.1L47.2,47.1z"/>
	<path class="st1" d="M12.8,51.4c0-1.4,0-2.9,0-4.3c1.4,0,2.9,0,4.3,0c0,1.4,0,2.9,0,4.3C15.7,51.4,14.2,51.4,12.8,51.4z"/>
	<path class="st1" d="M47.2,47.1c0,1.4,0,2.9,0,4.3c-1.4,0-2.9,0-4.3,0c0-1.4,0-2.9,0-4.3C44.4,47.1,45.8,47.1,47.2,47.1z"/>
	<path class="st0" d="M25.7,21.3c2.9,0,5.7,0,8.6,0l0,0c0,1.4,0,2.9,0,4.3c-0.5,0-1,0-1.5,0c-2.4,0-4.7,0-7.1,0
		C25.7,24.2,25.7,22.7,25.7,21.3L25.7,21.3z"/>
	<path class="st3" d="M34.3,25.6c0-1.4,0-2.9,0-4.3c1.4,0,2.9,0,4.3,0c0,1.4,0,2.9,0,4.3l0,0C37.2,25.6,35.8,25.6,34.3,25.6
		L34.3,25.6z"/>
	<path class="st3" d="M42.9,25.6c0,1.4,0,2.9,0,4.3l0,0c-1.4,0-2.9,0-4.3,0l0,0c0-1.4,0-2.9,0-4.3l0,0
		C40.1,25.6,41.5,25.6,42.9,25.6z"/>
	<path class="st3" d="M25.7,21.3c0,1.4,0,2.9,0,4.3l0,0c-1.4,0-2.9,0-4.3,0l0,0c0-1.4,0-2.9,0-4.3C22.8,21.3,24.3,21.3,25.7,21.3z"
		/>
	<path class="st3" d="M17.1,29.9c0-1.4,0-2.9,0-4.3c1.4,0,2.9,0,4.3,0l0,0c0,1.4,0,2.9,0,4.3l0,0C20,29.9,18.5,29.9,17.1,29.9
		L17.1,29.9z"/>
	<path class="st2" d="M17.1,34.2c-1.4,0-2.9,0-4.3,0c0-1.4,0-2.9,0-4.3c1.4,0,2.9,0,4.3,0l0,0C17.1,31.4,17.1,32.8,17.1,34.2
		L17.1,34.2z"/>
	<path class="st2" d="M47.2,34.2c-1.4,0-2.9,0-4.3,0l0,0c0-1.4,0-2.9,0-4.3l0,0c1.4,0,2.9,0,4.3,0C47.2,31.4,47.2,32.8,47.2,34.2z"
		/>
	<path class="st2" d="M34.3,34.2c0,1.4,0,2.9,0,4.3c-2.9,0-5.7,0-8.6,0c0-1.4,0-2.9,0-4.3l0,0C28.6,34.2,31.5,34.2,34.3,34.2
		L34.3,34.2z"/>
	<path class="st0" d="M17.1,34.2c0-1.4,0-2.9,0-4.3c1.4,0,2.9,0,4.3,0c0,1.4,0,2.9,0,4.3l0,0C20,34.2,18.5,34.2,17.1,34.2z"/>
	<path class="st2" d="M21.4,34.2c0-1.4,0-2.9,0-4.3l0,0c1.4,0,2.9,0,4.3,0l0,0c0,1.4,0,2.9,0,4.3l0,0C24.3,34.2,22.8,34.2,21.4,34.2
		z"/>
	<path class="st2" d="M38.6,34.2c-1.4,0-2.9,0-4.3,0l0,0c0-1.4,0-2.9,0-4.3l0,0c1.4,0,2.9,0,4.3,0l0,0
		C38.6,31.4,38.6,32.8,38.6,34.2L38.6,34.2z"/>
	<ellipse class="st0" cx="40.8" cy="32.1" rx="3" ry="3"/>
	<path class="st2" d="M25.7,25.6c2.4,0,4.7,0,7.1,0c0.5,0,1,0,1.5,0l0,0c0,1.4,0,2.9,0,4.3l0,0c-2.9,0-5.7,0-8.6,0l0,0
		C25.7,28.5,25.7,27,25.7,25.6L25.7,25.6z"/>
	<path class="st0" d="M34.3,29.9c0-1.4,0-2.9,0-4.3c1.4,0,2.9,0,4.3,0c0,1.4,0,2.9,0,4.3C37.2,29.9,35.8,29.9,34.3,29.9z"/>
	<path class="st0" d="M25.7,25.6c0,1.4,0,2.9,0,4.3c-1.4,0-2.9,0-4.3,0c0-1.4,0-2.9,0-4.3C22.8,25.6,24.3,25.6,25.7,25.6z"/>
	<ellipse cx="30" cy="32.1" rx="6.1" ry="3"/>
</g>
</svg>
