<?xml version="1.0" encoding="utf-8"?>
<!-- Generator: Adobe Illustrator 25.4.0, SVG Export Plug-In . SVG Version: 6.00 Build 0)  -->
<svg version="1.1" id="Layer_1" xmlns="http://www.w3.org/2000/svg" xmlns:xlink="http://www.w3.org/1999/xlink" x="0px" y="0px"
	 viewBox="0 0 60 60" style="enable-background:new 0 0 60 60;" xml:space="preserve">
<style type="text/css">
	.st0{fill:#0058F7;}
	.st1{fill:#FEA004;}
	.st2{fill:#36FEDE;}
	.st3{fill:#B8C2FE;}
	.st4{fill:#FED30B;}
</style>
<g>
	<path d="M59.9,17.1c0-0.1,0-0.2-0.2-0.2c-1.4,0-2.7,0-4.1,0c0-1.5,0-2.9,0-4.4c0-1.4,0-2.9,0-4.3c1.3,0,2.7,0,4,0
		c0.2,0,0.2,0,0.2-0.2"/>
	<path d="M47,30.1c0-0.1,0-0.2-0.2-0.2c-1.4,0-2.7,0-4.1,0c0-1.5,0-2.9,0-4.4c0-1.4,0-2.9,0-4.3c1.3,0,2.7,0,4,0
		c0.2,0,0.2,0,0.2-0.2"/>
	<path d="M21.3,60.1c0-1.4,0-2.8,0-4.2l0,0c1.4,0,2.7,0,4.1,0c0.2,0,0.2-0.1,0.2-0.2c0-1.4,0-2.7,0-4.1c0.1,0,0.2,0,0.2,0
		c2.7,0,5.4,0,8.2,0c0.1,0,0.2,0,0.2,0c0,1.4,0,2.8,0,4.1c0,0.1,0,0.2,0.2,0.2c1.4,0,2.8,0,4.2,0l0,0c0,1.4,0,2.8,0,4.2
		C32.8,60.1,27,60.1,21.3,60.1z"/>
	<path d="M0,29.9c5.6,0,11.1,0,16.7,0c0.1,0,0.2,0,0.2,0l0,0c0,1.4,0,2.9,0,4.3c-0.2,0-0.3,0-0.5,0c-1.3,0-2.6,0-3.8,0
		c-1.4,0-2.9,0-4.3,0c-1.4,0-2.8,0-4.2,0c-0.1,0-0.1,0.1-0.1,0.2c0,1.4,0,2.8,0,4.2l0,0c-1.3,0-2.7,0-4,0C0,35.7,0,32.8,0,29.9z"/>
	<path d="M21.3,3.9c0-1.3,0-2.6,0-3.9C27,0,32.8,0,38.5,0c0,1.3,0,2.6,0,3.9c-1.4,0-2.9,0-4.3,0c-0.1,0-0.2,0-0.2,0
		c-2.7,0-5.4,0-8.1,0c-0.1,0-0.2,0-0.2,0C24.1,3.9,22.7,3.9,21.3,3.9z"/>
	<path d="M0,8.2c1.3,0,2.7,0,4,0c0,1.4,0,2.9,0,4.3c0,1.5,0,2.9,0,4.4l0,0c-1.3,0-2.7,0-4,0C0,14,0,11.1,0,8.2z"/>
	<path d="M51.4,42.9c0,2.8,0,5.6,0,8.5c0,0.2,0,0.2-0.2,0.2c-1.4,0-2.7,0-4.1,0l0,0c0-1.5,0-2.9,0-4.4c0-0.1,0-0.2,0-0.2
		c0-1.4,0-2.7,0-4.1C48.5,42.9,50,42.9,51.4,42.9L51.4,42.9z"/>
	<path d="M47.1,51.6c0,1.4,0,2.7,0,4.1c0,0.2,0,0.2-0.2,0.2c-2.8,0-5.6,0-8.4,0l0,0c0-1.4,0-2.9,0-4.3l0,0
		C41.4,51.6,44.2,51.6,47.1,51.6L47.1,51.6z"/>
	<path d="M55.7,38.6c0,1.4,0,2.7,0,4.1c0,0.2,0,0.2-0.2,0.2c-1.4,0-2.7,0-4.1,0l0,0c0-1.4,0-2.9,0-4.3c0,0,0,0,0,0
		C52.8,38.6,54.3,38.6,55.7,38.6L55.7,38.6z"/>
	<path d="M60,29.9c0,2.8,0,5.5,0,8.3c0,0.3,0,0.4-0.2,0.4c-1.4,0-2.7,0-4.1,0l0,0c0-2.9,0-5.8,0-8.7l0,0
		C57.1,29.9,58.6,29.9,60,29.9L60,29.9z"/>
	<path d="M21.3,56c-2.8,0-5.6,0-8.4,0c-0.2,0-0.2,0-0.2-0.2c0-1.4,0-2.7,0-4.1l0,0c2.9,0,5.7,0,8.6,0l0,0
		C21.3,53.1,21.3,54.5,21.3,56L21.3,56z"/>
	<path d="M12.6,51.6c-1.4,0-2.7,0-4.1,0c-0.2,0-0.2,0-0.2-0.2c0-2.8,0-5.6,0-8.5l0,0c1.4,0,2.9,0,4.3,0c0,0.2,0,0.4,0,0.5
		c0,1.3,0,2.5,0,3.8C12.6,48.7,12.6,50.2,12.6,51.6L12.6,51.6z"/>
	<path d="M8.4,42.9c-1.4,0-2.7,0-4.1,0c-0.2,0-0.2,0-0.2-0.2c0-1.4,0-2.7,0-4.1l0,0c1.4,0,2.9,0,4.3,0l0,0
		C8.4,40.1,8.4,41.5,8.4,42.9L8.4,42.9z"/>
	<path class="st0" d="M17,29.9c0-0.3,0-0.6,0-0.9c0-2.5,0-5.1,0-7.6c0-0.1,0-0.2,0-0.2c0-1.4,0-2.9,0-4.3c0.2,0,0.3,0,0.5,0
		c1.3,0,2.5,0,3.8,0c1.4,0,2.9,0,4.3,0c0.1,0,0.2,0,0.2,0c2.7,0,5.4,0,8.1,0c0.1,0,0.2,0,0.3,0c1.4,0,2.9,0,4.3,0c0.1,0,0.2,0,0.2,0
		c1.4,0,2.7,0,4.1,0c0,1.4,0,2.9,0,4.3c0,0.1,0,0.2,0,0.2c0,2.4,0,4.9,0,7.3c0,0.4,0,0.8,0,1.2l0,0c-1.4,0-2.9,0-4.3,0
		c0-0.2,0-0.4,0-0.6c0-1.3,0-2.5,0-3.8c0-1.4,0-2.8,0-4.2c0-0.1,0-0.1-0.1-0.1c-1.4,0-2.8,0-4.2,0c-0.1,0-0.2,0-0.3,0
		c-2.6,0-5.2,0-7.8,0c-0.2,0-0.4,0-0.5,0c-1.4,0-2.8,0-4.2,0c-0.1,0-0.1,0-0.1,0.1c0,1.4,0,2.8,0,4.2c0,0.1,0,0.2,0,0.3
		c0,1.4,0,2.7,0,4.1C19.8,29.9,18.4,29.9,17,29.9L17,29.9z"/>
	<path d="M17,16.9c0,1.4,0,2.9,0,4.3c-4.2,0-8.4,0-12.7,0c-0.2,0-0.2,0-0.2-0.2c0-1.4,0-2.7,0-4.1l0,0c1.4,0,2.9,0,4.3,0
		c1.4,0,2.9,0,4.3,0C14.1,16.9,15.5,16.9,17,16.9L17,16.9z"/>
	<path class="st0" d="M4.1,12.6c0-1.4,0-2.9,0-4.3l0,0c5.7,0,11.3,0,17,0c0.2,0,0.2,0,0.2-0.2c0-1.4,0-2.7,0-4.1l0,0
		c1.4,0,2.9,0,4.3,0c0,1.4,0,2.7,0,4.1c0,0.2,0,0.2,0.2,0.2c2.7,0,5.5,0,8.2,0c0.2,0,0.2,0,0.2-0.2c0-1.4,0-2.7,0-4.1
		c1.4,0,2.9,0,4.3,0l0,0c0,1.4,0,2.7,0,4.1c0,0.3,0,0.3,0.3,0.3c5.6,0,11.3,0,16.9,0l0,0c0,1.4,0,2.9,0,4.3c-1.4,0-2.9,0-4.3,0
		c-1.4,0-2.9,0-4.3,0c-1.4,0-2.9,0-4.3,0c-1.4,0-2.9,0-4.3,0c-1.4,0-2.9,0-4.3,0c-0.1,0-0.2,0-0.2,0c-2.7,0-5.3,0-8,0
		c-0.1,0-0.3,0-0.4,0c-1.4,0-2.9,0-4.3,0c-1.4,0-2.9,0-4.3,0c-1.4,0-2.9,0-4.3,0c-1.4,0-2.9,0-4.3,0C6.9,12.6,5.5,12.6,4.1,12.6z"/>
	<path class="st1" d="M47.1,34.3c1.4,0,2.9,0,4.3,0c0,1.5,0,2.9,0,4.4l0,0c-1.4,0-2.9,0-4.3,0C47.1,37.2,47.1,35.7,47.1,34.3z"/>
	<path class="st2" d="M51.4,12.6c1.4,0,2.9,0,4.3,0c0,1.5,0,2.9,0,4.4l0,0c-1.4,0-2.9,0-4.3,0C51.4,15.5,51.4,14,51.4,12.6z"/>
	<path class="st3" d="M47.1,34.3c0,1.5,0,2.9,0,4.4l0,0c-1.4,0-2.9,0-4.3,0c0-1.5,0-2.9,0-4.4l0,0c1.4,0,2.7,0,4.1,0
		C46.9,34.3,47,34.3,47.1,34.3z"/>
	<path class="st0" d="M51.4,38.6c0-1.5,0-2.9,0-4.4c1.4,0,2.8,0,4.2,0c0.2,0,0.1,0.1,0.1,0.2c0,1.2,0,2.4,0,3.7c0,0.2,0,0.3,0,0.5
		C54.3,38.6,52.8,38.6,51.4,38.6z"/>
	<path class="st2" d="M38.5,29.9c1.4,0,2.9,0,4.3,0c0,1.4,0,2.9,0,4.3l0,0c-1.4,0-2.9,0-4.3,0C38.5,32.8,38.5,31.4,38.5,29.9
		L38.5,29.9z"/>
	<path class="st3" d="M34.2,51.6c-0.1,0-0.2,0-0.2,0c-2.7,0-5.4,0-8.2,0c-0.1,0-0.2,0-0.2,0c-0.1,0-0.2,0-0.2,0c-1.3,0-2.7,0-4,0
		l0,0c0-0.2,0-0.3,0-0.5c0-1.3,0-2.6,0-3.9c0-1.4,0-2.9,0-4.3c0.2,0,0.3,0,0.5,0c1.3,0,2.5,0,3.8,0c0,1.4,0,2.7,0,4.1
		c0,0.2,0,0.2,0.2,0.2c2.7,0,5.5,0,8.2,0c0.2,0,0.2,0,0.2-0.2c0-1.4,0-2.7,0-4.1c0.1,0,0.2,0,0.2,0c1.4,0,2.7,0,4.1,0
		c0,1.4,0,2.9,0,4.3c0,0.1,0,0.2,0,0.2c0,1.4,0,2.7,0,4.1l0,0c-0.2,0-0.3,0-0.5,0C36.8,51.6,35.5,51.6,34.2,51.6z"/>
	<path class="st0" d="M34.2,51.6c1.3,0,2.6,0,3.9,0c0.2,0,0.3,0,0.5,0c0,1.4,0,2.9,0,4.3c-1.4,0-2.8,0-4.2,0c-0.2,0-0.2-0.1-0.2-0.2
		C34.2,54.4,34.2,53,34.2,51.6z"/>
	<path class="st0" d="M21.3,51.6c1.3,0,2.7,0,4,0c0.1,0,0.2,0,0.2,0c0,1.4,0,2.7,0,4.1c0,0.1,0,0.2-0.2,0.2c-1.4,0-2.7,0-4.1,0
		C21.3,54.5,21.3,53.1,21.3,51.6z"/>
	<path d="M55.7,8.2c-5.6,0-11.3,0-16.9,0c-0.3,0-0.3,0-0.3-0.3c0-1.4,0-2.7,0-4.1c3.1,0,6.3,0,9.4,0c2.5,0,5.1,0,7.6,0
		c0.2,0,0.2,0,0.2,0.2C55.7,5.5,55.7,6.9,55.7,8.2z"/>
	<path d="M21.3,3.9c0,1.4,0,2.7,0,4.1c0,0.2,0,0.2-0.2,0.2c-5.7,0-11.3,0-17,0c0-1.4,0-2.7,0-4.1c0-0.2,0-0.2,0.2-0.2
		c5.6,0,11.2,0,16.7,0C21.1,3.9,21.2,3.9,21.3,3.9z"/>
	<path class="st3" d="M12.6,34.3c1.3,0,2.6,0,3.8,0c0.2,0,0.3,0,0.5,0l0,0c0,1.5,0,2.9,0,4.4c-1.4,0-2.9,0-4.3,0l0,0
		C12.6,37.2,12.6,35.7,12.6,34.3z"/>
	<path class="st0" d="M8.4,38.6c-1.4,0-2.9,0-4.3,0c0-1.4,0-2.8,0-4.2c0-0.1,0-0.2,0.1-0.2c1.4,0,2.8,0,4.2,0
		C8.4,35.7,8.4,37.2,8.4,38.6z"/>
	<path class="st1" d="M8.4,38.6c0-1.5,0-2.9,0-4.4c1.4,0,2.9,0,4.3,0c0,1.5,0,2.9,0,4.4C11.2,38.6,9.8,38.6,8.4,38.6L8.4,38.6z"/>
	<path class="st2" d="M17,29.9c1.4,0,2.9,0,4.3,0l0,0c0,1.4,0,2.9,0,4.3c-1.4,0-2.9,0-4.3,0l0,0C17,32.8,17,31.4,17,29.9z"/>
	<path class="st2" d="M34.2,3.9c0,1.4,0,2.7,0,4.1c0,0.2,0,0.2-0.2,0.2c-2.7,0-5.5,0-8.2,0c-0.2,0-0.2,0-0.2-0.2c0-1.4,0-2.7,0-4.1
		c0.1,0,0.2,0,0.2,0c2.7,0,5.4,0,8.1,0C34,3.9,34.1,3.9,34.2,3.9z"/>
	<path class="st2" d="M4.1,12.6c1.4,0,2.9,0,4.3,0c0,1.4,0,2.9,0,4.3c-1.4,0-2.9,0-4.3,0C4.1,15.5,4.1,14,4.1,12.6z"/>
	<path class="st0" d="M38.5,51.6c0-1.4,0-2.7,0-4.1c0-0.1,0-0.2,0-0.2c1.4,0,2.9,0,4.3,0c1.4,0,2.9,0,4.3,0c0,1.5,0,2.9,0,4.4
		C44.2,51.6,41.4,51.6,38.5,51.6z"/>
	<path class="st0" d="M47.1,38.6c1.4,0,2.9,0,4.3,0c0,1.4,0,2.9,0,4.3c-1.4,0-2.9,0-4.3,0l0,0C47.1,41.5,47.1,40.1,47.1,38.6
		L47.1,38.6z"/>
	<path class="st3" d="M47.1,47.3c-1.4,0-2.9,0-4.3,0c0-1.4,0-2.9,0-4.3c1.4,0,2.9,0,4.3,0l0,0c0,1.4,0,2.7,0,4.1
		C47.1,47.1,47.1,47.2,47.1,47.3z"/>
	<path class="st0" d="M21.3,47.3c0,1.3,0,2.6,0,3.9c0,0.2,0,0.3,0,0.5c-2.9,0-5.7,0-8.6,0c0-1.5,0-2.9,0-4.4c1.4,0,2.9,0,4.3,0
		C18.4,47.3,19.8,47.3,21.3,47.3z"/>
	<path class="st3" d="M17,47.3c-1.4,0-2.9,0-4.3,0c0-1.3,0-2.5,0-3.8c0-0.2,0-0.4,0-0.5l0,0c1.4,0,2.9,0,4.3,0
		C17,44.4,17,45.8,17,47.3z"/>
	<path class="st0" d="M8.4,38.6c1.4,0,2.9,0,4.3,0c0,0,0,0,0,0c0,1.4,0,2.9,0,4.3l0,0c-1.4,0-2.9,0-4.3,0
		C8.4,41.5,8.4,40.1,8.4,38.6z"/>
	<path d="M51.4,16.9c1.4,0,2.9,0,4.3,0c0,1.4,0,2.7,0,4.1c0,0.2,0,0.2-0.2,0.2c-4.2,0-8.5,0-12.7,0c0-1.4,0-2.9,0-4.3l0,0
		c1.4,0,2.9,0,4.3,0C48.5,16.9,50,16.9,51.4,16.9z"/>
	<path d="M55.7,29.9c0,1.4,0,2.7,0,4.1c0,0.2,0,0.2-0.2,0.2c-4.2,0-8.5,0-12.7,0c0-1.4,0-2.9,0-4.3l0,0c1.4,0,2.9,0,4.3,0H55.7z"/>
	<path class="st4" d="M25.6,12.6c0.1,0,0.3,0,0.4,0c2.7,0,5.3,0,8,0c0.1,0,0.2,0,0.2,0c0,1.4,0,2.9,0,4.3c-0.1,0-0.2,0-0.3,0
		c-2.7,0-5.4,0-8.1,0c-0.1,0-0.2,0-0.2,0C25.6,15.5,25.6,14,25.6,12.6z"/>
	<path class="st2" d="M25.6,21.3c0.2,0,0.4,0,0.5,0c2.6,0,5.2,0,7.8,0c0.1,0,0.2,0,0.3,0c0,1.4,0,2.9,0,4.3l0,0c-0.9,0-1.9,0-2.8,0
		c-1.9,0-3.9,0-5.8,0l0,0C25.6,24.1,25.6,22.7,25.6,21.3z"/>
	<path class="st2" d="M38.5,25.6c0,1.3,0,2.5,0,3.8c0,0.2,0,0.4,0,0.6l0,0c-0.2,0-0.4,0-0.5,0c-1.3,0-2.5,0-3.8,0c0-1.5,0-2.9,0-4.4
		l0,0C35.6,25.6,37.1,25.6,38.5,25.6z"/>
	<path class="st2" d="M34.2,16.9c0-1.4,0-2.9,0-4.3c1.4,0,2.9,0,4.3,0c0,1.4,0,2.9,0,4.3C37.1,16.9,35.6,16.9,34.2,16.9z"/>
	<path class="st4" d="M38.5,25.6c-1.4,0-2.9,0-4.3,0c0-1.4,0-2.9,0-4.3c1.4,0,2.8,0,4.2,0c0.1,0,0.1,0,0.1,0.1
		C38.5,22.8,38.5,24.2,38.5,25.6z"/>
	<path class="st2" d="M21.3,29.9c0-1.4,0-2.7,0-4.1c0-0.1,0-0.2,0-0.3c1.4,0,2.9,0,4.3,0l0,0c0,1.5,0,2.9,0,4.4c-0.1,0-0.2,0-0.2,0
		C24,29.9,22.6,29.9,21.3,29.9L21.3,29.9z"/>
	<path class="st4" d="M17,12.6c1.4,0,2.9,0,4.3,0c0,1.4,0,2.9,0,4.3c-1.3,0-2.5,0-3.8,0c-0.2,0-0.3,0-0.5,0l0,0
		C17,15.5,17,14,17,12.6z"/>
	<path class="st2" d="M21.3,16.9c0-1.4,0-2.9,0-4.3c1.4,0,2.9,0,4.3,0c0,1.4,0,2.9,0,4.3C24.1,16.9,22.7,16.9,21.3,16.9z"/>
	<path class="st4" d="M38.5,16.9c0-1.4,0-2.9,0-4.3c1.4,0,2.9,0,4.3,0c0,1.5,0,2.9,0,4.4l0,0c-1.4,0-2.7,0-4.1,0
		C38.7,16.9,38.6,16.9,38.5,16.9z"/>
	<path class="st4" d="M25.5,25.6c-1.4,0-2.9,0-4.3,0c0-1.4,0-2.8,0-4.2c0-0.1,0-0.1,0.1-0.1c1.4,0,2.8,0,4.2,0
		C25.6,22.7,25.6,24.1,25.5,25.6z"/>
	<path class="st2" d="M17,12.6c0,1.5,0,2.9,0,4.4c-1.4,0-2.9,0-4.3,0c0-1.4,0-2.9,0-4.3C14.1,12.6,15.5,12.6,17,12.6z"/>
	<path class="st4" d="M12.6,12.6c0,1.4,0,2.9,0,4.3c-1.4,0-2.9,0-4.3,0c0-1.4,0-2.9,0-4.3C9.8,12.6,11.2,12.6,12.6,12.6z"/>
	<path class="st4" d="M51.4,16.9c-1.4,0-2.9,0-4.3,0c0-1.4,0-2.9,0-4.3c1.4,0,2.9,0,4.3,0C51.4,14,51.4,15.5,51.4,16.9z"/>
	<path class="st2" d="M47.1,12.6c0,1.4,0,2.9,0,4.3c-1.4,0-2.9,0-4.3,0c0-1.5,0-2.9,0-4.4C44.2,12.6,45.7,12.6,47.1,12.6z"/>
	<path class="st1" d="M38.5,34.3c1.4,0,2.9,0,4.3,0c0,1.5,0,2.9,0,4.4l0,0c-1.4,0-2.9,0-4.3,0l0,0C38.5,37.2,38.5,35.7,38.5,34.3
		L38.5,34.3z"/>
	<path class="st1" d="M47.1,42.9c-1.4,0-2.9,0-4.3,0l0,0c0-1.4,0-2.9,0-4.3l0,0c1.4,0,2.9,0,4.3,0C47.1,40.1,47.1,41.5,47.1,42.9z"
		/>
	<path class="st1" d="M21.3,29.9c1.3,0,2.7,0,4,0c0.1,0,0.2,0,0.2,0c0.1,0,0.2,0,0.2,0c2.7,0,5.4,0,8.1,0c0.1,0,0.2,0,0.2,0
		c1.3,0,2.5,0,3.8,0c0.2,0,0.4,0,0.5,0c0,1.4,0,2.9,0,4.3l0,0c-1.4,0-2.8,0-4.1,0c-0.2,0-0.2,0-0.2,0.2c0,1.3,0,2.6,0,4
		c0,0.2,0,0.2,0.2,0.2c1.4,0,2.7,0,4.1,0l0,0c0,1.4,0,2.9,0,4.3l0,0c-1.4,0-2.7,0-4.1,0c-0.1,0-0.2,0-0.2,0c-0.1,0-0.2,0-0.2,0
		c-2.7,0-5.4,0-8.1,0c-0.1,0-0.2,0-0.2,0c-1.3,0-2.5,0-3.8,0c-0.2,0-0.3,0-0.5,0l0,0c0-1.4,0-2.9,0-4.3l0,0c1.4,0,2.7,0,4.1,0
		c0.2,0,0.2,0,0.2-0.2c0-1.3,0-2.6,0-4c0-0.2,0-0.2-0.2-0.2c-1.4,0-2.7,0-4.1,0l0,0C21.3,32.8,21.3,31.4,21.3,29.9z"/>
	<path class="st0" d="M25.6,42.9c0.1,0,0.2,0,0.2,0c2.7,0,5.4,0,8.1,0c0.1,0,0.2,0,0.2,0c0,1.4,0,2.7,0,4.1c0,0.2,0,0.2-0.2,0.2
		c-2.7,0-5.5,0-8.2,0c-0.2,0-0.2,0-0.2-0.2C25.6,45.7,25.6,44.3,25.6,42.9z"/>
	<path class="st1" d="M17,47.3c0-1.4,0-2.9,0-4.3l0,0c1.4,0,2.9,0,4.3,0l0,0c0,1.4,0,2.9,0,4.3C19.8,47.3,18.4,47.3,17,47.3z"/>
	<path class="st1" d="M42.8,42.9c0,1.4,0,2.9,0,4.3c-1.4,0-2.9,0-4.3,0c0-1.4,0-2.9,0-4.3l0,0C39.9,42.9,41.4,42.9,42.8,42.9
		L42.8,42.9z"/>
	<path class="st1" d="M17,34.3c1.4,0,2.9,0,4.3,0l0,0c0,1.5,0,2.9,0,4.4l0,0c-1.4,0-2.9,0-4.3,0l0,0C17,37.2,17,35.7,17,34.3z"/>
	<path class="st1" d="M12.6,42.9c0-1.4,0-2.9,0-4.3c1.4,0,2.9,0,4.3,0l0,0c0,1.4,0,2.9,0,4.3l0,0C15.5,42.9,14.1,42.9,12.6,42.9z"/>
	<path class="st0" d="M34.2,29.9c-0.1,0-0.2,0-0.2,0c-2.7,0-5.4,0-8.1,0c-0.1,0-0.2,0-0.2,0c0-1.5,0-2.9,0-4.4c1.9,0,3.9,0,5.8,0
		c0.9,0,1.9,0,2.8,0C34.2,27,34.2,28.5,34.2,29.9z"/>
	<path class="st2" d="M38.5,38.6c-1.4,0-2.7,0-4.1,0c-0.2,0-0.2,0-0.2-0.2c0-1.3,0-2.6,0-4c0-0.2,0-0.2,0.2-0.2c1.4,0,2.8,0,4.1,0
		C38.5,35.7,38.5,37.2,38.5,38.6z"/>
	<path class="st3" d="M42.8,42.9c-1.4,0-2.9,0-4.3,0c0-1.4,0-2.9,0-4.3c1.4,0,2.9,0,4.3,0C42.8,40.1,42.8,41.5,42.8,42.9z"/>
	<path class="st2" d="M21.3,38.6c0-1.5,0-2.9,0-4.4c1.4,0,2.7,0,4.1,0c0.2,0,0.2,0,0.2,0.2c0,1.3,0,2.6,0,4c0,0.2,0,0.2-0.2,0.2
		C24,38.6,22.6,38.6,21.3,38.6z"/>
	<path class="st3" d="M17,42.9c0-1.4,0-2.9,0-4.3c1.4,0,2.9,0,4.3,0c0,1.4,0,2.9,0,4.3C19.8,42.9,18.4,42.9,17,42.9z"/>
</g>
</svg>
