<?xml version="1.0" encoding="utf-8"?>
<!-- Generator: Adobe Illustrator 25.4.0, SVG Export Plug-In . SVG Version: 6.00 Build 0)  -->
<svg version="1.1" id="Layer_1" xmlns="http://www.w3.org/2000/svg" xmlns:xlink="http://www.w3.org/1999/xlink" x="0px" y="0px"
	 viewBox="0 0 60 60" style="enable-background:new 0 0 60 60;" xml:space="preserve">
<style type="text/css">
	.st0{fill:#FEA004;}
	.st1{fill:#B8C2FE;}
	.st2{fill:#FED30B;}
	.st3{fill:#36FEDE;}
	.st4{fill:#0058F7;}
</style>
<g>
	<path d="M60,25.6c-1.4,0-2.8,0-4.2,0l0,0c0-1.2,0-2.4,0-3.6c0-3.1,0-6.2,0-9.3l0,0c1.4,0,2.8,0,4.2,0C60,17,60,21.3,60,25.6z"/>
	<path d="M47.2,0c0,1.4,0,2.8,0,4.1l0,0c-0.4,0-0.8,0-1.1,0c-1.1,0-2.1,0-3.2,0c-0.2,0-0.3,0-0.5,0c-1.3,0-2.6,0-3.8,0
		c-1.4,0-2.9,0-4.3,0c0-1.4,0-2.8,0-4.1C38.5,0,42.8,0,47.2,0z"/>
	<path d="M12.6,4.1c0-1.4,0-2.8,0-4.1c4.3,0,8.6,0,13,0c0,1.4,0,2.8,0,4.1c-0.4,0-0.7,0-1.1,0c-1.1,0-2.1,0-3.2,0
		c-0.2,0-0.3,0-0.5,0c-1.3,0-2.6,0-3.8,0c-0.1,0-0.1,0-0.2,0C15.4,4.1,14,4.1,12.6,4.1L12.6,4.1z"/>
	<path d="M4,25.6c-1.3,0-2.7,0-4,0c0-4.3,0-8.6,0-12.9c1.3,0,2.7,0,4,0l0,0c0,1.2,0,2.5,0,3.7C4,19.5,4,22.6,4,25.6L4,25.6z"/>
	<path d="M21.2,55.7c0,1.4,0,2.8,0,4.3c-1.4,0-2.9,0-4.3,0c0-1.4,0-2.8,0-4.3l0,0C18.4,55.7,19.8,55.7,21.2,55.7L21.2,55.7z"/>
	<path d="M38.5,60c0-1.4,0-2.8,0-4.3l0,0c1.4,0,2.9,0,4.3,0l0,0c0,1.4,0,2.8,0,4.3C41.4,60,40,60,38.5,60z"/>
	<path d="M55.8,38.5c1.4,0,2.8,0,4.2,0c0,1.4,0,2.9,0,4.3c-1.4,0-2.8,0-4.2,0l0,0C55.8,41.4,55.8,40,55.8,38.5
		C55.8,38.5,55.8,38.5,55.8,38.5z"/>
	<path d="M0,38.5c1.3,0,2.7,0,4,0l0,0c0,1.4,0,2.9,0,4.3l0,0c-1.3,0-2.7,0-4,0C0,41.4,0,40,0,38.5z"/>
	<path d="M51.5,51.4c0,1.4,0,2.8,0,4.1c0,0.1,0,0.2-0.1,0.2c-2.8,0-5.7,0-8.5,0l0,0c0-2.9,0-5.7,0-8.6c1.4,0,2.9,0,4.3,0
		c0,1.4,0,2.8,0,4.1c0,0.1,0,0.2,0.2,0.2C48.7,51.4,50.1,51.4,51.5,51.4L51.5,51.4z"/>
	<path d="M55.8,42.8c0,2.8,0,5.6,0,8.5c0,0.1,0,0.1-0.2,0.1c-1.4,0-2.8,0-4.2,0l0,0c0-0.4,0-0.8,0-1.2c0-1,0-2.1,0-3.1
		c0-0.1,0-0.1,0-0.2c0-1.4,0-2.7,0-4.1C52.9,42.8,54.3,42.8,55.8,42.8L55.8,42.8z"/>
	<path d="M16.9,55.7c-2.8,0-5.7,0-8.5,0c-0.1,0-0.1,0-0.1-0.2c0-1.4,0-2.8,0-4.1l0,0c1.4,0,2.8,0,4.1,0c0.1,0,0.2,0,0.2-0.2
		c0-1.4,0-2.8,0-4.1c0.4,0,0.8,0,1.1,0c1.1,0,2.1,0,3.2,0C16.9,50,16.9,52.9,16.9,55.7L16.9,55.7z"/>
	<path d="M8.3,51.4c-1.4,0-2.8,0-4.2,0c-0.1,0-0.2,0-0.2-0.1c0-2.8,0-5.6,0-8.5l0,0c0.4,0,0.8,0,1.2,0c1,0,2.1,0,3.1,0
		c0,0.4,0,0.8,0,1.1c0,1.1,0,2.1,0,3.2c0,0.1,0,0.1,0,0.2C8.3,48.7,8.3,50.1,8.3,51.4L8.3,51.4z"/>
	<path d="M34.2,51.4c-2.9,0-5.8,0-8.6,0l0,0c0-1.4,0-2.9,0-4.3l0,0c2.9,0,5.8,0,8.6,0l0,0C34.2,48.6,34.2,50,34.2,51.4L34.2,51.4z"
		/>
	<path d="M38.5,55.7c-1.4,0-2.8,0-4.2,0c-0.1,0-0.1,0-0.1-0.1c0-1.4,0-2.8,0-4.2l0,0c1.4,0,2.8,0,4.2,0c0.1,0,0.1,0,0.1,0.1
		C38.5,53,38.5,54.3,38.5,55.7L38.5,55.7z"/>
	<path d="M25.6,51.4c0,1.4,0,2.8,0,4.2c0,0.1,0,0.1-0.1,0.1c-1.4,0-2.8,0-4.2,0l0,0c0-1.4,0-2.8,0-4.2c0-0.1,0-0.1,0.1-0.1
		C22.8,51.4,24.2,51.4,25.6,51.4L25.6,51.4z"/>
	<path d="M47.1,4.1c1.4,0,2.8,0,4.2,0c0.1,0,0.1,0,0.1,0.2c0,1.3,0,2.7,0,4c0,0.1,0,0.2,0.2,0.2c1.3,0,2.7,0,4,0
		c0.1,0,0.2,0,0.2,0.2c0,1.4,0,2.8,0,4.1l0,0c-2.9,0-5.8,0-8.6,0c0-0.1,0-0.3,0-0.4c0-1.3,0-2.6,0-3.9c0-0.1,0-0.1,0-0.2
		C47.2,6.9,47.2,5.5,47.1,4.1L47.1,4.1z"/>
	<path d="M4,12.7c0-1.4,0-2.8,0-4.2c0-0.1,0-0.1,0.2-0.1c1.3,0,2.7,0,4,0c0.1,0,0.2,0,0.2-0.2c0-1.3,0-2.6,0-4c0-0.1,0-0.2,0.2-0.2
		c1.4,0,2.8,0,4.1,0l0,0c0,0.4,0,0.8,0,1.1c0,1.1,0,2.1,0,3.2c0,0.2,0,0.5,0,0.7c0,1.2,0,2.4,0,3.6C9.7,12.7,6.9,12.7,4,12.7L4,12.7
		z"/>
	<path d="M55.8,25.6c0,1.4,0,2.8,0,4.2c0,0.1,0,0.1-0.2,0.1c-1.3,0-2.7,0-4,0c-0.1,0-0.2,0-0.2,0.2c0,1.4,0,2.8,0,4.1l0,0
		c-1.4,0-2.9,0-4.3,0c0-2.8,0-5.7,0-8.5c0,0,0-0.1,0-0.1C50,25.6,52.9,25.6,55.8,25.6L55.8,25.6z"/>
	<path d="M51.5,34.2c1.4,0,2.8,0,4.2,0c0.1,0,0.1,0,0.1,0.1c0,1.4,0,2.8,0,4.2l0,0c-0.4,0-0.8,0-1.2,0c-1,0-2.1,0-3.1,0
		C51.5,37.1,51.5,35.7,51.5,34.2L51.5,34.2z"/>
	<path d="M8.3,34.2c0-1.4,0-2.8,0-4.1c0-0.1,0-0.2-0.2-0.2c-1.3,0-2.7,0-4,0c-0.1,0-0.2,0-0.2-0.2c0-1.4,0-2.8,0-4.1l0,0
		c2.9,0,5.8,0,8.6,0c0,0,0,0.1,0,0.1c0,2.8,0,5.7,0,8.5C11.2,34.2,9.7,34.2,8.3,34.2L8.3,34.2z"/>
	<path d="M4,38.5c0-1.4,0-2.8,0-4.2c0-0.1,0.1-0.1,0.1-0.1c1.4,0,2.8,0,4.2,0l0,0c0,1.4,0,2.9,0,4.3C6.9,38.5,5.4,38.5,4,38.5
		L4,38.5z"/>
	<path class="st0" d="M55.8,25.6c-2.9,0-5.8,0-8.6,0c0-1.4,0-2.9,0-4.3c1.4,0,2.8,0,4.2,0c0.1,0,0.2,0,0.2-0.2c0-1.3,0-2.7,0-4
		c0-0.1,0-0.2-0.2-0.2c-1.4,0-2.8,0-4.1,0c0-0.4,0-0.8,0-1.1c0-1.1,0-2.1,0-3.2c2.9,0,5.8,0,8.6,0c0,3.1,0,6.2,0,9.3
		C55.8,23.2,55.8,24.4,55.8,25.6z"/>
	<path class="st0" d="M47.2,4.1c0,1.4,0,2.7,0,4.1c0,0.1,0,0.1,0,0.2c-1.4,0-2.9,0-4.3,0c0-1.4,0-2.9,0-4.3c1.1,0,2.1,0,3.2,0
		C46.4,4.1,46.8,4.1,47.2,4.1z"/>
	<path class="st1" d="M42.8,4.1c0,1.4,0,2.9,0,4.3l0,0c-1.4,0-2.9,0-4.3,0l0,0c0-1.4,0-2.9,0-4.3c1.3,0,2.6,0,3.8,0
		C42.5,4.1,42.7,4.1,42.8,4.1z"/>
	<path class="st0" d="M38.5,4.1c0,1.4,0,2.9,0,4.3c-1.4,0-2.9,0-4.3,0c0-1.4,0-2.9,0-4.3c0,0,0,0,0,0C35.6,4.1,37.1,4.1,38.5,4.1z"
		/>
	<path class="st0" d="M21.2,4.1c1.1,0,2.1,0,3.2,0c0.4,0,0.7,0,1.1,0c0,0,0,0,0,0c0,0.4,0,0.8,0,1.1c0,1.1,0,2.1,0,3.2
		c-1.4,0-2.9,0-4.3,0C21.2,7,21.2,5.6,21.2,4.1z"/>
	<path class="st1" d="M21.2,4.1c0,1.4,0,2.9,0,4.3l0,0c-1.4,0-2.9,0-4.3,0l0,0c0-1.4,0-2.9,0-4.3c1.3,0,2.6,0,3.8,0
		C20.9,4.1,21.1,4.1,21.2,4.1z"/>
	<path class="st0" d="M16.9,4.1c0,1.4,0,2.9,0,4.3c-1.4,0-2.9,0-4.3,0c0-1.1,0-2.1,0-3.2c0-0.4,0-0.8,0-1.1c1.4,0,2.7,0,4.1,0
		C16.8,4.1,16.9,4.1,16.9,4.1z"/>
	<path class="st0" d="M12.6,25.6c-2.9,0-5.8,0-8.6,0c0-3.1,0-6.1,0-9.2c0-1.2,0-2.5,0-3.7c2.9,0,5.8,0,8.6,0c0,1.4,0,2.9,0,4.3
		c-1.4,0-2.8,0-4.2,0c-0.1,0-0.2,0-0.2,0.2c0,1.3,0,2.7,0,4c0,0.1,0,0.2,0.2,0.2c1.4,0,2.8,0,4.1,0c0,0.4,0,0.8,0,1.1
		C12.6,23.5,12.6,24.6,12.6,25.6z"/>
	<path d="M25.6,8.4c0-1.1,0-2.1,0-3.2c0-0.4,0-0.8,0-1.1c2.9,0,5.8,0,8.6,0c0,1.4,0,2.9,0,4.3c0,0.2,0,0.5,0,0.7c0,1.2,0,2.4,0,3.6
		c-2.9,0-5.7,0-8.6,0c0-0.2,0-0.5,0-0.7C25.6,10.8,25.6,9.6,25.6,8.4z"/>
	<path class="st0" d="M25.6,51.4c-1.4,0-2.8,0-4.2,0c-0.1,0-0.1,0-0.1,0.1c0,1.4,0,2.8,0,4.2c-1.4,0-2.9,0-4.3,0c0-2.9,0-5.7,0-8.6
		c0.1,0,0.1,0,0.2,0c2.8,0,5.6,0,8.4,0C25.6,48.6,25.6,50,25.6,51.4z"/>
	<path class="st0" d="M38.5,55.7c0-1.4,0-2.8,0-4.2c0-0.1,0-0.1-0.1-0.1c-1.4,0-2.8,0-4.2,0c0-1.4,0-2.9,0-4.3c2.8,0,5.6,0,8.4,0
		c0.1,0,0.1,0,0.2,0c0,2.9,0,5.7,0,8.6C41.4,55.7,40,55.7,38.5,55.7z"/>
	<path class="st2" d="M51.5,38.5c1,0,2.1,0,3.1,0c0.4,0,0.8,0,1.2,0c0,1.4,0,2.9,0,4.3c-1.4,0-2.9,0-4.3,0c-0.1,0-0.1,0-0.2,0
		c-1.4,0-2.7,0-4.1,0c0-0.1,0-0.1,0-0.2c0-1.4,0-2.7,0-4.1c0.4,0,0.8,0,1.2,0C49.4,38.5,50.4,38.5,51.5,38.5z"/>
	<path class="st2" d="M4,38.5c1.4,0,2.9,0,4.3,0c1.4,0,2.9,0,4.3,0c0,0.3,0,0.6,0,0.9c0,1.1,0,2.3,0,3.4c-0.4,0-0.8,0-1.1,0
		c-1.1,0-2.1,0-3.2,0c-1,0-2.1,0-3.1,0c-0.4,0-0.8,0-1.2,0C4,41.4,4,40,4,38.5z"/>
	<path class="st3" d="M47.1,38.5c0,1.4,0,2.7,0,4.1c0,0.1,0,0.1,0,0.2c0,1.4,0,2.9,0,4.3l0,0c-1.4,0-2.9,0-4.3,0c-0.1,0-0.1,0-0.2,0
		c-2.8,0-5.6,0-8.4,0l0,0c0-1.4,0-2.9,0-4.3c0.2,0,0.4,0,0.6,0c1.2,0,2.5,0,3.7,0c1.4,0,2.8,0,4.2,0c0.1,0,0.1-0.1,0.1-0.2
		c0-1.4,0-2.8,0-4.1C44.3,38.5,45.7,38.5,47.1,38.5L47.1,38.5z"/>
	<path class="st3" d="M51.5,47.1c0,1,0,2.1,0,3.1c0,0.4,0,0.8,0,1.2c-1.4,0-2.8,0-4.1,0c-0.1,0-0.2,0-0.2-0.2c0-1.4,0-2.8,0-4.1l0,0
		C48.6,47.1,50,47.1,51.5,47.1z"/>
	<path class="st1" d="M51.5,47.1c-1.4,0-2.9,0-4.3,0c0-1.4,0-2.9,0-4.3c1.4,0,2.7,0,4.1,0c0.1,0,0.1,0,0.2,0c0,1.4,0,2.7,0,4.1
		C51.5,47,51.5,47.1,51.5,47.1z"/>
	<path class="st3" d="M12.6,42.8c0-1.1,0-2.3,0-3.4c0-0.3,0-0.6,0-0.9l0,0c1.4,0,2.9,0,4.3,0c0,1.3,0,2.7,0,4c0,0.3,0,0.3,0.3,0.3
		c1.3,0,2.7,0,4,0c0.1,0,0.1,0,0.2,0c1.4,0,2.7,0,4.1,0c0,1.4,0,2.9,0,4.3l0,0c-2.8,0-5.6,0-8.4,0c-0.1,0-0.1,0-0.2,0
		c-1.1,0-2.1,0-3.2,0c-0.4,0-0.8,0-1.1,0l0,0C12.6,45.7,12.6,44.3,12.6,42.8z"/>
	<path class="st3" d="M8.3,51.4c0-1.4,0-2.7,0-4.1c0-0.1,0-0.1,0-0.2c1.4,0,2.9,0,4.3,0l0,0c0,1.4,0,2.8,0,4.1c0,0.1,0,0.2-0.2,0.2
		C11.1,51.4,9.7,51.4,8.3,51.4z"/>
	<path class="st1" d="M12.6,47.1c-1.4,0-2.9,0-4.3,0c0-1.1,0-2.1,0-3.2c0-0.4,0-0.8,0-1.1c1.1,0,2.1,0,3.2,0c0.4,0,0.8,0,1.1,0
		C12.6,44.3,12.6,45.7,12.6,47.1z"/>
	<path class="st2" d="M25.6,47.1c0-1.4,0-2.9,0-4.3l0,0c2.9,0,5.8,0,8.6,0l0,0c0,1.4,0,2.9,0,4.3C31.3,47.1,28.4,47.1,25.6,47.1z"/>
	<path class="st1" d="M34.2,12.7c0-1.2,0-2.4,0-3.6c0-0.2,0-0.5,0-0.7c1.4,0,2.9,0,4.3,0l0,0c0,1.4,0,2.8,0,4.2c0,0.1,0,0.1,0.1,0.1
		c1.4,0,2.7,0,4.1,0c0.1,0,0.1,0,0.1-0.1c0-1.4,0-2.8,0-4.2l0,0c1.4,0,2.9,0,4.3,0c0,1.3,0,2.6,0,3.9c0,0.1,0,0.3,0,0.4
		c0,1.1,0,2.1,0,3.2c0,0.4,0,0.8,0,1.1l0,0c-1.4,0-2.9,0-4.3,0c-1.4,0-2.9,0-4.3,0c-0.1,0-0.1,0-0.2,0c-1.4,0-2.7,0-4.1,0
		c0-0.4,0-0.8,0-1.2C34.2,14.8,34.2,13.8,34.2,12.7z"/>
	<path class="st1" d="M25.6,8.4c0,1.2,0,2.4,0,3.6c0,0.2,0,0.5,0,0.7c0,0.1,0,0.2,0,0.3c0,1.3,0,2.7,0,4c-0.2,0-0.4,0-0.6,0
		c-1.2,0-2.5,0-3.7,0c-1.4,0-2.9,0-4.3,0c-0.6,0-1.3,0-1.9,0c-0.8,0-1.6,0-2.4,0l0,0c0-1.4,0-2.9,0-4.3c0-1.2,0-2.4,0-3.6
		c0-0.2,0-0.5,0-0.7c1.4,0,2.9,0,4.3,0l0,0c0,1.4,0,2.8,0,4.2c0,0.1,0,0.1,0.1,0.1c1.4,0,2.7,0,4.1,0c0.1,0,0.1,0,0.1-0.1
		c0-1.4,0-2.8,0-4.2l0,0C22.7,8.4,24.1,8.4,25.6,8.4z"/>
	<path class="st1" d="M47.2,21.3c0,1.4,0,2.9,0,4.3c0,0,0,0.1,0,0.1c0,2.8,0,5.7,0,8.5l0,0c-1.4,0-2.9,0-4.3,0c-0.3,0-0.6,0-0.9,0
		c-1.1,0-2.3,0-3.4,0c-0.1,0-0.1,0-0.2,0c-1.3,0-2.6,0-4,0c-0.1,0-0.2,0-0.2-0.2c0-1.4,0-2.8,0-4.1c2.8,0,5.5,0,8.3,0
		c0.4,0,0.4,0,0.4-0.4c0-1.3,0-2.6,0-3.9c0-0.1,0-0.1,0-0.2c0-1.4,0-2.8,0-4.1l0,0c0.6,0,1.3,0,1.9,0C45.5,21.3,46.3,21.3,47.2,21.3
		L47.2,21.3z"/>
	<path class="st1" d="M51.5,38.5c-1,0-2.1,0-3.1,0c-0.4,0-0.8,0-1.2,0l0,0c0-1.4,0-2.9,0-4.3l0,0c1.4,0,2.9,0,4.3,0
		C51.5,35.7,51.5,37.1,51.5,38.5z"/>
	<path class="st1" d="M12.6,25.6c0-1.1,0-2.1,0-3.2c0-0.4,0-0.8,0-1.1l0,0c0.1,0,0.1,0,0.2,0c1.4,0,2.8,0,4.1,0l0,0
		c0,0.3,0,0.6,0,0.9c0,1.1,0,2.3,0,3.4c0,1.4,0,2.8,0,4.2c0,0.1,0.1,0.1,0.1,0.1c2.8,0,5.7,0,8.5,0c0,1.3,0,2.6,0,3.9
		c0,0.4,0,0.4-0.4,0.4c-1.3,0-2.6,0-4,0c-1.4,0-2.9,0-4.3,0c-1.4,0-2.9,0-4.3,0l0,0c0-2.8,0-5.7,0-8.5
		C12.6,25.7,12.6,25.7,12.6,25.6z"/>
	<path class="st1" d="M12.6,38.5c-1.4,0-2.9,0-4.3,0c0-1.4,0-2.9,0-4.3c1.4,0,2.9,0,4.3,0l0,0C12.6,35.7,12.6,37.1,12.6,38.5
		L12.6,38.5z"/>
	<path class="st4" d="M47.2,17c1.4,0,2.8,0,4.1,0c0.1,0,0.2,0,0.2,0.2c0,1.3,0,2.7,0,4c0,0.1,0,0.2-0.2,0.2c-1.4,0-2.8,0-4.2,0l0,0
		C47.1,19.9,47.1,18.5,47.2,17L47.2,17z"/>
	<path class="st4" d="M42.8,8.4c0,1.4,0,2.8,0,4.2c0,0.1,0,0.1-0.1,0.1c-1.4,0-2.7,0-4.1,0c-0.1,0-0.1,0-0.1-0.1c0-1.4,0-2.8,0-4.2
		C40,8.4,41.4,8.4,42.8,8.4z"/>
	<path class="st4" d="M21.2,8.4c0,1.4,0,2.8,0,4.2c0,0.1,0,0.1-0.1,0.1c-1.4,0-2.7,0-4.1,0c-0.1,0-0.1,0-0.1-0.1c0-1.4,0-2.8,0-4.2
		C18.4,8.4,19.8,8.4,21.2,8.4z"/>
	<path class="st4" d="M12.6,21.3c-1.4,0-2.8,0-4.1,0c-0.1,0-0.2,0-0.2-0.2c0-1.3,0-2.7,0-4c0-0.1,0-0.2,0.2-0.2c1.4,0,2.8,0,4.2,0
		l0,0C12.6,18.5,12.6,19.9,12.6,21.3L12.6,21.3z"/>
	<path class="st0" d="M25.6,17c0-1.3,0-2.7,0-4c0-0.1,0-0.2,0-0.3c2.9,0,5.7,0,8.6,0c0,1,0,2.1,0,3.1c0,0.4,0,0.8,0,1.2l0,0
		C31.3,17,28.4,17,25.6,17L25.6,17z"/>
	<path class="st2" d="M47.1,34.2c0,1.4,0,2.9,0,4.3c-1.4,0-2.9,0-4.3,0l0,0c0-1.4,0-2.9,0-4.3C44.3,34.2,45.7,34.2,47.1,34.2z"/>
	<path class="st1" d="M38.5,42.8c-1.2,0-2.5,0-3.7,0c-0.2,0-0.4,0-0.6,0l0,0c0-1.4,0-2.9,0-4.3c0.1,0,0.1,0,0.2,0c1.4,0,2.8,0,4.1,0
		C38.5,40,38.5,41.4,38.5,42.8z"/>
	<path d="M38.5,42.8c0-1.4,0-2.9,0-4.3l0,0c1.4,0,2.9,0,4.3,0l0,0c0,1.4,0,2.8,0,4.1c0,0.1,0,0.2-0.1,0.2
		C41.3,42.8,39.9,42.8,38.5,42.8z"/>
	<path class="st2" d="M12.6,38.5c0-1.4,0-2.9,0-4.3c1.4,0,2.9,0,4.3,0c0,1.4,0,2.9,0,4.3l0,0C15.5,38.5,14.1,38.5,12.6,38.5z"/>
	<path d="M21.2,42.8c-1.3,0-2.7,0-4,0c-0.3,0-0.3,0-0.3-0.3c0-1.3,0-2.7,0-4l0,0c1.4,0,2.9,0,4.3,0l0,0C21.2,40,21.2,41.4,21.2,42.8
		z"/>
	<path class="st1" d="M21.2,42.8c0-1.4,0-2.9,0-4.3c0.4,0,0.8,0,1.2,0c1,0,2.1,0,3.1,0c0,1.4,0,2.9,0,4.3l0,0c-1.4,0-2.7,0-4.1,0
		C21.4,42.8,21.3,42.8,21.2,42.8z"/>
	<path class="st3" d="M25.6,42.8c0-1.4,0-2.9,0-4.3c0,0,0.1,0,0.1,0c2.8,0,5.6,0,8.4,0c0,0,0.1,0,0.1,0c0,1.4,0,2.9,0,4.3
		C31.3,42.8,28.4,42.8,25.6,42.8z"/>
	<path class="st3" d="M47.1,17c0,1.4,0,2.9,0,4.3c-0.8,0-1.6,0-2.4,0c-0.6,0-1.3,0-1.9,0c0-1.4,0-2.9,0-4.3C44.3,17,45.7,17,47.1,17
		z"/>
	<path class="st3" d="M34.2,17c1.4,0,2.7,0,4.1,0c0.1,0,0.1,0,0.2,0c0,1.4,0,2.9,0,4.3l0,0c-1.4,0-2.9,0-4.3,0c0-0.1,0-0.1,0-0.2
		C34.2,19.8,34.2,18.4,34.2,17L34.2,17z"/>
	<path class="st2" d="M38.5,21.3c0-1.4,0-2.9,0-4.3c1.4,0,2.9,0,4.3,0c0,1.4,0,2.9,0,4.3l0,0C41.4,21.3,40,21.3,38.5,21.3z"/>
	<path class="st3" d="M12.6,21.3c0-1.4,0-2.9,0-4.3c0.8,0,1.6,0,2.4,0c0.6,0,1.3,0,1.9,0c0,1.4,0,2.9,0,4.3c-1.4,0-2.8,0-4.1,0
		C12.7,21.3,12.7,21.3,12.6,21.3z"/>
	<path class="st2" d="M16.9,21.3c0-1.4,0-2.9,0-4.3c1.4,0,2.9,0,4.3,0c0,1.4,0,2.9,0,4.3C19.8,21.3,18.4,21.3,16.9,21.3L16.9,21.3z"
		/>
	<path class="st3" d="M21.2,21.3c0-1.4,0-2.9,0-4.3c1.2,0,2.5,0,3.7,0c0.2,0,0.4,0,0.6,0l0,0c0,0.4,0,0.8,0,1.1c0,1.1,0,2.1,0,3.2
		C24.1,21.3,22.7,21.3,21.2,21.3L21.2,21.3z"/>
	<path d="M34.2,38.5c0,0-0.1,0-0.1,0c-2.8,0-5.6,0-8.4,0c0,0-0.1,0-0.1,0c-1,0-2.1,0-3.1,0c-0.4,0-0.8,0-1.2,0l0,0
		c0-1.4,0-2.9,0-4.3c1.3,0,2.6,0,4,0c0.4,0,0.4,0,0.4-0.4c0-1.3,0-2.6,0-3.9l0,0c2.9,0,5.8,0,8.6,0l0,0c0,1.4,0,2.8,0,4.1
		c0,0.1,0,0.2,0.2,0.2c1.3,0,2.6,0,4,0c0.1,0,0.1,0,0.2,0c0,1.4,0,2.9,0,4.3l0,0c-1.4,0-2.8,0-4.1,0C34.3,38.5,34.3,38.5,34.2,38.5z
		"/>
	<path d="M42.8,25.6c0,1.3,0,2.6,0,3.9c0,0.4,0,0.4-0.4,0.4c-2.8,0-5.5,0-8.3,0l0,0c0-1.4,0-2.9,0-4.3l0,0c0.4,0,0.8,0,1.2,0
		c1,0,2.1,0,3.1,0c0.1,0,0.1,0,0.2,0C40.1,25.6,41.5,25.6,42.8,25.6z"/>
	<path class="st3" d="M38.5,38.5c0-1.4,0-2.9,0-4.3c1.1,0,2.3,0,3.4,0c0.3,0,0.6,0,0.9,0c0,1.4,0,2.9,0,4.3
		C41.4,38.5,40,38.5,38.5,38.5z"/>
	<path class="st3" d="M42.8,25.6c-1.4,0-2.8,0-4.1,0c-0.1,0-0.1,0-0.2,0c0-1.4,0-2.9,0-4.3l0,0c1.4,0,2.9,0,4.3,0c0,1.4,0,2.8,0,4.1
		C42.8,25.5,42.8,25.6,42.8,25.6z"/>
	<path d="M25.6,29.9c-2.8,0-5.7,0-8.5,0c-0.1,0-0.1,0-0.1-0.1c0-1.4,0-2.8,0-4.2c0.4,0,0.7,0,1.1,0c1.1,0,2.1,0,3.2,0
		c0.1,0,0.1,0,0.2,0c1.4,0,2.8,0,4.1,0l0,0C25.6,27.1,25.6,28.5,25.6,29.9L25.6,29.9z"/>
	<path class="st3" d="M21.2,34.2c0,1.4,0,2.9,0,4.3c-1.4,0-2.9,0-4.3,0c0-1.4,0-2.9,0-4.3C18.4,34.2,19.8,34.2,21.2,34.2z"/>
	<path class="st3" d="M21.2,25.6c-1.1,0-2.1,0-3.2,0c-0.4,0-0.7,0-1.1,0c0-1.1,0-2.3,0-3.4c0-0.3,0-0.6,0-0.9c1.4,0,2.9,0,4.3,0l0,0
		C21.2,22.8,21.2,24.2,21.2,25.6z"/>
	<path class="st2" d="M25.6,21.3c0-1.1,0-2.1,0-3.2c0-0.4,0-0.8,0-1.1c2.9,0,5.8,0,8.6,0c0,1.4,0,2.7,0,4.1c0,0.1,0,0.1,0,0.2
		c0,0.1,0,0.1,0,0.2c0,1.4,0,2.7,0,4.1l0,0c-2.9,0-5.8,0-8.6,0l0,0c0-0.4,0-0.8,0-1.2C25.6,23.4,25.6,22.4,25.6,21.3z"/>
	<path class="st1" d="M34.2,25.6c0-1.4,0-2.7,0-4.1c0-0.1,0-0.1,0-0.2c1.4,0,2.9,0,4.3,0c0,1.4,0,2.9,0,4.3c-1,0-2.1,0-3.1,0
		C35,25.6,34.6,25.6,34.2,25.6z"/>
	<path class="st1" d="M25.6,21.3c0,1,0,2.1,0,3.1c0,0.4,0,0.8,0,1.2c-1.4,0-2.8,0-4.1,0c-0.1,0-0.1,0-0.2,0c0-1.4,0-2.9,0-4.3
		C22.7,21.3,24.1,21.3,25.6,21.3z"/>
	<path class="st3" d="M25.6,25.6c2.9,0,5.8,0,8.6,0c0,1.4,0,2.9,0,4.3c-2.9,0-5.8,0-8.6,0C25.6,28.5,25.6,27.1,25.6,25.6z"/>
</g>
</svg>
