<?xml version="1.0" encoding="utf-8"?>
<!-- Generator: Adobe Illustrator 25.4.0, SVG Export Plug-In . SVG Version: 6.00 Build 0)  -->
<svg version="1.1" id="Layer_1" xmlns="http://www.w3.org/2000/svg" xmlns:xlink="http://www.w3.org/1999/xlink" x="0px" y="0px"
	 viewBox="0 0 60 60" style="enable-background:new 0 0 60 60;" xml:space="preserve">
<style type="text/css">
	.st0{fill:#FEA004;}
	.st1{fill:#FED30B;}
	.st2{fill:#B8C2FE;}
	.st3{fill:#0058F7;}
	.st4{fill:#36FEDE;}
</style>
<g>
	<path d="M12.9,8.3c0-2.8,0-5.5,0-8.3c4.3,0,8.6,0,12.9,0c0,2.8,0,5.5,0,8.3c-1.4,0-2.9,0-4.3,0c0-1.4,0-2.8,0-4.1
		c0-0.1,0-0.2-0.2-0.2c-1.3,0-2.6,0-4,0c-0.1,0-0.2,0-0.2,0.2c0,1.4,0,2.8,0,4.1C15.7,8.3,14.3,8.3,12.9,8.3L12.9,8.3z"/>
	<path d="M47.3,0c0,2.8,0,5.5,0,8.3l0,0c-1.4,0-2.9,0-4.3,0c0-1.4,0-2.8,0-4.1C43,4,43,4,42.8,4c-1.3,0-2.6,0-4,0
		c-0.1,0-0.2,0-0.2,0.2c0,1.4,0,2.8,0,4.1c-1.4,0-2.9,0-4.3,0c0-2.8,0-5.5,0-8.3C38.7,0,43,0,47.3,0z"/>
	<path d="M0,34.2c1.4,0,2.8,0,4.3,0l0,0c0,0.4,0,0.7,0,1.1c0,1.1,0,2.1,0,3.2c0,0.2,0,0.5,0,0.7c0,1.2,0,2.4,0,3.6
		c0,0.2,0,0.5,0,0.7c0,1.2,0,2.4,0,3.6c0,1.4,0,2.9,0,4.3l0,0c-1.4,0-2.8,0-4.3,0C0,45.7,0,39.9,0,34.2z"/>
	<path d="M55.9,34.2c1.4,0,2.7,0,4.1,0c0,5.8,0,11.5,0,17.3c-1.4,0-2.7,0-4.1,0l0,0c0-0.4,0-0.7,0-1.1c0-1.1,0-2.1,0-3.2
		c0-0.3,0-0.5,0-0.8c0-1.2,0-2.4,0-3.5c0-0.2,0-0.5,0-0.7c0-1.2,0-2.4,0-3.6c0-0.1,0-0.1,0-0.2C55.9,36.9,55.9,35.5,55.9,34.2
		L55.9,34.2z"/>
	<path d="M55.9,60c-2.9,0-5.7,0-8.6,0c0-1.4,0-2.8,0-4.2c1.4,0,2.8,0,4.1,0c0.1,0,0.2-0.1,0.2-0.2c0-1.3,0-2.6,0-4
		c0-0.1,0-0.2,0.2-0.2c1.4,0,2.8,0,4.1,0l0,0C55.9,54.3,55.9,57.1,55.9,60z"/>
	<path d="M12.9,60c-2.9,0-5.7,0-8.6,0c0-2.9,0-5.7,0-8.6l0,0c1.4,0,2.8,0,4.1,0c0.1,0,0.2,0,0.2,0.2c0,1.3,0,2.6,0,4
		c0,0.1,0,0.2,0.2,0.2c1.4,0,2.8,0,4.1,0C12.9,57.2,12.9,58.6,12.9,60z"/>
	<path d="M25.8,60c0-1.4,0-2.8,0-4.2l0,0c2.9,0,5.7,0,8.6,0l0,0c0,1.4,0,2.8,0,4.2C31.5,60,28.6,60,25.8,60z"/>
	<path d="M8.6,25.5c0-2.6,0-5.1,0-7.7c0-3.1,0-6.3,0-9.4c0-0.2,0-0.2,0.2-0.2c1.4,0,2.7,0,4.1,0l0,0c0,0.4,0,0.8,0,1.2
		c0,1,0,2.1,0,3.1c0,0,0,0.1,0,0.1c0,2.8,0,5.6,0,8.4c0,0,0,0.1,0,0.1c0,0.3,0,0.5,0,0.8c0,1.2,0,2.4,0,3.5
		C11.4,25.6,10,25.6,8.6,25.5L8.6,25.5z"/>
	<path d="M4.3,34.2c0-2.8,0-5.7,0-8.5c0-0.1,0-0.1,0.2-0.1c1.4,0,2.8,0,4.2,0l0,0c0,2.9,0,5.7,0,8.6C7.1,34.2,5.7,34.2,4.3,34.2
		L4.3,34.2z"/>
	<path d="M47.3,8.3c1.4,0,2.8,0,4.2,0c0.2,0,0.1,0.1,0.1,0.2c0,3.2,0,6.4,0,9.6c0,2.5,0,5,0,7.5l0,0c-1.4,0-2.9,0-4.3,0
		c0-0.3,0-0.6,0-0.8c0-1.2,0-2.3,0-3.5c0,0,0-0.1,0-0.1c0-2.8,0-5.6,0-8.4c0,0,0-0.1,0-0.1c0-0.1,0-0.1,0-0.2
		C47.3,11,47.3,9.7,47.3,8.3L47.3,8.3z"/>
	<path d="M51.6,25.5c1.4,0,2.8,0,4.2,0c0.1,0,0.2,0,0.2,0.1c0,2.8,0,5.7,0,8.5l0,0c-0.4,0-0.8,0-1.2,0c-1,0-2.1,0-3.1,0
		C51.6,31.3,51.6,28.4,51.6,25.5L51.6,25.5z"/>
	<path class="st0" d="M21.5,8.3c1.4,0,2.9,0,4.3,0l0,0c0,1.4,0,2.9,0,4.3c-0.1,0-0.2,0-0.2,0c-1.4,0-2.7,0-4.1,0c0-0.1,0-0.1,0-0.2
		C21.5,11,21.5,9.7,21.5,8.3L21.5,8.3z"/>
	<path class="st1" d="M12.9,12.6c0-1,0-2.1,0-3.1c0-0.4,0-0.8,0-1.2c1.4,0,2.9,0,4.3,0l0,0c0,1.4,0,2.9,0,4.3
		C15.7,12.6,14.3,12.6,12.9,12.6z"/>
	<path class="st0" d="M17.2,8.3c0-1.4,0-2.8,0-4.1c0-0.1,0-0.2,0.2-0.2c1.3,0,2.6,0,4,0c0.1,0,0.2,0,0.2,0.2c0,1.4,0,2.8,0,4.1l0,0
		C20,8.3,18.6,8.3,17.2,8.3L17.2,8.3z"/>
	<path class="st1" d="M47.3,8.3c0,1.4,0,2.8,0,4.1c0,0.1,0,0.1,0,0.2c-1.4,0-2.9,0-4.3,0c0-1.4,0-2.9,0-4.3l0,0
		C44.4,8.3,45.9,8.3,47.3,8.3z"/>
	<path class="st0" d="M34.4,8.3c1.4,0,2.9,0,4.3,0l0,0c0,0.5,0,1,0,1.4c0,1,0,1.9,0,2.9c-1.1,0-2.3,0-3.4,0c-0.3,0-0.6,0-0.9,0
		C34.4,11.2,34.4,9.7,34.4,8.3L34.4,8.3z"/>
	<path class="st0" d="M38.7,8.3c0-1.4,0-2.8,0-4.1c0-0.1,0-0.2,0.2-0.2c1.3,0,2.6,0,4,0C43,4,43,4,43,4.1c0,1.4,0,2.8,0,4.1l0,0
		C41.6,8.3,40.1,8.3,38.7,8.3L38.7,8.3z"/>
	<path class="st2" d="M4.3,47.1c0-1.2,0-2.4,0-3.6c0-0.2,0-0.5,0-0.7c0.3,0,0.6,0,0.9,0c1.1,0,2.3,0,3.4,0c0.1,0,0.1,0,0.2,0
		c1.3,0,2.6,0,3.9,0c0.2,0,0.2,0,0.2-0.2c0-1.4,0-2.8,0-4.1l0,0c1.4,0,2.9,0,4.3,0c0,1.4,0,2.9,0,4.3c0,0.1,0,0.1,0,0.2
		c0,1.4,0,2.7,0,4.1c-1.4,0-2.8,0-4.2,0c0,0,0,0-0.1,0c-0.1,0-0.1,0-0.2,0c-2.7,0-5.5,0-8.2,0C4.5,47.1,4.4,47.1,4.3,47.1z"/>
	<path class="st3" d="M4.3,47.1c0.1,0,0.2,0,0.3,0c2.7,0,5.5,0,8.2,0c0.1,0,0.1,0,0.2,0c0,0,0,0.1,0,0.1c0,2.8,0,5.7,0,8.5l0,0
		c-1.4,0-2.8,0-4.1,0c-0.1,0-0.2-0.1-0.2-0.2c0-1.3,0-2.6,0-4c0-0.1,0-0.2-0.2-0.2c-1.4,0-2.8,0-4.1,0C4.3,50,4.3,48.6,4.3,47.1z"/>
	<path class="st0" d="M4.3,34.2c1.4,0,2.9,0,4.3,0c0.1,0,0.1,0,0.2,0c1.4,0,2.7,0,4.1,0c0,0.1,0,0.1,0,0.2c0,1.4,0,2.7,0,4.1
		c0,0,0,0,0,0c-1.4,0-2.9,0-4.3,0c-1.4,0-2.9,0-4.3,0c0-1.1,0-2.1,0-3.2C4.3,34.9,4.3,34.5,4.3,34.2z"/>
	<path class="st3" d="M4.3,38.5c1.4,0,2.9,0,4.3,0c0,1.4,0,2.9,0,4.3c-1.1,0-2.3,0-3.4,0c-0.3,0-0.6,0-0.9,0c0-1.2,0-2.4,0-3.6
		C4.3,39,4.3,38.7,4.3,38.5z"/>
	<path d="M34.4,8.3c0,1.4,0,2.9,0,4.3l0,0c-2.9,0-5.7,0-8.6,0l0,0c0-1.4,0-2.9,0-4.3C28.6,8.3,31.5,8.3,34.4,8.3z"/>
	<path class="st2" d="M55.9,42.8c0,1.2,0,2.4,0,3.5c0,0.3,0,0.5,0,0.8c-2.8,0-5.6,0-8.4,0c-0.1,0-0.1,0-0.2,0c0,0,0,0-0.1,0
		c-1.4,0-2.8,0-4.2,0c0-0.2,0-0.4,0-0.7c0-1.2,0-2.4,0-3.6c0-1.4,0-2.9,0-4.3c1.4,0,2.9,0,4.3,0l0,0c0,1.3,0,2.6,0,3.9
		c0,0.1,0,0.3,0,0.4c0.1,0.1,0.3,0,0.4,0c1.3,0,2.6,0,3.9,0c0.1,0,0.1,0,0.2,0C53.2,42.8,54.5,42.8,55.9,42.8z"/>
	<path class="st3" d="M47.3,47.1c0.1,0,0.1,0,0.2,0c2.8,0,5.6,0,8.4,0c0,1.1,0,2.1,0,3.2c0,0.4,0,0.7,0,1.1c-1.4,0-2.8,0-4.1,0
		c-0.1,0-0.2,0-0.2,0.2c0,1.3,0,2.6,0,4c0,0.1,0,0.2-0.2,0.2c-1.4,0-2.8,0-4.1,0l0,0c0-1.7,0-3.5,0-5.2
		C47.3,49.4,47.3,48.3,47.3,47.1z"/>
	<path class="st0" d="M51.6,34.2c1,0,2.1,0,3.1,0c0.4,0,0.8,0,1.2,0c0,1.4,0,2.7,0,4.1c0,0.1,0,0.1,0,0.2c-1.4,0-2.9,0-4.3,0
		c-1.4,0-2.9,0-4.3,0l0,0c0-0.2,0-0.4,0-0.6c0-1.2,0-2.4,0-3.7c0.4,0,0.8,0,1.2,0C49.5,34.2,50.6,34.2,51.6,34.2z"/>
	<path class="st3" d="M51.6,38.5c1.4,0,2.9,0,4.3,0c0,1.2,0,2.4,0,3.6c0,0.2,0,0.5,0,0.7c-1.4,0-2.7,0-4.1,0c-0.1,0-0.1,0-0.2,0
		C51.6,41.4,51.6,39.9,51.6,38.5z"/>
	<path d="M47.3,47.1c0,1.1,0,2.3,0,3.4c0,1.7,0,3.5,0,5.2c-3.3,0-6.7,0-10,0c-1,0-1.9,0-2.9,0l0,0c0-1.4,0-2.9,0-4.3
		c0.4,0,0.8,0,1.1,0c1.1,0,2.1,0,3.2,0c0.1,0,0.1,0,0.2,0c1.3,0,2.7,0,4,0c0.1,0,0.2,0,0.2-0.2c0-1.4,0-2.8,0-4.1l0,0
		C44.4,47.1,45.8,47.1,47.3,47.1C47.3,47.1,47.3,47.1,47.3,47.1z"/>
	<path d="M12.9,55.8c0-2.8,0-5.7,0-8.5c0,0,0-0.1,0-0.1c0,0,0,0,0.1,0c1.4,0,2.8,0,4.2,0l0,0c0,0.2,0,0.4,0,0.6c0,1.2,0,2.4,0,3.6
		c0,0.1,0,0.2,0.2,0.2c0.2,0,0.3,0,0.5,0c1.2,0,2.4,0,3.6,0c0.1,0,0.1,0,0.2,0c1.4,0,2.7,0,4.1,0c0,1.4,0,2.9,0,4.3l0,0
		C21.5,55.8,17.2,55.8,12.9,55.8z"/>
	<path class="st3" d="M25.8,55.8c0-1.4,0-2.9,0-4.3l0,0c2.9,0,5.7,0,8.6,0l0,0c0,1.4,0,2.9,0,4.3C31.5,55.8,28.7,55.8,25.8,55.8z"/>
	<path class="st1" d="M21.5,12.6c1.4,0,2.7,0,4.1,0c0.1,0,0.2,0,0.2,0l0,0c0,0.4,0,0.7,0,1.1c0,1.1,0,2.1,0,3.2c0,0.2,0,0.5,0,0.7
		c0,1.2,0,2.4,0,3.6c0,1.4,0,2.9,0,4.3c-2.8,0-5.6,0-8.4,0c-0.1,0-0.2,0-0.2,0.2c0,1.4,0,2.8,0,4.1c-1.4,0-2.9,0-4.3,0
		c0-0.4,0-0.8,0-1.2c0-1,0-2.1,0-3.1c0-1.2,0-2.4,0-3.5c0-0.3,0-0.5,0-0.8c0.4,0,0.8,0,1.1,0c1.1,0,2.1,0,3.2,0c0.3,0,0.5,0,0.8,0
		c1.1,0,2.2,0,3.3,0c0.1,0,0.2,0,0.2-0.2c0-0.2,0-0.3,0-0.5c0-1.2,0-2.5,0-3.7c0-0.5,0-1.1,0-1.6C21.5,14.4,21.5,13.5,21.5,12.6
		L21.5,12.6L21.5,12.6z"/>
	<path class="st3" d="M12.9,25.6c0,1,0,2.1,0,3.1c0,0.4,0,0.8,0,1.2c0,1.4,0,2.9,0,4.3l0,0c-1.4,0-2.7,0-4.1,0c-0.1,0-0.1,0-0.2,0
		c0-2.9,0-5.7,0-8.6C10,25.6,11.4,25.6,12.9,25.6z"/>
	<path class="st4" d="M17.2,21.2c-1.1,0-2.1,0-3.2,0c-0.4,0-0.8,0-1.1,0c0,0,0-0.1,0-0.1c0-2.8,0-5.6,0-8.4c0,0,0-0.1,0-0.1
		c1.4,0,2.9,0,4.3,0l0,0c0,0.3,0,0.6,0,0.9c0,1.1,0,2.3,0,3.4c0,0.1,0,0.1,0,0.2C17.2,18.5,17.2,19.9,17.2,21.2z"/>
	<path class="st1" d="M34.4,12.6c0.3,0,0.6,0,0.9,0c1.1,0,2.3,0,3.4,0l0,0c0,0,0,0,0,0c0,0.1,0,0.2,0,0.3c0,1.3,0,2.7,0,4
		c0,0.3,0,0.6,0,0.8c0,1.1,0,2.2,0,3.3c0,0.1,0,0.2,0.2,0.2c0.1,0,0.3,0,0.4,0c1.2,0,2.5,0,3.7,0c0.1,0,0.1,0,0.2,0
		c1.4,0,2.7,0,4.1,0c0,1.2,0,2.3,0,3.5c0,0.3,0,0.6,0,0.8c0,0.1,0,0.2,0,0.2c0,1.4,0,2.7,0,4.1c-1.4,0-2.9,0-4.3,0
		c0-1.4,0-2.8,0-4.1c0-0.2,0-0.2-0.2-0.2c-2.8,0-5.6,0-8.4,0c0-0.4,0-0.8,0-1.2c0-1,0-2.1,0-3.1c0-0.1,0-0.2,0-0.3c0-1.3,0-2.7,0-4
		c0,0,0,0,0,0C34.4,15.5,34.4,14,34.4,12.6L34.4,12.6z"/>
	<path class="st4" d="M47.3,21.2c-1.4,0-2.7,0-4.1,0c-0.1,0-0.1,0-0.2,0c0-0.3,0-0.7,0-1c0-1.1,0-2.2,0-3.3c0-1.4,0-2.9,0-4.3l0,0
		c1.4,0,2.9,0,4.3,0c0,0,0,0.1,0,0.1c0,2.8,0,5.6,0,8.4C47.3,21.2,47.3,21.2,47.3,21.2z"/>
	<path class="st3" d="M47.3,29.9c0-1.4,0-2.7,0-4.1c0-0.1,0-0.2,0-0.2c1.4,0,2.9,0,4.3,0c0,2.9,0,5.7,0,8.6c-1,0-2.1,0-3.1,0
		c-0.4,0-0.8,0-1.2,0l0,0c0-0.3,0-0.7,0-1C47.3,32.1,47.3,31,47.3,29.9z"/>
	<path class="st4" d="M17.2,8.3c1.4,0,2.9,0,4.3,0c0,1.4,0,2.8,0,4.1c0,0.1,0,0.1,0,0.2l0,0l0,0c-0.2,0-0.3,0-0.5,0
		c-1.3,0-2.5,0-3.8,0l0,0C17.2,11.2,17.2,9.7,17.2,8.3z"/>
	<path class="st4" d="M38.7,8.3c1.4,0,2.9,0,4.3,0c0,1.4,0,2.9,0,4.3l0,0c-0.1,0-0.2,0-0.2,0c-1.4,0-2.7,0-4.1,0l0,0l0,0
		c0-1,0-1.9,0-2.9C38.7,9.3,38.7,8.8,38.7,8.3z"/>
	<path class="st1" d="M8.6,42.8c0-1.4,0-2.9,0-4.3c1.4,0,2.9,0,4.3,0c0,1.4,0,2.8,0,4.1c0,0.2,0,0.2-0.2,0.2c-1.3,0-2.6,0-3.9,0
		C8.7,42.8,8.6,42.8,8.6,42.8z"/>
	<path class="st1" d="M17.2,42.8c0-1.4,0-2.9,0-4.3l0,0c1.4,0,2.9,0,4.3,0c0,1.4,0,2.9,0,4.3C20,42.8,18.6,42.8,17.2,42.8z"/>
	<path class="st4" d="M17.2,42.8c1.4,0,2.9,0,4.3,0l0,0c0,1.4,0,2.9,0,4.3l0,0c-1.4,0-2.9,0-4.3,0l0,0c0-1.4,0-2.7,0-4.1
		C17.2,43,17.2,42.9,17.2,42.8z"/>
	<path class="st1" d="M12.9,38.5c0-1.4,0-2.7,0-4.1c0-0.1,0-0.1,0-0.2c0,0,0,0,0,0c1.4,0,2.9,0,4.3,0c0,1.4,0,2.9,0,4.3l0,0
		C15.7,38.5,14.3,38.5,12.9,38.5z"/>
	<path class="st4" d="M34.4,12.6c0,1.4,0,2.9,0,4.3c0,0,0,0,0,0c-2.9,0-5.7,0-8.6,0c0-1.1,0-2.1,0-3.2c0-0.4,0-0.7,0-1.1
		C28.7,12.6,31.5,12.6,34.4,12.6z"/>
	<path class="st1" d="M47.3,34.2c0,1.2,0,2.4,0,3.7c0,0.2,0,0.4,0,0.6c-1.4,0-2.9,0-4.3,0l0,0c0-1.4,0-2.9,0-4.3c0.5,0,1,0,1.5,0
		C45.5,34.2,46.4,34.2,47.3,34.2L47.3,34.2z"/>
	<path class="st1" d="M43,38.5c0,1.4,0,2.9,0,4.3c-1.4,0-2.9,0-4.3,0c0-1.4,0-2.9,0-4.3C40.1,38.5,41.6,38.5,43,38.5L43,38.5z"/>
	<path class="st1" d="M51.6,38.5c0,1.4,0,2.9,0,4.3c-1.3,0-2.6,0-3.9,0c-0.1,0-0.3,0.1-0.4,0c-0.1-0.1,0-0.3,0-0.4
		c0-1.3,0-2.6,0-3.9C48.7,38.5,50.2,38.5,51.6,38.5z"/>
	<path class="st4" d="M38.7,42.8c1.4,0,2.9,0,4.3,0c0,1.2,0,2.4,0,3.6c0,0.2,0,0.4,0,0.7l0,0c-1.4,0-2.9,0-4.3,0l0,0
		C38.7,45.7,38.7,44.2,38.7,42.8L38.7,42.8z"/>
	<path class="st3" d="M38.7,51.4c-1.1,0-2.1,0-3.2,0c-0.4,0-0.8,0-1.1,0l0,0c0-1.4,0-2.9,0-4.3c1.4,0,2.9,0,4.3,0l0,0
		C38.7,48.6,38.7,50,38.7,51.4z"/>
	<path class="st2" d="M38.7,51.4c0-1.4,0-2.9,0-4.3c1.4,0,2.9,0,4.3,0c0,1.4,0,2.8,0,4.1c0,0.1,0,0.2-0.2,0.2c-1.3,0-2.7,0-4,0
		C38.8,51.4,38.7,51.4,38.7,51.4z"/>
	<path class="st2" d="M17.2,47.1c1.4,0,2.9,0,4.3,0c0,1.4,0,2.9,0,4.3c-1.2,0-2.4,0-3.6,0c-0.2,0-0.3,0-0.5,0c-0.1,0-0.2,0-0.2-0.2
		c0-1.2,0-2.4,0-3.6C17.2,47.5,17.2,47.3,17.2,47.1z"/>
	<path class="st3" d="M21.5,51.4c0-1.4,0-2.9,0-4.3c0,0,0,0,0,0c1.4,0,2.9,0,4.3,0c0,1.4,0,2.9,0,4.3l0,0c-1.4,0-2.7,0-4.1,0
		C21.6,51.4,21.5,51.4,21.5,51.4z"/>
	<path class="st1" d="M25.8,51.4c0-1.4,0-2.9,0-4.3l0,0c2.9,0,5.7,0,8.6,0l0,0c0,1.4,0,2.9,0,4.3C31.5,51.4,28.7,51.4,25.8,51.4z"/>
	<path class="st3" d="M25.8,16.9c2.9,0,5.7,0,8.6,0c0,1.3,0,2.7,0,4c0,0.1,0,0.2,0,0.3c-2.9,0-5.7,0-8.6,0c0-1.2,0-2.4,0-3.6
		C25.8,17.4,25.8,17.2,25.8,16.9z"/>
	<path d="M25.8,21.2c2.9,0,5.7,0,8.6,0c0,1,0,2.1,0,3.1c0,0.4,0,0.8,0,1.2l0,0c-2.9,0-5.7,0-8.6,0l0,0
		C25.8,24.1,25.8,22.7,25.8,21.2z"/>
	<path class="st3" d="M17.2,29.9c0-1.4,0-2.8,0-4.1c0-0.2,0-0.2,0.2-0.2c2.8,0,5.6,0,8.4,0l0,0c0,1.4,0,2.9,0,4.3c0,0,0,0-0.1,0
		C22.9,29.9,20,29.9,17.2,29.9L17.2,29.9z"/>
	<path class="st3" d="M17.2,12.6c1.3,0,2.5,0,3.8,0c0.2,0,0.3,0,0.5,0c0,0.9,0,1.8,0,2.7c0,0.5,0,1.1,0,1.6c-1.4,0-2.9,0-4.3,0
		c0-1.1,0-2.3,0-3.4C17.2,13.2,17.2,12.9,17.2,12.6z"/>
	<path class="st4" d="M17.2,34.2c-1.4,0-2.9,0-4.3,0c0-1.4,0-2.9,0-4.3c1.4,0,2.9,0,4.3,0l0,0C17.2,31.3,17.2,32.7,17.2,34.2
		L17.2,34.2z"/>
	<path d="M17.2,16.9c1.4,0,2.9,0,4.3,0c0,1.2,0,2.5,0,3.7c0,0.2,0,0.3,0,0.5c0,0.1,0,0.2-0.2,0.2c-1.1,0-2.2,0-3.3,0
		c-0.3,0-0.5,0-0.8,0c0-1.4,0-2.7,0-4.1C17.2,17,17.2,17,17.2,16.9z"/>
	<path class="st3" d="M34.4,25.6c2.8,0,5.6,0,8.4,0c0.1,0,0.2,0,0.2,0.2c0,1.4,0,2.8,0,4.1l0,0c-2.8,0-5.7,0-8.5,0c0,0,0,0-0.1,0
		C34.4,28.4,34.4,27,34.4,25.6L34.4,25.6z"/>
	<path class="st4" d="M47.3,34.2c-0.9,0-1.8,0-2.8,0c-0.5,0-1,0-1.5,0l0,0c0-1.4,0-2.9,0-4.3l0,0c1.4,0,2.9,0,4.3,0
		c0,1.1,0,2.2,0,3.3C47.3,33.5,47.3,33.8,47.3,34.2z"/>
	<path d="M43,16.9c0,1.1,0,2.2,0,3.3c0,0.3,0,0.7,0,1c-1.2,0-2.5,0-3.7,0c-0.1,0-0.3,0-0.4,0c-0.1,0-0.2,0-0.2-0.2
		c0-1.1,0-2.2,0-3.3c0-0.3,0-0.6,0-0.8C40.1,16.9,41.6,16.9,43,16.9z"/>
	<path class="st3" d="M43,16.9c-1.4,0-2.9,0-4.3,0c0-1.3,0-2.7,0-4c0-0.1,0-0.2,0-0.3c1.4,0,2.7,0,4.1,0c0.1,0,0.2,0,0.2,0
		C43,14,43,15.5,43,16.9z"/>
	<path class="st4" d="M21.5,42.8c0-1.4,0-2.9,0-4.3l0,0c1.4,0,2.9,0,4.3,0c0,1.4,0,2.9,0,4.3l0,0C24.3,42.8,22.9,42.8,21.5,42.8
		L21.5,42.8z"/>
	<path class="st3" d="M17.2,38.5c0-1.4,0-2.9,0-4.3l0,0c1.4,0,2.8,0,4.2,0c0.1,0,0.1,0,0.1,0.1c0,1.4,0,2.8,0,4.2l0,0
		C20,38.5,18.6,38.5,17.2,38.5z"/>
	<path class="st1" d="M21.5,42.8c1.4,0,2.9,0,4.3,0c0,1.4,0,2.9,0,4.3l0,0c-1.4,0-2.9,0-4.3,0C21.5,45.7,21.5,44.2,21.5,42.8z"/>
	<path class="st3" d="M43,38.5c-1.4,0-2.9,0-4.3,0l0,0c0-1.4,0-2.8,0-4.2c0-0.1,0-0.1,0.1-0.1c1.4,0,2.8,0,4.2,0l0,0
		C43,35.6,43,37.1,43,38.5z"/>
	<path class="st4" d="M38.7,38.5c0,1.4,0,2.9,0,4.3l0,0c-1.4,0-2.9,0-4.3,0l0,0c0-1.4,0-2.9,0-4.3C35.8,38.5,37.3,38.5,38.7,38.5
		L38.7,38.5z"/>
	<path class="st1" d="M34.4,42.8c1.4,0,2.9,0,4.3,0c0,1.4,0,2.9,0,4.3c-1.4,0-2.9,0-4.3,0l0,0C34.4,45.7,34.4,44.2,34.4,42.8z"/>
	<path class="st4" d="M34.4,42.8c0,1.4,0,2.9,0,4.3c-2.9,0-5.7,0-8.6,0c0-1.4,0-2.9,0-4.3l0,0C28.6,42.8,31.5,42.8,34.4,42.8
		L34.4,42.8z"/>
	<path class="st1" d="M34.4,25.5c0,1.4,0,2.9,0,4.3c0,0-0.1,0-0.1,0c-2.8,0-5.6,0-8.4,0c0,0-0.1,0-0.1,0c0-1.4,0-2.9,0-4.3
		C28.6,25.5,31.5,25.5,34.4,25.5z"/>
	<path d="M25.8,29.9c0,0,0.1,0,0.1,0c2.8,0,5.6,0,8.4,0c0,0,0.1,0,0.1,0c0,0,0,0,0.1,0c2.8,0,5.7,0,8.5,0c0,1.4,0,2.9,0,4.3
		c-1.4,0-2.8,0-4.2,0c-0.1,0-0.1,0-0.1,0.1c0,1.4,0,2.8,0,4.2c-1.4,0-2.9,0-4.3,0l0,0c0-1.4,0-2.8,0-4.1c0-0.2,0-0.2-0.2-0.2
		c-2.7,0-5.5,0-8.2,0c-0.2,0-0.2,0-0.2,0.2c0,1.4,0,2.8,0,4.1l0,0c-1.4,0-2.9,0-4.3,0c0-1.4,0-2.8,0-4.2c0-0.1,0-0.1-0.1-0.1
		c-1.4,0-2.8,0-4.2,0c0-1.4,0-2.9,0-4.3C20,29.9,22.9,29.9,25.8,29.9C25.7,29.9,25.8,29.9,25.8,29.9z"/>
	<path class="st1" d="M34.4,42.8c-2.9,0-5.7,0-8.6,0c0-1.4,0-2.9,0-4.3l0,0c2.9,0,5.7,0,8.6,0l0,0C34.4,39.9,34.4,41.4,34.4,42.8z"
		/>
	<path class="st3" d="M34.4,38.5c-2.9,0-5.7,0-8.6,0c0-1.4,0-2.8,0-4.1c0-0.2,0-0.2,0.2-0.2c2.7,0,5.5,0,8.2,0c0.2,0,0.2,0,0.2,0.2
		C34.4,35.7,34.4,37.1,34.4,38.5z"/>
</g>
</svg>
