<?xml version="1.0" encoding="utf-8"?>
<!-- Generator: Adobe Illustrator 25.4.0, SVG Export Plug-In . SVG Version: 6.00 Build 0)  -->
<svg version="1.1" id="Layer_1" xmlns="http://www.w3.org/2000/svg" xmlns:xlink="http://www.w3.org/1999/xlink" x="0px" y="0px"
	 viewBox="0 0 60 60" style="enable-background:new 0 0 60 60;" xml:space="preserve">
<style type="text/css">
	.st0{fill:#36FEDE;}
	.st1{fill:#0058F7;}
	.st2{fill:#FED30B;}
	.st3{fill:#B8C2FE;}
	.st4{fill:#FEA004;}
</style>
<g>
	<g>
		<path d="M60,47.1c-1.4,0-2.8,0-4.2,0c0,2.8,0,5.6,0,8.4c0,0.1,0,0.2-0.2,0.2c-4.2,0-8.4,0-12.5,0c-0.2,0-0.2,0-0.2-0.2
			c0-2.8,0-5.6,0-8.4c-1.4,0-2.9,0-4.3,0c0,1.9,0,3.9,0,5.8c0,2.3,0,4.6,0,7c0,0.1,0,0.1,0,0.1V60c7.1,0,14.2,0,21.3,0
			c0.1,0,0.2,0,0.2-0.2C60,55.6,60,51.3,60,47.1z"/>
		<path d="M21.4,59.9C21.4,59.9,21.4,59.9,21.4,59.9c0-4.3,0-8.6,0-12.8c-1.4,0-2.9,0-4.3,0c0,2.8,0,5.6,0,8.4c0,0.2,0,0.2-0.2,0.2
			c-4.2,0-8.4,0-12.5,0c-0.2,0-0.2,0-0.2-0.2c0-2.8,0-5.6,0-8.4c-1.4,0-2.8,0-4.1,0c0,4.3,0,8.5,0,12.8C0,60,0,60,0.2,60
			C7.2,60,14.3,60,21.4,59.9L21.4,59.9z"/>
	</g>
	<path d="M60,12.7c-1.4,0-2.8,0-4.2,0l0,0c0-0.4,0-0.8,0-1.2c0-1,0-2.1,0-3.1c0-0.2,0-0.3,0-0.5c0-1.2,0-2.5,0-3.7
		c0-0.1,0-0.2-0.2-0.2c-0.2,0-0.3,0-0.5,0c-1.2,0-2.4,0-3.6,0c0,0,0,0-0.1,0c-2.8,0-5.6,0-8.4,0c-0.1,0-0.1,0-0.1,0.2
		c0,1.3,0,2.6,0,4c0,0.2,0,0.2-0.2,0.2c-1.4,0-2.7,0-4.1,0l0,0c0-2.8,0-5.6,0-8.4c7.1,0,14.2,0,21.2,0C60,0,60,0,60,0.2
		C60,4.3,60,8.5,60,12.7z"/>
	<path d="M4.1,12.7c-1.4,0-2.8,0-4.1,0C0,8.5,0,4.3,0,0.2C0,0,0,0,0.2,0c7.1,0,14.1,0,21.2,0c0,2.8,0,5.6,0,8.4l0,0
		c-1.4,0-2.8,0-4.1,0c-0.1,0-0.2,0-0.2-0.2c0-1.3,0-2.6,0-3.9c0-0.2-0.1-0.2-0.2-0.2c-2.7,0-5.5,0-8.2,0c-0.1,0-0.1,0-0.2,0
		c-0.2,0-0.3,0-0.5,0c-1.2,0-2.5,0-3.7,0c-0.1,0-0.2,0-0.2,0.2c0,0.2,0,0.4,0,0.6c0,1.2,0,2.4,0,3.6c0,0.1,0,0.1,0,0.2
		C4.1,9.9,4.1,11.3,4.1,12.7L4.1,12.7z"/>
	<path class="st0" d="M55.8,47.1c0,2.8,0,5.6,0,8.4c0,0.1,0,0.2-0.2,0.2c-4.2,0-8.4,0-12.5,0c-0.2,0-0.2,0-0.2-0.2
		c0-2.8,0-5.6,0-8.4l0,0c1.4,0,2.9,0,4.3,0c0,1.4,0,2.8,0,4.2c0,0.1,0,0.1,0.1,0.1c1.3,0,2.7,0,4,0c0.1,0,0.1,0,0.1-0.1
		c0-1.4,0-2.8,0-4.2C53,47.1,54.4,47.1,55.8,47.1L55.8,47.1z"/>
	<path class="st0" d="M17.1,47.1c0,2.8,0,5.6,0,8.4c0,0.2,0,0.2-0.2,0.2c-4.2,0-8.4,0-12.5,0c-0.2,0-0.2,0-0.2-0.2
		c0-2.8,0-5.6,0-8.4l0,0c1.4,0,2.9,0,4.3,0c0,1.4,0,2.8,0,4.2c0,0.1,0,0.1,0.1,0.1c1.3,0,2.7,0,4,0c0.1,0,0.1,0,0.1-0.1
		c0-1.4,0-2.8,0-4.2C14.2,47.1,15.6,47.1,17.1,47.1L17.1,47.1z"/>
	<path class="st0" d="M21.4,47.1c-1.4,0-2.9,0-4.3,0l0,0c0-1.4,0-2.9,0-4.3c0.4,0,0.9,0,1.3,0c1,0,2,0,3,0
		C21.4,44.2,21.4,45.6,21.4,47.1L21.4,47.1z"/>
	<path class="st0" d="M42.9,47.1c-1.4,0-2.9,0-4.3,0l0,0c0-1.4,0-2.9,0-4.3c1.4,0,2.9,0,4.3,0C42.9,44.2,42.9,45.6,42.9,47.1
		L42.9,47.1z"/>
	<path d="M21.4,8.4c2,0,4,0,6,0c3.7,0,7.5,0,11.2,0l0,0c0,1.4,0,2.7,0,4.1c0,0.2,0,0.2-0.2,0.2c-5.6,0-11.2,0-16.8,0
		c-0.1,0-0.2,0-0.2-0.2C21.4,11.1,21.4,9.7,21.4,8.4L21.4,8.4z"/>
	<path d="M55.8,47.1c-1.4,0-2.9,0-4.3,0l0,0c0-0.4,0-0.8,0-1.2c0-1,0-2.1,0-3.1c0-0.2,0-0.5,0-0.7c0-1.2,0-2.4,0-3.6
		c0-0.4,0-0.7,0-1.1c0-1.1,0-2.2,0-3.2c0,0,0-0.1,0-0.1c0-4.2,0-8.4,0-12.6c0,0,0-0.1,0-0.1c0-0.4,0-0.8,0-1.2c0-1,0-2.1,0-3.1
		c0-0.1,0-0.1,0-0.2c0-1.4,0-2.7,0-4.1c1.4,0,2.9,0,4.3,0l0,0c0,0.1,0,0.1,0,0.2c0,11.3,0,22.7,0,34C55.8,46.9,55.8,47,55.8,47.1z"
		/>
	<path d="M8.4,47.1c-1.4,0-2.9,0-4.3,0c0-0.1,0-0.1,0-0.2c0-11.3,0-22.7,0-34c0-0.1,0-0.1,0-0.2l0,0c1.4,0,2.9,0,4.3,0
		c0,0.4,0,0.7,0,1.1c0,1.1,0,2.1,0,3.2c0,0.2,0,0.5,0,0.7c0,1.2,0,2.4,0,3.6c0,0,0,0.1,0,0.1c0,4.2,0,8.4,0,12.6c0,0,0,0.1,0,0.1
		c0,0.2,0,0.4,0,0.7c0,1.2,0,2.4,0,3.6c0,0.2,0,0.5,0,0.7c0,1.2,0,2.4,0,3.6c0,0.1,0,0.1,0,0.2C8.4,44.3,8.4,45.7,8.4,47.1L8.4,47.1
		z"/>
	<path class="st1" d="M21.4,8.4c0,1.4,0,2.7,0,4.1c0,0.2,0,0.2,0.2,0.2c5.6,0,11.2,0,16.8,0c0.1,0,0.2,0,0.2-0.2c0-1.4,0-2.7,0-4.1
		c1.4,0,2.7,0,4.1,0c0.2,0,0.2,0,0.2-0.2c0-1.3,0-2.6,0-4c0-0.1,0-0.2,0.1-0.2c2.8,0,5.6,0,8.4,0c0,0,0,0,0.1,0c0,1.4,0,2.9,0,4.3
		l0,0c-1.4,0-2.8,0-4.1,0c-0.1,0-0.2,0-0.2,0.2c0,1.4,0,2.8,0,4.1l0,0c-1.4,0-2.8,0-4.1,0c-0.1,0-0.2,0-0.2,0.2c0,1.4,0,2.8,0,4.1
		c-1.4,0-2.8,0-4.1,0c-0.1,0-0.2,0-0.2,0.2c0,1.4,0,2.8,0,4.1c-1.4,0-2.9,0-4.3,0c0-1.4,0-2.8,0-4.2c0-0.1,0-0.1-0.1-0.1
		c-2.8,0-5.6,0-8.4,0c-0.1,0-0.1,0-0.1,0.1c0,1.4,0,2.8,0,4.2c-1.4,0-2.9,0-4.3,0c0-1.4,0-2.8,0-4.1c0-0.1,0-0.2-0.2-0.2
		c-1.4,0-2.8,0-4.1,0c0-0.1,0-0.1,0-0.2c0-1.3,0-2.6,0-4c0-0.1,0-0.2-0.1-0.2c-1.4,0-2.8,0-4.2,0l0,0c0-1.4,0-2.8,0-4.1
		c0-0.1,0-0.2-0.2-0.2c-1.4,0-2.8,0-4.1,0l0,0c0-1.4,0-2.9,0-4.3c0.1,0,0.1,0,0.2,0c2.7,0,5.5,0,8.2,0c0.2,0,0.2,0,0.2,0.2
		c0,1.3,0,2.6,0,3.9c0,0.1,0,0.2,0.2,0.2C18.6,8.4,20,8.4,21.4,8.4z"/>
	<path class="st2" d="M55.8,12.7c-1.4,0-2.9,0-4.3,0l0,0c0-1.4,0-2.9,0-4.3l0,0c1.4,0,2.9,0,4.3,0c0,1,0,2.1,0,3.1
		C55.8,11.9,55.8,12.3,55.8,12.7z"/>
	<path class="st3" d="M55.8,8.4c-1.4,0-2.9,0-4.3,0c0-1.4,0-2.9,0-4.3c1.2,0,2.4,0,3.6,0c0.2,0,0.3,0,0.5,0c0.1,0,0.2,0,0.2,0.2
		c0,1.2,0,2.5,0,3.7C55.8,8.1,55.8,8.2,55.8,8.4z"/>
	<path class="st2" d="M8.4,12.7c-1.4,0-2.9,0-4.3,0c0-1.4,0-2.7,0-4.1c0-0.1,0-0.1,0-0.2c1.4,0,2.9,0,4.3,0l0,0
		C8.4,9.8,8.4,11.2,8.4,12.7L8.4,12.7z"/>
	<path class="st3" d="M8.4,8.4c-1.4,0-2.9,0-4.3,0c0-1.2,0-2.4,0-3.6c0-0.2,0-0.4,0-0.6c0-0.1,0-0.2,0.2-0.2c1.2,0,2.5,0,3.7,0
		c0.2,0,0.3,0,0.5,0C8.4,5.5,8.4,6.9,8.4,8.4z"/>
	<path d="M38.6,42.8c0,1.4,0,2.9,0,4.3c-2.3,0-4.5,0-6.8,0c-3.5,0-7,0-10.4,0c0-1.4,0-2.9,0-4.3l0,0c0.4,0,0.7,0,1.1,0
		c1.1,0,2.2,0,3.2,0c0,0,0.1,0,0.1,0c2.8,0,5.6,0,8.4,0c0,0,0.1,0,0.1,0C35.7,42.8,37.2,42.8,38.6,42.8L38.6,42.8z"/>
	<path class="st2" d="M42.9,47.1c0-1.4,0-2.9,0-4.3c0-1.4,0-2.9,0-4.3c1.4,0,2.9,0,4.3,0c0,0,0,0,0,0c0,0.4,0,0.8,0,1.1
		c0,1.1,0,2.1,0,3.2c0,0.1,0,0.1,0,0.2c0,1.4,0,2.7,0,4.1l0,0C45.8,47.1,44.3,47.1,42.9,47.1z"/>
	<path class="st2" d="M51.5,47.1c0,1.4,0,2.8,0,4.2c0,0.1,0,0.1-0.1,0.1c-1.3,0-2.7,0-4,0c-0.1,0-0.1,0-0.1-0.1c0-1.4,0-2.8,0-4.2
		l0,0C48.6,47.1,50.1,47.1,51.5,47.1L51.5,47.1z"/>
	<path class="st2" d="M17.1,42.8c0,1.4,0,2.9,0,4.3c-1.4,0-2.9,0-4.3,0l0,0c0-0.4,0-0.8,0-1.2c0-1,0-2.1,0-3.1c0-0.1,0-0.1,0-0.2
		c0-1.4,0-2.7,0-4.1l0,0c1.4,0,2.9,0,4.3,0C17.1,39.9,17.1,41.3,17.1,42.8z"/>
	<path class="st2" d="M12.8,47.1c0,1.4,0,2.8,0,4.2c0,0.1,0,0.1-0.1,0.1c-1.3,0-2.7,0-4,0c-0.1,0-0.1,0-0.1-0.1c0-1.4,0-2.8,0-4.2
		l0,0C9.9,47.1,11.3,47.1,12.8,47.1L12.8,47.1z"/>
	<path class="st4" d="M17.1,42.8c0-1.4,0-2.9,0-4.3l0,0c1.4,0,2.9,0,4.3,0c0,1.4,0,2.9,0,4.3l0,0c-1,0-2,0-3,0
		C18,42.8,17.5,42.8,17.1,42.8z"/>
	<path class="st4" d="M42.9,38.5c0,1.4,0,2.9,0,4.3c-1.4,0-2.9,0-4.3,0l0,0c0-1.4,0-2.9,0-4.3C40,38.5,41.5,38.5,42.9,38.5
		L42.9,38.5z"/>
	<path class="st3" d="M51.5,21.3c0,0,0,0.1,0,0.1c0,4.2,0,8.4,0,12.6c0,0,0,0.1,0,0.1c-1.4,0-2.9,0-4.3,0l0,0c0-0.4,0-0.8,0-1.2
		c0-1,0-2.1,0-3.1c0-1.4,0-2.8,0-4.2c0-0.1-0.1-0.1-0.1-0.1c-1.4,0-2.8,0-4.2,0c0-1.4,0-2.9,0-4.3l0,0c0.3,0,0.7,0,1,0
		c1.1,0,2.2,0,3.3,0c0.1,0,0.1,0,0.2,0C48.8,21.3,50.1,21.3,51.5,21.3z"/>
	<path class="st1" d="M51.5,21.3c-1.4,0-2.7,0-4.1,0c-0.1,0-0.1,0-0.2,0c0-1.4,0-2.9,0-4.3l0,0c1.4,0,2.9,0,4.3,0c0,1,0,2.1,0,3.1
		C51.5,20.5,51.5,20.9,51.5,21.3z"/>
	<path class="st2" d="M51.5,17c-1.4,0-2.9,0-4.3,0c0-0.2,0-0.3,0-0.5c0-1.3,0-2.5,0-3.8l0,0c1.4,0,2.9,0,4.3,0l0,0
		c0,1.4,0,2.7,0,4.1C51.5,16.8,51.5,16.9,51.5,17z"/>
	<path class="st2" d="M47.2,34.2c1.4,0,2.9,0,4.3,0c0,1.1,0,2.2,0,3.2c0,0.4,0,0.7,0,1.1c-1.4,0-2.9,0-4.3,0l0,0
		C47.2,37,47.2,35.6,47.2,34.2z"/>
	<path class="st3" d="M47.2,38.5c1.4,0,2.9,0,4.3,0c0,1.2,0,2.4,0,3.6c0,0.2,0,0.5,0,0.7c-1.4,0-2.9,0-4.3,0c0-1.1,0-2.1,0-3.2
		C47.2,39.2,47.2,38.8,47.2,38.5z"/>
	<path class="st0" d="M47.2,42.8c1.4,0,2.9,0,4.3,0c0,1,0,2.1,0,3.1c0,0.4,0,0.8,0,1.2c-1.4,0-2.9,0-4.3,0c0-1.4,0-2.7,0-4.1
		C47.2,42.9,47.2,42.8,47.2,42.8z"/>
	<path class="st3" d="M8.5,34.2c0,0,0-0.1,0-0.1c0-4.2,0-8.4,0-12.6c0,0,0-0.1,0-0.1c0.3,0,0.6,0,0.9,0c1.1,0,2.3,0,3.4,0
		c0.1,0,0.1,0,0.2,0c1.4,0,2.7,0,4.1,0l0,0c0,1.4,0,2.9,0,4.3c-0.2,0-0.3,0-0.5,0c-1.2,0-2.5,0-3.7,0c-0.1,0-0.2,0-0.2,0.2
		c0,0.2,0,0.3,0,0.5c0,1.2,0,2.5,0,3.7c0,0.1,0,0.1,0,0.2c0,1.4,0,2.7,0,4.1l0,0C11.3,34.2,9.9,34.2,8.5,34.2z"/>
	<path class="st2" d="M8.5,17c0-1.1,0-2.1,0-3.2c0-0.4,0-0.7,0-1.1l0,0c0.4,0,0.9,0,1.3,0c1,0,2,0,3,0l0,0c0,0.1,0,0.1,0,0.2
		c0,1.4,0,2.7,0,4.1C11.3,17,9.9,17,8.5,17z"/>
	<path class="st2" d="M8.5,34.2c1.4,0,2.9,0,4.3,0c0,1.4,0,2.9,0,4.3l0,0c-1.4,0-2.9,0-4.3,0c0-1.2,0-2.4,0-3.6
		C8.4,34.6,8.5,34.4,8.5,34.2z"/>
	<path class="st3" d="M8.5,38.5c1.4,0,2.9,0,4.3,0c0,1.4,0,2.7,0,4.1c0,0.1,0,0.1,0,0.2c-1.4,0-2.9,0-4.3,0c0-1.2,0-2.4,0-3.6
		C8.4,39,8.5,38.7,8.5,38.5z"/>
	<path class="st1" d="M8.5,17c1.4,0,2.9,0,4.3,0l0,0c0,1.4,0,2.9,0,4.3c-1.1,0-2.3,0-3.4,0c-0.3,0-0.6,0-0.9,0c0-1.2,0-2.4,0-3.6
		C8.4,17.5,8.5,17.2,8.5,17z"/>
	<path class="st0" d="M8.5,42.8c1.4,0,2.9,0,4.3,0c0,1,0,2.1,0,3.1c0,0.4,0,0.8,0,1.2c-1.4,0-2.9,0-4.3,0c0-1.4,0-2.7,0-4.1
		C8.4,42.9,8.5,42.8,8.5,42.8z"/>
	<path class="st4" d="M25.7,21.3c0-1.4,0-2.8,0-4.2c0-0.1,0-0.1,0.1-0.1c2.8,0,5.6,0,8.4,0c0.1,0,0.1,0,0.1,0.1c0,1.4,0,2.8,0,4.2
		l0,0C31.4,21.3,28.5,21.3,25.7,21.3L25.7,21.3z"/>
	<path class="st4" d="M12.8,17c0-1.4,0-2.7,0-4.1c0-0.1,0-0.1,0-0.2c1.4,0,2.8,0,4.2,0c0.1,0,0.1,0.1,0.1,0.2c0,1.3,0,2.6,0,4
		c0,0.1,0,0.1,0,0.2l0,0C15.6,17,14.2,17,12.8,17L12.8,17z"/>
	<path class="st4" d="M21.4,21.3c1.4,0,2.9,0,4.3,0l0,0c0,1.4,0,2.9,0,4.3c-1.4,0-2.9,0-4.3,0c0-0.2,0-0.4,0-0.7
		C21.4,23.7,21.4,22.5,21.4,21.3L21.4,21.3z"/>
	<path class="st4" d="M34.3,21.3c1.4,0,2.9,0,4.3,0l0,0c0,0.1,0,0.2,0,0.2c0,1.4,0,2.7,0,4.1c-1.4,0-2.9,0-4.3,0
		C34.3,24.1,34.3,22.7,34.3,21.3L34.3,21.3z"/>
	<path class="st4" d="M38.6,21.3c0-1.4,0-2.8,0-4.1c0-0.1,0-0.2,0.2-0.2c1.4,0,2.8,0,4.1,0l0,0c0,1.4,0,2.9,0,4.3l0,0
		C41.5,21.3,40,21.3,38.6,21.3L38.6,21.3z"/>
	<path class="st3" d="M51.5,12.7c-1.4,0-2.9,0-4.3,0c0-1.4,0-2.8,0-4.1c0-0.1,0-0.2,0.2-0.2c1.4,0,2.8,0,4.1,0
		C51.5,9.8,51.5,11.2,51.5,12.7z"/>
	<path class="st4" d="M17.1,17c1.4,0,2.8,0,4.1,0c0.1,0,0.2,0,0.2,0.2c0,1.4,0,2.8,0,4.1l0,0c-1.4,0-2.9,0-4.3,0l0,0
		C17.1,19.8,17.1,18.4,17.1,17L17.1,17z"/>
	<path class="st4" d="M47.2,12.7c0,1.3,0,2.5,0,3.8c0,0.2,0,0.3,0,0.5l0,0c-1.4,0-2.9,0-4.3,0l0,0c0-1.4,0-2.8,0-4.1
		c0-0.1,0-0.2,0.2-0.2C44.5,12.7,45.8,12.7,47.2,12.7z"/>
	<path class="st3" d="M12.8,12.7c-1,0-2,0-3,0c-0.4,0-0.9,0-1.3,0c0-1.4,0-2.9,0-4.3c1.4,0,2.8,0,4.1,0c0.1,0,0.2,0,0.2,0.2
		C12.8,9.9,12.8,11.3,12.8,12.7z"/>
	<path class="st1" d="M34.3,42.8c0,0-0.1,0-0.1,0c-2.8,0-5.6,0-8.4,0c0,0-0.1,0-0.1,0c0-1.4,0-2.9,0-4.3c0,0,0.1,0,0.1,0
		c2.8,0,5.6,0,8.4,0c0,0,0.1,0,0.1,0C34.3,39.9,34.3,41.3,34.3,42.8z"/>
	<path class="st2" d="M25.7,38.5c0,1.4,0,2.9,0,4.3c-1.1,0-2.2,0-3.2,0c-0.4,0-0.7,0-1.1,0c0-1.4,0-2.9,0-4.3l0,0c0.1,0,0.2,0,0.3,0
		C23,38.5,24.3,38.5,25.7,38.5L25.7,38.5z"/>
	<path class="st2" d="M34.3,42.8c0-1.4,0-2.9,0-4.3l0,0c0.1,0,0.2,0,0.2,0c1.4,0,2.7,0,4.1,0l0,0c0,1.4,0,2.9,0,4.3
		C37.2,42.8,35.7,42.8,34.3,42.8z"/>
	<path class="st3" d="M47.2,34.2c0,1.4,0,2.9,0,4.3c-1.4,0-2.9,0-4.3,0l0,0c0-1.4,0-2.9,0-4.3C44.3,34.2,45.8,34.2,47.2,34.2
		L47.2,34.2z"/>
	<path class="st3" d="M12.8,38.5c0-1.4,0-2.9,0-4.3l0,0c1.4,0,2.9,0,4.3,0c0,1.4,0,2.9,0,4.3l0,0C15.6,38.5,14.2,38.5,12.8,38.5z"/>
	<path class="st2" d="M17.1,38.5c0-1.4,0-2.9,0-4.3l0,0c1.4,0,2.9,0,4.3,0c0,0.1,0,0.1,0,0.2c0,1.4,0,2.7,0,4.1l0,0
		C19.9,38.5,18.5,38.5,17.1,38.5z"/>
	<path class="st2" d="M42.9,34.2c0,1.4,0,2.9,0,4.3c-1.4,0-2.9,0-4.3,0l0,0c0-0.2,0-0.3,0-0.5c0-1.3,0-2.6,0-3.8
		C40,34.2,41.5,34.2,42.9,34.2L42.9,34.2z"/>
	<path class="st2" d="M38.6,21.3c1.4,0,2.9,0,4.3,0c0,1.4,0,2.9,0,4.3l0,0c-1.4,0-2.9,0-4.3,0l0,0c0-1.4,0-2.7,0-4.1
		C38.6,21.4,38.6,21.3,38.6,21.3z"/>
	<path class="st2" d="M42.9,17c1.4,0,2.9,0,4.3,0c0,1.4,0,2.9,0,4.3c-1.1,0-2.2,0-3.3,0c-0.3,0-0.7,0-1,0
		C42.9,19.8,42.9,18.4,42.9,17z"/>
	<path d="M42.9,25.6c1.4,0,2.8,0,4.2,0c0.1,0,0.1,0,0.1,0.1c0,1.4,0,2.8,0,4.2c-1.4,0-2.9,0-4.3,0C42.9,28.4,42.9,27,42.9,25.6
		L42.9,25.6z"/>
	<path class="st2" d="M42.9,29.9c1.4,0,2.9,0,4.3,0c0,1,0,2.1,0,3.1c0,0.4,0,0.8,0,1.2c-1.4,0-2.9,0-4.3,0l0,0c0-0.4,0-0.8,0-1.2
		C42.9,32,42.9,30.9,42.9,29.9z"/>
	<path class="st2" d="M17.1,21.3c1.4,0,2.9,0,4.3,0c0,1.2,0,2.4,0,3.6c0,0.2,0,0.4,0,0.7l0,0c-1.4,0-2.9,0-4.3,0l0,0
		C17.1,24.1,17.1,22.7,17.1,21.3z"/>
	<path d="M12.8,29.9c0-1.2,0-2.5,0-3.7c0-0.2,0-0.3,0-0.5c0-0.1,0-0.2,0.2-0.2c1.2,0,2.5,0,3.7,0c0.2,0,0.3,0,0.5,0l0,0
		c0,0.4,0,0.8,0,1.1c0,1.1,0,2.1,0,3.2C15.6,29.9,14.2,29.9,12.8,29.9z"/>
	<path class="st2" d="M12.8,29.9c1.4,0,2.9,0,4.3,0c0,1.4,0,2.9,0,4.3l0,0c-1.4,0-2.9,0-4.3,0c0-1.4,0-2.7,0-4.1
		C12.8,30,12.8,29.9,12.8,29.9z"/>
	<path class="st2" d="M17.1,17c0,1.4,0,2.9,0,4.3c-1.4,0-2.7,0-4.1,0c-0.1,0-0.1,0-0.2,0c0-1.4,0-2.9,0-4.3C14.2,17,15.6,17,17.1,17
		z"/>
	<path class="st1" d="M34.3,21.3c0,1.4,0,2.9,0,4.3l0,0c-2.9,0-5.7,0-8.6,0l0,0c0-1.4,0-2.9,0-4.3C28.5,21.3,31.4,21.3,34.3,21.3z"
		/>
	<path class="st2" d="M21.4,25.6c1.4,0,2.9,0,4.3,0l0,0c0,1.4,0,2.9,0,4.3c-0.1,0-0.1,0-0.2,0c-1.4,0-2.7,0-4.1,0c0-0.1,0-0.1,0-0.2
		C21.4,28.3,21.4,26.9,21.4,25.6L21.4,25.6z"/>
	<path class="st2" d="M34.3,25.6c1.4,0,2.9,0,4.3,0c0,0,0,0,0,0c0,0.3,0,0.6,0,1c0,1.1,0,2.2,0,3.3c-0.4,0-0.8,0-1.1,0
		c-1.1,0-2.1,0-3.2,0C34.3,28.4,34.3,27,34.3,25.6L34.3,25.6z"/>
	<path d="M34.3,38.5c0,0-0.1,0-0.1,0c-2.8,0-5.6,0-8.4,0c0,0-0.1,0-0.1,0l0,0c0-1.4,0-2.9,0-4.3c0,0,0.1,0,0.1,0c2.8,0,5.6,0,8.4,0
		c0,0,0.1,0,0.1,0C34.3,35.6,34.3,37,34.3,38.5L34.3,38.5z"/>
	<path class="st3" d="M25.7,34.2c0,1.4,0,2.9,0,4.3c-1.4,0-2.7,0-4.1,0c-0.1,0-0.2,0-0.3,0c0-1.4,0-2.7,0-4.1c0-0.1,0-0.1,0-0.2l0,0
		c0.3,0,0.6,0,0.9,0C23.4,34.2,24.6,34.2,25.7,34.2z"/>
	<path class="st3" d="M34.3,38.5c0-1.4,0-2.9,0-4.3c0.1,0,0.1,0,0.2,0c1.4,0,2.7,0,4.1,0l0,0c0,1.3,0,2.6,0,3.8c0,0.2,0,0.3,0,0.5
		c-1.4,0-2.7,0-4.1,0C34.4,38.5,34.4,38.5,34.3,38.5z"/>
	<path class="st3" d="M21.4,25.6c0,1.4,0,2.7,0,4.1c0,0.1,0,0.1,0,0.2c0,1.4,0,2.9,0,4.3l0,0c-1.4,0-2.9,0-4.3,0c0-1.4,0-2.9,0-4.3
		c0-1.1,0-2.1,0-3.2c0-0.4,0-0.8,0-1.1C18.5,25.6,19.9,25.6,21.4,25.6z"/>
	<path class="st3" d="M38.6,29.9c0-1.1,0-2.2,0-3.3c0-0.3,0-0.6,0-1c1.4,0,2.9,0,4.3,0c0,1.4,0,2.9,0,4.3c0,1,0,2.1,0,3.1
		c0,0.4,0,0.8,0,1.2c-1.4,0-2.9,0-4.3,0l0,0c0-0.3,0-0.6,0-0.9C38.6,32.1,38.6,31,38.6,29.9z"/>
	<path d="M34.3,25.6c0,1.4,0,2.9,0,4.3c0,0-0.1,0-0.1,0c-2.8,0-5.6,0-8.4,0c0,0-0.1,0-0.1,0c0-1.4,0-2.9,0-4.3
		C28.5,25.6,31.4,25.6,34.3,25.6z"/>
	<path class="st1" d="M25.7,29.9c0,0,0.1,0,0.1,0c2.8,0,5.6,0,8.4,0c0,0,0.1,0,0.1,0c1.1,0,2.1,0,3.2,0c0.4,0,0.8,0,1.1,0
		c0,1.1,0,2.3,0,3.4c0,0.3,0,0.6,0,0.9c-1.4,0-2.7,0-4.1,0c-0.1,0-0.1,0-0.2,0c0,0-0.1,0-0.1,0c-2.8,0-5.6,0-8.4,0c0,0-0.1,0-0.1,0
		c-1.1,0-2.2,0-3.4,0c-0.3,0-0.6,0-0.9,0c0-1.4,0-2.9,0-4.3c1.4,0,2.7,0,4.1,0C25.6,29.9,25.6,29.9,25.7,29.9z"/>
</g>
</svg>
