<?xml version="1.0" encoding="utf-8"?>
<!-- Generator: Adobe Illustrator 25.4.0, SVG Export Plug-In . SVG Version: 6.00 Build 0)  -->
<svg version="1.1" id="Layer_1" xmlns="http://www.w3.org/2000/svg" xmlns:xlink="http://www.w3.org/1999/xlink" x="0px" y="0px"
	 viewBox="0 0 60 60" style="enable-background:new 0 0 60 60;" xml:space="preserve">
<style type="text/css">
	.st0{fill:#B8C2FE;}
	.st1{fill:#FED30B;}
	.st2{fill:#0058F7;}
	.st3{fill:#36FEDE;}
	.st4{fill:#FEA004;}
</style>
<g>
	<path d="M60,34.3c0,2.9,0,5.7,0,8.6c-1.4,0-2.8,0-4.2,0c0-1.4,0-2.8,0-4.2c0-0.1,0-0.1-0.1-0.1c-1.4,0-2.8,0-4.1,0c0-0.3,0-0.7,0-1
		c0-1.1,0-2.2,0-3.2c0-0.6,0-1.1,0-1.7c0-0.8,0-1.7,0-2.5c0-0.1,0-0.1-0.1-0.1c-0.1,0-0.3,0-0.4,0c-1.2,0-2.5,0-3.7,0
		c-0.4,0-0.8,0-1.2,0c-1,0-2.1,0-3.1,0c-0.4,0-0.7,0-1.1,0c-1.1,0-2.1,0-3.2,0c-0.1,0-0.1,0-0.2,0c-1.4,0-2.8,0-4.1,0
		c0-1.3,0-2.6,0-3.9c0-3,0-6,0-9c0.4,0,0.8,0,1.1,0c1.1,0,2.1,0,3.2,0c0.1,0,0.1,0,0.2,0c1.4,0,2.7,0,4.1,0c0,1.4,0,2.9,0,4.3
		c-0.2,0-0.4,0-0.6,0c-1.2,0-2.4,0-3.6,0c-0.1,0-0.2,0-0.2,0.2c0,0.1,0,0.2,0,0.4c0,1.2,0,2.4,0,3.6c0,0.1,0,0.2,0.2,0.2
		c0.2,0,0.3,0,0.5,0c1.2,0,2.3,0,3.5,0c0.1,0,0.2,0,0.2-0.1c0-1.4,0-2.8,0-4.2c1.4,0,2.9,0,4.3,0c0,1.4,0,2.7,0,4.1
		c0,0.1,0,0.2,0.2,0.2c1.3,0,2.7,0,4,0c0.1,0,0.2,0,0.2-0.2c0-1.4,0-2.7,0-4.1c1.4,0,2.9,0,4.3,0l0,0c0,4.2,0,8.5,0,12.7
		c0,0.1,0,0.2,0.2,0.2C57.3,34.3,58.7,34.3,60,34.3z"/>
	<path d="M0,42.9c0-2.9,0-5.7,0-8.6c1.3,0,2.6,0,3.9,0c0.2,0,0.2,0,0.2-0.2c0-4.2,0-8.4,0-12.7l0,0c1.4,0,2.9,0,4.3,0
		c0,1.4,0,2.7,0,4.1c0,0.1,0,0.2,0.2,0.2c1.3,0,2.7,0,4,0c0.1,0,0.2,0,0.2-0.2c0-1.4,0-2.7,0-4.1c1.4,0,2.9,0,4.3,0
		c0,1.4,0,2.7,0,4.1c0,0.1,0,0.2,0.2,0.2c1.3,0,2.6,0,3.9,0c0.1,0,0.2,0,0.2-0.2c0-1.3,0-2.5,0-3.8c0-0.3,0-0.3-0.3-0.3
		c-1.3,0-2.6,0-3.9,0c0-1.4,0-2.9,0-4.3c0.4,0,0.7,0,1.1,0c1.1,0,2.1,0,3.2,0c0.1,0,0.1,0,0.2,0c1.4,0,2.7,0,4.1,0
		c0,4.3,0,8.6,0,12.9c-0.4,0-0.8,0-1.1,0c-1.1,0-2.1,0-3.2,0c-0.4,0-0.7,0-1.1,0c-1.1,0-2.1,0-3.2,0c-0.1,0-0.2,0-0.3,0
		c-1.3,0-2.7,0-4,0c-0.6,0-1.1,0-1.7,0c-0.8,0-1.7,0-2.5,0c-0.1,0-0.1,0-0.1,0.1c0,0.1,0,0.3,0,0.4c0,1.2,0,2.5,0,3.7
		c0,0.1,0,0.1,0,0.2c0,1.4,0,2.7,0,4.1c-1.4,0-2.8,0-4.1,0c-0.1,0-0.1,0-0.1,0.1c0,1.4,0,2.8,0,4.2C2.8,42.9,1.4,42.9,0,42.9z"/>
	<path d="M47.2,8.5c2.8,0,5.6,0,8.5,0c0.1,0,0.1,0,0.1,0.2c0,1.3,0,2.7,0,4c0,0.1,0,0.2,0.2,0.2c1.3,0,2.7,0,4,0c0,2.9,0,5.7,0,8.6
		c-1.4,0-2.8,0-4.2,0l0,0c0-1.4,0-2.8,0-4.1c0-0.1,0-0.2-0.2-0.2c-1.4,0-2.7,0-4.1,0c0-1.4,0-2.7,0-4.1c0-0.1,0-0.2-0.2-0.2
		c-1.4,0-2.8,0-4.1,0C47.2,11.4,47.2,10,47.2,8.5L47.2,8.5z"/>
	<path d="M0,12.8c1.3,0,2.7,0,4,0c0.1,0,0.2,0,0.2-0.2c0-1.3,0-2.6,0-4c0-0.1,0-0.2,0.2-0.2c2.8,0,5.6,0,8.5,0l0,0
		c0,1.4,0,2.9,0,4.3c-1.4,0-2.8,0-4.2,0c-0.1,0-0.2,0-0.2,0.2c0,1.4,0,2.7,0,4.1c-1.4,0-2.7,0-4.1,0c-0.1,0-0.2,0-0.2,0.2
		c0,1.4,0,2.8,0,4.1l0,0c-1.4,0-2.8,0-4.2,0C0,18.6,0,15.7,0,12.8z"/>
	<path d="M42.9,0c0,1.4,0,2.7,0,4.1c0,0.1,0,0.2,0.2,0.2c1.3,0,2.7,0,4,0c0.1,0,0.2,0,0.2,0.2c0,1.4,0,2.8,0,4.1l0,0
		c-0.4,0-0.8,0-1.1,0c-1.1,0-2.1,0-3.2,0c-0.1,0-0.1,0-0.2,0c-1.4,0-2.7,0-4.1,0c0-1.3,0-2.6,0-3.9c0-0.4,0-0.4-0.4-0.4
		c-1.3,0-2.6,0-3.9,0c0-1.4,0-2.8,0-4.2C37.2,0,40,0,42.9,0z"/>
	<path d="M12.8,8.5c0-1.4,0-2.8,0-4.1c0-0.1,0-0.2,0.2-0.2c1.3,0,2.7,0,4,0c0.1,0,0.2,0,0.2-0.2c0-1.4,0-2.7,0-4.1
		c2.9,0,5.7,0,8.6,0c0,1.4,0,2.8,0,4.2c-0.1,0-0.1,0-0.2,0c-1.3,0-2.6,0-3.9,0c-0.1,0-0.2,0-0.2,0.2c0,1.4,0,2.7,0,4.1
		c-0.4,0-0.7,0-1.1,0c-1.1,0-2.1,0-3.2,0c-0.1,0-0.1,0-0.2,0C15.5,8.5,14.1,8.5,12.8,8.5L12.8,8.5z"/>
	<path class="st0" d="M25.7,4.2c0-1.4,0-2.8,0-4.2c2.9,0,5.7,0,8.6,0c0,1.4,0,2.8,0,4.2c0,0-0.1,0-0.1,0c-2.8,0-5.6,0-8.4,0
		C25.8,4.2,25.7,4.2,25.7,4.2z"/>
	<path class="st0" d="M55.8,42.9c1.4,0,2.8,0,4.2,0c0,1.4,0,2.9,0,4.3c-1.4,0-2.8,0-4.2,0C55.8,45.7,55.8,44.3,55.8,42.9L55.8,42.9z
		"/>
	<path d="M55.8,47.2c1.4,0,2.8,0,4.2,0c0,1.4,0,2.8,0,4.3c-1.4,0-2.8,0-4.2,0l0,0C55.8,50,55.8,48.6,55.8,47.2L55.8,47.2z"/>
	<path class="st0" d="M0,42.9c1.4,0,2.8,0,4.2,0l0,0c0,1.4,0,2.9,0,4.3c-1.4,0-2.8,0-4.2,0C0,45.7,0,44.3,0,42.9z"/>
	<path d="M0,47.2c1.4,0,2.8,0,4.2,0l0,0c0,1.4,0,2.8,0,4.3l0,0c-1.4,0-2.8,0-4.2,0C0,50,0,48.6,0,47.2z"/>
	<path class="st1" d="M25.7,30c0-4.3,0-8.6,0-12.9l0,0c0.1,0,0.1,0,0.2,0c2.7,0,5.3,0,8,0c0.1,0,0.3,0,0.4,0l0,0c0,3,0,6,0,9
		c0,1.3,0,2.6,0,3.9l0,0C31.4,30,28.5,30,25.7,30L25.7,30z"/>
	<path class="st1" d="M34.3,30c1.4,0,2.8,0,4.1,0c0.1,0,0.1,0,0.2,0c0,0.4,0,0.7,0,1.1c0,1.1,0,2.1,0,3.2c0,0.1,0,0.1,0,0.2
		c0,1.4,0,2.7,0,4.1c0,1.4,0,2.8,0,4.1c0,0.1,0,0.2-0.1,0.2c-1.4,0-2.8,0-4.2,0c0-2.8,0-5.6,0-8.4c0-0.1,0-0.1,0-0.2
		C34.3,32.8,34.3,31.4,34.3,30L34.3,30z"/>
	<path class="st0" d="M42.9,30c1,0,2.1,0,3.1,0c0.4,0,0.8,0,1.2,0c0,1.4,0,2.9,0,4.3l0,0c-1.4,0-2.9,0-4.3,0l0,0
		C42.9,32.9,42.9,31.4,42.9,30z"/>
	<path class="st0" d="M42.9,21.4c0-1.4,0-2.9,0-4.3l0,0c1.4,0,2.9,0,4.3,0l0,0c0,1.4,0,2.9,0,4.3l0,0C45.8,21.4,44.3,21.4,42.9,21.4
		L42.9,21.4z"/>
	<path class="st2" d="M47.2,34.3c0-1.4,0-2.9,0-4.3c1.2,0,2.5,0,3.7,0c0.1,0,0.3,0,0.4,0c0.1,0,0.1,0,0.1,0.1c0,0.8,0,1.7,0,2.5
		c0,0.6,0,1.1,0,1.7C50.1,34.3,48.6,34.3,47.2,34.3z"/>
	<path class="st0" d="M47.2,34.3c1.4,0,2.9,0,4.3,0c0,1.1,0,2.2,0,3.2c0,0.3,0,0.7,0,1l0,0c-1.4,0-2.9,0-4.3,0l0,0
		C47.2,37.1,47.2,35.7,47.2,34.3L47.2,34.3z"/>
	<path class="st3" d="M38.6,17.1c-1.1,0-2.1,0-3.2,0c-0.4,0-0.8,0-1.1,0c0,0,0,0,0,0c0-0.1,0-0.1,0-0.2c0-1.3,0-2.7,0-4
		c1.4,0,2.9,0,4.3,0l0,0C38.6,14.3,38.6,15.7,38.6,17.1z"/>
	<path class="st0" d="M51.5,38.6c1.4,0,2.8,0,4.1,0c0.1,0,0.1,0,0.1,0.1c0,1.4,0,2.8,0,4.2l0,0c-1.4,0-2.9,0-4.3,0
		C51.5,41.4,51.5,40,51.5,38.6L51.5,38.6z"/>
	<path class="st0" d="M51.5,17.1c1.4,0,2.7,0,4.1,0c0.1,0,0.2,0,0.2,0.2c0,1.4,0,2.8,0,4.1c-1.4,0-2.9,0-4.3,0l0,0
		C51.5,20,51.5,18.5,51.5,17.1L51.5,17.1z"/>
	<path class="st0" d="M51.5,21.4c0,1.4,0,2.7,0,4.1c0,0.1,0,0.2-0.2,0.2c-1.3,0-2.7,0-4,0c-0.1,0-0.2,0-0.2-0.2c0-1.4,0-2.7,0-4.1
		l0,0C48.7,21.4,50.1,21.4,51.5,21.4L51.5,21.4z"/>
	<path class="st3" d="M42.9,30c0,1.4,0,2.9,0,4.3c-1.4,0-2.9,0-4.3,0c0-1.1,0-2.1,0-3.2c0-0.4,0-0.7,0-1.1c1.1,0,2.1,0,3.2,0
		C42.2,30,42.5,30,42.9,30z"/>
	<path class="st3" d="M42.9,21.4c0,1.4,0,2.8,0,4.2c0,0.1-0.1,0.1-0.2,0.1c-1.2,0-2.3,0-3.5,0c-0.2,0-0.3,0-0.5,0
		c-0.1,0-0.2,0-0.2-0.2c0-1.2,0-2.4,0-3.6c0-0.1,0-0.2,0-0.4c0-0.1,0-0.2,0.2-0.2c1.2,0,2.4,0,3.6,0C42.5,21.4,42.7,21.4,42.9,21.4
		C42.9,21.4,42.9,21.4,42.9,21.4z"/>
	<path class="st0" d="M38.6,17.1c0-1.4,0-2.8,0-4.3c1.4,0,2.9,0,4.3,0l0,0c0,1.4,0,2.8,0,4.3l0,0c-1.4,0-2.7,0-4.1,0
		C38.7,17.1,38.7,17.1,38.6,17.1z"/>
	<path class="st1" d="M21.4,30c1.1,0,2.1,0,3.2,0c0.4,0,0.8,0,1.1,0l0,0c0,0.4,0,0.8,0,1.1c0,1.1,0,2.1,0,3.2c0,0.1,0,0.1,0,0.2
		c0,2.8,0,5.6,0,8.4c-1.4,0-2.8,0-4.1,0c-0.2,0-0.2,0-0.2-0.2c0-2.7,0-5.5,0-8.2c0-0.1,0-0.1,0-0.2c0-0.1,0-0.1,0-0.2
		C21.4,32.7,21.4,31.4,21.4,30z"/>
	<path class="st0" d="M17.1,21.4c-1.4,0-2.9,0-4.3,0l0,0c0-1.4,0-2.9,0-4.3l0,0c1.4,0,2.9,0,4.3,0l0,0C17.1,18.5,17.1,20,17.1,21.4
		L17.1,21.4z"/>
	<path class="st2" d="M8.4,34.3c0-1.2,0-2.5,0-3.7c0-0.1,0-0.3,0-0.4c0-0.1,0-0.1,0.1-0.1c0.8,0,1.7,0,2.5,0c0.6,0,1.1,0,1.7,0
		c0,1.4,0,2.9,0,4.3C11.3,34.3,9.9,34.3,8.4,34.3z"/>
	<path class="st0" d="M12.8,34.3c0-1.4,0-2.9,0-4.3c1.3,0,2.7,0,4,0c0.1,0,0.2,0,0.3,0c0,1.4,0,2.9,0,4.3l0,0
		C15.6,34.3,14.2,34.3,12.8,34.3L12.8,34.3z"/>
	<path class="st0" d="M4.2,42.9c0-1.4,0-2.8,0-4.2c0-0.1,0-0.1,0.1-0.1c1.4,0,2.8,0,4.1,0l0,0c0,1.4,0,2.9,0,4.3
		C7,42.9,5.6,42.9,4.2,42.9L4.2,42.9z"/>
	<path class="st3" d="M25.7,17.1c-1.4,0-2.7,0-4.1,0c-0.1,0-0.1,0-0.2,0c0-1.4,0-2.8,0-4.3l0,0c1.4,0,2.9,0,4.3,0c0,0.3,0,0.6,0,0.9
		C25.7,14.9,25.7,16,25.7,17.1L25.7,17.1z"/>
	<path class="st0" d="M12.8,21.4c0,1.4,0,2.7,0,4.1c0,0.1,0,0.2-0.2,0.2c-1.3,0-2.7,0-4,0c-0.1,0-0.2,0-0.2-0.2c0-1.4,0-2.7,0-4.1
		l0,0C9.9,21.4,11.3,21.4,12.8,21.4L12.8,21.4z"/>
	<path class="st0" d="M8.4,34.3c1.4,0,2.9,0,4.3,0l0,0c0,1.4,0,2.8,0,4.3l0,0c-1.4,0-2.9,0-4.3,0l0,0c0-1.4,0-2.7,0-4.1
		C8.4,34.4,8.4,34.3,8.4,34.3z"/>
	<path class="st3" d="M17.1,34.3c0-1.4,0-2.9,0-4.3c1.1,0,2.1,0,3.2,0c0.4,0,0.7,0,1.1,0c0,1.4,0,2.7,0,4.1c0,0.1,0,0.1,0,0.2
		C19.9,34.3,18.5,34.3,17.1,34.3z"/>
	<path class="st0" d="M4.1,21.4c0-1.4,0-2.8,0-4.1c0-0.1,0-0.2,0.2-0.2c1.4,0,2.7,0,4.1,0l0,0c0,1.4,0,2.9,0,4.3l0,0
		C7,21.4,5.6,21.4,4.1,21.4z"/>
	<path class="st3" d="M17.1,21.4c1.3,0,2.6,0,3.9,0c0.3,0,0.3,0,0.3,0.3c0,1.3,0,2.5,0,3.8c0,0.1,0,0.2-0.2,0.2c-1.3,0-2.6,0-3.9,0
		c-0.1,0-0.2,0-0.2-0.2C17.1,24.1,17.1,22.8,17.1,21.4L17.1,21.4z"/>
	<path class="st0" d="M21.4,12.8c0,1.4,0,2.8,0,4.3c-1.1,0-2.1,0-3.2,0c-0.4,0-0.7,0-1.1,0l0,0c0-1.4,0-2.8,0-4.3l0,0
		C18.5,12.8,19.9,12.8,21.4,12.8z"/>
	<path class="st4" d="M34.3,55.7c0,0-0.1,0-0.1,0c-2.8,0-5.6,0-8.4,0c0,0-0.1,0-0.1,0c0-1.4,0-2.9,0-4.3c2.9,0,5.7,0,8.6,0
		C34.3,52.9,34.3,54.3,34.3,55.7z"/>
	<path class="st0" d="M51.5,55.7c-1.4,0-2.9,0-4.3,0l0,0c0-1.4,0-2.9,0-4.3c1.4,0,2.9,0,4.3,0l0,0C51.5,52.9,51.5,54.3,51.5,55.7
		L51.5,55.7z"/>
	<path class="st1" d="M34.3,55.7c0-1.4,0-2.9,0-4.3l0,0c1.4,0,2.9,0,4.3,0c0,1.4,0,2.9,0,4.3l0,0C37.2,55.7,35.7,55.7,34.3,55.7z"/>
	<path class="st1" d="M25.7,51.4c0,1.4,0,2.9,0,4.3c-1.1,0-2.1,0-3.2,0c-0.4,0-0.8,0-1.1,0l0,0c0-0.4,0-0.8,0-1.1c0-1.1,0-2.1,0-3.2
		C22.8,51.4,24.2,51.4,25.7,51.4L25.7,51.4z"/>
	<path class="st0" d="M12.8,55.7c-1.4,0-2.9,0-4.3,0c0,0,0,0,0,0c0-1.4,0-2.9,0-4.3l0,0c1.4,0,2.9,0,4.3,0
		C12.8,52.9,12.8,54.3,12.8,55.7L12.8,55.7z"/>
	<path class="st0" d="M42.9,8.5c1.1,0,2.1,0,3.2,0c0.4,0,0.8,0,1.1,0c0,1.4,0,2.9,0,4.3l0,0c-1.4,0-2.9,0-4.3,0l0,0
		C42.9,11.4,42.9,10,42.9,8.5z"/>
	<path class="st0" d="M47.2,12.8c1.4,0,2.8,0,4.1,0c0.1,0,0.2,0,0.2,0.2c0,1.4,0,2.7,0,4.1l0,0c-1.4,0-2.9,0-4.3,0l0,0
		C47.2,15.7,47.2,14.3,47.2,12.8L47.2,12.8z"/>
	<path class="st0" d="M12.8,8.5c1.4,0,2.8,0,4.1,0c0.1,0,0.1,0,0.2,0c0,1.4,0,2.9,0,4.3l0,0c-1.4,0-2.9,0-4.3,0l0,0
		C12.8,11.4,12.8,10,12.8,8.5z"/>
	<path class="st0" d="M8.4,17.1c0-1.4,0-2.7,0-4.1c0-0.1,0-0.2,0.2-0.2c1.4,0,2.8,0,4.2,0l0,0c0,1.4,0,2.8,0,4.3l0,0
		C11.3,17.1,9.9,17.1,8.4,17.1L8.4,17.1z"/>
	<path class="st2" d="M25.7,4.2c0,0,0.1,0,0.1,0c2.8,0,5.6,0,8.4,0c0,0,0.1,0,0.1,0c1.3,0,2.6,0,3.9,0c0.4,0,0.4,0,0.4,0.4
		c0,1.3,0,2.6,0,3.9l0,0c-0.3,0-0.7,0-1,0c-1.1,0-2.2,0-3.3,0c0,0-0.1,0-0.1,0c-2.8,0-5.6,0-8.3,0c0,0-0.1,0-0.1,0
		c-1.4,0-2.9,0-4.3,0l0,0c0-1.4,0-2.7,0-4.1c0-0.2,0-0.2,0.2-0.2c1.3,0,2.6,0,3.9,0C25.6,4.2,25.6,4.2,25.7,4.2z"/>
	<path class="st2" d="M42.9,8.5c0,1.4,0,2.9,0,4.3c-1.4,0-2.9,0-4.3,0l0,0c0-0.2,0-0.3,0-0.5c0-1.3,0-2.6,0-3.8l0,0
		c1.4,0,2.7,0,4.1,0C42.7,8.5,42.8,8.5,42.9,8.5z"/>
	<path class="st2" d="M17.1,12.8c0-1.4,0-2.9,0-4.3c1.1,0,2.1,0,3.2,0c0.4,0,0.7,0,1.1,0l0,0c0,0.1,0,0.1,0,0.2c0,1.4,0,2.7,0,4.1
		l0,0C19.9,12.8,18.5,12.8,17.1,12.8z"/>
	<path d="M51.5,55.7c0-1.4,0-2.9,0-4.3c1.4,0,2.9,0,4.3,0l0,0c0,1.4,0,2.8,0,4.2c0,0.1,0,0.1-0.1,0.1C54.3,55.7,52.9,55.7,51.5,55.7
		z"/>
	<path d="M8.4,51.4c0,1.4,0,2.9,0,4.3c-1.4,0-2.7,0-4.1,0c-0.1,0-0.2,0-0.2-0.2c0-1.4,0-2.8,0-4.1l0,0C5.6,51.4,7,51.4,8.4,51.4z"/>
	<path d="M51.5,42.9c1.4,0,2.9,0,4.3,0c0,1.4,0,2.9,0,4.3l0,0c-1.4,0-2.9,0-4.3,0l0,0C51.5,45.7,51.5,44.3,51.5,42.9L51.5,42.9z"/>
	<path class="st0" d="M51.5,47.2c1.4,0,2.9,0,4.3,0c0,1.4,0,2.8,0,4.3c-1.4,0-2.9,0-4.3,0l0,0C51.5,50,51.5,48.6,51.5,47.2z"/>
	<path d="M4.1,42.9c1.4,0,2.9,0,4.3,0l0,0c0,1.4,0,2.9,0,4.3l0,0c-1.4,0-2.9,0-4.3,0l0,0C4.2,45.7,4.1,44.3,4.1,42.9z"/>
	<path class="st0" d="M4.1,47.2c1.4,0,2.9,0,4.3,0c0,1.4,0,2.8,0,4.3l0,0c-1.4,0-2.9,0-4.3,0C4.1,50,4.1,48.6,4.1,47.2z"/>
	<path class="st0" d="M25.7,34.3c0-1.1,0-2.1,0-3.2c0-0.4,0-0.8,0-1.1c2.9,0,5.7,0,8.6,0c0,1.4,0,2.9,0,4.3
		C31.4,34.3,28.6,34.3,25.7,34.3z"/>
	<path class="st0" d="M25.7,17.1c0-1.1,0-2.2,0-3.4c0-0.3,0-0.6,0-0.9l0,0c2.9,0,5.7,0,8.6,0l0,0c0,1.3,0,2.7,0,4c0,0.1,0,0.1,0,0.2
		c-0.1,0-0.3,0-0.4,0c-2.7,0-5.3,0-8,0C25.8,17.1,25.8,17.1,25.7,17.1z"/>
	<path class="st0" d="M38.6,34.3c1.4,0,2.9,0,4.3,0l0,0c0,1.4,0,2.7,0,4.1c0,0.2,0,0.2,0.2,0.2c1.4,0,2.8,0,4.1,0l0,0
		c0,1.4,0,2.9,0,4.3l0,0c-1.4,0-2.8,0-4.2,0c-0.1,0-0.1,0-0.1,0.1c0,1.4,0,2.8,0,4.2c-0.4,0-0.7,0-1.1,0c-1.1,0-2.1,0-3.2,0
		c-0.4,0-0.9,0-1.3,0c-1,0-2,0-3,0l0,0c0-0.3,0-0.7,0-1c0-1.1,0-2.2,0-3.3l0,0c1.4,0,2.8,0,4.2,0c0.1,0,0.1-0.1,0.1-0.2
		c0-1.4,0-2.8,0-4.1c0-1.4,0-2.7,0-4.1C38.6,34.4,38.6,34.3,38.6,34.3z"/>
	<path d="M25.7,34.3c2.9,0,5.7,0,8.6,0c0,0.1,0,0.1,0,0.2c0,2.8,0,5.6,0,8.4l0,0c-0.8,0-1.7,0-2.5,0c-2,0-4,0-6.1,0l0,0
		c0-2.8,0-5.6,0-8.4C25.7,34.4,25.7,34.3,25.7,34.3z"/>
	<path class="st3" d="M47.2,38.6c-1.4,0-2.8,0-4.1,0c-0.2,0-0.2,0-0.2-0.2c0-1.4,0-2.7,0-4.1c1.4,0,2.9,0,4.3,0
		C47.2,35.7,47.2,37.1,47.2,38.6z"/>
	<path class="st2" d="M47.2,17.1c1.4,0,2.9,0,4.3,0c0,1.4,0,2.9,0,4.3c-1.4,0-2.9,0-4.3,0C47.2,20,47.2,18.5,47.2,17.1z"/>
	
		<ellipse transform="matrix(1.762360e-02 -0.9998 0.9998 1.762360e-02 29.2855 59.7533)" class="st3" cx="45.1" cy="15" rx="3" ry="3.1"/>
	<path class="st2" d="M47.2,42.9c0-1.4,0-2.9,0-4.3c1.4,0,2.9,0,4.3,0c0,1.4,0,2.9,0,4.3l0,0C50.1,42.9,48.7,42.9,47.2,42.9z"/>
	<path class="st0" d="M38.6,8.5c0,1.3,0,2.6,0,3.8c0,0.2,0,0.3,0,0.5c-1.4,0-2.9,0-4.3,0l0,0c0-1.4,0-2.9,0-4.3c1.1,0,2.2,0,3.3,0
		C37.9,8.5,38.3,8.5,38.6,8.5z"/>
	<path class="st0" d="M17.1,34.3c1.4,0,2.9,0,4.3,0c0,0.1,0,0.1,0,0.2c0,2.7,0,5.5,0,8.2c0,0.1,0,0.2,0.2,0.2c1.4,0,2.8,0,4.1,0l0,0
		c0,1.4,0,2.9,0,4.3c0,0,0,0,0,0c-0.1,0-0.2,0-0.3,0c-1.3,0-2.7,0-4,0c-1.4,0-2.9,0-4.3,0c0-1.4,0-2.8,0-4.2c0-0.1,0-0.1-0.1-0.1
		c-1.4,0-2.8,0-4.2,0l0,0c0-1.4,0-2.9,0-4.3l0,0c1.4,0,2.8,0,4.1,0c0.2,0,0.2,0,0.2-0.2C17.1,37,17.1,35.6,17.1,34.3L17.1,34.3z"/>
	<path class="st2" d="M8.4,17.1c1.4,0,2.9,0,4.3,0c0,1.4,0,2.9,0,4.3c-1.4,0-2.9,0-4.3,0C8.4,20,8.4,18.5,8.4,17.1z"/>
	
		<ellipse transform="matrix(0.9998 -1.750195e-02 1.750195e-02 0.9998 -0.2598 0.2633)" class="st3" cx="14.9" cy="15" rx="3.1" ry="3"/>
	<path class="st3" d="M17.1,34.3c0,1.4,0,2.7,0,4.1c0,0.2,0,0.2-0.2,0.2c-1.4,0-2.8,0-4.1,0c0-1.4,0-2.8,0-4.3
		C14.2,34.3,15.6,34.3,17.1,34.3z"/>
	<path class="st2" d="M12.8,38.6c0,1.4,0,2.9,0,4.3c-1.4,0-2.9,0-4.3,0l0,0c0-1.4,0-2.9,0-4.3C9.9,38.6,11.3,38.6,12.8,38.6z"/>
	<path class="st0" d="M21.4,12.8c0-1.4,0-2.7,0-4.1c0-0.1,0-0.1,0-0.2c1.4,0,2.9,0,4.3,0c0,1.4,0,2.9,0,4.3l0,0
		C24.2,12.8,22.8,12.8,21.4,12.8z"/>
	<path class="st1" d="M34.3,51.4c-2.9,0-5.7,0-8.6,0l0,0c0-1.4,0-2.8,0-4.3c0,0,0,0,0,0c0,0,0.1,0,0.1,0c2.8,0,5.6,0,8.4,0
		c0,0,0.1,0,0.1,0l0,0C34.3,48.6,34.3,50,34.3,51.4L34.3,51.4z"/>
	<path d="M38.6,47.2c1.1,0,2.1,0,3.2,0c0.4,0,0.7,0,1.1,0l0,0c0,1.4,0,2.7,0,4.1c0,0.1,0,0.2,0.2,0.2c1.4,0,2.8,0,4.2,0l0,0
		c0,1.4,0,2.9,0,4.3c-2.9,0-5.7,0-8.6,0c0-1.4,0-2.9,0-4.3c0-0.1,0-0.1,0-0.2C38.6,49.9,38.6,48.5,38.6,47.2z"/>
	<path d="M17.1,47.2c1.4,0,2.9,0,4.3,0c0,0.3,0,0.7,0,1c0,1.1,0,2.1,0,3.2c0,1.1,0,2.1,0,3.2c0,0.4,0,0.8,0,1.1c-2.9,0-5.7,0-8.6,0
		c0-1.4,0-2.9,0-4.3l0,0c1.4,0,2.8,0,4.2,0c0.1,0,0.2,0,0.2-0.2C17.1,49.9,17.1,48.5,17.1,47.2L17.1,47.2z"/>
	<path d="M51.5,47.2c0,1.4,0,2.8,0,4.3c-1.4,0-2.9,0-4.3,0l0,0c0-1.4,0-2.8,0-4.3l0,0C48.6,47.2,50.1,47.2,51.5,47.2L51.5,47.2z"/>
	<path class="st4" d="M38.6,47.2c0,1.4,0,2.7,0,4.1c0,0.1,0,0.1,0,0.2c-1.4,0-2.9,0-4.3,0c0-1.4,0-2.8,0-4.3c1,0,2,0,3,0
		C37.7,47.2,38.2,47.2,38.6,47.2z"/>
	<path class="st4" d="M21.4,51.4c0-1.1,0-2.1,0-3.2c0-0.3,0-0.7,0-1c1.3,0,2.7,0,4,0c0.1,0,0.2,0,0.3,0c0,1.4,0,2.8,0,4.3
		C24.2,51.4,22.8,51.4,21.4,51.4z"/>
	<path d="M8.4,51.4c0-1.4,0-2.8,0-4.3l0,0c1.4,0,2.9,0,4.3,0l0,0c0,1.4,0,2.8,0,4.3l0,0C11.3,51.4,9.9,51.4,8.4,51.4z"/>
	<path d="M25.7,12.8c0-1.4,0-2.9,0-4.3c0,0,0.1,0,0.1,0c2.8,0,5.6,0,8.3,0c0,0,0.1,0,0.1,0c0,1.4,0,2.9,0,4.3
		C31.4,12.8,28.5,12.8,25.7,12.8z"/>
	<path class="st0" d="M51.5,47.2c-1.4,0-2.9,0-4.3,0c0-1.4,0-2.9,0-4.3l0,0c1.4,0,2.9,0,4.3,0C51.5,44.3,51.5,45.7,51.5,47.2z"/>
	<path class="st0" d="M12.8,47.2c-1.4,0-2.9,0-4.3,0c0-1.4,0-2.9,0-4.3c1.4,0,2.9,0,4.3,0l0,0C12.8,44.3,12.8,45.7,12.8,47.2z"/>
	<path class="st3" d="M34.3,47.1c0,0-0.1,0-0.1,0c-2.8,0-5.6,0-8.4,0c0,0-0.1,0-0.1,0c0-1.4,0-2.9,0-4.3c2,0,4,0,6.1,0
		c0.8,0,1.7,0,2.5,0c0,1.1,0,2.2,0,3.3C34.3,46.5,34.3,46.8,34.3,47.1z"/>
	<path d="M47.2,42.9c0,1.4,0,2.9,0,4.3l0,0c-1.4,0-2.9,0-4.3,0l0,0c0-1.4,0-2.8,0-4.2c0-0.1,0-0.1,0.1-0.1
		C44.4,42.9,45.8,42.9,47.2,42.9z"/>
	<path d="M12.8,47.2c0-1.4,0-2.9,0-4.3c1.4,0,2.8,0,4.2,0c0.1,0,0.1,0,0.1,0.1c0,1.4,0,2.8,0,4.2l0,0C15.6,47.2,14.2,47.2,12.8,47.2
		L12.8,47.2z"/>
	<path class="st0" d="M42.9,47.2c1.4,0,2.9,0,4.3,0c0,1.4,0,2.8,0,4.3c-1.4,0-2.8,0-4.2,0c-0.1,0-0.2,0-0.2-0.2
		C42.9,49.9,42.9,48.5,42.9,47.2z"/>
	<path class="st0" d="M12.8,47.2c1.4,0,2.9,0,4.3,0c0,1.4,0,2.7,0,4.1c0,0.1,0,0.2-0.2,0.2c-1.4,0-2.8,0-4.2,0
		C12.8,50,12.8,48.6,12.8,47.2z"/>
	<g>
		<path d="M47.2,60l4.5,0c-0.1,0-0.1,0-0.1-0.1c0-1.4,0-2.8,0-4.1c-1.4,0-2.9,0-4.3,0c0,1.4,0,2.8,0,4.1C47.2,59.9,47.2,60,47.2,60z
			"/>
		<path d="M47.1,60C47.1,60,47.2,60,47.1,60L47.1,60L47.1,60z"/>
		<path d="M12.8,55.7c-1.4,0-2.9,0-4.3,0c0,1.4,0,2.8,0,4.1l4.3,0c0,0,0,0,0,0C12.8,58.5,12.8,57.1,12.8,55.7z"/>
		<path d="M38.7,60L38.7,60L38.7,60C38.6,60,38.6,60,38.7,60z"/>
		<path d="M38.6,59.9c0-1.4,0-2.8,0-4.1c-1.4,0-2.9,0-4.3,0c0,0-0.1,0-0.1,0c-2.8,0-5.6,0-8.4,0c0,0-0.1,0-0.1,0c-1.1,0-2.1,0-3.2,0
			c-0.4,0-0.8,0-1.1,0c0,1.4,0,2.8,0,4.1c0,0,0,0,0,0L38.6,59.9C38.6,59.9,38.6,59.9,38.6,59.9z"/>
	</g>
</g>
</svg>
