<?xml version="1.0" encoding="utf-8"?>
<!-- Generator: Adobe Illustrator 25.4.0, SVG Export Plug-In . SVG Version: 6.00 Build 0)  -->
<svg version="1.1" id="Layer_1" xmlns="http://www.w3.org/2000/svg" xmlns:xlink="http://www.w3.org/1999/xlink" x="0px" y="0px"
	 viewBox="0 0 60 60" style="enable-background:new 0 0 60 60;" xml:space="preserve">
<style type="text/css">
	.st0{fill:#B8C2FE;}
	.st1{fill:#0058F7;}
	.st2{fill:#36FEDE;}
	.st3{fill:#FED30B;}
	.st4{fill:#FEA004;}
</style>
<g>
	<path d="M51.4,60.1c-14.3,0-28.7,0-43,0c0-1.4,0-2.7,0-4.1l0,0c1.4,0,2.9,0,4.3,0c1.4,0,2.9,0,4.3,0c1.4,0,2.9,0,4.3,0
		c1.4,0,2.9,0,4.3,0c0.1,0,0.1,0,0.2,0c2.7,0,5.5,0,8.2,0c0.1,0,0.1,0,0.2,0c1.4,0,2.9,0,4.3,0c1.4,0,2.9,0,4.3,0c1.4,0,2.9,0,4.3,0
		c1.4,0,2.9,0,4.3,0l0,0C51.4,57.4,51.4,58.7,51.4,60.1z"/>
	<path d="M60,30c0,1.4,0,2.9,0,4.3c-1.3,0-2.7,0-4,0c-0.2,0-0.2,0-0.2,0.2c0,7,0,14.1,0,21.1c0,0.2,0,0.2-0.2,0.2
		c-1.4,0-2.7,0-4.1,0l0,0c0,0,0-0.1,0-0.1c0-1.4,0-2.7,0-4.1c0-0.1,0-0.2-0.1-0.2c-1.4,0-2.8,0-4.2,0c-0.1,0-0.1,0-0.2,0
		c-1.4,0-2.7,0-4.1,0l0,0c0-1.4,0-2.9,0-4.3c1.4,0,2.9,0,4.3,0c1.4,0,2.7,0,4.1,0c0.2,0,0.2,0,0.2-0.2c0-2.8,0-5.5,0-8.3
		c0-0.1,0-0.1,0-0.2c0-1.4,0-2.9,0-4.3c0-0.1,0-0.2,0-0.2c0-1.4,0-2.7,0-4.1c0.1,0,0.3,0,0.4,0c1.3,0,2.6,0,3.9,0
		C57.2,30,58.6,30,60,30z"/>
	<path d="M0,34.4c0-1.4,0-2.9,0-4.3c1.4,0,2.7,0,4.1,0c0.1,0,0.2,0,0.3,0c1.4,0,2.7,0,4.1,0c0,0.2,0,0.4,0,0.7c0,1.2,0,2.4,0,3.7
		c0,1.4,0,2.9,0,4.3c0,0.1,0,0.1,0,0.2c0,2.8,0,5.5,0,8.3c0,0,0,0.1,0,0.1c0,0.1,0,0.1,0.1,0.1c1.4,0,2.8,0,4.2,0c1.4,0,2.9,0,4.3,0
		c0,1.4,0,2.9,0,4.3l0,0c-0.2,0-0.4,0-0.5,0c-1.3,0-2.5,0-3.8,0c-1.4,0-2.7,0-4.1,0c-0.2,0-0.2,0-0.2,0.2c0,1.4,0,2.7,0,4.1l0,0
		c-1.4,0-2.7,0-4.1,0c-0.2,0-0.2,0-0.2-0.2c0-7,0-14.1,0-21.1c0-0.2,0-0.2-0.2-0.2C2.6,34.4,1.3,34.4,0,34.4z"/>
	<path d="M21.3,0c5.7,0,11.5,0,17.2,0c0,0.7,0,1.4,0,2.1c0,0.7,0,1.3,0,2c-1.4,0-2.7,0-4.1,0c-0.2,0-0.2,0-0.2,0.2
		c0,1.4,0,2.7,0,4.1c-2.9,0-5.7,0-8.6,0c0-1.4,0-2.7,0-4.1c0-0.2-0.1-0.2-0.2-0.2c-1.4,0-2.7,0-4.1,0c0-0.1,0-0.1,0-0.2
		C21.3,2.6,21.3,1.3,21.3,0z"/>
	<path d="M42.8,0c4.3,0,8.6,0,12.9,0c0,4.3,0,8.5,0,12.8l0,0c-1.4,0-2.9,0-4.3,0c0-0.2,0-0.5,0-0.7c0-1.2,0-2.4,0-3.6
		c0-1.4,0-2.8,0-4.2c0-0.1,0-0.1-0.1-0.1c-1.4,0-2.8,0-4.2,0c-0.1,0-0.2,0-0.3,0c-1.4,0-2.7,0-4.1,0C42.8,2.7,42.8,1.4,42.8,0z"/>
	<path d="M4.1,0C8.4,0,12.7,0,17,0c0,1.4,0,2.7,0,4.1c-0.1,0-0.2,0-0.3,0c-1.3,0-2.7,0-4,0c-1.4,0-2.8,0-4.2,0c-0.1,0-0.1,0-0.1,0.1
		c0,1.4,0,2.8,0,4.2c0,0.1,0,0.2,0,0.3c0,1.4,0,2.7,0,4.1c-1.4,0-2.9,0-4.3,0l0,0C4.1,8.5,4.1,4.3,4.1,0z"/>
	<path class="st0" d="M60,17.1c0,1.4,0,2.9,0,4.3c-1.4,0-2.8,0-4.2,0c0-1.4,0-2.9,0-4.3l0,0C57.2,17.1,58.6,17.1,60,17.1z"/>
	<path class="st0" d="M60,30c-1.4,0-2.8,0-4.2,0c0-1.4,0-2.9,0-4.3c1.4,0,2.8,0,4.2,0C60,27.2,60,28.6,60,30z"/>
	<path d="M60,25.7c-1.4,0-2.8,0-4.2,0l0,0c0-1.4,0-2.9,0-4.3l0,0c1.4,0,2.8,0,4.2,0C60,22.9,60,24.3,60,25.7z"/>
	<path d="M60,17.1c-1.4,0-2.8,0-4.2,0c0-1.4,0-2.9,0-4.3l0,0c1.4,0,2.8,0,4.2,0C60,14.2,60,15.6,60,17.1z"/>
	<path class="st0" d="M0,21.4c0-1.4,0-2.9,0-4.3c1.4,0,2.7,0,4.1,0l0,0c0,1.4,0,2.9,0,4.3C2.7,21.4,1.4,21.4,0,21.4z"/>
	<path class="st0" d="M4.1,30c-1.4,0-2.7,0-4.1,0c0-1.4,0-2.9,0-4.3c1.4,0,2.7,0,4.1,0C4.1,27.2,4.1,28.6,4.1,30z"/>
	<path d="M4.1,25.7c-1.4,0-2.7,0-4.1,0c0-1.4,0-2.9,0-4.3c1.4,0,2.7,0,4.1,0l0,0C4.1,22.9,4.1,24.3,4.1,25.7L4.1,25.7z"/>
	<path d="M4.1,17.1c-1.4,0-2.7,0-4.1,0c0-1.4,0-2.9,0-4.3c1.4,0,2.7,0,4.1,0l0,0C4.1,14.2,4.1,15.6,4.1,17.1z"/>
	<path class="st1" d="M34.2,56c-0.1,0-0.1,0-0.2,0c-2.7,0-5.5,0-8.2,0c-0.1,0-0.1,0-0.2,0c0-1.4,0-2.9,0-4.3c0-1.4,0-2.9,0-4.3
		c0-1.4,0-2.9,0-4.3c0.1,0,0.1,0,0.2,0c2.7,0,5.5,0,8.2,0c0.1,0,0.1,0,0.2,0c0,1.4,0,2.9,0,4.3c0,1.4,0,2.9,0,4.3
		C34.3,53.1,34.2,54.5,34.2,56z"/>
	<path class="st0" d="M25.6,51.7c0,1.4,0,2.9,0,4.3c-1.4,0-2.9,0-4.3,0c0-1.4,0-2.9,0-4.3l0,0C22.8,51.7,24.2,51.7,25.6,51.7z"/>
	<path class="st1" d="M12.7,51.7c1.3,0,2.5,0,3.8,0c0.2,0,0.4,0,0.5,0c0,1.4,0,2.9,0,4.3c-1.4,0-2.9,0-4.3,0
		C12.7,54.5,12.7,53.1,12.7,51.7z"/>
	<path class="st1" d="M42.8,51.7c1.4,0,2.7,0,4.1,0c0.1,0,0.1,0,0.2,0c0,1.4,0,2.9,0,4.3c-1.4,0-2.9,0-4.3,0
		C42.8,54.5,42.8,53.1,42.8,51.7z"/>
	<path class="st2" d="M12.7,51.7c0,1.4,0,2.9,0,4.3c-1.4,0-2.9,0-4.3,0c0-1.4,0-2.7,0-4.1c0-0.2,0-0.2,0.2-0.2
		C10,51.7,11.3,51.7,12.7,51.7z"/>
	<path class="st3" d="M42.8,51.7c0,1.4,0,2.9,0,4.3c-1.4,0-2.9,0-4.3,0c0-1.4,0-2.9,0-4.3C40,51.7,41.4,51.7,42.8,51.7L42.8,51.7z"
		/>
	<path class="st3" d="M17,56c0-1.4,0-2.9,0-4.3l0,0c1.4,0,2.9,0,4.3,0c0,1.4,0,2.9,0,4.3C19.9,56,18.5,56,17,56z"/>
	<path class="st0" d="M38.5,51.7c0,1.4,0,2.9,0,4.3c-1.4,0-2.9,0-4.3,0c0-1.4,0-2.9,0-4.3C35.7,51.7,37.1,51.7,38.5,51.7L38.5,51.7z
		"/>
	<path class="st2" d="M47.1,56c0-1.4,0-2.9,0-4.3c1.4,0,2.8,0,4.2,0c0.2,0,0.1,0.1,0.1,0.2c0,1.4,0,2.7,0,4.1c0,0,0,0.1,0,0.1
		C50,56,48.6,56,47.1,56z"/>
	<path class="st1" d="M42.8,51.7c-1.4,0-2.9,0-4.3,0l0,0c0-0.2,0-0.4,0-0.6c0-1.2,0-2.5,0-3.7c0-0.1,0-0.2,0-0.2c0-1.4,0-2.7,0-4.1
		l0,0c0.1,0,0.2,0,0.2,0c1.4,0,2.7,0,4.1,0l0,0c0,0.1,0,0.3,0,0.4c0,1.3,0,2.6,0,3.9C42.8,48.8,42.8,50.2,42.8,51.7z"/>
	<path class="st2" d="M51.4,38.7c0,0.1,0,0.1,0,0.2c0,2.8,0,5.5,0,8.3c0,0.2,0,0.2-0.2,0.2c-1.4,0-2.7,0-4.1,0c0-1.4,0-2.9,0-4.3
		c0-0.1,0-0.2,0-0.3c0-1.4,0-2.7,0-4.1C48.6,38.7,50,38.7,51.4,38.7z"/>
	<path class="st4" d="M47.1,43c0,1.4,0,2.9,0,4.3c-1.4,0-2.9,0-4.3,0c0-1.3,0-2.6,0-3.9c0-0.1,0-0.3,0-0.4C44.3,43,45.7,43,47.1,43z
		"/>
	<path class="st1" d="M55.8,25.7c0,1.4,0,2.9,0,4.3c-1.3,0-2.6,0-3.9,0c-0.1,0-0.3,0-0.4,0l0,0c0-0.1,0-0.2,0-0.2c0-1.3,0-2.5,0-3.8
		c0-0.3,0-0.2,0.3-0.2C53,25.7,54.4,25.7,55.8,25.7L55.8,25.7z"/>
	<path class="st4" d="M51.4,30c0,1.4,0,2.7,0,4.1c0,0.1,0,0.2,0,0.2c-1.4,0-2.9,0-4.3,0c0-1.4,0-2.7,0-4.1c0-0.2,0-0.2,0.2-0.2
		C48.7,30,50.1,30,51.4,30L51.4,30z"/>
	<path class="st0" d="M47.1,34.4c1.4,0,2.9,0,4.3,0c0,1.4,0,2.9,0,4.3c-1.4,0-2.8,0-4.3,0c0-0.1,0-0.1,0-0.2
		C47.1,37.1,47.1,35.7,47.1,34.4L47.1,34.4z"/>
	<path class="st1" d="M21.3,51.7c-1.4,0-2.9,0-4.3,0c0-1.4,0-2.9,0-4.3c0-0.1,0-0.1,0-0.2c0-1.4,0-2.7,0-4.1l0,0c0.2,0,0.3,0,0.5,0
		c1.3,0,2.5,0,3.8,0l0,0c0,0.2,0,0.4,0,0.6c0,1.2,0,2.5,0,3.7c0,0.1,0,0.1,0,0.2C21.3,48.9,21.3,50.3,21.3,51.7L21.3,51.7z"/>
	<path class="st2" d="M12.7,47.3c-1.4,0-2.8,0-4.2,0c-0.1,0-0.1,0-0.1-0.1c0,0,0-0.1,0-0.1c0-2.8,0-5.5,0-8.3c0-0.1,0-0.1,0-0.2
		c1.4,0,2.8,0,4.3,0c0,0.1,0,0.2,0,0.3c0,1.3,0,2.7,0,4C12.7,44.5,12.7,45.9,12.7,47.3z"/>
	<path class="st4" d="M12.7,47.3c0-1.4,0-2.9,0-4.3c1.4,0,2.9,0,4.3,0c0,1.4,0,2.7,0,4.1c0,0.1,0,0.1,0,0.2
		C15.6,47.3,14.1,47.3,12.7,47.3z"/>
	<path class="st1" d="M4.1,30c0-1.4,0-2.9,0-4.3l0,0c1.4,0,2.7,0,4.1,0c0.2,0,0.2,0,0.2,0.2c0,0.4,0,0.7,0,1.1c0,1,0,2,0,3l0,0
		c-1.4,0-2.7,0-4.1,0C4.3,30,4.2,30,4.1,30z"/>
	<path class="st4" d="M8.4,34.4c0-1.2,0-2.4,0-3.7c0-0.2,0-0.4,0-0.7l0,0c0.1,0,0.1,0,0.2,0c1.3,0,2.6,0,3.9,0
		c0.2,0,0.2,0.1,0.2,0.2c0,1.4,0,2.8,0,4.1C11.3,34.4,9.9,34.4,8.4,34.4z"/>
	<path class="st0" d="M8.4,34.4c1.4,0,2.9,0,4.3,0l0,0c0,0.2,0,0.3,0,0.5c0,1.3,0,2.6,0,3.9c-1.4,0-2.8,0-4.3,0
		C8.4,37.2,8.4,35.8,8.4,34.4z"/>
	<path class="st0" d="M25.6,8.4c2.9,0,5.7,0,8.6,0l0,0c0,1.4,0,2.9,0,4.3c-2.9,0-5.7,0-8.6,0C25.6,11.3,25.6,9.9,25.6,8.4L25.6,8.4z
		"/>
	<path class="st0" d="M21.3,4.1c1.4,0,2.7,0,4.1,0c0.2,0,0.2,0,0.2,0.2c0,1.4,0,2.7,0,4.1l0,0c-1.4,0-2.9,0-4.3,0
		C21.3,7,21.3,5.6,21.3,4.1L21.3,4.1z"/>
	<path class="st0" d="M34.2,8.4c0-1.4,0-2.7,0-4.1c0-0.2,0.1-0.2,0.2-0.2c1.4,0,2.7,0,4.1,0l0,0c0,1.4,0,2.9,0,4.3
		C37.1,8.4,35.7,8.4,34.2,8.4L34.2,8.4z"/>
	<path class="st1" d="M51.4,8.4c0,1.2,0,2.4,0,3.6c0,0.2,0,0.5,0,0.7c0,0.1,0,0.2,0,0.2c0,1.4,0,2.7,0,4.1l0,0c-1.4,0-2.9,0-4.3,0
		c0-0.2,0-0.5,0-0.7c0-1.2,0-2.4,0-3.6c0-0.1,0-0.1,0-0.2c0-1.4,0-2.8,0-4.1l0,0C48.6,8.4,50,8.4,51.4,8.4z"/>
	<path class="st1" d="M38.5,8.4c0-1.4,0-2.9,0-4.3c1.4,0,2.7,0,4.1,0c0.1,0,0.1,0,0.2,0c1.4,0,2.7,0,4.1,0c0.1,0,0.2,0,0.3,0
		c0,1.4,0,2.9,0,4.3l0,0C44.3,8.4,41.4,8.4,38.5,8.4L38.5,8.4z"/>
	<path class="st0" d="M51.4,17.1c0-1.4,0-2.7,0-4.1c0-0.1,0-0.2,0-0.2c1.4,0,2.9,0,4.3,0c0,1.4,0,2.9,0,4.3l0,0
		C54.3,17.1,52.9,17.1,51.4,17.1z"/>
	<path class="st4" d="M47.1,8.4c0-1.4,0-2.9,0-4.3c1.4,0,2.8,0,4.2,0c0.1,0,0.1,0,0.1,0.1c0,1.4,0,2.8,0,4.2
		C50,8.4,48.6,8.4,47.1,8.4z"/>
	<path class="st1" d="M21.3,4.1c0,1.4,0,2.9,0,4.3l0,0c-2.9,0-5.7,0-8.6,0l0,0c0-1.4,0-2.9,0-4.3c1.3,0,2.7,0,4,0c0.1,0,0.2,0,0.3,0
		c1.2,0,2.5,0,3.7,0C21,4.1,21.1,4.1,21.3,4.1z"/>
	<path class="st1" d="M8.4,12.8c0-1.4,0-2.7,0-4.1c0-0.1,0-0.2,0-0.3c1.4,0,2.9,0,4.3,0l0,0c0,0.2,0,0.4,0,0.6c0,1.2,0,2.5,0,3.7
		c0,0.1,0,0.2,0,0.3c0,1.3,0,2.6,0,4c-1.4,0-2.9,0-4.3,0l0,0c0-0.2,0-0.4,0-0.6C8.4,15.3,8.4,14,8.4,12.8z"/>
	<path class="st0" d="M8.4,12.8c0,1.3,0,2.5,0,3.8c0,0.2,0,0.4,0,0.6c-1.4,0-2.9,0-4.3,0l0,0c0-1.4,0-2.9,0-4.3
		C5.5,12.8,7,12.8,8.4,12.8z"/>
	<path class="st4" d="M12.7,8.4c-1.4,0-2.9,0-4.3,0c0-1.4,0-2.8,0-4.2c0-0.1,0-0.1,0.1-0.1c1.4,0,2.8,0,4.2,0
		C12.7,5.6,12.7,7,12.7,8.4z"/>
	<path class="st1" d="M51.4,17.1c1.4,0,2.9,0,4.3,0c0,1.4,0,2.9,0,4.3l0,0c-1.4,0-2.8,0-4.2,0c-0.1,0-0.2,0-0.2-0.2
		C51.4,19.9,51.4,18.5,51.4,17.1L51.4,17.1z"/>
	<path class="st0" d="M51.4,17.1c0,1.4,0,2.8,0,4.2c0,0.1,0,0.2,0.2,0.2c1.4,0,2.8,0,4.2,0c0,1.4,0,2.9,0,4.3c-1.4,0-2.7,0-4.1,0
		c-0.3,0-0.3,0-0.3,0.2c0,1.3,0,2.5,0,3.8c0,0.1,0,0.2,0,0.2c-1.4,0-2.7,0-4.1,0c-0.2,0-0.2,0.1-0.2,0.2c0,1.4,0,2.7,0,4.1l0,0
		c-0.2,0-0.3,0-0.5,0c-1.3,0-2.6,0-3.8,0c0-1.4,0-2.9,0-4.3c0-1.4,0-2.9,0-4.3c0,0,0.1,0,0.1,0c1.3,0,2.7,0,4,0c0.1,0,0.2,0,0.2-0.1
		c0-1.4,0-2.8,0-4.2c0-0.2,0-0.5,0-0.7c0-1.2,0-2.4,0-3.7C48.6,17.1,50,17.1,51.4,17.1z"/>
	<path class="st1" d="M4.1,17.1c1.4,0,2.9,0,4.3,0l0,0c0,1.4,0,2.8,0,4.2c0,0.2,0,0.2-0.2,0.2c-1.4,0-2.8,0-4.1,0l0,0
		C4.1,20,4.1,18.5,4.1,17.1z"/>
	<path class="st0" d="M4.1,21.4c1.4,0,2.8,0,4.1,0c0.2,0,0.2,0,0.2-0.2c0-1.4,0-2.8,0-4.2c1.4,0,2.9,0,4.3,0c0,0.1,0,0.2,0,0.3
		c0,1.4,0,2.7,0,4.1c0,1.4,0,2.7,0,4.1c0,0.2,0,0.2,0.2,0.2c1.4,0,2.7,0,4.1,0c0,0.1,0,0.3,0,0.4c0,1.3,0,2.6,0,3.9
		c0,1.4,0,2.9,0,4.3c-0.1,0-0.1,0-0.2,0c-1.4,0-2.7,0-4.1,0l0,0c0-1.4,0-2.8,0-4.1c0-0.2,0-0.2-0.2-0.2c-1.3,0-2.6,0-3.9,0
		c-0.1,0-0.1,0-0.2,0c0-1,0-2,0-3c0-0.4,0-0.7,0-1.1c0-0.2-0.1-0.2-0.2-0.2c-1.4,0-2.7,0-4.1,0C4.1,24.3,4.1,22.9,4.1,21.4z"/>
	<path d="M12.7,34.4c1.4,0,2.7,0,4.1,0c0.1,0,0.1,0,0.2,0c1.4,0,2.9,0,4.3,0c0.1,0,0.1,0,0.2,0c5.6,0,11.3,0,16.9,0
		c0.1,0,0.1,0,0.2,0c1.4,0,2.9,0,4.3,0c1.3,0,2.6,0,3.8,0c0.2,0,0.3,0,0.5,0c0,1.4,0,2.7,0,4.1c0,0.1,0,0.1,0,0.2c0,1.4,0,2.7,0,4.1
		c0,0.1,0,0.2,0,0.3c-1.4,0-2.9,0-4.3,0l0,0c0-1.4,0-2.8,0-4.2c0-0.1,0-0.2-0.2-0.2c-1.3,0-2.6,0-3.9,0c-0.1,0-0.2,0-0.2,0.2
		c0,0.6,0,1.1,0,1.7c0,0.8,0,1.6,0,2.5c0,0,0,0,0,0c-1.4,0-2.9,0-4.3,0c-0.1,0-0.1,0-0.2,0c-2.7,0-5.5,0-8.2,0c-0.1,0-0.1,0-0.2,0
		c-1.4,0-2.9,0-4.3,0l0,0c0-0.1,0-0.1,0-0.2c0-1.3,0-2.6,0-3.9c0-0.2,0-0.2-0.2-0.2c-1.3,0-2.6,0-3.9,0c-0.2,0-0.2,0-0.2,0.2
		c0,1.4,0,2.8,0,4.2l0,0c-1.4,0-2.9,0-4.3,0c0-1.3,0-2.7,0-4c0-0.1,0-0.2,0-0.3c0-1.3,0-2.6,0-3.9C12.7,34.7,12.7,34.5,12.7,34.4z"
		/>
	<path class="st3" d="M21.3,51.7c0-1.4,0-2.8,0-4.1c0-0.1,0-0.1,0-0.2c1.4,0,2.9,0,4.3,0c0,1.4,0,2.9,0,4.3
		C24.2,51.7,22.8,51.7,21.3,51.7z"/>
	<path class="st3" d="M38.5,47.3c0,1.2,0,2.5,0,3.7c0,0.2,0,0.4,0,0.6c-1.4,0-2.9,0-4.3,0c0-1.4,0-2.9,0-4.3
		C35.7,47.3,37.1,47.3,38.5,47.3z"/>
	<path class="st0" d="M25.6,47.3c-1.4,0-2.9,0-4.3,0c0-1.2,0-2.5,0-3.7c0-0.2,0-0.4,0-0.6c1.4,0,2.9,0,4.3,0
		C25.6,44.5,25.6,45.9,25.6,47.3z"/>
	<path class="st0" d="M38.5,47.3c-1.4,0-2.8,0-4.3,0c0-1.4,0-2.9,0-4.3c1.4,0,2.9,0,4.3,0c0,1.4,0,2.7,0,4.1
		C38.5,47.2,38.5,47.3,38.5,47.3z"/>
	<path class="st3" d="M38.5,43c0-0.8,0-1.6,0-2.5c0-0.6,0-1.1,0-1.7c0-0.1,0-0.2,0.2-0.2c1.3,0,2.6,0,3.9,0c0.1,0,0.2,0,0.2,0.2
		c0,1.4,0,2.8,0,4.2c-1.4,0-2.7,0-4.1,0C38.7,43,38.6,43,38.5,43z"/>
	<path class="st3" d="M17,43c0-1.4,0-2.8,0-4.2c0-0.2,0-0.2,0.2-0.2c1.3,0,2.6,0,3.9,0c0.2,0,0.2,0,0.2,0.2c0,1.3,0,2.6,0,3.9
		c0,0.1,0,0.1,0,0.2c-1.3,0-2.5,0-3.8,0C17.3,43,17.2,43,17,43z"/>
	<path class="st1" d="M25.6,12.8c2.9,0,5.7,0,8.6,0l0,0c0,1.4,0,2.9,0,4.3c-0.1,0-0.1,0-0.2,0c-2.8,0-5.5,0-8.3,0
		c-0.1,0-0.1,0-0.2,0C25.6,15.6,25.6,14.2,25.6,12.8L25.6,12.8z"/>
	<path class="st1" d="M21.3,8.4c1.4,0,2.9,0,4.3,0c0,1.4,0,2.9,0,4.3l0,0c-1.4,0-2.9,0-4.3,0l0,0C21.3,11.3,21.3,9.9,21.3,8.4
		L21.3,8.4z"/>
	<path class="st1" d="M34.2,8.4c1.4,0,2.9,0,4.3,0l0,0c0,1.4,0,2.9,0,4.3l0,0c-1.4,0-2.9,0-4.3,0l0,0C34.2,11.3,34.2,9.9,34.2,8.4z"
		/>
	<path d="M47.1,17.1c0,1.2,0,2.4,0,3.7c0,0.2,0,0.5,0,0.7c-0.1,0-0.3,0-0.4,0c-1.3,0-2.6,0-3.9,0c-1.4,0-2.9,0-4.3,0
		c0-1.4,0-2.9,0-4.3c0-1.4,0-2.9,0-4.3l0,0c0.1,0,0.1,0,0.2,0c2.8,0,5.6,0,8.4,0c0,1.2,0,2.4,0,3.6C47.1,16.6,47.1,16.8,47.1,17.1z"
		/>
	<path class="st4" d="M47.1,12.8c-2.8,0-5.6,0-8.4,0c-0.1,0-0.1,0-0.2,0c0-1.4,0-2.9,0-4.3c2.9,0,5.7,0,8.6,0c0,1.4,0,2.8,0,4.1
		C47.1,12.6,47.1,12.7,47.1,12.8z"/>
	<path class="st4" d="M21.3,8.4c0,1.4,0,2.9,0,4.3c-0.1,0-0.1,0-0.2,0c-2.8,0-5.6,0-8.4,0c0-1.2,0-2.5,0-3.7c0-0.2,0-0.4,0-0.6
		C15.6,8.4,18.4,8.4,21.3,8.4z"/>
	<path d="M12.7,12.8c2.8,0,5.6,0,8.4,0c0.1,0,0.1,0,0.2,0l0,0c0,1.4,0,2.9,0,4.3c0,1.4,0,2.9,0,4.3c-1.4,0-2.9,0-4.3,0
		c-0.1,0-0.1,0-0.2,0c-1.4,0-2.7,0-4.1,0c0-1.4,0-2.7,0-4.1c0-0.1,0-0.2,0-0.3c0-1.3,0-2.6,0-4C12.7,13,12.7,12.9,12.7,12.8z"/>
	<path class="st2" d="M42.8,21.4c1.3,0,2.6,0,3.9,0c0.1,0,0.3,0,0.4,0c0,1.4,0,2.8,0,4.2c0,0.2-0.1,0.1-0.2,0.1c-1.3,0-2.7,0-4,0
		c0,0-0.1,0-0.1,0l0,0C42.8,24.3,42.8,22.9,42.8,21.4z"/>
	<path class="st3" d="M42.8,34.4c-1.4,0-2.9,0-4.3,0c0-1.4,0-2.9,0-4.3c1.4,0,2.9,0,4.3,0C42.8,31.5,42.8,32.9,42.8,34.4z"/>
	<path class="st2" d="M42.8,30c-1.4,0-2.9,0-4.3,0l0,0c0-1.4,0-2.9,0-4.3c1.4,0,2.9,0,4.3,0l0,0C42.8,27.2,42.8,28.6,42.8,30z"/>
	<path class="st2" d="M12.7,21.4c1.4,0,2.7,0,4.1,0c0.1,0,0.1,0,0.2,0c0,1.4,0,2.9,0,4.3l0,0c-1.4,0-2.7,0-4.1,0
		c-0.2,0-0.2,0-0.2-0.2C12.7,24.1,12.7,22.8,12.7,21.4z"/>
	<path class="st3" d="M21.3,34.4c-1.4,0-2.9,0-4.3,0c0-1.4,0-2.9,0-4.3c1.4,0,2.9,0,4.3,0C21.3,31.5,21.3,32.9,21.3,34.4z"/>
	<path class="st2" d="M21.3,30c-1.4,0-2.9,0-4.3,0c0-1.3,0-2.6,0-3.9c0-0.1,0-0.3,0-0.4l0,0c1.4,0,2.9,0,4.3,0
		C21.3,27.2,21.3,28.6,21.3,30L21.3,30z"/>
	<path class="st1" d="M21.3,34.4c0-1.4,0-2.9,0-4.3l0,0c0.2,0,0.4,0,0.6,0c1.2,0,2.5,0,3.7,0c0.1,0,0.2,0,0.2,0c2.7,0,5.4,0,8.2,0
		c0.1,0,0.2,0,0.2,0c0.1,0,0.1,0,0.2,0c1.4,0,2.7,0,4.1,0l0,0c0,1.4,0,2.9,0,4.3c-0.1,0-0.1,0-0.2,0c-5.6,0-11.3,0-16.9,0
		C21.4,34.4,21.4,34.4,21.3,34.4z"/>
	<path class="st0" d="M25.6,17.1c0.1,0,0.1,0,0.2,0c2.8,0,5.5,0,8.3,0c0.1,0,0.1,0,0.2,0l0,0c0,1.4,0,2.9,0,4.3c-2.9,0-5.7,0-8.6,0
		C25.6,20,25.6,18.5,25.6,17.1L25.6,17.1z"/>
	<path class="st2" d="M21.3,17.1c0-1.4,0-2.9,0-4.3c1.4,0,2.9,0,4.3,0c0,1.4,0,2.9,0,4.3l0,0C24.2,17.1,22.8,17.1,21.3,17.1z"/>
	<path class="st2" d="M38.5,12.8c0,1.4,0,2.9,0,4.3c-1.4,0-2.9,0-4.3,0l0,0c0-1.4,0-2.9,0-4.3C35.7,12.8,37.1,12.8,38.5,12.8z"/>
	<path class="st3" d="M34.3,17.1c1.4,0,2.9,0,4.3,0c0,1.4,0,2.9,0,4.3l0,0c-1.4,0-2.9,0-4.3,0l0,0C34.2,20,34.2,18.5,34.3,17.1z"/>
	<path class="st3" d="M42.8,25.7c-1.4,0-2.9,0-4.3,0l0,0c0-1.4,0-2.9,0-4.3l0,0c1.4,0,2.9,0,4.3,0C42.8,22.9,42.8,24.3,42.8,25.7z"
		/>
	<path class="st3" d="M21.3,17.1c1.4,0,2.9,0,4.3,0c0,1.4,0,2.9,0,4.3c0,0,0,0,0,0c-1.4,0-2.9,0-4.3,0l0,0
		C21.3,20,21.3,18.5,21.3,17.1z"/>
	<path class="st3" d="M21.3,25.7c-1.4,0-2.9,0-4.3,0c0-1.4,0-2.9,0-4.3c1.4,0,2.9,0,4.3,0l0,0C21.3,22.9,21.3,24.3,21.3,25.7
		L21.3,25.7z"/>
	<path class="st3" d="M38.5,30c-1.4,0-2.7,0-4.1,0c-0.1,0-0.1,0-0.2,0c0-1.4,0-2.9,0-4.3l0,0c1.4,0,2.9,0,4.3,0l0,0
		C38.5,27.2,38.5,28.6,38.5,30z"/>
	<path class="st3" d="M25.6,30c-1.2,0-2.5,0-3.7,0c-0.2,0-0.4,0-0.6,0c0-1.4,0-2.9,0-4.3l0,0c1.4,0,2.9,0,4.3,0l0,0
		C25.6,27.2,25.6,28.6,25.6,30z"/>
	<path class="st2" d="M25.6,30c0-1.4,0-2.9,0-4.3c2.9,0,5.7,0,8.6,0c0,1.4,0,2.9,0,4.3c-0.1,0-0.2,0-0.2,0c-2.7,0-5.4,0-8.2,0
		C25.8,30,25.7,30,25.6,30z"/>
	<path d="M34.3,25.7c-2.9,0-5.7,0-8.6,0l0,0c0-1.4,0-2.9,0-4.3c0,0,0,0,0,0c2.9,0,5.7,0,8.6,0l0,0C34.2,22.9,34.2,24.3,34.3,25.7
		L34.3,25.7z"/>
	<path class="st1" d="M34.2,25.7c0-1.4,0-2.9,0-4.3c1.4,0,2.9,0,4.3,0c0,1.4,0,2.9,0,4.3C37.1,25.7,35.7,25.7,34.2,25.7z"/>
	<path class="st1" d="M25.6,21.4c0,1.4,0,2.9,0,4.3c-1.4,0-2.9,0-4.3,0c0-1.4,0-2.9,0-4.3C22.8,21.4,24.2,21.4,25.6,21.4z"/>
</g>
</svg>
