<?xml version="1.0" encoding="utf-8"?>
<!-- Generator: Adobe Illustrator 25.4.0, SVG Export Plug-In . SVG Version: 6.00 Build 0)  -->
<svg version="1.1" id="Layer_1" xmlns="http://www.w3.org/2000/svg" xmlns:xlink="http://www.w3.org/1999/xlink" x="0px" y="0px"
	 viewBox="0 0 60 60" style="enable-background:new 0 0 60 60;" xml:space="preserve">
<style type="text/css">
	.st0{fill:#FEA004;}
	.st1{fill:#B8C2FE;}
	.st2{fill:#36FEDE;}
	.st3{fill:#1463EB;}
	.st4{fill:#FED30B;}
</style>
<g>
	<path class="st0" d="M0,29.9c0-2.9,0-5.7,0-8.6c1.3,0,2.6,0,4,0c0.2,0,0.2,0,0.2-0.2c0-5.5,0-11,0-16.5c0-0.2-0.1-0.4,0-0.5
		c0.1-0.1,0.3,0,0.5,0c1.3,0,2.5,0,3.8,0c0,0.7,0,1.4,0,2c0,0.7,0,1.5,0,2.2c0,0.1,0,0.1,0,0.2c0,1.4,0,2.9,0,4.3c0,1.4,0,2.8,0,4.1
		c0,1.4,0,2.8,0,4.2c0,0.1,0.1,0.1,0.1,0.1c1.4,0,2.8,0,4.2,0c0,1.4,0,2.9,0,4.3c-0.1,0-0.1,0-0.2,0c-2.7,0-5.5,0-8.2,0
		c-0.1,0-0.2,0-0.2,0.2c0,1.4,0,2.7,0,4.1C2.8,29.9,1.4,29.9,0,29.9z"/>
	<path class="st0" d="M60,21.3c0,2.9,0,5.7,0,8.6c-1.4,0-2.8,0-4.2,0c0-1.4,0-2.7,0-4.1c0-0.2,0-0.2-0.2-0.2c-2.7,0-5.5,0-8.2,0
		c-0.1,0-0.1,0-0.2,0c0-1.4,0-2.9,0-4.3c0.6,0,1.2,0,1.8,0c0.8,0,1.6,0,2.4,0c0.1,0,0.1,0,0.1-0.1c0-1.4,0-2.8,0-4.2
		c0,0,0-0.1,0-0.1c0-2.8,0-5.6,0-8.4c0,0,0-0.1,0-0.1c0-0.1,0-0.1,0-0.2c0-1.4,0-2.7,0-4.1c0.1,0,0.1,0,0.2,0c1.3,0,2.6,0,3.9,0
		c0.2,0,0.2,0,0.2,0.2c0,5.6,0,11.2,0,16.8c0,0.2,0,0.2,0.2,0.2C57.3,21.3,58.7,21.3,60,21.3z"/>
	<path d="M12.8,0c0,1.4,0,2.8,0,4.1c-0.4,0-0.8,0-1.3,0c-1,0-2,0-3,0c-1.3,0-2.5,0-3.8,0c-0.2,0-0.4-0.1-0.5,0c-0.1,0.1,0,0.3,0,0.5
		c0,5.5,0,11,0,16.5c0,0.2,0,0.2-0.2,0.2c-1.3,0-2.6,0-4,0C0,14.3,0,7.2,0,0.2C0,0,0,0,0.2,0C4.4,0,8.6,0,12.8,0z"/>
	<path d="M47.2,4.1c0-1.4,0-2.8,0-4.1c4.2,0,8.4,0,12.6,0C60,0,60,0,60,0.2c0,7.1,0,14.1,0,21.2c-1.3,0-2.7,0-4,0
		c-0.2,0-0.2,0-0.2-0.2c0-5.6,0-11.2,0-16.8c0-0.2,0-0.2-0.2-0.2c-1.3,0-2.6,0-3.9,0c-0.1,0-0.1,0-0.2,0c-0.1,0-0.1,0-0.2,0
		C50,4.1,48.6,4.1,47.2,4.1z"/>
	<path d="M60,47.1c-1.4,0-2.8,0-4.2,0l0,0c0-0.4,0-0.7,0-1.1c0-1.1,0-2.1,0-3.2c0,0,0-0.1,0-0.1c0-2.8,0-5.6,0-8.4c0,0,0-0.1,0-0.1
		c0-1.4,0-2.9,0-4.3l0,0c1.4,0,2.8,0,4.2,0C60,35.6,60,41.4,60,47.1z"/>
	<path d="M4.2,47.1c-1.4,0-2.8,0-4.2,0c0-5.7,0-11.5,0-17.2c1.4,0,2.8,0,4.2,0l0,0c0,1.4,0,2.9,0,4.3c0,0,0,0.1,0,0.1
		c0,2.8,0,5.6,0,8.4c0,0,0,0.1,0,0.1C4.2,44.2,4.2,45.7,4.2,47.1L4.2,47.1z"/>
	<path d="M47.2,25.6c0.1,0,0.1,0,0.2,0c2.7,0,5.5,0,8.2,0c0.1,0,0.2,0,0.2,0.2c0,1.4,0,2.7,0,4.1l0,0c-0.5,0-1,0-1.4,0
		c-1,0-1.9,0-2.9,0c-1.4,0-2.9,0-4.3,0c-0.1,0-0.2,0-0.3,0c-1.4,0-2.7,0-4.1,0c-0.3,0-0.6,0-1,0c-1.1,0-2.2,0-3.3,0
		c-1.4,0-2.9,0-4.3,0c0,0-0.1,0-0.1,0c-2.8,0-5.6,0-8.4,0c0,0-0.1,0-0.1,0c-1.4,0-2.9,0-4.3,0c-1.4,0-2.9,0-4.3,0
		c-0.6,0-1.2,0-1.8,0c-0.8,0-1.6,0-2.5,0c-0.5,0-1,0-1.4,0c-1,0-1.9,0-2.9,0c-1.4,0-2.9,0-4.3,0l0,0c0-1.4,0-2.7,0-4.1
		c0-0.2,0-0.2,0.2-0.2c2.7,0,5.5,0,8.2,0c0.1,0,0.1,0,0.2,0c0.3,0,0.6,0,0.9,0c1.1,0,2.3,0,3.4,0c0,0,0.1,0,0.1,0c2.8,0,5.6,0,8.4,0
		c0,0,0.1,0,0.1,0c0.1,0,0.1,0,0.2,0c2.7,0,5.5,0,8.2,0c0.1,0,0.1,0,0.2,0c0,0,0.1,0,0.1,0c2.8,0,5.6,0,8.4,0c0,0,0.1,0,0.1,0
		c0.1,0,0.3,0,0.4,0C44.6,25.6,45.9,25.6,47.2,25.6z"/>
	<path d="M8.5,17c0-1.4,0-2.8,0-4.1c0-1.4,0-2.9,0-4.3c0-0.1,0-0.1,0-0.2c1.4,0,2.9,0,4.3,0l0,0c0,0.4,0,0.9,0,1.3c0,1,0,2,0,3
		c0,0.1,0,0.1,0,0.2c0,1.4,0,2.7,0,4.1C11.3,17,9.9,17,8.5,17z"/>
	<path class="st1" d="M17.1,25.6c-1.1,0-2.3,0-3.4,0c-0.3,0-0.6,0-0.9,0c0-1.4,0-2.9,0-4.3l0,0c1.4,0,2.9,0,4.3,0c0,0.1,0,0.1,0,0.2
		C17.1,22.9,17.1,24.3,17.1,25.6z"/>
	<path class="st1" d="M8.5,17c1.4,0,2.9,0,4.3,0l0,0c0,1.4,0,2.9,0,4.3l0,0c-1.4,0-2.8,0-4.2,0c-0.1,0-0.1,0-0.1-0.1
		C8.5,19.8,8.5,18.4,8.5,17z"/>
	<path class="st1" d="M12.8,8.4c-1.4,0-2.9,0-4.3,0c0-0.7,0-1.5,0-2.2c0-0.7,0-1.4,0-2c1,0,2,0,3,0c0.4,0,0.8,0,1.3,0l0,0
		C12.8,5.6,12.8,7,12.8,8.4z"/>
	<path d="M51.5,8.4c0,0,0,0.1,0,0.1c0,2.8,0,5.6,0,8.4c0,0,0,0.1,0,0.1c-1.4,0-2.9,0-4.3,0c0-0.7,0-1.4,0-2.1c0-0.7,0-1.4,0-2.2
		c0-0.1,0-0.1,0-0.2c0-1.4,0-2.7,0-4.1l0,0C48.6,8.4,50.1,8.4,51.5,8.4z"/>
	<path class="st1" d="M47.2,17c1.4,0,2.9,0,4.3,0c0,1.4,0,2.8,0,4.2c0,0.1-0.1,0.1-0.1,0.1c-0.8,0-1.6,0-2.4,0c-0.6,0-1.2,0-1.8,0
		l0,0C47.2,19.9,47.2,18.5,47.2,17L47.2,17z"/>
	<path class="st1" d="M47.2,25.6c-1.3,0-2.6,0-3.9,0c-0.1,0-0.3,0-0.4,0c0-1.4,0-2.9,0-4.3c1.4,0,2.9,0,4.3,0l0,0
		C47.2,22.8,47.2,24.2,47.2,25.6z"/>
	<path class="st1" d="M51.5,8.4c-1.4,0-2.9,0-4.3,0c0-1.4,0-2.9,0-4.3l0,0c1.4,0,2.8,0,4.1,0c0.1,0,0.1,0,0.2,0c0,1.4,0,2.7,0,4.1
		C51.5,8.3,51.5,8.4,51.5,8.4z"/>
	<path d="M47.2,4.1c0,1.4,0,2.9,0,4.3l0,0c-0.2,0-0.4,0-0.7,0c-1.2,0-2.4,0-3.6,0c-0.5,0-0.9,0-1.4,0c-1,0-1.9,0-2.9,0
		c-1.4,0-2.9,0-4.3,0c0,0-0.1,0-0.1,0c-2.8,0-5.6,0-8.4,0c0,0-0.1,0-0.1,0c-1.4,0-2.9,0-4.3,0c-0.6,0-1.3,0-1.9,0
		c-0.8,0-1.6,0-2.4,0c-0.1,0-0.1,0-0.2,0c-1.4,0-2.7,0-4.1,0l0,0c0-1.4,0-2.9,0-4.3c0.1,0,0.1,0,0.2,0c11.4,0,22.8,0,34.1,0
		C47.1,4.1,47.2,4.1,47.2,4.1z"/>
	<path d="M55.8,47.1c0,1.4,0,2.8,0,4.1c0,0.1,0,0.2-0.2,0.2c-1.4,0-2.8,0-4.1,0l0,0c0-1.4,0-2.9,0-4.3C53,47.1,54.4,47.1,55.8,47.1
		L55.8,47.1z"/>
	<path d="M51.5,51.4c0,1.4,0,2.8,0,4.1c0,0.1,0,0.2-0.2,0.2c-1.4,0-2.8,0-4.1,0l0,0c0-1.4,0-2.9,0-4.3
		C48.7,51.4,50.1,51.4,51.5,51.4L51.5,51.4z"/>
	<path d="M8.5,51.4c-1.4,0-2.8,0-4.1,0c-0.1,0-0.2,0-0.2-0.2c0-1.4,0-2.8,0-4.1l0,0c1.4,0,2.9,0,4.3,0C8.5,48.5,8.5,50,8.5,51.4
		L8.5,51.4z"/>
	<path d="M12.8,55.7c-1.4,0-2.8,0-4.1,0c-0.1,0-0.2,0-0.2-0.2c0-1.4,0-2.8,0-4.1l0,0c1.4,0,2.9,0,4.3,0
		C12.8,52.8,12.8,54.3,12.8,55.7L12.8,55.7z"/>
	<path class="st2" d="M55.8,34.2c0,0,0,0.1,0,0.1c0,2.8,0,5.6,0,8.4c0,0,0,0.1,0,0.1c-1.4,0-2.9,0-4.3,0c0-0.1,0-0.2,0-0.2
		c0-1.4,0-2.7,0-4.1c0-0.1,0-0.2,0-0.3c0-1.3,0-2.7,0-4C53,34.2,54.4,34.2,55.8,34.2z"/>
	<path class="st3" d="M55.8,34.2c-1.4,0-2.9,0-4.3,0c0-1.4,0-2.9,0-4.3c1,0,1.9,0,2.9,0c0.5,0,1,0,1.4,0
		C55.8,31.3,55.8,32.8,55.8,34.2z"/>
	<path class="st3" d="M51.5,42.8c1.4,0,2.9,0,4.3,0c0,1.1,0,2.1,0,3.2c0,0.4,0,0.7,0,1.1c-1.4,0-2.9,0-4.3,0l0,0c0-0.4,0-0.7,0-1.1
		C51.5,44.9,51.5,43.9,51.5,42.8z"/>
	<path class="st2" d="M4.2,42.8c0,0,0-0.1,0-0.1c0-2.8,0-5.6,0-8.4c0,0,0-0.1,0-0.1c1.4,0,2.9,0,4.3,0c0,0.2,0,0.5,0,0.7
		c0,1.2,0,2.4,0,3.6c0,0.4,0,0.8,0,1.2c0,1,0,2,0,3.1C7,42.8,5.6,42.8,4.2,42.8z"/>
	<path class="st3" d="M8.5,34.2c-1.4,0-2.9,0-4.3,0c0-1.4,0-2.9,0-4.3c1.4,0,2.9,0,4.3,0c0,0.4,0,0.8,0,1.2
		C8.5,32.1,8.5,33.2,8.5,34.2z"/>
	<path class="st3" d="M4.2,42.8c1.4,0,2.9,0,4.3,0c0,0.1,0,0.1,0,0.2c0,1.4,0,2.7,0,4.1l0,0c-1.4,0-2.9,0-4.3,0
		C4.2,45.7,4.2,44.2,4.2,42.8z"/>
	<path class="st3" d="M12.8,55.7c0-1.4,0-2.9,0-4.3l0,0c1.4,0,2.9,0,4.3,0c0,1.4,0,2.9,0,4.3l0,0C15.7,55.7,14.2,55.7,12.8,55.7z"/>
	<path class="st3" d="M47.2,51.4c0,1.4,0,2.9,0,4.3c-1.4,0-2.9,0-4.3,0l0,0c0-1.4,0-2.9,0-4.3C44.3,51.4,45.8,51.4,47.2,51.4
		L47.2,51.4z"/>
	<path class="st1" d="M51.5,29.9c0,1.4,0,2.9,0,4.3c0,1.3,0,2.7,0,4c0,0.1,0,0.2,0,0.3c-1.4,0-2.9,0-4.3,0c0-1.4,0-2.9,0-4.3
		c0-0.1,0-0.1,0-0.2c0-1.4,0-2.7,0-4.1C48.7,29.9,50.1,29.9,51.5,29.9z"/>
	<path class="st1" d="M25.7,29.9c0,0,0.1,0,0.1,0c2.8,0,5.6,0,8.4,0c0,0,0.1,0,0.1,0c0,1.4,0,2.9,0,4.3c-2.9,0-5.7,0-8.6,0
		C25.7,32.8,25.7,31.4,25.7,29.9z"/>
	<path class="st1" d="M8.5,34.2c0-1,0-2.1,0-3.1c0-0.4,0-0.8,0-1.2c1,0,1.9,0,2.9,0c0.5,0,1,0,1.4,0c0,0.6,0,1.3,0,1.9
		c0,0.8,0,1.6,0,2.4c0,1.4,0,2.9,0,4.3c-1.4,0-2.9,0-4.3,0c0-1.2,0-2.4,0-3.6C8.5,34.7,8.5,34.5,8.5,34.2z"/>
	<path class="st2" d="M42.9,21.3c0,1.4,0,2.9,0,4.3c0,0-0.1,0-0.1,0c-2.8,0-5.6,0-8.4,0c0,0-0.1,0-0.1,0c0-1.4,0-2.9,0-4.3
		c0.7,0,1.4,0,2,0c0.8,0,1.5,0,2.3,0C40,21.3,41.5,21.3,42.9,21.3L42.9,21.3z"/>
	<path class="st4" d="M34.3,21.3c0,1.4,0,2.9,0,4.3c-0.1,0-0.1,0-0.2,0c-2.7,0-5.5,0-8.2,0c-0.1,0-0.1,0-0.2,0c0-1.4,0-2.9,0-4.3
		c0,0,0.1,0,0.1,0C28.6,21.3,31.5,21.3,34.3,21.3L34.3,21.3z"/>
	<path class="st2" d="M25.7,21.3c0,1.4,0,2.9,0,4.3c0,0-0.1,0-0.1,0c-2.8,0-5.6,0-8.4,0c0,0-0.1,0-0.1,0c0-1.4,0-2.7,0-4.1
		c0-0.1,0-0.1,0-0.2l0,0c1.4,0,2.9,0,4.3,0c0.1,0,0.1,0,0.2,0C23,21.3,24.3,21.3,25.7,21.3L25.7,21.3z"/>
	<path class="st3" d="M12.8,34.2c0-0.8,0-1.6,0-2.4c0-0.6,0-1.3,0-1.9c0.8,0,1.6,0,2.5,0c0.6,0,1.2,0,1.8,0c0,0.6,0,1.2,0,1.7
		c0,0.8,0,1.7,0,2.5C15.7,34.2,14.2,34.2,12.8,34.2z"/>
	<path class="st1" d="M17.1,34.2c0-0.8,0-1.7,0-2.5c0-0.6,0-1.2,0-1.7c1.4,0,2.9,0,4.3,0c0,1.4,0,2.9,0,4.3
		C20,34.2,18.5,34.2,17.1,34.2L17.1,34.2z"/>
	<path class="st3" d="M34.3,34.2c0-1.4,0-2.9,0-4.3c1.4,0,2.9,0,4.3,0c0,1.4,0,2.9,0,4.3C37.2,34.2,35.7,34.2,34.3,34.2L34.3,34.2z"
		/>
	<path class="st1" d="M38.6,34.2c0-1.4,0-2.9,0-4.3c1.1,0,2.2,0,3.3,0c0.3,0,0.6,0,1,0c0,0.6,0,1.1,0,1.7c0,0.9,0,1.7,0,2.6l0,0
		C41.5,34.2,40,34.2,38.6,34.2L38.6,34.2z"/>
	<path class="st3" d="M42.9,34.2c0-0.9,0-1.7,0-2.6c0-0.6,0-1.1,0-1.7c1.4,0,2.7,0,4.1,0c0.1,0,0.2,0,0.3,0c0,1.4,0,2.7,0,4.1
		c0,0.1,0,0.1,0,0.2C45.8,34.2,44.3,34.2,42.9,34.2z"/>
	<path class="st3" d="M21.4,34.2c0-1.4,0-2.9,0-4.3c1.4,0,2.9,0,4.3,0c0,1.4,0,2.9,0,4.3l0,0C24.3,34.2,22.8,34.2,21.4,34.2
		L21.4,34.2z"/>
	<path class="st0" d="M12.8,8.4c1.4,0,2.7,0,4.1,0c0.1,0,0.1,0,0.2,0c0,1.4,0,2.9,0,4.3c-1.4,0-2.9,0-4.3,0c0-1,0-2,0-3
		C12.8,9.3,12.8,8.9,12.8,8.4z"/>
	<path class="st1" d="M12.8,12.7c1.4,0,2.9,0,4.3,0l0,0c0,1.4,0,2.9,0,4.3l0,0c-1.4,0-2.9,0-4.3,0l0,0c0-1.4,0-2.7,0-4.1
		C12.8,12.8,12.8,12.8,12.8,12.7z"/>
	<path class="st4" d="M12.8,17c1.4,0,2.9,0,4.3,0c0,1.4,0,2.9,0,4.3l0,0c-1.4,0-2.9,0-4.3,0C12.8,19.9,12.8,18.5,12.8,17z"/>
	<path class="st1" d="M47.2,12.7c0,0.7,0,1.4,0,2.2c0,0.7,0,1.4,0,2.1l0,0c-1.4,0-2.9,0-4.3,0l0,0c0-1.4,0-2.9,0-4.3l0,0
		C44.3,12.7,45.8,12.7,47.2,12.7z"/>
	<path class="st0" d="M47.2,12.7c-1.4,0-2.9,0-4.3,0c0-1.4,0-2.9,0-4.3c1.2,0,2.4,0,3.6,0c0.2,0,0.4,0,0.7,0c0,1.4,0,2.7,0,4.1
		C47.2,12.6,47.2,12.7,47.2,12.7z"/>
	<path class="st4" d="M42.9,17c1.4,0,2.9,0,4.3,0c0,1.4,0,2.9,0,4.3c-1.4,0-2.9,0-4.3,0l0,0C42.9,19.9,42.9,18.5,42.9,17z"/>
	<path class="st1" d="M25.7,8.4c0,0,0.1,0,0.1,0c2.8,0,5.6,0,8.4,0c0,0,0.1,0,0.1,0c0,1.4,0,2.9,0,4.3c-2.9,0-5.7,0-8.6,0
		C25.7,11.3,25.7,9.9,25.7,8.4z"/>
	<path class="st0" d="M25.7,8.4c0,1.4,0,2.9,0,4.3l0,0c-1.4,0-2.9,0-4.3,0l0,0c0-1.4,0-2.9,0-4.3C22.8,8.4,24.3,8.4,25.7,8.4z"/>
	<path class="st0" d="M34.3,12.7c0-1.4,0-2.9,0-4.3c1.4,0,2.9,0,4.3,0c0,1.4,0,2.9,0,4.3l0,0C37.2,12.7,35.7,12.7,34.3,12.7
		L34.3,12.7z"/>
	<path class="st1" d="M21.4,8.4c0,1.4,0,2.9,0,4.3c-1.4,0-2.9,0-4.3,0l0,0c0-1.4,0-2.9,0-4.3c0.8,0,1.6,0,2.4,0
		C20.1,8.4,20.8,8.4,21.4,8.4z"/>
	<path class="st1" d="M38.6,12.7c0-1.4,0-2.9,0-4.3c1,0,1.9,0,2.9,0c0.5,0,0.9,0,1.4,0c0,1.4,0,2.9,0,4.3l0,0
		C41.5,12.7,40,12.7,38.6,12.7z"/>
	<path class="st3" d="M51.5,51.4c-1.4,0-2.9,0-4.3,0l0,0c0-0.3,0-0.5,0-0.8c0-1.2,0-2.3,0-3.5c1.4,0,2.9,0,4.3,0l0,0
		C51.5,48.5,51.5,50,51.5,51.4z"/>
	<path class="st3" d="M12.8,51.4c-1.4,0-2.9,0-4.3,0c0-1.4,0-2.9,0-4.3l0,0c1.4,0,2.9,0,4.3,0c0,0.1,0,0.2,0,0.3
		C12.8,48.7,12.8,50.1,12.8,51.4L12.8,51.4z"/>
	<path class="st0" d="M51.5,47.1c-1.4,0-2.9,0-4.3,0c0-0.4,0-0.8,0-1.1c0-1.1,0-2.1,0-3.2c0-0.1,0-0.1,0-0.2c0-1.4,0-2.7,0-4.1l0,0
		c1.4,0,2.9,0,4.3,0c0,1.4,0,2.7,0,4.1c0,0.1,0,0.2,0,0.2c0,1.1,0,2.1,0,3.2C51.5,46.4,51.5,46.7,51.5,47.1z"/>
	<path class="st0" d="M12.8,47.1c-1.4,0-2.9,0-4.3,0c0-1.4,0-2.7,0-4.1c0-0.1,0-0.1,0-0.2c0-1,0-2,0-3.1c0-0.4,0-0.8,0-1.2
		c1.4,0,2.9,0,4.3,0l0,0c0,0.4,0,0.8,0,1.1c0,1.1,0,2.1,0,3.2c0,0.1,0,0.2,0,0.3C12.8,44.5,12.8,45.8,12.8,47.1z"/>
	<path d="M42.9,51.4c0,1.4,0,2.9,0,4.3c-2.8,0-5.6,0-8.4,0c-0.1,0-0.2,0-0.2-0.2c0-1.3,0-2.6,0-3.9c0-0.1,0-0.2-0.2-0.2
		c-2.8,0-5.5,0-8.3,0c-0.1,0-0.2,0-0.2,0.2c0,1.3,0,2.6,0,4c0,0.1,0,0.2-0.2,0.2c-2.8,0-5.6,0-8.4,0c0-1.4,0-2.9,0-4.3l0,0
		c1.4,0,2.7,0,4.1,0c0.2,0,0.2,0,0.2-0.2c0-2.7,0-5.5,0-8.2c0-0.1,0-0.1,0-0.2c0.3,0,0.6,0,1,0c1.1,0,2.2,0,3.3,0c0,0,0.1,0,0.1,0
		c2.8,0,5.6,0,8.4,0c0,0,0.1,0,0.1,0c0.1,0,0.1,0,0.2,0c1.4,0,2.7,0,4.1,0c0,0.1,0,0.1,0,0.2c0,2.7,0,5.5,0,8.2c0,0.2,0,0.2,0.2,0.2
		C40.2,51.4,41.5,51.4,42.9,51.4L42.9,51.4z"/>
	<path class="st2" d="M12.8,47.1c0-1.3,0-2.6,0-4c0-0.1,0-0.2,0-0.3c1.4,0,2.9,0,4.3,0c0,2.9,0,5.7,0,8.6l0,0c-1.4,0-2.9,0-4.3,0
		c0-1.3,0-2.7,0-4C12.8,47.3,12.8,47.2,12.8,47.1z"/>
	<path class="st2" d="M47.2,42.8c0,1.1,0,2.1,0,3.2c0,0.4,0,0.8,0,1.1c0,1.2,0,2.3,0,3.5c0,0.3,0,0.5,0,0.8c-1.4,0-2.9,0-4.3,0l0,0
		c0-2.9,0-5.7,0-8.6C44.3,42.8,45.8,42.8,47.2,42.8z"/>
	<path class="st2" d="M42.9,34.2c1.4,0,2.9,0,4.3,0c0,1.4,0,2.9,0,4.3l0,0c-1.4,0-2.9,0-4.3,0C42.9,37.1,42.9,35.6,42.9,34.2
		L42.9,34.2z"/>
	<path class="st4" d="M25.7,34.2c2.9,0,5.7,0,8.6,0l0,0c0,1.4,0,2.9,0,4.3c-2.9,0-5.7,0-8.6,0C25.7,37.1,25.7,35.6,25.7,34.2
		L25.7,34.2z"/>
	<path class="st2" d="M12.8,34.2c1.4,0,2.9,0,4.3,0l0,0c0,1.4,0,2.9,0,4.3c-1.4,0-2.9,0-4.3,0l0,0C12.8,37.1,12.8,35.6,12.8,34.2z"
		/>
	<path d="M42.9,17c0,1.4,0,2.9,0,4.3c-1.4,0-2.9,0-4.3,0c0-1.4,0-2.9,0-4.3C40,17,41.5,17,42.9,17L42.9,17z"/>
	<path class="st4" d="M38.6,17c0,1.4,0,2.9,0,4.3c-0.8,0-1.5,0-2.3,0c-0.7,0-1.4,0-2,0l0,0c0-1.4,0-2.9,0-4.3l0,0
		C35.7,17,37.2,17,38.6,17L38.6,17z"/>
	<path class="st1" d="M34.3,17c0,1.4,0,2.9,0,4.3c-2.8,0-5.7,0-8.5,0c0,0-0.1,0-0.1,0l0,0c0-1.4,0-2.9,0-4.3
		C28.6,17,31.4,17,34.3,17z"/>
	<path class="st4" d="M25.7,17c0,1.4,0,2.9,0,4.3c-1.4,0-2.7,0-4.1,0c-0.1,0-0.1,0-0.2,0c0-1.4,0-2.9,0-4.3l0,0
		C22.8,17,24.3,17,25.7,17L25.7,17z"/>
	<path d="M21.4,17c0,1.4,0,2.9,0,4.3c-1.4,0-2.9,0-4.3,0c0-1.4,0-2.9,0-4.3l0,0C18.5,17,20,17,21.4,17z"/>
	<path class="st4" d="M17.1,38.5c0-1.4,0-2.9,0-4.3c1.4,0,2.9,0,4.3,0l0,0c0,1.4,0,2.9,0,4.3l0,0C20,38.5,18.5,38.5,17.1,38.5
		L17.1,38.5z"/>
	<path class="st1" d="M34.3,38.5c0-1.4,0-2.9,0-4.3c1.4,0,2.9,0,4.3,0l0,0c0,1.4,0,2.9,0,4.3C37.2,38.5,35.7,38.5,34.3,38.5
		L34.3,38.5z"/>
	<path class="st4" d="M38.6,38.5c0-1.4,0-2.9,0-4.3c1.4,0,2.9,0,4.3,0c0,1.4,0,2.9,0,4.3l0,0C41.5,38.5,40,38.5,38.6,38.5L38.6,38.5
		z"/>
	<path class="st1" d="M21.4,38.5c0-1.4,0-2.9,0-4.3c1.4,0,2.9,0,4.3,0c0,1.4,0,2.9,0,4.3l0,0C24.3,38.5,22.8,38.5,21.4,38.5z"/>
	<path class="st4" d="M21.4,17c-1.4,0-2.9,0-4.3,0c0-1.4,0-2.9,0-4.3c1.4,0,2.9,0,4.3,0l0,0C21.4,14.2,21.4,15.6,21.4,17L21.4,17z"
		/>
	<path class="st4" d="M42.9,17c-1.4,0-2.9,0-4.3,0l0,0c0-1.4,0-2.9,0-4.3c0,0,0,0,0,0c1.4,0,2.9,0,4.3,0
		C42.9,14.2,42.9,15.6,42.9,17z"/>
	<path class="st4" d="M34.3,17c-2.9,0-5.7,0-8.6,0l0,0c0-1.4,0-2.9,0-4.3l0,0c2.9,0,5.7,0,8.6,0l0,0C34.3,14.2,34.3,15.6,34.3,17
		L34.3,17z"/>
	<path class="st2" d="M25.7,12.7c0,1.4,0,2.9,0,4.3c-1.4,0-2.9,0-4.3,0c0-1.4,0-2.9,0-4.3C22.8,12.7,24.3,12.7,25.7,12.7z"/>
	<path class="st2" d="M34.3,17c0-1.4,0-2.9,0-4.3c1.4,0,2.9,0,4.3,0c0,1.4,0,2.9,0,4.3C37.2,17,35.7,17,34.3,17z"/>
	<path class="st1" d="M42.9,38.5c1.4,0,2.9,0,4.3,0c0,1.4,0,2.7,0,4.1c0,0.1,0,0.1,0,0.2c-1.4,0-2.9,0-4.3,0l0,0
		C42.9,41.4,42.9,39.9,42.9,38.5L42.9,38.5z"/>
	<path class="st1" d="M12.8,38.5c1.4,0,2.9,0,4.3,0l0,0c0,1.4,0,2.9,0,4.3l0,0c-1.4,0-2.9,0-4.3,0c0-1.1,0-2.1,0-3.2
		C12.8,39.3,12.8,38.9,12.8,38.5z"/>
	<path class="st3" d="M42.9,42.8c0,2.9,0,5.7,0,8.6c-1.4,0-2.7,0-4.1,0c-0.2,0-0.2,0-0.2-0.2c0-2.7,0-5.5,0-8.2c0-0.1,0-0.1,0-0.2
		l0,0c0.1,0,0.1,0,0.2,0C40.2,42.8,41.6,42.8,42.9,42.8L42.9,42.8z"/>
	<path class="st3" d="M17.1,51.4c0-2.9,0-5.7,0-8.6l0,0c0.9,0,1.7,0,2.6,0c0.6,0,1.1,0,1.7,0c0,0,0,0,0,0c0,0.1,0,0.1,0,0.2
		c0,2.7,0,5.5,0,8.2c0,0.2,0,0.2-0.2,0.2C19.8,51.4,18.5,51.4,17.1,51.4z"/>
	<path class="st2" d="M25.7,38.5c2.9,0,5.7,0,8.6,0l0,0c0,1.4,0,2.9,0,4.3c0,0-0.1,0-0.1,0c-2.8,0-5.6,0-8.4,0c0,0-0.1,0-0.1,0
		C25.7,41.4,25.7,39.9,25.7,38.5L25.7,38.5z"/>
	<path class="st4" d="M25.7,38.5c0,1.4,0,2.9,0,4.3c-1.1,0-2.2,0-3.3,0c-0.3,0-0.6,0-1,0l0,0c0-0.1,0-0.1,0-0.2c0-1.4,0-2.7,0-4.1
		l0,0C22.8,38.5,24.3,38.5,25.7,38.5z"/>
	<path class="st4" d="M34.3,42.8c0-1.4,0-2.9,0-4.3c1.4,0,2.9,0,4.3,0l0,0c0,0.1,0,0.3,0,0.4c0,1.3,0,2.6,0,3.9l0,0
		c-1.4,0-2.7,0-4.1,0C34.4,42.8,34.4,42.8,34.3,42.8z"/>
	<path class="st2" d="M21.4,38.5c0,1.4,0,2.7,0,4.1c0,0.1,0,0.1,0,0.2c-0.6,0-1.1,0-1.7,0c-0.9,0-1.7,0-2.6,0c0-1.4,0-2.9,0-4.3
		C18.5,38.5,20,38.5,21.4,38.5z"/>
	<path class="st2" d="M38.6,42.8c0-1.3,0-2.6,0-3.9c0-0.1,0-0.3,0-0.4c1.4,0,2.9,0,4.3,0c0,1.4,0,2.9,0,4.3c-1.4,0-2.7,0-4.1,0
		C38.8,42.8,38.7,42.8,38.6,42.8z"/>
	<g>
		<path d="M42.9,60L42.9,60l4.5,0c-0.1,0-0.2,0-0.2-0.2c0-1.4,0-2.8,0-4.1l0,0c-1.4,0-2.9,0-4.3,0c0,1.4,0,2.8,0,4.1
			C42.9,59.9,42.9,60,42.9,60z"/>
		<path d="M17.2,60c-0.1,0-0.1-0.1-0.1-0.1c0-1.4,0-2.8,0-4.1c-1.4,0-2.9,0-4.3,0l0,0c0,1.4,0,2.8,0,4.1c0,0.1,0,0.2-0.2,0.2
			L17.2,60L17.2,60z"/>
	</g>
</g>
</svg>
