<?xml version="1.0" encoding="utf-8"?>
<!-- Generator: Adobe Illustrator 25.4.0, SVG Export Plug-In . SVG Version: 6.00 Build 0)  -->
<svg version="1.1" id="Layer_1" xmlns="http://www.w3.org/2000/svg" xmlns:xlink="http://www.w3.org/1999/xlink" x="0px" y="0px"
	 viewBox="0 0 60 60" style="enable-background:new 0 0 60 60;" xml:space="preserve">
<style type="text/css">
	.st0{fill:#B8C2FE;}
	.st1{fill:#36FEDE;}
	.st2{fill:#FED30B;}
	.st3{fill:#FEA004;}
	.st4{fill:#0058F7;}
</style>
<g>
	<path d="M51.6,60c-14.4,0-28.8,0-43.1,0c0-1.4,0-2.7,0-4.1c0-0.1,0-0.2-0.2-0.2c-1.3,0-2.6,0-3.9,0c-0.2,0-0.2,0-0.2-0.2
		c0-2.7,0-5.3,0-8c0-10.1,0-20.2,0-30.3c0-0.2,0-0.2,0.2-0.2c1.4,0,2.7,0,4.1,0c0,1.4,0,2.9,0,4.3c0,1.4,0,2.9,0,4.3
		c0,1.4,0,2.9,0,4.3c0,1.4,0,2.9,0,4.3c0,1.4,0,2.9,0,4.3c0,0,0,0,0,0.1c0,4.2,0,8.4,0,12.7c0,0.1,0.1,0.2,0.2,0.2
		c1.4,0,2.8,0,4.2,0c0,1.4,0,2.8,0,4.1c0,0.1,0,0.2,0.1,0.2c1.4,0,2.8,0,4.2,0c1.4,0,2.9,0,4.3,0c1.4,0,2.9,0,4.3,0c0,0,0.1,0,0.1,0
		c2.8,0,5.6,0,8.4,0c0,0,0.1,0,0.1,0c1.4,0,2.9,0,4.3,0c1.4,0,2.9,0,4.3,0c1.4,0,2.8,0,4.2,0c0.2,0,0.1-0.1,0.1-0.2
		c0-1.4,0-2.8,0-4.1c1.4,0,2.7,0,4.1,0c0.2,0,0.2,0,0.2-0.2c0-4.2,0-8.3,0-12.5c0-0.1,0-0.1,0-0.2c0-1.4,0-2.9,0-4.3
		c0-1.4,0-2.9,0-4.3c0-1.4,0-2.9,0-4.3c0-1.4,0-2.9,0-4.3c0-1.4,0-2.9,0-4.3c1.4,0,2.7,0,4.1,0c0.2,0,0.2,0,0.2,0.2
		c0,12.8,0,25.6,0,38.3c0,0.1,0,0.2-0.2,0.2c-1.3,0-2.6,0-3.9,0c-0.1,0-0.2,0-0.2,0.2C51.6,57.3,51.6,58.6,51.6,60z"/>
	<path d="M38.6,4.1c0-1.4,0-2.8,0-4.1c5.7,0,11.5,0,17.2,0c0,1.4,0,2.8,0,4.1l0,0c-0.2,0-0.4,0-0.6,0c-1.2,0-2.4,0-3.7,0
		c-1.4,0-2.9,0-4.3,0c-1.4,0-2.9,0-4.3,0c-0.1,0-0.1,0-0.2,0C41.4,4.1,40,4.1,38.6,4.1L38.6,4.1z"/>
	<path d="M21.4,0c0,1.4,0,2.8,0,4.1l0,0c-0.2,0-0.4,0-0.6,0c-1.2,0-2.4,0-3.7,0c-1.4,0-2.9,0-4.3,0c-1.4,0-2.9,0-4.3,0
		c-0.1,0-0.1,0-0.2,0c-1.4,0-2.7,0-4.1,0l0,0c0-1.4,0-2.8,0-4.1C9.9,0,15.6,0,21.4,0z"/>
	<path d="M60,8.4c-1.4,0-2.8,0-4.1,0l0,0c0-1.4,0-2.9,0-4.3l0,0c1.4,0,2.8,0,4.1,0C60,5.6,60,7,60,8.4z"/>
	<path d="M4.1,8.4c-1.4,0-2.8,0-4.1,0C0,7,0,5.6,0,4.1c1.4,0,2.8,0,4.1,0l0,0C4.1,5.6,4.1,7,4.1,8.4L4.1,8.4z"/>
	<path class="st0" d="M12.8,51.4c-1.4,0-2.8,0-4.2,0c-0.1,0-0.2,0-0.2-0.2c0-4.2,0-8.4,0-12.7c0,0,0,0,0-0.1c1.4,0,2.9,0,4.3,0l0,0
		c0,1.4,0,2.9,0,4.3c0,0.1,0,0.2,0,0.2C12.8,45.9,12.8,48.7,12.8,51.4L12.8,51.4z"/>
	<path class="st0" d="M51.6,38.6c0,0.1,0,0.1,0,0.2c0,4.2,0,8.3,0,12.5c0,0.2,0,0.2-0.2,0.2c-1.4,0-2.7,0-4.1,0l0,0
		c0-2.8,0-5.6,0-8.4c0-0.1,0-0.2,0-0.2c0-1.4,0-2.9,0-4.3l0,0C48.7,38.6,50.1,38.6,51.6,38.6z"/>
	<path class="st1" d="M34.3,55.8c0,0-0.1,0-0.1,0c-2.8,0-5.6,0-8.4,0c0,0-0.1,0-0.1,0c0-1.4,0-2.9,0-4.3c2.9,0,5.7,0,8.6,0
		C34.3,52.9,34.3,54.3,34.3,55.8z"/>
	<path class="st0" d="M17.1,55.8c-1.4,0-2.8,0-4.2,0c-0.2,0-0.1-0.1-0.1-0.2c0-1.4,0-2.8,0-4.1l0,0c1.4,0,2.9,0,4.3,0
		C17.1,52.9,17.1,54.3,17.1,55.8z"/>
	<path class="st1" d="M51.6,38.6c-1.4,0-2.9,0-4.3,0c0-0.2,0-0.4,0-0.7c0-1.2,0-2.4,0-3.7c1.4,0,2.9,0,4.3,0
		C51.6,35.7,51.6,37.1,51.6,38.6z"/>
	<path class="st1" d="M12.8,38.6c-1.4,0-2.9,0-4.3,0c0-1.4,0-2.9,0-4.3c1.4,0,2.9,0,4.3,0c0,0.1,0,0.1,0,0.2
		C12.8,35.8,12.8,37.2,12.8,38.6z"/>
	<path class="st0" d="M25.7,51.4c0,1.4,0,2.9,0,4.3c-1.4,0-2.9,0-4.3,0c0-1.4,0-2.9,0-4.3l0,0c0.1,0,0.2,0,0.2,0
		C23,51.4,24.3,51.4,25.7,51.4L25.7,51.4z"/>
	<path class="st1" d="M51.6,25.6c0,1.4,0,2.9,0,4.3c-1.4,0-2.9,0-4.3,0c0-0.3,0-0.6,0-0.9c0-1.1,0-2.3,0-3.4
		C48.7,25.6,50.1,25.6,51.6,25.6z"/>
	<path class="st1" d="M8.4,30c0-1.4,0-2.9,0-4.3c1.4,0,2.9,0,4.3,0c0,1.4,0,2.9,0,4.3C11.3,30,9.9,30,8.4,30z"/>
	<path class="st0" d="M51.6,25.6c-1.4,0-2.9,0-4.3,0c0-0.1,0-0.1,0-0.2c0-1.4,0-2.7,0-4.1c1.4,0,2.9,0,4.3,0
		C51.6,22.8,51.6,24.2,51.6,25.6z"/>
	<path class="st0" d="M12.8,25.6c-1.4,0-2.9,0-4.3,0c0-1.4,0-2.9,0-4.3c1.4,0,2.9,0,4.3,0c0,0.2,0,0.4,0,0.6
		C12.8,23.1,12.8,24.4,12.8,25.6z"/>
	<path class="st2" d="M42.9,55.8c-1.4,0-2.9,0-4.3,0c0-1.4,0-2.9,0-4.3c1.4,0,2.9,0,4.3,0C42.9,52.9,42.9,54.3,42.9,55.8z"/>
	<path class="st3" d="M12.8,21.3c-1.4,0-2.9,0-4.3,0c0-1.4,0-2.9,0-4.3l0,0c1.4,0,2.9,0,4.3,0c0,0,0,0,0,0.1
		C12.8,18.5,12.8,19.9,12.8,21.3L12.8,21.3z"/>
	<path class="st0" d="M42.9,55.8c0-1.4,0-2.9,0-4.3c1.4,0,2.9,0,4.3,0l0,0c0,1.4,0,2.8,0,4.1c0,0.1,0,0.2-0.1,0.2
		C45.7,55.8,44.3,55.8,42.9,55.8z"/>
	<path class="st3" d="M51.6,21.3c-1.4,0-2.9,0-4.3,0c0,0,0,0,0,0c0-1.2,0-2.4,0-3.6c0-0.2,0-0.4,0-0.6c1.4,0,2.9,0,4.3,0l0,0
		C51.6,18.5,51.6,19.9,51.6,21.3z"/>
	<path class="st0" d="M38.6,51.4c0,1.4,0,2.9,0,4.3c-1.4,0-2.9,0-4.3,0c0-1.4,0-2.9,0-4.3l0,0c0.2,0,0.5,0,0.7,0
		C36.2,51.4,37.4,51.4,38.6,51.4L38.6,51.4z"/>
	<path class="st2" d="M21.4,51.4c0,1.4,0,2.9,0,4.3c-1.4,0-2.9,0-4.3,0c0-1.4,0-2.9,0-4.3C18.5,51.4,19.9,51.4,21.4,51.4z"/>
	<path class="st0" d="M8.4,30c1.4,0,2.9,0,4.3,0c0,1.4,0,2.9,0,4.3c-1.4,0-2.9,0-4.3,0C8.4,32.8,8.4,31.4,8.4,30z"/>
	<path class="st0" d="M47.2,30c1.4,0,2.9,0,4.3,0c0,1.4,0,2.9,0,4.3c-1.4,0-2.9,0-4.3,0C47.2,32.8,47.2,31.4,47.2,30z"/>
	<path d="M12.8,17c-1.4,0-2.9,0-4.3,0c0-1.4,0-2.9,0-4.3l0,0c1.4,0,2.9,0,4.3,0C12.8,14.2,12.8,15.6,12.8,17L12.8,17z"/>
	<path d="M8.4,12.7c-1.4,0-2.8,0-4.2,0c-0.1,0-0.1,0-0.1-0.1c0-1.4,0-2.8,0-4.1l0,0c1.4,0,2.9,0,4.3,0l0,0
		C8.4,9.9,8.4,11.3,8.4,12.7L8.4,12.7z"/>
	<path d="M51.6,17c-1.4,0-2.9,0-4.3,0l0,0c0-1.4,0-2.9,0-4.3c1.4,0,2.9,0,4.3,0l0,0C51.6,14.2,51.6,15.6,51.6,17z"/>
	<path d="M55.9,8.4c0,1.4,0,2.8,0,4.1c0,0.1,0,0.1-0.1,0.1c-1.4,0-2.8,0-4.2,0l0,0c0-1.4,0-2.9,0-4.3l0,0C53,8.5,54.4,8.5,55.9,8.4
		L55.9,8.4z"/>
	<path d="M47.2,30c0,1.4,0,2.9,0,4.3c0,1.2,0,2.4,0,3.7c0,0.2,0,0.4,0,0.7l0,0c-0.3,0-0.7,0-1,0c-1.1,0-2.2,0-3.3,0
		c-1.4,0-2.8,0-4.2,0c-0.1,0-0.1,0.1-0.1,0.1c0,1.4,0,2.8,0,4.1c-1.4,0-2.7,0-4.1,0c-0.2,0-0.2,0.1-0.2,0.2c0,1.4,0,2.7,0,4.1l0,0
		c-2.9,0-5.7,0-8.6,0l0,0c0-1.4,0-2.8,0-4.1c0-0.1,0-0.2-0.2-0.2c-1.4,0-2.8,0-4.2,0c0-0.3,0-0.6,0-0.9c0-1.1,0-2.1,0-3.2
		c0-0.1,0-0.2-0.1-0.2c-1.4,0-2.8,0-4.2,0c-0.1,0-0.1,0-0.2,0c-1.4,0-2.7,0-4.1,0l0,0c0-1.4,0-2.7,0-4.1c0-0.1,0-0.1,0-0.2
		c0-1.4,0-2.9,0-4.3c0-1.4,0-2.9,0-4.3c0-1.3,0-2.5,0-3.8c0-0.2,0-0.4,0-0.6c0,0,0,0,0,0c0.1,0,0.1,0,0.2,0c1.3,0,2.6,0,3.9,0
		c0.2,0,0.2,0,0.2-0.2c0-1.3,0-2.7,0-4c0,0,0,0,0,0c1.4,0,2.7,0,4.1,0c0.2,0,0.2,0,0.2-0.2c0-1.4,0-2.8,0-4.1c1.4,0,2.8,0,4.1,0
		c0.2,0,0.2,0,0.2-0.2c0-1.4,0-2.7,0-4.1l0,0c2.9,0,5.7,0,8.6,0l0,0c0,1.4,0,2.7,0,4.1c0,0.2,0,0.2,0.2,0.2c1.4,0,2.7,0,4.1,0
		c0,1.4,0,2.8,0,4.1c0,0.1,0,0.2,0.1,0.2c1.4,0,2.8,0,4.2,0c0,0,0,0,0,0c0,1.3,0,2.7,0,4c0,0.2,0.1,0.2,0.2,0.2c1.2,0,2.4,0,3.6,0
		c0.1,0,0.3,0,0.4,0c0,0,0,0,0,0c0,1.4,0,2.7,0,4.1c0,0.1,0,0.1,0,0.2c0,1.1,0,2.3,0,3.4C47.2,29.3,47.2,29.7,47.2,30z M25.7,30
		c0-1.4,0-2.8,0-4.1c0-0.1,0-0.2-0.2-0.2c-1.3,0-2.7,0-4,0c-0.1,0-0.2,0-0.2,0.2c0,1.3,0,2.6,0,3.9c0,0.2,0,0.2,0.2,0.2
		C23,30,24.3,30,25.7,30c0,0.1,0,0.1,0,0.2c0,1.3,0,2.6,0,3.9c0,0.2,0,0.2,0.2,0.2c2.7,0,5.5,0,8.2,0c0,0,0.1,0,0.1,0
		c0.1,0,0.1,0,0.1-0.1c0-0.3,0-0.6,0-0.9c0-1.1,0-2.1,0-3.2c1.4,0,2.7,0,4.1,0c0.1,0,0.2,0,0.2-0.2c0-1.3,0-2.6,0-4
		c0-0.1,0-0.2-0.2-0.2c-1.3,0-2.6,0-3.9,0c-0.2,0-0.2,0-0.2,0.2c0,1.4,0,2.8,0,4.1c-0.1,0-0.1,0-0.2,0c-2.2,0-4.3,0-6.5,0
		C27,30,26.3,30,25.7,30z"/>
	<path d="M21.4,4.1c1.4,0,2.8,0,4.2,0c0.1,0,0.1,0,0.1,0.1c0,1.4,0,2.8,0,4.2l0,0c-1.4,0-2.9,0-4.3,0C21.4,7,21.4,5.6,21.4,4.1
		L21.4,4.1z"/>
	<path d="M34.3,8.5c0-1.4,0-2.8,0-4.2c0-0.1,0-0.1,0.1-0.1c1.4,0,2.8,0,4.2,0l0,0c0,1.4,0,2.9,0,4.3C37.2,8.4,35.8,8.4,34.3,8.5
		L34.3,8.5z"/>
	<path class="st3" d="M38.6,8.4c0-1.4,0-2.9,0-4.3c1.4,0,2.7,0,4.1,0c0.1,0,0.1,0,0.2,0c0,1.4,0,2.9,0,4.3
		C41.5,8.5,40.1,8.5,38.6,8.4L38.6,8.4z"/>
	<path class="st2" d="M47.2,4.1c1.4,0,2.9,0,4.3,0c0,1.4,0,2.9,0,4.3l0,0c-1.4,0-2.9,0-4.3,0C47.2,7,47.2,5.6,47.2,4.1z"/>
	<path class="st0" d="M47.2,4.1c0,1.4,0,2.9,0,4.3l0,0c-1.4,0-2.9,0-4.3,0l0,0c0-1.4,0-2.9,0-4.3C44.4,4.1,45.8,4.1,47.2,4.1z"/>
	<path class="st3" d="M51.6,8.5c0-1.4,0-2.9,0-4.3c1.2,0,2.4,0,3.7,0c0.2,0,0.4,0,0.6,0c0,1.4,0,2.9,0,4.3C54.4,8.5,53,8.5,51.6,8.5
		z"/>
	<path class="st0" d="M12.8,4.1c1.4,0,2.9,0,4.3,0c0,1.4,0,2.9,0,4.3c-1.4,0-2.9,0-4.3,0l0,0C12.8,7,12.8,5.6,12.8,4.1z"/>
	<path class="st2" d="M12.8,4.1c0,1.4,0,2.9,0,4.3c-1.4,0-2.9,0-4.3,0l0,0c0-1.4,0-2.9,0-4.3C9.9,4.1,11.3,4.1,12.8,4.1z"/>
	<path class="st3" d="M8.4,4.1c0,1.4,0,2.9,0,4.3c-1.4,0-2.9,0-4.3,0c0-1.4,0-2.9,0-4.3c1.4,0,2.7,0,4.1,0C8.3,4.1,8.4,4.1,8.4,4.1z
		"/>
	<path class="st3" d="M17.1,8.5c0-1.4,0-2.9,0-4.3c1.2,0,2.4,0,3.7,0c0.2,0,0.4,0,0.6,0c0,1.4,0,2.9,0,4.3l0,0
		C19.9,8.4,18.5,8.4,17.1,8.5L17.1,8.5z"/>
	<path class="st4" d="M21.4,51.4c-1.4,0-2.9,0-4.3,0c-1.4,0-2.9,0-4.3,0c0-2.8,0-5.6,0-8.4c0-0.1,0-0.2,0-0.2c1.4,0,2.9,0,4.3,0l0,0
		c0,1.4,0,2.8,0,4.2c0,0.1,0,0.1,0.1,0.1c1.4,0,2.8,0,4.2,0l0,0C21.4,48.6,21.4,50,21.4,51.4L21.4,51.4z"/>
	<path class="st1" d="M17.1,42.8c-1.4,0-2.9,0-4.3,0c0-1.4,0-2.9,0-4.3c1.4,0,2.7,0,4.1,0c0.1,0,0.1,0,0.2,0
		C17.1,40,17.1,41.4,17.1,42.8z"/>
	<path class="st4" d="M47.2,51.4c-1.4,0-2.9,0-4.3,0c-1.4,0-2.9,0-4.3,0l0,0c0-1.4,0-2.8,0-4.3l0,0c1.4,0,2.8,0,4.2,0
		c0.1,0,0.1,0,0.1-0.1c0-1.4,0-2.8,0-4.2l0,0c1.4,0,2.9,0,4.3,0c0,0.1,0,0.2,0,0.2C47.2,45.9,47.2,48.7,47.2,51.4z"/>
	<path class="st1" d="M47.2,42.8c-1.4,0-2.9,0-4.3,0c0-1.4,0-2.8,0-4.3c1.1,0,2.2,0,3.3,0c0.3,0,0.7,0,1,0
		C47.2,40,47.2,41.4,47.2,42.8z"/>
	<path class="st0" d="M25.7,47.2c2.9,0,5.7,0,8.6,0c0,1.4,0,2.9,0,4.3l0,0c-2.9,0-5.7,0-8.6,0l0,0C25.7,50,25.7,48.6,25.7,47.2z"/>
	<path class="st1" d="M25.7,47.2c0,1.4,0,2.9,0,4.3c-1.4,0-2.7,0-4.1,0c-0.1,0-0.2,0-0.2,0c0-1.4,0-2.8,0-4.3c0.2,0,0.4,0,0.7,0
		C23.3,47.2,24.5,47.2,25.7,47.2L25.7,47.2z"/>
	<path class="st4" d="M17.1,17.1c0,1.3,0,2.7,0,4c0,0.2-0.1,0.2-0.2,0.2c-1.3,0-2.6,0-3.9,0c-0.1,0-0.1,0-0.2,0c0-1.4,0-2.8,0-4.2
		c0,0,0,0,0-0.1l0,0c0.1,0,0.1,0,0.2,0C14.4,17.1,15.7,17.1,17.1,17.1z"/>
	<path class="st4" d="M47.2,21.3c-0.1,0-0.3,0-0.4,0c-1.2,0-2.4,0-3.6,0c-0.2,0-0.2,0-0.2-0.2c0-1.3,0-2.7,0-4c1.1,0,2.2,0,3.2,0
		c0.3,0,0.7,0,1,0l0,0c0,0.2,0,0.4,0,0.6C47.2,18.9,47.2,20.1,47.2,21.3z"/>
	<path class="st1" d="M34.3,51.4c0-1.4,0-2.9,0-4.3l0,0c0.1,0,0.2,0,0.3,0c1.3,0,2.7,0,4,0c0,1.4,0,2.8,0,4.3c-1.2,0-2.4,0-3.6,0
		C34.8,51.4,34.6,51.4,34.3,51.4z"/>
	<path class="st3" d="M17.1,17.1c-1.4,0-2.7,0-4.1,0c-0.1,0-0.1,0-0.2,0c0-1.4,0-2.9,0-4.3l0,0c0.1,0,0.2,0,0.3,0c1.4,0,2.7,0,4.1,0
		C17.1,14.2,17.1,15.6,17.1,17.1C17.1,17.1,17.1,17.1,17.1,17.1z"/>
	<path class="st3" d="M8.4,8.5c1.4,0,2.9,0,4.3,0l0,0c0,0.5,0,1.1,0,1.6c0,0.9,0,1.8,0,2.6l0,0c-1.4,0-2.9,0-4.3,0
		C8.4,11.3,8.4,9.9,8.4,8.5z"/>
	<path class="st3" d="M47.2,17.1c-0.3,0-0.7,0-1,0c-1.1,0-2.2,0-3.2,0c0,0,0,0,0,0c0-1.4,0-2.9,0-4.3l0,0c0.5,0,1.1,0,1.6,0
		c0.9,0,1.8,0,2.6,0l0,0C47.2,14.2,47.2,15.6,47.2,17.1z"/>
	<path class="st3" d="M47.2,8.4c1.4,0,2.9,0,4.3,0c0,1.4,0,2.9,0,4.3c-1.4,0-2.9,0-4.3,0c0,0,0,0,0,0C47.2,11.3,47.2,9.9,47.2,8.4
		L47.2,8.4z"/>
	<path class="st3" d="M34.3,30c0,1.1,0,2.1,0,3.2c0,0.3,0,0.6,0,0.9c0,0.1,0,0.1-0.1,0.1c0,0,0,0-0.1,0c-2.7,0-5.5,0-8.2,0
		c-0.2,0-0.2,0-0.2-0.2c0-1.3,0-2.6,0-3.9c0-0.1,0-0.1,0-0.2l0,0c0.6,0,1.2,0,1.9,0c2.2,0,4.3,0,6.5,0C34.2,30,34.3,30,34.3,30
		L34.3,30z"/>
	<path class="st4" d="M25.7,47.2c-1.2,0-2.4,0-3.7,0c-0.2,0-0.4,0-0.7,0l0,0c0-1.4,0-2.9,0-4.3l0,0c1.4,0,2.8,0,4.2,0
		c0.1,0,0.2,0,0.2,0.2C25.7,44.4,25.7,45.8,25.7,47.2z"/>
	<path class="st2" d="M25.7,30c-1.4,0-2.8,0-4.1,0c-0.2,0-0.2,0-0.2-0.2c0-1.3,0-2.6,0-3.9c0-0.1,0-0.2,0.2-0.2c1.3,0,2.7,0,4,0
		c0.1,0,0.2,0,0.2,0.2C25.7,27.2,25.7,28.6,25.7,30C25.7,30,25.7,30,25.7,30z"/>
	<path class="st2" d="M42.9,12.7c0,1.4,0,2.9,0,4.3c-1.4,0-2.8,0-4.2,0c-0.2,0-0.1-0.1-0.1-0.2c0-1.4,0-2.8,0-4.1l0,0
		C40.1,12.7,41.5,12.7,42.9,12.7z"/>
	<path class="st2" d="M17.1,17c0-1.4,0-2.9,0-4.3l0,0c1.4,0,2.9,0,4.3,0l0,0c0,1.4,0,2.8,0,4.1c0,0.2,0,0.2-0.2,0.2
		C19.8,17,18.5,17,17.1,17z"/>
	<path class="st2" d="M34.3,30c0-1.4,0-2.8,0-4.1c0-0.1,0-0.2,0.2-0.2c1.3,0,2.6,0,3.9,0c0.1,0,0.2,0,0.2,0.2c0,1.3,0,2.6,0,4
		c0,0.2-0.1,0.2-0.2,0.2C37.1,30,35.7,30,34.3,30C34.3,30,34.3,30,34.3,30z"/>
	<path class="st3" d="M21.4,8.4c1.4,0,2.9,0,4.3,0c0,1.4,0,2.7,0,4.1c0,0.2,0,0.2-0.2,0.2c-1.4,0-2.8,0-4.1,0l0,0
		C21.4,11.3,21.4,9.9,21.4,8.4L21.4,8.4z"/>
	<path class="st4" d="M42.9,38.6c0,1.4,0,2.8,0,4.3l0,0c-1.4,0-2.9,0-4.3,0l0,0c0-1.4,0-2.8,0-4.1c0-0.1,0-0.1,0.1-0.1
		C40.1,38.6,41.5,38.6,42.9,38.6z"/>
	<path class="st4" d="M38.6,47.2c-1.3,0-2.7,0-4,0c-0.1,0-0.2,0-0.3,0c0-1.4,0-2.7,0-4.1c0-0.2,0-0.2,0.2-0.2c1.4,0,2.7,0,4.1,0l0,0
		C38.6,44.3,38.6,45.7,38.6,47.2L38.6,47.2z"/>
	<path class="st4" d="M17.1,42.8c0-1.4,0-2.8,0-4.3c1.4,0,2.8,0,4.2,0c0.2,0,0.1,0.1,0.1,0.2c0,1.1,0,2.1,0,3.2c0,0.3,0,0.6,0,0.9
		l0,0C20,42.8,18.5,42.8,17.1,42.8L17.1,42.8z"/>
	<path class="st3" d="M34.3,8.4c1.4,0,2.9,0,4.3,0l0,0c0,1.4,0,2.9,0,4.3l0,0c-1.4,0-2.7,0-4.1,0c-0.2,0-0.2,0-0.2-0.2
		C34.3,11.2,34.3,9.8,34.3,8.4z"/>
	<path class="st0" d="M38.6,12.7c0-1.4,0-2.9,0-4.3c1.4,0,2.9,0,4.3,0l0,0c0,1.4,0,2.9,0,4.3l0,0C41.5,12.7,40.1,12.7,38.6,12.7z"/>
	<path class="st2" d="M42.9,12.7c0-1.4,0-2.9,0-4.3c1.4,0,2.9,0,4.3,0c0,1.4,0,2.9,0,4.3c-0.9,0-1.8,0-2.6,0
		C44,12.7,43.5,12.7,42.9,12.7z"/>
	<path class="st2" d="M12.8,12.7c0-0.9,0-1.8,0-2.6c0-0.5,0-1.1,0-1.6c1.4,0,2.9,0,4.3,0l0,0c0,1.4,0,2.9,0,4.3l0,0
		c-1.4,0-2.7,0-4.1,0C12.9,12.7,12.9,12.7,12.8,12.7z"/>
	<path class="st0" d="M17.1,12.7c0-1.4,0-2.9,0-4.3c1.4,0,2.9,0,4.3,0c0,1.4,0,2.9,0,4.3C19.9,12.7,18.5,12.7,17.1,12.7z"/>
	<path d="M17.1,42.8c1.4,0,2.9,0,4.3,0c0,1.4,0,2.9,0,4.3c-1.4,0-2.8,0-4.2,0c-0.1,0-0.1,0-0.1-0.1C17.1,45.6,17.1,44.2,17.1,42.8z"
		/>
	<path d="M38.6,47.2c0-1.4,0-2.9,0-4.3c1.4,0,2.9,0,4.3,0c0,1.4,0,2.8,0,4.2c0,0.1,0,0.1-0.1,0.1C41.4,47.2,40,47.2,38.6,47.2z"/>
</g>
</svg>
