<?xml version="1.0" encoding="utf-8"?>
<!-- Generator: Adobe Illustrator 25.4.0, SVG Export Plug-In . SVG Version: 6.00 Build 0)  -->
<svg version="1.1" id="Layer_1" xmlns="http://www.w3.org/2000/svg" xmlns:xlink="http://www.w3.org/1999/xlink" x="0px" y="0px"
	 viewBox="0 0 60 60" style="enable-background:new 0 0 60 60;" xml:space="preserve">
<style type="text/css">
	.st0{fill:#FEA004;}
	.st1{fill:#100901;}
	.st2{fill:#B8C2FE;}
	.st3{fill:#0058F7;}
	.st4{fill:#36FEDE;}
</style>
<g>
	<g>
		<path d="M10.8,3.2c10.1,0,20.3,0,30.4,0c0,1.3,0,2.5,0,3.8c-0.2,0-0.4,0-0.7,0c-1.1,0-2.1,0-3.2,0c-0.1,0-0.1,0-0.2,0
			C33,7,28.8,7,24.6,7c-0.8,0-1.5,0-2.3,0c-0.3,0-0.6,0-0.9,0c-2.2,0-4.5,0-6.7,0c-0.1,0-0.1,0-0.2,0c-1.2,0-2.4,0-3.6,0
			C10.8,5.7,10.8,4.4,10.8,3.2z"/>
		<path d="M3.4,37.4c0-7.6,0-15.2,0-22.8c1.2,0,2.5,0,3.7,0c0,0,0,0,0,0c0,3.7,0,7.5,0,11.2c0,0.1,0,0.1,0.2,0.1c1.2,0,2.4,0,3.6,0
			c0,1.3,0,2.5,0,3.8c-1.2,0-2.4,0-3.6,0c-0.1,0-0.2,0-0.2,0.1c0,1.2,0,2.4,0,3.6c0,1.3,0,2.5,0,3.8C5.8,37.4,4.6,37.4,3.4,37.4z"/>
		<path d="M56.3,14.6c0,7.6,0,15.2,0,22.8c-1.2,0-2.4,0-3.7,0c0-1.3,0-2.5,0-3.8c0-1.2,0-2.4,0-3.6c0-0.1,0-0.2-0.2-0.2
			c-1.2,0-2.4,0-3.6,0c0-1.3,0-2.5,0-3.8c1.2,0,2.4,0,3.6,0c0.2,0,0.2,0,0.2-0.2c0-3.7,0-7.4,0-11.1c0-0.1,0-0.1,0-0.2
			C53.9,14.6,55.1,14.6,56.3,14.6z"/>
		<path class="st0" d="M33.7,56.3c-2.5,0-5.1,0-7.6,0c0-1.2,0-2.4,0-3.5c0-0.1,0-0.2-0.2-0.2c-1.2,0-2.4,0-3.6,0c0-1.3,0-2.5,0-3.8
			c0.4,0,0.7,0,1.1,0c0.9,0,1.8,0,2.7,0c0.1,0,0.1,0,0.2,0c2.4,0,4.8,0,7.2,0c0.1,0,0.1,0,0.2,0c0.1,0,0.1,0,0.2,0
			c1.2,0,2.4,0,3.6,0c0,1.3,0,2.5,0,3.8c-1.2,0-2.4,0-3.6,0c-0.1,0-0.2,0-0.2,0.2C33.7,53.9,33.7,55.1,33.7,56.3z"/>
		<path class="st0" d="M3.4,37.4c1.2,0,2.5,0,3.7,0c0.1,0,0.1,0,0.2,0c1.2,0,2.4,0,3.6,0c0,0.1,0,0.1,0,0.2c0,1.2,0,2.4,0,3.6
			c-1.2,0-2.4,0-3.6,0c-0.1,0-0.2,0-0.2,0.2c0,1.2,0,2.3,0,3.5c0,0.1,0,0.2,0.2,0.2c1.2,0,2.4,0,3.6,0c0,1.3,0,2.5,0,3.8l0,0
			c-1.2,0-2.4,0-3.6,0c-0.1,0-0.2,0-0.2,0.2c0,1.2,0,2.4,0,3.7l0,0c-1.2,0-2.5,0-3.7,0C3.4,47.5,3.4,42.5,3.4,37.4z"/>
		<path class="st0" d="M52.6,37.4c1.2,0,2.4,0,3.7,0c0,5.1,0,10.1,0,15.2c-1.2,0-2.4,0-3.7,0l0,0c0-1.2,0-2.4,0-3.7
			c0-0.1,0-0.2-0.2-0.2c-1.2,0-2.4,0-3.6,0l0,0c0-1.3,0-2.5,0-3.8c1.2,0,2.4,0,3.6,0c0.1,0,0.2,0,0.2-0.1c0-1.2,0-2.4,0-3.5
			c0-0.1,0-0.1-0.1-0.1c-1.2,0-2.4,0-3.6,0c0-0.2,0-0.3,0-0.5c0-1.1,0-2.2,0-3.3c0.2,0,0.4,0,0.6,0C50.5,37.4,51.6,37.4,52.6,37.4z"
			/>
		<path class="st0" d="M14.7,56.3c-2.5,0-5.1,0-7.6,0c0-1.2,0-2.5,0-3.7l0,0c1.2,0,2.4,0,3.6,0c0.1,0,0.2,0,0.2-0.2
			c0-1.2,0-2.4,0-3.7l0,0c1.2,0,2.5,0,3.7,0c0.1,0,0.1,0,0.1-0.1c0-1.2,0-2.4,0-3.7c1.3,0,2.5,0,3.8,0c0,1.3,0,2.5,0,3.8
			c0,0.1,0,0.1,0,0.2c0,1.2,0,2.4,0,3.6c-1.2,0-2.4,0-3.6,0c-0.1,0-0.2,0-0.2,0.2C14.7,53.9,14.7,55.1,14.7,56.3z"/>
		<path class="st0" d="M52.6,56.3c-2.5,0-5.1,0-7.6,0c0-1.2,0-2.4,0-3.5c0-0.1,0-0.2-0.2-0.2c-1.2,0-2.4,0-3.6,0c0-0.3,0-0.6,0-0.9
			c0-1,0-2,0-2.9c0-1.3,0-2.5,0-3.8c1.3,0,2.5,0,3.8,0c0,1.2,0,2.4,0,3.6c0,0.1,0,0.2,0.2,0.2c1.2,0,2.4,0,3.7,0l0,0
			c0,1.2,0,2.4,0,3.7c0,0.1,0,0.2,0.2,0.2c1.2,0,2.4,0,3.6,0l0,0C52.6,53.8,52.6,55.1,52.6,56.3z"/>
		<path class="st1" d="M7.1,14.6c-1.2,0-2.5,0-3.7,0c0-2.5,0-5.1,0-7.6c0.3,0,0.6,0,0.8,0c0.9,0,1.9,0,2.8,0l0,0c0,1.2,0,2.5,0,3.7
			c0,0.1,0,0.1,0.1,0.1c1.2,0,2.5,0,3.7,0c0.1,0,0.1,0,0.2,0c1.2,0,2.4,0,3.6,0l0,0c0,1.3,0,2.5,0,3.8c-0.1,0-0.1,0-0.2,0
			c-1.2,0-2.4,0-3.6,0C9.6,14.6,8.3,14.6,7.1,14.6z"/>
		<path class="st1" d="M56.3,14.6c-1.2,0-2.4,0-3.7,0c-1.3,0-2.5,0-3.8,0c-0.5,0-0.9,0-1.4,0c-0.8,0-1.6,0-2.4,0c0-1.3,0-2.5,0-3.8
			l0,0c0.2,0,0.4,0,0.6,0c1.1,0,2.2,0,3.3,0c1.2,0,2.5,0,3.7,0c0.1,0,0.1,0,0.1-0.1c0-1.2,0-2.5,0-3.7l0,0c0.1,0,0.1,0,0.2,0
			c1.1,0,2.3,0,3.4,0C56.3,9.5,56.3,12,56.3,14.6z"/>
		<path d="M14.7,56.3c0-1.2,0-2.4,0-3.5c0-0.1,0-0.2,0.2-0.2c1.2,0,2.4,0,3.6,0c1.3,0,2.5,0,3.8,0c1.2,0,2.4,0,3.6,0
			c0.1,0,0.2,0,0.2,0.2c0,1.2,0,2.4,0,3.5C22.3,56.3,18.5,56.3,14.7,56.3z"/>
		<path d="M7,60c0-1.2,0-2.4,0-3.5c0-0.1,0-0.2,0.1-0.2c0.8,0,1.6,0,2.4,0c0.8,0,1.7,0,2.5,0c0.8,0,1.6,0,2.4,0c0.1,0,0.1,0,0.1,0.2
			c0,1.2,0,2.4,0,3.5C12.1,60,9.6,60,7,60z"/>
		<path d="M26,60c0-1.2,0-2.4,0-3.5c0-0.1,0-0.2,0.1-0.2c0.8,0,1.6,0,2.4,0c0.8,0,1.7,0,2.5,0c0.8,0,1.6,0,2.4,0
			c0.1,0,0.1,0,0.1,0.2c0,1.2,0,2.4,0,3.5C31.1,60,28.6,60,26,60z"/>
		<path d="M45,60c0-1.2,0-2.4,0-3.5c0-0.1,0-0.2,0.1-0.2c0.8,0,1.6,0,2.4,0c0.8,0,1.7,0,2.5,0c0.8,0,1.6,0,2.4,0
			c0.1,0,0.1,0,0.1,0.2c0,1.2,0,2.4,0,3.5C50.1,60,47.6,60,45,60z"/>
		<path d="M41.3,52.6c1.2,0,2.4,0,3.6,0c0.1,0,0.2,0,0.2,0.2c0,1.2,0,2.4,0,3.5c-3.8,0-7.6,0-11.4,0c0-1.2,0-2.4,0-3.5
			c0-0.1,0-0.2,0.2-0.2c1.2,0,2.4,0,3.6,0C38.7,52.6,40,52.6,41.3,52.6z"/>
		<path d="M45,3.2c1.3,0,2.5,0,3.8,0c0,1.3,0,2.5,0,3.8c-0.2,0-0.4,0-0.5,0c-1.1,0-2.2,0-3.3,0l0,0C45,5.7,45,4.4,45,3.2z"/>
		<path class="st1" d="M48.9,7c0-1.3,0-2.5,0-3.8c1.3,0,2.5,0,3.8,0c0,0.4,0,0.7,0,1.1c0,0.9,0,1.8,0,2.7l0,0C51.4,7,50.1,7,48.9,7
			L48.9,7z"/>
		<path class="st1" d="M45,3.2c0,1.3,0,2.5,0,3.8c-0.4,0-0.7,0-1.1,0c-0.9,0-1.8,0-2.7,0c0-1.3,0-2.5,0-3.8
			C42.5,3.2,43.8,3.2,45,3.2z"/>
		<path class="st1" d="M10.8,3.2c0,1.3,0,2.5,0,3.8l0,0C9.6,7,8.3,7,7.1,7l0,0c0-0.1,0-0.1,0-0.2c0-1.2,0-2.4,0-3.6
			C8.3,3.2,9.6,3.2,10.8,3.2z"/>
		<path d="M7.1,3.2c0,1.2,0,2.4,0,3.6c0,0.1,0,0.1,0,0.2C6.1,7,5.2,7,4.2,7C3.9,7,3.7,7,3.4,7c0-1.2,0-2.4,0-3.7
			c0-0.1,0-0.1,0.1-0.1C4.7,3.2,5.9,3.2,7.1,3.2z"/>
		<path d="M52.6,7c0-0.9,0-1.8,0-2.7c0-0.4,0-0.7,0-1.1c1.2,0,2.4,0,3.5,0c0.1,0,0.1,0,0.1,0.1c0,1.2,0,2.4,0,3.7
			c-1.1,0-2.3,0-3.4,0C52.8,7,52.7,7,52.6,7z"/>
		<path d="M7.1,52.6c0,1.2,0,2.5,0,3.7c-1.2,0-2.4,0-3.6,0c-0.1,0-0.1,0-0.1-0.1c0-1.2,0-2.4,0-3.6C4.6,52.6,5.8,52.6,7.1,52.6z"/>
		<path d="M52.6,56.3c0-1.2,0-2.5,0-3.7c1.2,0,2.4,0,3.7,0c0,1.2,0,2.4,0,3.6c0,0.1,0,0.1-0.1,0.1C55,56.3,53.8,56.3,52.6,56.3z"/>
		<path class="st2" d="M22.3,7c0.8,0,1.5,0,2.3,0c4.2,0,8.5,0,12.7,0c0.1,0,0.1,0,0.2,0c0,1.3,0,2.5,0,3.8c-1.3,0-2.5,0-3.8,0
			c-1.2,0-2.3,0-3.5,0c-1.4,0-2.7,0-4.1,0c-1.3,0-2.5,0-3.8,0C22.3,9.5,22.3,8.2,22.3,7z"/>
		<path class="st3" d="M22.3,7c0,1.3,0,2.5,0,3.8l0,0c-1.3,0-2.5,0-3.8,0c-1.3,0-2.5,0-3.8,0l0,0c0-1.3,0-2.5,0-3.8
			c2.2,0,4.5,0,6.7,0C21.7,7,22,7,22.3,7z"/>
		<path class="st3" d="M37.4,10.8c0-1.3,0-2.5,0-3.8c1.1,0,2.1,0,3.2,0c0.2,0,0.4,0,0.7,0c0.9,0,1.8,0,2.7,0c0.4,0,0.7,0,1.1,0l0,0
			c0,1.3,0,2.5,0,3.8l0,0c-1.3,0-2.5,0-3.8,0C40,10.8,38.7,10.8,37.4,10.8L37.4,10.8z"/>
		<path class="st0" d="M14.7,7c0,1.3,0,2.5,0,3.8c-1.2,0-2.4,0-3.6,0c-0.1,0-0.1,0-0.2,0c0-1.3,0-2.5,0-3.8l0,0c1.2,0,2.4,0,3.6,0
			C14.5,7,14.6,7,14.7,7z"/>
		<path class="st0" d="M7.1,14.6c1.3,0,2.5,0,3.8,0c0,0.1,0,0.3,0,0.4c0,1.1,0,2.3,0,3.4c0,0,0,0,0,0.1c0,2.5,0,5,0,7.5l0,0
			c-1.2,0-2.4,0-3.6,0c-0.1,0-0.2,0-0.2-0.1C7.1,22.1,7.1,18.4,7.1,14.6C7.1,14.6,7.1,14.6,7.1,14.6z"/>
		<path class="st0" d="M10.8,29.8c0-1.3,0-2.5,0-3.8l0,0c1.3,0,2.5,0,3.8,0c0,1.3,0,2.5,0,3.8C13.4,29.8,12.1,29.8,10.8,29.8
			L10.8,29.8z"/>
		<path class="st1" d="M10.8,37.4c-1.2,0-2.4,0-3.6,0c-0.1,0-0.1,0-0.2,0c0-1.3,0-2.5,0-3.8c1.3,0,2.5,0,3.8,0c0,0,0,0,0,0
			C10.8,34.8,10.8,36.1,10.8,37.4C10.8,37.4,10.8,37.4,10.8,37.4z"/>
		<path class="st0" d="M10.8,33.6c-1.3,0-2.5,0-3.8,0c0-1.2,0-2.4,0-3.6c0-0.1,0.1-0.1,0.2-0.1c1.2,0,2.4,0,3.6,0l0,0
			c0,0.2,0,0.3,0,0.5C10.8,31.4,10.8,32.5,10.8,33.6z"/>
		<path class="st0" d="M48.9,14.6c1.3,0,2.5,0,3.8,0c0,0.1,0,0.1,0,0.2c0,3.7,0,7.4,0,11.1c0,0.1,0,0.2-0.2,0.2c-1.2,0-2.4,0-3.6,0
			l0,0c0-2.5,0-5,0-7.5c0,0,0,0,0-0.1c0-0.1,0-0.1,0-0.2C48.9,17,48.9,15.8,48.9,14.6z"/>
		<path class="st0" d="M48.9,26c0,1.3,0,2.5,0,3.8l0,0c-1.3,0-2.5,0-3.8,0c0-1.3,0-2.5,0-3.8C46.3,26,47.6,26,48.9,26L48.9,26z"/>
		<path class="st1" d="M52.6,37.4c-1.1,0-2.1,0-3.2,0c-0.2,0-0.4,0-0.6,0c0,0,0,0,0,0c0-1.3,0-2.5,0-3.8c0,0,0,0,0,0
			c1.3,0,2.5,0,3.8,0C52.6,34.8,52.6,36.1,52.6,37.4z"/>
		<path class="st0" d="M52.6,33.6c-1.3,0-2.5,0-3.8,0c0-0.1,0-0.1,0-0.2c0-1.2,0-2.4,0-3.6l0,0c1.2,0,2.4,0,3.6,0
			c0.1,0,0.2,0,0.2,0.2C52.6,31.2,52.6,32.4,52.6,33.6z"/>
		<path class="st2" d="M33.7,48.8c-0.1,0-0.1,0-0.2,0c-2.4,0-4.8,0-7.2,0c-0.1,0-0.1,0-0.2,0c0-1.3,0-2.5,0-3.8c2.5,0,5.1,0,7.6,0
			C33.7,46.2,33.7,47.5,33.7,48.8z"/>
		<path class="st1" d="M41.3,52.6c-1.3,0-2.5,0-3.8,0c0-1.3,0-2.5,0-3.8l0,0c1.3,0,2.5,0,3.8,0c0,1,0,2,0,2.9
			C41.3,52,41.3,52.3,41.3,52.6z"/>
		<path class="st1" d="M22.3,52.6c-1.3,0-2.5,0-3.8,0c0-1.2,0-2.4,0-3.6c0-0.1,0-0.1,0-0.2c1.3,0,2.5,0,3.8,0l0,0
			C22.3,50,22.3,51.3,22.3,52.6z"/>
		<path class="st1" d="M26.1,45c0,1.3,0,2.5,0,3.8c-0.9,0-1.8,0-2.7,0c-0.4,0-0.7,0-1.1,0l0,0c0-1.3,0-2.5,0-3.8
			C23.5,45,24.8,45,26.1,45L26.1,45z"/>
		<path class="st1" d="M33.7,48.8c0-1.3,0-2.5,0-3.8l0,0c1.3,0,2.5,0,3.8,0c0,1.3,0,2.5,0,3.8l0,0c-1.2,0-2.4,0-3.6,0
			C33.8,48.8,33.7,48.8,33.7,48.8z"/>
		<path class="st2" d="M10.8,41.2c0-1.2,0-2.4,0-3.6c0-0.1,0-0.1,0-0.2c0,0,0,0,0,0c0.1,0,0.1,0,0.2,0c1.2,0,2.4,0,3.6,0
			c0,1.3,0,2.5,0,3.8l0,0C13.4,41.2,12.1,41.2,10.8,41.2L10.8,41.2z"/>
		<path class="st3" d="M10.8,48.8c0,1.2,0,2.4,0,3.7c0,0.1,0,0.2-0.2,0.2c-1.2,0-2.4,0-3.6,0c0-1.2,0-2.4,0-3.7c0-0.1,0-0.2,0.2-0.2
			C8.4,48.8,9.6,48.8,10.8,48.8z"/>
		<path class="st2" d="M10.8,45c-1.2,0-2.4,0-3.6,0c-0.1,0-0.2,0-0.2-0.2c0-1.2,0-2.3,0-3.5c0-0.1,0-0.2,0.2-0.2c1.2,0,2.4,0,3.6,0
			l0,0C10.8,42.4,10.8,43.7,10.8,45L10.8,45z"/>
		<path class="st3" d="M14.7,45c0,1.2,0,2.4,0,3.7c0,0.1-0.1,0.1-0.1,0.1c-1.2,0-2.5,0-3.7,0c0-1.3,0-2.5,0-3.8c0,0,0,0,0,0
			C12.1,45,13.4,45,14.7,45L14.7,45z"/>
		<path class="st3" d="M52.6,52.6c-1.2,0-2.4,0-3.6,0c-0.1,0-0.2,0-0.2-0.2c0-1.2,0-2.4,0-3.7c1.2,0,2.4,0,3.6,0
			c0.1,0,0.2,0,0.2,0.2C52.6,50.1,52.6,51.4,52.6,52.6z"/>
		<path class="st3" d="M48.9,48.8c-1.2,0-2.4,0-3.7,0c-0.1,0-0.2,0-0.2-0.2c0-1.2,0-2.4,0-3.6l0,0c1.3,0,2.5,0,3.8,0l0,0
			C48.9,46.2,48.9,47.5,48.9,48.8z"/>
		<path class="st2" d="M48.9,37.4c0,1.1,0,2.2,0,3.3c0,0.2,0,0.3,0,0.5l0,0c-1.3,0-2.5,0-3.8,0l0,0c0-1.3,0-2.5,0-3.8
			c0.5,0,1,0,1.5,0C47.3,37.4,48.1,37.4,48.9,37.4C48.9,37.4,48.9,37.4,48.9,37.4z"/>
		<path class="st2" d="M48.9,41.2c1.2,0,2.4,0,3.6,0c0.1,0,0.1,0,0.1,0.1c0,1.2,0,2.4,0,3.5c0,0.1-0.1,0.1-0.2,0.1
			c-1.2,0-2.4,0-3.6,0l0,0C48.9,43.7,48.9,42.4,48.9,41.2L48.9,41.2z"/>
		<path class="st2" d="M18.5,45c-1.3,0-2.5,0-3.8,0l0,0c0-1.3,0-2.5,0-3.8l0,0c1.3,0,2.5,0,3.8,0C18.5,42.4,18.5,43.7,18.5,45
			L18.5,45z"/>
		<path class="st3" d="M22.3,45c0,1.3,0,2.5,0,3.8c-1.3,0-2.5,0-3.8,0c0-1.3,0-2.5,0-3.8l0,0C19.7,45,21,45,22.3,45L22.3,45z"/>
		<path class="st3" d="M37.4,48.8c0-1.3,0-2.5,0-3.8l0,0c1.3,0,2.5,0,3.8,0l0,0c0,1.3,0,2.5,0,3.8C40,48.8,38.7,48.8,37.4,48.8z"/>
		<path class="st2" d="M45,45c-1.3,0-2.5,0-3.8,0l0,0c0-1.3,0-2.5,0-3.8c1.3,0,2.5,0,3.8,0l0,0C45,42.4,45,43.7,45,45L45,45z"/>
		<path class="st3" d="M10.8,18.4c0-1.1,0-2.3,0-3.4c0-0.1,0-0.3,0-0.4c1.2,0,2.4,0,3.6,0c0.1,0,0.1,0,0.2,0l0,0c0,1.3,0,2.5,0,3.8
			c-0.1,0-0.1,0-0.2,0C13.3,18.4,12.1,18.4,10.8,18.4z"/>
		<path class="st2" d="M10.8,7c0,1.3,0,2.5,0,3.8c-1.2,0-2.5,0-3.7,0c-0.1,0-0.1,0-0.1-0.1c0-1.2,0-2.5,0-3.7C8.3,7,9.6,7,10.8,7z"
			/>
		<path class="st0" d="M14.7,10.8c1.3,0,2.5,0,3.8,0c0,0.1,0,0.3,0,0.4c0,1.1,0,2.3,0,3.4c-1.3,0-2.5,0-3.8,0l0,0
			C14.7,13.3,14.7,12,14.7,10.8z"/>
		<path class="st3" d="M48.9,14.6c0,1.2,0,2.4,0,3.6c0,0.1,0,0.1,0,0.2c-0.2,0-0.3,0-0.5,0c-1.1,0-2.2,0-3.3,0c0-1.3,0-2.5,0-3.8
			l0,0c0.8,0,1.6,0,2.4,0C47.9,14.6,48.4,14.6,48.9,14.6z"/>
		<path class="st0" d="M45,10.8c0-1.3,0-2.5,0-3.8c1.1,0,2.2,0,3.3,0c0.2,0,0.4,0,0.5,0l0,0c0,1.3,0,2.5,0,3.8c-1.1,0-2.2,0-3.3,0
			C45.4,10.8,45.2,10.8,45,10.8z"/>
		<path class="st2" d="M48.9,10.8c0-1.3,0-2.5,0-3.8c1.3,0,2.5,0,3.8,0c0,1.2,0,2.5,0,3.7c0,0.1,0,0.1-0.1,0.1
			C51.3,10.8,50.1,10.8,48.9,10.8z"/>
		<path class="st0" d="M41.3,10.8c1.3,0,2.5,0,3.8,0c0,1.3,0,2.5,0,3.8l0,0c-1.3,0-2.5,0-3.8,0c0-0.1,0-0.2,0-0.2
			C41.3,13.2,41.3,12,41.3,10.8z"/>
		<path class="st4" d="M26.1,10.8c1.4,0,2.7,0,4.1,0c1.2,0,2.3,0,3.5,0c0,1.3,0,2.5,0,3.8c-1.9,0-3.7,0-5.6,0c-0.7,0-1.3,0-2,0
			C26.1,13.3,26.1,12,26.1,10.8z"/>
		<path class="st0" d="M26.1,10.8c0,1.3,0,2.5,0,3.8c-0.1,0-0.1,0-0.2,0c-1.2,0-2.4,0-3.6,0c0-1.3,0-2.5,0-3.8l0,0
			C23.5,10.8,24.8,10.8,26.1,10.8z"/>
		<path class="st0" d="M33.7,14.6c0-1.3,0-2.5,0-3.8c1.3,0,2.5,0,3.8,0l0,0c0,1.3,0,2.5,0,3.8c-0.1,0-0.3,0-0.4,0
			C35.9,14.6,34.8,14.6,33.7,14.6z"/>
		<path class="st4" d="M22.3,10.8c0,1.3,0,2.5,0,3.8l0,0c-1.3,0-2.5,0-3.8,0l0,0c0-1.1,0-2.3,0-3.4c0-0.1,0-0.3,0-0.4
			C19.7,10.8,21,10.8,22.3,10.8z"/>
		<path class="st4" d="M37.4,14.6c0-1.3,0-2.5,0-3.8c1.3,0,2.5,0,3.8,0c0,1.2,0,2.4,0,3.6c0,0.1,0,0.2,0,0.2l0,0
			C40,14.6,38.7,14.6,37.4,14.6L37.4,14.6z"/>
		<path class="st2" d="M10.8,18.4c1.2,0,2.4,0,3.6,0c0.1,0,0.1,0,0.2,0c1.3,0,2.5,0,3.8,0c1.3,0,2.5,0,3.8,0c0.1,0,0.1,0,0.2,0
			c1.2,0,2.3,0,3.5,0c0.1,0,0.2,0,0.2,0.1c0,1.2,0,2.4,0,3.7c-1.3,0-2.5,0-3.8,0c-1.3,0-2.5,0-3.8,0c-1.2,0-2.5,0-3.7,0
			c-0.1,0-0.1,0.1-0.1,0.2c0,1.2,0,2.4,0,3.7l0,0c-1.3,0-2.5,0-3.8,0C10.8,23.5,10.8,21,10.8,18.4C10.8,18.4,10.8,18.4,10.8,18.4z"
			/>
		<path class="st2" d="M14.7,29.8c0-1.3,0-2.5,0-3.8l0,0c1.3,0,2.5,0,3.8,0c0,0.3,0,0.5,0,0.8c0,1,0,2,0,3.1
			C17.2,29.8,15.9,29.8,14.7,29.8L14.7,29.8z"/>
		<path class="st2" d="M10.8,33.6c0-1.1,0-2.2,0-3.3c0-0.2,0-0.3,0-0.5c1.3,0,2.5,0,3.8,0l0,0c0,1.3,0,2.5,0,3.8c-0.5,0-0.9,0-1.4,0
			C12.5,33.6,11.7,33.6,10.8,33.6C10.8,33.6,10.8,33.6,10.8,33.6z"/>
		<path class="st3" d="M10.8,33.6c0.8,0,1.6,0,2.4,0c0.5,0,0.9,0,1.4,0l0,0c0,1.3,0,2.5,0,3.8l0,0c-1.2,0-2.4,0-3.6,0
			c-0.1,0-0.1,0-0.2,0C10.8,36.1,10.8,34.8,10.8,33.6z"/>
		<path class="st2" d="M45,18.4c1.1,0,2.2,0,3.3,0c0.2,0,0.3,0,0.5,0c0,0,0,0,0,0.1c0,2.5,0,5,0,7.5c-1.3,0-2.5,0-3.8,0l0,0
			c0-1.2,0-2.4,0-3.7c0-0.1,0-0.2-0.1-0.2c-1.2,0-2.5,0-3.7,0c-0.1,0-0.1,0-0.2,0c-2.5,0-4.9,0-7.4,0c0-1.2,0-2.4,0-3.7
			c0-0.1,0-0.1,0.1-0.1c0.2,0,0.4,0,0.5,0c1,0,2.1,0,3.1,0c1.3,0,2.5,0,3.8,0C42.5,18.4,43.8,18.4,45,18.4z"/>
		<path class="st2" d="M48.9,29.8c0,1.2,0,2.4,0,3.6c0,0.1,0,0.1,0,0.2c0,0,0,0,0,0c0,0-0.1,0-0.1,0c-1.2,0-2.5,0-3.7,0
			c0-1.3,0-2.5,0-3.8l0,0C46.3,29.8,47.6,29.8,48.9,29.8z"/>
		<path class="st2" d="M45,26c0,1.3,0,2.5,0,3.8l0,0c-1.3,0-2.5,0-3.8,0c0-1.3,0-2.5,0-3.8C42.5,26,43.8,26,45,26L45,26z"/>
		<path class="st3" d="M45,33.6c1.2,0,2.5,0,3.7,0c0,0,0.1,0,0.1,0c0,1.3,0,2.5,0,3.8c-0.8,0-1.5,0-2.3,0c-0.5,0-1,0-1.5,0l0,0
			C45,36.1,45,34.8,45,33.6L45,33.6z"/>
		<path class="st0" d="M33.7,45c-2.5,0-5.1,0-7.6,0l0,0c0-1.3,0-2.5,0-3.8c2.5,0,5.1,0,7.6,0C33.7,42.4,33.7,43.7,33.7,45L33.7,45z"
			/>
		<path class="st2" d="M26.1,41.2c0,1.3,0,2.5,0,3.8c-1.3,0-2.5,0-3.8,0l0,0c0-0.2,0-0.4,0-0.5c0-1.1,0-2.2,0-3.3c0-0.1,0-0.1,0-0.2
			c0-1.2,0-2.4,0-3.6l0,0c1.3,0,2.5,0,3.8,0l0,0C26.1,38.6,26.1,39.9,26.1,41.2z"/>
		<path class="st2" d="M33.7,45c0-1.3,0-2.5,0-3.8c0-1.3,0-2.5,0-3.8l0,0c1.3,0,2.5,0,3.8,0l0,0c0,0.1,0,0.3,0,0.4
			c0,1.1,0,2.2,0,3.4c0,0.1,0,0.1,0,0.2c0,1.2,0,2.4,0,3.6l0,0C36.2,45,34.9,45,33.7,45z"/>
		<path class="st0" d="M14.7,41.2c0,1.3,0,2.5,0,3.8c-1.3,0-2.5,0-3.8,0c0-1.3,0-2.5,0-3.8C12.1,41.2,13.4,41.2,14.7,41.2z"/>
		<path class="st0" d="M18.5,41.2c-1.3,0-2.5,0-3.8,0c0-1.3,0-2.5,0-3.8l0,0c1.3,0,2.5,0,3.8,0C18.5,38.7,18.5,39.9,18.5,41.2
			L18.5,41.2z"/>
		<path class="st0" d="M45,45c0-1.3,0-2.5,0-3.8c1.3,0,2.5,0,3.8,0c0,1.3,0,2.5,0,3.8C47.6,45,46.3,45,45,45z"/>
		<path class="st0" d="M45,41.2c-1.3,0-2.5,0-3.8,0l0,0c0-1.3,0-2.5,0-3.8c1.3,0,2.5,0,3.8,0l0,0C45,38.6,45,39.9,45,41.2z"/>
		<path class="st0" d="M22.2,41.2c0,1.1,0,2.2,0,3.3c0,0.2,0,0.4,0,0.5c-1.3,0-2.5,0-3.8,0c0-1.3,0-2.5,0-3.8l0,0
			C19.7,41.2,21,41.2,22.2,41.2z"/>
		<path class="st0" d="M37.4,45c0-1.2,0-2.4,0-3.6c0-0.1,0-0.1,0-0.2c1.3,0,2.5,0,3.8,0l0,0c0,1.3,0,2.5,0,3.8
			C40,45,38.7,45,37.4,45z"/>
		<path class="st4" d="M18.5,18.4c-1.3,0-2.5,0-3.8,0c0-1.3,0-2.5,0-3.8c1.3,0,2.5,0,3.8,0l0,0C18.5,15.8,18.5,17.1,18.5,18.4z"/>
		<path class="st4" d="M45,18.4c-1.3,0-2.5,0-3.8,0c0-1.3,0-2.5,0-3.8l0,0c1.3,0,2.5,0,3.8,0C45,15.8,45,17.1,45,18.4z"/>
		<path d="M37.4,18.4c-1,0-2.1,0-3.1,0c-0.2,0-0.4,0-0.5,0c-0.1,0-0.1,0-0.1,0.1c0,1.2,0,2.4,0,3.7c-2.5,0-5.1,0-7.6,0
			c0-1.2,0-2.4,0-3.7c0-0.1-0.1-0.1-0.2-0.1c-1.2,0-2.3,0-3.5,0c-0.1,0-0.1,0-0.2,0c0-1.3,0-2.5,0-3.8l0,0c1.2,0,2.4,0,3.6,0
			c0.1,0,0.1,0,0.2,0c0.7,0,1.3,0,2,0c1.9,0,3.7,0,5.6,0c1.1,0,2.2,0,3.4,0c0.1,0,0.3,0,0.4,0l0,0C37.4,15.8,37.4,17.1,37.4,18.4z"
			/>
		<path class="st0" d="M22.3,14.6c0,1.3,0,2.5,0,3.8c-1.3,0-2.5,0-3.8,0c0-1.3,0-2.5,0-3.8C19.7,14.6,21,14.6,22.3,14.6z"/>
		<path class="st0" d="M37.4,18.4c0-1.3,0-2.5,0-3.8c1.3,0,2.5,0,3.8,0c0,1.3,0,2.5,0,3.8C40,18.4,38.7,18.4,37.4,18.4z"/>
		<path class="st1" d="M26.1,22.2c2.5,0,5.1,0,7.6,0c2.5,0,4.9,0,7.4,0c0.1,0,0.1,0,0.2,0c0,1.3,0,2.5,0,3.8c0,1.3,0,2.5,0,3.8l0,0
			c-1.3,0-2.5,0-3.8,0c0-1.2,0-2.5,0-3.7c0-0.1,0-0.1-0.1-0.1c-1.2,0-2.4,0-3.5,0c-0.1,0-0.1,0-0.1,0.1c0,1.2,0,2.4,0,3.6
			c0,0.1,0,0.1,0.1,0.1c1.2,0,2.4,0,3.7,0c0,1.3,0,2.5,0,3.8l0,0c-1.2,0-2.4,0-3.6,0c-0.1,0-0.2,0-0.2,0.2c0,1.2,0,2.4,0,3.6l0,0
			c-2.5,0-5.1,0-7.6,0l0,0c0-0.1,0-0.2,0-0.3c0-1.1,0-2.2,0-3.4c0-0.1,0-0.2-0.1-0.2c-1.2,0-2.5,0-3.7,0l0,0c0-1.3,0-2.5,0-3.8
			c1.2,0,2.5,0,3.7,0c0.1,0,0.1,0,0.1-0.1c0-1.2,0-2.4,0-3.6c0-0.1,0-0.1-0.1-0.1c-1.2,0-2.4,0-3.6,0c-0.1,0-0.1,0-0.1,0.1
			c0,1.2,0,2.5,0,3.7c-1.3,0-2.5,0-3.8,0l0,0c0-1,0-2,0-3.1c0-0.3,0-0.5,0-0.8c0-1.3,0-2.5,0-3.8c1.3,0,2.5,0,3.8,0
			C23.5,22.2,24.8,22.2,26.1,22.2z"/>
		<path d="M18.5,22.2c0,1.3,0,2.5,0,3.8c-1.3,0-2.5,0-3.8,0c0-1.2,0-2.4,0-3.7c0-0.1,0-0.2,0.1-0.2C16,22.2,17.2,22.2,18.5,22.2z"/>
		<path class="st4" d="M14.7,33.6c0-1.3,0-2.5,0-3.8c1.3,0,2.5,0,3.8,0c0,0,0,0,0,0c0,1.3,0,2.5,0,3.8
			C17.2,33.6,15.9,33.6,14.7,33.6L14.7,33.6z"/>
		<path class="st2" d="M14.7,33.6c1.3,0,2.5,0,3.8,0c1.3,0,2.5,0,3.8,0l0,0c0,1.3,0,2.5,0,3.8l0,0c-1.3,0-2.5,0-3.8,0
			c-1.3,0-2.5,0-3.8,0C14.7,36.1,14.7,34.8,14.7,33.6z"/>
		<path d="M41.3,26c0-1.3,0-2.5,0-3.8c1.2,0,2.5,0,3.7,0c0.1,0,0.1,0.1,0.1,0.2c0,1.2,0,2.4,0,3.7C43.8,26,42.5,26,41.3,26z"/>
		<path class="st4" d="M41.3,29.8c1.3,0,2.5,0,3.8,0c0,1.3,0,2.5,0,3.8l0,0c-1.3,0-2.5,0-3.8,0C41.3,32.3,41.3,31.1,41.3,29.8
			L41.3,29.8z"/>
		<path class="st2" d="M41.3,33.6c1.3,0,2.5,0,3.8,0c0,1.3,0,2.5,0,3.8c-1.3,0-2.5,0-3.8,0c-0.1,0-0.1,0-0.2,0c-1.2,0-2.4,0-3.6,0
			l0,0c0-1.3,0-2.5,0-3.8l0,0C38.7,33.6,40,33.6,41.3,33.6z"/>
		<path class="st4" d="M26.1,37.4c2.5,0,5.1,0,7.6,0c0,1.3,0,2.5,0,3.8c-2.5,0-5.1,0-7.6,0C26.1,39.9,26.1,38.6,26.1,37.4z"/>
		<path class="st4" d="M22.3,37.4c0-1.3,0-2.5,0-3.8c1.2,0,2.5,0,3.7,0c0.1,0,0.1,0.1,0.1,0.2c0,1.1,0,2.2,0,3.4c0,0.1,0,0.2,0,0.3
			C24.8,37.4,23.5,37.4,22.3,37.4z"/>
		<path class="st4" d="M18.5,37.4c1.3,0,2.5,0,3.8,0c0,1.2,0,2.4,0,3.6c0,0.1,0,0.1,0,0.2c-1.3,0-2.5,0-3.8,0
			C18.5,39.9,18.5,38.7,18.5,37.4z"/>
		<path class="st4" d="M37.4,33.6c0,1.3,0,2.5,0,3.8c-1.3,0-2.5,0-3.8,0c0-1.2,0-2.4,0-3.6c0-0.1,0-0.2,0.2-0.2
			C35,33.6,36.2,33.6,37.4,33.6z"/>
		<path class="st4" d="M37.4,37.4c1.2,0,2.4,0,3.6,0c0.1,0,0.1,0,0.2,0c0,1.3,0,2.5,0,3.8c-1.3,0-2.5,0-3.8,0c0-1.1,0-2.2,0-3.4
			C37.4,37.7,37.4,37.5,37.4,37.4z"/>
		<path class="st3" d="M22.3,29.8c0-1.2,0-2.5,0-3.7c0-0.1,0-0.1,0.1-0.1c1.2,0,2.4,0,3.6,0c0.1,0,0.1,0,0.1,0.1c0,1.2,0,2.4,0,3.6
			c0,0.1,0,0.1-0.1,0.1C24.7,29.8,23.5,29.8,22.3,29.8L22.3,29.8z"/>
		<path d="M41.3,33.6c-1.3,0-2.5,0-3.8,0c0-1.3,0-2.5,0-3.8l0,0c1.3,0,2.5,0,3.8,0C41.3,31.1,41.3,32.3,41.3,33.6z"/>
		<path class="st3" d="M37.4,29.8c-1.2,0-2.4,0-3.7,0c-0.1,0-0.1,0-0.1-0.1c0-1.2,0-2.4,0-3.6c0-0.1,0-0.1,0.1-0.1
			c1.2,0,2.4,0,3.5,0c0.1,0,0.1,0,0.1,0.1C37.4,27.3,37.4,28.6,37.4,29.8L37.4,29.8z"/>
		<path d="M22.3,33.6c-1.3,0-2.5,0-3.8,0c0-1.3,0-2.5,0-3.8c1.3,0,2.5,0,3.8,0l0,0C22.3,31,22.3,32.3,22.3,33.6z"/>
	</g>
	<rect y="37.3" width="3.7" height="15.3"/>
	<rect x="56.3" y="37.3" width="3.7" height="15.3"/>
</g>
</svg>
