<?xml version="1.0" encoding="utf-8"?>
<!-- Generator: Adobe Illustrator 25.4.0, SVG Export Plug-In . SVG Version: 6.00 Build 0)  -->
<svg version="1.1" id="Layer_1" xmlns="http://www.w3.org/2000/svg" xmlns:xlink="http://www.w3.org/1999/xlink" x="0px" y="0px"
	 viewBox="0 0 60 60" style="enable-background:new 0 0 60 60;" xml:space="preserve">
<style type="text/css">
	.st0{fill:#FE9431;}
	.st1{fill:#FED30B;}
	.st2{fill:#36FEDE;}
	.st3{fill:#0058F7;}
	.st4{fill:#B8C2FE;}
</style>
<g>
	<path d="M55.9,60c-17.2,0-34.5,0-51.7,0c0-1.4,0-2.8,0-4.2l0,0c2.8,0,5.6,0,8.4,0c0.1,0,0.1,0,0.2,0c0.2,0,0.5,0,0.7,0
		c1.2,0,2.4,0,3.6,0c0.7,0,1.3,0,2,0c0.8,0,1.5,0,2.3,0c0.8,0,1.5,0,2.3,0c0.7,0,1.3,0,2,0c0,0,0.1,0,0.1,0c2.8,0,5.6,0,8.4,0
		c0,0,0.1,0,0.1,0c0.3,0,0.5,0,0.8,0c1.2,0,2.3,0,3.5,0c0.3,0,0.7,0,1,0c1.1,0,2.2,0,3.3,0c0.7,0,1.5,0,2.2,0c0.7,0,1.4,0,2.1,0
		c0.1,0,0.1,0,0.2,0c2.8,0,5.6,0,8.4,0l0,0C55.9,57.2,55.9,58.6,55.9,60z"/>
	<path d="M42.9,0c0,1.4,0,2.8,0,4.2l0,0c-2.8,0-5.6,0-8.4,0c-0.1,0-0.1,0-0.2,0c0,0-0.1,0-0.1,0c-2.8,0-5.6,0-8.4,0c0,0-0.1,0-0.1,0
		c-0.1,0-0.1,0-0.2,0c-2.8,0-5.6,0-8.4,0l0,0c0-1.4,0-2.8,0-4.2C25.7,0,34.3,0,42.9,0z"/>
	<path d="M0,51.5c1.4,0,2.8,0,4.2,0l0,0c0,1.4,0,2.9,0,4.3l0,0c-1.4,0-2.8,0-4.2,0C0,54.3,0,52.9,0,51.5z"/>
	<path d="M0,17.1c1.4,0,2.8,0,4.2,0l0,0c0,1.4,0,2.9,0,4.3l0,0c-1.4,0-2.8,0-4.2,0C0,20,0,18.5,0,17.1z"/>
	<path d="M55.9,51.5c1.4,0,2.8,0,4.1,0c0,1.4,0,2.9,0,4.3c-1.4,0-2.8,0-4.1,0l0,0C55.9,54.3,55.9,52.9,55.9,51.5L55.9,51.5z"/>
	<path d="M55.9,17.1c1.4,0,2.8,0,4.1,0c0,1.4,0,2.9,0,4.3c-1.4,0-2.8,0-4.1,0l0,0C55.9,20,55.9,18.5,55.9,17.1L55.9,17.1z"/>
	<path d="M12.8,42.9c0-2.9,0-5.7,0-8.6l0,0c1.4,0,2.9,0,4.3,0c0,0.4,0,0.8,0,1.1c0,1.1,0,2.1,0,3.2c0,0.2,0,0.5,0,0.7
		c0,1.2,0,2.4,0,3.6C15.7,42.9,14.2,42.9,12.8,42.9L12.8,42.9z"/>
	<path d="M8.5,30c-1.4,0-2.8,0-4.2,0c-0.1,0-0.2,0-0.2-0.1c0-2.8,0-5.6,0-8.5l0,0c1.4,0,2.9,0,4.3,0c0,0.4,0,0.7,0,1.1
		c0,1.1,0,2.1,0,3.2C8.5,27.1,8.5,28.5,8.5,30L8.5,30z"/>
	<path d="M12.8,34.3c-1.4,0-2.8,0-4.1,0c-0.1,0-0.2,0-0.2-0.2c0-1.4,0-2.8,0-4.1l0,0c1.4,0,2.9,0,4.3,0
		C12.8,31.4,12.8,32.8,12.8,34.3L12.8,34.3z"/>
	<path d="M8.5,47.2c0-1.4,0-2.8,0-4.1c0-0.1,0-0.2,0.2-0.2c1.4,0,2.8,0,4.1,0l0,0c0,1.4,0,2.9,0,4.3C11.4,47.2,9.9,47.2,8.5,47.2
		L8.5,47.2z"/>
	<path d="M4.2,51.5c0-1.4,0-2.8,0-4.2c0-0.1,0-0.1,0.2-0.1c1.4,0,2.8,0,4.2,0l0,0c0,1.4,0,2.9,0,4.3C7,51.5,5.6,51.5,4.2,51.5
		L4.2,51.5z"/>
	<path d="M47.2,34.3c0,2.9,0,5.7,0,8.6l0,0c-1.4,0-2.9,0-4.3,0c0-0.2,0-0.5,0-0.7c0-1.2,0-2.4,0-3.6c0-1.4,0-2.9,0-4.3
		C44.4,34.3,45.8,34.3,47.2,34.3L47.2,34.3z"/>
	<path d="M55.9,21.4c0,2.8,0,5.6,0,8.5c0,0.1,0,0.1-0.2,0.1c-1.4,0-2.8,0-4.2,0l0,0c0-0.4,0-0.7,0-1.1c0-1.1,0-2.1,0-3.2
		c0-0.1,0-0.1,0-0.2c0-1.4,0-2.7,0-4.1C53,21.4,54.4,21.4,55.9,21.4L55.9,21.4z"/>
	<path d="M51.6,30c0,1.4,0,2.8,0,4.1c0,0.1,0,0.2-0.2,0.2c-1.4,0-2.8,0-4.1,0l0,0c0-1.4,0-2.9,0-4.3C48.7,30,50.1,30,51.6,30
		L51.6,30z"/>
	<path d="M47.2,42.9c1.4,0,2.8,0,4.1,0c0.1,0,0.2,0,0.2,0.2c0,1.4,0,2.8,0,4.1l0,0c-1.4,0-2.9,0-4.3,0
		C47.2,45.7,47.2,44.3,47.2,42.9L47.2,42.9z"/>
	<path d="M51.6,47.2c1.4,0,2.8,0,4.1,0c0.1,0,0.2,0,0.2,0.2c0,1.4,0,2.8,0,4.1l0,0c-0.3,0-0.7,0-1,0c-1.1,0-2.2,0-3.3,0
		C51.6,50,51.6,48.6,51.6,47.2L51.6,47.2z"/>
	<path class="st0" d="M51.6,51.5c1.1,0,2.2,0,3.3,0c0.3,0,0.7,0,1,0c0,1.4,0,2.9,0,4.3c-2.8,0-5.6,0-8.4,0c-0.1,0-0.1,0-0.2,0
		c0-1.4,0-2.9,0-4.3c0.4,0,0.8,0,1.2,0C49.5,51.5,50.5,51.5,51.6,51.5z"/>
	<path class="st1" d="M34.3,55.8c0,0-0.1,0-0.1,0c-2.8,0-5.6,0-8.4,0c0,0-0.1,0-0.1,0c0-1.4,0-2.9,0-4.3c1.8,0,3.6,0,5.4,0
		c1.1,0,2.1,0,3.2,0C34.3,52.9,34.3,54.3,34.3,55.8z"/>
	<path class="st0" d="M4.2,51.5c1.4,0,2.9,0,4.3,0c1.4,0,2.9,0,4.3,0c0,1.4,0,2.9,0,4.3c-0.1,0-0.1,0-0.2,0c-2.8,0-5.6,0-8.4,0
		C4.2,54.3,4.2,52.9,4.2,51.5z"/>
	<path class="st2" d="M47.2,51.5c0,1.4,0,2.9,0,4.3c-0.7,0-1.4,0-2.1,0c-0.7,0-1.5,0-2.2,0c0-1.4,0-2.9,0-4.3
		C44.4,51.5,45.8,51.5,47.2,51.5L47.2,51.5z"/>
	<path class="st2" d="M12.8,55.8c0-1.4,0-2.9,0-4.3l0,0c1.4,0,2.9,0,4.3,0c0,1.4,0,2.9,0,4.3c-1.2,0-2.4,0-3.6,0
		C13.3,55.8,13,55.8,12.8,55.8z"/>
	<path class="st3" d="M17.1,55.8c0-1.4,0-2.9,0-4.3l0,0c1.4,0,2.9,0,4.3,0c0,1.4,0,2.9,0,4.3c-0.8,0-1.5,0-2.3,0
		C18.4,55.8,17.8,55.8,17.1,55.8z"/>
	<path class="st4" d="M21.4,55.8c0-1.4,0-2.9,0-4.3l0,0c0.1,0,0.3,0,0.4,0c1.3,0,2.6,0,3.9,0l0,0c0,1.4,0,2.9,0,4.3
		c-0.7,0-1.3,0-2,0C22.9,55.8,22.2,55.8,21.4,55.8z"/>
	<path class="st4" d="M34.3,55.8c0-1.4,0-2.9,0-4.3l0,0c1.4,0,2.9,0,4.3,0c0,1.4,0,2.9,0,4.3c-1.2,0-2.3,0-3.5,0
		C34.9,55.8,34.6,55.8,34.3,55.8z"/>
	<path class="st3" d="M38.6,55.8c0-1.4,0-2.9,0-4.3l0,0c1.4,0,2.9,0,4.3,0l0,0c0,1.4,0,2.9,0,4.3c-1.1,0-2.2,0-3.3,0
		C39.3,55.8,39,55.8,38.6,55.8z"/>
	<path d="M4.2,17.1c0-1.4,0-2.8,0-4.2c0-0.2,0.1-0.1,0.2-0.1c2.8,0,5.5,0,8.3,0c0.2,0,0.2,0,0.2-0.2c0-2.7,0-5.5,0-8.2
		c0-0.2,0-0.2,0.2-0.2c1.4,0,2.7,0,4.1,0l0,0c0,0.3,0,0.6,0,1c0,1.1,0,2.2,0,3.3c0,0.2,0,0.4,0,0.5c0,1.3,0,2.5,0,3.8
		c0,1.4,0,2.9,0,4.3c-0.4,0-0.8,0-1.2,0c-1,0-2.1,0-3.1,0c-0.1,0-0.2,0-0.3,0c-1.3,0-2.7,0-4,0c-0.1,0-0.1,0-0.2,0
		C6.9,17.1,5.5,17.1,4.2,17.1L4.2,17.1z"/>
	<path d="M42.9,4.2c1.4,0,2.8,0,4.2,0c0.2,0,0.1,0.1,0.1,0.2c0,2.7,0,5.5,0,8.2c0,0.2,0,0.2,0.2,0.2c2.7,0,5.5,0,8.2,0
		c0.2,0,0.2,0,0.2,0.2c0,1.4,0,2.7,0,4.1l0,0c-0.4,0-0.7,0-1.1,0c-1.1,0-2.1,0-3.2,0c-0.4,0-0.8,0-1.2,0c-1,0-2.1,0-3.1,0
		c-1.4,0-2.9,0-4.3,0c0-0.4,0-0.8,0-1.2c0-1,0-2.1,0-3.1c0-0.4,0-0.8,0-1.2c0-1,0-2,0-3.1c0-0.1,0-0.1,0-0.2
		C42.9,6.9,42.9,5.6,42.9,4.2L42.9,4.2z"/>
	<path class="st1" d="M17.1,8.5c0-1.1,0-2.2,0-3.3c0-0.3,0-0.6,0-1c2.8,0,5.6,0,8.4,0c0.1,0,0.1,0,0.2,0c0,1.4,0,2.9,0,4.3
		c-1.4,0-2.9,0-4.3,0C20,8.5,18.5,8.5,17.1,8.5z"/>
	<path class="st2" d="M25.7,8.5c0-1.4,0-2.9,0-4.3c0,0,0.1,0,0.1,0c2.8,0,5.6,0,8.4,0c0,0,0.1,0,0.1,0c0,1.4,0,2.9,0,4.3
		C31.5,8.5,28.6,8.5,25.7,8.5L25.7,8.5z"/>
	<path class="st1" d="M34.3,8.5c0-1.4,0-2.9,0-4.3c0.1,0,0.1,0,0.2,0c2.8,0,5.6,0,8.4,0c0,1.4,0,2.7,0,4.1c0,0.1,0,0.1,0,0.2
		c-1.4,0-2.9,0-4.3,0C37.2,8.5,35.8,8.5,34.3,8.5L34.3,8.5z"/>
	<path class="st0" d="M4.2,17.1c1.4,0,2.7,0,4.1,0c0.1,0,0.1,0,0.2,0c0,0.5,0,1,0,1.5c0,0.9,0,1.9,0,2.8l0,0c-1.4,0-2.9,0-4.3,0
		C4.2,20,4.2,18.5,4.2,17.1z"/>
	<path class="st0" d="M51.6,17.1c1.1,0,2.1,0,3.2,0c0.4,0,0.7,0,1.1,0c0,1.4,0,2.9,0,4.3c-1.4,0-2.9,0-4.3,0l0,0c0-0.1,0-0.1,0-0.2
		C51.6,19.9,51.6,18.5,51.6,17.1z"/>
	<path class="st0" d="M42.9,38.6c0,1.2,0,2.4,0,3.6c0,0.2,0,0.5,0,0.7c0,0.1,0,0.1,0,0.2c0,1.4,0,2.7,0,4.1l0,0c-0.4,0-0.8,0-1.2,0
		c-1,0-2.1,0-3.1,0c-0.1,0-0.1,0-0.2,0c-1.4,0-2.7,0-4.1,0c0-0.1,0-0.1,0-0.2c0-1.3,0-2.6,0-3.9c0-0.2,0-0.2-0.2-0.2
		c-2.7,0-5.3,0-8,0c-0.1,0-0.3,0-0.4,0c-0.1,0.1,0,0.3,0,0.4c0,1.3,0,2.6,0,3.9c-0.4,0-0.7,0-1.1,0c-1.1,0-2.1,0-3.2,0
		c-0.1,0-0.1,0-0.2,0c-1.4,0-2.7,0-4.1,0l0,0c0-0.4,0-0.8,0-1.2c0-1,0-2.1,0-3.1c0-1.2,0-2.4,0-3.6c0-0.2,0-0.5,0-0.7
		c1.4,0,2.9,0,4.3,0c0,0,0.1,0,0.1,0c5.7,0,11.3,0,17,0c0,0,0.1,0,0.1,0C40.1,38.6,41.5,38.6,42.9,38.6z"/>
	<path class="st3" d="M12.8,34.3c0-1.4,0-2.9,0-4.3l0,0c1.4,0,2.9,0,4.3,0c0,0.1,0,0.1,0,0.2c0,1.4,0,2.7,0,4.1l0,0
		C15.7,34.3,14.2,34.3,12.8,34.3z"/>
	<path class="st1" d="M21.4,38.6c-1.4,0-2.9,0-4.3,0c0-1.1,0-2.1,0-3.2c0-0.4,0-0.8,0-1.1l0,0c1.4,0,2.9,0,4.3,0
		C21.4,35.7,21.4,37.1,21.4,38.6z"/>
	<path class="st2" d="M17.1,42.9c0,1,0,2.1,0,3.1c0,0.4,0,0.8,0,1.2c-1.4,0-2.9,0-4.3,0l0,0c0-1.4,0-2.9,0-4.3
		C14.2,42.9,15.7,42.9,17.1,42.9z"/>
	<path class="st0" d="M8.5,25.7c0-1.1,0-2.1,0-3.2c0-0.4,0-0.7,0-1.1l0,0c1.4,0,2.9,0,4.3,0l0,0c0,0.1,0,0.1,0,0.2
		c0,1.4,0,2.7,0,4.1l0,0C11.4,25.7,9.9,25.7,8.5,25.7z"/>
	<path class="st3" d="M8.5,25.7c1.4,0,2.9,0,4.3,0c0,1.4,0,2.9,0,4.3l0,0c-1.4,0-2.9,0-4.3,0C8.5,28.5,8.5,27.1,8.5,25.7z"/>
	<path class="st2" d="M12.8,51.5c-1.4,0-2.9,0-4.3,0c0-1.4,0-2.9,0-4.3c1.4,0,2.9,0,4.3,0l0,0C12.8,48.6,12.8,50,12.8,51.5
		L12.8,51.5z"/>
	<path class="st3" d="M47.2,30c0,1.4,0,2.9,0,4.3c-1.4,0-2.9,0-4.3,0l0,0c0-1.4,0-2.7,0-4.1c0-0.1,0-0.1,0-0.2
		C44.4,30,45.8,30,47.2,30L47.2,30z"/>
	<path class="st1" d="M42.9,38.6c-1.4,0-2.9,0-4.3,0c0-1.4,0-2.9,0-4.3c1.4,0,2.9,0,4.3,0l0,0C42.9,35.7,42.9,37.1,42.9,38.6z"/>
	<path class="st2" d="M42.9,47.2c0-1.4,0-2.7,0-4.1c0-0.1,0-0.1,0-0.2c1.4,0,2.9,0,4.3,0c0,1.4,0,2.9,0,4.3l0,0
		C45.8,47.2,44.4,47.2,42.9,47.2z"/>
	<path class="st0" d="M51.6,21.4c0,1.4,0,2.7,0,4.1c0,0.1,0,0.1,0,0.2c-1.4,0-2.9,0-4.3,0l0,0c0-0.6,0-1.2,0-1.8c0-0.8,0-1.7,0-2.5
		l0,0c0.5,0,1,0,1.4,0C49.6,21.4,50.6,21.4,51.6,21.4L51.6,21.4z"/>
	<path class="st3" d="M47.2,25.7c1.4,0,2.9,0,4.3,0c0,1.1,0,2.1,0,3.2c0,0.4,0,0.7,0,1.1c-1.4,0-2.9,0-4.3,0l0,0
		C47.2,28.6,47.2,27.1,47.2,25.7z"/>
	<path class="st2" d="M51.6,51.5c-1,0-2.1,0-3.1,0c-0.4,0-0.8,0-1.2,0l0,0c0-1.4,0-2.9,0-4.3l0,0c1.4,0,2.9,0,4.3,0
		C51.6,48.6,51.6,50,51.6,51.5z"/>
	<path class="st4" d="M25.7,47.2c0-1.3,0-2.6,0-3.9c0-0.1-0.1-0.3,0-0.4c0.1-0.1,0.3,0,0.4,0c2.7,0,5.3,0,8,0c0.2,0,0.2,0,0.2,0.2
		c0,1.3,0,2.6,0,3.9c0,0.1,0,0.1,0,0.2c0,1.4,0,2.9,0,4.3l0,0c-1.1,0-2.1,0-3.2,0c-1.8,0-3.6,0-5.4,0l0,0c0-0.3,0-0.6,0-0.9
		C25.7,49.4,25.7,48.3,25.7,47.2z"/>
	<path class="st0" d="M47.2,47.2c0,1.4,0,2.9,0,4.3c-1.4,0-2.9,0-4.3,0l0,0c0-1.4,0-2.9,0-4.3l0,0C44.4,47.2,45.8,47.2,47.2,47.2z"
		/>
	<path class="st0" d="M12.8,51.5c0-1.4,0-2.9,0-4.3c1.4,0,2.9,0,4.3,0l0,0c0,1.4,0,2.9,0,4.3l0,0C15.7,51.5,14.2,51.5,12.8,51.5z"/>
	<path class="st2" d="M17.1,51.5c0-1.4,0-2.9,0-4.3c1.4,0,2.7,0,4.1,0c0.1,0,0.1,0,0.2,0c0,1.4,0,2.9,0,4.3l0,0
		C20,51.5,18.5,51.5,17.1,51.5z"/>
	<path class="st3" d="M21.4,51.5c0-1.4,0-2.9,0-4.3c1.1,0,2.1,0,3.2,0c0.4,0,0.7,0,1.1,0c0,1.1,0,2.3,0,3.4c0,0.3,0,0.6,0,0.9
		c-1.3,0-2.6,0-3.9,0C21.7,51.5,21.5,51.5,21.4,51.5z"/>
	<path class="st3" d="M34.3,51.5c0-1.4,0-2.9,0-4.3c1.4,0,2.7,0,4.1,0c0.1,0,0.1,0,0.2,0c0,1.4,0,2.9,0,4.3l0,0
		C37.2,51.5,35.8,51.5,34.3,51.5z"/>
	<path class="st2" d="M38.6,51.5c0-1.4,0-2.9,0-4.3c1,0,2.1,0,3.1,0c0.4,0,0.8,0,1.2,0c0,1.4,0,2.9,0,4.3
		C41.5,51.5,40.1,51.5,38.6,51.5z"/>
	<path class="st0" d="M17.1,8.5c1.4,0,2.9,0,4.3,0c0,1.4,0,2.9,0,4.3c-1.4,0-2.9,0-4.3,0c0-1.3,0-2.5,0-3.8
		C17.1,8.9,17.1,8.7,17.1,8.5z"/>
	<path class="st2" d="M12.8,17.1c1,0,2.1,0,3.1,0c0.4,0,0.8,0,1.2,0l0,0c0,1.4,0,2.9,0,4.3c-0.1,0-0.1,0-0.2,0c-1.4,0-2.7,0-4.1,0
		l0,0C12.8,20,12.8,18.5,12.8,17.1z"/>
	<path class="st1" d="M12.8,17.1c0,1.4,0,2.9,0,4.3c-1.4,0-2.9,0-4.3,0c0-0.9,0-1.9,0-2.8c0-0.5,0-1,0-1.5c1.3,0,2.7,0,4,0
		C12.6,17.1,12.7,17.1,12.8,17.1z"/>
	<path class="st2" d="M17.1,12.8c1.4,0,2.9,0,4.3,0l0,0c0,0.4,0,0.8,0,1.1c0,1.1,0,2.1,0,3.2c-1.4,0-2.9,0-4.3,0l0,0
		C17.1,15.7,17.1,14.2,17.1,12.8z"/>
	<path class="st1" d="M51.5,21.4c-1,0-1.9,0-2.9,0c-0.5,0-1,0-1.4,0c0-1.4,0-2.9,0-4.3c1,0,2.1,0,3.1,0c0.4,0,0.8,0,1.2,0
		c0,1.4,0,2.8,0,4.1C51.6,21.3,51.5,21.3,51.5,21.4z"/>
	<path class="st2" d="M47.2,17.1c0,1.4,0,2.9,0,4.3l0,0c-0.7,0-1.4,0-2.1,0c-0.7,0-1.5,0-2.2,0c0-1.4,0-2.9,0-4.3l0,0
		C44.4,17.1,45.8,17.1,47.2,17.1z"/>
	<path class="st2" d="M42.9,12.8c0,1,0,2.1,0,3.1c0,0.4,0,0.8,0,1.2l0,0c-1.4,0-2.9,0-4.3,0c0-1.4,0-2.9,0-4.3l0,0
		C40.1,12.8,41.5,12.8,42.9,12.8z"/>
	<path class="st0" d="M42.9,12.8c-1.4,0-2.9,0-4.3,0c0-1.4,0-2.9,0-4.3c1.4,0,2.9,0,4.3,0c0,1,0,2,0,3.1
		C42.9,12,42.9,12.4,42.9,12.8z"/>
	<path class="st2" d="M21.4,12.8c0-1.4,0-2.9,0-4.3c1.4,0,2.9,0,4.3,0l0,0c0,1.4,0,2.9,0,4.3C24.3,12.8,22.8,12.8,21.4,12.8
		L21.4,12.8z"/>
	<path d="M25.7,12.8c0-1.4,0-2.9,0-4.3c2.9,0,5.7,0,8.6,0l0,0c0,1.4,0,2.9,0,4.3l0,0C31.5,12.8,28.6,12.8,25.7,12.8L25.7,12.8z"/>
	<path class="st2" d="M34.3,12.8c0-1.4,0-2.9,0-4.3c1.4,0,2.9,0,4.3,0c0,1.4,0,2.9,0,4.3l0,0C37.2,12.8,35.8,12.8,34.3,12.8z"/>
	<path class="st4" d="M38.6,34.3c0,1.4,0,2.9,0,4.3c0,0-0.1,0-0.1,0c-5.7,0-11.3,0-17,0c0,0-0.1,0-0.1,0c0-1.4,0-2.9,0-4.3l0,0
		C27.1,34.3,32.9,34.3,38.6,34.3L38.6,34.3z"/>
	<path class="st0" d="M12.8,30c0-1.4,0-2.9,0-4.3l0,0c1.4,0,2.9,0,4.3,0c0,1.4,0,2.9,0,4.3l0,0C15.7,30,14.2,30,12.8,30z"/>
	<path d="M21.4,34.3c-1.4,0-2.9,0-4.3,0c0-1.4,0-2.7,0-4.1c0-0.1,0-0.1,0-0.2c0,0,0,0,0,0c1.4,0,2.9,0,4.3,0
		C21.4,31.4,21.4,32.8,21.4,34.3L21.4,34.3z"/>
	<path class="st4" d="M17.1,25.7c-1.4,0-2.9,0-4.3,0c0-1.4,0-2.7,0-4.1c0-0.1,0-0.1,0-0.2c1.4,0,2.7,0,4.1,0c0.1,0,0.1,0,0.2,0l0,0
		c0,0.1,0,0.1,0,0.2C17.1,23,17.1,24.3,17.1,25.7L17.1,25.7z"/>
	<path class="st0" d="M47.2,25.7c0,1.4,0,2.9,0,4.3c-1.4,0-2.9,0-4.3,0c0,0,0,0,0,0c0-1.4,0-2.9,0-4.3
		C44.4,25.7,45.8,25.7,47.2,25.7L47.2,25.7z"/>
	<path d="M42.9,34.3c-1.4,0-2.9,0-4.3,0l0,0c0-1.4,0-2.9,0-4.3c1.4,0,2.9,0,4.3,0c0,0,0,0,0,0c0,0.1,0,0.1,0,0.2
		C42.9,31.5,42.9,32.9,42.9,34.3z"/>
	<path class="st4" d="M47.2,25.7c-1.4,0-2.9,0-4.3,0l0,0c0-0.6,0-1.1,0-1.7c0-0.9,0-1.7,0-2.6l0,0c0.7,0,1.5,0,2.2,0
		c0.7,0,1.4,0,2.1,0c0,0.8,0,1.7,0,2.5C47.2,24.5,47.2,25.1,47.2,25.7z"/>
	<path d="M17.1,17.1c1.4,0,2.9,0,4.3,0c0,0.1,0,0.1,0,0.2c0,1.4,0,2.7,0,4.1c-1.4,0-2.9,0-4.3,0l0,0C17.1,20,17.1,18.5,17.1,17.1z"
		/>
	<path class="st0" d="M21.4,21.4c0-1.4,0-2.7,0-4.1c0-0.1,0-0.1,0-0.2c0-1.1,0-2.1,0-3.2c0-0.4,0-0.8,0-1.1c1.4,0,2.9,0,4.3,0l0,0
		c0,0.4,0,0.8,0,1.2c0,1,0,2.1,0,3.1c0,0.1,0,0.1,0,0.2c0,1.4,0,2.7,0,4.1C24.3,21.4,22.8,21.4,21.4,21.4L21.4,21.4z"/>
	<path d="M38.6,17.1c1.4,0,2.9,0,4.3,0c0,1.4,0,2.9,0,4.3l0,0c-1.4,0-2.9,0-4.3,0c0-0.4,0-0.8,0-1.1C38.6,19.2,38.6,18.1,38.6,17.1z
		"/>
	<path class="st0" d="M38.6,17.1c0,1.1,0,2.1,0,3.2c0,0.4,0,0.8,0,1.1l0,0c-1.4,0-2.9,0-4.3,0c0-0.4,0-0.7,0-1.1c0-1.1,0-2.1,0-3.2
		c0-0.1,0-0.1,0-0.2c0-1.4,0-2.7,0-4.1l0,0c1.4,0,2.9,0,4.3,0C38.6,14.2,38.6,15.7,38.6,17.1z"/>
	<path class="st2" d="M34.3,12.8c0,1.4,0,2.7,0,4.1c0,0.1,0,0.1,0,0.2c-2.9,0-5.7,0-8.6,0c0-1,0-2.1,0-3.1c0-0.4,0-0.8,0-1.2
		C28.6,12.8,31.5,12.8,34.3,12.8z"/>
	<path class="st1" d="M38.6,30c0,1.4,0,2.9,0,4.3c-5.7,0-11.5,0-17.2,0c0-1.4,0-2.9,0-4.3l0,0c1.4,0,2.8,0,4.1,0
		c0.1,0,0.2,0,0.2-0.2c0-1.4,0-2.7,0-4.1l0,0c2.9,0,5.7,0,8.6,0l0,0c0,1.4,0,2.7,0,4.1c0,0.1,0,0.2,0.2,0.2C35.9,30,37.3,30,38.6,30
		L38.6,30z"/>
	<path class="st4" d="M21.4,30c-1.4,0-2.9,0-4.3,0c0-1.4,0-2.9,0-4.3l0,0c0.8,0,1.7,0,2.5,0c0.6,0,1.2,0,1.8,0l0,0l0,0
		c0,0.1,0,0.1,0,0.2C21.4,27.2,21.4,28.6,21.4,30L21.4,30z"/>
	<path class="st0" d="M21.4,25.7c-0.6,0-1.2,0-1.8,0c-0.8,0-1.7,0-2.5,0c0-1.4,0-2.7,0-4.1c0-0.1,0-0.1,0-0.2c1.4,0,2.9,0,4.3,0l0,0
		C21.4,22.8,21.4,24.3,21.4,25.7z"/>
	<path class="st4" d="M42.9,30c-1.4,0-2.9,0-4.3,0c0,0,0,0,0,0c0-0.3,0-0.7,0-1c0-1.1,0-2.2,0-3.3l0,0l0,0c0,0,0.1,0,0.1,0
		c1.4,0,2.8,0,4.2,0l0,0C42.9,27.1,42.9,28.5,42.9,30z"/>
	<path class="st0" d="M42.9,25.7c-1.4,0-2.8,0-4.2,0c0,0-0.1,0-0.1,0c0-1.4,0-2.9,0-4.3l0,0c1.4,0,2.9,0,4.3,0c0,0.9,0,1.7,0,2.6
		C42.9,24.5,42.9,25.1,42.9,25.7z"/>
	<path class="st3" d="M25.7,17.1c2.9,0,5.7,0,8.6,0c0,1.1,0,2.1,0,3.2c0,0.4,0,0.7,0,1.1l0,0c-2.9,0-5.7,0-8.6,0l0,0
		c0-1.4,0-2.7,0-4.1C25.7,17.2,25.7,17.2,25.7,17.1z"/>
	<path class="st3" d="M21.4,25.7c0-1.4,0-2.9,0-4.3c1.4,0,2.9,0,4.3,0l0,0c0,1.4,0,2.9,0,4.3l0,0c-0.7,0-1.5,0-2.2,0
		C22.8,25.7,22.1,25.7,21.4,25.7L21.4,25.7L21.4,25.7z"/>
	<path class="st3" d="M38.6,21.4c0,1.4,0,2.9,0,4.3c0,0,0,0,0,0l0,0c0,0-0.1,0-0.1,0c-1.4,0-2.8,0-4.2,0l0,0c0-1.4,0-2.9,0-4.3l0,0
		C35.8,21.4,37.2,21.4,38.6,21.4z"/>
	<path d="M34.3,21.4c0,1.4,0,2.9,0,4.3c-2.9,0-5.7,0-8.6,0c0-1.4,0-2.9,0-4.3C28.6,21.4,31.5,21.4,34.3,21.4z"/>
	<path d="M21.4,25.7c0.7,0,1.4,0,2.1,0c0.7,0,1.5,0,2.2,0c0,1.4,0,2.7,0,4.1c0,0.1,0,0.2-0.2,0.2c-1.4,0-2.8,0-4.1,0
		c0-1.4,0-2.7,0-4.1C21.4,25.8,21.4,25.7,21.4,25.7z"/>
	<path d="M34.3,25.7c1.4,0,2.8,0,4.2,0c0,0,0.1,0,0.1,0c0,1.1,0,2.2,0,3.3c0,0.3,0,0.7,0,1c-1.4,0-2.8,0-4.1,0c-0.1,0-0.2,0-0.2-0.2
		C34.3,28.4,34.3,27.1,34.3,25.7z"/>
</g>
</svg>
