<?xml version="1.0" encoding="utf-8"?>
<!-- Generator: Adobe Illustrator 25.4.0, SVG Export Plug-In . SVG Version: 6.00 Build 0)  -->
<svg version="1.1" id="Layer_1" xmlns="http://www.w3.org/2000/svg" xmlns:xlink="http://www.w3.org/1999/xlink" x="0px" y="0px"
	 viewBox="0 0 60 60" style="enable-background:new 0 0 60 60;" xml:space="preserve">
<style type="text/css">
	.st0{fill:#B8C2FE;}
	.st1{fill:#0E0F14;}
	.st2{fill:#0058F7;}
	.st3{fill:#36FEDE;}
	.st4{fill:#FED30B;}
</style>
<g>
	<g>
		<path class="st0" d="M56.2,45.3c0,2.5,0,5,0,7.5c0,0,0,0,0,0c-1.2,0-2.4,0-3.6,0c-0.2,0-0.2,0.1-0.2,0.2c0,1.1,0,2.1,0,3.2
			c-1.2,0-2.5,0-3.7,0c0-1.1,0-2.1,0-3.2c0-0.2,0-0.2-0.2-0.2c-1.2,0-2.4,0-3.5,0l0,0c0-1.2,0-2.4,0-3.6c0-0.2,0-0.2-0.2-0.2
			c-2.4,0-4.7,0-7.1,0c-0.1,0-0.2,0-0.2-0.2c0-1.1,0-2.2,0-3.4c0-0.2,0-0.2-0.2-0.2c-1.2,0-2.4,0-3.6,0c0-1.2,0-2.4,0-3.5
			c0-0.2,0-0.2,0.3-0.2c3.6,0,7.2,0,10.8,0c0.2,0,0.2-0.1,0.2-0.2c0-1.1,0-2.2,0-3.2c0-0.3,0-0.3,0.3-0.3c1.1,0,2.3,0,3.4,0
			c0.1,0,0.2,0,0.2,0c1.2,0,2.3,0,3.5,0c0,0.1,0,0.3,0,0.4c0,1.1,0,2.2,0,3.4c0,1.3,0,2.5,0,3.8c-1.2,0-2.4,0-3.6,0
			c-0.1,0-0.2,0-0.2,0.2c0,1.1,0,2.3,0,3.4c0,0.2,0,0.2,0.2,0.2c1.1,0,2.2,0,3.3,0c0.2,0,0.2,0,0.2-0.2c0-1.2,0-2.4,0-3.6
			C53.7,45.3,55,45.3,56.2,45.3z"/>
		<path class="st0" d="M3.8,52.8c0-2.5,0-5,0-7.5c0.1,0,0.2,0,0.3,0c1.1,0,2.3,0,3.4,0c0,1.2,0,2.4,0,3.6c0,0.1,0,0.2,0.2,0.2
			c1.1,0,2.2,0,3.4,0c0.2,0,0.2,0,0.2-0.2c0-1.1,0-2.2,0-3.4c0-0.2,0-0.2-0.2-0.2c-1.2,0-2.4,0-3.5,0c0-1.3,0-2.5,0-3.8
			c0-0.1,0-0.1,0-0.2c0-1.2,0-2.4,0-3.5c0.1,0,0.3,0,0.4,0c1.1,0,2.2,0,3.3,0c0.1,0,0.2,0,0.2,0c1.1,0,2.2,0,3.2,0
			c0.3,0,0.3,0,0.3,0.3c0,0.7,0,1.3,0,2c0,0.4,0,0.9,0,1.3c0,0.1,0,0.2,0.2,0.2c0.1,0,0.1,0,0.2,0c3.6,0,7.1,0,10.7,0
			c0.2,0,0.2,0,0.2,0.2c0,1.2,0,2.4,0,3.6c-1.2,0-2.4,0-3.6,0c-0.1,0-0.2,0-0.2,0.2c0,1.1,0,2.2,0,3.4c0,0.2,0,0.2-0.2,0.2
			c-2.4,0-4.7,0-7.1,0c-0.2,0-0.2,0-0.2,0.2c0,1.2,0,2.4,0,3.6l0,0c-1.2,0-2.4,0-3.6,0c-0.1,0-0.2,0-0.2,0.2c0,1.1,0,2.1,0,3.2
			c-1.2,0-2.5,0-3.7,0c0-1.1,0-2.1,0-3.2c0-0.2,0-0.2-0.2-0.2C6.1,52.8,5,52.8,3.8,52.8C3.8,52.8,3.8,52.8,3.8,52.8z"/>
		<path class="st0" d="M7.5,3.8c3.7,0,7.5,0,11.2,0c0,0,0,0,0,0c0,0,0,0,0,0c0,1.2,0,2.5,0,3.7c-2.4,0-4.9,0-7.3,0
			c-0.2,0-0.2,0.1-0.2,0.2c0,1.2,0,2.4,0,3.6c-1.2,0-2.5,0-3.7,0C7.5,8.9,7.5,6.4,7.5,3.8C7.5,3.9,7.5,3.9,7.5,3.8
			C7.5,3.9,7.5,3.8,7.5,3.8z"/>
		<path class="st0" d="M41.3,3.8c3.7,0,7.4,0,11.1,0c0,0,0,0,0,0c0,0,0,0,0,0c0,2.2,0,4.4,0,6.6c0,0.3,0,0.6,0,0.9
			c-1.2,0-2.5,0-3.7,0c0-1.2,0-2.4,0-3.6c0-0.2,0-0.2-0.2-0.2c-2.4,0-4.9,0-7.3,0c0-1.2,0-2.5,0-3.7C41.2,3.9,41.3,3.9,41.3,3.8z"/>
		<path d="M22.5,52.8c0,1.1,0,2.2,0,3.4c-2.5,0-5,0-7.5,0c0-1.1,0-2.2,0-3.4l0,0c0.3,0,0.5,0,0.8,0C18,52.8,20.2,52.8,22.5,52.8z"/>
		<path d="M37.5,56.2c0-1.1,0-2.2,0-3.4c0.1,0,0.2,0,0.3,0c2.4,0,4.8,0,7.2,0l0,0c0,1.1,0,2.2,0,3.4C42.5,56.2,40,56.2,37.5,56.2z"
			/>
		<path class="st1" d="M52.4,45.3c0-1.3,0-2.5,0-3.8c1.2,0,2.4,0,3.6,0c0.2,0,0.2,0,0.2-0.2c0-2.4,0-4.9,0-7.3c0-1.2,0-2.5,0-3.7
			c0,0,0,0,0,0c0,5,0,10,0,15.1C55,45.3,53.7,45.3,52.4,45.3L52.4,45.3z"/>
		<path class="st1" d="M7.5,41.5c0,1.3,0,2.5,0,3.8l0,0c-1.1,0-2.3,0-3.4,0c-0.1,0-0.2,0-0.3,0c0-5,0-10,0-15.1c0,0,0,0,0.1,0
			c0,0.1,0,0.2,0,0.3c0,1.2,0,2.3,0,3.5c0,2.5,0,4.9,0,7.4c0,0.2,0.1,0.2,0.2,0.2C5.2,41.5,6.3,41.5,7.5,41.5z"/>
		<path class="st0" d="M56.2,30.2C56.2,30.2,56.2,30.2,56.2,30.2c-1.3,0-2.6,0-3.8,0l0,0c0-1.3,0-2.5,0-3.8c1.3,0,2.5,0,3.8,0
			c0,0,0,0,0,0C56.2,27.7,56.2,29,56.2,30.2z"/>
		<path class="st0" d="M3.8,30.2C3.8,30.2,3.8,30.2,3.8,30.2c-0.1-1.3-0.1-2.5-0.1-3.8c0,0,0,0.1,0.1,0c1.2,0,2.4,0,3.7,0
			c0,1.3,0,2.5,0,3.8l0,0C6.3,30.2,5,30.2,3.8,30.2z"/>
		<path class="st1" d="M15,52.8c0,1.1,0,2.2,0,3.4c-1.3,0-2.5,0-3.8,0c0-1.1,0-2.1,0-3.2c0-0.1,0-0.2,0.2-0.2
			C12.6,52.8,13.8,52.8,15,52.8z"/>
		<path class="st2" d="M52.4,56.2c0-1.1,0-2.1,0-3.2c0-0.2,0-0.2,0.2-0.2c1.2,0,2.4,0,3.6,0c0,0.1,0,0.1,0,0.2c0,1,0,2.1,0,3.1
			C54.9,56.2,53.7,56.2,52.4,56.2z"/>
		<path class="st1" d="M45,56.2c0-1.1,0-2.2,0-3.4c1.2,0,2.4,0,3.5,0c0.2,0,0.2,0,0.2,0.2c0,1.1,0,2.1,0,3.2
			C47.4,56.2,46.2,56.2,45,56.2z"/>
		<path class="st2" d="M3.8,52.8c1.2,0,2.3,0,3.5,0c0.2,0,0.2,0,0.2,0.2c0,1.1,0,2.1,0,3.2c-1.2,0-2.5,0-3.7,0c0-0.5,0-1,0-1.5
			C3.8,54.1,3.8,53.5,3.8,52.8z"/>
		<path class="st1" d="M56.2,26.4C56.2,26.5,56.2,26.5,56.2,26.4c0-1.2,0-2.5,0-3.7c0-6.2,0-12.4,0-18.6c0-0.2-0.1-0.2-0.2-0.2
			c-1.2,0-2.4,0-3.6,0c0,0,0,0,0,0c0,0,0,0,0,0c1.2,0,2.4,0,3.7,0c0.1,0,0.2,0,0.2,0.2C56.2,11.5,56.2,19,56.2,26.4z"/>
		<path class="st1" d="M3.8,26.4C3.8,26.5,3.8,26.4,3.8,26.4C3.8,18.9,3.8,11.5,3.8,4c0-0.1,0-0.2,0.2-0.2c1.2,0,2.4,0,3.6,0
			c0,0,0,0,0,0c0,0,0,0,0,0c-1.1,0-2.3,0-3.4,0c-0.3,0-0.3,0-0.3,0.3c0,6.1,0,12.2,0,18.3c0,0.1,0,0.2,0,0.3c0,0.9,0,1.9,0,2.8
			C3.8,25.8,3.8,26.1,3.8,26.4z"/>
		<path class="st1" d="M41.3,3.8c0,0.1-0.1,0-0.2,0c-0.9,0-1.7,0-2.6,0c-6.6,0-13.3,0-19.9,0c0,0,0,0,0,0c0,0,0,0,0,0
			C26.3,3.8,33.8,3.8,41.3,3.8z"/>
		<path class="st1" d="M3.8,52.8c0,0.6,0,1.3,0,1.9c0,0.5,0,1,0,1.5c-0.1,0,0-0.1,0-0.2C3.8,55,3.8,53.9,3.8,52.8
			C3.8,52.8,3.8,52.8,3.8,52.8z"/>
		<path class="st1" d="M56.2,56.2c0-1,0-2.1,0-3.1c0-0.1,0-0.1,0-0.2c0,0,0,0,0,0c0,1.1,0,2.1,0,3.2C56.2,56.1,56.3,56.2,56.2,56.2z
			"/>
		<path class="st3" d="M26.2,45.3c0-1.2,0-2.4,0-3.6c0-0.2-0.1-0.2-0.2-0.2c-3.6,0-7.1,0-10.7,0c-0.1,0-0.1,0-0.2,0
			c-0.1,0-0.2,0-0.2-0.2c0-0.4,0-0.9,0-1.3c0-0.7,0-1.3,0-2c0-0.3,0-0.3-0.3-0.3c-1.1,0-2.2,0-3.2,0c-0.1,0-0.2,0-0.2,0
			c0-1.2,0-2.4,0-3.6c0-0.2,0-0.2,0.2-0.2c1.2,0,2.4,0,3.6,0c1.2,0,2.4,0,3.6,0c0.2,0,0.1-0.1,0.1-0.2c0-1.1,0-2.2,0-3.4
			c0-0.2,0-0.2-0.2-0.2c-1.2,0-2.4,0-3.5,0c0-1.3,0-2.5,0-3.8c1.2,0,2.4,0,3.5,0c0.2,0,0.2,0,0.2-0.2c0-3.7,0-7.4,0-11.1
			c1.3,0,2.5,0,3.8,0c0,1.2,0,2.4,0,3.6c0,0.2,0,0.2,0.2,0.2c4.2,0,8.5,0,12.7,0c0.6,0,1.3,0,1.9,0c0.1,0,0.2,0,0.2-0.2
			c0-1.2,0-2.4,0-3.6c1.2,0,2.5,0,3.7,0c0,3.7,0,7.4,0,11.1c0,0.2,0,0.2,0.2,0.2c1.2,0,2.4,0,3.6,0c0,1.3,0,2.5,0,3.8
			c-0.1,0-0.1,0-0.2,0c-1.1,0-2.3,0-3.4,0c-0.1,0-0.2,0-0.2,0.1c0,1.2,0,2.3,0,3.5c0,0.1,0,0.1,0.1,0.1c1.2,0,2.4,0,3.6,0
			c1.2,0,2.4,0,3.5,0c0.2,0,0.2,0,0.2,0.2c0,1.2,0,2.4,0,3.6c-1.1,0-2.3,0-3.4,0c-0.3,0-0.3,0-0.3,0.3c0,1.1,0,2.2,0,3.2
			c0,0.2,0,0.2-0.2,0.2c-3.6,0-7.2,0-10.8,0c-0.3,0-0.3,0-0.3,0.2c0,1.2,0,2.4,0,3.5c-0.1,0-0.1,0-0.2,0c-2.2,0-4.3,0-6.5,0
			C26.8,45.3,26.5,45.3,26.2,45.3z M33.7,30.2c-2.5,0-5,0-7.5,0c0-1.2,0-2.4,0-3.6c0-0.1,0-0.2-0.2-0.2c-1.1,0-2.3,0-3.4,0
			c-0.1,0-0.2,0-0.2,0.2c0,1.2,0,2.3,0,3.5c0,0.1,0,0.2,0.2,0.2c1.2,0,2.4,0,3.6,0c0,1.3,0,2.5,0,3.8c-1.2,0-2.4,0-3.6,0
			c-0.1,0-0.2,0-0.2,0.2c0,1.2,0,2.3,0,3.5c0,0.1,0,0.2,0.2,0.2c1.1,0,2.3,0,3.4,0c0.1,0,0.2,0,0.2-0.2c0-1.2,0-2.4,0-3.6
			c2.5,0,5,0,7.5,0c0,1.2,0,2.4,0,3.6c0,0.1,0,0.2,0.2,0.2c1.2,0,2.3,0,3.5,0c0.1,0,0.2,0,0.2-0.2c0-1.2,0-2.3,0-3.5
			c0-0.1,0-0.2-0.2-0.2c-1.2,0-2.4,0-3.6,0C33.7,32.7,33.7,31.5,33.7,30.2c1.2,0,2.4,0,3.6,0c0.1,0,0.2,0,0.2-0.2c0-1.2,0-2.3,0-3.5
			c0-0.1,0-0.2-0.2-0.2c-1.2,0-2.3,0-3.5,0c-0.1,0-0.2,0-0.2,0.2C33.7,27.8,33.7,29,33.7,30.2z"/>
		<path class="st1" d="M26.2,45.3c0.3,0,0.6,0,0.8,0c2.2,0,4.3,0,6.5,0c0.1,0,0.1,0,0.2,0c1.2,0,2.4,0,3.6,0c0.2,0,0.2,0,0.2,0.2
			c0,1.1,0,2.2,0,3.4c0,0.1,0,0.2,0.2,0.2c2.4,0,4.7,0,7.1,0c0.2,0,0.2,0,0.2,0.2c0,1.2,0,2.4,0,3.6c-2.4,0-4.8,0-7.2,0
			c-0.1,0-0.2,0-0.3,0c-5,0-10,0-15,0c-2.2,0-4.5,0-6.7,0c-0.3,0-0.5,0-0.8,0c0-1.2,0-2.4,0-3.6c0-0.2,0-0.2,0.2-0.2
			c2.4,0,4.7,0,7.1,0c0.2,0,0.2,0,0.2-0.2c0-1.1,0-2.2,0-3.4c0-0.1,0-0.2,0.2-0.2C23.8,45.3,25,45.3,26.2,45.3z"/>
		<path class="st1" d="M48.7,37.8c0-1.2,0-2.4,0-3.6c0-0.2,0-0.2-0.2-0.2c-1.2,0-2.4,0-3.5,0c0-1.2,0-2.5,0-3.7c0-1.3,0-2.5,0-3.8
			l0,0c1.2,0,2.5,0,3.7,0c0,1.2,0,2.4,0,3.6c0,0.1,0,0.2,0.2,0.2c1.2,0,2.4,0,3.5,0l0,0c0,1.2,0,2.5,0,3.7c0,1.3,0,2.5,0,3.8
			c-1.2,0-2.3,0-3.5,0C48.8,37.8,48.8,37.8,48.7,37.8z"/>
		<path d="M52.4,37.8c0-1.3,0-2.5,0-3.8c1.3,0,2.5,0,3.8,0c0,2.4,0,4.9,0,7.3c0,0.2-0.1,0.2-0.2,0.2c-1.2,0-2.4,0-3.6,0
			c0-1.1,0-2.2,0-3.4C52.4,38,52.4,37.9,52.4,37.8z"/>
		<path class="st2" d="M52.4,45.3c0,1.2,0,2.4,0,3.6c0,0.2,0,0.2-0.2,0.2c-1.1,0-2.2,0-3.3,0c-0.2,0-0.2,0-0.2-0.2
			c0-1.1,0-2.3,0-3.4c0-0.1,0-0.2,0.2-0.2C50,45.3,51.2,45.3,52.4,45.3L52.4,45.3z"/>
		<path class="st1" d="M15,26.4c0,1.3,0,2.5,0,3.8c0,1.2,0,2.5,0,3.7c-1.2,0-2.4,0-3.6,0c-0.2,0-0.2,0-0.2,0.2c0,1.2,0,2.4,0,3.6
			c-1.1,0-2.2,0-3.3,0c-0.1,0-0.3,0-0.4,0c0-1.3,0-2.5,0-3.8c0-1.2,0-2.5,0-3.7l0,0c1.2,0,2.4,0,3.5,0c0.2,0,0.2,0,0.2-0.2
			c0-1.2,0-2.4,0-3.6C12.5,26.4,13.7,26.4,15,26.4L15,26.4z"/>
		<path d="M7.5,34c0,1.3,0,2.5,0,3.8c0,1.2,0,2.4,0,3.5c0,0.1,0,0.1,0,0.2c-1.2,0-2.3,0-3.5,0c-0.1,0-0.2,0-0.2-0.2
			c0-2.5,0-4.9,0-7.4C5,34,6.3,34,7.5,34z"/>
		<path class="st2" d="M7.5,45.3c1.2,0,2.4,0,3.5,0c0.2,0,0.2,0,0.2,0.2c0,1.1,0,2.2,0,3.4c0,0.2,0,0.2-0.2,0.2c-1.1,0-2.2,0-3.4,0
			c-0.1,0-0.2,0-0.2-0.2C7.5,47.7,7.5,46.5,7.5,45.3L7.5,45.3z"/>
		<path d="M18.7,3.9c6.6,0,13.3,0,19.9,0c0.9,0,1.7,0,2.6,0c0,1.2,0,2.5,0,3.7l0,0c-2.4,0-4.9,0-7.3,0c-0.2,0-0.2,0-0.2,0.2
			c0,1.2,0,2.4,0,3.6c-2.5,0-5,0-7.5,0c0-1.2,0-2.4,0-3.5c0-0.2-0.1-0.2-0.2-0.2c-2.4,0-4.8,0-7.3,0l0,0C18.7,6.4,18.7,5.1,18.7,3.9
			z"/>
		<path d="M3.8,22.7c0-0.1,0-0.2,0-0.3c0-6.1,0-12.2,0-18.3c0-0.3,0-0.3,0.3-0.3c1.1,0,2.3,0,3.4,0c0,2.5,0,5,0,7.5
			c0,1.2,0,2.4,0,3.5c0,0.2,0,0.2,0.2,0.2c1.2,0,2.3,0,3.5,0c0,1.3,0,2.5,0,3.8c-1.2,0-2.4,0-3.5,0c-0.2,0-0.2,0-0.2,0.2
			c0,1.2,0,2.4,0,3.5c-0.7,0-1.4,0-2.1,0C4.8,22.7,4.3,22.7,3.8,22.7z"/>
		<path class="st4" d="M11.2,11.4c0-1.2,0-2.4,0-3.6c0-0.2,0-0.2,0.2-0.2c2.4,0,4.9,0,7.3,0c0,0,0,0,0,0c0,1.3,0,2.5,0,3.8l0,0
			c-0.1,0-0.3,0-0.4,0c-1.1,0-2.2,0-3.3,0c-0.1,0-0.2,0-0.2,0C13.6,11.4,12.4,11.4,11.2,11.4z"/>
		<path class="st2" d="M11.2,11.4c1.2,0,2.4,0,3.5,0c0.1,0,0.2,0,0.2,0c0,1.2,0,2.5,0,3.7c-0.2,0-0.3,0-0.5,0c-1.1,0-2.2,0-3.3,0
			c-1.2,0-2.3,0-3.5,0c-0.2,0-0.2,0-0.2-0.2c0-1.2,0-2.4,0-3.5C8.7,11.4,10,11.4,11.2,11.4z"/>
		<path d="M52.4,3.9c1.2,0,2.4,0,3.6,0c0.2,0,0.2,0,0.2,0.2c0,6.2,0,12.4,0,18.6c-1.3,0-2.5,0-3.8,0c0-1.2,0-2.4,0-3.6
			c0-0.1,0-0.2-0.2-0.2c-1.2,0-2.4,0-3.5,0c0-1.3,0-2.5,0-3.8c0.1,0,0.1,0,0.2,0c1.1,0,2.2,0,3.3,0c0.1,0,0.2,0,0.2-0.1
			c0-1.2,0-2.4,0-3.6c0-0.3,0-0.6,0-0.9C52.4,8.3,52.4,6.1,52.4,3.9z"/>
		<path class="st4" d="M41.2,7.6c2.4,0,4.9,0,7.3,0c0.2,0,0.2,0.1,0.2,0.2c0,1.2,0,2.4,0,3.6c-0.1,0-0.2,0-0.2,0c-1.2,0-2.3,0-3.5,0
			c-0.1,0-0.1,0-0.2,0c-1.2,0-2.4,0-3.6,0l0,0C41.2,10.1,41.2,8.9,41.2,7.6L41.2,7.6z"/>
		<path class="st2" d="M45,11.4c1.2,0,2.3,0,3.5,0c0.1,0,0.2,0,0.2,0c1.2,0,2.5,0,3.7,0c0,1.2,0,2.4,0,3.6c0,0.2-0.1,0.1-0.2,0.1
			c-1.1,0-2.2,0-3.3,0c-0.1,0-0.1,0-0.2,0c-0.1,0-0.2,0-0.3,0c-1.1,0-2.3,0-3.4,0C45,13.9,45,12.7,45,11.4z"/>
		<path class="st2" d="M56.2,34c-1.3,0-2.5,0-3.8,0c0-1.2,0-2.5,0-3.7c1.3,0,2.5,0,3.8,0C56.2,31.5,56.2,32.7,56.2,34z"/>
		<path class="st2" d="M7.5,34c-1.2,0-2.5,0-3.7,0c0-1.2,0-2.3,0-3.5c0-0.1,0-0.2,0-0.3c1.2,0,2.4,0,3.7,0C7.5,31.5,7.5,32.7,7.5,34
			z"/>
		<path class="st3" d="M52.4,22.7c1.3,0,2.5,0,3.8,0c0,1.2,0,2.5,0,3.7c-1.3,0-2.5,0-3.8,0l0,0C52.4,25.2,52.4,23.9,52.4,22.7
			L52.4,22.7z"/>
		<path class="st3" d="M52.4,30.2c-1.2,0-2.4,0-3.5,0c-0.1,0-0.2,0-0.2-0.2c0-1.2,0-2.4,0-3.6l0,0c1.2,0,2.5,0,3.7,0l0,0
			C52.4,27.7,52.4,29,52.4,30.2z"/>
		<path class="st3" d="M11.2,26.4c0,1.2,0,2.4,0,3.6c0,0.2,0,0.2-0.2,0.2c-1.2,0-2.4,0-3.5,0c0-1.3,0-2.5,0-3.8l0,0
			C8.7,26.4,10,26.4,11.2,26.4L11.2,26.4z"/>
		<path class="st3" d="M3.8,22.7c0.5,0,1,0,1.5,0c0.7,0,1.4,0,2.1,0l0,0c0,1.2,0,2.5,0,3.7l0,0c-1.2,0-2.4,0-3.7,0
			c0-0.3,0-0.6,0-0.9C3.8,24.6,3.8,23.7,3.8,22.7z"/>
		<path class="st0" d="M45,15.2c1.1,0,2.3,0,3.4,0c0.1,0,0.2,0,0.3,0c0,1.3,0,2.5,0,3.8c0,1.2,0,2.5,0,3.7c-1.2,0-2.4,0-3.5,0
			c-0.2,0-0.2,0-0.2,0.2c0,1.2,0,2.4,0,3.5l0,0c-1.2,0-2.4,0-3.6,0c-0.2,0-0.2,0-0.2-0.2c0-3.7,0-7.4,0-11.1l0,0
			C42.4,15.2,43.7,15.2,45,15.2z"/>
		<path class="st0" d="M11.2,15.2c1.1,0,2.2,0,3.3,0c0.2,0,0.3,0,0.5,0c1.2,0,2.5,0,3.7,0l0,0c0,3.7,0,7.4,0,11.1
			c0,0.2,0,0.2-0.2,0.2c-1.2,0-2.4,0-3.5,0l0,0c0-1.2,0-2.4,0-3.6c0-0.1,0-0.2-0.2-0.2c-1.2,0-2.4,0-3.6,0c0-1.2,0-2.5,0-3.7
			C11.2,17.7,11.2,16.4,11.2,15.2z"/>
		<path d="M37.5,15.2c0,1.2,0,2.4,0,3.6c0,0.1,0,0.2-0.2,0.2c-0.6,0-1.3,0-1.9,0c-4.2,0-8.5,0-12.7,0c-0.2,0-0.2,0-0.2-0.2
			c0-1.2,0-2.4,0-3.6l0,0c0.1,0,0.3,0,0.4,0c1.1,0,2.2,0,3.3,0c0.1,0,0.1,0,0.2,0c2.1,0,4.3,0,6.4,0c0.3,0,0.6,0,0.9,0
			c0.1,0,0.1,0,0.2,0C35.1,15.2,36.3,15.2,37.5,15.2L37.5,15.2z"/>
		<path d="M18.8,0c0,1.2,0,2.4,0,3.6c0,0.1,0,0.2-0.1,0.2c-0.5,0-1,0-1.4,0c-3.2,0-6.4,0-9.6,0c-0.1,0-0.2,0-0.2-0.2
			c0-1.2,0-2.4,0-3.6l0,0c0.1,0,0.2,0,0.3,0c0.8,0,1.7,0,2.5,0c0.1,0,0.1,0,0.2,0c1.6,0,3.2,0,4.9,0c0.2,0,0.4,0,0.7,0
			c0.1,0,0.1,0,0.2,0C17,0,17.9,0,18.8,0L18.8,0z"/>
		<path d="M52.6,0c0,1.2,0,2.4,0,3.6c0,0.1,0,0.2-0.1,0.2c-0.5,0-1,0-1.4,0c-3.2,0-6.4,0-9.6,0c-0.1,0-0.2,0-0.2-0.2
			c0-1.2,0-2.4,0-3.6l0,0c0.1,0,0.2,0,0.3,0c0.8,0,1.7,0,2.5,0c0.1,0,0.1,0,0.2,0c1.6,0,3.2,0,4.9,0c0.2,0,0.4,0,0.7,0
			c0.1,0,0.1,0,0.2,0C50.8,0,51.7,0,52.6,0L52.6,0z"/>
		<path d="M11.3,56.2c0,1.2,0,2.4,0,3.6c0,0.1,0,0.2-0.1,0.2c-0.3,0-0.6,0-1,0c-2.1,0-4.3,0-6.4,0c-0.1,0-0.1,0-0.1-0.2
			c0-1.2,0-2.4,0-3.6l0,0c0.1,0,0.1,0,0.2,0c0.6,0,1.1,0,1.7,0c0,0,0.1,0,0.1,0c1.1,0,2.2,0,3.2,0c0.1,0,0.3,0,0.4,0
			c0,0,0.1,0,0.1,0C10.1,56.2,10.7,56.2,11.3,56.2L11.3,56.2z"/>
		<path d="M56.2,56.2c0,1.2,0,2.4,0,3.6c0,0.1,0,0.2-0.1,0.2c-0.3,0-0.6,0-1,0c-2.1,0-4.3,0-6.4,0c-0.1,0-0.1,0-0.1-0.2
			c0-1.2,0-2.4,0-3.6l0,0c0.1,0,0.1,0,0.2,0c0.6,0,1.1,0,1.7,0c0,0,0.1,0,0.1,0c1.1,0,2.2,0,3.2,0c0.1,0,0.3,0,0.4,0
			c0,0,0.1,0,0.1,0C55,56.2,55.6,56.2,56.2,56.2L56.2,56.2z"/>
		<path d="M60,56.3c-1.2,0-2.4,0-3.6,0c-0.1,0-0.2,0-0.2-0.1c0-0.5,0-0.9,0-1.4c0-3.1,0-6.2,0-9.3c0-0.1,0-0.2,0.2-0.2
			c1.2,0,2.4,0,3.6,0l0,0c0,0.1,0,0.2,0,0.3c0,0.8,0,1.6,0,2.4c0,0.1,0,0.1,0,0.2c0,1.6,0,3.1,0,4.7c0,0.2,0,0.4,0,0.6
			c0,0.1,0,0.1,0,0.2C60,54.5,60,55.4,60,56.3L60,56.3z"/>
		<path d="M3.8,56.3c-1.2,0-2.4,0-3.6,0c-0.1,0-0.2,0-0.2-0.1c0-0.5,0-0.9,0-1.4c0-3.1,0-6.2,0-9.3c0-0.1,0-0.2,0.2-0.2
			c1.2,0,2.4,0,3.6,0l0,0c0,0.1,0,0.2,0,0.3c0,0.8,0,1.6,0,2.4c0,0.1,0,0.1,0,0.2c0,1.6,0,3.1,0,4.7c0,0.2,0,0.4,0,0.6
			c0,0.1,0,0.1,0,0.2C3.8,54.5,3.8,55.4,3.8,56.3L3.8,56.3z"/>
		<path d="M3.8,33.9c-1.2,0-2.4,0-3.6,0C0,34,0,33.9,0,33.8c0-0.5,0-1,0-1.4c0-3.2,0-6.4,0-9.6c0-0.1,0-0.2,0.2-0.2
			c1.2,0,2.4,0,3.6,0l0,0c0,0.1,0,0.2,0,0.3c0,0.8,0,1.7,0,2.5c0,0.1,0,0.1,0,0.2c0,1.6,0,3.2,0,4.8c0,0.2,0,0.4,0,0.7
			c0,0.1,0,0.1,0,0.2C3.8,32.2,3.8,33.1,3.8,33.9L3.8,33.9z"/>
		<path d="M59.9,34c-1.2,0-2.4,0-3.6,0c-0.1,0-0.2,0-0.2-0.1c0-0.5,0-1,0-1.4c0-3.2,0-6.4,0-9.6c0-0.1,0-0.2,0.2-0.2
			c1.2,0,2.4,0,3.6,0l0,0c0,0.1,0,0.2,0,0.3c0,0.8,0,1.7,0,2.5c0,0.1,0,0.1,0,0.2c0,1.6,0,3.2,0,4.9c0,0.2,0,0.4,0,0.7
			c0,0.1,0,0.1,0,0.2C59.9,32.2,59.9,33.1,59.9,34L59.9,34z"/>
		<path class="st4" d="M26.2,30.2c2.5,0,5,0,7.5,0l0,0c0,1.3,0,2.5,0,3.8l0,0c-2.5,0-5,0-7.5,0l0,0C26.2,32.7,26.2,31.5,26.2,30.2
			L26.2,30.2z"/>
		<path class="st4" d="M33.7,34c1.2,0,2.4,0,3.6,0c0.1,0,0.2,0,0.2,0.2c0,1.2,0,2.3,0,3.5c0,0.1,0,0.2-0.2,0.2c-1.2,0-2.3,0-3.5,0
			c-0.1,0-0.2,0-0.2-0.2C33.7,36.4,33.7,35.2,33.7,34L33.7,34z"/>
		<path class="st4" d="M33.7,30.2c0-1.2,0-2.4,0-3.6c0-0.1,0-0.2,0.2-0.2c1.2,0,2.3,0,3.5,0c0.1,0,0.2,0,0.2,0.2c0,1.2,0,2.3,0,3.5
			c0,0.1,0,0.2-0.2,0.2C36.1,30.2,34.9,30.2,33.7,30.2L33.7,30.2z"/>
		<path class="st4" d="M26.2,30.2c-1.2,0-2.4,0-3.6,0c-0.1,0-0.2,0-0.2-0.2c0-1.2,0-2.3,0-3.5c0-0.1,0-0.2,0.2-0.2
			c1.1,0,2.3,0,3.4,0c0.1,0,0.2,0,0.2,0.2C26.2,27.8,26.2,29,26.2,30.2L26.2,30.2z"/>
		<path class="st0" d="M22.5,15.2c-1.3,0-2.5,0-3.8,0l0,0c0-1.3,0-2.5,0-3.8l0,0c0.1,0,0.3,0,0.4,0c1.1,0,2.3,0,3.4,0
			C22.5,12.7,22.5,13.9,22.5,15.2L22.5,15.2z"/>
		<path class="st4" d="M26.2,34c0,1.2,0,2.4,0,3.6c0,0.1,0,0.2-0.2,0.2c-1.1,0-2.3,0-3.4,0c-0.1,0-0.2,0-0.2-0.2c0-1.2,0-2.3,0-3.5
			c0-0.1,0-0.2,0.2-0.2C23.8,34,25,34,26.2,34L26.2,34z"/>
		<path d="M45,30.2c0,1.2,0,2.5,0,3.7c-1.2,0-2.4,0-3.6,0c-0.1,0-0.1,0-0.1-0.1c0-1.2,0-2.3,0-3.5c0-0.2,0.1-0.1,0.2-0.1
			c1.1,0,2.3,0,3.4,0C44.9,30.2,44.9,30.2,45,30.2z"/>
		<path d="M15,34c0-1.2,0-2.5,0-3.7c1.2,0,2.4,0,3.5,0c0.2,0,0.2,0,0.2,0.2c0,1.1,0,2.2,0,3.4c0,0.1,0,0.2-0.1,0.2
			C17.4,34,16.2,34,15,34z"/>
		<path class="st0" d="M41.2,15.2c-1.2,0-2.5,0-3.7,0l0,0c0-1.2,0-2.5,0-3.7c0.1,0,0.2,0,0.2,0c1.2,0,2.3,0,3.5,0l0,0
			C41.2,12.7,41.2,13.9,41.2,15.2L41.2,15.2z"/>
		<path class="st3" d="M45,26.4c0-1.2,0-2.4,0-3.5c0-0.2,0-0.2,0.2-0.2c1.2,0,2.4,0,3.5,0l0,0c0,1.2,0,2.5,0,3.7l0,0
			C47.4,26.4,46.2,26.4,45,26.4z"/>
		<path class="st3" d="M11.2,22.7c1.2,0,2.4,0,3.6,0c0.1,0,0.2,0,0.2,0.2c0,1.2,0,2.4,0,3.6c-1.3,0-2.5,0-3.8,0l0,0
			C11.2,25.2,11.2,23.9,11.2,22.7L11.2,22.7z"/>
		<path class="st2" d="M22.5,11.4c-1.1,0-2.3,0-3.4,0c-0.1,0-0.3,0-0.4,0c0-1.3,0-2.5,0-3.8c2.4,0,4.8,0,7.3,0c0.2,0,0.2,0,0.2,0.2
			c0,1.2,0,2.4,0,3.5l0,0C25,11.4,23.7,11.4,22.5,11.4z"/>
		<path class="st2" d="M41.2,11.4c-1.2,0-2.3,0-3.5,0c-0.1,0-0.2,0-0.2,0c-1.3,0-2.5,0-3.8,0l0,0c0-1.2,0-2.4,0-3.6
			c0-0.2,0-0.2,0.2-0.2c2.4,0,4.9,0,7.3,0C41.2,8.9,41.2,10.1,41.2,11.4z"/>
		<path class="st0" d="M33.7,15.2c-0.3,0-0.6,0-0.9,0c-2.1,0-4.3,0-6.4,0c-0.1,0-0.1,0-0.2,0c0-1.2,0-2.5,0-3.7l0,0c2.5,0,5,0,7.5,0
			c0,0,0,0,0,0C33.7,12.7,33.7,13.9,33.7,15.2z"/>
		<path class="st3" d="M11.2,18.9c0,1.2,0,2.5,0,3.7l0,0c-1.2,0-2.5,0-3.7,0l0,0c0-1.2,0-2.4,0-3.5c0-0.2,0-0.2,0.2-0.2
			C8.9,19,10,18.9,11.2,18.9z"/>
		<path class="st3" d="M18.7,11.4c0,1.3,0,2.5,0,3.8c-1.2,0-2.5,0-3.7,0c0-1.2,0-2.5,0-3.7c1.1,0,2.2,0,3.3,0
			C18.4,11.4,18.6,11.4,18.7,11.4z"/>
		<path class="st3" d="M48.7,22.7c0-1.2,0-2.5,0-3.7c1.2,0,2.4,0,3.5,0c0.1,0,0.2,0,0.2,0.2c0,1.2,0,2.4,0,3.6l0,0
			C51.2,22.7,49.9,22.7,48.7,22.7L48.7,22.7z"/>
		<path class="st3" d="M41.2,15.2c0-1.3,0-2.5,0-3.8c1.2,0,2.4,0,3.6,0c0.1,0,0.1,0,0.2,0c0,1.2,0,2.5,0,3.7
			C43.7,15.2,42.4,15.2,41.2,15.2z"/>
		<path class="st0" d="M48.7,22.7c1.2,0,2.5,0,3.7,0c0,1.2,0,2.5,0,3.7c-1.2,0-2.5,0-3.7,0C48.7,25.2,48.7,23.9,48.7,22.7z"/>
		<path class="st0" d="M7.5,22.7c1.2,0,2.5,0,3.7,0c0,1.2,0,2.5,0,3.7c-1.2,0-2.5,0-3.7,0C7.5,25.2,7.5,23.9,7.5,22.7z"/>
		<path class="st3" d="M33.7,15.2c0-1.2,0-2.5,0-3.7c1.3,0,2.5,0,3.8,0c0,1.2,0,2.5,0,3.7c-1.2,0-2.4,0-3.6,0
			C33.8,15.2,33.8,15.2,33.7,15.2z"/>
		<path class="st3" d="M26.2,11.4c0,1.2,0,2.5,0,3.7c-1.1,0-2.2,0-3.3,0c-0.1,0-0.3,0-0.4,0c0-1.2,0-2.5,0-3.7
			C23.7,11.4,25,11.4,26.2,11.4z"/>
	</g>
	<rect x="3.7" y="45.3" class="st0" width="3.7" height="7.5"/>
</g>
</svg>
