<?xml version="1.0" encoding="utf-8"?>
<!-- Generator: Adobe Illustrator 25.4.0, SVG Export Plug-In . SVG Version: 6.00 Build 0)  -->
<svg version="1.1" id="Layer_1" xmlns="http://www.w3.org/2000/svg" xmlns:xlink="http://www.w3.org/1999/xlink" x="0px" y="0px"
	 viewBox="0 0 60 60" style="enable-background:new 0 0 60 60;" xml:space="preserve">
<style type="text/css">
	.st0{fill:#3854FE;}
	.st1{fill:#B8C2FE;}
	.st2{fill:#FED30B;}
	.st3{fill:#36FEDE;}
	.st4{fill:#FE9431;}
</style>
<g>
	<path d="M25.7,4.1c0-1.4,0-2.7,0-4.1c2.9,0,5.7,0,8.6,0c0,1.4,0,2.7,0,4.1l0,0C31.4,4.1,28.5,4.1,25.7,4.1L25.7,4.1z"/>
	<path d="M34.3,60c0-1.4,0-2.8,0-4.2l0,0c1.4,0,2.9,0,4.3,0l0,0c0,1.4,0,2.8,0,4.2C37.1,60,35.7,60,34.3,60z"/>
	<path d="M25.7,55.8c0,1.4,0,2.8,0,4.2c-1.4,0-2.9,0-4.3,0c0-1.4,0-2.8,0-4.2l0,0C22.8,55.8,24.2,55.8,25.7,55.8L25.7,55.8z"/>
	<path d="M60,34.2c-1.4,0-2.8,0-4.2,0l0,0c0-1.4,0-2.9,0-4.3c1.4,0,2.8,0,4.2,0C60,31.4,60,32.8,60,34.2z"/>
	<path d="M55.8,38.5c1.4,0,2.8,0,4.2,0c0,1.4,0,2.9,0,4.3c-1.4,0-2.8,0-4.2,0l0,0C55.8,41.4,55.8,40,55.8,38.5L55.8,38.5z"/>
	<path d="M55.8,21.3c1.4,0,2.8,0,4.2,0c0,1.4,0,2.9,0,4.3c-1.4,0-2.8,0-4.2,0C55.8,24.2,55.8,22.7,55.8,21.3L55.8,21.3z"/>
	<path d="M4.1,42.8c-1.4,0-2.7,0-4.1,0c0-1.4,0-2.9,0-4.3c1.4,0,2.7,0,4.1,0C4.1,40,4.1,41.4,4.1,42.8L4.1,42.8z"/>
	<path d="M4.1,34.2c-1.4,0-2.7,0-4.1,0c0-1.4,0-2.9,0-4.3c1.4,0,2.7,0,4.1,0C4.1,31.4,4.1,32.8,4.1,34.2L4.1,34.2z"/>
	<path d="M4.1,25.6c-1.4,0-2.7,0-4.1,0c0-1.4,0-2.9,0-4.3c1.4,0,2.7,0,4.1,0l0,0C4.1,22.7,4.1,24.2,4.1,25.6L4.1,25.6z"/>
	<path d="M34.3,4.1c1.4,0,2.8,0,4.2,0c0.1,0,0.2,0,0.2,0.1c0,2.8,0,5.7,0,8.5l0,0c-1.4,0-2.9,0-4.3,0c0-0.1,0-0.1,0-0.2
		C34.3,9.7,34.3,6.9,34.3,4.1L34.3,4.1z"/>
	<path d="M38.6,12.7c2.6,0,5.1,0,7.7,0c0.3,0,0.6,0,0.9,0l0,0c0,1.4,0,2.9,0,4.3c-0.4,0-0.7,0-1.1,0c-1.1,0-2.1,0-3.2,0
		c-0.1,0-0.2,0-0.3,0c-1.3,0-2.7,0-4,0C38.6,15.6,38.6,14.1,38.6,12.7L38.6,12.7z"/>
	<path d="M51.5,12.7c1.4,0,2.8,0,4.1,0c0.1,0,0.2,0,0.2,0.2c0,2.8,0,5.6,0,8.4l0,0c-1.4,0-2.9,0-4.3,0c0-0.4,0-0.8,0-1.1
		c0-1.1,0-2.1,0-3.2C51.5,15.6,51.5,14.1,51.5,12.7L51.5,12.7z"/>
	<path d="M47.2,12.7c0-1.4,0-2.8,0-4.1c0-0.1,0-0.2,0.2-0.2c1.3,0,2.6,0,4,0c0.1,0,0.2,0,0.2,0.2c0,1.4,0,2.8,0,4.1l0,0
		C50.1,12.7,48.6,12.7,47.2,12.7L47.2,12.7z"/>
	<path d="M21.3,12.7c0-2.8,0-5.7,0-8.5c0-0.1,0-0.1,0.2-0.1c1.4,0,2.8,0,4.2,0l0,0c0,2.8,0,5.6,0,8.4c0,0.1,0,0.1,0,0.2
		C24.2,12.7,22.8,12.7,21.3,12.7L21.3,12.7z"/>
	<path d="M4.1,21.3c0-2.8,0-5.6,0-8.4c0-0.2,0-0.2,0.2-0.2c1.4,0,2.7,0,4.1,0l0,0c0,0.4,0,0.7,0,1.1c0,1.1,0,2.1,0,3.2
		c0,0.1,0,0.1,0,0.2c0,1.4,0,2.7,0,4.1C7,21.3,5.5,21.3,4.1,21.3L4.1,21.3z"/>
	<path d="M12.7,12.7c2.8,0,5.6,0,8.4,0c0.1,0,0.1,0,0.2,0l0,0c0,1.4,0,2.9,0,4.3c-0.4,0-0.8,0-1.2,0c-1,0-2.1,0-3.1,0
		c-0.1,0-0.1,0-0.2,0c-1.4,0-2.7,0-4.1,0l0,0C12.7,15.6,12.7,14.1,12.7,12.7L12.7,12.7z"/>
	<path d="M8.4,12.7c0-1.4,0-2.8,0-4.1c0-0.1,0-0.2,0.2-0.2c1.3,0,2.6,0,4,0c0.1,0,0.2,0,0.2,0.2c0,1.4,0,2.8,0,4.1l0,0
		C11.3,12.7,9.9,12.7,8.4,12.7L8.4,12.7z"/>
	<path d="M17,51.5c-1.4,0-2.8,0-4.1,0c-0.1,0-0.2,0-0.2-0.2c0-1.3,0-2.6,0-4c0-0.1,0-0.2-0.2-0.2c-2.8,0-5.5,0-8.3,0
		c-0.2,0-0.2,0-0.2-0.2c0-1.4,0-2.7,0-4.1l0,0c0.4,0,0.7,0,1.1,0c1.1,0,2.2,0,3.2,0c0.4,0,0.8,0,1.1,0c1.1,0,2.1,0,3.2,0
		c1.3,0,2.5,0,3.8,0c0.2,0,0.4,0.1,0.5,0c0.1-0.1,0-0.3,0-0.5c0-1.3,0-2.5,0-3.8c0-0.4,0-0.8,0-1.2c0-1,0-2.1,0-3.1
		c0-0.2,0-0.5,0-0.7c0-1.2,0-2.4,0-3.6c0-0.2,0-0.4,0-0.6c0-1.2,0-2.5,0-3.7c0.4,0,0.7,0,1.1,0c1.1,0,2.1,0,3.2,0c0.3,0,0.6,0,0.8,0
		c1.2,0,2.3,0,3.5,0c0,0,0.1,0,0.1,0c2.8,0,5.6,0,8.4,0c0,0,0.1,0,0.1,0c0.2,0,0.5,0,0.7,0c1.2,0,2.4,0,3.6,0c0.1,0,0.1,0,0.2,0
		c1.4,0,2.7,0,4.1,0c0,0.3,0,0.5,0,0.8c0,1.2,0,2.4,0,3.6c0,0.3,0,0.5,0,0.8c0,1.2,0,2.4,0,3.5c0,0.2,0,0.4,0,0.7c0,1.2,0,2.4,0,3.7
		c0,1.3,0,2.5,0,3.8c0,0.2-0.1,0.4,0,0.5c0.1,0.1,0.3,0,0.5,0c1.3,0,2.5,0,3.8,0c0.3,0,0.7,0,1,0c1.1,0,2.2,0,3.3,0
		c1.4,0,2.9,0,4.3,0l0,0c0,1.4,0,2.8,0,4.1c0,0.1,0,0.2-0.2,0.2c-2.8,0-5.5,0-8.3,0c-0.2,0-0.2,0-0.2,0.2c0,1.3,0,2.6,0,4
		c0,0.1,0,0.2-0.2,0.2c-1.4,0-2.8,0-4.1,0l0,0c0-1.4,0-2.8,0-4.2c0-0.1,0-0.2-0.1-0.2c-1.4,0-2.8,0-4.2,0c0-2.8,0-5.6,0-8.4
		c0-0.2,0-0.2-0.2-0.2c-3.5,0-7,0-10.4,0c-2.1,0-4.3,0-6.4,0c-0.1,0-0.2,0-0.2,0.1c0,2.8,0,5.7,0,8.5c-1.4,0-2.8,0-4.1,0
		c-0.1,0-0.2,0-0.2,0.2C17,48.7,17,50.1,17,51.5L17,51.5z M25.7,32.1c0-0.7,0-1.4,0-2c0-0.1,0-0.1-0.1-0.1c-1.3,0-2.7,0-4,0
		c-0.1,0-0.1,0-0.1,0.1c0,1.3,0,2.7,0,4c0,0.1,0,0.1,0.1,0.1c1.3,0,2.7,0,4,0c0.1,0,0.1,0,0.1-0.1C25.7,33.4,25.7,32.8,25.7,32.1z
		 M34.3,32.1c0,0.7,0,1.3,0,2c0,0.1,0,0.1,0.1,0.1c1.3,0,2.7,0,4,0c0.1,0,0.1,0,0.1-0.1c0-1.3,0-2.7,0-4c0-0.1,0-0.1-0.1-0.1
		c-1.3,0-2.7,0-4,0c-0.1,0-0.1,0-0.1,0.1C34.3,30.7,34.3,31.4,34.3,32.1z"/>
	<path d="M42.9,51.5c0,1.4,0,2.8,0,4.1c0,0.1,0,0.2-0.2,0.2c-1.4,0-2.8,0-4.1,0l0,0c0-1.4,0-2.9,0-4.3C40,51.5,41.5,51.5,42.9,51.5
		L42.9,51.5z"/>
	<path d="M21.3,55.8c-1.4,0-2.8,0-4.1,0c-0.1,0-0.2,0-0.2-0.2c0-1.4,0-2.8,0-4.1l0,0c1.4,0,2.9,0,4.3,0
		C21.3,52.9,21.3,54.3,21.3,55.8L21.3,55.8z"/>
	<path d="M34.3,55.8c-2.9,0-5.7,0-8.6,0l0,0c0-1.4,0-2.9,0-4.3c2.9,0,5.7,0,8.6,0C34.3,52.9,34.3,54.3,34.3,55.8L34.3,55.8z"/>
	<path class="st0" d="M25.7,12.7c0-0.1,0-0.1,0-0.2c0-2.8,0-5.6,0-8.4c2.9,0,5.7,0,8.6,0c0,2.8,0,5.6,0,8.4c0,0.1,0,0.1,0,0.2
		c0,0.1,0,0.1,0,0.2c0,1.4,0,2.8,0,4.1c0,0-0.1,0-0.1,0c-2.8,0-5.6,0-8.4,0c0,0-0.1,0-0.1,0c0-0.4,0-0.8,0-1.1
		C25.7,14.8,25.7,13.7,25.7,12.7z"/>
	<path class="st0" d="M34.3,55.8c0-1.4,0-2.9,0-4.3l0,0c1.4,0,2.9,0,4.3,0l0,0c0,1.4,0,2.9,0,4.3C37.1,55.8,35.7,55.8,34.3,55.8z"/>
	<path class="st0" d="M25.7,51.5c0,1.4,0,2.9,0,4.3c-1.4,0-2.9,0-4.3,0c0-1.4,0-2.9,0-4.3l0,0C22.8,51.5,24.2,51.5,25.7,51.5
		L25.7,51.5z"/>
	<path d="M55.8,34.2c0,1.4,0,2.9,0,4.3l0,0c-0.4,0-0.7,0-1.1,0c-1.1,0-2.2,0-3.2,0c-0.1,0-0.1,0-0.2,0c-1.4,0-2.8,0-4.1,0l0,0
		c0-1.4,0-2.9,0-4.3c0.3,0,0.5,0,0.8,0c1.2,0,2.4,0,3.5,0c0.1,0,0.1,0,0.2,0C53.1,34.2,54.5,34.2,55.8,34.2L55.8,34.2z"/>
	<path class="st1" d="M55.8,34.2c-1.4,0-2.8,0-4.1,0c-0.1,0-0.1,0-0.2,0c0-1.4,0-2.9,0-4.3l0,0c1.4,0,2.9,0,4.3,0c0,0,0,0,0,0
		C55.8,31.4,55.8,32.8,55.8,34.2z"/>
	<path class="st0" d="M51.5,38.5c1.1,0,2.2,0,3.2,0c0.4,0,0.7,0,1.1,0c0,1.4,0,2.9,0,4.3c-1.4,0-2.9,0-4.3,0
		C51.5,41.4,51.5,40,51.5,38.5z"/>
	<path class="st0" d="M51.5,21.3c1.4,0,2.9,0,4.3,0c0,1.4,0,2.9,0,4.3l0,0c-1.4,0-2.9,0-4.3,0l0,0c0-0.7,0-1.4,0-2
		C51.5,22.8,51.5,22.1,51.5,21.3L51.5,21.3z"/>
	<path d="M51.5,25.6c1.4,0,2.9,0,4.3,0c0,1.4,0,2.9,0,4.3c-1.4,0-2.9,0-4.3,0C51.5,28.5,51.5,27,51.5,25.6z"/>
	<path class="st0" d="M8.4,42.8c-1.1,0-2.2,0-3.2,0c-0.4,0-0.7,0-1.1,0c0-1.4,0-2.9,0-4.3l0,0c0.4,0,0.7,0,1.1,0c1.1,0,2.1,0,3.2,0
		C8.4,40,8.4,41.4,8.4,42.8z"/>
	<path d="M8.4,38.5c-1.1,0-2.1,0-3.2,0c-0.4,0-0.7,0-1.1,0c0-1.4,0-2.9,0-4.3l0,0c0.4,0,0.8,0,1.2,0c1,0,2.1,0,3.1,0
		c0.3,0,0.5,0,0.8,0c1.2,0,2.3,0,3.5,0c0,1.4,0,2.9,0,4.3c-0.4,0-0.7,0-1.1,0C10.5,38.5,9.5,38.5,8.4,38.5z"/>
	<path class="st1" d="M8.4,34.2c-1,0-2.1,0-3.1,0c-0.4,0-0.8,0-1.2,0c0-1.4,0-2.9,0-4.3l0,0c1.4,0,2.9,0,4.3,0l0,0
		C8.4,31.4,8.4,32.8,8.4,34.2z"/>
	<path d="M8.4,29.9c-1.4,0-2.9,0-4.3,0c0-1.4,0-2.9,0-4.3l0,0c1.4,0,2.9,0,4.3,0C8.4,27,8.4,28.5,8.4,29.9z"/>
	<path class="st0" d="M8.4,25.6c-1.4,0-2.9,0-4.3,0c0-1.4,0-2.9,0-4.3c1.4,0,2.9,0,4.3,0l0,0c0,1,0,1.9,0,2.9
		C8.4,24.7,8.4,25.1,8.4,25.6L8.4,25.6z"/>
	<path class="st2" d="M34.3,17c0-1.4,0-2.8,0-4.1c0-0.1,0-0.1,0-0.2c1.4,0,2.9,0,4.3,0c0,1.4,0,2.9,0,4.3c0,0-0.1,0-0.1,0
		C37.1,17,35.7,17,34.3,17z"/>
	<path class="st3" d="M34.3,17c1.4,0,2.8,0,4.2,0c0,0,0.1,0,0.1,0c1.3,0,2.7,0,4,0c0.1,0,0.2,0,0.3,0c0,1.4,0,2.9,0,4.3l0,0
		c-0.4,0-0.8,0-1.1,0c-1.1,0-2.1,0-3.2,0c-0.1,0-0.2,0-0.3,0c-1.3,0-2.7,0-4,0c0,0-0.1,0-0.1,0c-2.8,0-5.6,0-8.4,0c0,0-0.1,0-0.1,0
		c-0.1,0-0.2,0-0.3,0c-1.3,0-2.7,0-4,0c-1.4,0-2.9,0-4.3,0l0,0c0-1.4,0-2.9,0-4.3c1,0,2.1,0,3.1,0c0.4,0,0.8,0,1.2,0
		c0.1,0,0.2,0,0.3,0c1.3,0,2.7,0,4,0c0,0,0.1,0,0.1,0c2.8,0,5.6,0,8.4,0C34.2,17,34.2,17,34.3,17z"/>
	<path class="st0" d="M42.9,21.3c0-1.4,0-2.9,0-4.3c1.1,0,2.1,0,3.2,0c0.4,0,0.7,0,1.1,0l0,0c0,1.4,0,2.9,0,4.3
		C45.8,21.3,44.3,21.3,42.9,21.3z"/>
	<path class="st0" d="M47.2,12.7c1.4,0,2.9,0,4.3,0c0,1.4,0,2.9,0,4.3c-1.4,0-2.9,0-4.3,0l0,0C47.2,15.6,47.2,14.1,47.2,12.7z"/>
	<path class="st3" d="M47.2,17c1.4,0,2.9,0,4.3,0c0,1.1,0,2.1,0,3.2c0,0.4,0,0.8,0,1.1l0,0c-1.4,0-2.9,0-4.3,0l0,0
		C47.2,19.9,47.2,18.4,47.2,17z"/>
	<path class="st2" d="M25.7,17c-1.3,0-2.7,0-4,0c-0.1,0-0.2,0-0.3,0c0-1.4,0-2.9,0-4.3c1.4,0,2.9,0,4.3,0c0,1.1,0,2.1,0,3.2
		C25.7,16.2,25.7,16.6,25.7,17z"/>
	<path class="st3" d="M8.4,21.3c0-1.4,0-2.7,0-4.1c0-0.1,0-0.1,0-0.2c1.4,0,2.9,0,4.3,0l0,0c0,1.4,0,2.9,0,4.3l0,0
		C11.3,21.3,9.9,21.3,8.4,21.3L8.4,21.3z"/>
	<path class="st0" d="M12.7,17c-1.4,0-2.9,0-4.3,0c0-1.1,0-2.1,0-3.2c0-0.4,0-0.7,0-1.1c1.4,0,2.9,0,4.3,0
		C12.7,14.1,12.7,15.6,12.7,17z"/>
	<path class="st0" d="M12.7,21.3c0-1.4,0-2.9,0-4.3c1.4,0,2.7,0,4.1,0c0.1,0,0.1,0,0.2,0c0,1.4,0,2.9,0,4.3
		C15.6,21.3,14.2,21.3,12.7,21.3z"/>
	<path class="st0" d="M21.3,47.1c0-2.8,0-5.7,0-8.5c0-0.2,0.1-0.1,0.2-0.1c2.1,0,4.3,0,6.4,0c3.5,0,7,0,10.4,0c0.2,0,0.2,0,0.2,0.2
		c0,2.8,0,5.6,0,8.4l0,0c-1.4,0-2.9,0-4.3,0l0,0c0-1.4,0-2.8,0-4.1c0-0.1,0-0.2-0.2-0.2c-2.8,0-5.5,0-8.3,0c-0.1,0-0.2,0-0.2,0.2
		c0,1.4,0,2.8,0,4.1l0,0C24.2,47.1,22.8,47.1,21.3,47.1L21.3,47.1z"/>
	<path class="st3" d="M42.9,21.3c1.4,0,2.9,0,4.3,0l0,0c0,1.4,0,2.8,0,4.1c0,0.1,0,0.2,0.1,0.2c1.4,0,2.8,0,4.2,0l0,0
		c0,1.4,0,2.9,0,4.3l0,0c-2.9,0-5.7,0-8.6,0c0-1.2,0-2.4,0-3.6c0-0.3,0-0.5,0-0.8C42.9,24.2,42.9,22.7,42.9,21.3L42.9,21.3z"/>
	<path class="st3" d="M12.7,21.3c1.4,0,2.9,0,4.3,0l0,0c0,0.4,0,0.8,0,1.1c0,1.1,0,2.1,0,3.2c0,1.2,0,2.5,0,3.7c0,0.2,0,0.4,0,0.6
		c-2.9,0-5.7,0-8.6,0l0,0c0-1.4,0-2.9,0-4.3l0,0c1.4,0,2.8,0,4.2,0c0.1,0,0.1-0.1,0.1-0.2C12.7,24.1,12.7,22.7,12.7,21.3L12.7,21.3z
		"/>
	<path class="st2" d="M42.9,29.9c2.9,0,5.7,0,8.6,0c0,1.4,0,2.9,0,4.3c-1.2,0-2.4,0-3.5,0c-0.3,0-0.5,0-0.8,0c-0.1,0-0.1,0-0.2,0
		c-1.4,0-2.7,0-4.1,0c0-1.2,0-2.4,0-3.5C42.9,30.4,42.9,30.2,42.9,29.9z"/>
	<path class="st2" d="M8.4,29.9c2.9,0,5.7,0,8.6,0c0,1.2,0,2.4,0,3.6c0,0.2,0,0.5,0,0.7c-0.4,0-0.8,0-1.1,0c-1.1,0-2.1,0-3.2,0
		c-1.2,0-2.3,0-3.5,0c-0.3,0-0.5,0-0.8,0C8.4,32.8,8.4,31.4,8.4,29.9z"/>
	<path class="st2" d="M25.7,21.3c0,0,0.1,0,0.1,0c2.8,0,5.6,0,8.4,0c0,0,0.1,0,0.1,0c0,1.4,0,2.9,0,4.3c0,0-0.1,0-0.1,0
		c-2.8,0-5.6,0-8.4,0c0,0-0.1,0-0.1,0C25.7,24.2,25.7,22.7,25.7,21.3z"/>
	<path class="st4" d="M25.7,21.3c0,1.4,0,2.9,0,4.3c-1.2,0-2.3,0-3.5,0c-0.3,0-0.6,0-0.8,0c0-1.4,0-2.9,0-4.3c1.3,0,2.7,0,4,0
		C25.5,21.3,25.6,21.3,25.7,21.3z"/>
	<path class="st2" d="M21.3,21.3c0,1.4,0,2.9,0,4.3c-1.1,0-2.1,0-3.2,0c-0.4,0-0.7,0-1.1,0c0-1.1,0-2.1,0-3.2c0-0.4,0-0.8,0-1.1
		C18.5,21.3,19.9,21.3,21.3,21.3z"/>
	<path class="st4" d="M34.3,25.6c0-1.4,0-2.9,0-4.3c1.3,0,2.7,0,4,0c0.1,0,0.2,0,0.3,0c0,1.4,0,2.9,0,4.3c-1.2,0-2.4,0-3.6,0
		C34.8,25.6,34.5,25.6,34.3,25.6z"/>
	<path class="st2" d="M38.6,25.6c0-1.4,0-2.9,0-4.3c1.1,0,2.1,0,3.2,0c0.4,0,0.8,0,1.1,0c0,1.4,0,2.9,0,4.3c-1.4,0-2.7,0-4.1,0
		C38.7,25.6,38.6,25.6,38.6,25.6z"/>
	<path class="st2" d="M25.7,32.1c0,0.7,0,1.3,0,2c0,0.1,0,0.1-0.1,0.1c-1.3,0-2.7,0-4,0c-0.1,0-0.1,0-0.1-0.1c0-1.3,0-2.7,0-4
		c0-0.1,0-0.1,0.1-0.1c1.3,0,2.7,0,4,0c0.1,0,0.1,0,0.1,0.1C25.7,30.7,25.7,31.4,25.7,32.1z"/>
	<path class="st2" d="M34.3,32.1c0-0.7,0-1.3,0-2c0-0.1,0-0.1,0.1-0.1c1.3,0,2.7,0,4,0c0.1,0,0.1,0,0.1,0.1c0,1.3,0,2.7,0,4
		c0,0.1,0,0.1-0.1,0.1c-1.3,0-2.7,0-4,0c-0.1,0-0.1,0-0.1-0.1C34.3,33.4,34.3,32.7,34.3,32.1z"/>
	<path class="st3" d="M42.9,51.5c-1.4,0-2.9,0-4.3,0c0,0,0,0,0,0c0-1.4,0-2.9,0-4.3l0,0c1.4,0,2.8,0,4.2,0c0.1,0,0.1,0.1,0.1,0.2
		C42.9,48.7,42.9,50.1,42.9,51.5z"/>
	<path class="st1" d="M12.7,34.2c1.1,0,2.1,0,3.2,0c0.4,0,0.8,0,1.1,0c0,1,0,2.1,0,3.1c0,0.4,0,0.8,0,1.2c-1.4,0-2.9,0-4.3,0l0,0
		C12.7,37.1,12.7,35.7,12.7,34.2z"/>
	<path class="st1" d="M42.9,34.2c1.4,0,2.7,0,4.1,0c0.1,0,0.1,0,0.2,0c0,1.4,0,2.9,0,4.3c-1.4,0-2.9,0-4.3,0c0-1.2,0-2.4,0-3.7
		C42.9,34.7,42.9,34.4,42.9,34.2z"/>
	<path class="st1" d="M8.4,38.5c1.1,0,2.1,0,3.2,0c0.4,0,0.7,0,1.1,0l0,0c0,1.4,0,2.9,0,4.3c-1.1,0-2.1,0-3.2,0c-0.4,0-0.8,0-1.1,0
		C8.4,41.4,8.4,40,8.4,38.5z"/>
	<path class="st0" d="M12.7,42.8c0-1.4,0-2.9,0-4.3c1.4,0,2.9,0,4.3,0c0,1.3,0,2.5,0,3.8c0,0.2,0.1,0.4,0,0.5c-0.1,0.1-0.3,0-0.5,0
		C15.2,42.8,14,42.8,12.7,42.8z"/>
	<path class="st0" d="M42.9,38.5c1.4,0,2.9,0,4.3,0l0,0c0,1.4,0,2.9,0,4.3c-1.3,0-2.5,0-3.8,0c-0.2,0-0.4,0.1-0.5,0
		c-0.1-0.1,0-0.3,0-0.5C42.9,41,42.9,39.8,42.9,38.5z"/>
	<path class="st1" d="M47.2,42.8c0-1.4,0-2.9,0-4.3c1.4,0,2.8,0,4.1,0c0.1,0,0.1,0,0.2,0c0,1.4,0,2.9,0,4.3c-1.1,0-2.2,0-3.3,0
		C47.9,42.8,47.6,42.8,47.2,42.8z"/>
	<path class="st3" d="M21.3,51.5c-1.4,0-2.9,0-4.3,0c0-1.4,0-2.8,0-4.1c0-0.1,0-0.2,0.2-0.2c1.4,0,2.8,0,4.1,0l0,0
		C21.3,48.6,21.3,50,21.3,51.5L21.3,51.5z"/>
	<path class="st0" d="M34.3,51.5c-2.9,0-5.7,0-8.6,0l0,0c0-1.4,0-2.9,0-4.3l0,0c2.9,0,5.7,0,8.6,0l0,0C34.3,48.6,34.3,50,34.3,51.5
		L34.3,51.5z"/>
	<path d="M34.3,51.5c0-1.4,0-2.9,0-4.3c1.4,0,2.9,0,4.3,0c0,1.4,0,2.9,0,4.3C37.2,51.5,35.7,51.5,34.3,51.5z"/>
	<path d="M25.7,47.1c0,1.4,0,2.9,0,4.3c-1.4,0-2.9,0-4.3,0c0-1.4,0-2.9,0-4.3C22.8,47.1,24.2,47.1,25.7,47.1z"/>
	<path class="st1" d="M51.5,25.6c-1.4,0-2.8,0-4.2,0c-0.1,0-0.1-0.1-0.1-0.2c0-1.4,0-2.8,0-4.1c1.4,0,2.9,0,4.3,0c0,0.8,0,1.5,0,2.3
		C51.5,24.3,51.5,24.9,51.5,25.6z"/>
	<path class="st1" d="M12.7,21.3c0,1.4,0,2.8,0,4.1c0,0.1,0,0.2-0.1,0.2c-1.4,0-2.8,0-4.2,0c0-0.5,0-0.9,0-1.4c0-1,0-1.9,0-2.9
		C9.9,21.3,11.3,21.3,12.7,21.3z"/>
	<path d="M34.3,47.1c-2.9,0-5.7,0-8.6,0c0-1.4,0-2.8,0-4.1c0-0.1,0-0.2,0.2-0.2c2.8,0,5.5,0,8.3,0c0.1,0,0.2,0,0.2,0.2
		C34.3,44.4,34.3,45.8,34.3,47.1z"/>
</g>
</svg>
