<?xml version="1.0" encoding="utf-8"?>
<!-- Generator: Adobe Illustrator 25.4.0, SVG Export Plug-In . SVG Version: 6.00 Build 0)  -->
<svg version="1.1" id="Layer_1" xmlns="http://www.w3.org/2000/svg" xmlns:xlink="http://www.w3.org/1999/xlink" x="0px" y="0px"
	 viewBox="0 0 60 60" style="enable-background:new 0 0 60 60;" xml:space="preserve">
<style type="text/css">
	.st0{fill:#B8C2FE;}
	.st1{fill:#FE9431;}
	.st2{fill:#3854FE;}
	.st3{fill:#FED30B;}
	.st4{fill:#36FEDE;}
</style>
<g>
	<path d="M8.4,0c14.4,0,28.7,0,43.1,0c0,1.4,0,2.8,0,4.1c-0.4,0-0.8,0-1.1,0c-1.1,0-2.1,0-3.2,0c0,0,0,0-0.1,0c-1.4,0-2.7,0-4.1,0
		c-0.1,0-0.1,0-0.1,0.2c0,1.4,0,2.8,0,4.1c-1.4,0-2.9,0-4.3,0c0-1.4,0-2.8,0-4.1c0-0.1,0-0.2-0.2-0.2c-5.6,0-11.3,0-16.9,0
		c-0.1,0-0.2,0-0.2,0.2c0,1.4,0,2.8,0,4.1c-1.4,0-2.9,0-4.3,0c0-0.5,0-1,0-1.5c0-0.9,0-1.8,0-2.7c0-0.1,0-0.2-0.2-0.2
		c-0.2,0-0.4,0-0.6,0c-1.2,0-2.4,0-3.6,0c-1.4,0-2.9,0-4.3,0C8.4,2.8,8.4,1.4,8.4,0z"/>
	<path d="M12.5,60c0.1,0,0.2,0,0.2-0.2c0-1.4,0-2.8,0-4.1c0.4,0,0.7,0,1.1,0c1.1,0,2.1,0,3.2,0c0.3,0,0.6,0,0.9,0c1.2,0,2.3,0,3.5,0
		c0.1,0,0.1,0,0.2,0c5.6,0,11.3,0,16.9,0c0.1,0,0.1,0,0.2,0c0.3,0,0.5,0,0.8,0c1.2,0,2.4,0,3.6,0c1.4,0,2.9,0,4.3,0
		c0,1.4,0,2.9,0,4.3"/>
	<path d="M60,42.8c-1.4,0-2.8,0-4.2,0l0,0c0-2.8,0-5.6,0-8.4c0-0.1,0-0.1,0-0.2c0-0.4,0-0.8,0-1.2c0-1,0-2.1,0-3.1
		c0-0.3,0-0.5,0-0.8c0-1.2,0-2.4,0-3.5c0-0.4,0-0.8,0-1.2c0-1,0-2.1,0-3.1c0-0.2,0-0.5,0-0.7c0-1.2,0-2.4,0-3.6c0-0.4,0-0.8,0-1.2
		c0-1,0-2.1,0-3.1c0-0.1,0-0.1,0-0.2c0-1.4,0-2.7,0-4.1c1.4,0,2.8,0,4.2,0C60,19.9,60,31.3,60,42.8z"/>
	<path d="M4.1,42.8c-1.4,0-2.7,0-4.1,0C0,31.3,0,19.9,0,8.4c1.4,0,2.7,0,4.1,0c0,0.4,0,0.8,0,1.2c0,1,0,2.1,0,3.1c0,0.3,0,0.5,0,0.8
		c0,1.2,0,2.3,0,3.5c0,0.3,0,0.5,0,0.8c0,1.2,0,2.4,0,3.5c0,0.3,0,0.5,0,0.8c0,1.2,0,2.4,0,3.5c0,0.3,0,0.5,0,0.8c0,1.2,0,2.3,0,3.5
		c0,0.3,0,0.5,0,0.8c0,1.2,0,2.4,0,3.5c0,0.1,0,0.1,0,0.2C4.1,37.2,4.1,40,4.1,42.8L4.1,42.8z"/>
	<path class="st0" d="M21.3,8.4c0-1.4,0-2.8,0-4.1c0-0.1,0-0.2,0.2-0.2c5.6,0,11.3,0,16.9,0c0.1,0,0.2,0,0.2,0.2c0,1.4,0,2.8,0,4.1
		l0,0C32.8,8.4,27,8.4,21.3,8.4L21.3,8.4z"/>
	<path class="st1" d="M8.4,4.1c1.4,0,2.9,0,4.3,0c0,1.4,0,2.9,0,4.3c-1,0-1.9,0-2.9,0c-0.5,0-0.9,0-1.4,0l0,0c0-0.1,0-0.1,0-0.2
		C8.4,6.9,8.4,5.5,8.4,4.1L8.4,4.1z"/>
	<path class="st2" d="M38.5,8.4c1.4,0,2.9,0,4.3,0l0,0c0,0.1,0,0.1,0,0.2c0,1.4,0,2.7,0,4.1c-0.1,0-0.2,0-0.3,0c-1.3,0-2.7,0-4,0
		c0-0.9,0-1.8,0-2.7C38.5,9.5,38.5,9,38.5,8.4L38.5,8.4z"/>
	<path class="st2" d="M17,8.4c1.4,0,2.9,0,4.3,0l0,0c0,0.1,0,0.1,0,0.2c0,1.4,0,2.7,0,4.1c-0.1,0-0.2,0-0.3,0c-1.3,0-2.7,0-4,0
		c0-0.7,0-1.3,0-2C17,10,17,9.2,17,8.4L17,8.4z"/>
	<path class="st1" d="M47.1,4.1c1.1,0,2.1,0,3.2,0c0.4,0,0.8,0,1.1,0l0,0c0,0.5,0,1,0,1.6c0,0.9,0,1.8,0,2.7c0,0,0,0,0,0
		c0,0-0.1,0-0.1,0c-1.4,0-2.8,0-4.2,0l0,0C47.1,7,47.1,5.6,47.1,4.1z"/>
	<path class="st3" d="M47.1,4.1c0,1.4,0,2.9,0,4.3c-1.4,0-2.9,0-4.3,0l0,0c0-1.4,0-2.8,0-4.1c0-0.1,0-0.2,0.1-0.2
		C44.3,4.1,45.7,4.1,47.1,4.1C47.1,4.1,47.1,4.1,47.1,4.1z"/>
	<path class="st3" d="M12.7,8.4c0-1.4,0-2.9,0-4.3c1.2,0,2.4,0,3.6,0c0.2,0,0.4,0,0.6,0c0.1,0,0.2,0,0.2,0.2c0,0.9,0,1.8,0,2.7
		c0,0.5,0,1,0,1.5l0,0C15.6,8.4,14.1,8.4,12.7,8.4L12.7,8.4z"/>
	<path class="st1" d="M38.5,55.7c-0.1,0-0.1,0-0.2,0c-5.6,0-11.3,0-16.9,0c-0.1,0-0.1,0-0.2,0c0-1.4,0-2.9,0-4.3c0,0,0.1,0,0.1,0
		c5.7,0,11.3,0,17,0c0,0,0.1,0,0.1,0C38.5,52.8,38.5,54.3,38.5,55.7z"/>
	<path class="st1" d="M17,55.7c-1.1,0-2.1,0-3.2,0c-0.4,0-0.7,0-1.1,0c0,0,0,0,0,0c0-0.4,0-0.7,0-1.1c0-1.1,0-2.1,0-3.2
		c1.4,0,2.9,0,4.3,0C17,52.8,17,54.3,17,55.7z"/>
	<path class="st3" d="M17,55.7c0-1.4,0-2.9,0-4.3l0,0c1.4,0,2.9,0,4.3,0l0,0c0,1.4,0,2.9,0,4.3c-1.2,0-2.3,0-3.5,0
		C17.6,55.7,17.3,55.7,17,55.7z"/>
	<path class="st3" d="M38.5,55.7c0-1.4,0-2.9,0-4.3l0,0c1.4,0,2.9,0,4.3,0c0,1.4,0,2.9,0,4.3c-1.2,0-2.4,0-3.6,0
		C39,55.7,38.8,55.7,38.5,55.7z"/>
	<path class="st1" d="M42.8,55.7c0-1.4,0-2.9,0-4.3c0,0,0,0,0,0c1.4,0,2.9,0,4.3,0c0,1.4,0,2.9,0,4.3l0,0
		C45.7,55.7,44.3,55.7,42.8,55.7z"/>
	<path d="M47.1,55.7c0-1.4,0-2.9,0-4.3c0-1.4,0-2.9,0-4.3c1.4,0,2.9,0,4.3,0l0,0c0,2.8,0,5.6,0,8.5c0,0.1-0.1,0.1-0.2,0.1
		C49.9,55.7,48.5,55.7,47.1,55.7z"/>
	<path d="M55.8,42.8c0,1.4,0,2.8,0,4.1c0,0.1,0,0.2-0.2,0.2c-1.4,0-2.8,0-4.1,0l0,0c0-1.4,0-2.9,0-4.3
		C52.9,42.8,54.3,42.8,55.8,42.8L55.8,42.8z"/>
	<path class="st4" d="M55.8,25.6c0,1.2,0,2.4,0,3.5c0,0.3,0,0.5,0,0.8c-1.4,0-2.7,0-4.1,0c-0.2,0-0.2,0.1-0.2,0.2c0,1.4,0,2.7,0,4.1
		l0,0c-1.4,0-2.9,0-4.3,0c0-0.4,0-0.8,0-1.1c0-1.1,0-2.1,0-3.2c0-0.1,0-0.1,0-0.2c0-1.4,0-2.8,0-4.1c0.4,0,0.8,0,1.2,0
		c1,0,2.1,0,3.1,0c0.1,0,0.1,0,0.2,0C53,25.6,54.4,25.6,55.8,25.6z"/>
	<path class="st4" d="M55.8,42.8c-1.4,0-2.9,0-4.3,0l0,0c0-0.4,0-0.7,0-1.1c0-1.1,0-2.1,0-3.2c0-0.1,0-0.1,0-0.2c0-1.4,0-2.7,0-4.1
		l0,0c1.4,0,2.9,0,4.3,0c0,0.1,0,0.1,0,0.2C55.8,37.2,55.8,40,55.8,42.8z"/>
	<path class="st1" d="M55.8,12.7c0,1,0,2.1,0,3.1c0,0.4,0,0.8,0,1.2c-1.4,0-2.9,0-4.3,0l0,0c0-1.4,0-2.9,0-4.3l0,0
		C52.9,12.7,54.3,12.7,55.8,12.7z"/>
	<path class="st4" d="M51.5,17c1.4,0,2.9,0,4.3,0c0,1.2,0,2.4,0,3.6c0,0.2,0,0.5,0,0.7c-1.4,0-2.9,0-4.3,0c0-0.1,0-0.1,0-0.2
		C51.5,19.8,51.5,18.4,51.5,17z"/>
	<path class="st1" d="M51.5,21.3c1.4,0,2.9,0,4.3,0c0,1,0,2.1,0,3.1c0,0.4,0,0.8,0,1.2c-1.4,0-2.7,0-4.1,0c-0.1,0-0.1,0-0.2,0
		c0-0.4,0-0.8,0-1.1C51.5,23.4,51.5,22.4,51.5,21.3z"/>
	<path class="st4" d="M55.8,12.7c-1.4,0-2.9,0-4.3,0c0-1.4,0-2.9,0-4.3l0,0c1.4,0,2.9,0,4.3,0l0,0c0,1.4,0,2.7,0,4.1
		C55.8,12.6,55.8,12.7,55.8,12.7z"/>
	<path class="st1" d="M55.8,34.2c-1.4,0-2.9,0-4.3,0c0-1.4,0-2.7,0-4.1c0-0.2,0-0.2,0.2-0.2c1.4,0,2.7,0,4.1,0c0,1,0,2.1,0,3.1
		C55.8,33.4,55.8,33.8,55.8,34.2z"/>
	<path d="M12.7,51.4c0,1.1,0,2.1,0,3.2c0,0.4,0,0.7,0,1.1c-1.4,0-2.8,0-4.2,0c-0.1,0-0.2,0-0.2-0.1c0-2.8,0-5.6,0-8.5l0,0
		c1.4,0,2.9,0,4.3,0c0,0.4,0,0.8,0,1.2C12.7,49.3,12.7,50.4,12.7,51.4z"/>
	<path d="M8.4,47.1c-1.4,0-2.8,0-4.2,0c-0.1,0-0.1,0-0.1-0.2c0-1.4,0-2.8,0-4.1l0,0c1.4,0,2.9,0,4.3,0C8.4,44.2,8.4,45.7,8.4,47.1
		L8.4,47.1z"/>
	<path class="st4" d="M4.1,29.9c0-1.2,0-2.3,0-3.5c0-0.3,0-0.5,0-0.8c0.4,0,0.8,0,1.1,0c1.1,0,2.1,0,3.2,0c0.1,0,0.1,0,0.2,0
		c1.4,0,2.8,0,4.2,0c0,0.4,0,0.8,0,1.2c0,1,0,2.1,0,3.1c0,0.1,0,0.1,0,0.2c0,1.4,0,2.7,0,4.1c-1.4,0-2.9,0-4.3,0l0,0
		c0-1.4,0-2.7,0-4.1c0-0.2,0-0.2-0.2-0.2C6.8,29.9,5.4,29.9,4.1,29.9z"/>
	<path class="st4" d="M8.4,42.8c-1.4,0-2.9,0-4.3,0c0-2.8,0-5.6,0-8.4c0-0.1,0-0.1,0-0.2c1.4,0,2.9,0,4.3,0l0,0c0,0.4,0,0.8,0,1.2
		c0,1,0,2.1,0,3.1C8.4,39.9,8.4,41.4,8.4,42.8L8.4,42.8z"/>
	<path class="st4" d="M4.1,21.3c0-1.2,0-2.4,0-3.5c0-0.3,0-0.5,0-0.8c1.4,0,2.9,0,4.3,0c0,0.4,0,0.8,0,1.2c0,1,0,2.1,0,3.1
		C6.9,21.3,5.5,21.3,4.1,21.3z"/>
	<path class="st1" d="M4.1,21.3c1.4,0,2.9,0,4.3,0c0,0.1,0,0.1,0,0.2c0,1.4,0,2.7,0,4.1c-1.1,0-2.1,0-3.2,0c-0.4,0-0.8,0-1.1,0
		c0-1.2,0-2.4,0-3.5C4.1,21.8,4.1,21.6,4.1,21.3z"/>
	<path class="st1" d="M8.4,17c-1.4,0-2.9,0-4.3,0c0-1.2,0-2.3,0-3.5c0-0.3,0-0.5,0-0.8c1.4,0,2.9,0,4.3,0l0,0
		C8.4,14.2,8.4,15.6,8.4,17L8.4,17z"/>
	<path class="st1" d="M8.4,34.2c-1.4,0-2.9,0-4.3,0c0-1.2,0-2.4,0-3.5c0-0.3,0-0.5,0-0.8c1.4,0,2.7,0,4.1,0c0.2,0,0.2,0.1,0.2,0.2
		C8.4,31.5,8.4,32.8,8.4,34.2z"/>
	<path class="st4" d="M8.4,12.7c-1.4,0-2.9,0-4.3,0c0-1,0-2.1,0-3.1c0-0.4,0-0.8,0-1.2l0,0c1.4,0,2.9,0,4.3,0c0,0,0,0,0,0
		C8.4,9.9,8.4,11.3,8.4,12.7z"/>
	<path d="M55.8,8.4c-1.4,0-2.9,0-4.3,0c0-0.9,0-1.8,0-2.7c0-0.5,0-1,0-1.6c1.4,0,2.8,0,4.1,0c0.1,0,0.2,0,0.2,0.2
		C55.8,5.7,55.8,7.1,55.8,8.4z"/>
	<path d="M8.4,8.4c-1.4,0-2.9,0-4.3,0c0-1.4,0-2.7,0-4.1c0-0.1,0-0.2,0.2-0.2c1.4,0,2.8,0,4.1,0c0,1.4,0,2.7,0,4.1
		C8.4,8.3,8.4,8.4,8.4,8.4z"/>
	<path class="st4" d="M21.3,12.7c0-1.4,0-2.7,0-4.1c0-0.1,0-0.1,0-0.2c5.7,0,11.5,0,17.2,0c0,0.5,0,1.1,0,1.6c0,0.9,0,1.8,0,2.7
		c-0.1,0-0.1,0-0.2,0c-5.6,0-11.3,0-16.9,0C21.4,12.7,21.4,12.7,21.3,12.7z"/>
	<path class="st3" d="M8.4,12.7c0-1.4,0-2.9,0-4.3c0.5,0,0.9,0,1.4,0c1,0,1.9,0,2.9,0l0,0c0,1.4,0,2.9,0,4.3l0,0
		C11.3,12.7,9.8,12.7,8.4,12.7L8.4,12.7z"/>
	<path d="M21.3,12.7c0.1,0,0.1,0,0.2,0c5.6,0,11.3,0,16.9,0c0.1,0,0.1,0,0.2,0c1.3,0,2.7,0,4,0c0.1,0,0.2,0,0.3,0c0.1,0,0.1,0,0.2,0
		c1.4,0,2.7,0,4.1,0l0,0c0,1.4,0,2.9,0,4.3l0,0c-0.4,0-0.8,0-1.2,0c-1,0-2.1,0-3.1,0c0,0-0.1,0-0.1,0c-2.8,0-5.6,0-8.4,0
		c0,0,0,0-0.1,0c-0.1,0-0.1,0-0.1,0.1c0,0.1,0,0.2,0,0.4c0,1.3,0,2.6,0,3.8c0,0,0,0,0,0.1c0,1.4,0,2.7,0,4.1c0,0.1,0,0.1,0.2,0.1
		c1.3,0,2.6,0,4,0c0.1,0,0.2,0,0.2-0.2c0-1.4,0-2.7,0-4.1c1.4,0,2.9,0,4.3,0c0,0.1,0,0.1,0,0.2c0,1.3,0,2.6,0,3.9
		c0,0.1,0,0.2,0.2,0.2c1.4,0,2.8,0,4.1,0l0,0c0,1.4,0,2.8,0,4.1c0,0.1,0,0.1,0,0.2c-0.4,0-0.8,0-1.1,0c-1.1,0-2.1,0-3.2,0
		c-0.4,0-0.8,0-1.2,0c-1,0-2.1,0-3.1,0c-0.1,0-0.2,0-0.3,0c-1.3,0-2.7,0-4,0c0,0-0.1,0-0.1,0c-2.8,0-5.6,0-8.4,0c0,0-0.1,0-0.1,0
		c-0.4,0-0.8,0-1.2,0c-1,0-2.1,0-3.1,0c-0.1,0-0.2,0-0.3,0c-1.3,0-2.7,0-4,0c-0.1,0-0.1,0-0.2,0c-1.4,0-2.7,0-4.1,0c0-1,0-2.1,0-3.1
		c0-0.4,0-0.8,0-1.2l0,0c0.3,0,0.7,0,1,0c1,0,2.1,0,3.1,0c0.1,0,0.2,0,0.2-0.2c0-0.1,0-0.3,0-0.4c0-1.2,0-2.5,0-3.7
		c1.4,0,2.9,0,4.3,0c0,1.4,0,2.7,0,4.1c0,0.2,0,0.2,0.2,0.2c1.2,0,2.4,0,3.6,0c0.2,0,0.4,0.1,0.5,0c0.1-0.1,0-0.3,0-0.5
		c0-1.2,0-2.5,0-3.7c0-0.1,0-0.1,0-0.2c0-1.3,0-2.6,0-3.9c0-0.2,0-0.2-0.2-0.2c-2.8,0-5.5,0-8.3,0c-0.1,0-0.1,0-0.2,0
		c-0.1,0-0.1,0-0.2,0c-1.4,0-2.7,0-4.1,0l0,0c0-1.4,0-2.9,0-4.3l0,0c0.4,0,0.8,0,1.2,0c1,0,2.1,0,3.1,0c1.3,0,2.7,0,4,0
		C21.1,12.7,21.2,12.7,21.3,12.7z"/>
	<path class="st4" d="M47.1,12.7c-1.4,0-2.7,0-4.1,0c-0.1,0-0.1,0-0.2,0c0-1.4,0-2.7,0-4.1c0-0.1,0-0.1,0-0.2c1.4,0,2.9,0,4.3,0l0,0
		C47.1,9.9,47.1,11.3,47.1,12.7z"/>
	<path class="st4" d="M17,12.7c-1,0-2.1,0-3.1,0c-0.4,0-0.8,0-1.2,0c0-1.4,0-2.9,0-4.3c1.4,0,2.9,0,4.3,0c0,0.8,0,1.5,0,2.3
		C17,11.4,17,12.1,17,12.7z"/>
	<path class="st3" d="M47.1,12.7c0-1.4,0-2.9,0-4.3c1.4,0,2.8,0,4.2,0c0,0,0.1,0,0.1,0c0,1.4,0,2.9,0,4.3l0,0
		C50,12.7,48.6,12.7,47.1,12.7L47.1,12.7z"/>
	<path class="st4" d="M38.5,51.4c0,0-0.1,0-0.1,0c-5.7,0-11.3,0-17,0c0,0-0.1,0-0.1,0c0,0,0,0,0,0c0-1.4,0-2.9,0-4.3
		c0.1,0,0.1,0,0.2,0c5.6,0,11.3,0,16.9,0c0.1,0,0.1,0,0.2,0C38.5,48.5,38.5,50,38.5,51.4L38.5,51.4z"/>
	<path class="st3" d="M12.7,51.4c0-1,0-2.1,0-3.1c0-0.4,0-0.8,0-1.2l0,0c0.4,0,0.8,0,1.1,0c1.1,0,2.1,0,3.2,0c0,1.4,0,2.9,0,4.3l0,0
		C15.6,51.4,14.1,51.4,12.7,51.4z"/>
	<path class="st1" d="M17,51.4c0-1.4,0-2.9,0-4.3c0.3,0,0.6,0,0.9,0c1.1,0,2.3,0,3.4,0c0,1.4,0,2.9,0,4.3
		C19.9,51.4,18.4,51.4,17,51.4z"/>
	<path class="st1" d="M38.5,51.4c0-1.4,0-2.9,0-4.3c0.2,0,0.4,0,0.6,0c1.2,0,2.5,0,3.7,0c0,1.4,0,2.9,0,4.3c0,0,0,0,0,0
		C41.4,51.4,40,51.4,38.5,51.4z"/>
	<path class="st3" d="M42.8,51.4c0-1.4,0-2.9,0-4.3c1.4,0,2.9,0,4.3,0l0,0c0,1.4,0,2.9,0,4.3C45.7,51.4,44.3,51.4,42.8,51.4z"/>
	<path class="st3" d="M51.5,42.8c0,1.4,0,2.9,0,4.3c-1.4,0-2.9,0-4.3,0l0,0c0-0.4,0-0.8,0-1.2c0-1,0-2.1,0-3.1
		C48.6,42.8,50,42.8,51.5,42.8L51.5,42.8z"/>
	<path d="M51.5,21.3c0,1.1,0,2.1,0,3.2c0,0.4,0,0.8,0,1.1c-1,0-2.1,0-3.1,0c-0.4,0-0.8,0-1.2,0l0,0c0-2.9,0-5.7,0-8.6l0,0
		c1.4,0,2.9,0,4.3,0l0,0c0,1.4,0,2.7,0,4.1C51.5,21.2,51.5,21.3,51.5,21.3z"/>
	<path class="st3" d="M42.8,29.9c1.1,0,2.1,0,3.2,0c0.4,0,0.8,0,1.1,0c0,1.1,0,2.1,0,3.2c0,0.4,0,0.8,0,1.1l0,0c-0.4,0-0.8,0-1.1,0
		c-1.1,0-2.1,0-3.2,0C42.8,32.8,42.8,31.3,42.8,29.9z"/>
	<path class="st3" d="M51.5,34.2c0,1.4,0,2.7,0,4.1c0,0.1,0,0.1,0,0.2c-1.4,0-2.9,0-4.3,0c0-0.1,0-0.1,0-0.2c0-1.4,0-2.7,0-4.1l0,0
		C48.6,34.2,50,34.2,51.5,34.2z"/>
	<path class="st1" d="M47.2,38.5c1.4,0,2.9,0,4.3,0c0,1.1,0,2.1,0,3.2c0,0.4,0,0.7,0,1.1c-1.4,0-2.9,0-4.3,0c0-0.2,0-0.5,0-0.7
		C47.1,40.9,47.1,39.7,47.2,38.5z"/>
	<path class="st4" d="M51.5,17c-1.4,0-2.9,0-4.3,0c0-1.4,0-2.9,0-4.3c1.4,0,2.9,0,4.3,0C51.5,14.2,51.5,15.6,51.5,17z"/>
	<path class="st3" d="M8.4,47.1c0-1.4,0-2.9,0-4.3l0,0c1.4,0,2.9,0,4.3,0c0,1.4,0,2.9,0,4.3l0,0C11.3,47.1,9.8,47.1,8.4,47.1z"/>
	<path d="M8.4,25.6c0-1.4,0-2.7,0-4.1c0-0.1,0-0.1,0-0.2c0-1,0-2.1,0-3.1c0-0.4,0-0.8,0-1.2l0,0c1.4,0,2.9,0,4.3,0l0,0
		c0,2.9,0,5.7,0,8.6l0,0c-1.4,0-2.8,0-4.2,0C8.5,25.6,8.4,25.6,8.4,25.6z"/>
	<path class="st3" d="M8.4,38.5c0-1,0-2.1,0-3.1c0-0.4,0-0.8,0-1.2c1.4,0,2.9,0,4.3,0l0,0c0,0.4,0,0.7,0,1.1c0,1.1,0,2.1,0,3.2
		C11.2,38.5,9.8,38.5,8.4,38.5z"/>
	<path class="st3" d="M12.7,29.9c1.4,0,2.7,0,4.1,0c0.1,0,0.1,0,0.2,0c0,1.4,0,2.9,0,4.3c-0.1,0-0.1,0-0.2,0c-1.4,0-2.7,0-4.1,0l0,0
		c0-1.4,0-2.7,0-4.1C12.7,30,12.7,30,12.7,29.9z"/>
	<path class="st1" d="M8.4,38.5c1.4,0,2.9,0,4.3,0c0,0.2,0,0.5,0,0.7c0,1.2,0,2.4,0,3.6c-1.4,0-2.9,0-4.3,0
		C8.4,41.4,8.4,39.9,8.4,38.5z"/>
	<path class="st4" d="M12.7,17c-1.4,0-2.9,0-4.3,0c0-1.4,0-2.9,0-4.3c1.4,0,2.9,0,4.3,0C12.7,14.2,12.7,15.6,12.7,17z"/>
	<path class="st3" d="M25.6,29.9c0,0,0.1,0,0.1,0c2.8,0,5.6,0,8.4,0c0,0,0.1,0,0.1,0c0,1.4,0,2.9,0,4.3c0,0-0.1,0-0.1,0
		c-2.8,0-5.6,0-8.4,0c0,0-0.1,0-0.1,0C25.6,32.8,25.6,31.3,25.6,29.9z"/>
	<path class="st3" d="M47.1,17c0,2.9,0,5.7,0,8.6c-1.4,0-2.8,0-4.1,0c-0.1,0-0.2,0-0.2-0.2c0-1.3,0-2.6,0-3.9c0-0.1,0-0.1,0-0.2
		c0-0.1,0-0.1,0-0.2c0-1.4,0-2.7,0-4.1c1,0,2.1,0,3.1,0C46.4,17,46.8,17,47.1,17z"/>
	<path class="st2" d="M42.8,17c0,1.4,0,2.7,0,4.1c0,0.1,0,0.1,0,0.2c-1.4,0-2.9,0-4.3,0c-1.4,0-2.9,0-4.3,0c0-1.3,0-2.6,0-3.8
		c0-0.1,0-0.2,0-0.4c0-0.1,0-0.1,0.1-0.1c0,0,0,0,0.1,0c2.8,0,5.6,0,8.4,0C42.8,17,42.8,17,42.8,17z"/>
	<path class="st2" d="M21.3,21.3c-1.4,0-2.9,0-4.3,0c0-0.1,0-0.1,0-0.2c0-1.4,0-2.7,0-4.1c0.1,0,0.1,0,0.2,0c2.8,0,5.5,0,8.3,0
		c0.2,0,0.2,0,0.2,0.2c0,1.3,0,2.6,0,3.9c0,0.1,0,0.1,0,0.2C24.2,21.3,22.7,21.3,21.3,21.3z"/>
	<path class="st3" d="M17,17c0,1.4,0,2.7,0,4.1c0,0.1,0,0.1,0,0.2c0,1.2,0,2.5,0,3.7c0,0.1,0,0.3,0,0.4c0,0.1,0,0.2-0.2,0.2
		c-1,0-2.1,0-3.1,0c-0.3,0-0.7,0-1,0c0-2.9,0-5.7,0-8.6c1.4,0,2.7,0,4.1,0C16.9,17,16.9,17,17,17z"/>
	<path class="st0" d="M21.3,21.3c1.4,0,2.9,0,4.3,0c0,1.2,0,2.5,0,3.7c0,0.2,0.1,0.4,0,0.5c-0.1,0.1-0.3,0-0.5,0c-1.2,0-2.4,0-3.6,0
		c-0.1,0-0.2,0-0.2-0.2C21.3,24.1,21.3,22.7,21.3,21.3z"/>
	<path class="st0" d="M34.2,21.3c1.4,0,2.9,0,4.3,0c0,1.4,0,2.7,0,4.1c0,0.2,0,0.2-0.2,0.2c-1.3,0-2.6,0-4,0c-0.1,0-0.2,0-0.2-0.1
		C34.2,24.1,34.2,22.8,34.2,21.3C34.2,21.4,34.2,21.3,34.2,21.3z"/>
	<path class="st1" d="M17,34.2c0-1.4,0-2.9,0-4.3c1.3,0,2.7,0,4,0c0.1,0,0.2,0,0.3,0c0,1.4,0,2.9,0,4.3c-0.1,0-0.2,0-0.3,0
		C19.7,34.2,18.3,34.2,17,34.2z"/>
	<path class="st4" d="M21.3,34.2c0-1.4,0-2.9,0-4.3c1,0,2.1,0,3.1,0c0.4,0,0.8,0,1.2,0c0,1.4,0,2.9,0,4.3c-0.4,0-0.8,0-1.2,0
		C23.4,34.2,22.3,34.2,21.3,34.2z"/>
	<path class="st4" d="M34.2,34.2c0-1.4,0-2.9,0-4.3c1.3,0,2.7,0,4,0c0.1,0,0.2,0,0.3,0c0,1.4,0,2.9,0,4.3c-0.1,0-0.2,0-0.3,0
		C36.9,34.2,35.6,34.2,34.2,34.2z"/>
	<path class="st1" d="M38.5,34.2c0-1.4,0-2.9,0-4.3c1,0,2.1,0,3.1,0c0.4,0,0.8,0,1.2,0c0,1.4,0,2.9,0,4.3c-0.4,0-0.8,0-1.2,0
		C40.6,34.2,39.6,34.2,38.5,34.2z"/>
	<path d="M38.5,34.2c1,0,2.1,0,3.1,0c0.4,0,0.8,0,1.2,0c1.1,0,2.1,0,3.2,0c0.4,0,0.8,0,1.1,0c0,1.4,0,2.7,0,4.1c0,0.1,0,0.1,0,0.2
		c0,1.2,0,2.4,0,3.6c0,0.2,0,0.5,0,0.7c0,1,0,2.1,0,3.1c0,0.4,0,0.8,0,1.2c-1.4,0-2.9,0-4.3,0c-1.2,0-2.5,0-3.7,0
		c-0.2,0-0.4,0-0.6,0c-0.1,0-0.1,0-0.2,0c-5.6,0-11.3,0-16.9,0c-0.1,0-0.1,0-0.2,0c-1.1,0-2.3,0-3.4,0c-0.3,0-0.6,0-0.9,0
		c-1.1,0-2.1,0-3.2,0c-0.4,0-0.8,0-1.1,0c0-1.4,0-2.9,0-4.3c0-1.2,0-2.4,0-3.6c0-0.2,0-0.5,0-0.7c0-1.1,0-2.1,0-3.2
		c0-0.4,0-0.7,0-1.1c1.4,0,2.7,0,4.1,0c0.1,0,0.1,0,0.2,0c1.3,0,2.7,0,4,0c0.1,0,0.2,0,0.3,0c1,0,2.1,0,3.1,0c0.4,0,0.8,0,1.2,0
		c0,0,0.1,0,0.1,0c2.8,0,5.6,0,8.4,0c0,0,0.1,0,0.1,0c1.3,0,2.7,0,4,0C38.3,34.2,38.4,34.2,38.5,34.2z M29.9,38.5
		c-1.4,0-2.8,0-4.2,0c-0.1,0-0.2,0-0.2,0.2c0,1.3,0,2.7,0,4c0,0.1,0,0.2,0.2,0.2c2.8,0,5.5,0,8.3,0c0.1,0,0.2,0,0.2-0.2
		c0-1.3,0-2.7,0-4c0-0.1,0-0.2-0.2-0.2C32.7,38.5,31.3,38.5,29.9,38.5z M19.1,42.8c0.7,0,1.3,0,2,0c0.1,0,0.1,0,0.1-0.1
		c0-1.3,0-2.7,0-4c0-0.1,0-0.1-0.1-0.1c-1.3,0-2.7,0-4,0c-0.1,0-0.1,0-0.1,0.1c0,1.3,0,2.7,0,4c0,0.1,0,0.1,0.1,0.1
		C17.8,42.8,18.5,42.8,19.1,42.8z M42.8,40.7c0-0.7,0-1.3,0-2c0-0.1,0-0.2-0.2-0.2c-1.3,0-2.7,0-4,0c-0.1,0-0.2,0-0.2,0.2
		c0,1.3,0,2.7,0,4c0,0.1,0,0.2,0.2,0.2c1.3,0,2.7,0,4,0c0.1,0,0.2,0,0.2-0.2C42.8,42,42.8,41.3,42.8,40.7z"/>
	<path class="st4" d="M29.9,38.5c1.4,0,2.8,0,4.1,0c0.1,0,0.2,0,0.2,0.2c0,1.3,0,2.7,0,4c0,0.1,0,0.2-0.2,0.2c-2.8,0-5.5,0-8.3,0
		c-0.1,0-0.2,0-0.2-0.2c0-1.3,0-2.7,0-4c0-0.1,0-0.2,0.2-0.2C27.1,38.5,28.5,38.5,29.9,38.5z"/>
	<path class="st4" d="M19.1,42.8c-0.7,0-1.3,0-2,0c-0.1,0-0.1,0-0.1-0.1c0-1.3,0-2.7,0-4c0-0.1,0-0.1,0.1-0.1c1.3,0,2.7,0,4,0
		c0.1,0,0.1,0,0.1,0.1c0,1.3,0,2.7,0,4c0,0.1,0,0.1-0.1,0.1C20.5,42.8,19.8,42.8,19.1,42.8z"/>
	<path class="st4" d="M42.8,40.7c0,0.7,0,1.3,0,2c0,0.1,0,0.2-0.2,0.2c-1.3,0-2.7,0-4,0c-0.1,0-0.2,0-0.2-0.2c0-1.3,0-2.7,0-4
		c0-0.1,0-0.2,0.2-0.2c1.3,0,2.7,0,4,0c0.1,0,0.2,0,0.2,0.2C42.8,39.3,42.8,40,42.8,40.7z"/>
</g>
</svg>
