<?xml version="1.0" encoding="utf-8"?>
<!-- Generator: Adobe Illustrator 25.4.0, SVG Export Plug-In . SVG Version: 6.00 Build 0)  -->
<svg version="1.1" id="Layer_1" xmlns="http://www.w3.org/2000/svg" xmlns:xlink="http://www.w3.org/1999/xlink" x="0px" y="0px"
	 viewBox="0 0 60 60" style="enable-background:new 0 0 60 60;" xml:space="preserve">
<style type="text/css">
	.st0{fill:#B8C2FE;}
	.st1{fill:#FE9431;}
	.st2{fill:#36FEDE;}
	.st3{fill:#3854FE;}
	.st4{fill:#FED30B;}
</style>
<g>
	<path d="M59.9,30.4c0-0.1,0-0.2-0.2-0.2c-1.3,0-2.6,0-3.9,0c-0.2,0-0.2,0-0.2,0.2c0,5.6,0,11.2,0,16.7c0,0.2,0,0.2-0.2,0.2
		c-1.3,0-2.6,0-3.9,0c-0.2,0-0.2,0-0.2,0.2c0,1.3,0,2.6,0,3.9c0,0.1,0,0.2-0.2,0.2c-1.3,0-2.6,0-4,0c-0.1,0-0.2,0-0.2,0.2
		c0,1.3,0,2.6,0,3.9c0,0.2,0,0.2-0.2,0.2c-2.7,0-5.4,0-8.2,0c-0.1,0-0.2,0-0.2,0.2c0,1.3,0,2.6,0,3.9c-5.7,0-11.4,0-17.2,0
		c0-1.3,0-2.6,0-3.9c0-0.2,0-0.2-0.2-0.2c-2.7,0-5.5,0-8.2,0c-0.2,0-0.2-0.1-0.2-0.2c0-1.3,0-2.6,0-3.9c0-0.1,0-0.2-0.2-0.2
		c-1.3,0-2.6,0-4,0c-0.1,0-0.2,0-0.2-0.2c0-1.3,0-2.6,0-3.9c0-0.2,0-0.2-0.2-0.2c-1.3,0-2.6,0-3.9,0c-0.2,0-0.2,0-0.2-0.2
		c0-5.6,0-11.2,0-16.8c0-0.1,0-0.2-0.2-0.2c-1.3,0-2.7,0-4,0c0-10,0-20,0-30C0,0,0,0,0.2,0C20.1,0,40,0,59.9,0C60,0,60,0,60,0.1
		 M21.3,51.6c0.1,0,0.1,0,0.2,0c1.4,0,2.7,0,4.1,0c0,1.4,0,2.7,0,4.1c0,0.1,0,0.2,0.2,0.2c2.7,0,5.5,0,8.2,0c0.1,0,0.2,0,0.2-0.2
		c0-1.4,0-2.7,0-4.1c0.4,0,0.7,0,1.1,0c1.1,0,2.1,0,3.2,0c0.1,0,0.1,0,0.2,0c1.3,0,2.6,0,4,0c0.1,0,0.2,0,0.2-0.2c0-1.4,0-2.7,0-4.1
		c1.4,0,2.7,0,4.1,0c0.1,0,0.2,0,0.2-0.2c0-1.3,0-2.6,0-3.9c0-0.2,0-0.2,0.2-0.2c1.3,0,2.6,0,3.9,0c0.1,0,0.2,0,0.2-0.2
		c0-4.2,0-8.4,0-12.5c0-0.1,0-0.2-0.2-0.2c-1.3,0-2.6,0-3.9,0c-0.1,0-0.2,0-0.2-0.2c0-1.3,0-2.6,0-3.9c0-0.1,0-0.2-0.2-0.2
		c-1.3,0-2.6,0-3.9,0c-0.1,0-0.2,0-0.2-0.2c0-1.3,0-2.6,0-4c0-0.1,0-0.2-0.2-0.2c-8.5,0-17,0-25.4,0c-0.1,0-0.2,0-0.2,0.2
		c0,1.3,0,2.6,0,4c0,0.1,0,0.2-0.2,0.2c-1.3,0-2.6,0-4,0c-0.1,0-0.2,0-0.2,0.2c0,1.3,0,2.6,0,3.9c0,0.2,0,0.2-0.2,0.2
		c-1.3,0-2.6,0-3.9,0c-0.1,0-0.2,0-0.2,0.2c0,4.2,0,8.3,0,12.5c0,0.2,0,0.2,0.2,0.2c1.3,0,2.6,0,3.9,0c0.1,0,0.2,0,0.2,0.2
		c0,1.3,0,2.6,0,3.9c0,0.1,0,0.2,0.2,0.2c1.4,0,2.7,0,4.1,0c0,0.3,0,0.5,0,0.8c0,1.1,0,2.2,0,3.4c0,0.1,0,0.2,0.2,0.2
		c0.2,0,0.4,0,0.6,0C18.9,51.6,20.1,51.6,21.3,51.6z M4.2,8.8c0,0.3,0,0.5,0,0.8c0,1.2,0,2.3,0,3.5c0,0.2,0,0.5,0,0.7
		c0,1.2,0,2.4,0,3.5c0,0.2,0,0.5,0,0.7c0,1.2,0,2.4,0,3.6c0,0.1,0,0.1,0,0.2c0,1.3,0,2.6,0,4c0,0.1,0,0.2,0.2,0.2c1.3,0,2.6,0,4,0
		c0.1,0,0.2,0,0.2-0.2c0-1.4,0-2.7,0-4.1l0,0c1.4,0,2.7,0,4.1,0c0.1,0,0.2,0,0.2-0.2c0-1.4,0-2.7,0-4.1c0.4,0,0.8,0,1.2,0
		c1,0,2.1,0,3.1,0c0.2,0,0.5,0,0.7,0c1.2,0,2.4,0,3.6,0c0.1,0,0.1,0,0.2,0c5.6,0,11.2,0,16.9,0c0.1,0,0.1,0,0.2,0c0.2,0,0.5,0,0.7,0
		c1.2,0,2.4,0,3.6,0c0.1,0,0.1,0,0.2,0c1.4,0,2.7,0,4.1,0c0,1.4,0,2.7,0,4.1c0,0.1,0,0.2,0.2,0.2c1.4,0,2.7,0,4.1,0l0,0
		c0,1.4,0,2.8,0,4.1c0,0.1,0,0.2,0.2,0.2c0.3,0,0.7,0,1,0c1,0,2,0,2.9,0c0.1,0,0.2,0,0.2-0.2c0-0.2,0-0.3,0-0.5c0-1.2,0-2.4,0-3.7
		c0-0.2,0-0.4,0-0.7c0-1.2,0-2.4,0-3.6c0-0.2,0-0.4,0-0.6c0-1.2,0-2.5,0-3.7c0-0.2,0-0.4,0-0.6c0-1.2,0-2.5,0-3.7c0-0.2,0-0.5,0-0.7
		c0-1.1,0-2.3,0-3.4c0-0.1,0-0.2-0.2-0.2c-0.2,0-0.3,0-0.5,0c-1.2,0-2.4,0-3.7,0c-0.5,0-1,0-1.5,0c-0.9,0-1.8,0-2.6,0
		c-0.1,0-0.2,0-0.2,0.2c0,0.2,0,0.3,0,0.5c0,1.2,0,2.4,0,3.7c0,0.1,0,0.1,0,0.2c0,1.4,0,2.7,0,4.1c-1.4,0-2.8,0-4.3,0l0,0
		c0-0.4,0-0.8,0-1.1c0-1,0-2.1,0-3.1c0-0.5,0-1,0-1.5c0-0.9,0-1.8,0-2.6c0-0.1,0-0.2-0.2-0.2c-0.2,0-0.3,0-0.5,0c-1.2,0-2.4,0-3.6,0
		c-0.4,0-0.8,0-1.2,0c-1,0-2,0-3,0c-0.1,0-0.2,0-0.2,0.2c0,0.2,0,0.3,0,0.5c0,1.2,0,2.4,0,3.7c0,0.1,0,0.1,0,0.2c0,1.4,0,2.7,0,4.1
		c0,0-0.1,0-0.1,0c-2.8,0-5.6,0-8.4,0c0,0-0.1,0-0.1,0c0-0.4,0-0.8,0-1.1c0-1,0-2.1,0-3.1c0-0.4,0-0.8,0-1.2c0-1,0-2,0-3
		c0-0.1,0-0.2-0.2-0.2c-0.2,0-0.3,0-0.5,0c-1.2,0-2.4,0-3.7,0c-0.5,0-1,0-1.5,0c-0.9,0-1.8,0-2.6,0c-0.1,0-0.2,0-0.2,0.2
		c0,0.2,0,0.3,0,0.5c0,1.2,0,2.4,0,3.7c0,0.1,0,0.1,0,0.2c0,1.4,0,2.7,0,4.1c-1.4,0-2.9,0-4.3,0c0-0.4,0-0.8,0-1.2c0-1,0-2.1,0-3.1
		c0-0.5,0-1,0-1.5c0-0.9,0-1.8,0-2.6c0-0.1,0-0.2-0.2-0.2c-0.1,0-0.3,0-0.4,0c-1.2,0-2.5,0-3.7,0c-0.2,0-0.5,0-0.7,0
		c-1.1,0-2.3,0-3.4,0c-0.1,0-0.2,0-0.2,0.2c0,0.2,0,0.3,0,0.5C4.2,6.4,4.2,7.6,4.2,8.8z"/>
	<path class="st0" d="M17,47.3c-1.4,0-2.7,0-4.1,0c-0.1,0-0.2,0-0.2-0.2c0-1.3,0-2.6,0-3.9c0-0.2,0-0.2-0.2-0.2c-1.3,0-2.6,0-3.9,0
		c-0.1,0-0.2,0-0.2-0.2c0-4.2,0-8.3,0-12.5c0-0.2,0.1-0.2,0.2-0.2c1.3,0,2.6,0,3.9,0c0.1,0,0.2,0,0.2-0.2c0-1.3,0-2.6,0-3.9
		c0-0.1,0-0.2,0.2-0.2c1.3,0,2.6,0,4,0c0.1,0,0.2,0,0.2-0.2c0-1.3,0-2.6,0-4c0-0.1,0-0.2,0.2-0.2c8.5,0,17,0,25.4,0
		c0.1,0,0.2,0,0.2,0.2c0,1.3,0,2.6,0,4c0,0.1,0,0.2,0.2,0.2c1.3,0,2.6,0,3.9,0c0.1,0,0.2,0,0.2,0.2c0,1.3,0,2.6,0,3.9
		c0,0.2,0,0.2,0.2,0.2c1.3,0,2.6,0,3.9,0c0.1,0,0.2,0,0.2,0.2c0,4.2,0,8.4,0,12.5c0,0.1,0,0.2-0.2,0.2c-1.3,0-2.6,0-3.9,0
		c-0.1,0-0.2,0-0.2,0.2c0,1.3,0,2.6,0,3.9c0,0.1,0,0.2-0.2,0.2c-1.4,0-2.7,0-4.1,0l0,0c0-1.4,0-2.9,0-4.3c0-0.1,0-0.1,0-0.2
		c0-1.4,0-2.7,0-4.1c1.4,0,2.7,0,4.1,0c0.2,0,0.2,0,0.2-0.2c0-1.3,0-2.6,0-3.9c0-0.2,0-0.2-0.2-0.2c-1.4,0-2.7,0-4.1,0
		c0-1.4,0-2.7,0-4.1c0-0.1,0-0.2-0.2-0.2c-1.4,0-2.8,0-4.1,0c0-1.4,0-2.7,0-4.1c0-0.1,0-0.2-0.2-0.2c-5.6,0-11.2,0-16.8,0
		c-0.1,0-0.2,0-0.2,0.2c0,1.4,0,2.7,0,4.1c-1.4,0-2.7,0-4.1,0c-0.2,0-0.2,0-0.2,0.2c0,1.4,0,2.7,0,4.1c-1.4,0-2.7,0-4.1,0
		c-0.1,0-0.2,0-0.2,0.2c0,1.3,0,2.6,0,3.9c0,0.2,0,0.2,0.2,0.2c1.4,0,2.7,0,4.1,0c0,0.2,0,0.4,0,0.6c0,1.2,0,2.4,0,3.6
		C17,44.5,17,45.9,17,47.3L17,47.3z"/>
	<path class="st1" d="M38.5,17.4c-0.1,0-0.1,0-0.2,0c-5.6,0-11.2,0-16.9,0c-0.1,0-0.1,0-0.2,0c0-1.4,0-2.9,0-4.3l0,0
		c0.4,0,0.8,0,1.2,0c1,0,2.1,0,3.1,0c0,0,0.1,0,0.1,0c2.8,0,5.6,0,8.4,0c0,0,0.1,0,0.1,0c0.1,0,0.1,0,0.2,0c1.4,0,2.7,0,4.1,0l0,0
		C38.5,14.5,38.5,15.9,38.5,17.4z"/>
	<path class="st1" d="M34.2,51.6c0,1.4,0,2.7,0,4.1c0,0.1,0,0.2-0.2,0.2c-2.7,0-5.5,0-8.2,0c-0.1,0-0.2,0-0.2-0.2c0-1.4,0-2.7,0-4.1
		l0,0C28.5,51.6,31.3,51.6,34.2,51.6L34.2,51.6z"/>
	<path class="st2" d="M12.7,8.8c0,1,0,2.1,0,3.1c0,0.4,0,0.8,0,1.2l0,0c-1.4,0-2.9,0-4.3,0l0,0c0-1.4,0-2.9,0-4.3l0,0
		C9.9,8.8,11.3,8.8,12.7,8.8z"/>
	<path class="st2" d="M17,13.1c0-1.4,0-2.7,0-4.1c0-0.1,0-0.1,0-0.2c1.4,0,2.9,0,4.3,0l0,0c0,1.4,0,2.9,0,4.3l0,0
		C19.9,13.1,18.5,13.1,17,13.1L17,13.1z"/>
	<path class="st3" d="M21.3,13.1c0-1.4,0-2.9,0-4.3c1.4,0,2.9,0,4.3,0c0,1,0,2.1,0,3.1c0,0.4,0,0.8,0,1.1c-1,0-2.1,0-3.1,0
		C22.1,13.1,21.7,13.1,21.3,13.1z"/>
	<path class="st3" d="M38.5,13.1c-1.4,0-2.7,0-4.1,0c-0.1,0-0.1,0-0.2,0c0-1.4,0-2.7,0-4.1c0-0.1,0-0.1,0-0.2c1.4,0,2.9,0,4.3,0l0,0
		C38.5,10.2,38.5,11.7,38.5,13.1z"/>
	<path class="st2" d="M38.5,13.1c0-1.4,0-2.9,0-4.3c1.4,0,2.9,0,4.3,0c0,1,0,2.1,0,3.1c0,0.4,0,0.8,0,1.1
		C41.4,13.1,39.9,13.1,38.5,13.1L38.5,13.1z"/>
	<path class="st2" d="M47,13.1c0-1.4,0-2.7,0-4.1c0-0.1,0-0.1,0-0.2c1.4,0,2.9,0,4.3,0c0,1.4,0,2.9,0,4.3l0,0
		C49.9,13.1,48.5,13.1,47,13.1L47,13.1z"/>
	<path class="st3" d="M51.3,13.1c0-1.4,0-2.9,0-4.3l0,0c1.4,0,2.9,0,4.3,0c0,1.2,0,2.5,0,3.7c0,0.2,0,0.4,0,0.6
		C54.2,13.1,52.8,13.1,51.3,13.1z"/>
	<path class="st1" d="M4.2,17.4c0-1.2,0-2.4,0-3.5c0-0.2,0-0.5,0-0.7c1.4,0,2.9,0,4.3,0l0,0c0,1.4,0,2.9,0,4.3l0,0
		C7,17.4,5.6,17.4,4.2,17.4z"/>
	<path class="st1" d="M12.7,13.1c1.4,0,2.9,0,4.3,0l0,0c0,1.4,0,2.9,0,4.3c-1,0-2.1,0-3.1,0c-0.4,0-0.8,0-1.2,0l0,0
		C12.7,15.9,12.7,14.5,12.7,13.1L12.7,13.1z"/>
	<path class="st3" d="M17,17.4c0-1.4,0-2.9,0-4.3c1.4,0,2.9,0,4.3,0c0,1.4,0,2.9,0,4.3c-1.2,0-2.4,0-3.6,0
		C17.5,17.4,17.3,17.4,17,17.4z"/>
	<path class="st3" d="M42.8,8.8c-1.4,0-2.9,0-4.3,0l0,0c0-1.4,0-2.9,0-4.3c1.2,0,2.4,0,3.6,0c0.2,0,0.3,0,0.5,0c0.1,0,0.2,0,0.2,0.2
		c0,0.9,0,1.8,0,2.6C42.8,7.8,42.8,8.3,42.8,8.8z"/>
	<path class="st3" d="M38.5,13.1c1.4,0,2.9,0,4.3,0l0,0c0,1.4,0,2.9,0,4.3c-1.2,0-2.4,0-3.6,0c-0.2,0-0.5,0-0.7,0
		C38.5,15.9,38.5,14.5,38.5,13.1z"/>
	<path class="st1" d="M8.5,21.7c0,1.4,0,2.7,0,4.1c0,0.1,0,0.2-0.2,0.2c-1.3,0-2.6,0-4,0c-0.1,0-0.2,0-0.2-0.2c0-1.3,0-2.6,0-4
		c0-0.1,0-0.1,0-0.2C5.6,21.7,7,21.7,8.5,21.7z"/>
	<path class="st1" d="M51.3,13.1c1.4,0,2.9,0,4.3,0c0,1.2,0,2.5,0,3.7c0,0.2,0,0.4,0,0.6c-1.4,0-2.9,0-4.3,0l0,0
		C51.3,15.9,51.3,14.5,51.3,13.1L51.3,13.1z"/>
	<path class="st3" d="M8.5,21.7c-1.4,0-2.9,0-4.3,0c0-1.2,0-2.4,0-3.6c0-0.2,0-0.5,0-0.7c1.4,0,2.9,0,4.3,0
		C8.5,18.8,8.5,20.2,8.5,21.7L8.5,21.7z"/>
	<path class="st1" d="M8.5,21.7c0-1.4,0-2.9,0-4.3l0,0c1.4,0,2.9,0,4.3,0l0,0c0,1.4,0,2.7,0,4.1c0,0.1,0,0.2-0.2,0.2
		C11.2,21.7,9.8,21.7,8.5,21.7z"/>
	<path class="st1" d="M38.5,4.5c0,1.4,0,2.9,0,4.3c-1.4,0-2.9,0-4.3,0c0-1.2,0-2.4,0-3.7c0-0.2,0-0.3,0-0.5c0-0.1,0-0.2,0.2-0.2
		c1,0,2,0,3,0C37.7,4.5,38.1,4.5,38.5,4.5z"/>
	<path class="st1" d="M51.3,21.7c-1.4,0-2.7,0-4.1,0c-0.1,0-0.2,0-0.2-0.2c0-1.4,0-2.7,0-4.1l0,0c1.4,0,2.9,0,4.3,0l0,0
		C51.3,18.8,51.3,20.2,51.3,21.7z"/>
	<path class="st3" d="M51.3,21.7c0-1.4,0-2.9,0-4.3c1.4,0,2.9,0,4.3,0c0,1.2,0,2.4,0,3.6c0,0.2,0,0.4,0,0.7
		C54.2,21.7,52.8,21.7,51.3,21.7L51.3,21.7z"/>
	<path class="st3" d="M51.3,8.8c-1.4,0-2.9,0-4.3,0c0-1.2,0-2.4,0-3.7c0-0.2,0-0.3,0-0.5c0-0.1,0-0.2,0.2-0.2c0.9,0,1.8,0,2.6,0
		c0.5,0,1,0,1.5,0C51.3,6,51.3,7.4,51.3,8.8L51.3,8.8z"/>
	<path class="st1" d="M25.6,8.8c-1.4,0-2.9,0-4.3,0l0,0c0-1.4,0-2.9,0-4.3c1.2,0,2.4,0,3.7,0c0.2,0,0.3,0,0.5,0c0.1,0,0.2,0,0.2,0.2
		c0,1,0,2,0,3C25.6,8,25.6,8.4,25.6,8.8z"/>
	<path class="st1" d="M51.3,21.7c1.4,0,2.9,0,4.3,0c0,1.2,0,2.4,0,3.7c0,0.2,0,0.3,0,0.5c0,0.1,0,0.2-0.2,0.2c-1,0-2,0-2.9,0
		c-0.3,0-0.7,0-1,0c-0.1,0-0.2,0-0.2-0.2C51.3,24.4,51.3,23,51.3,21.7z"/>
	<path class="st3" d="M21.3,4.5c0,1.4,0,2.9,0,4.3c-1.4,0-2.9,0-4.3,0c0-1.2,0-2.4,0-3.7c0-0.2,0-0.3,0-0.5c0-0.1,0-0.2,0.2-0.2
		c0.9,0,1.8,0,2.6,0C20.3,4.5,20.8,4.5,21.3,4.5z"/>
	<path class="st3" d="M12.7,8.8c-1.4,0-2.9,0-4.3,0c0-1.4,0-2.9,0-4.3c1.2,0,2.5,0,3.7,0c0.1,0,0.3,0,0.4,0c0.1,0,0.2,0,0.2,0.2
		c0,0.9,0,1.8,0,2.6C12.7,7.8,12.7,8.3,12.7,8.8z"/>
	<path class="st2" d="M8.5,4.5c0,1.4,0,2.9,0,4.3l0,0c-1.4,0-2.9,0-4.3,0c0-1.2,0-2.4,0-3.7c0-0.2,0-0.3,0-0.5c0-0.1,0-0.2,0.2-0.2
		c1.1,0,2.3,0,3.4,0C8,4.5,8.2,4.5,8.5,4.5z"/>
	<path class="st0" d="M42.8,47.3c0,1.4,0,2.7,0,4.1c0,0.1,0,0.2-0.2,0.2c-1.3,0-2.6,0-4,0c-0.1,0-0.1,0-0.2,0c0-0.6,0-1.2,0-1.8
		c0-0.8,0-1.6,0-2.5C39.9,47.3,41.4,47.3,42.8,47.3L42.8,47.3z"/>
	<path class="st3" d="M4.2,8.8c1.4,0,2.9,0,4.3,0c0,1.4,0,2.9,0,4.3c-1.4,0-2.9,0-4.3,0c0-1.2,0-2.3,0-3.5C4.2,9.3,4.2,9.1,4.2,8.8z
		"/>
	<path class="st0" d="M21.3,51.6c-1.2,0-2.4,0-3.6,0c-0.2,0-0.4,0-0.6,0c-0.1,0-0.2,0-0.2-0.2c0-1.1,0-2.2,0-3.4c0-0.3,0-0.5,0-0.8
		l0,0c1.4,0,2.9,0,4.3,0c0,0.1,0,0.1,0,0.2C21.3,48.9,21.3,50.2,21.3,51.6z"/>
	<path class="st1" d="M21.3,51.6c0-1.4,0-2.7,0-4.1c0-0.1,0-0.1,0-0.2l0,0c0.1,0,0.2,0,0.3,0c1.3,0,2.7,0,4,0c0,1.4,0,2.9,0,4.3l0,0
		c-1.4,0-2.7,0-4.1,0C21.5,51.6,21.4,51.6,21.3,51.6z"/>
	<path class="st2" d="M51.3,8.8c0-1.4,0-2.9,0-4.3c1.2,0,2.4,0,3.7,0c0.2,0,0.3,0,0.5,0c0.1,0,0.2,0,0.2,0.2c0,1.1,0,2.3,0,3.4
		c0,0.2,0,0.5,0,0.7C54.2,8.8,52.8,8.8,51.3,8.8z"/>
	<path class="st1" d="M38.5,47.3c0,0.8,0,1.6,0,2.5c0,0.6,0,1.2,0,1.8c-1.1,0-2.1,0-3.2,0c-0.4,0-0.7,0-1.1,0l0,0c0-1.4,0-2.9,0-4.3
		c0.2,0,0.4,0,0.5,0C36,47.3,37.2,47.3,38.5,47.3L38.5,47.3z"/>
	<path class="st1" d="M42.8,17.4c0-1.4,0-2.9,0-4.3c1.4,0,2.8,0,4.3,0l0,0c0,1.4,0,2.9,0,4.3l0,0c-1.4,0-2.7,0-4.1,0
		C42.9,17.4,42.9,17.4,42.8,17.4z"/>
	<path class="st4" d="M21.3,30.2c0-1.4,0-2.7,0-4.1c0-0.1,0-0.2,0.2-0.2c5.6,0,11.2,0,16.8,0c0.1,0,0.2,0,0.2,0.2c0,1.4,0,2.7,0,4.1
		l0,0c-0.4,0-0.8,0-1.2,0c-1,0-1.9,0-2.9,0c-0.1,0-0.2,0-0.2,0.2c0,0.1,0,0.3,0,0.4c0,1.2,0,2.5,0,3.7c0,0.2,0,0.5,0,0.7
		c0,1.2,0,2.4,0,3.5c0,1.4,0,2.9,0,4.3l0,0c-2.9,0-5.7,0-8.6,0l0,0c0-0.4,0-0.8,0-1.1c0-1,0-2.1,0-3.1c0-0.2,0-0.5,0-0.7
		c0-1.2,0-2.4,0-3.6c0-1.4,0-2.7,0-4.1c0-0.1,0-0.2-0.2-0.2C24.1,30.2,22.7,30.2,21.3,30.2L21.3,30.2z"/>
	<path class="st1" d="M17,34.5c0-1.4,0-2.7,0-4.1c0-0.2,0-0.2,0.2-0.2c1.4,0,2.7,0,4.1,0c0,0,0,0,0,0c0,1.4,0,2.9,0,4.3l0,0
		C19.9,34.5,18.5,34.5,17,34.5L17,34.5z"/>
	<path class="st1" d="M38.5,30.2c1.4,0,2.8,0,4.1,0c0.1,0,0.2,0.1,0.2,0.2c0,1.4,0,2.7,0,4.1l0,0c-1.4,0-2.9,0-4.3,0l0,0
		C38.5,33,38.5,31.6,38.5,30.2L38.5,30.2z"/>
	<path class="st1" d="M17,38.8c-1.4,0-2.7,0-4.1,0c-0.1,0-0.2,0-0.2-0.2c0-1.3,0-2.6,0-3.9c0-0.2,0-0.2,0.2-0.2c1.4,0,2.7,0,4.1,0
		l0,0C17,35.9,17,37.3,17,38.8L17,38.8z"/>
	<path class="st1" d="M17,43c0-1.2,0-2.4,0-3.6c0-0.2,0-0.4,0-0.6l0,0c1.4,0,2.9,0,4.3,0l0,0c0,1.4,0,2.9,0,4.3l0,0
		C19.9,43,18.5,43,17,43z"/>
	<path class="st1" d="M42.8,38.8c0,1.4,0,2.7,0,4.1c0,0.1,0,0.1,0,0.2c-1.4,0-2.9,0-4.3,0l0,0c0-1.4,0-2.9,0-4.3l0,0
		C39.9,38.8,41.4,38.8,42.8,38.8L42.8,38.8z"/>
	<path class="st2" d="M17,43c1.4,0,2.9,0,4.3,0c0,1.4,0,2.9,0,4.3l0,0c-1.4,0-2.9,0-4.3,0C17,45.9,17,44.5,17,43z"/>
	<path class="st2" d="M38.5,43c1.4,0,2.9,0,4.3,0c0,1.4,0,2.9,0,4.3c-1.4,0-2.9,0-4.3,0l0,0C38.5,45.9,38.5,44.5,38.5,43z"/>
	<path class="st1" d="M42.8,34.5c1.4,0,2.7,0,4.1,0c0.2,0,0.2,0,0.2,0.2c0,1.3,0,2.6,0,3.9c0,0.2,0,0.2-0.2,0.2c-1.4,0-2.7,0-4.1,0
		l0,0C42.8,37.3,42.8,35.9,42.8,34.5L42.8,34.5z"/>
	<path class="st2" d="M34.2,47.3c0,1.4,0,2.9,0,4.3c-2.9,0-5.7,0-8.6,0c0-1.4,0-2.9,0-4.3l0,0C28.5,47.3,31.3,47.3,34.2,47.3
		L34.2,47.3z"/>
	<path class="st3" d="M12.7,17.4c-1.4,0-2.9,0-4.3,0c0-1.4,0-2.9,0-4.3c1.4,0,2.9,0,4.3,0C12.7,14.5,12.7,15.9,12.7,17.4z"/>
	<path class="st3" d="M47.1,17.4c0-1.4,0-2.9,0-4.3c1.4,0,2.9,0,4.3,0c0,1.4,0,2.9,0,4.3C49.9,17.4,48.5,17.4,47.1,17.4z"/>
	<path class="st4" d="M21.3,47.3c0-1.4,0-2.9,0-4.3c0,0,0,0,0,0c1.4,0,2.9,0,4.3,0l0,0c0,1.4,0,2.9,0,4.3l0,0c-1.3,0-2.7,0-4,0
		C21.5,47.3,21.4,47.3,21.3,47.3z"/>
	<path class="st4" d="M38.5,43c0,1.4,0,2.9,0,4.3c-1.3,0-2.5,0-3.8,0c-0.2,0-0.4,0-0.5,0l0,0c0-1.4,0-2.9,0-4.3l0,0
		C35.6,43,37.1,43,38.5,43L38.5,43z"/>
	<path d="M34.2,43c0,1.4,0,2.9,0,4.3c-2.9,0-5.7,0-8.6,0c0-1.4,0-2.9,0-4.3C28.5,43,31.3,43,34.2,43z"/>
	<path class="st2" d="M21.3,34.5c0-1.4,0-2.9,0-4.3c1.4,0,2.7,0,4.1,0c0.1,0,0.2,0,0.2,0.2c0,1.4,0,2.7,0,4.1
		C24.2,34.5,22.8,34.5,21.3,34.5z"/>
	<path class="st2" d="M38.5,30.2c0,1.4,0,2.9,0,4.3c-1.4,0-2.9,0-4.3,0c0-1.2,0-2.5,0-3.7c0-0.1,0-0.3,0-0.4c0-0.1,0-0.2,0.2-0.2
		c1,0,1.9,0,2.9,0C37.7,30.2,38.1,30.2,38.5,30.2z"/>
	<path class="st0" d="M21.3,34.5c1.4,0,2.9,0,4.3,0c0,1.2,0,2.4,0,3.6c0,0.2,0,0.5,0,0.7c-1.4,0-2.9,0-4.3,0l0,0c0-0.5,0-0.9,0-1.4
		C21.3,36.4,21.3,35.4,21.3,34.5L21.3,34.5z"/>
	<path class="st0" d="M34.2,34.5c1.4,0,2.9,0,4.3,0l0,0c0,0.3,0,0.5,0,0.8c0,1.2,0,2.3,0,3.5l0,0c-1.4,0-2.9,0-4.3,0
		c0-1.2,0-2.4,0-3.5C34.2,35,34.2,34.7,34.2,34.5z"/>
	<path class="st2" d="M21.3,38.8c1.4,0,2.9,0,4.3,0c0,1,0,2.1,0,3.1c0,0.4,0,0.8,0,1.1c-1.4,0-2.9,0-4.3,0
		C21.3,41.6,21.3,40.2,21.3,38.8z"/>
	<path class="st2" d="M34.2,38.8c1.4,0,2.9,0,4.3,0c0,1.4,0,2.9,0,4.3c-1.4,0-2.9,0-4.3,0C34.2,41.6,34.2,40.2,34.2,38.8z"/>
	<path d="M21.3,34.5c0,1,0,1.9,0,2.9c0,0.5,0,0.9,0,1.4c-1.4,0-2.9,0-4.3,0c0-1.4,0-2.9,0-4.3C18.5,34.5,19.9,34.5,21.3,34.5z"/>
	<path d="M38.5,38.8c0-1.2,0-2.3,0-3.5c0-0.3,0-0.5,0-0.8c1.4,0,2.9,0,4.3,0c0,1.4,0,2.9,0,4.3C41.4,38.8,39.9,38.8,38.5,38.8z"/>
</g>
</svg>
