<?xml version="1.0" encoding="utf-8"?>
<!-- Generator: Adobe Illustrator 25.4.0, SVG Export Plug-In . SVG Version: 6.00 Build 0)  -->
<svg version="1.1" id="Layer_1" xmlns="http://www.w3.org/2000/svg" xmlns:xlink="http://www.w3.org/1999/xlink" x="0px" y="0px"
	 viewBox="0 0 60 60" style="enable-background:new 0 0 60 60;" xml:space="preserve">
<style type="text/css">
	.st0{fill:#FE9431;}
	.st1{fill:#B8C2FE;}
	.st2{fill:#36FEDE;}
	.st3{fill:#3854FE;}
</style>
<g>
	<path d="M21.4,0c0,1.4,0,2.7,0,4.1l0,0c-2.8,0-5.6,0-8.4,0c-0.1,0-0.2,0-0.2,0.2c0,1.4,0,2.8,0,4.1c-1.4,0-2.9,0-4.3,0l0,0
		c0-1.4,0-2.8,0-4.1c0-0.1,0-0.2-0.2-0.2c-1.4,0-2.8,0-4.1,0l0,0c0-1.4,0-2.7,0-4.1C10,0,15.7,0,21.4,0z"/>
	<path d="M38.6,4.1c0-1.4,0-2.7,0-4.1c5.7,0,11.5,0,17.2,0c0,1.4,0,2.7,0,4.1l0,0c-1.4,0-2.8,0-4.1,0c-0.1,0-0.2,0-0.2,0.2
		c0,1.4,0,2.8,0,4.1l0,0c-1.4,0-2.9,0-4.3,0c0-1.4,0-2.8,0-4.1c0-0.2,0-0.2-0.2-0.2C44.2,4.1,41.4,4.1,38.6,4.1L38.6,4.1z"/>
	<path d="M12.8,55.7c0,1.4,0,2.9,0,4.3c-4.2,0-8.4,0-12.7,0C0,60,0,60,0,59.8c0-1.4,0-2.8,0-4.1c0.4,0,0.7,0,1.1,0
		c1.1,0,2.1,0,3.2,0c0.1,0,0.2,0,0.3,0c1.3,0,2.7,0,4,0c0.1,0,0.1,0,0.2,0C10.1,55.7,11.5,55.7,12.8,55.7L12.8,55.7z"/>
	<path d="M47.2,60c0-1.4,0-2.9,0-4.3l0,0c0.4,0,0.8,0,1.2,0c1,0,2.1,0,3.1,0c0.2,0,0.5,0,0.7,0c1.2,0,2.4,0,3.6,0c0.1,0,0.1,0,0.2,0
		c1.3,0,2.7,0,4,0c0,1.4,0,2.8,0,4.2c0,0.1,0,0.1-0.1,0.1C55.6,60,51.4,60,47.2,60z"/>
	<path d="M0,47.1c1.4,0,2.8,0,4.2,0l0,0c0,1.4,0,2.9,0,4.3l0,0c-0.1,0-0.1,0-0.2,0c-1.3,0-2.7,0-4,0C0,50,0,48.5,0,47.1z"/>
	<path class="st0" d="M0,51.4c1.3,0,2.7,0,4,0c0.1,0,0.1,0,0.2,0c0,1.4,0,2.9,0,4.3c-1.1,0-2.1,0-3.2,0c-0.4,0-0.7,0-1.1,0
		C0,54.3,0,52.8,0,51.4z"/>
	<path d="M4.2,8.4c-1.4,0-2.8,0-4.2,0C0,7,0,5.5,0,4.1c1.4,0,2.8,0,4.2,0l0,0C4.2,5.5,4.2,7,4.2,8.4L4.2,8.4z"/>
	<path d="M4.2,29.9c-1.4,0-2.8,0-4.2,0c0-1.4,0-2.9,0-4.3c1.4,0,2.8,0,4.2,0l0,0C4.2,27,4.2,28.5,4.2,29.9L4.2,29.9z"/>
	<path d="M55.8,47.1c1.4,0,2.8,0,4.2,0c0,1.4,0,2.9,0,4.3c-0.9,0-1.8,0-2.7,0c-0.5,0-1,0-1.5,0l0,0C55.8,50,55.8,48.5,55.8,47.1
		L55.8,47.1z"/>
	<path d="M60,29.9c-1.4,0-2.8,0-4.2,0l0,0c0-1.4,0-2.9,0-4.3l0,0c1.4,0,2.8,0,4.2,0C60,27,60,28.5,60,29.9z"/>
	<path d="M60,8.4c-1.4,0-2.8,0-4.2,0l0,0c0-1.4,0-2.9,0-4.3l0,0c1.4,0,2.8,0,4.2,0C60,5.5,60,7,60,8.4z"/>
	<path class="st0" d="M55.8,51.4c0.5,0,1,0,1.5,0c0.9,0,1.8,0,2.7,0c0,1.4,0,2.9,0,4.3c-1.3,0-2.7,0-4,0c-0.1,0-0.1,0-0.2,0
		C55.8,54.3,55.8,52.8,55.8,51.4z"/>
	<path d="M47.2,55.7c-4.2,0-8.5,0-12.7,0c-0.1,0-0.2,0-0.2-0.2c0-4.2,0-8.3,0-12.5c0-0.2,0-0.2-0.2-0.2c-2.7,0-5.5,0-8.2,0
		c-0.2,0-0.2,0-0.2,0.2c0,4.2,0,8.4,0,12.5c0,0.2,0,0.2-0.2,0.2c-4.2,0-8.5,0-12.7,0l0,0c0-1.4,0-2.9,0-4.3c2.8,0,5.6,0,8.4,0
		c0,0,0.1,0,0.1,0c0.1,0,0.1,0,0.1-0.1c0-1.4,0-2.8,0-4.2c0-0.1,0-0.1,0-0.2c0-1.3,0-2.6,0-3.9c0-0.2,0-0.2-0.2-0.2
		c-1.4,0-2.7,0-4.1,0c0-0.4,0-0.7,0-1.1c0-1.1,0-2.1,0-3.2c0-1.4,0-2.9,0-4.3l0,0c0.2,0,0.4,0,0.6,0c1.2,0,2.5,0,3.7,0
		c0,1.4,0,2.8,0,4.1c0,0.1,0,0.2,0.2,0.2c0.2,0,0.4,0,0.6,0c1.2,0,2.4,0,3.6,0c0,0,0.1,0,0.1,0c2.8,0,5.6,0,8.4,0c0,0,0.1,0,0.1,0
		c0,0,0,0,0.1,0c1.4,0,2.7,0,4.1,0c0.1,0,0.1,0,0.1-0.2c0-1.4,0-2.8,0-4.1c0.1,0,0.1,0,0.2,0c1.4,0,2.7,0,4.1,0l0,0
		c0,0.4,0,0.7,0,1.1c0,1.1,0,2.1,0,3.2c0,0.1,0,0.1,0,0.2c0,1.4,0,2.7,0,4.1c-0.5,0-1,0-1.5,0c-0.9,0-1.7,0-2.6,0
		c-0.1,0-0.2,0-0.2,0.2c0,0.2,0,0.3,0,0.5c0,1.2,0,2.5,0,3.7c0,0.1,0,0.1,0,0.2c0,1.3,0,2.6,0,3.9c0,0.2,0,0.2,0.2,0.2
		c2.8,0,5.6,0,8.4,0C47.2,52.8,47.2,54.3,47.2,55.7L47.2,55.7z"/>
	<path d="M21.4,4.1c1.4,0,2.8,0,4.1,0c0.1,0,0.2,0,0.2,0.2c0,2.7,0,5.5,0,8.2c0,0.1,0,0.1,0,0.2l0,0c-1.4,0-2.9,0-4.3,0
		c0,0,0-0.1,0-0.1C21.4,9.8,21.4,6.9,21.4,4.1L21.4,4.1z"/>
	<path d="M25.7,12.7c2.9,0,5.7,0,8.6,0l0,0c0,0.2,0,0.5,0,0.7c0,1.2,0,2.4,0,3.6c-2.9,0-5.7,0-8.6,0c0-0.1,0-0.1,0-0.2
		C25.7,15.4,25.7,14.1,25.7,12.7L25.7,12.7z"/>
	<path d="M34.3,12.7c0-2.8,0-5.6,0-8.4c0-0.2,0-0.2,0.2-0.2c1.4,0,2.7,0,4.1,0l0,0c0,2.8,0,5.7,0,8.5c0,0,0,0.1,0,0.1
		C37.2,12.7,35.7,12.7,34.3,12.7L34.3,12.7z"/>
	<path d="M8.5,21.3c0-2.9,0-5.7,0-8.6l0,0c1.4,0,2.9,0,4.3,0c0,1.4,0,2.8,0,4.2c0,0.1,0,0.1,0.1,0.1c1.4,0,2.8,0,4.2,0l0,0
		c0,0.4,0,0.8,0,1.1c0,1.1,0,2.1,0,3.2c0,0,0,0.1,0,0.1c0,4.3,0,8.5,0,12.8l0,0c-1.4,0-2.9,0-4.3,0l0,0c0-0.1,0-0.1,0-0.2
		c0-4.2,0-8.3,0-12.5c0-0.2,0-0.2-0.2-0.2C11.3,21.3,9.9,21.3,8.5,21.3L8.5,21.3z"/>
	<path d="M4.2,25.6c0-1.4,0-2.8,0-4.1c0-0.1,0-0.2,0.2-0.2c1.4,0,2.8,0,4.1,0l0,0c0,0.4,0,0.8,0,1.2c0,1,0,2.1,0,3.1
		C7.1,25.6,5.7,25.6,4.2,25.6L4.2,25.6z"/>
	<path d="M8.5,12.7c-1.4,0-2.8,0-4.2,0c-0.1,0-0.1,0-0.1-0.2c0-1.4,0-2.8,0-4.1l0,0c1.4,0,2.9,0,4.3,0l0,0
		C8.5,9.8,8.5,11.3,8.5,12.7L8.5,12.7z"/>
	<path d="M51.5,12.7c0,2.9,0,5.7,0,8.6l0,0c-1.4,0-2.8,0-4.1,0c-0.1,0-0.2,0-0.2,0.2c0,1.4,0,2.8,0,4.2c0,2.8,0,5.7,0,8.5l0,0
		c-1.4,0-2.9,0-4.3,0l0,0c0-4.3,0-8.5,0-12.8c0,0,0-0.1,0-0.1c0-1.4,0-2.9,0-4.3l0,0c1.4,0,2.8,0,4.2,0c0.1,0,0.1-0.1,0.1-0.1
		c0-1.4,0-2.8,0-4.2C48.6,12.7,50.1,12.7,51.5,12.7L51.5,12.7z"/>
	<path d="M51.5,21.3c1.4,0,2.8,0,4.2,0c0.1,0,0.1,0,0.1,0.2c0,1.4,0,2.8,0,4.1l0,0c-1.4,0-2.9,0-4.3,0
		C51.5,24.2,51.5,22.7,51.5,21.3L51.5,21.3z"/>
	<path d="M55.8,8.4c0,1.4,0,2.8,0,4.1c0,0.1,0,0.2-0.2,0.2c-1.4,0-2.8,0-4.1,0l0,0c0-1.4,0-2.9,0-4.3l0,0
		C52.9,8.4,54.4,8.4,55.8,8.4L55.8,8.4z"/>
	<path d="M4.2,47.1c0-2.8,0-5.6,0-8.4c0-0.1,0-0.2,0.2-0.2c1.3,0,2.7,0,4,0c0.1,0,0.2,0,0.2-0.2c0-1.4,0-2.8,0-4.1l0,0
		c1.4,0,2.9,0,4.3,0l0,0c0,0.4,0,0.8,0,1.1c0,1.1,0,2.1,0,3.2c0,1.4,0,2.9,0,4.3l0,0c-0.3,0-0.7,0-1,0c-1,0-2.1,0-3.1,0
		c-0.1,0-0.2,0-0.2,0.2c0,0.2,0,0.4,0,0.6c0,1.2,0,2.4,0,3.5C7.1,47.1,5.7,47.1,4.2,47.1L4.2,47.1z"/>
	<path d="M8.5,34.2c-1.4,0-2.8,0-4.2,0c-0.1,0-0.1,0-0.1-0.2c0-1.4,0-2.8,0-4.1l0,0c1.4,0,2.9,0,4.3,0C8.5,31.3,8.5,32.8,8.5,34.2
		L8.5,34.2z"/>
	<path d="M51.5,34.2c0,1.4,0,2.8,0,4.1c0,0.1,0,0.2,0.2,0.2c1.3,0,2.7,0,4,0c0.1,0,0.2,0,0.2,0.2c0,2.8,0,5.6,0,8.4l0,0
		c-0.4,0-0.9,0-1.3,0c-1,0-2,0-3,0c0-1.4,0-2.8,0-4.2c0-0.1-0.1-0.1-0.1-0.1c-0.6,0-1.3,0-1.9,0c-0.7,0-1.5,0-2.2,0l0,0
		c0-0.4,0-0.8,0-1.2c0-1,0-2.1,0-3.1c0-0.1,0-0.1,0-0.2c0-1.4,0-2.7,0-4.1l0,0C48.6,34.2,50.1,34.2,51.5,34.2L51.5,34.2z"/>
	<path d="M55.8,29.9c0,1.4,0,2.8,0,4.1c0,0.1,0,0.2-0.2,0.2c-1.4,0-2.8,0-4.1,0l0,0c0-0.4,0-0.8,0-1.1c0-1.1,0-2.1,0-3.2
		C52.9,29.9,54.4,29.9,55.8,29.9L55.8,29.9z"/>
	<path class="st1" d="M21.4,4.1c0,2.8,0,5.7,0,8.5c0,0,0,0.1,0,0.1c0,0.1,0,0.1,0,0.2c0,1.4,0,2.7,0,4.1c-0.5,0-1,0-1.5,0
		c-0.9,0-1.9,0-2.8,0l0,0c0-1.4,0-2.9,0-4.3c0-1.4,0-2.8,0-4.1c0-0.1,0-0.2-0.2-0.2c-1.4,0-2.8,0-4.1,0l0,0c0-1.4,0-2.8,0-4.1
		c0-0.1,0-0.2,0.2-0.2C15.8,4.1,18.6,4.1,21.4,4.1z"/>
	<path class="st0" d="M8.5,12.7c0-1.4,0-2.9,0-4.3c1.4,0,2.9,0,4.3,0c0,0,0,0,0,0c0,1.4,0,2.9,0,4.3l0,0C11.4,12.7,10,12.7,8.5,12.7
		z"/>
	<path class="st2" d="M8.5,8.4c-1.4,0-2.9,0-4.3,0c0-1.4,0-2.9,0-4.3c1.4,0,2.8,0,4.1,0c0.1,0,0.2,0,0.2,0.2C8.5,5.6,8.5,7,8.5,8.4z
		"/>
	<path class="st1" d="M38.6,12.7C38.6,12.7,38.6,12.6,38.6,12.7c0-2.9,0-5.8,0-8.6c2.8,0,5.6,0,8.4,0c0.1,0,0.2,0,0.2,0.2
		c0,1.4,0,2.8,0,4.1l0,0c-0.1,0-0.2,0-0.3,0c-1.3,0-2.5,0-3.8,0c-0.1,0-0.2,0-0.2,0.1c0,1.4,0,2.8,0,4.2c0,1,0,2,0,3.1
		c0,0.4,0,0.8,0,1.2c0,0,0,0,0,0c-1.4,0-2.9,0-4.3,0c0-0.3,0-0.6,0-0.9C38.6,15,38.6,13.8,38.6,12.7z"/>
	<path class="st2" d="M55.8,8.4c-1.4,0-2.9,0-4.3,0c0-1.4,0-2.8,0-4.1c0-0.1,0-0.2,0.2-0.2c1.4,0,2.8,0,4.1,0
		C55.8,5.5,55.8,7,55.8,8.4z"/>
	<path class="st0" d="M51.5,8.4c0,1.4,0,2.9,0,4.3c-1.4,0-2.9,0-4.3,0l0,0c0-1.4,0-2.9,0-4.3l0,0C48.6,8.4,50.1,8.4,51.5,8.4z"/>
	<path class="st2" d="M12.8,51.4c0,1.4,0,2.9,0,4.3c-1.4,0-2.7,0-4.1,0c-0.1,0-0.1,0-0.2,0c0-1.4,0-2.9,0-4.3l0,0
		C10,51.4,11.4,51.4,12.8,51.4L12.8,51.4z"/>
	<path class="st3" d="M8.5,51.4c0,1.4,0,2.9,0,4.3c-1.3,0-2.7,0-4,0c-0.1,0-0.2,0-0.3,0c0-1.4,0-2.9,0-4.3l0,0
		C5.7,51.4,7.1,51.4,8.5,51.4z"/>
	<path class="st3" d="M55.8,51.4c0,1.4,0,2.9,0,4.3c-1.2,0-2.4,0-3.6,0c-0.2,0-0.5,0-0.7,0c0-1.4,0-2.9,0-4.3
		C52.9,51.4,54.4,51.4,55.8,51.4L55.8,51.4z"/>
	<path class="st2" d="M51.5,51.4c0,1.4,0,2.9,0,4.3c-1,0-2.1,0-3.1,0c-0.4,0-0.8,0-1.2,0c0-1.4,0-2.9,0-4.3l0,0
		C48.6,51.4,50.1,51.4,51.5,51.4L51.5,51.4z"/>
	<path class="st1" d="M8.5,51.4c-1.4,0-2.9,0-4.3,0c0-1.4,0-2.9,0-4.3c1.4,0,2.9,0,4.3,0l0,0C8.5,48.5,8.5,50,8.5,51.4L8.5,51.4z"/>
	<path class="st2" d="M8.5,29.9c-1.4,0-2.9,0-4.3,0c0-1.4,0-2.9,0-4.3c1.4,0,2.9,0,4.3,0c0,0.3,0,0.5,0,0.8
		C8.5,27.5,8.5,28.7,8.5,29.9z"/>
	<path class="st1" d="M55.8,51.4c-1.4,0-2.9,0-4.3,0l0,0c0-1.4,0-2.9,0-4.3l0,0c1,0,2,0,3,0c0.4,0,0.9,0,1.3,0
		C55.8,48.5,55.8,50,55.8,51.4z"/>
	<path class="st2" d="M55.8,29.9c-1.4,0-2.9,0-4.3,0c0-0.4,0-0.8,0-1.1c0-1.1,0-2.1,0-3.2c1.4,0,2.9,0,4.3,0
		C55.8,27,55.8,28.5,55.8,29.9z"/>
	<path class="st2" d="M34.3,38.5c0,0-0.1,0-0.1,0c-2.8,0-5.6,0-8.4,0c0,0-0.1,0-0.1,0c0-0.3,0-0.5,0-0.8c0-1.2,0-2.3,0-3.5
		c0-0.3,0-0.6,0-0.9c0-1.1,0-2.2,0-3.4c0-1.4,0-2.9,0-4.3l0,0c1,0,2,0,3,0c1.9,0,3.7,0,5.6,0l0,0c0,0.3,0,0.7,0,1c0,1.1,0,2.2,0,3.3
		c0,0.1,0,0.2,0,0.3c0,1.3,0,2.7,0,4c0,0.1,0,0.1,0,0.2C34.3,35.8,34.3,37.1,34.3,38.5z"/>
	<path class="st3" d="M34.3,34.2c0-1.3,0-2.7,0-4c0-0.1,0-0.2,0-0.3c1.4,0,2.8,0,4.1,0c0.1,0,0.2,0,0.2-0.1c0-1.3,0-2.7,0-4
		c0-0.1,0-0.1-0.1-0.1c-1.4,0-2.8,0-4.2,0l0,0c0,0,0-0.1,0-0.1c0-1.4,0-2.8,0-4.2l0,0c0.4,0,0.7,0,1.1,0c1.1,0,2.2,0,3.2,0
		c0.1,0,0.1,0,0.2,0c1.4,0,2.7,0,4.1,0c0,0,0,0.1,0,0.1c0,4.3,0,8.5,0,12.8c-1.4,0-2.7,0-4.1,0c-0.1,0-0.1,0-0.2,0
		c-0.1,0-0.1,0-0.2,0C37,34.2,35.7,34.2,34.3,34.2z"/>
	<path class="st3" d="M25.7,29.9c0,1.1,0,2.2,0,3.4c0,0.3,0,0.6,0,0.9c-0.2,0-0.3,0-0.5,0c-1.3,0-2.5,0-3.8,0c-1.2,0-2.5,0-3.7,0
		c-0.2,0-0.4,0-0.6,0c0-4.3,0-8.5,0-12.8c0,0,0-0.1,0-0.1c0.4,0,0.7,0,1.1,0c1.1,0,2.1,0,3.2,0c0.1,0,0.1,0,0.2,0c1.4,0,2.8,0,4.1,0
		l0,0c0,1,0,1.9,0,2.9c0,0.5,0,0.9,0,1.4l0,0c-1.4,0-2.8,0-4.2,0c-0.1,0-0.1,0.1-0.1,0.2c0,1.3,0,2.7,0,4c0,0.1,0,0.2,0.2,0.2
		C23,29.9,24.3,29.9,25.7,29.9z"/>
	<path class="st2" d="M47.2,51.4c-2.8,0-5.6,0-8.4,0c-0.2,0-0.2,0-0.2-0.2c0-1.3,0-2.6,0-3.9c0-0.1,0-0.1,0-0.2c2.9,0,5.7,0,8.6,0
		l0,0C47.2,48.5,47.2,50,47.2,51.4L47.2,51.4z"/>
	<path class="st2" d="M21.4,47.1c0,1.4,0,2.8,0,4.2c0,0.1,0,0.1-0.1,0.1c0,0-0.1,0-0.1,0c-2.8,0-5.6,0-8.4,0l0,0c0-1.4,0-2.9,0-4.3
		l0,0C15.7,47.1,18.6,47.1,21.4,47.1z"/>
	<path class="st3" d="M47.2,47.1c-2.9,0-5.7,0-8.6,0c0-1.2,0-2.5,0-3.7c0-0.2,0-0.3,0-0.5c0-0.1,0-0.2,0.2-0.2c0.9,0,1.7,0,2.6,0
		c0.5,0,1,0,1.5,0c0.1,0,0.1,0,0.2,0c1.4,0,2.7,0,4.1,0l0,0C47.2,44.2,47.2,45.7,47.2,47.1z"/>
	<path class="st3" d="M21.4,47.1c-2.9,0-5.7,0-8.6,0c0-1.4,0-2.9,0-4.3l0,0c0.2,0,0.4,0,0.6,0c1.2,0,2.4,0,3.7,0c1.4,0,2.7,0,4.1,0
		c0.2,0,0.2,0,0.2,0.2c0,1.3,0,2.6,0,3.9C21.4,47,21.4,47,21.4,47.1z"/>
	<path class="st0" d="M12.8,38.5c0-1.1,0-2.1,0-3.2c0-0.4,0-0.8,0-1.1c1.4,0,2.9,0,4.3,0c0,1.4,0,2.9,0,4.3
		C15.7,38.5,14.3,38.5,12.8,38.5z"/>
	<path class="st1" d="M21.4,34.2c1.3,0,2.5,0,3.8,0c0.2,0,0.3,0,0.5,0c0,1.2,0,2.3,0,3.5c0,0.3,0,0.5,0,0.8c-1.2,0-2.4,0-3.6,0
		c-0.2,0-0.4,0-0.6,0c-0.1,0-0.2,0-0.2-0.2C21.4,37,21.4,35.6,21.4,34.2z"/>
	<path class="st1" d="M34.3,34.2c1.4,0,2.7,0,4.1,0c0.1,0,0.1,0,0.2,0c0,1.4,0,2.8,0,4.1c0,0.1,0,0.2-0.1,0.2c-1.4,0-2.7,0-4.1,0
		c0,0,0,0-0.1,0c0-1.4,0-2.7,0-4.1C34.3,34.3,34.3,34.3,34.3,34.2z"/>
	<path class="st0" d="M47.2,34.2c0,1.4,0,2.7,0,4.1c0,0.1,0,0.1,0,0.2c-1.4,0-2.9,0-4.3,0c0-1.1,0-2.1,0-3.2c0-0.4,0-0.7,0-1.1
		C44.3,34.2,45.8,34.2,47.2,34.2z"/>
	<path class="st1" d="M12.8,38.5c1.4,0,2.9,0,4.3,0c0,1.1,0,2.1,0,3.2c0,0.4,0,0.7,0,1.1c-1.2,0-2.4,0-3.7,0c-0.2,0-0.4,0-0.6,0
		C12.8,41.4,12.8,39.9,12.8,38.5z"/>
	<path class="st1" d="M42.9,38.5c1.4,0,2.9,0,4.3,0c0,1,0,2.1,0,3.1c0,0.4,0,0.8,0,1.2c-1.4,0-2.7,0-4.1,0c-0.1,0-0.1,0-0.2,0
		c0-1.4,0-2.7,0-4.1C42.9,38.6,42.9,38.6,42.9,38.5z"/>
	<path class="st3" d="M21.4,17c0-1.4,0-2.7,0-4.1c0-0.1,0-0.1,0-0.2c1.4,0,2.9,0,4.3,0c0,1.4,0,2.7,0,4.1c0,0.1,0,0.1,0,0.2l0,0
		c-0.1,0-0.1,0-0.2,0C24.2,17,22.8,17,21.4,17L21.4,17z"/>
	<path class="st0" d="M25.7,17c2.9,0,5.7,0,8.6,0l0,0c0,1.4,0,2.9,0,4.3l0,0c-2.9,0-5.7,0-8.6,0l0,0C25.7,19.9,25.7,18.4,25.7,17
		L25.7,17z"/>
	<path class="st3" d="M38.6,12.7c0,1.1,0,2.3,0,3.4c0,0.3,0,0.6,0,0.9l0,0c-0.3,0-0.6,0-0.9,0c-1.1,0-2.2,0-3.4,0l0,0
		c0-1.2,0-2.4,0-3.6c0-0.2,0-0.5,0-0.7C35.7,12.7,37.2,12.7,38.6,12.7z"/>
	<path class="st0" d="M8.5,29.9c0-1.2,0-2.4,0-3.5c0-0.3,0-0.5,0-0.8c0-1,0-2.1,0-3.1c0-0.4,0-0.8,0-1.2c1.4,0,2.7,0,4.1,0
		c0.2,0,0.2,0,0.2,0.2c0,4.2,0,8.3,0,12.5c0,0.1,0,0.1,0,0.2c-1.4,0-2.9,0-4.3,0C8.5,32.8,8.5,31.3,8.5,29.9z"/>
	<path class="st0" d="M21.4,21.3c-1.1,0-2.1,0-3.2,0c-0.4,0-0.7,0-1.1,0c0-1.1,0-2.1,0-3.2c0-0.4,0-0.8,0-1.1c0.9,0,1.9,0,2.8,0
		c0.5,0,1,0,1.5,0l0,0C21.4,18.4,21.4,19.9,21.4,21.3z"/>
	<path class="st3" d="M17.1,12.7c0,1.4,0,2.9,0,4.3c-1.4,0-2.8,0-4.2,0c-0.1,0-0.1-0.1-0.1-0.1c0-1.4,0-2.8,0-4.2l0,0
		C14.3,12.7,15.7,12.7,17.1,12.7z"/>
	<path class="st0" d="M51.5,25.6c0,1.1,0,2.1,0,3.2c0,0.4,0,0.8,0,1.1c0,1.1,0,2.1,0,3.2c0,0.4,0,0.8,0,1.1c-1.4,0-2.9,0-4.3,0
		c0-2.8,0-5.7,0-8.5c0-1.4,0-2.8,0-4.2c0-0.1,0-0.2,0.2-0.2c1.4,0,2.8,0,4.1,0C51.5,22.7,51.5,24.2,51.5,25.6z"/>
	<path class="st0" d="M42.9,21.3c-1.4,0-2.7,0-4.1,0c-0.1,0-0.1,0-0.2,0c0-1.4,0-2.9,0-4.3l0,0c1.4,0,2.9,0,4.3,0
		C42.9,18.4,42.9,19.9,42.9,21.3z"/>
	<path class="st3" d="M42.9,17c0-0.4,0-0.8,0-1.2c0-1,0-2,0-3.1c1.4,0,2.9,0,4.3,0l0,0c0,1.4,0,2.8,0,4.2c0,0.1,0,0.1-0.1,0.1
		C45.7,17,44.3,17,42.9,17z"/>
	<path class="st0" d="M12.8,42.8c0,1.4,0,2.9,0,4.3l0,0c-1.4,0-2.9,0-4.3,0l0,0c0-1.2,0-2.4,0-3.5c0-0.2,0-0.4,0-0.6
		c0-0.1,0-0.2,0.2-0.2c1,0,2.1,0,3.1,0C12.1,42.8,12.5,42.8,12.8,42.8z"/>
	<path class="st0" d="M47.2,47.1c0-1.4,0-2.9,0-4.3c0.7,0,1.5,0,2.2,0c0.6,0,1.3,0,1.9,0c0.1,0,0.1,0,0.1,0.1c0,1.4,0,2.8,0,4.2l0,0
		C50.1,47.1,48.6,47.1,47.2,47.1L47.2,47.1z"/>
	<path d="M17.1,12.7c-1.4,0-2.9,0-4.3,0c0-1.4,0-2.9,0-4.3c1.4,0,2.8,0,4.1,0c0.1,0,0.2,0,0.2,0.2C17.1,9.9,17.1,11.3,17.1,12.7z"/>
	<path d="M47.2,12.7c-1.4,0-2.9,0-4.3,0c0-1.4,0-2.8,0-4.2c0-0.1,0.1-0.1,0.2-0.1c1.3,0,2.5,0,3.8,0c0.1,0,0.2,0,0.3,0
		C47.2,9.8,47.2,11.3,47.2,12.7z"/>
	<path class="st3" d="M8.5,47.1c1.4,0,2.9,0,4.3,0c0,1.4,0,2.9,0,4.3c-1.4,0-2.9,0-4.3,0C8.5,50,8.5,48.5,8.5,47.1z"/>
	<path class="st3" d="M47.2,47.1c1.4,0,2.9,0,4.3,0c0,1.4,0,2.9,0,4.3c-1.4,0-2.9,0-4.3,0C47.2,50,47.2,48.5,47.2,47.1z"/>
	<path class="st1" d="M25.7,21.3c2.9,0,5.7,0,8.6,0c0,1.4,0,2.8,0,4.2c0,0,0,0.1,0,0.1c-1.9,0-3.7,0-5.6,0c-1,0-2,0-3,0
		c0-0.5,0-0.9,0-1.4C25.7,23.2,25.7,22.3,25.7,21.3z"/>
	<path d="M25.7,29.9c-1.4,0-2.8,0-4.1,0c-0.1,0-0.2,0-0.2-0.2c0-1.3,0-2.7,0-4c0-0.1,0-0.2,0.1-0.2c1.4,0,2.8,0,4.2,0
		C25.7,27,25.7,28.5,25.7,29.9z"/>
	<path d="M34.3,25.6c1.4,0,2.8,0,4.2,0c0.1,0,0.1,0,0.1,0.1c0,1.3,0,2.7,0,4c0,0.1-0.1,0.1-0.2,0.1c-1.4,0-2.8,0-4.1,0
		c0-1.1,0-2.2,0-3.3C34.3,26.3,34.3,25.9,34.3,25.6z"/>
	<path class="st2" d="M38.6,17c0,1.4,0,2.9,0,4.3c-1.1,0-2.2,0-3.2,0c-0.4,0-0.7,0-1.1,0c0-1.4,0-2.9,0-4.3c1.1,0,2.2,0,3.4,0
		C38,17,38.3,17,38.6,17z"/>
	<path class="st2" d="M21.4,21.3c0-1.4,0-2.9,0-4.3c1.4,0,2.8,0,4.1,0c0.1,0,0.1,0,0.2,0c0,1.4,0,2.9,0,4.3c-1.4,0-2.8,0-4.1,0
		C21.5,21.3,21.5,21.3,21.4,21.3z"/>
</g>
</svg>
