<?xml version="1.0" encoding="utf-8"?>
<!-- Generator: Adobe Illustrator 25.4.0, SVG Export Plug-In . SVG Version: 6.00 Build 0)  -->
<svg version="1.1" id="Layer_1" xmlns="http://www.w3.org/2000/svg" xmlns:xlink="http://www.w3.org/1999/xlink" x="0px" y="0px"
	 viewBox="0 0 60 60" style="enable-background:new 0 0 60 60;" xml:space="preserve">
<style type="text/css">
	.st0{fill:#B8C2FE;}
	.st1{fill:#FEA004;}
	.st2{fill:#36FEDE;}
	.st3{fill:#FED30B;}
	.st4{fill:#0058F7;}
</style>
<g>
	<g>
		<path d="M9.7,60.2c0.1,0,0.2,0,0.2-0.1c0-1.3,0-2.6,0-3.9c0.4,0,0.7,0,1.1,0c1,0,2,0,3,0c0.2,0,0.4,0,0.6,0c1.1,0,2.3,0,3.4,0
			c0.2,0,0.4,0,0.6,0c1.1,0,2.3,0,3.4,0c0.4,0,0.7,0,1.1,0c1,0,2,0,2.9,0c0,0,0.1,0,0.1,0c2.6,0,5.2,0,7.9,0c0,0,0.1,0,0.1,0
			c0.2,0,0.4,0,0.6,0c1.2,0,2.3,0,3.5,0c0.2,0,0.4,0,0.6,0c1.1,0,2.3,0,3.4,0c0.2,0,0.4,0,0.6,0c1.1,0,2.3,0,3.4,0c1.3,0,2.7,0,4,0
			c0,1.3,0,2.5,0,3.8c0,0.2,0,0.2,0.2,0.2"/>
		<path d="M18,4.2c8.1,0,16.1,0,24.2,0c0,0.3,0,0.5,0,0.8c0,1,0,2,0,3c-1.3,0-2.7,0-4,0c0,0-0.1,0-0.1,0c-5.3,0-10.6,0-15.9,0
			c0,0-0.1,0-0.1,0c-1,0-2,0-3,0c-0.3,0-0.7,0-1,0c0-0.1,0-0.1,0-0.2C18,6.6,18,5.4,18,4.2z"/>
		<path d="M46.2,4.2c2.7,0,5.4,0,8.1,0c0,1.2,0,2.5,0,3.7l0,0c-1.3,0-2.6,0-3.9,0c-0.1,0-0.1,0-0.1,0.1c0,1.3,0,2.6,0,3.9
			c-0.9,0-1.8,0-2.7,0c-0.4,0-0.9,0-1.3,0c0-0.1,0-0.1,0-0.2c0-1.3,0-2.5,0-3.8c0-0.1,0-0.1,0-0.2C46.2,6.6,46.2,5.4,46.2,4.2z"/>
		<path d="M5.8,4.2c2.7,0,5.4,0,8.1,0c0,0.2,0,0.3,0,0.5c0,1.1,0,2.2,0,3.3c0,1.2,0,2.4,0,3.6c0,0.1,0,0.3,0,0.4c-0.1,0-0.1,0-0.2,0
			c-1.3,0-2.6,0-3.9,0c0-1.3,0-2.6,0-3.9c0-0.1,0-0.1-0.1-0.1c-1.3,0-2.6,0-3.9,0l0,0C5.8,6.7,5.8,5.4,5.8,4.2z"/>
		<path d="M5.8,52.1c-1.3,0-2.5,0-3.8,0c-0.1,0-0.1,0-0.2,0c0,0,0,0,0,0c0-2.7,0-5.4,0-8c1.3,0,2.7,0,4,0l0,0c0,0.3,0,0.7,0,1
			c0,1,0,2,0,3c0,0.1,0,0.1,0,0.2C5.8,49.6,5.8,50.9,5.8,52.1L5.8,52.1z"/>
		<path d="M58.2,52.1c-1.3,0-2.6,0-3.9,0l0,0c0-0.4,0-0.7,0-1.1c0-1,0-2,0-3c0-0.1,0-0.1,0-0.2c0-1.3,0-2.6,0-3.8l0,0
			c1.3,0,2.6,0,3.9,0C58.2,46.8,58.2,49.5,58.2,52.1z"/>
		<path d="M18.1,4.3c-1.3,0-2.7,0-4,0c0-1.3,0-2.7,0-4c0,0,0,0,0,0c0.1,0,0.1,0,0.2,0c1.3,0,2.6,0,3.8,0l0,0
			C18.1,1.6,18.1,2.9,18.1,4.3z"/>
		<path d="M46.1,0.2c0,1.3,0,2.7,0,4c-1.3,0-2.6,0-3.9,0c0-1.3,0-2.7,0-4l0,0C43.5,0.2,44.8,0.2,46.1,0.2z"/>
		<path class="st0" d="M46.2,4.2c0,1.2,0,2.4,0,3.6c0,0.1,0,0.1,0,0.2c-1.3,0-2.7,0-4,0l0,0c0-1,0-2,0-3c0-0.3,0-0.5,0-0.8
			C43.5,4.2,44.9,4.2,46.2,4.2z"/>
		<path class="st0" d="M13.9,7.9c0-1.1,0-2.2,0-3.3c0-0.2,0-0.3,0-0.5c1.3,0,2.7,0,4,0c0,1.2,0,2.4,0,3.6c0,0.1,0,0.1,0,0.2
			c0,0,0,0,0,0C16.6,7.9,15.3,7.9,13.9,7.9z"/>
		<path class="st1" d="M1.8,7.9C1.8,7.9,1.8,7.9,1.8,7.9C1.8,7.9,1.8,7.9,1.8,7.9C1.8,7.9,1.8,7.9,1.8,7.9z"/>
		<path class="st1" d="M1.8,52.1C1.8,52.1,1.8,52.1,1.8,52.1C1.8,52.2,1.8,52.2,1.8,52.1C1.8,52.2,1.8,52.2,1.8,52.1z"/>
		<path class="st1" d="M1.8,4.2C1.8,4.2,1.8,4.2,1.8,4.2C1.8,4.2,1.8,4.2,1.8,4.2z"/>
		<path d="M13.9,36.1c0-2.7,0-5.4,0-8l0,0c1.3,0,2.6,0,3.9,0c0.1,0,0.1,0,0.1-0.1c0-1.3,0-2.6,0-3.9c1.3,0,2.7,0,4,0
			c0,1.3,0,2.6,0,3.9c0,0.1,0,0.1,0.1,0.1c1.3,0,2.6,0,3.9,0c0,0.4,0,0.7,0,1.1c0,1,0,2,0,3c-0.4,0-0.7,0-1.1,0c-1,0-2,0-3,0
			c0,0-0.1,0-0.1,0c-1.2,0-2.5,0-3.7,0c-0.1,0-0.2,0-0.2,0.2c0,1.3,0,2.6,0,3.9C16.6,36.1,15.3,36.1,13.9,36.1L13.9,36.1z"/>
		<path d="M13.9,28c-1.3,0-2.6,0-3.9,0c-0.1,0-0.1,0-0.1-0.1c0-1.3,0-2.6,0-3.9l0,0c1.3,0,2.7,0,4,0C13.9,25.3,13.9,26.7,13.9,28
			L13.9,28z"/>
		<path d="M9.9,40.1c0-1.3,0-2.6,0-3.9c0-0.1,0-0.1,0.1-0.1c1.3,0,2.6,0,3.9,0l0,0c0,1.3,0,2.7,0,4C12.6,40.1,11.2,40.1,9.9,40.1
			L9.9,40.1z"/>
		<path d="M5.8,44.1c0-1.3,0-2.6,0-3.9c0-0.1,0-0.1,0.1-0.1c1.3,0,2.6,0,3.9,0l0,0c0,1.3,0,2.7,0,4C8.5,44.1,7.2,44.1,5.8,44.1
			L5.8,44.1z"/>
		<path d="M46.2,28c0,2.7,0,5.4,0,8l0,0c-1.3,0-2.7,0-4,0c0-0.4,0-0.9,0-1.3c0-0.9,0-1.7,0-2.6c0-0.1,0-0.2-0.1-0.1
			c-0.1,0-0.3,0-0.4,0c-1.2,0-2.3,0-3.5,0c-0.1,0-0.1,0-0.2,0c-1.3,0-2.6,0-3.9,0c0-1.3,0-2.7,0-4c1.3,0,2.6,0,3.9,0
			c0.1,0,0.1-0.1,0.1-0.1c0-1.3,0-2.6,0-3.9c1.3,0,2.7,0,4,0c0,1.3,0,2.6,0,3.9c0,0.1,0,0.2,0.2,0.2C43.6,28,44.9,28,46.2,28
			L46.2,28z"/>
		<path d="M50.2,24c0,1.3,0,2.6,0,3.9c0,0.1,0,0.1-0.1,0.1c-1.3,0-2.6,0-3.9,0l0,0c0-1.3,0-2.7,0-4C47.6,24,48.9,24,50.2,24L50.2,24
			z"/>
		<path d="M46.2,36.1c1.3,0,2.6,0,3.9,0c0.1,0,0.1,0,0.1,0.1c0,1.3,0,2.6,0,3.9l0,0c-1.3,0-2.7,0-4,0C46.2,38.7,46.2,37.4,46.2,36.1
			L46.2,36.1z"/>
		<path d="M50.2,40.1c1.3,0,2.6,0,3.9,0c0.1,0,0.1,0,0.1,0.1c0,1.3,0,2.6,0,3.9l0,0c-1.3,0-2.7,0-4,0C50.2,42.8,50.2,41.4,50.2,40.1
			L50.2,40.1z"/>
		<path class="st2" d="M34.1,56.2c0,0-0.1,0-0.1,0c-2.6,0-5.2,0-7.9,0c0,0-0.1,0-0.1,0c0-1.3,0-2.7,0-4c2.7,0,5.4,0,8.1,0
			C34.1,53.5,34.1,54.8,34.1,56.2z"/>
		<path class="st3" d="M50.2,56.2c-1.3,0-2.7,0-4,0c0-1.3,0-2.7,0-4c1.3,0,2.7,0,4,0l0,0C50.2,53.5,50.2,54.8,50.2,56.2L50.2,56.2z"
			/>
		<path class="st1" d="M46.2,52.1c0,1.3,0,2.7,0,4c-1.1,0-2.3,0-3.4,0c-0.2,0-0.4,0-0.6,0c0-1.3,0-2.7,0-4
			C43.5,52.1,44.9,52.1,46.2,52.1L46.2,52.1z"/>
		<path class="st3" d="M42.2,52.1c0,1.3,0,2.7,0,4c-1.1,0-2.3,0-3.4,0c-0.2,0-0.4,0-0.6,0c0-1.3,0-2.7,0-4
			C39.5,52.1,40.8,52.1,42.2,52.1L42.2,52.1z"/>
		<path class="st1" d="M38.1,52.1c0,1.3,0,2.7,0,4c-1.2,0-2.3,0-3.5,0c-0.2,0-0.4,0-0.6,0c0-1.3,0-2.7,0-4l0,0
			C35.4,52.1,36.8,52.1,38.1,52.1L38.1,52.1z"/>
		<path class="st1" d="M26,52.1c0,1.3,0,2.7,0,4c-1,0-2,0-2.9,0c-0.4,0-0.7,0-1.1,0c0-1.3,0-2.7,0-4C23.3,52.1,24.7,52.1,26,52.1
			L26,52.1z"/>
		<path class="st3" d="M22,52.1c0,1.3,0,2.7,0,4c-1.1,0-2.3,0-3.4,0c-0.2,0-0.4,0-0.6,0c0-1.3,0-2.7,0-4
			C19.3,52.1,20.6,52.1,22,52.1L22,52.1z"/>
		<path class="st3" d="M13.9,56.2c-1,0-2,0-3,0c-0.4,0-0.7,0-1.1,0l0,0c0-1.3,0-2.7,0-4l0,0c1.3,0,2.7,0,4,0
			C13.9,53.5,13.9,54.8,13.9,56.2z"/>
		<path class="st1" d="M13.9,56.2c0-1.3,0-2.7,0-4l0,0c1.3,0,2.7,0,4,0l0,0c0,1.3,0,2.7,0,4c-1.1,0-2.3,0-3.4,0
			C14.3,56.2,14.1,56.2,13.9,56.2z"/>
		<path class="st4" d="M22,7.9c0,0,0.1,0,0.1,0c5.3,0,10.6,0,15.9,0c0,0,0.1,0,0.1,0c0,1.3,0,2.7,0,4c-0.3,0-0.7,0-1,0c-1,0-2,0-3,0
			c0,0-0.1,0-0.1,0c-2.6,0-5.2,0-7.8,0c0,0-0.1,0-0.1,0c-1.3,0-2.7,0-4,0C22,10.6,22,9.3,22,7.9z"/>
		<path class="st3" d="M38.1,11.9c0-1.3,0-2.7,0-4c1.3,0,2.7,0,4,0l0,0c0,1.3,0,2.7,0,4C40.8,11.9,39.5,11.9,38.1,11.9L38.1,11.9z"
			/>
		<path class="st3" d="M22,7.9c0,1.3,0,2.7,0,4l0,0c-1.3,0-2.7,0-4,0c0-1.3,0-2.7,0-4c0,0,0,0,0,0c0.3,0,0.7,0,1,0
			C20,7.9,21,7.9,22,7.9z"/>
		<path d="M9.9,52.1c0,1.3,0,2.7,0,4c-1.3,0-2.6,0-3.9,0c-0.1,0-0.2,0-0.2-0.2c0-1.3,0-2.6,0-3.9l0,0C7.2,52.1,8.5,52.1,9.9,52.1z"
			/>
		<path d="M50.2,56.2c0-1.3,0-2.7,0-4c1.3,0,2.7,0,4,0l0,0c0,1.3,0,2.6,0,3.9c0,0.1,0,0.1-0.1,0.1C52.8,56.2,51.5,56.2,50.2,56.2z"
			/>
		<path class="st0" d="M46.2,11.9c0.4,0,0.9,0,1.3,0c0.9,0,1.8,0,2.7,0l0,0c0,0.4,0,0.7,0,1.1c0,1,0,2,0,2.9l0,0c-1.3,0-2.7,0-4,0
			C46.2,14.6,46.2,13.3,46.2,11.9C46.2,11.9,46.2,11.9,46.2,11.9z"/>
		<path class="st4" d="M42.2,11.9c0-1.3,0-2.7,0-4c1.3,0,2.7,0,4,0c0,1.3,0,2.5,0,3.8c0,0.1,0,0.1,0,0.2c0,0,0,0,0,0
			c-0.1,0-0.1,0-0.2,0C44.7,11.9,43.5,11.9,42.2,11.9L42.2,11.9z"/>
		<path class="st0" d="M9.9,11.9c1.3,0,2.6,0,3.9,0c0.1,0,0.1,0,0.2,0c0,0,0,0,0,0c0,1.3,0,2.7,0,4c-1.3,0-2.7,0-4,0l0,0
			c0-0.1,0-0.1,0-0.2C9.9,14.5,9.9,13.2,9.9,11.9L9.9,11.9z"/>
		<path class="st4" d="M18,7.9c0,1.3,0,2.7,0,4l0,0c-0.2,0-0.3,0-0.5,0c-1.2,0-2.4,0-3.6,0c0,0,0,0,0,0c0-0.1,0-0.3,0-0.4
			c0-1.2,0-2.4,0-3.6C15.3,7.9,16.6,7.9,18,7.9z"/>
		<path d="M9.9,16c-0.9,0-1.8,0-2.6,0c-0.5,0-0.9,0-1.4,0c0-1.3,0-2.7,0-4c1.3,0,2.7,0,4,0c0,1.3,0,2.6,0,3.8
			C9.9,15.8,9.9,15.9,9.9,16z"/>
		<path d="M54.3,16c-1.3,0-2.7,0-4,0c0-1,0-2,0-2.9c0-0.4,0-0.7,0-1.1c1.3,0,2.7,0,4,0C54.3,13.3,54.3,14.6,54.3,16z"/>
		<path class="st3" d="M34.1,28c0,1.3,0,2.7,0,4c0,1.3,0,2.7,0,4c-2.7,0-5.4,0-8.1,0c0-0.4,0-0.7,0-1.1c0-1,0-2,0-2.9c0-1,0-2,0-3
			c0-0.4,0-0.7,0-1.1l0,0C28.7,28,31.4,28,34.1,28L34.1,28z"/>
		<path class="st4" d="M22,24c-1.3,0-2.7,0-4,0l0,0c0-0.4,0-0.7,0-1.1c0-1,0-2,0-3c1.3,0,2.7,0,4,0C22,21.3,22,22.7,22,24L22,24z"/>
		<path class="st0" d="M13.9,28c0-1.3,0-2.7,0-4l0,0c1.3,0,2.7,0,4,0l0,0c0,1.3,0,2.6,0,3.9c0,0.1,0,0.1-0.1,0.1
			C16.5,28,15.2,28,13.9,28z"/>
		<path class="st1" d="M26,28c-1.3,0-2.6,0-3.9,0C22,28,22,28,22,27.9c0-1.3,0-2.6,0-3.9l0,0c1.3,0,2.7,0,4,0C26,25.3,26,26.7,26,28
			L26,28z"/>
		<path class="st1" d="M18,36.1c0-1.3,0-2.6,0-3.9c0-0.1,0-0.2,0.2-0.2c1.2,0,2.5,0,3.7,0c0,0,0.1,0,0.1,0c0,1.3,0,2.7,0,4
			C20.6,36.1,19.3,36.1,18,36.1L18,36.1z"/>
		<path class="st2" d="M22,36.1c0-1.3,0-2.7,0-4c1,0,2,0,3,0c0.4,0,0.7,0,1.1,0c0,1,0,2,0,2.9c0,0.4,0,0.7,0,1.1l0,0
			C24.7,36.1,23.3,36.1,22,36.1L22,36.1z"/>
		<path class="st1" d="M13.9,40.1c0-1.3,0-2.7,0-4c1.3,0,2.7,0,4,0l0,0c0,1.3,0,2.7,0,4c-0.7,0-1.5,0-2.2,0
			C15.1,40.1,14.5,40.1,13.9,40.1L13.9,40.1z"/>
		<path class="st1" d="M9.9,44.1c0-1.3,0-2.7,0-4c1.3,0,2.7,0,4,0c0,0,0,0,0,0c0,0,0,0.1,0,0.1c0,1.3,0,2.6,0,3.9
			c-0.7,0-1.5,0-2.2,0C11.1,44.1,10.5,44.1,9.9,44.1L9.9,44.1z"/>
		<path class="st4" d="M42.2,24c-1.3,0-2.7,0-4,0l0,0c0-0.4,0-0.7,0-1.1c0-1,0-2,0-3c1.3,0,2.7,0,4,0C42.2,21.3,42.2,22.7,42.2,24
			L42.2,24z"/>
		<path class="st1" d="M38.1,24c0,1.3,0,2.6,0,3.9c0,0.1,0,0.1-0.1,0.1c-1.3,0-2.6,0-3.9,0l0,0c0-1.3,0-2.7,0-4
			C35.4,24,36.8,24,38.1,24L38.1,24z"/>
		<path class="st0" d="M46.2,24c0,1.3,0,2.7,0,4c-1.3,0-2.6,0-3.9,0c-0.1,0-0.2,0-0.2-0.2c0-1.3,0-2.6,0-3.9l0,0
			C43.5,24,44.9,24,46.2,24L46.2,24z"/>
		<path class="st2" d="M34.1,36.1c0-1.3,0-2.7,0-4c1.3,0,2.6,0,3.9,0c0.1,0,0.1,0,0.2,0c0,1.3,0,2.7,0,4
			C36.8,36.1,35.4,36.1,34.1,36.1L34.1,36.1z"/>
		<path class="st1" d="M38.1,36.1c0-1.3,0-2.7,0-4c1.2,0,2.3,0,3.5,0c0.1,0,0.3,0,0.4,0c0.1,0,0.1,0,0.1,0.1c0,0.9,0,1.7,0,2.6
			c0,0.4,0,0.9,0,1.3l0,0C40.8,36.1,39.5,36.1,38.1,36.1L38.1,36.1z"/>
		<path class="st1" d="M46.2,36.1c0,1.3,0,2.7,0,4l0,0c-0.1,0-0.1,0-0.2,0c-1.3,0-2.6,0-3.8,0c0-1.3,0-2.7,0-4l0,0
			C43.5,36.1,44.9,36.1,46.2,36.1z"/>
		<path class="st1" d="M50.2,40.1c0,1.3,0,2.7,0,4l0,0c0,0-0.1,0-0.1,0c-1.3,0-2.6,0-3.9,0c0-0.7,0-1.5,0-2.2c0-0.6,0-1.2,0-1.8l0,0
			C47.6,40.1,48.9,40.1,50.2,40.1z"/>
		<path class="st1" d="M34.1,52.1c-2.7,0-5.4,0-8.1,0l0,0c0-1.3,0-2.7,0-4l0,0c2.7,0,5.4,0,8.1,0l0,0C34.1,49.5,34.1,50.8,34.1,52.1
			L34.1,52.1z"/>
		<path class="st1" d="M50.2,48.1c0,1.3,0,2.7,0,4c-1.3,0-2.7,0-4,0l0,0c0-1.3,0-2.7,0-4C47.6,48.1,48.9,48.1,50.2,48.1L50.2,48.1z"
			/>
		<path class="st3" d="M46.2,48.1c0,1.3,0,2.7,0,4c-1.3,0-2.7,0-4,0l0,0c0-1.3,0-2.7,0-4C43.5,48.1,44.9,48.1,46.2,48.1L46.2,48.1z"
			/>
		<path class="st1" d="M42.2,48.1c0,1.3,0,2.7,0,4c-1.3,0-2.7,0-4,0l0,0c0-1.3,0-2.7,0-4c0,0,0,0,0,0C39.5,48.1,40.8,48.1,42.2,48.1
			L42.2,48.1z"/>
		<path class="st2" d="M38.1,48.1c0,1.3,0,2.7,0,4c-1.3,0-2.7,0-4,0c0-1.3,0-2.7,0-4C35.4,48.1,36.8,48.1,38.1,48.1z"/>
		<path class="st2" d="M26,48.1c0,1.3,0,2.7,0,4c-1.3,0-2.7,0-4,0l0,0c0-1.3,0-2.7,0-4C23.3,48.1,24.7,48.1,26,48.1z"/>
		<path class="st1" d="M22,48.1c0,1.3,0,2.7,0,4c-1.3,0-2.7,0-4,0l0,0c0-1.3,0-2.7,0-4c0.1,0,0.1,0,0.2,0
			C19.4,48.1,20.7,48.1,22,48.1L22,48.1z"/>
		<path class="st1" d="M9.9,52.1c0-1.3,0-2.7,0-4l0,0c1.3,0,2.7,0,4,0c0,1.3,0,2.7,0,4l0,0C12.6,52.1,11.2,52.1,9.9,52.1z"/>
		<path class="st3" d="M13.9,52.1c0-1.3,0-2.7,0-4l0,0c1.3,0,2.7,0,4,0l0,0c0,1.3,0,2.7,0,4C16.6,52.1,15.3,52.1,13.9,52.1z"/>
		<path class="st0" d="M26,12c0,0,0.1,0,0.1,0c2.6,0,5.2,0,7.8,0c0,0,0.1,0,0.1,0c0,1.3,0,2.7,0,4l0,0c-2.7,0-5.4,0-8.1,0l0,0
			C26,14.6,26,13.3,26,12z"/>
		<path class="st3" d="M34.1,16c0-1.3,0-2.7,0-4c1,0,2,0,3,0c0.3,0,0.7,0,1,0l0,0c0,1.3,0,2.7,0,4C36.8,16,35.4,16,34.1,16z"/>
		<path class="st3" d="M26,12c0,1.3,0,2.7,0,4c-1.3,0-2.7,0-4,0c0-1.3,0-2.7,0-4l0,0C23.3,11.9,24.7,11.9,26,12z"/>
		<path d="M38.1,16c0-1.3,0-2.7,0-4c1.3,0,2.7,0,4,0c0,0,0,0,0,0c0,1.3,0,2.7,0,4l0,0C40.8,16,39.5,16,38.1,16L38.1,16z"/>
		<path d="M22,11.9c0,1.3,0,2.7,0,4l0,0c-1.3,0-2.7,0-4,0l0,0c0-1.3,0-2.7,0-4l0,0C19.3,11.9,20.6,11.9,22,11.9z"/>
		<path class="st3" d="M42.2,16c0-1.3,0-2.7,0-4c1.3,0,2.6,0,3.9,0c0.1,0,0.1,0,0.2,0c0,1.3,0,2.7,0,4l0,0C44.9,16,43.5,16,42.2,16z
			"/>
		<path class="st3" d="M50.2,20c-1.3,0-2.7,0-4,0c0-0.1,0-0.1,0-0.2c0-1.3,0-2.6,0-3.8l0,0c1.3,0,2.7,0,4,0
			C50.2,17.3,50.2,18.6,50.2,20z"/>
		<path class="st3" d="M13.9,20c-1.3,0-2.7,0-4,0c0-1.3,0-2.7,0-4c1.3,0,2.7,0,4,0l0,0c0,0.4,0,0.7,0,1.1C13.9,18,13.9,19,13.9,20z"
			/>
		<path class="st3" d="M18,11.9c0,1.3,0,2.7,0,4c-1.3,0-2.7,0-4,0l0,0c0-1.3,0-2.7,0-4c1.2,0,2.4,0,3.6,0
			C17.6,11.9,17.8,11.9,18,11.9z"/>
		<path class="st3" d="M13.9,48.1c-1.3,0-2.7,0-4,0c0-1.3,0-2.5,0-3.8c0-0.1,0-0.1,0-0.2c0.6,0,1.2,0,1.8,0c0.7,0,1.5,0,2.2,0l0,0
			C13.9,45.4,13.9,46.8,13.9,48.1L13.9,48.1z"/>
		<path class="st3" d="M50.2,48.1c-1.3,0-2.7,0-4,0l0,0c0-1.3,0-2.7,0-4l0,0c1.3,0,2.6,0,3.9,0c0,0,0.1,0,0.1,0c0,0.6,0,1.2,0,1.8
			C50.2,46.6,50.2,47.4,50.2,48.1z"/>
		<path class="st2" d="M26,36.1c2.7,0,5.4,0,8.1,0l0,0c0,1.3,0,2.6,0,3.9c0,0.1,0,0.1-0.1,0.1c-2.6,0-5.2,0-7.8,0
			c-0.1,0-0.1,0-0.1-0.1C26,38.7,26,37.4,26,36.1L26,36.1z"/>
		<path d="M34.1,24c0,1.3,0,2.7,0,4c-2.7,0-5.4,0-8.1,0c0-1.3,0-2.7,0-4l0,0C28.7,24,31.4,24,34.1,24L34.1,24z"/>
		<path d="M22,16c1.3,0,2.7,0,4,0l0,0c0,0.4,0,0.7,0,1.1c0,1,0,2,0,2.9c0,0.1,0,0.1,0,0.2c0,1.3,0,2.6,0,3.8l0,0c-1.3,0-2.7,0-4,0
			c0-1.3,0-2.7,0-4c0-0.1,0-0.1,0-0.2C22,18.5,22,17.2,22,16L22,16z"/>
		<path d="M13.9,16c1.3,0,2.7,0,4,0l0,0c0,0.3,0,0.7,0,1c0,1,0,2,0,3c0,1,0,2,0,3c0,0.4,0,0.7,0,1.1c-1.3,0-2.7,0-4,0
			c0-1.3,0-2.7,0-4c0-1,0-2,0-3C13.9,16.7,13.9,16.3,13.9,16z"/>
		<path class="st2" d="M18,20c0-1,0-2,0-3c0-0.3,0-0.7,0-1c1.3,0,2.7,0,4,0c0,1.3,0,2.6,0,3.8c0,0.1,0,0.1,0,0.2
			C20.6,20,19.3,20,18,20z"/>
		<path class="st2" d="M18,40.1c0-1.3,0-2.7,0-4c1.3,0,2.7,0,4,0l0,0c0,1.3,0,2.7,0,4C20.6,40.1,19.3,40.1,18,40.1L18,40.1z"/>
		<path class="st3" d="M22,40.1c0-1.3,0-2.7,0-4c1.3,0,2.7,0,4,0c0,1.3,0,2.6,0,3.9c0,0.1,0,0.1,0.1,0.1c2.6,0,5.2,0,7.8,0
			c0.1,0,0.1,0,0.1-0.1c0-1.3,0-2.6,0-3.9c1.3,0,2.7,0,4,0c0,0,0,0,0,0c0,1.3,0,2.7,0,4c0,1.3,0,2.7,0,4c0,1.3,0,2.7,0,4l0,0
			c-1.3,0-2.7,0-4,0l0,0c0-1.3,0-2.6,0-3.9c0-0.1,0-0.2-0.2-0.2c-2.6,0-5.2,0-7.8,0c-0.1,0-0.2,0-0.2,0.2c0,1.3,0,2.6,0,3.9l0,0
			c-1.3,0-2.7,0-4,0l0,0c0-1.3,0-2.7,0-4C22,42.8,22,41.4,22,40.1z"/>
		<path class="st3" d="M13.9,44.1c0-1.3,0-2.6,0-3.9c0,0,0-0.1,0-0.1c0.6,0,1.2,0,1.8,0c0.7,0,1.5,0,2.2,0c0,0,0,0,0,0
			c0,1.3,0,2.7,0,4l0,0C16.6,44.1,15.3,44.1,13.9,44.1L13.9,44.1z"/>
		<path d="M46.2,16c0,1.3,0,2.6,0,3.8c0,0.1,0,0.1,0,0.2c0,1,0,2,0,2.9c0,0.4,0,0.7,0,1.1c-1.3,0-2.7,0-4,0c0-1.3,0-2.7,0-4
			c0-0.1,0-0.1,0-0.2c0-1.3,0-2.6,0-3.8l0,0C43.5,16,44.9,16,46.2,16z"/>
		<path d="M34.1,16c1.3,0,2.7,0,4,0l0,0c0,0.4,0,0.7,0,1.1c0,1,0,2,0,3c0,1,0,2,0,3c0,0.4,0,0.7,0,1.1c-1.3,0-2.7,0-4,0l0,0
			c0-0.4,0-0.7,0-1.1c0-1,0-2,0-2.9c0-0.1,0-0.1,0-0.2C34.1,18.5,34.1,17.2,34.1,16L34.1,16z"/>
		<path class="st2" d="M38.1,20c0-1,0-2,0-3c0-0.4,0-0.7,0-1.1c1.3,0,2.7,0,4,0c0,1.3,0,2.6,0,3.8c0,0.1,0,0.1,0,0.2
			C40.8,20,39.5,20,38.1,20z"/>
		<path class="st2" d="M38.1,40.1c0-1.3,0-2.7,0-4c1.3,0,2.7,0,4,0c0,1.3,0,2.7,0,4l0,0C40.8,40.1,39.5,40.1,38.1,40.1z"/>
		<path class="st3" d="M46.2,40.1c0,0.6,0,1.2,0,1.8c0,0.7,0,1.5,0,2.2c0,0,0,0,0,0c-1.3,0-2.7,0-4,0l0,0c0-1.3,0-2.7,0-4l0,0
			c1.3,0,2.6,0,3.8,0C46.1,40.1,46.1,40.1,46.2,40.1z"/>
		<path class="st2" d="M26,48.1c0-1.3,0-2.6,0-3.9c0-0.1,0-0.2,0.2-0.2c2.6,0,5.2,0,7.8,0c0.1,0,0.2,0,0.2,0.2c0,1.3,0,2.6,0,3.9
			C31.4,48.1,28.7,48.1,26,48.1z"/>
		<path class="st1" d="M42.2,44.1c1.3,0,2.7,0,4,0c0,1.3,0,2.7,0,4c-1.3,0-2.7,0-4,0l0,0C42.2,46.8,42.2,45.4,42.2,44.1z"/>
		<path class="st2" d="M42.2,44.1c0,1.3,0,2.7,0,4c-1.3,0-2.7,0-4,0c0-1.3,0-2.7,0-4C39.5,44.1,40.8,44.1,42.2,44.1L42.2,44.1z"/>
		<path class="st2" d="M22,44.1c0,1.3,0,2.7,0,4c-1.3,0-2.6,0-3.8,0c-0.1,0-0.1,0-0.2,0l0,0c0-1.3,0-2.7,0-4l0,0
			C19.3,44.1,20.6,44.1,22,44.1z"/>
		<path class="st1" d="M18,44.1c0,1.3,0,2.7,0,4c-1.3,0-2.7,0-4,0c0-1.3,0-2.7,0-4C15.3,44.1,16.6,44.1,18,44.1z"/>
		<path class="st3" d="M34.1,16c0,1.3,0,2.6,0,3.8c0,0.1,0,0.1,0,0.2c-2.7,0-5.4,0-8.1,0c0-1,0-2,0-2.9c0-0.4,0-0.7,0-1.1
			C28.7,16,31.4,16,34.1,16z"/>
		<path class="st0" d="M26,20c2.7,0,5.4,0,8.1,0c0,1,0,2,0,2.9c0,0.4,0,0.7,0,1.1c-2.7,0-5.4,0-8.1,0c0-1.3,0-2.6,0-3.8
			C26,20.1,26,20,26,20z"/>
		<path class="st1" d="M22,44.1c-1.3,0-2.7,0-4,0c0-1.3,0-2.7,0-4c1.3,0,2.7,0,4,0C22,41.4,22,42.8,22,44.1z"/>
		<path class="st1" d="M42.2,44.1c-1.3,0-2.7,0-4,0c0-1.3,0-2.7,0-4c1.3,0,2.7,0,4,0C42.2,41.4,42.2,42.8,42.2,44.1z"/>
		<path d="M50.3,16c0,1.3,0,2.7,0,4c-1.4,0-2.8,0-4.1,0c0-1.3,0-2.7,0-4l0,0C47.5,16,48.9,16,50.3,16z"/>
		<path d="M14,16c0,1.3,0,2.7,0,4c-1.4,0-2.8,0-4.1,0c0-1.3,0-2.7,0-4l0,0C11.2,16,12.6,16,14,16z"/>
	</g>
	<g>
		<path d="M50.2,36.1c0,2.3,0,4.5,0,6.8c0,3,0,6.1,0,9.1c0,0.1,0,0.2-0.2,0.2c-1.3,0-2.6,0-3.8,0l0,0c0-3.9,0-7.7,0-11.6
			c0-0.1,0.1-0.3,0-0.4c-0.1-0.1-0.3,0-0.4,0c-1.2,0-2.4,0-3.6,0c0-1.3,0-2.7,0-4c0.4,0,0.7,0,1.1,0c1,0,2,0,2.9,0
			C47.5,36.1,48.9,36.1,50.2,36.1L50.2,36.1z"/>
		<path d="M13.9,52.2c-1.3,0-2.6,0-3.9,0c-0.1,0-0.2,0-0.2-0.2c0-5.2,0-10.5,0-15.7c0-0.1,0-0.1,0-0.2l0,0c0.3,0,0.7,0,1,0
			c1,0,2,0,3,0c0.1,0,0.1,0,0.2,0c1.3,0,2.6,0,3.8,0c0,1.3,0,2.7,0,4c-0.1,0-0.1,0-0.2,0c-1.2,0-2.5,0-3.7,0c-0.1,0-0.2,0-0.2,0.2
			C13.9,44.3,13.9,48.2,13.9,52.2L13.9,52.2z"/>
		<path class="st2" d="M13.9,52.2c0-4,0-7.9,0-11.9c0-0.1,0-0.2,0.2-0.2c1.2,0,2.5,0,3.7,0c0.1,0,0.1,0,0.2,0c1.3,0,2.7,0,4,0
			c0.1,0,0.1,0,0.2,0c1.3,0,2.5,0,3.8,0c0,0.1,0,0.1,0,0.2c0,1.2,0,2.4,0,3.7c0,0.1,0,0.2,0.1,0.2c2.6,0,5.2,0,7.8,0
			c0.1,0,0.1-0.1,0.1-0.2c0-1.2,0-2.4,0-3.5c0-0.1,0-0.2,0-0.3c0.3,0,0.5,0,0.8,0c1.1,0,2.1,0,3.2,0c0.3,0,0.6,0,0.9,0
			c1,0,2.1,0,3.1,0c1.2,0,2.4,0,3.6,0c0.1,0,0.3,0,0.4,0c0.1,0.1,0,0.3,0,0.4c0,3.9,0,7.7,0,11.6c-1.3,0-2.6,0-3.9,0
			c0,0-0.1,0-0.1,0c-0.1,0-0.1,0-0.2,0c-1.3,0-2.6,0-3.8,0l0,0c0-0.3,0-0.5,0-0.8c0-1,0-2,0-3c0-0.1,0-0.2-0.1-0.1
			c-0.1,0-0.3,0-0.4,0c-1.2,0-2.3,0-3.5,0c0,0-0.1,0-0.1,0c-2.6,0-5.2,0-7.9,0c0,0-0.1,0-0.1,0c-1.3,0-2.6,0-3.8,0
			c-0.1,0-0.2,0-0.2,0.2c0,1.3,0,2.6,0,3.8l0,0c-0.4,0-0.7,0-1.1,0c-1,0-2,0-3,0c-1,0-2,0-2.9,0C14.7,52.2,14.3,52.2,13.9,52.2z"/>
		<path class="st1" d="M18,52.2c1,0,2,0,3,0c0.4,0,0.7,0,1.1,0c0,1.3,0,2.6,0,3.9c0,0.1,0,0.2-0.2,0.2c-1.2,0-2.5,0-3.7,0
			c-0.1,0-0.2,0-0.2-0.2C18,54.7,18,53.4,18,52.2z"/>
		<path class="st1" d="M38.1,52.2c1.3,0,2.6,0,3.8,0c0.1,0,0.1,0,0.2,0c0,1.3,0,2.6,0,3.8c0,0.1,0,0.2-0.2,0.2c-1.2,0-2.5,0-3.7,0
			c-0.1,0-0.2,0-0.2-0.2C38.1,54.7,38.1,53.4,38.1,52.2z"/>
		<path class="st1" d="M34.1,48.2c1.2,0,2.3,0,3.5,0c0.1,0,0.3,0,0.4,0c0.1,0,0.1,0,0.1,0.1c0,1,0,2,0,3c0,0.3,0,0.5,0,0.8
			c-1.3,0-2.7,0-4,0l0,0C34.1,50.8,34.1,49.5,34.1,48.2z"/>
		<path class="st1" d="M22,52.2c0-1.3,0-2.6,0-3.8c0-0.1,0-0.2,0.2-0.2c1.3,0,2.6,0,3.8,0c0,1.3,0,2.7,0,4l0,0
			C24.7,52.2,23.3,52.2,22,52.2z"/>
		<path class="st4" d="M42.2,40.1c-1,0-2.1,0-3.1,0c-0.3,0-0.6,0-0.9,0c0-1.3,0-2.7,0-4c0.1,0,0.3,0,0.4,0c1.2,0,2.4,0,3.6,0l0,0
			C42.2,37.5,42.2,38.8,42.2,40.1z"/>
		<path class="st4" d="M22,40.1c-1.3,0-2.7,0-4,0c0-1.3,0-2.7,0-4l0,0c0.1,0,0.1,0,0.2,0c1.3,0,2.6,0,3.8,0C22,37.4,22,38.8,22,40.1
			z"/>
		<path class="st4" d="M34.1,40.1c0,0.1,0,0.2,0,0.3c0,1.2,0,2.4,0,3.5c0,0.1,0,0.2-0.1,0.2c-2.6,0-5.2,0-7.8,0
			C26,44.2,26,44.1,26,44c0-1.2,0-2.4,0-3.7c0-0.1,0-0.1,0-0.2l0,0c0,0,0.1,0,0.1,0c2.6,0,5.2,0,7.8,0C34,40.1,34,40.1,34.1,40.1
			L34.1,40.1z"/>
		<path d="M26,52.2c0-1.3,0-2.7,0-4c0,0,0.1,0,0.1,0c2.6,0,5.2,0,7.9,0c0,0,0.1,0,0.1,0c0,1.3,0,2.7,0,4
			C31.4,52.2,28.7,52.2,26,52.2z"/>
		<path class="st3" d="M38.1,36.1c0,1.3,0,2.7,0,4c-1.1,0-2.1,0-3.2,0c-0.3,0-0.5,0-0.8,0l0,0c0-1.3,0-2.7,0-4
			C35.4,36.1,36.8,36.1,38.1,36.1z"/>
		<path class="st3" d="M22,40.1c0-1.3,0-2.7,0-4c1.3,0,2.7,0,4,0c0,1.3,0,2.7,0,4l0,0c-1.3,0-2.5,0-3.8,0
			C22.1,40.1,22.1,40.1,22,40.1z"/>
		<path d="M26,40.1c0-1.3,0-2.7,0-4l0,0c0.1,0,0.1,0,0.2,0c2.2,0,4.5,0,6.7,0c0.4,0,0.8,0,1.2,0l0,0c0,1.3,0,2.7,0,4
			c0,0-0.1,0-0.1,0c-2.6,0-5.2,0-7.8,0C26.1,40.1,26,40.1,26,40.1z"/>
		<g>
			<polygon points="46.2,52.2 46.2,52.2 46.2,52.2 			"/>
			<path d="M34.1,60.1L34.1,60.1l12.3,0.1c-0.1,0-0.2,0-0.2-0.2c0-2.6,0-5.2,0-7.9c-1.3,0-2.6,0-3.9,0c0,0-0.1,0-0.1,0
				c0,1.3,0,2.6,0,3.8c0,0.1,0,0.2-0.2,0.2c-1.2,0-2.5,0-3.7,0c-0.1,0-0.2,0-0.2-0.2c0-1.3,0-2.6,0-3.9c-1.3,0-2.7,0-4,0
				C34.1,54.8,34.1,57.4,34.1,60.1C34.1,60.1,34.1,60.1,34.1,60.1z"/>
			<polygon points="38.1,52.2 38.1,52.2 38.1,52.2 			"/>
			<path d="M26,60.1C26,60.1,26,60.1,26,60.1c0-2.7,0-5.3,0-8c-1.3,0-2.7,0-4,0c0,1.3,0,2.6,0,3.9c0,0.1,0,0.2-0.2,0.2
				c-1.2,0-2.5,0-3.7,0c-0.1,0-0.2,0-0.2-0.2c0-1.3,0-2.6,0-3.8c-1,0-2,0-2.9,0c-0.4,0-0.7,0-1.1,0c0,2.6,0,5.3,0,7.9
				c0,0.1,0,0.2-0.1,0.2L26,60.1L26,60.1z"/>
			<polygon points="13.9,52.2 13.9,52.2 13.9,52.2 			"/>
			<polygon points="22,52.2 22,52.2 22,52.2 			"/>
		</g>
	</g>
</g>
</svg>
