<?xml version="1.0" encoding="utf-8"?>
<!-- Generator: Adobe Illustrator 25.4.0, SVG Export Plug-In . SVG Version: 6.00 Build 0)  -->
<svg version="1.1" id="Layer_1" xmlns="http://www.w3.org/2000/svg" xmlns:xlink="http://www.w3.org/1999/xlink" x="0px" y="0px"
	 viewBox="0 0 60 60" style="enable-background:new 0 0 60 60;" xml:space="preserve">
<style type="text/css">
	.st0{fill:#FE9431;}
	.st1{fill:#FED30B;}
	.st2{fill:#36FEDE;}
	.st3{fill:#3854FE;}
	.st4{fill:#B8C2FE;}
</style>
<g>
	<path class="st0" d="M14.9,56.3c-2.5,0-5,0-7.6,0c0-1.2,0-2.5,0-3.7l0,0c1.2,0,2.4,0,3.6,0c0.1,0,0.2,0,0.2-0.2c0-1.2,0-2.4,0-3.6
		l0,0c1.3,0,2.5,0,3.8,0c0.1,0,0.1,0,0.2,0c2.4,0,4.8,0,7.2,0c0.1,0,0.2,0,0.2,0.1c0,1.2,0,2.4,0,3.6l0,0c-2.5,0-4.9,0-7.4,0
		c-0.1,0-0.2,0-0.2,0.2C14.9,54,14.9,55.1,14.9,56.3z"/>
	<path class="st0" d="M52.5,56.3c-2.5,0-5,0-7.5,0c0-1.2,0-2.3,0-3.5c0-0.2,0-0.2-0.2-0.2c-2.4,0-4.9,0-7.3,0l0,0c0-1.2,0-2.3,0-3.5
		c0-0.3,0-0.3,0.3-0.3c2.4,0,4.8,0,7.3,0c1.3,0,2.5,0,3.8,0l0,0c0,1.2,0,2.4,0,3.6c0,0.1,0,0.2,0.2,0.2c1.2,0,2.4,0,3.6,0l0,0
		C52.5,53.8,52.5,55.1,52.5,56.3z"/>
	<path d="M45,7.4c0-1.2,0-2.4,0-3.6c3.7,0,7.4,0,11.1,0c0.1,0,0.1,0,0.1,0.1c0,1.2,0,2.3,0,3.5c-1.2,0-2.5,0-3.7,0
		c-1.2,0-2.5,0-3.7,0c-0.1,0-0.1,0-0.2,0C47.4,7.4,46.2,7.4,45,7.4L45,7.4z"/>
	<path d="M14.9,3.8c0,1.2,0,2.4,0,3.6l0,0c-0.1,0-0.3,0-0.4,0c-1.1,0-2.3,0-3.4,0c-1.3,0-2.5,0-3.8,0c-1.2,0-2.3,0-3.5,0
		c0-1.2,0-2.3,0-3.5c0-0.1,0-0.1,0.1-0.1C7.6,3.8,11.3,3.8,14.9,3.8z"/>
	<path d="M45,60c0-1.2,0-2.4,0-3.6c3.7,0,7.4,0,11.1,0c0.1,0,0.1,0,0.1,0.1c0,1.2,0,2.3,0,3.5c-1.2,0-2.5,0-3.7,0
		c-1.2,0-2.5,0-3.7,0c-0.1,0-0.1,0-0.2,0C47.4,60,46.2,60,45,60L45,60z"/>
	<path d="M14.9,56.4c0,1.2,0,2.4,0,3.6l0,0c-0.1,0-0.3,0-0.4,0c-1.1,0-2.3,0-3.4,0c-1.3,0-2.5,0-3.8,0c-1.2,0-2.3,0-3.5,0
		c0-1.2,0-2.3,0-3.5c0-0.1,0-0.1,0.1-0.1C7.6,56.4,11.3,56.4,14.9,56.4z"/>
	<path d="M33.7,56.3c-2.5,0-5,0-7.5,0c0-1.2,0-2.5,0-3.7l0,0c2.5,0,5,0,7.5,0l0,0C33.7,53.8,33.7,55.1,33.7,56.3z"/>
	<path d="M14.9,56.3c0-1.2,0-2.3,0-3.5c0-0.1,0-0.2,0.2-0.2c2.5,0,4.9,0,7.4,0c0,1.2,0,2.5,0,3.7C19.9,56.3,17.4,56.3,14.9,56.3z"/>
	<path d="M37.5,52.6c2.4,0,4.9,0,7.3,0c0.2,0,0.2,0,0.2,0.2c0,1.2,0,2.3,0,3.5c-2.5,0-5,0-7.5,0C37.5,55.1,37.5,53.8,37.5,52.6z"/>
	<path class="st1" d="M52.5,7.5c1.2,0,2.5,0,3.7,0c0,1.3,0,2.5,0,3.8c-1.2,0-2.5,0-3.7,0C52.5,10,52.5,8.7,52.5,7.5z"/>
	<path d="M52.5,11.2c1.2,0,2.5,0,3.7,0c0,1.2,0,2.5,0,3.7c-1.2,0-2.5,0-3.7,0l0,0C52.5,13.7,52.5,12.5,52.5,11.2L52.5,11.2z"/>
	<path d="M52.5,48.9c1.2,0,2.5,0,3.7,0c0,1.2,0,2.5,0,3.7c-1.2,0-2.5,0-3.7,0c0,0,0,0,0,0C52.5,51.4,52.5,50.1,52.5,48.9L52.5,48.9z
		"/>
	<path class="st1" d="M52.5,52.6c1.2,0,2.5,0,3.7,0c0,1.2,0,2.4,0,3.6c0,0.1,0,0.1-0.1,0.1c-1.2,0-2.4,0-3.6,0
		C52.5,55.1,52.5,53.8,52.5,52.6z"/>
	<path class="st1" d="M3.9,7.4c1.2,0,2.3,0,3.5,0c0,1.3,0,2.5,0,3.8c-1.2,0-2.3,0-3.5,0C3.9,10,3.9,8.7,3.9,7.4z"/>
	<path d="M3.9,48.9c1.2,0,2.3,0,3.5,0l0,0c0,1.2,0,2.5,0,3.7l0,0c-1.2,0-2.3,0-3.5,0C3.9,51.4,3.9,50.1,3.9,48.9z"/>
	<path d="M3.9,11.2c1.2,0,2.3,0,3.5,0l0,0c0,1.2,0,2.5,0,3.7l0,0c-1.2,0-2.3,0-3.5,0C3.9,13.7,3.9,12.5,3.9,11.2z"/>
	<path class="st1" d="M3.9,52.6c1.2,0,2.3,0,3.5,0c0,1.2,0,2.5,0,3.7c-1.1,0-2.3,0-3.4,0c-0.1,0-0.1,0-0.1-0.1
		C3.9,55,3.9,53.8,3.9,52.6z"/>
	<path d="M52.5,15c0,2.5,0,4.9,0,7.4c0,0.1,0,0.1-0.2,0.1c-1.1,0-2.3,0-3.4,0c-0.1,0-0.2,0-0.2,0.2c0,1.1,0,2.3,0,3.4
		c0,0.1,0,0.2-0.2,0.2c-1.2,0-2.4,0-3.6,0l0,0c0-1.2,0-2.5,0-3.7c0-0.2,0-0.4,0-0.6c0-1.1,0-2.1,0-3.2c1.2,0,2.4,0,3.7,0
		c0.1,0,0.1,0,0.1-0.1c0-1.2,0-2.4,0-3.7C50,15,51.3,15,52.5,15L52.5,15z"/>
	<path d="M45,26.3c0,5,0,10,0,15l0,0c-1.2,0-2.5,0-3.7,0l0,0c0-1.5,0-3.1,0-4.6c0-3.5,0-6.9,0-10.4C42.5,26.3,43.8,26.3,45,26.3
		L45,26.3z"/>
	<path d="M60,7.4c0,1.2,0,2.5,0,3.7l0,0c-1.2,0-2.5,0-3.7,0l0,0c0-0.4,0-0.8,0-1.1c0-0.9,0-1.7,0-2.6C57.5,7.4,58.7,7.4,60,7.4
		L60,7.4z"/>
	<path d="M3.7,7.4c0,1.2,0,2.5,0,3.7l0,0c-1.2,0-2.5,0-3.7,0l0,0c0-0.4,0-0.8,0-1.1c0-0.9,0-1.7,0-2.6C1.2,7.4,2.5,7.4,3.7,7.4
		L3.7,7.4z"/>
	<path d="M60,52.6c0,1.2,0,2.5,0,3.7l0,0c-1.2,0-2.5,0-3.7,0l0,0c0-0.4,0-0.8,0-1.1c0-0.9,0-1.7,0-2.6C57.5,52.6,58.7,52.6,60,52.6
		L60,52.6z"/>
	<path d="M3.7,52.6c0,1.2,0,2.5,0,3.7l0,0c-1.2,0-2.5,0-3.7,0l0,0c0-0.4,0-0.8,0-1.1c0-0.9,0-1.7,0-2.6C1.2,52.6,2.5,52.6,3.7,52.6
		L3.7,52.6z"/>
	<path d="M45,41.3c1.2,0,2.4,0,3.6,0c0.1,0,0.2,0,0.2,0.2c0,1.2,0,2.4,0,3.6l0,0c-1.3,0-2.5,0-3.8,0l0,0C45,43.8,45,42.6,45,41.3
		L45,41.3z"/>
	<path d="M48.8,45.1c1.2,0,2.4,0,3.6,0c0.1,0,0.1,0,0.1,0.1c0,1.2,0,2.4,0,3.7l0,0c-1.2,0-2.5,0-3.7,0c0,0,0,0,0,0
		C48.8,47.6,48.8,46.4,48.8,45.1L48.8,45.1z"/>
	<path d="M14.9,26.3c-1.2,0-2.4,0-3.6,0c-0.1,0-0.2,0-0.2-0.2c0-1.1,0-2.3,0-3.4c0-0.1,0-0.2-0.2-0.2c-1.1,0-2.3,0-3.4,0
		c-0.1,0-0.2,0-0.2-0.2c0-2.5,0-4.9,0-7.4l0,0c1.3,0,2.5,0,3.8,0c0,1.2,0,2.4,0,3.7c0,0.1,0,0.1,0.1,0.1c1.2,0,2.4,0,3.7,0
		c0,0.1,0,0.2,0,0.2c0,1.2,0,2.4,0,3.6C14.9,23.8,14.9,25,14.9,26.3L14.9,26.3z"/>
	<path d="M14.9,41.3c0-5,0-10,0-15l0,0c1.2,0,2.5,0,3.7,0c0,1.7,0,3.4,0,5.1c0,3.3,0,6.6,0,9.9c0,0,0,0,0,0
		C17.4,41.3,16.2,41.3,14.9,41.3C14.9,41.3,14.9,41.3,14.9,41.3z"/>
	<path d="M7.4,48.9c0-1.2,0-2.4,0-3.7c0-0.1,0-0.1,0.1-0.1c1.2,0,2.4,0,3.7,0c0,0,0,0,0,0c0,1.3,0,2.5,0,3.8c0,0,0,0,0,0
		C9.9,48.9,8.6,48.9,7.4,48.9L7.4,48.9z"/>
	<path d="M11.2,45.1c0-1.2,0-2.4,0-3.6c0-0.1,0-0.1,0.2-0.1c1.2,0,2.4,0,3.6,0l0,0c0,1.3,0,2.5,0,3.8l0,0
		C13.7,45.1,12.4,45.1,11.2,45.1L11.2,45.1z"/>
	<path d="M33.7,11.2c0-1.2,0-2.4,0-3.6c0-0.1,0-0.2,0.2-0.2c3.7,0,7.4,0,11.1,0l0,0c0,1.3,0,2.5,0,3.8c-2.4,0-4.9,0-7.3,0
		c-0.1,0-0.1,0-0.2,0C36.2,11.2,35,11.2,33.7,11.2L33.7,11.2z"/>
	<path d="M14.9,7.4c3.7,0,7.4,0,11.1,0c0.1,0,0.2,0,0.2,0.2c0,1.2,0,2.4,0,3.6l0,0c-1.2,0-2.5,0-3.7,0c-0.1,0-0.1,0-0.2,0
		c-2.4,0-4.9,0-7.3,0C14.9,10,14.9,8.7,14.9,7.4L14.9,7.4z"/>
	<path d="M26.2,11.2c2.5,0,5,0,7.5,0l0,0c0,1.2,0,2.5,0,3.7c-2.5,0-5,0-7.5,0C26.2,13.7,26.2,12.5,26.2,11.2L26.2,11.2z"/>
	<path d="M26.2,52.6c-1.2,0-2.5,0-3.7,0c0-1.2,0-2.4,0-3.6c0-0.2-0.1-0.1-0.2-0.1c-2.4,0-4.8,0-7.2,0c-0.1,0-0.1,0-0.2,0
		c0-1.3,0-2.5,0-3.8c0,0,0,0,0,0c1.2,0,2.4,0,3.6,0c0.1,0,0.2,0,0.2-0.2c0-1.2,0-2.4,0-3.6c0,0,0,0,0,0c1.3,0,2.5,0,3.8,0
		c0,1.2,0,2.4,0,3.6c0,0.1,0,0.2,0.2,0.2c1.1,0,2.2,0,3.4,0c0.2,0,0.2,0,0.2-0.2c0-1.2,0-2.4,0-3.6c2.5,0,5,0,7.5,0
		c0,1.2,0,2.4,0,3.6c0,0.1,0,0.2,0.2,0.2c1.1,0,2.3,0,3.4,0c0.2,0,0.2,0,0.2-0.2c0-1.2,0-2.4,0-3.6c1.3,0,2.5,0,3.8,0l0,0
		c0,1.2,0,2.4,0,3.6c0,0.1,0,0.2,0.2,0.2c1.2,0,2.4,0,3.6,0l0,0c0,1.3,0,2.5,0,3.8c-2.4,0-4.8,0-7.3,0c-0.3,0-0.3,0-0.3,0.3
		c0,1.2,0,2.3,0,3.5c-1.3,0-2.5,0-3.8,0l0,0c0-1.2,0-2.4,0-3.6c0-0.1,0-0.2-0.2-0.2c-2.4,0-4.8,0-7.2,0c-0.1,0-0.2,0-0.2,0.2
		C26.2,50.2,26.2,51.4,26.2,52.6L26.2,52.6z"/>
	<path class="st1" d="M14.9,45.1c0,1.3,0,2.5,0,3.8c-1.3,0-2.5,0-3.8,0c0-1.3,0-2.5,0-3.8C12.4,45.1,13.7,45.1,14.9,45.1z"/>
	<path class="st1" d="M7.4,48.9c1.3,0,2.5,0,3.8,0c0,1.2,0,2.4,0,3.6c0,0.1,0,0.2-0.2,0.2c-1.2,0-2.4,0-3.6,0
		C7.4,51.4,7.4,50.1,7.4,48.9z"/>
	<path class="st1" d="M45,48.9c0-1.3,0-2.5,0-3.8c1.3,0,2.5,0,3.8,0c0,1.3,0,2.5,0,3.8C47.5,48.9,46.3,48.9,45,48.9z"/>
	<path class="st1" d="M48.8,48.9c1.2,0,2.5,0,3.7,0c0,1.2,0,2.5,0,3.7c-1.2,0-2.4,0-3.6,0c-0.1,0-0.2,0-0.2-0.2
		C48.8,51.2,48.8,50.1,48.8,48.9z"/>
	<path class="st2" d="M45,11.2c0-1.3,0-2.5,0-3.8c1.2,0,2.4,0,3.6,0c0.1,0,0.1,0,0.2,0c0,1.3,0,2.5,0,3.8l0,0
		C47.5,11.2,46.3,11.2,45,11.2L45,11.2z"/>
	<path class="st3" d="M48.8,11.2c0-1.3,0-2.5,0-3.8c1.2,0,2.5,0,3.7,0c0,1.3,0,2.5,0,3.8l0,0C51.3,11.2,50,11.2,48.8,11.2z"/>
	<path class="st3" d="M7.4,11.2c0-1.3,0-2.5,0-3.8c1.3,0,2.5,0,3.8,0c0,1.3,0,2.5,0,3.8C9.9,11.2,8.6,11.2,7.4,11.2L7.4,11.2z"/>
	<path class="st2" d="M11.2,11.2c0-1.3,0-2.5,0-3.8c1.1,0,2.3,0,3.4,0c0.1,0,0.3,0,0.4,0c0,1.3,0,2.5,0,3.8l0,0
		C13.7,11.2,12.4,11.2,11.2,11.2L11.2,11.2z"/>
	<path class="st0" d="M26.2,52.6c0-1.2,0-2.4,0-3.6c0-0.1,0-0.2,0.2-0.2c2.4,0,4.8,0,7.2,0c0.1,0,0.2,0,0.2,0.2c0,1.2,0,2.4,0,3.6
		C31.2,52.6,28.7,52.6,26.2,52.6z"/>
	<path class="st4" d="M48.8,11.2c1.2,0,2.5,0,3.7,0c0,1.2,0,2.5,0,3.7c-1.3,0-2.5,0-3.8,0l0,0C48.8,13.7,48.8,12.5,48.8,11.2
		L48.8,11.2z"/>
	<path class="st4" d="M7.4,11.2c1.3,0,2.5,0,3.8,0c0,0,0,0,0,0c0,1.2,0,2.5,0,3.7l0,0c-1.3,0-2.5,0-3.8,0
		C7.4,13.7,7.4,12.5,7.4,11.2z"/>
	<path class="st1" d="M48.8,15c0,1.2,0,2.4,0,3.7c0,0.1,0,0.1-0.1,0.1c-1.2,0-2.4,0-3.7,0l0,0c0-1.3,0-2.5,0-3.8l0,0
		C46.3,15,47.5,15,48.8,15L48.8,15z"/>
	<path class="st4" d="M45,18.7c0,1.1,0,2.1,0,3.2c0,0.2,0,0.4,0,0.6c-1.2,0-2.5,0-3.7,0c0-1.3,0-2.5,0-3.8
		C42.5,18.8,43.8,18.8,45,18.7L45,18.7z"/>
	<path class="st3" d="M41.3,22.5c1.2,0,2.5,0,3.7,0c0,1.2,0,2.5,0,3.7c-1.2,0-2.5,0-3.7,0l0,0C41.3,25,41.3,23.8,41.3,22.5z"/>
	<path class="st3" d="M41.3,41.3c-1.3,0-2.5,0-3.8,0l0,0c0-1.2,0-2.4,0-3.6c0-0.1-0.1-0.1-0.2-0.1c-1.2,0-2.4,0-3.6,0l0,0
		c0-1.3,0-2.5,0-3.8c1.2,0,2.4,0,3.6,0c0.1,0,0.2,0,0.2-0.2c0-1.1,0-2.3,0-3.4c0-0.1,0-0.2-0.2-0.2c-1.2,0-2.4,0-3.6,0
		c0-1.3,0-2.5,0-3.8c0.2,0,0.3,0,0.5,0c1.1,0,2.2,0,3.3,0c0.1,0,0.1,0,0.2,0c1.2,0,2.4,0,3.6,0l0,0c0,3.5,0,6.9,0,10.4
		C41.3,38.2,41.3,39.8,41.3,41.3z"/>
	<path class="st3" d="M45,45.1c-1.2,0-2.4,0-3.6,0c-0.1,0-0.2,0-0.2-0.2c0-1.2,0-2.4,0-3.6c1.2,0,2.5,0,3.7,0
		C45,42.6,45,43.8,45,45.1z"/>
	<path class="st1" d="M14.9,18.7c-1.2,0-2.4,0-3.7,0c-0.1,0-0.1,0-0.1-0.1c0-1.2,0-2.4,0-3.7l0,0c1.3,0,2.5,0,3.8,0l0,0
		C14.9,16.2,14.9,17.5,14.9,18.7L14.9,18.7z"/>
	<path class="st4" d="M14.9,22.5c0-1.2,0-2.4,0-3.6c0-0.1,0-0.2,0-0.2l0,0c1.2,0,2.5,0,3.7,0c0,1.3,0,2.5,0,3.8
		C17.4,22.5,16.2,22.5,14.9,22.5z"/>
	<path class="st3" d="M14.9,22.5c1.2,0,2.5,0,3.7,0c0,1.2,0,2.5,0,3.7l0,0c-1.2,0-2.5,0-3.7,0C14.9,25,14.9,23.8,14.9,22.5z"/>
	<path class="st3" d="M22.5,41.3c-1.3,0-2.5,0-3.8,0c0-3.3,0-6.6,0-9.9c0-1.7,0-3.4,0-5.1l0,0c0.1,0,0.3,0,0.4,0c1.1,0,2.2,0,3.4,0
		c0.1,0,0.1,0,0.2,0c1.2,0,2.4,0,3.5,0c0,1.3,0,2.5,0,3.8c-1.2,0-2.4,0-3.6,0c-0.1,0-0.2,0-0.2,0.2c0,1.1,0,2.3,0,3.4
		c0,0.1,0,0.2,0.2,0.2c1.2,0,2.4,0,3.6,0c0,1.3,0,2.5,0,3.8l0,0c-1.2,0-2.4,0-3.6,0c-0.1,0-0.2,0-0.2,0.1
		C22.5,38.9,22.5,40.1,22.5,41.3L22.5,41.3z"/>
	<path class="st3" d="M18.7,41.3c0,1.2,0,2.4,0,3.6c0,0.1,0,0.2-0.2,0.2c-1.2,0-2.4,0-3.6,0c0-1.3,0-2.5,0-3.8
		C16.2,41.3,17.4,41.3,18.7,41.3z"/>
	<path class="st2" d="M37.5,11.2c0.1,0,0.1,0,0.2,0c2.4,0,4.9,0,7.3,0l0,0c0,1.2,0,2.5,0,3.7l0,0c-1.4,0-2.9,0-4.3,0
		c-1.1,0-2.1,0-3.2,0C37.5,13.7,37.5,12.5,37.5,11.2z"/>
	<path class="st3" d="M37.5,11.2c0,1.2,0,2.5,0,3.7l0,0c-1.3,0-2.5,0-3.8,0l0,0c0-1.2,0-2.5,0-3.7C35,11.2,36.2,11.2,37.5,11.2z"/>
	<path class="st2" d="M14.9,11.2c2.4,0,4.9,0,7.3,0c0.1,0,0.1,0,0.2,0c0,1.2,0,2.5,0,3.7c-0.1,0-0.1,0-0.2,0c-2.4,0-4.9,0-7.3,0l0,0
		C14.9,13.7,14.9,12.5,14.9,11.2L14.9,11.2z"/>
	<path class="st3" d="M22.5,15c0-1.2,0-2.5,0-3.7c1.2,0,2.5,0,3.7,0c0,1.2,0,2.5,0,3.7l0,0C25,15,23.7,15,22.5,15L22.5,15z"/>
	<path class="st1" d="M26.2,15c2.5,0,5,0,7.5,0l0,0c0,1.3,0,2.5,0,3.8c-2.5,0-5,0-7.5,0C26.2,17.5,26.2,16.2,26.2,15L26.2,15z"/>
	<path class="st0" d="M33.7,41.3c-2.5,0-5,0-7.5,0l0,0c0-1.2,0-2.5,0-3.7l0,0c2.5,0,5,0,7.5,0l0,0C33.7,38.8,33.7,40.1,33.7,41.3
		L33.7,41.3z"/>
	<path class="st3" d="M37.5,41.3c0,1.2,0,2.4,0,3.6c0,0.2,0,0.2-0.2,0.2c-1.1,0-2.3,0-3.4,0c-0.1,0-0.2,0-0.2-0.2c0-1.2,0-2.4,0-3.6
		l0,0C35,41.3,36.2,41.3,37.5,41.3L37.5,41.3z"/>
	<path class="st3" d="M26.2,41.3c0,1.2,0,2.4,0,3.6c0,0.2,0,0.2-0.2,0.2c-1.1,0-2.2,0-3.4,0c-0.1,0-0.2,0-0.2-0.2c0-1.2,0-2.4,0-3.6
		l0,0C23.7,41.3,24.9,41.3,26.2,41.3L26.2,41.3z"/>
	<path class="st3" d="M45,15c0-1.2,0-2.5,0-3.7c1.3,0,2.5,0,3.8,0c0,1.2,0,2.5,0,3.7C47.5,15,46.3,15,45,15z"/>
	<path class="st3" d="M14.9,11.2c0,1.2,0,2.5,0,3.7c-1.3,0-2.5,0-3.8,0c0-1.2,0-2.5,0-3.7C12.4,11.2,13.7,11.2,14.9,11.2z"/>
	<path class="st3" d="M37.5,15c1.1,0,2.1,0,3.2,0c1.4,0,2.9,0,4.3,0c0,1.3,0,2.5,0,3.8c-1.2,0-2.5,0-3.7,0c-0.1,0-0.1,0-0.2,0
		c-1.2,0-2.4,0-3.6,0C37.5,17.5,37.5,16.2,37.5,15L37.5,15z"/>
	<path d="M37.5,18.7c1.2,0,2.4,0,3.6,0c0.1,0,0.1,0,0.2,0c0,1.3,0,2.5,0,3.8c0,1.2,0,2.5,0,3.7c-1.2,0-2.4,0-3.6,0
		c-0.1,0-0.1,0-0.2,0c0-1.2,0-2.5,0-3.7C37.5,21.3,37.5,20,37.5,18.7L37.5,18.7z"/>
	<path class="st4" d="M33.7,37.6c-2.5,0-5,0-7.5,0c0-1.3,0-2.5,0-3.8l0,0c2.5,0,5,0,7.5,0l0,0C33.7,35.1,33.7,36.3,33.7,37.6z"/>
	<path class="st1" d="M26.2,30.1c0-1.3,0-2.5,0-3.8c0,0,0,0,0,0c2.5,0,5,0,7.5,0l0,0c0,1.3,0,2.5,0,3.8l0,0
		C31.2,30,28.7,30,26.2,30.1L26.2,30.1z"/>
	<path class="st4" d="M37.5,22.5c0,1.2,0,2.5,0,3.7c-1.1,0-2.2,0-3.3,0c-0.2,0-0.3,0-0.5,0c0,0,0,0,0,0c0-1.2,0-2.5,0-3.7l0,0
		C35,22.5,36.2,22.5,37.5,22.5z"/>
	<path d="M33.7,30.1c1.2,0,2.4,0,3.6,0c0.1,0,0.2,0,0.2,0.2c0,1.1,0,2.3,0,3.4c0,0.1,0,0.2-0.2,0.2c-1.2,0-2.4,0-3.6,0l0,0
		C33.7,32.5,33.7,31.3,33.7,30.1L33.7,30.1z"/>
	<path class="st2" d="M37.5,41.3c-1.3,0-2.5,0-3.8,0c0-1.2,0-2.5,0-3.7c1.2,0,2.4,0,3.6,0c0.1,0,0.2,0,0.2,0.1
		C37.5,38.9,37.5,40.1,37.5,41.3z"/>
	<path class="st3" d="M14.9,15c2.4,0,4.9,0,7.3,0c0.1,0,0.1,0,0.2,0l0,0c0,1.3,0,2.5,0,3.8c-0.1,0-0.3,0-0.4,0c-1.1,0-2.3,0-3.4,0
		c-1.2,0-2.5,0-3.7,0C14.9,17.5,14.9,16.2,14.9,15z"/>
	<path d="M18.7,18.8c1.1,0,2.3,0,3.4,0c0.1,0,0.3,0,0.4,0l0,0c0,1.3,0,2.5,0,3.8c0,1.2,0,2.5,0,3.7c-1.1,0-2.2,0-3.4,0
		c-0.1,0-0.3,0-0.4,0c0-1.2,0-2.5,0-3.7C18.7,21.3,18.7,20,18.7,18.8z"/>
	<path class="st2" d="M26.2,41.3c-1.2,0-2.5,0-3.7,0c0-1.2,0-2.4,0-3.6c0-0.1,0.1-0.1,0.2-0.1c1.2,0,2.4,0,3.6,0
		C26.2,38.8,26.2,40.1,26.2,41.3z"/>
	<path d="M26.2,33.8c-1.2,0-2.4,0-3.6,0c-0.1,0-0.2,0-0.2-0.2c0-1.1,0-2.3,0-3.4c0-0.1,0-0.2,0.2-0.2c1.2,0,2.4,0,3.6,0c0,0,0,0,0,0
		C26.2,31.3,26.2,32.5,26.2,33.8L26.2,33.8z"/>
	<path class="st4" d="M22.5,26.3c0-1.2,0-2.5,0-3.7c1.2,0,2.5,0,3.7,0l0,0c0,1.2,0,2.5,0,3.7c0,0,0,0,0,0c-1.2,0-2.4,0-3.5,0
		C22.6,26.3,22.5,26.3,22.5,26.3z"/>
	<path d="M37.5,15c0,1.3,0,2.5,0,3.8l0,0c-1.3,0-2.5,0-3.8,0l0,0c0-1.3,0-2.5,0-3.8C35,15,36.2,15,37.5,15z"/>
	<path d="M22.5,18.7c0-1.3,0-2.5,0-3.8c1.2,0,2.5,0,3.7,0c0,1.3,0,2.5,0,3.8l0,0C25,18.7,23.7,18.7,22.5,18.7L22.5,18.7z"/>
	<path class="st4" d="M26.2,18.8c2.5,0,5,0,7.5,0l0,0c0,1.3,0,2.5,0,3.8l0,0c-2.5,0-5,0-7.5,0l0,0C26.2,21.3,26.2,20,26.2,18.8
		L26.2,18.8z"/>
	<path class="st1" d="M33.7,22.5c0-1.3,0-2.5,0-3.8c1.3,0,2.5,0,3.8,0c0,1.3,0,2.5,0,3.8C36.2,22.5,35,22.5,33.7,22.5z"/>
	<path class="st2" d="M26.2,33.8c0-1.2,0-2.5,0-3.7c2.5,0,5,0,7.5,0c0,1.2,0,2.5,0,3.7C31.2,33.8,28.7,33.8,26.2,33.8z"/>
	<path class="st2" d="M26.2,22.5c2.5,0,5,0,7.5,0c0,1.2,0,2.5,0,3.7c-2.5,0-5,0-7.5,0C26.2,25,26.2,23.8,26.2,22.5z"/>
	<path class="st1" d="M26.2,18.7c0,1.3,0,2.5,0,3.8c-1.2,0-2.5,0-3.7,0c0-1.3,0-2.5,0-3.8C23.7,18.7,25,18.7,26.2,18.7z"/>
</g>
</svg>
