<?xml version="1.0" encoding="utf-8"?>
<!-- Generator: Adobe Illustrator 25.4.0, SVG Export Plug-In . SVG Version: 6.00 Build 0)  -->
<svg version="1.1" id="Layer_1" xmlns="http://www.w3.org/2000/svg" xmlns:xlink="http://www.w3.org/1999/xlink" x="0px" y="0px"
	 viewBox="0 0 60 60" style="enable-background:new 0 0 60 60;" xml:space="preserve">
<style type="text/css">
	.st0{fill:#FE9431;}
	.st1{fill:#36FEDE;}
	.st2{fill:#3854FE;}
	.st3{fill:#B8C2FE;}
	.st4{fill:#FED30B;}
</style>
<g>
	<path d="M21.4,0c5.7,0,11.5,0,17.2,0c0,1.3,0,2.6,0,3.9c0,0.2,0,0.2,0.2,0.2c2.7,0,5.5,0,8.2,0c0.2,0,0.2,0.1,0.2,0.2
		c0,1.3,0,2.6,0,3.9c0,0.1,0,0.2,0.2,0.2c1.3,0,2.6,0,4,0c0.2,0,0.2,0,0.2,0.2c0,1.3,0,2.6,0,3.9c0,0.2,0,0.2,0.2,0.2
		c1.3,0,2.6,0,3.8,0c0.2,0,0.2,0,0.2,0.2c0,5.6,0,11.2,0,16.9c0,0.2,0,0.2,0.2,0.2c1.3,0,2.7,0,4,0c0,9.9,0,19.9,0,29.8
		c0,0.1,0,0.2-0.2,0.2C40,60,20.1,60,0.2,60c-0.2,0-0.2,0-0.2-0.2c0-9.9,0-19.9,0-29.8c1.3,0,2.6,0,3.9,0c0.2,0,0.2,0,0.2-0.2
		c0-5.6,0-11.2,0-16.8c0-0.2,0-0.2,0.2-0.2c1.3,0,2.6,0,3.9,0c0.2,0,0.2,0,0.2-0.2c0-1.3,0-2.6,0-3.9c0-0.1,0-0.2,0.2-0.2
		c1.3,0,2.6,0,4,0c0.2,0,0.2,0,0.2-0.2c0-1.3,0-2.6,0-3.9c0-0.2,0-0.2,0.2-0.2c2.7,0,5.5,0,8.2,0c0.2,0,0.2,0,0.2-0.2
		C21.4,2.6,21.4,1.3,21.4,0z M51.5,55.9c1.4,0,2.8,0,4.2,0c0.1,0,0.1,0,0.1-0.1c0-1.4,0-2.8,0-4.2c0-1.4,0-2.9,0-4.3
		c0-1.4,0-2.9,0-4.3c0-1.4,0-2.9,0-4.3c0-1.4,0-2.8,0-4.2c0-0.2-0.1-0.1-0.2-0.1c-1.3,0-2.6,0-3.9,0c-0.1,0-0.2,0-0.2,0.2
		c0,1.4,0,2.8,0,4.2c0,0-0.1,0-0.1,0c-1.4,0-2.7,0-4.1,0c-0.1,0-0.2,0-0.2,0.1c0,1.4,0,2.8,0,4.2c0,1.4,0,2.9,0,4.3
		c0,1.4,0,2.9,0,4.3c0,0.2,0,0.4,0,0.6c0,1.2,0,2.4,0,3.5c0,0.1,0,0.2,0.1,0.2C48.7,55.9,50.1,55.9,51.5,55.9z M38.6,55.9
		c0.2,0,0.4,0,0.6,0c1.2,0,2.4,0,3.5,0c0.1,0,0.2,0,0.2-0.1c0-1.4,0-2.8,0-4.2c0-1.4,0-2.9,0-4.3c0-0.2,0-0.4,0-0.7
		c0-1.2,0-2.3,0-3.5c0-0.1,0-0.2-0.1-0.2c-1.4,0-2.8,0-4.2,0c-1.4,0-2.8,0-4.2,0c-0.1,0-0.1,0-0.1,0.1c0,1.4,0,2.8,0,4.2
		c0,1.4,0,2.9,0,4.3c0,1.4,0,2.8,0,4.2c0,0.1,0,0.1,0.1,0.1C35.8,55.9,37.2,55.9,38.6,55.9z M21.4,55.9c1.4,0,2.8,0,4.2,0
		c0.1,0,0.1,0,0.1-0.1c0-1.4,0-2.8,0-4.2c0-1.4,0-2.9,0-4.3c0-1.4,0-2.8,0-4.2c0-0.1,0-0.1-0.1-0.1c-1.4,0-2.8,0-4.2,0
		c-0.2,0-0.4,0-0.6,0c-1.2,0-2.4,0-3.5,0c-0.1,0-0.2,0-0.2,0.1c0,1.4,0,2.8,0,4.2c0,1.4,0,2.9,0,4.3c0,0.2,0,0.4,0,0.5
		c0,1.2,0,2.4,0,3.6c0,0.1,0,0.2,0.1,0.2C18.6,55.9,20,55.9,21.4,55.9z M8.5,55.9c0.2,0,0.4,0,0.6,0c1.2,0,2.3,0,3.5,0
		c0.1,0,0.2,0,0.2-0.1c0-1.4,0-2.8,0-4.2c0-1.4,0-2.9,0-4.3c0-1.4,0-2.9,0-4.3c0-1.4,0-2.7,0-4.1c0-0.2,0-0.2-0.2-0.2
		c-1.4,0-2.8,0-4.1,0l0,0c0-0.1,0-0.1,0-0.2c0-1.3,0-2.6,0-3.9c0-0.1,0-0.2-0.1-0.2c-1.4,0-2.7,0-4.1,0c-0.1,0-0.1,0-0.1,0.1
		c0,1.4,0,2.8,0,4.2c0,1.4,0,2.9,0,4.3c0,1.4,0,2.9,0,4.3c0,1.4,0,2.9,0,4.3c0,1.4,0,2.8,0,4.2c0,0.1,0,0.1,0.1,0.1
		C5.7,55.9,7.1,55.9,8.5,55.9z M25.7,8.5c-2.8,0-5.6,0-8.4,0c-0.2,0-0.2,0-0.2,0.2c0,1.4,0,2.7,0,4.1c-1.4,0-2.7,0-4.1,0
		c-0.2,0-0.2,0-0.2,0.2c0,1.3,0,2.6,0,3.9c0,0.1,0,0.2-0.2,0.2c-1.3,0-2.6,0-4,0c-0.2,0-0.2,0-0.2,0.2c0,4.2,0,8.4,0,12.6
		c0,0.2,0,0.2,0.2,0.2c1.3,0,2.6,0,3.9,0c0.2,0,0.2,0,0.2,0.2c0,1.3,0,2.6,0,3.9c0,0.1,0,0.2,0.2,0.2c1.3,0,2.6,0,3.9,0
		c0.2,0,0.2,0,0.2,0.2c0,1.3,0,2.6,0,3.9c0,0.1,0,0.2,0.2,0.2c8.5,0,17,0,25.5,0c0.2,0,0.2,0,0.2-0.2c0-1.3,0-2.6,0-3.9
		c0-0.2,0.1-0.2,0.2-0.2c1.3,0,2.6,0,3.9,0c0.2,0,0.2,0,0.2-0.2c0-1.3,0-2.6,0-3.9c0-0.2,0-0.2,0.2-0.2c1.3,0,2.6,0,3.9,0
		c0.1,0,0.2,0,0.2-0.2c0-4.2,0-8.4,0-12.6c0-0.1,0-0.2-0.2-0.2c-1.3,0-2.6,0-4,0c-0.2,0-0.2,0-0.2-0.2c0-1.3,0-2.6,0-3.9
		c0-0.2,0-0.2-0.2-0.2c-1.4,0-2.7,0-4.1,0c0-1.4,0-2.7,0-4.1c0-0.2,0-0.2-0.2-0.2c-2.8,0-5.6,0-8.4,0c0-1.4,0-2.8,0-4.1
		c0-0.2,0-0.2-0.2-0.2c-2.7,0-5.5,0-8.2,0c-0.2,0-0.2,0-0.2,0.2C25.7,5.7,25.7,7.1,25.7,8.5z"/>
	<path class="st0" d="M42.9,12.8c1.4,0,2.7,0,4.1,0c0.2,0,0.2,0,0.2,0.2c0,1.3,0,2.6,0,3.9c0,0.1,0,0.2,0.2,0.2c1.3,0,2.6,0,4,0
		c0.2,0,0.2,0,0.2,0.2c0,4.2,0,8.4,0,12.6c0,0.2,0,0.2-0.2,0.2c-1.3,0-2.6,0-3.9,0c-0.2,0-0.2,0-0.2,0.2c0,1.3,0,2.6,0,3.9
		c0,0.2,0,0.2-0.2,0.2c-1.3,0-2.6,0-3.9,0c-0.2,0-0.2,0-0.2,0.2c0,1.3,0,2.6,0,3.9c0,0.1,0,0.2-0.2,0.2c-8.5,0-17,0-25.5,0
		c-0.2,0-0.2,0-0.2-0.2c0-1.3,0-2.6,0-3.9c0-0.2-0.1-0.2-0.2-0.2c-1.3,0-2.6,0-3.9,0c-0.1,0-0.2,0-0.2-0.2c0-1.3,0-2.6,0-3.9
		c0-0.2,0-0.2-0.2-0.2c-1.3,0-2.6,0-3.9,0c-0.1,0-0.2,0-0.2-0.2c0-4.2,0-8.4,0-12.6c0-0.1,0-0.2,0.2-0.2c1.3,0,2.6,0,4,0
		c0.2,0,0.2,0,0.2-0.2c0-1.3,0-2.6,0-3.9c0-0.2,0-0.2,0.2-0.2c1.4,0,2.7,0,4.1,0l0,0c0,1.4,0,2.9,0,4.3c0,1.4,0,2.9,0,4.3
		c0,1.4,0,2.9,0,4.3c0,1.3,0,2.6,0,3.9c0,0.4,0,0.4,0.4,0.4c1.3,0,2.6,0,3.9,0c0,1.3,0,2.7,0,4c0,0.2,0,0.3,0.2,0.2
		c5.6,0,11.2,0,16.7,0c0.2,0,0.2-0.1,0.2-0.2c0-1.3,0-2.7,0-4c0.6,0,1.2,0,1.8,0c0.8,0,1.6,0,2.4,0c0.1,0,0.2,0,0.2-0.1
		c0-1.4,0-2.8,0-4.2c0-1.4,0-2.9,0-4.3c0-1.4,0-2.9,0-4.3C42.9,15.6,42.9,14.2,42.9,12.8L42.9,12.8z"/>
	<path class="st0" d="M25.7,8.5c0-1.4,0-2.8,0-4.1c0-0.2,0-0.2,0.2-0.2c2.7,0,5.5,0,8.2,0c0.2,0,0.2,0,0.2,0.2c0,1.4,0,2.8,0,4.1
		l0,0C31.4,8.5,28.6,8.5,25.7,8.5L25.7,8.5z"/>
	<path class="st0" d="M34.3,8.5c2.8,0,5.6,0,8.4,0c0.2,0,0.2,0,0.2,0.2c0,1.4,0,2.7,0,4.1l0,0c-1.4,0-2.9,0-4.3,0
		c-1.4,0-2.9,0-4.3,0c0-0.1,0-0.2,0-0.2C34.3,11.2,34.3,9.8,34.3,8.5L34.3,8.5z"/>
	<path class="st0" d="M17.1,12.8c0-1.4,0-2.7,0-4.1c0-0.2,0-0.2,0.2-0.2c2.8,0,5.6,0,8.4,0l0,0c0,0.2,0,0.3,0,0.5c0,1.3,0,2.5,0,3.8
		c-1.4,0-2.9,0-4.3,0C20,12.8,18.5,12.8,17.1,12.8L17.1,12.8z"/>
	<path class="st1" d="M47.2,51.6c0-1.4,0-2.9,0-4.3c1.4,0,2.9,0,4.3,0l0,0c0,1.4,0,2.9,0,4.3C50.1,51.6,48.7,51.6,47.2,51.6z"/>
	<path class="st1" d="M42.9,47.3c0,1.4,0,2.9,0,4.3c-1.4,0-2.9,0-4.3,0c0,0,0,0,0,0c0-1.4,0-2.9,0-4.3
		C40.1,47.3,41.5,47.3,42.9,47.3z"/>
	<path class="st2" d="M38.6,47.3c0,1.4,0,2.9,0,4.3c-1.4,0-2.9,0-4.3,0c0-1.4,0-2.9,0-4.3C35.7,47.3,37.2,47.3,38.6,47.3L38.6,47.3z
		"/>
	<path class="st1" d="M17.1,51.6c0-1.4,0-2.9,0-4.3c1.4,0,2.9,0,4.3,0l0,0c0,1.4,0,2.9,0,4.3C20,51.6,18.5,51.6,17.1,51.6z"/>
	<path class="st1" d="M12.8,47.3c0,1.4,0,2.9,0,4.3c-1.4,0-2.9,0-4.3,0l0,0c0-1.4,0-2.9,0-4.3C9.9,47.3,11.4,47.3,12.8,47.3z"/>
	<path class="st2" d="M8.5,47.3c0,1.4,0,2.9,0,4.3c-1.4,0-2.9,0-4.3,0c0-1.4,0-2.9,0-4.3C5.6,47.3,7,47.3,8.5,47.3L8.5,47.3z"/>
	<path class="st2" d="M51.5,47.3c-1.4,0-2.9,0-4.3,0c0-1.4,0-2.9,0-4.3c1.4,0,2.9,0,4.3,0C51.5,44.4,51.5,45.8,51.5,47.3z"/>
	<path class="st3" d="M4.2,38.7c0-1.4,0-2.8,0-4.2c0-0.1,0-0.1,0.1-0.1c1.4,0,2.7,0,4.1,0c0.2,0,0.1,0.1,0.1,0.2c0,1.3,0,2.6,0,3.9
		c0,0.1,0,0.1,0,0.2C7,38.7,5.6,38.7,4.2,38.7z"/>
	<path class="st2" d="M42.9,47.3c-1.4,0-2.9,0-4.3,0l0,0c0-1.4,0-2.9,0-4.3c1.4,0,2.8,0,4.2,0c0.2,0,0.1,0.1,0.1,0.2
		c0,1.2,0,2.3,0,3.5C42.9,46.8,42.9,47.1,42.9,47.3z"/>
	<path class="st3" d="M38.6,43c0,1.4,0,2.9,0,4.3c-1.4,0-2.9,0-4.3,0c0-1.4,0-2.8,0-4.2c0-0.1,0-0.1,0.1-0.1
		C35.8,43,37.2,43,38.6,43z"/>
	<path class="st2" d="M21.4,47.3c-1.4,0-2.9,0-4.3,0c0-1.4,0-2.8,0-4.2c0-0.2,0.1-0.1,0.2-0.1c1.2,0,2.4,0,3.5,0c0.2,0,0.4,0,0.6,0
		C21.4,44.4,21.4,45.8,21.4,47.3z"/>
	<path class="st2" d="M12.8,47.3c-1.4,0-2.9,0-4.3,0l0,0c0-1.4,0-2.9,0-4.3l0,0c1.4,0,2.9,0,4.3,0C12.8,44.4,12.8,45.8,12.8,47.3z"
		/>
	<path class="st3" d="M8.5,42.9c0,1.4,0,2.9,0,4.3c-1.4,0-2.9,0-4.3,0c0-1.4,0-2.9,0-4.3C5.6,42.9,7,42.9,8.5,42.9z"/>
	<path class="st2" d="M8.5,42.9c-1.4,0-2.9,0-4.3,0c0-1.4,0-2.9,0-4.3c1.4,0,2.9,0,4.3,0l0,0C8.5,40.1,8.5,41.5,8.5,42.9
		C8.5,43,8.5,42.9,8.5,42.9z"/>
	<path class="st3" d="M51.5,42.9c-1.4,0-2.9,0-4.3,0c0-1.4,0-2.8,0-4.2c0-0.2,0.1-0.1,0.2-0.1c1.4,0,2.7,0,4.1,0c0,0,0.1,0,0.1,0
		l0,0C51.5,40.1,51.5,41.5,51.5,42.9L51.5,42.9z"/>
	<path class="st3" d="M8.5,43c0-1.4,0-2.9,0-4.3c1.4,0,2.8,0,4.1,0c0.2,0,0.2,0,0.2,0.2c0,1.4,0,2.7,0,4.1
		C11.4,42.9,9.9,42.9,8.5,43z"/>
	<path class="st3" d="M21.4,47.3c0-1.4,0-2.9,0-4.3c1.4,0,2.8,0,4.2,0c0.1,0,0.1,0,0.1,0.1c0,1.4,0,2.8,0,4.2
		C24.3,47.3,22.8,47.3,21.4,47.3L21.4,47.3z"/>
	<path class="st3" d="M51.5,38.7c0-1.4,0-2.8,0-4.2c0-0.1,0-0.2,0.2-0.2c1.3,0,2.6,0,3.9,0c0.1,0,0.2,0,0.2,0.1c0,1.4,0,2.8,0,4.2
		C54.4,38.7,53,38.7,51.5,38.7L51.5,38.7z"/>
	<path class="st3" d="M51.5,47.3c0-1.4,0-2.9,0-4.3l0,0c1.4,0,2.9,0,4.3,0c0,1.4,0,2.9,0,4.3C54.4,47.3,53,47.3,51.5,47.3L51.5,47.3
		z"/>
	<path class="st2" d="M21.4,47.3c1.4,0,2.9,0,4.3,0c0,1.4,0,2.9,0,4.3c-1.4,0-2.9,0-4.3,0l0,0C21.4,50.2,21.4,48.7,21.4,47.3z"/>
	<path class="st2" d="M51.5,47.3c1.4,0,2.9,0,4.3,0c0,1.4,0,2.9,0,4.3c-1.4,0-2.9,0-4.3,0l0,0C51.5,50.2,51.5,48.7,51.5,47.3z"/>
	<path class="st1" d="M4.2,51.6c1.4,0,2.9,0,4.3,0l0,0c0,1.4,0,2.9,0,4.3c-1.4,0-2.8,0-4.2,0c-0.1,0-0.1,0-0.1-0.1
		C4.2,54.4,4.2,53,4.2,51.6z"/>
	<path class="st2" d="M8.5,55.9c0-1.4,0-2.9,0-4.3c1.4,0,2.9,0,4.3,0c0,1.4,0,2.8,0,4.2c0,0.2-0.1,0.1-0.2,0.1c-1.2,0-2.3,0-3.5,0
		C8.9,55.9,8.7,55.9,8.5,55.9z"/>
	<path class="st2" d="M17.1,51.6c1.4,0,2.9,0,4.3,0l0,0c0,1.4,0,2.9,0,4.3c-1.4,0-2.8,0-4.2,0c-0.2,0-0.1-0.1-0.1-0.2
		c0-1.2,0-2.4,0-3.6C17.1,52,17.1,51.8,17.1,51.6z"/>
	<path class="st1" d="M34.3,51.6c1.4,0,2.9,0,4.3,0l0,0c0,1.4,0,2.9,0,4.3c-1.4,0-2.8,0-4.2,0c-0.1,0-0.1,0-0.1-0.1
		C34.3,54.4,34.3,53,34.3,51.6z"/>
	<path class="st2" d="M38.6,55.9c0-1.4,0-2.9,0-4.3c1.4,0,2.9,0,4.3,0c0,1.4,0,2.8,0,4.2c0,0.2-0.1,0.1-0.2,0.1c-1.2,0-2.4,0-3.5,0
		C39,55.9,38.8,55.9,38.6,55.9z"/>
	<path class="st2" d="M47.2,51.6c1.4,0,2.9,0,4.3,0l0,0c0,1.4,0,2.9,0,4.3c-1.4,0-2.8,0-4.2,0c-0.2,0-0.1-0.1-0.1-0.2
		c0-1.2,0-2.4,0-3.5C47.2,52,47.2,51.8,47.2,51.6z"/>
	<path class="st2" d="M55.8,42.9c-1.4,0-2.9,0-4.3,0c0-1.4,0-2.9,0-4.3c1.4,0,2.9,0,4.3,0C55.8,40.1,55.8,41.5,55.8,42.9z"/>
	<path class="st1" d="M21.4,55.9c0-1.4,0-2.9,0-4.3c1.4,0,2.9,0,4.3,0c0,1.4,0,2.8,0,4.2c0,0.1,0,0.1-0.1,0.1
		C24.2,55.9,22.8,55.9,21.4,55.9z"/>
	<path class="st1" d="M51.5,55.9c0-1.4,0-2.9,0-4.3c1.4,0,2.9,0,4.3,0c0,1.4,0,2.8,0,4.2c0,0.1,0,0.1-0.1,0.1
		C54.3,55.9,52.9,55.9,51.5,55.9z"/>
	<path class="st4" d="M38.6,30c0,1.3,0,2.7,0,4c0,0.2,0,0.3-0.2,0.2c-5.6,0-11.2,0-16.7,0c-0.2,0-0.2-0.1-0.2-0.2c0-1.3,0-2.7,0-4
		l0,0c0.2,0,0.3,0,0.5,0c1.2,0,2.4,0,3.6,0c0.1,0,0.2,0,0.2-0.1c0-1.4,0-2.8,0-4.2c0-1.4,0-2.9,0-4.3c0-0.1,0-0.2,0-0.2
		c0-1.4,0-2.7,0-4.1l0,0c2.9,0,5.7,0,8.6,0l0,0c0,0.2,0,0.4,0,0.6c0,1.2,0,2.5,0,3.7c0,1.4,0,2.9,0,4.3c0,1.4,0,2.8,0,4.2
		c0,0.1,0,0.1,0.1,0.1C35.8,30,37.2,30,38.6,30L38.6,30z"/>
	<path class="st1" d="M38.6,12.8c1.4,0,2.9,0,4.3,0c0,1.4,0,2.9,0,4.3c-1.4,0-2.9,0-4.3,0C38.6,15.6,38.6,14.2,38.6,12.8z"/>
	<path class="st4" d="M17.1,21.4c0-1.4,0-2.9,0-4.3c1.4,0,2.9,0,4.3,0l0,0c0,1.4,0,2.9,0,4.3C20,21.4,18.5,21.4,17.1,21.4z"/>
	<path class="st1" d="M21.4,17.1c-1.4,0-2.9,0-4.3,0c0-1.4,0-2.9,0-4.3c1.4,0,2.9,0,4.3,0C21.4,14.2,21.4,15.6,21.4,17.1z"/>
	<path class="st4" d="M38.6,17.1c1.4,0,2.9,0,4.3,0c0,1.4,0,2.9,0,4.3c-1.4,0-2.9,0-4.3,0C38.6,20,38.6,18.5,38.6,17.1L38.6,17.1z"
		/>
	<path class="st3" d="M21.4,30c-1.3,0-2.6,0-3.9,0c-0.4,0-0.4,0-0.4-0.4c0-1.3,0-2.6,0-3.9c1.4,0,2.9,0,4.3,0
		C21.4,27.1,21.4,28.6,21.4,30L21.4,30z"/>
	<path class="st3" d="M42.9,25.7c0,1.4,0,2.8,0,4.2c0,0.1-0.1,0.1-0.2,0.1c-0.8,0-1.6,0-2.4,0c-0.6,0-1.2,0-1.8,0c0,0,0,0,0,0
		c0-1.4,0-2.9,0-4.3C40.1,25.7,41.5,25.7,42.9,25.7z"/>
	<path d="M42.9,25.7c-1.4,0-2.9,0-4.3,0l0,0c0-1.4,0-2.9,0-4.3l0,0c1.4,0,2.9,0,4.3,0C42.9,22.8,42.9,24.3,42.9,25.7z"/>
	<path d="M21.4,25.7c-1.4,0-2.9,0-4.3,0c0-1.4,0-2.9,0-4.3c1.4,0,2.9,0,4.3,0l0,0C21.4,22.8,21.4,24.3,21.4,25.7L21.4,25.7z"/>
	<path class="st1" d="M34.3,17.1c-2.9,0-5.7,0-8.6,0c0-1.4,0-2.9,0-4.3c0-1.3,0-2.5,0-3.8c0-0.2,0-0.3,0-0.5c2.9,0,5.7,0,8.6,0
		c0,1.4,0,2.7,0,4.1c0,0.1,0,0.2,0,0.2C34.3,14.2,34.3,15.6,34.3,17.1z"/>
	<path class="st4" d="M34.3,17.1c0-1.4,0-2.9,0-4.3c1.4,0,2.9,0,4.3,0c0,1.4,0,2.9,0,4.3l0,0C37.2,17.1,35.7,17.1,34.3,17.1
		L34.3,17.1z"/>
	<path class="st4" d="M25.7,12.8c0,1.4,0,2.9,0,4.3l0,0c-1.4,0-2.9,0-4.3,0l0,0c0-1.4,0-2.9,0-4.3C22.8,12.8,24.3,12.8,25.7,12.8z"
		/>
	<path class="st1" d="M34.3,17.1c1.4,0,2.9,0,4.3,0c0,1.4,0,2.9,0,4.3c0,0,0,0,0,0c-1.4,0-2.9,0-4.3,0c0-1.2,0-2.5,0-3.7
		C34.3,17.5,34.3,17.3,34.3,17.1z"/>
	<path class="st1" d="M38.6,25.7c0,1.4,0,2.9,0,4.3c-1.4,0-2.8,0-4.2,0c-0.1,0-0.1,0-0.1-0.1c0-1.4,0-2.8,0-4.2
		C35.7,25.7,37.2,25.7,38.6,25.7L38.6,25.7z"/>
	<path class="st1" d="M21.4,30c0-1.4,0-2.9,0-4.3l0,0c1.4,0,2.9,0,4.3,0c0,1.4,0,2.8,0,4.2c0,0.2-0.1,0.1-0.2,0.1
		c-1.2,0-2.4,0-3.6,0C21.7,30,21.6,30,21.4,30z"/>
	<path class="st3" d="M38.6,25.7c-1.4,0-2.9,0-4.3,0c0-1.4,0-2.9,0-4.3c1.4,0,2.9,0,4.3,0C38.6,22.8,38.6,24.3,38.6,25.7z"/>
	<path class="st1" d="M21.4,17.1c1.4,0,2.9,0,4.3,0c0,1.4,0,2.7,0,4.1c0,0.1,0,0.2,0,0.2c-1.4,0-2.9,0-4.3,0l0,0
		C21.4,20,21.4,18.5,21.4,17.1z"/>
	<path class="st3" d="M21.4,21.4c1.4,0,2.9,0,4.3,0c0,1.4,0,2.9,0,4.3c-1.4,0-2.9,0-4.3,0C21.4,24.3,21.4,22.8,21.4,21.4z"/>
</g>
</svg>
