<svg xmlns="http://www.w3.org/2000/svg" viewBox="0 0 54.72 54.96"><defs><style>.cls-1{fill:#fe9431;}.cls-2{fill:#36fede;}.cls-3{fill:#b8c2fe;}.cls-4{fill:#3854fe;}.cls-5{fill:#fed30b;}</style></defs><g id="Layer_2" data-name="Layer 2"><g id="Layer_1-2" data-name="Layer 1"><path d="M43,55H11.5q0-5.76,0-11.51c0-.14,0-.18-.18-.18H0V23.59H3.46c.14,0,.17,0,.17-.17V15.87c0-.13,0-.16.16-.16H7.57v8c0,1.25,0,2.51,0,3.77H3.8c-.14,0-.17,0-.17.18V39.23c0,.09,0,.11.11.11.26,0,.52,0,.78,0H7.74c1.19,0,2.38,0,3.58,0,.15,0,.19,0,.19-.19q0-5.73,0-11.45V23.59h3.8c.12,0,.15,0,.14.14s0,.29,0,.43c0,1.12,0,2.25,0,3.37a2.71,2.71,0,0,0,0,.29c0,1.21,0,2.43,0,3.64a1,1,0,0,0,0,.17v3.59c0,.15,0,.19.19.19H39q.11,0,.09-.09V23.73c0-.1,0-.14.13-.14H43V39.24c0,.07,0,.1.09.1s.23,0,.34,0h7.29c.13,0,.16,0,.16-.16q0-5.74,0-11.5c0-.12,0-.16-.16-.16q-1.89,0-3.78,0h0V26.45c0-.95,0-1.9,0-2.86,0-.2,0-.41,0-.61,0-1.11,0-2.22,0-3.33V15.72H50.7c.14,0,.18,0,.18.18q0,3.76,0,7.55c0,.12,0,.15.16.15h3.69V43.28H43.17c-.14,0-.17,0-.17.18Zm-7.88-3.82h3.45c.16,0,.37.05.46,0s0-.3,0-.47V39.83c0-.16.06-.37,0-.46s-.31,0-.47,0H31.33c-.12,0-.15,0-.14.14s0,.34,0,.5V50.84c0,.31,0,.31.31.31Zm-15.74,0h3.8c.11,0,.14,0,.14-.14s0-.32,0-.48V42.89c0-1.14,0-2.27,0-3.41,0-.12,0-.15-.15-.14H15.93c-.15,0-.36-.06-.46,0s0,.31,0,.47c0,1.15,0,2.3,0,3.45,0,.23,0,.46,0,.7,0,1.08,0,2.15,0,3.23,0,1.28,0,2.56,0,3.84,0,.11.06.1.13.1h3.81Z"/><path d="M11.5,0H43V11.78H35.12V7.85h3.8c.11,0,.15,0,.14-.15s0-.36,0-.55V4.05c0-.12,0-.16-.14-.15H15.54c-.11,0-.1.06-.1.13V7.72c0,.1,0,.13.12.13h3.82v3.93H11.5Z"/><path class="cls-1" d="M39.06,31.46v3.85q0,.11-.09.09H15.63c-.16,0-.19,0-.19-.19V31.63a1,1,0,0,1,0-.17h3.74c.15,0,.19,0,.19-.19,0-.68,0-1.35,0-2s0-1.15,0-1.72h3.85c.11,0,.09-.06.09-.13V23.59h7.88v3.84c0,.11.06.1.12.1h3.82v.15c0,1.2,0,2.4,0,3.6,0,.14,0,.19.19.19Z"/><path class="cls-2" d="M43,23.59H39.19c-.12,0-.13,0-.13.14v3.8H35.12c0-1.26,0-2.53,0-3.79,0-.11,0-.14-.14-.14h-3.8V19.66H35c.12,0,.16,0,.16-.16,0-1.26,0-2.52,0-3.78h3.93v3.79c0,.12,0,.15.14.15H43Z"/><path class="cls-2" d="M15.45,27.53c0-1.12,0-2.25,0-3.37,0-.14,0-.29,0-.43s0-.14-.14-.14H11.5V19.66h3.8c.12,0,.14,0,.14-.15V15.72h3.94V17c0,.82,0,1.65,0,2.47,0,.13,0,.16.16.16h3.78v3.92h-3.8c-.12,0-.15,0-.15.14,0,1.26,0,2.53,0,3.79H15.45Z"/><path class="cls-3" d="M46.94,27.52q1.89,0,3.78,0c.13,0,.16,0,.16.16q0,5.76,0,11.5c0,.13,0,.16-.16.16H46.94Z"/><path class="cls-4" d="M46.94,27.52V39.33H43.43c-.11,0-.22,0-.34,0s-.1,0-.09-.1V27.53h3.94Z"/><path class="cls-4" d="M11.5,27.53v.17q0,5.72,0,11.45c0,.15,0,.19-.19.19-1.2,0-2.39,0-3.58,0H7.57V27.53H11.5Z"/><path class="cls-3" d="M7.57,27.53v11.8H4.52c-.26,0-.52,0-.78,0-.09,0-.12,0-.11-.11V27.7c0-.14,0-.18.17-.18Z"/><path class="cls-1" d="M7.57,19.65V15.72H11.5v1.4c0,.85,0,1.69,0,2.53H7.57Z"/><path class="cls-1" d="M46.93,15.72v3.93H43a1.09,1.09,0,0,0,0-.18V15.72h3.93Z"/><path class="cls-5" d="M7.57,19.65H11.5v3.93H7.57V19.65Z"/><path class="cls-5" d="M43,19.66h3.93c0,1.11,0,2.22,0,3.33,0,.2,0,.41,0,.61H43Z"/><path class="cls-3" d="M7.57,23.59H11.5v3.94H7.56c0-1.26,0-2.52,0-3.77Z"/><path class="cls-3" d="M43,23.59h3.93c0,1,0,1.91,0,2.86v1.08H43V23.59Z"/><path class="cls-5" d="M15.45,27.53h3.92c0,.57,0,1.15,0,1.72s0,1.35,0,2c0,.14,0,.19-.19.19H15.45c0-1.21,0-2.43,0-3.64A2.71,2.71,0,0,1,15.45,27.53Z"/><path class="cls-5" d="M35.13,27.53h3.93v3.93H35.31c-.15,0-.19,0-.19-.19,0-1.2,0-2.4,0-3.6Z"/><path class="cls-4" d="M15.45,43.28c0-1.15,0-2.3,0-3.45,0-.16-.07-.38,0-.47s.31,0,.46,0h3.45v3.94Z"/><path class="cls-3" d="M19.38,43.28V39.34h3.79c.12,0,.15,0,.15.14,0,1.14,0,2.27,0,3.41v.39H19.38Z"/><path class="cls-3" d="M31.19,43.28V40c0-.16,0-.33,0-.5s0-.15.14-.14h3.79v3.94Z"/><path class="cls-4" d="M35.13,43.28V39.34h3.45c.16,0,.38-.07.47,0s0,.3,0,.46v3.45H35.13Z"/><path class="cls-3" d="M15.45,43.28h3.93v3.94H15.45c0-1.08,0-2.15,0-3.23C15.44,43.74,15.44,43.51,15.45,43.28Z"/><path class="cls-4" d="M19.38,47.21V43.27h3.93v3.93Z"/><path class="cls-4" d="M31.19,43.28h3.93v3.94H31.19V43.28Z"/><path class="cls-3" d="M35.13,47.21V43.27h3.94v3.93H35.13Z"/><path class="cls-4" d="M15.45,47.21h3.93v3.93H15.57c-.07,0-.13,0-.13-.1C15.44,49.77,15.44,48.49,15.45,47.21Z"/><path class="cls-3" d="M19.38,51.14V47.21h3.93v3.32c0,.16,0,.32,0,.48s0,.14-.14.14h-3.8Z"/><path class="cls-3" d="M31.19,47.21h3.93v3.93H31.5c-.31,0-.31,0-.31-.31V47.21Z"/><path class="cls-4" d="M35.12,51.14V47.21h3.94v3.44c0,.17.07.38,0,.47s-.3,0-.46,0Z"/><path class="cls-5" d="M23.31,3.91h7.88V7.84H23.31Z"/><path class="cls-1" d="M39.06,11.79H43v3.94H39.06V11.79Z"/><path class="cls-5" d="M39.06,11.79v3.92H35.12V11.78h3.94Z"/><path class="cls-5" d="M19.38,15.72H15.45c0-.05,0-.1,0-.15V11.79h3.94v3.94Z"/><path class="cls-1" d="M15.44,11.79v3.77s0,.1,0,.15H11.51V11.78h3.94Z"/><path class="cls-2" d="M35.12,7.85v3.93H31.19V7.85h3.93Z"/><path class="cls-2" d="M19.38,11.78V7.85h3.93v3.92H19.38Z"/><path class="cls-5" d="M35.13,3.91h3.79c.12,0,.15,0,.14.15v3.1c0,.19,0,.37,0,.55s0,.15-.14.15h-3.8Z"/><path class="cls-1" d="M35.13,3.91V7.84H31.19V3.91h3.94Z"/><path class="cls-1" d="M23.31,7.84H19.37V3.91h3.93Z"/><path class="cls-5" d="M19.38,3.91V7.84H15.56c-.1,0-.12,0-.12-.13V4c0-.07,0-.13.1-.13Z"/><path d="M43,15.72V11.78h3.77c.14,0,.17,0,.17.16,0,1.26,0,2.52,0,3.78Z"/><path d="M11.5,11.78v3.94H7.56c0-1.26,0-2.52,0-3.78,0-.13,0-.16.17-.16Z"/><path class="cls-5" d="M23.32,23.58V19.66h7.88v3.92H23.32Z"/><path d="M19.38,27.52c0-1.26,0-2.53,0-3.79,0-.11,0-.14.15-.14h3.79V27.4c0,.07,0,.13-.09.13Z"/><path d="M31.19,23.59H35c.11,0,.14,0,.14.14,0,1.26,0,2.53,0,3.79H31.31c-.06,0-.12,0-.12-.1Z"/><path d="M31.19,19.66H19.53c-.12,0-.16,0-.16-.16,0-.82,0-1.65,0-2.47V15.72H35.13c0,1.26,0,2.52,0,3.78,0,.13,0,.16-.16.16H31.19Z"/><path d="M39.06,15.72H43v3.75a1.09,1.09,0,0,1,0,.18H39.2c-.11,0-.14,0-.14-.15Z"/><path d="M11.5,15.72h3.94v3.79c0,.12,0,.15-.14.15H11.51c0-.84,0-1.68,0-2.53Z"/><path d="M23.31,11.77V7.85h7.88v3.92H23.31Z"/><path class="cls-1" d="M35.12,15.72H31.19V11.78h3.93Z"/><path class="cls-1" d="M23.31,15.71H19.38V11.78h3.94Z"/><path class="cls-5" d="M23.31,15.71V11.78h7.87v3.93H23.31Z"/></g></g></svg>